<svg width="440" height="504" viewBox="0 0 440 504" fill="none" xmlns="http://www.w3.org/2000/svg">
<g clip-path="url(#clip0_923_6237)">
<path d="M270.121 435.652C268.829 439.725 267.885 443.765 267.08 447.837C265.812 454.292 265.031 460.795 265.21 467.387C265.267 469.509 265.291 469.444 267.381 469.924C281.815 473.216 296.085 477.045 309.763 482.824C312.877 484.141 315.894 485.637 318.764 487.433C320.423 488.474 322.041 489.587 323.293 491.099C323.944 491.888 324.668 492.116 325.635 492.197C331.132 492.652 336.645 493.091 342.069 494.14C343.281 494.375 344.484 494.652 345.655 495.034C346.42 495.286 347.485 495.505 347.517 496.497C347.558 497.521 346.476 497.708 345.728 498.009C344.273 498.578 342.736 498.871 341.199 499.139C335.881 500.074 330.514 500.602 325.139 501.033C315.943 501.773 306.73 502.285 297.508 502.667C261.583 504.154 225.634 504.26 189.684 503.707C175.649 503.496 161.622 502.976 147.604 502.195C138.196 501.667 128.795 501.114 119.444 499.968C116.549 499.61 113.646 499.261 110.833 498.432C110.15 498.228 109.451 498.033 108.898 497.562C108.255 497.017 108.263 496.481 108.955 495.977C109.808 495.351 110.833 495.115 111.841 494.871C116.021 493.855 120.282 493.408 124.543 492.953C133.008 492.051 141.505 491.53 150.003 491.083C158.313 490.644 166.623 490.384 174.942 490.108C185.594 489.75 196.255 489.482 207.078 489.433C206.557 488.783 205.915 488.791 205.346 488.645C195.189 485.946 185.106 482.979 175.397 478.898C171.982 477.467 168.64 475.89 165.509 473.891C163.753 472.769 162.07 471.549 160.785 469.875C158.785 467.266 159.199 464.876 162.005 463.144C164.485 461.608 167.29 461.039 170.12 460.584C176.495 459.567 182.927 459.389 189.359 459.511C202.37 459.763 215.299 460.957 228.171 462.819C229.171 462.965 229.691 462.738 230.114 461.795C233.749 453.698 236.587 445.374 237.441 436.481C237.66 434.148 237.595 431.815 237.221 429.49C237.026 428.304 236.611 427.629 235.253 427.312C221.227 424.036 207.224 420.663 193.213 417.322C183.049 414.899 172.893 412.493 162.728 410.071C158.768 409.128 155.06 407.599 151.808 405.12C146.522 401.096 143.522 395.886 143.042 389.114C142.481 381.075 141.944 373.043 142.147 364.98C142.383 355.436 142.993 345.909 144.286 336.439C144.4 335.618 144.441 334.789 144.522 333.911C143.367 333.594 142.261 333.553 141.164 333.569C126.161 333.797 112.524 338.008 100.717 347.502C99.2455 348.681 97.9119 350.014 96.5621 351.331C95.3424 352.526 94.8057 352.363 94.4072 350.689C91.8133 339.837 89.2437 328.977 86.666 318.116C86.3326 316.726 86.1293 315.296 85.6659 313.954C85.1536 312.467 85.6415 311.597 86.8124 310.654C92.8541 305.817 99.7009 302.655 107.133 300.745C121.209 297.119 135.179 297.713 149.035 301.989C149.588 302.159 150.1 302.46 150.816 302.363C151.653 299.477 152.466 296.55 153.345 293.648C157.288 280.699 162.216 268.172 168.925 256.369C171.876 251.175 175.389 246.476 180.211 242.851C184.618 239.534 189.497 237.364 195.084 237.242C197.548 237.185 200.011 237.421 202.475 237.616C203.516 237.697 204.28 237.535 205.077 236.746C207.143 234.698 209.737 233.763 212.632 233.6C214.193 233.511 215.738 233.682 217.632 233.738C213.55 227.341 209.834 220.992 206.687 214.156C205.289 214.554 203.939 214.944 202.581 215.31C194.092 217.562 185.488 219.09 176.715 219.724C165.086 220.561 153.605 219.854 142.318 216.879C133.569 214.57 125.421 210.961 118.346 205.214C111.118 199.345 106.076 192.045 104.043 182.843C102.262 174.804 103.206 166.96 105.954 159.294C109.418 149.637 115.216 141.475 122.331 134.2C133.341 122.942 146.376 114.683 160.793 108.513C173.405 103.115 186.529 99.5628 200.166 98.0671C214.242 96.5226 228.195 97.0672 241.873 101.099C250.435 103.627 258.339 107.44 265.096 113.382C272.325 119.739 277.025 127.559 278.407 137.167C279.44 144.321 278.464 151.279 276.033 158.05C273.951 163.838 270.967 169.138 267.357 174.097C266.357 175.47 266.332 175.495 267.292 176.934C272.211 184.282 278.741 189.42 287.458 191.517C287.767 191.59 288.108 191.639 288.377 191.793C288.897 192.094 288.889 192.557 288.474 192.915C288.141 193.208 287.694 193.37 287.287 193.574C281.351 196.573 275 197.646 268.422 197.549C261.909 197.451 255.664 196.15 249.866 193.061C249.272 192.744 248.857 192.712 248.305 193.143C242.417 197.671 236.115 201.524 229.529 204.946C229.431 204.995 229.382 205.149 229.285 205.287C229.35 205.434 229.399 205.621 229.496 205.767C238.034 217.814 246.898 229.585 257.607 239.851C258.461 240.672 259.29 241.063 260.477 241.128C271.113 241.721 281.75 242.388 292.386 243.03C292.703 243.046 293.02 243.03 293.321 243.03C293.63 242.412 293.085 242.168 292.833 241.867C290.198 238.762 287.181 236.128 283.433 234.438C281.652 233.633 279.806 233.015 277.838 232.917C277.269 232.885 276.732 232.787 276.724 232.129C276.724 231.479 277.245 231.357 277.822 231.308C282.075 230.975 285.628 229.032 288.832 226.374C294.118 221.976 297.59 216.31 299.94 209.945C301.265 206.352 302.404 202.686 302.387 198.784C302.387 198.191 302.542 197.744 303.225 197.727C303.949 197.703 304.014 198.207 304.062 198.768C304.949 208.84 308.819 217.562 315.91 224.789C318.959 227.902 322.578 230.137 326.912 231.097C327.554 231.243 328.189 231.3 328.839 231.316C329.36 231.324 329.726 231.56 329.726 232.129C329.726 232.706 329.343 232.901 328.823 232.909C327.042 232.934 325.359 233.462 323.749 234.137C318.87 236.177 315.186 239.664 312.072 243.867C313.373 244.42 332.222 245.777 342.386 246.07C342.671 244.81 342.419 243.526 342.362 242.266C342.069 235.998 342.59 229.82 344.037 223.707C344.338 222.439 344.948 221.886 346.184 221.618C356.568 219.293 366.944 216.92 377.319 214.562C379.913 213.969 382.507 213.384 385.101 212.79C385.418 212.717 385.736 212.636 386.053 212.587C387.809 212.311 388.232 212.823 387.549 214.465C385.963 218.261 384.939 222.195 384.215 226.235C383.198 231.958 382.938 237.713 383.044 243.509C383.06 244.615 383.068 245.72 383.109 246.826C383.174 248.533 383.182 248.541 384.817 248.647C389.029 248.907 393.249 249.167 397.461 249.427C399.535 249.557 401.616 249.809 403.69 249.777C407.536 249.72 410.772 251.272 413.757 253.427C419.872 257.833 425.954 262.287 431.979 266.799C435.655 269.554 437.493 273.351 438.127 277.895C439.623 288.609 440.013 299.363 439.688 310.158C439.184 326.944 437.102 343.544 433.89 360.013C430.321 378.327 425.401 396.268 418.676 413.688C414.44 424.67 409.52 435.319 403.194 445.277C402.462 446.431 401.738 447.585 400.941 448.691C399.161 451.146 396.876 452.869 393.794 453.333C384.353 454.747 374.912 456.145 365.48 457.576C363.902 457.812 362.357 457.698 360.845 457.332C331.376 450.3 301.908 443.245 272.447 436.197C271.756 436.034 271.057 435.888 270.154 435.685L270.121 435.652ZM267.763 118.495C267.739 118.162 267.568 117.926 267.267 117.788C264.226 114.146 260.445 111.415 256.404 109.017C247.191 103.554 237.083 100.79 226.536 99.5547C214.973 98.1972 203.435 98.7337 191.986 100.782C177.17 103.432 163.102 108.269 149.897 115.544C139.123 121.478 129.275 128.624 121.005 137.809C114.679 144.833 109.573 152.612 106.71 161.708C103.669 171.357 103.685 180.884 108.084 190.184C111.37 197.134 116.46 202.507 122.803 206.718C132.764 213.335 143.879 216.611 155.678 217.838C161.281 218.529 166.884 218.781 172.543 218.529C180.089 218.188 187.53 217.253 194.897 215.676C198.572 214.896 202.223 214.026 205.947 212.782C205.305 211.327 204.711 209.978 204.11 208.628C203.565 207.173 203.053 205.702 202.451 204.271C201.833 202.8 201.874 201.15 201.207 199.63C199.946 200.418 198.816 201.158 197.645 201.849C197.027 202.215 196.36 202.483 195.612 202.434C195.189 202.41 194.823 202.247 194.758 201.8C194.685 201.361 194.978 200.987 195.385 200.955C196.255 200.881 197.003 200.556 197.735 200.101C200.182 198.573 202.248 196.622 204.085 194.411C204.297 194.159 204.484 193.899 204.232 193.509C201.41 193.33 198.597 192.842 195.897 191.883C195.214 191.639 194.027 191.558 194.311 190.558C194.636 189.412 195.62 190.184 196.263 190.411C200.694 192.005 205.289 192.289 209.899 191.81C216.665 191.11 222.877 188.786 228.512 184.941C228.886 184.689 229.269 184.437 229.675 184.233C229.992 184.071 230.326 184.128 230.529 184.437C230.732 184.737 230.7 185.095 230.456 185.331C230.09 185.689 229.675 186.014 229.244 186.298C226.813 187.924 224.251 189.314 221.536 190.42C220.893 190.68 220.169 190.818 219.543 191.419C221.373 194.069 223.203 196.719 225.04 199.378C225.683 200.353 226.317 201.329 226.984 202.296C228.13 203.962 228.146 203.962 229.895 203.052C236.14 199.833 242.06 196.094 247.621 191.793C248.451 191.151 249.101 190.972 250.053 191.509C254.655 194.086 259.632 195.354 264.86 195.907C271.439 196.597 277.789 195.776 283.969 193.46C284.352 193.313 284.848 193.273 285.051 192.622C276.627 189.794 270.17 184.437 265.43 177.104C264.747 177.356 264.592 177.828 264.259 178.129C263.82 178.535 263.421 179.364 262.705 178.738C262.128 178.234 262.689 177.673 263.031 177.218C263.502 176.6 263.998 175.999 264.478 175.381C268.162 170.65 271.349 165.618 273.618 160.042C276.423 153.157 277.911 146.076 277.033 138.582C276.301 132.379 274.114 126.778 270.536 121.698C269.723 120.544 268.967 119.316 267.763 118.487H267.755L267.763 118.495ZM412.342 379.449C412.204 379.807 412.033 380.164 411.927 380.53C409.927 387.18 407.715 393.764 405.235 400.251C399.291 415.769 391.964 430.58 382.483 444.269C379.93 447.959 377.303 451.593 373.62 454.284C373.554 454.332 373.579 454.511 373.554 454.731C375.579 454.714 377.531 454.227 379.507 453.942C384.125 453.268 388.752 452.585 393.363 451.869C395.851 451.487 397.835 450.268 399.348 448.219C401.592 445.179 403.527 441.952 405.381 438.676C411.594 427.67 416.424 416.053 420.571 404.136C425.678 389.464 429.548 374.458 432.516 359.224C433.045 356.501 433.817 353.794 433.85 350.982L433.947 350.38C434.207 350.104 434.248 349.778 434.167 349.421C434.313 348.722 434.484 348.031 434.598 347.324C435.419 342.267 436.045 337.187 436.631 332.098C437.794 322.035 438.281 311.93 438.371 301.81C438.395 299.347 438.224 296.884 438.127 294.421C437.875 288.324 437.33 282.26 436.257 276.244C435.72 273.237 434.305 270.676 431.979 268.807C428.239 265.807 424.36 262.97 420.343 260.336C420.229 260.231 420.091 260.076 419.953 260.222C419.815 260.369 419.953 260.499 420.099 260.58C421.108 263.043 422.116 265.506 422.449 268.164C423.214 274.407 423.783 280.683 423.994 286.966C424.263 295.006 424.255 303.054 423.815 311.101C423.409 318.555 422.75 325.977 421.815 333.374C420.327 345.161 418.148 356.818 415.22 368.329C414.277 372.035 413.309 375.726 412.358 379.433L412.342 379.449ZM210.607 488.384C211.355 488.596 212.087 488.84 212.843 489.018C227.553 492.538 242.401 495.294 257.396 497.318C265.633 498.424 273.886 499.301 282.164 499.911C289.1 500.423 296.045 500.488 302.989 500.374C307.282 500.309 311.543 499.903 315.756 499.106C317.544 498.765 319.301 498.302 320.935 497.456C323.887 495.928 324.18 494.213 321.919 491.823C320.887 490.734 319.699 489.831 318.431 489.027C315.3 487.027 311.966 485.434 308.551 484.003C297.809 479.499 286.653 476.289 275.391 473.427C272.561 472.712 269.715 472.045 266.861 471.427C265.6 471.151 265.47 471.289 265.617 472.566C265.95 475.427 266.609 478.191 268.308 480.597C268.698 481.15 269.007 481.686 268.829 482.385C267.91 482.556 267.397 482.003 266.926 481.337C265.633 479.491 264.999 477.386 264.519 475.224C263.429 470.298 263.486 465.282 263.844 460.307C264.413 452.398 265.95 444.651 268.113 437.026C268.585 435.36 268.585 435.36 266.934 434.921C266.812 434.888 266.682 434.872 266.552 434.839C257.664 432.726 248.768 430.612 239.88 428.507C239.474 428.409 239.051 428.052 238.555 428.523C238.913 429.661 238.636 430.921 239.067 432.092C238.978 435.465 238.774 438.822 238.132 442.147C236.189 452.194 232.359 461.502 227.333 470.371C227.114 470.761 226.854 471.143 226.569 471.493C226.349 471.761 226.024 471.858 225.707 471.647C225.479 471.493 225.406 471.232 225.431 470.956C225.479 470.411 225.837 470.013 226.073 469.55C226.91 467.9 228.033 466.388 228.577 464.615C228.033 464.25 227.504 464.217 226.992 464.144C214.307 462.486 201.589 461.234 188.79 461.031C183.732 460.949 178.666 460.957 173.649 461.811C172.462 461.543 171.323 461.974 170.193 462.169C167.575 462.608 164.948 463.12 162.671 464.599C160.801 465.81 160.59 467.257 161.997 469.005C162.81 470.013 163.794 470.867 164.859 471.623C167.892 473.769 171.177 475.443 174.56 476.931C182.464 480.41 190.676 483.003 198.954 485.385C202.809 486.498 206.663 487.637 210.607 488.376V488.384ZM375.254 300.135C372.782 300.916 370.302 301.68 367.83 302.476C366.309 302.964 366.309 302.989 365.244 301.777C358.462 294.087 353.494 285.3 349.697 275.838C346.241 267.246 343.891 258.353 342.899 249.126C342.777 248.005 342.451 247.517 341.28 247.493C339.272 247.452 337.255 247.297 335.247 247.167C327.595 246.696 319.951 246.241 312.308 245.712C311.169 245.631 310.551 245.981 309.998 246.956C306.738 252.736 304.445 258.816 304.038 265.506C304.005 266.083 303.867 266.555 303.152 266.498C302.591 266.457 302.387 266.1 302.371 265.571C302.355 264.856 302.412 264.132 302.306 263.433C301.29 257.077 299.143 251.134 295.663 245.688C295.207 244.973 294.703 244.631 293.792 244.582C289.767 244.395 285.758 244.095 281.733 243.843C275.383 243.452 269.032 243.062 262.673 242.696C262.079 242.664 261.453 242.542 260.502 242.924C261.315 243.623 261.933 244.095 262.494 244.631C289.962 271.237 318.65 296.453 348.477 320.368C350.095 321.661 351.607 323.099 353.413 324.148C356.242 326.733 359.357 328.969 362.382 331.31C378.474 343.763 394.867 355.786 411.968 366.825C412.488 367.166 412.935 367.711 413.749 367.686C413.919 367.085 414.115 366.483 414.261 365.866C416.196 357.785 417.822 349.64 419.124 341.43C420.872 330.383 422.002 319.271 422.433 308.102C422.945 294.973 422.596 281.862 420.937 268.807C420.709 266.994 420.351 265.205 419.644 263.523C416.847 256.898 412.09 252.508 404.861 251.362C401.673 250.858 398.388 250.988 395.144 250.825C394.306 250.744 393.469 250.687 392.639 250.59C390.525 250.338 388.703 250.98 387.118 252.378C384.727 254.475 384.239 257.19 384.654 260.149C385.394 265.474 386.711 270.66 388.59 275.708C390.411 281.162 392.834 286.3 396.388 290.86C397.819 292.689 397.77 292.852 395.599 293.575C395.29 293.681 394.973 293.762 394.664 293.86C388.183 295.949 381.71 298.046 375.23 300.135H375.254ZM144.693 347.876C144.14 349.177 144.375 350.567 144.278 351.908C143.587 361.175 143.335 370.458 143.92 379.742C144.001 381.01 144.679 381.787 145.953 382.075C146.083 382.107 146.205 382.123 146.335 382.156C157.435 384.57 168.526 386.976 179.626 389.399C198.832 393.601 218.039 397.82 237.246 402.015C262.161 407.461 287.076 412.891 311.991 418.321C316.357 419.272 320.724 420.207 325.107 421.158C325.156 420.679 324.895 420.476 324.7 420.24C320.586 415.167 317.26 409.607 314.503 403.697C310.324 394.756 305.941 385.92 301.127 377.295C297.46 370.727 293.711 364.199 289.564 357.915C287.881 354.989 285.97 352.201 284.043 349.437C275.74 337.544 267.202 325.847 255.875 316.539C253.403 314.507 250.801 312.703 247.841 311.459C246.873 311.052 245.898 310.849 244.824 310.882C241.97 310.979 239.108 310.914 236.27 310.451C230.903 309.573 225.731 308.167 221.308 304.809C220.877 304.484 220.454 304.289 219.901 304.265C213.624 303.956 207.818 301.964 202.272 299.144C199.304 297.632 196.621 295.697 194.376 293.193C192.831 291.47 191.693 289.535 191.335 287.202C190.725 283.235 193.181 279.935 197.149 279.423C197.84 279.333 198.548 279.325 199.467 279.268C198.67 278.138 197.938 277.171 197.279 276.163C194.1 271.343 192.026 266.156 192.408 260.255C192.677 256.223 194.262 252.841 197.743 250.565C198.751 249.907 200.28 249.687 200.857 248.801C201.451 247.899 201.036 246.42 201.166 245.184C201.386 243.103 202.117 241.184 202.906 239.136C200.629 238.99 198.507 238.852 196.385 238.721C193.815 238.567 191.343 238.998 188.92 239.827C184 241.502 179.992 244.517 176.479 248.273C173.429 251.533 171.201 255.345 169.079 259.223C162.655 270.944 157.947 283.374 154.174 296.168C153.662 297.908 153.141 299.656 152.694 301.412C152.174 303.444 152.109 302.94 153.897 303.736C154.255 303.899 154.621 304.029 154.979 304.184C160.264 306.451 165.143 309.37 169.551 313.093C170.673 314.036 171.079 315.036 170.852 316.482C169.908 322.311 169.03 328.156 168.128 333.992C167.884 335.594 167.656 337.203 167.371 338.804C167.152 340.016 166.745 340.195 165.623 339.658C165.274 339.487 164.94 339.276 164.599 339.097C161.248 337.349 157.744 336.008 154.044 335.187C152.637 334.878 151.206 334.716 149.791 335.025C147.709 335.48 145.937 336.423 145.563 338.764C145.083 341.772 144.676 344.795 144.717 347.852L144.693 347.876ZM255.517 314.093C256.249 315.019 257.274 315.613 258.152 316.377C264.722 322.051 270.406 328.554 275.692 335.398C291.361 355.688 304.014 377.799 314.861 400.966C318.041 407.754 321.659 414.249 326.505 420.012C327.611 421.329 328.888 422.036 330.563 422.386C338.052 423.955 345.525 425.621 353.006 427.255C363.715 429.596 374.425 431.937 385.142 434.27C386.833 434.636 386.898 434.604 387.801 433.14C388.037 432.75 388.273 432.36 388.5 431.97C394.892 421.004 400.153 409.51 404.56 397.625C405.438 395.26 406.479 392.943 406.983 390.456C407.162 390.114 407.382 389.781 407.504 389.423C409.561 383.27 411.374 377.043 413.082 370.775C413.35 369.8 413.066 369.296 412.212 368.751C400.088 361.061 388.37 352.762 376.864 344.186C338.89 315.889 302.94 285.194 268.625 252.573C263.071 247.289 257.558 241.957 252.175 236.502C243.434 227.634 236.083 217.635 228.886 207.515C225.764 203.125 222.706 198.695 219.617 194.281C219.429 193.947 219.259 193.598 219.039 193.281C217.941 191.72 217.941 191.745 216.022 192.2C214.258 192.614 212.485 192.964 210.68 193.191C209.387 193.354 207.997 193.118 206.842 193.582C205.663 194.061 205.313 195.63 204.297 196.419C202.833 197.54 202.744 198.898 203.11 200.556C204.037 204.767 205.85 208.636 207.598 212.53C208.387 214.286 209.037 216.123 210.265 217.651C210.891 219.44 211.802 221.082 212.729 222.716C217.559 231.186 222.975 239.266 228.724 247.127C230.757 249.899 232.944 252.565 234.725 255.524C237.587 260.279 237.685 265.1 235.05 269.945C232.993 273.724 229.773 276.326 226.016 278.26C217.99 282.382 209.501 282.861 200.792 281.195C199.637 280.975 198.491 280.732 197.32 280.886C195.376 281.13 193.937 282.057 193.197 283.967C192.4 286.015 192.75 287.926 193.75 289.771C194.913 291.925 196.637 293.608 198.588 295.038C204.923 299.704 212.079 302.127 219.877 302.777C220.747 302.85 221.511 303.005 222.202 303.574C223.869 304.956 225.772 305.939 227.797 306.679C235.863 309.614 244.068 310.41 252.452 308.199C253.07 308.037 254.013 307.451 254.297 308.435C254.566 309.37 253.476 309.378 252.874 309.654C251.98 310.061 250.907 309.947 249.784 310.678C252.004 311.67 253.639 313.077 255.525 314.084L255.517 314.093ZM363.788 456.031C364.667 455.934 365.764 455.918 366.846 455.633C374.132 453.731 378.328 448.382 381.694 442.204C382.678 440.399 381.914 438.188 380.312 436.741C379.58 436.083 378.726 435.62 377.872 435.14C375.278 433.693 372.416 433.108 369.554 432.482C344.948 427.117 320.334 421.752 295.728 416.37C272.764 411.355 249.809 406.331 226.845 401.308C205.533 396.65 184.22 391.992 162.915 387.342C157.077 386.066 151.247 384.79 145.408 383.522C144.172 383.253 144.01 383.4 144.107 384.619C144.213 386.042 144.367 387.464 144.465 388.887C144.733 393.089 146.059 396.885 148.734 400.178C152.239 404.478 156.825 407.071 162.127 408.38C171.836 410.77 181.569 413.038 191.294 415.354C223.186 422.963 255.07 430.564 286.962 438.172C311.023 443.911 335.076 449.658 359.137 455.397C360.585 455.747 362.048 456.08 363.78 456.031H363.788ZM385.988 214.083C383.394 214.676 381.19 215.18 378.986 215.684C368.489 218.066 357.991 220.472 347.477 222.805C346.078 223.114 345.493 223.756 345.192 225.162C344.273 229.568 343.769 233.999 343.744 238.494C343.679 248.98 345.533 259.158 348.826 269.083C352.559 280.333 357.869 290.738 365.529 299.875C366.407 300.916 367.131 301.2 368.48 300.753C376.913 297.957 385.386 295.274 393.843 292.559C394.314 292.405 394.802 292.315 395.209 291.884C391.948 287.592 389.59 282.91 387.76 277.96C383.483 266.392 381.621 254.394 381.499 242.095C381.434 235.389 382.003 228.739 383.483 222.187C384.077 219.537 384.947 216.96 385.988 214.099V214.083ZM95.7408 349.941C105.263 340.674 116.452 335.366 129.088 333.147C141.782 330.911 154.133 332.001 165.745 337.967C165.916 337.666 166.022 337.561 166.038 337.439C167.136 330.383 168.217 323.327 169.331 316.279C169.486 315.304 169.112 314.719 168.396 314.133C165.436 311.67 162.297 309.475 158.866 307.752C142.595 299.574 125.567 297.851 107.93 302.102C100.725 303.842 94.082 306.874 88.1948 311.459C87.1539 312.264 86.9506 313.003 87.2596 314.263C88.829 320.628 90.2927 327.018 91.797 333.391C93.0818 338.821 94.3828 344.243 95.7408 349.949V349.941ZM202.492 247.436C202.548 251.256 203.467 254.898 204.964 258.377C208.314 266.189 213.445 272.603 220.283 277.651C220.877 278.09 221.405 278.683 222.357 278.285C226.187 276.7 229.667 274.651 232.285 271.335C233.31 270.034 233.635 268.595 233.416 266.961C232.985 263.775 231.489 261.068 229.724 258.475C227.26 254.857 224.227 251.752 220.877 248.939C220.389 248.525 219.389 248.11 220.088 247.306C220.763 246.533 221.365 247.436 221.861 247.834C224.577 250.061 227.049 252.549 229.252 255.288C229.74 255.89 230.253 256.483 230.822 257.011C231.31 257.467 231.96 257.8 232.586 257.394C233.286 256.93 233.229 256.19 232.936 255.475C232.513 254.443 231.798 253.597 231.131 252.719C227.683 248.167 224.276 243.591 221.113 238.827C218.755 235.275 218.73 235.291 214.42 235.015C208.411 234.633 204.02 238.03 202.833 243.956C202.605 245.111 202.475 246.265 202.483 247.436H202.492ZM324.432 232.178C312.283 226.78 306.689 216.684 303.241 204.58C299.785 216.676 294.174 226.853 282.034 232.178C287.173 234.112 291.06 237.266 294.313 241.25C298.362 246.2 301.013 251.858 302.721 257.987C302.851 258.467 302.794 259.036 303.404 259.312C304.802 253.719 306.974 248.468 310.275 243.737C313.837 238.64 318.228 234.511 324.432 232.186V232.178ZM201.158 250.655C197.531 251.736 195.393 254.126 194.36 257.58C193.636 259.987 193.677 262.466 194.132 264.905C195.157 270.424 197.873 275.082 201.573 279.228C202.036 279.748 202.557 279.967 203.231 280.089C206.647 280.699 210.078 280.683 213.518 280.398C215.258 280.252 215.884 279.39 215.583 277.651C215.323 276.131 214.583 274.887 213.51 273.773C208.761 268.863 205.053 263.287 202.76 256.808C202.069 254.849 201.67 252.825 201.166 250.655H201.158Z" fill="#141212"/>
<path d="M106.239 256.979C110.264 258.182 114.175 259.345 118.086 260.515C121.005 261.385 123.925 262.263 126.844 263.133C127.096 263.206 127.364 263.222 127.592 263.336C128.08 263.58 128.852 263.555 128.795 264.368C128.747 265.059 128.055 265.043 127.6 265.157C123.624 266.108 119.647 267.035 115.663 267.945C110.418 269.148 105.165 270.351 99.904 271.497C98.8388 271.733 98.2696 272.4 97.676 273.188C87.1213 287.414 73.6799 297.892 57.1322 304.306C50.9685 306.695 44.5853 308.118 37.9418 308.012C33.9492 307.955 30.0623 307.256 26.4438 305.444C20.4346 302.428 17.1576 297.485 16.442 290.877C15.6939 284 17.5804 277.618 20.5078 271.505C24.9557 262.23 31.3959 254.459 38.9989 247.623C48.2282 239.323 58.5959 232.901 70.4923 229.129C75.5339 227.528 80.6892 226.544 85.9991 226.609C89.7315 226.65 93.3826 227.211 96.8222 228.739C103.482 231.698 107.076 236.884 107.792 244.079C108.19 248.151 107.792 250.899 106.23 256.971L106.239 256.979ZM101.034 233.356C100.034 232.105 98.6681 231.341 97.2776 230.633C94.4071 229.162 91.3171 228.463 88.1133 228.227C82.0635 227.78 76.2006 228.837 70.5004 230.755C56.2215 235.568 44.1787 243.818 33.9573 254.792C28.3385 260.824 23.6466 267.498 20.5647 275.196C18.5156 280.309 17.2308 285.577 17.9952 291.153C18.7676 296.794 21.5324 301.111 26.6064 303.842C28.9158 305.086 31.3959 305.834 33.9899 306.167C42.7557 307.313 50.9766 305.314 58.9293 301.802C59.6204 301.875 60.1571 301.452 60.7426 301.2C64.0928 299.77 67.2885 298.046 70.3866 296.136C81.3642 289.373 90.7073 280.87 97.9281 270.14C98.6193 269.116 99.2291 268.051 99.9122 267.018C100.164 266.644 100.506 266.238 101.034 266.506C101.644 266.815 101.522 267.327 101.262 267.839C100.961 268.449 100.343 268.912 100.335 269.88C108.467 268.026 116.509 266.189 124.746 264.303C124.372 264.092 124.217 263.962 124.047 263.905C118.086 262.117 112.126 260.32 106.149 258.58C104.254 258.028 104.263 258.109 104.848 256.117C106.133 251.793 106.946 247.403 106.125 242.884C105.45 239.169 104.076 235.803 101.026 233.348L101.034 233.356Z" fill="#141212"/>
<path d="M127.413 96.0511C112.955 95.8885 99.0258 93.2466 85.9341 86.9142C79.9899 84.0365 74.5418 80.4192 69.9312 75.6313C69.484 75.1598 69.0449 74.6802 68.6302 74.1843C67.6056 72.9731 67.5487 72.6073 68.3456 71.2498C69.4596 69.3476 70.6224 67.4698 71.7608 65.5758C76.4121 57.8371 81.0552 50.1065 85.6983 42.3678C85.869 42.0914 86.0235 41.8069 86.2024 41.5387C86.9343 40.4656 87.2351 40.4087 88.0971 41.4248C94.1388 48.5783 101.913 53.1142 110.548 56.3576C118.029 59.1702 125.795 60.6334 133.78 60.7798C140.456 60.9017 146.994 60.0075 153.279 57.6257C154.93 56.9998 155.085 57.0811 155.629 58.7638C158.516 67.7787 161.395 76.8018 164.273 85.8249C164.81 87.5238 164.72 87.7596 163.127 88.5725C157.589 91.3932 151.694 93.1572 145.628 94.344C139.627 95.5145 133.544 96.0673 127.421 96.0429L127.413 96.0511ZM87.2351 42.8962C86.9505 43.3189 86.7228 43.6278 86.5277 43.9611C83.3808 49.188 80.2339 54.423 77.087 59.6498C74.7126 63.6005 72.3626 67.5674 69.9475 71.4936C69.4189 72.3472 69.362 72.965 70.1427 73.6803C71.2404 74.6883 72.2243 75.8345 73.3302 76.8262C79.8842 82.6709 87.5604 86.5565 95.8058 89.3528C110.646 94.3846 125.86 95.6934 141.359 93.5474C148.335 92.58 155.085 90.7185 161.484 87.7189C163.362 86.841 163.062 87.093 162.541 85.4754C159.939 77.2489 157.296 69.0306 154.662 60.8204C154.467 60.2107 154.41 59.536 153.889 59.0564C142.196 63.2672 130.316 63.1371 118.403 60.3164C106.417 57.4794 95.7163 52.1956 87.227 42.8962H87.2351Z" fill="#141212"/>
<path d="M334.181 173.788C332.897 176.454 331.693 178.966 330.481 181.47C330.197 182.055 329.904 182.632 329.611 183.209C329.408 183.616 329.189 184.087 328.636 183.965C328.229 183.876 328.075 183.477 328.018 183.063C327.944 182.551 327.814 182.047 327.749 181.527C327.042 176.446 326.343 171.374 325.659 166.293C325.521 165.244 325.163 164.318 324.635 163.399C321.293 157.563 320.13 151.393 322.252 144.873C324.18 138.931 328.262 134.793 333.677 131.908C339.564 128.77 345.915 127.705 352.518 128.128C362.235 128.746 370.838 132.168 378.108 138.695C382.556 142.687 385.784 147.483 387.093 153.417C388.728 160.822 386.922 167.333 381.718 172.82C377.254 177.527 371.594 180.031 365.284 181.006C354.51 182.673 344.517 180.462 335.36 174.528C335.035 174.316 334.71 174.121 334.181 173.804V173.788ZM323.797 145.507C323.497 145.702 323.456 146.036 323.375 146.345C321.773 152.295 323.106 157.758 326.131 162.936C326.456 163.497 326.822 164.009 326.912 164.683C327.286 167.512 327.701 170.333 328.107 173.154C328.432 175.438 328.766 177.722 329.124 180.234C329.798 179.649 329.953 179.08 330.197 178.584C331.23 176.422 332.254 174.251 333.287 172.089C333.506 171.617 333.734 171.146 333.994 170.707C334.198 170.366 334.507 170.081 334.954 170.292C335.352 170.487 335.515 170.878 335.295 171.268C334.718 172.316 335.377 172.772 336.141 173.251C337.735 174.251 339.345 175.227 341.061 176.007C350.9 180.494 360.967 181.559 371.285 177.82C374.083 176.804 376.758 175.462 378.864 173.243C384.45 168.78 386.784 162.919 385.987 155.912C385.231 149.279 381.824 143.947 376.88 139.646C367.48 131.469 356.462 128.404 344.175 130.046C338.743 130.77 333.791 132.843 329.628 136.525C326.863 138.972 324.667 141.825 323.797 145.515V145.507Z" fill="#141212"/>
<path d="M255.078 34.4827C254.972 34.9136 254.704 35.1493 254.265 35.19C246.646 35.9378 241.523 40.5632 237.254 46.3509C233.058 52.0412 230.667 58.5199 229.496 65.462C229.366 66.2261 229.407 67.0146 229.407 67.795C229.407 68.4128 229.187 68.8192 228.529 68.8111C227.829 68.8111 227.756 68.299 227.715 67.7381C227.187 60.0319 224.446 53.1142 220.137 46.7899C217.51 42.9368 214.266 39.6934 210.127 37.4417C207.939 36.2549 205.655 35.3851 203.15 35.2144C202.597 35.1737 202.06 35.1493 202.052 34.434C202.052 33.743 202.548 33.6455 203.117 33.5967C207.801 33.2146 211.615 30.9629 214.998 27.9065C220.6 22.8422 224.056 16.4447 226.211 9.30755C227.016 6.64127 227.748 3.94247 227.723 1.11362C227.723 0.568979 227.764 0.0243429 228.496 0.016214C229.309 -4.37871e-05 229.358 0.56085 229.407 1.20303C230.22 11.0715 234.058 19.6069 240.88 26.7603C244.027 30.0606 247.776 32.4505 252.321 33.4016C252.947 33.5317 253.606 33.5479 254.249 33.6211C254.761 33.6861 255.07 33.9544 255.086 34.499L255.078 34.4827ZM249.711 34.4827C237.522 29.0852 231.976 18.9078 228.472 6.79572C227.057 12.4453 225.064 17.4202 222.056 21.948C218.494 27.2968 214.103 31.6945 207.98 34.0763C207.801 34.1413 207.63 34.2551 207.63 34.4827C219.503 39.7178 225.064 49.822 228.455 61.6008C228.951 61.2593 228.927 60.7716 229.049 60.3408C230.277 55.8699 232.017 51.6266 234.505 47.7003C238.197 41.8638 242.864 37.1246 249.727 34.4827H249.711Z" fill="#141212"/>
<path d="M53.0501 117.633C52.92 118.365 52.3833 118.462 51.7572 118.503C48.6184 118.698 45.8781 119.982 43.2841 121.649C40.804 123.242 38.6817 125.242 36.8114 127.51C31.6967 133.728 28.7775 140.923 27.4358 148.799C27.3138 149.499 27.3626 150.222 27.3545 150.937C27.3463 151.588 27.2081 152.149 26.4031 152.092C25.7038 152.043 25.7119 151.474 25.6631 150.937C24.8418 141.443 21.2152 133.151 14.8644 126.063C12.7746 123.722 10.3271 121.795 7.50542 120.381C5.58638 119.422 3.59415 118.641 1.4149 118.511C1.34985 118.511 1.2848 118.511 1.21975 118.503C0.609881 118.479 -0.0325099 118.405 -0.00811536 117.609C0.0162792 116.918 0.618012 116.902 1.14656 116.853C5.23672 116.471 8.68449 114.617 11.8314 112.106C13.3601 110.886 14.7343 109.512 15.9866 108.017C20.5809 102.53 23.4432 96.2055 24.9963 89.2634C25.3622 87.6213 25.777 85.9793 25.6631 84.2722C25.6225 83.6951 25.8339 83.1992 26.5007 83.2155C27.1512 83.2399 27.2976 83.7276 27.3382 84.3047C27.9237 93.1409 31.2576 100.896 36.7545 107.74C40.0234 111.805 44.0322 114.943 49.1714 116.398C50.1146 116.666 51.0741 116.804 52.0418 116.869C52.5459 116.902 52.9119 117.105 53.0338 117.641L53.0501 117.633ZM5.44814 117.666C17.4177 122.95 22.9878 133.013 26.3787 144.751C26.956 144.459 26.8828 143.955 27.0048 143.532C28.6393 137.655 31.1519 132.208 34.9412 127.388C37.7466 123.819 41.048 120.836 45.1463 118.82C45.9513 118.422 46.7888 118.072 47.6264 117.69C35.5836 112.48 29.9972 102.318 26.46 90.1413C26.1673 91.1493 25.9965 91.7508 25.8176 92.3361C22.4186 103.432 16.7022 112.675 5.44814 117.666Z" fill="#141212"/>
<path d="M44.7236 197.963C41.78 197.906 39.7959 197.752 37.8524 197.093C35.5594 196.313 33.9249 194.874 32.9573 192.671C32.4856 191.606 32.0465 190.525 31.5586 189.46C30.282 186.656 30.469 183.916 31.9083 181.226C33.437 178.364 35.6081 176.048 38.1289 174.08C44.626 169 51.9444 165.919 60.1979 165.171C62.743 164.935 65.2638 165.171 67.6789 166.09C69.9151 166.935 71.5576 168.366 72.3545 170.707C72.7692 171.934 73.3059 173.121 73.8589 174.292C74.8346 176.365 74.7777 178.429 73.9646 180.518C73.1514 182.616 71.9073 184.437 70.3379 186.014C63.0195 193.37 54.0911 197.191 44.7155 197.971L44.7236 197.963ZM60.7183 191.289H60.8321L60.9135 191.216C64.1091 189.696 66.8983 187.631 69.2971 185.038C70.8014 183.412 72.135 181.648 72.7774 179.478C73.2246 177.974 73.2815 176.495 72.4684 175.121C72.0618 175.178 71.9479 175.316 71.8748 175.503C70.3054 179.202 67.5732 181.941 64.4913 184.38C61.3688 186.851 57.8397 188.607 54.2293 190.241C52.2209 190.964 50.1961 191.655 48.1063 192.094C44.8049 192.785 41.4954 193.305 38.1045 192.696C36.9986 192.5 35.9497 191.883 34.7218 192.053C34.8031 193.736 35.9009 194.533 37.1125 195.191C38.9746 196.215 41.04 196.484 43.1217 196.524C47.7323 196.622 52.0908 195.419 56.2948 193.647C57.8235 193.004 59.4904 192.574 60.7102 191.322L60.7508 191.289H60.7183ZM41.6092 191.484C42.5525 191.387 43.7234 191.322 44.8781 191.135C53.4568 189.761 60.9704 186.209 67.1097 179.998C68.8498 178.234 70.2728 176.21 70.8095 173.698C71.3137 171.325 70.4517 169.309 68.3457 168.089C67.2073 167.431 65.9713 167.098 64.6702 166.894C61.7998 166.455 58.97 166.74 56.1646 167.333C48.9601 168.853 42.5769 172.048 37.1369 177.007C34.9657 178.99 33.1036 181.258 32.3962 184.225C31.7375 186.981 32.7702 189.07 35.3317 190.289C37.2507 191.2 39.3161 191.387 41.6255 191.484H41.6092Z" fill="#141212"/>
<path d="M298.769 66.6245C304.558 66.7546 309.64 68.6486 314.454 71.3068C318.048 73.2902 321.366 75.6801 324.212 78.6797C325.96 80.5249 327.505 82.5165 328.595 84.8414C330.099 88.0767 330.286 91.1982 328.01 94.1977C327.538 94.8155 327.131 95.4902 326.782 96.1812C325.066 99.5953 322.098 100.855 318.496 101.026C315.341 101.18 312.291 100.579 309.315 99.6116C302.582 97.4249 296.695 93.8563 291.792 88.7432C289.295 86.1339 287.271 83.2319 286.563 79.5657C286.295 78.1594 286.433 76.8344 286.994 75.5744C287.832 73.6723 288.913 71.8839 290.125 70.2012C291.702 68.0227 293.971 66.9741 296.622 66.7383C297.394 66.6652 298.175 66.657 298.769 66.6245ZM305.534 92.3606C305.054 92.0355 304.591 91.6778 304.087 91.3933C301.419 89.8813 298.947 88.1092 296.671 86.0607C294.093 83.7358 291.857 81.1427 290.426 77.9399C289.978 76.9401 289.686 75.8671 289.287 74.729C287.807 76.997 287.62 78.1188 288.246 80.3705C288.596 81.6386 289.157 82.8092 289.848 83.8984C291.962 87.2313 294.703 89.9626 298.029 92.1005C298.216 92.4582 298.476 92.702 298.907 92.7102C298.988 92.7996 299.094 92.8483 299.216 92.8646C301.054 94.5635 303.306 95.5715 305.534 96.5958C309.827 98.5711 314.284 99.8798 319.097 99.5222C320.561 99.4165 321.919 99.0263 323.139 98.2459C323.928 97.7419 324.651 97.116 324.855 95.9129C320.301 96.9291 316.064 96.23 311.86 94.905C309.681 94.2221 307.697 93.0841 305.55 92.3525L305.534 92.3606ZM320.195 94.8968C321.423 94.8643 322.651 94.8968 323.862 94.5473C327.522 93.4905 328.977 90.8974 327.904 87.2475C327.554 86.0607 327.009 84.9552 326.351 83.9066C325.554 82.6384 324.668 81.4435 323.643 80.3542C318.195 74.599 311.576 70.8028 303.924 68.8437C301.078 68.1121 298.159 67.8438 295.264 68.5917C291.637 69.5265 290.19 72.0709 291.182 75.672C291.401 76.4767 291.751 77.2571 292.125 78.0131C293.044 79.8909 294.312 81.5329 295.752 83.0449C300.761 88.2636 306.794 91.816 313.69 93.897C315.804 94.531 317.967 94.9862 320.203 94.905L320.195 94.8968Z" fill="#141212"/>
<path d="M155.695 217.838C143.896 216.611 132.78 213.335 122.819 206.718C116.476 202.507 111.386 197.126 108.101 190.184C103.71 180.893 103.693 171.357 106.726 161.708C109.589 152.62 114.695 144.841 121.022 137.809C129.291 128.624 139.131 121.478 149.913 115.544C163.119 108.269 177.186 103.432 192.002 100.782C203.451 98.7337 214.981 98.1972 226.553 99.5548C237.099 100.798 247.207 103.554 256.42 109.017C260.453 111.407 264.242 114.146 267.283 117.788C267.283 118.137 267.316 118.463 267.779 118.495H267.788C267.47 119.243 267.918 119.893 268.105 120.56C269.268 124.616 269.796 128.77 269.967 132.973C270.048 134.907 269.845 136.834 269.674 138.777C269.414 141.687 268.902 144.548 268.227 147.361C266.665 153.831 263.893 159.831 260.534 165.553C256.802 171.902 252.012 177.421 246.971 182.738C246.036 183.73 244.857 184.437 243.905 185.428C241.84 187.583 239.433 189.347 237.107 191.208C233.302 194.248 229.122 196.736 225.056 199.386C223.227 196.736 221.389 194.078 219.56 191.428C220.186 190.826 220.901 190.688 221.552 190.428C224.268 189.322 226.829 187.94 229.26 186.306C229.691 186.022 230.098 185.697 230.472 185.339C230.716 185.103 230.748 184.746 230.545 184.445C230.334 184.136 230 184.079 229.691 184.242C229.293 184.445 228.911 184.697 228.529 184.949C222.893 188.786 216.681 191.119 209.916 191.818C205.305 192.297 200.711 192.013 196.279 190.42C195.637 190.192 194.653 189.42 194.327 190.566C194.043 191.566 195.23 191.647 195.913 191.891C198.621 192.85 201.426 193.346 204.248 193.517C204.5 193.899 204.313 194.167 204.101 194.419C202.264 196.63 200.198 198.581 197.751 200.109C197.027 200.564 196.279 200.89 195.401 200.963C194.994 200.995 194.71 201.361 194.775 201.808C194.848 202.247 195.206 202.41 195.628 202.442C196.377 202.491 197.043 202.223 197.661 201.857C198.824 201.166 199.954 200.426 201.223 199.638C201.89 201.158 201.849 202.816 202.467 204.279C203.069 205.71 203.573 207.181 204.126 208.636C204.077 209.425 203.41 209.482 202.882 209.661C198.548 211.173 194.205 212.644 189.741 213.717C184.797 214.896 179.813 215.879 174.755 216.538C169.055 217.277 163.338 217.708 157.589 217.668C156.955 217.668 156.288 217.505 155.686 217.855L155.695 217.838ZM152.889 133.582C152.889 133.062 152.938 132.534 152.881 132.022C152.499 128.746 150.271 126.933 146.978 127.209C146.53 127.25 146.083 127.347 145.636 127.445C142.204 128.193 139.204 129.9 136.407 131.9C127.494 138.265 120.932 146.621 116.102 156.384C114.63 159.367 113.606 162.521 113.337 165.854C112.98 170.26 114.907 173.796 120.485 172.78C123.551 172.219 126.234 170.764 128.722 168.967C138.521 161.903 145.92 152.848 150.848 141.825C152.011 139.216 152.832 136.476 152.881 133.574L152.889 133.582ZM166.64 115.504C163.143 115.756 160.029 117.121 158.207 120.535C156.646 123.454 158.061 126.242 161.313 126.778C165.176 127.421 168.307 125.949 170.77 123.047C171.941 121.665 172.592 120.015 171.844 118.186C171.047 116.243 169.299 115.756 167.436 115.512C167.249 115.487 167.046 115.512 166.64 115.512V115.504Z" fill="#FA4616"/>
<path d="M219.624 194.273C222.714 198.687 225.78 203.117 228.894 207.507C236.091 217.627 243.442 227.626 252.183 236.494C257.566 241.957 263.071 247.289 268.633 252.565C302.948 285.186 338.898 315.881 376.872 344.178C388.386 352.754 400.096 361.053 412.22 368.743C413.065 369.28 413.35 369.792 413.09 370.767C411.39 377.027 409.569 383.253 407.512 389.415C407.39 389.781 407.17 390.106 406.991 390.447C406.511 390.35 406.105 390.578 405.682 390.732C401.486 392.26 397.119 392.65 392.704 392.683C391.484 392.691 390.256 392.342 389.045 392.374C387.272 392.415 385.548 392.106 383.841 391.821C376.384 390.569 369.31 388.049 362.536 384.741C356.885 381.977 351.445 378.831 346.338 375.125C341.036 371.28 335.954 367.174 331.311 362.549C328.644 359.899 325.969 357.265 323.448 354.461C321.415 352.201 319.358 349.949 317.26 347.738C315.975 346.373 314.796 344.909 313.601 343.462C311.047 340.373 308.526 337.252 305.965 334.163C303.16 330.773 300.249 327.473 297.508 324.026C294.02 319.637 290.035 315.759 285.628 312.337C280.562 308.394 274.927 307.321 268.804 309.614C267.47 310.11 266.129 310.581 264.803 311.109C261.973 312.223 259.217 313.556 256.086 313.629C255.81 313.629 255.631 313.849 255.517 314.093C253.631 313.085 251.996 311.678 249.776 310.687C250.898 309.955 251.98 310.069 252.866 309.662C253.468 309.386 254.557 309.378 254.289 308.443C254.013 307.46 253.061 308.045 252.443 308.207C244.052 310.418 235.847 309.622 227.789 306.687C225.772 305.956 223.861 304.964 222.194 303.582C221.503 303.005 220.738 302.85 219.868 302.785C212.078 302.135 204.915 299.705 198.58 295.047C196.628 293.616 194.913 291.933 193.742 289.779C192.742 287.934 192.4 286.024 193.189 283.975C193.929 282.057 195.368 281.138 197.312 280.894C198.482 280.748 199.621 280.984 200.784 281.203C209.493 282.87 217.974 282.398 226.008 278.269C229.773 276.334 232.993 273.733 235.042 269.953C237.676 265.108 237.579 260.279 234.717 255.532C232.936 252.573 230.748 249.915 228.715 247.135C222.966 239.274 217.551 231.186 212.721 222.724C211.794 221.09 210.875 219.448 210.257 217.66C210.704 217.424 210.68 217.042 210.55 216.66C209.818 214.4 209.883 212.075 209.883 209.742C209.883 206.003 210.997 202.605 213.111 199.548C214.754 197.167 216.811 195.256 219.608 194.281L219.624 194.273Z" fill="#B2CDD5"/>
<path d="M144.693 347.876C144.652 344.82 145.058 341.796 145.538 338.788C145.912 336.447 147.685 335.512 149.767 335.049C151.181 334.74 152.613 334.903 154.019 335.212C157.719 336.024 161.224 337.366 164.574 339.121C164.916 339.3 165.249 339.512 165.599 339.682C166.721 340.219 167.127 340.04 167.347 338.829C167.632 337.227 167.851 335.626 168.103 334.017C169.006 328.18 169.876 322.335 170.827 316.507C171.063 315.06 170.648 314.06 169.526 313.117C165.119 309.394 160.24 306.484 154.954 304.208C154.597 304.053 154.231 303.923 153.873 303.761C152.084 302.956 152.149 303.468 152.67 301.436C153.117 299.672 153.637 297.932 154.149 296.193C157.931 283.398 162.639 270.977 169.055 259.247C171.177 255.369 173.405 251.557 176.454 248.297C179.967 244.542 183.976 241.526 188.895 239.851C191.319 239.022 193.799 238.591 196.36 238.746C198.483 238.876 200.613 239.014 202.882 239.16C202.085 241.209 201.353 243.127 201.142 245.208C201.011 246.436 201.426 247.915 200.833 248.826C200.255 249.712 198.727 249.923 197.718 250.59C194.238 252.866 192.652 256.247 192.384 260.279C191.994 266.181 194.067 271.359 197.255 276.188C197.921 277.196 198.645 278.171 199.442 279.293C198.523 279.35 197.816 279.358 197.125 279.447C193.156 279.951 190.701 283.252 191.311 287.227C191.668 289.56 192.807 291.494 194.352 293.218C196.596 295.713 199.288 297.648 202.247 299.168C207.785 301.997 213.591 303.98 219.877 304.289C220.43 304.314 220.861 304.509 221.283 304.834C225.715 308.191 230.879 309.589 236.245 310.475C239.083 310.939 241.937 311.004 244.8 310.906C245.873 310.874 246.849 311.077 247.817 311.483C250.776 312.727 253.379 314.532 255.851 316.564C267.178 325.88 275.724 337.569 284.018 349.461C285.945 352.225 287.856 355.013 289.539 357.94C289.491 358.574 289.052 358.777 288.515 358.924C287.336 359.257 286.173 359.639 284.994 359.98C279.733 361.5 274.423 362.858 269.048 363.907C265.698 364.557 262.356 365.207 259.006 365.857C258.241 364.801 258.201 363.476 257.672 362.321C255.216 357.013 251.842 352.372 247.54 348.429C244.353 345.511 240.864 343.08 236.619 341.918C233.993 341.194 231.448 341.324 229.138 342.845C227.463 343.95 225.87 345.186 224.422 346.592C223.056 347.925 222.487 349.624 222.349 351.494C222.162 353.989 222.601 356.395 223.365 358.769C224.406 362.012 226.081 364.923 227.846 367.8C227.333 368.394 226.634 368.182 226.016 368.174C223.56 368.125 221.104 368.069 218.641 367.906C214.835 367.654 211.021 367.41 207.224 367.069C203.679 366.752 200.15 366.296 196.645 365.727C190.904 364.784 185.212 363.557 179.593 361.996C168.363 358.858 157.597 354.591 147.286 349.169C146.441 348.722 145.741 347.941 144.693 347.925V347.876Z" fill="#D0E6EC"/>
<path d="M255.517 314.085C255.631 313.833 255.802 313.621 256.086 313.621C259.217 313.548 261.974 312.207 264.803 311.101C266.129 310.581 267.47 310.11 268.804 309.606C274.927 307.313 280.562 308.386 285.628 312.329C290.035 315.751 294.02 319.628 297.508 324.018C300.24 327.465 303.152 330.765 305.965 334.155C308.526 337.244 311.047 340.365 313.601 343.454C314.796 344.901 315.975 346.364 317.26 347.73C319.35 349.949 321.415 352.193 323.448 354.453C325.969 357.257 328.644 359.891 331.311 362.541C335.954 367.166 341.044 371.271 346.338 375.116C351.437 378.815 356.885 381.969 362.536 384.733C369.302 388.041 376.376 390.561 383.841 391.813C385.548 392.098 387.272 392.415 389.045 392.366C390.265 392.333 391.484 392.691 392.704 392.675C397.12 392.642 401.486 392.252 405.682 390.724C406.105 390.569 406.511 390.342 406.991 390.439C406.479 392.935 405.446 395.252 404.568 397.609C400.153 409.493 394.9 420.996 388.508 431.954C388.281 432.344 388.053 432.734 387.809 433.124C386.906 434.587 386.841 434.628 385.15 434.254C374.441 431.921 363.731 429.572 353.014 427.239C345.533 425.605 338.06 423.939 330.571 422.37C328.896 422.02 327.619 421.313 326.513 419.996C321.659 414.233 318.049 407.738 314.869 400.95C304.022 377.783 291.369 355.672 275.7 335.382C270.414 328.538 264.738 322.035 258.16 316.361C257.282 315.605 256.265 315.003 255.525 314.076L255.517 314.085Z" fill="#83A3AD"/>
<path d="M144.692 347.876C145.75 347.901 146.441 348.673 147.286 349.12C157.597 354.55 168.363 358.818 179.593 361.948C185.212 363.516 190.904 364.736 196.645 365.679C200.141 366.256 203.679 366.703 207.224 367.02C211.029 367.361 214.835 367.605 218.641 367.857C221.104 368.02 223.56 368.077 226.016 368.126C226.634 368.142 227.333 368.353 227.845 367.752C230.195 371.019 232.806 374.051 235.887 376.645C238.685 379.002 241.734 380.92 245.279 381.969C248.41 382.896 251.28 382.571 253.834 380.368C254.663 379.652 255.55 378.978 256.468 378.376C258.729 376.897 259.656 374.726 259.835 372.133C259.981 369.971 259.607 367.874 259.014 365.809C262.364 365.158 265.706 364.516 269.056 363.858C274.439 362.809 279.741 361.46 285.002 359.932C286.181 359.59 287.344 359.208 288.523 358.875C289.06 358.72 289.499 358.525 289.547 357.891C293.703 364.175 297.451 370.694 301.11 377.271C305.924 385.895 310.307 394.731 314.487 403.673C317.243 409.583 320.577 415.135 324.684 420.216C324.879 420.451 325.139 420.654 325.09 421.134C320.707 420.183 316.341 419.248 311.974 418.297C287.059 412.867 262.144 407.437 237.229 401.991C218.023 397.796 198.816 393.577 179.609 389.374C168.518 386.952 157.418 384.546 146.319 382.132C146.189 382.107 146.067 382.083 145.937 382.05C144.657 381.763 143.98 380.985 143.904 379.717C143.318 370.434 143.578 361.151 144.261 351.884C144.359 350.543 144.123 349.153 144.676 347.852L144.692 347.876Z" fill="#B2CDD5"/>
<path d="M363.788 456.023C362.056 456.072 360.593 455.739 359.145 455.389C335.084 449.658 311.031 443.911 286.97 438.164C255.078 430.556 223.194 422.955 191.302 415.346C181.577 413.03 171.844 410.762 162.135 408.372C156.833 407.063 152.247 404.47 148.742 400.17C146.067 396.886 144.741 393.081 144.473 388.879C144.384 387.456 144.229 386.034 144.115 384.611C144.026 383.392 144.18 383.245 145.416 383.514C151.255 384.782 157.085 386.058 162.923 387.334C184.236 391.992 205.549 396.642 226.854 401.3C249.817 406.315 272.772 411.347 295.736 416.362C320.342 421.736 344.956 427.101 369.562 432.474C372.416 433.1 375.278 433.685 377.88 435.132C378.734 435.612 379.588 436.075 380.32 436.734C381.922 438.18 382.686 440.391 381.702 442.196C378.336 448.374 374.14 453.723 366.854 455.625C365.773 455.91 364.675 455.934 363.797 456.023H363.788ZM153.686 389.179C152.71 389.22 151.726 389.123 150.783 389.448C150.36 389.594 149.872 389.7 149.832 390.277C149.799 390.716 150.116 390.984 150.442 391.204C151.466 391.911 152.629 392.325 153.784 392.74C159.923 394.918 166.29 396.113 172.722 396.967C174.633 397.219 176.584 397.601 178.536 397.284C179.195 397.178 180.146 397.284 180.227 396.341C180.292 395.585 179.471 395.333 178.902 395.097C176.275 394 173.681 392.829 170.925 392.073C165.273 390.529 159.533 389.57 153.686 389.179ZM251.029 410.908C250.126 410.989 249.207 410.981 248.329 411.176C245.816 411.729 243.58 412.826 242.775 415.485C241.921 418.289 243.182 420.541 245.166 422.443C245.629 422.89 246.15 423.288 246.686 423.654C249.118 425.28 251.834 426.101 254.736 426.19C256.501 426.239 258.217 425.898 259.811 425.077C263.136 423.361 264.112 419.907 262.177 416.68C261.429 415.436 260.42 414.428 259.233 413.623C256.761 411.957 254.062 410.965 251.037 410.916L251.029 410.908ZM187.155 399.259C187.586 399.178 187.969 399.113 188.351 399.04C188.952 398.918 189.505 398.69 189.636 398.016C189.766 397.341 189.278 396.934 188.798 396.593C187.31 395.544 185.643 395.406 183.96 395.918C182.87 396.243 182.724 397.251 183.569 398.048C184.586 399.007 185.919 399.04 187.155 399.259Z" fill="#FA4616"/>
<path d="M395.168 250.833C398.412 250.996 401.697 250.866 404.885 251.37C412.106 252.516 416.863 256.906 419.668 263.531C420.375 265.214 420.733 266.994 420.961 268.815C422.62 281.87 422.969 294.982 422.457 308.11C422.018 319.279 420.896 330.391 419.148 341.438C417.847 349.648 416.22 357.794 414.285 365.874C414.139 366.491 413.943 367.101 413.773 367.695C412.96 367.719 412.512 367.166 411.992 366.833C394.883 355.802 378.49 343.771 362.406 331.318C359.381 328.977 356.267 326.741 353.437 324.156C355.169 322.595 356.941 321.083 358.625 319.474C363.65 314.67 368.48 309.687 372.733 304.183C373.701 302.932 375.01 301.859 375.27 300.143C381.751 298.054 388.223 295.957 394.704 293.868C395.013 293.77 395.33 293.689 395.639 293.583C397.802 292.86 397.851 292.697 396.428 290.868C392.875 286.308 390.443 281.171 388.63 275.716C389.191 275.22 389.427 274.529 389.646 273.871C390.956 269.888 392.371 265.953 393.322 261.856C394.168 258.215 394.859 254.565 395.184 250.842L395.168 250.833Z" fill="#B2CDD5"/>
<path d="M375.262 300.135C375.01 301.85 373.692 302.924 372.725 304.175C368.464 309.679 363.642 314.67 358.617 319.466C356.933 321.075 355.161 322.587 353.429 324.148C351.623 323.099 350.103 321.669 348.493 320.368C318.658 296.453 289.97 271.229 262.51 244.631C261.957 244.095 261.339 243.615 260.518 242.924C261.469 242.542 262.095 242.664 262.689 242.696C269.04 243.07 275.39 243.452 281.749 243.843C285.766 244.087 289.783 244.387 293.808 244.582C294.719 244.623 295.215 244.964 295.679 245.688C299.151 251.134 301.306 257.077 302.322 263.433C302.436 264.132 302.379 264.856 302.387 265.571C302.395 266.1 302.607 266.449 303.168 266.498C303.883 266.555 304.013 266.083 304.054 265.506C304.461 258.816 306.754 252.736 310.014 246.956C310.567 245.981 311.185 245.631 312.324 245.712C319.967 246.241 327.619 246.696 335.263 247.167C337.271 247.289 339.28 247.452 341.296 247.493C342.467 247.517 342.793 248.005 342.915 249.126C343.907 258.353 346.257 267.238 349.713 275.838C353.518 285.3 358.478 294.087 365.26 301.777C366.333 302.989 366.325 302.972 367.846 302.476C370.318 301.68 372.798 300.916 375.27 300.135H375.262Z" fill="#D0E6EC"/>
<path d="M173.657 461.819C178.674 460.966 183.74 460.957 188.798 461.039C201.597 461.242 214.314 462.502 227 464.152C227.512 464.217 228.032 464.258 228.585 464.624C228.032 466.404 226.91 467.908 226.081 469.558C225.845 470.021 225.487 470.419 225.438 470.964C225.414 471.232 225.487 471.501 225.715 471.655C226.032 471.866 226.357 471.769 226.577 471.501C226.861 471.151 227.122 470.769 227.341 470.379C232.366 461.518 236.196 452.203 238.14 442.155C238.782 438.831 238.986 435.473 239.075 432.1C241.132 432.872 243.263 433.457 245.206 434.522C250.093 437.205 253.451 441.058 254.866 446.561C255.883 450.528 256.192 454.503 256.005 458.592C255.801 463.112 255.387 467.623 255.493 472.167C255.549 474.451 255.736 476.687 256.403 478.857C257.379 482.044 258.786 484.986 261.355 487.271C263.608 489.279 268.08 489.466 269.674 485.726C270.235 484.409 269.991 483.336 268.844 482.393C269.023 481.694 268.723 481.158 268.324 480.605C266.625 478.207 265.958 475.435 265.633 472.574C265.486 471.297 265.616 471.159 266.877 471.436C269.731 472.053 272.577 472.72 275.407 473.435C286.669 476.297 297.825 479.508 308.567 484.011C311.982 485.442 315.316 487.035 318.447 489.035C319.707 489.839 320.894 490.742 321.935 491.831C324.204 494.221 323.911 495.936 320.951 497.464C319.325 498.31 317.56 498.773 315.771 499.115C311.559 499.911 307.298 500.318 303.005 500.383C296.053 500.496 289.108 500.431 282.18 499.919C273.894 499.31 265.641 498.432 257.412 497.326C242.417 495.31 227.569 492.546 212.859 489.027C212.103 488.848 211.371 488.604 210.623 488.392C210.696 486.848 211.664 486.019 212.989 485.49C214.542 484.873 216.193 484.759 217.835 484.629C218.031 484.645 218.226 484.669 218.413 484.686C218.917 484.734 219.364 484.621 219.429 484.052C219.486 483.491 219.063 483.279 218.592 483.166C218.153 483.06 217.713 482.938 217.274 482.824C206.825 480.223 196.506 477.199 186.391 473.484C182.862 472.192 179.349 470.834 176.023 469.054C175.194 468.607 174.299 468.208 173.714 467.396C174.299 466.892 174.925 467.111 175.47 466.973C175.869 466.875 176.259 466.721 176.283 466.266C176.308 465.697 175.885 465.469 175.397 465.453C174.283 465.412 173.201 465.583 172.201 466.111C170.575 464.827 170.599 463.859 172.307 462.803C172.787 462.502 173.38 462.364 173.681 461.827L173.657 461.819ZM304.452 496.432C307.933 496.521 311.202 496.139 314.397 495.253C315.202 495.026 315.983 494.701 316.739 494.335C317.26 494.083 317.829 493.693 317.78 493.058C317.739 492.433 317.121 492.124 316.601 491.872C316.015 491.595 315.389 491.449 314.747 491.335C310.925 490.66 307.136 491.01 303.347 491.595C301.615 491.864 299.907 492.237 298.37 493.115C297.809 493.432 297.207 493.831 297.297 494.595C297.386 495.343 298.045 495.595 298.663 495.806C299.029 495.928 299.411 495.993 299.785 496.082C301.379 496.489 302.997 496.432 304.461 496.416L304.452 496.432ZM188.977 467.566C190.66 467.648 192.327 467.509 193.912 466.859C194.408 466.656 194.961 466.388 194.929 465.827C194.896 465.306 194.417 464.965 193.896 464.778C190.749 463.64 187.57 463.583 184.374 464.534C183.756 464.713 183.098 465.087 183.163 465.851C183.219 466.485 183.813 466.762 184.382 466.973C185.862 467.534 187.399 467.664 188.977 467.574V467.566ZM199.011 464.315C197.978 464.315 197.198 464.941 197.246 465.721C197.295 466.469 198.084 467.005 199.141 467.005C200.133 467.005 200.865 466.526 200.914 465.843C200.962 465.046 200.052 464.315 199.011 464.323V464.315Z" fill="#FA4616"/>
<path d="M385.995 214.075C384.955 216.936 384.085 219.513 383.491 222.163C382.019 228.715 381.442 235.364 381.507 242.071C381.629 254.37 383.491 266.36 387.768 277.935C389.598 282.886 391.956 287.568 395.217 291.86C394.81 292.291 394.322 292.38 393.85 292.535C385.394 295.25 376.921 297.94 368.488 300.729C367.138 301.176 366.415 300.899 365.537 299.851C357.868 290.714 352.559 280.309 348.834 269.058C345.541 259.141 343.687 248.956 343.752 238.469C343.777 233.982 344.281 229.544 345.2 225.138C345.492 223.724 346.086 223.09 347.485 222.781C357.999 220.448 368.496 218.05 378.994 215.66C381.198 215.156 383.401 214.652 385.995 214.058V214.075ZM356.535 256.573C356.641 261.889 357.942 266.831 361.097 271.196C362.178 272.692 363.479 273.936 365.146 274.765C367.846 276.114 370.578 275.554 372.521 273.245C373.546 272.034 374.197 270.619 374.571 269.091C376.197 262.425 374.904 256.223 371.497 250.386C370.741 249.086 369.773 247.948 368.626 246.964C364.585 243.493 360.031 244.485 357.852 249.346C357.454 250.224 357.21 251.183 356.974 252.126C356.608 253.581 356.502 255.069 356.535 256.581V256.573ZM365.707 226.601C361.585 226.601 357.901 227.983 355.795 230.267C353.217 233.064 353.949 236.283 357.486 237.705C359.283 238.429 361.162 238.51 363.04 238.291C366.073 237.941 368.862 236.949 371.017 234.673C373.587 231.966 372.912 228.796 369.505 227.317C368.236 226.764 366.919 226.479 365.707 226.593V226.601ZM372.765 291.039C376.229 290.836 379.254 289.69 381.304 286.739C383.231 283.967 382.044 280.927 378.799 280.057C375.221 279.098 370.35 280.829 368.179 283.845C367.919 284.211 367.675 284.609 367.496 285.024C366.537 287.227 367.35 289.356 369.529 290.397C370.546 290.876 371.627 291.072 372.757 291.039H372.765Z" fill="#DAF405"/>
<path d="M95.7407 349.941C94.3827 344.235 93.0817 338.813 91.7969 333.383C90.2844 327.001 88.8289 320.612 87.2595 314.255C86.9505 312.995 87.1619 312.256 88.1946 311.451C94.0819 306.858 100.725 303.826 107.93 302.094C125.575 297.843 142.595 299.566 158.866 307.744C162.297 309.467 165.444 311.67 168.396 314.125C169.103 314.719 169.486 315.296 169.331 316.271C168.209 323.319 167.136 330.375 166.038 337.431C166.021 337.553 165.916 337.658 165.745 337.959C154.133 331.992 141.781 330.911 129.088 333.139C116.452 335.366 105.263 340.666 95.7407 349.933V349.941ZM130.958 306.858C129.218 306.777 127.161 307.086 125.177 307.728C122.282 308.663 119.712 310.126 117.867 312.621C115.313 316.06 115.704 320.23 118.834 323.148C120.078 324.311 121.526 325.164 123.144 325.717C128.527 327.562 133.739 327.091 138.748 324.457C140.488 323.538 141.96 322.27 143.058 320.604C143.855 319.393 144.367 318.084 144.432 316.613C144.562 313.686 143.237 311.483 141.001 309.784C138.147 307.622 134.845 306.834 130.966 306.85L130.958 306.858ZM110.353 323.669C110.174 320.498 109.296 317.702 106.905 315.596C103.864 312.922 99.9853 313.889 98.6518 317.702C97.2125 321.799 98.1883 325.473 100.945 328.733C101.449 329.326 102.091 329.781 102.799 330.131C105.043 331.253 107.344 330.716 108.841 328.717C109.987 327.188 110.264 325.416 110.353 323.669ZM150.214 320.84C150.181 322.173 150.563 323.465 151.368 324.611C153.157 327.148 156.345 327.497 158.654 325.424C161.143 323.197 161.606 318.856 159.638 316.174C157.744 313.589 154.19 313.394 152.043 315.783C150.775 317.198 150.157 318.864 150.206 320.84H150.214Z" fill="#DAF405"/>
<path d="M420.335 260.344C424.352 262.978 428.231 265.815 431.971 268.815C434.297 270.684 435.712 273.237 436.248 276.253C437.322 282.268 437.867 288.332 438.119 294.429C438.216 296.892 438.387 299.355 438.363 301.818C438.273 311.938 437.785 322.043 436.622 332.106C436.037 337.195 435.411 342.275 434.59 347.332C434.476 348.039 434.305 348.73 434.159 349.429C433.825 349.689 433.801 350.022 433.939 350.388C433.907 350.591 433.874 350.795 433.842 350.99C433.256 351.485 433.223 352.241 432.996 352.9C430.418 360.338 427.222 367.467 422.563 373.856C420.92 376.108 419.245 378.327 416.676 379.66C415.171 380.441 413.74 380.611 412.35 379.457C413.301 375.758 414.269 372.06 415.212 368.353C418.139 356.842 420.319 345.186 421.807 333.399C422.742 325.993 423.401 318.572 423.807 311.125C424.246 303.078 424.254 295.03 423.986 286.991C423.783 280.707 423.214 274.432 422.441 268.189C422.116 265.53 421.108 263.059 420.091 260.604C420.172 260.523 420.254 260.442 420.335 260.361V260.344Z" fill="#FA4616"/>
<path d="M412.342 379.449C413.732 380.603 415.163 380.432 416.668 379.652C419.237 378.319 420.912 376.1 422.555 373.848C427.214 367.451 430.41 360.322 432.988 352.892C433.215 352.233 433.248 351.485 433.833 350.981C433.801 353.794 433.028 356.501 432.5 359.224C429.532 374.466 425.661 389.464 420.555 404.136C416.408 416.053 411.586 427.67 405.365 438.676C403.511 441.952 401.576 445.179 399.331 448.219C397.819 450.268 395.835 451.487 393.347 451.869C388.728 452.585 384.109 453.267 379.49 453.942C377.523 454.227 375.571 454.706 373.538 454.731C373.571 454.511 373.538 454.332 373.603 454.284C377.287 451.585 379.905 447.959 382.467 444.269C391.948 430.572 399.274 415.769 405.219 400.251C407.707 393.764 409.91 387.179 411.911 380.53C412.025 380.164 412.187 379.807 412.325 379.449H412.342Z" fill="#C20000"/>
<path d="M225.048 199.369C229.114 196.719 233.293 194.232 237.099 191.192C239.425 189.33 241.832 187.566 243.897 185.412C244.848 184.42 246.027 183.713 246.963 182.721C252.004 177.405 256.794 171.886 260.526 165.537C263.884 159.814 266.657 153.815 268.218 147.344C268.901 144.532 269.414 141.679 269.666 138.76C269.837 136.826 270.032 134.891 269.959 132.956C269.788 128.754 269.259 124.6 268.096 120.543C267.909 119.877 267.462 119.235 267.779 118.479C268.983 119.308 269.739 120.527 270.552 121.682C274.13 126.762 276.317 132.363 277.049 138.565C277.927 146.06 276.439 153.14 273.634 160.026C271.365 165.594 268.186 170.634 264.494 175.365C264.014 175.983 263.518 176.584 263.047 177.202C262.697 177.657 262.144 178.218 262.721 178.722C263.437 179.348 263.835 178.511 264.275 178.112C264.6 177.812 264.754 177.34 265.446 177.088C270.186 184.42 276.651 189.777 285.067 192.606C284.855 193.257 284.368 193.297 283.985 193.443C277.814 195.768 271.463 196.589 264.876 195.89C259.648 195.338 254.663 194.069 250.069 191.493C249.109 190.956 248.467 191.143 247.637 191.777C242.076 196.077 236.156 199.817 229.911 203.036C228.154 203.938 228.146 203.938 227 202.28C226.333 201.32 225.707 200.337 225.056 199.361L225.048 199.369Z" fill="#C20000"/>
<path d="M202.491 247.444C202.491 246.273 202.613 245.119 202.841 243.965C204.028 238.039 208.411 234.649 214.428 235.023C218.738 235.299 218.762 235.283 221.121 238.835C224.284 243.599 227.691 248.175 231.139 252.728C231.805 253.606 232.521 254.451 232.944 255.483C233.237 256.199 233.293 256.938 232.594 257.402C231.976 257.808 231.317 257.475 230.83 257.02C230.26 256.491 229.748 255.906 229.26 255.296C227.057 252.557 224.585 250.069 221.869 247.842C221.373 247.436 220.771 246.533 220.096 247.314C219.397 248.119 220.397 248.533 220.885 248.948C224.235 251.76 227.268 254.866 229.732 258.483C231.496 261.068 232.993 263.783 233.424 266.969C233.643 268.603 233.318 270.042 232.293 271.343C229.683 274.659 226.195 276.7 222.365 278.293C221.413 278.691 220.885 278.098 220.291 277.659C213.461 272.611 208.322 266.197 204.971 258.385C203.483 254.906 202.556 251.264 202.499 247.444H202.491Z" fill="#B2CDD5"/>
<path d="M324.432 232.178C318.236 234.511 313.844 238.632 310.275 243.729C306.965 248.46 304.802 253.711 303.404 259.304C302.786 259.028 302.851 258.458 302.721 257.979C301.013 251.85 298.362 246.2 294.313 241.241C291.06 237.258 287.173 234.104 282.034 232.17C294.174 226.845 299.793 216.668 303.241 204.572C306.689 216.676 312.283 226.772 324.432 232.17V232.178Z" fill="#FCF6F5"/>
<path d="M268.845 482.393C269.991 483.336 270.235 484.418 269.674 485.726C268.08 489.466 263.608 489.279 261.355 487.271C258.786 484.987 257.379 482.044 256.403 478.857C255.737 476.687 255.55 474.451 255.493 472.167C255.387 467.623 255.793 463.112 256.005 458.592C256.192 454.503 255.883 450.528 254.866 446.561C253.46 441.058 250.101 437.205 245.206 434.522C243.255 433.457 241.132 432.864 239.075 432.1C238.644 430.929 238.929 429.669 238.563 428.531C239.067 428.06 239.482 428.418 239.888 428.515C248.784 430.62 257.672 432.734 266.56 434.847C266.69 434.88 266.812 434.896 266.942 434.929C268.584 435.36 268.592 435.368 268.121 437.034C265.95 444.659 264.413 452.414 263.852 460.315C263.494 465.29 263.437 470.306 264.527 475.232C265.006 477.394 265.641 479.5 266.934 481.345C267.405 482.019 267.918 482.564 268.836 482.393H268.845Z" fill="#C20000"/>
<path d="M173.657 461.819C173.348 462.364 172.762 462.502 172.283 462.795C170.583 463.843 170.551 464.819 172.177 466.103C171.429 467.111 171.787 467.916 172.64 468.631C173.844 469.647 175.226 470.371 176.633 471.037C184.984 475.021 193.782 477.801 202.629 480.41C207.671 481.898 212.753 483.223 217.819 484.613C216.177 484.743 214.526 484.856 212.973 485.474C211.647 486.003 210.68 486.824 210.606 488.376C206.655 487.628 202.8 486.49 198.954 485.385C190.676 482.995 182.463 480.402 174.559 476.931C171.177 475.443 167.892 473.769 164.858 471.623C163.793 470.867 162.817 470.021 161.996 469.005C160.589 467.266 160.801 465.819 162.671 464.599C164.956 463.12 167.583 462.608 170.193 462.169C171.323 461.982 172.461 461.551 173.649 461.811L173.657 461.819Z" fill="#C20000"/>
<path d="M201.158 250.655C201.662 252.817 202.06 254.849 202.752 256.808C205.045 263.279 208.753 268.864 213.502 273.773C214.575 274.887 215.307 276.131 215.575 277.651C215.876 279.399 215.25 280.26 213.51 280.398C210.07 280.683 206.639 280.699 203.223 280.09C202.548 279.968 202.036 279.748 201.564 279.228C197.865 275.082 195.149 270.424 194.124 264.905C193.669 262.466 193.628 259.987 194.352 257.581C195.384 254.134 197.523 251.736 201.15 250.655H201.158Z" fill="#B2CDD5"/>
<path d="M395.168 250.834C394.843 254.557 394.143 258.206 393.306 261.848C392.354 265.945 390.939 269.888 389.63 273.863C389.411 274.521 389.175 275.212 388.614 275.708C386.744 270.668 385.426 265.474 384.678 260.149C384.263 257.19 384.76 254.475 387.142 252.378C388.728 250.98 390.549 250.346 392.663 250.59C393.493 250.687 394.33 250.752 395.168 250.825V250.834Z" fill="#D0E6EC"/>
<path d="M219.624 194.273C216.827 195.248 214.77 197.158 213.127 199.54C211.013 202.597 209.899 205.994 209.899 209.734C209.899 212.067 209.834 214.392 210.566 216.651C210.688 217.042 210.72 217.424 210.273 217.651C209.045 216.123 208.387 214.286 207.606 212.53C205.858 208.636 204.044 204.767 203.117 200.556C202.752 198.898 202.841 197.54 204.305 196.419C205.329 195.638 205.671 194.061 206.85 193.582C208.005 193.11 209.403 193.354 210.688 193.191C212.493 192.964 214.266 192.614 216.03 192.2C217.958 191.745 217.958 191.72 219.047 193.281C219.267 193.598 219.429 193.947 219.624 194.281V194.273Z" fill="#83A3AD"/>
<path d="M155.694 217.838C156.304 217.489 156.963 217.651 157.597 217.651C163.346 217.692 169.054 217.261 174.763 216.521C179.821 215.863 184.797 214.879 189.749 213.701C194.213 212.636 198.556 211.156 202.89 209.644C203.418 209.457 204.085 209.4 204.134 208.62C204.727 209.97 205.329 211.327 205.972 212.774C202.247 214.018 198.596 214.887 194.921 215.668C187.554 217.237 180.113 218.18 172.567 218.521C166.908 218.773 161.305 218.521 155.702 217.83L155.694 217.838Z" fill="#C20000"/>
<path d="M267.763 118.495C267.3 118.463 267.267 118.146 267.267 117.788C267.568 117.926 267.731 118.162 267.763 118.495Z" fill="#C20000"/>
<path d="M433.939 350.38C433.801 350.014 433.825 349.681 434.159 349.421C434.24 349.779 434.199 350.104 433.939 350.38Z" fill="#C20000"/>
<path d="M420.091 260.588C419.936 260.507 419.806 260.377 419.945 260.231C420.083 260.084 420.221 260.239 420.335 260.344C420.262 260.426 420.18 260.515 420.091 260.588Z" fill="#FA4616"/>
<path d="M58.9374 301.802C50.9848 305.313 42.7638 307.313 33.998 306.167C31.404 305.825 28.9239 305.086 26.6146 303.842C21.5486 301.111 18.7758 296.794 18.0033 291.153C17.2389 285.576 18.5237 280.309 20.5728 275.196C23.6547 267.498 28.3466 260.824 33.9655 254.792C44.1868 243.818 56.2296 235.567 70.5085 230.755C76.2088 228.837 82.0716 227.78 88.1214 228.227C91.3171 228.463 94.4071 229.162 97.2857 230.633C98.6762 231.34 100.034 232.113 101.042 233.356C101.083 233.608 101.083 233.885 101.173 234.12C102.652 238.152 102.937 242.249 102.327 246.525C101.189 254.573 98.2533 261.905 93.9192 268.693C89.1216 276.204 83.5109 283.04 76.8105 288.966C71.6876 293.494 66.1257 297.363 60.1652 300.696C59.6774 300.964 59.0106 301.062 58.9455 301.802H58.9374ZM56.3516 249.248C56.8882 249.224 57.3436 249.232 57.799 249.175C58.1812 249.134 58.5633 249.037 58.9455 248.947C64.2717 247.696 69.0693 245.33 73.3627 241.948C74.3222 241.193 75.2086 240.306 76.0136 239.38C76.9081 238.347 77.9001 237.144 77.1032 235.714C76.3307 234.332 74.7939 234.348 73.4278 234.559C66.3533 235.657 60.2384 238.729 55.0912 243.696C54.3919 244.371 53.8064 245.159 53.4567 246.094C52.8713 247.647 53.4567 248.801 55.0749 249.151C55.514 249.248 55.9775 249.224 56.3516 249.248ZM83.0636 232.803C82.1773 232.755 81.234 232.958 80.4615 233.624C79.315 234.616 79.5264 235.941 80.925 236.551C81.7951 236.925 82.714 236.876 83.6003 236.689C84.9908 236.396 85.9341 235.397 85.869 234.397C85.7958 233.34 84.877 232.795 83.0636 232.812V232.803Z" fill="#DAF405"/>
<path d="M58.9375 301.802C59.0026 301.054 59.6775 300.965 60.1572 300.696C66.1176 297.363 71.6796 293.494 76.8025 288.966C83.511 283.04 89.1217 276.204 93.9112 268.693C98.2453 261.905 101.181 254.573 102.319 246.525C102.929 242.249 102.644 238.152 101.165 234.121C101.075 233.885 101.075 233.617 101.034 233.356C104.092 235.811 105.458 239.177 106.133 242.892C106.954 247.419 106.141 251.801 104.856 256.125C104.263 258.117 104.263 258.036 106.157 258.589C112.134 260.328 118.094 262.133 124.055 263.913C124.234 263.962 124.38 264.092 124.754 264.311C116.517 266.189 108.475 268.026 100.343 269.888C100.343 268.92 100.969 268.457 101.27 267.847C101.522 267.335 101.652 266.831 101.043 266.514C100.522 266.246 100.172 266.644 99.9204 267.026C99.2373 268.051 98.6275 269.124 97.9363 270.148C90.7155 280.886 81.3643 289.381 70.3948 296.144C67.2967 298.054 64.101 299.778 60.7508 301.208C60.1654 301.46 59.6287 301.883 58.9375 301.81V301.802Z" fill="#A5BB00"/>
<path d="M87.235 42.8962C95.7243 52.1957 106.425 57.4795 118.411 60.3165C130.332 63.1372 142.204 63.2673 153.897 59.0565C154.418 59.5361 154.475 60.2189 154.67 60.8205C157.304 69.0388 159.947 77.249 162.549 85.4754C163.061 87.0931 163.37 86.8411 161.492 87.719C155.093 90.7186 148.343 92.5801 141.367 93.5474C125.868 95.6935 110.654 94.3847 95.8138 89.3529C87.5684 86.5566 79.8922 82.671 73.3382 76.8263C72.2242 75.8346 71.2484 74.6884 70.1507 73.6804C69.37 72.965 69.4351 72.3472 69.9555 71.4937C72.3706 67.5675 74.7206 63.6005 77.095 59.6499C80.2419 54.4149 83.3807 49.188 86.5357 43.9611C86.7308 43.6278 86.9585 43.3189 87.2431 42.8962H87.235ZM117.2 86.6785C120.656 86.6541 123.786 85.9632 126.478 83.9066C129.039 81.9475 130.308 79.3625 129.917 76.1109C129.649 73.8999 128.576 72.0465 126.982 70.5345C122.42 66.2343 116.972 65.0556 110.947 66.1855C108.605 66.6245 106.531 67.6731 104.815 69.3558C102.075 72.0546 101.473 75.7614 103.238 79.1755C104.059 80.7525 105.214 82.0532 106.629 83.1343C109.792 85.5405 113.41 86.581 117.208 86.6785H117.2ZM96.8465 65.584C96.8058 62.7714 95.9927 60.5441 93.5451 59.3979C91.0568 58.2273 88.7149 58.8939 86.6902 60.6335C84.3402 62.6657 83.2424 65.267 83.3807 68.3885C83.6002 73.404 88.3328 75.9158 92.553 73.1927C95.3747 71.3718 96.7082 68.6649 96.8465 65.5759V65.584ZM150.628 77.0783C150.604 74.599 149.677 72.5342 147.677 71.0304C144.798 68.8599 141.098 69.7216 139.415 72.9C137.699 76.1353 138.886 80.5981 142.001 82.5002C143.44 83.3782 144.977 83.7115 146.652 83.1506C149.059 82.3458 150.628 79.9884 150.637 77.0783H150.628Z" fill="#DAF405"/>
<path d="M323.797 145.499C324.659 141.809 326.863 138.955 329.628 136.509C333.783 132.826 338.743 130.753 344.175 130.03C356.462 128.396 367.48 131.452 376.88 139.63C381.824 143.93 385.231 149.263 385.987 155.896C386.784 162.903 384.45 168.772 378.864 173.227C378.173 173.072 377.612 173.438 377.018 173.69C369.74 176.771 362.186 176.925 354.543 175.666C349.314 174.804 344.435 172.885 339.857 170.26C335.035 167.496 330.758 164.074 327.766 159.27C325.22 155.189 323.423 150.913 324.123 145.946C324.139 145.808 323.919 145.645 323.805 145.491L323.797 145.499ZM339.345 142.67C342.549 142.337 345.923 141.345 348.729 138.898C349.713 138.037 350.753 137.045 350.257 135.582C349.737 134.07 348.322 133.81 346.907 133.761C343.289 133.647 340.003 134.704 337.011 136.696C336.035 137.346 335.173 138.142 334.718 139.272C334.222 140.508 334.531 141.427 335.71 142.028C336.71 142.54 337.816 142.638 339.345 142.662V142.67Z" fill="#DAF405"/>
<path d="M323.797 145.499C323.911 145.654 324.131 145.816 324.115 145.954C323.415 150.921 325.212 155.205 327.758 159.278C330.75 164.082 335.035 167.496 339.849 170.268C344.427 172.894 349.306 174.812 354.535 175.674C362.178 176.934 369.732 176.787 377.01 173.698C377.604 173.446 378.165 173.081 378.856 173.235C376.75 175.454 374.075 176.796 371.277 177.812C360.967 181.543 350.892 180.486 341.053 175.999C339.337 175.219 337.727 174.243 336.133 173.243C335.369 172.764 334.71 172.308 335.287 171.26C335.507 170.87 335.344 170.479 334.946 170.284C334.507 170.073 334.198 170.349 333.986 170.699C333.718 171.146 333.498 171.617 333.279 172.081C332.246 174.243 331.23 176.413 330.189 178.576C329.953 179.072 329.799 179.641 329.115 180.226C328.75 177.714 328.424 175.43 328.099 173.146C327.692 170.325 327.286 167.504 326.904 164.675C326.814 163.993 326.448 163.489 326.123 162.928C323.09 157.75 321.765 152.287 323.366 146.337C323.448 146.028 323.488 145.694 323.789 145.499H323.797Z" fill="#A5BB00"/>
<path d="M249.711 34.4746C242.848 37.1165 238.181 41.8557 234.489 47.6922C232.009 51.6185 230.261 55.8618 229.033 60.3327C228.919 60.7635 228.943 61.2512 228.439 61.5926C225.056 49.8139 219.494 39.7096 207.614 34.4746C207.614 34.2552 207.793 34.1413 207.964 34.0682C214.087 31.6783 218.478 27.2887 222.04 21.9399C225.056 17.4121 227.04 12.4372 228.455 6.7876C231.96 18.9078 237.506 29.077 249.695 34.4746H249.711Z" fill="#FCF6F5"/>
<path d="M5.44824 117.666C16.7023 112.675 22.4187 103.432 25.8177 92.3362C25.9966 91.7427 26.1674 91.1493 26.4601 90.1414C29.9973 102.318 35.5756 112.471 47.6265 117.69C46.7889 118.072 45.9514 118.43 45.1464 118.82C41.0399 120.836 37.7385 123.828 34.9413 127.388C31.152 132.2 28.6394 137.655 27.0049 143.532C26.8911 143.955 26.9561 144.459 26.3788 144.751C22.9879 133.013 17.4179 122.95 5.44824 117.666Z" fill="#FCF6F5"/>
<path d="M41.6089 191.493C39.3077 191.395 37.2341 191.208 35.3151 190.298C32.7537 189.078 31.721 186.997 32.3796 184.233C33.0871 181.266 34.9492 178.998 37.1203 177.015C42.5684 172.056 48.9435 168.862 56.1481 167.342C58.9535 166.748 61.7832 166.464 64.6537 166.903C65.9547 167.106 67.1907 167.439 68.3291 168.098C70.4352 169.317 71.3052 171.333 70.793 173.707C70.2563 176.218 68.8414 178.242 67.0931 180.006C60.9457 186.217 53.4403 189.769 44.8615 191.143C43.7068 191.33 42.544 191.395 41.5926 191.493H41.6089ZM35.9738 184.071C35.9738 184.672 36.0144 185.225 36.6405 185.388C37.0878 185.502 37.413 185.193 37.4374 184.754C37.5594 182.567 39.0881 181.275 40.5599 180.023C44.4793 176.698 48.9679 174.422 53.8631 172.894C54.5706 172.674 55.9367 172.82 55.5789 171.617C55.3105 170.723 54.2209 171.268 53.5135 171.479C48.5288 172.942 43.9996 175.292 39.9582 178.559C38.7385 179.543 37.6326 180.64 36.7869 181.974C36.3641 182.632 36.0063 183.323 35.9738 184.071ZM63.19 174.609C63.9869 174.536 64.6862 174.454 65.3204 174.089C66.1011 173.633 66.5971 173.016 66.4751 172.048C66.3531 171.073 65.6864 170.642 64.8163 170.414C63.7755 170.138 62.7753 170.309 61.8158 170.739C60.9945 171.105 60.4497 171.723 60.531 172.69C60.6042 173.56 61.2059 174.056 61.9621 174.341C62.3768 174.503 62.8322 174.536 63.19 174.609Z" fill="#FA4616"/>
<path d="M60.6773 191.322C59.4576 192.574 57.7906 193.005 56.2619 193.647C52.0579 195.419 47.6994 196.622 43.0888 196.524C41.0072 196.484 38.9418 196.215 37.0796 195.191C35.8762 194.525 34.7784 193.728 34.689 192.053C35.925 191.883 36.9658 192.501 38.0717 192.696C41.4625 193.305 44.7721 192.785 48.0735 192.094C50.1714 191.655 52.188 190.964 54.1965 190.241C54.2859 191.062 54.7088 191.541 55.5626 191.517C56.7091 191.484 57.8638 191.688 58.986 191.306C59.5552 191.111 60.1081 191.086 60.6611 191.322H60.6773Z" fill="#C20000"/>
<path d="M60.6775 191.322C60.1245 191.078 59.5634 191.11 59.0024 191.305C57.8802 191.688 56.7255 191.484 55.579 191.517C54.717 191.541 54.3023 191.062 54.2129 190.241C57.8152 188.607 61.3442 186.851 64.4749 184.38C67.5649 181.933 70.2889 179.202 71.8583 175.503C71.9396 175.316 72.0453 175.178 72.4519 175.121C73.2732 176.495 73.2081 177.974 72.7609 179.478C72.1185 181.648 70.7931 183.412 69.2806 185.038C66.8818 187.631 64.0927 189.696 60.897 191.216C60.832 191.135 60.7588 191.053 60.6937 190.972C60.6937 191.078 60.7019 191.184 60.71 191.289L60.6693 191.322H60.6775Z" fill="#FA4616"/>
<path d="M60.7179 191.297C60.7179 191.192 60.7098 191.086 60.7017 190.98C60.7667 191.062 60.8399 191.143 60.9049 191.224L60.8236 191.306H60.7098L60.7179 191.297Z" fill="#C20000"/>
<path d="M320.195 94.8887C317.959 94.97 315.796 94.5148 313.682 93.8807C306.778 91.7997 300.753 88.2474 295.744 83.0287C294.296 81.5248 293.036 79.8828 292.117 77.9969C291.751 77.2409 291.401 76.4605 291.174 75.6557C290.182 72.0546 291.621 69.5184 295.256 68.5755C298.151 67.8276 301.07 68.0959 303.916 68.8275C311.576 70.7865 318.187 74.5827 323.635 80.338C324.668 81.4273 325.554 82.6222 326.343 83.8903C327.001 84.939 327.546 86.0445 327.896 87.2313C328.969 90.8812 327.514 93.4743 323.854 94.5311C322.643 94.8806 321.415 94.8481 320.187 94.8806L320.195 94.8887ZM299.639 72.6562C299.704 72.6643 300.224 72.705 300.728 72.7944C306.201 73.7942 310.998 76.2492 315.446 79.5007C315.918 79.8421 316.357 80.2323 316.829 80.5737C317.154 80.8095 317.552 80.9558 317.878 80.6225C318.284 80.1917 318.04 79.7771 317.707 79.4357C317.39 79.1187 317.032 78.8341 316.674 78.5496C314.584 76.8913 312.316 75.5176 309.917 74.3551C306.762 72.8188 303.509 71.5507 299.972 71.2011C298.655 71.071 297.378 71.1686 296.24 71.9165C295.841 72.1766 295.54 72.583 295.784 73.0708C296.061 73.5991 296.549 73.4609 296.955 73.2171C297.646 72.8025 298.378 72.6155 299.631 72.6562H299.639ZM319.415 85.386C319.61 87.0281 320.48 88.5644 322.171 89.5074C323.326 90.1496 324.375 89.4668 324.456 88.1255C324.537 86.7436 323.033 84.2317 321.765 83.6302C320.455 83.0043 319.431 83.6465 319.415 85.386Z" fill="#FA4616"/>
<path d="M298.029 92.0924C294.703 89.9545 291.971 87.2232 289.848 83.8903C289.149 82.7929 288.596 81.6224 288.246 80.3624C287.628 78.1107 287.807 76.9889 289.287 74.7209C289.686 75.859 289.978 76.932 290.426 77.9319C291.857 81.1265 294.093 83.7278 296.671 86.0526C298.947 88.1011 301.419 89.8813 304.086 91.3852C304.591 91.6697 305.054 92.0274 305.534 92.3525C305.176 93.8564 305.005 93.9377 303.688 93.767C302.176 93.5637 300.809 92.6289 299.208 92.8647C299.086 92.8484 298.988 92.7996 298.899 92.7102C298.793 92.2387 298.484 92.0599 298.02 92.1005L298.029 92.0924Z" fill="#FA4616"/>
<path d="M299.208 92.8647C300.809 92.6289 302.176 93.5637 303.688 93.767C305.005 93.9458 305.168 93.8564 305.534 92.3525C307.689 93.0841 309.665 94.2222 311.844 94.905C316.048 96.23 320.285 96.921 324.838 95.913C324.635 97.1161 323.919 97.742 323.122 98.246C321.903 99.0264 320.545 99.4166 319.081 99.5222C314.267 99.8799 309.811 98.5711 305.518 96.5958C303.29 95.5716 301.037 94.5636 299.199 92.8647H299.208Z" fill="#C20000"/>
<path d="M298.029 92.0922C298.484 92.0597 298.801 92.2304 298.907 92.7019C298.476 92.6938 298.216 92.4418 298.029 92.0922Z" fill="#C20000"/>
<path d="M152.889 133.582C152.84 136.484 152.019 139.224 150.856 141.833C145.92 152.864 138.529 161.911 128.73 168.975C126.242 170.764 123.559 172.227 120.493 172.788C114.915 173.804 112.988 170.268 113.346 165.862C113.614 162.529 114.638 159.375 116.11 156.392C120.94 146.629 127.503 138.273 136.415 131.908C139.212 129.908 142.213 128.209 145.644 127.453C146.091 127.355 146.538 127.25 146.986 127.217C150.271 126.933 152.507 128.754 152.889 132.03C152.946 132.542 152.897 133.07 152.897 133.59L152.889 133.582Z" fill="#FCF6F5"/>
<path d="M166.639 115.504C167.046 115.504 167.241 115.479 167.436 115.504C169.298 115.747 171.047 116.235 171.844 118.178C172.592 120.015 171.941 121.665 170.77 123.039C168.306 125.941 165.184 127.412 161.313 126.77C158.052 126.234 156.646 123.437 158.207 120.527C160.028 117.113 163.143 115.747 166.639 115.495V115.504Z" fill="#FCF6F5"/>
<path d="M259.022 365.841C259.607 367.906 259.989 370.003 259.843 372.166C259.664 374.751 258.737 376.921 256.477 378.409C255.558 379.01 254.68 379.685 253.842 380.4C251.289 382.603 248.41 382.928 245.288 382.001C241.742 380.953 238.693 379.026 235.896 376.677C232.814 374.076 230.204 371.044 227.854 367.784C226.089 364.906 224.414 361.988 223.373 358.753C222.617 356.379 222.17 353.981 222.357 351.477C222.495 349.608 223.064 347.917 224.43 346.576C225.869 345.169 227.471 343.934 229.146 342.828C231.448 341.3 233.993 341.178 236.627 341.902C240.872 343.072 244.361 345.495 247.548 348.413C251.858 352.364 255.232 356.997 257.68 362.305C258.217 363.459 258.249 364.784 259.014 365.841H259.022ZM235.806 369.142C235.546 368.776 235.302 368.386 235.017 368.036C231.318 363.508 228.398 358.582 227.073 352.811C226.975 352.38 226.78 351.949 226.536 351.575C226.17 351.006 225.642 350.559 224.918 350.762C224.235 350.949 223.853 351.486 223.837 352.217C223.828 352.737 223.804 353.258 223.861 353.77C224.463 359.224 226.78 363.923 230.22 368.125C230.317 368.361 230.374 368.629 230.521 368.825C233.781 373.182 237.66 376.872 242.547 379.36C244.507 380.351 246.589 381.172 248.874 381.002C250.207 380.904 251.484 380.62 252.354 379.238C251.15 379.075 250.134 378.913 249.15 378.579C245.841 377.474 242.946 375.645 240.327 373.393C238.758 372.044 237.311 370.564 235.806 369.142ZM258.339 371.133C258.339 369.296 257.932 367.524 257.355 365.801C255.541 360.346 252.427 355.672 248.5 351.534C245.621 348.502 242.409 345.893 238.538 344.186C236.668 343.365 234.741 342.893 232.676 343.129C230.659 343.357 229.358 344.511 228.667 346.356C228.35 347.202 228.228 348.112 228.211 349.031C228.154 351.542 228.764 353.916 229.651 356.233C231.464 360.964 234.221 365.102 237.644 368.8C240.62 372.011 243.954 374.783 248.012 376.571C249.63 377.287 251.305 377.75 253.102 377.693C255.769 377.612 257.46 376.254 258.127 373.661C258.339 372.832 258.339 371.995 258.339 371.149V371.133Z" fill="#141212"/>
<path d="M153.686 389.187C159.524 389.577 165.265 390.537 170.925 392.081C173.689 392.837 176.275 394.008 178.902 395.105C179.471 395.341 180.3 395.593 180.227 396.349C180.146 397.284 179.194 397.186 178.536 397.292C176.584 397.601 174.641 397.227 172.722 396.975C166.29 396.121 159.923 394.926 153.783 392.748C152.621 392.333 151.466 391.919 150.441 391.211C150.116 390.984 149.807 390.724 149.831 390.285C149.872 389.716 150.36 389.602 150.783 389.456C151.726 389.13 152.71 389.228 153.686 389.187Z" fill="#FCF6F5"/>
<path d="M251.02 410.916C254.045 410.965 256.745 411.956 259.217 413.623C260.412 414.428 261.42 415.436 262.16 416.679C264.096 419.898 263.12 423.361 259.794 425.076C258.2 425.897 256.476 426.247 254.72 426.19C251.817 426.109 249.101 425.288 246.67 423.654C246.133 423.296 245.613 422.89 245.149 422.443C243.165 420.532 241.913 418.289 242.759 415.484C243.564 412.826 245.792 411.737 248.312 411.176C249.191 410.981 250.11 410.989 251.012 410.908L251.02 410.916ZM254.663 424.67C255.452 424.702 256.216 424.581 256.981 424.41C259.03 423.963 260.884 423.174 261.502 420.947C262.128 418.711 260.941 417.013 259.396 415.647C256.184 412.818 252.394 411.761 248.207 412.68C243.873 413.631 242.71 417.419 245.645 420.727C246.117 421.256 246.662 421.727 247.231 422.15C249.435 423.784 251.972 424.475 254.671 424.654L254.663 424.67Z" fill="#141212"/>
<path d="M187.155 399.267C185.919 399.048 184.586 399.015 183.569 398.056C182.723 397.259 182.87 396.26 183.959 395.926C185.643 395.422 187.31 395.552 188.798 396.601C189.278 396.942 189.765 397.349 189.635 398.023C189.505 398.69 188.96 398.926 188.351 399.048C187.968 399.121 187.586 399.186 187.155 399.267Z" fill="#FCF6F5"/>
<path d="M304.453 496.44C302.989 496.456 301.371 496.513 299.777 496.107C299.403 496.009 299.021 495.952 298.655 495.83C298.037 495.619 297.378 495.367 297.289 494.619C297.199 493.855 297.801 493.465 298.362 493.14C299.899 492.262 301.607 491.888 303.339 491.62C307.128 491.034 310.917 490.685 314.739 491.36C315.381 491.473 316.007 491.62 316.593 491.896C317.121 492.14 317.731 492.457 317.772 493.083C317.813 493.717 317.252 494.107 316.731 494.359C315.975 494.717 315.194 495.05 314.389 495.278C311.194 496.172 307.925 496.546 304.444 496.456L304.453 496.44Z" fill="#FCF6F5"/>
<path d="M217.827 484.629C212.761 483.231 207.679 481.914 202.638 480.426C193.791 477.817 184.992 475.037 176.641 471.054C175.234 470.379 173.852 469.655 172.649 468.647C171.795 467.932 171.437 467.127 172.185 466.119C173.185 465.591 174.267 465.412 175.381 465.461C175.869 465.477 176.3 465.713 176.267 466.274C176.243 466.729 175.852 466.883 175.454 466.981C174.901 467.119 174.283 466.9 173.698 467.404C174.291 468.217 175.177 468.623 176.007 469.062C179.333 470.842 182.837 472.2 186.375 473.492C196.49 477.199 206.809 480.223 217.258 482.832C217.697 482.938 218.136 483.06 218.575 483.174C219.047 483.288 219.47 483.499 219.413 484.06C219.356 484.637 218.901 484.743 218.397 484.694C218.201 484.678 218.006 484.653 217.819 484.637L217.827 484.629Z" fill="#141212"/>
<path d="M188.977 467.574C187.399 467.672 185.862 467.534 184.382 466.973C183.821 466.761 183.22 466.485 183.163 465.851C183.098 465.087 183.756 464.713 184.374 464.534C187.57 463.591 190.749 463.64 193.896 464.778C194.425 464.965 194.905 465.306 194.929 465.827C194.962 466.387 194.417 466.656 193.913 466.859C192.319 467.509 190.652 467.647 188.977 467.566V467.574Z" fill="#FCF6F5"/>
<path d="M199.011 464.323C200.052 464.323 200.963 465.046 200.914 465.843C200.873 466.518 200.133 467.005 199.141 467.005C198.084 467.005 197.287 466.469 197.247 465.721C197.198 464.941 197.978 464.323 199.011 464.315V464.323Z" fill="#FCF6F5"/>
<path d="M356.535 256.573C356.511 255.069 356.616 253.573 356.974 252.118C357.21 251.175 357.454 250.224 357.852 249.338C360.032 244.477 364.585 243.485 368.627 246.956C369.773 247.94 370.741 249.078 371.497 250.378C374.904 256.215 376.197 262.417 374.571 269.083C374.197 270.611 373.546 272.026 372.522 273.237C370.578 275.545 367.846 276.106 365.146 274.757C363.479 273.928 362.17 272.676 361.097 271.188C357.942 266.823 356.633 261.881 356.535 256.564V256.573ZM373.75 263.141C373.603 259.076 372.489 254.597 369.798 250.598C368.846 249.183 367.708 247.94 366.187 247.111C363.886 245.859 361.739 246.338 360.186 248.452C359.641 249.192 359.235 250.013 358.991 250.891C356.917 258.442 358.43 265.254 363.268 271.359C363.959 272.229 364.862 272.887 365.862 273.383C367.805 274.359 369.7 274.009 371.172 272.424C371.985 271.546 372.514 270.514 372.879 269.392C373.465 267.587 373.75 265.734 373.75 263.133V263.141Z" fill="#141212"/>
<path d="M365.707 226.601C366.919 226.487 368.236 226.772 369.505 227.325C372.912 228.804 373.587 231.974 371.017 234.681C368.862 236.957 366.073 237.949 363.04 238.299C361.162 238.518 359.283 238.437 357.486 237.713C353.949 236.291 353.217 233.072 355.795 230.275C357.901 227.983 361.585 226.601 365.707 226.609V226.601ZM365.244 228.105C362.105 228.194 359.218 228.975 356.958 231.3C355.039 233.275 355.502 235.299 358.047 236.315C359.853 237.039 361.739 237.031 363.601 236.705C366.073 236.283 368.374 235.405 370.074 233.462C371.668 231.641 371.229 229.771 369.041 228.755C367.838 228.194 366.553 228.081 365.236 228.105H365.244Z" fill="#141212"/>
<path d="M372.766 291.039C371.635 291.071 370.554 290.876 369.537 290.397C367.358 289.356 366.545 287.235 367.504 285.024C367.683 284.609 367.919 284.211 368.187 283.845C370.359 280.829 375.229 279.098 378.807 280.057C382.052 280.927 383.239 283.967 381.312 286.739C379.263 289.681 376.238 290.836 372.774 291.039H372.766ZM373.148 289.511C375.652 289.316 378.157 288.405 379.905 286.072C381.377 284.105 380.734 282.325 378.401 281.593C375.49 280.683 370.936 282.349 369.301 284.934C369.163 285.154 369.033 285.381 368.936 285.617C368.334 287.015 368.708 288.153 370.009 288.917C370.879 289.429 371.847 289.486 373.148 289.511Z" fill="#141212"/>
<path d="M130.958 306.866C134.845 306.85 138.138 307.638 140.992 309.8C143.237 311.499 144.554 313.702 144.424 316.629C144.359 318.1 143.847 319.409 143.05 320.62C141.952 322.278 140.48 323.555 138.74 324.473C133.731 327.107 128.519 327.578 123.136 325.733C121.517 325.18 120.07 324.327 118.826 323.164C115.695 320.246 115.313 316.076 117.858 312.637C119.712 310.142 122.282 308.671 125.168 307.744C127.153 307.102 129.21 306.793 130.95 306.874L130.958 306.866ZM129.852 325.294C130.787 325.384 132.202 325.156 133.593 324.823C136.821 324.042 139.732 322.677 141.708 319.856C143.513 317.271 143.277 314.288 141.163 312.012C140.22 310.995 139.098 310.231 137.829 309.695C133.967 308.045 130.007 307.996 126.014 309.126C123.802 309.752 121.778 310.768 120.103 312.377C116.655 315.702 116.972 320.1 120.883 322.847C123.42 324.628 126.299 325.278 129.86 325.294H129.852Z" fill="#141212"/>
<path d="M110.353 323.677C110.264 325.416 109.979 327.196 108.841 328.725C107.336 330.724 105.035 331.269 102.799 330.139C102.092 329.79 101.457 329.334 100.945 328.741C98.1884 325.481 97.2126 321.815 98.6519 317.71C99.9855 313.898 103.872 312.93 106.905 315.605C109.296 317.71 110.174 320.506 110.353 323.677ZM99.522 321.1C99.5138 323.823 100.774 326.725 102.62 328.204C104.677 329.863 106.93 329.375 108.093 327.009C109.638 323.888 108.524 318.84 105.808 316.67C105.458 316.385 105.068 316.133 104.661 315.946C103.157 315.263 101.896 315.597 100.864 316.905C99.9041 318.133 99.5382 319.555 99.5301 321.092L99.522 321.1Z" fill="#141212"/>
<path d="M150.206 320.84C150.165 318.864 150.775 317.198 152.043 315.783C154.182 313.393 157.735 313.589 159.638 316.174C161.606 318.856 161.142 323.197 158.654 325.424C156.337 327.497 153.149 327.148 151.368 324.611C150.563 323.465 150.181 322.173 150.214 320.84H150.206ZM159.321 320.124C159.28 319.352 159.199 318.531 158.809 317.751C157.605 315.336 155.141 314.897 153.23 316.775C151.507 318.474 151.222 321.807 152.637 323.774C153.865 325.481 155.963 325.741 157.556 324.351C158.801 323.262 159.313 321.823 159.329 320.124H159.321Z" fill="#141212"/>
<path d="M56.3515 249.248C55.9774 249.224 55.5139 249.248 55.0748 249.151C53.4566 248.801 52.8712 247.647 53.4566 246.094C53.8063 245.16 54.3836 244.379 55.0911 243.696C60.2383 238.73 66.3532 235.657 73.4277 234.559C74.7856 234.348 76.3306 234.332 77.1031 235.714C77.9 237.136 76.908 238.348 76.0135 239.38C75.2085 240.307 74.3221 241.193 73.3626 241.949C69.0773 245.33 64.2716 247.688 58.9454 248.948C58.5632 249.037 58.1892 249.135 57.7989 249.175C57.3516 249.224 56.8881 249.224 56.3515 249.248Z" fill="#FCF6F5"/>
<path d="M83.0637 232.804C84.8689 232.787 85.7959 233.34 85.8691 234.389C85.9341 235.389 84.9908 236.388 83.6004 236.681C82.714 236.868 81.787 236.925 80.9251 236.543C79.5265 235.941 79.315 234.608 80.4616 233.616C81.2422 232.942 82.1773 232.747 83.0637 232.795V232.804Z" fill="#FCF6F5"/>
<path d="M117.208 86.6785C113.41 86.5728 109.8 85.5405 106.629 83.1343C105.214 82.0613 104.059 80.7607 103.238 79.1755C101.465 75.7695 102.067 72.0546 104.815 69.3558C106.531 67.665 108.613 66.6245 110.946 66.1855C116.98 65.0556 122.428 66.2343 126.982 70.5345C128.576 72.0384 129.649 73.8999 129.917 76.1109C130.308 79.3625 129.039 81.9475 126.478 83.9066C123.786 85.9632 120.655 86.6622 117.199 86.6785H117.208ZM117.476 85.1503C120.363 85.1503 123.038 84.4105 125.055 83.0693C128.787 80.5737 129.543 76.3873 126.909 72.77C126.331 71.9815 125.673 71.2742 124.9 70.6646C121.867 68.2747 118.354 67.2017 114.581 67.2423C111.572 67.2829 108.67 68.0227 106.287 70.0793C103.612 72.3798 103.018 75.802 104.799 78.8504C105.563 80.151 106.588 81.2321 107.816 82.1101C110.702 84.1911 113.947 85.134 117.484 85.1503H117.476Z" fill="#141212"/>
<path d="M96.8546 65.584C96.7164 68.673 95.3828 71.3718 92.5612 73.2008C88.3409 75.924 83.6084 73.4121 83.3888 68.3966C83.2587 65.2751 84.3483 62.6738 86.6984 60.6416C88.715 58.902 91.0569 58.2355 93.5532 59.406C96.0008 60.5522 96.814 62.7714 96.8546 65.5921V65.584ZM95.3096 65.9091C95.3422 63.5274 94.8461 61.6333 92.8133 60.7392C90.8292 59.8694 89.0077 60.5766 87.479 61.991C85.4868 63.8281 84.6573 66.1368 84.9663 68.8112C85.381 72.3554 88.7312 73.908 91.7318 71.9245C93.9761 70.4369 95.1389 68.2828 95.3096 65.901V65.9091Z" fill="#141212"/>
<path d="M150.628 77.0864C150.628 79.9884 149.059 82.3539 146.644 83.1587C144.969 83.7196 143.432 83.3863 141.993 82.5084C138.878 80.6062 137.691 76.1435 139.407 72.9082C141.09 69.7298 144.79 68.8762 147.669 71.0385C149.669 72.5424 150.596 74.6071 150.62 77.0864H150.628ZM149.092 76.8832C149.075 75.0461 148.327 73.4284 146.782 72.2741C144.497 70.5752 141.562 71.4531 140.554 74.1112C139.667 76.4686 140.179 78.6146 141.871 80.4193C142.985 81.6061 144.383 82.2726 146.083 81.7199C147.815 81.159 148.669 79.8502 149.027 78.1594C149.108 77.7855 149.075 77.3872 149.092 76.8913V76.8832Z" fill="#141212"/>
<path d="M339.345 142.67C337.816 142.646 336.71 142.549 335.71 142.036C334.531 141.427 334.222 140.516 334.718 139.281C335.173 138.151 336.035 137.346 337.011 136.704C340.004 134.712 343.289 133.656 346.907 133.769C348.322 133.818 349.737 134.07 350.257 135.59C350.753 137.053 349.721 138.045 348.729 138.907C345.923 141.354 342.549 142.345 339.345 142.679V142.67Z" fill="#FCF6F5"/>
<path d="M35.9741 184.063C36.0066 183.315 36.3726 182.624 36.7873 181.966C37.633 180.632 38.7388 179.535 39.9586 178.551C43.9999 175.284 48.5292 172.934 53.5138 171.471C54.2213 171.268 55.3109 170.715 55.5792 171.609C55.9452 172.821 54.5791 172.666 53.8635 172.886C48.9683 174.414 44.4716 176.69 40.5603 180.015C39.0885 181.266 37.5679 182.559 37.4378 184.746C37.4134 185.176 37.0881 185.493 36.6409 185.38C36.0148 185.217 35.9741 184.664 35.9741 184.063Z" fill="#141212"/>
<path d="M63.1899 174.601C62.8321 174.528 62.3767 174.487 61.962 174.332C61.2058 174.04 60.6041 173.552 60.5309 172.682C60.4496 171.715 61.0025 171.097 61.8156 170.731C62.767 170.309 63.7672 170.13 64.8162 170.406C65.6863 170.642 66.353 171.073 66.475 172.04C66.597 172.999 66.0928 173.617 65.3203 174.08C64.6942 174.454 63.9868 174.528 63.1899 174.601Z" fill="#FCF6F5"/>
<path d="M299.639 72.6562C298.386 72.6155 297.655 72.8025 296.963 73.2171C296.557 73.4609 296.061 73.5991 295.792 73.0707C295.54 72.5911 295.849 72.1847 296.248 71.9164C297.386 71.1686 298.663 71.071 299.98 71.2011C303.517 71.5506 306.77 72.8187 309.925 74.3551C312.316 75.5175 314.592 76.8913 316.682 78.5496C317.04 78.8341 317.398 79.1105 317.715 79.4357C318.048 79.769 318.3 80.1917 317.886 80.6225C317.56 80.9639 317.162 80.8176 316.837 80.5737C316.365 80.2323 315.926 79.8502 315.454 79.5007C311.015 76.2491 306.209 73.7942 300.736 72.7944C300.232 72.7049 299.712 72.6643 299.647 72.6562H299.639Z" fill="#141212"/>
<path d="M319.415 85.3859C319.431 83.6464 320.455 83.0042 321.765 83.6301C323.033 84.2316 324.537 86.7435 324.456 88.1254C324.375 89.4667 323.326 90.1495 322.171 89.5073C320.472 88.5643 319.602 87.028 319.415 85.3859Z" fill="#FCF6F5"/>
<path d="M258.339 371.125C258.339 371.97 258.339 372.808 258.127 373.637C257.46 376.23 255.769 377.587 253.102 377.669C251.313 377.726 249.638 377.262 248.012 376.547C243.954 374.759 240.628 371.995 237.644 368.776C234.22 365.077 231.464 360.939 229.651 356.208C228.764 353.892 228.146 351.518 228.211 349.006C228.236 348.088 228.349 347.177 228.667 346.332C229.358 344.487 230.659 343.332 232.675 343.105C234.741 342.869 236.668 343.34 238.538 344.161C242.409 345.868 245.613 348.478 248.499 351.51C252.435 355.656 255.541 360.322 257.355 365.776C257.932 367.508 258.347 369.272 258.339 371.109V371.125ZM235.139 346.405C234.863 346.47 234.473 346.527 234.115 346.657C233.733 346.795 233.415 347.088 233.497 347.527C233.578 347.982 233.976 348.169 234.383 348.071C236.083 347.665 237.416 348.519 238.742 349.323C239.571 349.827 240.368 350.404 241.116 351.022C244.58 353.835 247.459 357.16 249.76 360.98C250.061 361.476 250.378 361.972 250.727 362.427C250.89 362.647 251.175 362.671 251.435 362.533C251.687 362.395 251.833 362.167 251.785 361.899C251.728 361.59 251.63 361.265 251.476 360.988C248.231 355.469 244.149 350.754 238.546 347.486C237.522 346.893 236.408 346.543 235.123 346.389L235.139 346.405ZM255.297 370.719C255.314 369.231 254.948 367.873 253.752 366.89C252.557 365.898 251.419 366.223 250.833 367.646C250.313 368.93 250.483 370.19 250.963 371.426C251.532 372.889 252.614 373.759 253.606 373.629C254.679 373.482 255.24 372.507 255.297 370.719Z" fill="#FA4616"/>
<path d="M230.228 368.125C226.788 363.923 224.471 359.224 223.869 353.77C223.812 353.257 223.837 352.729 223.845 352.217C223.861 351.485 224.243 350.949 224.926 350.762C225.65 350.567 226.178 351.006 226.544 351.575C226.78 351.949 226.983 352.38 227.081 352.81C228.407 358.582 231.318 363.508 235.026 368.036C235.31 368.385 235.554 368.767 235.814 369.141C235.603 370.157 234.871 370.271 234.066 370.036C233.277 369.8 232.521 369.434 231.903 368.873C231.415 368.434 230.935 368.052 230.228 368.133V368.125Z" fill="#FA4616"/>
<path d="M230.228 368.125C230.927 368.052 231.415 368.426 231.903 368.865C232.521 369.426 233.277 369.792 234.066 370.028C234.871 370.271 235.595 370.15 235.814 369.133C237.319 370.556 238.766 372.035 240.336 373.385C242.954 375.637 245.849 377.466 249.158 378.571C250.142 378.904 251.167 379.067 252.362 379.229C251.484 380.611 250.215 380.896 248.882 380.993C246.597 381.164 244.515 380.351 242.555 379.351C237.668 376.872 233.79 373.182 230.529 368.816C230.383 368.621 230.326 368.353 230.228 368.117V368.125Z" fill="#C20000"/>
<path d="M254.663 424.662C251.964 424.483 249.427 423.792 247.223 422.158C246.654 421.735 246.109 421.264 245.637 420.736C242.702 417.427 243.865 413.631 248.199 412.688C252.386 411.769 256.184 412.826 259.388 415.655C260.933 417.021 262.112 418.72 261.494 420.955C260.876 423.182 259.022 423.971 256.973 424.418C256.208 424.581 255.444 424.711 254.655 424.678L254.663 424.662Z" fill="#DAF405"/>
<path d="M373.749 263.141C373.749 265.742 373.465 267.595 372.879 269.4C372.513 270.522 371.977 271.554 371.172 272.432C369.7 274.017 367.805 274.367 365.862 273.391C364.862 272.895 363.959 272.229 363.268 271.367C358.421 265.262 356.917 258.442 358.991 250.899C359.235 250.021 359.641 249.2 360.186 248.46C361.747 246.355 363.886 245.867 366.187 247.119C367.708 247.948 368.846 249.192 369.797 250.606C372.497 254.605 373.603 259.084 373.749 263.149V263.141Z" fill="#A5BB00"/>
<path d="M365.236 228.097C366.553 228.064 367.838 228.178 369.041 228.747C371.229 229.771 371.668 231.633 370.074 233.454C368.374 235.397 366.065 236.275 363.601 236.697C361.739 237.022 359.853 237.022 358.047 236.307C355.502 235.291 355.039 233.275 356.958 231.292C359.21 228.967 362.105 228.186 365.244 228.097H365.236Z" fill="#A5BB00"/>
<path d="M373.14 289.511C371.839 289.486 370.879 289.421 370.001 288.917C368.7 288.153 368.326 287.023 368.927 285.617C369.033 285.381 369.155 285.154 369.293 284.934C370.928 282.349 375.481 280.675 378.393 281.593C380.734 282.325 381.377 284.105 379.897 286.072C378.149 288.405 375.644 289.316 373.14 289.511Z" fill="#A5BB00"/>
<path d="M129.852 325.286C126.291 325.27 123.412 324.611 120.875 322.839C116.964 320.092 116.647 315.694 120.095 312.369C121.77 310.76 123.794 309.744 126.006 309.118C129.999 307.988 133.959 308.037 137.821 309.687C139.09 310.223 140.212 310.995 141.155 312.003C143.278 314.28 143.513 317.263 141.7 319.848C139.724 322.669 136.813 324.034 133.585 324.815C132.202 325.148 130.779 325.375 129.844 325.286H129.852Z" fill="#A5BB00"/>
<path d="M99.5218 321.092C99.5218 319.555 99.8959 318.133 100.855 316.905C101.88 315.588 103.149 315.263 104.653 315.946C105.059 316.133 105.45 316.385 105.799 316.669C108.515 318.832 109.629 323.888 108.084 327.009C106.922 329.367 104.669 329.863 102.612 328.204C100.774 326.725 99.5056 323.823 99.5137 321.1L99.5218 321.092Z" fill="#A5BB00"/>
<path d="M159.321 320.124C159.305 321.823 158.793 323.262 157.548 324.351C155.955 325.741 153.865 325.481 152.629 323.774C151.214 321.815 151.49 318.474 153.223 316.775C155.133 314.897 157.597 315.328 158.801 317.751C159.191 318.531 159.28 319.352 159.313 320.124H159.321Z" fill="#A5BB00"/>
<path d="M117.468 85.1503C113.931 85.134 110.687 84.1911 107.8 82.1101C106.572 81.224 105.556 80.151 104.783 78.8504C103.002 75.8102 103.588 72.3798 106.271 70.0793C108.662 68.0308 111.557 67.2829 114.565 67.2423C118.338 67.1935 121.859 68.2747 124.884 70.6646C125.657 71.2742 126.324 71.9733 126.893 72.7699C129.527 76.3873 128.771 80.5818 125.039 83.0693C123.022 84.4105 120.347 85.1503 117.46 85.1503H117.468Z" fill="#A5BB00"/>
<path d="M95.3099 65.9091C95.1391 68.2827 93.9763 70.445 91.732 71.9326C88.7314 73.916 85.3813 72.3634 84.9666 68.8192C84.6576 66.1448 85.4788 63.8362 87.4792 61.9991C89.0161 60.5846 90.8294 59.8774 92.8135 60.7472C94.8545 61.6414 95.3505 63.5354 95.3099 65.9172V65.9091Z" fill="#A5BB00"/>
<path d="M149.091 76.8831C149.067 77.3789 149.099 77.7772 149.026 78.1512C148.669 79.842 147.815 81.1507 146.083 81.7116C144.383 82.2644 142.976 81.5978 141.871 80.411C140.187 78.6145 139.667 76.4604 140.553 74.103C141.553 71.4448 144.497 70.5669 146.782 72.2658C148.335 73.4201 149.075 75.0378 149.091 76.8749V76.8831Z" fill="#A5BB00"/>
<path d="M235.139 346.405C236.424 346.559 237.538 346.901 238.563 347.502C244.157 350.77 248.247 355.485 251.492 361.005C251.654 361.273 251.752 361.598 251.801 361.915C251.85 362.183 251.695 362.411 251.451 362.549C251.191 362.687 250.906 362.663 250.744 362.443C250.394 361.98 250.077 361.492 249.776 360.996C247.475 357.168 244.596 353.851 241.132 351.038C240.376 350.429 239.587 349.844 238.758 349.34C237.432 348.535 236.099 347.681 234.399 348.088C233.985 348.185 233.594 347.998 233.513 347.543C233.432 347.096 233.749 346.811 234.131 346.673C234.489 346.543 234.879 346.486 235.156 346.421L235.139 346.405Z" fill="#141212"/>
<path d="M255.297 370.727C255.249 372.515 254.679 373.49 253.614 373.637C252.622 373.775 251.541 372.905 250.971 371.434C250.492 370.198 250.321 368.938 250.841 367.654C251.427 366.231 252.557 365.906 253.761 366.898C254.956 367.881 255.322 369.239 255.305 370.727H255.297Z" fill="#FCF6F5"/>
</g>
<defs>
<clipPath id="clip0_923_6237">
<rect width="439.769" height="504" fill="white"/>
</clipPath>
</defs>
</svg>
