<svg width="412" height="392" viewBox="0 0 412 392" fill="none" xmlns="http://www.w3.org/2000/svg">
<g clip-path="url(#clip0_432_1258)">
<path d="M320.582 163.564C337.916 167.248 353.644 174.242 367.407 185.246C378.689 194.264 387.591 205.141 393.966 217.946C397.253 224.543 400.503 231.16 403.653 237.822C406.616 244.083 408.316 250.731 409.54 257.496C411.273 267.053 411.497 276.658 410.388 286.304C409.756 291.829 408.686 297.276 407.171 302.625C403.667 315.015 398.151 326.515 390.658 337.087C376.743 356.721 358.481 371.264 336.169 380.977C319.736 388.133 302.496 391.779 284.496 391.9C278.449 391.941 272.433 391.509 266.441 390.658C261.687 389.981 256.981 389.078 252.376 387.806C227.13 380.837 206.659 367.275 191.934 345.868C190.281 343.467 189.068 340.828 187.681 338.287C185.008 333.39 182.319 328.504 179.719 323.569C172.348 309.584 168.633 294.715 168.501 278.989C168.432 270.875 169.344 262.862 171.201 254.963C174.426 241.247 180.128 228.556 188.187 216.895C200.582 198.959 216.763 185.165 236.424 175.22C253.067 166.804 270.766 162.125 289.487 161.182C297.776 160.764 306.031 161.133 314.234 162.465C316.353 162.81 318.479 163.133 320.585 163.561L320.582 163.564ZM188.853 338.082C188.911 338.195 188.966 338.308 189.024 338.419C189.11 338.664 189.159 338.928 189.284 339.155C190.464 341.305 191.528 343.515 192.918 345.555C196.812 351.283 201.3 356.522 206.328 361.327C206.609 361.597 206.853 361.931 207.281 362.014C207.27 362.179 207.367 362.265 207.516 362.308C207.563 362.378 207.604 362.451 207.66 362.513C207.673 362.526 207.762 362.5 207.762 362.5C207.743 362.34 207.61 362.343 207.494 362.322C207.552 362.155 207.48 362.049 207.32 361.99C207.372 361.756 207.259 361.57 207.135 361.386C205.15 358.487 203.218 355.546 201.162 352.695C199.266 350.064 197.713 347.178 195.226 344.973C194.667 344.477 194.184 343.895 193.689 343.335C192.202 341.656 190.726 339.969 189.245 338.284C189.168 338.187 189.09 338.09 189.013 337.993C188.991 337.845 188.911 337.748 188.764 337.707C188.77 337.554 188.69 337.457 188.551 337.397C188.543 337.36 188.54 337.319 188.521 337.287C188.51 337.271 188.471 337.271 188.446 337.263C188.491 337.303 188.532 337.344 188.576 337.384C188.532 337.556 188.585 337.67 188.775 337.702C188.676 337.856 188.737 337.974 188.861 338.079L188.853 338.082ZM400.105 233.2C400.105 233.351 400.132 233.48 400.315 233.513C400.149 234.553 400.688 235.458 400.928 236.418C402.241 241.63 403.225 246.894 403.653 252.249C403.703 252.858 403.8 253.435 404.178 253.971C405.317 255.588 406.392 257.245 407.525 258.868C407.813 259.28 408.045 259.784 408.589 259.984C409.012 259.574 408.763 259.127 408.691 258.733C407.288 250.893 405.323 243.22 401.644 236.051C401.207 235.202 400.972 234.251 400.293 233.526C400.304 233.372 400.251 233.254 400.085 233.211C400.066 233.108 400.049 233.006 400.03 232.903C400.011 232.933 399.969 232.974 399.978 232.992C400.011 233.065 400.06 233.133 400.102 233.2H400.105ZM194.911 342.949C194.985 343.478 195.447 343.734 195.77 344.076C209.757 358.724 226.859 368.275 246.592 373.452C254.001 375.395 261.56 376.544 269.229 377.013C282.291 377.808 295.159 376.606 307.83 373.471C325.341 369.14 341.276 361.607 355.584 350.846C370.265 339.804 382.005 326.342 390.52 310.252C392.902 305.752 395.047 301.146 396.647 296.316C397.797 293.664 398.579 290.891 399.345 288.12C401.594 279.973 402.844 271.67 403.015 263.229C403.076 260.275 403.109 257.316 402.741 254.37C402.73 253.933 402.741 253.497 402.703 253.063C402.119 246.39 400.939 239.827 398.969 233.402C392.272 211.583 379.239 194.215 360.128 181.222C345.264 171.119 328.715 165.232 310.749 163.063C304.873 162.354 298.983 162.017 293.072 162.149C273.32 162.597 254.679 167.353 237.079 176.056C230.071 179.522 223.465 183.624 217.23 188.286C206.087 196.622 196.561 206.443 188.781 217.854C181.507 228.521 176.159 240.037 172.873 252.451C171.157 258.938 170.126 265.53 169.706 272.217C169.095 281.957 169.946 291.57 172.226 301.065C172.293 301.345 172.259 301.69 172.58 301.879C172.456 302.423 172.718 302.906 172.854 303.402C176.797 317.847 183.801 330.711 193.888 341.971C194.198 342.316 194.366 342.825 194.911 342.947V342.949ZM319.744 385.801C320.214 385.672 320.775 385.529 321.331 385.362C334.348 381.427 346.45 375.67 357.627 368.062C358.652 367.364 358.666 367.359 357.989 366.367C355.756 363.095 353.517 359.826 351.273 356.56C350.651 355.651 350.64 355.654 349.631 356.298C346.704 358.16 343.772 360.004 340.729 361.688C333.267 365.817 325.468 369.199 317.323 371.827C315.538 372.404 313.739 372.935 311.94 373.466C311.351 373.638 311.224 373.897 311.586 374.396C311.948 374.894 312.277 375.417 312.625 375.924C314.69 378.937 316.754 381.953 318.827 384.963C319.045 385.278 319.189 385.683 319.747 385.804L319.744 385.801ZM383.475 323.935C383.127 324.065 383.011 324.423 382.815 324.693C377.608 331.889 371.658 338.446 365.036 344.432C361.056 348.027 356.82 351.309 352.45 354.438C351.582 355.061 351.577 355.099 352.182 355.988C354.434 359.3 356.701 362.602 358.97 365.903C359.517 366.701 359.558 366.725 360.415 366.097C362.131 364.836 363.842 363.567 365.506 362.246C375.151 354.584 383.464 345.736 390.426 335.675C390.96 334.904 390.893 334.433 390.401 333.732C388.254 330.668 386.159 327.568 384.039 324.485C383.896 324.278 383.807 324.003 383.473 323.941L383.475 323.935ZM318.241 386.036C315.596 382.163 312.962 378.32 310.353 374.46C310.013 373.959 309.629 374.088 309.19 374.193C307.407 374.611 305.627 375.048 303.837 375.428C293.431 377.643 282.91 378.595 272.261 378.188C271.189 378.147 270.097 377.948 268.967 378.15C269.072 378.371 269.111 378.498 269.185 378.603C271.814 382.454 274.453 386.3 277.067 390.159C277.374 390.612 277.709 390.793 278.272 390.782C279.118 390.763 279.966 390.882 280.815 390.9C293.285 391.156 305.536 389.69 317.558 386.437C317.771 386.381 318.003 386.356 318.244 386.038L318.241 386.036ZM225.577 366.946C225.519 367.014 225.463 367.078 225.405 367.146C225.527 367.367 225.629 367.601 225.773 367.812C228.368 371.582 230.988 375.336 233.547 379.128C234.092 379.937 234.763 380.465 235.639 380.858C242.488 383.939 249.615 386.238 256.931 387.965C261.895 389.135 266.947 389.847 272.021 390.378C273.289 390.51 274.566 390.55 275.807 390.628C275.929 390.342 275.804 390.202 275.708 390.062C273.077 386.208 270.437 382.362 267.823 378.5C267.48 377.996 267.068 377.856 266.485 377.821C263.312 377.624 260.159 377.234 257.036 376.692C252.631 375.929 248.253 375.029 243.947 373.792C239.434 372.498 235.009 370.992 230.695 369.173C228.982 368.45 227.285 367.688 225.58 366.944L225.577 366.946ZM400.298 289.182C399.997 289.29 400.002 289.487 399.961 289.643C399.289 292.225 398.38 294.729 397.471 297.238C395.348 303.086 392.673 308.684 389.603 314.115C388.091 316.791 386.427 319.373 384.725 321.933C384.39 322.437 384.155 322.852 384.581 323.464C386.618 326.385 388.608 329.342 390.633 332.271C390.946 332.724 391.219 333.236 391.75 333.576C391.938 333.331 392.109 333.128 392.253 332.913C393.925 330.382 395.451 327.771 396.893 325.111C401.218 317.138 404.551 308.797 406.776 300.035C406.989 299.192 406.867 298.553 406.376 297.847C404.662 295.394 403.007 292.904 401.326 290.43C401.014 289.972 400.724 289.495 400.298 289.182ZM407.473 297.138C407.978 296.074 407.923 294.88 408.164 293.75C408.885 290.33 409.322 286.878 409.631 283.399C410.189 277.084 410.131 270.786 409.476 264.482C409.402 263.765 409.197 263.14 408.783 262.541C407.531 260.736 406.315 258.903 405.074 257.089C404.833 256.739 404.662 256.308 404.173 256.159C403.827 256.545 404.007 256.981 404.021 257.396C404.242 263.42 403.913 269.419 403.062 275.381C402.537 279.051 401.885 282.706 400.909 286.293C400.674 287.158 400.754 287.848 401.293 288.606C403.153 291.222 404.938 293.888 406.762 296.529C406.926 296.764 407.006 297.106 407.475 297.141L407.473 297.138ZM202.127 351.84C202.044 352.366 202.378 352.646 202.591 352.959C205.189 356.775 207.79 360.589 210.412 364.389C210.96 365.181 211.529 365.949 212.305 366.577C218.142 371.302 224.449 375.331 231.17 378.745C231.422 378.875 231.676 379.034 232.027 378.918C231.942 378.724 231.908 378.595 231.839 378.492C229.065 374.425 226.284 370.358 223.512 366.289C223.178 365.798 222.733 365.459 222.211 365.187C215.439 361.664 209.133 357.484 203.321 352.595C202.995 352.32 202.718 351.948 202.124 351.84H202.127ZM408.747 260.442C408.777 260.423 408.83 260.407 408.835 260.383C408.844 260.356 408.808 260.318 408.791 260.286C408.761 260.304 408.711 260.321 408.703 260.348C408.694 260.374 408.73 260.412 408.744 260.445L408.747 260.442ZM201.784 351.641L201.856 351.571L201.762 351.544L201.784 351.641Z" fill="#141212"/>
<path d="M172.583 301.883C172.265 301.694 172.298 301.349 172.232 301.069C169.952 291.574 169.1 281.958 169.711 272.22C170.129 265.531 171.159 258.939 172.878 252.455C176.164 240.041 181.512 228.525 188.786 217.858C196.569 206.447 206.095 196.629 217.236 188.29C223.471 183.625 230.076 179.526 237.085 176.06C254.684 167.357 273.325 162.6 293.08 162.153C298.992 162.018 304.884 162.358 310.757 163.067C328.724 165.234 345.273 171.12 360.136 181.226C379.247 194.219 392.281 211.586 398.977 233.406C400.948 239.828 402.128 246.393 402.711 253.066C402.75 253.5 402.738 253.937 402.75 254.374C402.617 254.395 402.484 254.411 402.354 254.438C395.478 255.851 388.605 257.263 381.729 258.675C381.555 258.343 381.64 257.985 381.629 257.643C381.491 253.007 381.007 248.409 380.098 243.857C377.575 231.239 372.349 219.812 364.146 209.732C352.881 195.89 338.256 186.994 320.947 182.132C314.2 180.237 307.288 179.302 300.288 178.997C287.992 178.464 275.981 180.075 264.28 183.765C242.808 190.535 224.977 202.525 210.805 219.629C201.806 230.49 195.284 242.631 191.412 256.117C188.482 266.316 187.349 276.667 188.112 287.227C188.38 290.935 189.013 294.59 189.654 298.247C184 299.611 178.293 300.753 172.585 301.885L172.583 301.883Z" fill="#FA4616"/>
<path d="M396.654 296.315C395.053 301.145 392.909 305.751 390.526 310.251C382.011 326.341 370.268 339.806 355.59 350.845C341.283 361.606 325.347 369.142 307.836 373.47C295.165 376.605 282.3 377.807 269.236 377.012C261.566 376.545 254.008 375.397 246.598 373.451C226.865 368.274 209.764 358.723 195.777 344.075C195.45 343.735 194.992 343.477 194.917 342.948C200.798 341.593 206.619 339.992 212.53 338.749C214.393 340.318 216.206 341.946 218.129 343.442C227.064 350.392 237.069 355.3 248.069 358.343C254.654 360.165 261.354 361.237 268.166 361.623C278.433 362.199 288.562 361.208 298.534 358.768C313.151 355.197 326.467 348.95 338.511 340.124C350.588 331.273 360.471 320.509 368.06 307.764C369.34 305.616 370.503 303.406 371.722 301.226C374.701 300.668 377.689 300.134 380.663 299.544C385.999 298.485 391.328 297.393 396.659 296.315H396.654ZM349.936 344.98C349.604 346.182 350.077 346.684 351.287 346.36C351.754 346.236 352.219 346.037 352.636 345.794C356.652 343.452 359.924 340.348 362.552 336.585C362.934 336.041 363.21 335.437 363.354 334.798C363.542 333.968 363.116 333.534 362.248 333.661C361.532 333.766 360.9 334.111 360.286 334.472C356.552 336.663 353.515 339.582 350.981 343.016C350.538 343.614 350.138 344.25 349.936 344.978V344.98ZM369.066 329.842C369.323 328.931 369.287 328.543 368.975 328.279C368.555 327.923 368.06 327.939 367.588 328.109C366.341 328.559 365.501 329.451 365.062 330.64C364.716 331.575 365.432 332.313 366.427 332.082C367.784 331.766 368.654 330.888 369.069 329.842H369.066Z" fill="#FA4616"/>
<path d="M396.659 296.316C391.328 297.394 385.999 298.485 380.663 299.544C377.689 300.135 374.704 300.668 371.722 301.226C371.808 300.981 371.869 300.722 371.985 300.488C373.665 297.068 375.124 293.561 376.39 289.974C379.165 282.105 380.909 274.027 381.456 265.718C381.611 263.374 381.644 261.021 381.732 258.673C388.608 257.261 395.482 255.849 402.358 254.437C402.488 254.41 402.62 254.394 402.753 254.372C403.121 257.318 403.087 260.277 403.027 263.231C402.855 271.672 401.606 279.973 399.356 288.123C398.591 290.891 397.809 293.664 396.659 296.318V296.316Z" fill="#F7EEED"/>
<path d="M212.532 338.746C206.623 339.989 200.803 341.59 194.919 342.945C194.375 342.827 194.206 342.317 193.896 341.972C183.812 330.712 176.808 317.848 172.862 303.403C172.726 302.907 172.464 302.424 172.588 301.88C178.295 300.748 184 299.605 189.657 298.242C189.767 298.616 189.9 298.986 189.989 299.366C193.515 314.256 200.734 327.157 211.855 337.957C212.104 338.196 212.43 338.38 212.529 338.746H212.532Z" fill="#F7EEED"/>
<path d="M319.742 385.803C319.183 385.682 319.04 385.28 318.821 384.962C316.748 381.952 314.684 378.939 312.619 375.923C312.271 375.413 311.942 374.893 311.58 374.395C311.218 373.896 311.345 373.637 311.934 373.465C313.733 372.937 315.532 372.403 317.318 371.826C325.462 369.198 333.262 365.819 340.724 361.687C343.766 360.003 346.699 358.159 349.625 356.297C350.637 355.653 350.645 355.653 351.267 356.559C353.508 359.825 355.75 363.094 357.983 366.366C358.66 367.358 358.646 367.363 357.621 368.061C346.444 375.669 334.342 381.423 321.325 385.361C320.772 385.528 320.209 385.671 319.739 385.8L319.742 385.803Z" fill="#8A0000"/>
<path d="M383.475 323.933C383.809 323.995 383.898 324.27 384.042 324.477C386.161 327.56 388.253 330.66 390.404 333.724C390.896 334.425 390.962 334.896 390.429 335.667C383.467 345.731 375.154 354.576 365.508 362.238C363.844 363.561 362.131 364.831 360.417 366.089C359.563 366.717 359.522 366.693 358.972 365.895C356.703 362.594 354.437 359.292 352.184 355.98C351.579 355.088 351.585 355.05 352.452 354.43C356.822 351.301 361.059 348.019 365.038 344.423C371.66 338.44 377.61 331.88 382.817 324.685C383.013 324.415 383.127 324.057 383.478 323.927L383.475 323.933Z" fill="#8A0000"/>
<path d="M318.242 386.031C318.001 386.351 317.769 386.373 317.556 386.43C305.534 389.685 293.283 391.149 280.813 390.893C279.964 390.876 279.116 390.755 278.27 390.774C277.704 390.788 277.372 390.604 277.065 390.151C274.448 386.292 271.811 382.446 269.183 378.595C269.111 378.487 269.07 378.36 268.965 378.142C270.095 377.94 271.187 378.139 272.259 378.18C282.908 378.59 293.429 377.635 303.835 375.42C305.625 375.04 307.405 374.604 309.188 374.186C309.627 374.083 310.011 373.951 310.351 374.453C312.963 378.312 315.597 382.155 318.239 386.028L318.242 386.031Z" fill="#8A0000"/>
<path d="M225.573 366.944C227.278 367.688 228.975 368.451 230.689 369.173C235.003 370.989 239.43 372.496 243.941 373.792C248.246 375.027 252.621 375.927 257.03 376.692C260.153 377.234 263.309 377.625 266.479 377.821C267.059 377.857 267.474 377.997 267.816 378.501C270.431 382.363 273.073 386.209 275.701 390.063C275.795 390.203 275.922 390.343 275.801 390.629C274.562 390.548 273.283 390.51 272.014 390.378C266.94 389.847 261.885 389.138 256.924 387.966C249.606 386.238 242.481 383.942 235.633 380.859C234.757 380.465 234.085 379.934 233.541 379.129C230.982 375.334 228.362 371.582 225.766 367.812C225.623 367.604 225.521 367.37 225.399 367.146C225.457 367.079 225.512 367.014 225.57 366.947L225.573 366.944Z" fill="#8A0000"/>
<path d="M400.315 289.177C400.738 289.49 401.031 289.964 401.343 290.425C403.023 292.899 404.679 295.389 406.392 297.842C406.884 298.548 407.006 299.187 406.793 300.03C404.571 308.792 401.235 317.133 396.91 325.105C395.467 327.766 393.942 330.377 392.27 332.908C392.126 333.126 391.955 333.326 391.767 333.571C391.233 333.231 390.962 332.719 390.65 332.266C388.624 329.337 386.634 326.38 384.598 323.459C384.172 322.85 384.407 322.432 384.741 321.928C386.444 319.368 388.107 316.786 389.619 314.11C392.69 308.682 395.365 303.081 397.487 297.233C398.397 294.726 399.306 292.22 399.978 289.638C400.019 289.482 400.011 289.285 400.315 289.177Z" fill="#8A0000"/>
<path d="M407.489 297.138C407.02 297.106 406.939 296.763 406.776 296.526C404.952 293.885 403.164 291.22 401.307 288.603C400.771 287.848 400.688 287.158 400.923 286.29C401.899 282.703 402.551 279.046 403.076 275.378C403.927 269.414 404.259 263.414 404.035 257.394C404.018 256.981 403.841 256.542 404.187 256.156C404.679 256.305 404.847 256.736 405.088 257.086C406.329 258.9 407.545 260.733 408.797 262.538C409.211 263.137 409.416 263.762 409.49 264.479C410.145 270.78 410.203 277.081 409.645 283.396C409.336 286.875 408.899 290.328 408.178 293.748C407.94 294.877 407.992 296.071 407.487 297.135L407.489 297.138Z" fill="#8A0000"/>
<path d="M400.295 233.524C400.975 234.249 401.212 235.201 401.646 236.05C405.325 243.216 407.29 250.892 408.694 258.732C408.763 259.125 409.014 259.572 408.591 259.982C408.047 259.783 407.815 259.279 407.527 258.866C406.394 257.247 405.316 255.586 404.18 253.969C403.802 253.433 403.705 252.856 403.655 252.247C403.227 246.892 402.246 241.629 400.93 236.416C400.69 235.457 400.151 234.554 400.317 233.511L400.295 233.524Z" fill="#8A0000"/>
<path d="M400.096 233.193C400.053 233.127 400.007 233.061 399.975 232.99C399.967 232.972 400.007 232.935 400.026 232.903C400.045 233.003 400.061 233.104 400.08 233.204L400.099 233.191L400.096 233.193Z" fill="#8A0000"/>
<path d="M207.503 362.323C207.618 362.344 207.75 362.341 207.769 362.499C207.769 362.499 207.681 362.526 207.668 362.513C207.613 362.451 207.572 362.379 207.525 362.309L207.503 362.323Z" fill="#8A0000"/>
<path d="M400.309 233.501C400.13 233.47 400.101 233.343 400.103 233.195L400.084 233.208C400.247 233.251 400.298 233.364 400.287 233.517L400.309 233.504V233.501Z" fill="#8A0000"/>
<path d="M188.564 337.381C188.522 337.342 188.481 337.303 188.438 337.263C188.463 337.271 188.503 337.271 188.511 337.287C188.53 337.318 188.532 337.357 188.54 337.394L188.562 337.381H188.564Z" fill="#8A0000"/>
<path d="M188.552 337.395C188.687 337.453 188.765 337.548 188.76 337.698L188.768 337.693C188.579 337.664 188.53 337.551 188.57 337.382L188.549 337.395H188.552Z" fill="#8A0000"/>
<path d="M188.756 337.703C188.901 337.746 188.984 337.842 189.003 337.986C188.951 338.016 188.899 338.045 188.847 338.075C188.726 337.968 188.666 337.85 188.764 337.698L188.756 337.703Z" fill="#8A0000"/>
<path d="M189.014 337.99C189.091 338.086 189.168 338.182 189.245 338.278C189.176 338.324 189.105 338.369 189.031 338.412C188.973 338.3 188.918 338.188 188.861 338.078C188.913 338.051 188.965 338.022 189.017 337.99H189.014Z" fill="#8A0000"/>
<path d="M201.78 351.634L201.759 351.539L201.851 351.566L201.78 351.634Z" fill="#8A0000"/>
<path d="M207.517 362.305C207.37 362.26 207.279 362.178 207.287 362.017C207.287 362.017 207.322 361.993 207.324 361.993C207.481 362.051 207.552 362.154 207.495 362.318L207.517 362.305Z" fill="#8A0000"/>
<path d="M212.535 338.75C212.436 338.386 212.107 338.202 211.861 337.96C200.74 327.161 193.521 314.259 189.994 299.369C189.903 298.989 189.773 298.62 189.663 298.245C189.022 294.588 188.389 290.933 188.121 287.225C187.358 276.665 188.491 266.314 191.42 256.115C195.292 242.629 201.815 230.488 210.813 219.627C224.986 202.524 242.817 190.533 264.288 183.763C275.99 180.074 288.001 178.459 300.297 178.995C307.297 179.3 314.209 180.235 320.955 182.13C338.264 186.992 352.887 195.888 364.155 209.73C372.357 219.81 377.584 231.24 380.107 243.855C381.016 248.407 381.5 253.005 381.638 257.641C381.649 257.983 381.563 258.342 381.737 258.673C381.649 261.023 381.613 263.373 381.461 265.718C380.914 274.027 379.173 282.104 376.395 289.974C375.129 293.561 373.67 297.067 371.99 300.487C371.877 300.722 371.813 300.978 371.727 301.226C370.509 303.406 369.345 305.619 368.065 307.764C360.476 320.509 350.593 331.273 338.516 340.124C326.472 348.95 313.159 355.198 298.539 358.769C288.567 361.205 278.438 362.2 268.171 361.623C261.356 361.24 254.657 360.165 248.074 358.343C237.074 355.3 227.072 350.392 218.134 343.442C216.211 341.946 214.398 340.318 212.535 338.75ZM218.657 342.445C218.845 342.628 219.013 342.835 219.221 342.994C227.393 349.295 236.513 353.839 246.44 356.847C252.661 358.731 259.037 359.879 265.532 360.418C275.741 361.264 285.837 360.539 295.819 358.356C310.207 355.208 323.387 349.398 335.412 341.089C345.588 334.057 354.316 325.598 361.582 315.717C362.828 314.019 364.124 312.346 365.089 310.462C365.459 310.13 365.667 309.694 365.921 309.284C372.252 299.172 376.672 288.333 378.971 276.687C379.681 273.089 380.245 269.47 380.372 265.796C381.074 256.97 380.303 248.262 378.076 239.686C373.889 223.567 365.36 210.056 352.337 199.298C343.502 191.999 333.478 186.833 322.362 183.653C316.177 181.885 309.881 180.947 303.444 180.712C296.248 180.451 289.272 181.623 282.388 183.534C274.962 185.593 267.737 188.17 260.776 191.425C241.994 200.206 226.052 212.442 213.458 228.679C202.174 243.225 194.834 259.43 192.189 277.571C190.97 285.923 190.923 294.273 192.064 302.63C192.164 303.363 192.23 304.107 192.592 304.781C192.684 305.118 192.755 305.46 192.866 305.791C196.492 316.798 202.296 326.562 210.391 335.02C212.953 337.696 215.65 340.237 218.66 342.442L218.657 342.445ZM189.784 293.106C189.898 293.106 190.014 293.106 190.127 293.106C190.146 292.386 190.185 291.664 190.182 290.944C190.141 285.39 190.638 279.873 191.611 274.412C192.23 270.933 193.026 267.483 194.035 264.077C195.055 260.635 196.188 257.237 197.556 253.919C201.624 244.066 207.033 234.954 213.751 226.591C220.522 218.161 228.327 210.757 237.063 204.267C245.155 198.26 253.935 193.398 263.086 189.134C265.234 188.132 267.281 186.981 269.246 185.677C269.733 185.353 270.164 184.973 270.498 184.502C270.932 183.89 270.755 183.537 269.973 183.496C269.255 183.461 268.55 183.593 267.854 183.779C265.001 184.539 262.202 185.458 259.432 186.469C248.994 190.272 239.398 195.546 230.568 202.162C224.082 207.022 218.226 212.517 212.98 218.638C208.169 224.249 204.001 230.283 200.477 236.738C196.785 243.502 193.922 250.593 191.943 258.007C191.108 261.131 190.461 264.298 189.967 267.499C188.977 273.911 188.668 280.342 189.132 286.804C189.284 288.909 189.566 291.006 189.787 293.106H189.784Z" fill="#141212"/>
<path d="M349.941 344.978C350.145 344.25 350.546 343.614 350.988 343.016C353.52 339.582 356.557 336.663 360.293 334.472C360.91 334.111 361.54 333.766 362.256 333.661C363.124 333.534 363.549 333.968 363.361 334.798C363.217 335.437 362.938 336.041 362.56 336.585C359.931 340.347 356.659 343.455 352.644 345.794C352.226 346.037 351.762 346.236 351.295 346.36C350.084 346.684 349.612 346.182 349.941 344.98V344.978Z" fill="#F7EEED"/>
<path d="M369.067 329.836C368.655 330.882 367.782 331.76 366.425 332.076C365.43 332.308 364.714 331.569 365.059 330.634C365.499 329.445 366.339 328.553 367.585 328.103C368.058 327.931 368.555 327.917 368.973 328.273C369.285 328.537 369.321 328.928 369.064 329.836H369.067Z" fill="#F7EEED"/>
<path d="M192.587 304.784C192.225 304.11 192.159 303.366 192.059 302.633C190.921 294.275 190.968 285.923 192.184 277.574C194.829 259.433 202.172 243.23 213.453 228.682C226.047 212.447 241.988 200.211 260.771 191.428C267.732 188.172 274.959 185.596 282.383 183.537C289.267 181.626 296.243 180.456 303.439 180.715C309.876 180.95 316.172 181.885 322.357 183.655C333.473 186.836 343.496 192.002 352.332 199.3C365.355 210.057 373.883 223.57 378.07 239.689C380.298 248.265 381.066 256.973 380.367 265.799C375.978 266.6 371.573 267.311 367.206 268.214C348.67 272.049 330.142 275.93 311.614 279.811C292.912 283.73 274.213 287.675 255.511 291.599C234.537 296 213.561 300.391 192.587 304.784ZM266.309 206.882C266.367 206.539 266.483 206.025 266.533 205.505C266.801 202.812 265.275 201.036 262.52 200.818C261.26 200.718 260.027 200.874 258.797 201.147C256.246 201.707 253.85 202.677 251.54 203.836C242.124 208.555 234.209 215.086 227.402 222.942C225.116 225.58 223.076 228.391 221.57 231.536C220.713 233.326 220.009 235.167 220.122 237.191C220.244 239.366 221.576 240.751 223.792 241.018C224.726 241.131 225.666 241.088 226.6 240.95C228.922 240.611 231.108 239.845 233.233 238.91C238.291 236.689 242.873 233.722 247.184 230.353C252.935 225.855 258.162 220.85 262.34 214.886C264.037 212.466 265.543 209.946 266.309 206.884V206.882ZM279.655 196.325C280.028 194.727 279.373 193.363 277.875 192.622C275.125 191.261 271.029 193.115 270.333 196.039C269.985 197.497 270.678 198.996 272.024 199.705C274.821 201.174 278.947 199.346 279.652 196.325H279.655Z" fill="#FA4616"/>
<path d="M192.595 304.782C213.571 300.386 234.545 295.999 255.519 291.597C274.221 287.673 292.917 283.728 311.622 279.809C330.15 275.928 348.678 272.045 367.214 268.212C371.58 267.309 375.986 266.595 380.374 265.797C380.247 269.471 379.684 273.09 378.973 276.688C376.671 288.334 372.255 299.173 365.923 309.285C365.669 309.692 365.459 310.132 365.091 310.463C360.291 311.495 355.485 312.514 350.687 313.562C338.167 316.295 325.65 319.044 313.134 321.78C301.051 324.421 288.968 327.057 276.885 329.695C264.191 332.468 251.497 335.244 238.806 338.023C232.091 339.495 225.375 340.971 218.659 342.446C215.649 340.241 212.952 337.7 210.39 335.023C202.298 326.566 196.491 316.802 192.865 305.795C192.758 305.464 192.683 305.121 192.592 304.785L192.595 304.782Z" fill="#F7EEED"/>
<path d="M218.648 342.439C225.364 340.965 232.08 339.488 238.795 338.017C251.486 335.238 264.18 332.462 276.874 329.689C288.957 327.048 301.039 324.415 313.122 321.773C325.642 319.035 338.156 316.289 350.676 313.556C355.473 312.508 360.277 311.489 365.08 310.457C364.116 312.338 362.819 314.014 361.573 315.71C354.307 325.592 345.582 334.052 335.403 341.081C323.376 349.39 310.198 355.201 295.811 358.349C285.828 360.532 275.732 361.257 265.523 360.41C259.028 359.871 252.653 358.723 246.431 356.839C236.504 353.834 227.384 349.288 219.212 342.987C219.004 342.828 218.836 342.62 218.648 342.437V342.439Z" fill="#FA4616"/>
<path d="M189.783 293.105C189.561 291.006 189.28 288.909 189.128 286.804C188.663 280.341 188.973 273.911 189.962 267.499C190.457 264.298 191.104 261.131 191.938 258.007C193.92 250.593 196.78 243.505 200.473 236.738C203.996 230.283 208.167 224.249 212.976 218.637C218.221 212.517 224.077 207.022 230.564 202.162C239.394 195.546 248.992 190.272 259.428 186.469C262.197 185.461 264.997 184.542 267.849 183.779C268.543 183.593 269.25 183.461 269.969 183.496C270.751 183.537 270.928 183.89 270.494 184.501C270.159 184.973 269.728 185.353 269.242 185.676C267.277 186.981 265.232 188.132 263.082 189.134C253.934 193.398 245.151 198.26 237.058 204.267C228.32 210.757 220.518 218.16 213.747 226.591C207.028 234.953 201.62 244.066 197.551 253.919C196.183 257.234 195.05 260.635 194.03 264.077C193.022 267.483 192.226 270.933 191.607 274.412C190.634 279.875 190.136 285.392 190.178 290.944C190.183 291.664 190.142 292.386 190.122 293.105C190.009 293.105 189.893 293.105 189.78 293.105H189.783Z" fill="#8A0000"/>
<path d="M266.312 206.879C265.549 209.941 264.04 212.463 262.343 214.881C258.164 220.845 252.938 225.85 247.187 230.348C242.876 233.719 238.293 236.687 233.236 238.905C231.111 239.837 228.924 240.605 226.603 240.945C225.669 241.082 224.729 241.123 223.795 241.012C221.579 240.746 220.246 239.36 220.125 237.185C220.011 235.161 220.716 233.323 221.573 231.531C223.079 228.386 225.116 225.575 227.404 222.936C234.209 215.083 242.127 208.55 251.543 203.831C253.856 202.672 256.249 201.702 258.8 201.141C260.03 200.872 261.263 200.713 262.523 200.812C265.278 201.031 266.804 202.807 266.536 205.499C266.483 206.019 266.367 206.534 266.312 206.876V206.879Z" fill="#F7EEED"/>
<path d="M279.657 196.318C278.952 199.339 274.826 201.167 272.029 199.698C270.68 198.989 269.989 197.491 270.337 196.032C271.034 193.108 275.13 191.254 277.88 192.615C279.378 193.356 280.033 194.72 279.659 196.318H279.657Z" fill="#F7EEED"/>
<path d="M205.6 360.635C206.96 362.026 207.692 362.678 207.797 362.595C207.869 362.538 207.645 362.134 207.126 361.387C206.617 361.137 206.109 360.886 205.6 360.635Z" fill="#8A0000"/>
<path d="M231.854 378.487C229.079 374.42 226.299 370.353 223.527 366.284C223.192 365.793 222.747 365.454 222.225 365.181C215.454 361.659 209.147 357.479 203.335 352.59C203.155 352.439 202.984 352.261 202.774 352.11C202.774 352.11 202.777 352.11 202.779 352.107C202.536 351.919 201.89 351.431 201.776 351.539C201.674 351.636 202.047 352.172 202.241 352.439C202.34 352.63 202.489 352.789 202.603 352.956C205.2 356.773 207.801 360.586 210.424 364.386C210.971 365.179 211.54 365.947 212.317 366.575C218.154 371.299 224.461 375.328 231.182 378.743C231.434 378.872 231.688 379.031 232.039 378.916C231.953 378.721 231.92 378.592 231.851 378.49L231.854 378.487Z" fill="#8A0000"/>
<path d="M207.14 361.381C205.155 358.481 203.223 355.541 201.167 352.69C199.271 350.059 197.718 347.173 195.231 344.968C194.673 344.472 194.189 343.89 193.694 343.33C192.257 341.707 190.831 340.077 189.399 338.449C188.825 337.621 188.507 337.222 188.449 337.257C188.382 337.295 188.639 337.877 189.223 339.001C189.223 338.996 189.225 338.99 189.228 338.988C189.25 339.042 189.264 339.101 189.294 339.152C190.474 341.303 191.538 343.513 192.929 345.553C196.823 351.28 201.311 356.519 206.338 361.325C206.62 361.594 206.863 361.928 207.292 362.012C207.292 362.012 207.328 361.988 207.33 361.988C207.386 361.753 207.27 361.565 207.145 361.384L207.14 361.381Z" fill="#8A0000"/>
<path d="M400.852 234.316C400.239 233.041 400.04 232.788 399.979 232.81C399.918 232.831 399.943 233.149 400.341 234.472C400.513 234.421 400.681 234.367 400.852 234.316Z" fill="#8A0000"/>
<path d="M400.727 234.105C400.274 233.089 400.011 232.595 399.939 232.62C399.865 232.647 399.992 233.213 400.315 234.318C400.453 234.248 400.591 234.178 400.73 234.105H400.727Z" fill="#8A0000"/>
<path d="M352.072 230.106H339.091C338.555 229.915 337.792 229.556 337.082 228.872C335.841 227.673 335.515 226.201 335.429 225.371V216.138C335.429 214.593 335.485 204.953 335.429 203.409C335.429 203.387 335.429 203.366 335.429 203.344C335.429 202.719 334.434 202.719 334.434 203.344V224.972C334.409 225.627 334.23 227.446 332.751 228.872C332.041 229.556 331.278 229.915 330.742 230.106H317.789C317.147 230.106 317.147 231.076 317.789 231.076H330.742C331.278 231.268 332.041 231.626 332.751 232.311C334.23 233.736 334.409 235.556 334.434 236.211V245.045C334.434 246.589 334.379 256.23 334.434 257.774C334.434 257.796 334.434 257.817 334.434 257.839C334.434 258.464 335.429 258.464 335.429 257.839V235.812C335.515 234.982 335.841 233.507 337.082 232.311C337.792 231.626 338.555 231.268 339.091 231.076H352.072C352.713 231.076 352.713 230.106 352.072 230.106Z" fill="#F7EEED"/>
<path d="M240.674 271.208H238.748C238.212 271.016 237.449 270.658 236.739 269.973C235.498 268.774 235.172 267.303 235.086 266.472V257.239C235.086 255.695 235.141 257.374 235.086 255.83C235.086 255.808 235.086 255.786 235.086 255.765C235.086 255.14 234.091 255.14 234.091 255.765C234.091 257.04 234.091 255.08 234.091 256.355V266.076C234.066 266.731 233.887 268.55 232.408 269.976C231.698 270.661 230.935 271.019 230.399 271.21H227.92C227.193 271.21 229.227 271.21 228.5 271.21C227.859 271.21 227.859 272.181 228.5 272.181H230.399C230.935 272.372 231.698 272.73 232.408 273.415C233.887 274.841 234.066 276.66 234.091 277.315V286.149C234.091 287.694 234.036 285.745 234.091 287.289C234.091 287.311 234.091 287.332 234.091 287.354C234.091 287.979 235.086 287.979 235.086 287.354C235.086 286.079 235.086 288.308 235.086 287.033V276.916C235.172 276.086 235.498 274.612 236.739 273.415C237.449 272.73 238.212 272.372 238.748 272.181H241.255C241.982 272.181 239.947 272.181 240.674 272.181C241.315 272.181 241.315 271.21 240.674 271.21V271.208Z" fill="#F7EEED"/>
</g>
<g clip-path="url(#clip1_432_1258)">
<path d="M45.6194 237.886C38.3665 236.08 31.9488 233.509 26.3454 229.177C22.6722 226.34 19.5638 223.011 17.2178 218.963C13.6174 212.748 9.89217 206.606 6.27093 200.402C2.50069 193.956 0.91358 186.911 0.771502 179.502C0.643286 172.838 1.66901 166.319 3.41553 159.907C7.14072 146.246 13.5654 133.845 21.2618 122.052C30.334 108.149 40.9863 95.5261 52.7545 83.8479C80.567 56.2527 112.261 34.2422 148.029 18.1453C163.169 11.3321 178.798 5.98606 195.133 2.8338C205.072 0.916836 215.093 -0.114309 225.229 0.383963C233.241 0.778427 241.066 2.11753 248.53 5.20751C257.27 8.82344 264.169 14.5328 268.875 22.7958C272.236 28.6955 275.57 34.609 279.014 40.4602C281.121 44.0381 282.452 47.8755 283.277 51.9066C284.562 58.18 284.472 64.488 283.543 70.7994C281.686 83.3981 276.956 94.9829 270.937 106.09C263.857 119.153 255.135 131.08 245.37 142.249C222.863 168 196.526 189.122 167.109 206.478C149.651 216.779 131.386 225.357 112.053 231.561C99.2519 235.668 86.2154 238.637 72.7701 239.606C65.1914 240.153 57.6405 240.014 50.1312 238.772C48.4714 238.499 46.8253 238.129 45.6125 237.89L45.6194 237.886ZM37.1814 103.028C35.6671 104.274 34.6275 105.934 33.4216 107.443C32.4617 108.647 31.3354 109.744 30.6944 111.184C30.2785 111.315 30.1261 111.713 29.9008 112.014C25.6038 117.765 21.5598 123.689 17.9351 129.886C11.2194 141.371 5.75114 153.36 3.2284 166.526C2.02941 172.793 1.65169 179.083 2.52148 185.419C3.58879 193.184 6.60707 200.073 11.9402 205.872C16.5594 210.9 22.3014 214.222 28.6602 216.53C35.8577 219.142 43.3427 220.187 50.9594 220.405C64.7721 220.803 78.2418 218.54 91.5208 214.973C110.764 209.803 128.936 201.997 146.418 192.526C164.386 182.793 181.272 171.44 197.105 158.526C213.243 145.364 228.057 130.883 240.976 114.523C242.743 112.284 244.607 110.114 246.07 107.651C248.17 105.111 249.961 102.357 251.725 99.585C252.498 98.4258 253.326 97.2978 254.029 96.1005C254.958 94.5192 256.112 93.0625 256.746 91.3116C257.204 90.9552 257.415 90.4292 257.692 89.9483C259.442 86.8929 261.092 83.7787 262.596 80.5953C264.727 76.0935 266.709 71.533 268.164 66.7613C269.582 62.7336 270.611 58.6091 271.332 54.398C272.34 48.5018 272.666 42.5952 271.827 36.6609C270.323 26.0311 265.437 17.3875 256.597 11.1279C251.781 7.71617 246.413 5.47394 240.716 3.98951C234.433 2.35283 228.026 1.69539 221.549 1.61234C211.677 1.49123 201.96 2.76459 192.333 4.83726C172.886 9.02067 154.485 16.1037 136.743 24.9654C114.544 36.0519 93.9846 49.654 74.8943 65.4811C72.6522 67.3392 70.3478 69.1316 68.3067 71.225C67.8008 71.3807 67.4751 71.7821 67.1008 72.1108C59.7405 78.6472 52.6713 85.4846 46.0145 92.7372C45.2244 93.5988 44.3165 94.3635 43.7239 95.3946C42.4383 96.5677 41.3536 97.9275 40.2343 99.2459C39.1878 100.478 37.9819 101.588 37.1918 103.024L37.1814 103.028ZM172.297 201.731C172.879 201.71 173.295 201.295 173.756 201.004C184.256 194.395 194.419 187.305 204.133 179.589C207.206 177.149 210.204 174.613 213.246 172.132C213.822 171.661 214.133 171.326 213.555 170.509C210.249 165.841 207.03 161.118 203.772 156.419C203.027 155.346 203.006 155.357 201.988 156.184C201.769 156.36 201.568 156.557 201.353 156.737C192.822 163.855 183.978 170.564 174.768 176.786C171.049 179.298 167.307 181.779 163.488 184.135C162.192 184.935 162.196 184.955 163.006 186.333C163.946 187.928 164.902 189.513 165.841 191.104C167.747 194.343 169.643 197.585 171.552 200.821C171.746 201.149 171.871 201.544 172.293 201.731H172.297ZM121.745 205.924C121.669 206.526 122.015 206.862 122.227 207.239C124.822 211.886 127.428 216.53 130.024 221.177C131.143 223.181 131.133 223.17 133.264 222.26C140.593 219.132 147.749 215.648 154.79 211.928C159.898 209.229 164.926 206.385 169.861 203.381C171.018 202.675 171.036 202.634 170.422 201.582C167.504 196.603 164.569 191.63 161.627 186.665C161.038 185.672 160.993 185.672 159.943 186.298C156.668 188.25 153.38 190.18 150.046 192.035C142.987 195.966 135.787 199.603 128.43 202.942C126.195 203.956 123.946 204.945 121.745 205.924ZM215.104 170.405C215.423 170.187 215.62 170.077 215.786 169.935C226.619 160.481 236.793 150.374 246.115 139.422C246.96 138.429 246.974 138.398 246.212 137.288C243.017 132.613 239.801 127.952 236.596 123.287C236.436 123.056 236.284 122.813 235.861 122.876C235.497 123.287 235.081 123.741 234.683 124.204C231.502 127.907 228.185 131.481 224.793 134.986C218.59 141.398 212.082 147.488 205.349 153.339C204.084 154.44 204.081 154.461 205.061 155.9C206.735 158.357 208.423 160.8 210.114 163.243C211.739 165.589 213.375 167.924 215.104 170.409V170.405ZM95.6237 234.745C95.9668 234.679 96.4103 234.613 96.8435 234.509C101.106 233.499 105.323 232.333 109.506 231.039C116 229.032 122.383 226.72 128.676 224.163C129.871 223.679 129.871 223.665 129.241 222.53C128.367 220.963 127.491 219.395 126.614 217.831C124.694 214.405 122.75 210.994 120.861 207.554C120.421 206.755 119.954 206.499 119.136 206.969C118.848 207.135 118.512 207.219 118.2 207.347C111.644 210.011 104.99 212.405 98.2123 214.433C94.7193 215.478 91.1846 216.388 87.6674 217.36C86.1357 217.783 86.1253 217.79 86.8808 219.236C87.3486 220.132 87.8614 221.001 88.3327 221.893C90.4327 225.855 92.5257 229.824 94.6292 233.786C94.8336 234.174 94.9965 234.62 95.6168 234.745H95.6237ZM247.754 137.108C248.482 136.807 248.745 136.284 249.088 135.862C253.607 130.287 257.921 124.557 261.878 118.571C264.259 114.973 266.543 111.315 268.653 107.55C268.989 106.952 269.256 106.457 268.764 105.723C265.614 101.018 262.523 96.2735 259.411 91.5469C259.234 91.2804 259.099 90.9206 258.611 91.0452C257.859 92.3185 257.11 93.6299 256.324 94.9206C250.848 103.879 244.666 112.326 237.93 120.377C237.022 121.464 237.004 121.481 237.791 122.644C239.614 125.336 241.454 128.018 243.297 130.696C244.756 132.817 246.233 134.928 247.75 137.111L247.754 137.108ZM55.6029 221.924C55.6757 222.215 55.6861 222.385 55.7554 222.527C58.1707 227.333 60.6276 232.118 62.9806 236.952C63.6113 238.25 64.4187 238.693 65.8498 238.665C73.0438 238.527 80.1685 237.786 87.2411 236.506C89.3792 236.118 91.5485 235.848 93.6034 235.167C93.6208 234.471 93.2673 234.014 93.0074 233.527C90.4847 228.776 87.9585 224.028 85.4357 219.277C84.7842 218.049 84.7877 218.049 83.3635 218.35C75.1264 220.108 66.8201 221.36 58.3925 221.706C57.5019 221.741 56.5975 221.623 55.5995 221.924H55.6029ZM271.079 62.0312C270.67 63.2873 270.268 64.3876 269.953 65.5157C268.944 69.1385 267.51 72.6022 266.078 76.0693C264.342 80.2631 262.294 84.3081 260.118 88.2839C259.706 89.0348 259.72 89.5573 260.18 90.2562C263.206 94.841 266.189 99.4535 269.201 104.045C269.856 105.045 270.036 105.024 270.614 103.945C272.278 100.834 273.827 97.668 275.22 94.4292C277.497 89.1213 279.447 83.7026 280.785 78.0728C280.962 77.3323 280.99 76.706 280.532 76.014C277.843 71.9482 275.202 67.8478 272.538 63.7648C272.177 63.2112 271.855 62.616 271.079 62.0347V62.0312ZM62.284 238.53C61.4316 236.821 60.69 235.319 59.9415 233.821C58.1638 230.26 56.3792 226.7 54.6049 223.136C54.1337 222.191 53.4302 221.738 52.3352 221.734C50.5436 221.727 48.7451 221.661 46.9605 221.523C41.014 221.066 35.1369 220.236 29.4919 218.184C29.2112 218.084 28.8959 217.859 28.5216 218.232C28.9097 219.499 29.686 220.61 30.282 221.796C32.0666 225.357 33.9136 228.883 35.7156 232.437C36.1176 233.226 36.6651 233.717 37.5279 234.046C39.9952 234.983 42.4833 235.838 45.0442 236.492C48.3154 237.326 51.6456 237.824 54.9931 238.174C57.3287 238.419 59.6747 238.665 62.2875 238.534L62.284 238.53ZM281.437 74.9655C281.981 73.2873 282.06 71.8894 282.272 70.5088C282.968 65.9586 283.11 61.3945 282.67 56.8097C282.622 56.308 282.559 55.8132 282.317 55.353C281.263 53.3634 280.057 51.481 278.321 50.007C277.555 49.353 276.741 48.744 275.698 48.5883C274.371 48.391 273.466 48.9447 273.297 50.2457C272.94 53.0208 272.389 55.7613 271.82 58.4949C271.612 59.4914 271.806 60.308 272.378 61.1592C274.277 63.9932 276.097 66.8824 277.961 69.7406C279.052 71.4119 280.172 73.0624 281.437 74.9586V74.9655ZM13.6659 209.966C18.2193 219.378 23.7811 227.817 33.8617 232.277C33.9829 231.852 33.8131 231.617 33.6849 231.371C31.4533 227.032 29.1939 222.706 27.0108 218.343C26.5499 217.426 25.9504 216.821 25.0217 216.443C21.2965 214.945 17.9351 212.834 14.7817 210.371C14.4906 210.142 14.2481 209.755 13.6624 209.962L13.6659 209.966ZM13.4926 209.551C13.4684 209.509 13.4545 209.44 13.4198 209.43C13.3852 209.416 13.3332 209.461 13.2882 209.478C13.3124 209.52 13.3263 209.589 13.3609 209.599C13.3956 209.613 13.4476 209.568 13.4926 209.551Z" fill="#141212"/>
<path d="M246.063 107.652C244.601 110.115 242.736 112.288 240.969 114.524C228.05 130.884 213.233 145.365 197.098 158.527C181.269 171.441 164.382 182.794 146.411 192.527C128.932 201.994 110.757 209.801 91.5141 214.974C78.235 218.541 64.7689 220.804 50.9527 220.406C43.336 220.188 35.8509 219.143 28.6535 216.531C22.2947 214.223 16.5527 210.898 11.9334 205.873C6.60035 200.074 3.58207 193.185 2.51476 185.42C1.64497 179.084 2.02269 172.79 3.22168 166.527C5.74096 153.358 11.2092 141.371 17.9284 129.887C21.5531 123.69 25.5971 117.766 29.8941 112.015C30.1193 111.714 30.2753 111.316 30.6876 111.184C38.4222 111.112 46.1567 111.039 53.8948 110.977C54.4873 110.973 55.1145 110.766 55.669 111.164C55.7868 111.911 55.1353 112.223 54.7646 112.662C50.4295 117.811 46.2607 123.091 42.4835 128.666C37.0257 136.721 32.2436 145.126 29.2495 154.448C27.9397 158.534 27.153 162.707 27.1219 166.998C27.0525 176.97 32.2678 184.122 41.735 187.212C46.7736 188.856 51.9507 189.244 57.1937 189.032C66.2312 188.676 74.9776 186.721 83.5854 184.074C98.2437 179.565 112.091 173.188 125.509 165.839C137.634 159.195 149.242 151.735 160.415 143.6C171.084 135.832 181.314 127.52 190.944 118.496C194.582 115.084 198.124 111.569 201.707 108.101C206.018 108.053 210.329 107.998 214.64 107.956C225.108 107.856 235.58 107.759 246.053 107.659L246.063 107.652Z" fill="#FA4616"/>
<path d="M68.2979 71.2222C70.339 69.1287 72.6434 67.3398 74.8854 65.4782C93.9758 49.6512 114.535 36.049 136.734 24.9625C154.476 16.1009 172.877 9.01435 192.324 4.8344C201.955 2.76519 211.671 1.48837 221.54 1.60948C228.017 1.68907 234.424 2.34997 240.707 3.98665C246.4 5.47108 251.768 7.71331 256.588 11.1251C265.428 17.3846 270.314 26.0282 271.818 36.658C272.657 42.5923 272.331 48.4989 271.323 54.3951C270.602 58.6062 269.569 62.7308 268.156 66.7585C267.764 66.7377 267.372 66.6893 266.984 66.6962C258.876 66.8311 250.77 66.9938 242.661 67.101C239.31 67.146 235.956 67.3294 232.605 67.1841C232.837 66.6754 233.056 66.1599 233.302 65.6547C235.696 60.755 237.744 55.7308 238.926 50.3882C239.875 46.0871 240.27 41.7515 239.446 37.3812C238.306 31.3501 235.107 26.7756 229.694 23.7929C225.837 21.6684 221.655 20.696 217.313 20.2877C211.463 19.7341 205.655 20.1736 199.882 21.1286C188.859 22.9521 178.307 26.3777 167.991 30.5819C147.296 39.011 128.144 50.1944 109.968 63.1079C106.361 65.672 102.809 68.319 99.2326 70.928C98.848 70.8831 98.4599 70.8 98.0752 70.8035C95.3411 70.8381 92.6104 70.8934 89.8763 70.9315C82.6824 71.0318 75.4884 71.1287 68.2944 71.2256L68.2979 71.2222Z" fill="#FA4616"/>
<path d="M172.3 201.732C171.877 201.545 171.752 201.147 171.558 200.822C169.649 197.586 167.753 194.344 165.847 191.105C164.908 189.51 163.952 187.925 163.013 186.334C162.202 184.957 162.198 184.936 163.494 184.137C167.317 181.78 171.056 179.303 174.774 176.787C183.985 170.566 192.825 163.853 201.36 156.739C201.575 156.559 201.775 156.365 201.994 156.185C203.013 155.358 203.033 155.348 203.778 156.42C207.036 161.119 210.255 165.846 213.561 170.51C214.14 171.327 213.828 171.662 213.253 172.133C210.213 174.614 207.213 177.15 204.139 179.59C194.422 187.306 184.258 194.393 173.762 201.005C173.301 201.296 172.882 201.711 172.303 201.732H172.3Z" fill="#8A0000"/>
<path d="M232.606 67.1841C235.96 67.3329 239.311 67.1461 242.665 67.1011C250.774 66.9938 258.879 66.8312 266.988 66.6962C267.38 66.6893 267.771 66.7378 268.159 66.7585C266.708 71.5302 264.722 76.0907 262.591 80.5925C261.083 83.7759 259.437 86.8901 257.687 89.9454C257.41 90.4264 257.199 90.9524 256.741 91.3088C253.044 91.333 249.346 91.3468 245.649 91.3883C235.842 91.5025 226.035 91.6271 216.229 91.7517C216.547 91.2949 216.845 90.8174 217.188 90.3814C220.352 86.3779 223.339 82.2499 226.16 78.0008C228.485 74.499 230.499 70.8139 232.606 67.1841Z" fill="#F7EEED"/>
<path d="M121.753 205.926C123.953 204.943 126.202 203.957 128.438 202.943C135.794 199.604 142.999 195.967 150.054 192.036C153.388 190.178 156.676 188.251 159.951 186.299C161.001 185.673 161.046 185.676 161.635 186.666C164.581 191.631 167.512 196.604 170.43 201.583C171.047 202.635 171.03 202.676 169.869 203.382C164.931 206.386 159.902 209.23 154.798 211.929C147.757 215.649 140.601 219.137 133.272 222.261C131.14 223.171 131.151 223.178 130.032 221.178C127.433 216.531 124.827 211.891 122.235 207.24C122.023 206.863 121.677 206.528 121.753 205.926Z" fill="#8A0000"/>
<path d="M215.097 170.401C213.368 167.917 211.732 165.581 210.107 163.235C208.416 160.792 206.729 158.349 205.055 155.892C204.074 154.453 204.078 154.429 205.342 153.332C212.076 147.481 218.587 141.394 224.786 134.979C228.179 131.47 231.495 127.899 234.676 124.197C235.075 123.73 235.491 123.276 235.854 122.868C236.277 122.809 236.43 123.051 236.589 123.28C239.798 127.944 243.01 132.609 246.205 137.28C246.964 138.391 246.954 138.422 246.108 139.415C236.787 150.366 226.616 160.474 215.78 169.927C215.614 170.072 215.416 170.18 215.097 170.398V170.401Z" fill="#8A0000"/>
<path d="M68.3055 71.2235C75.4995 71.1266 82.6934 71.0298 89.8874 70.9294C92.6215 70.8913 95.3522 70.8325 98.0863 70.8014C98.4709 70.7979 98.8591 70.881 99.2437 70.9259C97.0606 72.6734 94.874 74.4173 92.6943 76.1716C85.2681 82.1371 78.1851 88.4866 71.2995 95.0575C62.1061 95.1717 52.9161 95.2824 43.7227 95.3966C44.3152 94.3655 45.2231 93.6008 46.0132 92.7392C52.6701 85.4865 59.7393 78.6492 67.0996 72.1128C67.4704 71.7841 67.7996 71.3827 68.3055 71.227V71.2235Z" fill="#F7EEED"/>
<path d="M95.619 234.748C94.9987 234.623 94.8359 234.177 94.6314 233.789C92.528 229.828 90.4384 225.859 88.335 221.897C87.8637 221.004 87.3508 220.132 86.883 219.239C86.1276 217.796 86.138 217.789 87.6696 217.364C91.1869 216.391 94.7215 215.481 98.2145 214.436C104.993 212.405 111.646 210.014 118.202 207.35C118.514 207.222 118.85 207.139 119.138 206.973C119.952 206.502 120.424 206.758 120.864 207.558C122.752 211 124.693 214.412 126.616 217.834C127.493 219.398 128.373 220.966 129.243 222.533C129.874 223.668 129.874 223.682 128.678 224.167C122.385 226.724 116.002 229.035 109.508 231.042C105.325 232.336 101.105 233.502 96.8457 234.513C96.4126 234.616 95.969 234.682 95.626 234.748H95.619Z" fill="#8A0000"/>
<path d="M247.762 137.106C246.244 134.923 244.768 132.812 243.309 130.691C241.466 128.013 239.626 125.331 237.803 122.639C237.016 121.476 237.034 121.459 237.941 120.373C244.675 112.321 250.86 103.874 256.335 94.9158C257.122 93.6286 257.87 92.3171 258.622 91.0403C259.111 90.9157 259.246 91.2756 259.423 91.542C262.538 96.2722 265.626 101.016 268.776 105.719C269.268 106.452 269.001 106.943 268.665 107.546C266.554 111.31 264.271 114.968 261.89 118.566C257.933 124.556 253.618 130.283 249.1 135.857C248.757 136.279 248.493 136.802 247.766 137.103L247.762 137.106Z" fill="#8A0000"/>
<path d="M55.5977 221.922C56.5957 221.621 57.5001 221.738 58.3907 221.704C66.8183 221.361 75.1246 220.105 83.3616 218.347C84.7859 218.043 84.7789 218.043 85.4339 219.275C87.9566 224.026 90.4863 228.773 93.0056 233.524C93.2655 234.012 93.6155 234.469 93.6016 235.164C91.5467 235.846 89.3739 236.116 87.2393 236.503C80.1666 237.787 73.042 238.524 65.848 238.662C64.4203 238.69 63.6094 238.247 62.9787 236.949C60.6258 232.116 58.1654 227.33 55.7536 222.524C55.6843 222.382 55.6704 222.209 55.6011 221.922H55.5977Z" fill="#8A0000"/>
<path d="M271.091 62.0325C271.867 62.6138 272.19 63.2055 272.55 63.7626C275.215 67.8457 277.855 71.946 280.544 76.0118C281.002 76.7038 280.971 77.3301 280.797 78.0706C279.463 83.7004 277.509 89.1191 275.232 94.4271C273.843 97.6693 272.294 100.835 270.627 103.943C270.048 105.026 269.868 105.043 269.213 104.043C266.198 99.4513 263.218 94.8388 260.193 90.2541C259.732 89.5551 259.718 89.0326 260.13 88.2817C262.31 84.3059 264.358 80.2609 266.091 76.0672C267.525 72.6 268.957 69.1363 269.965 65.5135C270.28 64.3889 270.682 63.2851 271.091 62.0291V62.0325Z" fill="#8A0000"/>
<path d="M62.2849 238.53C59.6721 238.658 57.3261 238.412 54.9905 238.17C51.643 237.82 48.3128 237.322 45.0416 236.488C42.4807 235.834 39.9927 234.983 37.5254 234.042C36.6625 233.713 36.115 233.225 35.713 232.433C33.9111 228.882 32.064 225.353 30.2794 221.792C29.6834 220.606 28.9072 219.495 28.519 218.228C28.8933 217.855 29.2086 218.08 29.4893 218.18C35.1343 220.232 41.0115 221.062 46.9579 221.519C48.746 221.657 50.541 221.723 52.3326 221.73C53.4276 221.734 54.1345 222.187 54.6024 223.132C56.3766 226.696 58.1612 230.256 59.9389 233.817C60.6874 235.315 61.429 236.813 62.2815 238.526L62.2849 238.53Z" fill="#8A0000"/>
<path d="M246.065 107.656C235.593 107.752 225.124 107.849 214.652 107.953C210.341 107.995 206.031 108.05 201.72 108.099C204.19 105.303 206.72 102.562 209.343 99.9047C209.51 99.9324 209.673 99.9843 209.839 99.9809C219.892 99.8736 229.945 99.7559 240.001 99.6521C243.91 99.6141 247.819 99.6071 251.727 99.5898C249.96 102.361 248.169 105.116 246.072 107.656H246.065Z" fill="#F7EEED"/>
<path d="M251.716 99.5883C247.807 99.6091 243.898 99.6125 239.989 99.6506C229.936 99.751 219.883 99.8721 209.827 99.9793C209.664 99.9793 209.498 99.9309 209.332 99.9032C211.629 97.1869 213.923 94.4707 216.221 91.7578C226.027 91.6367 235.834 91.5087 245.641 91.3945C249.338 91.353 253.036 91.3392 256.733 91.3149C256.099 93.0658 254.949 94.5226 254.017 96.1039C253.31 97.3011 252.485 98.4292 251.712 99.5883H251.716Z" fill="#FA4616"/>
<path d="M55.6757 111.16C55.1212 110.762 54.494 110.966 53.9015 110.973C46.1669 111.035 38.4324 111.108 30.6943 111.18C31.3354 109.741 32.4616 108.644 33.4215 107.44C34.6275 105.931 35.6636 104.274 37.1814 103.025C37.6838 103.049 38.1863 103.104 38.6853 103.097C44.5971 103.031 50.5089 102.917 56.4207 102.91C58.7529 102.91 61.0954 102.62 63.4276 102.997C60.988 105.661 58.5519 108.326 56.1123 110.99C55.9321 110.99 55.6688 110.81 55.6757 111.198V111.16Z" fill="#F7EEED"/>
<path d="M63.4386 102.999C61.1099 102.622 58.7673 102.909 56.4317 102.912C50.5199 102.919 44.6081 103.037 38.6963 103.099C38.1939 103.106 37.6949 103.051 37.1924 103.026C37.9859 101.591 39.1884 100.48 40.2349 99.2479C41.3542 97.9261 42.4388 96.5697 43.7245 95.3967C52.9179 95.2825 62.1079 95.1718 71.2979 95.0576C68.6781 97.7047 66.0583 100.352 63.4386 102.999Z" fill="#FA4616"/>
<path d="M281.44 74.9678C280.176 73.0716 279.056 71.4211 277.965 69.7498C276.1 66.8916 274.281 64.0023 272.382 61.1684C271.81 60.3138 271.62 59.5006 271.824 58.5041C272.393 55.767 272.944 53.03 273.3 50.2549C273.467 48.9539 274.375 48.4002 275.702 48.5975C276.745 48.7532 277.559 49.3622 278.325 50.0161C280.061 51.4902 281.264 53.3726 282.321 55.3622C282.563 55.8224 282.626 56.3172 282.674 56.8189C283.114 61.4003 282.972 65.9643 282.276 70.5179C282.064 71.8951 281.984 73.2965 281.44 74.9747V74.9678Z" fill="#8A0000"/>
<path d="M13.6587 209.963C14.2443 209.755 14.4869 210.143 14.778 210.371C17.9314 212.835 21.2927 214.946 25.0179 216.444C25.9466 216.818 26.5461 217.423 27.007 218.344C29.1902 222.707 31.4495 227.032 33.6812 231.371C33.8059 231.614 33.9757 231.852 33.8579 232.278C23.7774 227.818 18.2156 219.378 13.6622 209.966L13.6587 209.963Z" fill="#8A0000"/>
<path d="M13.4984 209.553C13.4536 209.57 13.402 209.615 13.3676 209.601C13.3332 209.587 13.3195 209.522 13.2954 209.481C13.3401 209.463 13.3952 209.419 13.4261 209.433C13.4605 209.446 13.4743 209.512 13.4984 209.553Z" fill="#8A0000"/>
<path d="M63.4212 103.001C66.0409 100.354 68.6607 97.7068 71.2805 95.0598C78.1695 88.4888 85.2526 82.1358 92.6787 76.1739C94.8584 74.423 97.045 72.6791 99.2281 70.9282C102.804 68.3192 106.356 65.6721 109.964 63.1081C128.139 50.1946 147.292 39.0111 167.987 30.582C178.303 26.3813 188.855 22.9523 199.878 21.1287C205.651 20.1737 211.459 19.7377 217.308 20.2879C221.65 20.6962 225.833 21.6685 229.69 23.7931C235.103 26.7758 238.301 31.3502 239.441 37.3814C240.266 41.7516 239.871 46.0873 238.921 50.3883C237.74 55.7309 235.692 60.7551 233.297 65.6548C233.051 66.1566 232.833 66.6721 232.601 67.1842C230.494 70.814 228.48 74.5026 226.155 78.0009C223.334 82.25 220.347 86.3781 217.183 90.3815C216.837 90.8175 216.542 91.295 216.224 91.7518C213.926 94.4681 211.632 97.1843 209.335 99.8971C206.715 102.555 204.185 105.295 201.711 108.091C198.124 111.558 194.586 115.077 190.948 118.485C181.318 127.513 171.088 135.821 160.418 143.589C149.246 151.724 137.638 159.185 125.512 165.828C112.095 173.181 98.2474 179.555 83.5892 184.064C74.9814 186.711 66.235 188.666 57.1975 189.022C51.951 189.23 46.7773 188.846 41.7388 187.202C32.2716 184.112 27.0598 176.96 27.1256 166.987C27.1533 162.697 27.94 158.524 29.2533 154.437C32.2473 145.115 37.0294 136.71 42.4873 128.655C46.2645 123.081 50.4298 117.8 54.7683 112.652C55.1391 112.212 55.7906 111.901 55.6728 111.153V111.191C55.9534 111.406 56.0089 111.15 56.1094 110.984C58.549 108.319 60.9851 105.655 63.4246 102.991L63.4212 103.001ZM64.9286 103.42C62.3712 105.935 59.9836 108.603 57.6722 111.34C55.5376 113.565 53.6594 116.008 51.7292 118.402C46.1952 125.261 41.1532 132.461 36.9255 140.202C34.427 144.776 32.0394 149.409 31.1176 154.627C30.6776 157.122 30.3726 159.614 30.9097 162.126C31.0726 162.894 31.2909 163.745 32.1503 163.991C33.0201 164.243 33.6196 163.589 34.181 163.039C34.7008 162.531 35.1755 161.977 35.4701 161.292C35.7785 160.572 36.1007 159.859 36.423 159.143C41.7388 147.389 48.6763 136.631 56.5911 126.482C59.3494 122.949 62.236 119.517 65.0637 116.039C67.5726 113.295 70.0815 110.548 72.5904 107.804C75.2898 105.087 77.9928 102.375 80.6922 99.6584C88.2778 92.3781 96.1544 85.4334 104.391 78.8902C105.961 77.641 107.652 76.5372 109.07 75.0978C109.621 74.9213 110.033 74.5303 110.473 74.1912C116.264 69.7483 122.241 65.5718 128.354 61.5925C135.129 57.1842 142.052 53.0146 149.163 49.1634C155.976 45.4748 162.924 42.0561 170.038 38.9869C179.28 35.0042 188.733 31.6305 198.505 29.191C206.036 27.3121 213.666 26.0526 221.439 25.7793C224.343 25.6789 227.24 25.8485 230.171 25.9557C230.064 25.5682 229.828 25.4125 229.586 25.2741C227.08 23.8485 224.405 22.8242 221.588 22.2706C217.111 21.3917 212.578 21.2049 208.025 21.5163C198.263 22.1876 188.865 24.544 179.63 27.627C170.943 30.5301 162.536 34.1149 154.295 38.1184C145.954 42.1703 137.845 46.634 129.941 51.4575C123.284 55.5198 116.717 59.7344 110.397 64.3123C107.264 66.5787 104.069 68.7656 101.106 71.2604C100.687 71.5372 100.243 71.7829 99.8484 72.0908C91.7327 78.3711 83.8768 84.9525 76.3987 91.9802C75.0576 93.2397 73.5953 94.3919 72.4795 95.8833C69.7904 98.2189 67.3543 100.814 64.9216 103.409L64.9286 103.42ZM82.3764 100.053C82.1615 100.008 82.0749 100.126 82.0437 100.312C79.3304 102.78 76.7452 105.378 74.2987 108.112C72.1711 110.001 70.3656 112.198 68.4528 114.288C67.8983 114.894 67.2122 115.416 66.9211 116.236C65.386 117.558 64.2043 119.195 62.9152 120.735C54.0753 131.299 46.1501 142.479 39.9542 154.818C36.4473 161.807 33.6473 169.053 31.9666 176.714C31.6548 178.14 31.9528 179.153 32.9092 180.209C36.3918 184.046 40.8759 185.932 45.814 186.918C50.4124 187.839 55.0629 187.894 59.7237 187.541C67.9954 186.911 76.0175 185.053 83.915 182.6C99.592 177.731 114.34 170.766 128.579 162.69C147.184 152.133 164.566 139.828 180.794 125.904C184.88 122.399 188.938 118.859 192.729 115.032C195.491 112.382 198.284 109.762 200.855 106.925C203.572 104.357 206.063 101.582 208.461 98.7207C212.9 93.8867 216.972 88.7552 220.808 83.4369C222.971 80.4403 225.143 77.4507 226.911 74.1946C227.025 74.0735 227.164 73.9697 227.247 73.8348C231.131 67.4472 234.472 60.8001 236.683 53.634C237.847 49.8658 238.53 46.0042 238.519 42.0527C238.509 37.6997 237.566 33.6201 234.954 30.0111C233.768 28.371 232.445 27.1772 230.258 27.3606C229.707 27.4056 229.142 27.2637 228.584 27.2256C219.141 26.6132 209.889 27.8969 200.727 30.0319C188.82 32.8104 177.412 37.025 166.306 42.0804C148.927 49.9869 132.627 59.7413 117.154 70.897C114.884 72.5337 112.549 74.0943 110.459 75.9732C109.95 76.1012 109.586 76.4611 109.187 76.7656C100.16 83.6929 91.5213 91.077 83.3085 98.949C82.9551 99.2881 82.4838 99.5407 82.3417 100.07L82.3729 100.049L82.3764 100.053Z" fill="#141212"/>
<path d="M56.1023 110.988C56.0061 111.153 55.9511 111.41 55.6692 111.194C55.6589 110.806 55.9236 110.985 56.1023 110.988Z" fill="#FA4616"/>
<path d="M192.728 115.034C188.937 118.861 184.879 122.401 180.794 125.906C164.566 139.834 147.184 152.138 128.579 162.692C114.34 170.771 99.5913 177.737 83.9143 182.602C76.0169 185.055 67.9947 186.913 59.723 187.543C55.0622 187.896 50.4118 187.841 45.8133 186.92C40.8718 185.931 36.3912 184.048 32.9085 180.211C31.9521 179.159 31.6541 178.142 31.966 176.716C33.6467 169.052 36.4466 161.809 39.9535 154.82C46.146 142.481 54.0746 131.297 62.9146 120.737C64.2037 119.197 65.3853 117.56 66.9205 116.238C67.3675 116.259 67.8145 116.304 68.2615 116.301C76.0446 116.224 83.8277 116.148 91.6107 116.062C119.721 115.761 147.828 115.453 175.939 115.155C181.535 115.096 187.132 115.072 192.728 115.034Z" fill="#FA4616"/>
<path d="M110.471 75.9746C112.56 74.0957 114.892 72.5386 117.166 70.8985C132.638 59.7427 148.939 49.9884 166.317 42.0818C177.424 37.0264 188.832 32.8119 200.738 30.0333C209.901 27.8949 219.153 26.6146 228.596 27.2271C229.154 27.2617 229.719 27.407 230.27 27.362C232.456 27.1786 233.78 28.3724 234.965 30.0125C237.578 33.625 238.52 37.7046 238.531 42.0541C238.538 46.0057 237.855 49.8673 236.694 53.6355C234.483 60.8016 231.143 67.4486 227.258 73.8362C227.175 73.9746 227.033 74.0784 226.922 74.1961C226.7 74.1788 226.479 74.1476 226.257 74.1511C219.032 74.2687 211.806 74.3968 204.578 74.5109C178.193 74.9366 151.812 75.3656 125.427 75.7843C120.44 75.8639 115.457 75.9089 110.471 75.9712V75.9746ZM171.276 49.4521C171.564 49.4659 172.066 49.5143 172.569 49.5074C174.374 49.4867 176.142 49.151 177.892 48.7462C184.926 47.1164 191.656 44.6389 198.132 41.4624C199.796 40.6458 201.411 39.7323 202.911 38.6319C203.59 38.1337 204.269 37.6146 204.72 36.8915C205.278 35.9918 204.997 35.234 203.996 34.933C203.625 34.8222 203.223 34.8084 202.831 34.7876C201.137 34.7011 199.47 34.9261 197.817 35.2582C193.122 36.1994 188.599 37.7081 184.146 39.4416C180.324 40.933 176.571 42.5801 173.082 44.7635C172.032 45.4209 170.999 46.1095 170.23 47.0991C169.332 48.2548 169.637 49.0541 171.273 49.4486L171.276 49.4521ZM218.418 31.4658C216.117 31.1544 213.598 31.4278 211.19 32.5281C210.84 32.6873 210.497 32.9122 210.216 33.1717C209.474 33.8534 209.526 34.5074 210.316 35.1267C210.68 35.4105 211.096 35.5835 211.543 35.6354C214.149 35.9295 216.686 35.6804 219.077 34.5454C219.825 34.1925 220.705 33.7703 220.549 32.753C220.404 31.8119 219.482 31.7323 218.422 31.4658H218.418Z" fill="#FA4616"/>
<path d="M110.479 75.9695C115.466 75.9072 120.449 75.8622 125.435 75.7826C151.82 75.3639 178.202 74.9349 204.586 74.5093C211.812 74.3916 219.037 74.2671 226.265 74.1494C226.487 74.146 226.709 74.1806 226.931 74.1944C225.163 77.4505 222.991 80.4435 220.828 83.4366C216.992 88.755 212.92 93.8865 208.481 98.7204C208.204 98.6997 207.923 98.6616 207.646 98.6651C185.631 98.9557 163.62 99.2498 141.605 99.5405C122.334 99.7965 103.067 100.053 83.7964 100.295C83.3182 100.302 82.7915 100.451 82.3652 100.07C82.5073 99.544 82.9786 99.2879 83.3321 98.9488C91.5483 91.0768 100.184 83.6927 109.211 76.7653C109.609 76.4608 109.973 76.0975 110.483 75.9729L110.479 75.9695Z" fill="#F7EEED"/>
<path d="M192.748 115.029C187.152 115.071 181.555 115.091 175.959 115.15C147.848 115.448 119.741 115.756 91.6307 116.057C83.8476 116.14 76.0646 116.219 68.2815 116.296C67.8345 116.299 67.3875 116.258 66.9404 116.233C67.228 115.413 67.9176 114.891 68.4721 114.285C70.3849 112.192 72.1904 109.998 74.3181 108.109C74.4844 108.136 74.6473 108.192 74.8136 108.192C92.3515 108.005 109.893 107.811 127.431 107.624C148.67 107.396 169.905 107.174 191.144 106.956C194.387 106.922 197.634 106.932 200.878 106.925C198.303 109.763 195.51 112.382 192.752 115.033L192.748 115.029Z" fill="#F7EEED"/>
<path d="M200.859 106.926C197.616 106.936 194.369 106.926 191.125 106.957C169.886 107.175 148.651 107.4 127.412 107.625C109.874 107.812 92.3327 108.005 74.7949 108.192C74.6285 108.192 74.4657 108.137 74.2993 108.109C76.7424 105.376 79.3275 102.777 82.0408 100.31C82.1794 100.258 82.4532 100.376 82.3735 100.05L82.3423 100.071C82.7685 100.452 83.2952 100.303 83.7735 100.296C103.044 100.05 122.311 99.7977 141.582 99.5417C163.597 99.251 185.608 98.9569 207.623 98.6662C207.9 98.6628 208.181 98.7043 208.458 98.7216C206.06 101.583 203.569 104.358 200.852 106.926H200.859Z" fill="#FA4616"/>
<path d="M101.122 71.2733C104.081 68.7785 107.279 66.5916 110.412 64.3252C116.733 59.7473 123.3 55.5328 129.956 51.4705C137.861 46.6469 145.97 42.1833 154.31 38.1313C162.551 34.1279 170.954 30.5431 179.645 27.64C188.88 24.5569 198.278 22.197 208.04 21.5292C212.597 21.2178 217.129 21.4047 221.603 22.2835C224.42 22.8372 227.096 23.8614 229.601 25.287C229.84 25.4254 230.079 25.5811 230.187 25.9687C227.255 25.8614 224.358 25.6919 221.454 25.7922C213.678 26.0621 206.047 27.3251 198.521 29.204C188.749 31.6434 179.295 35.0137 170.053 38.9999C162.936 42.0691 155.991 45.4878 149.178 49.1764C142.068 53.0276 135.144 57.1937 128.369 61.6055C122.253 65.5847 116.275 69.7647 110.488 74.2041C110.048 74.5432 109.632 74.9342 109.085 75.1072C106.434 73.8304 103.779 72.5536 101.129 71.2768L101.122 71.2733Z" fill="#8A0000"/>
<path d="M65.079 116.046C62.2513 119.523 59.3612 122.956 56.6063 126.489C48.6881 136.638 41.7506 147.395 36.4383 159.15C36.116 159.863 35.7937 160.579 35.4853 161.299C35.1908 161.984 34.7126 162.537 34.1962 163.046C33.6383 163.593 33.0354 164.247 32.1656 163.998C31.3096 163.748 31.0913 162.901 30.925 162.133C30.3879 159.62 30.6928 157.129 31.1329 154.634C32.0512 149.413 34.4423 144.783 36.9408 140.209C41.165 132.465 46.207 125.267 51.7445 118.409C53.6782 116.015 55.5564 113.572 57.691 111.347C57.6043 111.997 58.1207 112.202 58.5434 112.437C60.7196 113.651 62.9028 114.849 65.0859 116.049L65.079 116.046Z" fill="#8A0000"/>
<path d="M101.118 71.2673C103.769 72.5442 106.423 73.821 109.074 75.0978C107.657 76.5338 105.969 77.6411 104.396 78.8902C96.1588 85.43 88.2821 92.3781 80.6966 99.6584C79.9342 99.5096 79.2446 99.2155 78.5377 98.8833C76.5036 97.9179 74.6566 96.5788 72.4873 95.8902C73.6031 94.3989 75.0655 93.2501 76.4066 91.9906C83.8847 84.9629 91.7405 78.3815 99.8562 72.1012C100.251 71.7933 100.695 71.5476 101.114 71.2708L101.118 71.2673Z" fill="#FA4616"/>
<path d="M65.0711 116.042C62.8879 114.838 60.7048 113.644 58.5286 112.43C58.1058 112.195 57.5895 111.99 57.6761 111.34C59.984 108.599 62.3751 105.932 64.929 103.419C67.379 104.523 69.6453 105.973 72.0155 107.226C72.272 107.361 72.4729 107.541 72.5942 107.807C70.0854 110.551 67.5765 113.298 65.0676 116.042H65.0711Z" fill="#FA4616"/>
<path d="M72.612 107.808C72.4907 107.542 72.2932 107.362 72.0333 107.227C69.663 105.974 67.4002 104.524 64.9468 103.421C67.3794 100.825 69.8155 98.2336 72.5046 95.8945C74.6704 96.5831 76.5209 97.9222 78.5515 98.8876C79.2585 99.2233 79.9515 99.5174 80.7104 99.6627C78.011 102.379 75.308 105.092 72.6086 107.808H72.612Z" fill="#8A0000"/>
<path d="M82.3827 100.049C82.4607 100.371 82.1928 100.256 82.0571 100.303C82.0877 100.121 82.1724 100.005 82.3827 100.049Z" fill="#F7EEED"/>
<path d="M171.277 49.4518C169.638 49.0608 169.337 48.258 170.234 47.1023C171.003 46.1127 172.036 45.4206 173.086 44.7666C176.576 42.5832 180.329 40.9362 184.151 39.4448C188.6 37.7113 193.126 36.2026 197.821 35.2614C199.474 34.9292 201.145 34.7043 202.836 34.7908C203.227 34.8116 203.629 34.8254 204 34.9362C204.998 35.2337 205.282 35.995 204.724 36.8946C204.274 37.6213 203.598 38.1369 202.915 38.6351C201.415 39.7355 199.8 40.649 198.137 41.4656C191.66 44.6421 184.93 47.1196 177.896 48.7494C176.146 49.1542 174.379 49.4898 172.573 49.5106C172.071 49.5175 171.568 49.4691 171.281 49.4552L171.277 49.4518Z" fill="#F7EEED"/>
<path d="M218.43 31.4656C219.49 31.732 220.416 31.8116 220.558 32.7528C220.714 33.7736 219.834 34.1923 219.085 34.5452C216.694 35.6802 214.157 35.9293 211.551 35.6352C211.104 35.5833 210.689 35.4137 210.325 35.1265C209.535 34.5071 209.483 33.8532 210.224 33.1715C210.508 32.912 210.848 32.6871 211.198 32.5279C213.603 31.4275 216.126 31.1542 218.427 31.4656H218.43Z" fill="#F7EEED"/>
<path d="M102.195 146.011H96.3141C95.6418 145.765 94.6854 145.305 93.7948 144.426C92.2389 142.886 91.83 140.997 91.7226 139.931V128.077C91.7226 126.094 91.7919 124.097 91.7226 122.115C91.7226 122.087 91.7226 122.059 91.7226 122.032C91.7226 121.229 90.475 121.229 90.475 122.032V139.419C90.4439 140.26 90.2186 142.596 88.3647 144.426C87.4741 145.305 86.5177 145.765 85.8454 146.011H79.9994C79.1955 146.011 79.1955 147.257 79.9994 147.257H85.8454C86.5177 147.502 87.4741 147.962 88.3647 148.841C90.2186 150.672 90.4439 153.007 90.475 153.848V165.191C90.475 167.174 90.4057 169.17 90.475 171.153C90.475 171.18 90.475 171.208 90.475 171.236C90.475 172.039 91.7226 172.039 91.7226 171.236V153.336C91.83 152.27 92.2389 150.378 93.7948 148.841C94.6854 147.962 95.6418 147.502 96.3141 147.257H102.195C102.999 147.257 102.999 146.011 102.195 146.011Z" fill="#F7EEED"/>
</g>
<defs>
<clipPath id="clip0_432_1258">
<rect width="242.57" height="230.88" fill="white" transform="translate(168.494 161.019)"/>
</clipPath>
<clipPath id="clip1_432_1258">
<rect width="283.486" height="239.648" fill="white" transform="translate(0.768555 0.258301)"/>
</clipPath>
</defs>
</svg>
