<svg width="336" height="389" viewBox="0 0 336 389" fill="none" xmlns="http://www.w3.org/2000/svg">
<g clip-path="url(#clip0_432_2106)">
<path d="M265.615 62.7618C265.79 62.3715 266.063 62.416 266.281 62.3854C270.51 61.7361 274.695 60.8597 278.872 59.9725C287.535 58.1343 295.948 55.5319 303.769 51.2782C306.694 49.6866 309.458 47.8514 311.795 45.4502C312.924 44.2863 313.907 43.0084 314.539 41.5008C315.655 38.835 315.257 36.4053 313.359 34.2272C312.119 32.8109 310.545 31.8358 308.861 31.0354C305.344 29.3754 301.601 28.5476 297.781 28.0154C291.88 27.1885 285.96 27.1408 280.024 27.493C273.323 27.8891 266.703 28.8732 260.151 30.2912C250.216 32.4451 240.787 35.9939 231.768 40.647C230.953 41.0665 230.302 41.1698 229.414 40.7652C224.059 38.3187 218.59 36.1562 213.011 34.2707C211.764 33.8482 211.898 33.8919 212.007 32.6825C212.652 25.2231 212.407 17.8107 210.661 10.4998C209.463 5.47317 207.545 0.789775 204.229 -3.28613C202.329 -5.62023 199.962 -6.71517 197.039 -6.60984C193.206 -6.47208 190.069 -4.88704 187.82 -1.74868C185.952 0.856693 185.787 4.23509 188.252 6.98583C191.08 10.133 192.797 13.9536 194.222 17.8955C195.447 21.2935 196.302 24.7895 196.88 28.3561C196.942 28.7247 197.089 29.0912 196.921 29.4922C196.449 29.6557 196.007 29.4291 195.555 29.3243C183.205 26.5293 170.706 25.0588 158.043 24.9811C149.773 24.9307 141.54 25.4937 133.34 26.6467C124.527 27.8843 115.883 29.8337 107.381 32.445C94.5757 36.3738 82.4873 41.8726 71.0288 48.7818C70.3017 49.2226 69.5854 49.6917 68.876 50.1656C68.0582 50.7119 68.0225 50.9645 68.6902 51.7067C69.3275 52.412 69.995 53.082 70.6372 53.7804C80.4472 64.4128 87.9453 76.5219 93.6644 89.7657C96.9404 97.3553 99.5193 105.17 101.449 113.208C103.35 121.113 104.608 129.101 105.192 137.203C106.399 153.808 104.894 170.129 99.9739 186.071C96.3044 197.96 90.8618 208.95 82.9852 218.657C76.1057 227.132 67.8867 233.955 57.8894 238.49C44.2546 244.681 30.1852 245.513 15.7682 241.681C13.9823 241.205 12.2149 240.659 10.4834 240.005C10.1099 239.863 9.67945 239.526 9.3001 239.921C8.9315 240.308 9.25563 240.728 9.41558 241.105C14.8235 254.112 21.6145 266.352 30.1115 277.595C55.0726 310.615 87.6633 332.321 127.706 342.875C140.458 346.234 153.458 347.958 166.634 348.292C172.566 348.446 178.484 348.235 184.409 347.777C192.095 347.185 199.693 346.001 207.217 344.378C214.921 342.712 222.463 340.449 229.837 337.648C230.193 337.51 230.556 337.413 230.913 337.275C231.675 336.972 231.741 336.648 231.133 336.047C227.247 332.199 223.816 327.974 220.638 323.532C214.217 314.557 209.347 304.804 206.046 294.283C204.269 288.613 202.968 282.834 202.291 276.932C199.809 255.343 203.879 235.043 214.707 216.19C225.55 197.317 241.081 183.371 260.498 173.66C267.088 170.364 273.956 167.78 281.051 165.796C287.698 163.935 294.459 162.651 301.315 161.958C309.403 161.142 317.508 161.142 325.608 161.931C325.798 161.948 325.981 162.001 326.17 162.011C327.183 162.052 327.32 161.897 327.117 160.908C326.011 155.469 324.6 150.105 322.907 144.824C319.944 135.558 316.208 126.602 311.663 117.992C300.46 96.7827 285.42 78.7319 266.725 63.6946C266.341 63.3859 265.966 63.0578 265.609 62.7628L265.615 62.7618ZM282.129 79.4102C282.402 79.4547 282.518 79.6398 282.537 79.8953C283.146 80.0398 283.413 80.5905 283.794 80.9898C289.849 87.3675 295.336 94.2072 300.334 101.43C303.928 106.62 307.216 111.994 310.176 117.567C314.501 125.697 318.152 134.114 321.073 142.852C322.458 146.987 323.625 151.183 324.739 155.394C325.087 156.701 325.341 158.03 325.646 159.41C325.066 159.363 324.863 158.946 324.579 158.657C322.877 156.927 321.028 155.36 319.016 154.013C312.8 149.853 305.914 147.368 298.562 146.189C289.686 144.767 280.889 145.129 272.17 147.422C265.257 149.237 258.838 152.053 253.104 156.353C252.854 156.546 252.625 156.837 252.172 156.72C251.806 155.482 251.481 154.201 251.047 152.951C247.816 143.663 242.268 135.967 234.629 129.837C224.73 121.891 213.472 117.499 200.657 117.477C195.081 117.468 189.722 118.529 184.597 120.724C183.518 121.188 182.469 121.719 181.28 122.279C178.513 113.961 174.311 106.562 168.313 100.229C168.045 99.9616 167.771 99.7006 167.503 99.4328C163.089 95.0238 158.106 91.4261 152.34 89.0006C141.241 84.3353 130.204 84.2438 119.274 89.5724C119.073 89.6722 118.877 89.8314 118.573 89.6719C118.816 77.293 113.7 67.2687 104.512 59.2812C95.316 51.2888 84.6618 47.5777 72.2827 49.5701C72.5896 49.1035 72.9607 48.9811 73.2779 48.7896C78.4563 45.6951 83.8053 42.9329 89.3073 40.4699C98.6859 36.2678 108.379 32.9995 118.386 30.629C126.116 28.797 133.94 27.5265 141.846 26.8079C148.517 26.2002 155.206 26.0226 161.904 26.2164C173.422 26.5463 184.79 28.0261 196.011 30.6315C197.209 30.9117 197.192 30.9147 197.328 32.077C197.718 35.284 197.822 38.5031 197.721 41.7263C197.528 47.8286 196.644 53.8001 194.397 59.5189C194.245 59.8994 194.214 60.3617 193.748 60.6325C193.556 60.2436 193.378 59.8703 193.183 59.5C190.624 54.4791 187.155 50.2064 182.603 46.8431C181.874 46.3038 181.093 45.8572 180.252 45.517C179.935 45.3896 179.542 45.3053 179.354 45.6557C179.114 46.0929 179.448 46.3558 179.825 46.521C180.788 46.943 181.676 47.4918 182.502 48.1354C186.569 51.3092 189.75 55.2273 192.095 59.8028C193.173 61.902 193.12 61.9109 190.877 62.4015C188.082 63.0147 185.404 63.9691 182.895 65.3466C182.502 65.5568 181.851 65.7322 182.195 66.3423C182.532 66.9474 183.023 66.4982 183.422 66.2928C188.894 63.4379 194.797 62.3874 200.886 62.2564C208.559 62.0882 216.019 63.3694 223.225 66.0046C230.27 68.5766 236.691 72.1617 241.855 77.7262C241.981 77.8675 242.112 78.0019 242.265 78.1206C242.472 78.2784 242.711 78.2985 242.917 78.1256C243.122 77.9527 243.165 77.705 243.038 77.4857C242.894 77.245 242.696 77.0317 242.504 76.8233C241.644 75.8726 240.717 74.9874 239.75 74.1451C235.429 70.4001 230.5 67.6898 225.219 65.5679C224.825 65.4114 224.332 65.3858 223.958 64.8109C224.964 64.8466 225.812 64.8728 226.656 64.9058C234.301 65.2174 241.933 65.0199 249.56 64.3963C253.822 64.0483 258.071 63.5881 262.298 62.9632C263.315 62.8107 264.102 62.9735 264.895 63.6707C266.571 65.1401 268.364 66.4815 270.055 67.9304C274.163 71.4523 278.215 75.0377 281.817 79.0956C281.987 79.1393 282.095 79.2415 282.13 79.4161L282.129 79.4102ZM205.865 58.0524C205.752 58.2398 205.574 58.5404 205.41 58.4294C205.103 58.2163 205.461 58.0178 205.561 57.8207C205.598 57.6822 205.609 57.5359 205.666 57.4119C208.744 50.6875 210.599 43.6147 211.595 36.3069C211.643 35.9499 211.6 35.5541 211.969 35.1313C217.74 37.0809 223.463 39.2489 229.068 41.9301C228.521 42.4731 227.991 42.6883 227.496 42.9699C221.818 46.1421 216.366 49.6495 211.253 53.6654C209.428 55.0966 207.655 56.5911 205.853 58.0544L205.865 58.0524ZM108.471 335.454C108.14 335.527 107.843 335.451 107.598 335.209C106.971 334.996 106.331 334.808 105.716 334.556C97.6407 331.309 89.8557 327.46 82.3598 323.038C65.8159 313.283 51.252 301.156 38.71 286.62C30.6189 277.245 23.6637 267.103 17.7711 256.222C17.1329 255.048 16.652 253.805 16.5997 252.46C16.5763 251.929 16.4675 251.213 17.1197 250.971C17.6352 250.777 17.9342 251.334 18.2757 251.644C18.5947 251.927 18.8884 252.239 19.2026 252.529C28.2935 261.008 38.6876 267.319 50.5934 271.019C59.199 273.696 67.9199 274.808 76.8212 272.491C77.6874 272.267 77.7285 272.297 77.8719 273.253C78.1657 275.279 78.6393 277.263 79.2447 279.207C81.4293 286.258 85.1396 292.457 90.2522 297.754C103.546 311.531 119.973 318.022 138.981 318.389C140.88 318.425 142.769 318.12 144.668 318.271C145.184 318.184 145.69 318.075 146.209 318.012C151.455 317.313 156.577 316.171 161.449 314.042C164.457 312.731 167.339 311.201 170.058 309.355C170.918 308.772 171.004 308.818 171.272 309.621C172.554 313.467 174.722 316.778 177.468 319.729C181.57 324.142 186.495 327.4 191.909 329.951C202.615 335.001 213.968 337.103 225.737 337.283C226.142 337.287 226.589 337.116 226.922 337.517C226.886 337.553 226.863 337.599 226.829 337.611C218.204 340.742 209.336 342.97 200.327 344.685C195.755 345.555 191.149 346.153 186.506 346.529C181.727 346.915 176.949 347.175 172.156 347.233C163.076 347.349 154.049 346.673 145.077 345.321C132.876 343.481 121.003 340.366 109.46 335.998C109.119 335.868 108.704 335.836 108.495 335.456L108.48 335.44L108.471 335.454ZM255.919 62.5475C255.788 62.5935 255.656 62.6698 255.519 62.6807C250.186 63.2505 244.844 63.7014 239.481 63.8071C230.561 63.9799 221.646 64.1099 212.867 62.0814C210.578 61.551 208.227 61.404 205.882 61.1897C205.954 60.8287 206.198 60.7758 206.411 60.6799C210.115 59.0961 213.838 57.557 217.634 56.1925C219.952 55.3585 222.22 54.3763 224.63 53.8338C224.788 53.7351 224.941 53.6071 225.112 53.5484C235.304 50.2024 245.645 47.4209 256.186 45.3881C263.925 43.8973 271.708 42.7059 279.582 42.1912C280.053 42.1603 280.686 42.1985 280.627 41.5588C280.567 40.8831 279.913 41.119 279.478 41.144C275.114 41.3887 270.782 41.9289 266.462 42.5394C261.335 43.2611 256.255 44.2275 251.197 45.3226C245.814 46.4903 240.475 47.813 235.188 49.3376C231.953 50.2713 228.742 51.2791 225.519 52.2469C225.208 52.5097 224.848 52.6301 224.446 52.6375C224.172 52.6954 223.893 52.7543 223.62 52.8122C223.324 52.952 223.035 53.1328 222.726 53.2327C217.525 54.9775 212.414 56.9719 207.352 59.0783C206.997 59.228 206.679 59.5161 206.105 59.4018C206.37 59.1527 206.537 58.9984 206.71 58.8431C210.646 55.2832 214.883 52.1061 219.314 49.1911C220.925 48.1327 222.483 46.975 224.26 46.1837C225.046 45.9495 225.534 45.2721 226.222 44.8801C232.621 41.2378 239.228 38.0722 246.142 35.5108C250.469 33.9066 254.883 32.6368 259.369 31.5834C265.432 30.1573 271.579 29.2343 277.794 28.7452C284.247 28.2344 290.694 28.1936 297.12 29.0285C300.989 29.5285 304.794 30.328 308.366 31.9967C309.924 32.728 311.376 33.6213 312.53 34.9197C314.181 36.7783 314.501 38.8482 313.529 41.1228C312.98 42.4059 312.151 43.4954 311.2 44.4973C308.814 47.0029 305.957 48.8538 302.943 50.4903C297.622 53.3802 291.947 55.3909 286.15 57.0731C282.227 58.2126 278.217 58.9815 274.216 59.809C268.726 60.9466 263.193 61.8025 257.616 62.3892C257.516 62.4059 257.415 62.4168 257.321 62.4267C256.865 62.5151 256.408 62.5917 255.94 62.5319L255.919 62.5475ZM13.1215 242.209L13.1527 242.18C13.6019 242.093 13.9902 242.322 14.389 242.436C22.4058 244.767 30.5732 245.598 38.8783 244.783C46.1167 244.074 53.0245 242.085 59.5813 238.91C69.4522 234.126 77.5841 227.215 84.3686 218.678C92.0539 209.014 97.394 198.133 101.021 186.383C106.777 167.755 107.892 148.733 105.549 129.461C104.266 118.938 101.849 108.654 98.3106 98.6535C92.1698 81.3056 83.2602 65.5832 70.5883 52.0982C70.3817 51.8742 70.0199 51.6942 70.2097 51.2834C74.7112 49.8906 79.6182 49.5788 84.8374 50.6524C96.8484 53.1192 105.948 59.7922 112.315 70.166C115.946 76.072 117.817 82.5137 117.397 89.5203C117.362 90.0977 116.939 90.8424 117.534 91.2599C118.216 91.7349 118.767 90.9989 119.311 90.7212C124.813 87.8671 130.65 86.4609 136.852 86.6057C145.268 86.806 152.851 89.5285 159.717 94.2901C168.338 100.273 174.407 108.309 178.47 117.914C179.133 119.487 179.728 121.084 180.216 122.723C180.48 123.611 180.724 123.702 181.567 123.374C181.788 123.289 181.989 123.159 182.193 123.047C189.044 119.401 196.384 117.977 204.066 118.644C220.412 120.052 233.467 127.524 243.314 140.556C247.335 145.879 250.093 151.829 251.253 158.451C251.811 158.688 252.201 158.466 252.644 158.091C254.273 156.711 256.042 155.512 257.876 154.422C265.737 149.759 274.285 147.35 283.365 146.627C289.128 146.172 294.836 146.465 300.492 147.628C307.409 149.048 313.866 151.563 319.591 155.776C319.934 156.025 320.296 156.277 320.577 156.585C321.164 157.239 321.131 157.972 320.53 158.626C320.169 159.018 319.716 159.262 319.224 159.453C317.922 159.954 316.57 160.157 315.186 160.202C310.726 160.343 306.267 160.417 301.822 160.856C292.09 161.827 282.6 163.834 273.367 167.073C257.233 172.739 242.86 181.305 230.845 193.487C208.163 216.482 197.923 244.031 201.152 276.329C201.948 284.292 203.902 292.008 206.664 299.515C211.564 312.8 218.935 324.582 228.527 334.998C228.814 335.305 229.187 335.549 229.301 336.119C228.103 336.128 226.933 336.156 225.762 336.142C215.996 336.053 206.494 334.489 197.342 331.037C191.208 328.721 185.509 325.629 180.606 321.218C177.175 318.136 174.381 314.58 172.691 310.243C172.382 309.447 172.164 308.623 171.878 307.817C171.624 307.102 171.361 307.007 170.728 307.396C170.488 307.545 170.28 307.742 170.05 307.913C165.507 311.202 160.505 313.557 155.111 315.057C148.378 316.939 141.493 317.63 134.519 317.086C119.156 315.897 105.529 310.465 94.1174 300.017C85.7853 292.391 80.182 283.188 78.8237 271.752C78.7185 270.879 78.4643 270.729 77.5523 271.039C76.2878 271.473 75.0017 271.779 73.6929 272.023C68.8241 272.918 63.9533 272.73 59.1019 271.908C50.0451 270.377 41.6943 266.96 33.8578 262.234C25.4375 257.156 18.0838 250.864 12.1605 242.978C11.8647 242.583 11.4508 242.237 11.398 241.674C11.8912 241.562 12.2618 241.722 12.6081 241.989C12.8103 241.973 13.0067 241.958 13.1068 242.194L13.1215 242.209ZM195.172 -5.28591C198.839 -5.83499 201.499 -4.93354 203.598 -2.2418C206.551 1.54008 208.37 5.81888 209.477 10.4156C210.501 14.6594 211.043 18.9779 211.174 23.3536C211.403 31.316 210.495 39.1444 208.321 46.794C207.441 49.8954 205.161 51.7758 201.948 52.4111C200.746 52.6487 199.706 52.2337 198.811 51.4274C197.992 50.6863 198.133 49.7723 198.272 48.8106C199.148 42.5397 199.059 36.2623 198.259 29.9897C197.733 25.8428 196.754 21.7901 195.371 17.8471C193.86 13.5348 191.891 9.44341 188.85 5.9591C187.303 4.18528 187.109 2.21461 188.061 0.141956C189.532 -3.07045 192.307 -4.55261 195.172 -5.28591Z" fill="#121212"/>
<path d="M251.261 158.472C250.101 151.85 247.348 145.899 243.322 140.577C233.473 127.538 220.425 120.071 204.073 118.664C196.392 118.003 189.05 119.421 182.199 123.067C181.989 123.18 181.788 123.31 181.573 123.394C180.731 123.722 180.492 123.63 180.222 122.743C179.728 121.105 179.139 119.507 178.476 117.934C174.414 108.334 168.344 100.293 159.723 94.3095C152.856 89.5478 145.273 86.8253 136.857 86.6249C130.655 86.4801 124.817 87.8805 119.316 90.7405C118.773 91.0241 118.216 91.7611 117.538 91.2793C116.938 90.8627 117.365 90.1112 117.401 89.5396C117.821 82.5328 115.945 76.0919 112.32 70.1848C105.952 59.8107 96.8525 53.1376 84.8412 50.6707C79.6218 49.5971 74.7147 49.9089 70.2131 51.3017C70.0243 51.7184 70.3861 51.8983 70.5917 52.1165C83.264 65.6019 92.1738 81.3247 98.3148 98.673C101.853 108.673 104.27 118.958 105.553 129.481C107.897 148.754 106.78 167.771 101.025 186.405C97.3972 198.149 92.051 209.032 84.3724 218.7C77.5877 227.238 69.4557 234.149 59.5845 238.933C53.0275 242.108 46.1254 244.096 38.8809 244.806C30.5815 245.621 22.408 244.79 14.3911 242.459C13.9913 242.34 13.5981 242.117 13.1547 242.203C13.0481 242.678 13.2812 242.988 13.5915 243.327C15.2842 245.179 17.1075 246.912 19.1073 248.406C22.1755 250.695 25.2885 252.928 28.6588 254.793C33.5185 257.485 38.5797 259.692 43.852 261.4C48.6843 262.966 53.6339 263.976 58.6891 264.506C64.3463 265.103 69.9917 265.167 75.6078 264.128C77.0983 263.854 78.6398 263.74 80.0782 263.3C82.5947 262.535 85.1523 261.835 87.4929 260.564C87.7857 260.407 88.0241 260.391 88.2006 260.723C92.0271 257.187 95.3907 253.266 98.2455 248.901C98.5047 248.508 98.6674 247.723 99.2815 247.969C100.095 248.29 99.3106 248.927 99.3281 249.423C99.8603 249.292 100.059 249.649 100.315 250.021C101.237 251.341 102.17 252.658 103.157 253.936C104.832 256.11 106.636 258.19 108.705 259.99C110.915 261.905 113.167 263.753 115.689 265.304C118.325 266.925 121.075 268.292 123.946 269.375C130.285 271.765 136.892 272.563 143.607 272.002C147.042 271.715 150.482 271.102 153.767 269.997C156.67 269.023 159.547 267.933 162.223 266.395C162.662 266.141 163.099 265.803 163.66 265.841C163.907 265.806 164.155 265.776 164.402 265.741C164.337 265.138 164.804 264.945 165.208 264.697C166.054 264.176 166.916 263.677 167.724 263.108C172.389 259.823 176.528 256 180.141 251.556C182.182 249.048 183.974 246.383 185.633 243.644C187.245 240.986 188.608 238.17 189.705 235.243C190.57 232.944 191.543 230.675 192.121 228.28C192.953 224.82 194.046 221.442 195.313 218.131C196.815 214.21 198.621 210.418 200.577 206.691C202.556 202.918 204.872 199.359 207.228 195.823C209.483 192.437 212.165 189.37 214.8 186.275C215.348 185.63 215.733 184.699 216.723 184.491C216.681 183.848 217.113 183.445 217.481 183.022C224.003 175.569 231.309 169.05 240.085 164.311C240.426 163.833 241.036 164.019 241.481 163.728C242.703 162.933 243.95 162.183 245.224 161.482C247.192 160.394 249.104 159.188 251.263 158.483L251.261 158.472ZM120.928 98.0079L120.981 98.1073C121.39 97.9604 121.741 98.1121 122.022 98.3838C123.84 100.118 125.61 101.897 126.975 104.02C128.252 106.014 129.329 108.113 130.043 110.376C130.548 111.975 130.684 113.637 130.298 115.278C130.058 116.317 129.498 117.253 128.404 117.587C126.919 118.034 125.423 118.099 124.045 117.181C123.653 116.645 123.732 116.006 123.654 115.406C122.894 109.547 122.064 103.701 119.708 98.2065C119.568 97.8751 119.325 97.4707 119.74 97.1844C120.178 96.8825 120.401 97.3503 120.699 97.541C120.901 97.6334 120.992 97.7806 120.922 98.0089L120.928 98.0079ZM151.593 192.866C151.999 195.168 152.124 197.475 151.871 199.797C151.715 201.261 151.408 202.696 150.753 204.027C149.233 207.122 146.576 207.592 144.086 205.23C143.182 204.371 142.497 203.349 141.91 202.262C140.975 200.542 140.351 198.704 139.887 196.814C139.054 193.417 138.82 189.991 139.465 186.532C139.707 185.216 140.122 183.961 140.893 182.851C142.29 180.848 144.338 180.523 146.318 181.965C146.971 182.445 147.511 183.041 148.011 183.679C150.102 186.39 150.97 189.571 151.596 192.847L151.593 192.866ZM164.489 212.071C163.389 212.261 162.309 212.328 161.221 212.095C158.764 211.569 157.536 209.754 157.955 207.277C158.201 205.84 158.824 204.569 159.678 203.421C162.534 199.597 166.286 197.084 170.942 195.96C172.152 195.667 173.391 195.616 174.615 195.874C177.064 196.383 178.302 198.221 177.895 200.702C177.709 201.846 177.265 202.895 176.624 203.845C173.694 208.228 169.62 210.939 164.485 212.077L164.489 212.071Z" fill="#FCF6F5"/>
<path d="M163.628 265.797C163.061 265.76 162.63 266.097 162.191 266.351C159.516 267.895 156.637 268.979 153.734 269.954C150.449 271.058 147.015 271.671 143.574 271.959C136.852 272.521 130.25 271.721 123.91 269.331C121.033 268.25 118.289 266.881 115.653 265.259C113.131 263.709 110.878 261.861 108.668 259.945C106.593 258.145 104.795 256.064 103.12 253.89C102.139 252.611 101.206 251.299 100.277 249.975C100.016 249.604 99.8178 249.252 99.2904 249.377C99.0935 249.638 98.8829 249.89 98.6987 250.156C95.4855 254.792 91.7918 259.01 87.5872 262.772C87.0633 263.239 86.466 263.628 85.8824 264.026C85.6765 264.163 85.4175 264.128 85.2442 263.923C85.0258 263.665 85.0693 263.387 85.2975 263.168C85.4994 262.971 85.7454 262.822 85.9688 262.646C86.7455 262.034 87.5526 261.46 88.1667 260.671C87.9902 260.339 87.7519 260.355 87.459 260.513C85.124 261.783 82.5652 262.477 80.0437 263.249C78.6052 263.689 77.0635 263.803 75.5729 264.077C69.9494 265.111 64.3093 265.046 58.6526 264.455C53.597 263.925 48.646 262.909 43.8142 261.349C38.5415 259.64 33.4808 257.438 28.6196 254.74C25.248 252.869 22.1357 250.641 19.0673 248.352C17.0673 246.859 15.2438 245.125 13.551 243.273C13.2406 242.934 13.0076 242.624 13.1142 242.149C13.1142 242.149 13.083 242.178 13.082 242.173C12.9197 242.104 12.7514 242.036 12.5833 241.967C12.2378 241.707 11.8662 241.54 11.373 241.653C11.4258 242.216 11.8397 242.561 12.1355 242.957C18.0595 250.844 25.4141 257.137 33.8354 262.216C41.6668 266.943 50.0177 270.356 59.0824 271.892C63.9343 272.714 68.8047 272.896 73.675 272.007C74.9849 271.769 76.2703 271.457 77.5348 271.022C78.4401 270.708 78.7012 270.863 78.8064 271.735C80.1649 283.174 85.7688 292.378 94.1019 300.005C105.515 310.455 119.143 315.888 134.508 317.077C141.482 317.616 148.369 316.93 155.103 315.048C160.49 313.543 165.499 311.192 170.043 307.903C170.274 307.738 170.481 307.534 170.721 307.386C171.355 306.997 171.618 307.091 171.871 307.807C172.152 308.614 172.375 309.437 172.684 310.233C174.375 314.571 177.169 318.127 180.6 321.209C185.51 325.62 191.203 328.715 197.338 331.031C206.491 334.483 216 336.047 225.761 336.136C226.932 336.144 228.103 336.122 229.301 336.114C229.193 335.542 228.814 335.299 228.527 334.992C218.933 324.574 211.563 312.796 206.661 299.503C203.893 291.996 201.945 284.278 201.149 276.313C197.92 244.01 208.161 216.456 230.845 193.457C242.861 181.273 257.237 172.713 273.371 167.04C282.605 163.794 292.097 161.792 301.83 160.821C306.281 160.376 310.741 160.307 315.196 160.168C316.58 160.122 317.932 159.919 319.234 159.418C319.726 159.227 320.185 158.982 320.541 158.591C321.141 157.937 321.174 157.203 320.588 156.549C320.306 156.236 319.945 155.989 319.601 155.74C313.875 151.526 307.417 149.006 300.5 147.591C294.839 146.435 289.129 146.135 283.371 146.59C274.289 147.307 265.741 149.722 257.88 154.386C256.039 155.477 254.276 156.675 252.647 158.056C252.204 158.431 251.813 158.653 251.255 158.415C249.095 159.115 247.184 160.326 245.216 161.414C243.943 162.121 242.696 162.872 241.473 163.661C241.028 163.952 240.418 163.765 240.077 164.244C240.399 164.262 240.8 164.14 240.937 164.557C241.096 165.035 240.703 165.24 240.362 165.399C236.002 167.49 232.243 170.462 228.573 173.538C224.787 176.706 221.222 180.12 218.091 183.955C217.721 184.408 217.389 184.903 216.706 184.427C215.717 184.636 215.331 185.567 214.784 186.212C212.147 189.302 209.465 192.375 207.211 195.762C204.854 199.298 202.543 202.85 200.559 206.63C198.603 210.358 196.796 214.151 195.295 218.073C194.028 221.384 192.935 224.762 192.102 228.223C191.524 230.618 190.551 232.888 189.686 235.187C188.589 238.114 187.225 240.924 185.614 243.589C183.95 246.335 182.163 248.994 180.121 251.502C176.508 255.947 172.368 259.77 167.703 263.056C166.895 263.624 166.028 264.125 165.187 264.645C164.783 264.893 164.321 265.085 164.387 265.688C164.586 266.082 164.608 266.499 164.567 266.933C164.283 269.821 164.44 272.712 164.767 275.582C165.643 283.341 167.44 290.879 170.422 298.116C170.603 298.549 171.078 299.185 170.359 299.456C169.679 299.715 169.57 298.963 169.386 298.513C167.786 294.605 166.563 290.575 165.557 286.472C164.349 281.53 163.589 276.525 163.382 271.446C163.304 269.558 163.232 267.662 163.633 265.79L163.628 265.797Z" fill="#EFD6D2"/>
<path d="M281.857 79.1097C278.261 75.0499 274.202 71.4649 270.094 67.9423C268.402 66.4873 266.609 65.1515 264.932 63.6818C264.141 62.9903 263.354 62.8275 262.336 62.9742C258.108 63.5993 253.858 64.0595 249.596 64.4075C241.968 65.0313 234.335 65.2288 226.689 64.9171C225.845 64.8841 224.997 64.8579 223.991 64.8222C224.37 65.3904 224.856 65.417 225.251 65.5794C230.528 67.7026 235.464 70.4125 239.784 74.1582C240.752 75.0006 241.679 75.886 242.539 76.8369C242.731 77.0454 242.93 77.2587 243.073 77.4994C243.2 77.7187 243.163 77.9656 242.952 78.1395C242.746 78.3124 242.507 78.2922 242.3 78.1345C242.148 78.0215 242.016 77.8813 241.89 77.74C236.725 72.1744 230.304 68.5886 223.258 66.0161C216.051 63.3804 208.59 62.099 200.916 62.2673C194.826 62.3983 188.923 63.4489 183.45 66.3044C183.051 66.5098 182.56 66.9591 182.223 66.3539C181.884 65.7369 182.536 65.5673 182.923 65.358C185.439 63.9852 188.11 63.0257 190.905 62.4123C193.149 61.9216 193.202 61.9128 192.124 59.8132C189.777 55.2309 186.603 51.317 182.53 48.1435C181.704 47.4999 180.816 46.951 179.852 46.5289C179.475 46.3636 179.142 46.1065 179.381 45.6634C179.57 45.3188 179.963 45.3973 180.28 45.5247C181.12 45.8649 181.901 46.3116 182.631 46.851C187.183 50.2149 190.652 54.4884 193.212 59.5103C193.401 59.8817 193.586 60.2599 193.777 60.643C194.243 60.3722 194.274 59.9098 194.427 59.5292C196.673 53.8093 197.558 47.8367 197.751 41.7333C197.851 38.5094 197.748 35.2897 197.357 32.0821C197.215 30.9206 197.233 30.9177 196.04 30.6364C184.818 28.0305 173.448 26.5504 161.929 26.2205C155.23 26.0266 148.54 26.2043 141.868 26.8121C133.962 27.5308 126.136 28.8015 118.406 30.6339C108.397 33.0049 98.7031 36.2737 89.3233 40.4767C83.8217 42.9459 78.472 45.7086 73.2919 48.7979C72.9747 48.9895 72.6036 49.1119 72.2966 49.5785C84.6772 47.5858 95.3328 51.2976 104.529 59.2915C113.719 67.2805 118.835 77.3067 118.593 89.6879C118.897 89.8474 119.092 89.6823 119.293 89.5884C130.225 84.2588 141.264 84.3503 152.363 89.0165C158.131 91.4424 163.114 95.0409 167.529 99.4506C167.797 99.7185 168.071 99.9854 168.339 100.247C168.79 100.172 169.102 99.8787 169.393 99.5652C172.408 96.3277 175.758 93.5033 179.511 91.1349C183.868 88.3823 188.541 86.3228 193.527 85.1193C197.013 84.2758 200.582 83.7794 204.222 83.7823C209.78 83.7885 215.149 84.6388 220.355 86.5933C226.713 88.9804 232.269 92.585 236.976 97.4752C240.988 101.64 245.549 105.092 250.673 107.741C257.144 111.083 263.953 113.287 271.36 113.037C275.141 112.908 278.801 112.276 282.099 110.284C284.687 108.725 286.656 106.572 287.864 103.806C289.779 99.4354 289.257 94.9863 287.951 90.6084C286.906 87.0954 285.116 83.918 282.969 80.9449C282.741 80.634 282.537 80.3192 282.559 79.9125L282.56 79.9183C282.271 79.8826 282.177 79.6818 282.152 79.4272C281.972 79.3972 281.874 79.2813 281.839 79.1068L281.857 79.1097ZM115.806 46.2986C113.705 46.7052 111.578 46.9178 109.464 47.2122C105.93 47.7027 102.382 47.8889 98.8157 47.759C97.4457 47.7121 96.0667 47.5764 94.7662 47.0846C92.8615 46.3692 92.5916 45.1991 94.0167 43.7868C94.6565 43.1499 95.41 42.6505 96.1889 42.1949C98.6526 40.7587 101.282 39.6979 103.966 38.7423C110.061 36.5765 116.294 34.9412 122.644 33.7496C126.891 32.9528 131.146 32.2029 135.462 31.8821C138.681 31.6368 141.897 31.4462 145.109 31.9423C145.958 32.0768 146.794 32.2493 147.543 32.6833C148.573 33.2867 148.748 34.0755 148.088 35.0587C147.631 35.743 146.99 36.2296 146.32 36.6851C144.426 37.9654 142.346 38.886 140.233 39.7219C132.345 42.8381 124.132 44.7755 115.811 46.2917L115.806 46.2986ZM274.483 86.8389C274.322 85.813 274.32 84.9107 274.482 84.2999C274.818 83.0763 275.677 82.6314 276.879 83.0736C277.425 83.2708 277.881 83.6155 278.301 84.0022C280.227 85.8031 281.443 88.0118 282.088 90.5451C282.307 91.4168 282.489 92.3129 282.418 93.2153C282.263 95.1848 280.925 95.8665 279.26 94.8221C278.822 94.5466 278.42 94.199 278.066 93.819C276.201 91.8395 275.072 89.4717 274.488 86.8321L274.483 86.8389ZM158.505 30.393C160.314 30.1496 162.295 30.0641 164.24 30.6643C165.105 30.9343 166.051 31.251 166.131 32.3326C166.212 33.4201 165.336 33.8739 164.508 34.2476C161.677 35.5106 158.742 35.654 155.745 34.9655C155.187 34.8365 154.66 34.6061 154.227 34.2213C153.534 33.6156 153.482 32.9504 154.08 32.2424C154.385 31.8723 154.789 31.6241 155.217 31.4079C156.2 30.9121 157.259 30.6561 158.506 30.3988L158.505 30.393Z" fill="#FA4616"/>
<path d="M282.57 79.8743C282.554 80.2801 282.752 80.5958 282.979 80.9066C285.12 83.8805 286.91 87.0577 287.961 90.5695C289.268 94.9529 289.795 99.3948 287.875 103.766C286.66 106.533 284.691 108.68 282.11 110.244C278.812 112.235 275.152 112.867 271.371 112.996C263.964 113.246 257.155 111.043 250.685 107.7C245.561 105.052 241.001 101.606 236.989 97.4358C232.283 92.5517 226.725 88.9416 220.368 86.5547C215.162 84.6003 209.793 83.7501 204.236 83.7439C200.595 83.741 197.026 84.2373 193.541 85.0808C188.555 86.2842 183.881 88.3377 179.525 91.0959C175.779 93.4632 172.422 96.2884 169.407 99.5256C169.116 99.8391 168.804 100.132 168.353 100.208C174.352 106.541 178.555 113.941 181.321 122.26C182.51 121.7 183.56 121.169 184.639 120.705C189.764 118.51 195.124 117.448 200.7 117.457C213.517 117.479 224.781 121.871 234.675 129.819C242.315 135.95 247.864 143.646 251.095 152.935C251.528 154.18 251.854 155.467 252.22 156.705C252.673 156.822 252.901 156.531 253.152 156.338C258.887 152.037 265.312 149.221 272.22 147.406C280.933 145.114 289.737 144.75 298.614 146.173C305.967 147.352 312.853 149.837 319.07 153.998C321.087 155.344 322.937 156.911 324.633 158.642C324.917 158.931 325.114 159.349 325.701 159.395C325.391 158.022 325.135 156.687 324.794 155.378C323.679 151.167 322.512 146.971 321.127 142.835C318.205 134.096 314.554 125.678 310.229 117.548C307.27 111.98 303.975 106.6 300.386 101.408C295.387 94.179 289.899 87.3385 283.845 80.966C283.464 80.5666 283.196 80.0159 282.586 79.8655L282.57 79.8743Z" fill="#C20000"/>
<path d="M144.603 318.291C142.705 318.146 140.815 318.445 138.916 318.409C119.906 318.036 103.479 311.551 90.1851 297.773C85.0723 292.476 81.3629 286.282 79.1771 279.225C78.5776 277.28 78.0981 275.297 77.8043 273.271C77.6667 272.314 77.6198 272.285 76.7535 272.509C67.8519 274.826 59.1296 273.709 50.5247 271.037C38.6185 267.337 28.2297 261.025 19.1326 252.546C18.8184 252.256 18.5247 251.944 18.2057 251.661C17.8641 251.351 17.5651 250.794 17.0496 250.989C16.3925 251.237 16.5061 251.946 16.5296 252.477C16.5877 253.821 17.0628 255.065 17.701 256.24C23.5929 267.115 30.5494 277.264 38.6408 286.639C51.1833 301.175 65.7468 313.297 82.2924 323.058C89.7886 327.48 97.568 331.331 105.649 334.577C106.263 334.823 106.904 335.011 107.531 335.23C107.857 335.194 108.228 334.969 108.404 335.475L108.419 335.49C108.91 335.113 109.436 335.374 109.934 335.435C115.556 336.104 121.16 335.922 126.748 335.147C128.297 334.935 129.8 334.485 131.319 334.164C134.764 333.441 138.101 332.43 141.265 330.931C143.581 329.833 145.71 328.489 147.272 326.314C148.75 324.255 147.996 321.325 146.595 320.093C145.923 319.501 145.26 318.897 144.593 318.299L144.603 318.291ZM104.783 327.552C104.363 327.67 104.169 327.378 103.942 327.139C101.179 324.234 97.7777 322.47 93.9127 321.53C93.466 321.419 92.664 321.523 92.8521 320.746C93.0247 320.019 93.7259 320.352 94.1833 320.456C98.1528 321.372 101.619 323.234 104.526 326.103C104.729 326.303 104.932 326.51 105.069 326.752C105.274 327.108 105.121 327.381 104.788 327.551L104.783 327.552Z" fill="#FA4616"/>
<path d="M225.572 52.2566C228.795 51.2826 232.006 50.2744 235.243 49.3462C240.531 47.8212 245.877 46.497 251.255 45.3299C256.314 44.2344 261.394 43.2676 266.522 42.5457C270.843 41.935 275.182 41.3936 279.541 41.1498C279.982 41.1238 280.63 40.8888 280.69 41.5648C280.749 42.2047 280.116 42.1665 279.645 42.1974C271.77 42.7123 263.985 43.9041 256.244 45.3954C245.702 47.4289 235.359 50.2114 225.165 53.5586C224.994 53.6173 224.841 53.7453 224.683 53.8441C226.084 55.1436 227.694 56.1131 229.421 56.9186C232.176 58.2075 235.062 59.0953 238.015 59.8036C243.359 61.0793 248.767 61.8691 254.25 62.2188C254.817 62.2561 255.494 62.0162 255.978 62.5609C256.446 62.6207 256.903 62.544 257.358 62.4556C257.441 62.3033 257.537 62.2993 257.653 62.4182C263.232 61.8312 268.764 60.9692 274.257 59.837C278.258 59.0093 282.269 58.24 286.193 57.1002C291.991 55.4232 297.666 53.406 302.989 50.5151C306.003 48.8779 308.861 47.0264 311.247 44.5199C312.204 43.5167 313.032 42.421 313.576 41.1442C314.542 38.8699 314.228 36.7923 312.577 34.939C311.416 33.6352 309.97 32.7406 308.413 32.0149C304.846 30.3447 301.04 29.5449 297.165 29.0457C290.737 28.2104 284.289 28.2513 277.835 28.7623C271.62 29.2574 265.471 30.1749 259.407 31.6015C254.926 32.6543 250.506 33.9313 246.177 35.5302C239.262 38.0925 232.649 41.2603 226.254 44.9028C225.561 45.2959 225.072 45.9736 224.292 46.2069C224.343 46.6858 223.996 46.9906 223.759 47.3314C222.682 48.8782 222.615 50.4841 223.428 52.159C223.53 52.3706 223.581 52.6027 223.656 52.8309C223.93 52.7729 224.209 52.714 224.483 52.6561C224.749 52.2684 225.156 52.2903 225.556 52.2654L225.572 52.2566Z" fill="#DAF305"/>
<path d="M144.605 318.25C145.272 318.848 145.935 319.453 146.608 320.044C148.009 321.277 148.763 324.208 147.284 326.267C145.723 328.443 143.593 329.787 141.277 330.886C138.107 332.387 134.77 333.398 131.329 334.12C129.805 334.442 128.302 334.892 126.758 335.103C121.163 335.879 115.557 336.056 109.942 335.391C109.444 335.33 108.917 335.069 108.427 335.447C108.631 335.834 109.045 335.86 109.392 335.989C120.937 340.358 132.812 343.475 145.015 345.315C153.989 346.668 163.017 347.344 172.099 347.228C176.892 347.164 181.67 346.904 186.451 346.523C191.095 346.147 195.701 345.549 200.274 344.679C209.279 342.964 218.154 340.735 226.781 337.602C226.815 337.591 226.838 337.545 226.874 337.509C226.54 337.101 226.093 337.278 225.689 337.274C213.917 337.095 202.564 334.998 191.855 329.94C186.445 327.382 181.513 324.123 177.412 319.714C174.665 316.763 172.504 313.455 171.215 309.603C170.945 308.794 170.86 308.754 170 309.337C167.286 311.183 164.398 312.715 161.389 314.026C156.516 316.149 151.394 317.298 146.147 317.997C145.635 318.065 145.122 318.169 144.606 318.256L144.605 318.25Z" fill="#C20000"/>
<path d="M195.226 -5.25526C192.361 -4.52207 189.587 -3.04014 188.117 0.171793C187.167 2.24999 187.354 4.2155 188.906 5.98807C191.946 9.47186 193.914 13.5626 195.425 17.8743C196.806 21.8109 197.78 25.8639 198.312 30.0151C199.111 36.2867 199.201 42.5632 198.325 48.8332C198.192 49.7938 198.045 50.7086 198.863 51.4496C199.759 52.2616 200.793 52.6717 201.999 52.4331C205.212 51.7979 207.49 49.912 208.371 46.8169C210.544 39.1684 211.452 31.3412 211.222 23.38C211.098 19.004 210.55 14.6871 209.527 10.4439C208.421 5.85373 206.595 1.57069 203.649 -2.2116C201.551 -4.90294 198.892 -5.80426 195.226 -5.25526ZM193.363 4.19381C193.221 4.21155 193.074 4.26635 192.943 4.2402C192.442 4.13166 191.605 4.56084 191.564 3.7077C191.526 3.02227 192.304 3.13239 192.786 3.06349C194.701 2.7723 196.467 2.09713 198.009 0.954228C198.973 0.23918 200.118 -0.47026 199.65 -2.02781C199.579 -2.26856 199.727 -2.4979 199.993 -2.56652C200.241 -2.63218 200.476 -2.52718 200.614 -2.31577C200.946 -1.8121 200.996 -1.26125 200.83 -0.679879C200.639 -0.0224208 200.232 0.491016 199.758 0.967489C197.978 2.73379 195.719 3.55783 193.365 4.20551L193.363 4.19381Z" fill="#C20000"/>
<path d="M255.972 62.559C255.488 62.0143 254.81 62.2483 254.245 62.2169C248.761 61.8672 243.354 61.0773 238.009 59.8015C235.057 59.0932 232.17 58.2053 229.415 56.9163C227.688 56.1108 226.084 55.1402 224.677 53.8416C222.262 54.3912 219.993 55.3738 217.68 56.2013C213.884 57.5664 210.159 59.106 206.455 60.6905C206.241 60.7806 205.997 60.8336 205.926 61.2005C208.271 61.415 210.628 61.5611 212.912 62.0927C221.694 64.1278 230.61 63.9978 239.531 63.8191C244.896 63.7134 250.238 63.2623 255.572 62.6922C255.708 62.6754 255.835 62.606 255.972 62.559Z" fill="#A3B900"/>
<path d="M205.915 58.0705C207.711 56.6081 209.49 55.1125 211.315 53.6813C216.429 49.6651 221.88 46.1517 227.559 42.9852C228.055 42.7095 228.584 42.4884 229.131 41.9454C223.52 39.2651 217.802 37.0959 212.031 35.1462C211.667 35.5622 211.71 35.9581 211.657 36.322C210.661 43.63 208.806 50.7033 205.728 57.428C205.671 57.5519 205.654 57.6992 205.623 57.8368C205.726 57.9156 205.823 57.9896 205.927 58.0685L205.915 58.0705Z" fill="#FA4616"/>
<path d="M223.663 52.8349C223.589 52.6126 223.537 52.3747 223.435 52.1631C222.622 50.4885 222.688 48.8828 223.765 47.3363C224.003 46.9956 224.344 46.6918 224.299 46.2119C222.522 47.0034 220.963 48.1614 219.352 49.2199C214.913 52.1306 210.683 55.3132 206.746 58.8739C206.573 59.0292 206.406 59.1836 206.141 59.4327C206.715 59.547 207.039 59.252 207.388 59.1091C212.451 57.0023 217.562 55.0017 222.765 53.2624C223.078 53.1556 223.362 52.9816 223.658 52.8417L223.663 52.8349Z" fill="#A3B900"/>
<path d="M225.569 52.2624C225.175 52.2864 224.762 52.2655 224.496 52.6532C224.898 52.6458 225.258 52.5253 225.569 52.2624Z" fill="#A3B900"/>
<path d="M205.612 57.8384C205.512 58.0356 205.154 58.234 205.461 58.4472C205.619 58.5591 205.803 58.2575 205.916 58.0701C205.818 57.9903 205.715 57.9173 205.612 57.8384Z" fill="#FA4616"/>
<path d="M108.405 335.442C108.235 334.935 107.857 335.161 107.532 335.197C107.777 335.433 108.068 335.517 108.405 335.442Z" fill="#C20000"/>
<path d="M282.189 79.3967C282.219 79.6502 282.308 79.852 282.597 79.8877C282.572 79.6332 282.462 79.4471 282.189 79.3967Z" fill="#C20000"/>
<path d="M257.657 62.3928C257.543 62.2765 257.443 62.2814 257.368 62.4295C257.466 62.4131 257.564 62.4025 257.657 62.3928Z" fill="#A3B900"/>
<path d="M281.871 79.0771C281.9 79.2512 281.997 79.3661 282.181 79.3949C282.152 79.2208 282.045 79.1194 281.871 79.0771Z" fill="#C20000"/>
<path d="M12.5719 242.035C12.7387 242.102 12.8997 242.171 13.0666 242.238C12.9731 242.003 12.7725 242.019 12.5719 242.035Z" fill="#FCF6F5"/>
<path d="M124.072 117.195C125.45 118.112 126.951 118.047 128.43 117.6C129.525 117.272 130.077 116.331 130.324 115.292C130.709 113.651 130.573 111.99 130.069 110.39C129.355 108.128 128.278 106.029 127.002 104.036C125.636 101.907 123.867 100.135 122.05 98.4007C121.764 98.13 121.419 97.9774 121.01 98.1242C121.306 99.0248 121.608 99.9185 121.893 100.821C123.278 105.172 124.016 109.655 124.674 114.158C124.774 114.857 124.786 115.571 124.84 116.284C124.887 116.847 124.701 117.209 124.068 117.207L124.072 117.195Z" fill="#EFD6D2"/>
<path d="M151.574 192.858C150.948 189.583 150.08 186.402 147.99 183.691C147.495 183.046 146.956 182.457 146.297 181.978C144.317 180.53 142.27 180.861 140.873 182.864C140.103 183.974 139.688 185.228 139.446 186.544C138.806 190.001 139.035 193.428 139.868 196.825C140.331 198.714 140.955 200.552 141.89 202.272C142.483 203.358 143.162 204.38 144.066 205.239C146.555 207.601 149.21 207.125 150.732 204.037C151.386 202.706 151.693 201.271 151.849 199.807C152.102 197.485 151.976 195.172 151.571 192.877L151.574 192.858ZM150.46 193.255C150.563 193.864 150.671 194.471 150.768 195.08C151.107 197.267 150.697 199.333 149.725 201.288C149.195 202.358 148.522 203.331 147.453 203.961C145.969 204.842 144.863 204.642 143.864 203.294C143.351 202.61 142.914 201.878 142.548 201.103C140.746 197.243 139.994 193.183 140.254 188.941C140.355 187.324 140.659 185.733 141.394 184.274C142.572 181.935 144.244 181.631 146.173 183.388C146.771 183.931 147.269 184.558 147.683 185.264C149.15 187.743 150.11 190.397 150.461 193.261L150.46 193.255Z" fill="#121212"/>
<path d="M164.482 212.046C169.618 210.908 173.693 208.203 176.622 203.813C177.258 202.864 177.7 201.809 177.894 200.67C178.302 198.195 177.063 196.357 174.614 195.842C173.389 195.584 172.15 195.635 170.94 195.928C166.284 197.052 162.538 199.564 159.676 203.389C158.815 204.538 158.192 205.81 157.952 207.246C157.534 209.729 158.761 211.538 161.219 212.064C162.307 212.297 163.386 212.23 164.487 212.04L164.482 212.046ZM166.195 209.659C165.585 209.762 164.986 209.922 164.37 209.953C162.989 210.017 161.617 209.922 160.404 209.133C159.205 208.347 158.919 207.403 159.469 206.089C159.721 205.475 160.045 204.897 160.423 204.353C162.551 201.246 165.487 199.147 168.917 197.724C170.685 196.988 172.538 196.611 174.468 197.015C176.118 197.364 176.944 198.507 176.841 200.179C176.777 201.158 176.43 202.028 175.94 202.839C173.696 206.542 170.608 209.063 166.189 209.66L166.195 209.659Z" fill="#121212"/>
<path d="M163.621 265.791C163.22 267.663 163.293 269.557 163.371 271.445C163.571 276.523 164.337 281.525 165.543 286.465C166.543 290.567 167.763 294.591 169.368 298.501C169.554 298.957 169.655 299.704 170.34 299.445C171.059 299.174 170.579 298.539 170.403 298.105C167.425 290.87 165.629 283.335 164.754 275.579C164.427 272.711 164.272 269.826 164.554 266.934C164.595 266.5 164.573 266.083 164.374 265.689C164.127 265.725 163.88 265.754 163.633 265.79L163.621 265.791Z" fill="#121212"/>
<path d="M216.724 184.446C217.407 184.921 217.739 184.426 218.109 183.973C221.234 180.133 224.799 176.726 228.591 173.557C232.266 170.479 236.02 167.509 240.38 165.418C240.72 165.253 241.108 165.055 240.955 164.575C240.818 164.159 240.417 164.281 240.094 164.262C231.312 169.003 224.011 175.522 217.489 182.976C217.12 183.399 216.682 183.803 216.73 184.445L216.724 184.446Z" fill="#121212"/>
<path d="M88.1499 260.71C87.5357 261.498 86.7287 262.073 85.9521 262.684C85.7287 262.86 85.4827 263.01 85.2808 263.206C85.0526 263.425 85.0091 263.703 85.2275 263.961C85.4008 264.167 85.6598 264.201 85.8657 264.065C86.4493 263.666 87.0475 263.283 87.5704 262.81C91.7737 259.043 95.474 254.83 98.6811 250.196C98.8653 249.93 99.0749 249.672 99.2728 249.417C99.2494 248.921 100.035 248.29 99.2262 247.962C98.6121 247.717 98.4494 248.502 98.1902 248.894C95.3412 253.259 91.9716 257.181 88.145 260.716L88.1499 260.71Z" fill="#121212"/>
<path d="M124.063 117.196C124.69 117.199 124.882 116.842 124.834 116.273C124.775 115.567 124.769 114.852 124.668 114.147C124.011 109.645 123.273 105.161 121.888 100.811C121.604 99.9083 121.296 99.0156 121.006 98.1141L120.953 98.0148C120.806 97.895 120.743 97.7313 120.729 97.5471C120.432 97.3563 120.209 96.8886 119.772 97.1905C119.357 97.4767 119.6 97.881 119.74 98.2124C122.094 103.705 122.923 109.55 123.683 115.407C123.76 116.008 123.681 116.647 124.073 117.182L124.063 117.196Z" fill="#121212"/>
<path d="M120.718 97.5595C120.731 97.7437 120.795 97.9075 120.942 98.0272C121.013 97.8048 120.922 97.6577 120.718 97.5595Z" fill="#EFD6D2"/>
<path d="M115.817 46.3304C124.139 44.8195 132.352 42.8755 140.241 39.7581C142.354 38.9219 144.435 38.0009 146.328 36.7201C146.999 36.2645 147.639 35.7718 148.097 35.0931C148.757 34.1096 148.581 33.3204 147.551 32.7168C146.802 32.2767 145.971 32.1032 145.118 31.9755C141.905 31.4734 138.683 31.6709 135.469 31.9152C131.155 32.242 126.892 32.9874 122.651 33.7834C116.3 34.9756 110.066 36.6115 103.97 38.7781C101.287 39.7341 98.6569 40.7953 96.193 42.232C95.414 42.6878 94.6605 43.1874 94.0206 43.8245C92.5964 45.2432 92.8653 46.408 94.7702 47.1236C96.0767 47.6146 97.4548 47.7445 98.8201 47.7983C102.386 47.9282 105.934 47.7361 109.469 47.2513C111.583 46.9567 113.711 46.744 115.812 46.3373L115.817 46.3304Z" fill="#FCF6F5"/>
<path d="M274.498 86.806C275.082 89.4448 276.204 91.807 278.075 93.7909C278.428 94.1648 278.831 94.5183 279.269 94.7936C280.933 95.8319 282.271 95.1563 282.426 93.1873C282.497 92.2852 282.321 91.3883 282.096 90.5178C281.452 87.9853 280.235 85.7773 278.311 83.9769C277.895 83.5835 277.434 83.2457 276.889 83.0485C275.694 82.6113 274.828 83.0513 274.493 84.2745C274.325 84.8862 274.332 85.7872 274.493 86.8128L274.498 86.806Z" fill="#FCF6F5"/>
<path d="M158.523 30.4179C157.277 30.6752 156.217 30.9312 155.234 31.4271C154.806 31.6432 154.409 31.8964 154.097 32.2617C153.5 32.9756 153.545 33.6359 154.244 34.2407C154.683 34.6245 155.21 34.855 155.762 34.9849C158.759 35.6735 161.696 35.536 164.525 34.267C165.36 33.8923 166.23 33.4394 166.149 32.3519C166.067 31.2643 165.122 30.9476 164.258 30.6834C162.312 30.0832 160.326 30.1697 158.522 30.4121L158.523 30.4179Z" fill="#FCF6F5"/>
<path d="M104.777 327.536C105.116 327.365 105.263 327.093 105.058 326.737C104.921 326.495 104.716 326.283 104.515 326.088C101.608 323.218 98.1415 321.357 94.1719 320.441C93.7145 320.337 93.0123 319.998 92.8407 320.731C92.6584 321.507 93.4546 321.404 93.9013 321.515C97.7663 322.455 101.168 324.219 103.93 327.124C104.157 327.363 104.351 327.655 104.771 327.537L104.777 327.536Z" fill="#121212"/>
<path d="M193.373 4.19447C195.723 3.54757 197.982 2.72327 199.769 0.95542C200.25 0.483664 200.651 -0.0348046 200.841 -0.692472C201.009 -1.26818 200.958 -1.8192 200.625 -2.32889C200.487 -2.54036 200.258 -2.64637 200.004 -2.57971C199.738 -2.51107 199.591 -2.27581 199.661 -2.04083C200.129 -0.482786 198.983 0.22688 198.019 0.942155C196.477 2.09128 194.705 2.76764 192.794 3.05209C192.313 3.12686 191.535 3.0167 191.571 3.6965C191.619 4.54893 192.456 4.11961 192.951 4.22917C193.082 4.25533 193.229 4.20051 193.371 4.18276L193.373 4.19447Z" fill="#121212"/>
<path d="M150.462 193.248C150.111 190.384 149.152 187.736 147.684 185.251C147.269 184.545 146.772 183.919 146.174 183.375C144.245 181.618 142.579 181.921 141.395 184.261C140.66 185.72 140.351 187.318 140.255 188.928C139.995 193.17 140.747 197.23 142.549 201.09C142.909 201.866 143.352 202.597 143.865 203.281C144.87 204.629 145.969 204.823 147.454 203.948C148.522 203.318 149.196 202.345 149.726 201.276C150.697 199.32 151.108 197.254 150.769 195.068C150.672 194.458 150.563 193.851 150.461 193.243L150.462 193.248Z" fill="#C20000"/>
<path d="M166.193 209.663C170.613 209.066 173.7 206.539 175.944 202.841C176.434 202.031 176.781 201.155 176.845 200.181C176.955 198.508 176.128 197.359 174.473 197.017C172.542 196.613 170.69 196.99 168.921 197.726C165.486 199.151 162.555 201.249 160.428 204.355C160.051 204.906 159.732 205.483 159.473 206.092C158.924 207.405 159.21 208.35 160.409 209.135C161.615 209.926 162.987 210.021 164.375 209.956C164.984 209.926 165.59 209.764 166.199 209.662L166.193 209.663Z" fill="#C20000"/>
<path d="M166.353 388.696C173.801 388.797 184.132 388.542 194.457 388.227C203.623 387.949 212.796 387.516 221.938 386.679C227.258 386.193 232.584 385.695 237.809 384.426C238.939 384.153 240.068 383.856 241.055 383.174C242.03 382.51 242.036 381.733 241.085 381.004C240.437 380.505 239.688 380.233 238.921 379.989C235.182 378.78 231.324 378.216 227.472 377.7C216.368 376.217 205.205 375.5 194.035 374.96C175.085 374.035 156.122 373.691 137.154 373.893C128.582 373.982 120.011 374.106 111.451 374.533C101.197 375.043 90.943 375.571 80.7426 376.923C78.032 377.279 75.3214 377.694 72.6821 378.483C71.9866 378.691 71.297 378.963 70.6313 379.284C70.1379 379.521 69.6207 379.835 69.6029 380.547C69.591 381.259 70.0903 381.579 70.5837 381.846C71.4575 382.314 72.3908 382.605 73.33 382.866C77.6991 384.088 82.1633 384.669 86.6274 385.167C92.4231 385.814 98.2307 386.371 104.05 386.774C112.717 387.373 121.396 387.8 130.08 388.079C141.202 388.441 152.318 388.66 166.335 388.702L166.353 388.696Z" fill="#121212"/>
</g>
<defs>
<clipPath id="clip0_432_2106">
<rect width="335.545" height="388.1" fill="white" transform="matrix(-1 0 0 1 335.899 0.62085)"/>
</clipPath>
</defs>
</svg>
