<svg width="401" height="442" viewBox="0 0 401 442" fill="none" xmlns="http://www.w3.org/2000/svg">
<path d="M298.957 217.537C299.455 216.147 300.003 214.637 300.536 213.122C305.534 198.861 310.531 184.598 315.531 170.337C316.457 167.695 316.467 167.682 319.108 167.677C345.63 167.637 372.154 167.603 398.676 167.565C398.904 167.565 399.131 167.56 399.359 167.565C401.247 167.625 401.404 167.893 400.353 169.667C396.037 176.951 391.703 184.225 387.353 191.487C369.331 221.573 351.286 251.644 333.308 281.762C332.272 283.498 331.155 284.137 329.28 284.107C322.234 283.995 315.186 284.06 308.139 284.075C306.453 284.077 306.428 284.104 306.431 285.982C306.453 314.272 306.481 342.56 306.519 370.85C306.524 373.5 306.233 373.947 303.844 374.583C277.322 381.644 250.802 388.707 224.282 395.773C223.029 396.108 221.771 396.275 220.469 396.275C155.298 396.21 90.1277 396.168 24.9569 396.123C20.4862 396.121 16.0154 396.133 11.5469 396.158C9.98387 396.165 9.88603 396.148 9.83598 394.37C9.72904 390.568 9.62666 386.763 9.61984 382.958C9.57206 359.881 9.5493 336.801 9.51973 313.723C9.51518 310.003 9.49242 306.28 9.54248 302.56C9.60163 298.05 10.7734 293.979 13.4285 290.408C15.6218 287.457 17.5876 284.306 19.7285 281.308C20.4156 280.347 20.4907 279.453 20.2518 278.328C13.8631 248.249 7.4948 218.163 1.1197 188.08C0.84895 186.803 0.44169 185.601 1.24483 184.287C2.18904 182.743 3.32892 182.248 5.03759 182.253C40.0483 182.348 75.0591 182.372 110.068 182.402C134.166 182.422 158.263 182.43 182.362 182.444C182.817 182.444 183.279 182.499 183.725 182.435C184.937 182.258 185.493 182.877 185.782 184.116C186.489 187.153 187.306 190.163 188.036 193.196C188.623 195.632 188.296 195.439 190.737 195.436C211.575 195.409 232.416 195.376 253.255 195.354C256.404 195.352 256.44 194.842 256.738 198.861C257.038 202.889 256.854 206.96 256.863 211.013C256.868 213.04 256.765 212.948 258.545 212.948C268.016 212.948 277.49 213.03 286.962 212.91C291.178 212.858 294.875 214.003 297.985 217.172C298.194 217.386 298.402 217.652 298.961 217.537H298.957ZM15.4193 244.519C15.5331 244.75 15.665 244.725 15.5922 244.563C15.4603 244.273 15.7128 244.571 15.4125 244.526C15.7196 243.607 15.4011 242.736 15.2145 241.866C11.4718 224.424 7.7337 206.982 3.95459 189.55C3.63607 188.082 3.50638 186.523 2.72826 184.948C1.76813 186.078 2.2391 187.126 2.44159 188.092C4.50064 197.91 6.5779 207.722 8.66198 217.532C10.4207 225.815 12.1954 234.095 13.9586 242.375C14.1611 243.332 14.168 244.424 15.4216 244.516L15.4193 244.519ZM237.758 368.153C240.131 366.738 241.904 364.587 243.583 362.354C246.395 358.609 248.361 354.352 249.785 349.78C250.509 347.458 250.522 347.463 252.825 347.453C253.202 347.453 253.582 347.453 253.96 347.453C261.15 347.453 268.342 347.458 275.531 347.445C277.338 347.443 277.349 347.416 277.363 345.394C277.385 341.594 277.395 337.794 277.404 333.992C277.411 330.438 277.411 326.886 277.413 323.332C277.413 320.7 277.349 321.142 275.279 321.122C275.126 321.122 274.976 321.122 274.824 321.122C258.474 321.179 242.125 321.264 225.777 321.256C224.164 321.256 223.204 321.773 222.287 323.25C216.883 331.963 210.763 340.024 203.694 347.214C202.543 348.384 201.378 348.858 199.842 348.799C197.654 348.714 195.456 348.824 193.262 348.849C192.432 348.821 191.599 348.772 190.769 348.772C176.603 348.772 162.438 348.774 148.273 348.779C144.334 348.779 140.394 348.801 136.455 348.772C134.658 348.757 134.494 348.441 135.404 346.812C139.445 339.592 142.521 331.873 145.285 323.998C145.545 323.258 146.041 322.54 145.822 321.663C145.745 321.616 145.686 321.547 145.627 321.547C138.205 321.524 130.783 321.529 123.364 321.467C122.201 321.457 122.217 322.148 122.213 323.037C122.112 338.83 121.996 354.62 121.901 370.413C121.889 372.346 121.93 372.351 123.625 372.395C124.156 372.41 124.686 372.395 125.216 372.395C139.079 372.346 152.939 372.276 166.802 372.254C182.027 372.229 197.253 372.254 212.481 372.239C217.557 372.234 222.633 372.229 227.707 372.107C231.436 372.018 234.794 370.639 237.758 368.151V368.153ZM281.863 265.853C282.509 264.817 282.851 263.63 283.253 262.475C286.309 253.763 289.358 245.045 292.411 236.33C294.167 231.316 295.908 226.297 297.698 221.3C298.106 220.162 298.047 219.318 297.162 218.459C294.886 216.248 292.361 214.661 289.244 214.651C279.021 214.614 268.799 214.627 258.576 214.637C256.77 214.637 256.727 214.671 256.608 216.698C256.226 223.217 255.491 229.692 254.456 236.119C251.994 251.373 248.122 266.198 242.878 280.593C241.453 284.502 239.974 288.386 238.521 292.283C238.154 292.998 237.745 293.691 237.431 294.434C234.027 302.475 230.093 310.199 225.793 317.707C225.481 318.251 224.819 318.79 225.086 319.433C225.429 320.26 226.296 319.875 226.924 319.87C235.256 319.796 243.585 319.908 251.919 319.736C261.689 319.535 271.465 319.684 281.24 319.689C284.177 319.689 284.184 319.706 284.188 322.992C284.197 330.269 284.197 337.548 284.209 344.825C284.213 347.47 284.222 347.475 286.737 347.48C288.782 347.485 290.827 347.48 292.873 347.48C295.94 347.485 296.094 347.751 294.636 350.796C292.236 355.8 289.237 360.38 285.879 364.649C284.587 366.293 284.061 367.935 284.2 370.026C284.336 372.075 284.254 372.1 286.065 372.102C291.749 372.11 297.43 372.11 303.113 372.097C305.095 372.092 305.095 372.072 305.097 369.922C305.104 357.104 305.118 344.284 305.118 331.466C305.118 318.316 305.111 305.165 305.1 292.015C305.1 289.69 305.079 289.653 303.002 289.67C299.519 289.697 296.038 289.732 292.554 289.973C289.305 290.199 286.043 290.216 282.787 290.256C280.923 290.279 280.678 289.725 281.542 287.86C282.075 286.712 282.878 285.691 283.089 284.166C281.215 284.166 279.476 284.199 277.738 284.157C276.064 284.117 275.832 283.759 276.371 282.105C276.878 280.548 277.467 279.025 277.977 277.468C279.247 273.586 280.88 269.851 281.865 265.858L281.863 265.853ZM294.518 234.848C294.404 235.056 294.261 235.253 294.181 235.476C288.859 250.648 283.542 265.823 278.236 281C278.093 281.41 277.699 281.849 278.143 282.358C278.864 282.639 279.627 282.493 280.373 282.495C295.658 282.515 310.942 282.53 326.227 282.525C327.811 282.525 329.554 283.051 330.935 282.309C332.411 281.514 332.946 279.502 333.842 277.995C336.72 273.154 339.785 268.445 342.431 263.444C342.711 263.064 343.02 262.703 343.264 262.296C361.62 231.679 379.972 201.059 398.317 170.436C398.549 170.051 398.974 169.689 398.613 169.073C398.349 169.053 398.053 169.008 397.755 169.008C371.554 169.056 345.35 169.118 319.149 169.115C317.754 169.115 317.22 169.652 316.751 170.998C311.227 186.89 305.628 202.753 300.083 218.638C298.201 224.032 296.158 229.362 294.509 234.85L294.518 234.848ZM10.7779 214.239C10.8484 214.81 10.8735 215.394 10.9941 215.95C15.0803 234.999 19.1734 254.046 23.2869 273.09C23.4098 273.654 23.4144 274.351 23.9172 274.776C24.6725 274.227 25.0229 273.475 25.4711 272.824C29.1934 267.4 32.9156 261.973 36.6151 256.532C40.087 251.426 43.5339 246.297 46.9922 241.178C50.5006 236.099 54.034 231.038 57.5082 225.932C60.0723 222.162 63.2394 219.134 66.8297 216.601C70.561 213.971 74.645 212.799 79.0907 212.809C106.293 212.876 133.493 212.898 160.695 212.923C161.437 212.923 162.213 213.107 163.121 212.528C162.911 209.525 162.729 206.411 162.468 203.306C162.308 201.416 161.983 199.544 161.805 197.654C161.658 196.082 161.951 195.734 163.362 195.6C163.965 195.543 164.572 195.563 165.18 195.558C171.771 195.52 178.364 195.493 184.956 195.441C185.597 195.436 186.293 195.655 187.033 195.056C186.196 191.668 185.342 188.254 184.517 184.834C184.35 184.146 183.973 183.9 183.368 183.912C182.837 183.922 182.307 183.907 181.777 183.907C160.181 183.897 138.587 183.887 116.991 183.887C116.242 183.887 115.476 183.736 114.734 184.079C114.579 184.936 114.966 185.698 115.123 186.488C115.664 189.225 115.592 189.339 113.128 189.307C105.401 189.2 97.6722 189.11 89.9434 189.021C86.2166 188.979 86.9834 189.433 86.005 185.847C85.4795 183.922 85.509 183.887 83.7867 183.885C57.7971 183.855 31.8076 183.83 5.81798 183.813C5.31744 183.813 4.76229 183.649 4.21397 184.285C5.06262 188.273 5.89306 192.374 6.81452 196.452C8.15233 202.378 9.18755 208.383 10.7779 214.242V214.239ZM95.2378 312.971C95.2082 313.132 95.1513 313.294 95.1513 313.458C95.1377 328.749 95.1035 344.043 95.1513 359.334C95.1581 361.639 95.5677 363.971 96.5142 366.06C98.3457 370.095 100.978 372.798 105.528 372.591C109.838 372.395 114.161 372.542 118.477 372.519C120.44 372.51 120.454 372.49 120.472 370.329C120.597 355.122 120.709 339.915 120.838 324.708C120.882 319.525 120.215 320.042 125.034 320.024C131.698 319.999 138.362 319.97 145.026 320.009C146.161 320.017 146.86 319.731 147.183 318.45C147.604 316.786 148.325 315.221 148.582 313.497C148.737 313.12 148.923 312.755 149.037 312.365C154.011 295.33 157.612 277.95 160.056 260.277C161.639 248.83 162.702 237.334 163.055 225.755C163.259 219.057 159.537 214.475 153.41 214.465C130.833 214.428 108.259 214.448 85.682 214.46C85.2019 214.46 84.6354 214.244 84.2986 214.756C84.2145 215.158 84.4533 215.277 84.6217 215.401C88.4691 218.275 90.8057 222.353 92.4052 227.02C94.3664 232.739 95.1673 238.677 95.165 244.762C95.1513 266.759 95.1354 288.756 95.1263 310.753C95.1263 311.493 95.1968 312.236 95.2332 312.976L95.2378 312.971ZM230.505 305.6C230.719 305.267 230.967 304.956 231.142 304.601C240.1 286.382 246.704 267.196 250.993 247.055C253.209 236.651 254.679 226.123 255.323 215.471C255.666 209.776 255.619 204.066 255.403 198.357C255.359 197.199 255.011 196.663 253.928 196.797C253.628 196.834 253.323 196.804 253.02 196.807C231.954 196.857 210.891 196.914 189.825 196.956C181.566 196.973 173.307 196.954 165.045 196.963C163.096 196.963 163.091 196.988 163.357 198.988C165.029 211.582 164.77 224.206 163.88 236.842C163.614 240.622 163.357 244.405 163.096 248.185C163.002 248.493 162.854 248.793 162.82 249.108C161.255 263.973 158.782 278.66 155.458 293.172C152.113 307.765 148.016 322.086 142.303 335.812C140.717 339.625 138.915 343.32 136.99 347.016C137.761 347.44 138.439 347.269 139.085 347.269C159.301 347.269 179.516 347.237 199.731 347.284C201.155 347.286 202.131 346.777 203.121 345.766C209.168 339.585 214.472 332.703 219.288 325.364C223.429 319.053 227.295 312.551 230.51 305.607L230.505 305.6ZM10.944 362.642C10.9144 363.137 10.8553 363.628 10.8575 364.122C10.9144 373.63 10.9759 383.139 11.0464 392.646C11.0509 393.205 10.919 393.814 11.3103 394.248C11.7267 394.464 12.0861 394.313 12.4502 394.216C17.963 392.751 23.4758 391.295 28.9863 389.827C50 384.234 71.0115 378.636 92.0229 373.041C93.2485 372.715 93.8727 371.867 93.8954 370.498C93.9068 369.753 93.9182 369.01 93.9182 368.265C93.9227 328.076 93.9273 287.887 93.9227 247.695C93.9227 246.796 94.0797 245.875 93.7544 244.996C93.8226 237.11 92.5917 229.55 88.9628 222.614C88.0209 220.813 86.8195 219.209 85.3657 217.85C82.5695 215.238 79.3501 214.167 75.687 214.584C73.5461 214.828 71.5553 215.558 69.66 216.623C65.3485 219.05 61.7264 222.398 58.8187 226.617C52.2661 236.132 45.7659 245.689 39.2475 255.233C31.1 267.161 23.0162 279.14 14.7732 290.986C12.5321 294.205 11.0873 297.603 10.9781 301.616C10.8712 305.5 10.8598 309.387 10.8553 313.274C10.8439 328.821 10.8484 344.368 10.8553 359.918C10.8553 360.824 10.9144 361.731 10.944 362.637V362.642ZM136.824 394.777V394.832C164.634 394.832 192.446 394.832 220.255 394.824C221.154 394.824 222.046 394.869 222.956 394.623C233.165 391.869 243.38 389.149 253.601 386.45C255.261 386.01 256.715 385.183 258.028 384.033C261.687 380.834 261.35 377.949 257.052 375.959C254.379 374.72 251.532 374.325 248.659 373.987C243.822 373.416 238.98 373.856 234.145 373.789C221.95 373.622 209.751 373.821 197.553 373.848C164.06 373.923 130.567 373.982 97.0716 374.054C95.7884 374.057 94.512 374.024 93.2333 374.365C77.8712 378.46 62.4954 382.493 47.1447 386.634C44.8103 387.264 42.46 388.032 40.3737 389.433C39.3066 390.148 39.3248 390.731 40.3691 391.422C41.5477 392.202 42.8787 392.569 44.2028 392.922C49.9864 394.452 55.8996 394.728 61.7992 394.745C86.8059 394.822 111.813 394.777 136.819 394.777H136.824ZM293.546 348.841C290.591 348.841 287.658 348.831 284.723 348.841C274.348 348.886 263.973 348.933 253.598 348.99C251.553 349 251.562 349.022 250.861 351.027C250.456 352.184 250.065 353.349 249.589 354.471C246.459 361.87 242.061 368.007 235.183 371.673C235.124 371.705 235.149 371.926 235.128 372.13C235.815 372.13 236.496 372.13 237.176 372.13C249.746 372.115 262.319 372.07 274.89 372.125C276.43 372.132 277.684 371.762 278.778 370.627C279.217 370.172 279.704 369.77 280.127 369.301C285.046 363.862 289.242 357.817 292.782 351.23C293.146 350.552 293.699 349.907 293.546 348.841ZM113.649 187.633C113.532 185.139 112.463 183.892 110.441 183.892C103.417 183.892 96.3913 183.885 89.3678 183.905C88.6556 183.905 87.8866 183.649 87.2336 184.173C87.6432 187.481 87.6432 187.494 90.3916 187.533C96.1297 187.615 101.868 187.705 107.608 187.737C109.619 187.749 111.644 187.938 113.651 187.635L113.649 187.633ZM279.144 323.648C278.703 324.149 278.808 324.579 278.808 324.969C278.794 331.819 278.789 338.668 278.785 345.518C278.785 345.848 278.794 346.179 278.792 346.509C278.785 347.105 279.06 347.425 279.595 347.453C280.123 347.48 280.653 347.483 281.183 347.473C282.782 347.44 282.812 347.438 282.816 345.722C282.83 340.109 282.839 334.498 282.814 328.886C282.8 326.134 281.713 324.624 279.144 323.65V323.648ZM279.599 371.943C282.819 372.239 283.201 372.82 282.598 368.811C281.62 369.832 280.728 370.766 279.599 371.943Z" fill="#141010"/>
<path d="M181.755 441.432C162.737 441.422 146.371 441.127 130.015 440.392C119.799 439.935 109.588 439.291 99.4224 438.045C96.6398 437.704 93.8641 437.277 91.1316 436.594C90.0258 436.318 88.9224 435.993 87.944 435.337C86.8747 434.62 86.8474 433.542 87.9031 432.822C88.8086 432.206 89.8597 431.942 90.8904 431.684C93.698 430.979 96.5488 430.532 99.4065 430.194C113.201 428.562 127.052 427.946 140.913 427.487C159.626 426.868 178.342 426.955 197.062 427.117C211.16 427.239 225.239 427.807 239.302 428.754C247.535 429.307 255.783 429.903 263.91 431.625C265.25 431.908 266.595 432.203 267.785 432.961C269.011 433.741 269.022 434.811 267.814 435.616C266.495 436.495 264.968 436.738 263.485 437.011C256.457 438.3 249.372 439.073 242.266 439.562C221.234 441.007 200.173 441.365 181.755 441.43V441.432Z" fill="#030303"/>
<path d="M258.271 0.979482C273.124 0.979482 287.974 0.981965 302.827 0.979482C310.164 0.976998 314.762 4.41426 317.458 11.8749C318.778 15.5307 319.404 19.3579 319.59 23.2323C319.9 29.5976 319.697 35.9779 319.04 42.3061C314.596 85.083 303.414 125.828 287.822 165.238C287.672 165.618 287.451 165.973 287.36 166.368C287.019 167.836 286.184 168.104 284.848 168.104C258.326 168.089 231.806 168.139 205.284 168.178C202.563 168.183 202.572 168.196 203.553 165.394C211.928 141.465 219.188 117.156 224.326 92.1314C227.026 78.9784 229.119 65.7187 229.986 52.2577C230.48 44.5785 230.607 36.8993 229.656 29.2425C229.404 27.2084 229.399 27.1861 227.461 27.196C213.518 27.2606 199.576 27.3401 185.634 27.4071C182.205 27.4245 182.03 27.1513 183.513 23.6619C187.278 14.803 193.121 8.0949 201.128 3.70644C203.58 2.36283 206.254 1.6724 208.966 1.34705C211.141 1.08131 213.332 0.954646 215.534 0.959613C229.779 0.99935 244.026 0.979482 258.271 0.979482ZM204.636 166.544C205.737 166.932 206.652 166.775 207.553 166.773C232.33 166.71 257.107 166.559 281.881 166.661C284.95 166.673 286.263 165.665 287.435 162.637C301.675 125.873 312.178 87.9764 317.015 48.3213C318.036 39.9492 318.594 31.5448 318.155 23.0957C317.913 18.4414 317.147 13.8965 315.024 9.76635C312.653 5.15436 309.127 2.58635 304.158 2.58138C296.281 2.57145 288.402 2.51433 280.525 2.46466C279.604 2.45969 278.771 2.51184 278.018 3.28423C276.323 5.02025 274.202 5.96152 272.016 6.65444C267.286 8.14954 262.449 8.31098 257.607 7.56839C253.905 6.99965 250.349 5.83237 247.426 3.10542C246.764 2.48949 246.072 2.47459 245.314 2.47459C236.98 2.47459 228.644 2.47459 220.31 2.48949C219.909 2.48949 219.409 2.30322 219.081 3.07065C220.806 4.19322 222.398 5.53186 223.729 7.21324C226.046 10.1389 227.561 13.5389 228.689 17.1649C231.285 25.5022 231.756 34.1649 231.697 42.8524C231.611 55.2802 230.161 67.5764 228.07 79.7806C224.31 101.738 218.688 123.149 212.055 144.259C209.728 151.67 207.239 159.019 204.638 166.542L204.636 166.544ZM184.653 25.7854C187.046 25.7854 189.383 25.7854 191.722 25.7854C201.114 25.7854 210.508 25.7705 219.9 25.7854C221.741 25.7878 223.52 25.5718 225.186 24.6429C227.681 23.2496 228.46 21.4565 227.656 18.5433C227.024 16.2509 226.171 14.048 225.088 11.9494C220.833 3.69899 214.144 0.924843 205.783 3.56984C195.742 6.74633 189.208 14.3684 184.719 24.3523C184.557 24.7125 184.407 25.1123 184.655 25.7804L184.653 25.7854ZM276.316 2.64347C271.24 2.14179 251.039 2.33303 249.594 2.86699C255.063 7.75466 270.942 7.6727 276.316 2.64347Z" fill="#141010"/>
<path d="M10.9353 362.637C10.9034 361.731 10.8466 360.824 10.8466 359.918C10.842 344.371 10.8352 328.823 10.8466 313.274C10.8488 309.387 10.8625 305.5 10.9694 301.616C11.0786 297.602 12.5257 294.207 14.7644 290.986C23.0075 279.14 31.0913 267.159 39.2387 255.233C45.7572 245.691 52.2574 236.132 58.81 226.617C61.7154 222.398 65.3398 219.05 69.6513 216.623C71.5465 215.555 73.5373 214.828 75.6783 214.584C79.3414 214.167 82.5608 215.237 85.357 217.85C86.8131 219.209 88.0122 220.811 88.9541 222.614C92.5807 229.55 93.8139 237.11 93.7457 244.995C93.3725 245.202 93.2519 245.557 93.1768 245.989C92.0483 252.459 90.4216 258.787 88.631 265.068C86.7676 271.604 84.4856 277.975 81.9874 284.246C79.6076 290.224 76.8933 296.02 73.8763 301.656C70.0654 308.776 65.9359 315.651 61.2649 322.138C58.5142 325.957 55.6657 329.693 52.5873 333.197C48.7195 337.6 44.7606 341.904 40.3308 345.672C35.8578 349.477 31.2574 353.051 26.261 355.989C21.3898 358.852 16.2456 360.981 10.933 362.637H10.9353ZM58.6075 240.865C58.5506 244.966 60.4823 246.386 63.3012 244.923C64.523 244.29 65.7289 243.625 66.8596 242.763C69.1303 241.034 70.9049 238.797 72.5567 236.45C75.0435 232.913 77.3665 229.27 77.9535 224.66C78.2743 222.129 76.2312 220.1 74.0606 220.987C72.8662 221.474 71.6762 222 70.6205 222.832C67.1531 225.562 64.2295 228.87 61.77 232.667C60.0454 235.329 58.9124 238.265 58.6075 240.865ZM54.8853 247.993C52.7329 248.038 50.8582 250.136 50.8787 252.476C50.8946 254.257 52.4281 255.923 54.0594 255.933C56.2595 255.946 58.1411 253.782 58.1411 251.244C58.1411 249.267 56.826 247.953 54.8853 247.993Z" fill="#FCF6F5"/>
<path d="M163.092 248.178C163.353 244.398 163.61 240.615 163.877 236.835C164.766 224.199 165.026 211.575 163.353 198.981C163.087 196.984 163.092 196.959 165.041 196.957C173.3 196.947 181.559 196.967 189.821 196.949C210.887 196.907 231.95 196.853 253.017 196.8C253.319 196.8 253.626 196.828 253.924 196.79C255.01 196.656 255.355 197.193 255.399 198.35C255.615 204.057 255.663 209.767 255.319 215.464C254.675 226.119 253.205 236.644 250.989 247.048C246.701 267.19 240.096 286.375 231.138 304.595C230.963 304.95 230.715 305.263 230.501 305.593C229.07 305.593 227.655 305.533 226.233 305.958C225.387 306.209 224.372 306.244 223.537 305.983C221.032 305.201 218.445 305.725 215.908 305.156C213.26 304.562 210.607 304.016 207.997 303.234C207.485 303.08 206.967 302.926 206.721 302.322C209.695 297.32 212.211 292.073 213.874 286.37C216.215 278.346 217.535 270.192 216.436 261.743C215.942 257.943 214.987 254.317 212.93 251.136C209.999 246.601 205.583 245.016 200.758 246.747C199.679 247.135 198.648 247.642 197.663 248.27C194.212 250.475 191.418 253.451 189.045 256.935C185.725 261.813 183.232 267.16 181.391 272.877C180.299 276.272 179.496 279.761 178.684 283.243C178.042 282.928 177.585 282.362 177.168 281.783C173.444 276.605 170.036 271.238 167.599 265.146C165.41 259.677 163.933 254.039 163.089 248.17L163.092 248.178ZM207.638 234.908C210.627 234.841 213.687 234.407 216.591 233.095C218.852 232.072 220.9 230.699 222.349 228.466C224.31 225.446 224.253 221.994 222.183 219.068C221.2 217.677 219.988 216.545 218.552 215.767C211.453 211.908 204.318 211.928 197.206 215.705C195.486 216.619 194.059 217.988 193.029 219.778C191.477 222.475 191.441 225.205 192.942 227.942C193.982 229.839 195.511 231.153 197.263 232.196C200.457 234.101 203.931 234.742 207.638 234.908Z" fill="#E0F450"/>
<path d="M95.2439 312.971C95.2052 312.231 95.1347 311.488 95.137 310.748C95.1461 288.751 95.162 266.754 95.1757 244.757C95.1802 238.672 94.3771 232.734 92.4158 227.014C90.8164 222.35 88.4798 218.27 84.6324 215.396C84.4663 215.272 84.2251 215.153 84.3093 214.751C84.646 214.239 85.2126 214.455 85.6926 214.455C108.269 214.445 130.844 214.423 153.421 214.46C159.546 214.47 163.268 219.052 163.065 225.75C162.713 237.329 161.65 248.825 160.067 260.272C157.623 277.945 154.021 295.325 149.048 312.36C148.934 312.75 148.745 313.115 148.593 313.492C146.031 313.564 143.476 313.721 140.916 313.919C135.799 314.317 130.655 313.895 125.515 314.426C122.537 314.734 119.498 314.352 116.478 314.13C110.911 313.721 105.3 314.126 99.7192 313.549C98.2199 313.395 96.7 313.529 95.2462 312.966L95.2439 312.971ZM121.823 238.568C121.798 234.269 118.715 230.981 114.695 230.963C110.997 230.948 107.789 234.482 107.771 238.595C107.751 242.8 110.997 246.374 114.84 246.374C118.701 246.374 121.848 242.855 121.825 238.57L121.823 238.568ZM135.062 238.759C135.196 236.159 133.342 233.822 131.053 233.703C128.76 233.583 126.642 235.694 126.498 238.235C126.362 240.667 128.168 242.874 130.455 243.068C132.885 243.274 134.928 241.362 135.062 238.757V238.759Z" fill="#FA420F"/>
<path d="M10.7715 214.237C9.1811 208.378 8.14589 202.373 6.80807 196.447C5.88662 192.369 5.05617 188.269 4.20752 184.28C4.75584 183.644 5.31099 183.808 5.81153 183.808C31.8011 183.826 57.7907 183.851 83.7803 183.88C85.5026 183.88 85.473 183.918 85.9986 185.842C86.9769 189.429 86.2102 188.972 89.937 189.016C97.6658 189.106 105.392 189.195 113.121 189.302C115.583 189.337 115.658 189.22 115.117 186.483C114.96 185.693 114.573 184.931 114.728 184.074C115.467 183.734 116.236 183.883 116.985 183.883C138.581 183.883 160.175 183.895 181.771 183.903C182.301 183.903 182.831 183.918 183.361 183.908C183.964 183.898 184.344 184.141 184.51 184.829C185.336 188.251 186.191 191.664 187.026 195.051C186.287 195.65 185.591 195.431 184.949 195.436C178.358 195.489 171.764 195.516 165.173 195.553C164.568 195.556 163.958 195.536 163.355 195.595C161.945 195.732 161.653 196.077 161.799 197.649C161.977 199.539 162.3 201.412 162.461 203.302C162.725 206.406 162.905 209.521 163.114 212.523C162.204 213.102 161.43 212.918 160.689 212.918C133.487 212.893 106.287 212.873 79.0843 212.804C74.6385 212.794 70.5546 213.966 66.8232 216.596C63.2307 219.13 60.0659 222.157 57.5017 225.927C54.0275 231.033 50.4941 236.095 46.9858 241.174C40.5128 239.718 34.3539 237.314 28.6727 233.614C23.0007 229.918 17.9452 225.45 14.0204 219.532C12.8737 217.803 12.132 215.794 10.7715 214.237Z" fill="#D3E6EB"/>
<path d="M10.9558 362.64C16.2684 360.984 21.4126 358.855 26.2838 355.992C31.2802 353.054 35.8829 349.48 40.3537 345.675C44.7812 341.907 48.74 337.601 52.6101 333.2C55.6885 329.698 58.537 325.963 61.2878 322.141C65.9587 315.654 70.0882 308.779 73.8992 301.659C76.9138 296.023 79.6304 290.227 82.0102 284.249C84.5084 277.978 86.7882 271.608 88.6538 265.071C90.4444 258.79 92.0712 252.462 93.1997 245.992C93.2747 245.56 93.3976 245.205 93.7685 244.999C94.0938 245.878 93.9368 246.797 93.9368 247.698C93.9414 287.887 93.9368 328.076 93.9323 368.268C93.9323 369.013 93.9232 369.756 93.9095 370.501C93.8868 371.865 93.2626 372.713 92.037 373.044C71.0256 378.642 50.0119 384.237 29.0004 389.83C23.4899 391.298 17.9771 392.753 12.4643 394.219C12.098 394.316 11.7408 394.467 11.3244 394.251C10.9308 393.816 11.0628 393.208 11.0605 392.649C10.99 383.142 10.9285 373.632 10.8716 364.125C10.8694 363.631 10.9285 363.139 10.9581 362.645L10.9558 362.64Z" fill="#ECDEDB"/>
<path d="M294.509 234.842C296.158 229.353 298.201 224.024 300.083 218.629C305.628 202.744 311.227 186.882 316.751 170.99C317.22 169.643 317.754 169.107 319.149 169.107C345.35 169.11 371.554 169.047 397.755 169C398.051 169 398.349 169.045 398.613 169.065C398.975 169.681 398.547 170.041 398.317 170.428C379.972 201.053 361.62 231.673 343.264 262.288C343.021 262.695 342.709 263.053 342.431 263.435C341.423 263.227 340.532 263.855 339.537 263.895C335.515 264.056 331.556 263.53 327.665 262.534C321.197 260.877 315.354 257.701 309.86 253.633C303.277 248.76 298.261 242.437 294.513 234.842H294.509ZM344.684 216.645C344.741 214.385 344.495 212.177 343.719 210.076C342.149 205.834 338.834 204.009 334.734 205.086C331.79 205.859 329.253 207.493 327.058 209.701C319.725 217.085 315.254 226.17 313.839 236.961C313.441 240.003 313.607 243.083 314.706 245.991C316.039 249.522 318.533 251.236 321.989 251.102C325.012 250.985 327.497 249.433 329.829 247.548C333.601 244.501 336.504 240.589 338.896 236.228C342.206 230.193 344.468 223.77 344.681 216.643L344.684 216.645ZM348.722 196.141C352.028 196.106 355.823 195.56 359.002 192.775C362.323 189.865 362.326 185.62 359.065 182.635C358.016 181.674 356.815 180.996 355.539 180.449C353.83 179.719 352.044 179.377 350.24 179.245C346.711 178.987 343.298 179.558 340.192 181.515C338.011 182.891 336.279 184.726 336.322 187.731C336.366 190.717 338.127 192.505 340.306 193.883C341.018 194.333 341.808 194.641 342.575 194.981C344.349 195.771 346.231 195.952 348.722 196.141Z" fill="#E0F450"/>
<path d="M136.825 394.774C111.818 394.774 86.8117 394.819 61.805 394.742C55.9055 394.725 49.9922 394.451 44.2087 392.919C42.8845 392.569 41.5535 392.199 40.375 391.419C39.3306 390.728 39.3124 390.147 40.3795 389.43C42.4659 388.029 44.8161 387.259 47.1505 386.631C62.5012 382.49 77.877 378.457 93.2392 374.362C94.5156 374.021 95.7919 374.054 97.0774 374.051C130.571 373.979 164.064 373.92 197.559 373.845C209.757 373.818 221.956 373.622 234.151 373.786C238.986 373.85 243.828 373.413 248.665 373.984C251.538 374.322 254.382 374.719 257.058 375.956C261.356 377.946 261.693 380.831 258.034 384.03C256.721 385.178 255.267 386.007 253.606 386.447C243.386 389.146 233.171 391.866 222.962 394.62C222.052 394.866 221.16 394.819 220.261 394.821C192.451 394.831 164.639 394.829 136.83 394.829V394.774H136.825Z" fill="#FA420F"/>
<path d="M281.863 265.852C280.878 269.845 279.245 273.58 277.975 277.462C277.465 279.019 276.876 280.542 276.369 282.099C275.829 283.756 276.062 284.111 277.736 284.15C279.474 284.193 281.213 284.16 283.087 284.16C282.876 285.683 282.073 286.706 281.54 287.853C280.676 289.719 280.921 290.272 282.785 290.25C286.043 290.21 289.305 290.193 292.552 289.967C296.033 289.726 299.517 289.691 303 289.664C305.077 289.647 305.098 289.684 305.098 292.008C305.109 305.159 305.118 318.309 305.116 331.46C305.116 344.278 305.102 357.098 305.095 369.916C305.095 372.066 305.095 372.089 303.111 372.091C297.428 372.104 291.747 372.104 286.063 372.096C284.252 372.096 284.332 372.069 284.198 370.02C284.059 367.926 284.582 366.287 285.877 364.643C289.235 360.374 292.234 355.796 294.634 350.79C296.095 347.745 295.938 347.479 292.871 347.474C290.825 347.472 288.78 347.479 286.735 347.474C284.22 347.467 284.211 347.464 284.207 344.819C284.195 337.542 284.198 330.263 284.186 322.986C284.182 319.7 284.175 319.685 281.238 319.683C271.463 319.675 261.687 319.529 251.917 319.73C243.583 319.901 235.254 319.787 226.922 319.864C226.294 319.869 225.429 320.254 225.083 319.427C224.815 318.784 225.479 318.245 225.791 317.701C230.091 310.193 234.025 302.469 237.429 294.427C237.743 293.685 238.152 292.992 238.519 292.277C239.59 292.19 240.584 291.79 241.556 291.333C248.152 288.238 254.663 284.96 260.906 281.066C267.664 276.851 274.18 272.269 280.039 266.641C280.585 266.117 281.133 265.78 281.863 265.854V265.852Z" fill="#B20000"/>
<path d="M163.097 248.175C163.941 254.041 165.418 259.681 167.607 265.15C170.046 271.242 173.452 276.609 177.176 281.788C177.592 282.366 178.047 282.933 178.691 283.248C178.63 284.232 178.612 285.222 178.496 286.199C177.927 290.979 177.881 295.755 178.707 300.501C179.319 304.026 180.389 307.373 182.546 310.162C185.264 313.679 188.673 315.112 192.868 314.079C196.304 313.232 199.07 311.139 201.625 308.62C203.543 306.73 205.093 304.485 206.729 302.324C206.974 302.925 207.493 303.082 208.005 303.236C210.615 304.018 213.268 304.565 215.916 305.158C218.453 305.727 221.04 305.203 223.545 305.985C224.38 306.246 225.397 306.214 226.241 305.96C227.665 305.536 229.08 305.593 230.509 305.595C227.296 312.537 223.431 319.041 219.288 325.352C214.471 332.691 209.17 339.573 203.12 345.755C202.13 346.765 201.154 347.277 199.73 347.272C179.515 347.225 159.3 347.257 139.085 347.257C138.439 347.257 137.758 347.426 136.989 347.004C138.912 343.308 140.714 339.613 142.302 335.8C148.015 322.074 152.112 307.753 155.457 293.16C158.781 278.648 161.254 263.963 162.82 249.096C162.854 248.781 162.999 248.481 163.095 248.173L163.097 248.175ZM180.32 323.946C179.868 323.946 179.41 323.912 178.96 323.951C175.913 324.217 172.962 324.855 170.455 326.924C167.454 329.4 167.438 332.87 170.376 335.42C171.09 336.041 171.907 336.466 172.742 336.856C174.43 337.643 176.218 338.008 178.022 338.157C181.858 338.475 185.597 337.961 188.914 335.666C192.775 332.994 192.684 328.841 188.791 326.229C188.279 325.886 187.726 325.608 187.171 325.354C184.98 324.359 182.684 323.946 180.318 323.946H180.32Z" fill="#A9BB24"/>
<path d="M237.767 368.154C234.802 370.643 231.442 372.021 227.715 372.111C222.641 372.232 217.566 372.237 212.49 372.242C197.264 372.257 182.038 372.232 166.81 372.257C152.948 372.279 139.087 372.351 125.224 372.399C124.694 372.399 124.164 372.414 123.634 372.399C121.937 372.354 121.898 372.349 121.909 370.417C122.007 354.624 122.121 338.833 122.221 323.04C122.226 322.151 122.212 321.461 123.372 321.471C130.794 321.533 138.216 321.528 145.635 321.55C145.694 321.55 145.753 321.62 145.831 321.667C146.049 322.543 145.553 323.261 145.294 324.001C142.529 331.877 139.453 339.596 135.413 346.815C134.5 348.445 134.664 348.76 136.464 348.775C140.402 348.805 144.343 348.782 148.281 348.782C162.447 348.78 176.612 348.775 190.777 348.775C191.608 348.775 192.44 348.827 193.271 348.854C193.366 350.096 194.288 350.6 195.057 351.249C200.538 355.868 206.579 359.407 212.97 362.253C220.917 365.792 229.098 368.196 237.765 368.154H237.767Z" fill="#A3B0B3"/>
<path d="M237.761 368.15C229.095 368.192 220.914 365.788 212.966 362.249C206.575 359.403 200.535 355.864 195.054 351.245C194.285 350.596 193.363 350.092 193.268 348.85C195.461 348.823 197.656 348.714 199.847 348.801C201.383 348.86 202.548 348.386 203.699 347.216C210.768 340.026 216.889 331.965 222.292 323.252C223.209 321.774 224.169 321.258 225.782 321.258C242.132 321.265 258.482 321.181 274.829 321.124C274.981 321.124 275.131 321.121 275.284 321.124C277.352 321.144 277.418 320.702 277.418 323.334C277.418 326.888 277.418 330.44 277.409 333.994C277.4 337.794 277.391 341.593 277.368 345.396C277.357 347.417 277.343 347.442 275.536 347.447C268.347 347.46 261.155 347.452 253.965 347.455C253.588 347.455 253.208 347.455 252.83 347.455C250.525 347.465 250.514 347.46 249.79 349.782C248.366 354.354 246.398 358.611 243.588 362.356C241.911 364.589 240.137 366.74 237.764 368.155L237.761 368.15Z" fill="#D3E6EB"/>
<path d="M281.868 265.848C281.137 265.776 280.589 266.111 280.043 266.635C274.187 272.263 267.668 276.845 260.911 281.06C254.668 284.954 248.156 288.232 241.56 291.327C240.589 291.781 239.595 292.181 238.523 292.271C239.977 288.376 241.456 284.49 242.88 280.58C248.127 266.188 251.997 251.361 254.458 236.107C255.496 229.682 256.231 223.205 256.611 216.686C256.729 214.659 256.772 214.627 258.579 214.624C268.801 214.614 279.024 214.604 289.246 214.639C292.366 214.649 294.889 216.236 297.164 218.447C298.049 219.308 298.11 220.15 297.701 221.288C295.908 226.285 294.167 231.306 292.413 236.318C289.36 245.033 286.311 253.75 283.256 262.463C282.851 263.615 282.512 264.805 281.865 265.841L281.868 265.848ZM281.599 225.699C284.232 225.699 286.509 225.786 288.727 225.15C289.785 224.847 291.276 224.775 291.33 223.27C291.383 221.874 289.947 221.65 288.98 221.37C283.783 219.86 278.519 219.852 273.258 220.883C272.282 221.074 270.822 221.27 270.758 222.602C270.685 224.099 272.166 224.33 273.211 224.663C276.066 225.569 279.003 225.786 281.599 225.701V225.699ZM265.234 224.541C266.724 224.531 267.873 223.764 267.862 222.788C267.85 221.809 266.704 220.908 265.329 220.794C263.919 220.677 262.456 221.489 262.342 222.45C262.215 223.538 263.616 224.554 265.234 224.541Z" fill="#FA420F"/>
<path d="M95.2322 312.967C96.6837 313.53 98.2058 313.396 99.7052 313.55C105.286 314.124 110.897 313.719 116.464 314.131C119.483 314.355 122.521 314.735 125.501 314.427C130.641 313.895 135.785 314.318 140.902 313.92C143.462 313.722 146.017 313.565 148.579 313.493C148.322 315.214 147.6 316.781 147.177 318.445C146.852 319.724 146.156 320.01 145.02 320.005C138.356 319.965 131.692 319.995 125.028 320.02C120.209 320.037 120.876 319.521 120.833 324.704C120.703 339.911 120.592 355.118 120.466 370.325C120.448 372.485 120.435 372.505 118.471 372.515C114.155 372.537 109.832 372.391 105.523 372.587C100.972 372.793 98.3401 370.091 96.5085 366.055C95.5598 363.967 95.1525 361.635 95.1457 359.33C95.0979 344.038 95.132 328.745 95.1457 313.453C95.1457 313.292 95.2026 313.13 95.2322 312.967Z" fill="#B20000"/>
<path d="M294.518 234.847C298.265 242.441 303.282 248.765 309.864 253.637C315.361 257.705 321.201 260.882 327.67 262.539C331.558 263.534 335.519 264.061 339.542 263.9C340.536 263.86 341.428 263.234 342.436 263.44C339.787 268.442 336.725 273.153 333.844 277.991C332.948 279.499 332.413 281.51 330.937 282.305C329.556 283.048 327.811 282.521 326.229 282.521C310.945 282.529 295.66 282.514 280.375 282.491C279.629 282.491 278.867 282.638 278.145 282.355C277.699 281.846 278.095 281.409 278.239 280.996C283.544 265.817 288.862 250.645 294.183 235.473C294.261 235.249 294.406 235.053 294.52 234.844L294.518 234.847ZM311.47 272.843C314.51 272.828 317.408 271.75 319.249 269.942C322.036 267.203 321.765 263.184 318.642 260.912C314.835 258.143 308.255 258.47 304.715 261.602C301.471 264.473 301.669 268.608 305.195 271.042C307.102 272.359 309.229 272.865 311.47 272.843Z" fill="#A9BB24"/>
<path d="M293.554 348.835C293.704 349.903 293.153 350.549 292.789 351.225C289.249 357.811 285.054 363.856 280.135 369.295C279.709 369.764 279.222 370.167 278.785 370.621C277.691 371.756 276.437 372.126 274.897 372.119C262.327 372.067 249.754 372.109 237.183 372.124C236.503 372.124 235.825 372.124 235.136 372.124C235.158 371.918 235.131 371.697 235.19 371.667C242.068 368.004 246.468 361.864 249.597 354.466C250.072 353.343 250.464 352.178 250.869 351.021C251.569 349.017 251.56 348.994 253.606 348.984C263.981 348.93 274.356 348.88 284.73 348.835C287.663 348.823 290.596 348.835 293.554 348.835ZM270.133 357.65C267.205 357.635 264.706 358.129 262.434 359.604C261.294 360.347 260.32 361.271 260.384 362.892C260.452 364.646 261.642 365.416 262.9 366.064C263.865 366.563 264.918 366.767 265.965 366.898C269.266 367.313 272.451 366.866 275.359 365.006C276.494 364.281 277.452 363.277 277.313 361.653C277.177 360.056 276.11 359.254 274.893 358.673C273.277 357.903 271.571 357.607 270.133 357.645V357.65Z" fill="#A9BB24"/>
<path d="M10.7852 214.239C12.1457 215.796 12.8874 217.805 14.0341 219.534C17.9589 225.452 23.0143 229.92 28.6864 233.615C34.3699 237.318 40.5265 239.722 46.9995 241.175C43.5412 246.294 40.0942 251.423 36.6223 256.529C32.9228 261.97 29.2006 267.397 25.4784 272.821C25.0302 273.472 24.6821 274.224 23.9244 274.773C23.4216 274.346 23.4148 273.65 23.2942 273.087C19.1806 254.045 15.0876 234.996 11.0013 215.947C10.8807 215.388 10.8557 214.807 10.7852 214.236V214.239Z" fill="#A3B0B3"/>
<path d="M113.647 187.628C111.64 187.931 109.615 187.742 107.604 187.729C101.866 187.697 96.1255 187.605 90.3875 187.526C87.639 187.486 87.639 187.474 87.2295 184.165C87.8825 183.644 88.6538 183.9 89.3636 183.897C96.3872 183.877 103.413 183.885 110.437 183.885C112.46 183.885 113.529 185.132 113.645 187.625L113.647 187.628Z" fill="#FCF6F5"/>
<path d="M279.144 323.644C281.712 324.618 282.8 326.128 282.814 328.88C282.839 334.49 282.83 340.103 282.816 345.716C282.811 347.432 282.782 347.437 281.182 347.467C280.654 347.477 280.124 347.474 279.594 347.447C279.059 347.42 278.784 347.099 278.791 346.503C278.793 346.173 278.784 345.842 278.784 345.512C278.789 338.662 278.793 331.813 278.807 324.963C278.807 324.573 278.702 324.141 279.144 323.642V323.644Z" fill="#FCF6F5"/>
<path d="M15.4223 244.519C14.1686 244.427 14.1641 243.331 13.9593 242.378C12.196 234.095 10.4214 225.817 8.66265 217.535C6.57857 207.725 4.50359 197.912 2.44226 188.094C2.23977 187.128 1.7688 186.08 2.72894 184.95C3.50705 186.525 3.63674 188.084 3.95527 189.552C7.73437 206.984 11.4748 224.427 15.2152 241.869C15.4018 242.738 15.7203 243.61 15.4132 244.529L15.42 244.519H15.4223Z" fill="#B20000"/>
<path d="M279.605 371.938C280.732 370.761 281.626 369.827 282.604 368.806C283.209 372.815 282.825 372.234 279.605 371.938Z" fill="#ECDEDB"/>
<path d="M15.3999 244.529C15.6956 244.57 15.4469 244.279 15.5769 244.566C15.6486 244.725 15.5164 244.749 15.4066 244.521L15.3999 244.531V244.529Z" fill="#B20000"/>
<path d="M204.636 166.545C207.234 159.02 209.723 151.673 212.053 144.262C218.685 123.152 224.307 101.741 228.068 79.7838C230.159 67.582 231.611 55.2859 231.695 42.8556C231.754 34.1681 231.283 25.5054 228.687 17.1681C227.559 13.542 226.043 10.142 223.727 7.2164C222.399 5.5375 220.804 4.19638 219.079 3.0738C219.407 2.3039 219.909 2.49265 220.308 2.49265C228.642 2.47775 236.978 2.48023 245.312 2.47775C246.067 2.47775 246.761 2.49265 247.423 3.10857C250.349 5.83553 253.903 7.00281 257.605 7.57155C262.444 8.31413 267.284 8.1527 272.014 6.65759C274.203 5.96716 276.321 5.0234 278.016 3.28739C278.769 2.515 279.602 2.46285 280.523 2.46781C288.4 2.51748 296.279 2.57461 304.155 2.58454C309.125 2.58951 312.651 5.15752 315.022 9.7695C317.145 13.8972 317.909 18.4446 318.153 23.0988C318.592 31.5479 318.034 39.9523 317.013 48.3244C312.176 87.9795 301.673 125.876 287.433 162.641C286.261 165.668 284.948 166.676 281.879 166.664C257.104 166.562 232.328 166.714 207.551 166.776C206.652 166.776 205.735 166.935 204.634 166.547L204.636 166.545ZM296.55 61.0105C296.613 55.0077 295.885 49.1341 294.183 43.4268C292.689 38.415 290.532 33.7906 286.939 30.1571C282.054 25.2148 276.478 23.8538 270.157 26.4963C267.343 27.6711 264.954 29.5089 262.797 31.7416C258.317 36.376 255.173 42.0012 252.936 48.2127C248.131 61.5569 246.766 75.2388 250.04 89.266C251.423 95.1968 253.739 100.651 257.905 104.917C261.907 109.015 266.61 110.806 272.089 109.475C275.329 108.688 278.143 106.937 280.682 104.634C283.447 102.128 285.749 99.173 287.656 95.8674C293.799 85.2178 296.397 73.483 296.547 61.0105H296.55ZM255.742 148.303C257.466 148.395 259.345 148.209 261.195 147.729C264.945 146.758 268.396 145.169 270.863 141.751C273.267 138.421 273.129 134.286 270.567 131.107C269.19 129.401 267.488 128.174 265.559 127.366C259.17 124.694 252.836 124.93 246.607 127.977C244.582 128.968 242.83 130.411 241.497 132.386C239.337 135.582 239.392 139.32 241.642 142.447C242.884 144.173 244.502 145.375 246.313 146.274C249.25 147.732 252.336 148.412 255.742 148.298V148.303Z" fill="#E0F450"/>
<path d="M184.658 25.7886C184.41 25.1181 184.56 24.7207 184.722 24.3606C189.213 14.3766 195.745 6.75455 205.786 3.57807C214.147 0.930583 220.836 3.70721 225.091 11.9576C226.174 14.0562 227.027 16.2592 227.66 18.5515C228.463 21.4622 227.685 23.2579 225.189 24.6511C223.523 25.58 221.744 25.7961 219.903 25.7936C210.511 25.7787 201.117 25.7886 191.725 25.7936C189.386 25.7936 187.05 25.7936 184.656 25.7936L184.658 25.7886Z" fill="#A9BB24"/>
<path d="M276.311 2.64097C270.935 7.67019 255.058 7.75215 249.589 2.86449C251.034 2.33052 271.235 2.13928 276.311 2.64097Z" fill="#ECDEDB"/>
<path d="M58.6155 240.864C58.9204 238.264 60.0534 235.328 61.778 232.666C64.2375 228.868 67.1611 225.558 70.6285 222.831C71.6842 221.999 72.8741 221.472 74.0686 220.986C76.2392 220.099 78.2823 222.128 77.9615 224.659C77.3768 229.266 75.0538 232.912 72.5647 236.448C70.9129 238.798 69.1383 241.033 66.8676 242.761C65.7368 243.623 64.531 244.289 63.3092 244.922C60.4925 246.385 58.5586 244.964 58.6155 240.864Z" fill="#FCF6F5"/>
<path d="M54.9072 247.992C56.8479 247.952 58.163 249.266 58.163 251.243C58.163 253.781 56.2814 255.942 54.0813 255.932C52.4522 255.924 50.9165 254.255 50.9006 252.475C50.8801 250.135 52.7548 248.039 54.9072 247.992Z" fill="#FCF6F5"/>
<path d="M206.72 302.32C205.084 304.481 203.535 306.726 201.617 308.616C199.062 311.134 196.295 313.228 192.859 314.075C188.664 315.108 185.256 313.675 182.537 310.158C180.378 307.366 179.311 304.019 178.699 300.497C177.873 295.751 177.918 290.975 178.487 286.194C178.603 285.218 178.619 284.227 178.683 283.244C179.495 279.759 180.298 276.272 181.39 272.877C183.231 267.157 185.724 261.81 189.044 256.935C191.417 253.448 194.211 250.475 197.662 248.27C198.645 247.642 199.676 247.132 200.757 246.747C205.582 245.019 209.998 246.603 212.929 251.136C214.986 254.317 215.939 257.941 216.435 261.743C217.534 270.195 216.212 278.346 213.873 286.37C212.21 292.073 209.696 297.32 206.72 302.322V302.32ZM180.091 285.22C179.067 291.586 179.163 297.892 181.037 304.073C181.759 306.447 182.846 308.633 184.573 310.342C186.794 312.537 189.358 313.399 192.336 312.684C193.983 312.289 195.51 311.606 196.932 310.632C200.12 308.449 202.766 305.658 204.852 302.238C207.621 298.567 209.564 294.372 211.166 289.999C214.494 280.904 216.283 271.526 215.027 261.681C214.551 257.963 213.598 254.394 211.384 251.419C208.981 248.188 205.928 246.877 202.119 247.915C198.93 248.784 196.347 250.726 194.04 253.172C188.022 259.553 184.334 267.426 181.879 276.056C181.031 279.044 180.253 282.066 180.091 285.22Z" fill="#141010"/>
<path d="M207.632 234.907C203.926 234.74 200.452 234.1 197.257 232.195C195.505 231.149 193.976 229.838 192.937 227.94C191.435 225.204 191.471 222.472 193.023 219.777C194.056 217.984 195.48 216.618 197.2 215.704C204.313 211.924 211.448 211.907 218.546 215.766C219.98 216.546 221.192 217.676 222.178 219.067C224.246 221.992 224.305 225.444 222.344 228.464C220.892 230.697 218.847 232.073 216.585 233.094C213.682 234.405 210.624 234.84 207.632 234.907ZM208.36 233.439C209.291 233.33 210.66 233.283 211.989 232.992C215.215 232.287 218.264 231.105 220.587 228.383C222.94 225.626 222.953 222.285 220.649 219.501C219.411 218.006 217.887 216.943 216.178 216.211C210.583 213.811 204.979 213.826 199.396 216.248C197.694 216.985 196.17 218.053 194.937 219.558C192.605 222.402 192.655 225.623 195.044 228.412C196.038 229.572 197.21 230.449 198.5 231.169C201.466 232.818 204.654 233.34 208.36 233.444V233.439Z" fill="#141010"/>
<path d="M121.828 238.567C121.853 242.853 118.705 246.373 114.844 246.37C111.001 246.37 107.754 242.799 107.775 238.592C107.795 234.479 111.001 230.945 114.698 230.96C118.718 230.977 121.801 234.265 121.826 238.564L121.828 238.567ZM120.479 238.527C120.461 235.157 117.867 232.388 114.803 232.467C111.638 232.549 109.162 235.266 109.192 238.621C109.224 241.996 111.763 244.701 114.88 244.679C117.988 244.656 120.497 241.9 120.479 238.529V238.527Z" fill="#141010"/>
<path d="M135.067 238.758C134.932 241.364 132.889 243.276 130.459 243.07C128.173 242.876 126.366 240.668 126.503 238.237C126.644 235.696 128.764 233.585 131.058 233.704C133.347 233.823 135.201 236.161 135.067 238.761V238.758ZM133.672 238.416C133.69 236.637 132.491 235.284 130.842 235.217C129.315 235.155 127.929 236.63 127.911 238.336C127.893 240.04 129.208 241.498 130.778 241.52C132.389 241.542 133.652 240.186 133.67 238.413L133.672 238.416Z" fill="#141010"/>
<path d="M344.692 216.652C344.478 223.78 342.216 230.202 338.906 236.237C336.512 240.598 333.609 244.51 329.839 247.557C327.507 249.442 325.023 250.995 321.999 251.111C318.541 251.245 316.049 249.529 314.716 246C313.617 243.089 313.451 240.01 313.849 236.97C315.262 226.179 319.735 217.094 327.068 209.71C329.261 207.5 331.8 205.868 334.745 205.096C338.844 204.018 342.159 205.843 343.729 210.085C344.507 212.186 344.751 214.394 344.694 216.654L344.692 216.652ZM343.322 215.718C343.37 214.546 343.149 212.591 342.455 210.721C341.113 207.103 338.453 205.642 334.974 206.576C332.795 207.162 330.904 208.362 329.189 209.874C321.821 216.369 317.476 224.853 315.544 234.884C314.962 237.906 314.857 240.944 315.578 243.971C316.718 248.752 319.903 250.657 324.215 249.147C326.945 248.191 329.209 246.415 331.259 244.304C336.028 239.386 339.347 233.446 341.509 226.71C342.564 223.42 343.274 220.057 343.322 215.718Z" fill="#141010"/>
<path d="M348.734 196.14C346.243 195.952 344.361 195.77 342.587 194.98C341.82 194.64 341.03 194.332 340.318 193.883C338.139 192.504 336.378 190.716 336.334 187.731C336.291 184.726 338.025 182.89 340.204 181.515C343.31 179.555 346.723 178.986 350.252 179.245C352.056 179.376 353.844 179.719 355.551 180.449C356.827 180.995 358.026 181.673 359.077 182.635C362.335 185.62 362.335 189.862 359.013 192.775C355.835 195.559 352.04 196.108 348.734 196.14ZM350.067 180.779C346.018 180.511 342.009 181.698 339.836 183.601C337.005 186.079 336.996 189.251 339.827 191.695C340.241 192.052 340.673 192.405 341.144 192.653C346.302 195.368 351.496 195.425 356.631 192.666C358.508 191.657 360.142 190.15 360.081 187.584C360.024 185.165 358.436 183.794 356.668 182.709C354.445 181.343 352.017 180.802 350.065 180.779H350.067Z" fill="#141010"/>
<path d="M180.32 323.948C182.684 323.948 184.982 324.358 187.173 325.356C187.728 325.61 188.281 325.888 188.793 326.231C192.685 328.843 192.776 332.993 188.915 335.668C185.598 337.965 181.86 338.48 178.024 338.159C176.222 338.01 174.432 337.645 172.743 336.858C171.908 336.468 171.092 336.043 170.377 335.422C167.44 332.872 167.456 329.405 170.457 326.926C172.964 324.857 175.915 324.219 178.961 323.953C179.412 323.913 179.867 323.948 180.322 323.948H180.32ZM180.251 325.466C177.421 325.466 174.591 326.124 172.58 327.296C171.076 328.173 169.608 329.211 169.617 331.3C169.626 333.321 171.117 334.292 172.566 335.015C177.615 337.536 182.675 337.35 187.646 334.727C189.043 333.989 190.322 332.854 190.331 331.029C190.342 329.069 188.927 328.019 187.482 327.204C185.221 325.928 182.775 325.488 180.254 325.463L180.251 325.466Z" fill="#141010"/>
<path d="M281.606 225.701C279.007 225.786 276.07 225.57 273.217 224.663C272.173 224.331 270.691 224.1 270.764 222.602C270.828 221.271 272.291 221.075 273.265 220.883C278.527 219.853 283.79 219.863 288.986 221.37C289.953 221.651 291.389 221.874 291.337 223.27C291.28 224.778 289.79 224.847 288.734 225.15C286.515 225.786 284.238 225.697 281.606 225.699V225.701Z" fill="#FCF6F5"/>
<path d="M265.229 224.541C263.614 224.553 262.21 223.537 262.337 222.449C262.451 221.488 263.914 220.676 265.324 220.793C266.701 220.907 267.845 221.809 267.857 222.787C267.868 223.763 266.717 224.531 265.229 224.541Z" fill="#FCF6F5"/>
<path d="M311.461 272.844C309.22 272.866 307.093 272.359 305.186 271.043C301.66 268.607 301.462 264.472 304.706 261.603C308.247 258.471 314.826 258.146 318.633 260.913C321.757 263.185 322.027 267.204 319.24 269.943C317.4 271.751 314.503 272.831 311.461 272.844ZM311.482 271.344C313.805 271.311 316 270.75 317.882 269.205C320.514 267.045 320.394 264.114 317.648 262.135C314.353 259.758 308.469 260.155 305.464 262.959C303.136 265.13 303.277 267.886 305.855 269.729C307.553 270.944 309.466 271.376 311.482 271.344Z" fill="#141010"/>
<path d="M270.139 357.653C271.577 357.615 273.283 357.908 274.899 358.681C276.116 359.262 277.183 360.064 277.319 361.661C277.458 363.285 276.5 364.286 275.365 365.014C272.455 366.874 269.272 367.321 265.971 366.906C264.926 366.775 263.871 366.571 262.906 366.072C261.65 365.424 260.46 364.654 260.39 362.9C260.326 361.279 261.297 360.352 262.44 359.612C264.71 358.134 267.211 357.643 270.139 357.658V357.653ZM269.732 359.2C267.288 359.252 264.904 359.629 262.831 361.164C261.382 362.237 261.466 363.444 262.945 364.408C265.761 366.246 272.246 365.794 274.89 363.576C276.375 362.329 276.293 361.177 274.571 360.235C273.06 359.411 271.42 359.143 269.732 359.2Z" fill="#141010"/>
<path d="M296.556 61.0125C296.408 73.485 293.807 85.2198 287.664 95.8694C285.758 99.1775 283.455 102.13 280.691 104.636C278.152 106.939 275.337 108.69 272.097 109.477C266.619 110.806 261.916 109.017 257.914 104.919C253.746 100.653 251.432 95.2013 250.048 89.268C246.774 75.2408 248.139 61.5613 252.945 48.2147C255.181 42.0033 258.326 36.378 262.805 31.7436C264.962 29.5109 267.354 27.6731 270.166 26.4983C276.486 23.8583 282.06 25.2193 286.948 30.1591C290.54 33.7926 292.697 38.417 294.192 43.4288C295.894 49.1361 296.622 55.0097 296.558 61.0125H296.556ZM295.177 61.2683C295.272 56.4427 294.799 51.6892 293.703 47.0225C292.351 41.2681 290.281 35.9011 286.351 31.617C281.326 26.1382 274.882 25.1969 268.696 28.9645C263.422 32.1758 259.723 37.0336 256.906 42.7111C250.255 56.1199 248.212 70.3929 250.619 85.3937C251.3 89.6356 252.572 93.6987 254.499 97.4936C255.345 99.1626 256.305 100.742 257.443 102.188C262.821 109.037 270.138 110.279 277.185 105.523C281.064 102.905 284.044 99.2967 286.465 95.1417C292.483 84.8125 295.045 73.4055 295.177 61.2708V61.2683Z" fill="#141010"/>
<path d="M255.754 148.301C252.35 148.415 249.263 147.732 246.325 146.277C244.514 145.378 242.897 144.176 241.654 142.45C239.404 139.323 239.352 135.585 241.509 132.389C242.842 130.415 244.594 128.972 246.619 127.981C252.848 124.933 259.183 124.695 265.571 127.37C267.501 128.177 269.203 129.401 270.579 131.11C273.141 134.289 273.282 138.422 270.875 141.755C268.409 145.169 264.959 146.761 261.208 147.732C259.358 148.212 257.479 148.398 255.754 148.306V148.301ZM255.52 146.883C259.679 146.809 263.437 145.996 266.809 143.692C272.866 139.549 272.634 133.074 266.329 129.436C263.592 127.856 260.625 127.196 257.579 127.114C253.269 126.997 249.119 127.834 245.445 130.469C239.746 134.555 239.973 140.702 245.918 144.342C248.972 146.213 252.307 146.819 255.517 146.881L255.52 146.883Z" fill="#141010"/>
<path d="M180.088 285.227C180.249 282.07 181.027 279.05 181.876 276.063C184.331 267.432 188.019 259.557 194.037 253.179C196.344 250.733 198.926 248.791 202.116 247.921C205.925 246.883 208.978 248.195 211.381 251.426C213.595 254.403 214.55 257.97 215.023 261.688C216.279 271.533 214.491 280.911 211.162 290.005C209.561 294.379 207.618 298.574 204.849 302.244C204.435 302.048 204.027 301.835 203.606 301.661C198.18 299.398 193.065 296.522 188.354 292.782C185.437 290.465 182.761 287.85 180.085 285.229L180.088 285.227Z" fill="#FCF6F5"/>
<path d="M180.089 285.223C182.765 287.845 185.44 290.458 188.357 292.775C193.069 296.515 198.184 299.394 203.61 301.654C204.031 301.83 204.438 302.044 204.852 302.238C202.766 305.658 200.118 308.449 196.932 310.632C195.51 311.606 193.984 312.289 192.336 312.684C189.358 313.396 186.792 312.537 184.573 310.342C182.844 308.63 181.757 306.447 181.038 304.073C179.163 297.891 179.067 291.586 180.091 285.22L180.089 285.223Z" fill="#ECDEDB"/>
<path d="M208.361 233.44C204.655 233.336 201.47 232.817 198.501 231.165C197.208 230.448 196.039 229.571 195.045 228.409C192.656 225.62 192.606 222.398 194.938 219.555C196.171 218.05 197.695 216.982 199.397 216.244C204.98 213.823 210.582 213.808 216.179 216.207C217.888 216.94 219.412 218 220.65 219.498C222.954 222.284 222.938 225.622 220.588 228.379C218.265 231.101 215.216 232.285 211.99 232.988C210.664 233.279 209.292 233.326 208.361 233.435V233.44Z" fill="#FCF6F5"/>
<path d="M120.467 238.524C120.485 241.894 117.976 244.651 114.868 244.673C111.753 244.695 109.212 241.991 109.18 238.616C109.148 235.26 111.624 232.543 114.791 232.461C117.855 232.382 120.449 235.151 120.467 238.521V238.524ZM117.707 236.743C117.742 235.67 117.196 235.067 116.32 235.099C115.63 235.124 115.155 235.471 115.073 236.246C114.989 237.039 115.933 238.077 116.656 237.985C117.368 237.895 117.673 237.364 117.71 236.741L117.707 236.743Z" fill="#E0F450"/>
<path d="M133.656 238.414C133.637 240.185 132.375 241.543 130.764 241.521C129.194 241.498 127.879 240.041 127.897 238.337C127.915 236.631 129.301 235.155 130.828 235.217C132.477 235.282 133.676 236.638 133.658 238.416L133.656 238.414Z" fill="#FCF6F5"/>
<path d="M343.32 215.717C343.274 220.056 342.562 223.422 341.507 226.71C339.347 233.445 336.028 239.386 331.257 244.303C329.207 246.417 326.943 248.193 324.213 249.146C319.901 250.654 316.716 248.751 315.576 243.971C314.855 240.943 314.96 237.903 315.542 234.883C317.474 224.852 321.819 216.371 329.186 209.874C330.902 208.361 332.793 207.159 334.972 206.575C338.451 205.642 341.108 207.102 342.453 210.721C343.147 212.591 343.368 214.545 343.32 215.717Z" fill="#FCF6F5"/>
<path d="M350.064 180.787C352.016 180.809 354.444 181.351 356.667 182.717C358.435 183.802 360.023 185.173 360.08 187.592C360.139 190.158 358.507 191.665 356.63 192.673C351.495 195.433 346.299 195.376 341.143 192.661C340.672 192.413 340.24 192.058 339.826 191.702C336.995 189.259 337.004 186.09 339.835 183.608C342.005 181.709 346.017 180.519 350.066 180.787H350.064Z" fill="#FCF6F5"/>
<path d="M180.244 325.466C182.765 325.491 185.211 325.93 187.472 327.207C188.917 328.021 190.332 329.074 190.321 331.032C190.312 332.857 189.033 333.992 187.636 334.73C182.665 337.352 177.605 337.538 172.556 335.018C171.109 334.295 169.617 333.324 169.607 331.302C169.598 329.214 171.066 328.175 172.57 327.299C174.581 326.126 177.411 325.466 180.242 325.468L180.244 325.466Z" fill="#ECDEDB"/>
<path d="M311.501 271.344C309.488 271.376 307.574 270.944 305.875 269.729C303.297 267.887 303.156 265.13 305.483 262.959C308.489 260.155 314.372 259.758 317.667 262.135C320.413 264.114 320.534 267.047 317.901 269.205C316.02 270.75 313.824 271.309 311.501 271.344Z" fill="#ECDEDB"/>
<path d="M269.719 359.197C271.407 359.138 273.047 359.408 274.558 360.233C276.28 361.172 276.364 362.326 274.876 363.573C272.233 365.791 265.751 366.243 262.932 364.405C261.453 363.442 261.371 362.235 262.818 361.162C264.888 359.627 267.275 359.249 269.719 359.197Z" fill="#ECDEDB"/>
<path d="M295.175 61.2615C295.043 73.3987 292.482 84.8032 286.464 95.1324C284.043 99.2874 281.062 102.896 277.183 105.514C270.137 110.27 262.82 109.028 257.441 102.178C256.306 100.73 255.346 99.1533 254.497 97.4843C252.572 93.6894 251.298 89.6263 250.618 85.3844C248.211 70.3811 250.254 56.1105 256.904 42.7017C259.719 37.0268 263.418 32.1689 268.694 28.9552C274.878 25.1901 281.322 26.1289 286.35 31.6076C290.279 35.8918 292.35 41.2613 293.701 47.0132C294.798 51.6798 295.271 56.4309 295.175 61.259V61.2615Z" fill="#FCF6F5"/>
<path d="M255.509 146.882C252.299 146.817 248.964 146.214 245.91 144.344C239.963 140.7 239.738 134.556 245.437 130.47C249.112 127.835 253.261 126.998 257.571 127.115C260.617 127.197 263.582 127.858 266.321 129.437C272.626 133.076 272.855 139.548 266.801 143.693C263.432 146 259.671 146.81 255.512 146.884L255.509 146.882Z" fill="#FCF6F5"/>
<path d="M117.709 236.748C117.672 237.371 117.367 237.903 116.655 237.992C115.932 238.084 114.987 237.046 115.072 236.254C115.154 235.479 115.629 235.131 116.318 235.106C117.194 235.074 117.74 235.677 117.706 236.75L117.709 236.748Z" fill="#FCF6F5"/>
</svg>
