<svg width="313" height="427" viewBox="0 0 313 427" fill="none" xmlns="http://www.w3.org/2000/svg">
<path d="M305.117 219.866C307.757 221.022 308.541 222.255 308.457 225.068C308.38 227.567 307.629 229.918 306.71 232.204C304.809 236.951 302.195 241.299 299.157 245.39C298.283 246.572 297.898 247.735 297.969 249.199C298.405 258.281 298.277 267.37 298.29 276.458C298.303 284.621 298.084 292.785 297.834 300.942C297.628 307.506 297.275 314.071 296.909 320.628C296.684 324.675 296.395 328.721 295.984 332.748C295.477 337.668 294.083 342.299 290.923 346.236C288.405 349.371 285.354 351.67 281.263 352.313C279.291 352.621 277.383 352.357 275.508 351.709C273.157 350.893 271.037 349.679 269.072 348.163C265.411 345.35 261.602 342.742 257.691 340.167C257.427 340.642 257.729 340.983 257.845 341.317C260.542 349.063 263.439 356.731 266.58 364.311C268.847 369.783 269.47 375.396 268.031 381.177C267.492 383.335 266.58 385.307 265.25 387.125C258.737 395.995 250.535 402.957 241.177 408.629C230.072 415.366 218.074 419.869 205.447 422.74C198.086 424.416 190.629 425.463 183.082 425.913C163.576 427.082 144.596 424.673 126.297 417.614C118.121 414.461 110.458 410.356 103.419 405.115C103.213 404.961 103.014 404.801 102.809 404.646C99.3787 402.019 98.2933 398.808 99.3659 394.582C99.8797 392.565 100.914 390.805 101.948 389.026C107.17 380.059 111.537 370.669 115.77 361.215C123.734 343.43 130.896 325.317 137.531 306.999C137.756 306.382 138.115 305.798 138.051 305.085C137.499 304.86 136.933 304.963 136.381 304.995C113.194 306.305 91.3115 312.189 71.028 323.654C65.5685 326.737 60.3788 330.224 55.4075 334.046C54.5854 334.682 53.8917 335.407 53.2879 336.249C47.2761 344.656 40.7954 352.672 33.4733 359.988C31.951 361.51 30.3646 362.975 28.7781 364.439C26.2732 366.745 23.37 367.175 20.1907 366.16C17.7757 365.39 15.8552 363.867 14.1467 362.056C11.5455 359.307 9.63142 356.089 8.03212 352.685C5.16108 346.564 3.36909 340.109 2.09093 333.493C0.510895 325.349 0.00348508 317.115 0.0355996 308.836C0.0484454 306.312 0.645776 303.916 2.34785 301.976C7.65317 295.919 11.3463 288.893 14.6541 281.641C16.9343 276.651 18.8868 271.525 20.6981 266.342C21.0064 265.468 20.9743 264.922 20.2678 264.197C18.0197 261.884 18.0647 258.577 20.2613 256.142C21.1734 255.128 22.2781 254.376 23.5627 253.946C24.3784 253.676 24.7831 253.258 25.0207 252.404C27.1852 244.485 29.0029 236.488 30.4673 228.415C31.5657 222.358 32.4199 216.262 33.1264 210.148C33.3962 207.803 33.4283 205.44 33.8137 203.102C34.0577 201.631 34.456 200.199 35.0019 198.811C35.8048 196.75 37.0637 195.112 38.8942 193.795C44.1738 189.974 49.3635 186.03 54.6175 182.163C55.4011 181.585 55.8378 180.795 56.3324 180.031C64.361 167.532 73.732 156.144 84.5932 145.996C96.8353 134.557 110.458 125.154 125.668 118.095C126.04 117.921 126.406 117.741 126.817 117.549C126.182 116.007 125.424 114.556 124.897 113.001C122.36 105.499 121.917 97.9525 124.325 90.3285C125.282 87.3033 126.798 84.5929 129.02 82.2935C129.265 82.0365 129.489 81.7539 129.688 81.5227C121.563 69.8523 116.676 56.8716 113.509 43.1779C112.732 39.8252 112.006 36.421 112.135 32.9848C112.443 24.8405 116.117 18.5911 123.201 14.4354C128.442 11.3589 134.082 9.97793 140.151 10.4982C141.269 10.5945 142.399 10.8001 143.466 11.1469C144.435 11.4616 145.129 11.3653 145.983 10.7423C148.687 8.77043 151.751 7.91618 155.117 8.28871C156.048 8.39148 156.941 8.6227 157.757 9.05304C158.283 9.32922 158.572 9.19434 158.951 8.82181C166.029 1.91076 174.655 -0.305142 184.257 0.56195C190.969 1.17213 196.994 3.5486 202.209 7.87764C203.52 8.96311 204.721 10.1578 205.736 11.5194C206.205 12.1489 206.628 12.2773 207.393 12.0397C210.103 11.1854 212.852 11.1726 215.576 12.0333C217.425 12.6177 219.089 13.5619 220.168 15.2126C220.65 15.9448 221.131 16.1054 221.928 15.9834C225.146 15.4952 228.383 15.4759 231.588 16.0283C240.715 17.6148 247.844 22.053 252.038 30.5826C252.469 31.4561 252.88 32.3618 253.092 33.2995C253.329 34.3465 253.895 34.7768 254.877 35.0851C261.275 37.0826 266.406 40.8207 270.132 46.4151C272.977 50.6863 274.519 55.4329 275.071 60.507C275.334 62.9541 275.553 65.4141 275.206 67.8804C275.122 68.4842 275.193 68.8888 275.996 69.043C280.312 69.8459 282.637 73.7638 283.112 77.1744C283.17 77.579 283.202 77.9901 283.209 78.4012C283.209 78.9664 283.421 79.3132 283.954 79.6023C294.179 85.1902 299.587 94.2593 302.195 105.236C304.436 114.684 303.923 124.081 301.116 133.356C301.013 133.696 300.923 134.049 300.788 134.383C300.615 134.807 300.763 135.045 301.154 135.231C306.325 137.685 307.931 142.181 308.117 147.467C308.316 153.08 306.723 158.309 304.603 163.415C304.449 163.794 304.269 164.166 304.096 164.532C303.942 164.854 304 165.091 304.289 165.329C306.408 167.076 306.402 169.369 305.991 171.797C305.85 172.651 305.092 173.473 305.413 174.263C305.695 174.963 306.53 175.432 307.07 176.049C309.812 179.215 311.168 182.992 311.771 187.07C312.754 193.75 311.81 200.263 310.057 206.705C308.83 211.221 307.147 215.562 305.124 219.866H305.117ZM50.3591 243.059C50.571 245.654 51.4189 248.056 52.6713 250.304C53.3907 251.595 57.5078 254.646 58.7731 254.916C57.2509 252.571 56.4352 249.976 55.5616 247.407C55.5231 247.157 55.5038 246.9 55.446 246.649C53.9495 239.687 54.2385 232.801 56.2682 225.98C56.326 225.781 56.4801 225.511 56.0755 225.28C54.8294 226.295 53.5834 227.361 52.286 228.344C51.4189 228.999 50.9628 229.841 50.6867 230.868C49.5948 234.908 49.5305 238.961 50.3527 243.046L50.3591 243.059ZM49.5498 339.261C50.8922 337.707 52.0034 335.986 53.1852 334.316C64.7849 317.911 74.4386 300.448 81.735 281.705C82.8718 278.789 84.0151 275.874 84.7795 272.842C85.4539 270.183 85.3447 267.62 83.0838 265.616C81.902 264.576 80.4825 264.062 78.7419 263.779C79.776 265.481 80.0265 267.164 79.7375 268.911C79.5705 269.919 79.3778 270.934 79.0502 271.898C78.1446 274.57 77.2197 277.235 76.2049 279.862C69.3966 297.397 60.3981 313.775 49.8388 329.312C49.2929 330.115 48.6827 330.879 48.2781 331.778C47.7642 332.074 47.5394 332.62 47.2183 333.069C40.2237 342.852 32.6447 352.133 23.8774 360.405C21.9441 362.229 19.7539 362.737 17.2169 362.133C16.7352 362.018 16.292 361.658 15.5983 361.851C17.127 363.379 18.7776 364.535 20.7816 365.12C23.6205 365.955 26.1126 365.357 28.3028 363.315C32.7667 359.147 37.0187 354.773 40.9688 350.109C43.949 346.59 46.9036 343.051 49.537 339.255L49.5498 339.261ZM268.892 154.994C268.866 155.283 268.982 155.495 269.22 155.643C270.594 157.955 271.969 160.274 273.44 162.747C273.684 162.008 273.562 161.514 273.478 161.038C273.003 158.309 272.502 155.585 271.853 152.894C267.286 133.889 258.686 116.932 245.975 102.089C236.379 90.8809 225.036 81.8631 211.76 75.3439C211.279 75.1062 210.81 74.7979 210.148 74.7016C210.566 75.6779 210.99 76.5385 211.311 77.4313C212.756 81.4392 212.788 85.5948 212.435 89.7505C211.934 95.5568 210.482 101.158 208.575 106.656C208.215 107.696 207.149 108.897 207.733 109.764C208.318 110.638 209.859 110.561 210.977 110.908C211.073 110.94 211.182 110.914 211.285 110.914C211.458 111.132 211.715 111.164 211.959 111.242C218.903 113.496 225.563 116.393 231.89 120.047C245.262 127.781 256.412 137.993 265.533 150.441C266.651 151.963 267.582 153.62 268.886 155.007V154.988L268.892 154.994ZM283.909 217.701C285.502 218.363 287.14 218.889 288.835 219.243C289.009 218.633 288.919 218.119 288.861 217.611C288.623 215.524 288.36 213.436 288.084 211.355C286.407 198.824 283.164 186.724 278.167 175.104C270.568 157.448 259.656 142.232 244.594 130.163C227.933 116.817 208.876 109.43 187.642 107.6C182.376 107.144 177.089 107.124 171.803 107.452C165.952 107.812 160.159 108.57 154.436 109.784C138.867 113.072 124.377 119.071 110.85 127.414C89.7444 140.434 72.698 157.621 58.9658 178.181C58.7859 178.444 58.4198 178.682 58.6382 179.177C59.152 178.811 59.6466 178.47 60.1348 178.11C71.3813 169.748 82.6278 161.385 93.8743 153.023C109.488 141.416 125.102 129.81 140.717 118.198C142.123 117.151 143.6 116.2 145.315 115.77C149.291 114.768 151.443 115.937 153.19 118.615C157.859 125.777 163.242 132.373 168.984 138.687C176.935 147.441 185.516 155.547 194.496 163.235C196.634 165.065 198.722 166.973 201.06 168.566C201.31 168.823 201.541 169.099 201.818 169.324C208.793 174.905 215.897 180.301 223.244 185.388C239.064 196.332 255.52 206.159 273.253 213.713C276.747 215.196 280.254 216.648 283.909 217.714V217.701ZM297.564 235.094C297.448 238.338 297.757 241.549 297.975 245.095C300.987 240.92 303.479 236.867 305.349 232.448C306.029 230.836 306.633 229.198 306.974 227.483C307.25 226.128 307.507 224.766 307.153 223.373C306.845 222.152 306.184 221.401 304.886 221.189C303.473 220.958 303.428 220.816 303.993 219.519C304.077 219.333 304.167 219.146 304.25 218.96C307.898 211.021 310.551 202.819 310.956 194.007C311.123 190.391 310.795 186.826 309.703 183.371C308.663 180.082 307.063 177.134 304.18 175.066C303.653 174.687 303.781 174.327 304.013 173.884C304.783 172.394 305.137 170.808 304.995 169.125C304.905 168.014 304.539 167.031 303.614 166.318C302.381 165.361 302.394 165.348 303.056 163.858C304.777 159.998 306.132 156.028 306.678 151.821C307.057 148.854 307.102 145.88 306.216 142.971C305.284 139.92 303.505 137.588 300.518 136.291C300.377 136.227 300.229 136.188 300.088 136.124C299.491 135.848 299.253 135.392 299.446 134.749C299.549 134.403 299.664 134.069 299.773 133.722C302.452 125.308 303.145 116.746 301.591 108.036C300.396 101.325 297.969 95.1072 293.852 89.622C290.974 85.794 287.48 82.6531 283.145 80.5593C282.361 80.1803 282.11 79.8206 282.11 78.9728C282.117 76.5899 281.41 74.4254 279.843 72.582C278.591 71.1112 277.004 70.2312 275.071 70.0578C273.889 69.9486 273.876 69.9807 273.992 68.8696C274.364 65.2214 274.217 61.586 273.517 57.9892C272.367 52.0994 269.856 46.9032 265.527 42.677C262.27 39.4976 258.416 37.3138 254.055 36.0421C253.04 35.7466 252.449 35.3035 252.154 34.173C251.383 31.2699 249.97 28.6429 248.037 26.3307C243.278 20.6207 237.041 17.7497 229.77 16.9468C227.008 16.6385 224.234 16.6963 221.491 17.1973C220.605 17.3579 219.956 17.2744 219.494 16.3173C218.87 15.0263 217.708 14.2235 216.423 13.6261C214.163 12.5728 211.786 12.3737 209.352 12.7655C208.44 12.9132 207.553 13.1573 206.686 13.4913C206.185 13.684 205.781 13.6904 205.408 13.093C204.168 11.1148 202.486 9.52191 200.642 8.11529C194.251 3.2403 186.968 1.17855 179.016 1.57677C171.367 1.95572 164.578 4.48635 159.253 10.2413C158.771 10.7615 158.38 11.0249 157.724 10.4275C157.114 9.86232 156.273 9.70175 155.464 9.53475C153.543 9.13653 151.693 9.43841 149.863 10.0486C148.386 10.5431 147.056 11.3011 145.855 12.2838C145.412 12.6434 145.001 12.926 144.333 12.682C140.087 11.1148 135.771 11.3075 131.455 12.3351C126.869 13.427 122.765 15.5273 119.373 18.7902C115.468 22.5476 113.522 27.2684 113.316 32.6829C113.22 35.2649 113.65 37.802 114.113 40.3262C115.513 47.9759 117.864 55.3429 120.793 62.5302C123.06 68.0988 125.642 73.5133 129.053 78.4911C129.566 79.2426 130.067 80.0069 130.742 80.662C131.532 80.0583 132.258 79.4866 133.003 78.9407C147.987 67.9768 164.802 63.9111 183.146 65.7352C191.361 66.5509 199.268 68.6897 206.898 71.837C208.363 72.4407 209.821 73.0637 211.285 73.6803C211.542 73.8409 211.792 74.0208 212.062 74.1492C221.896 78.8893 230.701 85.1195 238.608 92.6215C250.105 103.521 259.039 116.258 265.539 130.697C270.44 141.57 273.709 152.907 275.167 164.751C275.276 165.663 275.443 166.549 275.874 167.403C283.98 183.499 288.456 200.616 290.068 218.51C290.152 219.416 290.422 219.744 291.231 219.943C294.545 220.746 296.151 223.064 296.658 226.276C296.832 227.387 296.806 228.53 296.979 229.641C297.262 231.453 297.044 233.322 297.564 235.107V235.094ZM82.4608 210.424C82.2874 209.763 81.8249 209.396 81.4781 208.972C80.5082 207.778 79.4998 206.615 78.5235 205.421C77.7335 204.451 77.7271 204.425 78.5043 203.474C80.3155 201.239 82.1139 198.998 83.983 196.814C84.6703 196.017 84.8437 195.33 84.3748 194.341C83.5013 192.485 82.7691 190.564 81.9791 188.67C81.8635 188.387 81.7286 188.104 81.6451 187.809C81.5552 187.501 81.5552 187.199 81.8506 186.98C82.1846 186.73 82.5186 186.756 82.8333 187.006C83.0324 187.167 83.2187 187.347 83.3985 187.526C85.9163 190.089 88.4469 192.645 90.9519 195.221C91.8896 196.184 91.8896 196.242 91.0418 197.251C89.6866 198.856 88.2928 200.436 86.9247 202.042C86.0961 203.012 86.109 203.025 86.9889 203.828C88.0873 204.83 89.2434 205.78 90.2775 206.846C90.984 207.579 91.6455 207.643 92.6026 207.392C104.504 204.22 116.643 202.614 128.931 202.177C138.122 201.849 147.294 202.228 156.44 203.269C165.117 204.258 173.692 205.793 182.138 208.015C195.453 211.516 208.151 216.513 220.052 223.52C222.949 225.229 225.036 227.387 226.231 230.47C226.308 230.663 226.398 230.842 226.482 231.035C227.997 234.561 228.91 238.216 228.845 242.083C228.787 245.834 227.323 248.82 224.221 250.991C222.737 252.032 221.144 252.847 219.429 253.413C215.723 254.633 211.992 255.744 208.208 256.695C194.091 260.227 179.781 262.546 165.278 263.67C163.088 263.837 160.884 263.959 158.669 263.876C157.037 263.811 155.386 264.068 153.864 264.768C152.811 265.256 152.079 265.931 151.719 267.183C148.989 276.753 146.009 286.246 142.772 295.656C135.752 316.036 127.993 336.133 119.393 355.903C114.518 367.104 109.418 378.203 103.438 388.865C102.564 390.426 101.498 391.884 100.888 393.599C99.5457 397.376 99.5714 401.024 103.843 404.023C103.926 404.081 104.01 404.145 104.087 404.21C108.364 407.427 112.918 410.202 117.71 412.585C134.557 420.973 152.528 424.609 171.213 425.116C177.064 425.277 182.902 424.936 188.734 424.339C196.204 423.575 203.558 422.226 210.79 420.241C223.206 416.844 234.889 411.802 245.513 404.454C252.616 399.54 258.885 393.747 264.043 386.778C265.282 385.108 266.233 383.322 266.792 381.312C268.308 375.852 267.845 370.509 265.7 365.338C260.478 352.724 255.854 339.891 251.814 326.846C250.42 322.337 249.013 317.828 248.12 313.184C247.452 309.729 248.242 306.543 250.42 303.755C254.074 299.073 260.504 298.463 264.672 302.336C266.419 303.961 267.196 306.035 267.665 308.283C269.534 317.16 269.56 326.113 268.783 335.099C268.43 339.152 269.085 342.986 271.281 346.461C274.204 351.066 279.413 352.544 284.326 350.219C286.549 349.165 288.36 347.598 289.889 345.691C292.984 341.824 294.327 337.296 294.815 332.466C295.515 325.523 295.894 318.554 296.241 311.585C296.556 305.329 296.761 299.073 296.89 292.811C297.114 281.314 297.307 269.817 297.069 258.313C296.857 247.998 296.446 237.696 295.663 227.406C295.393 223.886 293.871 221.915 290.505 221.009C283.003 218.992 275.784 216.198 268.712 213.012C255.34 206.988 242.667 199.704 230.425 191.656C211.972 179.523 194.701 165.9 178.843 150.518C170.577 142.495 162.811 134.024 155.997 124.71C154.571 122.764 153.235 120.754 151.841 118.788C150.434 116.804 148.527 116.168 146.17 116.727C144.59 117.099 143.196 117.844 141.892 118.769C140.8 119.54 139.734 120.336 138.661 121.133C119.958 135.038 101.248 148.944 82.5507 162.856C67.9707 173.704 53.41 184.578 38.8171 195.414C37.828 196.146 37.1086 197.019 36.582 198.092C35.535 200.237 34.9056 202.511 34.7322 204.888C34.2312 211.805 33.2998 218.665 32.163 225.499C30.6536 234.51 28.6946 243.425 26.2603 252.231C26.1704 252.565 25.997 252.899 26.3374 253.297C27.9496 253.169 29.5296 253.58 31.1161 254.01C32.118 254.28 33.1328 254.344 34.1669 254.325C36.8196 254.28 39.3502 253.689 41.8038 252.712C42.1635 252.571 42.5745 252.25 42.9406 252.642C43.326 253.053 43.114 253.515 42.87 253.914C42.414 254.659 41.9579 255.404 41.4569 256.117C38.7144 259.97 35.4708 263.272 31.1546 265.398C28.4634 266.721 25.7272 267.299 22.8562 266.04C22.2653 265.783 22.0019 266.001 21.8414 266.535C21.7386 266.875 21.6166 267.215 21.4945 267.556C19.1438 274.242 16.5168 280.813 13.3182 287.146C10.4857 292.753 7.29349 298.116 3.13786 302.875C1.73767 304.475 1.21099 306.479 1.1853 308.592C1.1018 315.22 1.43579 321.829 2.38638 328.394C3.44616 335.729 5.12897 342.909 7.98074 349.775C9.07905 352.428 10.248 355.062 12.1171 357.303C13.4531 358.909 15.0074 360.232 17.0178 360.9C19.1694 361.613 21.1027 361.356 22.8562 359.75C26.3117 356.59 29.5232 353.199 32.619 349.698C41.1101 340.096 48.5542 329.717 55.2855 318.823C63.5325 305.477 70.6812 291.578 76.1085 276.824C77.1169 274.082 78.2152 271.358 78.6648 268.449C79.0888 265.732 77.862 263.972 75.2157 263.4C67.3027 261.692 60.2054 258.3 53.8853 253.213C52.2153 251.865 51.1106 250.253 50.404 248.268C48.6185 243.277 48.2267 238.165 49.0167 232.949C49.4021 230.399 50.1728 228.055 52.575 226.629C52.9218 226.424 53.2109 226.109 53.532 225.858C61.0275 219.885 69.3966 215.472 78.2859 211.991C79.6668 211.452 81.0542 210.938 82.4479 210.411L82.4608 210.424ZM84.1693 190.23C83.9381 190.616 84.2078 190.924 84.3363 191.239C84.7794 192.331 85.1648 193.455 85.6979 194.502C86.1925 195.465 86.064 196.165 85.3639 196.987C83.5591 199.088 81.8378 201.265 80.0843 203.41C79.5234 204.1 79.517 204.774 80.065 205.433C81.1826 206.769 82.3066 208.112 83.4306 209.441C84.439 210.636 84.3234 211.047 82.8205 211.606C82.4865 211.728 82.1396 211.837 81.8056 211.959C79.3457 212.858 76.9178 213.815 74.5028 214.837C73.777 215.145 73.5137 215.543 73.5329 216.327C73.5972 218.767 74.111 221.112 74.8753 223.405C78.6648 234.767 85.0107 244.555 93.354 253.072C100.31 260.176 108.075 266.316 116.239 271.968C123.715 277.145 131.525 281.783 139.535 286.086C140.71 286.715 141.918 287.293 143.087 287.936C143.78 288.321 144.134 288.096 144.326 287.403C144.365 287.255 144.423 287.107 144.468 286.966C145.707 283.003 146.972 279.04 148.18 275.071C149.002 272.373 149.786 269.663 150.531 266.946C150.961 265.385 151.918 264.376 153.37 263.728C155.052 262.976 156.819 262.809 158.624 262.758C161.186 262.687 163.756 262.629 166.312 262.43C172.343 261.961 178.355 261.249 184.328 260.304C194.817 258.654 205.222 256.585 215.402 253.503C217.657 252.822 219.943 252.199 222.024 251.036C225.73 248.962 227.773 245.956 227.689 241.556C227.593 236.578 225.981 232.108 223.54 227.869C223.02 226.969 222.23 226.308 221.343 225.749C215.28 221.96 208.934 218.722 202.325 215.999C191.04 211.349 179.357 208.105 167.34 206.018C158.99 204.566 150.582 203.616 142.117 203.378C133.651 203.14 125.186 203.243 116.753 204.22C112.013 204.765 107.298 205.421 102.609 206.313C99.0319 206.994 95.4864 207.823 91.9731 208.773C91.3437 208.94 90.7592 209.062 90.2646 208.516C88.7424 206.84 86.9119 205.491 85.3318 203.879C84.5996 203.134 84.5739 203.044 85.2547 202.209C86.3274 200.899 87.4835 199.659 88.5561 198.349C89.1021 197.681 90.0527 197.103 90.0784 196.307C90.104 195.472 89.0571 194.99 88.4726 194.367C87.3807 193.211 86.2439 192.093 85.1199 190.969C84.8373 190.686 84.6189 190.308 84.1693 190.224V190.23ZM174.976 66.506C171.836 66.4546 168.727 66.6986 165.618 67.1033C153.061 68.7347 141.815 73.462 131.872 81.3108C129.271 83.3661 127.338 85.9096 126.085 88.954C124.203 93.5464 123.606 98.3315 124.011 103.277C124.37 107.677 125.43 111.871 127.331 115.847C128.038 117.33 127.877 117.138 129.22 116.566C135.315 113.965 141.558 111.807 147.962 110.118C155.367 108.165 162.895 106.9 170.532 106.367C175.034 106.052 179.549 105.949 184.065 106.225C187.084 106.411 190.102 106.636 193.102 107.035C197.116 107.561 201.098 108.3 205.029 109.302C206.217 109.604 206.23 109.572 206.693 108.39C207.695 105.808 208.562 103.174 209.281 100.502C210.797 94.8759 211.754 89.1788 211.33 83.3211C211.124 80.5336 210.559 77.836 209.063 75.4145C208.382 74.3162 207.547 73.3977 206.275 72.8775C196.236 68.8054 185.837 66.5124 174.976 66.5124V66.506ZM268.044 320.718C268.057 319.228 267.839 317.757 267.717 316.274C267.46 313.152 267.004 310.069 266.137 307.057C264.377 300.929 257.19 298.964 252.514 303.312C249.553 306.068 248.654 309.465 249.366 313.383C249.72 315.304 250.246 317.173 250.78 319.042C251.724 322.343 251.03 322.009 254.447 322.433C258.359 322.921 262.27 323.345 266.188 323.776C268.076 323.981 268.083 323.923 268.044 322.093C268.038 321.63 268.044 321.168 268.044 320.712V320.718ZM41.1615 254.402C40.8789 254.254 40.6926 254.305 40.4871 254.37C36.6847 255.558 32.8952 255.853 28.9901 254.652C26.9797 254.029 24.9051 254.427 23.0296 255.455C21.0064 256.56 19.5741 258.159 19.7732 260.6C19.9723 263.047 21.6936 264.325 23.8389 265.134C26.0227 265.957 28.0844 265.481 30.1012 264.569C32.7989 263.349 35.1047 261.563 37.1729 259.463C38.6822 257.928 40.031 256.258 41.1551 254.402H41.1615Z" fill="#090503"/>
<path d="M82.462 210.427C81.0746 210.953 79.6809 211.461 78.2999 212.007C69.4106 215.494 61.0416 219.901 53.546 225.874C53.2249 226.131 52.9359 226.439 52.589 226.645C50.1804 228.07 49.4161 230.415 49.0307 232.965C48.2407 238.18 48.6389 243.293 50.4181 248.283C51.1246 250.268 52.2294 251.88 53.8993 253.229C60.213 258.316 67.3168 261.701 75.2298 263.416C77.876 263.987 79.1028 265.747 78.6789 268.464C78.2229 271.374 77.131 274.097 76.1226 276.84C70.6952 291.587 63.5529 305.486 55.2995 318.839C48.5683 329.732 41.1241 340.112 32.6331 349.714C29.5372 353.214 26.3258 356.606 22.8702 359.766C21.1168 361.371 19.1835 361.628 17.0318 360.915C15.0214 360.247 13.4671 358.924 12.1311 357.319C10.2621 355.077 9.09952 352.444 7.99478 349.791C5.14943 342.925 3.46663 335.744 2.40043 328.409C1.44984 321.845 1.11585 315.236 1.19934 308.607C1.22504 306.494 1.75171 304.49 3.15191 302.891C7.30753 298.132 10.4997 292.768 13.3322 287.161C16.5308 280.828 19.1578 274.258 21.5086 267.571C21.6306 267.231 21.7527 266.897 21.8554 266.55C22.016 266.017 22.2793 265.799 22.8702 266.056C25.7413 267.314 28.4774 266.736 31.1686 265.413C35.4784 263.287 38.722 259.986 41.471 256.132C41.9784 255.419 42.428 254.674 42.884 253.929C43.1281 253.524 43.34 253.068 42.9547 252.657C42.5886 252.272 42.1775 252.587 41.8178 252.728C39.3643 253.711 36.8336 254.295 34.181 254.34C33.1469 254.359 32.1256 254.295 31.1301 254.025C29.5501 253.602 27.9636 253.184 26.3515 253.312C26.011 252.914 26.1845 252.574 26.2744 252.246C28.7022 243.434 30.6676 234.525 32.177 225.514C33.3203 218.68 34.2516 211.821 34.7462 204.903C34.9196 202.533 35.5426 200.253 36.596 198.108C37.1227 197.035 37.842 196.161 38.8312 195.429C53.424 184.594 67.9847 173.72 82.5648 162.872C101.262 148.953 119.972 135.054 138.675 121.148C139.748 120.352 140.814 119.555 141.906 118.785C143.21 117.86 144.61 117.121 146.184 116.742C148.534 116.183 150.442 116.819 151.855 118.804C153.249 120.769 154.591 122.78 156.011 124.726C162.819 134.039 170.591 142.511 178.857 150.533C194.715 165.922 211.986 179.545 230.439 191.672C242.681 199.72 255.354 206.997 268.726 213.028C275.798 216.214 283.017 219.008 290.519 221.025C293.885 221.93 295.407 223.908 295.677 227.422C296.46 237.711 296.872 248.014 297.083 258.329C297.321 269.832 297.128 281.329 296.904 292.826C296.782 299.089 296.57 305.344 296.255 311.6C295.908 318.569 295.536 325.538 294.829 332.481C294.341 337.311 292.998 341.839 289.903 345.706C288.374 347.62 286.556 349.181 284.34 350.234C279.427 352.559 274.218 351.082 271.295 346.477C269.092 343.008 268.444 339.174 268.797 335.115C269.574 326.129 269.548 317.175 267.679 308.299C267.211 306.057 266.433 303.976 264.686 302.351C260.518 298.478 254.089 299.089 250.434 303.771C248.263 306.558 247.473 309.744 248.134 313.2C249.027 317.837 250.434 322.352 251.828 326.861C255.861 339.906 260.486 352.733 265.714 365.354C267.853 370.524 268.315 375.868 266.806 381.327C266.247 383.338 265.296 385.117 264.057 386.793C258.899 393.762 252.631 399.556 245.527 404.469C234.903 411.817 223.22 416.853 210.805 420.257C203.566 422.235 196.212 423.59 188.748 424.354C182.923 424.952 177.078 425.292 171.227 425.132C152.542 424.624 134.571 420.995 117.724 412.601C112.932 410.218 108.378 407.443 104.101 404.225C104.017 404.161 103.94 404.097 103.857 404.039C99.5854 401.033 99.5598 397.385 100.902 393.614C101.512 391.9 102.579 390.448 103.452 388.881C109.432 378.212 114.532 367.12 119.407 355.918C128.007 336.149 135.766 316.058 142.786 295.672C146.029 286.262 149.003 276.769 151.733 267.199C152.093 265.946 152.825 265.272 153.878 264.784C155.401 264.084 157.051 263.827 158.683 263.891C160.899 263.975 163.102 263.859 165.292 263.685C179.795 262.561 194.105 260.243 208.223 256.71C212.006 255.766 215.737 254.648 219.443 253.428C221.158 252.863 222.745 252.047 224.235 251.007C227.337 248.829 228.802 245.843 228.859 242.098C228.924 238.232 228.011 234.577 226.496 231.051C226.412 230.864 226.316 230.678 226.245 230.485C225.044 227.402 222.963 225.244 220.066 223.536C208.165 216.529 195.473 211.531 182.152 208.031C173.706 205.809 165.131 204.274 156.454 203.284C147.308 202.244 138.129 201.865 128.945 202.193C116.658 202.629 104.518 204.229 92.6166 207.408C91.6596 207.665 91.0044 207.601 90.2915 206.862C89.2574 205.796 88.1013 204.845 87.003 203.843C86.123 203.04 86.1166 203.028 86.9387 202.058C88.3068 200.458 89.7006 198.878 91.0558 197.266C91.9037 196.258 91.9037 196.2 90.9659 195.237C88.461 192.661 85.9303 190.105 83.4126 187.542C83.2327 187.362 83.0465 187.182 82.8474 187.022C82.5326 186.771 82.1986 186.745 81.8646 186.996C81.5692 187.214 81.5628 187.516 81.6591 187.825C81.749 188.12 81.8775 188.403 81.9931 188.685C82.7831 190.58 83.5153 192.5 84.3889 194.357C84.8577 195.352 84.6779 196.033 83.9971 196.829C82.128 199.013 80.3296 201.255 78.5183 203.49C77.7411 204.447 77.7476 204.473 78.5376 205.436C79.5139 206.631 80.5223 207.793 81.4921 208.988C81.839 209.418 82.295 209.778 82.4748 210.44L82.462 210.427ZM292.067 256.485C292.009 253.145 291.874 250.377 291.81 247.622C291.733 244.031 291.232 240.48 291.052 236.908C290.982 235.547 290.68 234.166 290.127 232.888C289.453 231.333 288.284 230.261 286.633 229.907C281.527 228.803 276.524 227.351 271.604 225.578C264.693 223.086 257.949 220.26 251.667 216.419C250.177 215.507 248.764 216.259 248.591 217.986C248.424 219.637 248.847 221.134 249.74 222.515C250.832 224.197 252.085 225.745 253.478 227.191C254.23 227.968 254.891 228.816 255.444 229.74C257.493 233.17 258.263 236.966 258.418 240.891C258.495 242.779 258.173 244.667 257.814 246.517C256.818 251.578 254.403 255.74 250.286 258.99C247.723 261.007 246.15 263.673 247.068 267.192C247.666 269.479 248.713 271.528 250.472 273.108C253.523 275.85 257.184 277.591 260.903 279.216C265.566 281.252 269.767 283.956 273.107 287.848C274.545 289.531 275.785 291.362 276.337 293.552C276.826 295.498 276.98 297.483 276.922 299.487C276.845 302.499 277.975 304.991 280.223 306.957C281.752 308.293 283.505 309.038 285.58 308.447C287.61 307.869 288.836 306.449 289.601 304.535C290.718 301.748 291.226 298.812 291.367 295.858C291.547 292.177 291.81 288.51 291.99 284.83C292.221 280.224 291.977 275.606 292.266 270.988C292.459 267.886 292.465 264.745 292.099 261.617C291.881 259.742 292.061 257.821 292.061 256.498L292.067 256.485ZM231.66 378.713C231.891 381.507 230.671 383.755 228.795 385.708C226.753 387.827 224.209 389.157 221.409 389.941C218.64 390.711 215.936 391.662 213.335 392.869C210.965 393.974 208.91 395.471 207.625 397.815C205.011 402.581 204.517 407.591 206.019 412.8C206.514 414.502 206.925 414.694 208.73 414.328C214.485 413.153 219.925 411.046 225.205 408.548C231.422 405.606 237.344 402.138 242.919 398.091C247.537 394.745 251.873 391.103 255.553 386.71C259.342 382.195 260.062 377.114 258.398 371.629C257.595 368.983 256.388 366.478 255.257 363.953C253.922 360.96 252.579 357.967 251.34 354.936C250.004 351.666 248.751 348.365 247.531 345.051C247.203 344.158 246.651 343.818 245.803 343.901C244.538 344.023 243.266 344.171 242.013 344.383C239.804 344.755 237.806 345.725 235.912 346.849C232.925 348.622 230.638 351.14 229.277 354.313C227.832 357.678 227.69 361.237 228.41 364.84C228.943 367.512 229.759 370.087 230.606 372.663C231.242 374.609 231.775 376.587 231.653 378.713H231.66ZM7.94982 324.523C7.84705 325.84 8.1682 327.247 8.41227 328.653C9.06098 332.43 9.96019 336.162 11.1035 339.823C12.1119 343.053 13.2873 346.226 14.9379 349.194C16.351 351.731 19.3569 352.662 21.6242 351.159C22.8124 350.375 23.9942 349.54 25.0155 348.526C27.4562 346.111 29.8262 343.644 32.0229 340.992C35.5234 336.772 38.7926 332.385 41.9206 327.889C44.4641 324.228 46.8341 320.458 49.1271 316.63C50.0199 315.133 50.8934 313.624 51.7155 312.089C52.2037 311.176 52.0495 310.785 51.0989 310.451C50.1355 310.11 49.1271 309.879 48.0866 309.988C43.3465 310.502 39.6212 312.846 36.6153 316.43C34.9646 318.396 33.7506 320.663 32.2413 322.731C30.642 324.928 28.7536 326.765 26.268 327.895C23.7566 329.039 21.8233 328.473 20.2497 326.238C19.7166 325.48 19.3184 324.652 18.8816 323.836C17.8411 321.89 16.4345 320.47 14.0709 320.252C13.0239 320.156 12.0155 320.336 11.0714 320.625C8.35446 321.453 7.93055 322.044 7.94982 324.517V324.523ZM110.209 393.537C110.209 394.051 110.158 394.565 110.215 395.072C110.421 396.852 111.616 397.417 113.163 396.46C113.909 395.997 114.557 395.406 115.11 394.732C115.855 393.82 116.6 392.902 117.255 391.925C119.753 388.206 121.674 384.198 123.202 379.998C124.134 377.442 124.885 374.847 125.219 372.136C125.335 371.199 125.29 370.293 125.027 369.4C124.673 368.193 123.787 367.769 122.65 368.283C122.149 368.514 121.68 368.861 121.263 369.227C120.453 369.933 119.708 370.717 119.073 371.59C115.649 376.266 113.208 381.424 111.468 386.928C110.787 389.08 110.183 391.251 110.209 393.531V393.537ZM188.517 303.064C188.472 305.023 188.62 306.969 188.838 308.903C189.487 314.626 191.048 320.059 193.977 325.056C196.237 328.917 199.211 332.006 203.36 333.849C211.216 337.324 219.623 334.016 222.809 326.045C225.519 319.25 224.293 312.866 220.323 306.892C219.032 304.946 217.221 303.514 215.48 301.992C209.815 297.033 205.852 290.835 202.782 284.033C201.087 280.282 199.841 276.377 199.282 272.279C199.198 271.65 199.417 270.757 198.569 270.597C197.74 270.442 197.56 271.348 197.252 271.888C191.626 281.522 188.646 291.901 188.517 303.077V303.064ZM140.088 127.045C139.915 126.505 139.587 126.473 139.202 126.576C137.988 126.897 136.98 127.61 135.939 128.252C130.634 131.515 125.881 135.504 121.218 139.595C118.096 142.331 115.052 145.17 112.348 148.336C111.847 148.921 111.359 149.518 111.005 150.206C110.832 150.54 110.697 150.912 110.941 151.22C111.198 151.542 111.596 151.432 111.943 151.31C112.919 150.976 113.786 150.424 114.641 149.859C122.901 144.419 130.268 137.912 137.204 130.898C138.104 129.993 138.951 129.023 139.626 127.918C139.812 127.616 139.953 127.295 140.082 127.038L140.088 127.045ZM218.994 289.03C221.017 288.921 223.393 288.067 224.646 285.35C225.731 282.993 225.044 280.212 222.886 278.054C221.036 276.197 218.782 275.163 216.148 275.138C213.521 275.112 211.094 274.405 208.801 273.172C207.394 272.421 206.077 271.534 204.857 270.513C204.581 270.282 204.285 270.012 203.9 270.192C203.437 270.41 203.489 270.847 203.559 271.265C203.592 271.464 203.63 271.669 203.682 271.868C204.6 275.472 206 278.869 208.062 281.978C209.52 284.175 211.254 286.108 213.464 287.598C214.915 288.574 216.502 289.05 218.994 289.03ZM40.4305 200.58C40.9315 200.645 41.4132 200.42 41.8692 200.214C46.5579 198.043 50.797 195.204 54.5287 191.62C54.8563 191.306 55.1582 190.933 55.3573 190.529C55.595 190.047 55.3445 189.732 54.8114 189.726C54.2333 189.726 53.7002 189.938 53.1928 190.169C48.6325 192.25 44.5283 195.018 40.848 198.422C40.4754 198.769 40.1479 199.18 39.8781 199.611C39.4735 200.253 39.6597 200.568 40.4305 200.587V200.58ZM124.429 361.211C124.5 361.808 124.429 362.264 124.59 362.72C125.014 363.934 125.804 364.223 126.819 363.478C127.101 363.266 127.365 363.003 127.583 362.72C128.951 360.909 129.702 358.873 129.702 356.593C129.702 355.7 129.6 354.73 128.591 354.441C127.692 354.184 127.043 354.865 126.542 355.52C125.232 357.235 124.641 359.226 124.436 361.211H124.429ZM145.747 121.881C145.721 121.341 145.413 121.013 144.873 121.155C143.261 121.566 142.079 122.555 141.36 124.058C141.212 124.373 141.129 124.745 141.424 125.053C141.713 125.355 142.073 125.317 142.42 125.201C143.904 124.713 144.905 123.685 145.644 122.356C145.715 122.227 145.708 122.06 145.747 121.881Z" fill="#FE3800"/>
<path d="M211.275 73.6641C209.811 73.0475 208.353 72.4244 206.888 71.8207C199.258 68.6735 191.351 66.541 183.136 65.7189C164.799 63.8948 147.984 67.9605 132.993 78.9244C132.248 79.4704 131.522 80.042 130.732 80.6458C130.051 79.9906 129.557 79.2263 129.043 78.4748C125.632 73.4971 123.05 68.0826 120.783 62.5139C117.854 55.3267 115.503 47.9596 114.103 40.3099C113.641 37.7857 113.21 35.2486 113.307 32.6666C113.512 27.2521 115.458 22.5313 119.363 18.7739C122.755 15.5111 126.859 13.4108 131.445 12.3189C135.761 11.2912 140.077 11.0985 144.323 12.6657C144.991 12.9098 145.402 12.6272 145.845 12.2675C147.046 11.2848 148.376 10.5205 149.853 10.0323C151.677 9.42214 153.533 9.12026 155.454 9.51848C156.263 9.68548 157.098 9.84605 157.715 10.4113C158.363 11.015 158.755 10.7517 159.243 10.225C164.574 4.47008 171.363 1.94587 179.007 1.5605C186.964 1.16228 194.248 3.23045 200.632 8.09902C202.476 9.50563 204.159 11.0985 205.398 13.0768C205.777 13.6805 206.182 13.6741 206.676 13.475C207.544 13.141 208.43 12.8905 209.342 12.7492C211.776 12.3574 214.153 12.5565 216.414 13.6099C217.698 14.2072 218.854 15.0101 219.484 16.3011C219.946 17.2581 220.595 17.348 221.481 17.181C224.23 16.68 226.998 16.6222 229.76 16.9305C237.031 17.7334 243.268 20.6044 248.027 26.3144C249.96 28.6331 251.373 31.2536 252.144 34.1568C252.446 35.2808 253.031 35.7304 254.045 36.0258C258.407 37.2976 262.26 39.4813 265.517 42.6607C269.852 46.887 272.363 52.0831 273.507 57.9729C274.207 61.5697 274.355 65.2051 273.982 68.8533C273.866 69.9645 273.879 69.9324 275.061 70.0415C276.994 70.215 278.581 71.0885 279.833 72.5657C281.394 74.4091 282.107 76.5736 282.101 78.9565C282.101 79.8044 282.345 80.164 283.135 80.543C287.477 82.6369 290.964 85.7777 293.842 89.6057C297.959 95.0909 300.387 101.302 301.581 108.02C303.129 116.73 302.442 125.291 299.764 133.705C299.654 134.046 299.539 134.386 299.436 134.733C299.243 135.382 299.475 135.831 300.078 136.108C300.22 136.172 300.367 136.217 300.509 136.275C303.495 137.572 305.274 139.904 306.206 142.954C307.092 145.864 307.054 148.838 306.668 151.805C306.129 156.012 304.767 159.982 303.046 163.842C302.378 165.332 302.371 165.345 303.605 166.302C304.529 167.021 304.896 167.997 304.985 169.108C305.127 170.791 304.773 172.378 304.003 173.868C303.772 174.311 303.643 174.671 304.17 175.05C307.054 177.118 308.653 180.066 309.693 183.354C310.785 186.816 311.119 190.375 310.946 193.991C310.535 202.803 307.882 211.005 304.24 218.944C304.157 219.13 304.067 219.316 303.983 219.503C303.412 220.8 303.463 220.941 304.876 221.173C306.167 221.384 306.835 222.136 307.144 223.356C307.497 224.757 307.24 226.112 306.964 227.467C306.617 229.182 306.02 230.82 305.339 232.432C303.47 236.851 300.978 240.904 297.965 245.079C297.753 241.54 297.439 238.322 297.554 235.078C298.004 235.13 298.171 234.789 298.37 234.494C299.943 232.13 301.157 229.599 301.8 226.825C302.024 225.868 301.96 224.904 301.459 223.986C301.067 223.26 300.663 222.547 300.098 221.943C298.986 220.761 299.076 219.483 299.725 218.135C300.322 216.888 300.849 215.604 301.479 214.371C303.174 211.076 304.491 207.639 305.589 204.107C306.61 200.818 307.111 197.433 307.394 194.023C307.593 191.569 307.291 189.129 306.848 186.701C306.064 182.378 303.99 178.865 300.477 176.219C300.027 175.878 299.558 175.563 299.07 175.281C298.563 174.985 298.492 174.639 298.774 174.138C299.231 173.322 299.43 172.41 299.603 171.511C300.117 168.896 299.462 166.629 297.426 164.844C296.404 163.951 296.372 163.957 296.931 162.763C298.46 159.5 298.813 155.999 299.115 152.473C299.224 151.227 298.935 150.02 298.781 148.812C298.473 146.423 297.824 144.104 296.546 142.017C295.402 140.154 294.015 138.561 292.05 137.495C290.958 136.904 290.932 136.666 291.279 135.504C291.382 135.163 291.517 134.829 291.626 134.489C292.66 131.38 293.585 128.272 293.964 124.977C294.368 121.425 294.285 117.905 293.803 114.417C293.077 109.202 291.356 104.276 288.742 99.6833C287.393 97.3132 285.839 95.0909 283.95 93.1255C281.413 90.4856 278.632 88.1606 275.145 86.831C274.624 86.6319 274.451 86.2786 274.47 85.7648C274.483 85.3024 274.489 84.8399 274.47 84.3775C274.38 82.0395 273.635 79.9906 271.952 78.295C270.771 77.1003 269.396 76.1818 267.874 75.6038C265.761 74.7945 264.951 73.42 265.189 71.2105C265.292 70.2599 265.273 69.2772 265.061 68.3074C264.348 65.0252 263.192 61.9166 261.592 58.9813C258.837 53.92 254.932 50.0727 249.524 47.8568C248.098 47.2723 246.646 46.7713 245.175 46.341C241.99 45.4097 239.53 43.6305 237.75 40.7659C235.676 37.426 232.83 34.8761 229.137 33.3732C225.296 31.806 221.475 31.8381 217.672 33.5658C216.613 34.0476 216.118 34.7155 216.189 35.9423C216.446 40.4576 215.958 44.9537 215.848 49.4625C215.81 51.1389 215.758 52.841 215.559 54.5109C215.174 57.8059 214.956 61.1201 214.371 64.3894C213.973 66.6502 213.581 68.924 212.868 71.1142C212.553 72.084 212.264 73.0988 211.262 73.6384L211.275 73.6641ZM210.626 34.7734C210.626 33.0777 210.697 31.3821 210.607 29.6993C210.511 27.9137 210.524 26.1089 210.158 24.3426C210.081 23.97 209.991 23.5975 209.502 23.6746C209.001 23.7516 209.059 24.1756 209.085 24.5224C209.168 25.6464 209.303 26.7704 209.361 27.8944C209.586 32.5574 209.477 37.2205 209.207 41.8835C208.745 49.9828 207.865 58.0243 206.304 65.9823C206.252 66.2327 206.175 66.4768 206.143 66.7337C206.105 67.0742 206.246 67.3632 206.58 67.4467C206.927 67.5366 207.171 67.3311 207.261 66.9907C207.377 66.5411 207.479 66.0914 207.563 65.6418C209.509 55.4423 210.382 45.1335 210.626 34.7669V34.7734Z" fill="#DBF505"/>
<path d="M84.1705 190.233C84.6201 190.316 84.8321 190.695 85.1211 190.978C86.2515 192.102 87.382 193.219 88.4739 194.375C89.0648 194.998 90.1053 195.48 90.0796 196.315C90.0539 197.118 89.1033 197.69 88.5574 198.358C87.4847 199.668 86.3286 200.908 85.256 202.218C84.5752 203.046 84.6009 203.136 85.3331 203.888C86.9131 205.5 88.7436 206.849 90.2659 208.525C90.7604 209.071 91.3449 208.949 91.9743 208.782C95.4877 207.831 99.0331 207.009 102.611 206.322C107.299 205.429 112.014 204.774 116.754 204.228C125.187 203.252 133.653 203.143 142.118 203.387C150.583 203.624 158.991 204.575 167.341 206.027C179.358 208.114 191.041 211.358 202.326 216.008C208.936 218.731 215.281 221.968 221.345 225.758C222.231 226.31 223.021 226.978 223.541 227.877C225.982 232.116 227.594 236.587 227.69 241.565C227.774 245.964 225.731 248.97 222.025 251.045C219.944 252.207 217.658 252.83 215.403 253.511C205.223 256.594 194.818 258.662 184.329 260.313C178.356 261.251 172.344 261.964 166.313 262.439C163.757 262.638 161.188 262.696 158.625 262.767C156.814 262.818 155.054 262.985 153.371 263.736C151.919 264.385 150.962 265.394 150.532 266.954C149.787 269.671 149.003 272.382 148.181 275.079C146.967 279.055 145.708 283.012 144.469 286.975C144.424 287.122 144.366 287.264 144.327 287.411C144.135 288.105 143.782 288.33 143.088 287.944C141.919 287.302 140.711 286.724 139.536 286.095C131.527 281.791 123.723 277.154 116.24 271.977C108.077 266.325 100.311 260.185 93.3553 253.081C85.0183 244.564 78.6661 234.776 74.8766 223.413C74.1122 221.12 73.5984 218.776 73.5342 216.335C73.5149 215.545 73.7783 215.147 74.504 214.845C76.9126 213.824 79.3469 212.867 81.8069 211.968C82.1409 211.846 82.4877 211.737 82.8217 211.615C84.3247 211.056 84.4403 210.645 83.4319 209.45C82.3079 208.114 81.1839 206.778 80.0663 205.442C79.5139 204.783 79.5203 204.108 80.0855 203.419C81.839 201.274 83.5603 199.096 85.3652 196.996C86.0653 196.18 86.1937 195.474 85.6992 194.51C85.1596 193.463 84.7743 192.339 84.3375 191.247C84.2091 190.926 83.9393 190.624 84.1705 190.239V190.233Z" fill="#C20000"/>
<path d="M211.277 73.6595C212.286 73.1199 212.568 72.1051 212.883 71.1353C213.596 68.945 213.988 66.6713 214.386 64.4105C214.964 61.1412 215.189 57.827 215.574 54.532C215.767 52.8621 215.818 51.1536 215.863 49.4836C215.972 44.9748 216.461 40.4723 216.204 35.9634C216.133 34.7366 216.628 34.0687 217.687 33.5869C221.49 31.8528 225.305 31.8271 229.152 33.3942C232.839 34.8972 235.684 37.4471 237.765 40.787C239.545 43.6452 242.005 45.4244 245.19 46.3621C246.661 46.7924 248.113 47.2934 249.539 47.8779C254.947 50.0938 258.852 53.9411 261.607 59.0024C263.207 61.9377 264.369 65.0528 265.076 68.3284C265.288 69.3047 265.307 70.281 265.204 71.2316C264.966 73.4347 265.769 74.8156 267.889 75.6249C269.411 76.2029 270.786 77.1214 271.967 78.3161C273.65 80.0181 274.395 82.0606 274.485 84.3986C274.504 84.861 274.498 85.3235 274.485 85.7859C274.466 86.2997 274.639 86.6594 275.16 86.8521C278.641 88.1752 281.422 90.5067 283.965 93.1466C285.854 95.112 287.408 97.3343 288.757 99.7044C291.371 104.297 293.092 109.223 293.818 114.439C294.3 117.926 294.383 121.446 293.979 124.998C293.6 128.293 292.675 131.401 291.641 134.51C291.525 134.851 291.397 135.184 291.294 135.525C290.947 136.687 290.973 136.925 292.065 137.516C294.03 138.582 295.417 140.169 296.561 142.038C297.839 144.132 298.488 146.444 298.796 148.833C298.95 150.041 299.239 151.248 299.13 152.494C298.828 156.014 298.475 159.521 296.946 162.784C296.387 163.985 296.419 163.972 297.441 164.865C299.483 166.65 300.132 168.918 299.618 171.532C299.438 172.431 299.239 173.343 298.789 174.159C298.507 174.66 298.578 175.007 299.085 175.302C299.573 175.585 300.042 175.906 300.492 176.24C304.005 178.886 306.079 182.399 306.863 186.722C307.306 189.15 307.615 191.59 307.409 194.044C307.126 197.455 306.625 200.839 305.604 204.128C304.506 207.661 303.189 211.097 301.494 214.392C300.858 215.619 300.337 216.903 299.74 218.156C299.091 219.511 299.001 220.783 300.113 221.964C300.678 222.562 301.076 223.281 301.474 224.007C301.969 224.925 302.033 225.889 301.815 226.846C301.172 229.621 299.958 232.151 298.385 234.515C298.186 234.81 298.019 235.151 297.569 235.099C297.049 233.314 297.267 231.445 296.985 229.633C296.811 228.522 296.837 227.379 296.663 226.268C296.156 223.063 294.557 220.738 291.236 219.935C290.427 219.742 290.157 219.408 290.074 218.502C288.461 200.602 283.985 183.491 275.879 167.395C275.449 166.541 275.282 165.655 275.172 164.743C273.714 152.892 270.445 141.556 265.544 130.688C259.038 116.25 250.11 103.513 238.613 92.6135C230.707 85.1115 221.901 78.8813 212.067 74.1412C211.798 74.0127 211.547 73.8265 211.29 73.6723L211.277 73.6595Z" fill="#A5BC00"/>
<path d="M201.055 168.56C198.717 166.961 196.636 165.06 194.491 163.229C185.505 155.547 176.93 147.435 168.979 138.681C163.243 132.367 157.854 125.771 153.185 118.609C151.438 115.924 149.286 114.756 145.31 115.764C143.595 116.194 142.118 117.145 140.712 118.192C125.097 129.798 109.483 141.404 93.8692 153.017C82.6227 161.379 71.3762 169.742 60.1297 178.105C59.648 178.464 59.1534 178.805 58.6332 179.171C58.4148 178.676 58.7873 178.439 58.9607 178.175C72.6929 157.616 89.7393 140.428 110.845 127.409C124.372 119.065 138.855 113.06 154.431 109.778C160.16 108.57 165.947 107.812 171.798 107.446C177.091 107.119 182.37 107.138 187.637 107.594C208.865 109.424 227.928 116.811 244.589 130.158C259.657 142.226 270.563 157.442 278.162 175.099C283.159 186.711 286.402 198.819 288.079 211.35C288.355 213.431 288.618 215.518 288.856 217.606C288.914 218.106 289.004 218.62 288.83 219.237C287.135 218.884 285.497 218.363 283.904 217.695C284.231 216.661 283.737 215.672 283.73 214.657C283.705 212.499 283.332 210.38 283.011 208.267C282.324 203.771 281.367 199.332 280.076 194.958C278.322 188.998 276.216 183.179 273.576 177.559C270.429 170.866 266.723 164.494 262.432 158.463C259.285 154.032 255.894 149.792 252.188 145.836C248.192 141.571 243.915 137.608 239.271 134.018C233.773 129.766 227.954 126.073 221.704 123.054C220.786 122.611 219.855 122.187 218.84 121.962C217.26 121.615 216.322 122.155 215.827 123.703C215.416 124.994 215.975 126.13 216.438 127.242C217.587 130.036 218.654 132.868 219.546 135.752C220.747 139.619 221.422 143.607 221.743 147.628C221.987 150.705 221.659 153.768 220.818 156.748C220.073 159.388 218.955 161.861 217.022 163.865C214.055 166.935 210.323 168.29 206.135 168.502C204.446 168.586 202.75 168.541 201.055 168.547V168.56Z" fill="#FD3800"/>
<path d="M201.068 168.564C202.764 168.551 204.46 168.602 206.149 168.519C210.337 168.307 214.068 166.952 217.036 163.882C218.969 161.878 220.087 159.405 220.832 156.765C221.673 153.785 222.001 150.721 221.757 147.645C221.435 143.617 220.761 139.635 219.56 135.769C218.661 132.885 217.601 130.052 216.451 127.258C215.995 126.147 215.43 125.01 215.841 123.719C216.336 122.171 217.267 121.632 218.853 121.979C219.868 122.203 220.8 122.627 221.718 123.07C227.967 126.089 233.787 129.782 239.285 134.034C243.928 137.625 248.206 141.588 252.201 145.853C255.914 149.809 259.298 154.048 262.446 158.48C266.736 164.511 270.449 170.883 273.589 177.575C276.229 183.195 278.336 189.014 280.089 194.975C281.38 199.349 282.331 203.794 283.025 208.283C283.346 210.396 283.718 212.522 283.744 214.674C283.757 215.689 284.245 216.678 283.917 217.712C280.263 216.646 276.756 215.201 273.262 213.711C255.522 206.157 239.073 196.33 223.253 185.386C215.905 180.305 208.795 174.903 201.826 169.322C201.55 169.097 201.319 168.821 201.068 168.564Z" fill="#C30000"/>
<path d="M174.976 66.5091C185.837 66.5091 196.236 68.802 206.275 72.8742C207.547 73.388 208.382 74.3065 209.063 75.4112C210.559 77.8262 211.131 80.5239 211.33 83.3178C211.76 89.1755 210.797 94.8726 209.281 100.499C208.562 103.177 207.695 105.804 206.693 108.386C206.23 109.568 206.217 109.6 205.029 109.298C201.098 108.297 197.116 107.558 193.102 107.031C190.102 106.639 187.084 106.408 184.065 106.222C179.549 105.946 175.034 106.055 170.532 106.363C162.895 106.896 155.367 108.162 147.962 110.114C141.558 111.803 135.308 113.962 129.22 116.563C127.877 117.134 128.038 117.327 127.331 115.843C125.43 111.868 124.37 107.673 124.011 103.274C123.606 98.3282 124.197 93.5495 126.085 88.9507C127.338 85.9063 129.271 83.3628 131.872 81.3074C141.815 73.4587 153.055 68.7314 165.618 67.1C168.727 66.6953 171.842 66.4513 174.976 66.5026V66.5091ZM132.566 91.3529C133.703 91.2822 134.878 90.9225 136.015 90.4537C139.65 88.9443 142.849 86.7476 145.791 84.1592C147.178 82.9324 148.475 81.6222 149.529 80.0871C150.023 79.3677 150.467 78.6227 150.672 77.7556C151.006 76.3811 150.46 75.5589 149.066 75.3984C148.719 75.3598 148.353 75.3984 148 75.4369C146.086 75.6681 144.371 76.4389 142.688 77.3317C138.854 79.3806 135.418 81.9369 132.553 85.219C131.673 86.2274 130.87 87.2936 130.427 88.5782C129.817 90.3509 130.594 91.385 132.566 91.3529ZM155.065 76.0471C156.581 75.9122 157.936 75.4048 158.926 74.1716C159.382 73.6 159.722 72.9577 159.349 72.1998C158.983 71.4547 158.264 71.2877 157.538 71.2813C156.035 71.2684 154.744 71.8208 153.717 72.9191C153.171 73.5036 152.804 74.1909 153.132 75.0066C153.472 75.848 154.269 75.9379 155.059 76.0471H155.065Z" fill="#FE3800"/>
<path d="M268.879 155.011C267.581 153.623 266.644 151.966 265.526 150.444C256.399 137.996 245.255 127.784 231.883 120.051C225.563 116.396 218.896 113.499 211.953 111.245C211.709 111.168 211.452 111.136 211.278 110.917C211.265 110.494 211.407 110.121 211.58 109.742C214.4 103.364 215.903 96.6714 216.243 89.709C216.282 88.9318 216.468 88.1868 216.738 87.4738C217.206 86.2342 218.106 85.7397 219.41 85.9645C220.167 86.0993 220.868 86.3948 221.542 86.7994C225.055 88.9126 228.447 91.2055 231.587 93.8389C234.054 95.9071 236.494 98.0395 238.71 100.371C240.252 101.996 241.793 103.64 243.264 105.349C245.968 108.496 248.531 111.74 250.882 115.157C255.102 121.278 258.859 127.662 261.929 134.457C264.569 140.302 266.753 146.301 268.526 152.454C268.763 153.27 269.116 154.112 268.879 155.011Z" fill="#C20000"/>
<path d="M268.884 155.013C269.128 154.114 268.769 153.273 268.531 152.457C266.758 146.304 264.574 140.305 261.935 134.46C258.864 127.664 255.113 121.28 250.887 115.159C248.536 111.748 245.974 108.498 243.27 105.351C241.799 103.643 240.257 101.992 238.716 100.373C236.5 98.0419 234.059 95.9095 231.593 93.8414C228.452 91.208 225.061 88.915 221.547 86.8019C220.879 86.3972 220.173 86.0953 219.415 85.9669C218.111 85.7421 217.205 86.2366 216.743 87.4763C216.473 88.1892 216.287 88.9343 216.248 89.7114C215.908 96.6674 214.405 103.36 211.585 109.744C211.418 110.123 211.271 110.502 211.284 110.92C211.181 110.92 211.072 110.939 210.975 110.913C209.858 110.567 208.31 110.644 207.732 109.77C207.154 108.903 208.213 107.702 208.573 106.661C210.481 101.163 211.932 95.5627 212.433 89.7564C212.793 85.6008 212.754 81.4387 211.309 77.4373C210.988 76.538 210.564 75.6774 210.147 74.7075C210.808 74.8039 211.271 75.1057 211.759 75.3498C225.035 81.8755 236.371 90.8868 245.974 102.095C258.685 116.938 267.285 133.901 271.852 152.9C272.5 155.591 273.001 158.315 273.477 161.044C273.56 161.52 273.689 162.021 273.438 162.753C271.967 160.274 270.593 157.961 269.218 155.643C269.244 155.36 269.218 155.097 268.891 154.994V155.013H268.884Z" fill="#FD3800"/>
<path d="M48.29 331.783C48.6946 330.89 49.2984 330.119 49.8508 329.316C60.4036 313.773 69.4021 297.401 76.2168 279.866C77.238 277.239 78.1565 274.574 79.0621 271.902C79.3897 270.938 79.5824 269.924 79.7494 268.915C80.0448 267.162 79.7879 265.479 78.7538 263.783C80.5009 264.066 81.9203 264.58 83.0957 265.62C85.3566 267.618 85.4658 270.187 84.7914 272.846C84.0271 275.878 82.8773 278.8 81.7469 281.71C74.4569 300.452 64.8033 317.915 53.1971 334.32C52.0153 335.99 50.9041 337.711 49.5617 339.265C48.1615 339.13 47.9817 338.983 47.5963 337.782C47.3394 336.972 47.4229 336.176 47.5192 335.36C47.6605 334.14 48.2771 333.029 48.2964 331.789L48.29 331.783Z" fill="#D0E5EB"/>
<path d="M268.044 320.718C268.044 321.181 268.037 321.643 268.044 322.099C268.082 323.93 268.076 323.987 266.188 323.782C262.27 323.351 258.358 322.928 254.447 322.439C251.03 322.015 251.723 322.349 250.779 319.048C250.246 317.179 249.719 315.31 249.366 313.39C248.653 309.472 249.552 306.074 252.513 303.318C257.183 298.964 264.37 300.936 266.136 307.063C267.003 310.075 267.459 313.158 267.716 316.28C267.838 317.757 268.057 319.234 268.044 320.724V320.718Z" fill="#C20000"/>
<path d="M48.2783 331.783C48.259 333.022 47.6424 334.133 47.5011 335.354C47.4048 336.176 47.3213 336.972 47.5782 337.775C47.9636 338.983 48.1434 339.131 49.5436 339.259C46.9102 343.055 43.9557 346.594 40.9755 350.114C37.0254 354.777 32.7734 359.151 28.3095 363.319C26.1193 365.368 23.6272 365.959 20.7883 365.124C18.7843 364.533 17.1336 363.383 15.605 361.855C16.2987 361.656 16.7418 362.022 17.2236 362.137C19.7606 362.741 21.9508 362.227 23.8841 360.41C32.6514 352.137 40.2304 342.856 47.225 333.074C47.5461 332.624 47.7709 332.078 48.2847 331.783H48.2783Z" fill="#92B1BA"/>
<path d="M41.1586 254.404C40.0346 256.26 38.6858 257.924 37.1764 259.465C35.1147 261.565 32.8024 263.351 30.1048 264.571C28.0944 265.483 26.0263 265.965 23.8425 265.136C21.6972 264.327 19.9759 263.043 19.7768 260.602C19.5777 258.168 21.01 256.562 23.0332 255.457C24.9087 254.436 26.9833 254.038 28.9936 254.654C32.8923 255.855 36.6883 255.56 40.4907 254.372C40.6898 254.307 40.8824 254.256 41.1651 254.404H41.1586ZM23.4378 259.439C24.7609 259.465 26.6429 258.604 27.5292 257.596C27.8118 257.275 28.088 256.96 27.8696 256.511C27.6577 256.074 27.2338 256.067 26.8163 256.035C25.2298 255.92 23.9324 256.588 22.7249 257.493C22.2881 257.821 22.0055 258.245 22.1854 258.823C22.3845 259.459 22.924 259.439 23.4443 259.439H23.4378ZM37.5233 257.32C37.4976 257.031 37.459 256.645 37.0287 256.812C36.001 257.204 35.2367 257.93 34.8 258.932C34.6715 259.234 34.6843 259.703 35.2624 259.619C35.9625 259.516 37.4655 257.981 37.5233 257.32Z" fill="#D0E5EB"/>
<path d="M50.3608 243.056C49.5387 238.971 49.6029 234.912 50.6948 230.878C50.971 229.851 51.427 229.009 52.2941 228.354C53.5979 227.372 54.8376 226.305 56.0836 225.291C56.4883 225.522 56.3341 225.792 56.2763 225.991C54.2467 232.812 53.9576 239.697 55.4542 246.66C55.5055 246.91 55.5312 247.167 55.5698 247.417C53.9319 247.687 52.6474 247.141 51.7995 245.709C51.4334 245.092 51.1444 244.431 50.8489 243.782C50.7269 243.512 50.7397 243.165 50.3672 243.069L50.3608 243.056Z" fill="#D0E5EB"/>
<path d="M50.3511 243.056C50.7236 243.153 50.7108 243.5 50.8328 243.769C51.1282 244.424 51.4173 245.086 51.7834 245.696C52.6312 247.135 53.9158 247.674 55.5536 247.405C56.4271 249.974 57.2429 252.569 58.7651 254.913C57.4998 254.643 53.3827 251.586 52.6633 250.301C51.4044 248.053 50.5566 245.651 50.3511 243.056Z" fill="#92B1BA"/>
<path d="M268.898 154.993C269.225 155.096 269.251 155.359 269.225 155.642C268.988 155.488 268.872 155.276 268.898 154.993Z" fill="#C20000"/>
<path d="M292.065 256.48C292.065 257.803 291.885 259.73 292.104 261.599C292.47 264.727 292.463 267.867 292.271 270.97C291.982 275.588 292.219 280.199 291.994 284.811C291.808 288.485 291.551 292.159 291.371 295.839C291.23 298.794 290.723 301.729 289.605 304.517C288.834 306.431 287.614 307.85 285.584 308.428C283.51 309.019 281.756 308.28 280.228 306.938C277.98 304.973 276.849 302.48 276.926 299.468C276.978 297.464 276.83 295.48 276.342 293.533C275.789 291.343 274.55 289.506 273.111 287.83C269.771 283.938 265.571 281.233 260.908 279.197C257.189 277.572 253.521 275.832 250.477 273.089C248.723 271.509 247.67 269.46 247.073 267.174C246.154 263.654 247.734 260.995 250.291 258.972C254.408 255.722 256.829 251.56 257.818 246.498C258.184 244.649 258.499 242.76 258.422 240.872C258.261 236.948 257.497 233.152 255.448 229.722C254.896 228.797 254.234 227.955 253.483 227.172C252.095 225.733 250.836 224.179 249.745 222.496C248.852 221.115 248.428 219.619 248.595 217.968C248.768 216.24 250.181 215.495 251.671 216.401C257.959 220.242 264.704 223.068 271.608 225.56C276.528 227.332 281.532 228.784 286.638 229.889C288.288 230.248 289.457 231.315 290.132 232.869C290.684 234.147 290.986 235.528 291.057 236.89C291.237 240.467 291.731 244.013 291.815 247.603C291.872 250.365 292.014 253.127 292.072 256.467L292.065 256.48Z" fill="#C30000"/>
<path d="M231.657 378.712C231.779 376.592 231.246 374.607 230.61 372.661C229.769 370.086 228.947 367.51 228.414 364.838C227.694 361.228 227.836 357.677 229.281 354.311C230.642 351.138 232.929 348.614 235.916 346.848C237.81 345.724 239.808 344.754 242.017 344.381C243.27 344.169 244.542 344.021 245.807 343.899C246.655 343.816 247.207 344.156 247.535 345.049C248.755 348.363 250.007 351.671 251.343 354.934C252.583 357.966 253.925 360.959 255.261 363.952C256.392 366.476 257.599 368.981 258.402 371.627C260.066 377.112 259.34 382.186 255.557 386.708C251.877 391.101 247.541 394.743 242.923 398.089C237.341 402.13 231.426 405.598 225.209 408.546C219.929 411.045 214.489 413.145 208.734 414.327C206.929 414.699 206.512 414.506 206.023 412.798C204.52 407.589 205.015 402.579 207.629 397.813C208.914 395.475 210.975 393.972 213.339 392.868C215.94 391.654 218.644 390.71 221.413 389.939C224.213 389.155 226.757 387.832 228.799 385.706C230.675 383.754 231.895 381.506 231.664 378.712H231.657Z" fill="#C30000"/>
<path d="M7.95739 324.522C7.93812 322.049 8.36204 321.459 11.0789 320.63C12.0295 320.341 13.0315 320.161 14.0784 320.257C16.4421 320.476 17.8551 321.895 18.8892 323.841C19.3259 324.657 19.7242 325.486 20.2573 326.244C21.8244 328.479 23.7642 329.044 26.2755 327.901C28.7612 326.764 30.6495 324.933 32.2488 322.737C33.7518 320.668 34.9721 318.401 36.6228 316.436C39.6352 312.845 43.354 310.501 48.0941 309.994C49.1347 309.884 50.1431 310.116 51.1065 310.456C52.0507 310.79 52.2112 311.182 51.7231 312.094C50.901 313.629 50.0339 315.138 49.1347 316.635C46.8417 320.457 44.4716 324.233 41.9282 327.894C38.8066 332.397 35.5374 336.777 32.0305 340.997C29.8274 343.65 27.4638 346.116 25.0231 348.531C23.9954 349.546 22.82 350.381 21.6318 351.164C19.3645 352.667 16.3586 351.736 14.9455 349.199C13.2948 346.232 12.1194 343.059 11.111 339.828C9.96776 336.167 9.06856 332.442 8.41984 328.659C8.18219 327.258 7.85463 325.845 7.95739 324.529V324.522Z" fill="#C30000"/>
<path d="M110.203 393.535C110.177 391.249 110.788 389.084 111.462 386.932C113.196 381.428 115.643 376.264 119.067 371.594C119.703 370.721 120.448 369.937 121.257 369.231C121.674 368.865 122.143 368.512 122.644 368.287C123.788 367.773 124.668 368.197 125.021 369.404C125.284 370.297 125.329 371.203 125.214 372.14C124.88 374.851 124.128 377.446 123.197 380.002C121.662 384.203 119.748 388.217 117.249 391.929C116.594 392.906 115.849 393.824 115.104 394.736C114.551 395.411 113.903 396.002 113.158 396.464C111.616 397.415 110.415 396.849 110.21 395.077C110.152 394.569 110.203 394.055 110.203 393.542V393.535Z" fill="white"/>
<path d="M188.508 303.064C188.636 291.888 191.617 281.508 197.243 271.874C197.558 271.341 197.738 270.429 198.56 270.583C199.408 270.744 199.189 271.636 199.273 272.266C199.832 276.364 201.078 280.269 202.773 284.02C205.843 290.822 209.806 297.02 215.471 301.978C217.212 303.5 219.023 304.939 220.314 306.879C224.284 312.852 225.51 319.243 222.8 326.032C219.614 334.009 211.207 337.317 203.351 333.836C199.196 331.999 196.222 328.909 193.967 325.043C191.039 320.046 189.478 314.612 188.829 308.889C188.611 306.949 188.457 305.003 188.508 303.051V303.064ZM198.078 273.088C198.027 273.094 197.962 273.088 197.937 273.107C197.783 273.306 197.609 273.499 197.494 273.717C191.116 285.478 188.315 297.925 190.371 311.272C191.186 316.552 192.953 321.51 195.978 325.961C197.795 328.633 200.056 330.843 202.96 332.314C210.519 336.142 218.554 333.187 221.74 325.569C222.787 323.058 223.205 320.444 222.993 317.74C222.575 312.454 220.597 307.817 216.531 304.374C206.877 296.198 200.956 285.876 198.329 273.576C198.29 273.396 198.341 273.146 198.078 273.081V273.088Z" fill="#090503"/>
<path d="M140.08 127.045C139.951 127.302 139.804 127.623 139.624 127.925C138.949 129.024 138.101 129.993 137.202 130.905C130.266 137.919 122.898 144.426 114.639 149.866C113.784 150.431 112.917 150.977 111.941 151.317C111.594 151.439 111.196 151.549 110.939 151.228C110.695 150.926 110.83 150.547 111.003 150.213C111.356 149.525 111.845 148.928 112.346 148.344C115.05 145.177 118.088 142.338 121.216 139.602C125.885 135.511 130.632 131.516 135.937 128.259C136.984 127.617 137.992 126.904 139.2 126.583C139.585 126.48 139.913 126.512 140.086 127.052L140.08 127.045Z" fill="white"/>
<path d="M219 289.031C216.502 289.05 214.922 288.575 213.47 287.599C211.261 286.109 209.526 284.175 208.068 281.979C206.007 278.876 204.606 275.472 203.688 271.869C203.637 271.67 203.598 271.471 203.566 271.265C203.495 270.848 203.444 270.411 203.906 270.193C204.292 270.006 204.587 270.283 204.863 270.514C206.09 271.535 207.407 272.421 208.807 273.173C211.1 274.4 213.528 275.113 216.155 275.138C218.795 275.164 221.043 276.198 222.892 278.054C225.051 280.212 225.731 282.994 224.652 285.351C223.4 288.068 221.023 288.922 219 289.031ZM205.364 272.351C205.101 272.614 205.159 272.775 205.197 272.916C206.206 276.275 207.632 279.435 209.726 282.268C210.952 283.925 212.378 285.389 214.087 286.558C215.358 287.425 216.739 287.856 218.281 287.817C220.638 287.753 222.681 287.021 223.631 284.683C224.556 282.403 223.638 280.469 222.045 278.825C220.317 277.039 218.152 276.23 215.692 276.192C214.144 276.166 212.642 275.967 211.171 275.44C209.083 274.695 207.182 273.61 205.358 272.357L205.364 272.351Z" fill="#090503"/>
<path d="M40.4284 200.581C39.6577 200.561 39.4714 200.247 39.876 199.604C40.1458 199.174 40.4734 198.757 40.8459 198.416C44.5262 195.012 48.6305 192.25 53.1907 190.163C53.6981 189.932 54.2377 189.713 54.8093 189.72C55.3488 189.72 55.5929 190.041 55.3553 190.522C55.1561 190.927 54.8543 191.3 54.5267 191.614C50.795 195.198 46.5559 198.037 41.8671 200.208C41.4111 200.42 40.9294 200.645 40.4284 200.574V200.581Z" fill="white"/>
<path d="M124.425 361.212C124.63 359.227 125.221 357.236 126.532 355.521C127.033 354.866 127.675 354.192 128.58 354.442C129.589 354.731 129.698 355.701 129.692 356.594C129.692 358.874 128.94 360.91 127.572 362.721C127.36 363.004 127.097 363.267 126.808 363.479C125.799 364.224 125.003 363.935 124.579 362.721C124.418 362.265 124.489 361.809 124.418 361.212H124.425Z" fill="white"/>
<path d="M145.741 121.878C145.702 122.058 145.709 122.225 145.638 122.354C144.899 123.683 143.891 124.717 142.414 125.199C142.067 125.315 141.707 125.347 141.418 125.051C141.123 124.743 141.2 124.37 141.354 124.056C142.073 122.553 143.255 121.564 144.867 121.153C145.407 121.011 145.715 121.339 145.741 121.878Z" fill="white"/>
<path d="M210.623 34.771C210.379 45.1376 209.505 55.4464 207.559 65.6459C207.475 66.0955 207.373 66.5516 207.257 66.9948C207.167 67.3352 206.929 67.5407 206.576 67.4508C206.242 67.3673 206.101 67.0783 206.139 66.7378C206.172 66.4873 206.249 66.2369 206.3 65.9864C207.861 58.022 208.741 49.9805 209.203 41.8876C209.467 37.2246 209.576 32.5616 209.357 27.8985C209.306 26.7745 209.165 25.6505 209.081 24.5265C209.055 24.1797 208.998 23.7557 209.499 23.6787C209.987 23.6016 210.077 23.9741 210.154 24.3467C210.526 26.113 210.513 27.9178 210.603 29.7034C210.693 31.3926 210.623 33.0882 210.623 34.7775V34.771Z" fill="#090503"/>
<path d="M132.56 91.3504C130.589 91.3825 129.811 90.3484 130.422 88.5757C130.865 87.2911 131.668 86.2249 132.548 85.2165C135.412 81.928 138.848 79.3716 142.683 77.3292C144.366 76.4299 146.081 75.6592 147.995 75.4344C148.348 75.3894 148.714 75.3573 149.061 75.3959C150.455 75.5564 151.001 76.3786 150.667 77.7531C150.455 78.6202 150.018 79.3652 149.523 80.0846C148.47 81.6132 147.179 82.9299 145.785 84.1567C142.844 86.7516 139.645 88.9418 136.01 90.4512C134.873 90.9264 133.697 91.2861 132.56 91.3504Z" fill="white"/>
<path d="M155.068 76.047C154.278 75.9443 153.482 75.8479 153.141 75.0065C152.814 74.1908 153.18 73.5036 153.726 72.9191C154.754 71.8208 156.045 71.262 157.548 71.2812C158.273 71.2877 158.993 71.4547 159.359 72.1997C159.731 72.9576 159.391 73.5999 158.935 74.1716C157.946 75.4047 156.591 75.9122 155.075 76.047H155.068Z" fill="white"/>
<path d="M23.4519 259.44C22.9316 259.44 22.3921 259.459 22.193 258.823C22.0131 258.245 22.3022 257.821 22.7325 257.494C23.94 256.582 25.2439 255.914 26.8239 256.036C27.2478 256.068 27.6717 256.074 27.8773 256.511C28.0956 256.961 27.813 257.276 27.5368 257.597C26.6569 258.605 24.7686 259.466 23.4455 259.44H23.4519Z" fill="white"/>
<path d="M37.5132 257.319C37.4554 257.981 35.9525 259.516 35.2524 259.619C34.6807 259.702 34.6615 259.233 34.7899 258.932C35.2267 257.93 35.9974 257.204 37.0187 256.812C37.449 256.645 37.4876 257.03 37.5132 257.319Z" fill="white"/>
<path d="M198.094 273.084C198.357 273.155 198.306 273.399 198.344 273.579C200.971 285.879 206.893 296.194 216.547 304.377C220.612 307.82 222.591 312.457 223.008 317.743C223.22 320.447 222.809 323.068 221.756 325.572C218.57 333.19 210.535 336.145 202.975 332.317C200.072 330.846 197.805 328.63 195.993 325.964C192.968 321.513 191.202 316.555 190.386 311.275C188.331 297.928 191.138 285.481 197.509 273.72C197.631 273.502 197.798 273.309 197.952 273.11C197.972 273.084 198.042 273.097 198.094 273.091V273.084ZM208.865 327.801C209 326.96 208.576 326.176 208.094 325.457C206.398 322.958 204.189 320.999 201.536 319.573C200.733 319.143 199.834 318.841 198.941 318.649C196.995 318.231 195.891 319.541 196.507 321.436C196.732 322.123 197.04 322.766 197.451 323.357C199.031 325.624 201.08 327.384 203.502 328.668C204.574 329.24 205.73 329.696 207.002 329.683C208.454 329.67 208.852 329.291 208.865 327.788V327.801ZM203.007 294.813C203.02 294.042 202.936 293.4 202.782 292.739C202.326 290.837 201.626 289.033 200.875 287.241C200.316 285.917 199.564 284.697 198.742 283.515C198.363 282.969 197.927 282.738 197.323 282.886C196.7 283.04 196.886 283.599 196.841 284.036C196.706 285.346 197.137 286.566 197.477 287.793C198.228 290.516 199.308 293.111 200.971 295.41C201.337 295.918 201.812 296.618 202.583 296.335C203.348 296.053 202.892 295.256 203.014 294.807L203.007 294.813ZM206.938 302.27C207.734 302.289 208.248 301.808 208.19 301.088C208.113 300.099 206.874 298.596 205.923 298.352C205.339 298.204 204.728 298.513 204.574 299.039C204.195 300.311 205.602 302.232 206.938 302.264V302.27Z" fill="#D0E5EB"/>
<path d="M205.365 272.349C207.189 273.601 209.09 274.687 211.178 275.432C212.648 275.958 214.151 276.157 215.699 276.183C218.159 276.228 220.324 277.031 222.052 278.817C223.645 280.467 224.563 282.401 223.638 284.674C222.687 287.012 220.645 287.744 218.288 287.809C216.753 287.854 215.365 287.417 214.094 286.55C212.379 285.381 210.959 283.923 209.732 282.259C207.639 279.427 206.213 276.267 205.204 272.908C205.159 272.766 205.102 272.606 205.371 272.342L205.365 272.349ZM218.012 286.261C218.77 286.389 219.553 286.042 220.317 285.593C220.709 285.362 220.908 285.028 220.851 284.578C220.793 284.109 220.504 283.865 220.048 283.781C219.797 283.737 219.553 283.634 219.303 283.614C218.275 283.544 217.279 283.692 216.38 284.205C215.969 284.443 215.712 284.88 215.751 285.362C215.789 285.837 216.277 285.94 216.637 286.113C217.022 286.299 217.44 286.235 218.005 286.254L218.012 286.261ZM212.456 278.836C212.828 278.836 213.182 278.913 213.361 278.598C213.593 278.206 213.336 277.905 213.06 277.667C212.173 276.896 211.056 276.684 209.964 276.427C209.707 276.369 209.463 276.517 209.328 276.768C209.135 277.121 209.366 277.365 209.598 277.558C210.445 278.264 211.473 278.572 212.449 278.836H212.456Z" fill="#D0E5EB"/>
<path d="M208.856 327.798C208.843 329.301 208.445 329.68 206.993 329.693C205.722 329.706 204.559 329.244 203.493 328.678C201.071 327.394 199.023 325.634 197.442 323.367C197.031 322.776 196.723 322.133 196.498 321.446C195.882 319.551 196.98 318.241 198.933 318.659C199.825 318.851 200.725 319.153 201.527 319.584C204.18 321.009 206.39 322.968 208.085 325.467C208.573 326.18 208.997 326.97 208.856 327.811V327.798Z" fill="white"/>
<path d="M203 294.811C202.871 295.26 203.334 296.057 202.57 296.339C201.792 296.628 201.323 295.928 200.957 295.415C199.294 293.109 198.215 290.52 197.463 287.797C197.129 286.57 196.699 285.35 196.827 284.04C196.872 283.603 196.686 283.044 197.309 282.89C197.913 282.736 198.35 282.973 198.729 283.519C199.551 284.701 200.302 285.922 200.861 287.245C201.613 289.03 202.313 290.841 202.769 292.743C202.929 293.404 203.006 294.046 202.993 294.817L203 294.811Z" fill="white"/>
<path d="M206.933 302.268C205.597 302.23 204.191 300.309 204.57 299.044C204.724 298.517 205.34 298.209 205.918 298.357C206.869 298.601 208.109 300.097 208.186 301.093C208.243 301.812 207.73 302.294 206.933 302.275V302.268Z" fill="white"/>
<path d="M218.001 286.261C217.429 286.241 217.012 286.306 216.633 286.119C216.273 285.946 215.785 285.843 215.747 285.368C215.708 284.886 215.959 284.45 216.376 284.212C217.275 283.692 218.271 283.544 219.298 283.621C219.549 283.64 219.793 283.743 220.043 283.788C220.5 283.871 220.789 284.116 220.846 284.584C220.904 285.04 220.705 285.368 220.313 285.599C219.549 286.049 218.765 286.396 218.007 286.267L218.001 286.261Z" fill="white"/>
<path d="M212.437 278.837C211.461 278.574 210.433 278.266 209.586 277.559C209.354 277.366 209.123 277.122 209.316 276.769C209.451 276.525 209.695 276.371 209.952 276.429C211.044 276.679 212.161 276.898 213.048 277.668C213.324 277.906 213.581 278.208 213.35 278.6C213.163 278.914 212.816 278.831 212.444 278.837H212.437Z" fill="white"/>
</svg>
