<svg width="335" height="342" viewBox="0 0 335 342" fill="none" xmlns="http://www.w3.org/2000/svg">
<path d="M61.3364 67.8824C59.9698 67.3399 58.8273 66.9038 57.6977 66.4287C54.3316 65.0068 53.0851 61.3264 54.7828 57.8552C56.383 54.5825 60.0445 52.9657 63.2775 54.1252C64.3746 54.5187 65.475 54.9265 66.5397 55.4158C67.3642 55.7916 67.7635 55.5576 68.1984 54.6996C70.8731 49.4307 73.6192 44.2044 76.3328 38.9603C80.0235 31.8264 83.5811 24.6074 87.4179 17.5728C94.2896 4.98561 105.696 -0.251356 117.602 0.978994C121.975 1.4293 126.129 2.87239 130.327 4.12046C141.278 7.37185 152.221 10.6729 163.166 13.9526C164.568 14.371 164.562 14.3675 165.276 12.9137C166.136 11.1622 166.925 9.36098 167.896 7.68387C169.486 4.93243 172.511 3.63471 175.371 4.31548C179.185 5.22672 180.977 9.25106 179.263 13.1229C178.688 14.4242 178.02 15.6758 177.397 16.9487C177.241 17.2643 177.026 17.555 177.069 18.0904C178.273 18.4627 179.523 18.8598 180.779 19.2392C182.798 19.8491 184.833 20.3987 186.833 21.0759C187.647 21.3525 188.017 21.1078 188.371 20.3313C189.157 18.6046 189.962 16.8849 190.848 15.222C192.727 11.694 196.532 10.063 199.966 11.3288C202.235 12.1656 203.699 13.8427 203.988 16.5374C204.104 17.633 203.949 18.6577 203.426 19.6647C202.511 21.434 201.706 23.2742 200.79 25.2208C204.549 26.3519 208.152 27.4156 211.736 28.536C212.421 28.7487 212.609 28.3729 212.843 27.8552C213.625 26.1285 214.44 24.4159 215.212 22.6821C216.809 19.0832 220.023 17.1792 223.632 17.7926C228.797 18.6719 230.241 24.5329 228.294 27.7276C227.505 29.0218 226.972 30.5039 226.291 31.8796C225.973 32.5249 226.073 32.8192 226.752 33.0177C230.264 34.046 233.77 35.1097 237.272 36.1805C237.843 36.3542 238.174 36.2372 238.44 35.6025C239.174 33.851 239.917 32.0959 240.761 30.4081C242.388 27.1567 244.868 25.0541 248.23 24.4195C250.668 23.9585 252.898 24.6145 254.446 26.8554C256.128 29.2912 256.125 32.0214 255.109 34.748C254.57 36.1947 253.826 37.5491 253.2 38.9567C252.966 39.478 252.596 39.9531 252.603 40.7225C254.394 41.2721 256.18 41.8323 257.975 42.3677C276.737 47.9805 295.508 53.5366 314.25 59.2203C321.174 61.3193 326.202 66.0989 329.227 73.2151C331.347 78.2003 332.691 83.5153 333.83 88.8373C335.206 95.2727 334.324 101.676 332.337 107.867C330.714 112.927 328.578 117.759 326.666 122.691C323.443 131.01 320.178 139.307 316.932 147.618C316.717 148.167 316.519 148.724 316.295 149.33C317.347 149.983 318.486 150.217 319.532 150.699C322.382 152.014 324.313 154.174 324.563 157.684C324.907 162.467 321.521 166.637 317.11 166.988C315.656 167.101 314.25 166.874 312.881 166.353C312.205 166.094 311.53 165.832 310.862 165.552C310.32 165.325 309.914 165.374 309.703 166.059C309.563 166.516 309.381 166.956 309.209 167.399C307.758 171.108 306.298 174.816 304.853 178.529C304.662 179.018 304.366 179.476 304.373 180.153C305.515 180.646 306.694 181.117 307.843 181.663C311.199 183.255 313.027 186.234 312.968 189.949C312.871 195.917 307.262 199.977 301.981 197.888C300.893 197.459 299.825 196.97 298.767 196.463C298.193 196.186 297.865 196.264 297.634 196.952C297.31 197.909 296.901 198.835 296.534 199.778C295.041 203.597 293.551 207.419 292.032 211.309C293.421 212.011 294.797 212.617 296.099 213.376C299.127 215.145 300.773 218.772 300.315 222.477C299.877 226.027 297.345 228.998 294.041 229.803C292.2 230.25 290.422 229.934 288.701 229.147C287.692 228.686 286.689 228.214 285.618 227.722C283.602 232.873 281.635 237.905 279.635 243.018C280.583 243.78 281.651 244.071 282.628 244.567C285.861 246.212 287.968 248.868 288.38 252.793C288.906 257.817 285.446 262.093 280.749 262.462C278.941 262.604 277.246 262.171 275.607 261.377C274.757 260.966 273.958 260.416 272.939 260.211C272.257 261.923 271.569 263.625 270.9 265.338C264.606 281.456 258.345 297.589 252.005 313.686C249.47 320.122 245.465 325.398 240.576 329.865C233.341 336.475 224.992 340.19 215.598 341.13C207.302 341.96 199.339 340.605 191.682 336.999C189.806 336.116 188.011 335.078 186.229 333.996C169.944 324.104 153.649 314.225 137.357 304.344C136.88 304.053 136.39 303.791 135.848 303.482C135.491 304.251 135.16 304.936 134.851 305.631C133.566 308.535 131.378 309.726 128.519 309.538C124.162 309.251 120.397 304.922 120.439 300.39C120.455 298.798 121.114 297.49 121.767 296.171C122.121 295.455 122.124 295.072 121.381 294.632C117.648 292.423 113.941 290.164 110.25 287.87C109.52 287.417 109.192 287.58 108.893 288.367C108.686 288.916 108.406 289.455 108.075 289.927C105.845 293.104 101.843 293.763 98.7496 291.498C95.0394 288.782 94.374 283.424 95.9775 280.478C96.4125 279.676 96.1918 279.34 95.5393 278.949C92.2479 276.985 88.9662 275.01 85.7072 272.986C85.0029 272.55 84.701 272.649 84.3374 273.443C82.6787 277.067 78.8517 278.283 75.4012 276.453C71.98 274.638 70.2661 270.38 71.4347 266.603C71.8285 265.329 71.4844 264.363 70.4024 263.703C67.8478 262.15 65.2998 260.594 62.7387 259.058C62.2648 258.775 61.8233 258.399 61.2001 258.307C60.9014 258.931 60.6028 259.572 60.2912 260.207C58.5221 263.785 54.8866 264.894 51.6634 262.859C48.544 260.891 46.8041 256.027 48.742 252.169C49.349 250.963 49.3263 250.939 48.1285 250.212C39.4552 244.943 30.795 239.653 22.1022 234.426C18.8011 232.444 15.646 230.26 12.8544 227.48C9.96873 224.608 7.59592 221.311 5.8366 217.496C4.86605 215.386 4.32397 213.106 3.63907 210.883C2.54517 207.355 1.24029 203.898 0.717682 200.172C-0.152241 193.995 0.639779 188.042 2.59711 182.23C3.22683 180.365 3.94743 178.547 4.85306 176.809C11.4197 164.187 17.9668 151.55 24.514 138.913C24.7022 138.551 24.9652 138.225 24.9846 137.686C23.8128 137.098 22.6151 136.491 21.4141 135.899C17.6714 134.059 16.5061 129.276 18.9147 125.631C20.8136 122.759 24.2965 121.709 27.3347 123.11C28.5033 123.649 29.6621 124.202 30.8112 124.791C31.337 125.06 31.6908 125.106 32.0219 124.45C33.5768 121.394 35.1673 118.362 36.7416 115.32C36.9818 114.852 37.209 114.377 37.459 113.863C35.9269 112.888 34.2584 112.398 32.7458 111.54C29.8991 109.92 28.8636 106.559 30.2431 103.382C31.3111 100.925 33.1451 99.4815 35.5308 98.8822C37.0727 98.4958 38.5756 98.6021 40.0428 99.3964C41.075 99.9566 42.1981 100.315 43.253 100.829C43.7886 101.088 44.1359 101.13 44.4638 100.481C46.0933 97.2725 47.752 94.0814 49.4464 90.7946C48.3492 90.0535 47.1807 89.7379 46.0803 89.2699C42.8343 87.8906 41.4256 84.4088 42.7467 80.8915C44.0938 77.2997 47.9662 75.3638 51.3972 76.6048C52.6502 77.0586 53.8804 77.594 55.1171 78.1081C55.5748 78.2996 55.9221 78.3457 56.2175 77.7677C57.8827 74.5128 59.5771 71.2756 61.3429 67.8717L61.3364 67.8824ZM75.3623 76.0658C75.161 75.9027 75.1286 76.0729 75.0929 76.2289C73.5348 78.8137 72.2689 81.5829 70.8244 84.2953C71.8826 84.9442 72.9862 85.2775 74.0542 85.6959C74.6027 85.976 75.1675 86.2242 75.6999 86.5362C77.9266 87.8481 78.9426 89.8833 78.7186 92.6454C78.3583 97.1484 73.8237 100.407 69.6786 99.095C68.5165 98.7262 67.3999 98.1873 66.2606 97.7335C63.904 96.7938 64.5077 96.6237 63.297 98.8893C61.7779 101.733 60.3269 104.626 58.8045 107.576C60.4243 108.438 61.9694 109.044 63.508 109.675C65.7834 110.608 67.15 112.849 66.9877 115.441C66.6533 120.773 61.5701 125.092 56.4415 122.613C55.432 122.128 54.4095 121.67 53.3902 121.213C52.0594 120.614 52.0464 120.61 51.3518 121.94C49.8521 124.822 48.3557 127.705 46.8756 130.598C46.6418 131.056 46.2556 131.449 46.288 132.116C47.7682 132.999 49.362 133.655 50.933 134.382C52.7021 135.201 53.9875 136.548 54.5004 138.619C55.2437 141.632 54.3121 144.132 52.2184 146.054C50.0534 148.043 47.5669 148.766 44.8273 147.447C43.3147 146.721 41.8086 145.972 40.3089 145.207C39.7571 144.926 39.3676 145.019 39.0884 145.621C38.9651 145.891 38.8125 146.143 38.6762 146.405C34.4921 154.482 30.2886 162.548 26.1337 170.643C25.1924 172.473 24.2316 174.313 23.6733 176.345C21.888 180.78 21.0895 185.425 21.3459 190.254C21.7711 198.225 24.7866 204.434 31.5221 208.213C37.3616 211.489 43.1135 214.961 48.9043 218.343C52.6534 220.531 56.4058 222.711 60.1581 224.889C61.687 225.775 61.5961 226.013 62.479 224.179C63.3002 222.47 64.1312 220.768 64.9914 219.084C65.7445 217.613 66.3417 216.031 67.4064 214.776C69.3345 212.5 71.6814 211.316 74.5313 212.011C78.6278 213.011 80.5883 218.382 78.4947 222.584C77.0437 225.495 75.6187 228.424 74.2067 231.356C73.564 232.689 73.5835 232.71 74.7423 233.395C76.1965 234.256 77.6572 235.111 79.1211 235.955C80.8675 236.965 82.6203 237.969 84.3277 238.947C84.8406 238.515 84.9866 237.976 85.2171 237.504C86.7297 234.423 88.158 231.288 89.755 228.26C91.7123 224.548 96.0717 223.651 99.2332 226.183C102.447 228.757 103.508 233.625 101.677 237.508C100.489 240.025 99.2592 242.521 98.0615 245.035C97.3311 246.567 97.3441 246.57 98.8015 247.421C100.262 248.272 101.716 249.134 103.18 249.981C104.972 251.017 106.77 252.041 108.653 253.123C110.156 249.875 111.607 246.765 113.035 243.645C114.609 240.209 117.193 238.568 120.715 239C126.266 239.681 129.038 246.524 126.642 251.066C125.211 253.779 123.968 256.612 122.653 259.399C121.936 260.92 121.949 260.923 123.4 261.771C126.516 263.586 129.625 265.416 132.748 267.22C134.381 268.164 134.235 268.316 135.118 266.348C136.627 262.994 138.13 259.636 139.688 256.307C141.22 253.041 144.359 251.658 147.53 252.765C152.448 254.481 155.012 260.93 152.766 266.004C151.614 268.61 150.413 271.188 149.234 273.783C148.988 274.322 148.767 274.876 148.501 275.404C148.231 275.936 148.319 276.312 148.819 276.581C149.215 276.797 149.601 277.028 149.991 277.255C155.395 280.403 160.8 283.555 166.204 286.704C174.141 291.327 182.029 296.061 190.036 300.532C195.184 303.404 200.735 304.184 206.464 303.11C211.752 302.117 216.189 299.305 220.071 295.377C224.765 290.625 228.089 284.814 230.696 278.496C233.487 271.738 236.181 264.937 238.921 258.154C240.391 254.516 241.878 250.882 243.329 247.237C243.793 246.074 243.764 246.035 242.699 245.51C240.839 244.592 238.979 243.67 237.097 242.812C233.448 241.153 231.335 238.288 231.101 233.898C231.156 233.604 231.231 233.313 231.264 233.015C232.01 226.215 239.155 223.328 243.667 225.995C244.913 226.732 246.283 227.222 247.594 227.824C248.289 228.179 248.996 228.512 249.672 228.902C250.288 229.257 250.704 229.161 250.957 228.413C251.22 227.626 251.645 226.902 251.73 226.044L251.723 226.02C251.915 225.945 251.979 225.779 251.992 225.576C253.544 222.247 254.774 218.758 256.206 215.368C256.491 214.695 256.41 214.234 255.716 213.968C255.196 213.769 254.696 213.51 254.19 213.269C252.171 212.301 250.094 211.45 248.146 210.33C244.296 208.117 242.758 203.115 244.484 198.856C246.107 194.85 250.314 192.502 254.576 194.438C257.072 195.573 259.595 196.633 262.074 197.807C262.886 198.19 263.233 197.995 263.568 197.147C265.165 193.109 266.817 189.098 268.424 185.063C268.914 183.833 268.885 183.801 267.661 183.269C265.509 182.333 263.344 181.436 261.192 180.493C259.419 179.717 257.881 178.571 256.706 176.905C253.229 171.973 255.355 165.452 260.883 163.999C263.016 163.438 265.028 163.789 267.028 164.662C269.436 165.711 271.874 166.679 274.273 167.746C274.98 168.062 275.334 168.012 275.659 167.186C277.272 163.091 278.921 159.01 280.593 154.943C280.924 154.135 280.784 153.773 280.012 153.489C277.977 152.734 275.967 151.887 273.939 151.103C272.679 150.617 271.504 149.972 270.465 149.046C266.005 145.068 266.768 138.417 271.997 135.8C274.643 134.477 277.344 134.495 280.06 135.523C282.04 136.275 284.001 137.087 285.984 137.821C287.247 138.285 287.159 138.661 287.87 136.892C291.642 127.514 295.372 118.114 299.251 108.785C301.403 103.609 302.351 98.244 301.994 92.6099C301.682 87.6637 300.465 82.9905 297.92 78.8279C295.735 75.2609 292.908 72.6868 288.948 71.6266C284.881 70.5346 280.885 69.1305 276.857 67.8682C266.784 64.7161 256.719 61.5498 246.637 58.4367C244.332 57.724 244.777 57.412 243.608 59.9649C242.644 62.0675 241.735 64.202 240.703 66.262C238.473 70.7154 233.419 72.2648 229.43 69.7616C227.992 68.861 226.94 67.5916 226.44 65.8259C226.028 64.3686 226.161 62.9929 226.787 61.6243C228.018 58.9366 229.206 56.2277 230.468 53.4018C226.453 52.1396 222.587 50.9305 218.724 49.7108C217.997 49.4803 217.757 49.9873 217.494 50.5547C216.368 52.9728 215.215 55.3732 214.099 57.7949C213.67 58.7239 213.161 59.5642 212.411 60.2202C209.09 63.1383 203.497 61.9398 201.478 57.8375C200.622 56.1001 200.482 54.3343 201.404 52.4977C202.54 50.232 203.559 47.8954 204.698 45.4312C203.033 44.7823 201.472 44.2611 199.859 43.9242C197.862 42.935 195.681 42.584 193.623 41.8039C193.188 41.6373 192.89 41.7862 192.692 42.24C191.997 43.8569 191.065 45.3496 190.539 47.0586C189.871 48.0904 189.397 49.2357 188.897 50.3667C187.43 53.7103 184.249 55.3165 180.938 54.462C179.256 54.0259 177.965 52.9799 176.838 51.6255C176.728 51.3524 176.627 51.0759 176.504 50.8099C175.537 48.6896 175.397 46.6048 176.643 44.5306C177.03 43.8852 177.286 43.1477 177.601 42.4528C178.393 41.2402 178.893 39.8503 179.562 38.5596C179.854 37.9959 179.896 37.5562 179.185 37.3718C177.812 37.0173 176.504 36.4003 175.092 36.2159C173.297 35.2763 171.323 34.9679 169.46 34.2765C169.051 34.124 168.843 34.3155 168.681 34.6807C168.058 36.0812 167.198 37.3506 166.769 38.8575C165.964 39.9283 165.513 41.226 164.899 42.4173C162.692 46.6899 156.47 48.3493 153.392 43.4101C152.435 40.9423 152.73 38.6305 153.967 36.34C154.993 34.4431 155.853 32.4398 156.739 30.5854C156.512 30.1599 156.275 30.1741 156.074 30.1103C151.416 28.6566 146.764 27.1886 142.1 25.7562C140.09 25.1392 138.133 24.3166 136.049 24.0011C134.514 23.3239 132.894 22.9445 131.313 22.441C126.12 20.7851 120.839 20.1611 115.463 21.0653C106.287 22.6147 99.3598 27.568 95.4127 36.9889C95.1141 37.4924 94.7927 37.9781 94.5233 38.4994C91.1313 45.034 87.7425 51.5723 84.3667 58.114C83.8051 59.2026 83.1234 60.2344 82.7826 61.4505C84.899 62.5036 87.314 62.7518 89.0409 64.6275C90.3944 66.6308 90.9138 68.8078 90.1867 71.2437C88.3138 74.8036 85.4963 76.2644 81.8023 75.6616C80.8934 75.5127 80.0105 75.1652 79.1147 74.9064C78.7219 74.7149 78.3356 74.4951 77.9331 74.3355C76.216 73.6583 76.1511 73.6937 75.372 75.5481C75.3104 75.6971 75.3363 75.8921 75.3233 76.0694L75.3526 76.0552L75.3623 76.0658ZM246.276 245.556C246.351 245.751 246.478 245.829 246.669 245.758C246.88 245.847 247.094 245.936 247.305 246.024C247.49 246.152 247.662 246.304 247.86 246.4C257.481 251.052 267.106 255.704 276.737 260.338C277.288 260.604 277.876 260.799 278.467 260.93C282.274 261.774 285.945 259.441 286.919 255.583C287.822 252.009 286.027 247.829 282.641 246.166C276.415 243.106 270.131 240.192 263.87 237.217C263.73 237.121 263.597 237.008 263.444 236.937C256.391 233.561 249.34 230.186 242.28 226.824C241.833 226.612 241.342 226.456 240.859 226.385C237.398 225.881 233.916 228.147 232.822 231.59C231.721 235.058 233.016 238.561 236.175 240.663C236.363 240.787 236.542 240.94 236.74 241.036C239.914 242.546 243.092 244.049 246.27 245.553L246.276 245.556ZM103.81 266.767C103.628 266.855 103.547 267.004 103.589 267.224C103.563 267.337 103.537 267.451 103.511 267.564C103.382 267.749 103.223 267.919 103.128 268.125C101.129 272.418 99.1131 276.702 97.1526 281.013C95.7016 284.204 96.6397 288.119 99.2754 290.189C102.151 292.444 105.862 291.622 107.491 288.232C110.61 281.729 113.642 275.177 116.713 268.642C116.878 268.33 117.054 268.029 117.206 267.71C119.943 261.941 122.64 256.147 125.435 250.41C126.181 248.875 126.373 247.361 126.035 245.723C125.435 242.787 123.127 240.61 120.316 240.295C117.667 239.997 115.414 241.45 114.191 244.191C113.249 246.301 112.256 248.382 111.292 250.478C108.799 255.906 106.306 261.338 103.813 266.767H103.81ZM74.9501 262.033C74.2749 263.402 73.5088 264.728 72.9408 266.15C71.3146 270.209 73.2232 274.464 77.1378 275.659C79.4685 276.372 81.7439 275.461 82.9579 273.159C84.4121 270.408 85.7657 267.593 87.0024 264.714C89.3265 259.93 91.6604 255.154 93.9748 250.368C96.1626 245.843 98.3114 241.294 100.525 236.781C102.025 233.721 101.165 229.189 98.3146 227.137C95.7503 225.289 92.6147 225.966 90.9333 228.775C90.5113 229.477 90.1607 230.235 89.8004 230.98C86.6648 237.479 83.5292 243.978 80.4098 250.488C78.5726 254.325 76.7678 258.186 74.9501 262.033ZM49.3685 254.523C48.8653 256.697 49.5275 258.562 50.7642 260.189C52.0334 261.856 53.7019 262.771 55.7144 262.366C57.7236 261.962 59.009 260.572 59.5251 258.385C59.9569 257.977 60.1549 257.402 60.4081 256.874C61.9012 253.786 63.3846 250.69 64.8745 247.599C69.0424 238.968 73.2167 230.342 77.3845 221.708C78.5141 219.364 78.1473 216.425 76.5308 214.67C74.9436 212.947 72.4669 212.681 70.2434 213.982C68.8281 214.812 67.8803 216.095 67.1305 217.62C61.424 229.246 55.7046 240.862 49.9917 252.485C49.6768 253.123 49.3847 253.772 49.3685 254.52V254.523ZM135.309 269.373C135.183 269.561 135.03 269.734 134.939 269.943C130.684 279.403 126.435 288.867 122.179 298.33C121.611 299.592 121.592 300.894 121.932 302.202C122.523 304.471 123.867 306.102 125.737 307.212C129.19 309.261 132.245 308.198 133.975 304.365C137.536 296.479 141.106 288.594 144.638 280.694C146.378 276.801 148.254 272.982 149.832 269.004C150.37 267.887 150.861 266.742 151.455 265.664C152.996 262.866 152.464 258.452 149.809 255.754C146.894 252.797 142.437 252.96 140.581 257.36C140.467 257.633 140.334 257.895 140.214 258.165C138.659 261.618 137.107 265.079 135.54 268.525C135.413 268.802 135.309 269.064 135.319 269.373H135.309ZM297.728 216.847C297.151 215.677 296.19 214.982 295.151 214.408C294.366 213.975 293.554 213.599 292.739 213.227C283.797 209.142 274.854 205.058 265.908 200.984C261.893 199.158 257.868 197.353 253.836 195.562C252.46 194.952 251.032 194.903 249.626 195.417C247.013 196.371 245.517 198.448 245.15 201.352C244.777 204.327 245.77 206.802 248.036 208.578C248.844 209.21 249.762 209.635 250.678 210.057C258.744 213.776 266.807 217.514 274.877 221.226C278.226 222.768 281.589 224.272 284.946 225.789C286.562 226.704 288.25 227.445 289.957 228.115C292.82 229.243 295.849 228.25 297.689 225.718C299.592 223.098 299.471 218.942 297.728 216.84V216.847ZM139.006 296.423C139.406 296.696 139.678 296.898 139.961 297.071C152.26 304.532 164.552 312.002 176.861 319.441C181.107 322.008 185.242 324.809 189.64 327.061C199.81 332.262 210.402 334.039 221.38 330.865C233.234 327.44 241.803 319.537 246.925 307.336C249.11 302.135 251.071 296.823 253.132 291.558C257.468 280.478 261.802 269.397 266.135 258.317C266.632 257.044 266.625 257.023 265.505 256.473C263.34 255.417 261.166 254.385 258.997 253.339C254.661 251.244 250.318 249.166 245.997 247.028C245.205 246.634 244.819 246.733 244.546 247.648C244.325 248.389 243.978 249.084 243.686 249.8C239.713 259.608 235.779 269.433 231.754 279.215C228.852 286.275 225.035 292.646 219.552 297.688C210.223 306.272 198.661 306.982 188.456 301.223C180.909 296.965 173.456 292.508 165.964 288.136C160.222 284.789 154.483 281.435 148.738 278.091C147.585 277.421 147.556 277.425 147.024 278.606C144.362 284.495 141.717 290.391 139.003 296.419L139.006 296.423ZM245.38 56.444C245.711 56.5788 246.062 56.7525 246.429 56.8695C261.114 61.4576 275.795 66.0528 290.487 70.609C292.006 71.0806 293.35 71.8571 294.602 72.857C296.501 74.371 298.079 76.236 299.251 78.445C304.269 87.9119 304.697 97.7831 300.971 107.814C298.485 114.512 295.661 121.06 292.989 127.677C291.629 131.038 290.285 134.406 288.902 137.761C288.61 138.47 288.685 138.853 289.406 139.094C290.457 139.448 291.49 139.881 292.528 140.282C297.78 142.31 303.029 144.338 308.281 146.359C309.68 146.898 309.687 146.887 310.297 145.366C310.362 145.199 310.433 145.036 310.498 144.87C316.292 130.013 322.151 115.185 327.851 100.283C330.393 93.6417 331.318 86.6816 329.815 79.5618C327.744 69.7474 322.349 63.2198 313.393 60.4294C308.093 58.7771 302.766 57.2241 297.449 55.6321C282.667 51.2071 267.885 46.7856 253.099 42.3641C251.827 41.9848 251.814 41.9883 251.243 43.2328C249.386 47.2714 247.536 51.317 245.689 55.3626C245.543 55.6817 245.338 55.9831 245.374 56.4369L245.38 56.444ZM52.6404 244.078C52.8449 243.723 53.004 243.479 53.1306 243.216C55.5813 238.224 58.032 233.235 60.473 228.236C61.08 226.995 61.067 226.977 59.853 226.268C50.0761 220.566 40.2959 214.868 30.5158 209.163C29.9315 208.823 29.3343 208.504 28.7857 208.103C23.0987 203.973 20.5084 197.956 20.0475 190.715C19.5866 183.507 21.4465 176.877 24.6276 170.657C28.8766 162.346 33.2035 154.081 37.4882 145.788C37.7479 145.288 38.0952 144.816 38.1796 144.125C36.2872 143.189 34.4337 142.271 32.5802 141.363C30.769 140.477 28.9447 139.626 27.1465 138.707C26.5232 138.388 26.1305 138.431 25.8546 139.161C25.7312 139.491 25.53 139.789 25.3644 140.104C19.0023 152.372 12.6532 164.651 6.27156 176.908C4.87254 179.596 3.76891 182.411 2.97689 185.368C0.243769 195.584 1.47724 205.047 7.57969 213.528C10.2706 217.269 13.5685 220.3 17.3533 222.626C26.6791 228.356 36.0437 234.004 45.3954 239.685C47.7974 241.145 50.2059 242.599 52.6404 244.074V244.078ZM163.861 15.8567C163.39 15.4205 163.001 15.3709 162.631 15.261C150.14 11.5238 137.646 7.79379 125.159 4.03537C121.741 3.00712 118.294 2.22353 114.736 2.22707C103.164 2.23416 94.4 7.69805 88.4404 18.5159C87.1874 20.7851 86.0318 23.1182 84.8341 25.4264C79.7216 35.2834 74.6092 45.1404 69.5033 55.0009C68.8671 56.2313 68.8736 56.2632 70.0681 56.717C73.3985 57.9864 76.7353 59.2416 80.0722 60.4932C81.3901 60.9896 81.4031 60.986 82.0847 59.6635C86.5058 51.1113 90.93 42.5592 95.3381 33.9999C97.6979 29.4189 100.928 25.7987 105.16 23.2813C111.13 19.7285 117.541 18.7677 124.231 19.4413C128.213 19.8455 132.008 21.1326 135.822 22.324C142.71 24.4762 149.604 26.6072 156.486 28.7877C157.184 29.0076 157.564 28.9934 157.93 28.2098C159.871 24.0897 161.864 19.998 163.858 15.8567H163.861ZM211.252 339.971C213.693 340.038 216.225 339.807 218.721 339.29C233.86 336.155 245.062 327.334 251.308 311.747C257.835 295.462 264.132 279.066 270.521 262.714C271.9 259.179 271.887 259.172 268.54 257.945C268.489 257.927 268.437 257.902 268.385 257.881C268.024 257.721 267.742 257.799 267.576 258.211C267.443 258.541 267.313 258.874 267.184 259.207C260.938 275.166 254.683 291.122 248.454 307.092C245.432 314.842 240.781 321.157 234.428 325.901C226.034 332.167 216.705 334.496 206.61 333.553C199.284 332.872 192.445 330.518 186.047 326.653C171.028 317.583 156.044 308.442 141.042 299.341C140.227 298.848 139.373 297.837 138.565 298.064C137.636 298.327 137.516 299.78 137.062 300.72C136.38 302.124 136.419 302.145 137.646 302.915C137.74 302.975 137.841 303.028 137.938 303.085C150.818 310.903 163.695 318.718 176.575 326.536C181.013 329.231 185.369 332.103 189.903 334.581C196.558 338.219 203.663 340.052 211.246 339.967L211.252 339.971ZM263.194 165.062C259.75 165.048 257.098 167.034 256.452 170.172C255.81 173.295 257.046 175.692 259.202 177.614C260.237 178.539 261.484 179.064 262.717 179.593C272.624 183.822 282.531 188.045 292.434 192.279C295.719 193.683 298.988 195.123 302.273 196.53C305.73 198.009 309.716 196.236 311.173 192.591C312.634 188.939 311.128 184.872 307.645 183.092C307.096 182.812 306.531 182.567 305.967 182.33C292.639 176.756 279.311 171.182 265.976 165.619C265.045 165.229 264.071 165.013 263.194 165.062ZM276.201 136.119C274.386 136.137 272.705 136.651 271.231 137.824C268.521 139.987 268.054 143.664 270.099 146.579C271.105 148.011 272.442 148.922 273.981 149.532C285.64 154.131 297.297 158.74 308.959 163.332C310.774 164.045 312.546 164.903 314.429 165.374C317.302 166.094 319.811 165.342 321.775 162.892C324.44 159.563 323.618 154.666 320.07 152.55C319.493 152.206 318.869 151.94 318.249 151.702C305.366 146.724 292.48 141.757 279.6 136.778C278.493 136.349 277.366 136.122 276.198 136.126L276.201 136.119ZM254.508 31.6704C254.57 27.3482 251.489 24.8201 247.74 25.9335C245.114 26.7135 243.124 28.4615 241.871 31.1137C240.836 33.3049 239.878 35.5387 238.885 37.7548C235.256 45.8602 231.634 53.9727 227.982 62.0639C227.459 63.2198 227.32 64.3261 227.722 65.5387C228.245 67.113 229.274 68.1483 230.634 68.8043C233.666 70.258 237.885 69.3964 239.843 65.0529C244.465 54.7988 249.172 44.5908 253.852 34.3651C254.281 33.429 254.459 32.4398 254.502 31.6739L254.508 31.6704ZM227.797 24.5684C227.781 22.0474 226.294 19.9626 224.103 19.2924C221.094 18.3741 217.871 19.9519 216.446 23.0508C215.306 25.5257 214.186 28.0112 213.037 30.4861C209.574 37.9569 206.107 45.4276 202.624 52.8877C202.154 53.8947 201.891 54.8591 202.193 56.0008C202.806 58.3126 204.789 60.0039 207.396 60.3372C209.733 60.635 211.791 59.5536 212.813 57.4014C217.656 47.1827 222.483 36.9534 227.313 26.7277C227.648 26.0186 227.862 25.2811 227.794 24.5719L227.797 24.5684ZM197.681 12.3074C194.996 12.4457 192.987 13.7151 191.705 16.3814C187.044 26.0859 182.353 35.7692 177.672 45.4631C176.682 47.516 176.929 49.5441 178.39 51.2638C181.061 54.4124 185.817 53.7351 187.641 49.9271C188.946 47.2075 190.208 44.4632 191.5 41.7366C195.071 34.1984 198.596 26.632 202.254 19.14C203.436 16.7183 202.212 14.176 200.683 13.2009C199.758 12.6124 198.768 12.2897 197.681 12.3039V12.3074ZM158.963 44.9738C160.676 44.9029 162.361 43.9242 163.575 42.0167C163.858 41.5735 164.088 41.0912 164.322 40.6126C168.068 32.9752 171.813 25.3378 175.553 17.6969C176.436 15.8921 177.387 14.1228 178.163 12.2649C179.458 9.15178 177.841 6.05286 174.741 5.57419C173.975 5.45718 173.209 5.49619 172.45 5.7302C170.713 6.26915 169.415 7.38249 168.571 9.13051C166.107 14.2398 163.64 19.3492 161.176 24.462C158.995 28.9898 156.768 33.4893 154.655 38.0526C153.052 41.5203 155.035 44.956 158.959 44.9738H158.963ZM24.7022 123.876C23.3584 123.876 22.258 124.255 21.2972 125.007C19.5931 126.336 18.7589 128.159 19.0088 130.46C19.236 132.548 20.2942 133.885 22.0957 134.747C29.7595 138.417 37.3875 142.175 45.0253 145.909C47.4533 147.096 50.0014 146.604 51.8192 144.533C54.6886 141.26 53.5233 136.995 50.2773 135.52C42.4513 131.963 34.7194 128.159 26.9517 124.45C26.1857 124.085 25.3969 123.844 24.7022 123.876ZM37.2285 100.038C35.4237 100.017 33.4664 100.988 32.2621 102.502C29.8114 105.584 30.98 109.381 33.9208 110.618C38.1276 112.388 42.2338 114.448 46.3919 116.362C50.0923 118.064 53.7765 119.805 57.4964 121.458C60.8398 122.94 64.9557 120.238 65.6503 115.976C66.0204 113.703 64.9816 111.753 63.06 110.92C55.0814 107.463 47.1093 103.999 39.1404 100.524C38.5172 100.251 37.9069 100.006 37.2285 100.038ZM272.971 239.954C273.422 239.89 273.484 239.49 273.607 239.171C275.364 234.692 277.1 230.204 278.876 225.736C279.152 225.045 279.129 224.715 278.415 224.389C271.861 221.4 265.32 218.382 258.793 215.326C257.972 214.943 257.644 215.149 257.313 215.985C255.634 220.24 253.927 224.477 252.19 228.704C251.856 229.519 251.892 229.941 252.72 230.331C259.237 233.409 265.739 236.536 272.244 239.646C272.494 239.766 272.757 239.862 272.971 239.951V239.954ZM264.301 198.736C265.856 199.445 267.275 200.094 268.693 200.739C273.981 203.15 279.275 205.547 284.553 207.986C285.296 208.33 285.705 208.348 286.062 207.412C287.708 203.076 289.399 198.757 291.116 194.452C291.428 193.672 291.382 193.318 290.597 192.988C284.069 190.24 277.548 187.464 271.043 184.645C270.264 184.308 270.004 184.553 269.709 185.298C267.956 189.715 266.164 194.116 264.298 198.732L264.301 198.736ZM71.6424 97.9497C73.392 97.9001 74.8657 97.1697 76.0375 95.7691C78.433 92.9042 77.9558 88.7629 74.3139 87.3127C66.5559 84.2209 58.824 81.0581 51.0661 77.9734C48.5862 76.9877 45.8336 78.0656 44.3826 80.4376C42.6623 83.2458 43.5582 86.7241 46.3951 87.9084C54.1044 91.1349 61.8363 94.3048 69.552 97.5136C70.2369 97.7973 70.9283 97.9285 71.6457 97.9497H71.6424ZM303.425 162.903C303.01 162.371 302.497 162.3 302.036 162.119C298.462 160.705 294.882 159.301 291.308 157.889C288.717 156.868 286.134 155.819 283.53 154.829C282.157 154.308 282.362 154.021 281.654 155.744C281.339 156.514 281.038 157.29 280.726 158.06C279.327 161.524 277.928 164.988 276.483 168.565C277.652 169.058 278.723 169.512 279.798 169.959C285.41 172.303 291.019 174.646 296.631 176.983C297.728 177.44 297.748 177.43 298.199 176.306C298.8 174.816 299.381 173.32 299.962 171.824C301.124 168.835 302.282 165.846 303.425 162.899V162.903ZM83.1007 74.4135C84.3439 74.4135 85.3599 74.1901 86.3013 73.6335C88.132 72.552 89.3557 70.9636 89.2259 68.6057C89.096 66.2443 87.7522 64.8508 85.7365 64.0956C78.0889 61.2342 70.4576 58.3232 62.8068 55.4619C59.9698 54.4017 56.6914 56.1285 55.63 59.1671C54.773 61.6207 55.6397 63.897 57.8502 64.9785C58.1002 65.1026 58.3631 65.1948 58.6228 65.294C65.8743 68.1164 73.1258 70.9423 80.3806 73.7611C81.3154 74.1228 82.2698 74.4348 83.0975 74.41L83.1007 74.4135ZM125.182 288.069C125.341 287.881 125.487 287.768 125.555 287.615C128.178 281.783 130.791 275.943 133.423 270.117C133.676 269.561 133.608 269.273 133.105 268.983C129.405 266.841 125.711 264.696 122.033 262.508C121.413 262.139 121.186 262.349 120.907 262.944C118.297 268.515 115.677 274.081 113.022 279.627C112.659 280.382 112.896 280.666 113.47 281.01C116.466 282.8 119.446 284.623 122.432 286.431C123.344 286.984 124.263 287.526 125.175 288.069H125.182ZM107.89 254.686C107.884 254.211 107.549 254.073 107.274 253.913C104.021 252.009 100.759 250.13 97.5161 248.208C96.8702 247.826 96.5586 248.01 96.2372 248.676C93.6956 254.013 91.1443 259.345 88.554 264.653C88.1612 265.462 88.3527 265.781 89.0149 266.171C92.2089 268.068 95.3738 270.018 98.5581 271.933C99.5936 272.557 99.6293 272.546 100.149 271.426C102.619 266.114 105.073 260.799 107.533 255.481C107.657 255.215 107.773 254.945 107.89 254.679V254.686ZM310.969 147.259C311.871 147.866 312.793 148.089 313.666 148.44C314.984 148.972 315.007 148.954 315.562 147.529C320.561 134.722 325.589 121.933 330.529 109.097C332.499 103.977 333.372 98.588 333.08 93.0212C332.97 90.9293 332.74 88.8444 331.941 86.8695C331.759 87.6779 331.639 88.4863 331.59 89.2983C331.324 93.741 330.237 97.9781 328.663 102.041C323.865 114.416 318.98 126.751 314.134 139.104C313.075 141.803 312.033 144.512 310.965 147.256L310.969 147.259ZM73.1713 234.061C72.7071 234.136 72.6292 234.543 72.4864 234.841C69.9902 240.007 67.5232 245.191 64.9979 250.343C64.5954 251.162 64.7999 251.488 65.4491 251.875C68.4483 253.665 71.4411 255.474 74.4112 257.321C75.1286 257.768 75.5246 257.75 75.9368 256.874C78.3908 251.683 80.8707 246.507 83.3896 241.351C83.8051 240.497 83.6785 240.124 82.9157 239.692C79.884 237.969 76.8814 236.182 73.8659 234.423C73.6257 234.285 73.3758 234.168 73.1745 234.061H73.1713ZM6.21313 214.213C6.0768 214.517 6.17743 214.798 6.28779 215.074C6.54747 215.737 6.77144 216.421 7.07332 217.06C10.2122 223.718 15.0682 228.505 20.9661 232.115C29.6296 237.408 38.3127 242.663 46.9924 247.925C50.2287 249.886 50.2189 249.868 51.6991 246.198C51.9555 245.56 51.8841 245.188 51.329 244.893C51.0823 244.762 50.8454 244.603 50.6052 244.457C39.8058 237.908 29.0097 231.349 18.2005 224.814C13.812 222.158 9.90706 218.872 6.71301 214.617C6.57668 214.436 6.45009 214.244 6.21313 214.22V214.213ZM218.611 48.1649C222.61 49.42 226.414 50.6007 230.209 51.8169C231.007 52.0722 231.277 51.6077 231.562 50.9518C232.75 48.2429 233.971 45.5482 235.178 42.8499C235.922 41.1905 236.662 39.5311 237.376 37.9356C237.265 37.7654 237.243 37.6839 237.2 37.6732C233.448 36.5138 229.693 35.3614 225.94 34.1949C225.388 34.0247 225.132 34.3261 224.911 34.7977C222.85 39.1766 220.786 43.5519 218.611 48.1649ZM193.604 40.3573C197.398 41.5522 200.992 42.6762 204.582 43.8143C205.179 44.0023 205.471 43.7505 205.734 43.1726C207.584 39.1305 209.47 35.1097 211.33 31.0712C211.794 30.0642 211.775 30.011 210.837 29.7238C207.545 28.7168 204.241 27.763 200.956 26.7313C200.339 26.5362 200.057 26.7029 199.787 27.2808C197.775 31.5676 195.743 35.8401 193.6 40.3608L193.604 40.3573ZM169.587 32.8724C173.031 33.9432 176.28 34.8899 179.484 35.9855C180.477 36.3259 180.824 35.9784 181.24 35.1026C183.032 31.2981 184.878 27.5255 186.706 23.7387C186.859 23.4231 187.063 23.1218 187.018 22.5686C183.629 21.5546 180.185 20.5334 176.747 19.491C176.121 19.2995 175.988 19.8172 175.79 20.2178C174.868 22.0722 173.965 23.9373 173.053 25.7952C171.937 28.0751 170.82 30.3514 169.587 32.8724ZM50.8486 119.99C46.9307 118.167 43.0907 116.38 39.254 114.586C38.7638 114.356 38.5496 114.664 38.3484 115.054C36.641 118.352 34.9498 121.66 33.2197 124.943C32.8659 125.613 33.0509 125.865 33.6287 126.134C37.1668 127.794 40.7017 129.471 44.2203 131.176C44.7559 131.435 44.9994 131.3 45.2623 130.79C47.093 127.226 48.9432 123.67 50.8519 119.986L50.8486 119.99ZM74.9793 73.3853C74.817 73.2222 74.7521 73.1016 74.6547 73.0662C70.8731 71.5841 67.085 70.1197 63.31 68.6199C62.6932 68.3752 62.4108 68.6341 62.1317 69.1801C60.4925 72.3819 58.8305 75.5694 57.1686 78.7889C58.0612 79.4448 59.0415 79.6788 59.9601 80.0547C62.7939 81.2177 65.6406 82.3452 68.4808 83.494C69.0034 83.7032 69.5001 83.9975 69.8928 83.2316C71.584 79.9377 73.2914 76.6508 74.9793 73.3853ZM62.9659 96.5776C62.8361 96.4038 62.8068 96.3329 62.7646 96.3116C58.9701 94.7054 55.169 93.1205 51.3875 91.486C50.6961 91.1881 50.5078 91.6207 50.2579 92.1029C48.8199 94.8756 47.3722 97.6484 45.9472 100.428C45.746 100.818 45.4051 101.18 45.5122 101.815C49.2614 103.456 53.0397 105.101 56.8115 106.768C57.412 107.034 57.7139 106.768 57.993 106.218C59.629 103.017 61.2877 99.8254 62.9626 96.5776H62.9659ZM278.405 242.557C280.418 237.405 282.394 232.345 284.407 227.193C283.274 226.658 282.264 226.197 281.268 225.701C280.599 225.367 280.284 225.633 280.038 226.335C279.625 227.512 279.126 228.65 278.671 229.81C277.396 233.065 276.159 236.341 274.828 239.571C274.451 240.486 274.669 240.851 275.428 241.167C276.392 241.571 277.331 242.05 278.402 242.553L278.405 242.557ZM124.575 289.895C124.623 289.122 124.081 289.051 123.74 288.842C120.77 287.016 117.781 285.229 114.807 283.41C111.98 281.68 111.987 281.665 110.549 284.857C109.987 286.101 109.981 286.112 111.191 286.849C114.168 288.665 117.148 290.469 120.124 292.278C120.796 292.685 121.465 293.104 122.137 293.512C122.384 293.661 122.711 293.795 122.87 293.48C123.477 292.271 124.036 291.037 124.571 289.899L124.575 289.895ZM296.748 195.658C295.599 195.154 294.615 194.772 293.671 194.296C292.924 193.921 292.564 194.187 292.301 194.959C291.993 195.86 291.613 196.729 291.266 197.615C289.922 201.04 288.601 204.476 287.224 207.887C286.887 208.724 286.929 209.199 287.802 209.49C288.536 209.731 289.247 210.075 289.941 210.44C290.564 210.766 290.883 210.695 291.178 209.919C292.983 205.21 294.839 200.523 296.745 195.662L296.748 195.658ZM308.661 165.119C308.625 164.85 308.453 164.647 308.18 164.538C307.408 164.226 306.635 163.91 305.856 163.623C304.759 163.215 304.733 163.215 304.285 164.353C302.912 167.824 301.549 171.299 300.199 174.781C299.815 175.767 298.933 176.869 299.238 177.738C299.585 178.724 300.991 178.727 301.929 179.167C302.984 179.66 303.026 179.614 303.483 178.454C305.09 174.373 306.681 170.285 308.275 166.2C308.404 165.871 308.515 165.53 308.661 165.119ZM87.5023 266.876C86.9472 268.032 86.483 269.114 85.9182 270.135C85.4768 270.933 85.5709 271.365 86.3532 271.823C88.9305 273.326 91.4559 274.936 94.0299 276.446C94.9843 277.006 95.9905 278.247 96.9254 277.875C97.831 277.513 97.9706 275.868 98.5646 274.865C99.0872 273.982 98.7042 273.617 98.0225 273.213C95.5036 271.72 93.0042 270.177 90.4951 268.66C89.5375 268.082 88.5734 267.515 87.499 266.876H87.5023ZM74.7943 259.15C72.0774 257.491 69.4773 255.91 66.8838 254.321C63.7449 252.399 63.7612 252.407 62.2907 255.952C62.0148 256.619 62.0018 257.037 62.6413 257.42C65.738 259.275 68.8281 261.14 71.9053 263.04C72.5707 263.451 72.8889 263.228 73.1875 262.561C73.6679 261.48 74.1937 260.423 74.7975 259.15H74.7943Z" fill="#130F09"/>
<path d="M176.851 51.625C177.98 52.983 179.272 54.029 180.95 54.4616C184.261 55.3196 187.442 53.7099 188.909 50.3663C189.406 49.2317 189.883 48.09 190.552 47.0582C193.658 46.0122 196.765 44.9698 199.868 43.9238C201.481 44.2607 203.042 44.7783 204.708 45.4307C203.568 47.8914 202.549 50.2316 201.413 52.4973C200.491 54.3339 200.631 56.0997 201.488 57.8371C203.51 61.9394 209.099 63.1379 212.42 60.2198C213.17 59.5638 213.68 58.7235 214.108 57.7945C215.228 55.3728 216.38 52.9724 217.503 50.5542C217.766 49.9869 218.006 49.4799 218.734 49.7104C222.596 50.9336 226.462 52.1427 230.477 53.4014C229.218 56.2273 228.03 58.9362 226.797 61.6238C226.17 62.9889 226.037 64.3647 226.449 65.8255C226.949 67.5948 228.001 68.8606 229.439 69.7612C233.431 72.2644 238.485 70.715 240.712 66.2616C241.744 64.2016 242.653 62.0671 243.617 59.9645C244.789 57.4116 244.341 57.7236 246.646 58.4363C256.728 61.5494 266.794 64.7192 276.866 67.8678C280.894 69.1301 284.89 70.5341 288.957 71.6262C292.914 72.6864 295.744 75.2605 297.929 78.8275C300.477 82.9901 301.691 87.6633 302.003 92.6095C302.36 98.2436 301.412 103.608 299.26 108.785C295.384 118.114 291.655 127.513 287.879 136.892C287.169 138.661 287.253 138.285 285.993 137.82C284.007 137.087 282.05 136.275 280.07 135.523C277.353 134.491 274.652 134.473 272.007 135.799C266.777 138.416 266.015 145.071 270.474 149.046C271.513 149.971 272.685 150.617 273.948 151.103C275.976 151.886 277.982 152.734 280.021 153.489C280.79 153.776 280.933 154.134 280.602 154.943C278.93 159.009 277.281 163.091 275.668 167.186C275.343 168.012 274.99 168.062 274.282 167.746C271.88 166.679 269.442 165.711 267.037 164.661C265.041 163.789 263.028 163.438 260.892 163.998C255.361 165.452 253.235 171.972 256.715 176.904C257.89 178.571 259.428 179.72 261.201 180.493C263.35 181.432 265.518 182.333 267.67 183.269C268.894 183.801 268.923 183.833 268.433 185.063C266.826 189.095 265.174 193.108 263.577 197.147C263.242 197.991 262.895 198.189 262.084 197.806C259.604 196.633 257.082 195.572 254.585 194.438C250.323 192.502 246.117 194.849 244.494 198.856C242.77 203.114 244.305 208.121 248.155 210.33C250.103 211.446 252.18 212.301 254.199 213.269C254.706 213.51 255.205 213.769 255.725 213.967C256.416 214.233 256.497 214.698 256.215 215.368C254.783 218.758 253.553 222.247 252.002 225.576C251.82 225.658 251.713 225.792 251.732 226.019L251.739 226.044C250.2 226.2 249.041 227.402 247.603 227.827C246.289 227.225 244.922 226.735 243.676 225.998C239.164 223.332 232.023 226.214 231.273 233.018C231.24 233.316 231.166 233.607 231.11 233.901C228.884 234.802 226.534 235.192 224.226 235.642C220.019 236.458 215.786 237.11 211.531 237.624C207.593 238.099 203.643 238.365 199.709 238.528C192.941 238.808 186.154 238.716 179.382 238.241C179.272 238.234 179.159 238.245 179.051 238.227C175.906 237.656 172.715 237.66 169.55 237.252C167.158 236.943 164.74 236.713 162.357 236.351C158.452 235.756 154.551 235.093 150.665 234.344C145.261 233.302 139.885 232.132 134.542 230.767C126.885 228.813 119.316 226.509 111.798 223.988C105.004 221.708 98.3141 219.123 91.6858 216.347C85.6742 213.829 79.7178 211.149 73.8848 208.153C68.8503 205.568 63.8028 203.022 58.8819 200.168C53.1884 196.863 47.5502 193.463 42.0417 189.811C35.7348 185.627 29.5707 181.212 23.6792 176.351C24.2408 174.316 25.2016 172.479 26.1397 170.65C30.2945 162.555 34.4981 154.489 38.6821 146.412C38.8185 146.149 38.9678 145.898 39.0944 145.628C39.3735 145.025 39.763 144.933 40.3149 145.213C41.8145 145.979 43.3206 146.727 44.8333 147.454C47.5729 148.773 50.0593 148.05 52.2244 146.061C54.3148 144.139 55.2496 141.639 54.5063 138.625C53.9967 136.558 52.7113 135.211 50.939 134.388C49.3712 133.661 47.7741 133.005 46.294 132.123C46.2615 131.456 46.6478 131.062 46.8815 130.605C48.3617 127.712 49.8548 124.826 51.3577 121.946C52.0491 120.617 52.0621 120.62 53.3962 121.22C54.4154 121.681 55.4379 122.134 56.4474 122.62C61.576 125.095 66.6593 120.776 66.9936 115.447C67.1559 112.855 65.7893 110.611 63.5139 109.682C61.9753 109.051 60.4302 108.445 58.8105 107.583C60.3328 104.629 61.7838 101.74 63.3029 98.896C64.5137 96.6303 63.9099 96.8005 66.2665 97.7401C67.4058 98.194 68.5224 98.7329 69.6845 99.1017C73.8329 100.414 78.3643 97.1551 78.7246 92.6521C78.9453 89.8935 77.9293 87.8548 75.7058 86.5429C75.1735 86.2309 74.6119 85.9791 74.0633 85.7025C97.1488 78.0439 120.234 70.3817 143.32 62.7266C154.496 59.0213 165.675 55.3303 176.851 51.6321V51.625ZM133.16 72.7679C127.788 72.7998 123.733 75.2073 121.205 80.5294C119.069 85.0218 116.839 89.4645 114.648 93.925C108.315 106.835 101.976 119.745 95.6459 132.658C91.2183 141.692 86.8298 150.748 82.3763 159.768C79.588 165.413 81.1461 171.845 84.6452 175.791C86.291 177.649 88.2645 178.929 90.3809 180C100.943 185.343 111.509 190.683 122.075 196.023C138.097 204.121 154.119 212.219 170.141 220.321C175.523 223.041 180.564 222.193 185.29 218.531C188.332 216.173 190.497 212.982 192.078 209.33C198.027 195.601 203.948 181.861 209.878 168.122C216.231 153.404 222.574 138.679 228.952 123.971C229.689 122.269 230.341 120.549 230.627 118.699C231.263 114.55 230.627 110.774 227.751 107.707C226.173 106.023 224.248 105.012 222.187 104.257C194.353 94.0987 166.522 83.9368 138.691 73.7749C136.896 73.1189 135.065 72.7395 133.16 72.7644V72.7679Z" fill="#FA420F"/>
<path d="M23.67 176.35C29.5614 181.211 35.7255 185.625 42.0325 189.809C47.5409 193.461 53.1792 196.861 58.8726 200.166C63.7935 203.02 68.841 205.566 73.8756 208.151C79.7086 211.147 85.665 213.828 91.6765 216.345C98.3048 219.121 104.995 221.706 111.789 223.986C119.306 226.51 126.876 228.812 134.533 230.765C139.876 232.127 145.251 233.3 150.656 234.343C154.545 235.091 158.446 235.754 162.348 236.35C164.731 236.711 167.149 236.942 169.541 237.25C172.703 237.658 175.897 237.658 179.042 238.225C179.149 238.247 179.263 238.232 179.373 238.24C186.144 238.718 192.932 238.81 199.7 238.527C203.634 238.364 207.584 238.098 211.521 237.623C215.777 237.108 220.013 236.456 224.216 235.641C226.524 235.194 228.878 234.8 231.101 233.9C231.335 238.286 233.448 241.151 237.097 242.813C238.979 243.672 240.839 244.593 242.699 245.512C243.764 246.036 243.793 246.076 243.329 247.238C241.875 250.887 240.388 254.518 238.921 258.156C236.181 264.938 233.484 271.739 230.695 278.497C228.086 284.812 224.765 290.623 220.071 295.378C216.189 299.307 211.755 302.118 206.464 303.111C200.735 304.189 195.184 303.409 190.036 300.534C182.025 296.062 174.141 291.329 166.204 286.705C160.8 283.557 155.395 280.405 149.991 277.256C149.601 277.029 149.212 276.799 148.819 276.583C148.322 276.309 148.235 275.934 148.501 275.405C148.767 274.877 148.991 274.324 149.234 273.785C150.413 271.193 151.614 268.612 152.766 266.006C155.012 260.932 152.448 254.482 147.53 252.766C144.356 251.66 141.217 253.043 139.688 256.308C138.127 259.634 136.627 262.995 135.118 266.35C134.231 268.314 134.381 268.165 132.748 267.222C129.625 265.417 126.516 263.591 123.4 261.772C121.945 260.925 121.932 260.921 122.653 259.4C123.968 256.613 125.211 253.78 126.642 251.068C129.041 246.526 126.266 239.683 120.715 239.002C117.193 238.569 114.609 240.211 113.035 243.647C111.607 246.77 110.153 249.88 108.653 253.124C106.767 252.043 104.972 251.018 103.18 249.983C101.716 249.135 100.262 248.277 98.8015 247.423C97.3473 246.575 97.3343 246.568 98.0614 245.037C99.2591 242.523 100.489 240.027 101.677 237.509C103.508 233.627 102.447 228.755 99.2332 226.184C96.0716 223.653 91.709 224.553 89.7549 228.262C88.1579 231.29 86.7296 234.424 85.217 237.506C84.9865 237.977 84.8405 238.516 84.3276 238.949C82.6202 237.967 80.8706 236.967 79.1211 235.956C77.6571 235.109 76.1964 234.258 74.7422 233.396C73.5834 232.708 73.5639 232.687 74.2066 231.357C75.6219 228.425 77.0436 225.496 78.4946 222.585C80.5882 218.387 78.6277 213.016 74.5312 212.012C71.6813 211.317 69.3344 212.501 67.4063 214.778C66.3416 216.033 65.7444 217.614 64.9913 219.086C64.1311 220.77 63.3002 222.472 62.4789 224.181C61.596 226.014 61.6836 225.776 60.158 224.89C56.4057 222.713 52.6533 220.532 48.9042 218.345C43.1101 214.966 37.3615 211.495 31.522 208.215C24.7866 204.435 21.7711 198.227 21.3458 190.256C21.0894 185.427 21.8847 180.782 23.6732 176.346L23.67 176.35Z" fill="#C20000"/>
<path d="M139.007 296.42C141.718 290.392 144.366 284.496 147.028 278.606C147.564 277.422 147.59 277.422 148.742 278.092C154.487 281.436 160.226 284.786 165.968 288.137C173.463 292.505 180.913 296.966 188.46 301.224C198.665 306.982 210.227 306.273 219.556 297.689C225.036 292.647 228.853 286.275 231.758 279.216C235.78 269.433 239.717 259.608 243.69 249.801C243.979 249.085 244.33 248.39 244.55 247.649C244.823 246.731 245.209 246.635 246.001 247.028C250.322 249.166 254.665 251.244 259.002 253.34C261.17 254.389 263.345 255.421 265.51 256.474C266.63 257.02 266.636 257.045 266.139 258.318C261.809 269.402 257.473 280.482 253.136 291.559C251.075 296.824 249.114 302.135 246.93 307.337C241.808 319.534 233.238 327.437 221.384 330.866C210.406 334.039 199.814 332.263 189.645 327.061C185.246 324.813 181.111 322.009 176.865 319.442C164.556 312.003 152.264 304.532 139.965 297.072C139.679 296.898 139.41 296.696 139.011 296.423L139.007 296.42Z" fill="#E0F450"/>
<path d="M245.389 56.4422C245.353 55.9919 245.558 55.687 245.704 55.3679C247.551 51.3223 249.401 47.2802 251.258 43.2381C251.829 41.9936 251.842 41.9865 253.114 42.3694C267.9 46.7909 282.682 51.2123 297.464 55.6374C302.781 57.2294 308.108 58.7824 313.408 60.4347C322.361 63.2251 327.759 69.7527 329.83 79.5671C331.333 86.6869 330.404 93.647 327.866 100.288C322.166 115.187 316.307 130.015 310.513 144.875C310.448 145.042 310.377 145.205 310.312 145.371C309.702 146.892 309.698 146.903 308.296 146.364C303.044 144.343 297.795 142.311 292.543 140.287C291.505 139.886 290.472 139.454 289.421 139.099C288.7 138.858 288.625 138.475 288.918 137.766C290.3 134.415 291.647 131.047 293.004 127.682C295.676 121.066 298.5 114.517 300.986 107.819C304.709 97.7848 304.284 87.9172 299.266 78.4502C298.094 76.2413 296.516 74.3727 294.617 72.8623C293.365 71.8624 292.021 71.0859 290.502 70.6143C275.81 66.0546 261.129 61.4629 246.444 56.8748C246.077 56.7613 245.726 56.5876 245.395 56.4493L245.389 56.4422ZM311.574 69.4229C311.613 69.7066 311.63 70.3165 311.782 70.8873C312.902 75.1067 315.2 78.3651 318.599 80.7017C319.349 81.2194 320.183 81.5385 321.062 81.6768C322.676 81.9286 323.893 80.9783 324.153 79.2303C324.286 78.3403 324.224 77.4468 324.016 76.5533C323.409 73.926 322.182 71.6815 320.527 69.6995C319.141 68.0437 317.615 66.5864 315.603 65.9021C313.142 65.0689 311.574 66.324 311.574 69.4229ZM322.747 84.797C322.543 84.8608 322.163 84.9388 321.816 85.1019C319.767 86.0699 319.095 89.3 320.52 91.2501C321.916 93.1577 324.341 92.9875 325.519 90.9098C325.847 90.3318 326.016 89.6936 326.107 89.0483C326.396 86.9918 324.734 84.8041 322.75 84.797H322.747Z" fill="#E0F450"/>
<path d="M52.6358 244.081C50.198 242.606 47.7928 241.152 45.3907 239.691C36.0391 234.011 26.6744 228.363 17.3487 222.633C13.5639 220.307 10.266 217.276 7.57505 213.535C1.47261 205.054 0.239131 195.59 2.97225 185.375C3.76427 182.418 4.8679 179.603 6.26692 176.915C12.6485 164.658 18.9977 152.383 25.3598 140.111C25.5221 139.796 25.7233 139.501 25.8499 139.168C26.1258 138.438 26.5186 138.395 27.1418 138.714C28.9401 139.632 30.7643 140.483 32.5756 141.37C34.4323 142.278 36.2825 143.199 38.1749 144.132C38.0873 144.823 37.74 145.295 37.4835 145.795C33.1988 154.085 28.8719 162.35 24.623 170.664C21.4451 176.883 19.5852 183.51 20.0429 190.722C20.5038 197.962 23.0973 203.983 28.7811 208.11C29.3296 208.507 29.9269 208.83 30.5112 209.17C40.2881 214.872 50.0682 220.57 59.8484 226.275C61.0656 226.984 61.0753 227.002 60.4683 228.242C58.0274 233.238 55.5766 238.231 53.1259 243.223C52.9961 243.485 52.837 243.73 52.6358 244.085V244.081Z" fill="#E0F450"/>
<path d="M163.869 15.8552C161.876 19.9965 159.883 24.0882 157.942 28.2083C157.575 28.9884 157.196 29.0061 156.498 28.7863C149.616 26.6057 142.722 24.4747 135.834 22.3225C132.017 21.1311 128.225 19.8405 124.243 19.4399C117.553 18.7626 111.142 19.7271 105.172 23.2798C100.94 25.7973 97.7099 29.4174 95.35 33.9984C90.942 42.5577 86.5177 51.1099 82.0967 59.662C81.415 60.9846 81.402 60.9846 80.0842 60.4917C76.7473 59.2401 73.4104 57.9849 70.0801 56.7156C68.8855 56.2617 68.8758 56.2263 69.5153 54.9995C74.6212 45.1389 79.7336 35.2819 84.846 25.425C86.0438 23.1167 87.1994 20.7837 88.4523 18.5144C94.4152 7.70011 103.176 2.23268 114.748 2.22559C118.306 2.22559 121.753 3.00563 125.171 4.03388C137.658 7.7923 150.152 11.5224 162.642 15.2595C163.013 15.3694 163.402 15.4155 163.873 15.8552H163.869Z" fill="#E0F450"/>
<path d="M89.0509 64.6366C87.3273 62.7645 84.9123 62.5128 82.7959 61.4633C83.1367 60.2435 83.8184 59.2153 84.3799 58.1268C87.7558 51.5814 91.1446 45.0468 94.5366 38.5121C94.806 37.9909 95.1274 37.5051 95.426 37.0016C95.7474 36.9342 96.0752 36.8952 96.3901 36.796C106.203 33.6687 116.022 30.5485 125.828 27.3893C129.246 26.2866 132.709 25.347 136.066 24.0103C138.146 24.3223 140.107 25.1484 142.116 25.7654C146.781 27.1943 151.432 28.6657 156.09 30.1195C156.291 30.1833 156.528 30.1691 156.756 30.5946C155.869 32.449 155.006 34.4487 153.984 36.3492C152.747 38.6397 152.451 40.9515 153.409 43.4193C153.036 43.5257 152.659 43.6143 152.289 43.7349C131.21 50.7021 110.134 57.6729 89.0542 64.6437L89.0509 64.6366Z" fill="white"/>
<path d="M211.252 339.97C203.669 340.051 196.564 338.222 189.909 334.584C185.375 332.105 181.019 329.233 176.581 326.539C163.705 318.72 150.825 310.906 137.944 303.087C137.847 303.027 137.746 302.978 137.652 302.917C136.425 302.148 136.39 302.123 137.068 300.722C137.522 299.783 137.643 298.333 138.571 298.067C139.376 297.836 140.233 298.847 141.048 299.343C156.051 308.445 171.034 317.586 186.053 326.656C192.451 330.52 199.29 332.871 206.616 333.555C216.711 334.495 226.04 332.166 234.435 325.904C240.787 321.163 245.438 314.845 248.46 307.094C254.686 291.124 260.944 275.172 267.19 259.21C267.32 258.876 267.449 258.543 267.582 258.213C267.748 257.802 268.03 257.728 268.391 257.884C268.443 257.905 268.491 257.93 268.547 257.947C271.89 259.174 271.906 259.181 270.527 262.716C264.138 279.069 257.841 295.464 251.314 311.75C245.065 327.336 233.866 336.158 218.727 339.292C216.228 339.81 213.699 340.041 211.258 339.973L211.252 339.97Z" fill="#A3BA00"/>
<path d="M176.85 51.6277C165.674 55.3259 154.495 59.0169 143.319 62.7222C120.234 70.3773 97.1485 78.0395 74.0631 85.6982C72.9919 85.2798 71.8915 84.9465 70.8301 84.2976C72.2745 81.5852 73.5405 78.816 75.0985 76.2312C75.2316 76.2631 75.329 76.217 75.368 76.0681L75.3387 76.0823C76.6728 75.9617 77.8739 75.3271 79.1301 74.9193C80.0259 75.1746 80.9056 75.5256 81.8177 75.6745C85.5117 76.2773 88.3292 74.82 90.2021 71.2566C90.7312 71.0935 91.2635 70.934 91.7894 70.7602C117.546 62.2293 143.303 53.6878 169.066 45.1711C171.907 44.2315 174.702 43.1252 177.616 42.4551C177.302 43.15 177.045 43.8875 176.659 44.5328C175.412 46.6106 175.552 48.6919 176.519 50.8122C176.639 51.0782 176.743 51.3547 176.854 51.6277H176.85Z" fill="white"/>
<path d="M263.201 165.062C264.077 165.012 265.051 165.232 265.983 165.619C279.314 171.182 292.642 176.756 305.973 182.33C306.538 182.567 307.103 182.812 307.651 183.092C311.134 184.872 312.641 188.939 311.18 192.591C309.722 196.236 305.736 198.009 302.279 196.53C298.994 195.126 295.726 193.683 292.441 192.279C282.537 188.045 272.627 183.822 262.724 179.592C261.49 179.064 260.244 178.539 259.208 177.614C257.053 175.692 255.816 173.295 256.459 170.171C257.105 167.034 259.757 165.048 263.201 165.062Z" fill="#D3E6EB"/>
<path d="M276.21 136.127C277.379 136.12 278.505 136.351 279.612 136.776C292.492 141.758 305.378 146.722 318.262 151.7C318.882 151.941 319.505 152.203 320.083 152.547C323.627 154.664 324.449 159.561 321.787 162.89C319.826 165.34 317.314 166.092 314.441 165.372C312.555 164.901 310.783 164.042 308.972 163.33C297.309 158.738 285.653 154.129 273.993 149.53C272.455 148.924 271.117 148.012 270.111 146.576C268.066 143.662 268.533 139.985 271.244 137.822C272.717 136.649 274.399 136.131 276.213 136.117L276.21 136.127Z" fill="#D3E6EB"/>
<path d="M284.946 225.792C281.59 224.271 278.227 222.767 274.877 221.228C266.808 217.512 258.745 213.779 250.678 210.059C249.763 209.638 248.844 209.216 248.036 208.581C245.77 206.805 244.774 204.33 245.15 201.355C245.514 198.447 247.014 196.373 249.627 195.419C251.032 194.905 252.46 194.955 253.837 195.565C257.865 197.355 261.89 199.16 265.909 200.986C274.858 205.057 283.797 209.141 292.74 213.229C293.551 213.602 294.366 213.977 295.152 214.41C296.19 214.984 297.154 215.679 297.729 216.849C297.55 217.332 297.151 217.541 296.778 217.793C294.645 219.243 292.509 220.686 290.39 222.157C288.595 223.405 286.621 224.334 284.946 225.795V225.792Z" fill="#D3E6EB"/>
<path d="M177.614 42.4506C174.702 43.1172 171.904 44.227 169.064 45.1666C143.301 53.6833 117.547 62.2248 91.7868 70.7557C91.261 70.9295 90.7286 71.0855 90.1995 71.2521C90.9266 68.8162 90.4073 66.6427 89.0537 64.6359C110.13 57.6651 131.209 50.6943 152.285 43.727C152.652 43.6065 153.032 43.5178 153.405 43.4115C156.482 48.3506 162.705 46.6912 164.912 42.4187C165.526 41.2273 165.977 39.9296 166.782 38.8588C169.554 37.9795 172.329 37.0966 175.101 36.2173C176.513 36.4017 177.822 37.0186 179.195 37.3732C179.906 37.5576 179.863 37.9972 179.571 38.561C178.902 39.8481 178.403 41.238 177.611 42.4541L177.614 42.4506Z" fill="#FA420F"/>
<path d="M254.505 31.671C254.463 32.4369 254.284 33.4261 253.856 34.3622C249.178 44.5879 244.468 54.7959 239.846 65.05C237.889 69.3935 233.669 70.2551 230.637 68.8013C229.274 68.1489 228.248 67.1101 227.726 65.5358C227.323 64.3267 227.463 63.2169 227.985 62.061C231.64 53.9662 235.26 45.8573 238.889 37.7518C239.882 35.5358 240.839 33.302 241.875 31.1108C243.128 28.4586 245.118 26.7106 247.744 25.9305C251.49 24.8172 254.573 27.3488 254.512 31.6675L254.505 31.671Z" fill="#D3E6EB"/>
<path d="M149.819 269.002C148.242 272.98 146.366 276.799 144.626 280.692C141.094 288.595 137.524 296.478 133.963 304.363C132.233 308.196 129.178 309.26 125.724 307.21C123.855 306.1 122.514 304.469 121.92 302.2C121.579 300.892 121.599 299.591 122.167 298.328C126.422 288.868 130.671 279.405 134.927 269.942C135.021 269.736 135.174 269.562 135.297 269.371C137.822 269.286 140.344 269.41 142.876 269.101C145.165 268.825 147.502 269.013 149.816 268.999L149.819 269.002Z" fill="#A0B8BE"/>
<path d="M49.3687 254.521C49.3849 253.773 49.677 253.124 49.9919 252.486C55.7048 240.863 61.4275 229.248 67.1307 217.621C67.8805 216.097 68.8251 214.813 70.2436 213.983C72.4671 212.682 74.947 212.948 76.531 214.671C78.1475 216.426 78.5143 219.366 77.3847 221.709C73.2201 230.343 69.0458 238.97 64.8747 247.6C63.3816 250.688 61.9014 253.787 60.4082 256.875C60.1518 257.404 59.9538 257.978 59.5253 258.386C59.3858 257.89 58.98 257.886 58.6132 257.762C55.5263 256.695 52.4491 255.606 49.3687 254.525V254.521Z" fill="#D3E6EB"/>
<path d="M263.872 237.224C270.133 240.198 276.418 243.113 282.643 246.173C286.029 247.836 287.824 252.016 286.922 255.59C285.948 259.448 282.277 261.785 278.469 260.937C277.878 260.806 277.288 260.607 276.739 260.345C267.108 255.711 257.487 251.059 247.863 246.407C247.665 246.311 247.493 246.159 247.308 246.031C247.379 245.372 247.869 245.162 248.327 244.974C252.504 243.269 256.536 241.184 260.623 239.252C261.759 238.716 263.038 238.372 263.872 237.224Z" fill="#A0B8BE"/>
<path d="M227.786 24.5685C227.854 25.2776 227.64 26.0151 227.306 26.7243C222.472 36.95 217.649 47.1793 212.806 57.3979C211.787 59.5501 209.725 60.6316 207.388 60.3337C204.782 60.0004 202.799 58.3127 202.185 55.9974C201.883 54.8592 202.146 53.8912 202.617 52.8843C206.103 45.4242 209.566 37.9534 213.03 30.4827C214.176 28.0113 215.299 25.5258 216.438 23.0474C217.863 19.9485 221.09 18.3671 224.095 19.289C226.286 19.9591 227.773 22.044 227.789 24.5649L227.786 24.5685Z" fill="#D3E6EB"/>
<path d="M74.951 262.036C76.7687 258.185 78.5735 254.328 80.4107 250.491C83.5269 243.981 86.6657 237.482 89.8014 230.983C90.1617 230.238 90.5122 229.483 90.9342 228.778C92.6156 225.973 95.7513 225.292 98.3156 227.139C101.166 229.192 102.029 233.727 100.526 236.784C98.3123 241.294 96.1667 245.846 93.9757 250.371C91.6613 255.157 89.3275 259.933 87.0033 264.717C83.0335 264.373 79.187 263.277 75.3081 262.383C75.1717 262.352 75.0679 262.153 74.9478 262.032L74.951 262.036Z" fill="#D3E6EB"/>
<path d="M197.685 12.309C198.773 12.2949 199.763 12.614 200.688 13.2061C202.217 14.1812 203.44 16.727 202.259 19.1451C198.601 26.6336 195.075 34.2001 191.505 41.7417C190.213 44.4683 188.95 47.2127 187.645 49.9322C185.821 53.7403 181.062 54.4175 178.394 51.269C176.934 49.5493 176.687 47.5212 177.677 45.4682C182.358 35.7779 187.051 26.0911 191.709 16.3866C192.988 13.7202 195.001 12.4509 197.685 12.3126V12.309Z" fill="#D3E6EB"/>
<path d="M158.962 44.9762C155.037 44.962 153.054 41.5227 154.658 38.055C156.768 33.4917 158.998 28.9923 161.179 24.4644C163.643 19.3516 166.11 14.2422 168.573 9.13291C169.417 7.38489 170.712 6.27155 172.452 5.73261C173.215 5.49505 173.981 5.45604 174.744 5.5766C177.841 6.05526 179.46 9.15419 178.165 12.2673C177.389 14.1252 176.438 15.8981 175.555 17.6993C171.816 25.3402 168.07 32.9776 164.324 40.615C164.091 41.0937 163.86 41.5759 163.578 42.0191C162.364 43.9302 160.676 44.9053 158.965 44.9762H158.962Z" fill="#D3E6EB"/>
<path d="M24.6945 123.88C25.3892 123.852 26.1779 124.089 26.944 124.455C34.7116 128.163 42.4436 131.964 50.2696 135.524C53.5156 136.999 54.6809 141.265 51.8115 144.537C49.9937 146.608 47.4456 147.101 45.0176 145.913C37.3798 142.179 29.7518 138.421 22.088 134.751C20.2865 133.89 19.225 132.556 19.0011 130.465C18.7511 128.163 19.5853 126.341 21.2895 125.011C22.2503 124.26 23.3507 123.884 24.6945 123.88Z" fill="#D3E6EB"/>
<path d="M37.2334 100.035C37.9118 100.003 38.522 100.248 39.1453 100.521C47.1142 103.996 55.0895 107.46 63.0649 110.917C64.9865 111.75 66.0252 113.7 65.6552 115.973C64.9606 120.235 60.8447 122.937 57.5013 121.454C53.7814 119.802 50.0972 118.061 46.3968 116.359C42.2387 114.448 38.1358 112.385 33.9257 110.615C30.9849 109.378 29.8163 105.58 32.267 102.499C33.4713 100.985 35.4286 100.014 37.2334 100.035Z" fill="#D3E6EB"/>
<path d="M272.968 239.951C272.751 239.862 272.491 239.767 272.241 239.646C265.736 236.537 259.235 233.409 252.717 230.332C251.889 229.942 251.853 229.52 252.188 228.704C253.924 224.478 255.632 220.237 257.31 215.986C257.641 215.146 257.969 214.94 258.79 215.326C265.318 218.383 271.858 221.4 278.412 224.389C279.126 224.715 279.149 225.042 278.873 225.737C277.097 230.208 275.361 234.693 273.605 239.171C273.478 239.49 273.419 239.891 272.968 239.955V239.951Z" fill="#E0F450"/>
<path d="M264.303 198.737C266.166 194.121 267.958 189.72 269.714 185.303C270.01 184.562 270.269 184.313 271.048 184.65C277.553 187.465 284.071 190.245 290.602 192.993C291.384 193.323 291.433 193.677 291.122 194.458C289.404 198.762 287.713 203.081 286.068 207.417C285.71 208.353 285.301 208.335 284.558 207.991C279.28 205.552 273.986 203.155 268.698 200.744C267.28 200.099 265.861 199.45 264.306 198.741L264.303 198.737Z" fill="#E0F450"/>
<path d="M71.6469 97.9481C70.9295 97.9269 70.2381 97.7957 69.5532 97.512C61.8375 94.3032 54.1056 91.1369 46.3964 87.9068C43.5594 86.719 42.6635 83.2442 44.3839 80.436C45.8348 78.0675 48.5874 76.9861 51.0674 77.9718C58.8252 81.0565 66.5572 84.2193 74.3151 87.3111C77.9571 88.7613 78.4342 92.9026 76.0387 95.7675C74.8701 97.1681 73.3932 97.895 71.6436 97.9481H71.6469Z" fill="#D3E6EB"/>
<path d="M103.507 267.564C103.533 267.451 103.559 267.337 103.585 267.224C103.76 267.128 103.838 266.979 103.805 266.766C106.298 261.338 108.788 255.906 111.284 250.477C112.248 248.382 113.238 246.301 114.183 244.191C115.41 241.447 117.659 239.996 120.308 240.294C123.122 240.61 125.427 242.787 126.027 245.723C126.362 247.361 126.174 248.875 125.427 250.41C122.635 256.147 119.935 261.941 117.198 267.709C117.046 268.028 116.871 268.333 116.705 268.642C114.4 268.833 112.131 268.348 109.846 268.181C107.733 268.028 105.626 267.706 103.507 267.564Z" fill="#D3E6EB"/>
<path d="M303.432 162.908C302.29 165.85 301.131 168.843 299.969 171.832C299.388 173.328 298.807 174.825 298.206 176.314C297.755 177.438 297.736 177.448 296.639 176.991C291.026 174.654 285.414 172.311 279.805 169.967C278.734 169.52 277.663 169.066 276.491 168.573C277.935 164.996 279.334 161.532 280.733 158.068C281.045 157.295 281.347 156.522 281.662 155.752C282.369 154.026 282.168 154.316 283.538 154.838C286.141 155.827 288.722 156.876 291.315 157.897C294.892 159.309 298.469 160.713 302.043 162.127C302.504 162.308 303.017 162.383 303.432 162.911V162.908Z" fill="#E0F450"/>
<path d="M83.1076 74.4148C82.2766 74.4361 81.3255 74.1276 80.3907 73.7659C73.1359 70.9507 65.8844 68.1248 58.6329 65.2989C58.3732 65.1996 58.1135 65.1038 57.8603 64.9833C55.6498 63.9019 54.7831 61.6255 55.6401 59.1719C56.7015 56.1333 59.98 54.403 62.8169 55.4667C70.4645 58.3281 78.0958 61.2391 85.7466 64.1004C87.7623 64.8556 89.1061 66.2491 89.236 68.6105C89.3658 70.9684 88.1421 72.5533 86.3114 73.6383C85.37 74.195 84.354 74.4183 83.1108 74.4183L83.1076 74.4148Z" fill="#D3E6EB"/>
<path d="M263.88 237.218C263.046 238.366 261.767 238.71 260.631 239.246C256.541 241.178 252.513 243.263 248.335 244.969C247.881 245.156 247.387 245.366 247.316 246.025C247.105 245.936 246.891 245.848 246.68 245.759C246.602 245.568 246.475 245.493 246.287 245.557C243.109 244.054 239.931 242.55 236.757 241.04C236.555 240.944 236.377 240.795 236.192 240.668C233.03 238.565 231.735 235.062 232.839 231.594C233.933 228.155 237.416 225.886 240.876 226.389C241.359 226.46 241.85 226.613 242.298 226.829C249.358 230.19 256.408 233.566 263.461 236.941C263.611 237.012 263.744 237.125 263.887 237.221L263.88 237.218Z" fill="#D3E6EB"/>
<path d="M125.186 288.068C124.274 287.525 123.355 286.983 122.443 286.43C119.457 284.622 116.477 282.799 113.481 281.008C112.906 280.665 112.67 280.381 113.033 279.626C115.688 274.08 118.308 268.514 120.918 262.943C121.197 262.351 121.421 262.138 122.044 262.507C125.722 264.695 129.416 266.84 133.116 268.982C133.619 269.272 133.684 269.559 133.434 270.116C130.798 275.942 128.189 281.781 125.566 287.614C125.498 287.77 125.348 287.88 125.193 288.068H125.186Z" fill="#E0F450"/>
<path d="M103.508 267.568C105.628 267.706 107.735 268.032 109.848 268.185C112.133 268.348 114.402 268.837 116.706 268.646C113.639 275.177 110.607 281.733 107.485 288.236C105.858 291.629 102.145 292.451 99.2691 290.193C96.6301 288.122 95.6953 284.208 97.1462 281.017C99.1068 276.705 101.126 272.422 103.122 268.128C103.216 267.922 103.375 267.756 103.505 267.568H103.508Z" fill="#A0B8BE"/>
<path d="M136.062 24.0115C132.708 25.3447 129.245 26.2878 125.824 27.3906C116.018 30.5498 106.202 33.6664 96.3859 36.7972C96.0743 36.8965 95.7432 36.9355 95.4219 37.0029C99.369 27.582 106.296 22.6252 115.472 21.0792C120.848 20.1716 126.126 20.7991 131.322 22.455C132.906 22.9585 134.523 23.3414 136.058 24.0151L136.062 24.0115Z" fill="#FA420F"/>
<path d="M107.899 254.687C107.782 254.949 107.665 255.222 107.542 255.488C105.082 260.803 102.628 266.121 100.158 271.433C99.6382 272.553 99.6025 272.564 98.567 271.94C95.3827 270.025 92.2179 268.071 89.0238 266.178C88.3616 265.785 88.1669 265.465 88.5629 264.661C91.1532 259.353 93.7045 254.02 96.2461 248.684C96.5642 248.014 96.8791 247.833 97.525 248.216C100.768 250.134 104.033 252.017 107.282 253.921C107.558 254.08 107.893 254.222 107.899 254.694V254.687Z" fill="#E0F450"/>
<path d="M310.964 147.256C312.029 144.512 313.071 141.806 314.132 139.105C318.979 126.751 323.861 114.416 328.661 102.042C330.236 97.9782 331.323 93.7411 331.589 89.2984C331.638 88.4865 331.758 87.678 331.94 86.8696C332.738 88.841 332.969 90.9294 333.079 93.0214C333.371 98.5916 332.498 103.978 330.528 109.097C325.588 121.929 320.559 134.722 315.561 147.529C315.006 148.954 314.983 148.972 313.665 148.44C312.795 148.089 311.87 147.862 310.968 147.26L310.964 147.256Z" fill="#A3BA00"/>
<path d="M73.1727 234.065C73.374 234.172 73.6271 234.289 73.8641 234.427C76.8796 236.186 79.8789 237.973 82.9139 239.696C83.6735 240.129 83.8033 240.501 83.3878 241.355C80.8689 246.511 78.389 251.687 75.935 256.878C75.5228 257.751 75.1268 257.772 74.4094 257.325C71.4393 255.478 68.4466 253.669 65.4473 251.879C64.7981 251.492 64.5936 251.166 64.9961 250.347C67.5214 245.195 69.9884 240.012 72.4846 234.845C72.6274 234.548 72.7053 234.14 73.1695 234.065H73.1727Z" fill="#E0F450"/>
<path d="M6.21621 214.214C6.45642 214.239 6.58301 214.434 6.71609 214.611C9.91014 218.863 13.8151 222.153 18.2036 224.809C29.0095 231.347 39.8056 237.903 50.6083 244.452C50.8485 244.597 51.0854 244.757 51.3321 244.888C51.8839 245.186 51.9586 245.554 51.7022 246.193C50.222 249.862 50.2285 249.884 46.9955 247.919C38.3157 242.658 29.6327 237.406 20.9692 232.109C15.068 228.503 10.2153 223.713 7.0764 217.054C6.77452 216.416 6.55055 215.732 6.29087 215.069C6.18051 214.789 6.07988 214.512 6.21621 214.207V214.214Z" fill="#A3BA00"/>
<path d="M218.618 48.1664C220.792 43.5535 222.857 39.1781 224.918 34.7992C225.139 34.3276 225.395 34.0263 225.947 34.1964C229.699 35.363 233.455 36.5118 237.207 37.6748C237.25 37.6889 237.272 37.7669 237.383 37.9371C236.669 39.5327 235.928 41.1921 235.185 42.8514C233.978 45.5497 232.757 48.2444 231.569 50.9533C231.28 51.6093 231.014 52.0773 230.216 51.8185C226.424 50.6023 222.62 49.4216 218.618 48.1664Z" fill="#E0F450"/>
<path d="M149.828 269.002C147.513 269.016 145.176 268.828 142.888 269.105C140.353 269.413 137.834 269.289 135.308 269.374C135.302 269.066 135.406 268.803 135.529 268.527C137.097 265.077 138.649 261.62 140.203 258.166C140.323 257.897 140.457 257.635 140.57 257.361C142.427 252.961 146.887 252.795 149.798 255.755C152.457 258.454 152.989 262.868 151.444 265.665C150.85 266.743 150.36 267.889 149.821 269.005L149.828 269.002Z" fill="#D3E6EB"/>
<path d="M193.604 40.3534C195.746 35.8327 197.778 31.5602 199.79 27.2734C200.063 26.6955 200.342 26.5324 200.959 26.7239C204.244 27.7556 207.548 28.7094 210.84 29.7164C211.778 30.0036 211.794 30.0603 211.333 31.0638C209.473 35.1023 207.587 39.1231 205.737 43.1652C205.471 43.7431 205.179 43.9984 204.585 43.8069C200.995 42.6688 197.401 41.5412 193.607 40.3499L193.604 40.3534Z" fill="#E0F450"/>
<path d="M169.58 32.8688C170.814 30.3478 171.93 28.0715 173.047 25.7916C173.959 23.9301 174.861 22.0686 175.783 20.2142C175.981 19.8136 176.114 19.2959 176.741 19.4874C180.178 20.5298 183.622 21.551 187.011 22.565C187.056 23.1182 186.852 23.4195 186.699 23.7351C184.872 27.5219 183.025 31.2945 181.233 35.099C180.821 35.9748 180.474 36.3223 179.477 35.9819C176.273 34.8827 173.024 33.9396 169.58 32.8688Z" fill="#E0F450"/>
<path d="M74.9728 73.3847C73.2817 76.6503 71.5743 79.9336 69.8864 83.2311C69.4936 83.997 68.997 83.7027 68.4744 83.4935C65.6341 82.3447 62.7874 81.2171 59.9537 80.0542C59.035 79.6783 58.058 79.4443 57.1621 78.7884C58.8273 75.5724 60.486 72.3813 62.1252 69.1796C62.4044 68.6371 62.6868 68.3747 63.3035 68.6194C67.0786 70.1192 70.8666 71.5835 74.6482 73.0656C74.7423 73.1011 74.8105 73.2216 74.9728 73.3847Z" fill="#E0F450"/>
<path d="M62.9585 96.5757C61.2804 99.8235 59.6249 103.015 57.989 106.216C57.7066 106.766 57.4047 107.032 56.8074 106.766C53.0356 105.103 49.2605 103.454 45.5081 101.813C45.401 101.178 45.7419 100.816 45.9431 100.426C47.3681 97.643 48.8126 94.8738 50.2538 92.1011C50.5037 91.6188 50.692 91.1863 51.3834 91.4841C55.1649 93.1187 58.9692 94.7036 62.7605 96.3098C62.806 96.3275 62.832 96.3984 62.9618 96.5757H62.9585Z" fill="#E0F450"/>
<path d="M74.953 262.033C75.0731 262.153 75.177 262.352 75.3133 262.384C79.1923 263.277 83.0355 264.373 87.0086 264.717C85.7686 267.596 84.4151 270.411 82.9641 273.163C81.7501 275.464 79.4747 276.375 77.144 275.662C73.2294 274.464 71.3208 270.209 72.947 266.153C73.515 264.731 74.2811 263.405 74.9563 262.036L74.953 262.033Z" fill="#A0B8BE"/>
<path d="M284.943 225.79C286.618 224.326 288.589 223.397 290.387 222.152C292.507 220.681 294.642 219.238 296.775 217.787C297.148 217.536 297.548 217.326 297.726 216.844C299.469 218.943 299.589 223.102 297.687 225.723C295.85 228.254 292.821 229.247 289.955 228.119C288.248 227.446 286.56 226.708 284.943 225.794V225.79Z" fill="#A0B8BE"/>
<path d="M278.398 242.557C277.33 242.053 276.392 241.575 275.424 241.171C274.665 240.851 274.447 240.486 274.824 239.575C276.155 236.345 277.391 233.072 278.667 229.814C279.121 228.654 279.618 227.516 280.034 226.339C280.28 225.637 280.595 225.371 281.264 225.704C282.257 226.201 283.267 226.662 284.403 227.197C282.39 232.349 280.413 237.405 278.401 242.56L278.398 242.557Z" fill="#A3BA00"/>
<path d="M124.575 289.897C124.039 291.035 123.481 292.269 122.874 293.478C122.715 293.797 122.387 293.659 122.14 293.51C121.465 293.105 120.8 292.687 120.128 292.276C117.151 290.467 114.168 288.663 111.195 286.847C109.984 286.11 109.991 286.099 110.552 284.855C111.993 281.663 111.987 281.678 114.811 283.408C117.784 285.23 120.774 287.017 123.744 288.84C124.085 289.049 124.627 289.124 124.578 289.893L124.575 289.897Z" fill="#A3BA00"/>
<path d="M296.75 195.662C294.845 200.526 292.985 205.21 291.184 209.919C290.888 210.692 290.57 210.766 289.947 210.44C289.255 210.078 288.541 209.734 287.808 209.49C286.931 209.199 286.889 208.727 287.23 207.887C288.606 204.476 289.927 201.04 291.271 197.615C291.618 196.732 291.998 195.86 292.307 194.96C292.573 194.187 292.93 193.921 293.676 194.297C294.621 194.772 295.605 195.155 296.754 195.658L296.75 195.662Z" fill="#A3BA00"/>
<path d="M308.666 165.118C308.519 165.532 308.406 165.869 308.279 166.199C306.685 170.284 305.095 174.372 303.488 178.453C303.031 179.612 302.988 179.662 301.933 179.165C300.995 178.726 299.59 178.722 299.242 177.737C298.937 176.871 299.823 175.769 300.203 174.779C301.554 171.298 302.917 167.823 304.29 164.352C304.741 163.213 304.764 163.213 305.861 163.621C306.64 163.908 307.413 164.228 308.185 164.536C308.458 164.646 308.63 164.848 308.666 165.118Z" fill="#A3BA00"/>
<path d="M87.4943 266.873C88.5687 267.511 89.5327 268.079 90.4903 268.657C92.9994 270.174 95.4956 271.716 98.0177 273.209C98.6994 273.613 99.0824 273.979 98.5598 274.861C97.9658 275.865 97.8262 277.51 96.9206 277.872C95.9857 278.244 94.9827 277.003 94.0252 276.443C91.4511 274.932 88.9257 273.323 86.3484 271.819C85.5661 271.362 85.472 270.929 85.9135 270.132C86.475 269.11 86.9424 268.029 87.4975 266.873H87.4943Z" fill="#A3BA00"/>
<path d="M74.7902 259.15C74.1864 260.426 73.6606 261.483 73.1802 262.561C72.8848 263.227 72.5634 263.447 71.898 263.039C68.824 261.142 65.7339 259.274 62.634 257.419C61.9913 257.037 62.0042 256.618 62.2834 255.952C63.7571 252.406 63.7408 252.399 66.8765 254.321C69.47 255.909 72.07 257.49 74.7869 259.15H74.7902Z" fill="#A3BA00"/>
<path d="M49.3725 254.523C52.453 255.605 55.5334 256.693 58.6171 257.761C58.9839 257.888 59.3896 257.888 59.5292 258.385C59.0131 260.572 57.7277 261.962 55.7184 262.366C53.7059 262.771 52.0342 261.856 50.7683 260.189C49.5316 258.562 48.8694 256.697 49.3725 254.523Z" fill="#A0B8BE"/>
<path d="M199.864 43.9311C196.757 44.9771 193.651 46.0196 190.548 47.0655C191.074 45.3565 192.005 43.8638 192.7 42.2469C192.895 41.7931 193.193 41.6442 193.632 41.8108C195.689 42.5944 197.868 42.9419 199.867 43.9311H199.864Z" fill="white"/>
<path d="M175.1 36.2197C172.328 37.0991 169.553 37.9819 166.781 38.8613C167.209 37.3544 168.069 36.085 168.693 34.6845C168.855 34.3193 169.059 34.1278 169.472 34.2803C171.335 34.9717 173.312 35.2801 175.103 36.2197H175.1Z" fill="white"/>
<path d="M247.6 227.826C249.041 227.401 250.2 226.199 251.735 226.043C251.651 226.901 251.225 227.624 250.962 228.411C250.713 229.16 250.297 229.255 249.677 228.901C248.999 228.511 248.291 228.181 247.6 227.823V227.826Z" fill="#C20000"/>
<path d="M79.1219 74.9099C77.8624 75.3176 76.6614 75.9523 75.3306 76.0729C75.3436 75.8991 75.3176 75.7041 75.3793 75.5516C76.1583 73.6973 76.2232 73.6618 77.9403 74.339C78.3428 74.4986 78.7291 74.7184 79.1219 74.9099Z" fill="#FA420F"/>
<path d="M251.72 226.017C251.7 225.792 251.806 225.658 251.987 225.577C251.971 225.778 251.91 225.943 251.72 226.017Z" fill="#C20000"/>
<path d="M246.281 245.552C246.468 245.489 246.597 245.563 246.671 245.752C246.481 245.822 246.355 245.745 246.281 245.552Z" fill="#A0B8BE"/>
<path d="M75.359 76.064C75.3175 76.2144 75.2248 76.2599 75.0938 76.2249C75.1321 76.071 75.1609 75.8996 75.359 76.064Z" fill="#FA420F"/>
<path d="M103.813 266.77C103.845 266.981 103.768 267.129 103.594 267.224C103.549 267.006 103.63 266.858 103.813 266.77Z" fill="#A0B8BE"/>
<path d="M133.146 72.7687C135.051 72.7439 136.882 73.1233 138.677 73.7792C166.508 83.9412 194.343 94.1031 222.174 104.261C224.235 105.013 226.16 106.027 227.737 107.711C230.61 110.778 231.249 114.555 230.613 118.703C230.327 120.554 229.675 122.273 228.938 123.975C222.56 138.683 216.22 153.408 209.865 168.126C203.934 181.862 198.014 195.605 192.064 209.334C190.483 212.983 188.318 216.177 185.276 218.535C180.55 222.198 175.509 223.049 170.127 220.326C154.105 212.224 138.083 204.125 122.061 196.027C111.495 190.687 100.93 185.348 90.3672 180.004C88.2508 178.933 86.2773 177.65 84.6316 175.795C81.1324 171.846 79.5743 165.417 82.3626 159.773C86.8161 150.752 91.2047 141.697 95.6322 132.662C101.962 119.749 108.301 106.839 114.634 93.9293C116.825 89.4653 119.055 85.0261 121.191 80.5338C123.72 75.2117 127.774 72.8006 133.146 72.7723V72.7687ZM133.798 74.1657C128.355 74.1515 125.132 76.1442 122.7 80.5763C122.389 81.1436 122.087 81.7216 121.801 82.3031C115.647 94.8441 109.493 107.382 103.345 119.926C96.6514 133.588 89.9647 147.253 83.2682 160.911C82.7391 161.989 82.4048 163.123 82.2815 164.336C81.7134 169.903 84.3556 175.062 89.2084 177.795C90.4321 178.487 91.6948 179.097 92.9478 179.731C118.834 192.825 144.728 205.905 170.605 219.024C175.431 221.471 179.943 220.815 184.231 217.631C187.425 215.259 189.564 211.908 191.191 208.143C203.519 179.572 215.837 150.993 228.175 122.426C228.724 121.157 229.107 119.845 229.347 118.483C230.327 112.927 228.085 108.392 223.313 106.243C222.599 105.921 221.865 105.651 221.135 105.385C205.337 99.6095 189.538 93.8371 173.737 88.0648C161.915 83.7461 150.093 79.4346 138.271 75.116C136.58 74.499 134.853 74.1551 133.798 74.1693V74.1657Z" fill="#130F09"/>
<path d="M311.568 69.4272C311.568 66.3247 313.136 65.0696 315.597 65.9063C317.612 66.5907 319.138 68.0444 320.521 69.7038C322.176 71.6858 323.403 73.9302 324.01 76.5576C324.218 77.4511 324.276 78.3446 324.147 79.2345C323.887 80.9826 322.67 81.9328 321.056 81.6811C320.177 81.5428 319.342 81.2201 318.593 80.706C315.197 78.3694 312.899 75.1109 311.776 70.8916C311.624 70.3207 311.607 69.7109 311.568 69.4272Z" fill="white"/>
<path d="M322.732 84.8008C324.715 84.8114 326.377 86.9956 326.088 89.0521C325.997 89.6938 325.829 90.3356 325.501 90.9135C324.323 92.9913 321.898 93.165 320.502 91.2539C319.077 89.3038 319.749 86.0737 321.797 85.1057C322.144 84.9426 322.527 84.8646 322.729 84.8008H322.732Z" fill="white"/>
<path d="M133.805 74.1686C134.86 74.1544 136.587 74.4984 138.278 75.1153C150.097 79.4375 161.922 83.749 173.744 88.0641C189.545 93.8365 205.343 99.6089 221.141 105.385C221.872 105.651 222.605 105.924 223.32 106.243C228.091 108.392 230.331 112.93 229.354 118.483C229.114 119.844 228.727 121.156 228.182 122.425C215.847 150.993 203.526 179.571 191.197 208.142C189.571 211.908 187.435 215.258 184.238 217.63C179.95 220.811 175.438 221.47 170.611 219.024C144.734 205.908 118.841 192.828 92.9544 179.731C91.7014 179.096 90.442 178.486 89.215 177.795C84.359 175.061 81.72 169.905 82.2881 164.335C82.4114 163.123 82.7458 161.988 83.2749 160.91C89.9681 147.249 96.6548 133.584 103.351 119.926C109.499 107.381 115.654 94.8435 121.808 82.3024C122.094 81.7174 122.395 81.143 122.707 80.5757C125.138 76.1436 128.362 74.1544 133.805 74.1651V74.1686ZM140.914 173.536C142.832 173.593 144.874 172.887 146.825 171.863C153.323 168.445 159.805 164.998 166.297 161.573C178.233 155.276 190.172 148.986 202.11 142.696C204.636 141.366 207.164 140.044 209.693 138.725C210.352 138.381 211.001 138.101 210.806 137.041C210.063 132.988 208.495 129.442 205.626 126.655C203.081 124.184 199.955 123.691 196.745 123.592C191.788 123.439 187.198 125.077 182.875 127.524C173.448 132.857 164.097 138.335 154.706 143.742C149.155 146.94 143.588 150.103 138.035 153.301C135.308 154.872 132.607 156.496 129.881 158.063C129.313 158.389 129.111 158.701 129.261 159.46C129.621 161.279 129.761 163.151 130.147 164.963C131.338 170.561 135.678 173.838 140.911 173.54L140.914 173.536ZM173.442 125.613C172.994 122.489 172.124 119.543 170.183 117.103C169.04 115.671 167.618 114.674 165.908 114.221C161.772 113.121 157.845 113.994 153.995 115.689C151.528 116.773 149.314 118.355 147.029 119.809C140.174 124.173 133.305 128.513 126.443 132.864C125.236 133.63 125.223 133.669 125.466 135.137C125.651 136.257 125.846 137.377 126.018 138.498C126.716 143.058 127.414 147.614 128.095 152.177C128.196 152.861 128.478 152.982 128.998 152.677C130.257 151.936 131.517 151.195 132.776 150.45C138.489 147.075 144.199 143.696 149.915 140.327C156.309 136.558 162.707 132.803 169.105 129.038C170.316 128.325 171.507 127.577 172.724 126.879C173.211 126.599 173.542 126.272 173.448 125.613H173.442ZM124.492 128.322C125.664 128.056 126.469 127.29 127.355 126.726C132.059 123.73 136.746 120.706 141.436 117.688C142.702 116.873 142.8 116.642 142.55 115.103C142.303 113.565 141.939 112.051 141.297 110.654C140.141 108.136 138.544 106.175 135.805 105.764C134.052 105.502 132.315 105.555 130.572 105.952C127.553 106.64 124.94 108.275 122.314 109.927C121.659 110.338 121.775 110.856 121.866 111.459C122.379 114.77 122.876 118.082 123.389 121.394C123.743 123.68 124.113 125.964 124.489 128.325L124.492 128.322Z" fill="#FA420F"/>
<path d="M140.914 173.535C135.681 173.833 131.345 170.557 130.15 164.958C129.764 163.147 129.624 161.274 129.264 159.456C129.115 158.697 129.316 158.385 129.884 158.059C132.61 156.491 135.311 154.867 138.038 153.297C143.588 150.098 149.155 146.936 154.709 143.738C164.1 138.33 173.451 132.849 182.878 127.52C187.198 125.077 191.788 123.435 196.748 123.587C199.955 123.687 203.084 124.18 205.629 126.651C208.498 129.438 210.066 132.983 210.809 137.036C211.004 138.096 210.355 138.376 209.696 138.72C207.164 140.039 204.639 141.358 202.113 142.692C190.175 148.982 178.236 155.272 166.301 161.569C159.809 164.994 153.323 168.44 146.828 171.858C144.877 172.883 142.839 173.589 140.917 173.532L140.914 173.535Z" fill="white"/>
<path d="M173.442 125.611C173.54 126.271 173.205 126.6 172.718 126.877C171.501 127.575 170.31 128.324 169.099 129.036C162.704 132.802 156.303 136.557 149.909 140.326C144.193 143.694 138.483 147.073 132.77 150.449C131.511 151.193 130.251 151.934 128.992 152.675C128.476 152.98 128.193 152.86 128.089 152.175C127.408 147.612 126.71 143.056 126.012 138.496C125.84 137.372 125.648 136.255 125.46 135.135C125.217 133.667 125.23 133.632 126.437 132.862C133.299 128.512 140.168 124.172 147.023 119.807C149.305 118.353 151.522 116.772 153.989 115.687C157.839 113.996 161.77 113.12 165.902 114.219C167.612 114.673 169.034 115.666 170.177 117.102C172.118 119.541 172.988 122.487 173.436 125.611H173.442Z" fill="white"/>
<path d="M124.501 128.321C124.128 125.96 123.758 123.677 123.401 121.39C122.888 118.078 122.388 114.766 121.878 111.455C121.784 110.852 121.67 110.334 122.326 109.923C124.952 108.274 127.568 106.636 130.584 105.948C132.327 105.551 134.064 105.498 135.816 105.76C138.553 106.172 140.153 108.132 141.309 110.65C141.951 112.05 142.312 113.561 142.562 115.1C142.808 116.638 142.714 116.869 141.448 117.684C136.758 120.702 132.071 123.726 127.367 126.722C126.481 127.286 125.676 128.052 124.504 128.318L124.501 128.321Z" fill="white"/>
</svg>
