<svg width="342" height="327" viewBox="0 0 342 327" fill="none" xmlns="http://www.w3.org/2000/svg">
<path d="M112.291 148.457C112.502 147.841 112.416 147.358 112.416 146.89C112.402 128.992 112.382 111.093 112.361 93.1964C112.353 86.7148 112.272 80.2332 112.337 73.7516C112.385 68.8943 113.201 64.131 114.39 59.4643C119.6 38.9958 130.885 23.5412 147.444 12.5392C157.299 5.9923 168.053 2.20309 179.513 0.798128C184.646 0.168769 189.803 0.145266 194.967 0.218387C204.798 0.359405 214.629 0.369851 224.461 0.505646C228.518 0.560487 232.517 1.30736 236.466 2.26315C249.251 5.36294 260.666 11.4607 270.415 21.029C281.918 32.3209 289.314 46.2191 291.985 62.8514C294.841 80.6432 291.798 97.3643 283.42 112.934C280.924 117.572 277.864 121.8 275.017 126.179C258.85 151.05 242.653 175.901 226.474 200.762C226.224 201.146 225.89 201.485 225.779 202.133C227.701 202.533 229.594 202.948 231.496 203.321C238.803 204.755 246.151 205.904 253.537 206.747C261.1 207.612 268.686 208.165 276.29 208.421C281.45 208.596 286.609 208.622 291.769 208.497C300.666 208.278 309.536 207.622 318.373 206.476C325.48 205.554 332.549 204.353 339.561 202.768C339.736 202.728 339.914 202.708 340.082 202.647C340.45 202.517 340.824 202.533 341.076 202.835C341.42 203.248 341.122 203.65 340.923 204.021C339.253 207.157 337.579 210.291 335.907 213.428C320.059 243.148 304.211 272.869 288.382 302.603C287.959 303.397 287.484 303.695 286.653 303.87C281.942 304.86 277.22 305.774 272.474 306.523C268.34 307.176 264.197 307.724 260.039 308.171C255.437 308.664 250.827 309.025 246.211 309.286C238.121 309.746 230.021 309.777 221.929 309.484C213.4 309.176 204.897 308.419 196.413 307.348C185.013 305.907 173.76 303.583 162.545 300.995C161.661 300.791 161.198 300.974 160.681 301.778C155.832 309.299 150.941 316.789 146.06 324.289C145.223 325.577 144.077 326.217 142.623 326.208C133.368 326.193 124.116 326.179 114.861 326.166C114.638 326.166 114.417 326.166 114.193 326.166C113.213 326.159 112.723 325.628 112.723 324.573C112.711 311.224 112.683 297.871 112.711 284.522C112.711 283.404 112.329 282.963 111.448 282.547C92.3354 273.527 74.3351 262.418 57.7326 248.69C42.4921 236.087 28.8946 221.695 17.5453 204.872C11.0551 195.254 5.51618 185.033 1.04851 174.128C0.64018 173.13 0.700229 172.425 1.20224 171.482C14.9487 145.632 28.6592 119.76 42.3792 93.8911C45.9534 87.1509 49.5299 80.4134 53.1113 73.6811C53.3899 73.1588 53.534 72.3623 54.221 72.3779C54.9536 72.3962 54.9512 73.2658 55.1673 73.7934C61.547 89.4333 70.1628 103.506 80.4385 116.412C89.7341 128.085 100.154 138.45 111.446 147.797C111.691 148 111.945 148.188 112.293 148.46L112.291 148.457ZM220.658 207.708C222.212 205.442 223.759 203.172 225.138 200.772C225.64 200.347 225.926 199.733 226.284 199.187C231.393 191.358 236.492 183.521 241.589 175.679C245.968 168.944 250.337 162.201 254.711 155.461C256.051 153.416 257.394 151.377 258.727 149.33C264.665 140.216 270.581 131.083 276.545 121.99C280.165 116.475 283.705 110.926 286.225 104.674C289.672 96.1186 291.608 87.1953 291.985 77.8777C292.153 73.7176 291.855 69.5759 291.327 65.4472C290.335 57.712 288.195 50.3739 284.954 43.4274C279.653 32.0624 272.056 22.8623 262.422 15.6521C254.07 9.40024 244.873 5.29243 234.945 3.10665C229.435 1.89494 223.884 1.23163 218.252 1.85838C217.351 1.95761 216.479 2.08296 215.756 2.72277C214.632 3.71773 214.723 5.00517 215.975 5.77294C216.282 5.96096 216.625 6.07848 216.955 6.22211C227.434 10.8026 236.579 17.4879 244.183 26.6097C248.665 31.9841 252.355 37.9355 255.213 44.4929C260.255 56.0564 262.325 68.2101 261.432 80.9801C261.004 87.0882 259.892 93.0371 258.076 98.8189C255.778 106.141 252.473 112.892 248.293 119.178C242.223 128.307 236.29 137.544 230.31 146.744C228.515 149.504 226.755 152.294 224.98 155.069C224.617 155.37 224.41 155.803 224.153 156.195C216.508 167.933 208.853 179.667 201.222 191.418C199.278 194.411 197.249 197.341 195.438 200.433C193.838 202.687 192.349 205.021 190.893 207.385C190.293 208.27 189.671 209.137 189.094 210.04C187.185 213.031 185.152 215.927 183.351 219C183.18 219.217 182.995 219.423 182.844 219.656C177.296 228.167 171.749 236.68 166.203 245.193C164.945 247.126 163.684 249.053 162.442 250.998C161.897 251.855 161.916 251.873 162.785 252.367C163.655 252.86 164.57 253.234 165.507 253.537C170.313 255.093 175.086 254.607 179.822 253.182C185.952 251.335 191.393 248.037 196.307 243.689C197.65 242.501 198.923 241.268 199.927 239.675C202.435 235.69 205.062 231.794 207.623 227.848C209.388 225.127 211.125 222.385 212.874 219.651C213.611 218.564 214.368 217.491 215.083 216.386C216.952 213.501 218.799 210.602 220.656 207.711L220.658 207.708ZM189.032 207.737C189.193 207.81 189.322 207.771 189.421 207.614C190.756 205.507 192.231 203.507 193.434 201.303C193.732 200.885 194.045 200.477 194.326 200.046C203.686 185.678 213.044 171.307 222.395 156.929C222.695 156.467 223.108 156.067 223.209 155.469L223.197 155.479C223.385 155.479 223.442 155.338 223.478 155.177C223.781 154.764 224.105 154.367 224.386 153.939C229.656 145.848 234.924 137.756 240.189 129.663C243.374 124.766 246.677 119.953 249.705 114.947C256.039 104.483 259.63 92.9405 260.474 80.4473C261.045 71.9862 260.26 63.64 257.997 55.4949C253.224 38.3246 243.854 24.8104 230.127 14.9992C213.779 3.31818 195.781 -0.614665 176.479 2.42245C165.267 4.18779 154.895 8.46795 145.441 15.2551C131.906 24.9697 122.178 38.0139 116.792 54.7246C114.438 62.0288 113.223 69.5524 113.29 77.3397C113.415 92.0448 113.415 106.752 113.439 121.458C113.482 148.839 113.506 176.217 113.54 203.598C113.54 204.126 113.461 204.663 113.636 205.181C113.607 205.515 113.557 205.849 113.557 206.183C113.557 216.35 113.564 226.516 113.574 236.685C113.574 237.066 113.634 237.448 113.665 237.829C113.576 239.424 113.576 241.02 113.701 242.616C113.518 244.297 113.795 245.998 113.607 247.661C113.403 249.463 114.085 250.463 115.558 251.019C115.733 251.163 115.896 251.327 116.084 251.45C126.612 258.203 137.766 263.411 149.421 267.383C150.062 267.602 150.533 267.565 150.864 266.863C150.984 266.607 151.174 266.393 151.328 266.155C159.953 252.91 168.584 239.667 177.195 226.412C178.653 224.166 180.202 221.985 181.513 219.63C184.033 215.786 186.55 211.944 189.072 208.103C189.161 207.967 189.161 207.855 189.077 207.729L189.032 207.737ZM177.262 302.961C177.418 303.175 177.649 303.162 177.865 303.207C185.388 304.692 192.954 305.857 200.559 306.742C207.592 307.56 214.639 308.134 221.703 308.369C229.306 308.623 236.91 308.641 244.517 308.252C250.604 307.941 256.674 307.455 262.731 306.756C270.516 305.855 278.236 304.525 285.92 302.909C286.823 302.718 287.383 302.266 287.846 301.392C294.872 288.159 301.929 274.948 308.974 261.729C309.171 261.358 309.45 261.021 309.457 260.554C310.072 259.493 310.718 258.452 311.297 257.37C320.602 239.939 329.9 222.5 339.193 205.06C339.361 204.744 339.642 204.457 339.575 204.005C339.446 203.998 339.311 203.958 339.186 203.985C332.432 205.473 325.632 206.622 318.789 207.515C313.403 208.218 308.006 208.743 302.594 209.103C299.443 209.314 296.287 209.395 293.133 209.539C285.879 209.873 278.632 209.662 271.39 209.343C265.707 209.093 260.034 208.607 254.372 207.957C250.44 207.505 246.513 206.985 242.598 206.384C237.054 205.533 231.532 204.525 226.046 203.313C225.227 203.133 224.785 203.316 224.3 204.068C219.678 211.234 215.019 218.368 210.368 225.513C209.645 226.623 209.629 226.425 210.529 227.362C213.621 230.582 216.467 234.034 218.847 237.92C220.831 241.159 222.436 244.59 223.322 248.387C225.128 256.135 222.921 262.941 217.024 267.733C215.235 269.187 213.289 270.344 211.231 271.284C205.711 273.804 199.898 274.872 193.973 275.272C185.455 275.846 177 275.113 168.608 273.517C155.147 270.958 142.215 266.531 129.78 260.381C119.336 255.216 109.469 249.011 100.617 241.018C95.7727 236.641 91.3651 231.81 87.8798 226.059C86.0615 223.056 84.5819 219.875 83.7076 216.386C81.6683 208.254 83.9814 201.162 90.2842 196.247C91.843 195.03 93.5148 194.03 95.2707 193.197C100.425 190.75 105.875 189.684 111.434 189.128C112.476 189.024 112.478 189.039 112.493 187.859C112.493 187.713 112.493 187.569 112.493 187.423C112.471 175.428 112.43 163.431 112.452 151.437C112.452 150.33 112.104 149.708 111.321 149.066C100.459 140.158 90.4043 130.287 81.3512 119.227C70.4607 105.925 61.3356 91.3527 54.5765 75.0834C54.4516 74.7805 54.3987 74.4253 54.0889 74.2295C53.7165 74.5846 53.534 75.086 53.2914 75.5378C48.67 84.2444 44.0534 92.9562 39.4368 101.668C27.0907 124.952 14.7518 148.235 2.37921 171.501C1.85318 172.488 1.79553 173.263 2.23029 174.298C5.00456 180.902 8.12713 187.3 11.6676 193.455C20.9825 209.659 32.4903 223.821 45.6219 236.458C62.0466 252.262 80.304 265.066 99.9569 275.567C120.907 286.762 142.832 294.947 165.596 300.514C168.932 301.329 172.275 302.125 175.669 302.627C175.811 302.864 176.013 302.875 176.234 302.791C176.577 302.846 176.921 302.901 177.267 302.956L177.262 302.961ZM112.601 248.779C112.601 246.136 112.603 243.53 112.601 240.921C112.582 224.719 112.644 208.515 112.49 192.314C112.486 191.878 112.471 191.442 112.483 191.008C112.5 190.465 112.301 190.193 111.779 190.243C111.424 190.277 111.068 190.28 110.715 190.319C106.949 190.729 103.228 191.405 99.611 192.638C95.936 193.891 92.458 195.586 89.5011 198.341C85.7613 201.82 83.8301 206.183 84.0535 211.602C84.1712 214.446 84.8485 217.128 85.8838 219.721C88.0599 225.171 91.3627 229.767 95.1313 233.99C100.113 239.571 105.75 244.274 111.751 248.478C111.964 248.627 112.149 248.881 112.603 248.779H112.601ZM178.886 273.867C183.224 274.217 187.252 274.454 191.301 274.293C195.488 274.125 199.639 273.692 203.725 272.689C208.132 271.608 212.35 269.999 216.068 267.103C222.013 262.476 224.168 255.777 222.193 248.113C221.456 245.248 220.308 242.59 218.886 240.067C216.244 235.374 212.91 231.311 209.112 227.448C199.057 242.89 189.053 258.253 178.886 273.87V273.867ZM113.78 323.265C113.864 323.315 113.948 323.364 114.032 323.414C120.777 313.052 127.524 302.687 134.346 292.207C127.303 289.601 120.556 286.801 113.78 283.717V323.265Z" fill="#121212"/>
<path d="M175.661 302.627C172.267 302.125 168.924 301.329 165.587 300.514C142.826 294.947 120.901 286.762 99.9487 275.567C80.2982 265.066 62.0384 252.26 45.6137 236.458C32.4798 223.821 20.9743 209.659 11.6595 193.455C8.11896 187.3 4.9988 180.902 2.22212 174.298C1.78737 173.263 1.84501 172.488 2.37105 171.501C14.7436 148.235 27.0825 124.949 39.4287 101.668C44.0477 92.9588 48.6618 84.247 53.2832 75.5378C53.5234 75.0834 53.7084 74.5846 54.0807 74.2295C54.3905 74.4254 54.441 74.7805 54.5683 75.0834C61.3274 91.3528 70.4501 105.922 81.3431 119.227C90.3961 130.284 100.448 140.158 111.312 149.066C112.096 149.708 112.446 150.33 112.444 151.437C112.425 163.431 112.463 175.428 112.485 187.423C112.485 187.569 112.487 187.713 112.485 187.859C112.47 189.039 112.47 189.024 111.425 189.128C105.867 189.684 100.417 190.75 95.2625 193.197C93.5067 194.03 91.8349 195.033 90.276 196.247C83.9732 201.159 81.6601 208.252 83.6994 216.386C84.5737 219.875 86.0533 223.056 87.8716 226.059C91.3569 231.81 95.7645 236.641 100.609 241.018C109.463 249.011 119.328 255.219 129.772 260.381C142.207 266.531 155.141 270.958 168.6 273.517C176.992 275.113 185.447 275.846 193.964 275.272C199.89 274.872 205.703 273.804 211.223 271.284C213.281 270.344 215.224 269.187 217.016 267.733C222.913 262.941 225.123 256.135 223.314 248.387C222.428 244.59 220.823 241.159 218.839 237.92C216.461 234.037 213.615 230.585 210.521 227.362C209.62 226.425 209.64 226.623 210.36 225.513C215.01 218.371 219.67 211.234 224.292 204.068C224.777 203.316 225.219 203.133 226.038 203.313C231.526 204.523 237.046 205.531 242.59 206.384C246.505 206.988 250.432 207.507 254.364 207.957C260.023 208.607 265.697 209.093 271.382 209.343C278.624 209.662 285.871 209.876 293.125 209.539C296.279 209.393 299.435 209.312 302.586 209.103C307.998 208.743 313.395 208.218 318.78 207.515C325.621 206.622 332.424 205.473 339.178 203.985C339.3 203.958 339.437 203.998 339.567 204.005C339.637 204.457 339.356 204.744 339.185 205.06C329.892 222.502 320.594 239.939 311.289 257.37C310.71 258.454 310.064 259.494 309.449 260.554C309.088 260.486 308.882 260.71 308.671 260.985C307.875 262.019 307.097 263.071 306.254 264.061C303.835 266.897 301.203 269.49 298.457 271.94C294.823 275.186 290.963 278.092 286.957 280.777C281.463 284.456 275.713 287.593 269.773 290.301C262.937 293.419 255.897 295.9 248.705 297.858C244.802 298.924 240.88 299.893 236.909 300.645C234.08 301.18 231.248 301.687 228.404 302.136C225.603 302.58 222.788 302.857 219.98 303.22C218.522 303.408 217.047 303.327 215.611 303.551C213.408 303.896 211.191 303.758 208.986 304.008C207.182 304.215 205.345 304.068 203.522 304.068C198.372 304.068 193.22 304.165 188.079 303.726C186.799 303.617 185.507 303.596 184.244 303.4C182.099 303.066 179.92 303.097 177.789 302.635C177.561 302.585 177.357 302.7 177.254 302.956C176.91 302.901 176.567 302.846 176.221 302.791C176.12 302.381 175.964 302.199 175.656 302.627H175.661ZM254.9 266.163C254.869 267.939 255.15 270.276 255.904 272.53C257.907 278.507 262.598 281.239 268.303 279.787C271.493 278.975 274.279 277.285 276.724 274.995C284.485 267.727 288.972 258.559 289.858 247.429C290.142 243.872 289.645 240.38 288.052 237.173C285.974 232.987 282.097 230.919 277.779 231.619C274.435 232.162 271.517 233.745 268.882 235.964C263.549 240.453 259.769 246.206 257.3 253.004C255.834 257.036 254.9 261.188 254.9 266.166V266.163ZM40.5336 175.449C40.4999 178.142 40.8362 180.753 41.8282 183.239C43.8099 188.211 47.9893 190.583 52.8893 189.546C56.2521 188.836 59.1873 187.149 61.7574 184.777C69.8184 177.345 74.5311 167.936 75.4919 156.435C75.7561 153.27 75.3309 150.152 74.1107 147.227C72.1916 142.623 68.2739 140.354 63.6814 141.101C61.0344 141.532 58.6589 142.686 56.437 144.25C51.4986 147.729 47.9028 152.529 45.0997 158.07C42.3639 163.478 40.6345 169.216 40.536 175.449H40.5336Z" fill="#DBF505"/>
<path d="M113.636 205.181C113.461 204.664 113.543 204.126 113.54 203.599C113.504 176.218 113.483 148.839 113.439 121.458C113.415 106.753 113.415 92.0453 113.291 77.3403C113.226 69.5529 114.439 62.0293 116.793 54.7251C122.178 38.0145 131.906 24.9703 145.441 15.2557C154.895 8.47113 165.267 4.18835 176.479 2.42301C195.781 -0.616717 213.779 3.31613 230.122 14.9971C243.85 24.8084 253.22 38.3226 257.993 55.4929C260.255 63.638 261.041 71.9842 260.469 80.4453C259.626 92.9384 256.035 104.481 249.701 114.945C246.67 119.951 243.369 124.764 240.184 129.661C234.919 137.756 229.652 145.849 224.382 153.937C224.101 154.368 223.779 154.762 223.474 155.174C223.334 155.227 223.049 155.12 223.193 155.48L223.205 155.47C222.676 155.088 222.294 155.598 221.896 155.778C190.636 170.044 159.384 184.334 128.132 198.613C123.307 200.817 118.467 202.993 113.634 205.181H113.636ZM122.19 68.2707C122.183 70.3442 122.248 72.1278 122.946 73.7965C123.821 75.8857 125.409 76.6456 127.426 75.9849C128.553 75.6167 129.518 74.9403 130.426 74.1595C131.932 72.8616 133.227 71.3339 134.389 69.6783C138.595 63.6981 141.492 57.0075 143.37 49.7895C144.29 46.251 144.944 42.655 144.672 38.9415C144.574 37.5888 144.334 36.2648 143.651 35.0896C142.83 33.6821 141.624 33.1441 140.113 33.4575C138.992 33.6899 138.038 34.2853 137.133 34.993C135.641 36.1551 134.387 37.5888 133.215 39.1113C129.994 43.3 127.585 48.0059 125.675 53.0329C123.785 58.0103 122.36 63.1157 122.19 68.2733V68.2707ZM212.245 75.3059C212.273 71.5011 211.81 67.7719 210.89 64.1185C209.057 56.8352 205.752 50.5259 200.165 45.8801C193.73 40.5267 186.541 39.0329 178.756 41.5556C172.415 43.6082 167.481 47.8962 163.694 53.6701C156.694 64.3379 154.648 76.2069 157.107 88.9586C158.44 95.8737 161.323 101.995 166.115 106.886C172.319 113.219 179.628 115.64 187.992 113.611C194.117 112.125 199.051 108.411 203.059 103.251C209.319 95.1947 212.084 85.7465 212.247 75.3059H212.245ZM237.792 102.337H237.761C237.761 100.162 237.751 97.9838 237.763 95.8084C237.775 93.7793 237.782 91.7476 238.15 89.7446C238.657 86.9687 239.423 84.3102 241.119 82.08C242.288 80.5445 243.739 79.6749 245.627 79.7141C247.493 79.7532 249.362 79.7219 251.231 79.7193C251.498 79.7193 251.764 79.7115 252.031 79.7141C252.331 79.7167 252.578 79.5861 252.615 79.2571C252.658 78.8418 252.41 78.6434 252.045 78.6277C251.735 78.6146 251.423 78.6199 251.111 78.6173C249.199 78.6146 247.285 78.5546 245.375 78.6251C243.607 78.6904 242.317 77.7947 241.217 76.4393C240.172 75.1519 239.485 73.6398 238.967 72.0312C238.15 69.4981 237.775 66.8762 237.751 64.2073C237.705 58.6475 237.71 53.0851 237.696 47.5253C237.696 46.9456 237.717 46.3633 237.686 45.7861C237.662 45.3265 237.763 44.6371 237.191 44.6057C236.512 44.5666 236.754 45.2873 236.718 45.7156C236.682 46.1465 236.709 46.5852 236.709 47.0213C236.709 52.3409 236.711 57.6604 236.709 62.9799C236.709 64.3823 236.74 65.7846 236.574 67.1791C236.214 70.2319 235.52 73.1619 233.843 75.7159C232.577 77.6432 230.963 78.7452 228.664 78.6512C226.135 78.5494 223.596 78.6643 221.062 78.6852C220.839 78.6852 220.618 78.6956 220.397 78.7087C220.07 78.7269 219.921 78.9333 219.933 79.2701C219.943 79.5548 220.111 79.701 220.361 79.7193C220.716 79.7454 221.072 79.7637 221.427 79.7637C224.007 79.7637 226.587 79.7741 229.166 79.748C230.797 79.7297 232.08 80.4923 233.151 81.7484C233.884 82.6049 234.448 83.5895 234.907 84.6445C236.185 87.5824 236.704 90.6978 236.713 93.9282C236.735 100.117 236.745 106.306 236.776 112.496C236.776 112.987 236.557 113.788 237.196 113.83C237.974 113.88 237.785 113.036 237.785 112.498C237.797 109.114 237.792 105.729 237.792 102.342V102.337ZM156.336 18.7132C152.868 18.7185 148.64 21.8992 147.394 25.4403C146.272 28.6315 147.944 31.1176 151.083 30.9139C151.304 30.9009 151.528 30.8852 151.744 30.8356C154.946 30.1018 157.422 28.2293 159.161 25.2183C159.713 24.2626 160.028 23.218 160.019 22.0742C160.004 20.5621 159.334 19.5384 158.037 18.9744C157.482 18.7315 156.913 18.7263 156.339 18.7185L156.336 18.7132Z" fill="#FA4616"/>
<path d="M224.976 155.07C226.751 152.294 228.512 149.505 230.306 146.745C236.287 137.545 242.22 128.308 248.289 119.179C252.469 112.893 255.774 106.145 258.073 98.8198C259.886 93.0381 260.998 87.0892 261.428 80.981C262.324 68.211 260.251 56.06 255.209 44.4939C252.351 37.9365 248.662 31.9876 244.18 26.6107C236.575 17.4889 227.431 10.8036 216.951 6.22308C216.622 6.07945 216.276 5.96194 215.971 5.77391C214.722 5.00615 214.628 3.71609 215.752 2.72374C216.475 2.08655 217.347 1.9612 218.248 1.85935C223.881 1.2326 229.432 1.8933 234.942 3.10762C244.869 5.2908 254.066 9.40122 262.418 15.653C272.052 22.8632 279.647 32.0634 284.951 43.4284C288.193 50.3775 290.333 57.7156 291.323 65.4481C291.852 69.5768 292.149 73.7186 291.981 77.8786C291.604 87.1963 289.666 96.1196 286.221 104.675C283.704 110.927 280.161 116.476 276.541 121.991C270.577 131.084 264.661 140.217 258.724 149.33C257.388 151.378 256.045 153.42 254.707 155.462C254.419 155.029 253.989 155.151 253.605 155.151C245.741 155.159 237.877 155.209 230.018 154.901C228.339 154.835 226.655 154.867 224.978 155.068L224.976 155.07Z" fill="#C20000"/>
<path d="M113.627 205.18C118.459 202.992 123.297 200.816 128.125 198.612C159.379 184.333 190.631 170.045 221.888 155.777C222.287 155.594 222.669 155.084 223.197 155.468C223.096 156.066 222.683 156.469 222.383 156.931C213.035 171.307 203.674 185.678 194.314 200.048C194.033 200.479 193.72 200.887 193.423 201.305C192.952 201.281 192.577 201.573 192.173 201.759C183.14 205.922 174.113 210.108 165.074 214.257C147.939 222.126 130.793 229.973 113.653 237.831C113.622 237.45 113.562 237.068 113.562 236.687C113.552 226.521 113.545 216.354 113.545 206.185C113.545 205.851 113.598 205.517 113.624 205.183L113.627 205.18Z" fill="#FCF6F5"/>
<path d="M224.99 155.068C226.666 154.867 228.348 154.836 230.029 154.901C237.891 155.209 245.755 155.157 253.616 155.152C254.001 155.152 254.431 155.029 254.719 155.463C250.345 162.203 245.976 168.943 241.597 175.681C236.5 183.52 231.4 191.357 226.291 199.189C225.936 199.735 225.648 200.348 225.146 200.774C223.08 200.356 220.993 200.458 218.908 200.455C211.087 200.445 203.266 200.44 195.445 200.435C197.256 197.343 199.286 194.413 201.229 191.42C208.86 179.668 216.515 167.935 224.161 156.197C224.416 155.805 224.624 155.371 224.987 155.071L224.99 155.068Z" fill="#FA4616"/>
<path d="M112.601 248.778C112.145 248.877 111.962 248.626 111.748 248.477C105.748 244.273 100.108 239.572 95.129 233.989C91.3603 229.766 88.0576 225.168 85.8814 219.72C84.8461 217.13 84.1688 214.445 84.0511 211.601C83.8277 206.182 85.7613 201.819 89.4988 198.34C92.458 195.588 95.9336 193.89 99.6087 192.637C103.226 191.404 106.949 190.728 110.713 190.318C111.066 190.279 111.424 190.276 111.777 190.242C112.298 190.192 112.498 190.464 112.481 191.007C112.466 191.441 112.481 191.877 112.488 192.313C112.642 208.514 112.579 224.718 112.599 240.92C112.601 243.526 112.599 246.135 112.599 248.778H112.601Z" fill="#A5BC00"/>
<path d="M177.257 302.964C177.36 302.708 177.567 302.593 177.792 302.642C179.923 303.105 182.102 303.073 184.247 303.408C185.512 303.603 186.805 303.624 188.083 303.734C193.22 304.17 198.375 304.076 203.525 304.076C205.348 304.076 207.185 304.22 208.989 304.016C211.194 303.765 213.411 303.904 215.614 303.559C217.05 303.334 218.525 303.415 219.983 303.227C222.791 302.864 225.606 302.588 228.407 302.144C231.251 301.694 234.08 301.188 236.912 300.653C240.883 299.9 244.805 298.932 248.708 297.866C255.9 295.905 262.94 293.424 269.776 290.309C275.716 287.6 281.464 284.464 286.96 280.785C290.966 278.1 294.826 275.191 298.46 271.947C301.203 269.498 303.838 266.905 306.257 264.069C307.1 263.082 307.878 262.027 308.674 260.992C308.885 260.718 309.094 260.494 309.452 260.562C309.445 261.026 309.166 261.366 308.969 261.737C301.924 274.956 294.865 288.167 287.841 301.399C287.378 302.274 286.818 302.726 285.915 302.917C278.231 304.533 270.511 305.862 262.726 306.763C256.668 307.463 250.599 307.949 244.512 308.26C236.907 308.649 229.3 308.63 221.698 308.377C214.634 308.142 207.584 307.568 200.554 306.75C192.949 305.865 185.385 304.7 177.86 303.214C177.644 303.173 177.413 303.183 177.257 302.969V302.964Z" fill="#A5BC00"/>
<path d="M181.514 219.625C180.2 221.981 178.653 224.161 177.195 226.407C168.584 239.663 159.954 252.905 151.328 266.151C151.175 266.388 150.985 266.602 150.865 266.858C150.533 267.561 150.065 267.597 149.421 267.378C137.767 263.406 126.612 258.199 116.084 251.446C115.897 251.325 115.733 251.161 115.558 251.015C115.765 250.926 115.974 250.847 116.178 250.751C134.094 242.326 151.974 233.808 169.819 225.206C173.71 223.331 177.615 221.484 181.514 219.625Z" fill="#FA4616"/>
<path d="M178.883 273.871C189.051 258.254 199.055 242.891 209.11 227.45C212.91 231.315 216.241 235.375 218.883 240.068C220.305 242.594 221.453 245.252 222.191 248.114C224.165 255.779 222.011 262.477 216.066 267.105C212.345 270.001 208.13 271.609 203.722 272.69C199.636 273.693 195.486 274.127 191.299 274.294C187.247 274.456 183.219 274.221 178.883 273.868V273.871Z" fill="#A5BC00"/>
<path d="M212.869 219.651C211.12 222.385 209.383 225.127 207.618 227.849C205.058 231.794 202.43 235.691 199.922 239.676C198.92 241.269 197.645 242.504 196.302 243.69C191.385 248.04 185.947 251.336 179.818 253.182C175.081 254.608 170.308 255.094 165.502 253.537C164.565 253.234 163.65 252.861 162.78 252.367C161.911 251.874 161.892 251.853 162.437 250.999C163.679 249.056 164.94 247.126 166.198 245.194C171.742 236.68 177.288 228.167 182.839 219.656C182.991 219.424 183.178 219.218 183.346 219.001C187.069 219.077 190.79 219.124 194.513 219.244C200.451 219.437 206.4 219.254 212.338 219.594C212.516 219.604 212.691 219.63 212.869 219.649V219.651Z" fill="#C20000"/>
<path d="M181.506 219.63C177.608 221.489 173.702 223.333 169.811 225.211C151.964 233.813 134.086 242.331 116.17 250.756C115.966 250.853 115.757 250.931 115.55 251.02C114.078 250.463 113.396 249.466 113.6 247.661C113.787 245.998 113.511 244.298 113.696 242.616C114.071 242.465 114.45 242.331 114.815 242.159C139.051 230.663 163.41 219.476 187.71 208.145C188.138 207.946 188.534 207.534 189.072 207.73C189.156 207.855 189.156 207.967 189.067 208.103C186.545 211.945 184.028 215.789 181.508 219.63H181.506Z" fill="#FCF6F5"/>
<path d="M113.782 323.264V283.716C120.558 286.8 127.305 289.597 134.347 292.206C127.526 302.685 120.781 313.05 114.034 323.412C113.95 323.363 113.866 323.313 113.782 323.264Z" fill="#FA4616"/>
<path d="M189.075 207.724C188.537 207.528 188.141 207.938 187.713 208.139C163.412 219.47 139.054 230.658 114.818 242.153C114.453 242.326 114.071 242.459 113.699 242.61C113.574 241.017 113.574 239.422 113.663 237.826C130.803 229.968 147.949 222.121 165.084 214.252C174.123 210.103 183.147 205.917 192.183 201.754C192.587 201.569 192.964 201.276 193.432 201.3C192.229 203.504 190.754 205.504 189.419 207.612C189.25 207.507 189.056 207.298 189.029 207.734L189.075 207.726V207.724Z" fill="#FA4616"/>
<path d="M212.871 219.649C212.694 219.631 212.518 219.605 212.34 219.594C206.403 219.255 200.453 219.435 194.515 219.244C190.792 219.124 187.072 219.077 183.349 219.001C185.15 215.93 187.182 213.032 189.092 210.041C189.668 209.138 190.29 208.271 190.891 207.386C200.816 207.245 210.731 207.793 220.656 207.707C218.799 210.6 216.95 213.499 215.083 216.382C214.368 217.487 213.611 218.56 212.874 219.646L212.871 219.649Z" fill="#FA4616"/>
<path d="M220.654 207.71C210.732 207.797 200.814 207.246 190.889 207.389C192.345 205.026 193.836 202.689 195.434 200.438C203.255 200.445 211.075 200.448 218.896 200.458C220.979 200.461 223.068 200.359 225.134 200.777C223.753 203.174 222.206 205.446 220.654 207.713V207.71Z" fill="#C20000"/>
<path d="M175.666 302.626C175.973 302.2 176.13 302.38 176.23 302.79C176.007 302.874 175.808 302.864 175.666 302.626Z" fill="#A5BC00"/>
<path d="M189.022 207.737C189.046 207.304 189.241 207.511 189.408 207.615C189.31 207.768 189.182 207.809 189.022 207.737Z" fill="#FCF6F5"/>
<path d="M223.186 155.472C223.046 155.116 223.326 155.222 223.463 155.17C223.425 155.33 223.37 155.472 223.186 155.472Z" fill="#FCF6F5"/>
<path d="M254.896 266.166C254.896 261.189 255.833 257.036 257.295 253.004C259.765 246.207 263.545 240.454 268.878 235.965C271.513 233.748 274.431 232.162 277.775 231.619C282.093 230.917 285.97 232.988 288.048 237.174C289.64 240.381 290.138 243.872 289.854 247.429C288.968 258.559 284.481 267.728 276.72 274.995C274.275 277.286 271.489 278.975 268.299 279.787C262.594 281.239 257.903 278.508 255.9 272.53C255.146 270.279 254.865 267.942 254.896 266.163V266.166ZM255.938 265.422C255.9 268.213 256.272 270.924 257.392 273.462C258.547 276.079 260.351 277.91 262.957 278.709C264.715 279.247 266.476 279.119 268.229 278.646C271.047 277.886 273.526 276.387 275.743 274.4C282.408 268.417 286.511 260.737 288.312 251.586C289.076 247.703 289.138 243.809 288.021 239.971C286.412 234.442 282.266 231.781 277.049 232.914C274.378 233.494 272.032 234.839 269.858 236.568C265.794 239.796 262.748 243.977 260.332 248.729C257.689 253.926 256.018 259.429 255.938 265.422Z" fill="#121212"/>
<path d="M40.5437 175.454C40.6422 169.221 42.3716 163.481 45.1075 158.075C47.9106 152.534 51.5063 147.734 56.4448 144.255C58.6666 142.691 61.0422 141.537 63.6891 141.106C68.2817 140.359 72.2017 142.628 74.1185 147.232C75.3387 150.16 75.7638 153.275 75.4996 156.44C74.5388 167.944 69.8286 177.35 61.7652 184.782C59.195 187.154 56.2574 188.838 52.8971 189.551C47.9995 190.588 43.8176 188.216 41.836 183.244C40.844 180.758 40.5077 178.144 40.5413 175.454H40.5437ZM41.5862 176.293C41.5598 178.071 41.8792 180.541 42.828 182.886C44.4493 186.895 47.5359 188.927 51.5448 188.587C54.6097 188.329 57.3287 186.994 59.7283 185.017C68.4931 177.802 73.3979 168.181 74.4572 156.297C74.7262 153.286 74.3058 150.311 73.0904 147.533C71.2866 143.401 67.6836 141.443 63.5282 142.268C60.85 142.801 58.448 144.015 56.2742 145.749C50.6392 150.241 46.6904 156.158 44.041 163.141C42.535 167.105 41.6222 171.216 41.5862 176.293Z" fill="#121212"/>
<path d="M122.184 68.2704C122.354 63.1128 123.778 58.0074 125.669 53.03C127.578 48.0056 129.988 43.2971 133.209 39.1084C134.381 37.5833 135.635 36.1522 137.126 34.9901C138.032 34.285 138.988 33.687 140.107 33.4546C141.618 33.1412 142.826 33.6792 143.645 35.0867C144.33 36.2619 144.568 37.5859 144.666 38.9386C144.935 42.6521 144.284 46.2454 143.364 49.7866C141.486 57.0072 138.589 63.6951 134.383 69.6754C133.221 71.3284 131.926 72.8587 130.42 74.1566C129.512 74.94 128.546 75.6138 127.42 75.982C125.402 76.6427 123.815 75.8828 122.94 73.7936C122.241 72.1249 122.176 70.3387 122.184 68.2678V68.2704Z" fill="#FCF6F5"/>
<path d="M212.24 75.3074C212.077 85.7453 209.312 95.1936 203.053 103.252C199.044 108.41 194.11 112.124 187.985 113.612C179.621 115.641 172.312 113.223 166.108 106.888C161.318 101.999 158.434 95.8752 157.101 88.96C154.643 76.2057 156.69 64.3367 163.687 53.6715C167.475 47.8976 172.408 43.6122 178.75 41.557C186.537 39.0343 193.723 40.5281 200.158 45.8816C205.743 50.5273 209.05 56.8392 210.883 64.1199C211.803 67.7733 212.264 71.5025 212.238 75.3074H212.24ZM211.222 75.2969C211.253 69.9043 210.364 64.7075 208.464 59.7405C206.137 53.6559 202.611 48.6236 197.413 45.0668C196.615 44.521 196.041 44.5393 195.249 45.0485C192.035 47.122 189.265 49.7387 186.945 52.9064C182.223 59.3593 179.631 66.7444 178.838 74.9209C178.13 82.2408 179.052 89.2865 181.829 96.0031C184.18 101.688 187.661 106.355 192.604 109.653C193.26 110.089 193.74 110.087 194.398 109.671C197.593 107.661 200.348 105.099 202.664 101.989C208.457 94.2091 211.083 85.2204 211.219 75.2969H211.222ZM185.218 41.5544C181.63 41.5727 178.027 42.659 174.637 44.6176C169.084 47.8271 164.993 52.6348 162.017 58.5784C157.586 67.4234 156.229 76.856 157.754 86.769C158.835 93.8043 161.511 100.025 166.014 105.269C168.008 107.588 170.314 109.251 173.273 109.771C176.043 110.256 178.329 109.102 179.564 106.371C179.835 105.77 180.037 105.12 180.196 104.469C180.825 101.902 180.647 99.317 180.32 96.7239C180.042 94.5094 179.35 92.4176 178.846 90.271C177.335 83.8573 177.14 77.3861 178.346 70.8862C180.075 61.5555 183.911 53.5148 190.647 47.263C191.158 46.7877 191.607 46.2628 191.917 45.6021C192.467 44.4296 192.287 43.5965 191.271 42.8706C190.675 42.4449 190.012 42.1681 189.323 41.9487C188.064 41.5466 186.775 41.5883 185.218 41.557V41.5544Z" fill="#121212"/>
<path d="M237.786 102.334C237.786 105.719 237.793 109.103 237.778 112.49C237.778 113.028 237.968 113.874 237.19 113.822C236.553 113.78 236.772 112.976 236.77 112.488C236.738 106.298 236.729 100.109 236.707 93.9202C236.698 90.6898 236.179 87.577 234.901 84.6365C234.442 83.5814 233.878 82.5969 233.145 81.7404C232.071 80.4843 230.791 79.7217 229.16 79.74C226.58 79.7661 224.001 79.7557 221.421 79.7557C221.065 79.7557 220.71 79.7374 220.354 79.7113C220.105 79.693 219.939 79.5467 219.927 79.2621C219.915 78.9252 220.064 78.7163 220.391 78.7006C220.612 78.6876 220.835 78.6798 221.056 78.6771C223.59 78.6562 226.129 78.5413 228.658 78.6432C230.954 78.7346 232.571 77.6352 233.837 75.7079C235.511 73.1539 236.208 70.2239 236.568 67.1711C236.731 65.7766 236.702 64.3716 236.702 62.9719C236.702 57.6524 236.702 52.3328 236.702 47.0133C236.702 46.5772 236.676 46.1411 236.712 45.7076C236.748 45.2767 236.505 44.5586 237.185 44.5977C237.754 44.6291 237.653 45.3185 237.68 45.7781C237.711 46.3552 237.69 46.9376 237.69 47.5173C237.704 53.0771 237.699 58.6395 237.745 64.1993C237.766 66.8682 238.143 69.4927 238.96 72.0232C239.479 73.6318 240.166 75.1438 241.211 76.4313C242.311 77.7866 243.598 78.6797 245.369 78.6171C247.278 78.5466 249.193 78.6066 251.105 78.6092C251.417 78.6092 251.727 78.604 252.039 78.6197C252.402 78.6354 252.651 78.8338 252.608 79.249C252.572 79.5781 252.325 79.7087 252.024 79.7061C251.758 79.7061 251.491 79.7113 251.225 79.7113C249.356 79.7113 247.487 79.7452 245.621 79.7061C243.733 79.6643 242.282 80.5339 241.112 82.072C239.417 84.3022 238.65 86.9607 238.143 89.7366C237.778 91.7422 237.769 93.7713 237.757 95.8004C237.745 97.9757 237.754 100.154 237.754 102.329H237.786V102.334Z" fill="#FCF6F5"/>
<path d="M156.341 18.7108C156.918 18.7212 157.485 18.7265 158.04 18.9667C159.337 19.5308 160.007 20.5545 160.021 22.0665C160.033 23.2103 159.716 24.2549 159.164 25.2107C157.425 28.2217 154.948 30.0967 151.746 30.8279C151.53 30.8775 151.307 30.8932 151.086 30.9063C147.949 31.1099 146.275 28.6265 147.397 25.4327C148.641 21.8915 152.868 18.7108 156.339 18.7056L156.341 18.7108Z" fill="#FCF6F5"/>
<path d="M255.938 265.418C256.017 259.425 257.687 253.92 260.331 248.725C262.748 243.973 265.796 239.792 269.858 236.564C272.031 234.838 274.378 233.493 277.049 232.911C282.266 231.777 286.412 234.436 288.021 239.967C289.138 243.806 289.078 247.699 288.312 251.582C286.511 260.73 282.408 268.413 275.742 274.396C273.528 276.383 271.049 277.882 268.229 278.642C266.476 279.115 264.715 279.243 262.957 278.705C260.351 277.906 258.547 276.075 257.391 273.459C256.272 270.92 255.9 268.212 255.938 265.418Z" fill="#A5BC00"/>
<path d="M41.583 176.289C41.6167 171.213 42.5318 167.102 44.0379 163.138C46.6872 156.158 50.6361 150.24 56.2711 145.746C58.4425 144.014 60.8469 142.797 63.5251 142.265C67.6805 141.439 71.2834 143.398 73.0873 147.529C74.3003 150.308 74.7206 153.282 74.454 156.293C73.3948 168.178 68.4875 177.799 59.7251 185.014C57.3256 186.991 54.6065 188.325 51.5416 188.584C47.5327 188.921 44.4486 186.892 42.8249 182.883C41.8761 180.538 41.5566 178.068 41.583 176.289Z" fill="#A5BC00"/>
<path d="M185.232 41.5509C186.788 41.5797 188.078 41.5405 189.337 41.9427C190.024 42.162 190.689 42.4388 191.285 42.8645C192.301 43.5905 192.481 44.4262 191.931 45.5961C191.621 46.2542 191.172 46.7817 190.66 47.257C183.925 53.5088 180.089 61.5494 178.36 70.8801C177.154 77.38 177.348 83.8486 178.859 90.2649C179.364 92.4115 180.058 94.5033 180.334 96.7178C180.661 99.3136 180.838 101.896 180.209 104.463C180.051 105.114 179.849 105.764 179.577 106.365C178.34 109.099 176.056 110.253 173.287 109.765C170.327 109.245 168.019 107.584 166.028 105.262C161.524 100.019 158.851 93.7982 157.767 86.763C156.242 76.8499 157.602 67.4174 162.031 58.5724C165.009 52.6287 169.098 47.821 174.651 44.6116C178.04 42.653 181.645 41.564 185.232 41.5483V41.5509Z" fill="#C20000"/>
</svg>
