<svg width="399" height="369" viewBox="0 0 399 369" fill="none" xmlns="http://www.w3.org/2000/svg">
<path d="M242.152 123.662C247.753 121.207 253.261 118.918 258.82 116.76C279.052 108.9 299.716 102.378 320.725 96.9509C321.788 96.6765 322.254 96.1964 322.594 95.196C325.181 87.545 328.75 80.3971 333.681 73.9665C337.513 68.9677 341.943 64.6121 347.436 61.4339C351.249 59.2304 355.299 57.7613 359.74 57.4698C366.597 57.0154 372.381 59.3761 377.292 64.0662C379.547 66.2211 381.353 68.7277 382.888 71.4342C383.171 71.9315 383.385 72.3517 384.097 72.486C389.258 73.4549 392.076 77.7391 391.036 82.9179C390.964 83.2665 390.73 83.5952 390.93 84.0725C391.439 84.1354 391.999 84.2011 392.556 84.2697C393.191 84.3497 393.783 84.5641 394.294 84.9471C395.512 85.8559 395.56 87.2821 394.366 88.4768C393.365 89.4799 392.196 90.2916 391.059 91.1348C390.519 91.5377 389.99 91.955 389.393 92.4151C389.827 92.8667 390.196 93.284 390.601 93.6613C393.151 96.0449 395.352 98.6943 396.872 101.864C400.09 108.572 399.067 115.577 394.083 121.156C390.433 125.243 385.857 127.938 380.836 129.947C375.102 132.239 369.12 133.48 362.987 134.085C358.586 134.52 354.184 134.551 349.783 134.32C342.635 133.943 335.63 132.679 328.805 130.507C327.867 130.21 327.144 130.281 326.287 130.719C306.029 141.111 285.28 150.391 263.836 158.073C260.435 159.291 257.011 160.457 253.575 161.583C252.764 161.849 252.566 162.149 252.744 163.015C254.401 171.189 255.67 179.426 256.588 187.714C257.285 194.022 257.757 200.346 258.048 206.688C258.365 213.562 258.4 220.433 258.197 227.304C258.002 233.96 257.514 240.602 256.762 247.224C255.67 256.876 254.013 266.422 251.635 275.839C247.565 291.944 241.654 307.292 232.757 321.393C226.318 331.597 218.578 340.648 208.91 347.95C202.688 352.649 195.886 356.319 188.683 359.305C180.172 362.832 171.372 365.304 162.321 366.905C154.501 368.288 146.621 368.874 138.676 368.725C130.988 368.582 123.414 367.639 115.972 365.71C107.961 363.632 100.433 360.371 93.2846 356.221C82.1211 349.737 72.3722 341.503 63.5723 332.111C51.6943 319.438 41.9741 305.225 33.7572 289.966C22.285 268.665 14.0767 246.13 8.47204 222.616C5.91694 211.896 3.96775 201.067 2.59875 190.137C1.77277 183.53 1.18973 176.896 0.838193 170.243C0.463789 163.115 0.232287 155.984 0.412344 148.847C0.609549 140.928 1.06684 133.019 1.9757 125.148C3.60478 111.055 6.42282 97.2167 10.7013 83.6695C14.6769 71.0827 20.1729 59.2532 27.7181 48.4098C39.096 32.0532 53.6035 19.332 71.6749 10.7922C82.1954 5.82203 93.2589 2.7382 104.823 1.52353C112.299 0.740426 119.799 0.54322 127.278 1.5321C136.232 2.71534 144.752 5.37618 152.926 9.18881C164.29 14.4905 174.407 21.6327 183.679 30.0154C196.38 41.4962 206.958 54.7432 216.118 69.1649C226.847 86.056 235.247 104.065 241.869 122.922C241.937 123.113 242.017 123.302 242.157 123.651L242.152 123.662ZM172.247 169.577C164.764 173.455 157.279 177.333 149.797 181.215C149.565 181.335 149.334 181.463 149.125 181.618C148.999 181.709 148.931 181.863 148.996 182.032C149.059 182.192 149.188 182.281 149.354 182.246C149.862 182.135 150.377 182.029 150.877 181.883C163.407 178.297 175.936 174.71 188.463 171.117C191.413 170.271 194.359 169.411 197.552 168.488C196.146 167.17 195.28 165.693 194.371 164.244C193.831 162.474 193.279 160.708 193.216 158.616C186.088 162.34 179.166 165.958 172.244 169.577H172.247ZM194.634 160.177C195.105 165.764 199.661 170.111 205.2 170.183C211.559 170.266 217.827 169.391 224.057 168.202C225.575 167.913 227.11 167.688 228.553 167.216C228.596 166.793 228.33 166.667 228.144 166.51C224.38 163.249 221.808 159.171 219.916 154.615C219.133 152.729 218.71 150.731 218.064 148.804C217.504 144.972 217.235 141.133 217.961 137.095C215.58 138.35 213.497 139.647 211.422 140.962C206.315 144.197 201.379 147.661 197.08 151.94C194.791 154.218 194.128 157.038 194.634 160.177ZM390.807 95.6133C390.393 94.9245 389.684 94.5244 389.158 93.9499C388.512 93.2411 387.986 93.404 387.275 93.9156C384.257 96.0906 381.221 98.2484 378.14 100.338C362.933 110.644 347.071 119.858 330.825 128.415C330.345 128.669 329.777 128.824 329.388 129.347C329.911 129.718 330.425 129.804 330.911 129.944C340.991 132.839 351.263 133.868 361.712 133.048C363.787 132.885 365.885 132.774 367.917 132.228C375.025 131.133 381.75 128.978 387.818 125.025C390.201 123.474 392.319 121.61 394.06 119.347C396.912 115.634 398.181 111.467 397.295 106.825C396.443 102.364 394.094 98.7 390.807 95.6133ZM350.835 61.1024C350.66 61.0309 350.549 61.1138 350.463 61.2567C349.105 61.8112 347.825 62.5114 346.596 63.3059C341.317 66.7127 337.05 71.1627 333.438 76.2529C326.421 86.1475 322.294 97.211 320.345 109.123C320.199 110.012 319.842 110.938 320.193 111.896C320.774 111.876 321.24 111.627 321.728 111.458C335.038 106.825 348.348 102.195 361.658 97.5596C369.278 94.9045 376.891 92.2408 384.508 89.58C384.754 89.5028 385.005 89.4371 385.245 89.3485C386.852 88.7626 387.198 88.1624 386.886 86.5161C386.829 86.2075 386.772 85.8988 386.709 85.593C385.517 79.7454 383.585 74.1722 380.112 69.2678C374.796 61.7626 367.794 57.6041 358.291 58.7959C355.808 59.1075 353.364 59.6648 351.175 60.9881C351.063 61.0252 350.949 61.0652 350.837 61.1024H350.835ZM306.118 139.121C307.924 138.318 309.747 137.547 311.536 136.703C321.74 131.893 331.743 126.697 341.609 121.236C358.005 112.156 373.945 102.347 389.032 91.1948C390.464 90.1373 391.95 89.1398 393.254 87.9137C393.68 87.5136 394.145 87.0906 393.937 86.4361C393.74 85.8188 393.162 85.6501 392.585 85.5015C391.059 85.1043 389.581 85.5215 388.124 85.6416C387.926 86.0188 388.026 86.3275 388.075 86.6305C388.355 88.3682 387.512 89.8343 385.883 90.4031C364.259 97.9312 342.635 105.456 321.011 112.982C320.762 113.067 320.525 113.185 320.271 113.245C319.282 113.479 318.987 113.29 318.99 112.299C318.99 111.253 319.019 110.195 319.167 109.163C319.659 105.788 320.414 102.464 321.334 99.1801C321.428 98.8458 321.66 98.5171 321.362 98.0798C320.991 98.1541 320.585 98.2113 320.193 98.317C317.661 98.9887 315.126 99.6517 312.6 100.346C290.701 106.38 269.192 113.542 248.251 122.373C244.198 124.082 240.134 125.774 236.213 127.781C230.734 130.167 225.446 132.937 220.208 135.803C219.659 136.103 219.324 136.478 219.207 137.106C218.919 138.653 218.664 140.21 218.659 141.782C218.641 147.675 220.128 153.183 223.031 158.302C224.726 161.291 226.844 163.938 229.528 166.118C230.196 166.661 230.802 166.81 231.671 166.601C238.402 164.995 245.047 163.086 251.632 160.971C268.414 155.578 284.739 149.016 300.784 141.734C302.585 140.916 304.471 140.267 306.118 139.13V139.121ZM217.941 228.573C217.695 228.881 217.758 229.264 217.75 229.619C217.684 231.925 217.707 234.237 217.567 236.541C217.064 244.923 216.161 253.257 214.437 261.486C212.485 270.806 209.713 279.852 205.374 288.369C201.99 295.014 197.818 301.087 192.179 306.04C182.699 314.368 171.784 317.246 159.431 314.514C152.895 313.068 146.987 310.184 141.44 306.514C133.494 301.256 126.741 294.685 120.665 287.394C110.827 275.593 103.062 262.495 96.6656 248.573C83.4358 219.773 75.9762 189.514 73.9985 157.893C73.5069 150.033 73.484 142.171 73.8927 134.3C74.2871 126.695 75.1217 119.149 76.5307 111.667C78.4827 101.315 81.498 91.3119 86.3167 81.9033C89.7177 75.2583 94.0248 69.2878 99.7209 64.4006C106.583 58.513 114.483 55.292 123.586 55.3434C130.371 55.3806 136.721 57.244 142.772 60.2192C150.483 64.0119 157.136 69.245 163.207 75.2612C171.607 83.5838 178.543 93.0382 184.628 103.144C192.199 115.717 198.206 129.018 203.131 142.825C203.334 143.391 203.359 144.06 203.925 144.526C205.106 143.711 206.26 142.9 207.432 142.111C213.134 138.27 219.11 134.894 225.209 131.733C226.884 130.867 226.632 131.187 226.038 129.518C224.595 125.471 223.037 121.467 221.382 117.503C214.594 101.238 206.337 85.7816 196.023 71.4599C187.577 59.7362 178.006 49.0614 166.591 40.13C158.025 33.4251 148.748 28.0062 138.353 24.6223C130.273 21.9929 121.999 20.8897 113.54 21.7099C103.731 22.6616 94.8451 26.1713 86.8111 31.8588C79.7031 36.889 73.8641 43.1567 68.9054 50.2732C61.1487 61.4111 55.9842 73.735 52.2859 86.7248C48.1875 101.118 46.1325 115.843 45.4809 130.762C44.9807 142.251 45.2722 153.735 46.3812 165.187C47.2672 174.324 48.579 183.395 50.3424 192.407C54.0979 211.604 59.734 230.227 67.4307 248.213C75.1588 266.276 84.7219 283.276 96.9543 298.703C105.177 309.072 114.391 318.435 125.198 326.146C135.075 333.191 145.747 338.496 157.765 340.788C164.421 342.057 171.101 342.234 177.797 341.102C188.58 339.279 197.938 334.497 206.143 327.355C213.594 320.87 219.424 313.094 224.186 304.497C232.251 289.926 236.879 274.201 239.654 257.87C240.577 252.44 241.197 246.973 241.726 241.494C241.849 240.213 241.86 240.202 240.611 239.647C233.186 236.352 225.895 232.788 218.793 228.841C218.533 228.695 218.296 228.421 217.93 228.573H217.941ZM192.147 206.471C192.17 206.9 192.167 207.214 192.202 207.523C192.676 211.59 192.882 215.68 192.993 219.764C193.216 228.061 192.856 236.335 191.479 244.54C190.521 250.248 189.118 255.83 186.728 261.126C184.876 265.23 182.51 268.982 179.063 271.961C174.805 275.636 169.886 276.848 164.393 275.83C160.663 275.142 157.351 273.467 154.241 271.363C149.014 267.825 144.704 263.326 140.82 258.402C133.323 248.902 127.641 238.344 122.837 227.289C116.838 213.491 112.468 199.172 109.393 184.453C107.246 174.172 105.777 163.789 105.28 153.3C104.86 144.44 104.914 135.569 106.183 126.757C107.006 121.038 108.172 115.397 110.273 109.989C112.073 105.354 114.406 101.032 118.021 97.5225C121.273 94.3672 125.126 92.5581 129.708 92.4466C133.817 92.3466 137.559 93.6127 141.097 95.579C146.018 98.3142 150.128 102.041 153.867 106.2C160.4 113.47 165.536 121.687 170.026 130.327C175.165 140.216 179.263 150.539 182.653 161.148C182.96 162.111 183.538 162.372 184.388 161.931C186.948 160.602 189.489 159.236 192.076 157.962C192.95 157.53 193.439 156.996 193.625 156.01C194.011 153.943 195.04 152.214 196.586 150.759C198.232 149.21 199.924 147.724 201.696 146.324C202.748 145.495 202.768 145.472 202.322 144.246C201.247 141.291 200.193 138.324 199.038 135.4C193.113 120.361 185.828 106.039 176.428 92.8496C170.126 84.0068 163.029 75.8871 154.467 69.1364C148.488 64.4234 142.029 60.5736 134.692 58.3501C128.081 56.3466 121.419 55.8922 114.686 57.7185C106.526 59.9334 100.118 64.7464 94.8365 71.1884C89.8978 77.2103 86.2738 83.9925 83.4929 91.2348C78.1569 105.136 75.8619 119.644 75.0645 134.428C74.753 140.187 74.6358 145.955 74.8959 151.734C75.096 156.19 75.2932 160.642 75.6962 165.081C76.4193 173.072 77.5339 181.012 79.0086 188.903C81.9867 204.819 86.3853 220.33 92.3043 235.4C98.3862 250.891 105.926 265.61 115.706 279.123C121.574 287.231 128.158 294.693 135.947 301.03C142.269 306.171 149.122 310.37 156.996 312.713C166.296 315.48 175.331 314.991 183.993 310.387C189.221 307.609 193.502 303.705 197.172 299.101C202.565 292.33 206.283 284.665 209.104 276.536C214.157 261.975 216.061 246.881 216.592 231.565C216.635 230.31 216.949 228.881 216.472 227.838C215.958 226.715 214.389 226.366 213.28 225.686C207.812 222.336 202.528 218.749 197.732 214.462C195.594 212.553 193.934 210.407 193.456 207.517C193.342 206.829 192.996 206.506 192.153 206.474L192.147 206.471ZM242.975 241.054C242.843 242.303 242.689 243.64 242.56 244.978C241.666 254.389 240.088 263.684 237.745 272.841C234.486 285.556 229.885 297.734 222.991 308.964C217.615 317.721 211.105 325.483 202.796 331.619C190.853 340.442 177.48 344.235 162.684 342.751C155.053 341.986 147.79 339.808 140.814 336.641C129.993 331.731 120.522 324.849 111.873 316.78C102.659 308.183 94.7165 298.503 87.6599 288.086C75.9991 270.874 67.0363 252.311 60.1112 232.742C53.6549 214.497 49.1335 195.782 46.5269 176.599C45.2465 167.185 44.4406 157.733 44.1719 148.244C43.9575 140.693 44.0804 133.142 44.6263 125.594C45.0607 119.629 45.6724 113.69 46.5698 107.777C48.1217 97.5425 50.4739 87.4993 53.9007 77.7248C58.0077 66.0154 63.4494 55.009 71.1976 45.2402C76.9308 38.0122 83.633 31.8931 91.7384 27.3946C102.505 21.4184 114.037 19.3092 126.215 20.7525C133.989 21.6728 141.363 24.0335 148.419 27.4003C158.991 32.4419 168.26 39.3412 176.725 47.3695C185.597 55.7836 193.29 65.198 200.141 75.3069C211.448 91.9864 220.179 109.966 227.061 128.872C227.253 129.395 227.287 130.007 227.821 130.444C231.771 128.501 235.732 126.586 239.748 124.791C241.026 124.222 241.028 124.208 240.54 122.83C237.25 113.53 233.529 104.405 229.259 95.5104C219.945 76.1043 208.578 58.0471 194.036 42.0935C184.079 31.1672 172.981 21.6127 160.071 14.2933C148.336 7.63975 135.887 3.24407 122.317 2.32093C115.56 1.86078 108.895 2.35522 102.313 3.85284C90.3008 6.58799 79.7717 12.2498 70.4659 20.2552C61.6603 27.8319 54.6266 36.8604 48.7791 46.8493C41.9255 58.5559 37.0096 71.0684 33.4056 84.1154C30.0303 96.325 27.881 108.755 26.7092 121.364C26.069 128.264 25.7146 135.172 25.6089 142.094C25.5489 146.026 25.626 149.962 25.7604 153.895C25.9804 160.239 26.4177 166.561 27.0265 172.881C27.7867 180.766 28.8928 188.603 30.3275 196.391C34.3031 217.972 40.4822 238.899 49.1878 259.054C57.5676 278.46 67.9709 296.68 81.2351 313.194C90.5494 324.789 101.016 335.201 113.239 343.746C126.095 352.735 140.031 359.162 155.733 361.243C163.275 362.243 170.803 362.075 178.283 360.626C189.295 358.491 199.192 353.861 208.115 347.116C218.741 339.085 226.99 328.976 233.726 317.569C240.543 306.026 245.444 293.679 249.094 280.806C252.218 269.786 254.25 258.553 255.624 247.193C255.722 246.395 255.522 245.967 254.736 245.649C251.04 244.157 247.373 242.6 243.692 241.071C243.506 240.994 243.321 240.865 242.969 241.054H242.975ZM170.969 195.168C171.509 198.54 171.875 201.604 172.107 204.685C172.527 210.244 172.593 215.797 171.607 221.307C171.135 223.945 170.423 226.523 168.926 228.804C166.751 232.117 163.61 232.96 160.054 231.188C158.585 230.456 157.319 229.439 156.142 228.307C153.972 226.22 152.177 223.834 150.557 221.313C146.367 214.794 143.275 207.749 140.742 200.452C136.515 188.26 133.723 175.773 133.074 162.84C132.837 158.099 133.034 153.403 133.875 148.744C134.332 146.206 135.106 143.76 136.624 141.614C138.756 138.595 141.686 137.81 145.024 139.364C146.613 140.105 147.968 141.173 149.217 142.382C151.877 144.955 153.987 147.953 155.893 151.105C159.571 157.187 162.335 163.686 164.696 170.371C164.862 170.837 164.933 171.354 165.304 171.795C170.689 168.997 175.979 166.239 181.281 163.503C181.855 163.206 181.975 162.912 181.775 162.28C180.761 159.085 179.689 155.91 178.532 152.763C174.07 140.625 168.671 128.944 161.535 118.123C157.476 111.97 152.938 106.211 147.325 101.378C143.923 98.4513 140.251 95.962 135.935 94.553C129.33 92.398 123.543 93.7356 118.601 98.6457C117.181 100.058 115.98 101.644 114.917 103.339C112.216 107.649 110.541 112.376 109.247 117.257C107.232 124.854 106.48 132.628 106.254 140.447C105.991 149.639 106.6 158.796 107.801 167.91C109.501 180.823 112.302 193.499 116.212 205.925C120.708 220.221 126.421 233.986 134.249 246.807C138.473 253.723 143.255 260.22 149.219 265.77C152.383 268.714 155.813 271.286 159.788 273.061C162.152 274.118 164.607 274.821 167.211 274.933C171.949 275.133 175.911 273.37 179.26 270.114C182.164 267.29 184.188 263.875 185.797 260.194C188.898 253.103 190.318 245.604 191.161 237.97C191.796 232.225 191.896 226.458 191.807 220.684C191.733 215.963 191.404 211.258 190.938 206.56C190.853 205.705 190.521 205.285 189.792 204.911C184.896 202.404 180.023 199.855 175.142 197.32C173.847 196.648 172.547 195.979 170.963 195.165L170.969 195.168ZM54.7124 274.033C54.6666 273.341 54.2665 272.829 53.9893 272.275C49.082 262.4 44.8378 252.246 41.1767 241.848C36.3837 228.232 32.5911 214.345 29.8474 200.166C28.6727 194.096 27.6381 188.003 26.8436 181.872C26.2605 177.353 25.7889 172.818 25.4088 168.273C25.063 164.146 24.7286 160.014 24.6314 155.881C24.3971 145.866 24.3085 135.849 25.1345 125.846C25.4488 122.033 25.7518 118.218 26.2291 114.425C27.1179 107.354 28.3012 100.332 29.8588 93.3697C33.3142 77.9391 38.4044 63.1116 46.0468 49.2215C52.5002 37.4892 60.4685 26.9573 70.8346 18.3689C77.0937 13.1815 83.913 8.90015 91.5126 5.93636C93.116 5.31044 94.7536 4.76741 96.537 4.12435C96.2427 4.09006 96.1341 4.05004 96.0397 4.07005C94.7593 4.34728 93.4789 4.61594 92.2071 4.91889C81.7666 7.3911 71.955 11.4181 62.7606 16.9341C52.0372 23.3647 42.7715 31.4902 34.7918 41.1018C26.2691 51.365 19.6842 62.7715 14.9427 75.224C11.6759 83.8039 9.11795 92.6066 7.13161 101.581C5.79405 107.623 4.68798 113.702 3.85343 119.83C3.25896 124.188 2.80167 128.567 2.43584 132.957C2.07573 137.295 1.80421 141.636 1.6756 145.984C1.36979 156.37 1.59843 166.747 2.47585 177.111C2.7931 180.872 3.1132 184.63 3.56763 188.374C4.36788 194.979 5.38249 201.553 6.58573 208.097C8.53205 218.689 11.2129 229.07 15.1313 239.113C18.0779 246.664 21.6133 253.906 26.3863 260.494C29.5816 264.904 33.2799 268.808 37.9785 271.672C42.2456 274.273 46.8585 275.35 51.8315 274.764C52.8118 274.65 53.7978 274.493 54.7038 274.035L54.7124 274.033ZM148.408 180.283C148.894 180.437 149.157 180.246 149.434 180.1C154.038 177.708 158.628 175.293 163.255 172.946C164.124 172.506 164.001 172.017 163.755 171.32C161.575 165.13 159.06 159.085 155.813 153.366C153.789 149.799 151.546 146.381 148.605 143.48C147.176 142.071 145.633 140.813 143.698 140.156C141.477 139.404 139.562 139.959 138.062 141.754C137.521 142.4 137.096 143.12 136.73 143.88C135.412 146.612 134.875 149.55 134.512 152.52C133.892 157.593 134.089 162.68 134.583 167.748C135.461 176.693 137.273 185.459 139.882 194.056C142.477 202.604 145.701 210.898 150.265 218.621C152.137 221.79 154.227 224.806 156.873 227.395C158.154 228.65 159.548 229.756 161.229 230.445C163.715 231.468 165.69 230.976 167.399 228.901C168.174 227.961 168.726 226.895 169.163 225.76C170.323 222.745 170.795 219.593 171.038 216.394C171.275 213.253 171.261 210.118 171.069 206.969C170.843 203.247 170.4 199.56 169.895 195.874C169.757 194.876 169.354 194.319 168.463 193.862C162.629 190.875 156.828 187.831 151.009 184.819C150.723 184.67 150.44 184.316 149.968 184.604C150.094 184.836 150.2 185.064 150.331 185.273C150.566 185.645 150.808 186.07 150.38 186.391C149.914 186.736 149.628 186.279 149.365 185.968C149.199 185.768 149.068 185.536 148.934 185.313C147.965 183.721 147.416 181.981 147.133 180.151C147.062 179.688 147.079 179.208 147.09 178.74C147.096 178.462 147.256 178.214 147.539 178.171C147.91 178.114 148.139 178.365 148.205 178.697C148.302 179.205 148.342 179.728 148.411 180.283H148.408ZM211.451 171.237C212.214 175.041 212.985 178.677 213.66 182.329C214.271 185.625 214.797 188.934 215.312 192.244C215.415 192.91 215.58 193.267 216.338 193.307C217.275 193.359 218.204 193.559 219.139 193.701C226.29 194.799 233.315 196.482 240.291 198.372C240.628 198.463 240.957 198.697 241.434 198.354C241.174 196.042 240.911 193.664 240.643 191.284C239.751 183.37 238.416 175.524 236.816 167.725C236.593 166.63 236.576 166.63 235.467 166.887C232.457 167.588 229.459 168.331 226.441 168.979C221.522 170.031 216.555 170.774 211.448 171.237H211.451ZM212.648 192.95C214.191 193.016 214.24 192.981 214.066 191.849C213.151 185.893 212.108 179.96 210.773 174.081C210.579 173.224 210.687 172.12 210.027 171.594C209.356 171.06 208.307 171.463 207.426 171.48C204.52 171.534 201.639 171.526 199.118 169.745C198.735 169.477 198.309 169.577 197.903 169.694C194.277 170.729 190.65 171.775 187.02 172.801C186.345 172.992 186.12 173.255 186.328 174.027C186.951 176.353 187.486 178.705 188.012 181.057C188.74 184.33 189.418 187.614 189.964 190.926C190.072 191.595 190.15 192.224 191.033 192.45C193.165 192.993 195.274 193.624 197.383 194.259C197.886 194.41 198.281 194.322 198.718 194.087C200.799 192.973 203.042 192.553 205.383 192.521C207.958 192.487 210.522 192.584 212.651 192.953L212.648 192.95ZM256.636 203.213C256.636 202.793 256.656 202.427 256.633 202.067C256.325 197.571 255.945 193.084 255.462 188.603C254.556 180.209 253.272 171.877 251.64 163.598C251.397 162.372 251.395 162.374 250.123 162.749C246.453 163.826 242.783 164.907 239.111 165.978C237.753 166.376 237.75 166.367 238.033 167.768C240.048 177.736 241.637 187.771 242.503 197.911C242.589 198.912 243.038 199.229 243.869 199.48C247.731 200.652 251.58 201.864 255.433 203.059C255.779 203.164 256.105 203.376 256.636 203.213ZM167.294 178.425C167.865 180.697 168.448 182.761 168.883 184.856C169.094 185.882 169.612 186.296 170.575 186.562C176.317 188.154 182.041 189.806 187.772 191.438C188.109 191.535 188.432 191.778 188.869 191.461C187.874 185.676 186.608 179.917 185.182 174.192C185.014 173.521 184.791 173.392 184.105 173.598C180.752 174.607 177.38 175.547 174.016 176.51C171.812 177.142 169.606 177.768 167.297 178.425H167.294ZM167.942 185.816C167.474 183.981 167.114 182.515 166.725 181.057C166.122 178.8 166.11 178.794 163.91 179.426C161 180.26 158.097 181.109 154.824 182.058C159.331 183.35 163.478 184.536 167.945 185.816H167.942ZM384.342 73.7064C384.288 73.8464 384.245 73.9036 384.257 73.9379C385.566 77.1389 386.777 80.3713 387.506 83.7667C387.606 84.2268 387.826 84.4755 388.386 84.4069C389.081 84.3212 389.507 84.1011 389.724 83.3551C390.464 80.8115 390.076 78.4593 388.572 76.3215C387.549 74.8667 386.129 73.9665 384.342 73.7064Z" fill="#121212"/>
<path d="M217.932 228.567C218.298 228.416 218.535 228.693 218.795 228.836C225.898 232.783 233.189 236.347 240.614 239.642C241.866 240.197 241.854 240.208 241.728 241.488C241.2 246.967 240.58 252.435 239.656 257.865C236.878 274.196 232.254 289.921 224.189 304.491C219.427 313.091 213.597 320.868 206.146 327.35C197.94 334.492 188.583 339.274 177.8 341.097C171.106 342.229 164.424 342.052 157.768 340.783C145.75 338.491 135.078 333.186 125.2 326.141C114.391 318.433 105.18 309.07 96.957 298.698C84.7245 283.27 75.1615 266.268 67.4333 248.208C59.7366 230.222 54.1006 211.599 50.3451 192.401C48.5817 183.39 47.2698 174.316 46.3838 165.181C45.2749 153.729 44.9805 142.243 45.4835 130.756C46.1352 115.837 48.1901 101.115 52.2886 86.7194C55.9869 73.7325 61.1485 61.4057 68.9081 50.2679C73.8668 43.1514 79.7058 36.8837 86.8138 31.8535C94.8477 26.166 103.733 22.6563 113.542 21.7046C122.002 20.8843 130.276 21.9875 138.356 24.6169C148.753 28.0008 158.028 33.4226 166.593 40.1247C178.008 49.0589 187.58 59.7309 196.025 71.4546C206.34 85.7763 214.597 101.233 221.385 117.498C223.04 121.462 224.597 125.466 226.041 129.513C226.635 131.182 226.884 130.862 225.212 131.728C219.11 134.889 213.137 138.264 207.435 142.106C206.263 142.894 205.108 143.706 203.928 144.521C203.362 144.058 203.336 143.389 203.133 142.82C198.209 129.013 192.201 115.711 184.63 103.139C178.546 93.0357 171.612 83.5813 163.209 75.2558C157.139 69.2396 150.482 64.0037 142.774 60.2139C136.724 57.2387 130.373 55.3752 123.588 55.3381C114.485 55.2866 106.586 58.5076 99.7236 64.3952C94.0275 69.2853 89.7204 75.2529 86.3193 81.8979C81.5035 91.3037 78.4854 101.31 76.5334 111.662C75.1215 119.144 74.2869 126.689 73.8954 134.294C73.4867 142.163 73.5096 150.025 74.0011 157.888C75.9789 189.506 83.4384 219.764 96.6683 248.568C103.065 262.489 110.83 275.588 120.667 287.389C126.744 294.677 133.497 301.247 141.442 306.509C146.99 310.182 152.898 313.062 159.434 314.509C171.783 317.244 182.701 314.363 192.181 306.035C197.82 301.082 201.993 295.011 205.377 288.363C209.713 279.846 212.488 270.801 214.44 261.48C216.163 253.252 217.066 244.915 217.569 236.535C217.707 234.232 217.684 231.92 217.752 229.613C217.764 229.259 217.698 228.876 217.944 228.567H217.932Z" fill="#FCF6F5"/>
<path d="M192.129 206.473C192.972 206.504 193.318 206.827 193.432 207.516C193.912 210.408 195.573 212.552 197.708 214.461C202.504 218.748 207.788 222.335 213.256 225.685C214.365 226.365 215.934 226.714 216.448 227.837C216.925 228.88 216.611 230.306 216.568 231.564C216.036 246.88 214.133 261.973 209.08 276.535C206.259 284.663 202.541 292.329 197.148 299.099C193.481 303.704 189.197 307.608 183.969 310.386C175.306 314.993 166.272 315.482 156.972 312.712C149.098 310.369 142.242 306.17 135.923 301.029C128.132 294.692 121.549 287.233 115.682 279.122C105.902 265.609 98.3621 250.89 92.2802 235.399C86.3612 220.329 81.9626 204.818 78.9846 188.902C77.507 181.011 76.3952 173.071 75.6721 165.08C75.2691 160.641 75.0719 156.188 74.8718 151.733C74.6117 145.954 74.7318 140.189 75.0405 134.427C75.8378 119.643 78.1329 105.135 83.4688 91.2336C86.2497 83.9885 89.8737 77.2092 94.8124 71.1873C100.094 64.7452 106.502 59.9323 114.662 57.7173C121.395 55.8882 128.057 56.3454 134.668 58.3489C142.007 60.5725 148.467 64.4223 154.443 69.1352C163.005 75.8859 170.102 84.0056 176.404 92.8484C185.804 106.038 193.089 120.36 199.014 135.399C200.166 138.326 201.22 141.289 202.298 144.245C202.744 145.468 202.724 145.491 201.672 146.322C199.9 147.723 198.208 149.209 196.562 150.758C195.016 152.213 193.987 153.942 193.601 156.008C193.418 156.992 192.926 157.529 192.052 157.96C189.465 159.238 186.924 160.604 184.364 161.93C183.512 162.372 182.934 162.111 182.629 161.147C179.239 150.538 175.141 140.218 170.002 130.326C165.512 121.686 160.376 113.469 153.843 106.198C150.104 102.04 145.994 98.313 141.073 95.5778C137.535 93.6115 133.796 92.3454 129.683 92.4454C125.102 92.5569 121.249 94.366 117.997 97.5213C114.381 101.028 112.052 105.352 110.249 109.988C108.148 115.396 106.982 121.037 106.159 126.756C104.89 135.568 104.833 144.439 105.256 153.299C105.756 163.788 107.222 174.171 109.368 184.452C112.444 199.171 116.814 213.489 122.813 227.288C127.617 238.343 133.299 248.901 140.796 258.401C144.682 263.325 148.99 267.827 154.217 271.362C157.326 273.465 160.636 275.14 164.369 275.829C169.862 276.844 174.781 275.635 179.039 271.959C182.486 268.981 184.852 265.231 186.704 261.124C189.094 255.829 190.497 250.247 191.454 244.539C192.832 236.334 193.192 228.06 192.969 219.763C192.861 215.679 192.655 211.589 192.178 207.522C192.14 207.213 192.143 206.902 192.123 206.47L192.129 206.473ZM103.592 76.5776C103.592 76.3689 103.595 76.1574 103.592 75.9488C103.575 75.0228 103.407 74.1282 102.538 73.6281C101.58 73.0793 100.711 73.5423 99.8969 74.0568C98.8194 74.737 97.9277 75.6344 97.1332 76.6119C93.0404 81.6563 90.1881 87.3267 88.6247 93.6344C88.3447 94.7604 88.2646 95.9208 88.4447 97.0726C88.6933 98.6617 89.828 99.2933 91.3142 98.6788C91.9458 98.4159 92.5003 98.01 93.0119 97.5556C93.8778 96.7868 94.6667 95.9437 95.3755 95.0291C98.7422 90.6649 101.234 85.8433 102.872 80.5874C103.278 79.287 103.575 77.9523 103.595 76.5747L103.592 76.5776ZM203.381 274.534C203.255 274.029 203.278 273.506 202.829 273.228C202.344 272.928 201.935 273.228 201.538 273.497C201.055 273.826 200.654 274.24 200.306 274.7C196.513 279.676 193.867 285.218 192.195 291.234C192 291.928 191.923 292.686 191.952 293.409C192.003 294.689 192.669 294.992 193.689 294.243C194.498 293.649 195.113 292.849 195.681 292.034C198.857 287.493 201.243 282.563 202.812 277.25C203.078 276.352 203.201 275.412 203.378 274.54L203.381 274.534ZM84.089 109.399C84.089 109.608 84.0776 109.817 84.089 110.025C84.149 110.891 84.332 111.734 85.2751 112.032C86.2297 112.335 86.8728 111.732 87.3901 111.046C88.7248 109.274 89.3221 107.253 89.2678 105.044C89.2592 104.635 89.1706 104.203 89.0106 103.826C88.6019 102.863 87.7302 102.614 86.8242 103.157C86.3212 103.46 85.9439 103.9 85.6324 104.381C84.6521 105.907 84.1662 107.59 84.0833 109.396L84.089 109.399Z" fill="#FA4616"/>
<path d="M242.971 241.055C243.322 240.866 243.508 240.995 243.694 241.072C247.372 242.601 251.042 244.159 254.737 245.65C255.523 245.968 255.723 246.396 255.626 247.194C254.254 258.554 252.222 269.787 249.095 280.807C245.446 293.677 240.547 306.027 233.728 317.57C226.991 328.977 218.743 339.083 208.117 347.117C199.194 353.862 189.299 358.492 178.284 360.627C170.805 362.076 163.277 362.244 155.734 361.244C140.032 359.163 126.096 352.736 113.241 343.747C101.017 335.202 90.5537 324.79 81.2365 313.195C67.9695 296.681 57.5662 278.461 49.1892 259.055C40.4865 238.897 34.3045 217.97 30.329 196.392C28.8942 188.607 27.7882 180.77 27.0279 172.882C26.4192 166.563 25.9819 160.241 25.7618 153.896C25.6246 149.96 25.5503 146.027 25.6103 142.095C25.7161 135.173 26.0676 128.262 26.7107 121.365C27.8825 108.753 30.0317 96.3261 33.4071 84.1165C37.014 71.0695 41.9269 58.557 48.7805 46.8504C54.6281 36.8615 61.6617 27.833 70.4674 20.2563C79.7732 12.2509 90.3022 6.58626 102.315 3.85397C108.897 2.35635 115.562 1.86191 122.318 2.32205C135.888 3.2452 148.338 7.64088 160.073 14.2944C172.983 21.6139 184.08 31.1712 194.038 42.0946C208.58 58.0482 219.946 76.1054 229.26 95.5115C233.53 104.409 237.252 113.531 240.541 122.832C241.03 124.209 241.027 124.223 239.749 124.792C235.734 126.587 231.773 128.502 227.823 130.445C227.291 130.008 227.254 129.397 227.063 128.873C220.18 109.968 211.449 91.9875 200.143 75.308C193.292 65.1991 185.601 55.7875 176.727 47.3706C168.261 39.3423 158.993 32.4459 148.421 27.4014C141.367 24.0375 133.99 21.6739 126.216 20.7536C114.035 19.3103 102.506 21.4195 91.7398 27.3957C83.6344 31.8943 76.9294 38.0133 71.1991 45.2413C63.4509 55.0101 58.0063 66.0165 53.9021 77.7259C50.4753 87.5004 48.1232 97.5436 46.5713 107.778C45.6738 113.692 45.0594 119.628 44.6278 125.595C44.079 133.141 43.959 140.694 44.1734 148.245C44.442 157.734 45.248 167.186 46.5284 176.6C49.1349 195.783 53.6564 214.498 60.1127 232.743C67.0377 252.312 76.0006 270.876 87.6614 288.087C94.7179 298.504 102.66 308.184 111.875 316.781C120.523 324.85 129.995 331.732 140.815 336.642C147.792 339.809 155.054 341.987 162.685 342.753C177.481 344.236 190.854 340.443 202.798 331.62C211.109 325.484 217.617 317.719 222.993 308.965C229.886 297.733 234.488 285.557 237.746 272.842C240.092 263.685 241.667 254.39 242.562 244.979C242.69 243.638 242.845 242.304 242.976 241.055H242.971Z" fill="#FA4616"/>
<path d="M170.964 195.166C172.548 195.984 173.845 196.65 175.143 197.321C180.024 199.856 184.897 202.406 189.793 204.912C190.522 205.287 190.853 205.707 190.939 206.561C191.405 211.26 191.737 215.964 191.808 220.686C191.897 226.459 191.797 232.224 191.162 237.971C190.319 245.608 188.899 253.107 185.798 260.195C184.189 263.874 182.165 267.292 179.261 270.116C175.912 273.371 171.95 275.137 167.212 274.934C164.608 274.823 162.153 274.12 159.789 273.062C155.817 271.287 152.384 268.715 149.22 265.771C143.258 260.221 138.474 253.728 134.25 246.808C126.419 233.987 120.706 220.223 116.213 205.927C112.306 193.5 109.502 180.825 107.802 167.912C106.601 158.8 105.992 149.64 106.255 140.449C106.478 132.626 107.23 124.855 109.248 117.259C110.542 112.38 112.217 107.65 114.918 103.34C115.981 101.645 117.182 100.062 118.602 98.6471C123.541 93.737 129.331 92.3995 135.936 94.5544C140.249 95.9606 143.924 98.4499 147.325 101.379C152.939 106.215 157.477 111.974 161.536 118.125C168.675 128.945 174.071 140.626 178.532 152.764C179.69 155.911 180.762 159.086 181.776 162.282C181.976 162.913 181.856 163.208 181.282 163.505C175.977 166.24 170.687 168.998 165.305 171.796C164.934 171.356 164.862 170.839 164.697 170.373C162.336 163.688 159.572 157.189 155.894 151.107C153.988 147.957 151.878 144.959 149.217 142.384C147.969 141.175 146.614 140.106 145.025 139.366C141.684 137.808 138.754 138.597 136.625 141.615C135.107 143.761 134.333 146.211 133.875 148.746C133.035 153.407 132.835 158.103 133.075 162.842C133.724 175.774 136.516 188.261 140.743 200.454C143.273 207.75 146.365 214.795 150.558 221.315C152.178 223.835 153.973 226.222 156.143 228.308C157.32 229.44 158.586 230.457 160.055 231.189C163.608 232.961 166.749 232.118 168.927 228.805C170.424 226.525 171.136 223.947 171.607 221.309C172.593 215.796 172.525 210.245 172.108 204.686C171.876 201.605 171.51 198.542 170.97 195.169L170.964 195.166Z" fill="#FCF6F5"/>
<path d="M54.7098 274.038C53.8038 274.495 52.815 274.65 51.8375 274.767C46.8645 275.35 42.2516 274.275 37.9845 271.674C33.2888 268.813 29.5905 264.909 26.3923 260.497C21.6194 253.909 18.0811 246.666 15.1373 239.115C11.2189 229.072 8.53809 218.689 6.59176 208.1C5.38852 201.552 4.37391 194.979 3.57366 188.377C3.11923 184.633 2.79913 180.874 2.48189 177.113C1.60447 166.75 1.37868 156.372 1.68163 145.986C1.81024 141.642 2.08176 137.298 2.44187 132.959C2.80485 128.569 3.26499 124.193 3.85946 119.832C4.69401 113.707 5.80008 107.625 7.13764 101.583C9.12399 92.612 11.6819 83.8064 14.9487 75.2265C19.6902 62.7768 26.2751 51.3704 34.7978 41.1043C42.7775 31.4927 52.0433 23.3672 62.7667 16.9366C71.961 11.4206 81.7727 7.39647 92.2131 4.9214C93.4878 4.61844 94.7682 4.34979 96.0458 4.07256C96.1401 4.05255 96.2487 4.09256 96.5431 4.12686C94.7568 4.76706 93.122 5.31295 91.5186 5.93886C83.9191 8.90266 77.0998 13.184 70.8407 18.3714C60.4745 26.9598 52.5091 37.4917 46.0528 49.224C38.4104 63.1141 33.3202 77.9388 29.8648 93.3722C28.3072 100.334 27.1211 107.357 26.2351 114.427C25.7578 118.22 25.4549 122.036 25.1405 125.848C24.3145 135.851 24.4031 145.869 24.6375 155.883C24.7346 160.016 25.0662 164.149 25.4149 168.276C25.795 172.82 26.2666 177.356 26.8496 181.875C27.6413 188.005 28.6787 194.096 29.8534 200.169C32.5971 214.345 36.3898 228.232 41.1827 241.851C44.8439 252.248 49.0881 262.403 53.9953 272.277C54.2697 272.832 54.6698 273.343 54.7184 274.035L54.7098 274.038Z" fill="#C20000"/>
<path d="M236.225 127.779C240.146 125.772 244.207 124.08 248.263 122.371C269.204 113.543 290.713 106.378 312.612 100.344C315.138 99.6471 317.673 98.984 320.205 98.3152C320.597 98.2123 321.003 98.1523 321.374 98.078C321.669 98.5153 321.437 98.8468 321.346 99.1783C320.426 102.462 319.671 105.786 319.179 109.161C319.028 110.193 319.005 111.251 319.002 112.297C319.002 113.289 319.297 113.477 320.283 113.243C320.537 113.183 320.774 113.066 321.023 112.98C342.647 105.455 364.271 97.9294 385.895 90.4013C387.524 89.8354 388.367 88.3663 388.087 86.6287C388.038 86.3228 387.938 86.0142 388.136 85.6398C389.593 85.5197 391.074 85.1024 392.597 85.4997C393.174 85.6512 393.752 85.817 393.949 86.4343C394.157 87.0888 393.692 87.5089 393.266 87.9119C391.962 89.138 390.476 90.1326 389.044 91.193C373.957 102.342 358.02 112.154 341.621 121.234C331.755 126.698 321.749 131.894 311.548 136.702C309.759 137.545 307.936 138.316 306.13 139.12C305.944 138.705 305.652 138.859 305.344 138.951C303.091 139.623 300.856 140.36 298.581 140.937C293.628 142.192 288.644 143.252 283.557 143.887C280.97 144.21 278.372 144.564 275.791 144.661C269.947 144.878 264.099 144.873 258.289 143.838C253.201 142.932 248.32 141.535 243.887 138.808C239.726 136.25 236.805 132.826 236.23 127.779H236.225ZM245.013 130.271C246.711 130.265 248.291 129.859 249.863 129.471C258.469 127.344 266.774 124.329 274.957 120.957C278.444 119.519 281.896 118.007 285.169 116.121C286.032 115.624 286.895 115.121 287.612 114.42C287.864 114.175 288.172 113.872 287.99 113.466C287.827 113.106 287.458 112.957 287.078 112.957C286.503 112.957 285.917 112.943 285.354 113.037C284.117 113.243 282.871 113.449 281.659 113.76C270.273 116.692 259.292 120.745 248.697 125.838C247.234 126.541 245.799 127.316 244.502 128.302C243.984 128.693 243.178 129.042 243.51 129.871C243.776 130.54 244.53 130.182 245.01 130.271H245.013Z" fill="#DBF505"/>
<path d="M148.4 180.281C148.331 179.727 148.294 179.204 148.194 178.695C148.131 178.364 147.9 178.112 147.528 178.169C147.245 178.212 147.085 178.461 147.079 178.738C147.068 179.21 147.051 179.687 147.122 180.15C147.402 181.979 147.954 183.719 148.923 185.311C149.06 185.534 149.189 185.769 149.354 185.966C149.617 186.277 149.903 186.735 150.369 186.389C150.798 186.069 150.555 185.643 150.32 185.271C150.189 185.063 150.083 184.834 149.957 184.603C150.429 184.314 150.712 184.668 150.998 184.817C156.817 187.826 162.619 190.873 168.452 193.86C169.344 194.317 169.747 194.874 169.884 195.872C170.39 199.559 170.833 203.246 171.058 206.967C171.25 210.116 171.264 213.252 171.027 216.393C170.784 219.594 170.313 222.743 169.152 225.758C168.718 226.893 168.163 227.959 167.389 228.899C165.68 230.977 163.705 231.466 161.218 230.443C159.538 229.751 158.146 228.648 156.863 227.393C154.216 224.804 152.13 221.789 150.255 218.619C145.69 210.9 142.467 202.605 139.871 194.054C137.262 185.457 135.447 176.692 134.573 167.746C134.075 162.679 133.878 157.591 134.501 152.518C134.864 149.552 135.401 146.611 136.719 143.878C137.085 143.118 137.511 142.398 138.051 141.752C139.551 139.957 141.469 139.405 143.687 140.154C145.622 140.809 147.165 142.069 148.594 143.478C151.535 146.379 153.779 149.794 155.802 153.364C159.046 159.083 161.564 165.125 163.745 171.318C163.99 172.019 164.113 172.505 163.245 172.945C158.617 175.291 154.027 177.706 149.423 180.098C149.149 180.241 148.883 180.436 148.397 180.281H148.4Z" fill="#FA4616"/>
<path d="M384.52 89.5834C376.903 92.2443 369.289 94.9108 361.67 97.5631C348.363 102.199 335.05 106.829 321.74 111.462C321.254 111.63 320.785 111.879 320.205 111.899C319.854 110.939 320.214 110.016 320.357 109.127C322.306 97.2115 326.433 86.1481 333.449 76.2564C337.059 71.1662 341.326 66.7162 346.608 63.3094C347.84 62.5149 349.117 61.8146 350.475 61.2602C350.643 61.3173 350.769 61.2716 350.846 61.1058C350.958 61.0687 351.072 61.0287 351.183 60.9915C351.701 60.9629 352.244 61.023 352.735 60.8943C356.042 60.0312 359.326 60.317 362.587 61.083C363.753 61.3574 365.011 61.6117 365.717 62.7921C367.786 63.3065 369.606 64.3097 371.287 65.6016C373.045 66.9505 374.579 68.5253 375.948 70.2573C379.713 75.0245 382.239 80.3777 383.488 86.3281C383.599 86.8654 383.491 87.5313 384.202 87.78C384.64 88.323 384.545 88.9575 384.517 89.5834H384.52ZM351.203 67.4307C351.232 65.9074 350.486 65.31 348.997 65.7559C347.988 66.0588 347.102 66.6362 346.253 67.2621C342.975 69.6857 340.274 72.6695 337.842 75.9134C336.17 78.1427 334.667 80.472 333.618 83.0699C333.284 83.8959 332.986 84.739 332.938 85.6393C332.858 87.1598 333.609 87.7857 335.078 87.4142C336.164 87.1398 337.102 86.5396 337.968 85.8594C343.338 81.6495 347.531 76.485 350.429 70.2945C350.849 69.3942 351.178 68.4453 351.201 67.4278L351.203 67.4307ZM332.589 92.4015C332.589 91.404 332.523 90.6952 331.8 90.3608C331.094 90.035 330.48 90.3665 329.942 90.8324C328.153 92.3757 327.242 94.3764 326.964 96.6828C326.876 97.4316 327.024 98.1804 327.759 98.5891C328.488 98.9921 329.094 98.5434 329.597 98.1061C331.406 96.5228 332.358 94.4878 332.586 92.4043L332.589 92.4015Z" fill="#DBF505"/>
<path d="M236.212 127.781C236.79 132.828 239.708 136.252 243.869 138.81C248.305 141.537 253.183 142.934 258.271 143.84C264.081 144.875 269.932 144.881 275.773 144.664C278.357 144.566 280.955 144.212 283.539 143.889C288.623 143.254 293.61 142.194 298.563 140.939C300.838 140.362 303.076 139.628 305.326 138.953C305.631 138.862 305.926 138.707 306.112 139.122C304.465 140.259 302.579 140.911 300.778 141.725C284.736 149.008 268.408 155.57 251.626 160.963C245.041 163.078 238.396 164.99 231.665 166.593C230.793 166.802 230.19 166.653 229.522 166.11C226.835 163.932 224.72 161.286 223.025 158.294C220.122 153.175 218.635 147.664 218.652 141.774C218.658 140.202 218.913 138.647 219.201 137.098C219.318 136.469 219.656 136.095 220.202 135.795C225.44 132.928 230.728 130.159 236.207 127.772L236.212 127.781Z" fill="#A4BB00"/>
<path d="M390.811 95.6124C394.098 98.6991 396.448 102.363 397.299 106.825C398.185 111.466 396.916 115.633 394.064 119.346C392.323 121.612 390.206 123.473 387.822 125.025C381.751 128.977 375.026 131.132 367.921 132.227C367.767 132.201 367.613 132.158 367.458 132.153C364.18 132.021 362.114 130.286 361.359 127.102C361.028 125.702 361.411 124.396 361.791 123.104C362.963 119.143 365.343 115.882 368.064 112.886C373.234 107.193 379.111 102.326 385.727 98.3819C387.382 97.393 388.971 96.2641 390.811 95.6124Z" fill="#DBF505"/>
<path d="M211.447 171.237C216.552 170.774 221.522 170.031 226.441 168.979C229.462 168.333 232.46 167.587 235.466 166.887C236.575 166.63 236.592 166.63 236.815 167.725C238.413 175.524 239.751 183.37 240.642 191.284C240.911 193.661 241.177 196.042 241.434 198.354C240.954 198.697 240.625 198.463 240.291 198.371C233.314 196.482 226.289 194.799 219.138 193.701C218.207 193.559 217.275 193.358 216.337 193.307C215.583 193.267 215.417 192.91 215.311 192.244C214.797 188.934 214.268 185.622 213.659 182.329C212.982 178.677 212.21 175.041 211.45 171.237H211.447Z" fill="#FDF5F4"/>
<path d="M390.824 95.611C388.983 96.2626 387.394 97.3915 385.739 98.3804C379.126 102.325 373.25 107.192 368.076 112.885C365.356 115.88 362.975 119.141 361.803 123.103C361.42 124.394 361.04 125.7 361.372 127.101C362.123 130.285 364.19 132.02 367.471 132.151C367.625 132.157 367.779 132.2 367.934 132.225C365.902 132.768 363.804 132.883 361.729 133.046C351.28 133.866 341.008 132.837 330.928 129.942C330.439 129.802 329.927 129.716 329.404 129.344C329.793 128.821 330.362 128.664 330.842 128.413C347.09 119.853 362.949 110.641 378.157 100.335C381.238 98.2489 384.273 96.0911 387.291 93.9133C388.003 93.4017 388.529 93.2417 389.175 93.9476C389.7 94.5221 390.409 94.9222 390.824 95.611Z" fill="#A4BB00"/>
<path d="M212.64 192.952C210.51 192.583 207.947 192.486 205.372 192.52C203.028 192.552 200.784 192.972 198.707 194.086C198.269 194.321 197.875 194.409 197.372 194.258C195.266 193.623 193.153 192.992 191.021 192.449C190.138 192.223 190.064 191.594 189.952 190.925C189.409 187.616 188.732 184.332 188 181.057C187.477 178.704 186.94 176.352 186.317 174.026C186.111 173.254 186.337 172.988 187.009 172.8C190.638 171.774 194.265 170.728 197.892 169.693C198.298 169.576 198.724 169.476 199.107 169.744C201.628 171.522 204.509 171.534 207.415 171.479C208.295 171.462 209.347 171.059 210.016 171.594C210.679 172.12 210.568 173.223 210.762 174.08C212.094 179.959 213.14 185.892 214.054 191.849C214.229 192.98 214.18 193.015 212.637 192.949L212.64 192.952Z" fill="#FA4616"/>
<path d="M256.631 203.214C256.099 203.377 255.773 203.169 255.428 203.06C251.575 201.863 247.725 200.651 243.864 199.482C243.035 199.23 242.584 198.913 242.498 197.913C241.632 187.775 240.043 177.741 238.028 167.769C237.745 166.368 237.748 166.377 239.105 165.98C242.778 164.908 246.448 163.831 250.117 162.75C251.389 162.376 251.392 162.373 251.635 163.599C253.267 171.879 254.55 180.21 255.456 188.604C255.939 193.085 256.319 197.573 256.628 202.068C256.654 202.428 256.631 202.791 256.631 203.214Z" fill="#FA4616"/>
<path d="M218.063 148.807C218.706 150.736 219.129 152.731 219.915 154.618C221.807 159.173 224.382 163.252 228.143 166.513C228.326 166.673 228.592 166.799 228.552 167.219C227.112 167.69 225.574 167.913 224.056 168.205C217.829 169.394 211.561 170.265 205.199 170.185C199.66 170.114 195.104 165.767 194.633 160.179C196.508 160.914 198.385 160.374 200.189 160.002C206.954 158.61 212.401 154.952 216.991 149.899C217.334 149.522 217.466 148.936 218.063 148.81V148.807Z" fill="#A3B0B3"/>
<path d="M167.3 178.422C169.61 177.765 171.816 177.139 174.019 176.508C177.386 175.544 180.756 174.604 184.108 173.595C184.794 173.389 185.017 173.518 185.186 174.19C186.612 179.914 187.878 185.673 188.873 191.458C188.435 191.772 188.113 191.53 187.775 191.435C182.045 189.803 176.32 188.151 170.578 186.559C169.618 186.294 169.098 185.879 168.886 184.853C168.455 182.758 167.869 180.695 167.297 178.422H167.3Z" fill="#FCF6F5"/>
<path d="M218.073 148.802C217.475 148.931 217.344 149.516 217.001 149.891C212.411 154.944 206.961 158.605 200.198 159.994C198.395 160.366 196.517 160.906 194.642 160.171C194.137 157.033 194.802 154.212 197.089 151.934C201.39 147.653 206.326 144.189 211.431 140.957C213.503 139.642 215.586 138.344 217.97 137.09C217.244 141.131 217.513 144.969 218.073 148.799V148.802ZM207.206 148.53C207.604 148.619 208.09 148.41 208.578 148.225C210.808 147.381 212.757 146.115 214.38 144.366C214.855 143.855 215.683 143.312 215.152 142.551C214.689 141.885 213.826 142.186 213.123 142.414C211.108 143.069 209.361 144.186 207.798 145.589C207.258 146.072 206.692 146.553 206.315 147.193C205.76 148.136 205.977 148.513 207.206 148.528V148.53ZM202.542 151.363C203.277 151.38 203.908 151.071 204.414 150.508C204.763 150.119 204.82 149.665 204.54 149.225C204.274 148.811 203.885 148.848 203.442 148.973C202.771 149.162 202.211 149.482 201.799 150.051C201.567 150.368 201.496 150.714 201.679 151.066C201.85 151.394 202.199 151.34 202.542 151.363Z" fill="#D0E6EC"/>
<path d="M194.363 164.244C195.272 165.69 196.138 167.167 197.544 168.488C194.352 169.414 191.405 170.274 188.456 171.117C175.929 174.71 163.399 178.297 150.869 181.884C150.369 182.026 149.855 182.135 149.346 182.247C149.18 182.284 149.052 182.195 148.989 182.032C148.923 181.864 148.989 181.709 149.117 181.618C149.326 181.463 149.557 181.335 149.789 181.215C157.271 177.334 164.757 173.455 172.239 169.577C172.49 169.934 172.882 169.98 173.228 169.88C174.751 169.428 176.335 169.605 177.886 169.368C183.648 168.488 189.276 167.253 194.366 164.244H194.363Z" fill="#A3B0B3"/>
<path d="M384.504 89.5824C384.532 88.9593 384.627 88.322 384.19 87.7789C385.03 87.4417 384.764 86.8015 384.644 86.1841C383.549 80.5852 381.251 75.5179 377.925 70.905C375.758 67.9012 373.232 65.2632 370.036 63.3284C368.956 62.6739 367.824 62.1251 366.587 61.8364C365.681 61.625 365.635 61.6878 365.707 62.791C365.001 61.6078 363.743 61.3563 362.577 61.0819C359.319 60.316 356.032 60.0302 352.725 60.8933C352.234 61.0219 351.691 60.9619 351.173 60.9905C353.363 59.6672 355.806 59.1099 358.29 58.7983C367.793 57.6065 374.795 61.765 380.111 69.2702C383.584 74.1746 385.516 79.745 386.707 85.5954C386.77 85.9041 386.827 86.2127 386.885 86.5185C387.196 88.1648 386.85 88.765 385.244 89.3509C385.001 89.4395 384.753 89.5052 384.507 89.5824H384.504Z" fill="#A4BB00"/>
<path d="M194.363 164.241C189.276 167.254 183.646 168.486 177.884 169.366C176.332 169.603 174.749 169.426 173.225 169.877C172.882 169.98 172.488 169.932 172.236 169.575C179.159 165.956 186.081 162.338 193.209 158.614C193.272 160.706 193.823 162.472 194.363 164.241Z" fill="#D0E6EC"/>
<path d="M167.963 185.815C163.496 184.534 159.349 183.348 154.842 182.056C158.114 181.108 161.018 180.259 163.928 179.424C166.131 178.793 166.14 178.798 166.743 181.056C167.131 182.514 167.492 183.98 167.96 185.815H167.963Z" fill="#FA4616"/>
<path d="M384.33 73.7092C386.114 73.9692 387.537 74.8695 388.56 76.3243C390.063 78.4621 390.452 80.8143 389.712 83.3579C389.495 84.1039 389.072 84.324 388.374 84.4097C387.814 84.4783 387.591 84.2296 387.494 83.7695C386.765 80.3741 385.553 77.1417 384.244 73.9407C384.23 73.9092 384.276 73.8521 384.33 73.7092Z" fill="#A4BB00"/>
<path d="M350.842 61.1013C350.767 61.2635 350.644 61.3082 350.479 61.2523C350.562 61.1124 350.672 61.0313 350.842 61.1013Z" fill="#A4BB00"/>
<path d="M103.619 76.5729C103.599 77.9505 103.302 79.2852 102.896 80.5856C101.259 85.8416 98.7636 90.6631 95.3997 95.0273C94.6938 95.9419 93.9021 96.785 93.0361 97.5539C92.5217 98.0111 91.9701 98.417 91.3384 98.6771C89.8523 99.2915 88.7176 98.6599 88.469 97.0708C88.2889 95.9191 88.3718 94.7558 88.649 93.6326C90.2152 87.3249 93.0676 81.6545 97.1574 76.6101C97.952 75.6326 98.8437 74.7323 99.9212 74.055C100.736 73.5405 101.607 73.0747 102.562 73.6263C103.431 74.1264 103.597 75.021 103.617 75.947C103.619 76.1557 103.617 76.3672 103.617 76.5758L103.619 76.5729Z" fill="#FCF6F5"/>
<path d="M203.389 274.534C203.209 275.405 203.086 276.346 202.823 277.243C201.254 282.559 198.867 287.486 195.692 292.028C195.12 292.845 194.509 293.643 193.7 294.237C192.68 294.989 192.014 294.683 191.962 293.403C191.934 292.68 192.011 291.925 192.205 291.228C193.877 285.214 196.524 279.673 200.316 274.694C200.668 274.234 201.065 273.819 201.548 273.491C201.945 273.222 202.354 272.922 202.84 273.222C203.289 273.499 203.266 274.022 203.392 274.528L203.389 274.534Z" fill="#FCF6F5"/>
<path d="M84.1144 109.398C84.1973 107.592 84.6832 105.906 85.6635 104.382C85.975 103.899 86.3494 103.459 86.8553 103.159C87.7613 102.616 88.633 102.865 89.0417 103.828C89.2017 104.205 89.2875 104.637 89.2989 105.046C89.3532 107.252 88.753 109.275 87.4212 111.047C86.9039 111.733 86.2579 112.336 85.3062 112.033C84.3631 111.736 84.1801 110.893 84.1201 110.027C84.1058 109.818 84.1201 109.61 84.1201 109.401L84.1144 109.398Z" fill="#FCF6F5"/>
<path d="M245.004 130.275C244.521 130.186 243.769 130.543 243.503 129.874C243.172 129.046 243.978 128.697 244.495 128.305C245.793 127.319 247.227 126.545 248.691 125.842C259.286 120.749 270.266 116.696 281.653 113.764C282.867 113.452 284.111 113.243 285.348 113.041C285.911 112.946 286.497 112.961 287.071 112.961C287.454 112.961 287.82 113.109 287.983 113.469C288.166 113.875 287.857 114.178 287.606 114.424C286.889 115.124 286.025 115.627 285.162 116.124C281.89 118.014 278.434 119.525 274.95 120.96C266.768 124.333 258.462 127.348 249.857 129.474C248.285 129.863 246.704 130.266 245.007 130.275H245.004Z" fill="#FCF6F5"/>
<path d="M351.207 67.4333C351.184 68.4508 350.855 69.3997 350.435 70.3C347.537 76.4905 343.344 81.655 337.974 85.8649C337.108 86.5422 336.171 87.1453 335.084 87.4197C333.613 87.7912 332.864 87.1624 332.944 85.6448C332.99 84.7445 333.29 83.9014 333.624 83.0754C334.673 80.4775 336.179 78.1482 337.848 75.9189C340.28 72.675 342.981 69.6883 346.259 67.2676C347.108 66.6417 347.994 66.0643 349.003 65.7614C350.489 65.3127 351.235 65.91 351.21 67.4362L351.207 67.4333Z" fill="#FCF6F5"/>
<path d="M365.717 62.7911C365.645 61.6879 365.691 61.6222 366.597 61.8365C367.835 62.1252 368.964 62.6739 370.047 63.3284C373.242 65.2633 375.769 67.9013 377.935 70.9051C381.265 75.518 383.56 80.5853 384.654 86.1842C384.774 86.8015 385.04 87.4418 384.2 87.779C383.488 87.5275 383.597 86.8616 383.485 86.3271C382.236 80.3767 379.71 75.0235 375.946 70.2563C374.577 68.5215 373.042 66.9496 371.284 65.6006C369.604 64.3087 367.783 63.3027 365.714 62.7911H365.717Z" fill="#121212"/>
<path d="M332.571 92.401C332.343 94.4874 331.391 96.5195 329.582 98.1028C329.082 98.5401 328.473 98.9917 327.744 98.5858C327.007 98.1771 326.858 97.4283 326.949 96.6795C327.227 94.3731 328.138 92.3724 329.928 90.8291C330.465 90.3661 331.079 90.0317 331.785 90.3575C332.505 90.6919 332.574 91.3978 332.574 92.3981L332.571 92.401Z" fill="#FCF6F5"/>
<path d="M207.195 148.534C205.966 148.52 205.749 148.142 206.304 147.199C206.678 146.559 207.247 146.082 207.787 145.596C209.35 144.192 211.097 143.075 213.112 142.421C213.815 142.192 214.678 141.892 215.141 142.558C215.669 143.318 214.843 143.858 214.369 144.373C212.746 146.122 210.794 147.388 208.567 148.231C208.081 148.414 207.593 148.622 207.195 148.537V148.534Z" fill="#FCF6F5"/>
<path d="M202.536 151.361C202.194 151.338 201.845 151.392 201.673 151.063C201.49 150.712 201.562 150.366 201.793 150.049C202.208 149.48 202.765 149.16 203.437 148.971C203.88 148.846 204.268 148.808 204.534 149.223C204.814 149.66 204.757 150.117 204.409 150.506C203.9 151.069 203.268 151.378 202.536 151.361Z" fill="#FCF6F5"/>
</svg>
