<svg width="319" height="361" viewBox="0 0 319 361" fill="none" xmlns="http://www.w3.org/2000/svg">
<path d="M168.938 142.368C169.092 143.027 169.494 143.235 169.784 143.508C178.531 151.701 187.278 159.883 196.031 168.071C196.167 168.201 196.321 168.32 196.44 168.462C196.842 168.932 197.22 169.015 197.764 168.599C198.551 167.993 199.403 167.483 200.225 166.925C201.674 165.945 203.075 164.876 204.583 164.003C208.321 161.83 212.177 161.937 215.98 163.778C222.657 167.002 229.281 170.327 235.946 173.575C252.885 181.828 269.829 190.057 286.767 198.304C289.949 199.853 293.101 201.456 296.265 203.048C298.359 204.105 300.204 205.488 301.612 207.4C304.042 210.701 304.084 214.643 301.736 217.992C300.884 219.209 299.814 220.201 298.655 221.115C285.572 231.434 272.195 241.356 258.917 251.42C215.554 284.295 172.162 317.141 128.787 350.004C126.072 352.058 123.399 354.178 120.661 356.203C118.39 357.883 115.799 358.91 113.055 359.522C106.437 361.006 99.973 360.525 93.84 357.562C84.9983 353.287 76.2334 348.858 67.4272 344.512C47.5732 334.709 27.7074 324.913 7.84751 315.116C7.21469 314.801 6.57005 314.504 5.93723 314.196C4.78396 313.626 3.7194 312.937 2.79679 312.028C0.437021 309.701 -0.166228 306.744 1.09941 303.675C1.7618 302.071 2.78496 300.724 3.98554 299.489C5.31624 298.123 6.87758 297.042 8.43893 295.98C24.9041 284.788 41.381 273.602 57.8521 262.416C57.9704 262.338 58.0886 262.261 58.2069 262.178C59.1414 261.531 59.1414 261.525 58.7806 260.504C58.4021 259.435 58.0118 258.366 57.6273 257.298C46.2307 225.568 34.8399 193.833 23.4433 162.104C16.6419 143.163 9.8406 124.223 3.03927 105.283C2.90916 104.926 2.83227 104.541 2.64893 104.22C0.874672 101.079 1.0107 97.7601 1.75589 94.4055C2.80862 89.6615 4.99687 85.4163 7.5932 81.3788C13.2708 72.5559 20.4921 65.1579 28.7246 58.7336C34.4496 54.2628 40.5649 50.4272 47.3307 47.7139C50.3647 46.4967 53.4756 45.5705 56.7343 45.1727C58.5795 44.947 60.407 44.9649 62.2404 45.2855C64.7658 45.7248 66.7589 47.1082 68.5804 48.8123C83.3423 62.6345 98.1041 76.4567 112.872 90.273C113.002 90.3977 113.15 90.5046 113.511 90.8015C113.416 89.8871 113.375 89.2221 113.28 88.5631C112.446 82.6732 112.18 76.7477 112.541 70.8162C113.321 57.7777 116.746 45.523 123.63 34.3429C123.961 33.8026 124.186 33.3216 124.079 32.6329C123.659 29.9255 124.47 27.5327 126.291 25.5615C134.571 16.6138 144.489 10.0946 155.821 5.72467C164.627 2.2988 173.764 0.5354 183.221 0.5354C186.971 0.5354 190.679 0.856019 194.287 1.93069C197.599 2.91629 201.029 3.33785 204.388 4.10971C216.909 6.97746 228.459 12.1014 239.187 19.1372C251.708 27.3486 262.324 37.5906 271.065 49.7682C271.775 50.7597 272.461 50.9913 273.632 50.8726C282.184 49.9879 290.712 49.976 299.122 52.1075C303.226 53.1466 307.112 54.714 310.554 57.2434C315.084 60.5624 317.935 64.9323 318.621 70.5847C319.07 74.2718 318.52 77.8639 317.385 81.3788C315.617 86.865 312.677 91.7039 309.194 96.2342C303.569 103.543 296.815 109.665 289.464 115.157C278.878 123.065 267.386 129.365 255.197 134.412C248.473 137.196 241.464 138.787 234.249 139.642C228.855 140.278 223.467 140.937 218.062 141.43C214.768 141.726 211.467 141.905 208.167 142.148C201.993 142.599 195.801 142.688 189.615 142.855C186.161 142.944 182.713 142.878 179.265 142.771C175.864 142.665 172.463 142.676 168.933 142.38L168.938 142.368ZM68.2966 282.721C68.2315 282.674 68.125 282.573 68.0955 282.591C67.9358 282.686 68.0186 282.799 68.1132 282.9C68.1132 283.487 68.3616 284.004 68.5509 284.538C69.7337 287.893 70.9343 291.236 72.1171 294.584C72.9215 296.852 74.1161 298.865 75.8312 300.569C78.469 303.182 81.704 304.666 85.2348 305.569C90.4334 306.904 95.7148 306.928 101.002 306.34C106.975 305.669 112.819 304.334 118.555 302.552C129.526 299.15 139.894 294.341 149.918 288.766C151.48 287.899 153.112 287.121 154.52 285.993C154.91 285.94 155.218 285.714 155.543 285.518C169.435 277.093 182.305 267.326 193.926 255.932C201.425 248.587 208.274 240.691 213.987 231.844C218.31 225.153 221.64 217.998 223.787 210.315C224.709 207.008 225.129 203.618 224.556 200.18C224.13 197.603 223.302 195.199 221.35 193.358C216.702 188.97 212.018 184.612 207.351 180.242C207.351 180.028 207.203 179.862 207.038 179.957C206.843 180.064 206.985 180.26 207.103 180.397C208.504 184.511 208.451 188.685 207.594 192.883C206.405 198.713 203.951 204.027 200.993 209.128C196.357 217.125 190.614 224.274 184.292 230.971C173.126 242.804 160.546 252.922 146.92 261.757C145.057 262.962 143.105 264.019 141.325 265.355C139.716 266.245 138.108 267.13 136.505 268.032C125.818 274.065 114.723 279.135 102.901 282.502C95.4723 284.621 87.9317 286.005 80.1604 285.625C78.2206 285.53 76.3162 285.233 74.4237 284.853C72.2768 284.426 70.2955 283.535 68.2906 282.71L68.2966 282.721ZM74.4828 162.745C75.6183 162.258 76.6178 161.539 77.6528 160.88C89.4989 153.346 100.257 144.517 109.489 133.877C110.323 132.915 111.121 131.924 111.985 130.885C109.637 129.62 107.443 128.344 105.455 126.729C103.675 125.286 102.09 123.665 100.961 121.652C99.695 119.39 99.1628 116.991 99.6773 114.397C100.026 112.645 100.73 111.06 101.694 109.581C103.102 107.42 104.858 105.556 106.851 103.947C109.205 102.041 111.659 100.266 114.291 98.7576C114.883 98.4191 115.06 98.1044 114.871 97.4098C114.546 96.2223 114.345 95.0051 114.132 93.788C114.001 93.0636 113.688 92.4936 113.138 91.9771C105.757 85.1016 98.3998 78.2023 91.0248 71.3209C90.7764 71.0893 90.5931 70.6915 90.1436 70.7569C89.8597 77.2761 88.9844 80.6248 86.116 86.2831C84.5488 89.3765 82.7035 92.3036 80.6513 95.0883C73.0752 105.348 63.7485 113.72 53.1562 120.72C51.7368 121.658 50.2996 122.561 48.8684 123.481C48.4544 123.701 48.0345 123.914 47.6264 124.146C42.3214 127.192 36.768 129.679 30.8952 131.401C25.8267 132.886 20.6872 133.788 15.3763 132.975C15.0214 132.921 14.6607 132.672 14.2881 132.933C14.2171 133.485 14.5069 133.948 14.6784 134.429C19.6759 148.382 24.6912 162.335 29.7005 176.282C30.1973 177.671 30.2032 177.689 31.735 177.642C35.6147 177.517 39.4471 177.042 43.2322 176.145C52.5884 173.925 61.3119 170.131 69.7219 165.547C71.3364 164.668 72.9747 163.825 74.4828 162.757V162.745ZM48.1173 122.466C48.5195 122.448 48.8093 122.181 49.1286 121.985C59.6618 115.608 68.9708 107.776 76.8367 98.2648C80.5626 93.7583 83.8331 88.9371 86.2284 83.5697C87.9849 79.6392 89.2032 75.578 89.014 71.1903C88.9608 69.9909 88.6296 69.0588 87.7069 68.2038C81.9643 62.9017 76.2807 57.5402 70.5676 52.2085C70.2719 51.9294 70.0472 51.5138 69.4912 51.5019C69.6095 52.351 69.7514 53.1763 69.8342 54.0075C69.8816 54.4765 69.8875 54.9575 69.8461 55.4265C69.8165 55.7709 69.6332 56.0915 69.2132 56.044C68.8702 56.0084 68.7815 55.7115 68.7697 55.4146C68.7519 55.0347 68.7697 54.6547 68.7519 54.2747C68.5804 49.8869 66.1615 47.1379 61.856 46.3483C59.579 45.9326 57.3316 46.1226 55.0961 46.5442C50.4534 47.417 46.1301 49.1863 41.9902 51.4129C30.3156 57.6887 20.4921 66.1673 12.3127 76.5933C8.93573 80.8979 6.03777 85.4994 4.05651 90.6352C3.0097 93.3545 2.28817 96.1332 2.37688 99.0841C2.51882 103.62 4.97321 106.417 9.44435 107.1C9.81694 107.159 10.1836 107.248 10.5385 107.373C10.71 107.432 10.8105 107.622 10.8046 107.83C10.7928 108.05 10.6449 108.168 10.4675 108.24C10.1481 108.37 9.82286 108.323 9.49166 108.263C8.18462 108.038 6.90716 107.705 5.73023 107.058C5.47001 106.916 5.23344 106.607 4.81353 106.856C5.36355 108.477 5.87217 110.092 6.58187 111.642C6.68833 112.004 6.78296 112.372 6.91307 112.722C8.97121 118.464 11.0708 124.193 13.052 129.959C13.4719 131.176 14.1284 131.68 15.3171 131.864C19.1495 132.458 22.9287 132.149 26.6902 131.354C34.0178 129.81 40.7186 126.699 47.2243 123.107C47.5495 122.929 47.8334 122.673 48.135 122.454L48.1173 122.466ZM105.763 209.983C106.059 209.834 106.36 209.704 106.65 209.537C113.913 205.357 120.974 200.869 127.782 195.976C137.759 188.81 147.21 181.026 155.661 172.072C159.535 167.964 163.137 163.635 166.111 158.814C166.295 158.511 166.638 158.25 166.449 157.781C159.564 157.466 152.698 156.873 145.885 155.756C139.87 154.771 133.909 153.518 128.142 151.493C125.327 150.502 122.589 149.338 120.117 147.628C119.1 146.922 118.159 146.132 117.449 145.105C116.308 143.448 116.438 141.786 117.792 140.307C118.473 139.565 119.301 139.019 120.182 138.544C121.731 137.713 123.375 137.125 125.067 136.68C125.398 136.591 125.735 136.537 126.037 136.193C121.767 134.934 117.639 133.592 113.7 131.716C113.073 131.419 112.759 131.657 112.399 132.108C110.962 133.931 109.442 135.688 107.863 137.392C99.1628 146.809 89.3038 154.806 78.5163 161.682C77.4399 162.365 76.3694 163.059 75.299 163.748C74.9678 163.926 74.6307 164.098 74.3054 164.288C67.5573 168.237 60.5904 171.734 53.2213 174.37C47.3307 176.478 41.3337 178.099 35.0647 178.621C33.663 178.74 32.2436 178.651 30.8774 178.894C30.6763 179.458 30.978 179.886 31.1317 180.313C36.4722 195.216 41.8423 210.107 47.1592 225.016C47.5141 226.019 48.07 226.572 49.0399 226.916C52.34 228.098 55.7525 228.02 59.1355 227.706C63.6598 227.284 68.0718 226.215 72.4128 224.868C84.1111 221.234 95.1174 216.021 105.751 209.983H105.763ZM25.1051 286.201L25.1111 286.195C24.7207 286.254 24.4309 286.516 24.1234 286.723C19.3447 289.965 14.572 293.201 9.7992 296.449C8.82336 297.114 7.83569 297.767 6.88941 298.473C4.87859 299.952 3.18121 301.715 2.16988 304.043C1.23544 306.198 1.28867 308.3 2.69625 310.247C3.57155 311.453 4.70116 312.391 6.03777 313.05C11.8928 315.929 17.7538 318.791 23.6089 321.677C34.1302 326.854 44.6457 332.043 55.1611 337.233C67.9654 343.55 80.7696 349.873 93.5679 356.203C94.6266 356.725 95.6734 357.277 96.7971 357.651C100.464 358.874 104.202 359.433 108.081 359.171C111.133 358.963 114.049 358.316 116.864 357.141C118.952 356.274 120.625 354.801 122.394 353.459C134.506 344.298 146.618 335.131 158.719 325.963C173.161 315.021 187.598 304.072 202.046 293.13C213.36 284.562 224.686 276 235.994 267.427C236.396 267.124 236.916 266.922 237.117 266.382L237.129 266.364C237.395 266.376 237.579 266.233 237.715 266.02C238.294 265.628 238.892 265.254 239.453 264.832C252.891 254.661 266.31 244.473 279.753 234.32C286.099 229.528 292.409 224.695 298.637 219.744C300.754 218.063 302.221 215.967 302.351 213.153C302.493 210.131 300.985 207.91 298.82 206.034C297.519 204.906 295.993 204.164 294.456 203.41C286.217 199.378 278.002 195.305 269.758 191.286C258.964 186.019 248.147 180.806 237.354 175.54C229.961 171.936 222.616 168.225 215.199 164.674C211.698 162.994 208.144 163.059 204.79 165.221C202.644 166.604 200.55 168.071 198.433 169.501C198.285 169.602 198.113 169.709 198.149 169.977C198.379 170.428 198.817 170.725 199.196 171.069C200.828 172.577 202.507 174.038 204.11 175.575C209.776 181.026 215.525 186.387 221.321 191.695C223.189 193.405 224.473 195.448 225.165 197.882C226.206 201.54 226.052 205.221 225.23 208.866C223.627 215.956 220.747 222.546 217.116 228.804C212.118 237.425 205.908 245.126 199.03 252.286C182.908 269.077 164.402 282.656 143.75 293.29C134.057 298.283 124.02 302.422 113.44 305.111C105.798 307.053 98.0805 308.288 90.1554 307.528C86.7488 307.201 83.4369 306.459 80.326 304.987C75.7425 302.82 72.5784 299.394 70.9165 294.525C68.9589 288.784 66.889 283.084 64.7953 277.39C63.7544 274.569 62.2404 271.993 60.2178 269.748C57.7574 267.023 54.3154 266.055 50.5835 268.662C44.7699 272.729 38.8498 276.648 32.9947 280.661C30.4575 282.395 27.8434 284.016 25.4127 285.904C25.253 285.928 25.1406 286.005 25.1111 286.177L25.1051 286.201ZM241.287 137.398C241.429 137.469 241.541 137.434 241.63 137.303C242.003 137.256 242.387 137.238 242.754 137.149C246.521 136.246 250.259 135.278 253.86 133.794C268.557 127.75 282.266 120.025 294.485 109.771C300.938 104.362 306.781 98.3716 311.376 91.2527C314.333 86.675 316.675 81.8241 317.438 76.3558C318.42 69.3438 316.415 63.4123 310.867 58.8524C309.028 57.3384 306.988 56.1628 304.811 55.2009C299.772 52.9744 294.444 51.971 289.003 51.585C284.047 51.2347 279.085 51.3654 274.134 51.8522C273.726 51.8938 273.306 51.8938 272.975 52.1847C273.028 52.6716 273.354 52.9744 273.584 53.3188C275.542 56.2874 277.399 59.3155 279.096 62.4386C279.345 62.8958 279.629 63.3232 279.617 63.8873C279.587 65.0273 279.617 66.1613 279.463 67.2954C278.943 71.1725 277.523 74.7052 275.512 78.0242C273.082 82.0319 269.994 85.4816 266.535 88.6106C260.13 94.4114 252.861 98.8941 245.155 102.706C234.604 107.925 223.538 111.701 212.124 114.504C203.489 116.623 194.754 118.161 185.906 119.069C182.003 119.467 178.1 119.77 174.178 119.942C168.933 120.174 163.693 120.227 158.447 119.93C156.276 119.806 154.106 119.717 151.941 119.61C147.73 119.081 143.502 118.654 139.32 117.882C132.85 116.683 126.516 115.038 120.383 112.615C119.596 112.307 119.153 111.867 118.904 111.072C118.449 109.623 117.911 108.21 117.414 106.773C116.917 105.342 116.048 104.178 114.853 103.27C113.221 102.035 111.784 101.993 109.998 103.038C107.425 104.547 105.39 106.642 103.51 108.916C102.694 109.902 102.037 111.012 101.523 112.188C100.145 115.317 100.275 118.357 102.049 121.308C103.19 123.208 104.728 124.734 106.449 126.093C108.614 127.803 110.991 129.169 113.475 130.344C120.046 133.462 126.995 135.409 134.062 136.959C143.354 139.001 152.781 140.082 162.238 140.895C168.501 141.435 174.782 141.602 181.063 141.732C190.277 141.922 199.485 141.566 208.682 141.002C213.159 140.729 217.63 140.385 222.089 139.898C226.779 139.387 231.475 138.9 236.159 138.336C237.502 138.176 238.88 138.081 240.163 137.564C240.542 137.505 240.914 137.446 241.293 137.386L241.287 137.398ZM140.935 264.09C141.183 263.959 141.443 263.841 141.686 263.692C152.698 256.983 163.054 249.365 172.659 240.738C181.205 233.061 189.082 224.755 195.706 215.32C199.361 210.113 202.584 204.657 204.796 198.654C206.482 194.076 207.623 189.404 206.973 184.47C206.523 181.079 205.24 178.129 202.667 175.748C196.41 169.965 190.206 164.116 184.002 158.274C183.405 157.716 182.813 157.431 181.997 157.496C177.609 157.835 173.214 157.805 168.82 157.757C168.217 157.751 167.892 157.947 167.584 158.458C163.882 164.698 159.162 170.125 154.082 175.243C143.158 186.257 130.904 195.573 117.905 203.956C114.09 206.414 110.157 208.67 106.283 211.022C106.029 211.14 105.763 211.241 105.521 211.378C99.0859 214.988 92.5093 218.301 85.702 221.139C76.9608 224.784 68.0718 227.925 58.5559 228.81C55.3859 229.107 52.2395 229 49.1523 228.086C48.9157 228.014 48.6673 227.723 48.3834 228.05C48.4308 228.721 48.7679 229.309 48.9867 229.926C54.895 246.42 60.8269 262.914 66.7293 279.414C67.0191 280.228 67.4508 280.792 68.1901 281.225C71.0526 282.9 74.1634 283.796 77.4222 284.212C82.8159 284.901 88.1683 284.449 93.491 283.511C100.44 282.282 107.153 280.21 113.724 277.657C123.204 273.964 132.265 269.416 140.947 264.102L140.935 264.09ZM192.512 43.7833C192.909 44.2524 193.281 44.7452 193.695 45.1964C207.31 60.0042 217.707 76.9674 226.72 94.8626C227.17 95.7473 227.483 96.6854 227.495 97.7185C227.513 99.5057 226.714 100.919 225.531 102.142C223.538 104.196 221.025 105.396 218.417 106.423C218.287 106.476 218.145 106.494 218.003 106.506C217.76 106.524 217.524 106.488 217.441 106.203C217.37 105.954 217.441 105.716 217.671 105.591C218.044 105.396 218.44 105.229 218.831 105.069C220.847 104.226 222.799 103.258 224.39 101.72C227.01 99.1791 226.762 97.3682 225.638 95.0942C225.531 94.8804 225.425 94.6726 225.319 94.4589C220.871 85.6538 216.021 77.0802 210.598 68.8391C208.7 65.9535 206.819 63.0442 204.625 60.3664C204.637 60.2002 204.566 60.1171 204.4 60.0992C204.234 59.8855 204.063 59.6718 203.897 59.458C203.88 59.0958 203.613 58.8702 203.418 58.609C201.467 55.9846 199.432 53.4316 197.321 50.9379C191.205 43.7239 184.546 37.0919 176.798 31.6295C171.275 27.7346 165.372 24.5937 158.796 22.8778C154.177 21.6666 149.504 21.2747 144.767 22.0465C138.48 23.0737 133.063 25.8821 128.272 30.0264C127.439 30.7448 126.741 31.5582 126.132 32.4667C122.92 37.2463 120.324 42.3346 118.337 47.7435C115.013 56.7803 113.552 66.1435 113.499 75.7561C113.499 76.1302 113.451 76.5161 113.641 76.8724C113.605 80.1973 113.789 83.5044 114.167 86.8115C115.102 94.9042 117.053 102.747 119.833 110.395C120.087 111.09 120.466 111.469 121.14 111.737C124.133 112.906 127.178 113.916 130.283 114.747C138.758 117.027 147.393 118.244 156.14 118.772C163.509 119.218 170.878 119.164 178.242 118.689C185.126 118.244 191.974 117.401 198.776 116.219C211.095 114.076 223.107 110.846 234.728 106.191C243.972 102.486 252.796 97.9738 260.792 91.9711C265.778 88.2246 270.302 84.0091 273.774 78.7604C276.459 74.7112 278.322 70.359 278.529 65.4073C278.576 64.2732 278.345 63.2936 277.789 62.2961C268.883 46.4136 257.066 33.1613 242.286 22.5809C238.708 20.0219 235.036 17.6054 231.103 15.6223C231.073 15.5867 231.049 15.5392 231.008 15.5154C224.295 11.7986 217.269 8.85368 209.918 6.66278C209.38 6.50247 208.818 6.66278 208.292 6.31841C207.588 5.86717 206.742 5.75436 205.683 5.64155C207.085 6.26498 208.286 6.78747 209.474 7.33964C217.394 11.0149 224.668 15.7292 231.44 21.245C231.765 21.5062 232.025 21.8744 232.481 21.9397C232.824 22.3731 233.249 22.7175 233.705 23.0262C233.711 23.1747 233.788 23.2459 233.936 23.2459C234.45 23.7328 234.953 24.2374 235.485 24.7065C242.251 30.7626 248.289 37.4778 253.671 44.7927C257.977 50.641 261.803 56.7862 265.163 63.2342C265.866 64.5879 266.588 65.9357 267.741 66.951C269.025 68.085 270.326 69.3378 272.224 68.0316C272.431 67.8891 272.703 67.9366 272.869 68.1385C273.099 68.4116 272.987 68.6847 272.762 68.8925C272.064 69.5516 271.236 69.8247 270.29 69.6525C269.143 69.4388 268.167 68.8688 267.315 68.085C266.115 66.9866 265.198 65.6804 264.441 64.2376C256.084 48.2007 245.243 34.141 231.31 22.5868C221.865 14.7554 211.462 8.58056 199.799 4.66782C196.392 3.52191 192.944 2.47693 189.378 2.01975C183.913 1.31914 178.431 1.57444 172.984 2.35818C164.118 3.62878 155.708 6.37779 147.772 10.5458C141.627 13.7758 135.949 17.6707 130.91 22.474C129.367 23.6615 128.065 25.1102 126.835 26.6005C125.647 28.0314 124.966 29.7295 125.049 31.9976C126.191 30.2995 127.515 29.1892 128.87 28.1146C137.102 21.5834 146.358 19.2738 156.672 21.2866C162.066 22.3375 167.052 24.4274 171.795 27.1468C179.117 31.3504 185.481 36.7534 191.371 42.768C191.726 43.1302 192.004 43.6052 192.518 43.7952L192.512 43.7833Z" fill="#121212"/>
<path d="M25.3968 285.931C27.8276 284.043 30.4417 282.422 32.9788 280.688C38.8339 276.681 44.754 272.756 50.5677 268.689C54.2936 266.082 57.7357 267.05 60.2019 269.775C62.2246 272.014 63.7445 274.591 64.7795 277.417C66.8731 283.111 68.9431 288.811 70.9007 294.552C72.5626 299.421 75.7267 302.847 80.3102 305.014C83.4211 306.486 86.733 307.229 90.1396 307.555C98.0587 308.315 105.783 307.08 113.424 305.139C124.01 302.449 134.047 298.311 143.734 293.317C164.386 282.683 182.892 269.105 199.014 252.314C205.886 245.153 212.102 237.452 217.1 228.831C220.731 222.573 223.611 215.983 225.214 208.894C226.036 205.254 226.19 201.573 225.149 197.909C224.457 195.469 223.174 193.433 221.305 191.723C215.509 186.415 209.76 181.053 204.094 175.603C202.492 174.059 200.812 172.598 199.18 171.096C198.801 170.746 198.358 170.455 198.133 170.004C198.097 169.736 198.275 169.63 198.417 169.529C200.528 168.092 202.628 166.631 204.775 165.248C208.128 163.081 211.682 163.021 215.183 164.702C222.6 168.258 229.945 171.963 237.338 175.567C248.131 180.833 258.949 186.046 269.742 191.313C277.986 195.333 286.201 199.412 294.44 203.437C295.971 204.185 297.503 204.933 298.804 206.061C300.969 207.932 302.471 210.158 302.335 213.18C302.205 216.001 300.738 218.091 298.621 219.771C292.393 224.717 286.083 229.55 279.737 234.347C266.294 244.506 252.869 254.695 239.438 264.859C238.882 265.281 238.278 265.655 237.699 266.047C237.421 266.023 237.143 265.993 237.119 266.391L237.107 266.409C236.569 266.13 236.102 266.474 235.623 266.611C233.062 267.347 230.507 268.095 227.793 267.947C228.189 267.614 228.573 267.264 228.987 266.949C242.466 256.678 255.944 246.412 269.417 236.134C269.825 235.82 270.7 235.511 270.304 234.911C269.807 234.163 269.227 234.941 268.79 235.267C265.691 237.601 262.615 239.97 259.528 242.321C234.978 261.018 210.434 279.727 185.879 298.411C180.834 302.253 175.86 306.189 170.691 309.865C170.425 309.859 170.188 309.894 170.141 310.227L170.088 310.156L170.135 310.233C169.857 310.179 169.615 310.162 169.662 310.571L169.603 310.601C169.396 310.524 169.307 310.601 169.331 310.815L169.343 310.868C168.816 310.619 168.438 310.993 168.03 311.201C166.048 312.204 164.108 313.273 162.092 314.211C157.674 316.271 153.149 318.023 148.536 319.566C143.799 321.152 138.973 322.452 134.094 323.533C130.605 324.31 127.091 324.969 123.561 325.498C120.261 325.997 116.955 326.43 113.625 326.715C112.265 326.828 110.887 326.816 109.544 327.024C107.249 327.38 104.931 327.41 102.642 327.457C94.4865 327.635 86.319 327.683 78.187 326.709C75.6202 326.4 73.0357 326.157 70.4926 325.717C65.9978 324.94 61.5385 323.99 57.1324 322.755C50.6446 320.938 44.4347 318.48 38.6151 315.078C34.5461 312.697 30.8675 309.829 27.9873 306.047C24.1608 301.024 22.7 295.461 24.3264 289.22C24.5866 288.217 25.042 287.267 25.107 286.216L25.1011 286.222C25.2667 286.204 25.3554 286.097 25.4028 285.949L25.3968 285.931ZM272.776 198.485C272.634 198.485 272.492 198.485 272.35 198.485C271.617 198.479 270.86 198.551 270.534 199.311C270.227 200.035 270.605 200.682 271.055 201.27C271.611 201.988 272.255 202.612 272.965 203.164C277.549 206.703 282.665 209.167 288.247 210.645C289.2 210.894 290.181 211.09 291.187 211.019C291.855 210.972 292.541 210.894 292.902 210.229C293.275 209.541 292.89 208.941 292.518 208.395C292.062 207.73 291.494 207.16 290.873 206.637C286.745 203.194 281.99 200.949 276.928 199.299C275.579 198.859 274.207 198.521 272.776 198.485ZM261.663 192.227C261.03 192.204 260.575 192.198 260.356 192.661C260.137 193.118 260.439 193.48 260.705 193.813C260.912 194.068 261.143 194.311 261.391 194.531C262.604 195.606 263.97 196.443 265.466 197.066C265.898 197.244 266.353 197.393 266.803 197.529C267.264 197.666 267.767 197.761 268.11 197.316C268.465 196.847 268.187 196.419 267.903 196.027C267.737 195.796 267.595 195.54 267.388 195.356C265.862 193.979 264.141 192.922 262.166 192.31C261.941 192.239 261.699 192.239 261.663 192.233V192.227Z" fill="#FA4616"/>
<path d="M203.903 59.4668C204.069 59.6806 204.24 59.8943 204.406 60.1021C204.406 60.2505 204.489 60.3396 204.631 60.3693C206.825 63.053 208.706 65.9564 210.604 68.8419C216.027 77.083 220.877 85.6566 225.325 94.4618C225.431 94.6755 225.537 94.8833 225.644 95.0971C226.768 97.3711 227.022 99.182 224.396 101.723C222.805 103.261 220.853 104.223 218.837 105.072C218.446 105.238 218.056 105.398 217.677 105.594C217.447 105.713 217.376 105.951 217.447 106.206C217.53 106.485 217.766 106.527 218.009 106.509C218.151 106.497 218.293 106.479 218.423 106.426C221.031 105.398 223.544 104.199 225.537 102.145C226.726 100.922 227.525 99.5085 227.501 97.7214C227.489 96.6883 227.17 95.7502 226.726 94.8655C217.713 76.9702 207.316 60.0071 193.701 45.1993C193.287 44.748 192.915 44.2552 192.518 43.7862C192.542 43.0084 191.986 42.4265 191.826 41.7022C191.596 40.6512 191.726 40.39 192.844 40.0872C193.216 40.4494 193.607 40.7937 193.962 41.1678C196.895 44.2612 199.621 47.5327 202.153 50.9704C202.348 51.2376 202.537 51.5107 202.75 51.766C202.981 52.0391 203.259 52.2232 203.596 51.9382C203.862 51.7126 203.82 51.4395 203.643 51.1782C203.46 50.9051 203.27 50.632 203.069 50.3648C200.402 46.7311 197.522 43.2815 194.405 40.0337C187.225 32.5705 179.2 26.2471 169.778 21.8594C162.48 18.4632 154.88 16.4445 146.748 17.0679C142.94 17.3589 139.308 18.3029 135.878 20.001C135.5 20.191 135.109 20.3751 134.89 20.7729C133.986 20.9985 133.205 21.4735 132.43 21.9663C131.963 22.2632 131.496 22.56 130.898 22.471C135.937 17.6676 141.615 13.7668 147.76 10.5428C155.697 6.37472 164.107 3.62571 172.972 2.35511C178.419 1.57731 183.901 1.31607 189.366 2.01668C192.927 2.47386 196.38 3.51884 199.787 4.66475C211.45 8.58343 221.847 14.7524 231.298 22.5838C245.238 34.1439 256.072 48.1977 264.429 64.2345C265.18 65.6833 266.103 66.9835 267.303 68.082C268.155 68.8597 269.131 69.4297 270.278 69.6494C271.225 69.8275 272.059 69.5485 272.75 68.8894C272.969 68.6816 273.082 68.4085 272.857 68.1354C272.685 67.9335 272.419 67.886 272.212 68.0285C270.314 69.3407 269.013 68.082 267.729 66.9479C266.576 65.9326 265.855 64.5789 265.151 63.2311C261.797 56.789 257.965 50.6379 253.659 44.7896C248.272 37.4747 242.239 30.7536 235.473 24.7034C234.947 24.2284 234.438 23.7297 233.924 23.2428C233.906 23.1063 233.829 23.035 233.693 23.0231C233.244 22.7085 232.812 22.37 232.469 21.9366C232.528 21.3666 232.126 20.9985 231.872 20.5651C231.286 19.5676 230.458 18.7126 230.15 17.5429C229.873 16.492 230.02 16.1358 231.091 15.6252C235.024 17.6082 238.702 20.0248 242.275 22.5838C257.054 33.1642 268.871 46.4164 277.778 62.2989C278.333 63.2905 278.564 64.2761 278.517 65.4101C278.31 70.3619 276.441 74.714 273.762 78.7633C270.29 84.006 265.766 88.2275 260.78 91.974C252.778 97.9826 243.96 102.489 234.716 106.194C223.095 110.849 211.083 114.073 198.764 116.222C191.963 117.41 185.114 118.247 178.23 118.692C170.867 119.173 163.497 119.221 156.128 118.775C147.381 118.253 138.747 117.03 130.272 114.75C127.172 113.913 124.121 112.909 121.128 111.74C120.454 111.478 120.075 111.092 119.821 110.398C117.047 102.75 115.09 94.9071 114.155 86.8144C113.771 83.5132 113.593 80.2002 113.629 76.8752C114.055 76.8455 114.167 76.5665 114.173 76.1924C114.185 75.5274 114.138 74.8565 114.226 74.2034C114.794 69.9819 115.74 65.8554 117.302 61.8714C120.182 54.5091 124.807 48.5301 131.395 44.2137C137.114 40.4672 143.525 38.6088 150.309 38.1813C153.97 37.9497 157.648 38.0744 161.303 38.6622C164.982 39.256 168.607 40.01 172.15 41.1619C177.461 42.8896 182.523 45.1696 187.385 47.9364C192.317 50.7448 196.96 53.9569 201.319 57.6025C202.117 58.2734 202.72 59.2946 203.891 59.4609L203.903 59.4668ZM173.83 81.1264C173.64 80.6633 173.226 80.408 172.866 80.1111C169.908 77.659 166.685 75.6284 163.16 74.1203C158.813 72.2619 154.313 71.205 149.552 71.7275C147.44 71.9591 145.37 72.3688 143.513 73.5087C142.579 73.5206 141.846 74.055 141.118 74.524C139.835 75.3553 138.498 76.1271 137.44 77.279C137.209 77.5343 136.919 77.9261 136.564 77.374C140.125 72.0659 145.033 69.1447 151.456 68.836C155.46 68.646 159.239 69.5307 162.906 71.0506C168.939 73.5562 174.072 77.3918 178.703 81.9398C185.989 89.0884 191.584 97.4245 195.949 106.633C196.162 107.085 196.238 108.023 196.978 107.69C197.829 107.31 197.126 106.61 196.895 106.129C193.134 98.2023 188.449 90.8756 182.553 84.3682C177.839 79.173 172.582 74.6606 166.313 71.4306C161.753 69.0794 156.98 67.5832 151.781 67.7138C145.861 67.8623 141 70.2253 137.156 74.714C134.553 77.754 132.886 81.2926 131.78 85.1163C129.769 92.069 129.68 99.1464 130.508 106.277C130.603 107.079 130.697 107.88 130.857 108.67C130.993 109.365 131.389 109.519 131.963 109.05C132.069 109.513 132.448 109.566 132.826 109.65C134.394 109.97 135.955 110.309 137.516 110.635C140.645 111.288 143.809 111.763 146.979 112.125C149.451 112.41 151.935 112.636 154.425 112.808C157.761 113.04 161.102 113.153 164.438 113.277C166.265 113.349 168.105 113.242 169.944 113.111C172.712 112.915 175.48 112.773 178.247 112.482C181.429 112.149 184.57 111.567 187.71 110.962C189.402 110.635 190.466 109.501 190.744 107.803C190.91 106.788 190.845 105.743 190.655 104.698C190.283 102.626 189.153 100.916 188.112 99.182C184.422 93.0368 180.17 87.325 174.924 82.397C174.516 82.0111 174.19 81.542 173.824 81.1145L173.83 81.1264ZM190.496 4.93787C190.212 4.93787 189.922 4.89631 189.65 4.94381C189.005 5.05662 188.272 5.08631 187.959 5.78692C187.616 6.55878 188.112 7.15252 188.556 7.70469C189.242 8.55968 190.111 9.2306 191.016 9.83028C195.434 12.7515 200.26 14.7108 205.423 15.8152C206.375 16.017 207.369 16.1655 208.368 15.9695C209.959 15.6608 210.338 14.7761 209.362 13.4699C208.646 12.508 207.688 11.8015 206.707 11.1424C203.992 9.31372 201.082 7.88281 198.019 6.74877C195.582 5.84629 193.11 5.08037 190.496 4.93193V4.93787ZM215.034 16.7236C214.188 16.7236 213.626 16.6464 213.313 17.1808C213.011 17.6914 213.183 18.2079 213.538 18.6176C215.294 20.6601 217.482 21.9247 220.167 22.2335C220.635 22.2869 221.149 22.2453 221.392 21.7347C221.616 21.2597 221.463 20.7907 221.155 20.4107C219.481 18.3564 217.287 17.1986 215.04 16.7176L215.034 16.7236Z" fill="#DBF505"/>
<path d="M106.266 211.025C110.145 208.674 114.078 206.418 117.887 203.96C130.886 195.576 143.141 186.26 154.064 175.247C159.144 170.123 163.87 164.702 167.566 158.462C167.868 157.951 168.199 157.755 168.802 157.761C173.197 157.814 177.597 157.844 181.979 157.5C182.801 157.434 183.393 157.719 183.984 158.277C190.188 164.12 196.392 169.962 202.649 175.751C205.222 178.132 206.505 181.083 206.955 184.473C207.605 189.407 206.464 194.086 204.778 198.658C202.567 204.66 199.349 210.117 195.688 215.324C189.064 224.758 181.193 233.065 172.641 240.742C163.036 249.369 152.686 256.981 141.668 263.696C141.426 263.844 141.171 263.963 140.917 264.094C140.432 263.838 140.16 263.405 139.876 262.96C137.569 259.379 135.251 255.805 132.933 252.237C128 244.66 123.068 237.084 118.13 229.514C114.38 223.767 110.618 218.025 106.875 212.272C106.626 211.886 106.23 211.554 106.242 211.025H106.266Z" fill="#D0E6EC"/>
<path d="M151.932 119.623C154.102 119.73 156.273 119.819 158.438 119.944C163.683 120.241 168.923 120.187 174.169 119.956C178.09 119.784 181.994 119.481 185.897 119.083C194.745 118.175 203.48 116.637 212.115 114.517C223.529 111.715 234.595 107.939 245.146 102.72C252.846 98.9078 260.12 94.4251 266.525 88.6243C269.979 85.4953 273.072 82.0456 275.503 78.0379C277.514 74.7189 278.939 71.1862 279.454 67.3091C279.608 66.175 279.584 65.035 279.608 63.901C279.619 63.3429 279.336 62.9154 279.087 62.4523C277.39 59.3292 275.533 56.2952 273.575 53.3325C273.345 52.9822 273.019 52.6793 272.966 52.1984C273.297 51.9075 273.717 51.9075 274.125 51.8659C279.075 51.3791 284.037 51.2484 288.993 51.5987C294.435 51.9847 299.763 52.9822 304.802 55.2146C306.973 56.1765 309.019 57.358 310.858 58.8661C316.406 63.426 318.411 69.3575 317.429 76.3695C316.666 81.8378 314.324 86.6887 311.367 91.2664C306.772 98.3853 300.928 104.37 294.476 109.785C282.251 120.033 268.548 127.764 253.851 133.808C250.25 135.286 246.512 136.254 242.744 137.162C242.378 137.251 241.999 137.269 241.621 137.317C241.479 137.246 241.361 137.269 241.278 137.412C240.899 137.471 240.527 137.531 240.148 137.59C239.752 137.097 239.196 137.341 238.711 137.275C236.665 136.996 234.689 136.527 233.016 135.215C233.234 135.144 233.453 135.049 233.678 135.007C239.811 133.873 245.826 132.312 251.687 130.144C256.217 128.47 260.576 126.445 264.621 123.785C264.988 123.542 265.609 123.299 265.26 122.723C264.893 122.123 264.42 122.604 264.053 122.847C262.149 124.082 260.18 125.204 258.139 126.19C247.547 131.29 236.268 133.826 224.694 135.268C220.43 135.803 216.142 136.064 211.849 136.242C211.381 136.26 210.891 136.201 210.577 136.676C208.661 136.866 206.745 137.222 204.829 137.216C198.932 137.216 193.042 137.513 187.145 137.026C183.727 136.741 180.32 136.391 176.931 135.874C171.478 135.049 166.114 133.867 160.951 131.872C158.438 130.898 156.025 129.741 153.884 128.06C153.014 127.378 152.222 126.665 151.636 125.733C150.595 124.076 150.388 122.396 151.494 120.674C151.695 120.36 151.908 120.033 151.932 119.641V119.623ZM307.842 72.0174C308.268 72.0174 308.694 72.053 309.119 72.0174C312.248 71.6968 313.768 69.3456 312.792 66.3472C312.479 65.3913 312.017 64.5126 311.42 63.711C309.025 60.5167 305.831 58.5217 302.028 57.4708C300.42 57.0255 298.799 56.8177 297.131 57.2096C294.464 57.833 293.234 59.8992 293.985 62.571C294.393 64.0197 295.174 65.2547 296.173 66.3472C298.131 68.4728 300.479 70.0403 303.152 71.0971C304.648 71.6908 306.198 72.1183 307.842 72.0233V72.0174ZM286.793 54.4071C285.693 54.3893 284.617 54.5556 283.623 55.0365C282.843 55.4105 282.086 55.8855 282.121 56.9068C282.157 57.833 282.831 58.308 283.576 58.6642C284.8 59.2402 286.096 59.442 287.438 59.3055C288.479 59.1986 289.508 59.0383 290.389 58.4149C291.59 57.5599 291.59 56.3724 290.401 55.5055C289.331 54.7218 288.089 54.4784 286.793 54.4071Z" fill="#DBF505"/>
<path d="M106.269 211.021C106.257 211.549 106.647 211.882 106.901 212.268C110.639 218.021 114.406 223.756 118.156 229.51C123.094 237.08 128.027 244.656 132.959 252.232C135.284 255.8 137.596 259.375 139.903 262.955C140.186 263.4 140.459 263.834 140.943 264.089C132.261 269.409 123.201 273.951 113.72 277.644C107.15 280.203 100.443 282.275 93.488 283.498C88.1593 284.442 82.8128 284.888 77.4191 284.199C74.1545 283.783 71.0495 282.887 68.187 281.212C67.4477 280.779 67.016 280.215 66.7262 279.402C60.8238 262.902 54.8978 246.407 48.9836 229.913C48.7648 229.296 48.4277 228.708 48.3804 228.037C48.6583 227.711 48.9127 228.002 49.1492 228.073C52.2305 228.987 55.3828 229.094 58.5528 228.797C68.0687 227.913 76.9578 224.772 85.699 221.126C92.5062 218.288 99.0887 214.981 105.517 211.365C105.76 211.228 106.026 211.128 106.28 211.009L106.269 211.021Z" fill="#859295"/>
<path d="M227.799 267.935C230.508 268.083 233.062 267.335 235.629 266.599C236.108 266.462 236.57 266.112 237.114 266.397C236.919 266.931 236.392 267.133 235.99 267.442C224.682 276.015 213.356 284.577 202.042 293.145C187.6 304.087 173.158 315.036 158.715 325.978C146.609 335.152 134.502 344.313 122.39 353.474C120.622 354.81 118.948 356.283 116.86 357.156C114.039 358.331 111.123 358.978 108.078 359.186C104.198 359.447 100.46 358.889 96.7934 357.666C95.6697 357.292 94.6229 356.74 93.5642 356.217C80.7659 349.888 67.9617 343.565 55.1574 337.248C44.642 332.058 34.1265 326.869 23.6052 321.692C17.7501 318.812 11.8892 315.944 6.0341 313.065C4.69749 312.406 3.56196 311.467 2.69257 310.262C1.28499 308.315 1.23177 306.213 2.16621 304.058C3.17754 301.724 4.87491 299.967 6.88574 298.488C7.83793 297.788 8.81968 297.129 9.79553 296.464C14.5683 293.222 19.341 289.98 24.1197 286.738C24.4273 286.53 24.717 286.269 25.1074 286.21C25.0423 287.261 24.5869 288.217 24.3267 289.214C22.7003 295.448 24.1611 301.012 27.9876 306.041C30.8678 309.823 34.5464 312.691 38.6154 315.071C44.4409 318.479 50.6449 320.932 57.1328 322.748C61.5388 323.983 65.9982 324.933 70.493 325.711C73.0361 326.151 75.6146 326.394 78.1873 326.703C86.3193 327.682 94.4809 327.629 102.643 327.451C104.931 327.403 107.25 327.374 109.544 327.017C110.887 326.81 112.265 326.827 113.625 326.709C116.955 326.424 120.261 325.99 123.561 325.492C127.092 324.957 130.605 324.298 134.094 323.526C138.973 322.44 143.794 321.145 148.537 319.56C153.144 318.016 157.674 316.259 162.092 314.205C164.109 313.266 166.049 312.198 168.03 311.194C168.432 310.992 168.817 310.618 169.337 310.862C169.213 311.004 169.112 311.171 168.97 311.283C166.681 313.041 164.393 314.798 162.092 316.544C149.631 326.032 137.176 335.514 124.714 345.002C122.343 346.807 119.965 348.612 117.251 349.888C114.844 351.016 112.371 351.943 109.669 352.044C109.266 352.055 108.858 352.162 108.912 352.667C108.953 353.071 109.326 353.136 109.669 353.142C110.284 353.154 110.893 353.112 111.502 352.999C115.825 352.186 119.634 350.215 123.117 347.632C128.133 343.915 133.042 340.05 138.009 336.268C154.492 323.71 170.975 311.153 187.464 298.601C197.778 290.752 208.099 282.903 218.419 275.059C221.542 272.684 224.676 270.321 227.805 267.958L227.799 267.935ZM53.1466 330.141C52.8095 330.129 52.6616 330.241 52.5552 330.408C52.3955 330.651 52.4901 330.895 52.6853 331.031C52.9928 331.245 53.3359 331.417 53.673 331.577C57.6355 333.477 61.6039 335.371 65.5664 337.265C73.7103 341.16 81.8541 345.049 89.998 348.944C90.1695 349.027 90.341 349.105 90.5125 349.182C90.8437 349.33 91.1749 349.378 91.376 349.015C91.5948 348.63 91.3405 348.392 91.0271 348.226C90.6959 348.048 90.3528 347.881 90.0157 347.721C84.0483 344.865 78.075 342.015 72.1075 339.165C66.0928 336.292 60.084 333.418 54.0692 330.55C53.7321 330.39 53.3832 330.247 53.1466 330.146V330.141Z" fill="#C30000"/>
<path d="M75.3135 163.752C76.3839 163.063 77.4603 162.368 78.5308 161.685C89.3124 154.81 99.1773 146.812 107.877 137.396C109.45 135.691 110.97 133.934 112.413 132.111C112.774 131.654 113.087 131.417 113.714 131.719C117.647 133.59 121.781 134.937 126.051 136.196C125.75 136.535 125.419 136.594 125.081 136.683C123.39 137.134 121.746 137.716 120.196 138.547C119.315 139.022 118.493 139.569 117.807 140.311C116.453 141.789 116.323 143.452 117.464 145.108C118.174 146.135 119.114 146.925 120.131 147.632C122.603 149.342 125.342 150.511 128.157 151.497C133.923 153.527 139.885 154.774 145.899 155.76C152.713 156.876 159.579 157.47 166.463 157.784C166.652 158.254 166.309 158.515 166.126 158.818C163.151 163.639 159.549 167.973 155.676 172.076C147.224 181.035 137.773 188.813 127.796 195.98C120.989 200.866 113.927 205.361 106.665 209.541C106.381 209.707 106.073 209.838 105.778 209.986C105.293 209.737 105.02 209.303 104.731 208.864C101.49 203.87 98.2369 198.883 94.9841 193.902C90.9802 187.774 86.9585 181.653 82.9605 175.519C80.4056 171.601 77.8684 167.676 75.3194 163.752H75.3135Z" fill="#FA4616"/>
<path d="M6.5683 111.652C5.8586 110.108 5.34998 108.487 4.79996 106.866C5.21986 106.617 5.45643 106.932 5.71666 107.068C6.89358 107.716 8.17105 108.048 9.47809 108.274C9.80928 108.333 10.1346 108.375 10.4539 108.25C10.6314 108.179 10.7851 108.054 10.791 107.84C10.797 107.632 10.7023 107.442 10.5249 107.383C10.17 107.258 9.80337 107.169 9.43077 107.11C4.95372 106.427 2.50525 103.631 2.36331 99.0944C2.26868 96.1436 2.99021 93.3589 4.04294 90.6455C6.02419 85.5097 8.92807 80.9082 12.2992 76.6036C20.4726 66.1776 30.302 57.6931 41.9766 51.4232C46.1165 49.1967 50.4398 47.4273 55.0825 46.5545C57.3239 46.133 59.5654 45.943 61.8424 46.3586C66.1479 47.1483 68.5668 49.8973 68.7383 54.285C68.7561 54.665 68.7383 55.045 68.7561 55.425C68.7679 55.7218 68.8566 56.0187 69.1997 56.0543C69.6137 56.0959 69.797 55.7812 69.8325 55.4368C69.8739 54.9678 69.8739 54.4869 69.8207 54.0178C69.7319 53.1866 69.5959 52.3553 69.4776 51.5122C70.0336 51.5241 70.2583 51.9397 70.554 52.2188C76.2671 57.5506 81.9566 62.912 87.6934 68.2141C88.616 69.0691 88.9472 70.0012 89.0004 71.2006C89.1896 75.5883 87.9713 79.6436 86.2148 83.58C83.8196 88.9474 80.549 93.7627 76.8231 98.2751C68.9572 107.787 59.6482 115.618 49.115 121.995C48.7957 122.191 48.5059 122.452 48.1037 122.476C47.9559 121.751 47.4472 121.235 47.0569 120.653C45.3832 118.142 43.9638 115.464 42.1304 113.047C39.6819 109.823 35.4414 108.695 31.7391 110.168C26.0674 112.424 20.2124 113.356 14.1207 113.107C11.5007 113 8.98721 112.626 6.55647 111.664L6.5683 111.652ZM8.29525 94.208C8.24202 97.1707 9.51948 98.6966 12.4174 99.1954C13.1745 99.326 13.9137 99.3201 14.6708 99.231C18.4026 98.7976 21.7737 97.331 25.0443 95.5914C31.9402 91.9161 38.0673 87.1781 43.7509 81.8404C48.565 77.322 52.9652 72.4415 56.5137 66.8307C57.7853 64.8239 58.8794 62.722 59.6127 60.4539C60.0267 59.1893 60.3165 57.8949 60.2574 56.5471C60.1509 54.0416 58.6192 52.3791 56.1293 52.1119C54.9997 51.9932 53.8701 52.0347 52.7404 52.2485C48.9258 52.9788 45.4542 54.5759 42.1304 56.4937C31.544 62.5914 22.5485 70.5416 15.0374 80.1779C12.7013 83.1704 10.6491 86.3587 9.25335 89.9271C8.71516 91.2986 8.30116 92.7118 8.30116 94.208H8.29525ZM72.1804 60.0561C71.2282 59.9433 70.8911 60.3174 71.1218 61.1189C71.2755 61.6711 71.6067 62.1402 71.9379 62.6033C74.1262 65.6254 76.9413 67.9885 79.8984 70.1972C80.6141 70.7316 81.4066 71.165 82.1813 71.6103C82.5066 71.7943 82.8674 71.9368 83.2281 72.014C84.204 72.2218 84.6061 71.7647 84.2572 70.8503C84.1094 70.4584 83.8905 70.0784 83.6362 69.74C80.8506 66.0351 77.4736 62.9833 73.4934 60.6142C73.0498 60.3471 72.5826 60.1155 72.1863 60.0502L72.1804 60.0561ZM60.2337 47.5282C59.5713 47.5461 59.0982 47.4867 58.6428 47.6589C58.2939 47.7895 57.8799 47.8904 57.874 48.3595C57.874 48.7335 58.1756 48.9413 58.4772 49.072C60.0977 49.7726 61.7773 50.111 63.5516 49.8498C63.9419 49.7904 64.35 49.6954 64.4328 49.2738C64.5274 48.7632 64.0898 48.5376 63.7172 48.3417C62.5639 47.7361 61.3101 47.5876 60.2337 47.5164V47.5282ZM65.5683 50.3663C65.0715 50.3426 64.8113 50.5979 64.7818 51.1263C64.7463 51.821 65.3436 52.581 65.9646 52.6403C66.4673 52.6878 66.834 52.3316 66.8399 51.7854C66.8458 51.0729 66.2366 50.396 65.5624 50.3663H65.5683Z" fill="#FA4616"/>
<path d="M75.3141 163.744C77.8631 167.669 80.4003 171.593 82.9552 175.512C86.9592 181.645 90.9749 187.767 94.9788 193.894C98.2375 198.875 101.484 203.863 104.725 208.856C105.015 209.301 105.287 209.735 105.772 209.978C95.1326 216.017 84.1322 221.23 72.4339 224.863C68.0929 226.211 63.6809 227.28 59.1565 227.701C55.7677 228.016 52.3611 228.093 49.061 226.912C48.091 226.567 47.5351 226.015 47.1803 225.012C41.8575 210.103 36.4933 195.212 31.1528 180.309C30.999 179.882 30.6974 179.454 30.8985 178.89C32.2646 178.647 33.6841 178.736 35.0857 178.617C41.3548 178.095 47.3518 176.474 53.2423 174.366C60.6114 171.724 67.5783 168.233 74.3264 164.284C74.6517 164.094 74.9888 163.922 75.32 163.744H75.3141Z" fill="#C30000"/>
<path d="M48.876 123.46C50.3073 122.54 51.7444 121.637 53.1638 120.699C63.7562 113.699 73.0829 105.327 80.6589 95.0674C82.7171 92.2827 84.5564 89.3556 86.1237 86.2622C88.992 80.6039 89.8733 77.2552 90.1512 70.7359C90.6066 70.6766 90.79 71.0744 91.0324 71.3C98.4075 78.1814 105.765 85.0807 113.146 91.9562C113.696 92.4727 114.009 93.0368 114.139 93.7671C114.358 94.9783 114.553 96.2014 114.879 97.3889C115.068 98.0835 114.89 98.3982 114.299 98.7367C111.667 100.245 109.213 102.02 106.859 103.926C104.866 105.541 103.109 107.399 101.702 109.561C100.738 111.039 100.034 112.624 99.6849 114.376C99.1704 116.976 99.7027 119.375 100.968 121.631C102.098 123.644 103.683 125.265 105.463 126.708C107.444 128.317 109.644 129.599 111.992 130.864C111.129 131.903 110.33 132.894 109.497 133.856C100.27 144.502 89.5125 153.331 77.6604 160.86C76.6255 161.519 75.626 162.237 74.4904 162.724C74.3781 162.516 74.2834 162.302 74.1592 162.106C70.3741 156.341 66.5772 150.582 62.804 144.811C58.1495 137.692 53.5128 130.567 48.8701 123.442L48.876 123.46Z" fill="#D0E6EC"/>
<path d="M207.334 180.246C212 184.616 216.678 188.974 221.333 193.362C223.284 195.203 224.112 197.607 224.538 200.184C225.112 203.622 224.692 207.012 223.769 210.319C221.622 218.002 218.293 225.157 213.969 231.848C208.256 240.695 201.408 248.592 193.909 255.936C182.287 267.324 169.418 277.097 155.525 285.522C155.206 285.718 154.893 285.944 154.502 285.997C154.266 285.534 154.059 285.047 153.781 284.614C150.682 279.751 147.6 274.888 144.454 270.055C143.431 268.476 142.556 266.796 141.308 265.365C143.082 264.029 145.039 262.972 146.902 261.767C160.529 252.932 173.108 242.814 184.274 230.981C190.591 224.284 196.339 217.135 200.976 209.138C203.933 204.037 206.387 198.718 207.576 192.893C208.434 188.695 208.487 184.521 207.085 180.407C207.168 180.353 207.251 180.306 207.328 180.252L207.334 180.246ZM212.083 189.568C211.663 189.598 211.426 189.817 211.45 190.292C211.462 190.637 211.586 190.94 211.752 191.23C213.325 193.985 215.424 196.265 217.991 198.106C218.441 198.433 219.026 198.795 219.523 198.284C219.972 197.827 219.576 197.281 219.351 196.841C217.92 194.045 215.785 191.86 213.295 190.001C212.952 189.746 212.556 189.58 212.083 189.568Z" fill="#FA4616"/>
<path d="M48.8554 123.467C53.4981 130.592 58.1348 137.717 62.7893 144.835C66.5625 150.607 70.3594 156.366 74.1445 162.131C74.2746 162.327 74.3693 162.541 74.4757 162.749C72.9676 163.817 71.3294 164.66 69.7148 165.539C61.3048 170.123 52.5754 173.923 43.2251 176.137C39.44 177.034 35.6076 177.509 31.7279 177.634C30.1961 177.681 30.1902 177.663 29.6934 176.274C24.6841 162.321 19.6747 148.374 14.6713 134.421C14.4998 133.94 14.21 133.477 14.281 132.925C14.6536 132.664 15.0144 132.913 15.3692 132.967C20.6802 133.78 25.8196 132.878 30.8881 131.393C36.7609 129.671 42.3084 127.184 47.6193 124.138C48.0274 123.906 48.4473 123.692 48.8613 123.473L48.8554 123.467Z" fill="#859295"/>
<path d="M141.332 265.364C142.574 266.795 143.449 268.475 144.478 270.055C147.619 274.882 150.706 279.751 153.805 284.613C154.083 285.053 154.284 285.534 154.527 285.997C153.113 287.125 151.487 287.897 149.925 288.769C139.901 294.351 129.539 299.154 118.562 302.556C112.82 304.337 106.982 305.679 101.009 306.344C95.7218 306.938 90.4463 306.908 85.2418 305.572C81.711 304.664 78.476 303.185 75.8383 300.573C74.1231 298.869 72.9285 296.856 72.1241 294.588C70.9413 291.239 69.7407 287.891 68.5579 284.542C68.3686 284.008 68.1143 283.491 68.1202 282.903C68.1853 282.844 68.2444 282.785 68.3036 282.719C70.3085 283.55 72.2897 284.441 74.4307 284.863C76.3291 285.237 78.2335 285.539 80.1674 285.634C87.9446 286.014 95.4793 284.631 102.908 282.511C114.73 279.145 125.825 274.074 136.512 268.042C138.115 267.14 139.723 266.255 141.332 265.364Z" fill="#C30000"/>
<path d="M151.931 119.631C151.907 120.029 151.694 120.35 151.493 120.664C150.387 122.386 150.594 124.067 151.635 125.723C152.221 126.655 153.013 127.368 153.882 128.051C156.029 129.737 158.436 130.889 160.95 131.862C166.113 133.857 171.471 135.039 176.93 135.864C180.325 136.381 183.726 136.731 187.144 137.016C193.04 137.503 198.937 137.206 204.827 137.206C206.744 137.206 208.66 136.856 210.576 136.666C210.742 137.491 211.404 137.301 211.936 137.289C216.514 137.206 221.068 136.814 225.61 136.25C228.088 135.941 230.554 135.555 233.026 135.199C234.7 136.517 236.675 136.98 238.722 137.259C239.207 137.325 239.768 137.081 240.159 137.574C238.875 138.091 237.503 138.186 236.155 138.346C231.471 138.91 226.775 139.391 222.085 139.907C217.626 140.394 213.155 140.733 208.678 141.012C199.481 141.576 190.273 141.932 181.058 141.742C174.777 141.611 168.496 141.445 162.233 140.905C152.777 140.092 143.349 139.011 134.058 136.968C126.985 135.413 120.041 133.465 113.471 130.354C110.987 129.179 108.609 127.813 106.445 126.103C104.73 124.743 103.186 123.217 102.045 121.318C100.276 118.367 100.14 115.327 101.518 112.198C102.039 111.022 102.689 109.912 103.505 108.926C105.38 106.658 107.421 104.556 109.993 103.048C111.779 102.003 113.216 102.045 114.849 103.28C116.049 104.188 116.913 105.346 117.41 106.783C117.906 108.214 118.445 109.633 118.9 111.081C119.148 111.877 119.598 112.316 120.379 112.625C126.506 115.054 132.846 116.698 139.316 117.892C143.497 118.664 147.72 119.097 151.937 119.619L151.931 119.631ZM128.463 132.005C128.552 132.011 128.848 131.981 128.954 131.655C129.084 131.257 128.865 131.025 128.499 130.924C128.179 130.841 127.854 130.77 127.535 130.699C122.342 129.559 117.356 127.837 112.678 125.278C110.307 123.983 108.053 122.499 106.173 120.522C105.149 119.441 104.327 118.242 104.02 116.746C103.984 116.562 103.961 116.366 103.878 116.199C103.789 116.033 103.635 115.914 103.417 115.944C103.21 115.974 103.08 116.099 102.991 116.277C102.855 116.55 102.914 116.829 102.973 117.108C103.192 118.2 103.677 119.162 104.333 120.053C105.558 121.715 107.113 123.022 108.793 124.185C113.151 127.213 117.989 129.196 123.04 130.699C124.761 131.209 126.5 131.654 128.475 131.993L128.463 132.005Z" fill="#A1B700"/>
<path d="M203.892 59.4738C202.715 59.3076 202.117 58.2804 201.319 57.6154C196.96 53.9698 192.318 50.7577 187.385 47.9493C182.53 45.1825 177.467 42.9026 172.15 41.1748C168.608 40.0229 164.982 39.2689 161.304 38.6751C157.649 38.0873 153.97 37.9627 150.309 38.1942C143.531 38.6217 137.12 40.4801 131.395 44.2266C124.801 48.5431 120.182 54.522 117.302 61.8844C115.741 65.8684 114.794 69.9889 114.226 74.2163C114.138 74.8694 114.185 75.5404 114.173 76.2054C114.167 76.5794 114.055 76.8585 113.629 76.8882C113.44 76.5319 113.487 76.146 113.487 75.7719C113.535 66.1652 115.001 56.802 118.325 47.7593C120.312 42.3504 122.909 37.262 126.12 32.4825C126.729 31.574 127.427 30.7606 128.261 30.0422C133.051 25.8979 138.469 23.0895 144.756 22.0623C149.493 21.2905 154.165 21.6824 158.784 22.8936C165.361 24.6154 171.263 27.7504 176.787 31.6453C184.534 37.1077 191.194 43.7397 197.309 50.9537C199.421 53.4474 201.455 56.0004 203.407 58.6248C203.602 58.886 203.868 59.1116 203.886 59.4738H203.892Z" fill="#A1B700"/>
<path d="M6.56548 111.656C8.99622 112.618 11.5098 112.992 14.1297 113.099C20.2273 113.354 26.0764 112.416 31.7481 110.16C35.4504 108.687 39.6909 109.816 42.1394 113.04C43.9728 115.45 45.3922 118.128 47.0659 120.645C47.4563 121.227 47.9649 121.744 48.1127 122.468C47.8111 122.688 47.5272 122.943 47.2019 123.121C40.6963 126.713 33.9955 129.831 26.6678 131.368C22.9064 132.158 19.1272 132.467 15.2948 131.879C14.1061 131.695 13.4496 131.196 13.0297 129.973C11.0484 124.202 8.94891 118.478 6.89077 112.737C6.76657 112.381 6.67194 112.012 6.55957 111.656H6.56548Z" fill="#C30000"/>
<path d="M192.835 40.077C191.717 40.3798 191.587 40.6411 191.818 41.692C191.977 42.4164 192.533 42.9982 192.51 43.776C191.995 43.5801 191.723 43.111 191.362 42.7488C185.472 36.7343 179.102 31.3253 171.786 27.1276C167.043 24.4083 162.051 22.3183 156.664 21.2674C146.349 19.2546 137.094 21.5643 128.861 28.0954C127.507 29.1701 126.182 30.2803 125.04 31.9784C124.958 29.7104 125.644 28.0123 126.827 26.5814C128.057 25.097 129.352 23.6423 130.901 22.4549C131.493 22.5439 131.96 22.2471 132.433 21.9502C133.208 21.4574 133.989 20.9765 134.893 20.7568C135.219 21.5346 135.727 21.309 136.283 21.0358C142.718 17.8534 149.478 17.4318 156.433 18.6668C162.684 19.7771 168.474 22.1224 173.969 25.2514C180.995 29.2472 187.276 34.2109 192.847 40.077H192.835Z" fill="#A1B700"/>
<path d="M231.09 15.6229C230.02 16.1395 229.872 16.4898 230.15 17.5407C230.457 18.7104 231.285 19.5653 231.871 20.5628C232.125 20.9962 232.527 21.3644 232.468 21.9344C232.007 21.875 231.747 21.5069 231.427 21.2397C224.655 15.7298 217.381 11.0155 209.462 7.33432C208.273 6.78215 207.073 6.26559 205.671 5.63623C206.73 5.74904 207.575 5.86185 208.279 6.31309C208.811 6.65152 209.367 6.49715 209.905 6.65746C217.257 8.84242 224.283 11.7874 230.996 15.5101C231.037 15.5338 231.055 15.5813 231.09 15.617V15.6229Z" fill="#A1B700"/>
<path d="M207.353 180.243C207.271 180.291 207.188 180.344 207.111 180.397C206.987 180.261 206.851 180.071 207.04 179.958C207.206 179.863 207.353 180.029 207.353 180.243Z" fill="#859295"/>
<path d="M237.12 266.368C237.15 265.97 237.428 266 237.7 266.024C237.564 266.238 237.386 266.374 237.12 266.368Z" fill="#C30000"/>
<path d="M241.29 137.394C241.372 137.252 241.489 137.229 241.63 137.3C241.542 137.429 241.43 137.464 241.29 137.394Z" fill="#A1B700"/>
<path d="M204.615 60.3638C204.477 60.3347 204.401 60.2534 204.396 60.1023C204.552 60.1139 204.627 60.2011 204.615 60.3638Z" fill="#A1B700"/>
<path d="M233.701 23.0229C233.835 23.0288 233.911 23.1048 233.928 23.2392C233.783 23.2392 233.707 23.1691 233.701 23.0229Z" fill="#A1B700"/>
<path d="M68.1167 282.894C68.0228 282.794 67.9407 282.682 68.0991 282.588C68.1284 282.57 68.2281 282.67 68.2985 282.717C68.2399 282.782 68.1812 282.841 68.1167 282.9V282.894Z" fill="#C30000"/>
<path d="M25.3983 285.925C25.3514 286.078 25.2692 286.179 25.0991 286.196C25.1285 286.025 25.2399 285.949 25.3983 285.925Z" fill="#C30000"/>
<path d="M227.815 267.934C224.687 270.303 221.552 272.66 218.43 275.035C208.109 282.878 197.789 290.721 187.475 298.577C170.986 311.128 154.503 323.686 138.02 336.243C133.052 340.025 128.143 343.891 123.128 347.607C119.645 350.19 115.83 352.161 111.513 352.975C110.903 353.088 110.294 353.129 109.679 353.117C109.336 353.111 108.958 353.046 108.922 352.642C108.875 352.138 109.283 352.031 109.679 352.019C112.382 351.918 114.854 350.998 117.261 349.864C119.976 348.587 122.353 346.788 124.725 344.977C137.18 335.489 149.641 326.007 162.103 316.519C164.397 314.774 166.692 313.016 168.981 311.259C169.123 311.146 169.229 310.98 169.348 310.837L169.336 310.784C169.49 310.79 169.572 310.713 169.608 310.57L169.667 310.54C169.898 310.529 170.057 310.422 170.14 310.208L170.093 310.131L170.146 310.202C170.4 310.19 170.584 310.071 170.696 309.84C175.865 306.165 180.839 302.228 185.884 298.387C210.445 279.702 234.989 260.999 259.533 242.296C262.62 239.945 265.696 237.576 268.795 235.242C269.232 234.91 269.818 234.138 270.309 234.886C270.711 235.486 269.836 235.795 269.422 236.109C255.949 246.387 242.471 256.653 228.992 266.924C228.578 267.239 228.194 267.589 227.798 267.922L227.815 267.934Z" fill="#121212"/>
<path d="M272.782 198.478C274.213 198.514 275.585 198.852 276.934 199.292C281.996 200.942 286.751 203.187 290.879 206.63C291.5 207.147 292.068 207.723 292.523 208.388C292.902 208.934 293.28 209.528 292.908 210.222C292.547 210.893 291.867 210.965 291.193 211.012C290.187 211.083 289.2 210.887 288.253 210.638C282.67 209.16 277.555 206.696 272.971 203.157C272.261 202.605 271.611 201.981 271.061 201.263C270.605 200.675 270.227 200.028 270.54 199.304C270.866 198.55 271.623 198.472 272.356 198.478C272.498 198.478 272.64 198.478 272.782 198.478Z" fill="#FCF6F5"/>
<path d="M261.669 192.223C261.711 192.223 261.953 192.229 262.172 192.3C264.142 192.912 265.863 193.969 267.394 195.346C267.601 195.53 267.743 195.792 267.909 196.017C268.193 196.409 268.471 196.842 268.116 197.306C267.773 197.751 267.27 197.656 266.809 197.519C266.359 197.389 265.91 197.24 265.472 197.056C263.976 196.439 262.61 195.602 261.397 194.521C261.149 194.301 260.918 194.058 260.711 193.803C260.445 193.47 260.144 193.108 260.362 192.651C260.581 192.188 261.037 192.194 261.669 192.217V192.223Z" fill="#FCF6F5"/>
<path d="M170.693 309.843C170.581 310.074 170.397 310.193 170.143 310.205C170.19 309.872 170.427 309.837 170.693 309.843Z" fill="#C30000"/>
<path d="M170.137 310.212C170.054 310.432 169.888 310.539 169.664 310.545C169.616 310.141 169.865 310.153 170.137 310.212Z" fill="#C30000"/>
<path d="M169.596 310.574C169.561 310.714 169.475 310.789 169.33 310.784C169.307 310.569 169.394 310.499 169.596 310.574Z" fill="#C30000"/>
<path d="M136.545 77.3781C136.9 77.9243 137.183 77.5384 137.42 77.2831C138.473 76.1312 139.809 75.3594 141.099 74.5282C141.826 74.0591 142.559 73.5247 143.494 73.5129C143.914 74.3916 143.926 74.4213 144.813 74.0532C148.817 72.4026 152.927 72.4323 157.061 73.3407C162.668 74.5757 167.559 77.2653 171.994 80.8633C172.29 81.1008 172.562 81.374 172.882 81.5699C173.378 81.8786 173.674 81.6471 173.81 81.1246C174.177 81.5521 174.502 82.0271 174.91 82.4071C180.156 87.3292 184.408 93.0469 188.099 99.1921C189.14 100.92 190.269 102.63 190.642 104.708C190.831 105.753 190.89 106.798 190.731 107.813C190.453 109.511 189.394 110.645 187.697 110.972C184.562 111.577 181.422 112.153 178.234 112.492C175.472 112.783 172.698 112.925 169.93 113.121C168.091 113.252 166.258 113.359 164.424 113.287C161.089 113.163 157.747 113.05 154.411 112.818C151.922 112.646 149.438 112.415 146.965 112.136C143.795 111.773 140.631 111.298 137.503 110.645C135.941 110.319 134.374 109.98 132.813 109.66C132.434 109.582 132.056 109.523 131.949 109.06C131.518 105.967 131.18 102.867 131.121 99.7442C131.027 94.5075 131.5 89.3479 133.168 84.3486C133.99 81.8846 134.954 79.474 136.545 77.384V77.3781Z" fill="#A1B700"/>
<path d="M136.566 77.3741C134.975 79.47 134.011 81.8746 133.189 84.3386C131.515 89.332 131.042 94.4916 131.143 99.7343C131.202 102.863 131.539 105.963 131.971 109.05C131.397 109.519 131.001 109.365 130.865 108.67C130.711 107.88 130.61 107.079 130.516 106.277C129.688 99.1465 129.776 92.0691 131.787 85.1164C132.893 81.2928 134.561 77.7541 137.163 74.7141C141.007 70.2255 145.869 67.8624 151.789 67.714C156.988 67.5833 161.76 69.0796 166.32 71.4308C172.589 74.6607 177.847 79.1731 182.561 84.3683C188.463 90.8757 193.141 98.1965 196.903 106.129C197.133 106.61 197.831 107.31 196.985 107.69C196.246 108.023 196.169 107.085 195.956 106.634C191.586 97.4306 185.991 89.0886 178.71 81.9399C174.08 77.3919 168.946 73.5564 162.914 71.0508C159.253 69.5308 155.468 68.6461 151.464 68.8361C145.041 69.1389 140.132 72.0601 136.572 77.3741H136.566Z" fill="#121212"/>
<path d="M190.489 4.94424C193.103 5.09268 195.57 5.86454 198.012 6.76108C201.076 7.89512 203.991 9.32603 206.7 11.1547C207.682 11.8138 208.634 12.5203 209.356 13.4822C210.332 14.7884 209.959 15.6731 208.362 15.9818C207.357 16.1718 206.369 16.0293 205.417 15.8275C200.254 14.7231 195.428 12.7638 191.01 9.84259C190.105 9.24291 189.236 8.57792 188.55 7.717C188.106 7.16482 187.609 6.57109 187.952 5.79923C188.266 5.09861 188.999 5.06299 189.644 4.95612C189.916 4.90862 190.205 4.95018 190.489 4.95018V4.94424Z" fill="#FCF6F5"/>
<path d="M192.825 40.0808C187.254 34.2087 180.979 29.251 173.947 25.2551C168.453 22.1321 162.663 19.7868 156.412 18.6706C149.456 17.4356 142.702 17.8512 136.262 21.0396C135.706 21.3127 135.203 21.5383 134.872 20.7605C135.091 20.3627 135.481 20.1787 135.86 19.9887C139.29 18.2906 142.921 17.3465 146.73 17.0556C154.862 16.4322 162.462 18.4509 169.76 21.8471C179.187 26.2348 187.213 32.5581 194.387 40.0214C197.509 43.2632 200.39 46.7188 203.051 50.3525C203.246 50.6196 203.441 50.8928 203.625 51.1659C203.796 51.4271 203.838 51.7062 203.577 51.9259C203.24 52.2109 202.962 52.0268 202.732 51.7537C202.519 51.4984 202.329 51.2253 202.134 50.9581C199.603 47.5203 196.877 44.2488 193.943 41.1555C193.588 40.7814 193.198 40.437 192.825 40.0749V40.0808Z" fill="#121212"/>
<path d="M173.815 81.1323C173.679 81.6489 173.389 81.8864 172.886 81.5777C172.567 81.3817 172.295 81.1086 171.999 80.8711C167.569 77.273 162.672 74.5775 157.066 73.3484C152.926 72.44 148.821 72.4103 144.817 74.0609C143.93 74.429 143.918 74.3993 143.499 73.5206C145.35 72.3806 147.426 71.971 149.537 71.7394C154.298 71.2169 158.799 72.2797 163.146 74.1322C166.676 75.6403 169.894 77.6708 172.851 80.123C173.211 80.4199 173.625 80.6752 173.815 81.1383V81.1323Z" fill="#121212"/>
<path d="M215.031 16.73C217.278 17.205 219.472 18.3628 221.146 20.423C221.454 20.803 221.607 21.2721 221.383 21.7471C221.14 22.2577 220.626 22.2992 220.158 22.2458C217.467 21.9371 215.279 20.6724 213.528 18.6299C213.174 18.2143 213.002 17.7037 213.304 17.1931C213.617 16.6587 214.185 16.7419 215.025 16.7359L215.031 16.73Z" fill="#FCF6F5"/>
<path d="M307.841 72.0183C306.202 72.1133 304.653 71.6799 303.151 71.0921C300.477 70.0352 298.124 68.4678 296.172 66.3422C295.166 65.2497 294.386 64.0207 293.984 62.566C293.232 59.8942 294.457 57.828 297.13 57.2045C298.798 56.8127 300.424 57.0264 302.027 57.4658C305.83 58.5167 309.023 60.5117 311.419 63.706C312.022 64.5075 312.483 65.3863 312.791 66.3422C313.767 69.3346 312.241 71.6918 309.118 72.0124C308.698 72.0539 308.266 72.0124 307.841 72.0124V72.0183Z" fill="#FCF6F5"/>
<path d="M233.032 135.196C230.56 135.546 228.094 135.932 225.616 136.247C221.074 136.817 216.52 137.203 211.942 137.286C211.416 137.298 210.754 137.488 210.582 136.662C210.895 136.187 211.386 136.247 211.854 136.229C216.147 136.051 220.429 135.79 224.699 135.255C236.273 133.812 247.558 131.277 258.144 126.177C260.19 125.191 262.154 124.069 264.058 122.834C264.425 122.597 264.904 122.116 265.265 122.71C265.614 123.28 264.993 123.529 264.626 123.772C260.581 126.432 256.222 128.457 251.692 130.131C245.837 132.298 239.816 133.86 233.683 134.994C233.458 135.036 233.239 135.131 233.021 135.202L233.032 135.196Z" fill="#121212"/>
<path d="M286.793 54.4104C288.082 54.4817 289.324 54.7251 290.4 55.5088C291.595 56.3816 291.589 57.5691 290.388 58.4182C289.507 59.0416 288.478 59.2019 287.437 59.3088C286.095 59.4453 284.799 59.2435 283.575 58.6675C282.824 58.3113 282.15 57.8363 282.12 56.9101C282.085 55.8888 282.842 55.4138 283.623 55.0398C284.616 54.5648 285.693 54.3926 286.793 54.4104Z" fill="#FCF6F5"/>
<path d="M53.1625 330.141C53.399 330.242 53.742 330.384 54.0851 330.544C60.0998 333.412 66.1086 336.286 72.1234 339.16C78.0908 342.01 84.0641 344.865 90.0316 347.715C90.3746 347.876 90.7117 348.042 91.0429 348.22C91.3564 348.392 91.6107 348.624 91.3918 349.01C91.1848 349.372 90.8536 349.33 90.5284 349.176C90.3569 349.099 90.1853 349.016 90.0138 348.938C81.87 345.044 73.7261 341.155 65.5823 337.26C61.6198 335.366 57.6513 333.472 53.6888 331.572C53.3517 331.411 53.0087 331.239 52.7011 331.025C52.506 330.889 52.4114 330.645 52.571 330.402C52.6775 330.236 52.8253 330.129 53.1625 330.135V330.141Z" fill="#121212"/>
<path d="M8.28013 94.2098C8.28013 92.7136 8.70004 91.3064 9.23232 89.9289C10.6222 86.3605 12.6803 83.1722 15.0164 80.1797C22.5334 70.5434 31.5289 62.5932 42.1094 56.4955C45.439 54.5777 48.9107 52.9746 52.7194 52.2503C53.8431 52.0365 54.9787 51.995 56.1083 52.1137C58.5981 52.3809 60.1299 54.0434 60.2364 56.5489C60.2955 57.8967 60.0057 59.1911 59.5917 60.4557C58.8525 62.7238 57.7583 64.8257 56.4927 66.8325C52.9501 72.4433 48.5499 77.3239 43.7298 81.8422C38.0463 87.174 31.9133 91.9179 25.0232 95.5932C21.7586 97.3328 18.3816 98.7994 14.6497 99.2328C13.8927 99.3219 13.1475 99.3278 12.3964 99.1972C9.49846 98.6984 8.22691 97.1725 8.27422 94.2098H8.28013ZM58.8051 59.1911C58.4739 58.9655 58.3024 59.0664 58.1191 59.108C55.2271 59.7314 52.5597 60.9545 50.0048 62.4032C40.7018 67.6519 32.5698 74.4027 25.2066 82.1094C24.0001 83.374 22.7877 84.6506 21.9124 86.1884C21.3978 87.0968 20.8892 88.0111 20.7709 89.0739C20.6231 90.4217 21.1494 91.158 22.492 91.3598C23.4737 91.5023 24.4673 91.4845 25.4491 91.2708C30.1508 90.2436 34.3322 88.0705 38.1705 85.2503C41.5298 82.7803 44.4159 79.7463 47.2961 76.736C50.4839 73.4111 53.3404 69.819 55.7593 65.8944C57.0545 63.7985 58.2019 61.6254 58.7992 59.197L58.8051 59.1911ZM9.39792 94.1979C9.27372 97.2082 11.113 98.1938 13.5497 98.2116C13.9873 98.2116 14.2712 98.0869 14.283 97.5763C14.3363 95.1479 15.4895 93.1173 16.702 91.1401C19.7182 86.2181 23.6097 82.0203 27.7201 78.0126C33.9773 71.903 40.7905 66.5178 48.3134 62.0588C50.1704 60.9604 51.6726 59.4345 52.8141 57.5939C53.8727 55.884 53.2221 54.6193 51.2409 54.4293C50.8683 54.3937 50.4779 54.3996 50.1113 54.453C48.751 54.649 47.438 54.9993 46.1842 55.599C43.1029 57.0655 40.1695 58.7933 37.3603 60.7229C30.2218 65.6213 23.8345 71.3627 18.2042 77.9532C15.3062 81.3494 12.6921 84.9474 10.8114 89.0264C10.0544 90.6651 9.42749 92.3573 9.39792 94.1979Z" fill="#121212"/>
<path d="M72.1776 60.0606C72.5738 60.12 73.0411 60.3575 73.4846 60.6247C77.4649 62.9937 80.8419 66.0455 83.6275 69.7504C83.8818 70.0889 84.1006 70.4689 84.2485 70.8607C84.5974 71.7751 84.1952 72.2323 83.2194 72.0245C82.8586 71.9473 82.4919 71.8048 82.1726 71.6207C81.3978 71.1754 80.6053 70.742 79.8897 70.2076C76.9385 67.993 74.1174 65.6358 71.9292 62.6137C71.598 62.1506 71.2668 61.6815 71.113 61.1294C70.8883 60.3278 71.2195 59.9538 72.1717 60.0666L72.1776 60.0606Z" fill="#FCF6F5"/>
<path d="M60.2471 47.532C61.3234 47.5973 62.5832 47.7517 63.7305 48.3573C64.1031 48.5532 64.5408 48.7788 64.4461 49.2894C64.3633 49.711 63.9553 49.806 63.5649 49.8654C61.7907 50.1266 60.111 49.7882 58.4905 49.0876C58.1889 48.957 57.8814 48.7491 57.8873 48.3751C57.8932 47.906 58.3072 47.8051 58.6561 47.6745C59.1115 47.5023 59.5847 47.5617 60.2471 47.5439V47.532Z" fill="#FCF6F5"/>
<path d="M65.5625 50.368C66.2367 50.3977 66.8458 51.0805 66.8399 51.787C66.834 52.3332 66.4673 52.6895 65.9646 52.642C65.3377 52.5826 64.7463 51.8226 64.7818 51.128C64.8114 50.5995 65.0716 50.3442 65.5684 50.368H65.5625Z" fill="#FCF6F5"/>
<path d="M212.096 189.563C212.569 189.575 212.966 189.742 213.309 189.997C215.798 191.855 217.933 194.04 219.365 196.837C219.589 197.276 219.986 197.822 219.536 198.28C219.039 198.79 218.454 198.428 218.004 198.101C215.438 196.261 213.338 193.981 211.765 191.226C211.599 190.935 211.475 190.632 211.463 190.288C211.446 189.813 211.682 189.593 212.096 189.563Z" fill="#FCF6F5"/>
<path d="M128.471 132.003C126.49 131.665 124.757 131.22 123.036 130.709C117.985 129.207 113.147 127.224 108.788 124.196C107.109 123.032 105.553 121.726 104.329 120.063C103.673 119.173 103.188 118.211 102.969 117.118C102.916 116.839 102.851 116.554 102.987 116.287C103.075 116.115 103.205 115.984 103.412 115.955C103.631 115.925 103.791 116.044 103.874 116.21C103.957 116.37 103.98 116.572 104.016 116.756C104.323 118.252 105.145 119.452 106.169 120.532C108.049 122.509 110.303 123.988 112.674 125.288C117.352 127.847 122.338 129.563 127.531 130.709C127.856 130.78 128.175 130.851 128.495 130.935C128.861 131.035 129.086 131.261 128.95 131.665C128.844 131.991 128.554 132.021 128.459 132.015L128.471 132.003Z" fill="#121212"/>
<path d="M58.8088 59.192C58.2055 61.6204 57.0582 63.7935 55.7689 65.8894C53.35 69.814 50.4934 73.4061 47.3057 76.731C44.4195 79.7413 41.5393 82.7753 38.1801 85.2452C34.3477 88.0655 30.1604 90.2386 25.4586 91.2657C24.4769 91.4795 23.4833 91.5032 22.5015 91.3548C21.159 91.1589 20.6326 90.4226 20.7805 89.0689C20.8988 88.0061 21.4074 87.0918 21.9219 86.1833C22.7972 84.6396 24.0096 83.3631 25.2161 82.1044C32.5793 74.3976 40.7113 67.6468 50.0144 62.3982C52.5693 60.9554 55.2366 59.7323 58.1286 59.1029C58.3061 59.0614 58.4835 58.9604 58.8147 59.1861L58.8088 59.192Z" fill="#C30000"/>
<path d="M9.41557 94.2002C9.44514 92.3537 10.072 90.6675 10.8291 89.0288C12.7098 84.9438 15.3239 81.3458 18.2218 77.9556C23.8462 71.3651 30.2395 65.6236 37.3779 60.7253C40.1872 58.7956 43.1206 57.0738 46.2019 55.6013C47.4557 55.0016 48.7687 54.6513 50.1289 54.4554C50.5015 54.4019 50.8859 54.396 51.2585 54.4316C53.2398 54.6216 53.8963 55.8863 52.8317 57.5963C51.6903 59.4309 50.1881 60.9568 48.331 62.0612C40.8081 66.5261 33.995 71.9054 27.7378 78.0149C23.6274 82.0227 19.7418 86.2204 16.7196 91.1425C15.5072 93.1256 14.348 95.1502 14.3007 97.5786C14.2889 98.0892 14.005 98.2139 13.5673 98.2139C11.1307 98.1961 9.29729 97.2105 9.41557 94.2002Z" fill="#C30000"/>
</svg>
