<svg width="433" height="470" viewBox="0 0 433 470" fill="none" xmlns="http://www.w3.org/2000/svg">
<g clip-path="url(#clip0_432_3414)">
<path d="M235.361 169.825C260.595 157.895 287.041 152.715 314.914 154.261C314.856 153.383 314.346 152.765 314.012 152.097C311.465 147.009 309.995 141.621 309.911 135.932C309.752 125.547 313.603 116.667 320.461 109.014C326.842 101.896 334.761 97.0844 343.649 93.7762C351.083 91.0109 358.792 89.5322 366.711 89.2231C381.295 88.655 395.078 91.5957 407.849 98.8221C414.431 102.548 420.137 107.318 424.706 113.375C436.458 128.947 435.665 148.354 422.701 162.949C420.295 165.656 417.639 168.095 414.699 170.192C413.855 170.794 413.671 171.228 414.164 172.239C418.032 180.242 415.559 190.668 408.584 196.107C407.582 196.892 406.521 197.586 405.335 198.054C404.116 198.538 403.497 198.053 403.815 196.767C404.525 193.935 404.266 191.186 403.138 188.538C401.526 184.745 398.87 181.972 394.911 180.576C394.326 180.368 393.758 180.192 393.156 180.359C389.506 181.378 385.772 182.047 381.938 182.523C381.98 183.459 382.623 183.901 383.041 184.444C388.395 191.429 391.845 199.206 392.864 207.995C394.017 217.978 391.979 227.385 387.66 236.366C383.225 245.589 376.893 253.367 369.434 260.284C365.508 263.927 361.307 267.218 356.905 270.251C356.362 270.627 355.819 271.019 355.293 271.387C355.501 272.155 356.17 272.239 356.662 272.506C360.613 274.653 364.272 277.201 367.505 280.351C377.536 290.1 380.326 302.966 375.239 316.015C372.525 322.982 368.19 328.855 362.977 334.135C358.968 338.187 354.524 341.696 349.788 344.862C349.245 345.23 348.602 345.48 348.209 346.065C348.535 346.734 349.253 346.867 349.813 347.193C354.09 349.624 357.982 352.523 361.039 356.416C366.82 363.776 367.914 371.855 364.556 380.543C362.568 385.681 359.319 389.983 355.451 393.835C348.594 400.677 340.449 405.589 331.637 409.449C319.793 414.637 307.388 417.636 294.525 418.83C290.131 419.24 285.729 419.323 281.319 419.29C280.124 419.29 279.155 419.524 278.153 420.184C268.531 426.441 258.248 431.32 247.322 434.854C233.214 439.415 218.722 441.504 203.92 441.069C182.512 440.443 162.356 434.996 143.738 424.386C130.306 416.733 118.395 407.093 108.212 395.414C97.7629 383.417 89.8109 369.908 84.1726 355.029C83.3958 352.982 83.3958 352.999 81.2575 353.576C67.8343 357.185 54.3777 357.36 40.9044 353.943C39.4343 353.567 38.1646 353.784 36.8616 354.394C31.5407 356.876 27.8153 363.258 29.0348 369.449C29.1017 369.774 29.2437 370.092 29.2854 370.418C29.3773 371.27 28.9346 371.704 28.0993 371.52C27.5898 371.404 27.097 371.161 26.6459 370.894C21.3752 367.861 18.4934 363.175 17.3491 357.318C16.5305 353.116 17.015 349.064 19.003 345.263C19.4457 344.411 19.1115 344.119 18.5185 343.693C15.311 341.378 12.3958 338.739 9.83142 335.723C4.97001 330.017 1.66224 323.567 0.476122 316.107C-0.768467 308.271 0.501181 300.827 3.99271 293.743C7.74319 286.132 13.3647 280.15 20.2308 275.305C28.8845 269.198 38.5405 265.539 48.9149 263.701C59.356 261.846 69.7638 262.047 80.1215 264.411C81.7586 264.787 81.767 264.762 82.2515 263.074C89.4601 237.761 99.2664 213.459 110.935 189.9C113.842 184.035 117.05 178.338 120.316 172.665C126.773 161.429 131.484 149.465 135.176 137.076C139.812 121.546 142.76 105.681 144.489 89.574C146.31 72.5397 146.661 55.4721 145.6 38.371C145.199 31.9215 146.369 25.7394 149.292 19.9249C149.869 18.7803 150.679 17.8029 151.439 16.8004C161.045 4.11869 173.942 -1.11941 189.604 0.20056C199.326 1.01927 208.055 4.69513 216.141 10.0335C225.655 16.3075 232.454 24.9123 237.658 34.8956C243.497 46.0903 246.796 58.0953 248.575 70.5347C251.39 90.1671 250.346 109.699 246.763 129.14C244.299 142.506 240.54 155.505 235.653 168.187C235.536 168.496 235.411 168.814 235.319 169.131C235.286 169.248 235.328 169.382 235.353 169.825H235.361ZM227.668 187.068C227.434 187.109 227.317 187.277 227.242 187.477C226.382 189.048 225.521 190.627 224.661 192.197C224.435 192.607 224.226 193.024 223.959 193.409C223.717 193.743 223.366 193.977 222.923 193.751C222.497 193.534 222.422 193.116 222.581 192.724C222.807 192.172 223.099 191.646 223.383 191.111C231.251 176.383 237.29 160.936 241.601 144.795C245.593 129.833 247.974 114.628 248.509 99.1479C248.793 90.8021 248.467 82.4645 247.456 74.1604C246.036 62.498 243.355 51.1613 238.527 40.4011C233.615 29.4487 226.958 19.8246 217.076 12.6985C208.448 6.48293 198.976 2.48126 188.284 1.71267C177.96 0.969148 168.537 3.48377 160.318 9.89145C154.555 14.386 150.144 19.8915 148.265 27.1429C147.321 30.7937 146.987 34.503 147.154 38.2624C147.221 39.7244 147.413 41.1864 147.455 42.6567C147.697 50.6016 147.897 58.5381 147.638 66.4829C147.329 76.2323 146.611 85.9482 145.391 95.6224C143.537 110.284 140.647 124.745 136.312 138.889C132.996 149.699 128.961 160.226 123.54 170.175C121.109 174.628 118.52 178.989 116.106 183.45C109.265 196.09 103.393 209.19 98.0051 222.506C92.7344 235.505 87.9482 248.68 84.1726 262.206C83.9137 263.141 83.1202 264.185 83.6464 265.046C84.1559 265.881 85.4339 265.789 86.3695 266.099C97.103 269.641 106.559 275.146 113.901 283.926C114.101 284.169 114.285 284.478 114.686 284.411C114.995 284.102 114.987 283.684 115.062 283.3C115.237 282.381 115.388 281.462 115.605 280.551C115.705 280.125 116.056 279.85 116.507 279.942C116.958 280.033 117.142 280.409 117.092 280.852C117.041 281.245 116.933 281.637 116.849 282.03C116.173 285.263 116.106 288.546 116.432 291.805C117.351 300.877 120.282 309.231 125.745 316.608C126.129 317.126 126.806 317.744 126.063 318.312C125.311 318.897 124.91 318.028 124.492 317.569C123.857 316.859 123.473 315.923 122.504 315.23C121.911 318.438 120.8 321.228 119.873 324.077C119.723 324.294 119.539 324.495 119.422 324.729C115.688 332.414 110.15 338.538 103.192 343.417C101.004 344.954 98.8738 346.55 96.9443 348.404C93.7618 351.454 91.3144 354.971 89.9696 359.206C89.2596 361.42 89.3849 363.492 90.4624 365.589C92.2583 369.098 94.0625 372.59 96.0923 375.973C101.229 384.536 107.252 392.406 114.176 399.591C119.055 404.653 124.434 409.131 129.997 413.4C138.509 419.933 147.688 425.322 157.595 429.457C166.432 433.141 175.546 435.873 184.968 437.569C192.201 438.864 199.493 439.541 206.836 439.582C209.901 439.599 212.967 439.515 216.032 439.282C221.086 438.889 226.106 438.321 231.093 437.393C239.646 435.798 247.932 433.3 255.993 430.042C258.824 428.897 261.598 427.611 264.404 426.274C263.836 425.547 263.126 425.698 262.508 425.597C257.154 424.703 252.192 422.857 247.974 419.357C245.811 417.561 244.265 415.246 244.274 412.322C244.274 411.028 243.764 410.409 242.787 409.791C239.847 407.937 237.007 405.965 234.634 403.375C228.027 396.165 225.947 387.903 229.105 378.571C231.502 371.47 236.205 365.957 241.776 361.119C243.221 359.866 244.733 358.688 246.337 357.377C245.243 356.408 244.056 355.973 242.954 355.405C237.182 352.414 232.229 348.454 228.253 343.283C224.577 338.513 222.272 333.183 221.804 327.16C221.169 319.081 223.458 311.729 227.601 304.871C230.875 299.449 235.069 294.82 239.679 290.518C240.957 289.323 240.932 289.248 239.404 288.488C236.104 286.85 232.964 284.979 230.065 282.707C229.021 281.888 227.885 281.153 226.716 280.526C223.341 278.722 219.591 279.967 218.914 284.528C218.02 290.61 216.525 296.558 214.537 302.373C212.541 308.204 209.96 313.759 206.811 319.056C206.385 319.766 206.076 320.71 204.948 320.618C204.113 319.8 204.823 319.156 205.224 318.505C208.824 312.531 211.672 306.216 213.752 299.557C218.02 285.923 219.307 271.997 217.811 257.803C216.609 246.391 213.526 235.539 208.08 225.405C207.922 225.113 207.746 224.829 207.596 224.528C207.354 224.043 207.412 223.601 207.913 223.333C208.348 223.099 208.698 223.325 208.924 223.684C209.25 224.194 209.542 224.712 209.826 225.246C213.81 232.732 216.458 240.685 218.12 248.981C218.304 249.908 218.496 250.835 218.705 251.846C219.432 251.337 219.398 250.677 219.566 250.125C220.735 246.333 222.447 242.799 224.586 239.474C229.339 232.064 235.561 226.065 242.595 220.869C253.328 212.924 265.223 207.26 277.886 203.183C287.508 200.084 297.357 198.045 307.43 197.076C315.031 196.341 322.616 196.266 330.217 196.959C330.994 197.026 332.33 196.742 332.272 197.945C332.205 199.265 330.902 198.672 330.167 198.605C321.622 197.82 313.093 197.995 304.59 199.023C286.899 201.17 270.168 206.358 254.581 215.079C246.019 219.866 238.193 225.614 231.611 232.957C226.975 238.137 223.182 243.826 221.153 250.551C218.254 260.15 219.824 268.889 226.281 276.658C230.023 281.161 234.726 284.419 239.972 286.892C253.228 293.15 267.328 294.871 281.77 294.06C292.462 293.459 302.961 291.47 313.269 288.563C330.986 283.559 347.441 275.982 362.008 264.578C370.871 257.644 378.48 249.574 384.127 239.766C388.42 232.306 391.127 224.319 391.578 215.689C392.071 206.274 389.665 197.552 384.645 189.591C379.065 180.735 371.288 174.236 362.301 169.073C361.749 168.755 361.181 168.688 360.58 168.68C351.584 168.496 343.565 165.673 336.682 159.816C335.997 159.231 335.254 158.872 334.385 158.688C327.653 157.218 320.853 156.257 313.979 155.906C299.386 155.163 284.911 156.048 270.677 159.582C270.318 159.465 270.001 159.515 269.775 159.85C269.675 159.85 269.583 159.875 269.499 159.925C268.965 159.808 268.447 159.917 267.921 160.042C256.753 162.732 245.986 166.566 235.645 171.571C234.484 172.13 233.724 172.899 233.273 174.094C231.811 177.962 230.04 181.688 228.211 185.389C227.952 185.923 227.618 186.441 227.685 187.076H227.701L227.668 187.068ZM230.107 342.665H230.099C230.065 343.358 230.616 343.718 231.001 344.152C234.718 348.354 239.145 351.654 244.107 354.211C254.99 359.808 266.71 362.072 278.813 362.607C282.739 362.782 286.673 362.698 290.616 362.439C295.744 362.097 300.831 361.487 305.877 360.56C317.896 358.363 329.323 354.394 340.174 348.747C349.312 343.993 357.531 338.012 364.422 330.318C369.192 324.996 372.951 319.048 374.872 312.072C375.256 310.66 375.774 309.273 375.599 307.769V307.786C376.008 307.444 375.983 307.001 375.891 306.533C376.96 296.458 373.201 288.262 366.135 281.345C364.138 279.39 361.841 278.003 359.127 277.268C353.538 275.748 348.151 276.291 342.955 278.764C338.796 280.744 334.652 282.765 330.376 284.478C317.036 289.816 303.229 293.258 288.97 295.046C277.66 296.466 266.459 296.082 255.316 293.793C251.449 292.999 247.615 292.991 243.797 293.818C239.838 294.678 236.104 296.082 233.431 299.399C230.14 303.484 227.359 307.861 225.521 312.79C222.907 319.774 222.406 326.834 224.911 333.96C225.981 336.992 227.417 339.833 229.664 342.197C229.689 342.456 229.815 342.632 230.082 342.665H230.107ZM111.913 333.008C112.172 332.991 112.289 332.84 112.305 332.598C112.497 332.414 112.715 332.256 112.882 332.047C117.092 326.792 119.856 320.877 121.084 314.252C121.301 313.058 120.976 312.072 120.441 311.019C116.916 304.085 114.861 296.759 114.744 288.947C114.728 287.861 114.369 287.034 113.742 286.224C110.618 282.172 106.951 278.697 102.741 275.806C91.9409 268.396 79.8792 264.862 66.8904 264.177C56.1652 263.609 45.7407 265.104 35.6838 268.922C26.1781 272.531 17.7918 277.82 11.1595 285.656C8.7873 288.463 6.64895 291.437 5.27071 294.887C1.92118 301.387 0.910475 308.287 1.93789 315.472C3.11565 323.676 6.99142 330.576 12.638 336.541C14.8933 338.922 17.3992 341.019 20.0638 342.932C21.1664 343.726 21.2499 344.094 20.732 345.272C20.5984 345.572 20.3979 345.848 20.2559 346.149C16.6391 353.651 19.0447 363.492 25.7104 368.48C26.1614 368.814 26.5707 369.357 27.2473 369.173C27.2473 368.555 27.2557 367.953 27.2473 367.36C27.1387 360.886 31.3236 354.729 37.2708 352.581C38.3651 352.189 39.4343 352.03 40.587 352.339C51.9971 355.355 63.5158 355.664 75.0846 353.467C86.0019 351.395 96.0171 347.201 104.746 340.226C107.394 338.112 110.025 335.94 111.896 333.033L111.913 333.008ZM364.372 367.477C364.088 366.333 363.896 365.155 363.512 364.035C362.426 360.894 360.572 358.212 358.316 355.798C353.822 350.986 348.226 349.666 341.894 350.501C339.23 350.852 337 352.214 334.636 353.267C320.653 359.507 306.01 363.058 290.741 364.069C280.283 364.762 269.934 364.002 259.701 361.696C255.742 360.802 251.749 360.76 247.782 361.554C244.257 362.264 241.074 363.576 238.577 366.391C235.854 369.457 233.573 372.807 231.569 376.349C231.134 377.126 230.775 378.028 230.867 378.997C230.692 379.273 230.449 379.532 230.358 379.841C228.796 385.071 228.871 390.217 231.143 395.263C233.256 399.958 236.639 403.559 240.765 406.533C246.262 410.485 252.401 413.041 258.883 414.745C267.887 417.118 277.051 418.037 286.372 417.736C291.443 417.569 296.471 417.201 301.483 416.433C314.706 414.419 327.319 410.56 339.054 404.027C345.687 400.334 351.726 395.865 356.738 390.134C359.837 386.591 362.342 382.665 363.704 378.104C364.748 374.612 365.258 371.078 364.356 367.469L364.372 367.477ZM312.367 127.786C312.225 128.296 312.041 128.805 311.949 129.323C310.571 137.686 312.183 145.497 316.192 152.899C316.861 154.135 317.729 154.561 319.041 154.653C322.766 154.921 326.467 155.464 330.142 156.157C330.994 156.316 331.846 156.483 332.698 156.633C333.316 156.742 333.575 156.466 333.45 155.848C334.293 154.82 334.811 155.614 335.337 156.199C340.909 162.423 348.151 165.33 356.161 166.708C359.269 167.243 362.401 167.218 365.525 166.809C366.06 166.742 366.678 166.658 366.87 167.318C367.07 168.003 366.536 168.237 365.968 168.363C365.625 168.363 365.107 168.095 365.049 168.613C365.007 169.031 365.492 169.165 365.909 169.165C365.976 169.248 366.051 169.282 366.16 169.273C366.41 169.49 366.644 169.733 366.912 169.916C371.506 172.924 375.807 176.282 379.499 180.376C380.209 181.161 380.978 181.136 381.847 181.011C385.28 180.518 388.713 180.025 392.046 179.048C393.424 178.647 394.652 178.797 395.93 179.273C401.777 181.445 405.895 187.719 405.753 194.202C405.744 194.745 405.444 195.355 405.953 195.932C406.296 195.739 406.596 195.597 406.864 195.422C413.78 190.777 416.453 180.393 412.711 172.724C411.992 171.253 412.301 170.028 413.638 169.048C418.691 165.33 423.027 160.927 426.217 155.497C428.698 151.27 430.603 146.817 430.987 141.846C431.496 140.159 431.522 138.413 431.488 136.692C431.329 129.866 429.392 123.551 425.8 117.744C420.704 109.507 413.563 103.509 405.084 99.056C395.245 93.8848 384.728 91.2448 373.619 90.8021C363.771 90.4094 354.173 91.6458 344.893 94.9875C335.304 98.4378 326.859 103.642 320.319 111.604C316.41 116.358 313.536 121.654 312.383 127.778L312.367 127.786Z" fill="#141212"/>
<path d="M207.821 457.686C220.175 457.46 232.521 457.828 244.875 458.12C253.078 458.312 261.272 458.83 269.474 459.215C276.741 459.557 283.992 460.1 291.217 460.894C294.458 461.253 297.707 461.646 300.881 462.456C301.591 462.64 302.285 462.865 302.97 463.124C303.529 463.333 304.164 463.626 304.131 464.327C304.106 464.904 303.529 465.163 303.028 465.372C302.226 465.706 301.399 465.931 300.547 466.115C295.318 467.243 289.989 467.644 284.677 468.078C277.761 468.638 270.828 468.964 263.895 469.215C258.891 469.398 253.888 469.566 248.884 469.674C233.598 470 218.304 470.083 203.018 469.9C192.335 469.774 181.66 469.499 170.985 469.106C160.719 468.73 150.453 468.195 140.229 467.226C135.518 466.784 130.807 466.316 126.18 465.28C125.47 465.121 124.76 464.921 124.075 464.653C123.415 464.403 122.496 464.194 122.563 463.317C122.621 462.498 123.498 462.256 124.208 462.063C125.303 461.763 126.397 461.47 127.508 461.261C132.561 460.326 137.682 459.9 142.802 459.515C156.05 458.521 169.323 458.145 182.604 457.853C191.015 457.669 199.427 457.728 207.838 457.678L207.821 457.686Z" fill="#141212"/>
<path d="M84.3648 169.566C84.2979 170.209 83.8803 170.309 83.3708 170.334C82.4436 170.376 81.5164 170.359 80.5809 170.51C76.2039 171.22 72.562 173.3 69.4548 176.391C65.6876 180.134 63.2151 184.67 61.4025 189.607C59.3143 195.288 58.3203 201.186 57.9527 207.21C57.9277 207.677 57.8943 208.145 57.8609 208.605C57.8274 209.081 57.51 209.323 57.0924 209.398C56.5662 209.49 56.1318 209.256 56.0149 208.738C55.8812 208.162 55.8812 207.552 55.8478 206.951C55.4135 199.081 53.8013 191.495 50.1845 184.428C48.28 180.71 45.8577 177.385 42.575 174.745C39.2004 172.038 35.4081 170.418 31.0312 170.334C30.6971 170.334 30.363 170.317 30.0372 170.259C29.6697 170.192 29.4776 169.908 29.4525 169.549C29.4191 169.173 29.6446 168.88 29.9787 168.797C30.3546 168.697 30.7723 168.697 31.1649 168.688C35.2578 168.63 38.8329 167.143 42.0487 164.712C45.582 162.038 48.1464 158.571 50.1594 154.678C53.0496 149.106 54.6283 143.141 55.4134 136.942C55.6473 135.088 55.8896 133.233 55.8562 131.362C55.8562 131.094 55.8812 130.827 55.923 130.568C56.0316 129.958 56.3824 129.624 57.0256 129.674C57.5769 129.724 57.8358 130.05 57.8692 130.601C57.9694 132.063 58.0613 133.525 58.2033 134.987C58.8549 141.746 60.4336 148.262 63.5075 154.352C65.2616 157.836 67.4751 160.994 70.4237 163.592C73.9904 166.733 78.0666 168.663 82.9113 168.697C83.5712 168.697 84.323 168.588 84.3564 169.566H84.3648ZM56.7499 200.334C57.3513 199.666 57.3096 199.039 57.4182 198.463C58.362 193.25 59.8906 188.212 62.3882 183.525C65.6792 177.343 70.1063 172.331 76.8889 169.833C77.0476 169.774 77.1144 169.682 77.0726 169.549C77.0643 169.298 76.8638 169.223 76.6801 169.156C71.5931 167.293 67.7842 163.843 64.752 159.465C60.8011 153.759 58.6627 147.343 57.4098 140.585C57.2929 139.975 57.3597 139.29 56.7416 138.764C55.8395 144.469 54.3526 149.933 51.7298 155.021C48.4304 161.429 43.9616 166.667 36.9534 169.24C36.7697 169.307 36.6861 169.499 36.7363 169.749C40.4533 171.028 43.594 173.225 46.2837 176.107C48.7144 178.722 50.6189 181.687 52.1558 184.896C54.4863 189.749 55.8729 194.879 56.7499 200.326V200.334Z" fill="#141212"/>
<path d="M404.617 388.17C403.706 388.145 403.573 387.535 403.539 386.8C403.431 384.336 403.205 381.88 402.829 379.44C401.718 372.247 399.647 365.397 395.487 359.323C392.346 354.745 388.37 351.22 382.882 349.691C381.262 349.24 379.616 349.048 377.937 349.064C377.369 349.064 377.06 348.78 377.102 348.204C377.136 347.744 377.411 347.485 377.879 347.469C378.213 347.452 378.547 347.435 378.881 347.435C381.187 347.435 383.359 346.842 385.463 345.94C388.596 344.595 391.169 342.515 393.374 339.958C397.567 335.104 399.989 329.365 401.593 323.241C402.696 319.031 403.264 314.745 403.506 310.401C403.523 310.134 403.548 309.866 403.556 309.599C403.556 308.914 403.773 308.388 404.567 308.421C405.343 308.446 405.552 309.014 405.569 309.666C405.611 312.606 405.953 315.522 406.454 318.413C407.49 324.436 409.286 330.2 412.452 335.48C414.323 338.596 416.595 341.378 419.535 343.559C422.718 345.915 426.234 347.377 430.252 347.444C430.929 347.452 431.956 347.176 431.981 348.246C432.006 349.348 430.962 349.048 430.294 349.073C424.296 349.298 419.627 352.13 415.768 356.499C412.034 360.727 409.712 365.731 408.1 371.078C406.63 375.948 405.786 380.936 405.611 386.032C405.594 386.499 405.561 386.967 405.477 387.418C405.394 387.853 405.043 388.062 404.625 388.154L404.617 388.17ZM404.608 378.956C404.65 378.914 404.709 378.88 404.717 378.839C404.892 377.92 405.059 377.001 405.243 376.09C406.388 370.426 408.217 365.004 411.257 360.058C414.49 354.804 418.7 350.66 424.63 348.521C424.781 348.463 424.814 348.362 424.63 348.07C421.999 347.068 419.46 345.656 417.238 343.701C412.652 339.674 409.729 334.561 407.615 328.922C406.237 325.246 405.352 321.428 404.7 317.502C404.091 318.07 404.157 318.772 404.04 319.415C403.097 324.561 401.593 329.532 399.146 334.177C395.846 340.443 391.352 345.472 384.536 348.045C384.453 348.078 384.428 348.262 384.336 348.446C391.887 351.236 396.564 356.934 399.914 363.951C401.91 368.129 403.172 372.548 404.032 377.093C404.149 377.736 404.074 378.438 404.617 378.956H404.608Z" fill="#141212"/>
<path d="M269.458 159.925C269.55 159.883 269.642 159.858 269.733 159.85C270.084 159.925 270.393 159.883 270.636 159.582C284.877 156.049 299.345 155.163 313.937 155.907C320.812 156.257 327.619 157.226 334.343 158.688C335.212 158.881 335.956 159.24 336.641 159.816C343.523 165.673 351.542 168.496 360.538 168.68C361.148 168.688 361.708 168.755 362.259 169.073C371.247 174.236 379.023 180.735 384.603 189.591C389.623 197.552 392.029 206.274 391.536 215.689C391.085 224.319 388.379 232.306 384.085 239.766C378.439 249.574 370.829 257.644 361.967 264.578C347.399 275.982 330.944 283.567 313.227 288.563C302.92 291.47 292.42 293.459 281.728 294.06C267.286 294.871 253.186 293.15 239.93 286.892C234.684 284.419 229.982 281.17 226.24 276.658C219.791 268.889 218.212 260.142 221.111 250.551C223.141 243.835 226.933 238.137 231.569 232.957C238.143 225.614 245.978 219.866 254.539 215.079C270.126 206.358 286.849 201.17 304.549 199.023C313.06 197.987 321.58 197.82 330.125 198.605C330.86 198.672 332.163 199.265 332.23 197.945C332.289 196.742 330.952 197.034 330.175 196.959C322.574 196.266 314.99 196.349 307.389 197.076C297.315 198.045 287.467 200.084 277.844 203.183C265.173 207.26 253.286 212.924 242.553 220.869C235.52 226.074 229.305 232.072 224.544 239.474C222.406 242.807 220.685 246.333 219.524 250.125C219.357 250.668 219.382 251.328 218.664 251.846C218.455 250.835 218.263 249.908 218.079 248.981C216.417 240.685 213.769 232.732 209.784 225.247C209.5 224.72 209.208 224.194 208.882 223.684C208.648 223.317 208.298 223.099 207.872 223.333C207.37 223.601 207.312 224.044 207.554 224.528C207.704 224.829 207.88 225.113 208.039 225.405C213.485 235.539 216.567 246.399 217.77 257.803C219.265 271.997 217.979 285.923 213.71 299.557C211.63 306.216 208.782 312.531 205.182 318.505C204.789 319.156 204.079 319.8 204.906 320.618C204.789 321.621 204.154 322.314 203.453 322.941C202.208 324.044 200.939 325.13 199.661 326.191C196.846 328.521 194.006 330.827 191.592 333.609C188.843 336.784 187.933 341.938 190.088 345.94C191.884 349.282 194.298 352.139 197.13 354.578C200.964 357.886 204.205 361.604 206.627 366.057C209.3 370.944 210.795 375.982 210.202 381.704C209.525 388.229 206.535 393.434 201.757 397.502C194.958 403.292 186.797 406.082 177.935 406.692C173.466 407.001 169.039 406.341 164.687 405.297C159.266 403.993 154.187 401.863 149.401 399.014C145.726 396.825 142.276 394.328 139.202 391.345C132.996 385.33 128.293 378.296 124.76 370.409C120.416 360.702 118.762 350.468 118.345 339.942C118.286 338.521 118.737 337.168 118.704 335.773C118.654 333.033 119.046 330.343 119.431 327.636C119.598 326.466 120.099 325.313 119.865 324.085C120.792 321.236 121.895 318.446 122.496 315.238C123.473 315.932 123.858 316.867 124.484 317.577C124.902 318.045 125.303 318.906 126.054 318.321C126.798 317.744 126.121 317.135 125.737 316.617C120.274 309.231 117.334 300.886 116.423 291.813C116.098 288.555 116.165 285.272 116.841 282.039C116.925 281.646 117.033 281.262 117.083 280.861C117.133 280.418 116.95 280.042 116.499 279.95C116.048 279.858 115.697 280.134 115.597 280.56C115.379 281.47 115.237 282.389 115.054 283.308C114.978 283.693 114.987 284.11 114.678 284.419C114.277 284.478 114.093 284.177 113.893 283.935C106.55 275.155 97.0947 269.649 86.3612 266.107C85.4257 265.798 84.1477 265.881 83.6381 265.054C83.1119 264.194 83.9054 263.158 84.1644 262.214C87.9399 248.688 92.7261 235.514 97.9969 222.515C103.393 209.198 109.265 196.107 116.098 183.459C118.512 178.998 121.109 174.637 123.532 170.184C128.961 160.234 132.996 149.708 136.303 138.897C140.639 124.754 143.537 110.292 145.383 95.6308C146.603 85.9566 147.321 76.2407 147.63 66.4913C147.881 58.5381 147.68 50.6016 147.446 42.6651C147.405 41.2031 147.212 39.7411 147.146 38.2708C146.979 34.5114 147.313 30.8021 148.257 27.1513C150.136 19.8998 154.546 14.3944 160.31 9.89984C168.529 3.49215 177.951 0.977531 188.275 1.72106C198.967 2.48964 208.44 6.49131 217.068 12.7069C226.95 19.833 233.607 29.4571 238.518 40.4094C243.346 51.1613 246.028 62.498 247.448 74.1688C248.458 82.4729 248.793 90.8104 248.5 99.1563C247.966 114.628 245.585 129.841 241.592 144.804C237.282 160.936 231.243 176.383 223.375 191.12C223.091 191.646 222.798 192.172 222.573 192.732C222.414 193.125 222.481 193.542 222.915 193.759C223.35 193.985 223.7 193.759 223.951 193.417C224.218 193.041 224.435 192.615 224.653 192.206C225.513 190.635 226.373 189.056 227.234 187.485C227.501 187.485 227.643 187.343 227.66 187.076L227.643 187.084C228.236 187.001 228.562 186.525 228.871 186.115C230.408 184.077 232.354 182.465 234.225 180.76C236.948 178.296 239.805 175.998 242.862 173.985C250.898 168.697 259.426 164.319 268.338 160.693C268.781 160.51 269.207 160.359 269.458 159.925ZM224.118 45.8063C224.076 43.7511 223.608 41.5289 222.715 39.432C219.098 30.9023 213.017 24.7035 204.689 20.6935C202.751 19.7578 200.696 19.1563 198.566 18.9642C192.101 18.371 189.128 22.3142 189.253 27.2098C189.32 29.7328 189.921 32.1054 190.957 34.361C194.682 42.4228 200.604 48.3376 208.582 52.2056C210.645 53.2081 212.825 53.843 215.097 54.0185C220.276 54.4111 223.976 51.813 224.118 45.8146V45.8063ZM248.776 233.985C250.062 234.085 251.298 233.751 252.501 233.4C260.67 231.011 267.946 226.959 274.453 221.504C275.472 220.643 276.391 219.666 277.109 218.53C277.393 218.087 277.677 217.611 277.811 217.11C278.17 215.806 277.702 215.096 276.374 214.779C275.038 214.453 273.718 214.72 272.423 215.013C265.072 216.658 258.682 220.309 252.593 224.57C250.839 225.798 249.227 227.193 247.774 228.755C247.089 229.49 246.454 230.259 246.078 231.203C245.485 232.665 246.036 233.701 247.581 233.985C247.966 234.06 248.375 233.993 248.776 233.993V233.985ZM148.089 225.33C147.956 225.33 147.822 225.33 147.689 225.33C147.689 229.666 147.689 234.01 147.689 238.346C147.689 238.613 147.68 238.889 147.747 239.14C147.856 239.557 148.131 239.875 148.599 239.816C148.941 239.775 149.2 239.524 149.234 239.148C149.284 238.688 149.326 238.221 149.334 237.753C149.443 230.142 149.543 222.531 149.635 214.912C149.66 212.732 150.169 210.677 151.272 208.797C152.684 206.383 154.672 204.912 157.629 205.054C159.023 205.121 160.435 205.071 161.838 205.054C162.39 205.054 163.008 204.946 163.025 204.261C163.041 203.517 162.398 203.534 161.863 203.534C160.46 203.534 159.057 203.501 157.654 203.534C155.006 203.601 153.034 202.431 151.614 200.267C150.529 198.622 149.91 196.851 149.952 194.812C150.111 187.736 150.203 180.66 150.311 173.576C150.311 173.049 150.328 172.506 150.228 171.988C150.161 171.663 149.802 171.479 149.434 171.521C149.159 171.554 148.908 171.738 148.875 172.013C148.799 172.607 148.766 173.208 148.758 173.81C148.641 180.685 148.515 187.561 148.415 194.445C148.382 196.734 147.647 198.772 146.327 200.602C144.957 202.506 143.119 203.567 140.714 203.526C139.244 203.5 137.774 203.526 136.303 203.526C135.635 203.526 134.967 203.526 134.299 203.542C133.873 203.559 133.505 203.709 133.514 204.236C133.522 204.737 133.873 204.937 134.282 204.996C134.741 205.063 135.209 205.054 135.677 205.063C137.348 205.063 139.018 205.046 140.689 205.071C144.757 205.146 148.089 208.605 148.089 212.715C148.089 216.926 148.089 221.128 148.089 225.338V225.33ZM232.254 73.183C232.212 72.381 232.22 71.579 232.12 70.7854C231.778 67.945 230.859 65.3217 228.837 63.2248C226.323 60.6183 223.233 61.0193 221.37 64.1438C218.672 68.6551 219.474 76.4662 223.032 80.2925C225.755 83.2248 229.121 82.7486 230.984 79.1897C231.97 77.3017 232.279 75.2883 232.262 73.1914L232.254 73.183ZM292.445 207.97C292.111 207.97 291.777 207.928 291.451 207.97C289.154 208.279 287.041 209.031 285.596 210.952C284.501 212.406 285.003 213.785 286.707 214.386C289.304 215.297 294.015 213.759 295.502 211.512C296.388 210.176 296.02 208.947 294.583 208.254C293.89 207.92 293.163 207.97 292.445 207.97Z" fill="#FA4616"/>
<path d="M119.873 324.093C120.107 325.322 119.606 326.466 119.439 327.644C119.054 330.351 118.662 333.041 118.712 335.781C118.737 337.185 118.294 338.53 118.353 339.95C118.762 350.468 120.424 360.702 124.768 370.418C128.293 378.304 133.004 385.338 139.21 391.353C142.284 394.336 145.742 396.834 149.409 399.022C154.187 401.871 159.274 404.002 164.695 405.305C169.055 406.349 173.474 407.009 177.943 406.7C186.805 406.09 194.958 403.3 201.765 397.51C206.543 393.442 209.534 388.229 210.21 381.713C210.803 375.99 209.308 370.961 206.635 366.065C204.204 361.612 200.972 357.895 197.138 354.586C194.306 352.147 191.9 349.29 190.096 345.948C187.941 341.946 188.852 336.792 191.6 333.617C194.014 330.827 196.854 328.53 199.669 326.199C200.947 325.138 202.216 324.06 203.461 322.949C204.163 322.322 204.797 321.637 204.914 320.626C206.042 320.71 206.351 319.774 206.777 319.064C209.926 313.776 212.507 308.22 214.504 302.381C216.492 296.558 217.987 290.618 218.881 284.536C219.549 279.975 223.308 278.73 226.682 280.535C227.852 281.161 228.988 281.896 230.032 282.715C232.939 284.987 236.079 286.859 239.37 288.496C240.907 289.256 240.924 289.332 239.646 290.526C235.043 294.82 230.842 299.457 227.568 304.879C223.424 311.738 221.136 319.089 221.771 327.168C222.238 333.191 224.552 338.521 228.219 343.292C232.195 348.463 237.157 352.423 242.92 355.413C244.023 355.982 245.209 356.416 246.303 357.385C244.699 358.697 243.188 359.875 241.743 361.128C236.179 365.965 231.468 371.487 229.071 378.58C225.922 387.911 227.994 396.174 234.601 403.383C236.973 405.973 239.821 407.945 242.753 409.799C243.731 410.418 244.24 411.044 244.24 412.331C244.232 415.263 245.777 417.569 247.94 419.365C252.15 422.865 257.12 424.712 262.475 425.606C263.101 425.706 263.803 425.555 264.371 426.282C261.564 427.619 258.799 428.906 255.959 430.05C247.899 433.308 239.613 435.806 231.059 437.402C226.081 438.329 221.052 438.897 215.999 439.29C212.933 439.532 209.868 439.607 206.802 439.591C199.452 439.549 192.159 438.88 184.934 437.577C175.512 435.881 166.399 433.158 157.562 429.465C147.647 425.33 138.467 419.941 129.963 413.408C124.4 409.139 119.021 404.653 114.143 399.599C107.21 392.414 101.196 384.536 96.0588 375.982C94.029 372.598 92.2248 369.106 90.4289 365.597C89.3514 363.5 89.2344 361.429 89.9361 359.215C91.2892 354.971 93.7367 351.462 96.9108 348.413C98.8403 346.558 100.97 344.962 103.159 343.425C110.108 338.546 115.655 332.423 119.389 324.737C119.505 324.503 119.689 324.302 119.84 324.085L119.873 324.093Z" fill="#C20000"/>
<path d="M229.689 342.197C227.442 339.833 225.997 336.993 224.937 333.96C222.431 326.834 222.932 319.774 225.546 312.79C227.392 307.861 230.174 303.475 233.457 299.399C236.129 296.082 239.863 294.678 243.823 293.818C247.631 292.991 251.474 292.999 255.341 293.793C266.484 296.082 277.685 296.466 288.995 295.046C303.254 293.258 317.061 289.816 330.401 284.478C334.678 282.765 338.821 280.752 342.98 278.764C348.176 276.282 353.564 275.748 359.152 277.268C361.866 278.003 364.163 279.39 366.16 281.345C373.226 288.271 376.985 296.466 375.916 306.533C375.532 306.884 375.54 307.327 375.624 307.786V307.769C375.156 308.012 375.039 308.488 374.889 308.914C373.995 311.387 372.6 313.584 371.063 315.681C366.586 321.754 361.056 326.725 354.858 330.986C348.627 335.263 342.003 338.814 335.095 341.896C328.688 344.754 322.09 347.068 315.366 348.981C307.104 351.328 298.693 352.891 290.165 353.968C285.061 354.612 279.932 354.411 274.845 355.029C273.434 355.205 272.072 354.687 270.669 354.695C267.002 354.729 263.368 354.411 259.735 353.918C254.381 353.183 249.093 352.164 244.031 350.251C239.345 348.48 234.768 346.475 231.026 342.991C230.775 342.757 230.466 342.632 230.115 342.665H230.124C230.099 342.406 229.94 342.264 229.706 342.197H229.689ZM252.042 308.003C253.587 308.02 255.099 307.87 256.511 307.193C258.599 306.182 258.849 304.486 257.154 302.941C256.811 302.632 256.427 302.356 256.018 302.139C252.627 300.309 249.043 299.674 245.243 300.501C243.839 300.81 242.428 301.278 242.16 302.907C241.893 304.57 243.188 305.414 244.399 306.115C246.754 307.477 249.344 307.97 252.042 308.003Z" fill="#FA4616"/>
<path d="M5.27905 294.879C6.66564 291.428 8.79564 288.454 11.1679 285.647C17.7918 277.811 26.1865 272.523 35.6921 268.914C45.7491 265.096 56.1735 263.601 66.8987 264.169C79.8792 264.854 91.9492 268.396 102.75 275.798C106.959 278.688 110.635 282.164 113.75 286.215C114.377 287.034 114.736 287.853 114.753 288.939C114.87 296.75 116.916 304.077 120.449 311.011C120.984 312.063 121.31 313.049 121.093 314.244C119.865 320.877 117.092 326.792 112.89 332.038C112.723 332.247 112.506 332.406 112.314 332.59C112.088 332.631 111.938 332.748 111.921 332.999C111.512 332.957 111.128 333.024 110.768 333.25C108.73 334.536 106.533 335.522 104.387 336.591C93.1604 342.189 81.2407 345.288 68.7614 346.157C63.9084 346.491 59.0219 346.408 54.1856 345.773C49.0986 345.096 44.1119 344.002 39.2588 342.272C29.0265 338.63 20.2642 332.949 13.8325 324.043C10.2825 319.131 7.84341 313.701 6.50694 307.761C5.54635 303.509 5.26235 299.215 5.29576 294.87L5.27905 294.879ZM45.8744 272.899C43.6191 272.732 41.5141 273.459 39.4259 274.119C33.654 275.931 28.2413 278.463 23.5553 282.381C22.72 283.083 22.0434 283.901 21.6091 284.887C21.1413 285.931 21.4671 286.75 22.5446 287.126C23.4133 287.435 24.3238 287.627 25.2844 287.502C33.0025 286.499 39.8519 283.367 46.1834 278.972C47.2777 278.212 48.255 277.268 49.0151 276.157C50.126 274.528 49.416 273.091 47.4698 272.907C46.9435 272.857 46.4006 272.907 45.866 272.907L45.8744 272.899ZM58.621 270.058C57.1341 270.075 55.9814 270.509 55.2547 271.286C54.1605 272.456 54.4111 274.043 55.806 274.778C57.368 275.606 59.9407 275.196 61.177 273.935C62.2461 272.84 62.0707 271.395 60.776 270.576C60.0744 270.142 59.3059 270.008 58.6293 270.058H58.621Z" fill="#DBF505"/>
<path d="M366.16 169.29C366.059 169.298 365.976 169.265 365.909 169.181C365.926 168.914 365.951 168.647 365.968 168.379C366.536 168.254 367.07 168.02 366.87 167.335C366.678 166.675 366.059 166.759 365.525 166.825C362.401 167.235 359.269 167.26 356.161 166.725C348.159 165.347 340.909 162.439 335.337 156.216C334.811 155.631 334.293 154.837 333.45 155.865C332.79 155.982 332.339 155.631 331.846 155.246C328.413 152.59 325.272 149.657 322.482 146.316C317.871 140.802 313.987 134.929 312.367 127.794C313.511 121.671 316.393 116.374 320.302 111.621C326.842 103.659 335.287 98.4545 344.876 95.0042C354.156 91.6625 363.754 90.4261 373.602 90.8187C384.712 91.2615 395.228 93.9098 405.068 99.0727C413.546 103.525 420.688 109.524 425.783 117.761C429.375 123.567 431.313 129.883 431.471 136.708C431.513 138.429 431.48 140.175 430.97 141.863C430.31 142.256 430.051 142.974 429.634 143.559C428.899 144.586 428.264 145.706 427.437 146.642C423.294 151.303 418.549 155.271 413.095 158.296C405.978 162.256 398.494 165.355 390.492 167.076C384.636 168.338 378.756 169.34 372.733 169.114C371.205 169.056 369.668 169.089 368.139 169.089C367.479 169.089 366.803 168.997 366.168 169.282L366.16 169.29ZM355.117 98.1955C354.382 98.1955 353.647 98.1871 352.912 98.1955C352.578 98.1955 352.244 98.2456 351.918 98.3124C345.094 99.8162 338.904 102.648 333.583 107.243C331.954 108.647 330.534 110.259 329.691 112.272C328.304 115.589 330.342 117.201 332.456 117.769C334.093 118.204 335.772 118.296 337.426 118.037C344.776 116.884 351.325 113.918 357.022 109.131C358.817 107.627 360.413 105.898 361.24 103.634C362.134 101.186 361.298 99.4737 358.868 98.5631C357.64 98.1036 356.378 98.1454 355.109 98.1955H355.117ZM423.235 134.002C423.311 132.147 422.793 130.493 421.957 128.972C421.289 127.761 420.295 126.8 418.767 127.043C417.321 127.277 416.787 128.471 416.453 129.733C415.759 132.322 416.311 134.72 417.672 136.959C417.906 137.352 418.224 137.719 418.583 138.003C420.028 139.19 421.707 138.847 422.559 137.185C423.085 136.165 423.336 135.071 423.252 134.002H423.235Z" fill="#DBF505"/>
<path d="M230.867 379.006C230.775 378.037 231.134 377.134 231.569 376.358C233.565 372.807 235.845 369.465 238.577 366.399C241.074 363.584 244.265 362.264 247.782 361.562C251.749 360.769 255.75 360.81 259.701 361.704C269.934 364.01 280.283 364.77 290.741 364.077C306.01 363.066 320.653 359.515 334.636 353.275C337 352.222 339.238 350.86 341.894 350.51C348.226 349.674 353.822 350.994 358.316 355.806C360.572 358.22 362.426 360.902 363.512 364.043C363.896 365.155 364.088 366.332 364.372 367.485C364.096 367.711 363.988 368.02 363.988 368.371C364.005 370.443 363.211 372.281 362.276 374.052C360.496 377.418 357.798 379.992 354.816 382.272C350.231 385.773 345.202 388.479 339.923 390.769C332.556 393.968 324.904 396.207 317.086 397.903C311.899 399.031 306.653 399.858 301.366 400.468C297.198 400.952 293.021 401.245 288.853 401.462C282.605 401.779 276.349 401.504 270.101 400.844C265.064 400.309 260.077 399.591 255.182 398.321C249.035 396.725 243.021 394.728 237.875 390.81C235.854 389.273 234.049 387.535 232.73 385.288C231.577 383.325 231.326 381.153 230.867 379.014V379.006Z" fill="#FA4616"/>
<path d="M230.867 379.006C231.335 381.145 231.585 383.317 232.73 385.28C234.041 387.527 235.854 389.257 237.875 390.802C243.021 394.72 249.035 396.717 255.183 398.312C260.077 399.582 265.064 400.301 270.101 400.835C276.349 401.495 282.605 401.771 288.853 401.454C293.021 401.245 297.198 400.944 301.366 400.46C306.653 399.85 311.899 399.023 317.086 397.895C324.905 396.199 332.564 393.96 339.923 390.76C345.211 388.463 350.239 385.756 354.817 382.264C357.799 379.983 360.497 377.41 362.276 374.043C363.211 372.272 364.005 370.434 363.988 368.363C363.988 368.012 364.097 367.711 364.372 367.477C365.274 371.094 364.765 374.628 363.721 378.112C362.359 382.673 359.853 386.6 356.754 390.142C351.734 395.873 345.703 400.343 339.071 404.035C327.335 410.568 314.722 414.428 301.5 416.441C296.488 417.201 291.459 417.577 286.389 417.744C277.067 418.045 267.904 417.126 258.9 414.754C252.409 413.041 246.27 410.493 240.782 406.541C236.656 403.567 233.273 399.967 231.159 395.272C228.896 390.226 228.821 385.079 230.374 379.85C230.466 379.549 230.708 379.29 230.884 379.006H230.867Z" fill="#C20000"/>
<path d="M5.27908 294.879C5.24567 299.215 5.52967 303.509 6.49025 307.769C7.82673 313.709 10.2741 319.139 13.8158 324.052C20.2476 332.957 29.0098 338.638 39.2422 342.281C44.0952 344.01 49.0903 345.104 54.1689 345.781C59.0052 346.424 63.9001 346.508 68.7448 346.165C81.2241 345.296 93.1437 342.189 104.37 336.6C106.517 335.53 108.714 334.545 110.752 333.258C111.103 333.032 111.487 332.966 111.904 333.007C110.033 335.915 107.402 338.078 104.754 340.2C96.0255 347.185 86.0103 351.37 75.093 353.442C63.5158 355.639 52.0055 355.322 40.5953 352.314C39.4343 352.005 38.3735 352.164 37.2792 352.556C31.3319 354.712 27.1471 360.869 27.2557 367.335C27.264 367.928 27.2557 368.53 27.2557 369.148C26.5791 369.332 26.1698 368.797 25.7187 368.454C19.0447 363.467 16.6474 353.617 20.2643 346.124C20.4063 345.823 20.6067 345.547 20.7404 345.246C21.2583 344.077 21.1747 343.701 20.0721 342.907C17.4076 340.994 14.9017 338.905 12.6464 336.516C6.99978 330.551 3.12402 323.651 1.94625 315.447C0.91884 308.271 1.92955 301.362 5.27908 294.862V294.879Z" fill="#A5BC00"/>
<path d="M230.099 342.665C230.458 342.632 230.759 342.757 231.009 342.991C234.751 346.475 239.329 348.488 244.015 350.251C249.077 352.164 254.356 353.183 259.718 353.918C263.36 354.411 266.985 354.737 270.652 354.695C272.047 354.678 273.409 355.196 274.829 355.029C279.916 354.411 285.044 354.612 290.148 353.968C298.676 352.891 307.096 351.328 315.349 348.981C322.081 347.068 328.672 344.754 335.078 341.897C341.978 338.822 348.602 335.263 354.842 330.986C361.048 326.734 366.569 321.754 371.046 315.681C372.592 313.592 373.978 311.387 374.872 308.914C375.022 308.488 375.148 308.003 375.607 307.77C375.782 309.273 375.273 310.668 374.88 312.072C372.959 319.048 369.2 324.996 364.431 330.318C357.54 338.012 349.329 343.985 340.182 348.747C329.332 354.394 317.905 358.354 305.885 360.56C300.84 361.479 295.753 362.089 290.624 362.44C286.681 362.707 282.756 362.782 278.821 362.607C266.718 362.072 254.999 359.808 244.115 354.211C239.145 351.654 234.726 348.354 231.009 344.152C230.625 343.718 230.074 343.359 230.107 342.665H230.099Z" fill="#C20000"/>
<path d="M366.16 169.29C366.795 169.014 367.471 169.098 368.131 169.098C369.66 169.098 371.197 169.064 372.725 169.123C378.748 169.34 384.637 168.337 390.484 167.084C398.486 165.363 405.97 162.264 413.087 158.304C418.533 155.272 423.286 151.312 427.429 146.65C428.264 145.714 428.89 144.595 429.626 143.567C430.043 142.982 430.302 142.264 430.962 141.871C430.586 146.842 428.682 151.303 426.192 155.522C423.002 160.952 418.666 165.355 413.613 169.073C412.282 170.053 411.973 171.278 412.686 172.749C416.428 180.418 413.755 190.802 406.839 195.447C406.571 195.631 406.279 195.764 405.928 195.957C405.419 195.38 405.719 194.77 405.728 194.227C405.878 187.744 401.752 181.479 395.905 179.298C394.627 178.822 393.399 178.663 392.021 179.073C388.688 180.05 385.255 180.551 381.822 181.036C380.945 181.161 380.184 181.186 379.474 180.401C375.791 176.316 371.481 172.957 366.887 169.942C366.611 169.758 366.385 169.515 366.135 169.298L366.16 169.29Z" fill="#A5BC00"/>
<path d="M312.367 127.786C313.987 134.912 317.871 140.794 322.482 146.307C325.272 149.649 328.413 152.581 331.846 155.238C332.339 155.622 332.79 155.973 333.45 155.856C333.575 156.475 333.316 156.75 332.698 156.642C331.846 156.491 330.994 156.324 330.142 156.165C326.466 155.48 322.774 154.929 319.041 154.662C317.729 154.57 316.861 154.144 316.192 152.907C312.183 145.505 310.571 137.686 311.949 129.332C312.033 128.805 312.225 128.304 312.367 127.794V127.786Z" fill="#A5BC00"/>
<path d="M269.458 159.925C269.207 160.359 268.781 160.51 268.338 160.693C259.426 164.319 250.897 168.697 242.862 173.985C239.805 175.998 236.948 178.296 234.225 180.76C232.354 182.464 230.408 184.077 228.871 186.115C228.562 186.525 228.236 186.992 227.643 187.084C227.568 186.441 227.902 185.923 228.169 185.397C229.998 181.696 231.769 177.97 233.231 174.102C233.682 172.899 234.45 172.139 235.603 171.579C245.952 166.575 256.711 162.74 267.879 160.05C268.405 159.925 268.915 159.816 269.458 159.933V159.925Z" fill="#C20000"/>
<path d="M365.968 168.371C365.951 168.638 365.926 168.906 365.909 169.173C365.5 169.173 365.007 169.031 365.049 168.622C365.099 168.104 365.625 168.363 365.968 168.371Z" fill="#A5BC00"/>
<path d="M375.599 307.786C375.524 307.327 375.507 306.884 375.891 306.533C375.983 306.992 376.008 307.444 375.599 307.786Z" fill="#C20000"/>
<path d="M270.644 159.582C270.41 159.883 270.093 159.925 269.742 159.85C269.967 159.515 270.285 159.465 270.644 159.582Z" fill="#C20000"/>
<path d="M227.668 187.068C227.651 187.335 227.509 187.477 227.242 187.477C227.317 187.276 227.434 187.109 227.668 187.068Z" fill="#C20000"/>
<path d="M111.913 333.007C111.93 332.757 112.072 332.64 112.305 332.598C112.289 332.84 112.172 332.991 111.913 333.007Z" fill="#A5BC00"/>
<path d="M229.689 342.197C229.931 342.264 230.082 342.406 230.107 342.665C229.831 342.632 229.714 342.456 229.689 342.197Z" fill="#C20000"/>
<path d="M56.7582 200.326C55.8811 194.879 54.4946 189.741 52.1641 184.896C50.6271 181.688 48.7227 178.722 46.292 176.107C43.6107 173.225 40.4616 171.036 36.7445 169.749C36.6944 169.499 36.778 169.307 36.9617 169.24C43.9698 166.658 48.4387 161.429 51.7381 155.021C54.3609 149.933 55.8477 144.478 56.7499 138.764C57.368 139.282 57.3011 139.967 57.4181 140.585C58.671 147.343 60.8094 153.759 64.7603 159.465C67.7924 163.843 71.6014 167.293 76.6883 169.156C76.8721 169.223 77.0726 169.298 77.0809 169.549C77.1227 169.683 77.0559 169.775 76.8972 169.833C70.1062 172.323 65.6791 177.335 62.3964 183.526C59.8989 188.221 58.3787 193.25 57.4264 198.463C57.3179 199.039 57.3596 199.666 56.7582 200.334V200.326Z" fill="#DBF505"/>
<path d="M404.608 378.956C404.065 378.446 404.141 377.736 404.024 377.093C403.172 372.548 401.902 368.137 399.906 363.951C396.556 356.934 391.878 351.236 384.327 348.446C384.419 348.262 384.444 348.07 384.528 348.045C391.344 345.472 395.838 340.443 399.137 334.177C401.576 329.532 403.08 324.561 404.032 319.415C404.149 318.772 404.082 318.07 404.692 317.502C405.343 321.428 406.22 325.246 407.607 328.922C409.72 334.553 412.644 339.666 417.23 343.701C419.452 345.656 421.999 347.068 424.622 348.07C424.806 348.362 424.772 348.463 424.622 348.521C418.691 350.66 414.482 354.804 411.249 360.058C408.208 365.004 406.388 370.426 405.235 376.09C405.051 377.001 404.884 377.92 404.709 378.839C404.709 378.88 404.642 378.905 404.6 378.956H404.608Z" fill="#DBF505"/>
<path d="M224.118 45.8062C223.976 51.7961 220.276 54.3943 215.097 54.01C212.825 53.8429 210.645 53.1996 208.582 52.1971C200.596 48.3291 194.682 42.4143 190.957 34.3525C189.913 32.0969 189.311 29.7243 189.253 27.2013C189.128 22.3057 192.101 18.3625 198.566 18.9557C200.705 19.1478 202.751 19.7577 204.689 20.685C213.017 24.695 219.09 30.8939 222.715 39.4235C223.608 41.5204 224.076 43.7427 224.118 45.7978V45.8062Z" fill="#FCF6F5"/>
<path d="M248.776 233.985C248.375 233.985 247.966 234.043 247.581 233.977C246.036 233.693 245.493 232.657 246.078 231.195C246.454 230.251 247.088 229.482 247.773 228.747C249.227 227.176 250.847 225.781 252.593 224.561C258.682 220.301 265.072 216.65 272.423 215.004C273.718 214.712 275.037 214.453 276.374 214.77C277.702 215.088 278.17 215.798 277.811 217.101C277.677 217.602 277.385 218.07 277.109 218.521C276.391 219.657 275.472 220.635 274.453 221.495C267.946 226.951 260.662 231.003 252.501 233.392C251.298 233.743 250.062 234.085 248.776 233.977V233.985Z" fill="#FCF6F5"/>
<path d="M148.098 225.33C148.098 221.119 148.098 216.917 148.098 212.707C148.098 208.596 144.765 205.138 140.697 205.063C139.026 205.029 137.356 205.063 135.685 205.054C135.218 205.054 134.75 205.054 134.29 204.987C133.873 204.929 133.53 204.72 133.522 204.227C133.514 203.701 133.881 203.55 134.307 203.534C134.975 203.509 135.644 203.517 136.312 203.517C137.782 203.517 139.252 203.5 140.722 203.517C143.128 203.559 144.965 202.498 146.335 200.593C147.655 198.764 148.39 196.725 148.424 194.436C148.524 187.561 148.649 180.685 148.766 173.801C148.774 173.2 148.808 172.598 148.883 172.005C148.916 171.729 149.167 171.545 149.443 171.512C149.81 171.462 150.169 171.654 150.236 171.98C150.345 172.489 150.328 173.033 150.32 173.567C150.211 180.643 150.119 187.728 149.96 194.804C149.919 196.834 150.537 198.605 151.623 200.259C153.051 202.423 155.014 203.592 157.662 203.525C159.065 203.492 160.468 203.517 161.872 203.525C162.406 203.525 163.058 203.517 163.033 204.252C163.016 204.929 162.398 205.038 161.847 205.046C160.443 205.063 159.04 205.113 157.637 205.046C154.68 204.904 152.7 206.383 151.28 208.789C150.178 210.668 149.668 212.723 149.643 214.904C149.551 222.515 149.443 230.125 149.342 237.744C149.342 238.212 149.292 238.672 149.242 239.139C149.2 239.515 148.95 239.766 148.607 239.808C148.148 239.866 147.864 239.549 147.755 239.131C147.688 238.88 147.697 238.605 147.697 238.337C147.697 234.002 147.697 229.657 147.697 225.322C147.83 225.322 147.964 225.322 148.098 225.322V225.33Z" fill="#FCF6F5"/>
<path d="M232.262 73.1829C232.279 75.2798 231.978 77.3015 230.984 79.1812C229.121 82.7485 225.755 83.2163 223.032 80.284C219.482 76.4661 218.672 68.6465 221.37 64.1353C223.232 61.0191 226.331 60.6181 228.837 63.2163C230.859 65.3132 231.778 67.9364 232.12 70.7769C232.22 71.5705 232.212 72.3725 232.254 73.1745L232.262 73.1829Z" fill="#FCF6F5"/>
<path d="M292.453 207.97C293.18 207.97 293.898 207.928 294.592 208.254C296.028 208.939 296.396 210.175 295.51 211.512C294.015 213.759 289.313 215.305 286.715 214.386C285.002 213.785 284.51 212.406 285.604 210.952C287.057 209.031 289.162 208.279 291.459 207.97C291.785 207.928 292.119 207.97 292.453 207.97Z" fill="#FCF6F5"/>
<path d="M252.033 308.003C249.344 307.962 246.746 307.469 244.39 306.115C243.179 305.414 241.885 304.57 242.152 302.907C242.419 301.278 243.831 300.81 245.234 300.501C249.026 299.674 252.61 300.309 256.009 302.139C256.41 302.356 256.803 302.632 257.145 302.941C258.841 304.486 258.59 306.182 256.502 307.193C255.099 307.87 253.579 308.028 252.033 308.003Z" fill="#FCF6F5"/>
<path d="M45.8743 272.899C46.4088 272.899 46.9434 272.857 47.478 272.899C49.4243 273.083 50.1259 274.528 49.0233 276.149C48.2716 277.251 47.2943 278.204 46.1917 278.964C39.8601 283.358 33.0191 286.5 25.2926 287.494C24.332 287.619 23.4215 287.418 22.5528 287.118C21.4753 286.733 21.1495 285.923 21.6173 284.879C22.0517 283.893 22.7199 283.074 23.5635 282.373C28.2495 278.454 33.6623 275.923 39.4341 274.11C41.5307 273.45 43.6273 272.723 45.8826 272.89L45.8743 272.899Z" fill="#FCF6F5"/>
<path d="M58.621 270.067C59.3059 270.017 60.0744 270.15 60.7677 270.585C62.0624 271.395 62.2378 272.84 61.1686 273.943C59.9324 275.205 57.3597 275.614 55.7977 274.787C54.4027 274.052 54.1521 272.465 55.2464 271.295C55.9731 270.518 57.1341 270.075 58.6126 270.067H58.621Z" fill="#FCF6F5"/>
<path d="M355.117 98.187C356.387 98.1369 357.648 98.0951 358.876 98.5546C361.307 99.4652 362.142 101.178 361.248 103.626C360.421 105.898 358.826 107.619 357.03 109.123C351.333 113.91 344.785 116.875 337.434 118.028C335.78 118.287 334.101 118.204 332.464 117.761C330.351 117.193 328.313 115.581 329.699 112.264C330.543 110.251 331.963 108.647 333.592 107.235C338.912 102.648 345.094 99.8077 351.926 98.304C352.252 98.2288 352.586 98.1954 352.92 98.187C353.655 98.1703 354.39 98.187 355.126 98.187H355.117Z" fill="#FCF6F5"/>
<path d="M423.244 134.002C423.327 135.079 423.077 136.174 422.55 137.185C421.698 138.847 420.019 139.19 418.574 138.003C418.223 137.711 417.906 137.352 417.664 136.959C416.302 134.712 415.751 132.322 416.444 129.733C416.787 128.471 417.321 127.276 418.758 127.043C420.287 126.8 421.289 127.761 421.949 128.972C422.784 130.493 423.302 132.139 423.227 134.002H423.244Z" fill="#FCF6F5"/>
</g>
<defs>
<clipPath id="clip0_432_3414">
<rect width="433" height="470" fill="white"/>
</clipPath>
</defs>
</svg>
