<svg width="380" height="408" viewBox="0 0 380 408" fill="none" xmlns="http://www.w3.org/2000/svg">
<g clip-path="url(#clip0_432_355)">
<path d="M257.576 108.764C259.522 109.277 261.404 109.213 263.251 109.383C274.673 110.48 285.91 112.53 296.954 115.627C312.047 119.863 326.385 125.836 339.597 134.351C350.071 141.107 359.389 149.137 366.761 159.261C372.18 166.7 376.166 174.809 378.026 183.879C380.543 196.138 378.903 207.857 373.314 219.027C368.465 228.723 361.407 236.604 353.001 243.346C344.324 250.301 334.684 255.612 324.403 259.806C322.514 260.574 322.528 260.574 323.184 262.511C327.69 275.859 332.182 289.208 336.688 302.564C336.745 302.727 336.838 302.877 336.873 303.041C336.966 303.468 337.237 303.952 336.709 304.265C336.282 304.521 335.954 304.172 335.633 303.966C331.02 300.933 326.407 297.9 321.808 294.846C310.094 287.072 298.38 279.305 286.687 271.502C285.346 270.605 284.07 270.285 282.402 270.513C277.668 271.154 272.898 271.531 268.114 271.773C262.759 272.051 257.405 272.072 252.05 271.951C248.984 271.88 245.919 271.659 242.774 271.502C242.66 272.264 243.166 272.784 243.445 273.346C246.681 279.839 248.264 286.709 247.929 293.949C247.58 301.467 245.313 308.451 241.648 315.001C236.764 323.722 230.083 330.891 222.39 337.177C212.758 345.044 202.028 351.102 190.648 356.029C176.909 361.973 162.628 366.088 147.898 368.723C140.718 370.004 133.503 370.901 126.231 371.499C117.582 372.211 108.927 372.339 100.271 371.976C91.6798 371.613 83.124 370.737 74.6681 369.093C73.7127 368.908 72.9142 369.128 72.0729 369.563C59.4816 376.034 46.869 382.484 34.2636 388.934C33.7074 389.219 33.1584 389.525 32.5809 389.767C32.1318 389.952 31.6683 390.45 31.1692 390.045C30.5703 389.56 31.0694 388.97 31.2405 388.478C32.0533 386.115 32.916 383.765 33.7645 381.416C36.2813 374.468 38.7981 367.526 41.3078 360.585C41.7641 359.325 41.757 359.318 40.5378 358.756C32.2173 354.925 24.4316 350.262 17.587 344.133C11.4055 338.587 6.3433 332.201 3.22758 324.448C-1.52086 312.623 -0.658155 300.976 4.63928 289.55C8.40381 281.434 13.9151 274.585 20.3819 268.477C29.2798 260.083 39.4683 253.569 50.4125 248.201C65.4707 240.819 81.3344 235.878 97.7757 232.71C105.84 231.158 113.96 230.076 122.138 229.442C127.821 229.001 133.51 228.794 139.214 228.801C139.813 228.801 140.419 228.801 141.096 228.801C140.982 228.04 140.526 227.755 140.212 227.399C133.375 219.61 128.02 210.975 125.083 200.958C123.193 194.508 122.409 187.944 123.051 181.231C123.136 180.341 123.179 179.444 123.25 178.483C121.283 178.326 119.429 178.668 117.575 178.775C110.11 179.209 102.653 179.18 95.1948 178.732C92.6423 178.575 90.0898 178.319 87.5374 178.055C86.6675 177.97 85.8761 178.077 85.0419 178.354C63.9164 185.26 42.7837 192.152 21.651 199.036C19.8685 199.62 18.0861 200.196 16.2965 200.773C15.9186 200.894 15.5407 201.051 15.1486 201.093C14.4927 201.172 14.1576 200.744 14.4356 200.154C14.6495 199.698 14.9917 199.299 15.2912 198.886C23.3835 187.738 31.4758 176.596 39.561 165.454C39.8248 165.084 40.0886 164.714 40.3809 164.301C39.889 163.682 39.1617 163.461 38.5486 163.105C30.1497 158.207 22.6919 152.213 16.7457 144.467C10.2861 136.059 6.38608 126.626 5.39504 116.026C4.53233 106.792 5.95116 97.8859 9.07401 89.2147C12.8813 78.6498 18.8133 69.3378 26.0358 60.8019C32.802 52.8141 40.5164 45.8373 48.8868 39.5581C67.3957 25.6757 88.0364 16.0932 110.103 9.42248C120.912 6.15475 131.92 3.79117 143.107 2.31749C154.187 0.836696 165.323 0.188847 176.517 0.665834C192.545 1.34928 208.209 3.94068 223.232 9.74996C233.834 13.8506 243.594 19.368 251.965 27.1565C259.344 34.0194 264.948 42.0783 268.135 51.6893C271.593 62.1261 271.671 72.6981 269.069 83.32C266.98 91.8488 263.329 99.7084 258.631 107.105C258.303 107.625 257.975 108.145 257.583 108.771L257.576 108.764ZM33.2797 387.852C33.8643 387.774 34.3349 387.432 34.8339 387.168C47.1542 380.861 59.4745 374.56 71.7805 368.231C72.7502 367.733 73.6271 367.619 74.7109 367.818C78.069 368.438 81.4343 368.986 84.828 369.377C88.671 369.826 92.5282 370.161 96.3854 370.46C100.991 370.823 105.611 370.937 110.21 370.901C116.071 370.851 121.939 370.659 127.785 370.097C132.997 369.591 138.209 369.036 143.378 368.21C151.135 366.971 158.807 365.312 166.379 363.198C180.603 359.233 194.213 353.815 206.947 346.304C215.624 341.185 223.617 335.184 230.54 327.83C230.96 327.381 231.495 327.004 231.68 326.363C234.461 323.708 236.65 320.582 238.71 317.372C242.56 311.356 245.291 304.877 246.232 297.772C247.936 284.958 243.908 273.887 235.659 264.177C232.543 260.375 228.921 257.1 225.043 254.096C224.522 253.69 223.937 253.569 223.303 253.498C218.376 252.964 213.499 252.174 208.694 250.963C195.29 247.589 182.905 242.072 171.947 233.55C171.355 233.094 170.742 232.795 169.965 232.66C165.929 231.962 161.858 231.492 157.787 231.087C154.679 230.773 151.549 230.681 148.433 230.489C145.766 230.218 143.093 230.204 140.419 230.19C128.149 230.104 115.964 231.03 103.85 233.023C87.8867 235.643 72.4079 239.922 57.5637 246.4C44.7016 252.017 32.7164 259.044 22.2998 268.548C15.6833 274.585 10.0651 281.405 6.14367 289.514C5.01003 291.863 3.91204 294.241 3.38444 296.833C2.02978 300.378 1.58773 304.108 1.48078 307.853C1.29541 314.196 2.62155 320.276 5.338 326.021C9.68004 335.212 16.5104 342.275 24.6383 348.162C31.0765 352.825 38.0851 356.463 45.4359 359.46C45.6498 359.546 45.8637 359.624 46.0634 359.731C46.3913 359.909 46.6195 360.179 46.4698 360.557C46.2987 360.998 45.9422 361.126 45.5001 360.948C45.0795 360.785 44.6517 360.614 44.231 360.45C43.0047 359.966 42.9833 359.973 42.5127 361.183C42.4272 361.397 42.3701 361.61 42.2917 361.824C39.8747 368.502 37.4292 375.172 35.0478 381.857C34.3634 383.78 33.4722 385.638 33.1085 387.667C32.9945 387.774 32.9018 387.887 33.08 388.001C33.1085 388.016 33.2226 387.902 33.2939 387.852H33.2797ZM332.795 300.385C333.422 300.883 333.964 301.531 334.991 301.716C334.863 301.239 334.799 300.912 334.692 300.599C329.886 286.503 325.074 272.407 320.261 258.318C320.154 257.997 320.047 257.663 320.011 257.328C319.983 257.029 320.133 256.773 320.453 256.687C320.689 256.63 320.931 256.709 321.052 256.908C321.252 257.25 321.409 257.613 321.566 257.976C322.122 259.279 322.129 259.293 323.355 258.795C334.029 254.48 344.025 248.984 352.951 241.666C360.972 235.095 367.688 227.434 372.294 218.073C377.064 208.369 378.861 198.16 377.306 187.41C376.073 178.874 372.886 171.093 368.28 163.853C362.113 154.163 354.035 146.282 344.809 139.533C332.852 130.791 319.655 124.448 305.673 119.692C294.38 115.848 282.794 113.214 270.98 111.583C263.978 110.615 256.948 110.024 249.883 109.846C244.357 109.711 238.839 109.725 233.313 110.074C228.878 110.352 224.458 110.772 220.037 111.206C218.961 111.313 218.141 111.719 217.392 112.53C215.225 114.872 212.915 117.072 210.512 119.172C196.709 131.232 180.98 140.01 163.833 146.325C154.893 149.614 145.731 152.099 136.305 153.565C135.221 153.736 134.487 154.199 133.874 155.146C131.471 158.826 129.346 162.649 127.778 166.757C125.382 173.029 123.892 179.479 124.291 186.257C124.256 186.705 124.17 187.161 124.184 187.609C124.32 190.742 124.691 193.846 125.382 196.9C128.113 208.939 134.33 219.062 142.594 228.061C143.135 228.652 143.734 228.915 144.533 228.922C148.925 228.937 153.295 229.271 157.659 229.663C158.964 229.784 160.283 229.898 161.58 229.656C163.705 229.257 164.389 227.769 163.356 225.89C163.049 225.334 162.279 224.715 163.149 224.167C163.862 223.718 164.233 224.551 164.625 224.978C168.268 228.944 172.368 232.368 176.802 235.394C188.31 243.232 201.001 248.194 214.64 250.814C220.864 252.01 227.153 252.572 233.491 252.515C234.404 252.508 235.309 252.387 236.215 252.38C236.65 252.38 236.978 252.629 237.013 253.106C237.042 253.491 236.814 253.74 236.464 253.875C236.358 253.918 236.236 253.911 236.129 253.946C233.805 254.658 233.327 255.477 233.969 257.833C234.482 259.727 235.53 261.357 236.657 262.945C238.14 265.031 239.78 267.01 241.085 269.224C241.448 269.844 241.912 270.043 242.596 270.1C246.517 270.399 250.432 270.627 254.367 270.669C260.806 270.734 267.237 270.634 273.661 270.093C277.012 269.808 280.355 269.516 283.678 269.011C284.769 268.847 285.667 269.053 286.516 269.787C287.2 270.385 287.999 270.84 288.754 271.346C302.23 280.288 315.698 289.243 329.18 298.164C330.357 298.94 331.433 299.894 332.788 300.392L332.795 300.385ZM269.433 65.7498C269.212 60.5385 268.135 55.491 266.331 50.6072C262.645 40.6403 256.392 32.5172 248.3 25.7255C240.222 18.948 231.046 14.0856 221.2 10.4476C209.157 5.99101 196.673 3.5776 183.889 2.51683C175.07 1.78355 166.243 1.71236 157.424 2.27478C147.406 2.90839 137.482 4.26816 127.657 6.35409C104.677 11.245 83.0171 19.4962 62.9325 31.7412C50.163 39.5225 38.4987 48.6565 28.5811 59.9049C20.9166 68.6046 14.5996 78.1443 10.5499 89.0723C6.6071 99.7013 5.28096 110.572 7.56962 121.764C8.23983 125.046 9.12392 128.278 10.6925 131.275C11.3056 133.546 12.5177 135.547 13.6727 137.554C17.3517 143.933 22.1786 149.358 27.8182 154.071C31.54 157.182 35.5398 159.901 39.7678 162.279C41.2436 163.112 41.2508 163.084 42.1562 161.696C42.4343 161.268 42.7266 160.848 43.0617 160.464C43.2614 160.236 43.5893 160.222 43.846 160.386C44.1241 160.556 44.174 160.855 44.0456 161.133C43.8745 161.489 43.6749 161.838 43.461 162.173C42.42 163.803 41.3078 165.383 40.167 166.942C32.6807 177.194 25.2444 187.474 17.7866 197.747C17.5442 198.082 17.2234 198.402 17.259 198.844C17.751 199 18.0575 198.822 18.3784 198.723C20.7597 197.954 23.1482 197.199 25.5296 196.423C38.6769 192.13 51.8242 187.83 64.9787 183.537C70.875 181.608 76.807 179.764 82.6535 177.707C84.7496 176.966 86.7673 176.546 88.9776 176.845C93.0416 177.386 97.1269 177.621 101.219 177.728C108.171 177.906 115.123 177.742 122.053 177.13C123.5 177.002 123.521 177.03 123.792 175.614C124.641 171.235 126.067 167.049 127.935 163.005C128.391 162.023 128.855 161.033 129.147 160.008C129.753 157.901 128.855 156.306 126.794 155.573C126.088 155.324 125.368 155.203 124.612 155.231C123.928 155.253 123.243 155.26 122.559 155.238C122.053 155.224 121.432 155.26 121.454 154.512C121.468 153.893 122.003 153.893 122.466 153.871C122.637 153.871 122.808 153.871 122.98 153.85C125.589 153.615 128.206 153.451 130.801 153.124C139.749 151.999 148.518 150.056 157.096 147.293C173.779 141.933 189.201 134.144 203.175 123.529C212.273 116.617 220.216 108.622 226.476 99.025C227.41 97.594 228.215 96.0919 229.107 94.6324C229.406 94.1341 229.598 93.2299 230.39 93.6002C231.253 94.0059 230.575 94.6894 230.311 95.1877C229.641 96.4407 228.907 97.6581 228.201 98.8897C227.495 100.121 226.754 101.339 226.376 102.727C225.506 105.888 226.732 107.967 229.934 108.672C230.483 108.793 231.067 108.8 231.63 108.785C233.563 108.728 235.502 108.622 237.434 108.551C243.074 108.358 248.713 108.401 254.346 108.793C255.401 108.864 256.128 108.629 256.749 107.653C262.51 98.6548 266.902 89.0937 268.67 78.4789C269.368 74.2643 269.775 70.0213 269.411 65.7426L269.433 65.7498Z" fill="#121212"/>
<path d="M200.475 393.118C208.139 393.076 217.023 393.261 225.899 393.638C234.94 394.023 243.973 394.628 252.936 396.009C255.516 396.407 258.097 396.856 260.586 397.689C261.284 397.924 261.983 398.187 262.618 398.55C264.186 399.469 264.201 400.551 262.696 401.519C262.026 401.953 261.277 402.231 260.522 402.48C257.541 403.484 254.461 404.025 251.367 404.481C242.063 405.848 232.701 406.467 223.311 406.951C207.825 407.748 192.339 407.77 176.846 407.442C169.332 407.286 161.831 406.901 154.331 406.275C148.598 405.798 142.887 405.221 137.24 404.16C135.508 403.833 133.775 403.477 132.135 402.822C131.002 402.373 129.398 402.138 129.426 400.629C129.455 399.155 131.059 398.871 132.185 398.451C134.588 397.554 137.112 397.084 139.636 396.657C147.557 395.325 155.55 394.642 163.564 394.136C175.449 393.382 187.349 393.097 200.475 393.104V393.118Z" fill="#121212"/>
<path d="M10.6903 131.281C9.12179 128.284 8.2377 125.052 7.5675 121.77C5.27884 110.578 6.60498 99.7072 10.5478 89.0782C14.5975 78.1502 20.9145 68.6104 28.579 59.9108C38.4965 48.6624 50.1609 39.5284 62.9303 31.7471C83.015 19.5021 104.675 11.2438 127.655 6.35997C137.472 4.27404 147.404 2.91427 157.421 2.28066C166.248 1.71824 175.068 1.78943 183.887 2.52271C196.671 3.58347 209.148 6.00401 221.197 10.4535C231.044 14.0986 240.22 18.961 248.298 25.7314C256.39 32.516 262.643 40.6461 266.329 50.613C268.133 55.4968 269.209 60.5444 269.43 65.7556C268.946 67.2578 268.504 68.7742 267.883 70.2407C265.809 75.1388 262.636 79.1113 258.151 82.0017C256.212 83.2547 254.052 84.0592 251.756 84.1303C249.902 84.1873 248.048 83.7388 246.223 83.3259C241.303 82.2082 236.427 80.884 231.293 81.0976C226.424 81.2969 222.231 82.9842 218.681 86.3159C216.028 88.8006 214.125 91.8334 212.378 94.9587C208.528 101.843 203.708 107.973 198.211 113.597C194.582 117.313 190.39 120.332 186.147 123.293C182.419 125.906 178.447 128.113 174.476 130.341C168.651 133.609 162.562 136.25 156.281 138.464C151.133 140.28 145.857 141.632 140.481 142.551C136.624 143.213 132.752 143.768 128.81 143.654C125.566 143.562 122.314 143.611 119.063 143.619C117.131 143.619 115.213 143.583 113.288 143.939C109.894 144.558 106.714 145.64 103.748 147.434C99.9054 149.755 96.9323 152.945 94.6365 156.704C92.6117 160.028 89.5387 161.716 86.038 162.684C82.6014 163.638 79.0864 164.044 75.4431 163.517C72.6482 163.118 69.8177 162.812 67.0371 162.307C59.5936 160.961 52.3141 158.982 45.2556 156.241C39.4662 153.991 33.8693 151.35 28.636 147.99C22.4117 144.003 16.8861 139.247 12.43 133.303C11.9024 132.598 11.6457 131.644 10.6975 131.295L10.6903 131.281ZM39.3093 73.5583C39.5589 73.5298 40.0152 73.48 40.4644 73.4088C42.9099 73.0172 45.17 72.0989 47.366 71.0025C54.0537 67.6849 59.9287 63.2212 65.3972 58.195C68.9693 54.9059 72.249 51.3606 74.8656 47.2457C75.9351 45.5655 76.8905 43.8142 77.1329 41.7781C77.3682 39.8274 76.5055 38.6029 74.5804 38.19C73.789 38.0191 72.9976 38.0903 72.2062 38.2256C69.4826 38.6884 66.9801 39.7634 64.5417 41.0092C58.1035 44.3054 52.4424 48.6766 47.1521 53.5462C43.6656 56.7569 40.4715 60.2311 37.9048 64.2392C36.9208 65.777 36.0368 67.3788 35.6589 69.18C35.0742 71.928 36.379 73.5369 39.3236 73.5583H39.3093ZM89.8382 25.7314C86.5656 25.7171 83.0221 27.9383 81.7601 30.7219C80.5124 33.4913 81.7886 35.9261 84.7689 36.4458C88.291 37.0652 92.7828 34.5379 94.0733 31.2132C95.0714 28.6431 93.8095 26.3507 91.093 25.831C90.651 25.7456 90.1875 25.7456 89.831 25.7171L89.8382 25.7314ZM262.008 58.7646C261.745 55.1195 260.611 51.4318 258.429 48.0786C258.03 47.4592 257.574 46.8683 256.925 46.4839C255.941 45.9001 255.214 46.1422 254.736 47.1887C254.472 47.7725 254.429 48.399 254.429 49.0183C254.465 53.3326 255.805 57.241 258.208 60.8007C258.558 61.3204 258.978 61.7831 259.52 62.1177C260.511 62.7228 261.238 62.4879 261.695 61.4343C262.023 60.6796 261.98 59.8823 262.008 58.7646Z" fill="#FA4616"/>
<path d="M124.289 186.268C123.897 179.491 125.38 173.041 127.775 166.768C129.344 162.661 131.468 158.838 133.871 155.157C134.491 154.21 135.226 153.747 136.302 153.577C145.728 152.11 154.89 149.625 163.831 146.336C180.985 140.022 196.706 131.244 210.509 119.184C212.912 117.083 215.229 114.884 217.39 112.541C218.138 111.73 218.958 111.324 220.035 111.217C224.455 110.783 228.876 110.363 233.31 110.085C238.836 109.736 244.354 109.715 249.88 109.857C256.946 110.035 263.983 110.633 270.977 111.595C282.791 113.225 294.37 115.859 305.671 119.703C319.659 124.466 332.849 130.802 344.806 139.545C354.032 146.294 362.11 154.167 368.277 163.864C372.883 171.097 376.07 178.885 377.304 187.421C378.858 198.171 377.061 208.373 372.291 218.084C367.686 227.446 360.969 235.099 352.948 241.677C344.022 248.995 334.026 254.492 323.353 258.806C322.119 259.304 322.119 259.283 321.563 257.987C321.406 257.624 321.249 257.261 321.05 256.919C320.928 256.713 320.686 256.634 320.451 256.698C320.13 256.777 319.98 257.04 320.009 257.339C320.044 257.674 320.144 258.008 320.258 258.329C325.064 272.425 329.876 286.521 334.689 300.61C334.796 300.923 334.86 301.251 334.988 301.728C333.962 301.542 333.42 300.902 332.792 300.396C332.864 299.642 332.243 299.314 331.816 298.887C329.448 296.509 327.031 294.188 324.565 291.91C320.679 288.322 317.071 284.449 313.178 280.854C308.537 276.575 304.123 272.048 299.61 267.641C289.55 257.823 279.64 247.842 269.722 237.875C266.421 234.558 262.592 232.073 258.315 230.258C257.017 229.702 255.655 229.275 254.258 228.983C250.208 228.136 246.13 228.371 242.066 228.713C238.957 228.976 235.863 229.354 232.733 229.346C232.105 229.346 231.464 229.268 230.858 229.389C227.599 230.023 224.398 229.439 221.254 228.777C214.538 227.367 209.012 223.708 204.1 219.109C201.447 216.624 198.98 213.94 196.456 211.321C192.991 207.725 189.79 203.874 185.954 200.613C183.509 198.534 180.985 196.655 178.083 195.288C173.655 193.202 169.171 192.711 164.601 194.832C161.499 196.271 158.576 198.043 155.802 200.029C154.034 201.297 152.166 202.343 150.177 203.198C147.56 204.322 144.765 204.899 142.006 204.294C136.431 203.084 132.124 199.73 128.745 195.281C126.898 192.846 125.665 189.984 124.866 186.994C124.774 186.638 124.688 186.339 124.274 186.275L124.289 186.268ZM359.722 176.443C362.017 176.472 362.966 175.383 362.673 173.233C362.524 172.143 362.131 171.147 361.661 170.179C360.734 168.278 359.593 166.519 358.303 164.853C353.968 159.286 348.82 154.602 342.874 150.793C341.291 149.782 339.644 148.892 337.862 148.266C336.785 147.881 335.687 147.604 334.532 147.689C332.992 147.803 332.172 148.664 332.144 150.223C332.122 151.391 332.521 152.459 332.985 153.498C333.848 155.428 334.995 157.186 336.286 158.852C340.172 163.878 344.735 168.207 349.897 171.916C351.886 173.34 353.961 174.628 356.235 175.561C357.39 176.038 358.567 176.472 359.722 176.443ZM369.454 184.531C369.454 182.303 367.678 180.501 365.482 180.501C363.201 180.501 361.49 182.189 361.454 184.46C361.418 186.788 363.201 188.603 365.497 188.582C367.7 188.56 369.454 186.766 369.454 184.524V184.531Z" fill="#DBF505"/>
<path d="M3.375 296.828C3.9026 294.244 4.99346 291.859 6.13423 289.51C10.0556 281.401 15.6739 274.581 22.2903 268.543C32.6998 259.039 44.685 252.005 57.5543 246.396C72.3985 239.917 87.8773 235.638 103.841 233.019C115.954 231.032 128.139 230.1 140.41 230.185C143.083 230.206 145.757 230.214 148.423 230.484C148.495 230.904 148.816 231.16 149.079 231.459C150.441 232.997 152.06 234.272 153.635 235.567C157.706 238.935 161.977 242.039 166.519 244.751C169.984 246.823 173.485 248.837 177.128 250.582C181.384 252.618 185.712 254.497 190.154 256.092C195.879 258.142 201.704 259.851 207.658 261.104C211.037 261.816 214.431 262.435 217.861 262.905C220.27 263.233 222.694 263.638 225.104 263.738C228.619 263.887 232.134 264.35 235.664 264.172C243.92 273.89 247.941 284.953 246.237 297.768C245.296 304.88 242.565 311.358 238.715 317.367C236.655 320.578 234.473 323.703 231.685 326.359C230.894 326.231 230.416 326.843 229.896 327.22C225.275 330.545 220.406 333.471 215.365 336.091C211.779 337.949 208.164 339.75 204.478 341.409C199.758 343.53 194.938 345.403 190.061 347.111C182.29 349.831 174.362 352.031 166.319 353.796C162.448 354.65 158.562 355.419 154.648 356.032C151.91 356.459 149.179 356.936 146.434 357.299C144.081 357.612 141.714 357.883 139.34 358.032C137.358 358.16 135.376 358.317 133.401 358.481C129.95 358.765 126.499 358.915 123.041 359.043C119.398 359.178 115.748 359.079 112.104 359.071C111.306 359.071 110.479 359.185 109.716 359.022C107.028 358.431 104.29 358.78 101.574 358.488C98.5934 358.167 95.5846 357.961 92.6115 357.633C88.3978 357.171 84.2054 356.48 80.0345 355.69C72.1133 354.181 64.3276 352.201 56.6916 349.567C49.1982 346.976 42.0113 343.751 35.1739 339.743C29.6198 336.489 24.4221 332.737 19.7379 328.324C16.8075 325.554 14.1909 322.479 11.888 319.154C7.21796 312.405 4.23057 305.015 3.38213 296.814L3.375 296.828ZM35.1525 278.752C37.3342 278.638 39.4161 278.062 41.4481 277.3C47.8435 274.887 53.5901 271.356 58.8733 267.063C60.998 265.333 62.98 263.453 64.6413 261.268C65.4683 260.178 66.2098 259.032 66.5378 257.672C66.9086 256.099 66.2811 255.01 64.7126 254.561C63.8214 254.305 62.9159 254.291 62.0033 254.412C59.8501 254.689 57.811 255.33 55.7932 256.156C48.4923 259.146 41.9686 263.318 36.2362 268.707C34.6177 270.231 33.1419 271.889 32.1294 273.904C30.6037 276.951 31.7587 278.795 35.1525 278.752ZM78.1879 247.399C76.0846 247.414 74.4376 248.254 73.4109 250.119C72.1561 252.411 73.2398 255.081 75.7139 255.921C77.8172 256.633 80.3553 255.8 81.6102 253.949C82.5371 252.575 82.7724 251.094 81.9524 249.613C81.1539 248.168 79.8848 247.392 78.1879 247.399Z" fill="#FA4616"/>
<path d="M124.279 186.269C124.693 186.333 124.778 186.632 124.871 186.988C125.67 189.978 126.903 192.84 128.75 195.275C132.122 199.717 136.436 203.07 142.011 204.288C144.77 204.886 147.565 204.316 150.182 203.191C152.164 202.337 154.039 201.29 155.807 200.023C158.581 198.03 161.497 196.264 164.605 194.826C169.169 192.705 173.653 193.196 178.088 195.282C180.99 196.649 183.514 198.528 185.959 200.607C189.795 203.868 192.996 207.712 196.461 211.314C198.985 213.934 201.452 216.618 204.105 219.103C209.017 223.702 214.543 227.361 221.259 228.771C224.41 229.433 227.604 230.009 230.863 229.383C231.469 229.262 232.11 229.34 232.738 229.34C235.861 229.34 238.962 228.97 242.071 228.707C246.135 228.365 250.213 228.13 254.263 228.977C255.66 229.269 257.015 229.703 258.319 230.251C262.597 232.067 266.419 234.551 269.727 237.869C279.645 247.836 289.555 257.817 299.615 267.634C304.135 272.041 308.549 276.569 313.183 280.848C317.076 284.436 320.684 288.316 324.569 291.904C327.036 294.182 329.453 296.503 331.82 298.881C332.241 299.308 332.869 299.635 332.797 300.39C331.443 299.892 330.366 298.945 329.19 298.162C315.7 289.241 302.232 280.292 288.764 271.344C288.008 270.838 287.202 270.375 286.525 269.784C285.676 269.044 284.778 268.845 283.687 269.008C280.365 269.514 277.021 269.806 273.67 270.091C267.246 270.632 260.815 270.731 254.377 270.667C250.441 270.625 246.527 270.397 242.605 270.098C241.914 270.048 241.457 269.841 241.094 269.222C239.789 267.015 238.156 265.029 236.666 262.943C235.54 261.362 234.499 259.725 233.978 257.831C233.337 255.475 233.814 254.656 236.139 253.944C236.246 253.909 236.367 253.916 236.474 253.873C236.823 253.738 237.051 253.489 237.023 253.104C236.987 252.627 236.659 252.371 236.224 252.378C235.312 252.392 234.406 252.506 233.501 252.513C227.162 252.577 220.874 252.015 214.649 250.812C201.01 248.192 188.319 243.223 176.812 235.392C172.37 232.366 168.27 228.942 164.634 224.976C164.242 224.549 163.864 223.709 163.158 224.164C162.288 224.72 163.058 225.332 163.365 225.887C164.399 227.774 163.714 229.255 161.59 229.653C160.292 229.895 158.98 229.782 157.668 229.661C153.298 229.262 148.927 228.934 144.542 228.92C143.744 228.92 143.145 228.657 142.603 228.059C134.347 219.06 128.122 208.944 125.392 196.898C124.7 193.844 124.329 190.733 124.194 187.607C124.172 187.159 124.258 186.703 124.301 186.255L124.279 186.269Z" fill="#A5BB00"/>
<path d="M10.6948 131.287C11.6431 131.629 11.8998 132.59 12.4274 133.294C16.8764 139.239 22.4091 143.988 28.6334 147.981C33.8666 151.342 39.4635 153.983 45.2529 156.233C52.3114 158.974 59.5909 160.96 67.0344 162.298C69.8151 162.797 72.6385 163.103 75.4405 163.508C79.0838 164.035 82.5988 163.622 86.0353 162.676C89.5361 161.707 92.609 160.02 94.6339 156.695C96.9296 152.929 99.9028 149.74 103.746 147.426C106.712 145.639 109.892 144.55 113.285 143.931C115.21 143.582 117.135 143.617 119.061 143.61C122.312 143.61 125.563 143.553 128.807 143.646C132.75 143.76 136.621 143.204 140.478 142.542C145.854 141.624 151.13 140.271 156.278 138.456C162.559 136.242 168.648 133.593 174.473 130.333C178.445 128.105 182.416 125.898 186.145 123.285C190.38 120.323 194.579 117.305 198.208 113.588C203.705 107.964 208.525 101.835 212.375 94.9504C214.115 91.8321 216.026 88.7994 218.678 86.3076C222.229 82.9758 226.421 81.2957 231.291 81.0892C236.424 80.8757 241.301 82.1998 246.22 83.3176C248.046 83.7305 249.899 84.179 251.753 84.122C254.049 84.0508 256.209 83.2464 258.148 81.9934C262.633 79.103 265.806 75.1305 267.881 70.2324C268.501 68.7659 268.943 67.2566 269.428 65.7473C269.791 70.026 269.392 74.269 268.686 78.4836C266.918 89.0984 262.533 98.6524 256.765 107.658C256.145 108.634 255.418 108.868 254.363 108.797C248.73 108.406 243.09 108.363 237.451 108.555C235.519 108.619 233.579 108.726 231.647 108.79C231.084 108.804 230.499 108.797 229.95 108.676C226.749 107.971 225.53 105.893 226.392 102.732C226.777 101.343 227.512 100.126 228.218 98.8944C228.923 97.6628 229.658 96.4454 230.328 95.1924C230.592 94.6941 231.269 94.0106 230.406 93.6048C229.622 93.2346 229.43 94.1459 229.123 94.6371C228.232 96.0966 227.426 97.5987 226.492 99.0297C220.239 108.626 212.29 116.621 203.192 123.534C189.218 134.149 173.796 141.937 157.112 147.298C148.535 150.053 139.758 152.004 130.818 153.129C128.222 153.456 125.606 153.62 122.996 153.855C122.825 153.869 122.654 153.869 122.483 153.876C122.019 153.898 121.485 153.898 121.47 154.517C121.449 155.264 122.069 155.229 122.576 155.243C123.26 155.264 123.944 155.257 124.629 155.236C125.378 155.207 126.105 155.328 126.811 155.578C128.878 156.311 129.769 157.906 129.163 160.013C128.864 161.045 128.401 162.035 127.951 163.01C126.076 167.054 124.657 171.24 123.809 175.618C123.531 177.035 123.517 177.006 122.069 177.135C115.139 177.754 108.188 177.918 101.236 177.733C97.1435 177.626 93.051 177.391 88.9942 176.85C86.784 176.558 84.7662 176.978 82.6701 177.711C76.8165 179.769 70.8917 181.613 64.9953 183.542C51.848 187.842 38.7006 192.135 25.5462 196.428C23.1648 197.204 20.7763 197.958 18.395 198.727C18.0742 198.834 17.7676 199.005 17.2756 198.848C17.2471 198.407 17.5608 198.087 17.8032 197.752C25.2539 187.479 32.6974 177.199 40.1836 166.947C41.3244 165.381 42.4367 163.807 43.4776 162.177C43.6915 161.843 43.8983 161.501 44.0622 161.138C44.1906 160.86 44.1407 160.561 43.8626 160.39C43.5988 160.227 43.2708 160.241 43.0783 160.469C42.7432 160.853 42.4509 161.273 42.1729 161.7C41.2674 163.081 41.2602 163.11 39.7844 162.284C35.5564 159.906 31.5566 157.179 27.8348 154.075C22.1952 149.37 17.3683 143.938 13.6893 137.559C12.5272 135.551 11.3222 133.551 10.7091 131.28L10.6948 131.287Z" fill="#C20000"/>
<path d="M3.37337 296.829C4.22895 305.03 7.2092 312.413 11.8792 319.169C14.1821 322.494 16.7916 325.569 19.7291 328.339C24.4063 332.753 29.6039 336.505 35.1651 339.758C42.0026 343.766 49.1894 346.991 56.6828 349.583C64.3117 352.217 72.1046 354.196 80.0258 355.705C84.1967 356.502 88.389 357.186 92.6027 357.649C95.583 357.976 98.5917 358.183 101.565 358.503C104.281 358.795 107.019 358.446 109.707 359.037C110.47 359.208 111.297 359.087 112.096 359.087C115.739 359.087 119.389 359.193 123.033 359.058C126.483 358.93 129.941 358.781 133.392 358.496C135.367 358.332 137.349 358.168 139.331 358.047C141.706 357.898 144.073 357.627 146.426 357.314C149.17 356.944 151.901 356.474 154.639 356.047C158.553 355.435 162.439 354.666 166.31 353.811C174.36 352.039 182.281 349.839 190.053 347.126C194.929 345.418 199.749 343.553 204.469 341.424C208.155 339.765 211.777 337.964 215.356 336.106C220.404 333.486 225.267 330.56 229.887 327.235C230.407 326.858 230.885 326.253 231.676 326.374C231.491 327.015 230.963 327.385 230.536 327.84C223.613 335.195 215.62 341.196 206.943 346.315C194.209 353.826 180.599 359.243 166.375 363.209C158.803 365.316 151.131 366.975 143.374 368.221C138.205 369.046 133 369.609 127.781 370.107C121.935 370.67 116.067 370.862 110.206 370.912C105.607 370.947 100.987 370.833 96.3815 370.47C92.5243 370.164 88.6671 369.83 84.8241 369.388C81.4303 368.997 78.0579 368.448 74.7069 367.829C73.6232 367.63 72.7462 367.744 71.7766 368.242C59.4706 374.571 47.1503 380.879 34.83 387.179C34.3238 387.435 33.8604 387.777 33.2757 387.863C33.2115 387.799 33.1545 387.734 33.0903 387.677C33.4611 385.649 34.3523 383.798 35.0368 381.875C37.4181 375.183 39.8636 368.513 42.2806 361.842C42.3591 361.628 42.4232 361.408 42.5017 361.201C42.9722 359.991 42.9936 359.984 44.2199 360.468C44.6406 360.632 45.0684 360.802 45.489 360.966C45.9382 361.144 46.2876 361.016 46.4587 360.575C46.6084 360.19 46.3803 359.92 46.0523 359.749C45.8527 359.642 45.6388 359.564 45.4249 359.478C38.0741 356.481 31.0584 352.843 24.6273 348.18C16.4993 342.292 9.66898 335.23 5.32693 326.039C2.61048 320.287 1.28434 314.214 1.46972 307.871C1.58379 304.133 2.01871 300.403 3.37337 296.85V296.829Z" fill="#C20000"/>
<path d="M235.655 264.168C232.126 264.353 228.611 263.883 225.096 263.734C222.686 263.634 220.262 263.235 217.852 262.901C214.423 262.431 211.036 261.819 207.649 261.1C201.696 259.839 195.871 258.131 190.146 256.088C185.697 254.5 181.376 252.613 177.12 250.577C173.476 248.833 169.976 246.818 166.51 244.747C161.969 242.034 157.698 238.923 153.627 235.563C152.058 234.267 150.44 232.993 149.071 231.455C148.807 231.156 148.486 230.9 148.415 230.48C151.531 230.672 154.661 230.772 157.769 231.078C161.84 231.484 165.912 231.953 169.947 232.651C170.724 232.786 171.344 233.085 171.929 233.541C182.888 242.063 195.279 247.58 208.676 250.955C213.482 252.165 218.365 252.948 223.285 253.489C223.92 253.56 224.511 253.681 225.025 254.087C228.903 257.091 232.518 260.366 235.641 264.168H235.655Z" fill="#C20000"/>
<path d="M33.2685 387.854C33.1987 387.91 33.087 388.021 33.0591 388.001C32.8847 387.889 32.9754 387.777 33.087 387.672C33.1498 387.728 33.2057 387.791 33.2685 387.854Z" fill="#C20000"/>
<path d="M39.3243 73.5614C36.3869 73.5471 35.075 71.9311 35.6596 69.183C36.0446 67.3819 36.9216 65.78 37.9055 64.2423C40.4722 60.2342 43.6664 56.76 47.1528 53.5492C52.4431 48.6797 58.1113 44.3085 64.5424 41.0123C66.9808 39.7664 69.4834 38.6985 72.2069 38.2287C72.9983 38.0934 73.7897 38.0293 74.5812 38.1931C76.5062 38.606 77.3618 39.8305 77.1336 41.7812C76.8912 43.8172 75.9358 45.5615 74.8663 47.2487C72.2568 51.3636 68.9771 54.909 65.398 58.1981C59.9294 63.2242 54.0545 67.688 47.3667 71.0056C45.1708 72.0948 42.9106 73.0203 40.4651 73.4119C40.0159 73.483 39.5596 73.5258 39.3101 73.5614H39.3243Z" fill="#FCF6F5"/>
<path d="M112.447 63.2637C112.447 62.922 112.432 62.5803 112.475 62.2457C112.518 61.9466 112.711 61.7188 113.039 61.6975C113.359 61.6832 113.58 61.8897 113.652 62.1816C113.716 62.4521 113.702 62.744 113.709 63.0288C113.78 66.9515 113.844 70.8813 113.915 74.804C113.944 76.5126 114.03 78.2212 114.536 79.8657C115.306 82.3575 116.397 83.1904 118.949 83.2616C119.748 83.2829 120.546 83.2616 121.345 83.2616C121.687 83.2616 122.036 83.2474 122.364 83.3043C122.714 83.3613 123.042 83.5606 122.999 83.9735C122.963 84.358 122.664 84.5431 122.279 84.5502C120.91 84.5787 119.541 84.5786 118.179 84.6214C115.848 84.7068 114.201 86.3015 114.222 88.6081C114.265 94.3533 114.379 100.099 114.464 105.844C114.472 106.413 114.514 106.983 114.479 107.545C114.457 107.901 114.251 108.214 113.844 108.214C113.445 108.214 113.238 107.944 113.224 107.559C113.188 106.648 113.16 105.737 113.145 104.833C113.06 100.17 112.974 95.5067 112.903 90.8436C112.882 89.4624 112.668 88.1169 112.033 86.8782C111.306 85.4686 110.279 84.5573 108.532 84.6641C106.886 84.7637 105.231 84.7139 103.577 84.7495C103.235 84.7495 102.9 84.8421 102.586 84.6356C102.33 84.4647 102.187 84.244 102.251 83.9237C102.301 83.6745 102.451 83.5036 102.693 83.4752C103.085 83.4325 103.485 83.4325 103.884 83.4182C105.417 83.3541 106.95 83.3826 108.49 83.2687C110.151 83.1477 111.085 82.2222 111.741 80.8909C112.354 79.6522 112.589 78.3066 112.582 76.9184C112.582 74.6972 112.447 65.5988 112.454 63.2637H112.447Z" fill="#FCF6F5"/>
<path d="M89.835 25.7388C90.1915 25.7672 90.6478 25.7672 91.097 25.8527C93.8134 26.3724 95.0754 28.6577 94.0772 31.2348C92.7867 34.5595 88.295 37.0797 84.7728 36.4674C81.7855 35.9406 80.5092 33.513 81.7641 30.7436C83.0261 27.9528 86.5696 25.7388 89.8421 25.753L89.835 25.7388Z" fill="#FCF6F5"/>
<path d="M262.009 58.7705C261.973 59.8882 262.016 60.6927 261.695 61.4402C261.239 62.4939 260.511 62.7217 259.52 62.1237C258.978 61.7891 258.558 61.3263 258.208 60.8066C255.806 57.247 254.465 53.3386 254.43 49.0243C254.43 48.4049 254.472 47.7785 254.736 47.1947C255.207 46.1553 255.941 45.9061 256.925 46.4899C257.581 46.8743 258.03 47.4652 258.429 48.0846C260.604 51.4377 261.745 55.1255 262.009 58.7705Z" fill="#FCF6F5"/>
<path d="M359.72 176.445C358.573 176.474 357.396 176.04 356.234 175.563C353.96 174.63 351.885 173.341 349.896 171.918C344.734 168.216 340.171 163.88 336.285 158.854C334.994 157.188 333.839 155.429 332.984 153.5C332.52 152.461 332.121 151.393 332.142 150.225C332.171 148.666 332.991 147.805 334.531 147.691C335.693 147.605 336.784 147.883 337.861 148.267C339.643 148.894 341.29 149.784 342.873 150.795C348.819 154.604 353.967 159.288 358.302 164.855C359.592 166.514 360.733 168.28 361.66 170.18C362.13 171.156 362.522 172.152 362.672 173.235C362.965 175.377 362.016 176.474 359.72 176.445Z" fill="#FCF6F5"/>
<path d="M270.919 184.84C270.919 183.85 270.683 182.925 270.27 182.042C269.564 180.533 268.559 179.643 266.705 179.735C263.974 179.871 261.237 179.771 258.506 179.771C258.221 179.771 257.935 179.771 257.65 179.771C257.08 179.757 256.345 179.821 256.353 179.045C256.367 178.226 257.151 178.418 257.686 178.404C260.645 178.311 263.604 178.205 266.562 178.176C268.145 178.162 269.101 177.308 269.785 176.04C270.505 174.709 270.705 173.25 270.691 171.748C270.641 166.059 270.612 160.371 270.577 154.683C270.577 154.227 270.569 153.772 270.591 153.316C270.612 152.882 270.769 152.504 271.29 152.533C271.789 152.561 271.917 152.953 271.931 153.38C271.945 153.836 271.938 154.291 271.945 154.747C272.045 160.378 272.145 166.002 272.252 171.634C272.273 172.951 272.48 174.246 272.986 175.464C273.699 177.18 274.84 178.233 276.879 178.176C278.983 178.112 281.086 178.24 283.196 178.283C283.538 178.29 283.881 178.283 284.216 178.326C284.572 178.361 284.907 178.489 284.95 178.902C285.007 179.429 284.615 179.614 284.202 179.636C282.84 179.707 281.471 179.735 280.102 179.757C278.847 179.778 277.592 179.757 276.345 179.764C273.963 179.771 272.273 181.465 272.359 183.829C272.637 191.219 272.651 198.608 272.616 205.998C272.616 206.568 272.944 207.458 272.017 207.507C270.919 207.571 271.261 206.596 271.261 205.991C271.24 202.467 270.904 188.364 270.919 184.84Z" fill="#FCF6F5"/>
<path d="M369.451 184.537C369.451 186.772 367.697 188.573 365.494 188.595C363.191 188.616 361.416 186.801 361.452 184.473C361.487 182.202 363.198 180.514 365.48 180.514C367.676 180.514 369.451 182.316 369.451 184.544V184.537Z" fill="#FCF6F5"/>
<path d="M35.1471 278.755C31.7462 278.791 30.5983 276.954 32.1241 273.907C33.1294 271.893 34.6124 270.227 36.2308 268.71C41.9632 263.314 48.487 259.142 55.7879 256.159C57.8056 255.333 59.8447 254.7 61.9979 254.415C62.9105 254.294 63.816 254.308 64.7072 254.564C66.2687 255.013 66.9032 256.102 66.5325 257.675C66.2116 259.035 65.463 260.181 64.6359 261.271C62.9747 263.463 60.9926 265.336 58.8679 267.066C53.5776 271.366 47.8381 274.897 41.4427 277.303C39.4107 278.065 37.336 278.642 35.1471 278.755Z" fill="#FCF6F5"/>
<path d="M189.528 274.854C189.528 274.627 189.514 274.399 189.528 274.171C189.55 273.801 189.728 273.48 190.106 273.445C190.598 273.402 190.805 273.758 190.84 274.192C190.869 274.591 190.84 274.99 190.854 275.388C190.961 279.93 190.869 284.48 191.182 289.022C191.275 290.339 191.503 291.62 192.124 292.795C192.829 294.126 193.82 295.052 195.482 294.966C196.387 294.924 197.3 294.981 198.212 294.995C198.555 294.995 198.897 294.981 199.239 295.016C199.638 295.052 200.08 295.109 200.095 295.643C200.109 296.184 199.695 296.262 199.282 296.283C198.94 296.298 198.597 296.29 198.255 296.298C197.286 296.312 196.323 296.312 195.353 296.355C192.901 296.447 191.239 298.17 191.275 300.612C191.368 306.35 191.475 312.088 191.567 317.826C191.575 318.339 191.575 318.851 191.567 319.357C191.56 319.684 191.346 319.905 191.054 319.948C190.655 320.012 190.398 319.741 190.334 319.378C190.263 318.994 190.263 318.588 190.256 318.189C190.191 313.811 190.149 309.44 190.07 305.061C190.049 303.759 189.963 302.449 189.878 301.146C189.814 300.106 189.471 299.145 188.951 298.255C188.238 297.052 187.268 296.319 185.757 296.397C184.11 296.483 182.456 296.44 180.809 296.461C180.523 296.461 180.238 296.525 179.967 296.476C179.625 296.404 179.311 296.191 179.304 295.799C179.304 295.401 179.604 295.201 179.974 295.166C180.309 295.137 180.659 295.159 180.994 295.144C182.527 295.08 184.06 295.116 185.6 295.002C187.175 294.881 188.095 294.041 188.78 292.781C189.478 291.499 189.678 290.083 189.714 288.659C189.771 286.331 189.528 277.126 189.528 274.847V274.854Z" fill="#FCF6F5"/>
<path d="M78.1887 247.409C79.8856 247.402 81.1547 248.178 81.9532 249.623C82.7731 251.104 82.5378 252.584 81.611 253.958C80.3633 255.809 77.8251 256.642 75.7146 255.93C73.2406 255.09 72.1569 252.421 73.4117 250.128C74.4313 248.263 76.0782 247.423 78.1887 247.409Z" fill="#FCF6F5"/>
</g>
<defs>
<clipPath id="clip0_432_355">
<rect width="379.062" height="407.141" fill="white" transform="translate(0.0981445 0.511475)"/>
</clipPath>
</defs>
</svg>
