<svg width="369" height="369" viewBox="0 0 369 369" fill="none" xmlns="http://www.w3.org/2000/svg">
<g clip-path="url(#clip0_432_2208)">
<path d="M124.418 154.362C122.466 153.057 120.573 152.076 118.68 151.104C111.277 147.296 103.5 144.585 95.2394 143.397C82.0498 141.496 69.5161 143.688 57.6254 149.634C52.0761 152.409 47.001 155.887 42.2083 159.822C38.8508 162.577 34.9121 164.287 30.6617 165.22C25.4891 166.353 20.3977 166.091 15.4752 164.067C9.41289 161.573 5.39301 157.075 3.0876 151.033C1.22378 146.149 0.665281 141.062 1.01921 135.858C1.74656 125.146 5.31833 115.279 10.0363 105.765C15.8453 94.0518 23.2454 83.3784 31.6683 73.4141C51.7936 49.6062 75.5719 30.2703 103.169 15.6494C103.575 15.4357 103.977 15.2123 104.393 15.0212C105.52 14.5063 106.435 13.7777 107.28 12.8386C110.734 9.01417 115.173 6.78299 120.054 5.35166C123.008 4.4838 126.031 3.99482 129.123 4.10816C130.262 4.15025 131.337 3.96567 132.431 3.64832C136.01 2.61207 139.594 1.58876 143.316 1.18722C154.524 -0.0239066 165.211 1.61143 175.156 7.11653C179.137 9.32181 182.482 12.2525 185.245 15.8956C189.885 22.0127 195.538 27.0547 201.997 31.2192C202.75 31.7049 203.169 31.6272 203.825 31.0605C207.939 27.5145 212.566 24.898 217.868 23.5574C219.81 23.0651 221.781 22.7737 223.784 22.9C224.56 22.9486 225.164 22.6571 225.801 22.33C230.993 19.6617 236.484 18.0296 242.325 17.641C246.355 17.3722 250.297 17.8126 254.031 19.4156C258.356 21.2711 261.418 24.2989 262.402 29.0495C263.009 31.9769 262.558 34.8266 261.532 37.6018C260.931 39.221 260.109 40.7365 259.109 42.3395C260.691 42.5079 262.074 42.1743 263.447 41.9897C269.828 41.1381 276.127 39.8492 282.358 38.2301C290.564 36.096 298.896 34.9335 307.387 35.4581C328.519 36.7664 344.621 46.5233 355.745 64.4408C360.963 72.8442 364.191 82.041 366.25 91.6749C368.026 99.9811 368.821 108.397 368.808 116.872C368.802 120.428 368.409 123.993 368.032 127.539C367.139 135.952 365.756 144.291 363.938 152.558C359.551 172.48 352.92 191.648 344.413 210.174C334.048 232.742 321.258 253.829 305.487 273.074C294.934 285.953 283.261 297.695 269.805 307.591C260.97 314.087 251.573 319.583 241.234 323.378C234.581 325.82 227.733 327.458 220.644 327.714C204.562 328.294 191.466 322.326 181.647 309.509C176.14 302.323 172.653 294.156 170.23 285.503C168.217 278.314 167.081 270.979 166.509 263.544C166.107 258.308 165.763 253.065 166 247.813C166.185 243.684 166.305 239.555 166.23 235.429C165.977 221.246 164.188 207.295 159.492 193.824C157.609 188.416 155.164 183.28 152.063 178.448C149.862 175.012 146.923 172.25 144.027 169.449C141.345 166.858 138.533 164.413 135.607 162.098C135.126 161.716 134.782 161.564 134.143 161.926C115.089 172.755 96.9636 184.879 80.8387 199.805C74.0036 206.132 67.6751 212.92 62.457 220.666C59.3658 225.255 56.7584 230.083 55.3459 235.475C54.4822 238.771 54.1965 242.107 54.9368 245.462C55.7356 249.085 57.7001 251.996 60.5542 254.338C62.6681 256.07 65.0774 257.278 67.5939 258.301C68.24 258.564 68.7206 258.46 69.2726 258.058C71.039 256.776 73.0132 256.018 75.205 255.795C76.9227 255.62 78.569 255.921 80.186 256.417C85.5502 258.065 91.0734 258.648 96.6454 258.955C103.802 259.354 110.939 259.062 118.086 258.525C121.356 258.279 124.47 258.998 127.067 261.277C128.145 262.223 128.814 263.385 129.412 264.622C129.639 265.095 129.86 265.474 130.418 265.672C134.581 267.142 136.743 270.328 137.698 274.431C138.562 278.149 138.175 281.828 136.955 285.422C135.493 289.723 133.071 293.382 129.483 296.212C126.363 298.673 122.846 300.024 118.813 299.535C117.66 299.395 116.761 299.716 115.8 300.244C112.806 301.889 109.588 302.611 106.192 302.06C101.808 301.345 97.4702 300.396 93.236 299.026C85.5567 296.546 78.3092 293.22 71.9417 288.188C68.7109 285.636 65.8664 282.728 63.902 279.062C62.5739 276.585 61.7979 273.965 62.1778 271.135C62.2914 270.29 61.9212 270.105 61.2621 269.878C58.0183 268.761 54.9303 267.307 52.0956 265.358C46.0723 261.219 42.244 255.652 41.2114 248.363C40.5231 243.502 41.0945 238.71 42.4648 234.004C44.4066 227.337 47.5919 221.265 51.4105 215.501C57.7617 205.909 65.519 197.538 73.9744 189.786C87.0471 177.797 101.474 167.665 116.764 158.714C119.229 157.273 121.729 155.89 124.418 154.365V154.362ZM341.702 50.0077C341.669 49.8232 341.556 49.7293 341.374 49.7098C340.422 48.7804 339.38 47.9644 338.299 47.1937C328.73 40.3868 317.979 37.1388 306.322 36.6336C297.87 36.2677 289.622 37.6018 281.472 39.6938C269.49 42.7702 257.346 44.4962 244.946 44.2824C237.094 44.1464 229.36 43.2009 221.781 41.1348C206.516 36.9768 193.736 29.0106 184.066 16.3942C181.501 13.0459 178.403 10.3937 174.789 8.30175C167.88 4.30569 160.34 2.48577 152.43 2.05184C147.137 1.76039 141.923 2.31414 136.805 3.73252C135.909 3.98186 134.98 4.12759 134.071 4.54209C134.587 5.04402 135.185 5.06669 135.701 5.25451C137.058 5.75321 138.322 6.41058 139.413 7.35617C140.935 8.67739 141.987 10.2965 142.039 12.3529C142.065 13.347 142.439 13.7421 143.348 14.0368C145.403 14.7006 147.28 15.7434 148.972 17.0937C154.235 21.297 155.914 27.4854 153.541 33.9976C151.868 38.5863 148.897 42.2553 145.147 45.2831C137.088 51.7823 127.85 54.9591 117.466 54.6547C112.842 54.5187 108.461 53.4436 104.536 50.8918C98.6651 47.0771 96.3824 40.8531 98.3501 34.1271C99.4054 30.5229 101.396 27.466 103.945 24.7588C104.578 24.0852 104.786 23.5282 104.403 22.615C103.705 20.9538 103.867 19.2245 104.396 17.5244C104.51 17.165 104.805 16.8314 104.633 16.3845C103.994 16.5076 103.49 16.8703 102.954 17.152C89.1739 24.4285 76.3415 33.1168 64.3046 42.9839C49.9136 54.7842 36.9058 67.9252 25.7586 82.8473C18.6508 92.3614 12.4456 102.407 7.89001 113.404C4.94817 120.505 2.79861 127.808 2.24011 135.515C2.10698 137.345 1.95762 139.184 2.28882 141.004C3.84416 149.485 13.0334 155.628 21.6056 153.248C22.057 153.122 22.4953 153.015 22.9597 153.122C23.1772 153.831 22.8168 154.164 22.1804 154.336C21.1446 154.618 20.1022 154.88 19.0275 154.925C12.91 155.191 8.00691 152.827 4.20783 148.086C3.99353 147.82 3.86364 147.445 3.42854 147.416C3.21098 147.827 3.38633 148.209 3.51946 148.585C3.87339 149.595 4.19485 150.618 4.61697 151.6C6.80224 156.671 10.2766 160.544 15.4005 162.775C19.3164 164.481 23.411 165.048 27.6809 164.53C33.11 163.873 37.9157 161.849 42.1206 158.374C47.7023 153.763 53.7906 149.951 60.4243 147.03C67.8374 143.766 75.6141 141.953 83.7058 141.6C89.8136 141.334 95.8434 142.047 101.776 143.497C112.283 146.069 121.787 150.8 130.632 156.933C135.932 160.608 140.851 164.744 145.543 169.151C148.563 171.988 151.339 175.029 153.547 178.571C157.827 185.427 160.746 192.846 162.85 200.605C165.558 210.582 166.837 220.773 167.341 231.071C167.574 235.86 167.47 240.653 167.415 245.445C167.347 251.255 167.246 257.061 167.669 262.867C168.169 269.739 169.133 276.536 170.847 283.21C173.465 293.392 177.488 302.912 184.371 311.024C189.456 317.018 195.639 321.497 203.114 324.1C211.744 327.109 220.544 327.193 229.418 325.496C238.542 323.751 247.001 320.205 255.076 315.72C265.402 309.988 274.718 302.864 283.378 294.881C291.236 287.64 298.512 279.846 305.237 271.543C318.005 255.782 328.834 238.774 338.01 220.711C345.829 205.316 352.323 189.381 357.366 172.865C359.941 164.433 362.129 155.906 363.818 147.251C364.834 142.053 365.685 136.83 366.344 131.574C366.828 127.73 367.23 123.88 367.448 120.02C367.802 113.747 367.386 107.497 366.613 101.263C365.525 92.4747 363.483 83.9321 360.1 75.7295C356.379 66.7109 351.229 58.6443 344.079 51.9183C343.64 51.5038 343.277 50.9792 342.637 50.8206C342.442 50.6457 342.247 50.4708 342.049 50.296C342 50.1114 341.884 50.0077 341.692 49.9851L341.698 49.9916L341.702 50.0077ZM54.6121 248.807L54.6413 248.858C54.6153 248.593 54.6348 248.308 54.2971 248.208L54.3134 248.214C54.2841 247.91 54.3101 247.589 54.2192 247.307C52.7126 242.534 53.2873 237.845 54.7874 233.195C56.6577 227.405 59.7555 222.266 63.3077 217.379C68.4316 210.332 74.429 204.07 80.8354 198.189C92.2261 187.732 104.685 178.675 117.719 170.385C119.612 169.18 121.505 167.976 123.388 166.752C125.479 165.395 126.369 162.118 125.768 159.948C125.064 157.409 123.028 156.489 120.735 157.791C105.945 166.165 91.9501 175.676 79.0853 186.797C70.4481 194.264 62.4538 202.344 55.6317 211.524C53.901 213.856 52.1606 216.191 50.8455 218.797C50.5078 218.979 50.3812 219.325 50.2026 219.626C48.5466 222.379 47.0497 225.222 45.8028 228.182C43.5071 233.626 41.9355 239.234 42.1206 245.215C42.2732 250.189 43.6987 254.739 46.7477 258.716C50.7513 263.939 56.2421 266.918 62.4375 269.02C62.9149 267.229 63.4571 265.542 64.2591 263.952C65.0612 262.359 66.1879 260.992 67.3536 259.506C66.6944 259.211 66.1522 258.965 65.6067 258.726C62.2005 257.217 59.1775 255.196 56.8396 252.239C56.0765 251.274 55.6382 250.121 54.8946 249.15C54.8719 248.975 54.768 248.868 54.6056 248.81L54.6121 248.807ZM129.308 33.214C131.409 32.4109 133.022 31.0022 134.295 29.1823C134.467 28.9362 134.617 28.6641 134.74 28.3889C135.292 27.1486 134.971 26.4815 133.639 26.1674C132.584 25.9181 131.503 25.9569 130.477 26.2581C129.178 26.6434 127.921 27.1648 126.645 27.6279C125.21 27.9452 123.775 28.2788 122.333 28.5735C120.479 28.9556 118.596 28.9556 116.709 28.9459C115.777 28.9394 115.647 29.0948 115.732 29.9983C115.764 30.3481 115.832 30.7075 115.952 31.0378C116.625 32.8772 118.086 33.8681 119.868 34.3409C123.141 35.2055 126.307 34.8299 129.301 33.214H129.308ZM132.827 37.482C135.428 36.53 137.49 34.804 139.344 32.8286C140.646 31.4394 141.637 29.8461 142.114 27.9679C142.819 25.183 141.832 22.4855 139.507 20.8372C139.036 20.5036 138.698 20.3482 138.224 20.8663C137.675 21.4654 137.049 22.003 136.406 22.4984C135.912 22.8773 135.867 23.2076 136.104 23.784C136.896 25.7108 136.578 27.5696 135.594 29.3571C134.896 30.6266 133.883 31.6207 132.824 32.5792C132.487 32.8059 132.155 33.0456 131.811 33.2625C128.171 35.565 124.255 36.5688 119.979 35.6103C116.667 34.8687 114.861 32.8545 114.624 29.6518C114.572 28.9621 114.232 28.6868 113.702 28.7354C112.767 28.8228 111.637 27.5826 110.942 28.7904C108.929 32.2975 109.669 35.6718 112.407 37.8479C113.709 38.881 115.202 39.5189 116.803 39.9107C120.683 40.8596 124.509 40.4872 128.298 39.3926C129.662 38.9975 131.051 38.6543 132.191 37.7281C132.243 37.7055 132.295 37.6796 132.35 37.6569C132.516 37.5856 132.678 37.5306 132.831 37.4885L132.827 37.482ZM209.384 28.431C207.5 29.545 205.747 30.8273 204.133 32.3396C204.351 32.5307 204.451 32.6537 204.581 32.7282C211.439 36.6854 218.794 39.3246 226.509 41.0247C227.126 41.1607 227.46 40.9405 227.801 40.5001C229.408 38.4308 230.766 36.2223 231.415 33.6641C231.788 32.1939 232.139 30.6848 231.48 29.1823C231.087 26.7957 229.444 25.51 227.366 24.694C225.327 23.8941 223.174 23.8423 221.034 24.1208C216.829 24.6681 212.968 26.1901 209.384 28.4342V28.431ZM98.9638 279.645C98.1553 281.598 97.8955 283.664 97.7137 285.743C97.3825 289.531 97.8858 293.181 99.9412 296.455C102.351 300.289 106.059 301.542 110.358 301.027C110.712 300.985 111.059 300.898 111.403 300.804C111.884 300.671 111.923 300.357 111.653 300.001C111.442 299.719 111.212 299.431 110.936 299.22C110.28 298.728 109.54 298.385 108.78 298.071C105.971 296.908 104.367 294.787 103.614 291.87C102.938 289.25 102.971 286.64 103.273 283.997C103.305 283.848 103.341 283.699 103.37 283.55C104.36 278.139 106.484 273.249 110.105 269.056C111.653 267.262 113.446 265.769 115.634 264.804C116.569 264.393 117.508 264.179 118.592 264.321C121.219 264.665 123.866 264.856 126.505 265.082C127.031 265.128 127.587 265.235 128.041 265.047C128.155 264.694 128.022 264.525 127.924 264.354C125.999 260.986 122.979 259.652 119.222 259.772C115.495 259.891 112.345 261.514 109.471 263.735C105.474 266.828 102.617 270.811 100.509 275.357C99.8697 276.74 99.1716 278.104 98.9638 279.642V279.645ZM251.475 38.9231C250.492 40.241 249.508 41.559 248.342 43.1199C250.761 43.0066 252.894 42.7702 255.011 42.8511C257.057 42.9321 258.125 41.9671 258.996 40.2831C260.713 36.9671 261.947 33.5702 261.33 29.7684C260.879 26.9705 259.665 24.5742 257.297 22.8676C256.794 22.275 256.161 21.8508 255.502 21.4622C252.722 19.8139 249.673 19.0561 246.488 18.8359C239.754 18.3696 233.444 19.9888 227.398 22.832C227.197 22.9259 226.944 23.0036 226.889 23.2983C228.106 23.7063 229.33 24.1402 230.262 25.0373C232.6 27.2846 235.318 27.4109 238.24 26.6014C239.367 26.2872 240.487 25.9343 241.63 25.6849C243.991 25.1733 246.368 24.979 248.761 25.523C252.476 26.3714 254.43 29.2827 253.823 33.0002C253.472 35.1569 252.505 37.0449 251.472 38.9198L251.475 38.9231ZM118.079 298.084C119.537 298.401 120.989 298.563 122.479 298.255C125.921 297.543 128.687 295.704 131.012 293.171C134.704 289.149 136.698 284.376 136.964 278.942C137.104 276.05 136.529 273.256 134.951 270.753C133.496 268.447 131.503 266.834 128.726 266.501C125.129 266.07 121.518 265.766 117.914 265.393C117.268 265.325 116.703 265.555 116.144 265.798C114.725 266.417 113.478 267.301 112.364 268.366C109.475 271.131 107.406 274.425 106.088 278.191C104.659 281.669 104.042 285.289 104.308 289.036C104.438 290.872 104.877 292.647 105.887 294.23C106.838 295.723 108.156 296.659 109.955 296.882C110.962 297.009 111.959 297.239 112.965 297.365C114.673 297.579 116.332 298.136 118.076 298.084H118.079ZM122.073 27.3429C128.473 26.3326 134.065 23.7646 138.438 18.8715C139.189 18.0296 139.763 17.0646 140.224 16.0316C141.724 12.6573 140.832 9.52259 137.727 7.51808C135.49 6.07056 132.99 5.43262 130.33 5.37433C122.323 4.94364 115.277 7.34969 109.189 12.5374C108.02 13.5316 107.075 14.7427 106.312 16.0801C103.974 20.1798 105.146 24.0366 109.371 26.1642C109.507 26.2322 109.637 26.3164 109.777 26.3747C113.77 28.0359 117.884 28.1557 122.073 27.3429ZM94.7718 297.562C97.4344 297.449 98.1715 296.461 97.4442 293.978C96.8824 292.064 96.5382 290.118 96.5447 288.113C96.5772 278.729 100.266 270.937 106.919 264.444C108.595 262.809 110.533 261.517 112.569 260.283C112.166 260.173 111.786 260.167 111.407 260.173C107.578 260.257 103.76 260.429 99.9249 260.303C92.7587 260.066 85.6801 259.415 78.7703 257.336C75.3511 256.307 72.2274 257.184 69.5291 259.522C67.1653 261.08 65.8307 263.418 64.7365 265.908C62.5934 270.782 62.7817 275.506 65.795 280.004C67.425 282.436 69.4025 284.561 71.643 286.439C77.1857 291.083 83.5305 294.311 90.2844 296.795C91.7261 297.326 93.2197 297.666 94.7783 297.566L94.7718 297.562ZM153.381 28.3986C153.388 27.4757 153.323 26.569 153.112 25.6655C151.774 19.9337 147.738 16.8865 142.517 14.9921C142.059 14.8269 141.854 14.9921 141.734 15.4066C141.358 16.6954 140.711 17.845 139.939 18.9331C139.685 19.2893 139.705 19.5807 140.075 19.8398C140.283 19.9855 140.478 20.1539 140.669 20.3223C143.406 22.7154 144.199 25.7238 143.001 29.1564C142.189 31.4815 140.763 33.405 138.916 34.9788C132.899 40.1115 125.934 42.3362 118.047 41.3939C115.313 41.0668 112.787 40.0856 110.822 38.039C109.052 36.1932 108.332 34.0106 108.773 31.4523C108.939 30.4841 109.208 29.5579 109.66 28.703C110.017 28.023 109.825 27.7024 109.173 27.4304C108.03 26.9511 107.013 26.2581 106.166 25.3611C105.688 24.8591 105.361 24.9207 104.929 25.3902C102.409 28.1298 100.393 31.1576 99.3827 34.7813C98.3501 38.4956 98.6651 42.0545 100.694 45.3802C102.643 48.5699 105.578 50.5453 109.013 51.818C113.043 53.3108 117.209 53.7706 121.508 53.4468C127.681 52.9805 133.431 51.2221 138.802 48.204C143.595 45.513 147.696 42.0513 150.612 37.3298C152.297 34.5935 153.368 31.6563 153.381 28.3986ZM228.668 41.3194C228.951 41.4327 229.084 41.5105 229.226 41.5396C234.704 42.5661 240.237 43.0227 245.809 43.0972C246.368 43.1037 246.774 42.9062 247.141 42.4981C248.923 40.5228 250.54 38.4373 251.657 36.0021C252.255 34.6971 252.7 33.35 252.748 31.9024C252.829 29.5644 251.742 27.9258 249.566 27.0223C248.115 26.42 246.595 26.3196 245.059 26.4071C240.958 26.637 237.218 28.078 233.584 29.8656C233.065 30.1214 232.87 30.4808 232.889 31.067C232.974 33.3208 232.214 35.3642 231.223 37.3395C230.542 38.7029 229.665 39.9496 228.661 41.3162L228.668 41.3194Z" fill="#121212"/>
<path d="M190.73 350.296C200.277 350.26 211.164 350.432 222.048 350.795C229.76 351.05 237.465 351.413 245.167 351.909C252.662 352.391 260.149 352.951 267.605 353.835C272.927 354.464 278.245 355.169 283.437 356.568C284.817 356.941 286.191 357.349 287.418 358.11C289.146 359.182 289.129 360.435 287.337 361.452C285.265 362.627 282.95 363.103 280.655 363.573C274.544 364.823 268.351 365.49 262.146 366.083C255.431 366.72 248.703 367.174 241.969 367.52C231.965 368.032 221.954 368.336 211.937 368.54C197.468 368.835 183.002 368.689 168.54 368.366C162.052 368.22 155.565 367.98 149.08 367.653C143.466 367.371 137.855 367.07 132.251 366.64C122.831 365.914 113.421 365.062 104.124 363.298C101.92 362.88 99.7312 362.381 97.6206 361.598C96.903 361.332 96.1886 361.05 95.5652 360.594C94.3151 359.674 94.3411 358.68 95.6496 357.805C96.2861 357.378 96.9939 357.09 97.7213 356.837C101.257 355.597 104.936 355.008 108.615 354.434C116.343 353.23 124.13 352.563 131.926 352.032C138.754 351.565 145.599 351.267 152.438 350.973C164.747 350.442 177.067 350.302 190.73 350.302V350.296Z" fill="#121212"/>
<path d="M342.055 50.3111C342.249 50.486 342.444 50.6608 342.642 50.8357C342.529 51.3279 342.746 51.7036 343.003 52.1116C343.815 53.4069 344.6 54.7184 345.24 56.1109C347.172 60.3271 347.948 64.7474 347.136 69.3069C346.169 74.7635 343.558 79.4298 339.681 83.4C338.437 84.6759 337.259 86.0165 336.044 87.3183C335.616 87.7782 335.34 88.3254 335.129 88.8954C334.547 90.44 334.911 91.8001 336.161 92.4931C337.746 93.3707 339.061 94.5591 340.308 95.8415C343.824 99.4684 345.808 103.691 345.74 108.846C345.678 113.568 344.052 117.671 340.834 120.993C336.914 125.038 332.047 127.363 326.332 127.693C324.507 127.8 323.118 128.487 322.325 130.242C321.712 131.596 321.273 133.017 320.945 134.436C319.634 140.093 317.877 145.608 315.88 151.054C314.286 155.403 312.584 159.71 310.652 163.917C308.889 167.758 307.045 171.559 305.025 175.283C302.161 180.571 299.141 185.759 295.833 190.775C293.06 194.982 290.092 199.046 286.997 203.029C283.273 207.818 279.243 212.339 274.996 216.656C272.252 219.447 269.31 222.051 266.291 224.56C263.31 227.038 260.245 229.405 257.011 231.526C251.883 234.887 246.5 237.773 240.72 239.907C236.298 241.542 231.748 242.63 227.069 242.993C223.777 243.249 220.465 243.119 217.169 242.478C209.045 240.898 202.528 236.711 197.388 230.386C193.689 225.836 191.218 220.584 189.254 215.079C187.988 211.53 187.26 207.831 186.212 204.224C184.663 198.894 182.971 193.612 180.63 188.573C178.181 183.305 175.457 178.182 172.019 173.463C168.521 168.667 164.693 164.205 159.8 160.753C159.472 160.433 159.163 160.092 158.816 159.791C155.955 157.324 153.03 154.937 149.981 152.699C135.109 141.786 118.88 133.788 100.716 129.999C90.0171 127.768 79.253 127.237 68.4468 129.232C60.7837 130.647 53.5882 133.283 47.0324 137.541C46.5226 137.871 45.9641 138.15 45.6101 138.681C43.7463 139.52 42.1455 140.783 40.4895 141.942C36.4632 144.762 32.6219 147.852 28.3715 150.352C26.6245 151.378 24.9231 152.499 22.9683 153.124C22.504 153.014 22.0656 153.124 21.6143 153.25C13.042 155.627 3.85283 149.487 2.29748 141.006C1.96303 139.186 2.11565 137.347 2.24878 135.517C2.80727 127.81 4.95683 120.508 7.89868 113.406C12.4543 102.406 18.6595 92.3603 25.7673 82.8495C36.9177 67.9306 49.9222 54.7864 64.3133 42.9861C76.3469 33.119 89.1826 24.4306 102.963 17.1542C103.499 16.8725 104.002 16.513 104.642 16.3867C104.814 16.8304 104.518 17.1639 104.405 17.5266C103.876 19.2267 103.713 20.9527 104.411 22.6172C104.794 23.5304 104.587 24.0874 103.953 24.761C101.405 27.4682 99.4141 30.5251 98.3588 34.1293C96.3911 40.8553 98.6737 47.0825 104.544 50.894C108.47 53.4425 112.85 54.5209 117.474 54.6569C127.858 54.9613 137.096 51.7845 145.156 45.2853C148.906 42.2607 151.877 38.5885 153.549 33.9998C155.923 27.4876 154.244 21.2992 148.981 17.0959C147.289 15.7455 145.412 14.7028 143.357 14.039C142.447 13.7443 142.071 13.3524 142.048 12.355C141.996 10.2987 140.944 8.67958 139.421 7.35836C138.33 6.41278 137.07 5.75217 135.71 5.25671C135.194 5.06889 134.596 5.04622 134.08 4.54428C134.989 4.12978 135.918 3.98082 136.814 3.73471C141.931 2.31634 147.146 1.76259 152.439 2.05403C160.349 2.48797 167.888 4.30789 174.798 8.30394C178.415 10.3959 181.51 13.0448 184.075 16.3964C193.745 29.0128 206.528 36.9823 221.79 41.137C229.368 43.1998 237.103 44.1486 244.954 44.2846C257.355 44.4984 269.499 42.7723 281.48 39.696C289.631 37.604 297.878 36.2698 306.33 36.6358C317.984 37.1409 328.738 40.389 338.307 47.1959C339.389 47.9666 340.431 48.7859 341.382 49.712C341.431 49.8772 341.535 49.984 341.71 50.0099L341.704 50.0035C341.753 50.188 341.87 50.2917 342.061 50.3143L342.055 50.3111ZM182.25 155.442C189.014 155.41 194.696 154.506 200.236 152.777C209.409 149.915 217.581 145.355 224.27 138.373C227.91 134.572 230.771 130.268 232.33 125.184C235.145 116 232.304 107.325 224.608 101.593C221.877 99.5591 218.861 98.0954 215.63 97.0591C214.838 96.8065 214.416 96.5086 214.302 95.5371C213.98 92.7975 212.604 90.5598 210.529 88.7464C208.331 86.8261 205.752 85.6344 202.96 84.8831C197.476 83.4097 191.956 83.4745 186.419 84.5884C179.656 85.9518 173.444 88.5359 168.067 92.927C165.388 95.1129 163.148 97.6776 161.755 100.884C160.556 103.639 160.17 106.489 161.255 109.355C161.657 110.424 161.492 111.036 160.703 111.848C156.884 115.776 153.884 120.232 152.351 125.55C150.533 131.858 151.137 137.852 154.874 143.38C157.339 147.026 160.722 149.607 164.631 151.53C170.483 154.409 176.743 155.397 182.247 155.439L182.25 155.442ZM82.5163 39.2879C82.5001 38.5269 82.1559 38.1934 81.3506 38.2225C80.6233 38.2484 79.9641 38.5399 79.3245 38.8605C77.3567 39.8449 75.5319 41.0593 73.7655 42.3578C69.3592 45.5929 65.2517 49.1874 61.2545 52.9082C54.2279 59.4496 47.5454 66.3212 41.5838 73.8567C40.1291 75.6961 38.7361 77.5808 37.6126 79.65C37.2717 80.2783 36.9535 80.9227 36.8073 81.6222C36.5443 82.8527 37.0736 83.4097 38.2783 83.196C38.9861 83.0697 39.6355 82.7653 40.272 82.435C42.2234 81.4181 44.0158 80.1584 45.7692 78.8372C53.2083 73.235 59.946 66.8555 66.4271 60.2008C70.9827 55.5247 75.389 50.7126 79.2595 45.4375C80.2856 44.0385 81.2727 42.6169 82 41.0334C82.2566 40.4796 82.5033 39.9194 82.5163 39.2912V39.2879ZM104.171 119.455C105.889 119.507 108.376 119.254 110.854 118.875C120.614 117.383 129.388 113.642 136.96 107.279C141.6 103.38 145.272 98.7301 147.416 92.9951C150.906 83.659 148.192 74.349 140.236 68.3322C137.772 66.4702 135.051 65.081 132.135 64.0803C125.936 61.9495 119.565 61.4767 113.087 62.2021C102.346 63.4035 92.7478 67.3283 84.51 74.3619C80.0193 78.196 76.4346 82.7394 74.4214 88.3513C71.9017 95.3687 72.3952 102.078 76.847 108.254C79.3829 111.774 82.7956 114.251 86.705 116.052C91.988 118.487 97.586 119.455 104.171 119.452V119.455ZM249.701 203.877C249.662 203.877 249.62 203.877 249.581 203.877C249.581 208.058 249.581 212.239 249.581 216.419C249.581 216.772 249.598 217.129 249.659 217.475C249.695 217.686 249.903 217.822 250.104 217.847C250.393 217.883 250.604 217.692 250.666 217.436C250.737 217.145 250.728 216.834 250.734 216.529C250.753 215.305 250.776 214.081 250.783 212.857C250.822 205.82 250.815 198.784 250.916 191.75C250.965 188.428 252.036 185.455 254.51 183.094C255.559 182.093 256.761 181.601 258.244 181.653C260.491 181.731 262.742 181.702 264.992 181.715C265.427 181.715 265.869 181.647 265.849 181.093C265.83 180.575 265.453 180.494 264.979 180.5C262.833 180.533 260.683 180.445 258.546 180.562C256.494 180.672 255.023 179.717 253.738 178.324C252.861 177.379 252.247 176.255 251.861 175.024C251.296 173.221 250.942 171.378 250.952 169.477C250.987 161.676 251.02 153.875 251.055 146.077C251.055 145.773 251.072 145.465 251.055 145.161C251.033 144.749 251.016 144.267 250.448 144.293C250.003 144.312 249.922 144.717 249.909 145.089C249.893 145.549 249.896 146.006 249.893 146.466C249.854 154.319 249.854 162.168 249.766 170.021C249.724 173.755 248.49 176.983 245.402 179.364C244.37 180.16 243.321 180.507 242.025 180.465C239.626 180.387 237.22 180.432 234.817 180.432C234.463 180.432 234.099 180.393 233.771 180.584C233.528 180.727 233.411 180.934 233.46 181.216C233.499 181.443 233.664 181.566 233.878 181.582C234.132 181.604 234.388 181.588 234.642 181.588C237.145 181.582 239.652 181.604 242.155 181.562C244.565 181.524 246.402 182.492 247.662 184.529C247.984 185.047 248.273 185.591 248.507 186.154C249.299 188.055 249.711 190.037 249.708 192.103C249.705 196.028 249.708 199.956 249.708 203.881L249.701 203.877ZM188.705 71.8393C191.533 71.7745 194.358 71.4248 197.096 70.5148C200.908 69.2454 204.259 67.2862 206.642 63.9605C209.542 59.9126 209.613 55.1135 206.899 50.9393C205.801 49.2489 204.402 47.8565 202.778 46.6745C194.995 41.0075 182.503 40.58 174.369 45.7127C172.226 47.0663 170.389 48.7438 169.116 50.9555C167.154 54.3719 166.937 57.8855 168.632 61.48C169.863 64.0933 171.794 66.0913 174.168 67.6748C178.548 70.6022 183.461 71.7518 188.712 71.8425L188.705 71.8393ZM319.65 93.8888C318.721 93.9439 317.695 93.9374 316.685 94.0702C312.902 94.5689 309.467 95.8933 306.619 98.5002C302.833 101.968 302.06 106.972 304.596 111.437C305.486 113.004 306.636 114.374 308.061 115.482C313.964 120.074 320.64 121.301 327.875 119.86C331.092 119.219 333.973 117.823 336.304 115.462C339.817 111.907 340.399 106.975 337.83 102.694C336.983 101.282 335.924 100.045 334.655 98.9956C330.329 95.4173 325.271 93.9795 319.65 93.8921V93.8888ZM306.376 60.651C304.892 60.6672 303.414 60.7449 301.957 61.0363C298.541 61.7196 295.401 62.9761 292.907 65.5117C289.553 68.9183 289.075 73.5102 291.647 77.5354C292.965 79.5982 294.751 81.1882 296.872 82.3799C302.012 85.2685 307.506 86.1201 313.295 85.0062C316.357 84.4168 319.143 83.2251 321.501 81.1364C325.397 77.6844 326.043 72.6359 323.14 68.3257C322.072 66.739 320.705 65.4469 319.121 64.388C315.27 61.8103 310.974 60.7157 306.379 60.651H306.376ZM267.632 100.427C266.193 100.427 264.771 100.524 263.362 100.799C260.306 101.398 257.491 102.525 255.118 104.588C251.068 108.108 250.396 113.361 253.426 117.784C254.27 119.015 255.28 120.096 256.478 120.977C262.323 125.271 268.827 126.307 275.808 124.724C278.909 124.021 281.64 122.577 283.789 120.171C286.647 116.971 287.095 112.694 284.968 108.973C284.02 107.312 282.753 105.922 281.23 104.773C277.207 101.732 272.606 100.485 267.629 100.427H267.632ZM258.439 68.9345C257.001 68.8924 255.575 69.0252 254.173 69.3199C251.276 69.9254 248.61 71.0135 246.516 73.2026C243.902 75.9357 243.428 79.6047 245.272 82.9175C246.023 84.2678 246.987 85.4563 248.208 86.4084C253.578 90.5858 259.65 91.7742 266.258 90.4886C268.963 89.9608 271.402 88.8403 273.376 86.8552C276.191 84.025 276.685 80.2167 274.681 76.7744C273.714 75.1164 272.372 73.8017 270.827 72.6845C267.132 70.0096 262.92 69.0252 258.439 68.9345ZM163.05 7.76639C162.794 7.76639 162.54 7.75991 162.284 7.76639C161.755 7.77934 161.229 7.85058 161.021 8.42052C160.819 8.96455 161.102 9.4082 161.462 9.7968C161.988 10.3603 162.592 10.8266 163.235 11.2443C166.641 13.4625 170.35 14.9845 174.288 15.956C175.175 16.1762 176.094 16.3382 177.019 16.2313C177.47 16.1795 177.97 16.1212 178.178 15.6257C178.406 15.0849 178.149 14.6316 177.798 14.2365C177.321 13.6989 176.756 13.2682 176.172 12.8537C173.694 11.1018 170.957 9.88099 168.099 8.90626C166.46 8.34604 164.813 7.80201 163.053 7.76315L163.05 7.76639ZM32.8524 88.0826C32.8394 87.1661 32.479 86.8747 31.6672 87.0495C31.112 87.1694 30.6347 87.477 30.1833 87.8041C26.7317 90.2976 24.1243 93.5002 22.2345 97.2923C22.0104 97.7424 21.8221 98.2217 21.7961 98.7398C21.7507 99.6692 22.241 100.093 23.1274 99.789C23.647 99.6109 24.1503 99.3194 24.5886 98.9827C27.8162 96.4892 30.3489 93.4063 32.2874 89.8345C32.6024 89.2548 32.8459 88.6363 32.8557 88.0761L32.8524 88.0826ZM220.231 72.4092C220.556 72.393 220.864 72.3898 221.166 72.3542C223.4 72.1048 225.225 71.1851 226.053 68.9896C226.884 66.7811 226.131 64.8705 224.517 63.2967C222.345 61.182 219.695 60.447 216.753 61.0784C212.646 61.9592 211.204 66.2759 213.909 69.4883C215.552 71.441 217.724 72.3185 220.228 72.406L220.231 72.4092ZM163.764 39.2782C160.953 39.262 159.287 40.2983 158.735 41.9822C158.176 43.6888 158.982 45.69 160.706 46.8656C162.076 47.8014 163.592 48.1252 165.219 47.8468C168.258 47.3286 169.574 44.1875 167.788 41.6843C166.648 40.091 165.047 39.3106 163.764 39.275V39.2782ZM155.234 5.37976C154.663 5.37976 154.455 5.34414 154.26 5.38624C153.77 5.4931 153.202 5.56111 153.065 6.15372C152.929 6.74632 153.364 7.0993 153.809 7.35188C154.978 8.01573 156.231 8.36547 157.589 8.21003C157.988 8.1647 158.43 8.06755 158.563 7.61095C158.699 7.15435 158.4 6.83376 158.066 6.59412C157.111 5.9076 156.082 5.383 155.234 5.37976Z" fill="#FA4616"/>
<path d="M22.97 153.125C24.9248 152.5 26.6262 151.38 28.3731 150.353C32.6268 147.857 36.4648 144.767 40.4912 141.943C42.1472 140.784 43.748 139.521 45.6118 138.683C45.7352 139.252 46.0794 139.476 46.6152 139.236C46.9853 139.071 47.31 138.812 47.6542 138.589C55.918 133.194 65.0975 130.516 74.8322 129.56C79.154 129.136 83.4889 129.117 87.8302 129.437C92.6748 129.797 97.4708 130.457 102.198 131.545C121.256 135.93 138.124 144.745 153.35 156.84C155.106 158.235 156.795 159.715 158.532 161.134C159.233 161.707 159.285 161.674 159.795 160.748C164.688 164.2 168.52 168.663 172.014 173.459C175.452 178.177 178.177 183.3 180.625 188.568C182.966 193.607 184.661 198.886 186.207 204.219C187.255 207.83 187.98 211.525 189.249 215.074C191.214 220.576 193.688 225.831 197.383 230.381C202.523 236.709 209.04 240.896 217.164 242.473C220.457 243.114 223.769 243.244 227.065 242.988C231.744 242.625 236.293 241.534 240.715 239.902C246.495 237.768 251.879 234.883 257.006 231.521C260.24 229.4 263.302 227.033 266.286 224.556C269.309 222.046 272.247 219.442 274.991 216.651C279.238 212.334 283.265 207.817 286.992 203.024C290.087 199.041 293.058 194.977 295.828 190.77C299.136 185.751 302.153 180.563 305.02 175.278C307.037 171.554 308.881 167.753 310.647 163.912C312.579 159.706 314.281 155.395 315.875 151.05C317.872 145.603 319.629 140.088 320.941 134.431C321.268 133.012 321.707 131.591 322.321 130.237C323.113 128.482 324.506 127.795 326.327 127.688C332.042 127.358 336.91 125.033 340.829 120.988C344.047 117.666 345.673 113.563 345.735 108.842C345.803 103.686 343.819 99.4635 340.303 95.8366C339.059 94.551 337.741 93.3658 336.156 92.4882C334.906 91.7952 334.546 90.4352 335.124 88.8905C335.338 88.3205 335.614 87.7733 336.039 87.3134C337.254 86.0116 338.432 84.6677 339.676 83.3951C343.553 79.4249 346.164 74.7586 347.131 69.302C347.94 64.7393 347.167 60.319 345.235 56.106C344.595 54.7135 343.81 53.402 342.998 52.1067C342.745 51.7019 342.527 51.323 342.637 50.8308C343.277 50.9895 343.638 51.5173 344.079 51.9286C351.229 58.6545 356.379 66.7244 360.1 75.7398C363.484 83.9391 365.526 92.4818 366.614 101.274C367.387 107.507 367.802 113.757 367.448 120.03C367.231 123.89 366.828 127.74 366.344 131.584C365.685 136.84 364.831 142.063 363.818 147.261C362.13 155.913 359.938 164.443 357.366 172.876C352.323 189.391 345.829 205.327 338.01 220.721C328.834 238.785 318.005 255.792 305.238 271.553C298.513 279.853 291.236 287.651 283.378 294.891C274.719 302.871 265.403 309.995 255.077 315.73C247.002 320.215 238.543 323.761 229.419 325.506C220.544 327.203 211.745 327.119 203.114 324.11C195.639 321.504 189.457 317.028 184.372 311.034C177.492 302.922 173.465 293.402 170.848 283.221C169.134 276.543 168.169 269.749 167.669 262.878C167.247 257.071 167.348 251.265 167.416 245.456C167.471 240.663 167.578 235.867 167.341 231.081C166.838 220.783 165.559 210.589 162.85 200.615C160.743 192.856 157.827 185.437 153.548 178.582C151.34 175.042 148.563 171.998 145.544 169.161C140.852 164.757 135.932 160.619 130.633 156.943C121.788 150.81 112.284 146.079 101.776 143.508C95.844 142.057 89.8142 141.344 83.7064 141.61C75.6147 141.963 67.838 143.776 60.425 147.041C53.7944 149.961 47.7062 153.773 42.1212 158.384C37.9163 161.859 33.1106 163.883 27.6815 164.54C23.4084 165.058 19.3171 164.492 15.4011 162.785C10.2772 160.554 6.80286 156.681 4.61758 151.61C4.19546 150.629 3.87076 149.605 3.52007 148.595C3.39019 148.223 3.2116 147.837 3.42916 147.426C3.86426 147.452 3.99415 147.831 4.20845 148.096C8.01077 152.834 12.9106 155.201 19.0281 154.936C20.1029 154.89 21.1452 154.625 22.181 154.346C22.8207 154.174 23.1778 153.841 22.9603 153.132L22.97 153.125ZM223.766 287.683C226.772 287.589 229.763 287.275 232.714 286.634C241.972 284.619 250.356 280.585 258.282 275.539C267.987 269.361 276.595 261.893 284.301 253.367C288.275 248.972 291.96 244.351 295.315 239.471C295.516 239.176 295.704 238.872 295.87 238.558C295.971 238.37 295.941 238.16 295.785 237.998C295.581 237.787 295.324 237.778 295.081 237.888C294.633 238.092 294.457 238.548 294.204 238.921C290.584 244.18 286.6 249.154 282.242 253.817C274.014 262.622 264.873 270.335 254.437 276.446C247.037 280.779 239.28 284.234 230.769 285.753C226.727 286.475 222.668 286.673 218.593 285.973C214.794 285.322 211.323 283.962 208.407 281.378C208.053 281.064 207.618 280.704 207.222 281.158C206.738 281.708 207.254 282.071 207.67 282.375C208.488 282.984 209.284 283.629 210.144 284.169C214.304 286.786 218.953 287.537 223.772 287.68L223.766 287.683Z" fill="#C30000"/>
<path d="M50.8576 218.798C52.1727 216.191 53.9131 213.856 55.6438 211.524C62.4659 202.344 70.4602 194.264 79.0974 186.797C91.9623 175.677 105.957 166.162 120.748 157.791C123.043 156.493 125.079 157.409 125.781 159.948C126.381 162.118 125.492 165.395 123.4 166.752C121.517 167.973 119.624 169.181 117.731 170.385C104.694 178.675 92.2383 187.733 80.8476 198.189C74.4411 204.07 68.4438 210.333 63.3199 217.379C59.7676 222.266 56.6699 227.405 54.7996 233.195C53.2994 237.845 52.7247 242.534 54.2314 247.308C54.3223 247.593 54.2963 247.913 54.3255 248.214C53.5754 248.273 53.4261 247.599 53.1761 247.165C51.5233 244.286 50.4193 241.197 49.6725 237.968C49.0003 235.073 49.0263 232.139 49.049 229.202C49.0718 226.294 49.5848 223.471 50.4453 220.702C50.6368 220.083 51.02 219.497 50.8576 218.798Z" fill="#D0E6EC"/>
<path d="M153.388 28.3978C153.378 31.6555 152.306 34.5926 150.618 37.329C147.705 42.0537 143.601 45.5154 138.808 48.2032C133.438 51.218 127.684 52.9764 121.515 53.446C117.215 53.7698 113.049 53.31 109.02 51.8171C105.588 50.5477 102.649 48.5691 100.701 45.3794C98.6682 42.0537 98.3532 38.4948 99.389 34.7805C100.399 31.1568 102.415 28.129 104.935 25.3894C105.367 24.9198 105.695 24.8551 106.172 25.3603C107.02 26.2573 108.039 26.9503 109.179 27.4295C109.832 27.7048 110.023 28.0221 109.666 28.7022C109.215 29.5571 108.948 30.4865 108.78 31.4515C108.338 34.0097 109.059 36.1924 110.828 38.0382C112.793 40.0848 115.319 41.066 118.053 41.3931C125.94 42.3354 132.905 40.1107 138.922 34.978C140.766 33.4042 142.195 31.4806 143.007 29.1555C144.205 25.7229 143.413 22.7178 140.675 20.3215C140.484 20.1531 140.289 19.9847 140.081 19.839C139.711 19.5767 139.692 19.2852 139.945 18.9322C140.718 17.8442 141.364 16.6946 141.741 15.4057C141.861 14.9912 142.062 14.8261 142.523 14.9912C147.744 16.8856 151.78 19.9329 153.118 25.6647C153.329 26.5681 153.394 27.4749 153.388 28.3978Z" fill="#FA4616"/>
<path d="M94.7715 297.568C93.2129 297.672 91.7193 297.328 90.2776 296.797C83.5269 294.31 77.1821 291.085 71.6361 286.441C69.3956 284.566 67.4182 282.442 65.7882 280.007C62.7749 275.509 62.5865 270.784 64.7296 265.911C65.8239 263.42 67.1584 261.082 69.5223 259.528C71.6751 260.577 73.7597 261.772 76.0099 262.624C82.4261 265.052 88.9333 267.005 95.9177 266.629C96.3236 266.607 96.7457 266.581 97.1419 266.655C98.5446 266.921 99.0771 268.287 98.2264 269.414C97.9504 269.78 97.577 270.072 97.3269 270.454C94.1903 275.253 92.6739 280.583 92.3394 286.253C92.1056 290.23 92.7745 294.055 94.7682 297.571L94.7715 297.568Z" fill="#C30000"/>
<path d="M50.8611 218.799C51.0234 219.499 50.6403 220.085 50.4487 220.703C49.585 223.475 49.0752 226.296 49.0524 229.204C49.0297 232.141 49.0037 235.075 49.6759 237.97C50.426 241.202 51.5267 244.291 53.1795 247.167C53.4262 247.597 53.5789 248.271 54.3289 248.216L54.3127 248.209C54.2607 248.514 54.303 248.77 54.6569 248.86L54.6277 248.808C54.7088 248.935 54.3647 249.421 54.9167 249.145C55.6602 250.113 56.0986 251.27 56.8616 252.235C59.1995 255.191 62.2226 257.212 65.6287 258.721C66.1742 258.964 66.7165 259.207 67.3757 259.501C66.21 260.988 65.0832 262.354 64.2812 263.947C63.4792 265.541 62.9402 267.228 62.4596 269.015C56.2609 266.914 50.7734 263.935 46.7698 258.711C43.7208 254.735 42.2953 250.185 42.1427 245.211C41.9576 239.23 43.5324 233.621 45.8249 228.177C47.0717 225.217 48.5686 222.378 50.2246 219.622C50.4065 219.321 50.5331 218.974 50.8676 218.793L50.8611 218.799Z" fill="#859295"/>
<path d="M122.09 27.3443C117.901 28.1571 113.787 28.0373 109.794 26.376C109.654 26.3177 109.524 26.2335 109.388 26.1655C105.163 24.038 103.994 20.1779 106.329 16.0815C107.092 14.7441 108.037 13.5362 109.206 12.5388C115.294 7.35427 122.34 4.94498 130.347 5.37568C133.172 6.43136 135.004 8.38405 135.754 11.3179C135.543 11.5673 135.471 11.8587 135.527 12.1729C135.79 13.6754 135.101 14.838 134.176 15.9098C133.302 16.9234 132.254 17.733 131.124 18.439C127.915 20.4337 124.402 21.6028 120.678 22.1306C118.236 22.4771 115.781 22.5516 113.395 21.8035C111.846 21.3178 110.414 20.6313 110.212 18.7207C110.17 18.3159 109.969 18.0374 109.511 18.1248C109.125 18.1993 109.089 18.5264 109.089 18.8373C109.086 20.1196 109.729 21.0652 110.719 21.7971C112.161 22.8657 113.839 23.2543 115.59 23.4227C118.051 23.6591 120.48 23.3935 122.902 22.9888C123.061 23.1215 123.217 23.2737 123.042 23.481C122.093 24.6144 121.941 25.9388 122.093 27.341L122.09 27.3443ZM113.732 14.2033C113.865 14.1774 114.119 14.1482 114.359 14.0705C116.327 13.4455 118.044 12.3833 119.577 11.0265C120.1 10.5634 120.775 9.97729 120.395 9.23248C119.96 8.38081 119.087 8.87951 118.47 9.05762C116.229 9.70851 114.284 10.8646 112.914 12.8011C112.346 13.6042 112.674 14.1741 113.732 14.2033Z" fill="#D0E6EC"/>
<path d="M94.7845 297.562C92.7876 294.042 92.1187 290.217 92.3557 286.244C92.6902 280.574 94.2066 275.247 97.3432 270.444C97.59 270.065 97.9667 269.771 98.2427 269.405C99.0934 268.278 98.5609 266.911 97.1581 266.646C96.762 266.571 96.3431 266.597 95.934 266.62C88.9496 266.999 82.4424 265.043 76.0262 262.614C73.776 261.762 71.6914 260.568 69.5386 259.518C72.2369 257.18 75.3606 256.303 78.7797 257.332C85.6895 259.411 92.7681 260.062 99.9344 260.299C103.769 260.425 107.591 260.257 111.416 260.169C111.796 260.16 112.176 260.169 112.578 260.279C110.543 261.513 108.604 262.805 106.929 264.441C100.275 270.933 96.5834 278.725 96.5542 288.109C96.5477 290.11 96.8951 292.057 97.4536 293.974C98.181 296.458 97.4439 297.445 94.7813 297.559L94.7845 297.562Z" fill="#FA4616"/>
<path d="M106.093 278.196C107.411 274.43 109.479 271.137 112.369 268.371C113.483 267.306 114.73 266.422 116.149 265.803C116.707 265.56 117.272 265.331 117.919 265.399C121.523 265.771 125.134 266.072 128.731 266.506C131.508 266.84 133.501 268.452 134.956 270.758C136.534 273.258 137.109 276.056 136.969 278.948C136.703 284.378 134.712 289.155 131.017 293.177C128.689 295.709 125.926 297.548 122.484 298.261C120.99 298.568 119.539 298.407 118.084 298.089C117.665 297.607 117.045 297.474 116.509 297.192C115.415 296.619 114.376 295.962 113.613 294.99C111.298 292.03 110.236 288.65 110.47 284.906C110.544 283.701 110.856 282.51 111.077 281.318C111.295 280.146 111.093 279.764 109.924 279.485C108.888 279.239 107.84 279.048 106.791 278.873C106.366 278.802 106.164 278.588 106.096 278.2L106.093 278.196ZM134.164 279.521C134.183 276.593 133.901 274.65 132.897 272.856C131.413 270.211 128.868 268.935 125.858 269.285C124.351 269.459 122.981 269.961 121.737 270.803C116.931 274.061 114.314 278.672 113.441 284.33C113.045 286.901 113.253 289.42 114.438 291.781C116.116 295.129 119.701 296.532 123.244 295.275C124.952 294.67 126.488 293.769 127.803 292.535C131.826 288.763 133.949 284.109 134.164 279.518V279.521Z" fill="#D0E6EC"/>
<path d="M251.483 38.9287C252.516 37.0538 253.484 35.1658 253.834 33.0091C254.442 29.2916 252.487 26.3803 248.772 25.5319C246.376 24.9846 244.002 25.1789 241.642 25.6938C240.499 25.9432 239.378 26.2961 238.252 26.6103C235.329 27.4198 232.612 27.2935 230.274 25.0462C229.342 24.1492 228.118 23.7152 226.9 23.3072C226.958 23.0125 227.208 22.9348 227.41 22.8409C233.456 19.9977 239.762 18.3785 246.499 18.8448C249.688 19.065 252.737 19.8228 255.513 21.4711C256.172 21.8629 256.805 22.2871 257.309 22.8765C257.276 23.3655 257.549 23.7508 257.754 24.1524C259.387 27.4004 259.608 30.7326 258.302 34.1296C257.403 36.4709 255.779 38.1515 253.435 39.0809C252.795 39.3335 252.084 39.612 251.487 38.9255L251.483 38.9287Z" fill="#D0E6EC"/>
<path d="M98.9702 279.65C99.178 278.112 99.8729 276.746 100.516 275.366C102.623 270.82 105.481 266.836 109.478 263.744C112.351 261.522 115.501 259.9 119.229 259.78C122.982 259.657 126.005 260.995 127.931 264.362C128.028 264.534 128.165 264.702 128.048 265.055C127.593 265.24 127.038 265.136 126.512 265.091C123.872 264.861 121.226 264.673 118.599 264.33C117.514 264.188 116.576 264.401 115.641 264.812C113.452 265.778 111.66 267.27 110.111 269.064C106.487 273.258 104.367 278.148 103.376 283.559C103.351 283.708 103.312 283.857 103.279 284.006C100.905 283.478 99.4378 282.056 98.9702 279.654V279.65Z" fill="#FA4616"/>
<path d="M209.387 28.4355C212.971 26.1946 216.832 24.6694 221.037 24.1221C223.177 23.8436 225.33 23.8955 227.369 24.6953C229.447 25.5114 231.09 26.797 231.483 29.1836C231.272 29.2192 231.126 29.3358 230.989 29.5042C226.759 34.7858 218.206 36.1718 212.221 31.9005C210.997 31.0294 209.737 30.0709 209.387 28.4323V28.4355Z" fill="#D0E6EC"/>
<path d="M209.398 28.4302C209.749 30.0688 211.009 31.024 212.233 31.8984C218.217 36.1697 226.77 34.7837 231.001 29.5021C231.138 29.3337 231.284 29.2171 231.495 29.1815C232.154 30.684 231.803 32.1931 231.43 33.6633C230.78 36.2215 229.423 38.43 227.816 40.4993C227.475 40.9365 227.14 41.1599 226.523 41.0239C218.808 39.3238 211.451 36.6846 204.596 32.7274C204.466 32.6529 204.366 32.5299 204.148 32.3388C205.762 30.8233 207.515 29.5441 209.398 28.4302Z" fill="#859295"/>
<path d="M132.197 37.7257C131.06 38.6519 129.667 38.9951 128.303 39.3902C124.517 40.4848 120.689 40.8539 116.809 39.9083C115.205 39.5165 113.714 38.8818 112.412 37.8456C109.675 35.6727 108.935 32.2951 110.948 28.788C111.639 27.5802 112.773 28.8204 113.708 28.733C114.237 28.6844 114.578 28.9597 114.63 29.6494C114.87 32.8521 116.672 34.8631 119.984 35.6079C124.261 36.5664 128.177 35.5626 131.817 33.2601C132.161 33.0432 132.492 32.8035 132.83 32.5768C134.012 32.7873 134.453 33.3378 134.2 34.3611C134.044 34.9959 133.801 35.5982 133.401 36.139C133.112 36.534 132.749 36.9259 132.836 37.4861C132.557 37.3825 132.349 37.4829 132.2 37.7257H132.197Z" fill="#D0E6EC"/>
<path d="M135.753 11.3163C135.003 8.3824 133.172 6.42971 130.347 5.37402C133.003 5.43231 135.503 6.07026 137.744 7.51777C140.848 9.52552 141.741 12.6569 140.241 16.0312C139.783 17.0643 139.208 18.0293 138.455 18.8712C134.081 23.7643 128.49 26.3355 122.09 27.3426C121.937 25.9404 122.09 24.616 123.038 23.4826C123.213 23.2753 123.057 23.1231 122.898 22.9903C123.093 22.7896 123.356 22.8058 123.603 22.7475C127.074 21.9541 130.302 20.607 133.159 18.46C134.309 17.5953 135.335 16.6012 136.052 15.3383C136.565 14.438 136.896 13.4795 136.763 12.4206C136.689 11.8312 136.497 11.3131 135.753 11.3131V11.3163Z" fill="#859295"/>
<path d="M106.089 278.197C106.16 278.589 106.358 278.802 106.784 278.87C107.833 279.045 108.885 279.233 109.917 279.482C111.086 279.761 111.291 280.143 111.07 281.315C110.849 282.51 110.537 283.699 110.463 284.903C110.229 288.647 111.291 292.031 113.606 294.987C114.366 295.959 115.408 296.619 116.502 297.189C117.035 297.468 117.658 297.604 118.077 298.086C116.333 298.138 114.674 297.581 112.966 297.368C111.96 297.241 110.963 297.011 109.956 296.885C108.157 296.662 106.839 295.729 105.888 294.233C104.878 292.649 104.439 290.875 104.309 289.039C104.043 285.292 104.66 281.672 106.089 278.194V278.197Z" fill="#859295"/>
<path d="M98.9653 279.646C99.4329 282.049 100.904 283.471 103.274 283.999C102.972 286.641 102.94 289.251 103.615 291.871C104.368 294.789 105.972 296.91 108.781 298.072C109.538 298.387 110.281 298.727 110.937 299.222C111.216 299.432 111.444 299.721 111.655 300.002C111.924 300.359 111.885 300.673 111.405 300.806C111.061 300.899 110.71 300.987 110.359 301.029C106.06 301.541 102.355 300.291 99.9427 296.456C97.884 293.183 97.3807 289.533 97.7152 285.744C97.897 283.668 98.1568 281.599 98.9653 279.646Z" fill="#C30000"/>
<path d="M132.83 37.4818C132.742 36.9183 133.106 36.5297 133.395 36.1347C133.791 35.5939 134.038 34.9915 134.193 34.3568C134.447 33.3335 134.005 32.7863 132.823 32.5725C133.882 31.614 134.892 30.6199 135.593 29.3504C136.577 27.5629 136.898 25.7041 136.103 23.7773C135.866 23.2009 135.911 22.8706 136.405 22.4917C137.051 21.9963 137.674 21.4587 138.223 20.8596C138.697 20.3447 139.038 20.5002 139.506 20.8305C141.831 22.4788 142.821 25.1763 142.113 27.9612C141.636 29.8394 140.649 31.4359 139.343 32.8219C137.486 34.7973 135.427 36.5233 132.826 37.4753L132.83 37.4818Z" fill="#859295"/>
<path d="M251.483 38.9281C252.08 39.6114 252.791 39.3362 253.431 39.0836C255.775 38.1542 257.399 36.4735 258.298 34.1322C259.603 30.732 259.386 27.403 257.749 24.155C257.548 23.7503 257.272 23.3649 257.305 22.8792C259.672 24.5857 260.883 26.9788 261.337 29.78C261.951 33.5817 260.72 36.9787 259.003 40.2947C258.129 41.9786 257.061 42.9404 255.019 42.8627C252.898 42.7817 250.768 43.0181 248.349 43.1314C249.515 41.5673 250.499 40.2526 251.483 38.9346V38.9281Z" fill="#859295"/>
<path d="M129.321 33.2186C126.327 34.8378 123.161 35.2134 119.888 34.3456C118.105 33.8728 116.644 32.8818 115.972 31.0425C115.852 30.7122 115.784 30.356 115.751 30.003C115.667 29.0995 115.794 28.9441 116.729 28.9506C118.612 28.9603 120.495 28.9603 122.353 28.5781C123.794 28.2835 125.226 27.9467 126.665 27.6326C126.713 28.005 126.538 28.3288 126.392 28.6429C125.454 30.6604 126.613 33.128 129.327 33.2154L129.321 33.2186Z" fill="#D0E6EC"/>
<path d="M129.306 33.2144C126.591 33.127 125.432 30.6594 126.371 28.6419C126.517 28.3278 126.692 28.004 126.643 27.6316C127.919 27.1685 129.176 26.6471 130.475 26.2618C131.498 25.9574 132.582 25.9218 133.637 26.1711C134.969 26.4852 135.29 27.1523 134.738 28.3926C134.615 28.6678 134.469 28.9366 134.293 29.186C133.021 31.0059 131.407 32.4146 129.306 33.2177V33.2144Z" fill="#859295"/>
<path d="M54.6579 248.864C54.304 248.773 54.2618 248.517 54.3137 248.213C54.6514 248.313 54.6319 248.601 54.6579 248.864Z" fill="#D0E6EC"/>
<path d="M54.8986 249.147C54.3511 249.42 54.6925 248.935 54.612 248.813C54.773 248.868 54.8761 248.974 54.8986 249.147Z" fill="#D0E6EC"/>
<path d="M131.043 38.4506C131.466 37.6442 132.07 37.1876 132.521 37.2977C132.609 37.3204 132.716 37.369 132.833 37.4856C132.68 37.5892 132.514 37.6928 132.342 37.7964C131.888 38.0685 131.449 38.2822 131.043 38.4506Z" fill="#D0E6EC"/>
<path d="M342.047 50.3112C341.856 50.2887 341.739 50.1855 341.691 50.0017C341.882 50.0211 341.998 50.1275 342.047 50.3112Z" fill="#C30000"/>
<path d="M341.697 50.0022C341.525 49.9735 341.423 49.8717 341.375 49.7095C341.554 49.7286 341.665 49.8208 341.697 50.0022Z" fill="#C30000"/>
<path d="M182.252 155.44C176.748 155.398 170.487 154.41 164.636 151.532C160.727 149.608 157.34 147.024 154.879 143.381C151.145 137.853 150.537 131.859 152.356 125.551C153.888 120.233 156.892 115.778 160.707 111.849C161.496 111.037 161.662 110.425 161.259 109.356C160.175 106.49 160.561 103.64 161.759 100.885C163.152 97.6787 165.393 95.114 168.072 92.9281C173.449 88.5402 179.66 85.9528 186.424 84.5895C191.957 83.4755 197.477 83.4108 202.965 84.8842C205.757 85.6355 208.335 86.8272 210.534 88.7475C212.608 90.5609 213.988 92.7986 214.307 95.5382C214.42 96.5097 214.842 96.8076 215.635 97.0602C218.866 98.0964 221.882 99.5601 224.613 101.594C232.308 107.326 235.15 116.001 232.334 125.185C230.776 130.269 227.915 134.573 224.275 138.374C217.589 145.356 209.413 149.916 200.24 152.778C194.701 154.508 189.018 155.411 182.255 155.443L182.252 155.44ZM197.234 124.349C199.013 123.776 200.425 122.627 201.776 121.399C202.874 120.402 203.783 119.236 204.4 117.882C205.023 116.516 204.497 115.357 203.082 114.858C202.299 114.583 201.503 114.531 200.679 114.657C199.214 114.877 197.834 115.327 196.535 116.043C195.759 116.286 194.983 116.522 194.211 116.772C188.928 118.478 183.537 119.375 177.965 118.909C177.488 118.87 176.962 118.685 176.456 119.064C176.777 122.329 178.767 124.353 181.625 125.46C186.96 127.529 192.194 127.001 197.234 124.349ZM189.856 135.006C191.093 135.006 192.285 134.699 193.47 134.414C199.545 132.96 204.994 130.324 209.413 125.813C211.293 123.896 212.768 121.713 213.618 119.145C215.002 114.971 213.712 110.638 210.361 108.009C209.803 107.568 209.485 107.565 208.975 108.077C208.114 108.945 207.176 109.738 206.228 110.512C205.806 110.859 205.682 111.176 205.887 111.688C206.208 112.494 206.397 113.336 206.413 114.213C206.462 117.031 205.273 119.343 203.448 121.377C201.471 123.582 199.019 125.107 196.285 126.221C194.678 126.875 192.983 127.215 191.317 127.656C190.35 127.714 189.379 127.801 188.411 127.824C185.077 127.902 181.898 127.341 179.073 125.437C177.371 124.288 175.816 122.788 175.641 120.764C175.459 118.695 174.342 118.345 172.757 118.135C172.306 118.077 171.861 117.924 171.436 117.763C171.017 117.601 170.763 117.714 170.562 118.096C168.578 121.878 168.247 126.347 171.497 130.075C172.864 131.642 174.559 132.769 176.475 133.546C180.79 135.301 185.258 135.745 189.853 135.006H189.856ZM178.138 117.717C178.66 118.009 179.232 117.918 179.784 117.915C185.083 117.876 190.243 117.027 195.22 115.175C200.253 113.303 204.832 110.706 208.582 106.801C210.186 105.133 211.511 103.271 212.375 101.115C214.264 96.4093 213.008 91.9469 208.939 88.9126C206.864 87.3647 204.526 86.3706 202.017 85.8039C200.536 85.4671 199.062 84.9813 197.5 85.2339C197.312 85.2177 197.123 85.2015 196.935 85.1853C195.068 84.7644 193.197 84.7838 191.324 85.1465C187.879 85.2663 184.551 86.0079 181.3 87.0862C175.813 88.9061 170.806 91.568 166.708 95.7292C164.792 97.6754 163.221 99.8645 162.389 102.494C161.12 106.506 161.957 110.023 165.039 112.957C166.006 113.877 167.104 114.612 168.292 115.217C171.387 116.791 174.676 117.594 178.141 117.717H178.138ZM162.464 111.879C162.168 112.105 161.993 112.212 161.853 112.355C158.522 115.735 155.811 119.534 154.125 123.993C152.502 128.29 151.986 132.681 153.268 137.176C154.778 142.451 158.136 146.285 162.73 149.119C168.452 152.645 174.803 153.996 181.424 154.235C187.866 154.469 194.159 153.474 200.283 151.519C209.238 148.659 217.213 144.151 223.697 137.251C227.236 133.484 230.019 129.236 231.37 124.194C233.614 115.826 231.396 108.805 224.756 103.216C222.067 100.953 218.96 99.4241 215.638 98.3134C215.274 98.1903 214.914 97.9183 214.404 98.1871C213.979 100.91 212.881 103.407 211.173 105.622C210.4 106.626 210.465 106.574 211.401 107.426C215.459 111.124 216.446 115.868 214.245 120.897C212.995 123.757 211.105 126.15 208.738 128.148C201.805 133.999 193.717 136.671 184.7 136.522C180.992 136.46 177.4 135.641 174.134 133.766C169.942 131.357 167.094 127.196 168.088 121.629C168.322 120.314 168.76 119.068 169.364 117.882C169.604 117.406 169.533 117.163 169.033 116.95C166.464 115.833 164.224 114.268 162.464 111.882V111.879Z" fill="#121212"/>
<path d="M82.5257 39.2913C82.5127 39.9196 82.266 40.4798 82.0094 41.0335C81.2821 42.6171 80.2917 44.0387 79.2689 45.4376C75.4017 50.7095 70.9921 55.5249 66.4365 60.201C59.9554 66.8524 53.2177 73.2351 45.7787 78.8374C44.0252 80.1554 42.2361 81.4183 40.2814 82.4351C39.6449 82.7654 38.9988 83.0731 38.2877 83.1961C37.0798 83.4098 36.5537 82.8561 36.8167 81.6223C36.9661 80.9228 37.2811 80.2784 37.622 79.6502C38.7455 77.5809 40.1353 75.6962 41.5932 73.8569C47.5581 66.3214 54.2373 59.4497 61.2639 52.9083C65.2611 49.1875 69.3686 45.5963 73.7749 42.358C75.5413 41.0594 77.3661 39.8451 79.3339 38.8606C79.9735 38.54 80.6327 38.2486 81.36 38.2227C82.1653 38.1935 82.5095 38.5303 82.5257 39.2881V39.2913Z" fill="#FCF6F5"/>
<path d="M104.181 119.452C97.5959 119.452 91.9979 118.487 86.7149 116.052C82.8055 114.252 79.3928 111.774 76.8568 108.254C72.4051 102.076 71.9116 95.3692 74.4313 88.3518C76.4445 82.7399 80.0292 78.1965 84.5199 74.3624C92.7577 67.3288 102.356 63.404 113.097 62.2026C119.575 61.4772 125.946 61.95 132.145 64.0808C135.061 65.0815 137.782 66.4707 140.246 68.3327C148.205 74.3462 150.916 83.6595 147.425 92.9956C145.282 98.7306 141.61 103.381 136.97 107.28C129.398 113.643 120.624 117.383 110.863 118.876C108.386 119.255 105.899 119.507 104.181 119.456V119.452ZM103.402 118.257C105.142 118.254 106.869 118.177 108.603 117.979C118.653 116.836 127.696 113.251 135.574 106.904C140.379 103.031 144.185 98.3614 146.347 92.4936C149.598 83.6725 147.071 75.0068 139.59 69.3236C137.295 67.5782 134.762 66.2732 132.051 65.3017C125.813 63.0672 119.384 62.656 112.86 63.4235C102.768 64.6119 93.7059 68.3036 85.8545 74.7834C81.38 78.475 77.792 82.8791 75.6879 88.3518C73.6455 93.6659 73.4442 98.9961 75.847 104.252C77.805 108.533 81.065 111.632 85.1336 113.908C90.8062 117.082 96.9627 118.27 103.402 118.257Z" fill="#121212"/>
<path d="M249.701 203.875C249.701 199.951 249.698 196.023 249.701 192.098C249.701 190.032 249.292 188.05 248.5 186.149C248.266 185.589 247.977 185.042 247.655 184.523C246.396 182.487 244.558 181.515 242.148 181.557C239.645 181.599 237.138 181.577 234.635 181.583C234.381 181.583 234.125 181.596 233.872 181.577C233.657 181.557 233.492 181.437 233.453 181.211C233.404 180.929 233.521 180.722 233.764 180.579C234.092 180.385 234.456 180.424 234.81 180.427C237.213 180.427 239.616 180.385 242.019 180.459C243.314 180.501 244.363 180.158 245.395 179.358C248.483 176.978 249.717 173.75 249.76 170.016C249.847 162.166 249.85 154.313 249.886 146.461C249.886 146.001 249.886 145.544 249.902 145.084C249.915 144.712 249.997 144.307 250.441 144.288C251.01 144.265 251.026 144.747 251.049 145.155C251.065 145.46 251.049 145.768 251.049 146.072C251.016 153.873 250.984 161.674 250.945 169.472C250.935 171.373 251.289 173.215 251.854 175.019C252.24 176.246 252.854 177.37 253.731 178.319C255.02 179.711 256.487 180.67 258.54 180.557C260.679 180.44 262.829 180.527 264.972 180.495C265.446 180.489 265.823 180.569 265.842 181.088C265.862 181.641 265.42 181.713 264.985 181.709C262.735 181.696 260.485 181.729 258.238 181.648C256.754 181.596 255.552 182.088 254.504 183.089C252.032 185.45 250.958 188.422 250.909 191.745C250.808 198.778 250.815 205.815 250.776 212.852C250.769 214.076 250.747 215.3 250.727 216.524C250.721 216.829 250.727 217.14 250.659 217.431C250.597 217.684 250.386 217.878 250.097 217.842C249.896 217.816 249.688 217.68 249.652 217.47C249.594 217.123 249.574 216.767 249.574 216.414C249.571 212.234 249.574 208.053 249.574 203.872C249.613 203.872 249.656 203.872 249.695 203.872L249.701 203.875Z" fill="#FCF6F5"/>
<path d="M159.793 160.752C159.283 161.678 159.231 161.711 158.53 161.137C156.793 159.716 155.104 158.239 153.348 156.843C138.122 144.745 121.254 135.931 102.197 131.549C97.4688 130.461 92.6729 129.8 87.8283 129.441C83.4837 129.12 79.1521 129.14 74.8302 129.564C65.0923 130.516 55.9128 133.197 47.6523 138.592C47.3113 138.816 46.9834 139.075 46.6132 139.24C46.0774 139.48 45.73 139.256 45.6099 138.686C45.9638 138.155 46.5223 137.88 47.0321 137.546C53.5879 133.288 60.7834 130.652 68.4465 129.237C79.2527 127.239 90.0168 127.773 100.716 130.004C118.877 133.793 135.109 141.792 149.98 152.705C153.029 154.943 155.955 157.329 158.816 159.797C159.163 160.095 159.472 160.435 159.8 160.759L159.793 160.752Z" fill="#121212"/>
<path d="M188.712 71.836C183.461 71.7453 178.548 70.5957 174.168 67.6683C171.798 66.0848 169.862 64.0868 168.632 61.4735C166.94 57.8789 167.154 54.3654 169.115 50.949C170.388 48.734 172.226 47.0566 174.369 45.7062C182.503 40.5735 194.998 41.0042 202.778 46.668C204.401 47.8499 205.801 49.2424 206.898 50.9328C209.613 55.1102 209.545 59.9061 206.642 63.954C204.259 67.2797 200.908 69.2421 197.095 70.5083C194.361 71.4183 191.533 71.7712 188.705 71.8328L188.712 71.836ZM188.65 70.5925C191.41 70.586 194.18 70.2039 196.865 69.2939C199.911 68.2642 202.648 66.7389 204.814 64.3167C208.402 60.3109 208.642 55.1976 205.45 50.881C204.19 49.1777 202.638 47.7625 200.791 46.7392C192.826 42.3319 184.675 42.0534 176.418 45.8714C174.317 46.8428 172.515 48.2806 171.077 50.1265C167.976 54.0966 167.882 58.7662 170.836 62.8465C172.236 64.7798 174.038 66.2661 176.106 67.4352C179.974 69.6178 184.162 70.5698 188.647 70.5925H188.65Z" fill="#121212"/>
<path d="M319.664 93.8904C325.285 93.9779 330.344 95.4189 334.669 98.994C335.939 100.043 336.997 101.283 337.845 102.692C340.413 106.973 339.832 111.905 336.319 115.461C333.984 117.821 331.107 119.217 327.889 119.858C320.655 121.299 313.979 120.072 308.076 115.48C306.65 114.373 305.504 113.003 304.611 111.436C302.075 106.97 302.845 101.967 306.634 98.4985C309.482 95.8917 312.92 94.5672 316.7 94.0686C317.71 93.9358 318.739 93.939 319.664 93.8872V93.8904ZM336.098 102.342C336.14 102.161 336.046 102.074 335.89 102.022C334.835 100.403 333.351 99.2336 331.714 98.2816C325.535 94.6871 319.031 94.0264 312.277 96.3807C309.569 97.323 307.241 98.913 305.718 101.407C304.108 104.039 303.689 106.808 305.225 109.661C305.267 110.529 305.812 111.164 306.28 111.818C308.371 114.748 311.274 116.614 314.612 117.779C320.538 119.852 326.425 119.887 332.149 117.035C334.104 116.06 335.698 114.651 336.89 112.809C338.845 109.784 338.754 105.548 336.237 102.579C336.221 102.482 336.176 102.404 336.098 102.346V102.342Z" fill="#121212"/>
<path d="M306.391 60.6533C310.986 60.7181 315.281 61.8126 319.132 64.3903C320.717 65.4492 322.084 66.7413 323.152 68.3281C326.055 72.6383 325.409 77.6868 321.513 81.1388C319.155 83.2275 316.369 84.4192 313.307 85.0085C307.518 86.1225 302.027 85.2708 296.883 82.3823C294.766 81.1938 292.977 79.6006 291.659 77.5378C289.087 73.5126 289.568 68.9174 292.919 65.514C295.413 62.9817 298.552 61.722 301.968 61.0387C303.426 60.7472 304.904 60.6728 306.388 60.6533H306.391ZM323.636 73.2535C323.656 72.7419 323.626 72.2335 323.467 71.7412C323.539 71.5826 323.467 71.4757 323.334 71.3947C322.49 68.6131 320.568 66.683 318.21 65.161C314.129 62.5251 309.602 61.5989 304.784 61.8677C301.293 62.062 298.056 62.9914 295.205 65.0509C293.338 66.4013 291.932 68.1241 291.412 70.42C290.714 73.5255 291.773 76.1518 293.851 78.3959C296.575 81.3428 300.033 82.9749 303.946 83.7035C304.232 83.9496 304.56 83.9788 304.907 83.8946C305.316 83.9237 305.722 83.9496 306.131 83.9788C306.271 84.037 306.407 84.1374 306.55 84.1471C310.979 84.5228 315.194 83.833 319.025 81.4917C321.074 80.2385 322.672 78.5352 323.376 76.1809C323.659 75.2418 324.1 74.2703 323.63 73.247L323.636 73.2535Z" fill="#121212"/>
<path d="M267.637 100.425C272.615 100.483 277.216 101.73 281.239 104.771C282.762 105.924 284.025 107.31 284.977 108.971C287.104 112.695 286.655 116.973 283.798 120.169C281.648 122.575 278.914 124.019 275.817 124.722C268.839 126.305 262.335 125.269 256.487 120.975C255.286 120.094 254.276 119.013 253.435 117.782C250.405 113.359 251.074 108.106 255.126 104.586C257.503 102.52 260.315 101.397 263.371 100.797C264.78 100.522 266.202 100.425 267.641 100.425H267.637ZM284.376 110.538C283.188 107.52 280.846 105.603 278.103 104.117C273.774 101.772 269.121 101.157 264.296 101.801C261.533 102.17 258.948 103.116 256.685 104.806C254.785 106.225 253.386 108.016 252.902 110.37C252.662 111.545 252.461 112.773 253.107 113.925C253.285 115.745 254.328 117.125 255.5 118.398C258.458 121.607 262.267 123.229 266.488 123.883C270.901 124.567 275.232 124.233 279.281 122.125C281.259 121.095 282.964 119.729 284.038 117.74C285.107 115.762 285.62 113.692 284.642 111.5C284.603 111.302 284.568 111.102 284.529 110.904C284.6 110.729 284.522 110.619 284.373 110.538H284.376Z" fill="#121212"/>
<path d="M258.443 68.9357C262.924 69.0264 267.136 70.0108 270.831 72.6857C272.376 73.8029 273.718 75.1176 274.685 76.7756C276.692 80.2179 276.195 84.0262 273.38 86.8564C271.406 88.8415 268.967 89.962 266.262 90.4898C259.654 91.7754 253.582 90.5902 248.212 86.4096C246.991 85.4607 246.03 84.2691 245.276 82.9187C243.432 79.6059 243.906 75.9369 246.52 73.2038C248.614 71.0147 251.28 69.9266 254.177 69.3211C255.576 69.0296 257.002 68.8936 258.443 68.9357ZM255.212 88.6764C255.514 88.7476 255.816 88.8189 256.122 88.8933C258.278 89.7936 260.554 89.8778 262.824 89.745C266.168 89.5475 269.347 88.7444 271.977 86.5035C272.977 85.6518 273.922 84.7224 274.172 83.3364C275.578 79.6739 273.896 76.9894 271.37 74.5898C270.63 73.8871 269.785 73.3204 268.889 72.8184C265.623 70.9856 262.116 70.0497 258.369 70.0594C254.995 70.0691 251.777 70.7103 248.946 72.6662C244.812 75.5192 244.172 80.0075 247.387 83.861C249.365 86.2315 251.9 87.7794 254.901 88.563C254.966 88.7055 255.063 88.767 255.212 88.6796V88.6764Z" fill="#121212"/>
<path d="M163.049 7.76636C164.809 7.80522 166.452 8.35249 168.095 8.90948C170.952 9.8842 173.69 11.105 176.167 12.857C176.752 13.2715 177.32 13.7022 177.794 14.2397C178.145 14.6348 178.401 15.0881 178.174 15.6289C177.966 16.1244 177.466 16.1794 177.015 16.2345C176.089 16.3414 175.167 16.1794 174.284 15.9592C170.348 14.9878 166.64 13.4658 163.231 11.2475C162.588 10.8298 161.984 10.3602 161.458 9.80001C161.097 9.41141 160.815 8.96776 161.016 8.42373C161.227 7.85379 161.753 7.78255 162.279 7.7696C162.536 7.76312 162.789 7.7696 163.046 7.7696L163.049 7.76636Z" fill="#FCF6F5"/>
<path d="M32.8505 88.0845C32.844 88.6447 32.5972 89.26 32.2823 89.8429C30.3438 93.4147 27.8111 96.4976 24.5835 98.9911C24.1484 99.3278 23.6418 99.6193 23.1223 99.7974C22.2358 100.099 21.7455 99.6743 21.791 98.7482C21.817 98.2301 22.0053 97.7508 22.2293 97.3007C24.1191 93.5086 26.7265 90.306 30.1782 87.8125C30.6295 87.4854 31.1068 87.1778 31.6621 87.0579C32.4706 86.8831 32.8343 87.1745 32.8473 88.091L32.8505 88.0845Z" fill="#FCF6F5"/>
<path d="M220.232 72.4127C217.725 72.3253 215.553 71.4477 213.913 69.495C211.208 66.2794 212.65 61.966 216.757 61.0851C219.699 60.4537 222.349 61.1888 224.521 63.3034C226.135 64.8772 226.891 66.7878 226.057 68.9963C225.229 71.1919 223.401 72.1115 221.17 72.3609C220.865 72.3933 220.56 72.3965 220.235 72.4159L220.232 72.4127ZM220.3 71.1919C220.573 71.1724 220.878 71.1692 221.18 71.1271C222.901 70.8939 224.346 70.1783 224.963 68.4685C225.56 66.8104 224.963 65.337 223.761 64.1648C221.803 62.2477 219.449 61.5126 216.757 62.2639C213.77 63.0994 212.796 66.0462 214.686 68.4976C216.082 70.3078 218.007 71.1077 220.297 71.1919H220.3Z" fill="#121212"/>
<path d="M163.762 39.2791C165.045 39.3114 166.646 40.0919 167.786 41.6883C169.571 44.1883 168.256 47.3295 165.217 47.8508C163.59 48.1293 162.074 47.8022 160.704 46.8696C158.979 45.6941 158.174 43.6896 158.733 41.9863C159.285 40.3024 160.95 39.2661 163.762 39.2823V39.2791ZM164.107 46.7498C165.717 46.7304 166.945 45.9499 167.331 44.7615C167.682 43.6734 167.156 42.3004 166.013 41.4228C164.769 40.4675 163.363 40.134 161.84 40.5323C159.863 41.0472 159.113 43.0549 160.272 44.7388C161.204 46.0957 162.567 46.6947 164.11 46.7498H164.107Z" fill="#121212"/>
<path d="M155.232 5.38028C156.083 5.38676 157.109 5.90813 158.064 6.59465C158.398 6.83428 158.697 7.15487 158.56 7.61147C158.424 8.06807 157.986 8.16522 157.586 8.21055C156.229 8.36599 154.976 8.01302 153.807 7.35241C153.362 7.09982 152.927 6.74685 153.063 6.15424C153.199 5.56163 153.768 5.49363 154.258 5.38676C154.453 5.34466 154.661 5.38028 155.232 5.38028Z" fill="#FCF6F5"/>
<path d="M223.758 287.683C218.939 287.544 214.289 286.789 210.13 284.173C209.27 283.632 208.474 282.984 207.656 282.379C207.243 282.071 206.727 281.712 207.208 281.161C207.607 280.705 208.039 281.067 208.393 281.382C211.312 283.966 214.78 285.326 218.579 285.977C222.654 286.676 226.713 286.475 230.755 285.756C239.269 284.238 247.026 280.782 254.423 276.45C264.859 270.339 274 262.625 282.228 253.82C286.585 249.157 290.57 244.183 294.19 238.924C294.447 238.552 294.619 238.095 295.067 237.891C295.31 237.781 295.567 237.791 295.771 238.001C295.931 238.166 295.957 238.374 295.856 238.562C295.69 238.876 295.502 239.18 295.301 239.475C291.946 244.355 288.261 248.976 284.287 253.37C276.581 261.893 267.973 269.364 258.268 275.543C250.342 280.588 241.958 284.623 232.7 286.637C229.749 287.278 226.758 287.593 223.751 287.686L223.758 287.683Z" fill="#121212"/>
<path d="M135.749 11.3196C136.49 11.3196 136.684 11.8377 136.759 12.4271C136.895 13.486 136.561 14.4445 136.048 15.3448C135.33 16.6077 134.304 17.6019 133.155 18.4665C130.294 20.6135 127.07 21.9606 123.599 22.754C123.352 22.8091 123.089 22.7961 122.894 22.9969C120.472 23.4017 118.04 23.664 115.582 23.4308C113.832 23.2624 112.153 22.8738 110.711 21.8052C109.721 21.0733 109.078 20.1277 109.081 18.8454C109.081 18.5345 109.117 18.2074 109.503 18.133C109.961 18.0455 110.162 18.324 110.205 18.7288C110.409 20.6394 111.841 21.3259 113.387 21.8117C115.773 22.5597 118.228 22.482 120.67 22.1387C124.394 21.6109 127.908 20.4419 131.116 18.4471C132.246 17.7444 133.294 16.9315 134.168 15.918C135.093 14.8461 135.782 13.6835 135.519 12.181C135.463 11.8669 135.535 11.5754 135.746 11.3261L135.749 11.3196Z" fill="#121212"/>
<path d="M113.728 14.2067C112.67 14.1775 112.342 13.6076 112.91 12.8045C114.28 10.868 116.225 9.71191 118.466 9.06101C119.086 8.8829 119.956 8.38421 120.391 9.23588C120.771 9.98069 120.096 10.5668 119.573 11.0299C118.04 12.39 116.323 13.4521 114.355 14.0739C114.115 14.1484 113.861 14.1775 113.728 14.2067Z" fill="#FCF6F5"/>
<path d="M134.156 279.514C133.945 284.11 131.822 288.76 127.795 292.532C126.48 293.766 124.944 294.666 123.236 295.272C119.694 296.525 116.109 295.126 114.43 291.778C113.245 289.417 113.037 286.898 113.433 284.327C114.307 278.673 116.921 274.061 121.73 270.8C122.97 269.958 124.344 269.456 125.85 269.281C128.86 268.928 131.406 270.208 132.89 272.853C133.893 274.644 134.179 276.59 134.156 279.518V279.514ZM118.58 284.375C118.885 284.359 119.194 284.359 119.496 284.327C119.749 284.301 119.999 284.249 120.246 284.184C125.178 282.899 128.776 279.948 130.984 275.389C132.046 273.2 132.156 272.986 129.851 271.228C128.724 270.366 127.334 270.136 125.918 270.405C125.068 270.567 124.233 270.82 123.457 271.215C118.869 273.556 116.417 277.523 114.995 282.277C114.82 282.863 115.037 283.248 115.528 283.556C116.463 284.142 117.473 284.433 118.58 284.372V284.375Z" fill="#121212"/>
<path d="M162.463 111.881C164.227 114.268 166.464 115.832 169.032 116.949C169.529 117.166 169.604 117.406 169.363 117.882C168.759 119.067 168.324 120.314 168.087 121.629C167.094 127.195 169.941 131.356 174.133 133.766C177.4 135.644 180.991 136.463 184.699 136.522C193.716 136.671 201.805 133.999 208.737 128.147C211.104 126.149 212.994 123.756 214.244 120.897C216.446 115.868 215.456 111.124 211.4 107.425C210.465 106.574 210.4 106.626 211.173 105.622C212.881 103.404 213.978 100.907 214.404 98.1866C214.913 97.9178 215.274 98.1899 215.637 98.3129C218.956 99.4269 222.067 100.952 224.755 103.216C231.399 108.805 233.613 115.826 231.369 124.193C230.019 129.235 227.236 133.484 223.697 137.25C217.212 144.148 209.237 148.659 200.282 151.518C194.158 153.474 187.865 154.468 181.423 154.235C174.799 153.995 168.451 152.648 162.73 149.119C158.135 146.285 154.778 142.451 153.268 137.176C151.982 132.681 152.498 128.293 154.125 123.993C155.81 119.533 158.525 115.735 161.853 112.354C161.993 112.212 162.168 112.105 162.463 111.878V111.881Z" fill="#FA4616"/>
<path d="M196.931 85.1899C197.12 85.2061 197.308 85.2223 197.496 85.2385C197.63 85.9833 198.334 85.8861 198.802 86.061C200.919 86.8544 202.818 87.9781 204.302 89.6814C205.289 90.8116 206.303 91.9903 206.111 93.6775C205.598 94.0013 205.751 94.4838 205.864 94.9113C206.173 96.0803 205.819 97.123 205.312 98.1398C204.783 99.202 204.023 100.093 203.182 100.918C201.792 102.288 200.218 103.418 198.516 104.357C192.077 107.907 185.19 109.681 177.816 109.325C175.774 109.228 173.767 108.826 171.916 107.868C170.341 107.052 169.153 105.951 168.997 104.056C168.987 103.956 168.984 103.852 168.955 103.755C168.877 103.496 168.724 103.289 168.432 103.289C168.068 103.289 167.864 103.538 167.831 103.859C167.802 104.157 167.848 104.467 167.903 104.765C168.179 106.317 169.088 107.443 170.344 108.321C171.533 109.15 172.874 109.62 174.267 109.976C176.767 110.614 179.319 110.585 181.872 110.575C181.751 110.996 181.401 111.232 181.096 111.488C180.069 112.34 179.621 113.451 179.28 114.717C179.008 115.733 179.644 116.572 179.479 117.534C179.021 117.599 178.576 117.66 178.131 117.725C174.666 117.602 171.377 116.799 168.283 115.225C167.094 114.62 165.997 113.884 165.029 112.965C161.951 110.031 161.11 106.514 162.379 102.502C163.211 99.8756 164.782 97.6833 166.698 95.737C170.796 91.5758 175.803 88.914 181.29 87.094C184.541 86.0157 187.869 85.2741 191.314 85.1543C193.058 85.3583 194.831 85.0215 196.568 85.4263C196.662 85.449 196.805 85.2774 196.925 85.1932L196.931 85.1899ZM172.627 97.4469C172.942 97.5116 173.426 97.3465 173.907 97.1651C176.319 96.2519 178.485 94.9598 180.281 93.0816C180.816 92.5214 181.209 91.9288 180.839 91.1872C180.459 90.4262 179.677 90.7598 179.047 90.7112C178.998 90.708 178.943 90.7177 178.894 90.7306C176.196 91.4916 173.858 92.8841 171.819 94.785C171.637 94.9534 171.53 95.1995 171.377 95.4035C171.039 95.8569 170.646 96.3167 170.932 96.9223C171.234 97.5667 171.867 97.4145 172.627 97.4436V97.4469Z" fill="#D0E6EC"/>
<path d="M178.143 117.722C178.587 117.661 179.032 117.596 179.49 117.531C179.656 116.569 179.016 115.73 179.292 114.714C179.633 113.444 180.078 112.334 181.107 111.485C181.412 111.232 181.763 110.996 181.883 110.572C182.386 110.494 182.887 110.394 183.393 110.345C187.543 109.953 191.511 108.869 195.339 107.249C198.125 106.071 200.752 104.613 203.064 102.648C204.512 101.414 205.778 100.028 206.58 98.2728C207.103 97.1265 207.292 95.9445 207.048 94.6978C206.944 94.1634 206.762 93.7133 206.119 93.6712C206.311 91.9841 205.298 90.8053 204.311 89.6752C202.824 87.9718 200.924 86.8481 198.81 86.0548C198.339 85.8799 197.635 85.977 197.505 85.2322C199.067 84.9796 200.541 85.4654 202.022 85.8022C204.532 86.3721 206.869 87.363 208.944 88.9109C213.013 91.9484 214.269 96.4108 212.38 101.113C211.513 103.27 210.188 105.132 208.587 106.799C204.837 110.705 200.258 113.302 195.225 115.173C190.248 117.026 185.091 117.871 179.789 117.913C179.237 117.916 178.662 118.007 178.143 117.716V117.722Z" fill="#859295"/>
<path d="M191.323 127.659C192.989 127.219 194.68 126.882 196.291 126.225C199.025 125.111 201.476 123.589 203.454 121.38C205.279 119.347 206.467 117.035 206.418 114.217C206.402 113.34 206.214 112.498 205.892 111.691C205.688 111.18 205.811 110.862 206.233 110.516C207.182 109.742 208.12 108.949 208.98 108.081C209.49 107.569 209.805 107.572 210.367 108.013C213.718 110.642 215.007 114.975 213.624 119.149C212.773 121.717 211.296 123.9 209.419 125.817C204.999 130.328 199.551 132.964 193.476 134.418C192.29 134.703 191.099 135.01 189.862 135.01C188.884 133.058 189.293 131.234 190.362 129.457C190.625 129.019 190.927 128.631 191.277 128.271C191.466 128.077 191.605 127.889 191.326 127.659H191.323Z" fill="#859295"/>
<path d="M191.327 127.656C191.607 127.883 191.467 128.074 191.279 128.268C190.928 128.627 190.626 129.016 190.363 129.453C189.295 131.231 188.886 133.054 189.863 135.007C185.268 135.745 180.804 135.302 176.485 133.546C174.566 132.766 172.874 131.642 171.507 130.075C168.257 126.348 168.588 121.879 170.572 118.096C170.77 117.718 171.024 117.604 171.446 117.763C171.871 117.925 172.319 118.077 172.767 118.135C174.352 118.343 175.469 118.696 175.651 120.765C175.829 122.792 177.381 124.288 179.083 125.438C181.904 127.345 185.087 127.902 188.421 127.824C189.392 127.802 190.36 127.714 191.327 127.656Z" fill="#D0E6EC"/>
<path d="M197.235 124.349C192.196 127.005 186.961 127.533 181.626 125.46C178.769 124.353 176.778 122.325 176.457 119.065C176.964 118.686 177.49 118.87 177.967 118.909C183.539 119.375 188.929 118.478 194.212 116.772C194.985 116.522 195.764 116.286 196.54 116.043C197.686 116.296 198.638 117.41 198.758 118.682C198.917 120.327 198.641 121.882 197.735 123.294C197.524 123.624 197.177 123.893 197.235 124.353V124.349Z" fill="#D0E6EC"/>
<path d="M197.231 124.35C197.173 123.89 197.52 123.624 197.731 123.291C198.637 121.879 198.91 120.324 198.754 118.679C198.63 117.407 197.682 116.296 196.536 116.04C197.832 115.324 199.212 114.878 200.679 114.654C201.504 114.531 202.3 114.58 203.082 114.855C204.495 115.354 205.024 116.513 204.401 117.88C203.784 119.233 202.874 120.396 201.777 121.396C200.426 122.624 199.017 123.773 197.234 124.346L197.231 124.35Z" fill="#859295"/>
<path d="M196.94 85.1913C196.82 85.2722 196.677 85.4471 196.583 85.4244C194.846 85.0196 193.073 85.3564 191.329 85.1524C193.203 84.7897 195.073 84.7703 196.94 85.1913Z" fill="#859295"/>
<path d="M103.394 118.26C96.9553 118.273 90.7988 117.085 85.1262 113.911C81.0576 111.635 77.7943 108.536 75.8396 104.254C73.4368 98.9987 73.6413 93.6685 75.6805 88.3545C77.7846 82.8785 81.3726 78.4777 85.8471 74.786C93.6952 68.3094 102.761 64.6178 112.853 63.4261C119.38 62.6554 125.805 63.0699 132.043 65.3043C134.754 66.2758 137.287 67.5808 139.583 69.3263C147.061 75.0095 149.587 83.6751 146.34 92.4962C144.181 98.364 140.375 103.03 135.566 106.907C127.689 113.257 118.646 116.842 108.596 117.982C106.862 118.179 105.135 118.257 103.394 118.26ZM102.959 111.197C105.096 111.152 107.333 110.964 109.554 110.608C118.003 109.248 125.624 106.013 132.186 100.485C135.949 97.3148 138.998 93.5746 140.586 88.8435C142.888 81.9912 140.986 75.5859 135.05 71.253C133.306 69.9804 131.394 69.0251 129.358 68.3127C124.247 66.5251 118.993 66.1819 113.645 66.7648C104.859 67.7201 96.9131 70.7867 89.9189 76.2011C86.1555 79.1156 83.0124 82.5871 81.0641 86.9685C78.5996 92.5157 78.5834 97.9431 82.3662 103.008C84.3404 105.65 86.9998 107.428 89.9968 108.73C94.0914 110.511 98.4197 111.103 102.956 111.201L102.959 111.197Z" fill="#FA4616"/>
<path d="M188.648 70.5978C184.163 70.5752 179.975 69.6231 176.107 67.4405C174.039 66.2715 172.237 64.7851 170.837 62.8518C167.879 58.7716 167.977 54.0987 171.078 50.1318C172.519 48.286 174.318 46.8514 176.419 45.8767C184.673 42.0588 192.827 42.3372 200.792 46.7446C202.639 47.7679 204.191 49.1798 205.451 50.8863C208.643 55.203 208.399 60.313 204.815 64.322C202.649 66.7443 199.912 68.2695 196.866 69.2993C194.181 70.2093 191.411 70.5914 188.651 70.5978H188.648ZM186.738 45.0963C184.566 44.9959 182.228 45.4784 179.955 46.3042C177.913 47.0457 176.081 48.1306 174.591 49.7368C171.789 52.7548 171.568 56.7606 174.023 60.0702C175.458 62.0067 177.367 63.357 179.543 64.3188C183.725 66.1614 188.083 66.6406 192.57 65.7793C195.69 65.1802 198.538 63.995 200.792 61.6763C203.847 58.5287 204.032 54.2963 201.288 50.8734C200.022 49.2931 198.431 48.1144 196.626 47.2238C193.596 45.7277 190.381 45.0412 186.738 45.0995V45.0963Z" fill="#DBF505"/>
<path d="M305.218 109.656C303.682 106.803 304.101 104.034 305.711 101.401C307.238 98.911 309.566 97.321 312.271 96.3754C319.021 94.0212 325.528 94.685 331.707 98.2763C333.344 99.2284 334.828 100.397 335.883 102.017C335.87 102.175 335.935 102.289 336.091 102.337C336.169 102.395 336.214 102.473 336.231 102.57C336.156 103.218 336.179 103.856 336.351 104.497C336.65 105.608 336.318 106.628 335.809 107.609C335.117 107.373 334.968 107.797 334.825 108.344C334.318 110.264 333.107 111.667 331.49 112.761C330.295 113.571 328.993 114.141 327.613 114.549C324.921 115.339 322.181 115.423 319.411 115.119C318.911 115.064 318.385 114.869 318.057 115.465C317.703 115.689 317.359 115.779 316.914 115.663C313.612 114.805 310.481 113.623 307.731 111.508C306.913 110.88 306.354 109.86 305.218 109.656ZM311.917 98.626C310.783 98.7717 309.741 99.4388 308.913 100.452C308.653 100.77 308.475 101.165 308.783 101.563C309.062 101.929 309.465 101.994 309.884 101.887C311.043 101.589 312.046 101.019 312.819 100.096C313.082 99.7821 313.29 99.4162 313.053 98.9887C312.849 98.6163 312.475 98.6325 311.917 98.6293V98.626Z" fill="#DBF505"/>
<path d="M335.799 107.612C336.308 106.63 336.64 105.61 336.341 104.5C336.169 103.858 336.146 103.224 336.221 102.573C338.74 105.542 338.831 109.778 336.873 112.803C335.679 114.648 334.084 116.057 332.133 117.029C326.405 119.881 320.521 119.846 314.595 117.773C311.257 116.608 308.354 114.742 306.263 111.812C305.799 111.161 305.253 110.523 305.208 109.655C306.344 109.859 306.903 110.879 307.721 111.507C310.472 113.622 313.602 114.804 316.904 115.662C317.349 115.779 317.693 115.688 318.047 115.464C318.167 116.216 318.82 116.238 319.339 116.293C323.258 116.698 327.09 116.41 330.675 114.616C332.824 113.541 334.594 112.042 335.578 109.784C335.877 109.095 336.224 108.382 335.795 107.608L335.799 107.612Z" fill="#A1B700"/>
<path d="M336.077 102.335C335.921 102.287 335.86 102.179 335.873 102.02C336.03 102.068 336.122 102.157 336.077 102.335Z" fill="#A1B700"/>
<path d="M323.462 71.737C323.621 72.2292 323.65 72.7376 323.631 73.2493C323.446 73.3594 323.371 73.5375 323.3 73.735C322.715 75.3315 321.9 76.7952 320.608 77.9318C316.789 81.2899 312.344 83.2297 307.259 83.6668C306.863 83.7025 306.428 83.5956 306.129 83.9777C305.72 83.9486 305.314 83.9227 304.905 83.8935C304.629 83.5989 304.295 83.6086 303.944 83.7025C300.028 82.9706 296.57 81.3418 293.849 78.3949C291.774 76.1475 290.712 73.5213 291.41 70.419C291.927 68.123 293.332 66.4003 295.203 65.0499C298.054 62.9903 301.291 62.061 304.782 61.8667C309.6 61.5979 314.123 62.524 318.208 65.16C320.566 66.682 322.488 68.612 323.332 71.3937C323.287 71.5427 323.322 71.6625 323.465 71.7402L323.462 71.737ZM298.421 68.421C300.573 68.34 302.415 67.6697 304.074 66.5136C304.684 66.0862 305.444 65.581 305.129 64.6872C304.824 63.8161 303.915 63.9165 303.171 63.8291C303.022 63.8129 302.866 63.8226 302.713 63.8388C300.866 64.0363 299.135 64.5836 297.589 65.6231C296.924 66.0732 296.079 66.5687 296.339 67.5142C296.638 68.5991 297.703 68.3335 298.421 68.4177V68.421Z" fill="#DBF505"/>
<path d="M306.124 83.9758C306.422 83.5937 306.854 83.6973 307.254 83.6649C312.338 83.2277 316.78 81.288 320.602 77.9299C321.895 76.7932 322.71 75.3295 323.294 73.7331C323.365 73.5355 323.437 73.3574 323.625 73.2473C324.096 74.2706 323.654 75.2389 323.372 76.1812C322.664 78.5354 321.07 80.242 319.021 81.492C315.189 83.8333 310.971 84.5231 306.546 84.1474C306.403 84.1345 306.266 84.0373 306.127 83.979L306.124 83.9758Z" fill="#A1B700"/>
<path d="M303.944 83.7048C304.298 83.6108 304.633 83.6011 304.905 83.8958C304.555 83.98 304.227 83.9509 303.944 83.7048Z" fill="#A1B700"/>
<path d="M323.452 71.7368C323.313 71.6595 323.274 71.5402 323.319 71.3918C323.452 71.4725 323.523 71.5789 323.452 71.7368Z" fill="#A1B700"/>
<path d="M284.537 110.902C284.576 111.099 284.612 111.3 284.651 111.497C284.479 111.624 284.407 111.802 284.365 112.009C283.888 114.499 282.401 116.293 280.384 117.718C279.998 117.99 279.612 118.223 279.131 117.929C278.78 117.556 278.43 117.679 278.04 117.893C275.225 119.441 272.208 120.127 268.997 119.933C268.442 119.901 268.12 120.095 268.084 120.671C266.867 120.723 265.665 120.642 264.464 120.377C260.21 119.428 256.353 117.815 253.628 114.201C253.499 114.03 253.323 113.946 253.112 113.926C252.466 112.776 252.664 111.549 252.908 110.37C253.391 108.013 254.791 106.225 256.69 104.807C258.95 103.117 261.538 102.171 264.302 101.802C269.127 101.157 273.78 101.773 278.108 104.117C280.852 105.604 283.193 107.521 284.381 110.539C284.336 110.701 284.381 110.824 284.537 110.905V110.902ZM258.752 108C260.116 107.851 261.308 107.343 262.243 106.323C262.597 105.937 262.857 105.481 262.59 104.94C262.327 104.402 261.772 104.295 261.282 104.344C259.921 104.47 258.736 105.031 257.814 106.057C257.505 106.4 257.268 106.821 257.48 107.31C257.717 107.854 258.243 107.926 258.752 108Z" fill="#DBF505"/>
<path d="M253.114 113.928C253.325 113.948 253.501 114.032 253.631 114.204C256.352 117.818 260.212 119.43 264.466 120.379C265.667 120.648 266.869 120.726 268.086 120.674C268.548 121.16 269.165 121.24 269.765 121.224C272.727 121.137 275.571 120.544 278.227 119.187C278.734 118.928 279.195 118.611 279.13 117.934C279.61 118.229 279.997 117.996 280.383 117.724C282.4 116.299 283.887 114.505 284.364 112.015C284.403 111.804 284.474 111.629 284.65 111.503C285.624 113.695 285.114 115.768 284.046 117.743C282.971 119.731 281.266 121.101 279.289 122.128C275.24 124.236 270.908 124.569 266.495 123.886C262.274 123.232 258.465 121.61 255.507 118.4C254.335 117.128 253.293 115.748 253.114 113.928Z" fill="#A1B700"/>
<path d="M284.528 110.904C284.377 110.827 284.331 110.701 284.373 110.54C284.522 110.62 284.6 110.73 284.528 110.904Z" fill="#A1B700"/>
<path d="M256.113 88.8868C255.811 88.8156 255.509 88.7444 255.204 88.6699C255.136 88.5371 255.029 88.5047 254.892 88.5533C251.895 87.7696 249.356 86.2217 247.379 83.8513C244.164 79.9977 244.804 75.5095 248.937 72.6565C251.769 70.7006 254.99 70.0594 258.36 70.0497C262.107 70.0367 265.611 70.9758 268.881 72.8087C269.774 73.3107 270.621 73.8774 271.361 74.5801C273.888 76.9829 275.57 79.6674 274.164 83.3267C273.488 83.4562 273.319 84.1492 272.829 84.5054C269.725 86.7496 266.277 88.1226 262.474 88.5209C260.581 88.7185 258.669 89.1913 256.75 88.5889C256.503 88.5112 256.253 88.631 256.113 88.8868ZM250.889 76.5295C253.1 76.2931 255.292 75.7264 257.198 74.334C257.707 73.9616 258.162 73.4952 257.98 72.8087C257.785 72.0801 257.123 72.0315 256.496 72.0121C254.071 71.9344 251.879 72.65 249.892 74.0004C249.314 74.3922 248.596 74.8715 248.843 75.6908C249.122 76.604 250.038 76.4583 250.885 76.5328L250.889 76.5295Z" fill="#DBF505"/>
<path d="M256.119 88.8905C256.258 88.6379 256.508 88.5181 256.755 88.5926C258.671 89.1916 260.583 88.7188 262.48 88.5245C266.282 88.1295 269.73 86.7532 272.835 84.5091C273.325 84.1528 273.497 83.4599 274.169 83.3303C273.916 84.7163 272.974 85.6425 271.974 86.4974C269.344 88.7383 266.165 89.5414 262.821 89.7389C260.551 89.8749 258.271 89.7907 256.119 88.8872V88.8905Z" fill="#A1B700"/>
<path d="M254.907 88.5561C255.041 88.5052 255.146 88.5402 255.213 88.6706C255.063 88.7565 254.971 88.6992 254.907 88.5561Z" fill="#A1B700"/>
<path d="M220.311 71.1912C218.022 71.1102 216.099 70.3104 214.7 68.4969C212.807 66.0455 213.781 63.0987 216.772 62.2632C219.463 61.5087 221.818 62.247 223.776 64.1641C224.974 65.3364 225.574 66.8098 224.977 68.4678C224.36 70.1776 222.915 70.8933 221.194 71.1264C220.892 71.1685 220.584 71.1718 220.314 71.1912H220.311Z" fill="#D0E6EC"/>
<path d="M164.124 46.7511C162.582 46.696 161.221 46.0937 160.286 44.7401C159.127 43.0562 159.877 41.0517 161.854 40.5335C163.38 40.1352 164.786 40.4688 166.027 41.4241C167.17 42.3016 167.696 43.6747 167.345 44.7627C166.962 45.9512 165.731 46.7316 164.121 46.7511H164.124Z" fill="#D0E6EC"/>
<path d="M118.581 284.379C117.474 284.44 116.464 284.145 115.529 283.563C115.038 283.258 114.821 282.87 114.996 282.283C116.418 277.53 118.87 273.559 123.458 271.221C124.234 270.826 125.069 270.574 125.919 270.412C127.335 270.143 128.725 270.373 129.851 271.234C132.157 272.993 132.046 273.206 130.985 275.396C128.777 279.955 125.179 282.902 120.247 284.191C120 284.256 119.75 284.304 119.497 284.333C119.195 284.366 118.886 284.369 118.581 284.382V284.379Z" fill="#859295"/>
<path d="M206.128 93.6741C206.771 93.7162 206.953 94.1631 207.057 94.7006C207.297 95.9441 207.112 97.1293 206.589 98.2757C205.787 100.031 204.521 101.417 203.073 102.651C200.761 104.62 198.134 106.074 195.348 107.252C191.519 108.871 187.552 109.956 183.402 110.348C182.895 110.397 182.395 110.497 181.892 110.575C179.34 110.584 176.788 110.614 174.287 109.976C172.894 109.623 171.553 109.15 170.365 108.321C169.105 107.443 168.199 106.316 167.923 104.765C167.871 104.467 167.822 104.156 167.852 103.859C167.884 103.538 168.089 103.289 168.452 103.289C168.745 103.289 168.897 103.496 168.975 103.755C169.004 103.852 169.011 103.956 169.017 104.056C169.173 105.95 170.362 107.051 171.936 107.868C173.787 108.826 175.791 109.224 177.836 109.325C185.214 109.681 192.097 107.906 198.536 104.357C200.238 103.418 201.813 102.288 203.202 100.918C204.043 100.092 204.803 99.1986 205.332 98.1397C205.839 97.1229 206.193 96.0801 205.884 94.9111C205.771 94.4836 205.618 94.0011 206.131 93.6773L206.128 93.6741Z" fill="#121212"/>
<path d="M172.641 97.4458C171.881 97.4135 171.248 97.5657 170.946 96.9245C170.66 96.3189 171.053 95.8591 171.391 95.4057C171.543 95.2017 171.65 94.9556 171.832 94.7872C173.871 92.8863 176.209 91.4906 178.908 90.7329C178.956 90.7199 179.008 90.7102 179.06 90.7134C179.69 90.762 180.473 90.4285 180.853 91.1895C181.223 91.931 180.833 92.5236 180.294 93.0839C178.495 94.9621 176.333 96.2542 173.92 97.1674C173.44 97.3487 172.956 97.5139 172.641 97.4491V97.4458Z" fill="#FCF6F5"/>
<path d="M102.958 111.199C98.4214 111.098 94.0931 110.509 89.9985 108.728C87.0015 107.426 84.3421 105.648 82.3679 103.006C78.5851 97.9413 78.6013 92.5139 81.0658 86.9667C83.0108 82.5853 86.1572 79.1138 89.9206 76.1994C96.9148 70.7849 104.86 67.715 113.647 66.763C118.995 66.1833 124.249 66.5266 129.36 68.3109C131.395 69.0233 133.308 69.9754 135.052 71.2512C140.987 75.5841 142.89 81.9894 140.588 88.8417C139 93.5728 135.948 97.313 132.188 100.483C125.625 106.014 118.005 109.246 109.556 110.606C107.335 110.962 105.097 111.15 102.961 111.196L102.958 111.199ZM81.3581 98.3137C81.2737 98.8609 81.5984 99.2884 81.8062 99.7385C83.2381 102.815 85.6117 104.981 88.5309 106.617C92.83 109.019 97.5285 109.891 102.373 109.926C108.569 109.975 114.53 108.705 120.242 106.299C125.57 104.055 130.356 101.005 134.298 96.7366C136.714 94.1233 138.659 91.2121 139.646 87.7601C140.318 85.4058 140.734 83.0127 139.935 80.584C139.5 79.7259 139.585 78.7317 139.159 77.8574C137.805 75.0595 135.727 72.9513 133.087 71.3581C129.148 68.9812 124.81 67.9611 120.264 67.7247C114.166 67.4074 108.257 68.3853 102.552 70.5259C96.2524 72.8898 90.6252 76.2965 86.1248 81.3741C84.0759 83.6863 82.4361 86.2478 81.4555 89.1914C80.4457 92.216 80.1696 95.2567 81.3516 98.3104L81.3581 98.3137Z" fill="#121212"/>
<path d="M186.74 45.0911C190.38 45.0328 193.594 45.7193 196.627 47.2154C198.432 48.1059 200.023 49.2847 201.29 50.8649C204.033 54.2878 203.848 58.5235 200.793 61.6679C198.539 63.9865 195.692 65.1717 192.571 65.7708C188.084 66.6322 183.723 66.1529 179.544 64.3103C177.369 63.3518 175.459 61.9982 174.024 60.0617C171.566 56.7522 171.787 52.7432 174.592 49.7283C176.083 48.1254 177.914 47.0405 179.956 46.2957C182.229 45.4699 184.567 44.9874 186.74 45.0878V45.0911ZM186.759 46.2439C185.853 46.1888 184.434 46.3475 183.028 46.6357C180.177 47.2219 177.554 48.2873 175.514 50.4504C172.991 53.1253 172.839 56.5611 175.076 59.4788C176.183 60.9198 177.583 62.0241 179.203 62.8175C184.405 65.3693 189.763 65.7061 195.237 63.7922C197.189 63.1089 198.926 62.0565 200.293 60.473C202.459 57.9633 202.644 54.9096 200.796 52.1667C199.929 50.8779 198.789 49.8676 197.478 49.045C194.364 47.0956 190.941 46.2666 186.759 46.2471V46.2439Z" fill="#121212"/>
<path d="M335.811 107.614C336.24 108.388 335.892 109.104 335.593 109.79C334.61 112.047 332.837 113.547 330.69 114.622C327.102 116.419 323.271 116.707 319.355 116.299C318.835 116.244 318.183 116.221 318.062 115.47C318.39 114.874 318.916 115.069 319.417 115.124C322.183 115.428 324.927 115.344 327.619 114.554C328.999 114.149 330.301 113.576 331.496 112.766C333.113 111.672 334.324 110.266 334.83 108.349C334.973 107.802 335.123 107.378 335.814 107.614H335.811Z" fill="#121212"/>
<path d="M311.915 98.628C312.474 98.6312 312.847 98.615 313.052 98.9875C313.289 99.4149 313.081 99.7808 312.818 100.095C312.045 101.018 311.042 101.588 309.882 101.886C309.463 101.993 309.064 101.928 308.782 101.562C308.473 101.16 308.652 100.765 308.911 100.451C309.739 99.4376 310.782 98.7705 311.915 98.6248V98.628Z" fill="#FCF6F5"/>
<path d="M298.427 68.4244C297.709 68.3369 296.648 68.6057 296.346 67.5209C296.086 66.5753 296.93 66.0766 297.596 65.6297C299.141 64.5902 300.872 64.0397 302.72 63.8454C302.872 63.8292 303.025 63.8195 303.177 63.8357C303.921 63.9199 304.83 63.8228 305.135 64.6939C305.447 65.5876 304.691 66.096 304.08 66.5203C302.424 67.6763 300.58 68.3434 298.427 68.4276V68.4244Z" fill="#FCF6F5"/>
<path d="M279.12 117.935C279.182 118.615 278.724 118.93 278.218 119.189C275.562 120.545 272.717 121.138 269.756 121.226C269.155 121.242 268.538 121.161 268.077 120.675C268.113 120.099 268.438 119.904 268.99 119.937C272.201 120.131 275.217 119.444 278.033 117.897C278.419 117.683 278.77 117.56 279.124 117.932L279.12 117.935Z" fill="#121212"/>
<path d="M258.739 107.999C258.23 107.925 257.704 107.853 257.467 107.309C257.256 106.824 257.493 106.399 257.801 106.056C258.723 105.03 259.908 104.469 261.269 104.343C261.759 104.298 262.315 104.401 262.578 104.939C262.844 105.48 262.581 105.936 262.23 106.322C261.295 107.342 260.103 107.85 258.739 107.999Z" fill="#FCF6F5"/>
<path d="M250.901 76.5339C250.053 76.4595 249.138 76.6052 248.858 75.692C248.608 74.8727 249.326 74.3934 249.907 74.0016C251.894 72.6545 254.086 71.9356 256.512 72.0133C257.138 72.0327 257.801 72.0813 257.996 72.8099C258.181 73.4964 257.723 73.9627 257.213 74.3351C255.307 75.7276 253.115 76.2943 250.904 76.5307L250.901 76.5339Z" fill="#FCF6F5"/>
<path d="M81.3571 98.309C80.1752 95.2553 80.4512 92.2146 81.461 89.19C82.4417 86.2464 84.0847 83.6817 86.1303 81.3728C90.6308 76.2919 96.2579 72.8884 102.557 70.5245C108.262 68.384 114.172 67.406 120.27 67.7234C124.813 67.9598 129.151 68.9798 133.093 71.3567C135.729 72.9467 137.811 75.0581 139.165 77.856C139.587 78.7303 139.506 79.7245 139.941 80.5826C139.551 80.7899 139.58 81.159 139.574 81.5152C139.554 82.5385 139.301 83.523 139.002 84.4912C137.525 89.2483 134.655 93.0954 130.937 96.3045C127.696 99.1024 124.092 101.389 120.163 103.147C113.724 106.026 107.045 107.609 99.9304 107.276C97.3165 107.153 94.7838 106.81 92.2868 106.052C88.0688 104.769 84.4711 102.645 82.091 98.798C81.9254 98.5293 81.7078 98.3252 81.3636 98.3123L81.3571 98.309ZM109.155 98.1698C105.398 98.1795 101.668 99.1413 99.0731 100.702C98.151 101.256 97.2938 101.894 96.5924 102.72C96.3521 103.001 96.1216 103.335 96.4268 103.668C96.8067 104.086 97.1671 103.817 97.4593 103.503C98.1607 102.752 98.94 102.085 99.8622 101.632C105.103 99.0571 110.422 98.3252 115.864 101.032C116 101.1 116.136 101.168 116.279 101.23C116.555 101.35 116.783 101.243 116.948 101.029C117.137 100.79 117.049 100.54 116.867 100.343C116.516 99.9573 116.042 99.7533 115.584 99.5299C113.471 98.5033 111.198 98.2572 109.155 98.173V98.1698ZM126.433 93.5034C126.433 93.8791 126.426 93.9309 126.433 93.9827C126.491 94.5105 126.3 95.2974 127.06 95.3233C127.956 95.3492 127.573 94.517 127.618 94.0345C128.092 89.1544 130.287 85.3688 134.651 82.9466C134.872 82.8235 135.125 82.7458 135.33 82.6001C135.544 82.4446 135.661 82.2082 135.541 81.9362C135.427 81.6739 135.203 81.5412 134.927 81.5962C134.32 81.716 133.768 81.988 133.258 82.3248C129.112 85.0547 126.946 88.9601 126.43 93.5099L126.433 93.5034ZM113.094 75.3722C115.188 75.2912 117.208 75.0484 119.163 74.4363C120.332 74.0704 121.458 73.5911 122.446 72.8528C122.728 72.6423 123.053 72.3735 122.812 71.9688C122.533 71.4992 122.124 71.619 121.76 71.8684C120.955 72.4189 120.088 72.8496 119.169 73.1507C115.594 74.3165 111.987 74.5108 108.344 73.4746C108.051 73.3904 107.766 73.2803 107.467 73.2317C107.204 73.1896 106.957 73.2803 106.84 73.549C106.72 73.8211 106.811 74.0737 107.048 74.2064C107.353 74.3781 107.691 74.5043 108.025 74.6112C109.688 75.1488 111.412 75.2912 113.094 75.3754V75.3722ZM96.5761 79.8993C96.5989 79.501 96.6248 79.0865 96.1768 78.9894C95.6572 78.8793 95.4786 79.2582 95.3877 79.6986C95.2968 80.1454 95.2091 80.5988 95.0727 81.0327C93.7577 85.2425 91.5854 88.8241 87.6142 91.0715C87.5688 91.0974 87.5266 91.12 87.4811 91.1492C87.1694 91.3435 86.8317 91.5637 87.0298 91.9879C87.27 92.5028 87.7214 92.3376 88.0851 92.166C88.9163 91.7709 89.6761 91.2496 90.371 90.6505C93.3616 88.0728 95.2643 84.828 96.3001 81.0522C96.4073 80.6603 96.4885 80.262 96.5761 79.8993Z" fill="#DBF505"/>
<path d="M81.3692 98.3122C81.7101 98.3251 81.9277 98.5291 82.0965 98.7979C84.4734 102.642 88.0711 104.769 92.2923 106.052C94.7893 106.809 97.322 107.153 99.9359 107.276C107.05 107.609 113.729 106.026 120.168 103.147C124.101 101.389 127.702 99.1023 130.942 96.3044C134.66 93.0953 137.53 89.2482 139.008 84.4911C139.307 83.5261 139.563 82.5417 139.579 81.5151C139.586 81.1589 139.56 80.7898 139.946 80.5825C140.742 83.0112 140.329 85.4043 139.657 87.7586C138.67 91.2106 136.725 94.1218 134.309 96.7351C130.364 101.003 125.581 104.054 120.253 106.298C114.541 108.704 108.58 109.973 102.384 109.925C97.5396 109.886 92.8443 109.018 88.542 106.615C85.6228 104.983 83.246 102.817 81.8173 99.737C81.6062 99.2869 81.2815 98.8595 81.3692 98.3122Z" fill="#A1B700"/>
<path d="M186.76 46.2485C190.942 46.2679 194.364 47.0969 197.478 49.0463C198.79 49.8689 199.93 50.8792 200.797 52.1681C202.644 54.9109 202.459 57.9646 200.293 60.4743C198.926 62.0578 197.189 63.1103 195.238 63.7935C189.763 65.7074 184.406 65.3738 179.204 62.8188C177.583 62.0222 176.181 60.9212 175.077 59.4801C172.839 56.5624 172.992 53.1266 175.515 50.4518C177.554 48.2886 180.178 47.2232 183.029 46.637C184.431 46.3488 185.854 46.1934 186.76 46.2452V46.2485ZM178.801 53.0715C181.204 53.0683 183.181 51.9608 185.061 50.6299C185.487 50.3287 185.717 49.8527 185.837 49.354C185.954 48.8618 185.815 48.4019 185.298 48.24C184.776 48.0781 184.188 47.8708 183.675 47.9583C181.496 48.3339 179.502 49.1921 177.794 50.6169C177.239 51.08 176.811 51.7179 177.074 52.4886C177.333 53.2464 178.064 53.0327 178.648 53.0683C178.7 53.0715 178.749 53.0683 178.801 53.0683V53.0715ZM189.12 47.5632C188.299 47.5373 187.737 47.7219 187.312 48.1979C187.117 48.4149 187.192 48.6739 187.377 48.8747C187.877 49.4155 188.471 49.7523 189.24 49.6454C189.387 49.626 189.526 49.5483 189.663 49.49C190.088 49.3022 190.523 49.0949 190.435 48.5282C190.357 48.0328 189.977 47.764 189.536 47.6118C189.351 47.547 189.14 47.5664 189.124 47.5664L189.12 47.5632Z" fill="#D0E6EC"/>
<path d="M109.156 98.17C111.199 98.2542 113.472 98.5003 115.586 99.5268C116.043 99.7503 116.518 99.9543 116.868 100.34C117.05 100.537 117.138 100.787 116.949 101.026C116.784 101.24 116.557 101.347 116.281 101.227C116.141 101.165 116.001 101.097 115.865 101.029C110.423 98.3189 105.101 99.054 99.8633 101.628C98.9412 102.082 98.1651 102.749 97.4605 103.5C97.165 103.814 96.8079 104.083 96.4279 103.665C96.1227 103.332 96.3533 102.998 96.5935 102.717C97.2949 101.894 98.1521 101.256 99.0743 100.699C101.669 99.1382 105.4 98.1765 109.156 98.1667V98.17Z" fill="#121212"/>
<path d="M126.437 93.5034C126.953 88.9536 129.119 85.0482 133.265 82.3183C133.775 81.9815 134.327 81.7095 134.934 81.5897C135.207 81.5346 135.434 81.6674 135.548 81.9297C135.665 82.205 135.548 82.4414 135.337 82.5936C135.132 82.7393 134.882 82.817 134.658 82.9401C130.294 85.3623 128.099 89.1479 127.625 94.028C127.579 94.5105 127.959 95.346 127.066 95.3168C126.303 95.2941 126.498 94.504 126.44 93.9762C126.433 93.9276 126.44 93.8758 126.44 93.4969L126.437 93.5034Z" fill="#121212"/>
<path d="M113.102 75.3789C111.42 75.2947 109.696 75.1522 108.033 74.6146C107.699 74.5078 107.361 74.3782 107.056 74.2098C106.819 74.0771 106.728 73.8245 106.848 73.5525C106.968 73.2837 107.212 73.193 107.475 73.2351C107.774 73.2837 108.059 73.397 108.352 73.478C111.995 74.5175 115.606 74.3199 119.177 73.1542C120.096 72.853 120.963 72.4223 121.769 71.8718C122.132 71.6224 122.541 71.5026 122.821 71.9722C123.061 72.377 122.736 72.649 122.454 72.8562C121.463 73.5946 120.34 74.0738 119.171 74.4398C117.213 75.0518 115.197 75.2947 113.102 75.3756V75.3789Z" fill="#121212"/>
<path d="M96.5847 79.9011C96.5003 80.2638 96.4158 80.6621 96.3087 81.054C95.2729 84.8298 93.3701 88.0778 90.3796 90.6523C89.6814 91.2546 88.9249 91.776 88.0936 92.1678C87.7299 92.3394 87.2754 92.5046 87.0383 91.9897C86.8435 91.5687 87.1779 91.3453 87.4897 91.151C87.5319 91.1251 87.5773 91.0992 87.6228 91.0733C91.5939 88.8226 93.7662 85.2443 95.0813 81.0345C95.2177 80.6006 95.3054 80.1472 95.3963 79.7004C95.4872 79.26 95.6658 78.8811 96.1853 78.9912C96.6334 79.0851 96.6074 79.4996 96.5847 79.9011Z" fill="#121212"/>
<path d="M178.809 53.0719C178.757 53.0719 178.708 53.0719 178.656 53.0719C178.069 53.033 177.341 53.25 177.081 52.4922C176.818 51.7215 177.247 51.0836 177.802 50.6205C179.51 49.1957 181.504 48.3375 183.683 47.9619C184.196 47.8744 184.783 48.0785 185.306 48.2436C185.823 48.4023 185.962 48.8621 185.845 49.3576C185.725 49.8563 185.495 50.3323 185.069 50.6335C183.189 51.9644 181.215 53.0719 178.809 53.0751V53.0719Z" fill="#FCF6F5"/>
<path d="M189.127 47.5596C189.127 47.5596 189.354 47.5401 189.54 47.6049C189.984 47.7571 190.364 48.0259 190.439 48.5213C190.527 49.0913 190.092 49.2953 189.666 49.4831C189.53 49.5446 189.39 49.6191 189.244 49.6385C188.474 49.7454 187.88 49.4086 187.38 48.8678C187.195 48.6671 187.117 48.4112 187.315 48.191C187.744 47.715 188.306 47.5304 189.124 47.5563L189.127 47.5596Z" fill="#FCF6F5"/>
</g>
<defs>
<clipPath id="clip0_432_2208">
<rect width="367.886" height="367.886" fill="white" transform="translate(0.922852 0.810303)"/>
</clipPath>
</defs>
</svg>
