<svg width="408" height="448" viewBox="0 0 408 448" fill="none" xmlns="http://www.w3.org/2000/svg">
<path d="M202.879 291.312C202.054 298.286 201.349 305.069 200.435 311.816C196.209 343.001 189.106 373.288 176.315 401.746C169.931 415.949 162.173 429.179 152.312 440.859C150.571 442.921 148.675 444.827 146.92 446.877C146.047 447.9 145.163 448.068 143.899 447.867C116.567 443.555 90.8116 433.853 66.0681 420.769C49.2149 411.859 33.2799 401.308 18.7544 388.348C12.71 382.956 7.03849 377.138 1.92387 370.697C0.596335 369.023 0.580423 368.81 1.79429 367.429C18.6294 348.275 30.8431 326.006 39.388 301.272C44.3844 286.807 47.8169 271.916 49.6854 256.584C50.6538 248.642 51.2312 240.665 51.1652 232.681C51.1107 225.878 50.9084 219.063 50.6606 212.255C50.3401 203.447 49.8263 194.633 50.0741 185.808C50.7447 162.024 55.707 139.498 66.9569 118.901C74.3084 105.438 83.817 94.1838 96.3331 86.1973C101.423 82.9493 106.853 80.4191 112.15 77.6093C146.581 59.3439 181.036 41.1306 215.474 22.885C226.206 17.1985 236.908 11.4451 247.64 5.76098C262.086 -1.89126 276.441 -1.13123 290.634 6.55814C300.773 12.0516 308.99 20.147 316.201 29.5198C325.409 41.492 332.379 54.9398 338.028 69.2317C344.361 85.2541 348.739 101.92 351.717 119.039C352.026 120.817 352.055 120.866 353.567 120.418C358.832 118.854 363.876 116.673 368.779 114.066C369.886 113.476 370.054 112.561 370.229 111.536C371.048 106.745 372.271 102.086 374.005 97.5927C375.094 94.7754 376.412 92.0918 378.117 89.6484C379.222 88.0664 380.459 86.6206 381.945 85.4497C385.805 82.4071 390.076 82.3898 393.952 85.415C396.462 87.3732 398.31 89.9776 399.842 92.8494C402.956 98.6795 404.793 105.02 405.993 111.595C408.91 127.6 408.712 143.528 404.9 159.348C403.784 163.982 402.211 168.436 399.912 172.55C398.367 175.318 396.562 177.853 394.036 179.661C390.542 182.161 386.96 182.287 383.352 179.975C381.159 178.571 379.481 176.559 378.026 174.318C374.655 169.127 372.673 163.267 371.296 157.159C370.893 155.379 370.264 154.377 368.511 153.943C364.817 153.025 361.112 152.25 357.343 151.876C355.456 151.691 355.379 151.757 355.506 153.805C355.954 160.969 355.986 168.144 355.781 175.313C355.011 202.377 350.948 228.713 340.749 253.628C335.78 265.761 329.428 276.926 320.624 286.264C313.628 293.689 305.599 299.217 296.049 301.928C290.246 303.574 284.37 303.592 278.466 303.035C272.815 302.5 267.173 301.856 261.527 301.267C252.491 300.321 243.491 299.034 234.512 297.605C225.235 296.13 215.988 294.466 206.825 292.278C205.513 291.963 204.204 291.634 202.883 291.31L202.879 291.312ZM204.829 262.421C204.69 265.219 205.079 267.972 205.472 270.715C206.209 275.862 207.507 280.823 209.921 285.371C211.258 287.891 212.908 290.112 215.129 291.798C216.079 292.52 217.086 293.006 218.225 293.221C234.087 296.212 250.024 298.611 266.048 300.304C266.587 300.361 267.164 300.584 267.687 300.22C267.562 299.564 267.116 299.531 266.807 299.395C258.856 295.887 251.95 290.641 245.694 284.326C236.851 275.401 229.843 264.924 223.835 253.601C221.453 249.112 219.409 244.436 217.204 239.851C217.111 239.544 217.045 239.225 216.922 238.933C212.726 228.891 209.266 218.555 206.504 207.945C205.4 203.697 204.415 199.409 203.306 194.856C203.038 196.648 203.306 198.116 203.39 199.587C203.595 203.115 203.856 206.64 204.049 210.168C204.418 216.902 204.581 223.645 204.761 230.389C204.972 238.371 204.993 246.345 204.763 254.326C204.686 257.02 204.349 259.73 204.831 262.424L204.829 262.421ZM255.262 143.434L255.237 143.528C255.334 152.975 257.314 161.957 261.074 170.444C263.936 176.9 267.789 182.547 273.199 186.795C281.083 192.987 290.796 193.024 298.05 186.813C304.158 181.582 307.742 174.568 309.89 166.572C310.059 166.027 310.259 165.492 310.393 164.938C312.843 154.805 312.911 144.6 311.029 134.371C309.574 126.464 306.94 119.057 302.691 112.4C298.941 106.522 294.287 101.836 287.966 99.4123C284.458 98.068 280.88 97.8452 277.255 98.7612C271.678 100.172 267.434 103.772 264.084 108.634C257.298 118.477 255.134 129.848 255.107 141.88C254.964 142.422 254.873 142.957 255.262 143.434ZM343.311 242.443C343.572 242.106 343.704 241.735 343.565 241.294C344.538 239.772 344.856 237.967 345.356 236.251C351.999 213.51 354.61 190.142 354.508 166.346C354.501 164.814 353.949 164.406 352.762 164.099C347.361 162.7 341.922 162.051 336.361 162.494C326.482 163.284 317.674 166.899 310.129 173.967C308.747 175.261 307.547 176.707 306.626 178.465C305.194 181.195 303.371 183.622 301.282 185.803C293.158 194.274 282.367 195.292 273.036 188.461C267.757 184.599 263.795 179.428 260.906 173.348C252.993 156.682 251.536 139.278 256.523 121.337C258.571 113.967 262.049 107.426 267.573 102.4C275.468 95.2186 285.754 94.7358 294.276 101.039C299.27 104.732 303.071 109.58 305.987 115.266C306.663 116.583 307.545 117.329 308.788 117.883C319.01 122.441 329.644 123.882 340.592 122.926C343.531 122.669 346.448 122.156 349.346 121.532C350.235 121.339 350.732 120.97 350.414 119.886C350.323 119.576 350.339 119.232 350.282 118.908C347.584 103.591 343.767 88.6234 338.396 74.1533C332.784 59.0345 325.775 44.7673 316.312 32.0449C309.295 22.6127 301.266 14.4431 291.36 8.65749C284.599 4.70883 277.423 2.29754 269.737 1.9559C260.538 1.54742 252.125 4.40432 244.316 9.571C236.019 15.062 229.479 22.536 223.944 31.1215C215.77 43.8018 210.351 57.8759 206.404 72.6679C201.674 90.4084 199.426 108.577 198.803 126.998C198.385 139.369 198.883 151.715 200.096 164.022C200.394 167.037 200.583 170.082 201.276 173.041C201.629 178.388 202.667 183.619 203.654 188.85C207.482 209.17 213.342 228.733 222.208 247.154C228.636 260.51 236.397 272.809 246.576 283.15C252.648 289.317 259.36 294.449 267.089 297.878C270.658 299.462 274.293 300.824 278.175 301.178C278.718 301.507 279.303 301.574 279.91 301.502C282.328 301.844 284.749 302.089 287.186 301.735C288.623 301.799 290.041 301.651 291.462 301.41C301.161 299.779 309.44 294.961 316.783 288.049C322.193 282.957 326.732 277.03 330.656 270.547C335.95 261.793 340.201 252.472 343.297 242.535L343.313 242.45L343.311 242.443ZM385.553 161.494C384.7 161.729 384.123 161.096 383.48 160.702C380.77 159.046 377.976 157.575 375.069 156.389C374.328 156.087 373.607 155.501 372.728 155.783C372.38 156.365 372.614 156.927 372.748 157.454C373.844 161.836 375.199 166.114 377.199 170.119C378.397 172.521 379.79 174.771 381.602 176.685C386.073 181.406 390.929 181.384 395.382 176.613C397.294 174.566 398.699 172.125 399.912 169.545C402.352 164.371 403.85 158.845 404.841 153.164C406.416 144.142 406.959 135.059 406.346 125.872C405.805 117.777 404.636 109.847 402.186 102.17C400.71 97.5482 398.853 93.1217 395.859 89.4132C390.874 83.2389 385.201 83.0285 380.222 89.3216C376.542 93.9708 374.419 99.5064 373.153 105.441C372.784 107.164 373.523 108.102 375.144 108.265C376.822 108.434 378.254 107.805 379.561 106.698C381.652 104.928 383.712 103.116 385.648 101.14C386.112 100.667 386.68 99.7416 387.303 100.509C387.903 101.249 386.978 101.789 386.537 102.247C383.293 105.609 379.822 108.679 376.01 111.236C355.083 125.27 332.999 128.9 309.538 119.874C309.124 119.715 308.72 119.391 308.22 119.861C309.781 123.857 311.161 127.952 312.009 132.23C312.52 134.799 312.943 137.389 313.407 139.968C313.9 148.688 313.907 157.375 311.593 165.945C312.593 165.901 312.898 165.25 313.327 164.826C318.51 159.722 324.455 156.018 331.081 153.679C346.186 148.348 361.153 149.066 375.958 155.137C378.865 156.33 381.654 157.803 384.325 159.526C384.98 159.947 386.007 160.204 385.557 161.492L385.553 161.494ZM90.7775 374.653C91.1616 373.85 91.5594 373.056 91.9254 372.246C99.2473 356.016 105.017 339.147 109.397 321.713C114.225 302.505 117.255 282.972 118.158 263.065C118.501 255.487 118.526 247.904 118.158 240.324C117.919 235.387 117.539 230.466 116.958 225.559C116.808 224.287 116.437 223.915 115.285 223.992C111.281 224.254 107.269 224.334 103.269 224.633C92.7028 225.423 82.1372 226.225 71.6124 227.532C65.6794 228.27 59.7624 229.171 53.8294 229.929C52.7201 230.07 52.4246 230.629 52.4905 231.701C52.5314 232.357 52.495 233.021 52.4973 233.679C52.52 243.592 51.6335 253.415 50.1969 263.196C49.2762 269.465 47.8941 275.619 46.6575 281.813C46.4302 282.593 46.1802 283.368 45.9801 284.158C42.7341 296.964 38.4196 309.325 32.9935 321.226C25.2761 338.154 15.6493 353.647 3.7083 367.401C2.35804 368.959 2.20801 368.694 3.67421 370.533C6.35654 373.895 9.21392 377.076 12.2145 380.097C27.6129 395.597 45.205 407.549 63.7881 417.905C64.9384 418.546 65.4817 418.204 66.1795 417.221C68.7277 413.639 71.2487 410.035 73.6173 406.311C80.039 396.211 85.847 385.716 90.7752 374.655L90.7775 374.653ZM91.8004 376.279C91.5572 376.688 91.2776 377.074 91.0753 377.505C84.3876 391.764 76.6134 405.271 67.4911 417.843C67.1729 418.281 66.7569 418.667 66.6819 419.328C67.1979 419.633 67.7139 419.972 68.2572 420.254C84.0193 428.478 100.277 435.256 117.155 440.245C125.909 442.832 134.756 444.934 143.745 446.303C144.622 446.436 145.329 446.429 146.015 445.686C150.03 441.332 154.031 436.97 157.293 431.887C158.275 431.075 158.879 429.917 159.598 428.872C165.142 420.806 169.927 412.223 174.075 403.224C188.394 372.162 195.791 338.934 199.965 304.708C201.04 295.89 201.801 287.037 202.37 278.159C203.304 263.597 203.668 249.026 203.495 234.434C203.467 232.211 203.367 229.988 203.352 227.762C203.342 226.586 203.008 226.084 201.801 225.94C191.567 224.722 181.3 224.032 171.02 223.621C155.208 222.992 139.387 223.173 123.572 223.611C121.797 223.66 119.99 223.626 118.215 224.16C118.276 224.938 118.294 225.599 118.383 226.247C118.983 230.736 119.317 235.256 119.503 239.777C120.247 257.78 119.24 275.671 116.494 293.456C112.791 317.445 106.467 340.568 97.4629 362.824C95.6375 367.337 93.6917 371.793 91.8027 376.277L91.8004 376.279ZM203.142 224.47C203.142 223.064 203.195 221.756 203.133 220.454C202.883 215.273 202.574 210.094 202.329 204.91C201.708 191.821 200.212 178.824 198.917 165.804C197.603 152.599 196.989 139.379 197.5 126.085C197.946 114.457 198.98 102.915 200.919 91.4779C203.706 75.0445 208.155 59.1979 215.045 44.2053C217.445 38.9817 219.618 33.6368 221.876 28.3364C222.512 26.8411 223.096 25.3038 223.099 23.6178C223.099 22.2315 222.483 21.6943 221.219 21.8824C219.996 22.0656 218.936 22.7316 217.852 23.3059C195.98 34.8895 174.114 46.4953 152.228 58.0516C150.689 58.8637 149.425 59.9282 148.291 61.2923C140.803 70.2987 135.104 80.5578 130.503 91.5645C120.374 115.801 115.582 141.407 114.296 167.869C113.868 176.675 113.937 185.493 114.498 194.309C115.053 203.033 116.062 211.676 117.592 220.259C118.035 222.739 118.101 222.363 120.088 222.306C127.123 222.108 134.159 221.776 141.194 221.729C159.741 221.608 178.274 222.014 196.757 223.908C198.835 224.121 200.91 224.611 203.14 224.467L203.142 224.47ZM145.772 61.7998C145.079 61.5473 144.617 62.1191 144.113 62.384C134.327 67.5507 124.552 72.7421 114.778 77.9336C109.213 80.8895 103.528 83.6103 98.1153 86.8707C85.0582 94.7358 75.3427 106.339 67.8526 120.218C57.1914 139.971 52.345 161.521 51.4926 184.265C51.1925 192.264 51.6835 200.243 51.8858 208.232C52.0404 214.327 52.2382 220.42 52.4405 226.512C52.511 228.609 52.5519 228.661 54.3409 228.376C63.9223 226.849 73.5469 225.722 83.1919 224.799C91.1798 224.034 99.1723 223.378 107.183 222.967C110.249 222.809 113.314 222.576 116.467 222.37C116.357 221.541 116.303 220.888 116.185 220.249C114.25 209.893 113.2 199.416 112.816 188.875C112.334 175.6 112.854 162.363 114.446 149.173C116.203 134.601 119.094 120.324 123.536 106.438C128.673 90.3787 135.491 75.3119 145.652 62.233C145.727 62.1365 145.724 61.9681 145.768 61.7973L145.772 61.7998Z" fill="#151312"/>
<path d="M201.282 173.039C200.588 170.08 200.4 167.035 200.102 164.02C198.888 151.714 198.39 139.365 198.808 126.997C199.431 108.575 201.677 90.4066 206.41 72.6661C210.356 57.8741 215.775 43.8001 223.95 31.1198C229.485 22.5342 236.022 15.0602 244.322 9.56925C252.13 4.40257 260.543 1.54567 269.743 1.95415C277.428 2.29579 284.604 4.70707 291.365 8.65573C301.271 14.4413 309.302 22.611 316.317 32.0432C325.781 44.7656 332.787 59.0327 338.401 74.1515C343.775 88.6217 347.592 103.589 350.288 118.906C350.344 119.231 350.329 119.575 350.42 119.884C350.738 120.969 350.24 121.337 349.351 121.53C346.453 122.157 343.536 122.669 340.597 122.924C329.65 123.88 319.016 122.439 308.793 117.881C307.55 117.327 306.668 116.582 305.993 115.265C303.074 109.578 299.273 104.731 294.281 101.037C285.762 94.7341 275.473 95.2168 267.578 102.399C262.055 107.424 258.577 113.967 256.529 121.335C251.541 139.278 252.998 156.682 260.911 173.346C263.798 179.426 267.763 184.598 273.041 188.46C282.372 195.29 293.163 194.272 301.287 185.801C303.379 183.62 305.202 181.194 306.631 178.463C307.552 176.705 308.752 175.26 310.134 173.965C317.679 166.897 326.488 163.282 336.367 162.493C341.927 162.049 347.367 162.698 352.768 164.097C353.954 164.404 354.507 164.812 354.513 166.345C354.616 190.141 352.004 213.508 345.362 236.25C344.862 237.965 344.543 239.77 343.57 241.293C343.161 241.59 343.045 241.966 343.316 242.441L343.3 242.525C342.245 241.986 341.613 242.716 340.943 243.422C339.317 245.135 337.703 246.845 335.958 248.432C326.84 256.726 316.227 260.949 304.549 262.024C298.921 262.541 293.238 262.194 287.657 261.009C280.526 259.496 273.691 256.929 267.122 253.594C260.541 250.254 254.444 245.999 248.597 241.317C244.747 237.782 240.773 234.398 237.168 230.563C234.849 228.1 232.61 225.555 230.455 222.903C227.709 219.527 224.982 216.137 222.465 212.565C216.771 204.477 211.754 195.906 207.471 186.838C205.539 182.748 203.652 178.631 202.268 174.272C202.082 173.683 201.825 173.242 201.279 173.029L201.282 173.039ZM283.657 26.1759C283.495 25.302 282.738 25.2129 282.138 24.9356C273.193 20.8136 264.328 21.0018 255.635 25.7377C248.711 29.5106 243.387 35.3111 238.902 42.0671C231.255 53.5764 226.693 66.5909 223.361 80.1921C223.34 80.2713 223.311 80.3481 223.293 80.4273C223.165 80.962 223.213 81.4497 223.788 81.5785C224.202 81.6701 224.495 81.4126 224.604 80.9422C224.734 80.3852 224.877 79.8307 225.016 79.2736C227.673 68.5887 231.205 58.2851 236.472 48.7687C240.651 41.2229 245.651 34.4545 252.469 29.5032C261.559 22.9031 271.188 21.69 281.367 26.166C281.924 26.4111 282.484 26.6686 283.066 26.8146C283.379 26.8938 283.591 26.577 283.659 26.1784L283.657 26.1759ZM324.687 215.774C324.751 215.328 324.769 215.246 324.774 215.165C324.796 214.632 324.696 214.147 324.119 214.09C323.632 214.043 323.512 214.476 323.444 214.897C323.351 215.464 323.262 216.033 323.187 216.603C321.791 226.973 317.836 236.084 311.664 244.065C309.212 247.239 306.363 249.933 302.826 251.636C302.285 251.896 301.458 252.029 301.792 252.891C302.103 253.693 302.835 253.275 303.367 253.02C304.056 252.69 304.72 252.297 305.377 251.896C307.641 250.514 309.587 248.69 311.364 246.652C316.995 240.198 320.734 232.568 323.121 224.107C323.921 221.267 324.467 218.368 324.687 215.774ZM243.503 161.686C243.701 166.439 246.379 175.623 248.777 179.622C249.104 180.169 249.502 180.669 249.905 181.157C250.25 181.577 250.721 181.689 251.089 181.263C251.398 180.906 251.123 180.513 250.896 180.179C247.756 175.576 246.343 170.234 245.32 164.731C245.067 163.367 244.97 161.968 244.751 160.594C244.688 160.198 244.435 159.802 243.967 159.94C243.665 160.029 243.503 160.334 243.501 160.7C243.501 161.029 243.501 161.356 243.501 161.686H243.503Z" fill="#FCF6F5"/>
<path d="M91.7894 376.276C93.6807 371.793 95.6242 367.339 97.4496 362.826C106.454 340.572 112.778 317.447 116.481 293.458C119.227 275.673 120.231 257.782 119.49 239.779C119.304 235.258 118.97 230.738 118.37 226.249C118.283 225.601 118.263 224.94 118.201 224.163C119.977 223.628 121.784 223.662 123.559 223.613C139.376 223.172 155.195 222.994 171.007 223.623C181.286 224.031 191.554 224.722 201.788 225.943C202.993 226.086 203.329 226.589 203.338 227.765C203.354 229.988 203.454 232.211 203.482 234.436C203.654 249.028 203.291 263.602 202.356 278.161C201.788 287.039 201.026 295.892 199.951 304.71C195.778 338.936 188.381 372.164 174.062 403.226C169.914 412.223 165.129 420.806 159.584 428.874C158.866 429.919 158.261 431.077 157.279 431.889C156.129 430.958 154.788 430.439 153.479 429.877C146.248 426.76 139.537 422.606 133.086 417.917C132.695 417.632 132.39 417.3 132.229 416.82C132.465 416.411 132.897 416.52 133.234 416.377C139.837 413.564 142.197 406.311 138.619 399.659C136.143 395.057 132.222 392.581 127.64 391.239C121.52 389.449 114.039 390.598 110.17 397.299C110.038 397.223 109.882 397.171 109.775 397.062C104.549 391.707 99.5182 386.139 94.8354 380.22C93.8125 378.928 92.5395 377.831 91.7871 376.279L91.7894 376.276ZM175.09 315.544C175.081 310.971 174.696 306.47 173.621 302.064C172.637 298.041 171.187 294.253 168.438 291.24C165.449 287.96 161.871 286.7 157.666 287.668C154.799 288.329 152.253 289.7 149.935 291.614C146.773 294.223 144.088 297.338 141.754 300.819C134.714 311.315 130.497 323.127 128.192 335.79C126.592 344.581 126.096 353.431 127.73 362.296C128.51 366.535 129.829 370.56 132.368 373.971C134.895 377.368 138.087 379.212 142.229 378.99C145.047 378.836 147.527 377.752 149.88 376.212C153.497 373.843 156.475 370.669 159.005 367.04C169.611 351.822 174.394 334.428 175.092 315.541L175.09 315.544ZM160.271 271.995C164.519 271.918 168.332 270.814 171.612 268.006C177.551 262.924 177.397 254.925 171.296 250.065C165.242 245.243 155.377 245.31 149.353 250.211C143.231 255.195 143.211 263.374 149.335 268.323C152.615 270.975 156.384 271.957 160.269 271.992L160.271 271.995Z" fill="#E0F450"/>
<path d="M203.138 224.466C200.908 224.61 198.833 224.12 196.755 223.907C178.27 222.013 159.739 221.607 141.192 221.728C134.157 221.775 127.121 222.107 120.086 222.305C118.099 222.359 118.033 222.738 117.59 220.258C116.06 211.674 115.051 203.032 114.496 194.308C113.937 185.492 113.867 176.676 114.294 167.868C115.581 141.408 120.375 115.8 130.502 91.5634C135.1 80.5567 140.801 70.2976 148.289 61.2912C149.423 59.9271 150.687 58.8625 152.226 58.0505C174.112 46.4942 195.978 34.8908 217.85 23.3048C218.935 22.7304 219.994 22.0645 221.217 21.8813C222.481 21.6931 223.097 22.2279 223.097 23.6167C223.097 25.3002 222.513 26.8375 221.874 28.3353C219.617 33.6357 217.443 38.9831 215.043 44.2042C208.151 59.1968 203.704 75.0434 200.918 91.4767C198.979 102.914 197.944 114.456 197.499 126.084C196.987 139.378 197.601 152.598 198.915 165.803C200.211 178.823 201.704 191.82 202.327 204.909C202.572 210.093 202.882 215.272 203.132 220.453C203.195 221.753 203.141 223.06 203.141 224.469L203.138 224.466ZM141.588 136.927C141.579 140.074 141.752 143.198 142.322 146.278C142.818 148.954 143.57 151.543 145.045 153.806C147.503 157.579 150.942 158.592 154.809 156.703C156.773 155.742 158.398 154.279 159.889 152.62C162.776 149.407 164.965 145.659 166.818 141.675C171.396 131.84 173.89 121.383 174.44 110.391C174.672 105.766 174.337 101.154 173.051 96.7053C170.368 87.4489 163.926 85.55 157.32 92.0362C155.404 93.9202 153.711 96.0245 152.313 98.3987C145.391 110.141 142.136 123.088 141.588 136.927ZM154.197 196.174C158.728 195.957 163.272 194.706 166.763 190.674C170.621 186.22 170.066 180.397 165.538 176.783C163.149 174.876 160.417 173.968 157.516 173.748C152.445 173.361 147.707 174.495 143.816 178.266C138.746 183.177 139.492 190.146 145.364 193.818C147.989 195.459 150.862 196.014 154.193 196.172L154.197 196.174ZM165.786 78.5959C169.877 78.5737 173.41 77.5042 176.736 75.6004C178.286 74.7116 179.688 73.5927 180.693 71.9884C182.216 69.5623 181.68 67.1832 179.302 65.7671C178.293 65.1655 177.193 64.8437 176.063 64.7224C171.005 64.1753 166.304 65.3661 161.98 68.2725C160.948 68.9657 160.019 69.8148 159.287 70.8868C157.461 73.5555 158.034 76.1327 160.794 77.5512C162.467 78.4127 164.26 78.6628 165.783 78.5959H165.786Z" fill="#E0F450"/>
<path d="M145.778 61.8033C145.734 61.9742 145.737 62.1425 145.662 62.2391C135.501 75.3204 128.681 90.3872 123.546 106.444C119.104 120.33 116.213 134.607 114.456 149.179C112.864 162.367 112.344 175.606 112.826 188.881C113.21 199.422 114.26 209.899 116.195 220.255C116.315 220.894 116.37 221.547 116.476 222.376C113.324 222.582 110.262 222.815 107.193 222.973C99.1821 223.384 91.1897 224.043 83.2017 224.805C73.5567 225.728 63.9344 226.855 54.3507 228.382C52.5617 228.667 52.5208 228.618 52.4503 226.518C52.248 220.426 52.0502 214.333 51.8957 208.238C51.6934 200.252 51.2024 192.27 51.5024 184.271C52.3549 161.527 57.199 139.974 67.8624 120.224C75.3525 106.345 85.068 94.7419 98.1251 86.8767C103.538 83.6188 109.223 80.898 114.787 77.9396C124.562 72.7457 134.337 67.5543 144.123 62.3901C144.625 62.1252 145.086 61.5533 145.782 61.8058L145.778 61.8033ZM99.7254 125.606C99.7254 124.784 99.7504 123.959 99.7209 123.138C99.6163 120.323 99.273 117.552 98.0137 115.032C96.3725 111.752 93.8197 110.925 90.7623 112.601C88.3255 113.938 86.5683 116.072 85.0044 118.421C82.8653 121.63 81.1241 125.093 79.7329 128.75C76.3459 137.65 74.1682 146.83 74.6114 156.566C74.7319 159.213 75.1547 161.81 76.3868 164.147C77.9575 167.127 80.5126 167.981 83.3518 166.511C84.3111 166.013 85.168 165.34 85.9682 164.575C87.3412 163.265 88.5301 161.775 89.5484 160.131C96.011 149.699 99.148 138.093 99.7254 125.603V125.606ZM79.4965 201.69C82.9858 201.633 86.15 200.507 88.621 197.622C91.9807 193.701 91.6875 188.212 87.9913 184.68C83.3745 180.268 75.1843 180.813 71.0949 185.806C67.8306 189.792 68.1602 195.293 71.8973 198.751C74.0659 200.757 76.6391 201.566 79.4965 201.69ZM103.972 93.2763C100.61 93.4273 97.7478 94.5141 95.3132 96.7917C94.2857 97.7547 93.5969 98.9777 94.1266 100.49C94.6176 101.899 95.8337 102.248 97.0817 102.337C100.371 102.575 103.333 101.55 105.983 99.4481C106.463 99.0668 106.906 98.5865 107.261 98.0667C108.575 96.1431 107.95 94.1427 105.82 93.4991C105.179 93.306 104.481 93.3307 103.972 93.2738V93.2763Z" fill="#E0F450"/>
<path d="M46.666 281.809C47.9026 275.617 49.2847 269.463 50.2053 263.194C51.642 253.413 52.5285 243.59 52.5058 233.677C52.5058 233.019 52.5399 232.355 52.499 231.699C52.433 230.627 52.7286 230.068 53.8379 229.926C59.7708 229.169 65.6856 228.268 71.6209 227.53C82.1456 226.223 92.7113 225.421 103.277 224.631C107.278 224.332 111.29 224.252 115.293 223.99C116.445 223.913 116.816 224.284 116.966 225.557C117.548 230.464 117.925 235.385 118.166 240.322C118.535 247.902 118.51 255.485 118.166 263.063C117.264 282.967 114.234 302.503 109.405 321.711C105.025 339.145 99.2535 356.014 91.9339 372.244C91.5679 373.056 91.1701 373.848 90.7859 374.65C89.9426 373.606 89.0606 372.598 88.265 371.514C85.1621 367.288 82.1615 362.973 79.3383 358.524C76.2104 353.598 72.987 348.73 70.3911 343.428C72.1641 341.764 73.985 340.155 75.5102 338.204C83.9914 327.353 88.9947 314.901 89.8926 300.634C90.1154 297.098 89.6971 293.561 88.2991 290.265C86.3055 285.572 82.5912 283.72 78.0403 285.148C75.3807 285.983 73.0802 287.51 70.9912 289.461C67.5178 292.704 64.7195 296.559 62.2259 300.715C59.7367 304.864 57.9728 309.402 56.0883 313.878C55.1972 311.271 54.3016 308.667 53.4151 306.06C50.8282 298.462 48.4141 290.81 47.298 282.757C47.2366 282.321 47.032 282.004 46.666 281.811V281.809ZM84.0892 268.061C87.774 268.086 89.9631 267.41 91.8748 266.016C96.3848 262.726 97.1576 256.564 93.6229 252.064C89.7766 247.162 82.3002 246.221 77.5516 250.044C73.4189 253.371 72.7415 259.223 76.0399 263.514C78.4222 266.611 81.5637 267.98 84.0892 268.066V268.061Z" fill="#E0F450"/>
<path d="M70.3737 343.429C72.9696 348.732 76.193 353.599 79.3209 358.525C82.1441 362.977 85.147 367.289 88.2476 371.515C89.0432 372.599 89.9275 373.607 90.7685 374.652C85.8426 385.713 80.0324 396.207 73.6107 406.308C71.242 410.034 68.7211 413.636 66.1728 417.218C65.475 418.201 64.9317 418.543 63.7815 417.901C45.1983 407.546 27.6063 395.596 12.2078 380.093C9.20498 377.07 6.34988 373.892 3.66754 370.53C2.20134 368.693 2.3491 368.955 3.70164 367.398C15.6403 353.646 25.2695 338.151 32.9869 321.222C38.4129 309.322 42.7274 296.961 45.9735 284.154C46.1735 283.365 46.4236 282.592 46.6509 281.81C47.0169 282.003 47.2214 282.317 47.2828 282.756C48.3989 290.811 50.813 298.464 53.3999 306.059C54.2864 308.666 55.1821 311.27 56.0732 313.877C55.9686 314.355 55.9027 314.845 55.7526 315.305C54.1614 320.215 53.159 325.26 52.9157 330.459C52.7452 334.091 53.0385 337.69 54.4115 341.075C56.4596 346.127 60.3308 347.969 65.1545 346.32C67.0571 345.669 68.6688 344.464 70.3759 343.426L70.3737 343.429ZM45.4756 359.993C38.2856 359.939 33.9621 367.101 37.0126 374.201C39.1517 379.18 42.9433 382.024 47.9443 382.133C55.2048 382.292 58.7441 375.736 57.0233 369.393C55.5412 363.93 50.7267 360.031 45.4734 359.991L45.4756 359.993Z" fill="#A9BB24"/>
<path d="M313.394 139.965C312.93 137.385 312.507 134.795 311.996 132.226C311.146 127.948 309.766 123.853 308.207 119.857C308.707 119.387 309.111 119.711 309.525 119.87C332.986 128.896 355.07 125.267 375.997 111.232C379.809 108.675 383.282 105.607 386.524 102.243C386.965 101.785 387.89 101.243 387.29 100.505C386.667 99.7377 386.099 100.664 385.635 101.136C383.701 103.112 381.641 104.922 379.548 106.694C378.241 107.801 376.811 108.43 375.131 108.261C373.51 108.098 372.771 107.162 373.14 105.437C374.403 99.5025 376.529 93.9694 380.209 89.3177C385.187 83.0271 390.861 83.235 395.846 89.4093C398.84 93.1178 400.699 97.5443 402.173 102.166C404.623 109.843 405.791 117.775 406.332 125.868C406.946 135.055 406.403 144.141 404.828 153.16C403.836 158.841 402.336 164.365 399.899 169.541C398.685 172.118 397.281 174.559 395.369 176.609C390.916 181.382 386.063 181.404 381.589 176.681C379.777 174.767 378.384 172.517 377.186 170.115C375.185 166.11 373.828 161.834 372.735 157.45C372.603 156.923 372.367 156.358 372.715 155.779C373.594 155.494 374.317 156.081 375.056 156.386C377.966 157.571 380.757 159.044 383.467 160.698C384.11 161.092 384.69 161.725 385.542 161.49C386.694 161.792 387.865 161.795 388.797 160.958C390.607 159.329 392.261 157.574 393.071 155.021C394.516 150.476 395.055 145.772 395.298 141.024C395.455 137.984 395.328 134.924 395.323 131.874C395.323 131.297 395.36 130.708 395.264 130.149C395.028 128.762 394.464 128.374 393.187 128.693C389.741 129.554 386.308 130.47 382.857 131.302C376.984 132.718 371.132 134.246 365.218 135.471C362.04 136.13 358.825 136.504 355.645 137.09C352.604 137.65 349.542 138.016 346.484 138.34C343.118 138.699 339.776 139.276 336.392 139.526C333.25 139.759 330.109 140.279 326.958 140.343C322.434 140.435 317.902 140.588 313.392 139.965H313.394ZM397.99 99.8739C397.428 96.3683 395.964 92.9495 393.041 90.4045C392.348 89.8029 391.509 89.5875 390.713 90.0802C389.979 90.5332 389.818 91.4071 389.927 92.2538C390.448 96.2396 392.027 99.6436 395.005 102.077C396.615 103.392 397.942 102.515 397.992 99.8763L397.99 99.8739ZM388.874 89.2088C388.92 88.1789 388.004 87.2084 386.972 87.1911C385.747 87.1713 384.785 88.1888 384.787 89.5034C384.787 90.5976 385.462 91.3403 386.494 91.3824C387.645 91.4319 388.827 90.3525 388.877 89.2088H388.874Z" fill="#FA420F"/>
<path d="M132.243 416.815C132.404 417.296 132.709 417.627 133.1 417.912C139.551 422.601 146.263 426.755 153.492 429.872C154.799 430.436 156.143 430.956 157.293 431.885C154.031 436.965 150.03 441.329 146.016 445.684C145.331 446.427 144.622 446.434 143.745 446.3C134.757 444.931 125.91 442.83 117.156 440.242C100.277 435.254 84.0196 428.476 68.2574 420.252C67.7164 419.969 67.1981 419.63 66.6821 419.326C66.7571 418.665 67.1731 418.279 67.4914 417.84C76.6136 405.269 84.3878 391.762 91.0755 377.502C91.2778 377.071 91.5574 376.683 91.8006 376.277C92.5531 377.826 93.826 378.923 94.849 380.218C99.5294 386.137 104.562 391.705 109.788 397.06C109.895 397.169 110.05 397.221 110.184 397.297C108.34 401.796 109.043 405.942 111.659 409.812C112.605 411.211 113.739 412.419 115.039 413.424C120.283 417.476 126.035 418.526 132.24 416.82L132.243 416.815Z" fill="#A9BB24"/>
<path d="M201.28 173.036C201.823 173.249 202.08 173.689 202.269 174.279C203.653 178.638 205.54 182.755 207.472 186.845C211.755 195.913 216.771 204.484 222.466 212.572C224.982 216.144 227.71 219.533 230.456 222.91C232.611 225.559 234.852 228.104 237.169 230.57C240.776 234.405 244.75 237.789 248.598 241.324C248.578 242.817 249.31 243.971 250.051 245.112C251.18 246.847 252.394 248.521 253.451 250.306C255.611 253.952 258.084 257.351 260.419 260.859C265.97 269.205 271.693 277.417 277.16 285.826C280.111 290.364 282.852 295.058 286.092 299.376C286.58 300.027 287.265 300.708 287.19 301.732C284.753 302.089 282.332 301.841 279.913 301.5C279.393 301.024 278.763 301.252 278.179 301.175C274.296 300.821 270.659 299.46 267.093 297.875C259.366 294.447 252.651 289.315 246.579 283.148C236.398 272.807 228.637 260.508 222.211 247.152C213.346 228.731 207.486 209.168 203.658 188.848C202.671 183.617 201.632 178.386 201.28 173.038V173.036Z" fill="#ECDEDB"/>
<path d="M287.188 301.728C287.263 300.703 286.579 300.022 286.09 299.371C282.851 295.056 280.11 290.362 277.159 285.822C271.692 277.412 265.97 269.2 260.417 260.855C258.083 257.347 255.609 253.95 253.45 250.301C252.393 248.516 251.177 246.843 250.049 245.107C249.308 243.966 248.576 242.813 248.597 241.32C254.443 246.001 260.538 250.259 267.121 253.596C273.69 256.929 280.526 259.496 287.656 261.011C293.237 262.194 298.92 262.543 304.548 262.026C316.226 260.952 326.839 256.728 335.957 248.435C337.703 246.845 339.319 245.137 340.942 243.424C341.612 242.718 342.242 241.988 343.299 242.528C340.203 252.463 335.952 261.786 330.658 270.54C326.734 277.026 322.195 282.95 316.785 288.043C309.44 294.955 301.161 299.772 291.464 301.404C290.043 301.641 288.625 301.792 287.188 301.728Z" fill="#ECDEDB"/>
<path d="M255.095 141.88C255.122 129.848 257.286 118.478 264.072 108.635C267.422 103.772 271.669 100.173 277.242 98.7617C280.868 97.8433 284.446 98.0661 287.954 99.4128C294.273 101.836 298.928 106.523 302.679 112.4C306.928 119.057 309.565 126.464 311.017 134.371C312.897 144.601 312.831 154.805 310.381 164.938C310.246 165.493 310.046 166.028 309.878 166.572C309.394 166.149 309.469 165.55 309.467 164.98C309.46 163.582 309.537 162.175 309.446 160.784C309.269 158.086 308.908 155.424 307.473 153.075C307.021 153.454 306.857 153.917 306.757 154.397C306.284 156.699 305.175 158.638 303.859 160.457C299.899 165.941 295.007 167.459 288.999 166.312C284.646 165.483 281.607 162.341 279.059 158.687C276.708 155.318 275.274 151.419 274.571 147.26C274.189 145.002 272.944 143.682 271.268 142.561C268.677 140.823 265.911 141.318 263.135 141.598C260.419 141.873 257.891 143.034 255.222 143.526L255.247 143.432C255.425 142.888 255.493 142.355 255.09 141.878L255.095 141.88ZM265.767 127.947C265.822 128.873 265.82 129.368 265.883 129.856C266.233 132.48 267.866 133.295 269.948 131.866C270.848 131.247 271.603 130.438 272.273 129.537C275.481 125.234 277.49 120.332 278.411 114.898C278.588 113.853 278.618 112.769 278.302 111.724C277.767 109.964 276.735 109.437 275.16 110.125C274.385 110.464 273.642 110.883 273.046 111.531C268.77 116.195 266.527 121.899 265.767 127.947ZM304.091 144.943C304.061 139.288 302.818 134.027 299.738 129.388C298.662 127.769 297.358 126.412 295.696 125.504C292.484 123.748 289.258 124.387 286.853 127.299C285.517 128.918 284.648 130.839 284.087 132.911C283.312 135.778 282.964 138.716 283.164 141.697C283.548 147.403 284.93 152.736 288.531 157.1C292.984 162.497 298.962 161.651 302.045 155.211C302.497 154.268 302.836 153.253 303.145 152.241C303.868 149.874 304.136 147.431 304.088 144.938L304.091 144.943ZM304.093 120.419C303.516 117.7 302.159 115.133 299.833 113.247C299.453 112.937 298.912 112.484 298.392 112.89C297.776 113.371 297.742 114.066 297.944 114.866C298.606 117.475 299.954 119.594 301.736 121.424C301.949 121.644 302.222 121.825 302.495 121.944C303.513 122.394 304.095 121.959 304.095 120.419H304.093ZM281.257 108.739C282.737 108.692 284.03 107.097 283.966 105.394C283.914 104.013 283.03 103.037 281.818 103.025C280.284 103.01 279.047 104.451 279.04 106.265C279.034 107.83 279.886 108.781 281.259 108.736L281.257 108.739Z" fill="#FA420F"/>
<path d="M313.408 139.967C317.918 140.59 322.45 140.437 326.974 140.345C330.127 140.281 333.266 139.761 336.408 139.528C339.792 139.278 343.134 138.699 346.501 138.343C349.558 138.018 352.62 137.652 355.661 137.092C358.844 136.506 362.056 136.129 365.234 135.473C371.148 134.25 377 132.723 382.874 131.304C386.324 130.472 389.759 129.556 393.203 128.695C394.48 128.376 395.044 128.762 395.28 130.151C395.376 130.71 395.337 131.302 395.34 131.876C395.344 134.926 395.471 137.984 395.315 141.026C395.071 145.774 394.53 150.478 393.087 155.023C392.275 157.576 390.623 159.331 388.813 160.96C387.884 161.799 386.713 161.797 385.558 161.492C386.006 160.203 384.981 159.948 384.326 159.524C381.653 157.804 378.866 156.328 375.959 155.135C361.153 149.062 346.187 148.347 331.082 153.677C324.455 156.016 318.513 159.717 313.328 164.825C312.899 165.248 312.594 165.899 311.594 165.944C313.908 157.373 313.901 148.686 313.408 139.967Z" fill="#B20000"/>
<path d="M255.237 143.524C257.906 143.032 260.431 141.871 263.15 141.596C265.925 141.316 268.692 140.821 271.283 142.559C272.958 143.683 274.204 145.002 274.586 147.258C275.288 151.414 276.723 155.313 279.073 158.685C281.621 162.339 284.661 165.478 289.014 166.31C295.022 167.456 299.916 165.936 303.874 160.455C305.187 158.636 306.297 156.697 306.772 154.395C306.87 153.915 307.033 153.452 307.488 153.073C308.922 155.425 309.284 158.086 309.461 160.782C309.552 162.173 309.477 163.58 309.481 164.978C309.484 165.548 309.409 166.147 309.893 166.57C307.747 174.567 304.162 181.58 298.052 186.811C290.798 193.023 281.085 192.985 273.202 186.794C267.792 182.546 263.939 176.899 261.077 170.442C257.315 161.956 255.335 152.974 255.239 143.527L255.237 143.524Z" fill="#B20000"/>
<path d="M217.197 239.846C219.402 244.433 221.446 249.107 223.828 253.595C229.838 264.919 236.844 275.396 245.687 284.321C251.943 290.636 258.849 295.882 266.8 299.39C267.107 299.526 267.555 299.558 267.68 300.214C267.157 300.578 266.58 300.355 266.041 300.298C250.017 298.605 234.08 296.206 218.218 293.216C217.079 293 216.072 292.515 215.122 291.792C212.901 290.106 211.253 287.886 209.914 285.365C207.5 280.818 206.202 275.856 205.465 270.71C205.072 267.967 204.683 265.214 204.822 262.416C205.659 259.168 206.775 256.019 208.25 253.078C210.339 248.914 212.824 245.01 215.451 241.217C215.913 240.554 216.315 239.853 217.195 239.843L217.197 239.846Z" fill="#E0F450"/>
<path d="M217.197 239.847C216.317 239.857 215.913 240.558 215.454 241.221C212.826 245.011 210.341 248.918 208.252 253.082C206.775 256.023 205.661 259.175 204.824 262.42C204.342 259.727 204.679 257.016 204.756 254.322C204.983 246.341 204.965 238.367 204.754 230.385C204.576 223.642 204.411 216.9 204.042 210.164C203.849 206.636 203.588 203.111 203.383 199.583C203.299 198.113 203.031 196.645 203.299 194.852C204.408 199.405 205.393 203.69 206.497 207.941C209.259 218.552 212.717 228.89 216.915 238.929C217.038 239.221 217.104 239.54 217.197 239.847Z" fill="#A9BB24"/>
<path d="M278.182 301.171C278.766 301.245 279.396 301.02 279.917 301.495C279.31 301.567 278.725 301.503 278.182 301.171Z" fill="#ECDEDB"/>
<path d="M255.103 141.879C255.503 142.354 255.437 142.886 255.259 143.433C254.869 142.955 254.959 142.421 255.103 141.879Z" fill="#B20000"/>
<path d="M343.304 242.445C343.033 241.967 343.149 241.593 343.559 241.296C343.697 241.737 343.565 242.108 343.304 242.445Z" fill="#ECDEDB"/>
<path d="M283.643 26.1687C283.575 26.5673 283.363 26.8841 283.05 26.8049C282.468 26.6589 281.909 26.4014 281.352 26.1563C271.175 21.6828 261.543 22.8934 252.453 29.4935C245.636 34.4448 240.635 41.2107 236.457 48.759C231.187 58.2754 227.657 68.579 225 79.2639C224.861 79.8185 224.718 80.373 224.588 80.9325C224.479 81.4054 224.184 81.6604 223.772 81.5688C223.197 81.44 223.149 80.9523 223.277 80.4176C223.295 80.3384 223.327 80.2616 223.345 80.1824C226.68 66.5812 231.242 53.5667 238.887 42.0574C243.374 35.3038 248.698 29.5009 255.619 25.728C264.312 20.9921 273.177 20.8039 282.122 24.9259C282.72 25.2007 283.477 25.2923 283.641 26.1662L283.643 26.1687Z" fill="#151312"/>
<path d="M324.669 215.766C324.448 218.36 323.903 221.259 323.103 224.099C320.716 232.558 316.976 240.19 311.346 246.645C309.568 248.682 307.622 250.507 305.358 251.888C304.701 252.289 304.037 252.685 303.349 253.012C302.819 253.264 302.085 253.685 301.773 252.883C301.439 252.019 302.267 251.888 302.808 251.628C306.345 249.927 309.191 247.231 311.646 244.057C317.817 236.076 321.773 226.966 323.168 216.595C323.246 216.026 323.332 215.456 323.425 214.889C323.494 214.471 323.614 214.035 324.1 214.082C324.678 214.139 324.778 214.624 324.755 215.157C324.753 215.238 324.732 215.32 324.669 215.766Z" fill="#151312"/>
<path d="M243.491 161.678C243.491 161.349 243.491 161.022 243.491 160.693C243.491 160.327 243.655 160.022 243.957 159.933C244.425 159.795 244.678 160.191 244.741 160.587C244.96 161.961 245.055 163.357 245.31 164.724C246.333 170.227 247.747 175.572 250.886 180.172C251.113 180.506 251.388 180.899 251.079 181.256C250.711 181.682 250.24 181.57 249.895 181.149C249.495 180.662 249.095 180.162 248.767 179.615C246.369 175.616 243.691 166.432 243.493 161.678H243.491Z" fill="#151312"/>
<path d="M175.103 315.544C174.405 334.431 169.622 351.824 159.015 367.042C156.485 370.672 153.51 373.845 149.891 376.215C147.538 377.754 145.056 378.839 142.239 378.992C138.1 379.218 134.908 377.371 132.378 373.974C129.839 370.563 128.523 366.54 127.741 362.299C126.109 353.434 126.605 344.583 128.203 335.792C130.508 323.129 134.724 311.318 141.764 300.821C144.099 297.34 146.783 294.226 149.945 291.617C152.264 289.703 154.808 288.329 157.676 287.67C161.882 286.702 165.46 287.963 168.449 291.243C171.197 294.258 172.648 298.046 173.632 302.066C174.709 306.471 175.093 310.974 175.1 315.546L175.103 315.544ZM128.132 350.733C128.062 355.315 128.519 359.806 129.61 364.21C130.444 367.577 131.646 370.773 133.788 373.437C136.772 377.15 140.466 378.341 144.84 377.012C147.134 376.316 149.159 375.058 151.055 373.526C154.621 370.642 157.504 367.05 160 363.084C166.742 352.364 170.731 340.454 172.698 327.707C173.896 319.936 174.182 312.137 172.707 304.356C172.013 300.7 170.906 297.207 168.89 294.134C165.592 289.109 160.716 287.564 155.49 289.941C154.31 290.478 153.185 291.188 152.105 291.938C148.009 294.773 144.813 298.625 142.101 302.933C133.04 317.334 128.696 333.391 128.134 350.735L128.132 350.733Z" fill="#151312"/>
<path d="M132.24 416.813C126.034 418.518 120.283 417.469 115.039 413.416C113.738 412.411 112.604 411.205 111.658 409.804C109.044 405.935 108.34 401.788 110.183 397.29C114.05 390.588 121.531 389.439 127.65 391.229C132.231 392.569 136.152 395.047 138.63 399.649C142.208 406.301 139.85 413.555 133.244 416.367C132.908 416.511 132.478 416.402 132.24 416.81V416.813ZM126.575 416.097C128.932 416.053 131.228 415.76 133.397 414.612C139.191 411.542 140.673 404.957 136.777 399.399C133.767 395.106 129.705 392.833 124.85 392.185C121.563 391.747 118.357 392.091 115.4 393.878C110.729 396.698 109.299 402.035 111.809 407.163C112.49 408.556 113.372 409.782 114.436 410.846C117.866 414.285 121.965 415.894 126.577 416.095L126.575 416.097Z" fill="#151312"/>
<path d="M160.274 272C156.387 271.966 152.618 270.983 149.34 268.331C143.216 263.383 143.236 255.203 149.358 250.22C155.382 245.318 165.245 245.251 171.301 250.073C177.402 254.933 177.554 262.932 171.617 268.015C168.339 270.819 164.527 271.926 160.276 272.003L160.274 272ZM158.903 270.483C163.886 270.527 168.132 269.072 170.735 266.858C175.8 262.551 175.797 255.871 170.733 251.586C165.254 246.952 156.018 246.843 150.326 251.341C144.721 255.772 144.796 263.036 150.513 267.341C153.397 269.512 156.646 270.436 158.903 270.483Z" fill="#151312"/>
<path d="M141.595 136.934C142.143 123.095 145.398 110.147 152.32 98.405C153.72 96.0309 155.411 93.9266 157.328 92.0426C163.931 85.5564 170.376 87.4552 173.058 96.7117C174.347 101.16 174.679 105.773 174.447 110.397C173.897 121.389 171.403 131.846 166.825 141.682C164.97 145.665 162.783 149.411 159.896 152.627C158.405 154.288 156.78 155.751 154.816 156.709C150.949 158.598 147.51 157.585 145.053 153.813C143.58 151.55 142.825 148.963 142.329 146.284C141.761 143.204 141.586 140.08 141.595 136.934ZM143.029 137.052C143.034 140.979 143.232 144.507 144.146 147.938C144.784 150.332 145.673 152.582 147.371 154.355C148.781 155.825 150.397 156.422 152.345 155.974C153.941 155.607 155.309 154.785 156.589 153.738C159.476 151.374 161.66 148.344 163.52 145.014C167.125 138.563 169.591 131.599 171.185 124.273C172.742 117.111 173.574 109.87 172.767 102.492C172.442 99.5265 171.819 96.6547 170.507 94.0157C168.364 89.7056 164.886 88.6138 160.969 90.9731C159.501 91.8569 158.219 93.0081 157.078 94.3375C154.691 97.1226 152.686 100.212 151.074 103.584C146.01 114.19 143.198 125.439 143.029 137.05V137.052Z" fill="#151312"/>
<path d="M154.194 196.179C150.862 196.021 147.989 195.466 145.365 193.825C139.491 190.153 138.746 183.184 143.817 178.273C147.709 174.502 152.446 173.369 157.518 173.755C160.416 173.975 163.148 174.884 165.54 176.79C170.066 180.404 170.62 186.227 166.765 190.681C163.273 194.714 158.727 195.964 154.199 196.182L154.194 196.179ZM155.551 175.097C151.837 175.27 148 176.307 144.82 179.303C140.537 183.34 140.953 188.99 145.729 192.285C146.111 192.55 146.502 192.812 146.92 192.998C153.137 195.736 159.027 195.115 164.528 190.871C165.919 189.799 166.883 188.289 167.515 186.596C168.656 183.546 167.551 180.261 164.696 177.988C162.091 175.916 159.084 175.255 155.549 175.094L155.551 175.097Z" fill="#151312"/>
<path d="M165.794 78.596C164.271 78.6603 162.477 78.4128 160.804 77.5513C158.045 76.1327 157.472 73.5556 159.297 70.8868C160.029 69.8173 160.959 68.9682 161.991 68.2725C166.314 65.3686 171.018 64.1753 176.073 64.7224C177.201 64.8437 178.303 65.1681 179.312 65.7672C181.69 67.1832 182.229 69.5599 180.704 71.9885C179.697 73.5902 178.296 74.7117 176.746 75.6004C173.42 77.5042 169.886 78.5762 165.796 78.596H165.794ZM165.955 77.0883C169.64 77.0437 173.109 76.0832 176.337 74.1274C177.198 73.6051 177.998 72.9936 178.703 72.2435C181.017 69.7802 180.59 67.6759 177.546 66.6188C176.905 66.396 176.228 66.2425 175.559 66.1831C171.229 65.7944 167.176 66.8243 163.382 69.1043C162.318 69.7431 161.348 70.5204 160.572 71.5503C159.068 73.5481 159.39 75.1944 161.529 76.2689C162.925 76.9695 164.43 77.123 165.955 77.0908V77.0883Z" fill="#151312"/>
<path d="M99.7219 125.603C99.1445 138.093 96.0075 149.696 89.5449 160.131C88.5288 161.772 87.3376 163.263 85.9646 164.575C85.1645 165.34 84.3052 166.013 83.3482 166.511C80.509 167.981 77.954 167.13 76.3832 164.146C75.1512 161.809 74.7284 159.212 74.6079 156.566C74.1624 146.829 76.3423 137.649 79.7293 128.75C81.1205 125.093 82.8618 121.63 85.0008 118.421C86.5648 116.074 88.3219 113.938 90.7588 112.601C93.8139 110.922 96.3667 111.749 98.0102 115.032C99.2695 117.55 99.6127 120.32 99.7173 123.137C99.7491 123.959 99.7219 124.784 99.7219 125.605V125.603ZM98.3739 126.118C98.3239 122.929 98.3079 120.29 97.5805 117.738C96.1825 112.834 93.1683 111.9 89.5767 115.27C87.6718 117.057 86.0897 119.159 84.778 121.486C79.7021 130.482 76.9038 140.306 76.0241 150.783C75.749 154.066 75.7763 157.375 76.5628 160.601C77.9131 166.142 81.0523 167.194 84.9963 163.438C87.0671 161.468 88.6788 159.081 90.0563 156.507C95.1687 146.941 97.9442 136.63 98.3761 126.118H98.3739Z" fill="#151312"/>
<path d="M79.4849 201.683C76.6275 201.556 74.052 200.749 71.8857 198.744C68.1486 195.286 67.819 189.785 71.0832 185.799C75.1727 180.808 83.3629 180.261 87.9797 184.672C91.6781 188.205 91.9691 193.694 88.6094 197.615C86.1384 200.499 82.9742 201.626 79.4849 201.683ZM79.5803 200.244C82.6764 200.076 85.5042 199.113 87.666 196.506C90.3893 193.221 90.1779 188.933 87.2023 185.947C83.0037 181.736 75.2568 182.41 71.747 187.294C69.5807 190.307 69.7489 194.199 72.188 196.952C74.1952 199.214 76.7434 200.066 79.5803 200.244Z" fill="#151312"/>
<path d="M103.954 93.2713C104.461 93.3282 105.159 93.3035 105.802 93.4966C107.932 94.1378 108.56 96.1381 107.244 98.0642C106.889 98.584 106.446 99.0643 105.966 99.4456C103.318 101.547 100.356 102.572 97.0644 102.335C95.8164 102.246 94.6003 101.894 94.1093 100.488C93.5819 98.9777 94.2684 97.7522 95.2959 96.7892C97.7304 94.5116 100.592 93.4223 103.954 93.2738V93.2713ZM98.0146 100.859C100.863 100.782 103.368 99.7773 105.539 97.8315C106.121 97.3116 106.737 96.6679 106.391 95.7494C106.098 94.9696 105.346 94.9151 104.652 94.8607C101.822 94.6354 99.2785 95.5142 96.9939 97.2893C96.2142 97.8958 95.1618 98.5692 95.5096 99.7946C95.871 101.065 97.1099 100.728 98.0146 100.857V100.859Z" fill="#151312"/>
<path d="M70.392 343.426C68.6871 344.463 67.0732 345.669 65.1705 346.32C60.3469 347.968 56.4756 346.127 54.4275 341.074C53.0568 337.689 52.7613 334.09 52.9318 330.458C53.1773 325.262 54.1775 320.214 55.7687 315.305C55.9187 314.844 55.9846 314.354 56.0892 313.876C57.9737 309.4 59.7354 304.862 62.2268 300.713C64.7204 296.557 67.5187 292.702 70.9921 289.459C73.0811 287.508 75.3816 285.981 78.0412 285.146C82.5921 283.72 86.3064 285.57 88.3 290.263C89.698 293.559 90.1163 297.094 89.8935 300.632C88.9956 314.901 83.9923 327.354 75.5112 338.202C73.9859 340.153 72.1651 341.762 70.392 343.426ZM54.282 331.921C54.282 334.989 54.8094 338.284 55.6414 340.388C57.3326 344.668 60.6355 346.3 64.7068 344.881C66.0139 344.426 67.2164 343.75 68.3757 342.965C71.3081 340.982 73.7267 338.37 75.843 335.449C82.9444 325.65 87.3339 314.602 88.4478 302.124C88.7728 298.497 88.5341 294.866 87.2589 291.427C85.5586 286.84 82.2079 285.183 77.9139 286.773C77.2047 287.035 76.5091 287.379 75.8499 287.768C73.0902 289.387 70.7284 291.558 68.6166 294.066C64.4295 299.04 61.2743 304.736 58.8329 310.898C56.1756 317.602 54.4843 324.576 54.2798 331.921H54.282Z" fill="#151312"/>
<path d="M84.0866 268.069C81.5611 267.984 78.4196 266.615 76.0373 263.516C72.739 259.228 73.4164 253.373 77.549 250.046C82.2976 246.226 89.7741 247.164 93.6203 252.066C97.1528 256.567 96.3799 262.731 91.8722 266.019C89.9582 267.415 87.7714 268.088 84.0866 268.064V268.069ZM86.0938 266.608C87.3554 266.68 89.2876 266.058 91.0357 264.811C94.9842 261.993 95.5888 256.71 92.4291 252.89C89.1558 248.934 83.0864 248.001 78.9493 250.816C74.9053 253.569 74.1711 259.047 77.3808 262.897C79.4744 265.41 82.1612 266.526 86.0938 266.605V266.608Z" fill="#151312"/>
<path d="M45.4856 359.995C50.7389 360.035 55.5535 363.934 57.0356 369.398C58.7564 375.738 55.2148 382.296 47.9566 382.137C42.9556 382.029 39.164 379.187 37.0249 374.206C33.9743 367.103 38.2979 359.943 45.4879 359.998L45.4856 359.995ZM45.3606 361.5C39.7391 361.513 36.3134 366.477 37.8796 372.346C39.164 377.159 43.949 380.882 48.5362 380.635C54.3033 380.325 57.5607 374.792 55.4308 368.922C53.8441 364.548 49.6978 361.493 45.3629 361.5H45.3606Z" fill="#151312"/>
<path d="M398.002 99.8805C397.952 102.522 396.625 103.398 395.015 102.081C392.038 99.6478 390.458 96.2438 389.937 92.258C389.826 91.4113 389.987 90.5399 390.724 90.0843C391.519 89.5942 392.36 89.8071 393.051 90.4087C395.975 92.9536 397.439 96.3725 398 99.878L398.002 99.8805Z" fill="white"/>
<path d="M388.89 89.2094C388.84 90.3532 387.658 91.4325 386.508 91.383C385.474 91.3385 384.801 90.5982 384.801 89.504C384.801 88.1894 385.762 87.1719 386.985 87.1918C388.017 87.2091 388.933 88.1795 388.888 89.2094H388.89Z" fill="white"/>
<path d="M265.778 127.944C266.537 121.896 268.781 116.192 273.057 111.528C273.652 110.88 274.395 110.461 275.171 110.122C276.746 109.431 277.778 109.961 278.312 111.721C278.63 112.766 278.599 113.85 278.421 114.895C277.501 120.327 275.491 125.231 272.284 129.534C271.611 130.435 270.858 131.247 269.958 131.863C267.876 133.292 266.242 132.48 265.894 129.853C265.83 129.368 265.832 128.87 265.778 127.944Z" fill="white"/>
<path d="M304.101 144.945C304.147 147.438 303.881 149.881 303.158 152.248C302.849 153.261 302.51 154.276 302.058 155.219C298.975 161.655 292.997 162.505 288.544 157.108C284.943 152.743 283.561 147.408 283.177 141.704C282.977 138.724 283.324 135.782 284.1 132.918C284.661 130.844 285.527 128.925 286.866 127.306C289.271 124.392 292.494 123.756 295.709 125.511C297.37 126.42 298.675 127.776 299.75 129.395C302.83 134.037 304.074 139.295 304.103 144.95L304.101 144.945ZM302.737 145.485C302.776 140.107 301.757 135.607 299.478 131.475C298.409 129.541 297.05 127.888 295.218 126.779C292.985 125.427 290.635 125.704 288.68 127.511C287.38 128.712 286.505 130.242 285.882 131.948C284.106 136.802 284.143 141.751 285.268 146.75C286.07 150.322 287.377 153.629 289.778 156.301C293.622 160.576 298.102 159.915 300.748 154.694C301.148 153.907 301.453 153.053 301.735 152.203C302.519 149.852 302.794 147.408 302.74 145.487L302.737 145.485Z" fill="#151312"/>
<path d="M304.097 120.416C304.097 121.956 303.517 122.392 302.497 121.941C302.224 121.82 301.951 121.639 301.737 121.421C299.955 119.594 298.607 117.473 297.946 114.863C297.743 114.064 297.778 113.368 298.394 112.888C298.914 112.482 299.455 112.935 299.835 113.244C302.16 115.133 303.517 117.7 304.095 120.416H304.097Z" fill="white"/>
<path d="M281.262 108.734C279.889 108.776 279.038 107.828 279.043 106.264C279.05 104.449 280.286 103.006 281.821 103.023C283.032 103.035 283.919 104.013 283.969 105.392C284.033 107.093 282.739 108.69 281.259 108.737L281.262 108.734Z" fill="white"/>
<path d="M128.138 350.733C128.699 333.388 133.043 317.331 142.104 302.93C144.816 298.623 148.012 294.771 152.108 291.936C153.19 291.188 154.316 290.475 155.493 289.938C160.719 287.561 165.595 289.106 168.893 294.132C170.912 297.204 172.017 300.697 172.71 304.354C174.185 312.135 173.899 319.933 172.701 327.704C170.735 340.451 166.745 352.362 160.003 363.081C157.509 367.047 154.627 370.639 151.058 373.523C149.162 375.056 147.137 376.314 144.843 377.009C140.47 378.339 136.776 377.148 133.791 373.434C131.65 370.771 130.447 367.574 129.613 364.208C128.522 359.803 128.065 355.31 128.135 350.73L128.138 350.733Z" fill="#D3E6EB"/>
<path d="M126.571 416.103C121.961 415.902 117.86 414.29 114.43 410.854C113.366 409.79 112.484 408.564 111.802 407.17C109.293 402.043 110.722 396.706 115.394 393.886C118.353 392.099 121.556 391.755 124.843 392.193C129.699 392.841 133.761 395.117 136.771 399.407C140.667 404.965 139.185 411.547 133.39 414.62C131.222 415.768 128.928 416.061 126.569 416.105L126.571 416.103Z" fill="#D3E6EB"/>
<path d="M158.916 270.476C156.659 270.429 153.41 269.506 150.526 267.335C144.809 263.03 144.734 255.766 150.339 251.335C156.031 246.836 165.267 246.945 170.746 251.58C175.813 255.863 175.813 262.544 170.748 266.852C168.145 269.065 163.899 270.521 158.916 270.476Z" fill="#D3E6EB"/>
<path d="M143.02 137.045C143.186 125.434 146 114.185 151.065 103.579C152.676 100.205 154.681 97.1154 157.068 94.3327C158.209 93.0008 159.491 91.8521 160.96 90.9683C164.877 88.609 168.354 89.7033 170.498 94.0109C171.81 96.6499 172.433 99.5217 172.758 102.488C173.565 109.865 172.733 117.106 171.175 124.268C169.582 131.594 167.116 138.558 163.51 145.009C161.651 148.337 159.464 151.369 156.579 153.733C155.3 154.781 153.931 155.603 152.335 155.969C150.387 156.417 148.771 155.82 147.362 154.35C145.664 152.577 144.775 150.327 144.136 147.933C143.222 144.502 143.025 140.974 143.02 137.048V137.045Z" fill="#D3E6EB"/>
<path d="M155.558 175.097C159.09 175.258 162.098 175.916 164.705 177.991C167.56 180.263 168.665 183.549 167.524 186.599C166.89 188.292 165.926 189.802 164.537 190.874C159.036 195.115 153.146 195.739 146.929 193.001C146.513 192.817 146.12 192.552 145.738 192.288C140.962 188.992 140.544 183.341 144.829 179.305C148.006 176.31 151.844 175.272 155.56 175.099L155.558 175.097Z" fill="#D3E6EB"/>
<path d="M165.946 77.0895C164.42 77.1216 162.916 76.9682 161.52 76.2675C159.381 75.1931 159.058 73.5468 160.563 71.549C161.338 70.5191 162.309 69.7417 163.373 69.103C167.166 66.8229 171.22 65.7931 175.55 66.1818C176.22 66.2412 176.896 66.3947 177.537 66.6175C180.58 67.6746 181.006 69.7789 178.694 72.2421C177.989 72.9923 177.189 73.6062 176.327 74.1261C173.097 76.0819 169.631 77.0424 165.946 77.087V77.0895Z" fill="#D3E6EB"/>
<path d="M98.3594 126.119C97.9275 136.63 95.1519 146.944 90.0396 156.507C88.6643 159.082 87.0504 161.466 84.9795 163.439C81.0333 167.194 77.8963 166.145 76.5461 160.602C75.7595 157.376 75.7323 154.066 76.0073 150.783C76.887 140.306 79.6853 130.483 84.7613 121.487C86.0729 119.159 87.655 117.055 89.5599 115.27C93.1516 111.901 96.168 112.837 97.5638 117.738C98.2912 120.291 98.3071 122.93 98.3571 126.119H98.3594Z" fill="#D3E6EB"/>
<path d="M79.5828 200.25C76.7436 200.071 74.1954 199.22 72.1904 196.957C69.7513 194.207 69.5831 190.312 71.7494 187.3C75.2592 182.418 83.0062 181.742 87.2047 185.953C90.1803 188.936 90.3894 193.226 87.6684 196.511C85.5089 199.118 82.6788 200.081 79.5828 200.25Z" fill="#D3E6EB"/>
<path d="M98.0202 100.858C97.1132 100.729 95.8766 101.065 95.5152 99.7955C95.1674 98.57 96.2199 97.8942 96.9996 97.2901C99.2818 95.5151 101.828 94.6362 104.658 94.8615C105.351 94.9159 106.104 94.9704 106.397 95.7502C106.742 96.6712 106.126 97.3124 105.544 97.8323C103.374 99.7756 100.868 100.781 98.0202 100.86V100.858Z" fill="#D3E6EB"/>
<path d="M54.2778 331.923C54.4824 324.577 56.1714 317.603 58.831 310.899C61.2746 304.737 64.4298 299.041 68.6147 294.067C70.7265 291.56 73.0883 289.388 75.8479 287.769C76.5094 287.381 77.2027 287.037 77.912 286.774C82.206 285.182 85.5566 286.838 87.257 291.428C88.5322 294.867 88.7686 298.499 88.4458 302.126C87.332 314.603 82.9425 325.652 75.8411 335.45C73.7225 338.372 71.3061 340.983 68.3737 342.966C67.2144 343.751 66.0097 344.427 64.7049 344.883C60.6336 346.301 57.3307 344.67 55.6395 340.389C54.8075 338.285 54.2778 334.99 54.2801 331.923H54.2778Z" fill="#D3E6EB"/>
<path d="M86.0926 266.608C82.1578 266.529 79.4732 265.41 77.3796 262.899C74.1699 259.05 74.9041 253.571 78.9481 250.818C83.0852 248.003 89.1546 248.937 92.428 252.893C95.5877 256.713 94.983 261.993 91.0345 264.813C89.2864 266.061 87.3543 266.682 86.0926 266.61V266.608Z" fill="#D3E6EB"/>
<path d="M45.3615 361.496C49.6964 361.486 53.8427 364.543 55.4293 368.918C57.5593 374.787 54.3019 380.32 48.5348 380.63C43.9476 380.877 39.1626 377.154 37.8782 372.341C36.3143 366.474 39.7399 361.508 45.3592 361.496H45.3615Z" fill="#D3E6EB"/>
<path d="M302.737 145.477C302.792 147.398 302.517 149.842 301.733 152.193C301.451 153.043 301.146 153.897 300.746 154.684C298.1 159.905 293.62 160.566 289.776 156.291C287.375 153.622 286.071 150.312 285.266 146.74C284.143 141.744 284.104 136.792 285.88 131.938C286.502 130.232 287.378 128.702 288.678 127.501C290.633 125.697 292.983 125.417 295.216 126.769C297.048 127.878 298.407 129.531 299.475 131.465C301.755 135.594 302.774 140.097 302.735 145.475L302.737 145.477ZM291.297 135.379C291.297 134.782 291.333 134.042 291.288 133.307C291.235 132.502 290.812 131.896 290.121 131.651C289.521 131.438 289.178 132.029 288.805 132.416C287.198 134.079 286.184 139.221 287.018 141.422C287.653 143.091 288.757 143.296 289.671 141.793C290.812 139.917 291.513 137.842 291.297 135.379ZM293.577 129.635C293.552 128.836 293.167 128.457 292.442 128.554C291.767 128.643 291.333 129.063 291.406 129.836C291.476 130.584 291.958 130.943 292.633 130.943C293.431 130.94 293.595 130.363 293.574 129.638L293.577 129.635Z" fill="#D3E6EB"/>
<path d="M291.287 135.379C291.503 137.843 290.803 139.917 289.662 141.794C288.748 143.296 287.641 143.091 287.009 141.422C286.175 139.221 287.188 134.08 288.796 132.416C289.168 132.03 289.512 131.438 290.112 131.651C290.803 131.894 291.226 132.5 291.278 133.307C291.326 134.042 291.287 134.785 291.287 135.379Z" fill="white"/>
<path d="M293.569 129.641C293.589 130.367 293.423 130.944 292.628 130.946C291.95 130.946 291.47 130.587 291.4 129.84C291.327 129.067 291.761 128.646 292.437 128.557C293.162 128.461 293.546 128.839 293.571 129.639L293.569 129.641Z" fill="white"/>
</svg>
