<svg width="471" height="399" viewBox="0 0 471 399" fill="none" xmlns="http://www.w3.org/2000/svg">
<path d="M194.273 375.461C194.999 375.844 195.601 375.696 196.173 375.692C215.049 375.639 233.918 376.071 252.779 376.79C264.618 377.24 276.435 377.978 288.241 378.921C299.77 379.844 311.277 381.063 322.651 383.27C325.411 383.804 328.121 384.519 330.782 385.408C331.792 385.745 332.803 386.128 333.636 386.828C334.836 387.842 334.843 389.038 333.651 390.053C332.663 390.889 331.459 391.321 330.252 391.714C326.618 392.899 322.863 393.565 319.097 394.114C307.106 395.863 295.035 396.733 282.946 397.418C256.87 398.898 230.776 399.194 204.67 398.785C194.568 398.626 184.462 398.38 174.363 397.982C163.534 397.559 152.712 397.002 141.902 396.226C132.629 395.564 123.37 394.78 114.146 393.664C107.25 392.827 100.365 391.881 93.6235 390.125C92.0072 389.704 90.3948 389.239 88.9413 388.391C86.8255 387.161 86.8028 385.575 88.8846 384.262C90.6598 383.141 92.6772 382.615 94.6871 382.108C99.233 380.965 103.87 380.31 108.506 379.678C109.146 379.591 109.846 379.719 110.399 379.216C110.036 378.527 109.305 378.455 108.722 378.198C77.8586 364.545 46.9875 350.911 16.1163 337.281C14.2692 336.467 12.5243 335.487 10.9724 334.2C8.59536 332.228 6.95263 329.832 6.25996 326.728C4.64373 319.487 2.85717 312.284 1.17659 305.055C0.306024 301.3 0.555839 297.629 2.14936 294.063C3.61419 290.781 5.57486 287.825 8.12601 285.335C22.9219 270.883 37.7632 256.481 52.5894 242.06C57.5327 237.253 62.4685 232.442 67.4156 227.639C67.9341 227.135 68.4905 226.666 69.1681 226.053C66.9765 224.887 64.978 224.8 62.9189 225.246C62.529 225.33 62.1581 225.508 61.7758 225.629C61.4238 225.742 61.102 225.655 60.8825 225.364C60.6024 224.989 60.6781 224.584 60.9847 224.274C61.2648 223.994 61.6092 223.774 61.9348 223.539C65.5154 220.969 66.9538 217.143 65.9583 212.786C65.3981 210.322 64.2096 208.172 62.5782 206.26C62.3171 205.954 62.0256 205.678 61.7682 205.367C61.5298 205.076 61.5449 204.746 61.7417 204.44C61.9802 204.069 62.3435 203.876 62.7637 203.989C63.0741 204.073 63.3693 204.273 63.6343 204.466C68.2256 207.816 73.9221 206.446 77.6693 203.176C79.6641 201.434 81.1592 199.311 82.2304 196.889C82.4196 196.465 82.5862 196.007 82.8776 195.655C83.3205 195.121 83.8239 195.178 84.1418 195.81C84.3197 196.162 84.3954 196.571 84.4939 196.957C85.213 199.83 86.7384 202.229 88.7899 204.319C90.0239 205.575 90.0504 205.575 91.2994 204.364C94.759 201.007 98.1996 197.634 101.652 194.273C107.696 188.391 113.741 182.513 119.786 176.631C120.021 176.404 120.236 176.154 120.452 175.923C120.172 175.219 119.635 175.567 119.237 175.59C114.494 175.87 109.756 176.169 105.005 175.666C103.272 175.484 101.565 175.174 99.8802 174.738C99.4298 174.621 98.9869 174.451 98.5554 174.273C94.4259 172.562 93.4267 169.572 95.7431 165.756C97.0073 163.671 98.7447 161.994 100.577 160.419C105.929 155.813 111.928 152.164 118.075 148.75C126.383 144.136 134.972 140.097 143.704 136.373C145.006 135.816 145.43 135.146 145.517 133.746C146.705 113.844 157.224 100.687 175.321 93.3211C184.905 89.4187 194.867 89.2181 204.867 91.7162C206.154 92.0379 206.919 91.8109 207.838 90.91C223.637 75.4706 239.467 60.0691 255.292 44.6601C266.802 33.4524 278.37 22.3054 289.789 11.0107C294.948 5.90838 300.929 2.54723 308.03 1.18081C314.525 -0.068263 320.812 0.650903 326.864 3.33074C369.333 22.1388 411.801 40.9469 454.266 59.755C455.549 60.3227 456.848 60.864 458.085 61.5188C462.06 63.6158 464.459 66.9428 465.417 71.2957C467.037 78.6728 468.559 86.0764 470.213 93.446C470.974 96.8374 470.614 100.085 469.501 103.306C467.62 108.757 464.187 113.17 460.118 117.125C441.545 135.18 422.948 153.212 404.371 171.26C359.965 214.402 315.569 257.552 271.167 300.698C246.159 324.998 221.143 349.299 196.135 373.599C195.533 374.186 194.943 374.784 194.276 375.446L194.273 375.461ZM218.762 349.174C219.027 349.166 219.175 349.007 219.266 348.776C220.318 347.845 221.408 346.952 222.415 345.975C231.45 337.217 240.473 328.443 249.497 319.677C268.218 301.486 286.943 283.294 305.664 265.103C324.673 246.632 343.685 228.161 362.69 209.682C375.12 197.596 387.539 185.503 399.973 173.421C419.89 154.06 439.815 134.703 459.732 115.343C462.832 112.33 465.41 108.927 467.2 104.975C468.903 101.228 469.653 97.3636 468.574 93.2605C468.048 91.2582 467.749 89.1954 467.26 87.1817C466.545 84.2483 466.129 81.2391 465.122 77.9726C463.279 84.657 459.584 89.7442 454.951 94.2371C437.801 110.876 420.655 127.519 403.512 144.17C384.643 162.497 365.779 180.832 346.914 199.163C328.193 217.354 309.472 235.546 290.747 253.74C271.738 272.212 252.729 290.683 233.717 309.154C219.652 322.822 205.586 336.486 191.528 350.162C190.669 350.998 189.708 351.744 189.038 352.766C185.722 355.578 182.77 358.777 179.662 361.808C175.748 365.62 171.43 368.845 166.414 371.055C157.947 374.784 149.321 375.374 140.721 371.71C131.126 367.626 121.641 363.288 112.106 359.064C102.571 354.84 93.033 350.62 83.4946 346.407C72.5481 341.573 61.5979 336.751 50.6476 331.921C40.496 327.444 30.318 323.015 20.2004 318.454C14.7423 315.994 8.9398 314.166 4.26901 310.184C4.25008 310.127 4.24251 310.063 4.20466 310.021C4.18573 309.998 4.08732 309.998 4.08732 310.002C4.04947 310.131 4.1176 310.187 4.28036 310.172C4.12139 310.778 4.24251 311.368 4.37877 311.955C5.55593 316.963 6.7331 321.967 7.91783 326.971C8.32662 328.7 9.15555 330.192 10.3819 331.494C11.9641 333.17 13.7544 334.537 15.8627 335.479C21.1732 337.849 26.4837 340.222 31.8017 342.576C45.129 348.47 58.4638 354.352 71.7911 360.241C83.593 365.457 95.3873 370.681 107.189 375.893C119.661 381.404 132.178 386.82 144.593 392.46C150.256 395.034 156.089 396.098 162.168 395.197C169.866 394.054 176.441 390.42 182.096 385.143C185.715 381.767 189.231 378.285 192.778 374.829C200.825 366.986 208.864 359.132 216.896 351.271C217.358 350.82 218.005 350.48 218.073 349.719L218.088 349.685C218.459 349.7 218.694 349.533 218.777 349.166H218.77L218.762 349.174ZM109.922 155.597C109.672 155.563 109.509 155.65 109.472 155.911C108.911 155.942 108.503 156.195 108.276 156.717H108.272C107.712 156.748 107.288 156.982 107.076 157.527C103.362 159.598 100.164 162.293 97.6092 165.677C94.8688 169.31 95.6939 171.748 100.051 173.198C102.738 174.095 105.531 174.337 108.344 174.413C115.986 174.617 123.552 173.792 131.084 172.66C143.836 170.745 156.407 167.936 168.867 164.636C171.884 163.837 174.972 163.243 177.868 162.013C177.982 162.036 178.08 162.009 178.167 161.933C178.644 162.009 179.087 161.964 179.439 161.589C179.704 161.543 179.973 161.525 180.226 161.449C205.545 154.269 230.273 145.461 254.175 134.416C263.778 129.98 273.176 125.157 281.897 119.12C284.653 117.213 287.299 115.169 289.589 112.701C290.686 111.52 291.712 110.286 292.28 108.745C292.98 106.849 292.552 105.539 290.853 104.434C289.6 103.617 288.188 103.208 286.742 102.909C283.112 102.152 279.437 102.072 275.754 102.182C269.055 102.379 262.415 103.208 255.811 104.26C250.928 105.04 246.041 105.827 241.238 107.038C237.93 107.704 234.622 108.371 231.086 109.082C231.715 110.036 232.245 110.789 232.722 111.577C233.051 112.122 233.49 112.277 234.073 112.125C236.064 111.611 238.055 111.092 240.049 110.574C240.443 110.505 240.844 110.452 241.23 110.362C247.476 108.882 253.744 107.504 260.122 106.701C262.385 106.417 264.656 106.296 266.927 106.554C267.73 106.645 268.551 106.898 268.884 107.75C269.248 108.681 268.812 109.449 268.173 110.1C267.752 110.528 267.298 110.929 266.829 111.3C265.459 112.379 263.96 113.265 262.438 114.109C256.878 117.194 251.079 119.786 245.231 122.262C225.394 130.657 205.087 137.769 184.549 144.23C167.523 149.586 150.407 154.617 132.894 158.163C128.242 159.106 123.575 160.014 118.79 159.961C117.92 159.95 117.049 159.954 116.217 159.636C114.797 159.098 114.441 158.061 115.289 156.797C115.815 156.01 116.561 155.423 117.322 154.874C118.896 153.735 120.562 152.747 122.273 151.823C128.927 148.224 135.88 145.271 142.852 142.357C145.903 141.081 145.907 141.096 145.543 137.834C145.525 137.667 145.472 137.576 145.494 137.576C144.737 137.501 144.279 137.826 143.806 138.034C138.469 140.347 133.185 142.773 127.973 145.358C122.042 148.303 116.186 151.38 110.69 155.097C110.35 155.097 110.073 155.203 109.967 155.567L109.93 155.59L109.922 155.597ZM164.946 148.364C165.54 148.405 166.123 148.398 166.604 147.966C173.106 146.221 179.571 144.355 185.892 142.012C186.233 141.982 186.57 141.948 186.801 141.641L186.918 141.653L187.02 141.592C187.781 141.653 188.463 141.361 189.159 141.13C192.46 140.04 195.76 138.962 199.057 137.864C210.98 133.893 222.808 129.665 234.501 125.059C235.856 124.524 236.335 123.575 235.939 122.213C235.844 121.891 235.727 121.581 235.617 121.263C233.596 115.502 230.492 110.392 226.317 105.944C224.864 104.392 223.388 102.844 221.487 101.803L221.457 101.777C221.457 101.542 221.34 101.429 221.109 101.429C220.318 100.596 219.36 99.9753 218.403 99.3697C207.312 92.3483 195.306 90.0319 182.509 92.9312C166.763 96.4968 155.479 105.615 149.552 120.824C146.641 128.299 146.236 136.036 148.11 143.863C148.076 144.087 148.136 144.265 148.356 144.371V144.386C148.572 146.895 149.612 149.14 150.574 151.418C150.888 152.168 151.32 152.368 152.141 152.13C155.025 151.293 157.943 150.567 160.828 149.738C162.224 149.337 163.701 149.155 164.969 148.36L164.953 148.368L164.946 148.364ZM93.8165 209.482C88.8013 207.362 85.3796 203.652 83.2599 198.539C79.1152 205.363 73.7934 209.326 65.3375 207.347C67.8584 211.537 68.4527 215.757 66.9424 220.201C66.2838 221.181 65.6252 222.162 64.8606 223.297C66.9386 223.611 68.816 223.997 70.5458 224.872C72.2264 225.72 73.7556 226.791 75.1182 228.097C76.4846 229.406 77.4952 231.015 78.6913 232.779C80.035 229.296 82.0752 226.919 85.1865 225.553C88.3546 224.164 91.5228 224.607 94.8726 225.856C93.9339 222.983 93.5175 220.367 93.9717 217.672C94.4411 214.909 95.8567 212.634 98.0558 210.375C96.3222 210.288 95.0732 209.86 93.8127 209.474L93.8165 209.482ZM354.42 170.344C353.621 171.279 353.273 172.441 352.853 173.557C351.743 176.502 350.873 179.511 350.316 182.615C350.086 183.898 349.76 185.219 350.873 186.173C351.978 187.123 353.276 186.608 354.488 186.226C354.866 186.105 355.222 185.908 355.589 185.741C357.667 184.791 359.556 183.542 361.411 182.218C365.075 179.598 368.171 176.339 371.396 173.243C379.121 165.84 386.729 158.315 394.394 150.847C395.734 149.541 397.123 148.288 398.474 146.99C399.572 145.938 400.643 144.855 401.945 143.568C398.784 142.834 395.953 143.201 393.126 143.451C391.918 143.417 390.737 143.629 389.553 143.829C374.227 146.418 362.796 154.503 355.29 168.122C354.904 168.822 354.514 169.526 354.42 170.34V170.344ZM294.418 238.396C294.933 241.023 295.41 243.657 295.686 246.632C296.379 246.004 296.776 245.663 297.155 245.296C304.865 237.809 312.583 230.326 320.278 222.82C321.274 221.851 322.417 221.015 323.174 219.815C325.611 217.688 327.992 215.5 330.138 213.07C334.616 209.065 338.867 204.83 343.076 200.549C344.431 199.281 345.778 198.001 347.145 196.745C347.625 196.302 347.784 195.783 347.788 195.147C347.803 192.82 347.849 190.496 347.883 188.168C348.447 183.675 349.192 179.224 350.653 174.912C353.106 167.668 357.027 161.328 362.289 155.798C362.451 155.684 362.633 155.586 362.773 155.449C373.701 144.893 386.873 140.729 401.854 141.812C403.012 141.895 403.856 141.664 404.708 140.835C421.389 124.578 438.115 108.367 454.785 92.0985C458.914 88.0674 462.124 83.408 463.502 77.6887C465.198 70.6712 462.397 65.0692 455.814 62.1585C432.282 51.742 408.751 41.3141 385.219 30.8899C365.722 22.2524 346.187 13.7019 326.747 4.9394C313.98 -0.817709 300.391 2.96737 292.42 10.6927C264.88 37.3851 237.445 64.1873 209.977 90.9554C209.466 91.455 208.815 91.8563 208.561 92.6133C208.981 93.0296 209.511 93.1091 209.992 93.2908C217.381 96.1145 223.74 100.433 228.887 106.459C229.659 107.36 230.386 107.92 231.597 107.402C231.896 107.273 232.256 107.288 232.581 107.212C243.218 104.797 253.91 102.712 264.758 101.508C270.951 100.823 277.162 100.418 283.389 100.94C286.197 101.175 288.983 101.603 291.477 103.045C293.968 104.483 294.721 106.72 293.676 109.385C293.309 110.324 292.783 111.179 292.166 111.978C291.057 113.412 289.801 114.707 288.442 115.903C284.252 119.59 279.596 122.61 274.8 125.419C263.646 131.959 251.923 137.342 240.004 142.308C238.914 142.762 238.327 143.364 238.04 144.537C236.113 152.399 232.154 159.125 226.472 164.863C225.723 165.62 224.973 166.377 224.224 167.134C223.845 167.403 223.456 167.653 223.088 167.94C209.655 178.41 194.712 181.302 178.303 176.911C174.469 175.885 170.953 174.125 167.429 172.373C165.797 171.226 164.109 170.147 162.554 168.905C161.71 168.232 160.956 168.179 159.98 168.413C148.363 171.214 136.667 173.595 124.79 174.973C123.73 175.094 122.871 175.469 122.333 176.426C122.171 176.54 121.993 176.631 121.853 176.767C111.992 186.362 102.136 195.965 92.2836 205.564C92.0148 205.825 91.6552 206.033 91.6893 206.597C94.1155 208.183 96.7992 209.035 99.7629 208.895C100.615 208.853 101.387 208.812 101.716 209.803C101.402 210.36 100.808 210.553 100.312 210.871C96.6023 213.255 95.0126 216.647 95.4971 221.022C95.3381 221.772 95.569 222.476 95.728 223.191C96.0838 224.769 96.7083 226.238 97.5221 227.631C97.7909 228.089 97.8628 228.52 97.3972 228.865C97.0036 229.156 96.6364 228.937 96.3109 228.683C95.2435 227.854 94.0663 227.234 92.7908 226.806C87.1056 224.898 81.3787 228.097 80.1713 233.846C79.7209 234.315 79.8798 234.974 79.6527 235.508C79.4938 235.886 79.2212 236.189 78.7746 236.178C78.4226 236.166 78.1993 235.917 78.01 235.633C77.7186 235.197 77.798 234.588 77.3363 234.24C76.2802 231.06 74.0584 228.85 71.352 227.033C70.8978 226.726 70.5269 226.726 70.1295 227.128C67.3815 229.921 64.3988 232.48 61.7985 235.421C61.208 235.644 60.8598 236.159 60.4359 236.571C52.3358 244.448 44.2395 252.332 36.1583 260.228C35.0607 261.299 33.8646 262.276 32.9448 263.517C32.7783 263.623 32.5852 263.703 32.449 263.839C24.5343 271.538 16.5857 279.199 8.7354 286.962C6.10099 289.57 4.13653 292.697 2.97451 296.266C1.05926 302.159 2.80796 307.311 7.90269 310.846C9.39779 311.883 11.0405 312.621 12.6946 313.352C33.4785 322.542 54.2624 331.74 75.0501 340.919C97.1852 350.695 119.324 360.457 141.459 370.223C146.039 372.244 150.843 372.849 155.782 372.297C163.935 371.385 170.79 367.709 176.763 362.244C178.837 360.347 180.809 358.341 182.823 356.384C199.859 339.828 216.896 323.272 233.921 306.709C234.315 306.327 234.94 306.062 234.875 305.365C234.459 304.987 233.967 305.013 233.516 304.903C224.285 302.704 216.423 298.136 209.871 291.281C208.16 289.491 206.729 287.473 205.14 285.588C205.056 285.406 204.996 285.213 204.89 285.051C194.409 268.605 193.315 251.326 200.283 233.328C201.638 229.834 203.622 226.658 205.461 223.414C206.873 221.647 208.266 219.864 209.701 218.111C211.862 215.466 214.496 213.297 216.979 210.98C217.691 210.496 218.406 210.019 219.118 209.531C232.449 200.405 246.821 197.725 262.404 202.54C265.606 203.528 268.54 205.114 271.538 206.567C275.928 209.417 279.918 212.74 283.457 216.601C288.71 223.059 292.412 230.299 294.422 238.388L294.418 238.396ZM281.458 216.961C281.296 216.749 281.152 216.522 280.966 216.333C268.566 203.69 253.695 199.023 236.465 203.24C222.26 206.718 211.612 215.348 204.67 228.097C194.882 246.068 194.712 264.255 204.928 282.223C207.248 286.307 210.219 289.941 213.906 292.924C213.978 293.033 214.031 293.166 214.129 293.249C220.197 298.56 227.188 302 235.068 303.688C236.317 303.957 237.169 303.639 238.089 302.746C252.207 288.972 266.352 275.225 280.516 261.496C282.654 259.426 284.388 257.079 285.811 254.486C288.828 248.99 290.399 243.108 290.376 236.836C290.365 234.035 290.429 231.181 289.21 228.566C287.223 224.311 284.695 220.398 281.466 216.961H281.458ZM170.404 171.869C171.293 172.785 172.247 173.088 173.125 173.47C182.425 177.501 192.085 178.444 201.96 176.385C213.02 174.08 222.176 168.538 229.118 159.522C230.363 157.906 230.223 157.077 228.581 155.919C227.911 155.446 227.18 155.211 226.34 155.173C224.618 155.094 223.058 155.658 221.48 156.214C207.505 161.157 193.398 165.692 179.091 169.587C176.286 170.351 173.47 171.067 170.4 171.873L170.404 171.869ZM234.145 113.863C235.579 116.766 236.912 119.612 237.695 122.667C237.96 123.7 238.535 123.397 239.205 123.121C246.257 120.241 253.271 117.269 260.016 113.711C262.026 112.652 264.017 111.546 265.815 110.142C266.428 109.665 267.117 109.226 267.37 108.31C266.314 107.765 265.247 107.761 264.202 107.841C262.468 107.969 260.739 108.136 259.017 108.374C252.26 109.321 245.617 110.838 239.005 112.504C237.4 112.909 235.742 113.155 234.145 113.859V113.863ZM146.085 142.72C141.357 144.579 136.823 146.502 132.345 148.557C128.034 150.533 123.734 152.539 119.741 155.12C118.9 155.661 118.105 156.282 117.337 156.918C117.004 157.191 116.508 157.497 116.739 158.057C116.924 158.5 117.417 158.421 117.791 158.459C119.127 158.606 120.464 158.531 121.796 158.398C128.526 157.736 135.093 156.18 141.671 154.7C142.205 154.579 142.667 154.348 143.064 153.958C144.446 152.599 145.82 151.229 147.243 149.916C147.826 149.378 147.875 148.856 147.652 148.14C147.114 146.426 146.649 144.688 146.085 142.724V142.72ZM149.321 152.641C149.207 151.956 149.026 151.373 148.613 151.013C147.765 151.96 147.023 152.789 146.365 153.523C147.228 153.303 148.337 153.228 149.321 152.641Z" fill="#141212"/>
<path d="M102.398 118.364C94.434 118.409 87.8139 111.982 87.9047 104.049C88.0145 94.4422 95.8345 89.533 102.254 89.5973C110.293 89.6768 116.702 95.926 116.724 103.905C116.747 111.918 110.407 118.315 102.398 118.36V118.364ZM91.3681 110.211L91.3529 110.203C91.3227 110.57 91.4097 110.869 91.8185 110.968C91.7352 111.502 92.1024 111.827 92.3976 112.179C98.484 119.484 109.684 118.231 113.87 109.685C115.366 106.634 115.888 103.367 114.351 100.086L114.359 100.101C114.423 99.624 114.359 99.1887 113.973 98.8556C111.902 93.0796 104.271 89.2529 97.2463 92.2279C90.9366 94.9002 87.4922 102.959 90.5997 108.928C90.5997 109.185 90.7019 109.386 90.9252 109.518C90.9252 109.594 90.9517 109.654 91.0123 109.7C91.0123 109.953 91.0993 110.147 91.3719 110.203L91.3681 110.211Z" fill="#141212"/>
<path d="M224.24 167.142C224.989 166.385 225.739 165.628 226.488 164.871C232.17 159.133 236.125 152.407 238.055 144.545C238.343 143.372 238.934 142.77 240.02 142.316C251.939 137.35 263.658 131.967 274.816 125.427C279.612 122.614 284.271 119.598 288.458 115.911C289.816 114.715 291.073 113.42 292.182 111.986C292.799 111.187 293.325 110.332 293.692 109.393C294.737 106.728 293.984 104.491 291.493 103.053C288.999 101.615 286.209 101.183 283.404 100.949C277.174 100.426 270.967 100.831 264.774 101.516C253.926 102.72 243.233 104.806 232.597 107.22C232.272 107.296 231.912 107.281 231.613 107.41C230.402 107.928 229.675 107.368 228.903 106.467C223.752 100.441 217.396 96.1226 210.008 93.2989C209.531 93.1172 209.001 93.0377 208.577 92.6214C208.831 91.8644 209.482 91.4631 209.993 90.9635C237.461 64.1954 264.895 37.3932 292.436 10.7008C300.407 2.97546 313.992 -0.805835 326.763 4.94749C346.203 13.71 365.738 22.2605 385.235 30.898C408.766 41.3221 432.295 51.75 455.83 62.1666C462.412 65.0811 465.213 70.6793 463.518 77.6968C462.136 83.4161 458.93 88.0755 454.801 92.1066C438.131 108.375 421.405 124.586 404.724 140.843C403.872 141.676 403.028 141.903 401.87 141.82C386.889 140.737 373.72 144.901 362.789 155.458C362.649 155.594 362.467 155.692 362.305 155.806C361.366 154.602 360.037 155.079 358.966 155.272C356.858 155.654 354.727 155.673 352.615 155.87C350.435 156.071 348.22 156.218 346.055 156.457C342.49 156.85 338.909 157.165 335.343 157.467C331.369 157.804 327.402 158.277 323.405 158.463C321.702 158.539 319.957 158.664 318.239 158.864C315.994 159.125 313.753 159.432 311.501 159.538C309.503 159.629 307.546 160.178 305.528 160.003C305.101 159.966 304.779 160.234 304.533 160.579C304.408 160.533 304.275 160.499 304.158 160.439C298.59 157.6 293.246 157.956 288.136 161.57C287.803 161.805 287.511 162.063 287.076 162.036C285.528 161.639 283.934 161.877 282.432 162.081C278.874 162.558 275.289 162.759 271.724 163.119C268.158 163.478 264.566 163.732 260.997 164.072C256.962 164.458 252.912 164.633 248.884 165.144C245.194 165.609 241.447 165.613 237.756 166.075C236.231 166.264 234.706 166.298 233.188 166.476C230.216 166.824 227.253 167.244 224.251 167.153L224.24 167.142ZM360.026 31.8443C358.118 31.9692 356.048 32.6127 354.564 34.4674C353.103 36.2918 353.447 38.3584 355.393 39.6416C355.946 40.0087 356.566 40.2775 357.176 40.55C364.133 43.6424 371.09 46.7272 378.05 49.8121C381.714 51.4359 385.363 53.09 389.046 54.6646C392.127 55.9818 395.746 55.3042 397.778 53.1278C399.644 51.1293 399.33 48.8242 396.987 47.4275C396.529 47.155 396.041 46.9354 395.553 46.7159C393.543 45.815 391.529 44.9255 389.516 44.0323C381.094 40.304 372.672 36.5756 364.25 32.8436C363.024 32.2985 361.775 31.8329 360.03 31.8405L360.026 31.8443ZM364.837 120.37C365.719 120.415 366.15 119.866 365.847 119.098C365.7 118.731 365.439 118.409 365.242 118.061C364.095 116.032 363.489 113.863 363.622 111.524C363.921 106.233 366.695 102.535 371.169 99.9758C372.812 99.0371 374.61 98.5185 376.461 98.159C377.195 98.0189 378.323 98.2801 378.327 97.1294C378.327 95.869 377.142 96.1453 376.34 95.9901C375.749 95.8765 375.155 95.7781 374.568 95.6457C366.241 93.7607 360.075 86.7318 359.621 78.6204C359.579 77.9088 359.833 77.0193 359.038 76.6218C358.224 76.2206 357.698 77.0193 357.119 77.4091C350.54 81.849 342.44 81.5689 336.169 76.6635C335.851 76.4174 335.563 76.1298 335.234 75.9027C334.166 75.1684 333.674 75.3917 333.625 76.671C333.576 77.9428 333.477 79.207 333.277 80.4637C331.91 88.9612 326.017 95.8993 317.22 97.2316C317.024 97.2619 316.815 97.2695 316.63 97.3338C316.301 97.4474 316.036 97.6517 315.99 98.0265C315.945 98.4012 316.138 98.6851 316.467 98.8213C316.899 98.9992 317.353 99.1242 317.796 99.2642C321.036 100.275 323.943 101.891 326.494 104.12C331.256 108.28 334.121 113.53 335.404 119.685C335.548 120.377 335.423 121.24 336.335 121.524C337.334 121.835 337.751 121.017 338.292 120.449C338.523 120.207 338.746 119.957 338.985 119.723C342.501 116.293 346.683 114.446 351.627 114.529C356.108 114.605 359.935 116.358 363.243 119.321C363.732 119.757 364.121 120.366 364.844 120.358L364.837 120.37ZM267.973 51.1104C268.68 51.1255 269.267 50.8 269.812 50.4101C271.444 49.2557 273.079 48.1126 274.691 46.9279C279.971 43.0444 284.601 38.4303 289.396 34.0094C293.371 30.3492 296.936 26.2727 300.452 22.1696C302.054 20.3036 303.628 18.3921 304.707 16.1438C304.904 15.7312 305.195 15.3035 304.733 14.872C304.325 14.4897 303.889 14.5654 303.439 14.7811C301.872 15.5268 300.331 16.3217 298.916 17.3436C293.162 21.4883 288.143 26.4733 282.999 31.303C278.431 35.5953 274.248 40.2737 270.312 45.1602C269.146 46.6099 267.939 48.0558 267.216 49.8045C266.833 50.7281 267.076 51.1066 267.973 51.1066V51.1104ZM411.935 74.5968C411.893 76.7278 412.014 78.6506 411.575 80.5772C411.03 82.9656 409.883 84.0519 407.498 84.0595C406.227 84.0633 404.955 84.0557 403.687 84.0671C403.138 84.0747 402.517 84.139 402.491 84.8317C402.464 85.5395 403.081 85.6379 403.63 85.6493C404.701 85.672 405.772 85.6114 406.84 85.6758C409.788 85.8499 411.215 86.7696 411.791 89.1164C412.09 90.3276 412.374 91.5653 412.347 92.8598C412.294 95.6684 412.336 98.4807 412.347 101.289C412.347 101.883 412.298 102.682 413.074 102.716C414.028 102.758 413.956 101.887 413.933 101.236C413.812 98.1741 414.206 95.1006 413.6 92.0423C413.327 90.6607 413.558 89.2375 414.221 87.9468C414.758 86.8983 415.455 86.1792 416.772 85.9786C418.1 85.7742 419.414 85.672 420.746 85.6606C421.197 85.6568 421.798 85.7401 421.855 85.1004C421.916 84.4229 421.303 84.4002 420.86 84.4532C419.501 84.6159 418.222 84.0974 416.889 84.0482C415.795 84.0065 415.016 83.4653 414.539 82.4584C414.05 81.4251 413.539 80.3956 413.551 79.2298C413.589 75.8913 412.888 72.5831 413.142 69.2371C413.161 68.9722 413.142 68.7034 413.131 68.4347C413.112 68.0827 413.002 67.7496 412.616 67.6777C412.162 67.5906 411.81 67.8291 411.689 68.2454C411.583 68.6202 411.488 69.0706 411.601 69.4188C412.177 71.194 411.791 73.0109 411.927 74.6006L411.935 74.5968ZM251.273 65.9214C251.299 67.0266 251.78 67.4052 252.859 67.1061C254.104 66.7617 255.119 65.9782 256.095 65.172C258.468 63.2113 260.656 61.0803 262.136 58.3247C262.492 57.6623 262.851 56.8486 262.325 56.2619C261.742 55.6108 260.853 55.8644 260.088 56.1635C259.903 56.2354 259.717 56.3224 259.551 56.4322C256.451 58.461 253.775 60.9175 251.829 64.1083C251.477 64.6837 251.201 65.2893 251.273 65.9176V65.9214Z" fill="#CEE4EA"/>
<path d="M32.9285 263.528C33.8482 262.282 35.0481 261.31 36.142 260.238C44.2269 252.343 52.3195 244.458 60.4195 236.582C60.8435 236.169 61.1955 235.654 61.7822 235.435C63.9434 235.245 66.1199 235.158 68.2774 234.969C71.2903 234.708 74.2843 234.231 77.3199 234.25C77.7817 234.598 77.7022 235.211 77.9937 235.643C78.1867 235.927 78.4062 236.18 78.7583 236.188C79.2049 236.199 79.4774 235.897 79.6364 235.518C79.8635 234.984 79.7045 234.326 80.155 233.856C82.0626 233.512 84.0309 233.66 85.9196 233.368C89.7464 232.781 93.6034 232.641 97.4414 232.342C101.488 232.024 105.519 231.506 109.588 231.362C111.227 231.305 112.93 231.267 114.554 230.957C116.859 230.514 119.194 230.514 121.503 230.329C123.888 230.136 126.28 229.882 128.672 229.734C130.387 229.628 132.154 229.685 133.843 229.352C136.011 228.924 138.218 228.86 140.391 228.728C142.783 228.584 145.175 228.311 147.56 228.133C149.282 228.005 151.031 228.031 152.734 227.759C155.436 227.323 158.169 227.346 160.883 227.051C162.935 226.827 164.998 226.703 167.053 226.54C169.967 226.309 172.863 225.824 175.8 225.821C176.201 225.821 176.618 225.832 176.996 225.734C179.01 225.2 181.103 225.242 183.14 225.12C185.668 224.973 188.181 224.655 190.713 224.53C192.36 224.45 194.033 224.337 195.687 224.155C198.931 223.803 202.163 223.379 205.434 223.428C203.59 226.672 201.607 229.844 200.256 233.342C193.284 251.336 194.381 268.619 204.862 285.065C204.968 285.231 205.029 285.424 205.112 285.602C204.839 286.306 204.196 286.552 203.575 286.791C198.344 288.797 193.143 290.882 187.837 292.692C179.695 295.47 171.531 298.184 163.203 300.368C155.932 302.276 148.623 304.055 141.205 305.254C136.882 305.955 132.563 306.731 128.176 307.049C126.526 307.17 124.838 307.158 123.21 307.465C120.708 307.934 118.161 308.059 115.667 308.089C109.997 308.158 104.323 308.423 98.6413 307.847C95.0038 307.476 91.3626 307.208 87.7592 306.579C78.8415 305.02 70.2342 302.537 62.2174 298.207C55.3967 294.524 49.3822 289.883 44.3897 283.903C39.7113 278.301 36.2101 272.082 33.8899 265.174C33.6931 264.584 33.7006 263.8 32.9209 263.524L32.9285 263.528ZM119.119 263.16C119.119 263.777 119.1 264.247 119.119 264.716C119.206 266.397 119.047 268.039 118.521 269.648C117.847 271.707 116.893 272.434 114.743 272.445C113.407 272.453 112.071 272.445 110.735 272.457C110.246 272.464 109.724 272.593 109.671 273.153C109.599 273.868 110.182 274.02 110.742 274.035C111.81 274.065 112.881 274.005 113.948 274.062C117.393 274.243 118.471 275.299 119.191 278.596C119.569 280.33 119.478 282.044 119.512 283.766C119.554 285.837 119.52 287.907 119.543 289.982C119.55 290.53 119.652 291.147 120.36 291.121C121.057 291.094 121.117 290.474 121.121 289.925C121.132 288.589 121.159 287.253 121.121 285.916C121.064 284.118 121.39 282.29 120.924 280.53C120.519 278.993 121.06 277.62 121.492 276.261C121.817 275.242 122.631 274.614 123.85 274.376C125.311 274.088 126.761 274.092 128.222 274.039C128.638 274.024 129.054 273.94 129.081 273.418C129.107 272.96 128.816 272.665 128.396 272.555C128.078 272.472 127.737 272.464 127.408 272.46C126.606 272.445 125.795 272.373 125.004 272.472C123.244 272.688 122.264 271.673 121.503 270.337C121.075 269.584 120.712 268.74 120.758 267.869C120.917 264.86 120.137 261.9 120.334 258.891C120.371 258.293 120.345 257.687 120.326 257.089C120.315 256.624 120.334 256.082 119.671 256.063C119.107 256.048 118.842 256.45 118.778 256.957C118.729 257.35 118.661 257.789 118.778 258.149C119.327 259.852 119.013 261.597 119.115 263.172L119.119 263.16Z" fill="#CFE5EB"/>
<path d="M32.9324 263.528C33.7121 263.804 33.7007 264.588 33.9014 265.178C36.2216 272.086 39.7228 278.305 44.4012 283.907C49.3937 289.887 55.4082 294.528 62.2289 298.211C70.2457 302.541 78.853 305.024 87.7707 306.583C91.3741 307.211 95.0191 307.48 98.6528 307.851C104.334 308.43 110.008 308.165 115.678 308.093C118.169 308.063 120.72 307.938 123.222 307.469C124.849 307.166 126.537 307.174 128.188 307.053C132.578 306.735 136.893 305.959 141.216 305.258C148.639 304.055 155.944 302.28 163.215 300.372C171.542 298.188 179.707 295.474 187.848 292.696C193.151 290.886 198.356 288.805 203.587 286.795C204.207 286.556 204.851 286.31 205.123 285.606C206.717 287.491 208.144 289.509 209.855 291.299C216.407 298.158 224.272 302.722 233.5 304.922C233.951 305.027 234.443 305.005 234.859 305.383C234.927 306.08 234.299 306.345 233.905 306.727C216.88 323.291 199.843 339.846 182.807 356.402C180.793 358.359 178.817 360.365 176.747 362.262C170.774 367.727 163.915 371.403 155.766 372.315C150.823 372.868 146.023 372.258 141.443 370.241C119.304 360.475 97.1652 350.71 75.0339 340.937C54.2462 331.754 33.4623 322.56 12.6784 313.37C11.0281 312.639 9.38159 311.901 7.88648 310.864C2.79176 307.325 1.04305 302.177 2.9583 296.284C4.12032 292.715 6.081 289.588 8.7192 286.98C16.5657 279.217 24.5181 271.552 32.4327 263.857C32.5728 263.721 32.762 263.641 32.9286 263.535L32.9324 263.528Z" fill="#B8CDD5"/>
<path d="M224.226 167.145C227.228 167.236 230.195 166.816 233.163 166.467C234.681 166.29 236.206 166.255 237.732 166.066C241.422 165.608 245.169 165.604 248.86 165.135C252.887 164.624 256.937 164.454 260.972 164.064C264.541 163.719 268.133 163.47 271.699 163.11C275.264 162.751 278.849 162.55 282.407 162.073C283.91 161.872 285.503 161.63 287.051 162.028C287.01 162.716 286.415 163.015 286.037 163.462C283.02 167.039 281.752 171.104 282.543 175.764C283.929 183.955 291.919 189.348 300.102 187.607C308.142 185.896 313.221 177.717 311.223 169.723C310.231 165.748 307.877 162.792 304.508 160.57C304.754 160.226 305.076 159.957 305.503 159.995C307.521 160.169 309.478 159.62 311.476 159.529C313.728 159.423 315.973 159.117 318.214 158.856C319.932 158.655 321.677 158.534 323.38 158.454C327.378 158.273 331.344 157.8 335.319 157.459C338.884 157.156 342.465 156.842 346.03 156.448C348.195 156.21 350.41 156.062 352.59 155.862C354.698 155.669 356.833 155.646 358.941 155.264C360.012 155.071 361.341 154.594 362.28 155.797C357.018 161.327 353.097 167.664 350.644 174.912C349.183 179.223 348.438 183.674 347.874 188.167C346.193 187.815 344.584 188.5 342.911 188.534C340.928 188.576 338.911 188.709 336.946 188.985C334.501 189.329 332.041 189.428 329.596 189.606C327.408 189.765 325.212 190.003 323.036 190.2C321.45 190.344 319.83 190.272 318.267 190.59C316.106 191.029 313.903 191.029 311.726 191.218C309.743 191.392 307.748 191.604 305.765 191.775C301.128 192.172 296.499 192.653 291.851 192.902C291.385 192.929 290.92 192.967 290.458 193.016C288.346 193.239 286.237 193.557 284.118 193.667C282.055 193.773 279.984 193.962 277.956 194.216C274.591 194.636 271.211 194.897 267.846 195.2C265.469 195.416 263.08 195.688 260.677 195.775C258.826 195.843 256.941 195.927 255.109 196.192C251.551 196.703 247.966 196.926 244.401 197.233C240.824 197.539 237.262 198.012 233.67 198.205C232.024 198.296 230.309 198.239 228.708 198.595C226.471 199.091 224.196 198.966 221.955 199.205C219.658 199.447 217.319 199.659 214.995 199.814C213.28 199.931 211.524 199.928 209.828 200.238C207.659 200.635 205.464 200.613 203.284 200.874C201.308 201.109 199.29 201.188 197.326 201.426C193.495 201.892 189.642 202.07 185.808 202.437C183.503 202.657 181.167 202.876 178.843 203.028C177.193 203.134 175.516 203.187 173.873 203.41C171.303 203.762 168.733 204.065 166.137 204.148C165.789 203.584 165.455 203.012 165.096 202.456C161.417 196.79 153.638 195.476 148.279 199.587C146.068 201.283 144.808 203.573 143.96 206.146C143.358 206.162 142.745 206.109 142.162 206.207C139.603 206.642 137.018 206.752 134.44 206.956C132.718 207.093 130.996 207.267 129.285 207.452C126.579 207.744 123.865 207.956 121.155 208.149C119.1 208.296 117.04 208.463 114.993 208.648C110.564 209.057 106.147 209.561 101.703 209.803C101.37 208.807 100.602 208.853 99.7501 208.894C96.7864 209.038 94.1028 208.183 91.6766 206.597C91.6425 206.033 92.0021 205.825 92.2708 205.564C102.127 195.961 111.98 186.362 121.84 176.767C121.98 176.63 122.158 176.54 122.321 176.426C124.766 176.172 127.215 175.926 129.66 175.737C131.916 175.563 134.164 175.226 136.431 175.211C138.634 175.196 140.811 174.84 143.006 174.696C145.584 174.53 148.177 174.276 150.743 173.947C152.605 173.708 154.482 173.788 156.314 173.515C160.001 172.966 163.729 172.864 167.42 172.372C170.944 174.128 174.464 175.885 178.294 176.91C194.707 181.301 209.65 178.409 223.08 167.94C223.447 167.656 223.837 167.402 224.215 167.134L224.226 167.145Z" fill="#FCF6F5"/>
<path d="M189.034 352.775C189.704 351.753 190.665 351.007 191.525 350.171C205.583 336.495 219.648 322.831 233.713 309.163C252.722 290.692 271.731 272.221 290.743 253.75C309.464 235.559 328.185 217.368 346.91 199.173C365.775 180.841 384.64 162.507 403.508 144.179C420.651 127.529 437.797 110.886 454.948 94.2463C459.581 89.7534 463.275 84.6663 465.118 77.9818C466.125 81.2483 466.541 84.2575 467.257 87.1909C467.749 89.2046 468.044 91.2675 468.57 93.2698C469.649 97.3728 468.899 101.234 467.196 104.985C465.402 108.936 462.828 112.335 459.728 115.352C439.811 134.713 419.886 154.066 399.969 173.43C387.539 185.512 375.116 197.609 362.686 209.691C343.681 228.166 324.669 246.638 305.66 265.113C286.939 283.304 268.214 301.495 249.493 319.686C240.47 328.456 231.446 337.23 222.411 345.985C221.404 346.961 220.314 347.854 219.262 348.786C218.993 348.789 218.811 348.907 218.758 349.179H218.766C218.387 349.157 218.047 349.179 218.077 349.698C218.077 349.698 218.062 349.732 218.062 349.728C217.54 349.456 217.191 349.811 216.798 350.057C211.923 353.074 206.983 355.981 201.631 358.089C198.781 359.214 195.9 360.258 192.736 360.027C190.556 359.868 189.602 358.971 188.921 356.916C188.436 355.455 189.208 354.157 189.03 352.783L189.034 352.775ZM420.053 144.145C420.053 141.643 418.168 140.031 415.685 140.447C414.273 140.686 413.02 141.28 411.976 142.29C406.022 148.051 400.056 153.797 394.117 159.569C392.8 160.852 391.877 162.397 391.574 164.244C391.082 167.253 393.398 169.339 396.328 168.54C397.577 168.199 398.682 167.597 399.61 166.693C405.723 160.716 411.835 154.743 417.933 148.752C419.209 147.495 420.045 146 420.049 144.141L420.053 144.145ZM323.76 231.009C324.006 231.032 325.074 230.54 325.895 229.949C330.649 226.516 334.722 222.394 338.136 217.632C338.632 216.94 339.673 216.012 338.829 215.214C338.034 214.457 337.054 215.433 336.361 215.944C331.546 219.506 327.375 223.719 323.938 228.636C323.594 229.128 323.287 229.654 323.227 230.271C323.193 230.649 323.401 230.895 323.76 231.009ZM319.298 233.473C318.719 233.511 318.151 233.859 317.621 234.257C316.289 235.256 315.021 236.331 314.336 237.905C314.18 238.257 314.12 238.704 314.411 239.037C314.725 239.393 315.142 239.26 315.52 239.132C317.08 238.594 318.219 237.485 319.298 236.304C319.741 235.816 320.157 235.282 320.327 234.624C320.517 233.889 320.157 233.458 319.298 233.473Z" fill="#FA4616"/>
<path d="M213.895 292.932C210.208 289.945 207.24 286.315 204.916 282.231C194.7 264.263 194.871 246.076 204.659 228.105C211.605 215.356 222.248 206.726 236.454 203.248C253.683 199.031 268.555 203.698 280.955 216.341C281.14 216.53 281.284 216.761 281.447 216.969C281.08 217.506 280.512 217.393 279.99 217.408C276.738 217.491 273.669 218.301 270.758 219.713C262.238 223.843 256.537 230.584 252.923 239.195C250.046 246.05 248.562 253.317 246.878 260.512C245.352 267.027 243.509 273.42 240.368 279.362C238.377 283.125 235.746 286.406 232.305 288.935C226.787 292.992 220.564 294.052 213.895 292.935V292.932Z" fill="#DBF505"/>
<path d="M189.032 352.774C189.206 354.152 188.438 355.447 188.922 356.908C189.604 358.963 190.554 359.86 192.738 360.019C195.902 360.25 198.782 359.205 201.633 358.081C206.985 355.973 211.924 353.07 216.799 350.049C217.193 349.807 217.541 349.447 218.064 349.72C217.995 350.484 217.348 350.821 216.886 351.275C208.854 359.137 200.819 366.991 192.768 374.834C189.225 378.29 185.705 381.772 182.086 385.148C176.431 390.428 169.857 394.058 162.158 395.201C156.079 396.106 150.246 395.039 144.584 392.465C132.169 386.825 119.651 381.409 107.18 375.897C95.3777 370.682 83.5834 365.458 71.7815 360.246C58.4542 354.356 45.1194 348.474 31.7921 342.581C26.474 340.231 21.1636 337.857 15.8531 335.484C13.7448 334.545 11.9582 333.175 10.3723 331.498C9.14593 330.196 8.317 328.701 7.90821 326.975C6.72348 321.971 5.54632 316.964 4.36916 311.96C4.23289 311.373 4.11177 310.783 4.27074 310.177L4.25939 310.188C8.93397 314.17 14.7365 315.998 20.1908 318.459C30.3083 323.02 40.4826 327.445 50.638 331.926C61.5845 336.756 72.5385 341.578 83.485 346.412C93.0272 350.624 102.562 354.849 112.096 359.069C121.631 363.293 131.116 367.631 140.712 371.715C149.315 375.375 157.938 374.788 166.405 371.06C171.42 368.85 175.739 365.625 179.653 361.813C182.764 358.785 185.712 355.587 189.028 352.771L189.032 352.774ZM59.8168 341.147C57.9886 341.211 56.327 341.684 55.5397 343.52C54.7524 345.352 55.5359 346.896 56.7471 348.27C57.3792 348.985 58.193 349.44 59.0598 349.818C61.3839 350.833 63.7079 351.843 66.0282 352.873C71.2137 355.17 76.3841 357.502 81.5849 359.765C83.4509 360.575 85.4154 360.931 87.429 360.269C90.1467 359.376 90.987 356.575 89.1891 354.353C88.3412 353.304 87.3268 352.464 86.0588 351.919C78.2161 348.543 70.381 345.144 62.5383 341.764C61.6791 341.393 60.782 341.124 59.8168 341.15V341.147Z" fill="#C30000"/>
<path d="M241.248 107.055C246.051 105.844 250.938 105.053 255.82 104.277C262.429 103.225 269.064 102.396 275.764 102.199C279.447 102.089 283.122 102.169 286.752 102.926C288.198 103.228 289.61 103.637 290.863 104.451C292.562 105.556 292.986 106.866 292.29 108.762C291.722 110.303 290.696 111.537 289.598 112.718C287.308 115.185 284.663 117.226 281.907 119.137C273.186 125.178 263.784 129.996 254.185 134.433C230.282 145.474 205.554 154.282 180.236 161.466C179.982 161.538 179.71 161.56 179.449 161.606C178.968 161.504 178.51 161.5 178.177 161.95C178.09 162.022 177.991 162.049 177.878 162.03C177.48 162.03 177.068 161.958 176.686 162.041C173.949 162.616 171.22 163.218 168.491 163.816C162.579 165.114 156.628 166.235 150.652 167.204C146.583 167.862 142.518 168.536 138.437 169.104C135.606 169.498 132.737 169.626 129.91 170.046C127.718 170.372 125.508 170.243 123.331 170.504C118.592 171.068 113.876 170.879 109.167 170.308C107.392 170.092 105.647 169.604 104.039 168.718C101.639 167.397 101.132 165.591 102.521 163.214C103.448 161.628 104.814 160.444 106.064 159.145C106.506 158.684 107.207 158.369 107.089 157.541C107.733 157.631 108.27 157.571 108.285 156.734H108.289C108.925 156.814 109.315 156.526 109.485 155.924V155.928C109.731 155.958 109.875 155.845 109.936 155.614L109.974 155.591C110.337 155.622 110.594 155.493 110.696 155.122C116.192 151.405 122.048 148.328 127.979 145.383C133.191 142.798 138.475 140.371 143.812 138.059C144.289 137.854 144.743 137.525 145.5 137.601C145.481 137.601 145.531 137.692 145.55 137.858C145.909 141.125 145.905 141.109 142.858 142.381C135.886 145.296 128.933 148.248 122.279 151.848C120.572 152.771 118.903 153.759 117.328 154.899C116.567 155.451 115.821 156.034 115.295 156.821C114.447 158.089 114.807 159.123 116.223 159.66C117.055 159.978 117.926 159.974 118.797 159.986C123.581 160.039 128.252 159.13 132.9 158.188C150.413 154.641 167.529 149.611 184.555 144.255C205.093 137.794 225.4 130.682 245.237 122.286C251.085 119.811 256.884 117.218 262.444 114.133C263.966 113.289 265.465 112.403 266.835 111.325C267.308 110.954 267.758 110.553 268.179 110.125C268.818 109.474 269.254 108.705 268.89 107.774C268.557 106.923 267.736 106.669 266.933 106.578C264.662 106.325 262.387 106.442 260.128 106.726C253.75 107.528 247.482 108.902 241.236 110.386C240.847 110.477 240.449 110.53 240.055 110.598C239.544 110.386 238.757 110.87 238.5 110.068C238.223 109.205 238.829 108.702 239.431 108.266C240.018 107.842 240.638 107.46 241.244 107.059L241.248 107.055ZM274.753 118.478C274.999 118.414 275.393 118.342 275.764 118.206C280.321 116.548 284.102 113.785 287.157 110.045C287.706 109.372 288.52 108.509 287.816 107.559C287.051 106.521 285.95 107.093 285.056 107.437C280.802 109.076 277.244 111.711 274.303 115.178C273.83 115.734 273.391 116.332 273.33 117.108C273.258 118.036 273.667 118.475 274.75 118.478H274.753ZM267.259 123.297C268.595 123.013 269.912 122.457 270.768 121.132C270.991 120.787 271.067 120.386 270.858 120C270.605 119.535 270.17 119.376 269.674 119.459C268.16 119.709 266.926 120.451 266.112 121.76C265.582 122.616 266.067 123.312 267.255 123.297H267.259Z" fill="#DBF505"/>
<path d="M148.109 143.863C146.236 136.036 146.641 128.299 149.551 120.823C155.475 105.611 166.758 96.4929 182.508 92.9311C195.306 90.0355 207.316 92.3482 218.402 99.3695C219.36 99.9751 220.317 100.596 221.108 101.429C221.226 101.546 221.343 101.66 221.457 101.777L221.487 101.803C221.445 102.886 221.945 103.866 222.013 104.949C222.267 108.965 220.692 112.379 218.682 115.664C215.431 120.975 211.006 125.229 206.263 129.154C200.847 133.64 194.866 137.285 188.617 140.491C188.046 140.782 187.311 140.881 187.024 141.596L186.922 141.656C186.922 141.656 186.804 141.645 186.8 141.645C186.395 141.513 186.047 141.524 185.896 142.016C179.579 144.359 173.114 146.225 166.607 147.97C166.013 147.928 165.381 147.735 164.949 148.367L164.964 148.36C162.758 148.349 160.547 148.424 158.344 148.307C154.881 148.121 151.599 147.364 149.037 144.756C148.863 144.579 148.579 144.507 148.348 144.389L148.352 144.374C148.401 144.143 148.302 143.981 148.106 143.867L148.109 143.863Z" fill="#FA4616"/>
<path d="M213.891 292.932C220.56 294.049 226.783 292.985 232.302 288.932C235.742 286.403 238.373 283.125 240.364 279.359C243.509 273.416 245.349 267.027 246.874 260.509C248.558 253.314 250.042 246.046 252.919 239.192C256.534 230.581 262.234 223.839 270.754 219.71C273.665 218.298 276.738 217.488 279.986 217.405C280.508 217.39 281.076 217.503 281.443 216.966C284.672 220.403 287.2 224.316 289.188 228.571C290.41 231.186 290.342 234.036 290.353 236.841C290.376 243.117 288.809 248.999 285.789 254.491C284.365 257.084 282.632 259.431 280.493 261.501C266.329 275.229 252.185 288.977 238.066 302.751C237.15 303.648 236.299 303.962 235.046 303.693C227.165 302.005 220.174 298.565 214.107 293.254C214.012 293.171 213.959 293.038 213.883 292.929L213.891 292.932Z" fill="#A5BB00"/>
<path d="M166.154 204.156C168.747 204.072 171.317 203.769 173.891 203.417C175.534 203.194 177.211 203.141 178.861 203.035C181.185 202.887 183.516 202.668 185.825 202.445C189.66 202.077 193.513 201.9 197.343 201.434C199.308 201.196 201.325 201.116 203.301 200.881C205.478 200.62 207.677 200.643 209.846 200.246C211.541 199.935 213.294 199.939 215.012 199.822C217.336 199.663 219.672 199.454 221.973 199.212C224.214 198.974 226.489 199.099 228.726 198.603C230.327 198.247 232.041 198.304 233.688 198.213C237.28 198.02 240.842 197.543 244.418 197.24C247.984 196.934 251.569 196.714 255.126 196.199C256.958 195.934 258.843 195.851 260.694 195.783C263.098 195.696 265.486 195.423 267.863 195.208C271.228 194.905 274.612 194.64 277.973 194.223C280.002 193.97 282.073 193.781 284.135 193.675C286.255 193.565 288.36 193.247 290.475 193.024C290.937 192.974 291.403 192.933 291.868 192.91C296.516 192.66 301.146 192.179 305.782 191.782C307.766 191.612 309.76 191.4 311.744 191.226C313.92 191.033 316.123 191.036 318.284 190.597C319.848 190.279 321.468 190.351 323.054 190.207C325.234 190.011 327.425 189.772 329.613 189.613C332.058 189.435 334.519 189.337 336.964 188.992C338.928 188.716 340.946 188.58 342.929 188.542C344.602 188.508 346.207 187.823 347.891 188.175C347.857 190.503 347.812 192.827 347.797 195.155C347.797 195.79 347.634 196.309 347.153 196.752C345.787 198.009 344.439 199.284 343.084 200.556C340.268 200.283 337.486 200.828 334.708 201.04C330.268 201.377 325.824 201.725 321.396 202.18C319.401 202.384 317.384 202.335 315.427 202.626C311.604 203.198 307.743 203.277 303.909 203.667C301.604 203.902 299.268 204.099 296.944 204.25C295.158 204.367 293.344 204.367 291.569 204.629C287.682 205.208 283.757 205.333 279.854 205.681C277.61 205.881 275.362 206.321 273.079 206.199C272.576 206.173 272.053 206.449 271.542 206.589C268.545 205.136 265.611 203.55 262.409 202.562C246.826 197.747 232.454 200.427 219.123 209.553C218.411 210.038 217.7 210.518 216.984 211.003C216.25 211.018 215.493 210.927 214.785 211.071C212.423 211.552 210.02 211.544 207.639 211.722C205.319 211.896 202.976 212.059 200.67 212.293C196.969 212.672 193.252 213.024 189.554 213.285C185.371 213.58 181.211 214.159 177.006 214.262C175.295 214.303 173.531 214.409 171.843 214.708C169.599 215.102 167.324 214.856 165.102 215.291C165.655 214.156 166.264 213.054 166.605 211.82C167.324 209.209 166.923 206.68 166.166 204.163L166.154 204.156Z" fill="#CFE5EB"/>
<path d="M165.092 215.284C167.314 214.848 169.593 215.094 171.834 214.701C173.522 214.406 175.286 214.3 176.996 214.254C181.202 214.148 185.362 213.573 189.544 213.278C193.242 213.016 196.959 212.661 200.661 212.286C202.966 212.051 205.305 211.892 207.629 211.714C210.006 211.533 212.413 211.544 214.775 211.063C215.483 210.919 216.24 211.01 216.975 210.995C214.492 213.315 211.861 215.484 209.7 218.126C208.265 219.879 206.872 221.662 205.46 223.429C202.19 223.38 198.954 223.804 195.714 224.156C194.06 224.334 192.387 224.447 190.74 224.531C188.208 224.656 185.691 224.973 183.166 225.121C181.13 225.238 179.037 225.201 177.023 225.734C176.641 225.836 176.224 225.821 175.827 225.821C172.89 225.829 169.994 226.31 167.08 226.54C165.024 226.703 162.958 226.828 160.91 227.051C158.2 227.347 155.463 227.328 152.761 227.759C151.057 228.032 149.309 228.005 147.586 228.134C145.198 228.312 142.81 228.584 140.417 228.728C138.245 228.861 136.042 228.925 133.869 229.353C132.181 229.686 130.413 229.629 128.699 229.735C126.307 229.883 123.911 230.136 121.53 230.329C119.221 230.519 116.882 230.515 114.58 230.958C112.957 231.268 111.253 231.306 109.614 231.363C105.545 231.507 101.514 232.025 97.4681 232.343C93.63 232.646 89.773 232.786 85.9463 233.369C84.0576 233.656 82.0893 233.513 80.1816 233.857C81.3929 228.108 87.1197 224.909 92.8011 226.817C94.0767 227.244 95.2538 227.865 96.3212 228.694C96.6467 228.948 97.0139 229.167 97.4075 228.876C97.8731 228.531 97.8012 228.1 97.5325 227.642C96.7187 226.249 96.0941 224.78 95.7383 223.202C95.5794 222.487 95.3447 221.783 95.5074 221.033C99.8451 221.09 104.134 220.386 108.449 220.098C110.167 219.981 111.904 219.939 113.623 219.773C117.325 219.409 121.015 218.895 124.724 218.656C127.847 218.456 130.951 218.013 134.062 217.888C138.392 217.714 142.673 216.953 147.007 216.942C148.998 218.656 151.167 219.985 153.858 220.28C158.582 220.795 162.257 218.989 165.1 215.291L165.092 215.284Z" fill="#FCF6F5"/>
<path d="M271.535 206.579C272.05 206.443 272.568 206.163 273.072 206.189C275.354 206.314 277.599 205.872 279.847 205.671C283.75 205.323 287.675 205.198 291.562 204.619C293.333 204.354 295.15 204.354 296.937 204.24C299.261 204.089 301.596 203.892 303.901 203.657C307.736 203.271 311.596 203.188 315.419 202.616C317.38 202.325 319.398 202.374 321.388 202.17C325.817 201.715 330.261 201.363 334.701 201.03C337.483 200.818 340.265 200.273 343.077 200.546C338.868 204.827 334.614 209.062 330.14 213.067C328.137 212.878 326.169 213.143 324.174 213.309C319.341 213.71 314.511 214.153 309.677 214.501C305.635 214.789 301.608 215.312 297.55 215.47C295.707 215.542 293.829 215.648 291.986 215.872C289.147 216.216 286.312 216.53 283.454 216.614C279.915 212.753 275.926 209.429 271.535 206.579Z" fill="#FCF6F5"/>
<path d="M170.389 171.872C173.458 171.066 176.274 170.351 179.079 169.586C193.387 165.691 207.49 161.157 221.468 156.213C223.043 155.657 224.606 155.089 226.328 155.173C227.169 155.21 227.899 155.449 228.569 155.918C230.212 157.076 230.352 157.905 229.107 159.522C222.165 168.538 213.009 174.079 201.949 176.384C192.073 178.443 182.414 177.501 173.114 173.47C172.236 173.087 171.282 172.788 170.392 171.869L170.389 171.872Z" fill="#C30000"/>
<path d="M283.45 216.614C286.308 216.531 289.143 216.217 291.982 215.872C293.825 215.649 295.702 215.543 297.546 215.471C301.607 215.316 305.631 214.79 309.673 214.502C314.507 214.157 319.336 213.711 324.17 213.31C326.165 213.143 328.133 212.878 330.135 213.067C327.989 215.497 325.608 217.685 323.171 219.812C322.524 219.714 322.035 220.002 321.528 220.373C320.298 221.277 319 222.087 317.785 223.007C311.687 227.613 305.222 231.686 298.946 236.031C297.576 236.978 296.266 238.284 294.412 238.393C292.398 230.305 288.696 223.064 283.446 216.606L283.45 216.614Z" fill="#CEE4EA"/>
<path d="M146.989 216.933C142.656 216.944 138.375 217.705 134.044 217.879C130.933 218.004 127.829 218.447 124.707 218.648C120.997 218.882 117.307 219.397 113.605 219.764C111.887 219.935 110.149 219.976 108.431 220.09C104.116 220.381 99.8273 221.081 95.4896 221.025C95.0051 216.649 96.5948 213.258 100.304 210.873C100.8 210.555 101.394 210.362 101.708 209.806C106.152 209.563 110.569 209.056 114.998 208.651C117.042 208.462 119.105 208.295 121.16 208.152C123.874 207.959 126.584 207.747 129.29 207.455C131.001 207.27 132.723 207.096 134.446 206.959C137.023 206.755 139.612 206.645 142.167 206.21C142.754 206.111 143.367 206.164 143.965 206.149C143.314 210.207 144.238 213.825 146.982 216.933H146.989Z" fill="#CEE4EA"/>
<path d="M187.005 141.596C187.293 140.881 188.027 140.783 188.599 140.491C194.852 137.285 200.828 133.64 206.245 129.155C210.988 125.23 215.412 120.975 218.664 115.665C220.674 112.383 222.248 108.969 221.995 104.949C221.926 103.867 221.427 102.886 221.468 101.804C223.369 102.845 224.845 104.397 226.298 105.945C230.473 110.392 233.577 115.502 235.598 121.263C235.708 121.577 235.829 121.891 235.92 122.213C236.321 123.581 235.842 124.529 234.482 125.059C222.789 129.67 210.961 133.898 199.038 137.864C195.741 138.962 192.437 140.041 189.14 141.131C188.444 141.362 187.758 141.653 187.001 141.593L187.005 141.596Z" fill="#C30000"/>
<path d="M354.422 170.348C354.517 169.53 354.907 168.826 355.293 168.13C362.799 154.511 374.23 146.426 389.556 143.837C390.736 143.636 391.921 143.424 393.129 143.458C393.064 144.083 392.75 144.601 392.394 145.082C389.979 148.352 387.591 151.661 384.828 154.636C380.195 159.624 375.403 164.469 369.835 168.447C366.788 170.624 363.582 172.566 359.903 173.482C357.144 174.171 355.702 173.308 354.71 170.613C354.668 170.503 354.521 170.435 354.422 170.348Z" fill="#FA4616"/>
<path d="M66.9501 220.207C68.4603 215.759 67.8661 211.539 65.3452 207.352C73.8011 209.332 79.1229 205.369 83.2676 198.545C85.3834 203.658 88.8052 207.368 93.8204 209.487C93.809 210.218 93.9529 210.994 93.7636 211.675C92.3821 216.664 89.7401 220.646 84.6643 222.542C83.3584 223.03 82.0185 223.515 80.6521 223.704C78.8996 223.95 77.1736 224.37 75.3227 224.075C72.1281 223.568 69.3725 222.292 66.9463 220.207H66.9501Z" fill="#DBF505"/>
<path d="M354.417 170.345C354.515 170.432 354.663 170.501 354.704 170.61C355.696 173.305 357.138 174.168 359.897 173.479C363.58 172.563 366.786 170.622 369.83 168.445C375.397 164.467 380.189 159.622 384.822 154.634C387.585 151.658 389.974 148.35 392.389 145.08C392.744 144.599 393.059 144.081 393.123 143.456C395.95 143.203 398.782 142.839 401.946 143.574C400.644 144.86 399.573 145.943 398.475 146.995C397.124 148.29 395.735 149.546 394.395 150.852C386.73 158.32 379.122 165.845 371.397 173.249C368.168 176.345 365.075 179.604 361.412 182.223C359.557 183.548 357.664 184.797 355.59 185.747C355.227 185.913 354.871 186.11 354.489 186.231C353.277 186.614 351.979 187.125 350.874 186.178C349.761 185.221 350.087 183.904 350.317 182.62C350.874 179.517 351.748 176.508 352.853 173.563C353.274 172.446 353.622 171.284 354.42 170.349L354.417 170.345Z" fill="#C30000"/>
<path d="M107.061 157.533C107.182 158.362 106.482 158.676 106.035 159.138C104.786 160.436 103.419 161.617 102.492 163.207C101.103 165.584 101.61 167.39 104.01 168.711C105.619 169.596 107.363 170.085 109.139 170.3C113.844 170.872 118.564 171.061 123.302 170.497C125.479 170.236 127.689 170.368 129.881 170.039C132.708 169.619 135.577 169.487 138.409 169.097C142.489 168.529 146.558 167.855 150.623 167.197C156.6 166.228 162.546 165.107 168.462 163.809C171.191 163.211 173.92 162.605 176.657 162.034C177.039 161.954 177.448 162.022 177.849 162.022C174.954 163.252 171.869 163.843 168.848 164.645C156.388 167.942 143.818 170.751 131.066 172.67C123.533 173.801 115.967 174.627 108.325 174.422C105.513 174.347 102.719 174.104 100.032 173.207C95.6751 171.754 94.85 169.32 97.5904 165.686C100.145 162.302 103.344 159.607 107.057 157.537L107.061 157.533Z" fill="#A5BB00"/>
<path d="M234.136 113.868C235.737 113.164 237.391 112.918 238.996 112.513C245.605 110.848 252.248 109.33 259.008 108.383C260.726 108.141 262.46 107.978 264.194 107.85C265.238 107.77 266.306 107.774 267.362 108.319C267.108 109.235 266.419 109.67 265.806 110.151C264.008 111.555 262.017 112.661 260.007 113.72C253.262 117.278 246.252 120.254 239.197 123.13C238.523 123.403 237.952 123.709 237.687 122.676C236.903 119.618 235.571 116.775 234.136 113.872V113.868Z" fill="#CEE4EA"/>
<path d="M66.9457 220.208C69.3719 222.293 72.1237 223.569 75.3221 224.076C77.1768 224.371 78.899 223.947 80.6515 223.705C82.0179 223.516 83.3616 223.028 84.6637 222.543C89.7395 220.65 92.3814 216.665 93.763 211.676C93.9523 210.995 93.8084 210.219 93.8198 209.488C95.0802 209.871 96.3293 210.298 98.0629 210.389C95.8637 212.645 94.4443 214.924 93.9788 217.687C93.5208 220.382 93.9409 222.997 94.8796 225.87C91.5336 224.625 88.3617 224.178 85.1936 225.567C82.0822 226.934 80.0421 229.311 78.6984 232.793C77.5023 231.029 76.4917 229.421 75.1253 228.111C73.7588 226.801 72.2334 225.734 70.5529 224.886C68.8269 224.015 66.9495 223.626 64.8677 223.311C65.6323 222.176 66.2909 221.196 66.9495 220.215L66.9457 220.208Z" fill="#A5BB00"/>
<path d="M294.425 238.402C296.28 238.288 297.593 236.986 298.96 236.04C305.236 231.695 311.7 227.622 317.798 223.016C319.017 222.096 320.311 221.282 321.542 220.381C322.045 220.01 322.537 219.719 323.184 219.821C322.427 221.021 321.284 221.857 320.289 222.826C312.594 230.332 304.876 237.815 297.166 245.302C296.787 245.669 296.39 246.01 295.697 246.638C295.421 243.667 294.94 241.033 294.429 238.402H294.425Z" fill="#B8CDD5"/>
<path d="M167.441 172.381C163.751 172.873 160.022 172.975 156.336 173.524C154.5 173.797 152.622 173.717 150.764 173.956C148.198 174.285 145.609 174.539 143.027 174.705C140.832 174.849 138.656 175.205 136.453 175.22C134.185 175.235 131.937 175.572 129.681 175.746C127.236 175.935 124.787 176.181 122.342 176.435C122.883 175.477 123.738 175.106 124.798 174.981C136.68 173.607 148.376 171.223 159.988 168.422C160.961 168.187 161.718 168.24 162.562 168.914C164.118 170.155 165.806 171.234 167.437 172.381H167.441Z" fill="#CEE4EA"/>
<path d="M77.3337 234.243C74.298 234.225 71.304 234.701 68.2911 234.963C66.1336 235.152 63.9572 235.239 61.7959 235.428C64.3963 232.487 67.3789 229.928 70.1269 227.135C70.5243 226.73 70.8952 226.734 71.3495 227.04C74.0558 228.854 76.2776 231.064 77.3337 234.247V234.243Z" fill="#FCF6F5"/>
<path d="M148.339 144.382C148.57 144.503 148.854 144.575 149.028 144.749C151.591 147.357 154.872 148.114 158.336 148.3C160.535 148.417 162.749 148.342 164.956 148.353C163.688 149.148 162.212 149.329 160.815 149.731C157.927 150.56 155.012 151.286 152.128 152.123C151.311 152.361 150.879 152.161 150.561 151.411C149.6 149.136 148.563 146.888 148.339 144.379V144.382Z" fill="#C30000"/>
<path d="M241.232 107.055C240.627 107.456 240.006 107.834 239.419 108.262C238.814 108.701 238.212 109.204 238.488 110.064C238.745 110.866 239.533 110.382 240.044 110.594C238.053 111.112 236.062 111.631 234.067 112.146C233.484 112.297 233.045 112.146 232.716 111.597C232.239 110.809 231.709 110.056 231.081 109.102C234.616 108.391 237.924 107.725 241.232 107.058V107.055Z" fill="#A5BB00"/>
<path d="M149.302 152.639C148.318 153.222 147.209 153.301 146.346 153.521C147.004 152.786 147.75 151.957 148.594 151.011C149.003 151.371 149.185 151.954 149.302 152.639Z" fill="#B8CDD5"/>
<path d="M108.275 156.728C108.26 157.564 107.723 157.629 107.079 157.534C107.291 156.989 107.715 156.754 108.275 156.728Z" fill="#A5BB00"/>
<path d="M164.937 148.366C165.368 147.734 166 147.927 166.594 147.968C166.114 148.4 165.531 148.407 164.937 148.366Z" fill="#C30000"/>
<path d="M109.468 155.915C109.297 156.52 108.911 156.808 108.271 156.725C108.499 156.202 108.907 155.945 109.468 155.915Z" fill="#A5BB00"/>
<path d="M178.146 161.946C178.48 161.492 178.938 161.499 179.418 161.601C179.066 161.976 178.623 162.025 178.146 161.946Z" fill="#A5BB00"/>
<path d="M110.676 155.109C110.574 155.48 110.313 155.609 109.953 155.578C110.059 155.215 110.335 155.109 110.676 155.109Z" fill="#A5BB00"/>
<path d="M185.888 142.017C186.04 141.525 186.388 141.517 186.793 141.646C186.566 141.953 186.225 141.987 185.888 142.017Z" fill="#C30000"/>
<path d="M218.074 349.691C218.043 349.173 218.384 349.15 218.763 349.173C218.679 349.54 218.445 349.706 218.074 349.691Z" fill="#C30000"/>
<path d="M148.11 143.865C148.303 143.979 148.405 144.138 148.356 144.373C148.14 144.27 148.08 144.089 148.11 143.865Z" fill="#C30000"/>
<path d="M4.26414 310.176C4.10355 310.194 4.04005 310.138 4.07367 310.008C4.07367 310 4.17077 310 4.18945 310.026C4.22306 310.071 4.23053 310.135 4.2492 310.187L4.26041 310.176H4.26414Z" fill="#C30000"/>
<path d="M221.449 101.774C221.334 101.659 221.223 101.548 221.108 101.433C221.334 101.433 221.452 101.544 221.449 101.774Z" fill="#C30000"/>
<path d="M218.747 349.174C218.804 348.897 218.982 348.784 219.25 348.78C219.16 349.011 219.012 349.166 218.747 349.174Z" fill="#C30000"/>
<path d="M109.906 155.599C109.846 155.832 109.7 155.941 109.459 155.911C109.501 155.648 109.662 155.562 109.906 155.599Z" fill="#A5BB00"/>
<path d="M90.9967 109.702C90.9361 109.656 90.9096 109.596 90.9096 109.516C90.9437 109.24 90.8264 109.047 90.5841 108.926C87.4766 102.957 90.921 94.8944 97.2307 92.2259C104.256 89.2509 111.887 93.0738 113.957 98.8536C113.915 99.323 113.825 99.8075 114.343 100.099L114.336 100.084C114.108 101.458 114.036 102.881 113.624 104.198C111.001 112.631 100.073 115.951 93.4343 111.541C92.9309 111.204 92.4729 110.803 91.8029 110.966C91.8824 110.568 91.784 110.277 91.3373 110.201L91.3525 110.209C91.3638 109.948 91.2238 109.793 90.9929 109.705L90.9967 109.702Z" fill="#FA4616"/>
<path d="M91.8123 110.965C92.4822 110.802 92.9402 111.203 93.4437 111.54C100.079 115.953 111.01 112.63 113.633 104.197C114.042 102.88 114.114 101.457 114.345 100.083C115.882 103.368 115.359 106.631 113.864 109.681C109.678 118.224 98.4778 119.477 92.3914 112.176C92.0962 111.824 91.729 111.498 91.8123 110.961V110.965Z" fill="#C30000"/>
<path d="M114.345 100.104C113.826 99.8087 113.917 99.3242 113.958 98.8586C114.348 99.1917 114.409 99.6308 114.345 100.104Z" fill="#C30000"/>
<path d="M91.3522 110.205C91.7988 110.281 91.8972 110.572 91.8177 110.97C91.4089 110.867 91.3219 110.572 91.3522 110.205Z" fill="#C30000"/>
<path d="M90.9951 109.7C91.226 109.787 91.3661 109.942 91.3547 110.203C91.0822 110.143 90.9951 109.953 90.9951 109.7Z" fill="#C30000"/>
<path d="M90.5963 108.926C90.8385 109.051 90.9559 109.24 90.9218 109.516C90.6985 109.384 90.5925 109.183 90.5963 108.926Z" fill="#C30000"/>
<path d="M360.019 31.846C361.768 31.8385 363.013 32.3078 364.24 32.8491C372.661 36.5812 381.083 40.3057 389.505 44.0378C391.519 44.9311 393.532 45.8206 395.542 46.7214C396.031 46.9409 396.519 47.1605 396.977 47.433C399.32 48.8297 399.634 51.1386 397.768 53.1333C395.735 55.3098 392.117 55.9873 389.036 54.6701C385.353 53.0917 381.704 51.4414 378.04 49.8176C371.079 46.7328 364.122 43.6479 357.165 40.5555C356.556 40.283 355.935 40.0142 355.383 39.6471C353.437 38.3602 353.093 36.2935 354.554 34.4729C356.037 32.6182 358.108 31.9709 360.015 31.8498L360.019 31.846Z" fill="#141212"/>
<path d="M364.822 120.367C364.099 120.375 363.709 119.766 363.221 119.33C359.909 116.367 356.086 114.618 351.605 114.538C346.661 114.451 342.479 116.302 338.962 119.731C338.724 119.966 338.501 120.216 338.27 120.458C337.732 121.026 337.312 121.844 336.313 121.533C335.401 121.249 335.526 120.386 335.382 119.694C334.099 113.539 331.237 108.285 326.472 104.129C323.917 101.9 321.014 100.284 317.773 99.2731C317.327 99.133 316.873 99.0081 316.445 98.8302C316.116 98.694 315.923 98.4101 315.968 98.0353C316.013 97.6606 316.278 97.4562 316.608 97.3427C316.793 97.2783 317.001 97.2708 317.198 97.2405C325.995 95.9081 331.888 88.9701 333.254 80.4726C333.459 79.2121 333.553 77.9517 333.603 76.6799C333.652 75.4006 334.148 75.1772 335.211 75.9115C335.541 76.1386 335.828 76.4225 336.146 76.6723C342.418 81.5778 350.518 81.8579 357.097 77.418C357.676 77.0281 358.202 76.2295 359.016 76.6307C359.811 77.0244 359.557 77.9139 359.599 78.6292C360.053 86.7407 366.219 93.7658 374.546 95.6545C375.133 95.787 375.727 95.8854 376.317 95.999C377.12 96.1542 378.308 95.8779 378.305 97.1383C378.305 98.289 377.173 98.024 376.438 98.1678C374.588 98.5236 372.79 99.0422 371.147 99.9847C366.669 102.547 363.898 106.241 363.599 111.533C363.467 113.868 364.073 116.041 365.22 118.07C365.416 118.418 365.677 118.74 365.825 119.107C366.132 119.875 365.696 120.424 364.814 120.379L364.822 120.367ZM332.77 108.581L332.762 108.569C332.884 108.872 332.967 109.201 333.137 109.478C334.746 112.131 335.908 114.966 336.669 117.971C336.756 118.316 336.688 118.808 337.369 118.959C340.605 115.693 344.515 113.562 349.224 113.013C354.004 112.457 358.308 113.834 362.305 116.382C362.578 115.704 362.347 115.265 362.248 114.818C361.794 112.684 361.839 110.556 362.4 108.456C363.717 103.535 366.885 100.2 371.393 98.0089C371.927 97.7477 372.65 97.7288 373.024 96.9717C370.167 96.0217 367.597 94.765 365.329 92.9255C364.504 92.2555 363.876 91.3547 362.918 90.8399C360.219 87.3841 358.44 83.512 357.846 78.9093C354.129 81.2485 350.401 82.297 346.343 82.1645C342.289 82.032 338.731 80.4953 335.219 78.1712C334.125 87.8156 329.715 94.7991 320.351 98.289C321.948 99.186 323.239 99.8711 324.488 100.621C327.573 102.471 329.908 105.129 332.21 107.827C332.274 108.168 332.399 108.463 332.77 108.573V108.581Z" fill="#141212"/>
<path d="M267.966 51.1136C267.069 51.1136 266.827 50.7351 267.209 49.8115C267.932 48.059 269.136 46.6131 270.306 45.1672C274.242 40.2807 278.425 35.6023 282.993 31.31C288.137 26.4803 293.16 21.4953 298.909 17.3506C300.325 16.3287 301.866 15.5338 303.433 14.7881C303.883 14.5724 304.322 14.4967 304.727 14.879C305.189 15.3143 304.901 15.7382 304.701 16.1508C303.622 18.3991 302.043 20.3144 300.446 22.1766C296.93 26.2759 293.36 30.3562 289.39 34.0164C284.594 38.4336 279.965 43.0476 274.685 46.9348C273.072 48.1196 271.437 49.2627 269.806 50.4171C269.257 50.8032 268.674 51.1325 267.966 51.1174V51.1136Z" fill="#FCF6F5"/>
<path d="M304.527 160.57C307.895 162.792 310.25 165.748 311.241 169.723C313.236 177.717 308.16 185.896 300.121 187.607C291.937 189.348 283.943 183.954 282.562 175.764C281.774 171.104 283.039 167.039 286.055 163.462C286.434 163.015 287.028 162.716 287.07 162.027C287.505 162.054 287.797 161.8 288.13 161.562C293.239 157.947 298.584 157.591 304.152 160.43C304.269 160.491 304.402 160.525 304.527 160.57ZM284.568 176.869L284.56 176.854C284.53 177.319 284.522 177.777 285.003 178.054L284.996 178.042C284.965 178.735 285.109 179.337 285.817 179.651H285.813C285.715 180.245 286.078 180.673 286.4 181.085C290.083 185.874 296.514 188.307 303.073 184.984C309.636 181.657 311.207 174.677 309.406 169.098C308.607 166.623 307.335 164.317 304.795 163.08L304.78 163.091C304.746 162.838 304.576 162.716 304.352 162.652C301.253 160.108 297.664 159.756 293.944 160.57C288.039 161.857 282.713 167.86 284.22 175.601C284.152 176.074 284.144 176.532 284.572 176.865L284.568 176.869Z" fill="#141212"/>
<path d="M411.926 74.5959C411.79 73.0061 412.172 71.1893 411.6 69.4141C411.487 69.0658 411.581 68.6116 411.687 68.2407C411.808 67.8243 412.16 67.5821 412.615 67.6729C412.997 67.7486 413.111 68.0779 413.13 68.43C413.145 68.6987 413.164 68.9674 413.141 69.2324C412.887 72.5784 413.584 75.8866 413.55 79.225C413.538 80.3908 414.049 81.4204 414.538 82.4537C415.014 83.4643 415.794 84.0056 416.888 84.0434C418.22 84.0926 419.5 84.6112 420.859 84.4484C421.301 84.3954 421.915 84.4144 421.854 85.0957C421.797 85.7354 421.199 85.6521 420.745 85.6559C419.413 85.671 418.099 85.7732 416.771 85.9738C415.454 86.1744 414.757 86.8936 414.22 87.9421C413.557 89.2328 413.326 90.656 413.599 92.0375C414.201 95.0959 413.807 98.1693 413.932 101.231C413.958 101.883 414.027 102.753 413.073 102.711C412.297 102.677 412.346 101.883 412.346 101.284C412.331 98.4759 412.289 95.6636 412.346 92.8551C412.372 91.5606 412.089 90.3229 411.79 89.1116C411.21 86.7649 409.783 85.8451 406.839 85.671C405.771 85.6067 404.696 85.671 403.629 85.6445C403.08 85.6332 402.463 85.5385 402.49 84.8269C402.516 84.1305 403.137 84.0661 403.686 84.0623C404.957 84.0472 406.229 84.0586 407.497 84.0548C409.878 84.0472 411.029 82.9571 411.574 80.5725C412.013 78.6459 411.892 76.7231 411.933 74.5921L411.926 74.5959Z" fill="#FCF6F5"/>
<path d="M251.254 65.9238C251.182 65.2955 251.462 64.6861 251.81 64.1145C253.756 60.9237 256.432 58.4672 259.532 56.4384C259.699 56.3286 259.884 56.2453 260.069 56.1696C260.834 55.8668 261.724 55.6132 262.306 56.268C262.833 56.8585 262.473 57.6685 262.117 58.3309C260.641 61.0827 258.453 63.2175 256.076 65.1781C255.1 65.9844 254.085 66.7679 252.84 67.1123C251.761 67.4075 251.281 67.0328 251.254 65.9276V65.9238Z" fill="#FCF6F5"/>
<path d="M119.126 263.159C119.028 261.585 119.338 259.84 118.789 258.137C118.672 257.773 118.744 257.338 118.789 256.944C118.853 256.437 119.118 256.036 119.682 256.051C120.345 256.07 120.322 256.611 120.337 257.077C120.352 257.679 120.383 258.28 120.345 258.878C120.148 261.888 120.932 264.847 120.769 267.857C120.723 268.723 121.087 269.571 121.514 270.324C122.275 271.661 123.252 272.675 125.016 272.459C125.807 272.361 126.617 272.437 127.419 272.448C127.748 272.452 128.093 272.459 128.407 272.543C128.823 272.652 129.115 272.948 129.092 273.406C129.066 273.928 128.649 274.011 128.233 274.026C126.772 274.079 125.326 274.072 123.861 274.363C122.642 274.602 121.829 275.23 121.503 276.248C121.072 277.607 120.53 278.985 120.935 280.518C121.401 282.278 121.075 284.106 121.132 285.904C121.174 287.24 121.147 288.576 121.132 289.912C121.128 290.461 121.068 291.082 120.371 291.108C119.663 291.135 119.561 290.514 119.554 289.969C119.531 287.899 119.565 285.824 119.523 283.754C119.489 282.028 119.58 280.317 119.202 278.584C118.483 275.287 117.404 274.231 113.959 274.049C112.892 273.992 111.821 274.049 110.753 274.023C110.193 274.007 109.614 273.856 109.682 273.141C109.735 272.584 110.258 272.452 110.746 272.444C112.082 272.429 113.418 272.437 114.754 272.433C116.904 272.421 117.858 271.695 118.532 269.636C119.058 268.027 119.217 266.384 119.13 264.704C119.107 264.238 119.13 263.769 119.13 263.148L119.126 263.159Z" fill="#FCF6F5"/>
<path d="M147 216.936C144.252 213.828 143.332 210.21 143.983 206.152C144.831 203.578 146.092 201.288 148.302 199.593C153.662 195.482 161.44 196.795 165.119 202.462C165.479 203.018 165.816 203.59 166.16 204.154C166.917 206.671 167.318 209.199 166.599 211.811C166.259 213.049 165.649 214.146 165.097 215.282C162.254 218.984 158.575 220.785 153.851 220.27C151.16 219.979 148.991 218.647 147 216.932V216.936ZM163.851 213.859C166.853 209.169 165.237 202.878 160.312 200.088C155.448 197.333 149.298 199.089 146.777 203.949C144.021 207.882 145.342 214.551 150.361 217.428C155.183 220.191 161.205 218.613 163.847 213.859H163.851Z" fill="#141212"/>
<path d="M420.051 144.143C420.047 146.001 419.211 147.497 417.935 148.753C411.838 154.745 405.725 160.722 399.612 166.695C398.684 167.599 397.583 168.201 396.33 168.542C393.4 169.34 391.084 167.255 391.576 164.246C391.879 162.395 392.799 160.85 394.12 159.571C400.058 153.799 406.024 148.053 411.978 142.292C413.022 141.282 414.275 140.687 415.687 140.449C418.17 140.032 420.051 141.641 420.055 144.147L420.051 144.143ZM397.912 162.879C399.744 162.894 402.163 161.869 403.847 160.298C405.267 158.977 406.641 157.61 408.03 156.259C410.899 153.462 413.772 150.661 416.629 147.852C417.5 147.001 418.212 146.043 418.42 144.794C418.764 142.708 417.515 141.546 415.483 142.076C414.415 142.356 413.548 142.966 412.769 143.719C407.723 148.598 402.685 153.481 397.64 158.36C397.057 158.924 396.576 159.556 396.247 160.302C395.505 161.982 396.08 162.868 397.908 162.883L397.912 162.879Z" fill="#141212"/>
<path d="M323.763 231.009C323.403 230.896 323.195 230.65 323.229 230.271C323.286 229.654 323.596 229.124 323.941 228.636C327.381 223.719 331.553 219.51 336.363 215.945C337.056 215.434 338.036 214.457 338.831 215.214C339.675 216.013 338.635 216.94 338.139 217.633C334.725 222.394 330.652 226.513 325.898 229.949C325.076 230.544 324.009 231.032 323.763 231.009Z" fill="#FCF6F5"/>
<path d="M319.298 233.469C320.161 233.453 320.517 233.885 320.327 234.619C320.157 235.274 319.745 235.811 319.298 236.3C318.223 237.481 317.08 238.586 315.52 239.127C315.142 239.26 314.726 239.388 314.411 239.033C314.116 238.7 314.18 238.257 314.336 237.901C315.021 236.326 316.289 235.251 317.621 234.252C318.151 233.855 318.719 233.51 319.298 233.469Z" fill="#FCF6F5"/>
<path d="M59.8213 341.149C60.7865 341.126 61.6836 341.395 62.5428 341.762C70.3855 345.142 78.2206 348.541 86.0633 351.917C87.3275 352.462 88.3457 353.302 89.1936 354.351C90.9915 356.573 90.155 359.374 87.4335 360.267C85.4198 360.929 83.4516 360.574 81.5893 359.764C76.3886 357.5 71.2182 355.169 66.0326 352.871C63.7124 351.845 61.3883 350.831 59.0643 349.816C58.1975 349.438 57.3837 348.984 56.7516 348.268C55.5366 346.894 54.7569 345.346 55.5442 343.518C56.3315 341.682 57.9931 341.209 59.8213 341.145V341.149ZM85.0565 358.904C85.522 358.878 85.9952 358.889 86.4532 358.817C88.4555 358.488 89.0838 356.966 87.9256 355.32C87.1572 354.23 86.0179 353.681 84.8521 353.166C80.8739 351.425 76.8996 349.68 72.9177 347.95C69.9767 346.671 67.0433 345.384 64.0833 344.146C62.7434 343.586 61.1802 343.787 60.6995 344.457C60.1658 345.202 60.5026 346.436 61.6117 347.693C63.0916 349.37 64.8668 350.645 66.9221 351.542C72.0623 353.787 77.1986 356.039 82.3312 358.306C83.2056 358.692 84.1026 358.885 85.0527 358.901L85.0565 358.904Z" fill="#141212"/>
<path d="M274.739 118.471C273.656 118.471 273.248 118.028 273.32 117.101C273.38 116.325 273.815 115.727 274.292 115.171C277.237 111.704 280.795 109.069 285.046 107.43C285.939 107.086 287.037 106.514 287.805 107.551C288.505 108.501 287.695 109.364 287.146 110.038C284.092 113.778 280.307 116.541 275.753 118.199C275.382 118.335 274.985 118.407 274.743 118.471H274.739Z" fill="#FCF6F5"/>
<path d="M267.238 123.295C266.05 123.31 265.565 122.613 266.095 121.758C266.909 120.444 268.139 119.706 269.657 119.457C270.149 119.373 270.588 119.532 270.842 119.998C271.05 120.384 270.974 120.785 270.751 121.13C269.896 122.454 268.578 123.011 267.242 123.295H267.238Z" fill="#FCF6F5"/>
<path d="M332.21 107.835C329.913 105.137 327.573 102.479 324.489 100.629C323.24 99.8791 321.949 99.194 320.352 98.2969C329.716 94.8071 334.129 87.8236 335.219 78.1792C338.736 80.5032 342.294 82.04 346.344 82.1725C350.401 82.3049 354.13 81.2565 357.847 78.9173C358.441 83.52 360.22 87.3921 362.919 90.8479C362.919 91.5141 362.896 92.184 362.926 92.8502C363.059 96.041 361.745 98.6792 359.766 101.041C356.124 105.379 351.446 108.1 346.026 109.52C342.082 110.549 338.119 110.614 334.296 108.884C333.796 108.657 333.315 108.464 332.759 108.577L332.767 108.589C332.816 108.161 332.71 107.854 332.206 107.843L332.21 107.835Z" fill="#FCF6F5"/>
<path d="M332.76 108.574C333.317 108.46 333.797 108.657 334.297 108.88C338.12 110.61 342.083 110.549 346.027 109.516C351.447 108.1 356.126 105.375 359.767 101.037C361.746 98.6794 363.064 96.0374 362.927 92.8466C362.901 92.1804 362.924 91.5104 362.92 90.8442C363.877 91.359 364.502 92.2599 365.331 92.9298C367.598 94.7694 370.164 96.0222 373.026 96.9761C372.651 97.7293 371.928 97.752 371.395 98.0132C366.887 100.201 363.718 103.539 362.401 108.46C361.841 110.561 361.796 112.688 362.25 114.823C362.344 115.273 362.579 115.708 362.307 116.386C358.31 113.839 354.01 112.461 349.225 113.017C344.517 113.566 340.603 115.697 337.37 118.964C336.685 118.816 336.757 118.32 336.67 117.976C335.906 114.97 334.744 112.135 333.139 109.482C332.972 109.206 332.889 108.876 332.764 108.574H332.76Z" fill="#CEE4EA"/>
<path d="M332.211 107.836C332.715 107.848 332.821 108.158 332.772 108.582C332.401 108.472 332.276 108.177 332.211 107.836Z" fill="#CEE4EA"/>
<path d="M284.202 175.607C282.696 167.866 288.021 161.867 293.926 160.576C297.647 159.763 301.235 160.115 304.335 162.658C304.354 162.927 304.479 163.09 304.763 163.097L304.778 163.086C304.634 163.589 304.925 163.983 305.111 164.403C305.565 165.444 305.86 166.508 305.913 167.666C306.19 173.612 302.003 178.472 297.768 180.645C294.07 182.541 290.379 182.659 286.901 179.998C286.587 179.755 286.231 179.547 285.796 179.649L285.799 179.653C285.924 178.915 285.716 178.344 284.978 178.045L284.986 178.056C285.042 177.583 285.054 177.121 284.543 176.856L284.55 176.871C284.634 176.394 284.634 175.94 284.198 175.607H284.202Z" fill="#FA4616"/>
<path d="M285.807 179.648C286.243 179.549 286.595 179.757 286.913 179.996C290.391 182.657 294.081 182.539 297.78 180.643C302.015 178.47 306.201 173.61 305.925 167.664C305.872 166.506 305.577 165.442 305.123 164.401C304.937 163.981 304.646 163.587 304.789 163.084C307.329 164.322 308.601 166.627 309.4 169.102C311.201 174.681 309.631 181.661 303.067 184.988C296.512 188.312 290.077 185.878 286.394 181.09C286.076 180.673 285.709 180.249 285.807 179.651V179.648Z" fill="#C30000"/>
<path d="M284.99 178.047C285.731 178.342 285.936 178.914 285.811 179.655C285.103 179.341 284.959 178.739 284.99 178.047Z" fill="#C30000"/>
<path d="M284.556 176.854C285.067 177.119 285.052 177.581 284.999 178.054C284.518 177.778 284.525 177.32 284.556 176.854Z" fill="#C30000"/>
<path d="M284.197 175.607C284.632 175.94 284.636 176.394 284.549 176.871C284.121 176.538 284.125 176.08 284.197 175.607Z" fill="#C30000"/>
<path d="M304.767 163.093C304.482 163.089 304.358 162.928 304.343 162.658C304.568 162.721 304.733 162.842 304.767 163.093Z" fill="#C30000"/>
<path d="M146.768 203.948C149.285 199.088 155.44 197.331 160.304 200.087C165.228 202.876 166.844 209.163 163.843 213.857C163.328 213.743 162.976 214.069 162.556 214.273C158.108 216.427 152.752 215.644 149.418 211.756C147.472 209.485 147.022 206.764 146.772 203.951L146.768 203.948Z" fill="#FCF6F5"/>
<path d="M146.77 203.949C147.02 206.765 147.471 209.487 149.416 211.754C152.747 215.641 158.107 216.429 162.554 214.271C162.974 214.067 163.33 213.741 163.841 213.855C161.199 218.609 155.177 220.187 150.355 217.424C145.336 214.547 144.015 207.882 146.77 203.945V203.949Z" fill="#CEE4EA"/>
<path d="M397.917 162.881C396.085 162.866 395.513 161.98 396.255 160.3C396.584 159.558 397.065 158.922 397.648 158.358C402.69 153.479 407.731 148.596 412.777 143.717C413.557 142.964 414.423 142.355 415.491 142.075C417.523 141.545 418.772 142.703 418.428 144.792C418.22 146.045 417.508 146.999 416.638 147.851C413.776 150.659 410.907 153.46 408.038 156.257C406.649 157.608 405.275 158.975 403.855 160.296C402.167 161.867 399.752 162.889 397.92 162.877L397.917 162.881Z" fill="#FA4616"/>
<path d="M85.059 358.901C84.109 358.883 83.2119 358.693 82.3376 358.307C77.205 356.04 72.0686 353.788 66.9285 351.543C64.8732 350.646 63.098 349.371 61.618 347.694C60.509 346.437 60.1721 345.203 60.7058 344.458C61.1865 343.788 62.7498 343.587 64.0897 344.147C67.0458 345.381 69.9831 346.672 72.9241 347.951C76.906 349.685 80.8803 351.426 84.8584 353.167C86.028 353.678 87.1635 354.231 87.9319 355.321C89.0939 356.967 88.4618 358.489 86.4595 358.818C86.0015 358.894 85.5284 358.879 85.0628 358.905L85.059 358.901Z" fill="#C30000"/>
</svg>
