<svg width="355" height="346" viewBox="0 0 355 346" fill="none" xmlns="http://www.w3.org/2000/svg">
<path d="M190.665 220.792C192.327 223.718 194.169 226.142 196.394 228.222C196.836 228.636 197.318 229.007 197.732 229.451C198.762 230.549 198.899 231.723 198.034 232.997C197.662 233.544 197.67 233.83 198.082 234.299C200.341 236.887 202.764 239.28 205.714 240.874C209.079 242.692 211.046 246.953 209.009 251.655C207.769 254.514 205.7 256.488 203.123 257.795C199.744 259.511 196.201 260.262 192.47 259.459C192.187 259.398 191.893 259.401 191.415 259.356C191.415 260.828 191.432 262.242 191.415 263.659C191.202 279.27 190.987 294.884 190.766 310.494C190.715 313.986 190.542 317.483 190.626 320.972C190.665 322.602 190.071 323.426 188.871 324.214C180.93 329.423 172.575 333.651 163.818 336.956C154.648 340.417 145.258 342.86 135.638 344.298C128.291 345.396 120.913 345.956 113.507 345.737C100.728 345.356 88.2416 343.218 76.3295 337.911C72.9036 336.385 69.6177 334.563 66.4326 332.51C65.5341 331.932 64.9827 331.212 64.6329 330.162C61.7556 321.513 59.0938 312.788 56.7008 303.968C52.6508 289.054 49.2585 273.963 46.4372 258.717C46.4008 258.519 46.4232 258.288 46.1797 258.13C45.7795 258.115 45.7123 258.54 45.5499 258.82C42.46 264.158 40.7554 270.015 40.0333 276.235C39.899 277.387 39.8486 278.552 39.7534 279.714C39.7198 280.124 39.7702 280.644 39.2608 280.727C38.6674 280.824 38.5723 280.273 38.4519 279.814C38.3596 279.458 38.2952 279.093 38.2056 278.734C35.8098 269.094 31.046 261.293 23.0831 256.065C18.5069 253.057 13.5165 251.685 8.13978 252.084C7.54642 252.126 6.75433 252.54 6.37088 251.862C5.95104 251.117 6.77112 250.658 7.10699 250.137C9.6232 246.229 10.9779 241.835 11.5796 237.176C12.8447 227.38 11.5516 217.979 7.55201 209.062C6.02381 205.656 4.04779 202.593 1.47839 200.002C0.470785 198.986 0.540757 198.536 1.76388 198.007C6.52482 195.951 10.267 192.463 13.3038 188.08C19.0891 179.726 21.9384 170.283 21.9272 159.824C21.9272 159.35 21.916 158.872 21.9356 158.398C21.9496 158.112 22.1147 157.896 22.3722 157.838C22.7025 157.765 22.9516 157.945 23.0551 158.279C23.1643 158.629 23.2259 158.997 23.3014 159.356C24.9808 167.26 29.056 173.37 35.1296 177.977C35.4655 178.233 35.779 178.634 36.3807 178.5C36.294 176.831 36.2128 175.158 36.1204 173.485C35.9413 170.265 35.7426 167.044 35.5802 163.823C34.8945 150.344 34.6734 136.853 34.721 123.356C34.7434 116.687 34.8833 110.017 35.1156 103.357C35.4095 94.8991 35.8937 86.4535 36.4143 78.0079C36.5375 76.0342 37.1868 74.7051 38.4435 73.3943C51.2681 60.0158 66.3794 51.1536 83.5367 46.3149C93.3524 43.5474 103.347 42.343 113.477 42.6472C130.62 43.1611 146.845 47.6531 162.113 56.1777C162.525 56.4089 162.9 56.7586 163.555 56.7951C163.098 55.8067 162.539 55.0981 162.012 54.3712C158.992 50.2017 155.415 46.7498 151.007 44.3837C150.747 44.2438 150.461 44.113 150.265 43.8941C149.876 43.4592 149.974 42.8631 150.458 42.559C150.624 42.4525 150.82 42.4039 151.004 42.3339C157.313 40.0013 161.858 35.4333 165.018 29.1652C167.372 24.4969 168.553 19.4393 168.881 14.1535C169.141 9.96571 168.906 5.79918 168.108 1.67827C168.008 1.15213 167.644 0.38877 168.299 0.12418C169.04 -0.173864 169.214 0.714185 169.471 1.22816C172.287 6.86667 176.077 11.5563 181.006 15.1055C186.086 18.7641 191.644 20.744 197.791 20.5919C200.293 20.5311 202.722 20.0445 205.085 19.1564C205.407 19.0348 205.731 18.9253 206.05 18.7945C206.33 18.6789 206.624 18.5755 206.87 18.8158C207.178 19.1199 207.047 19.494 206.918 19.8437C204.03 27.6263 204.816 35.4241 206.963 43.1702C208.799 49.788 211.808 55.7398 216.07 60.9039C218.298 63.6015 220.812 65.922 223.781 67.6159C224.039 67.7619 224.302 67.9109 224.52 68.1147C224.825 68.3945 224.823 68.7747 224.621 69.1183C224.52 69.2886 224.344 69.4103 224.187 69.5319C218.909 73.6954 215.858 79.5134 213.971 86.1129C211.452 94.9235 211.346 103.807 213.647 112.709C213.778 113.223 214.246 113.901 213.507 114.22C212.787 114.53 212.667 113.715 212.435 113.238C208.555 105.273 202.541 100.197 194.631 97.6788C194.449 97.6211 194.264 97.5785 193.856 97.469C193.48 123.143 193.105 148.717 192.73 174.316C193.391 174.456 193.788 174.005 194.225 173.729C199.067 170.681 203.313 166.819 207.161 162.43C212.205 156.682 216.434 150.32 219.362 143.003C220.493 140.181 221.405 137.267 221.643 134.186C221.819 131.923 221.775 129.639 221.822 127.368C221.951 121.282 222.388 115.215 223.045 109.175C223.916 101.188 225.209 93.2781 227.062 85.4834C229.835 73.811 233.617 62.5735 239.36 52.2059C243.612 44.5297 248.728 37.6351 255.395 32.2339C260.503 28.0947 266.129 25.2085 272.452 24.062C279.606 22.7664 286.513 23.8339 293.2 26.7535C300.539 29.959 306.803 34.9193 312.448 40.8589C319.857 48.6537 325.785 57.674 330.84 67.3939C338.548 82.2201 343.933 98.0377 347.812 114.497C350.169 124.5 351.873 134.636 353.01 144.882C354.28 156.351 354.804 167.871 354.485 179.416C354.02 196.185 352.019 212.715 347.527 228.821C344.42 239.961 340.252 250.575 334.153 260.21C330.176 266.493 325.513 272.068 319.742 276.481C315.641 279.613 311.188 281.925 306.307 283.211C305.7 283.372 305.241 283.604 304.91 284.206C300.905 291.563 299.324 299.376 301.154 307.821C301.535 309.579 302.156 311.246 302.834 312.891C302.951 313.174 303.136 313.469 302.918 313.779C302.669 314.138 302.333 314.08 301.991 313.958C296.15 311.872 290.339 312.517 284.593 314.348C277.115 316.732 270.582 320.902 265.152 327.021C262.801 329.67 260.847 332.62 259.504 336.02C259.409 336.263 259.33 336.522 259.196 336.737C258.857 337.282 258.449 337.321 257.964 336.883C257.892 336.817 257.833 336.725 257.771 336.646C254.082 331.896 249.26 329.125 243.866 327.489C235.022 324.807 226.247 325.172 217.599 328.581C217.235 328.724 216.871 328.882 216.493 328.976C216.247 329.037 216.02 328.924 215.897 328.642C215.777 328.362 215.841 328.097 216.031 327.924C216.289 327.687 216.591 327.507 216.877 327.307C224.837 321.656 229.099 313.569 230.029 303.387C230.742 295.541 229.038 288.263 225.245 281.551C224.96 281.046 224.308 280.541 224.778 279.881C225.206 279.279 225.867 279.656 226.424 279.784C240.681 283.011 253.427 279.349 264.881 269.808C265.074 269.647 265.258 269.474 265.438 269.294C265.505 269.228 265.549 269.133 265.622 269.021C265.558 268.899 265.513 268.738 265.415 268.641C257.34 260.569 250.99 251.047 245.574 240.746C244.32 238.362 243.141 235.926 242.011 233.465C241.535 232.431 240.902 231.637 240.068 230.956C235.442 227.188 230.236 224.789 224.677 223.219C219.362 221.717 213.949 221.139 208.471 221.382C206.042 221.489 203.593 221.696 201.239 222.362C199.423 222.876 197.788 222.617 196.425 221.385C195.09 220.181 193.735 220.157 192.213 220.558C191.793 220.668 191.353 220.689 190.662 220.786L190.665 220.792ZM202.585 220.759L202.613 220.753C203 220.725 203.389 220.722 203.769 220.668C209.314 219.868 214.842 219.986 220.353 221.002C226.995 222.225 233.256 224.56 238.926 228.599C239.223 228.809 239.525 229.013 239.844 229.232C239.898 229.046 239.934 228.989 239.92 228.952C239.774 228.563 239.629 228.17 239.469 227.787C231.775 209.309 226.874 189.957 224.112 169.93C223.846 168.002 223.753 166.043 223.286 164.149C223.252 163.464 223.252 162.774 223.177 162.096C222.693 157.796 222.351 153.48 222.127 149.155C221.976 146.236 221.856 143.313 221.724 140.393C221.108 141.558 220.689 142.775 220.199 143.958C216.202 153.571 210.254 161.579 202.958 168.437C198.894 172.26 194.477 175.514 189.402 177.588C188.669 177.886 188.193 178.452 187.762 179.094C186.657 180.745 186.01 182.615 185.593 184.586C184.776 188.451 184.795 192.35 185.302 196.246C186.15 202.767 188.07 208.868 191.474 214.36C192.895 216.656 194.58 218.697 196.733 220.233C198.115 221.221 199.56 221.854 201.239 221.115C201.55 220.978 201.902 220.963 202.235 220.89C202.384 220.947 202.515 220.953 202.583 220.762L202.585 220.759ZM310.483 280.501C313.615 279.388 316.417 277.582 319.095 275.547C324.59 271.372 329.054 266.092 332.883 260.152C338.458 251.497 342.421 241.981 345.453 231.984C350.289 216.048 352.601 199.619 353.25 182.907C353.653 172.543 353.455 162.178 352.539 151.832C351.812 143.614 350.779 135.454 349.315 127.352C346.371 111.048 341.943 95.255 335.544 80.1429C330.347 67.8684 324.01 56.3754 315.664 46.2875C310.22 39.7062 304.102 34.0252 296.813 29.9407C291.509 26.9694 285.909 25.096 279.933 24.8071C273.048 24.4756 266.621 26.3216 260.64 30.0137C254.572 33.7575 249.615 38.8669 245.395 44.8429C239.192 53.617 234.806 63.4372 231.476 73.8384C227.977 84.7656 225.76 96.0122 224.394 107.478C223.356 116.2 222.894 124.956 222.793 133.742C222.735 138.821 222.967 143.894 223.236 148.967C223.644 156.734 224.45 164.45 225.564 172.135C227.426 184.96 230.233 197.527 234.104 209.81C238.428 223.529 243.967 236.616 251.376 248.714C255.518 255.478 260.206 261.752 265.689 267.299C266.641 268.263 266.655 268.26 267.545 267.293C270.713 263.854 273.322 260 274.979 255.441C275.052 255.244 275.097 255.031 275.197 254.854C275.628 254.118 276.292 254.112 276.684 254.87C276.969 255.42 277.154 256.031 277.417 256.594C280.722 263.635 286.035 268.09 292.839 270.514C300.298 273.169 307.799 272.825 315.289 270.584C315.616 270.487 315.941 270.362 316.271 270.286C316.587 270.213 316.867 270.335 316.988 270.672C317.086 270.946 316.957 271.204 316.758 271.372C316.375 271.694 315.966 271.983 315.569 272.287C314.309 273.248 313.019 274.17 311.729 275.581C312.602 275.438 313.173 275.347 313.744 275.246C314.077 275.188 314.407 275.091 314.743 275.052C314.942 275.03 315.126 275.149 315.216 275.356C315.317 275.59 315.185 275.754 315.02 275.876C314.779 276.055 314.513 276.198 314.281 276.387C312.843 277.558 311.356 278.671 310.178 280.176C310.027 280.276 309.786 280.435 309.89 280.59C310.06 280.842 310.293 280.651 310.477 280.492L310.483 280.501ZM36.0085 123.965C35.9553 123.965 35.9021 123.965 35.8489 123.965C35.8489 126.136 35.8349 128.304 35.8517 130.476C35.8993 136.193 35.8629 141.911 36.0477 147.622C36.238 153.541 36.3863 159.465 36.7726 165.377C37.0553 169.702 37.254 174.036 37.4723 178.367C37.5199 179.297 37.8502 179.896 38.6618 180.328C43.7139 183.011 49.0402 184.209 54.6492 183.95C56.698 183.856 58.716 183.534 60.7116 183.014C61.5765 182.789 62.0159 183.12 61.862 183.811C61.7864 184.157 61.5793 184.477 61.4085 184.796C60.7984 185.939 60.1182 187.043 59.5697 188.223C54.1566 199.899 53.177 212.076 56.3089 224.633C58.0778 231.717 61.2658 237.954 66.4046 242.875C66.5137 242.981 66.6369 243.073 66.7293 243.194C67.2946 243.933 67.0679 244.624 66.2059 244.779C65.968 244.821 65.7189 244.797 65.4781 244.818C62.0831 245.138 58.8895 246.184 55.9115 247.981C54.8031 248.65 54.7919 248.796 55.57 249.861C55.752 250.11 55.9563 250.338 56.1578 250.566C57.5489 252.142 59.2786 253.066 61.1902 253.632C61.6129 253.757 62.1111 253.796 62.1642 254.404C62.209 254.934 61.75 255.067 61.4225 255.268C59.9223 256.193 58.632 257.379 57.5405 258.832C54.1454 263.346 52.5584 268.589 52.2757 274.34C52.0462 278.978 52.6872 283.515 53.7591 287.992C57.129 302.073 61.0307 315.972 65.6377 329.636C65.926 330.488 66.3486 331.081 67.0567 331.537C68.8172 332.671 70.5945 333.763 72.4362 334.736C84.4183 341.062 97.2037 343.745 110.392 344.462C118.431 344.9 126.449 344.484 134.435 343.331C140.374 342.47 146.246 341.251 152.048 339.627C153.151 339.316 153.168 339.295 153.098 338.03C152.846 333.489 152.546 328.955 152.323 324.414C151.998 317.812 151.704 311.206 151.433 304.603C151.214 299.266 151.024 293.926 150.867 288.585C150.638 280.705 150.433 272.825 150.257 264.942C150.148 260.076 150.097 255.207 150.027 250.338C149.823 235.731 149.815 221.121 149.871 206.514C149.921 193.123 150.117 179.738 150.439 166.351C150.582 160.375 150.694 154.395 150.884 148.419C151.083 142.182 151.357 135.947 151.603 129.712C151.838 123.794 152.043 117.873 152.331 111.955C152.628 105.881 153.003 99.8138 153.355 93.7465C153.68 88.2053 153.974 82.658 154.366 77.1229C154.867 70.0581 155.455 63.0023 156 55.9436C156.115 54.4686 156.109 54.4625 154.844 53.8633C141.421 47.5071 127.362 44.2712 112.752 43.8819C106.465 43.7146 100.207 44.2499 93.985 45.2991C83.5199 47.0631 73.5194 50.4267 64.0087 55.4874C54.6156 60.4872 46.1713 66.9438 38.701 74.9089C38.0461 75.6084 37.6822 76.3109 37.6207 77.3662C37.4387 80.4805 37.2372 83.5917 37.0245 86.7029C36.5095 94.303 36.2576 101.915 36.0337 109.525C35.8909 114.336 36.0057 119.156 36.0057 123.974L36.0085 123.965ZM157.221 55.016C156.918 58.5803 156.622 61.8345 156.375 65.0947C156.132 68.3063 155.984 71.5301 155.709 74.7386C155.141 81.4233 154.819 88.1293 154.377 94.8231C154.033 100.042 153.767 105.27 153.512 110.495C153.193 117.043 152.905 123.59 152.63 130.138C152.412 135.369 152.213 140.6 152.051 145.831C151.83 153.021 151.648 160.21 151.458 167.4C151.326 172.372 151.329 177.345 151.197 182.317C150.884 194.054 151.203 205.796 150.898 217.535C150.783 221.972 150.848 226.422 150.982 230.865C151.122 235.518 151.06 240.18 151.088 244.837C151.094 245.682 151.155 246.518 151.265 247.361C151.598 249.928 152.068 252.467 152.572 254.997C154.335 263.884 156.991 272.424 161.041 280.41C163.333 284.933 166.088 289.09 169.564 292.633C173.278 296.413 177.454 299.324 182.509 300.559C184.572 301.063 186.648 301.155 188.748 301.124C189.506 301.115 189.758 300.778 189.758 299.984C189.758 298.877 189.892 297.767 189.903 296.66C189.948 292.478 189.959 288.296 189.996 284.118C190.013 282.214 189.979 280.304 190.094 278.403C190.293 275.125 190.147 271.843 190.276 268.568C190.301 267.92 190.038 267.619 189.526 267.4C188.848 267.108 188.182 266.779 187.536 266.414C183.284 263.993 180.272 260.25 178.075 255.706C175.679 250.752 174.526 245.433 174.56 239.834C174.565 238.982 174.409 238.462 173.656 238.103C172.976 237.784 172.352 237.179 172.181 236.418C171.806 234.776 170.678 234.32 169.446 233.611C165.36 231.254 163.185 227.416 163.457 222.359C163.557 220.5 163.196 219.439 161.984 218.11C156.524 212.131 157.4 201.787 163.16 197.146C163.521 196.858 163.809 196.535 163.986 196.07C164.8 193.886 166.342 192.524 168.246 191.505C173.398 188.746 178.523 185.924 183.679 183.169C184.558 182.7 185.123 182.101 185.501 181.083C186.38 178.722 187.622 176.661 190.13 176.013C190.27 175.976 190.402 175.891 190.542 175.848C191.429 175.581 191.681 174.963 191.698 173.969C191.801 168.309 191.726 162.649 191.93 156.987C192.173 150.22 192.036 143.444 192.224 136.671C192.47 127.681 192.487 118.685 192.602 109.689C192.624 107.913 192.618 107.913 191.115 107.314C190.841 107.204 190.567 107.095 190.287 107.006C185.719 105.565 181.16 105.775 176.6 107.076C175.279 107.453 174.008 107.983 172.735 108.509C172.458 108.621 172.136 108.652 171.951 108.332C171.811 108.089 171.904 107.812 172.055 107.593C172.228 107.338 172.419 107.098 172.606 106.857C174.221 104.768 175.391 102.399 176.267 99.8564C176.449 99.3303 176.726 98.8011 176.449 98.1137C175.52 98.2658 174.677 98.6612 173.843 99.0444C172.724 99.5583 171.635 100.151 170.535 100.717C170.222 100.878 169.908 101.076 169.581 100.817C169.211 100.525 169.22 100.1 169.32 99.6678C169.357 99.5158 169.415 99.3698 169.46 99.2177C171.184 93.4119 171.797 87.4815 171.364 81.3837C170.832 73.9357 168.959 66.9529 165.668 60.4051C165.435 59.9398 165.212 59.4866 164.755 59.2008C162.399 57.7227 159.958 56.4302 157.235 55.0129L157.221 55.016ZM169.729 4.60396C169.796 5.47377 169.841 6.10331 169.897 6.72981C170.451 12.8154 169.944 18.7823 168.078 24.5668C165.315 33.1219 160.364 39.5329 152.524 43.0638C152.362 43.1368 152.141 43.1338 152.051 43.5109C160.932 48.9395 166.502 57.3425 169.847 67.6433C173.194 77.9502 173.583 88.3908 170.728 99.0961C172.077 98.4969 173.228 97.9678 174.395 97.472C175.573 96.9702 176.771 96.5201 178.011 96.2373C179.2 95.9666 180.401 95.7446 181.599 95.5256C182.85 95.2975 184.113 95.185 185.38 95.2063C186.646 95.2276 187.916 95.2215 189.173 95.3492C190.43 95.477 191.689 95.6868 192.921 95.9788C194.152 96.2707 195.361 96.6935 196.57 97.0888C197.785 97.4842 198.952 98.0195 200.077 98.6551C201.155 99.2633 202.221 99.905 203.263 100.586C204.346 101.298 205.351 102.137 206.322 103.022C207.293 103.907 208.219 104.844 209.059 105.878C209.86 106.863 210.635 107.873 211.424 108.874C211.57 108.475 211.545 108.214 211.505 107.958C210.394 100.525 210.772 93.1839 212.824 85.9882C214.702 79.3948 217.716 73.5525 222.774 69.1579C222.919 69.0301 223.065 68.8902 222.978 68.577C219.888 66.6944 217.184 64.2128 214.847 61.2597C209.686 54.7423 206.389 47.2273 204.782 38.8334C203.638 32.8421 203.512 26.863 205.295 20.9599C205.339 20.8139 205.356 20.6527 205.166 20.5432C205.102 20.5432 205.004 20.525 204.914 20.5463C204.676 20.6041 204.444 20.6801 204.209 20.7531C198.997 22.3589 193.808 22.1855 188.669 20.4307C181.19 17.876 175.38 12.858 170.849 5.98774C170.574 5.57413 170.395 5.06928 169.732 4.60701L169.729 4.60396ZM275.905 256.5C275.595 256.804 275.472 257.266 275.29 257.683C274.17 260.225 272.782 262.582 271.139 264.76C266.621 270.739 260.951 275.03 254.432 278.011C246.509 281.636 238.28 283.044 229.715 281.724C228.668 281.563 227.63 281.362 226.323 281.131C230.387 288.588 232.01 296.413 231.036 304.768C230.051 313.229 226.575 320.327 220.49 326.063C221.383 326.139 221.976 325.853 222.583 325.707C229.155 324.131 235.724 324.098 242.279 325.783C248.322 327.337 253.755 330.132 258.079 335.132C258.166 335.232 258.328 335.256 258.502 335.335C262.387 326.656 268.768 320.774 276.516 316.553C284.297 312.313 292.458 310.172 301.168 312.316C301.308 311.924 301.143 311.699 301.059 311.465C298.968 305.537 298.739 299.494 300.175 293.375C302.044 285.407 306.125 278.969 311.88 273.716C312.249 273.379 312.747 273.145 312.949 272.448C312.588 272.515 312.35 272.555 312.118 272.606C306.455 273.811 300.788 273.941 295.162 272.439C286.916 270.237 280.406 265.472 276.432 257.084C276.328 256.865 276.244 256.6 275.911 256.497L275.905 256.5ZM23.2343 163.583C23.0943 163.766 22.9992 163.829 22.988 163.908C22.9208 164.325 22.862 164.745 22.82 165.165C22.1063 172.381 20.0127 179.097 16.4889 185.258C13.105 191.173 8.78353 196.012 2.81347 198.886C2.68752 198.947 2.58116 199.059 2.51399 199.111C2.60915 199.552 2.84985 199.747 3.05417 199.972C5.30169 202.441 7.0706 205.276 8.48965 208.375C12.1142 216.282 13.5361 224.679 13.0743 233.456C12.7552 239.511 11.3977 245.256 8.33851 250.426C8.29932 250.493 8.3441 250.618 8.3497 250.724C8.6044 250.943 8.90109 250.834 9.17818 250.825C15.4533 250.667 21.0679 252.78 26.0976 256.761C31.7765 261.256 35.653 267.232 38.1217 274.337C38.3008 274.851 38.3708 275.438 38.7682 275.879C38.8522 275.733 38.9305 275.651 38.9501 275.553C39.0313 275.14 39.0985 274.723 39.16 274.306C40.0557 268.279 41.8666 262.61 44.9958 257.51C49.6168 249.979 55.8303 245.022 64.241 243.696C64.5293 243.65 64.9408 243.766 65.0975 243.261C57.7616 235.473 54.4029 225.768 53.6276 214.868C52.8607 204.056 54.9767 193.923 60.2414 184.334C52.3149 186.003 44.9874 185.064 38.0573 181.25C31.0992 177.421 26.1367 171.53 23.2399 163.58L23.2343 163.583ZM193.391 219.126C185.635 208.919 182.721 197.299 184.353 184.282C184.166 184.321 184.065 184.318 183.981 184.364C178.8 187.168 173.639 190.009 168.439 192.77C165.925 194.105 164.699 196.337 164.238 199.205C163.546 203.503 164.277 207.621 165.587 211.653C166.583 214.722 167.968 217.55 170.096 219.901C171.638 221.604 173.401 222.276 175.64 221.893C180.488 221.069 185.366 220.436 190.225 219.676C191.267 219.512 192.344 219.506 193.391 219.123V219.126ZM175.917 226.3C176.057 230.436 176.525 234.527 177.482 238.532C178.669 243.492 180.443 248.164 183.519 252.139C185.94 255.265 188.899 257.491 192.635 258.318C195.123 258.869 197.503 258.68 199.479 256.682C201.365 254.775 201.396 252.315 199.49 250.457C194.771 245.865 191.253 240.326 188.496 234.18C186.892 230.606 185.627 226.89 184.689 223.043C184.392 221.823 184.373 221.787 183.211 221.939C181.039 222.228 178.873 222.593 176.701 222.873C176.057 222.955 175.892 223.289 175.912 223.913C175.937 224.706 175.917 225.5 175.917 226.294V226.3ZM200.5 257.51C201.788 257.376 202.728 256.707 203.68 256.132C205.838 254.833 207.425 252.945 208.289 250.411C209.409 247.133 208.351 243.997 205.544 242.282C203.713 241.166 201.958 239.934 200.385 238.429C199.291 237.382 198.278 236.236 197.239 235.126C196.943 234.81 196.682 234.548 196.246 234.895C194.804 236.038 193.226 236.926 191.51 237.638C192.168 239.016 192.854 240.165 193.578 241.287C195.482 244.237 197.575 247.005 200.105 249.362C201.483 250.645 202.182 252.257 201.956 254.274C201.821 255.475 201.169 256.402 200.503 257.51H200.5ZM168.814 220.312C164.246 213.974 162.373 206.888 162.886 198.935C162.6 199.108 162.483 199.339 162.329 199.54C159.72 202.94 158.925 206.839 159.762 211.118C160.406 214.403 161.973 217.076 164.635 218.888C165.866 219.728 167.196 220.291 168.817 220.312H168.814ZM194.32 234.645C195.095 234.375 195.574 233.918 196.064 233.499C197.925 231.899 197.95 231.087 196.067 229.439C194.004 227.632 192.131 225.594 190.794 223.152C189.803 221.343 188.68 220.887 186.923 221.337C185.761 221.635 185.613 221.693 186.111 222.839C187.53 226.111 189.232 229.159 191.972 231.373C192.988 232.194 193.948 233.094 194.323 234.645H194.32ZM187.499 228.192C188.227 230.88 189.344 233.389 190.533 235.868C190.785 236.394 191.062 236.476 191.583 236.288C193.464 235.597 193.702 234.584 192.277 233.128C192.134 232.982 191.986 232.845 191.829 232.72C190.209 231.431 188.77 229.943 187.499 228.192Z" fill="#121212"/>
<path d="M36.0004 123.961C36.0004 119.144 35.8828 114.324 36.0283 109.512C36.2551 101.9 36.5042 94.2876 37.0192 86.6906C37.2291 83.5793 37.4334 80.4681 37.6153 77.3539C37.6769 76.2986 38.0408 75.596 38.6957 74.8965C46.166 66.9315 54.6103 60.4749 64.0034 55.475C73.5141 50.4113 83.5146 47.0507 93.9797 45.2868C100.202 44.2375 106.46 43.7023 112.746 43.8696C127.359 44.2588 141.418 47.4947 154.839 53.851C156.104 54.4501 156.107 54.4562 155.995 55.9312C155.449 62.99 154.861 70.0457 154.36 77.1106C153.969 82.6487 153.675 88.193 153.35 93.7341C152.995 99.8015 152.62 105.872 152.326 111.942C152.037 117.857 151.833 123.779 151.598 129.7C151.352 135.935 151.077 142.169 150.879 148.407C150.688 154.383 150.576 160.362 150.434 166.338C150.112 179.723 149.916 193.11 149.865 206.501C149.809 221.111 149.818 235.719 150.022 250.326C150.089 255.195 150.142 260.064 150.252 264.93C150.428 272.813 150.632 280.693 150.862 288.573C151.016 293.913 151.209 299.254 151.427 304.591C151.699 311.197 151.993 317.799 152.317 324.402C152.541 328.943 152.841 333.48 153.093 338.018C153.162 339.283 153.146 339.304 152.043 339.614C146.241 341.238 140.369 342.458 134.429 343.319C126.444 344.474 118.425 344.888 110.387 344.45C97.1984 343.732 84.413 341.053 72.4309 334.724C70.5892 333.751 68.8119 332.659 67.0514 331.525C66.3433 331.068 65.9206 330.475 65.6324 329.624C61.0254 315.959 57.1237 302.061 53.7538 287.98C52.6818 283.503 52.0437 278.965 52.2704 274.327C52.5531 268.576 54.14 263.333 57.5351 258.82C58.6267 257.369 59.917 256.18 61.4172 255.256C61.7447 255.055 62.2037 254.921 62.1589 254.392C62.1085 253.784 61.6103 253.744 61.1849 253.62C59.2732 253.054 57.5435 252.129 56.1525 250.554C55.9509 250.326 55.7466 250.095 55.5647 249.848C54.7866 248.784 54.7978 248.638 55.9062 247.969C58.8842 246.171 62.0805 245.128 65.4728 244.806C65.7163 244.782 65.9626 244.806 66.2005 244.766C67.0626 244.611 67.2893 243.921 66.7239 243.182C66.6316 243.06 66.5084 242.969 66.3993 242.863C61.2605 237.942 58.0725 231.707 56.3036 224.621C53.1716 212.064 54.1512 199.886 59.5643 188.211C60.1101 187.034 60.7902 185.927 61.4032 184.784C61.5739 184.464 61.7783 184.148 61.8566 183.798C62.0106 183.105 61.5683 182.776 60.7063 183.001C58.7107 183.518 56.6927 183.841 54.6439 183.938C49.0349 184.2 43.7085 183.001 38.6565 180.316C37.8448 179.884 37.5118 179.285 37.467 178.354C37.2487 174.024 37.0499 169.693 36.7672 165.365C36.381 159.453 36.2327 153.528 36.0423 147.61C35.8576 141.899 35.894 136.178 35.8464 130.463C35.8268 128.292 35.8436 126.124 35.8436 123.952C35.8968 123.952 35.95 123.952 36.0031 123.952L36.0004 123.961ZM130.928 134.615C130.956 126.54 130.189 118.557 128.555 110.683C126.752 102.009 123.992 93.7341 119.55 86.207C116.494 81.0277 112.819 76.4689 107.938 73.2269C100.526 68.3061 92.8993 67.9472 85.1379 72.202C81.1243 74.4039 77.7964 77.5637 74.8547 81.2224C71.0035 86.0093 68.1318 91.4653 65.7919 97.2559C60.7287 109.786 58.5315 122.988 58.1873 136.595C57.9913 144.338 58.5735 152.029 59.9002 159.644C61.3752 168.111 63.7403 176.256 67.5384 183.856C70.4017 189.589 73.9675 194.704 78.7508 198.731C87.0888 205.75 96.8541 206.349 105.875 200.391C108.643 198.563 111.059 196.267 113.247 193.688C118.274 187.77 121.806 180.863 124.493 173.415C128.991 160.946 130.875 147.954 130.931 134.612L130.928 134.615ZM74.225 267.144C74.2418 274.309 74.8799 280.547 76.2598 286.69C77.8888 293.944 80.3854 300.793 84.4018 306.912C86.8341 310.613 89.7141 313.812 93.3863 316.072C96.6834 318.103 100.196 319.122 104.028 318.633C108.428 318.07 112.041 315.832 115.187 312.581C118.666 308.983 121.118 304.625 123.021 299.877C126.338 291.608 127.667 282.883 127.922 273.932C128.051 269.376 127.723 264.839 127.105 260.332C126.019 252.424 123.962 244.848 120.368 237.829C117.829 232.872 114.675 228.471 110.317 225.229C105.973 221.996 101.22 220.683 96.0312 222.027C91.9812 223.076 88.6673 225.536 85.8656 228.845C82.8624 232.391 80.6261 236.464 78.9216 240.889C75.5853 249.556 74.2754 258.644 74.2222 267.144H74.225ZM49.6394 90.2306C49.7262 88.1108 49.5387 86.0063 49.3147 83.9078C49.0992 81.8641 48.7745 79.8295 48.0104 77.9226C47.5626 76.8034 47.1092 75.5413 45.7993 75.4592C44.3999 75.371 43.8429 76.6666 43.2999 77.7827C42.5946 79.2334 42.1272 80.7996 41.7745 82.3902C40.3303 88.8864 40.2323 95.4585 40.9852 102.055C41.1811 103.776 41.5198 105.495 42.1775 107.094C42.6282 108.198 43.0648 109.482 44.3831 109.57C45.7153 109.661 46.2471 108.433 46.8041 107.377C47.3135 106.41 47.6466 105.358 47.9321 104.293C49.1608 99.6981 49.5974 94.9902 49.6394 90.2276V90.2306ZM143.439 324.578C143.369 327.233 143.643 329.785 144.335 332.279C144.489 332.829 144.687 333.371 144.914 333.894C145.208 334.572 145.583 335.311 146.344 335.29C147.204 335.262 147.467 334.389 147.713 333.647C147.895 333.106 148.038 332.54 148.119 331.972C148.721 327.808 148.505 323.681 147.537 319.606C147.344 318.791 147.092 317.985 146.652 317.276C145.922 316.105 145.037 316.136 144.416 317.358C144.086 318.006 143.932 318.727 143.783 319.448C143.431 321.16 143.392 322.893 143.439 324.578ZM46.4151 119.372C46.4263 117.693 46.2331 116.176 45.4383 114.853C44.5874 113.435 43.2831 113.39 42.3147 114.713C42.0152 115.12 41.7493 115.589 41.587 116.075C41.002 117.833 40.7529 119.634 41.0748 121.51C41.2567 122.562 41.4694 123.587 42.0852 124.439C42.9892 125.689 44.0668 125.689 45.0128 124.472C45.3935 123.983 45.6678 123.42 45.8497 122.815C46.194 121.659 46.4515 120.479 46.4123 119.375L46.4151 119.372Z" fill="#FA4616"/>
<path d="M310.19 280.178C311.368 278.673 312.855 277.56 314.293 276.389C314.525 276.2 314.791 276.054 315.032 275.878C315.197 275.756 315.329 275.592 315.228 275.358C315.138 275.151 314.954 275.032 314.755 275.054C314.419 275.09 314.089 275.188 313.756 275.248C313.185 275.349 312.614 275.44 311.741 275.583C313.031 274.172 314.321 273.25 315.581 272.289C315.978 271.985 316.387 271.696 316.77 271.374C316.966 271.21 317.098 270.948 317 270.674C316.879 270.337 316.599 270.215 316.283 270.288C315.95 270.364 315.628 270.489 315.301 270.586C307.811 272.828 300.31 273.171 292.851 270.516C286.047 268.095 280.732 263.637 277.429 256.596C277.163 256.031 276.978 255.422 276.695 254.872C276.304 254.115 275.643 254.121 275.209 254.857C275.106 255.03 275.061 255.246 274.991 255.444C273.331 259.999 270.725 263.856 267.557 267.295C266.667 268.26 266.653 268.266 265.701 267.302C260.218 261.754 255.53 255.48 251.388 248.716C243.979 236.615 238.44 223.532 234.116 209.813C230.245 197.529 227.438 184.959 225.576 172.137C224.462 164.455 223.656 156.739 223.248 148.969C222.979 143.896 222.749 138.823 222.805 133.744C222.903 124.961 223.365 116.202 224.406 107.48C225.772 96.0145 227.989 84.7679 231.488 73.8406C234.818 63.4395 239.207 53.6192 245.407 44.8452C249.63 38.8691 254.584 33.7598 260.652 30.016C266.636 26.3239 273.06 24.4748 279.945 24.8093C285.921 25.0983 291.521 26.9686 296.825 29.943C304.111 34.0274 310.232 39.7085 315.676 46.2898C324.022 56.3777 330.359 67.8706 335.556 80.1452C341.955 95.2572 346.38 111.05 349.327 127.355C350.791 135.454 351.827 143.616 352.551 151.834C353.467 162.177 353.665 172.545 353.262 182.91C352.613 199.621 350.301 216.05 345.465 231.986C342.431 241.98 338.47 251.499 332.895 260.155C329.069 266.094 324.602 271.374 319.107 275.549C316.429 277.584 313.627 279.391 310.495 280.504C310.394 280.397 310.294 280.291 310.193 280.184L310.19 280.178ZM341.056 175.352C341.028 173.235 340.933 171.122 340.894 169.008C340.754 161.648 340.191 154.331 339.399 147.026C338.213 136.086 336.34 125.287 333.734 114.642C330.801 102.654 327.006 91.0055 321.805 79.9323C318.27 72.4112 314.17 65.2977 308.933 59.0114C305.776 55.222 302.275 51.8857 298.169 49.3432C294.776 47.2448 291.166 45.8914 287.245 45.7059C282.335 45.4747 277.947 47.1474 273.986 50.2282C269.751 53.5219 266.577 57.8496 263.907 62.6427C260.56 68.6522 258.156 75.1088 256.319 81.83C254.223 89.5031 252.807 97.3222 251.883 105.26C251.046 112.456 250.568 119.679 250.487 126.929C250.433 131.743 250.473 136.555 250.677 141.369C250.895 146.445 251.228 151.508 251.735 156.551C252.575 164.911 253.792 173.211 255.443 181.431C258.22 195.269 262.024 208.742 267.509 221.613C271.31 230.53 275.811 238.987 281.789 246.426C285.534 251.086 289.727 255.17 294.897 257.91C299.633 260.422 304.575 261.414 309.781 260.024C314.058 258.883 317.632 256.39 320.773 253.105C324.501 249.203 327.297 244.571 329.637 239.596C333.225 231.962 335.562 223.851 337.278 215.515C340.001 202.288 340.939 188.864 341.056 175.346V175.352ZM231.532 92.0183C231.558 92.5444 231.56 93.0736 231.614 93.5967C231.644 93.9099 231.728 94.2201 231.829 94.5151C232.226 95.6587 232.979 96.0054 234.032 95.5248C234.95 95.1051 235.655 94.3722 236.327 93.6028C238.283 91.3674 239.865 88.8249 241.317 86.1942C246.187 77.3654 250.05 68.0318 253 58.2572C254.047 54.7932 254.909 51.2714 255.245 47.6219C255.337 46.6152 255.351 45.6207 255.18 44.6232C254.867 42.8106 253.887 42.2905 252.465 43.2181C251.838 43.6257 251.29 44.1488 250.786 44.7327C249.515 46.1986 248.326 47.7374 247.31 49.4193C240.892 60.0637 236.159 71.5475 232.915 83.7643C232.198 86.4588 231.647 89.1929 231.535 92.0152L231.532 92.0183ZM337.656 245.012C337.686 243.692 337.208 243.327 336.248 243.923C335.747 244.234 335.274 244.638 334.871 245.085C331.764 248.519 329.449 252.521 327.792 256.973C327.594 257.503 327.454 258.093 327.437 258.658C327.406 259.604 328.002 260.003 328.8 259.61C329.43 259.303 329.922 258.774 330.395 258.245C333.385 254.911 335.615 251.034 337.264 246.755C337.488 246.177 337.684 245.569 337.656 245.009V245.012ZM258.251 40.6118C259.88 40.6057 261.898 38.8661 262.497 37.0596C262.978 35.6058 262.116 34.4441 260.759 34.7482C258.819 35.1831 257.447 36.4452 256.762 38.4555C256.325 39.7328 256.994 40.6148 258.253 40.6087L258.251 40.6118Z" fill="#FA4616"/>
<path d="M157.213 55.0122C159.937 56.4294 162.377 57.722 164.734 59.2C165.19 59.4859 165.411 59.9391 165.647 60.4044C168.938 66.9492 170.813 73.935 171.342 81.383C171.776 87.4808 171.163 93.4082 169.439 99.217C169.394 99.3691 169.333 99.515 169.299 99.6671C169.201 100.099 169.193 100.525 169.559 100.817C169.887 101.075 170.203 100.878 170.514 100.716C171.614 100.151 172.703 99.5576 173.822 99.0436C174.656 98.6635 175.499 98.2651 176.428 98.113C176.702 98.8003 176.428 99.3326 176.246 99.8557C175.367 102.398 174.2 104.767 172.585 106.857C172.398 107.1 172.204 107.34 172.034 107.593C171.883 107.815 171.79 108.091 171.93 108.332C172.115 108.654 172.44 108.624 172.714 108.508C173.987 107.982 175.258 107.453 176.579 107.076C181.136 105.774 185.698 105.564 190.266 107.006C190.546 107.094 190.82 107.203 191.094 107.313C192.597 107.912 192.603 107.915 192.58 109.688C192.468 118.681 192.452 127.68 192.203 136.67C192.018 143.443 192.152 150.219 191.909 156.986C191.704 162.646 191.78 168.308 191.676 173.968C191.657 174.963 191.405 175.58 190.52 175.848C190.381 175.89 190.252 175.975 190.109 176.012C187.601 176.66 186.358 178.722 185.48 181.082C185.102 182.101 184.536 182.7 183.658 183.168C178.502 185.923 173.377 188.746 168.224 191.504C166.324 192.523 164.779 193.885 163.964 196.069C163.791 196.534 163.5 196.857 163.139 197.146C157.379 201.787 156.503 212.13 161.963 218.109C163.175 219.438 163.536 220.5 163.435 222.358C163.164 227.412 165.339 231.254 169.425 233.611C170.657 234.319 171.785 234.775 172.16 236.418C172.333 237.175 172.957 237.78 173.635 238.102C174.39 238.458 174.544 238.978 174.539 239.833C174.505 245.432 175.658 250.748 178.054 255.705C180.251 260.249 183.263 263.993 187.514 266.414C188.161 266.782 188.827 267.107 189.504 267.399C190.017 267.621 190.283 267.922 190.255 268.567C190.126 271.842 190.271 275.124 190.073 278.402C189.958 280.3 189.991 282.21 189.975 284.117C189.941 288.299 189.927 292.48 189.882 296.659C189.871 297.769 189.737 298.876 189.737 299.983C189.737 300.78 189.485 301.114 188.726 301.124C186.627 301.154 184.553 301.06 182.488 300.558C177.436 299.323 173.257 296.413 169.543 292.632C166.064 289.092 163.312 284.932 161.02 280.41C156.973 272.423 154.314 263.88 152.551 254.997C152.05 252.466 151.576 249.93 151.243 247.36C151.134 246.518 151.073 245.681 151.067 244.836C151.039 240.18 151.101 235.517 150.961 230.864C150.826 226.418 150.762 221.972 150.877 217.534C151.182 205.795 150.863 194.05 151.176 182.317C151.308 177.344 151.308 172.372 151.437 167.399C151.627 160.21 151.809 153.02 152.03 145.83C152.192 140.599 152.391 135.369 152.609 130.138C152.881 123.59 153.172 117.039 153.491 110.494C153.746 105.269 154.012 100.041 154.356 94.8224C154.798 88.1285 155.12 81.4226 155.688 74.7379C155.962 71.5293 156.111 68.3056 156.354 65.094C156.603 61.8338 156.9 58.5796 157.199 55.0153L157.213 55.0122Z" fill="#C20000"/>
<path d="M169.722 4.60753C170.386 5.06981 170.567 5.57466 170.839 5.98827C175.37 12.8554 181.181 17.8766 188.66 20.4312C193.801 22.186 198.99 22.3594 204.199 20.7536C204.434 20.6806 204.667 20.6076 204.904 20.5468C204.994 20.5255 205.092 20.5438 205.156 20.5438C205.349 20.6532 205.33 20.8144 205.285 20.9604C203.505 26.8635 203.628 32.8426 204.773 38.8339C206.379 47.2278 209.677 54.7458 214.838 61.2602C217.175 64.2102 219.879 66.695 222.969 68.5775C223.055 68.8877 222.91 69.0306 222.764 69.1584C217.707 73.553 214.695 79.3953 212.814 85.9887C210.763 93.1844 210.387 100.526 211.496 107.959C211.535 108.217 211.56 108.476 211.415 108.874C210.628 107.874 209.853 106.864 209.05 105.879C208.21 104.845 207.284 103.911 206.312 103.023C205.341 102.138 204.336 101.298 203.253 100.587C202.212 99.9056 201.146 99.2639 200.068 98.6556C198.946 98.023 197.776 97.4878 196.561 97.0894C195.352 96.694 194.143 96.2713 192.911 95.9793C191.677 95.6873 190.42 95.4744 189.163 95.3498C187.907 95.222 186.636 95.2281 185.371 95.2068C184.103 95.1855 182.841 95.298 181.59 95.5261C180.392 95.7451 179.191 95.9671 178.001 96.2378C176.761 96.5206 175.564 96.9707 174.385 97.4726C173.221 97.9683 172.068 98.4975 170.719 99.0966C173.573 88.3913 173.184 77.9507 169.837 67.6438C166.492 57.3431 160.92 48.9401 152.042 43.5114C152.131 43.1343 152.352 43.1373 152.515 43.0643C160.354 39.5334 165.306 33.1224 168.068 24.5674C169.938 18.7829 170.442 12.8159 169.887 6.73034C169.831 6.10079 169.787 5.47125 169.719 4.60449L169.722 4.60753Z" fill="#DBF505"/>
<path d="M275.916 256.5C276.249 256.603 276.333 256.868 276.437 257.087C280.411 265.475 286.919 270.243 295.167 272.442C300.793 273.945 306.461 273.814 312.123 272.61C312.358 272.561 312.593 272.521 312.954 272.451C312.753 273.151 312.254 273.382 311.885 273.72C306.13 278.972 302.052 285.41 300.18 293.378C298.744 299.494 298.974 305.54 301.064 311.468C301.148 311.702 301.313 311.927 301.174 312.319C292.463 310.178 284.302 312.316 276.521 316.556C268.773 320.777 262.395 326.656 258.507 335.339C258.334 335.26 258.171 335.235 258.084 335.135C253.763 330.135 248.327 327.337 242.285 325.786C235.73 324.101 229.161 324.135 222.589 325.71C221.981 325.856 221.391 326.142 220.495 326.066C226.577 320.327 230.056 313.232 231.041 304.771C232.013 296.417 230.389 288.588 226.328 281.134C227.635 281.362 228.674 281.566 229.72 281.727C238.285 283.05 246.514 281.639 254.437 278.014C260.956 275.03 266.624 270.742 271.144 264.763C272.79 262.586 274.175 260.229 275.295 257.686C275.477 257.269 275.6 256.81 275.911 256.503L275.916 256.5Z" fill="#DBF505"/>
<path d="M140.09 229.297C140.09 232.58 140.097 235.863 140.083 239.148C140.083 239.67 140.267 240.49 139.512 240.44C138.895 240.399 139.107 239.619 139.105 239.145C139.074 233.142 139.065 227.139 139.044 221.136C139.035 218.002 138.531 214.983 137.292 212.131C136.847 211.107 136.299 210.152 135.589 209.322C134.547 208.103 133.306 207.364 131.724 207.381C129.221 207.407 126.719 207.397 124.217 207.397C123.872 207.397 123.527 207.379 123.182 207.353C122.94 207.336 122.779 207.194 122.768 206.918C122.756 206.591 122.901 206.388 123.217 206.373C123.432 206.361 123.648 206.353 123.863 206.35C126.321 206.33 128.783 206.219 131.237 206.317C133.464 206.406 135.032 205.34 136.26 203.47C137.884 200.993 138.559 198.151 138.909 195.19C139.067 193.837 139.039 192.475 139.039 191.117C139.039 185.957 139.039 180.797 139.039 175.638C139.039 175.214 139.014 174.791 139.049 174.371C139.084 173.953 138.848 173.256 139.508 173.294C140.06 173.325 139.962 173.994 139.988 174.439C140.018 174.999 139.997 175.564 139.997 176.126C140.011 181.519 140.006 186.915 140.05 192.307C140.071 194.896 140.437 197.442 141.229 199.896C141.733 201.457 142.399 202.923 143.412 204.172C144.479 205.487 145.728 206.353 147.445 206.292C149.298 206.224 151.154 206.282 153.009 206.285C153.312 206.285 153.612 206.279 153.915 206.295C154.267 206.31 154.509 206.502 154.467 206.905C154.433 207.224 154.193 207.351 153.901 207.348C153.643 207.348 153.384 207.353 153.125 207.353C151.313 207.353 149.5 207.386 147.69 207.348C145.859 207.308 144.452 208.151 143.317 209.643C141.672 211.807 140.929 214.385 140.437 217.078C140.083 219.023 140.074 220.991 140.062 222.959C140.05 225.069 140.06 227.182 140.06 229.292H140.09V229.297Z" fill="#FCF6F5"/>
<path d="M23.2264 163.581C26.126 171.531 31.0857 177.422 38.0438 181.251C44.9739 185.065 52.3014 186.001 60.2279 184.335C54.9632 193.927 52.8472 204.06 53.6141 214.869C54.3866 225.769 57.7481 235.474 65.084 243.262C64.9273 243.767 64.5158 243.652 64.2275 243.697C55.8168 245.023 49.6033 249.98 44.9823 257.511C41.8531 262.611 40.0422 268.277 39.1465 274.307C39.085 274.724 39.015 275.141 38.9366 275.554C38.917 275.652 38.8387 275.734 38.7547 275.88C38.3573 275.436 38.2873 274.852 38.1082 274.338C35.6395 267.233 31.763 261.254 26.0841 256.762C21.0544 252.781 15.4398 250.668 9.16468 250.826C8.89039 250.832 8.59091 250.941 8.33621 250.725C8.33061 250.619 8.28582 250.494 8.32501 250.427C11.387 245.26 12.7445 239.512 13.0608 233.457C13.5226 224.68 12.1007 216.283 8.47615 208.376C7.05711 205.277 5.2882 202.439 3.04068 199.973C2.83636 199.751 2.59565 199.553 2.50049 199.112C2.56766 199.06 2.67402 198.948 2.79997 198.887C8.76724 196.016 13.0915 191.174 16.4754 185.259C20.002 179.098 22.0928 172.382 22.8065 165.166C22.8485 164.746 22.9073 164.326 22.9745 163.91C22.9885 163.83 23.0808 163.764 23.2208 163.584L23.2264 163.581Z" fill="#DBF505"/>
<path d="M223.295 164.145C223.762 166.039 223.855 167.998 224.121 169.926C226.883 189.953 231.781 209.304 239.478 227.783C239.638 228.166 239.783 228.559 239.929 228.948C239.943 228.984 239.906 229.042 239.853 229.228C239.531 229.006 239.229 228.805 238.935 228.595C233.265 224.556 227.003 222.221 220.362 220.998C214.853 219.985 209.323 219.864 203.778 220.664C203.395 220.718 203.008 220.721 202.622 220.749C202.502 220.584 202.409 220.375 202.258 220.262C200.165 218.717 198.273 216.962 196.649 214.809C194.945 212.546 193.464 210.144 192.3 207.537C190.57 203.675 189.602 199.545 189.129 195.287C188.989 194.031 189.302 192.918 190.187 191.984C191.163 190.953 192.375 190.421 193.587 189.895C195.888 188.901 198.206 187.936 200.403 186.708C204.85 184.22 209.127 181.443 212.931 177.846C215.654 175.27 218.125 172.496 220.252 169.315C221.369 167.648 222.192 165.799 223.303 164.142L223.295 164.145Z" fill="#EFD6D2"/>
<path d="M223.285 164.143C222.174 165.8 221.351 167.649 220.234 169.316C218.107 172.494 215.636 175.271 212.912 177.847C209.109 181.445 204.835 184.224 200.385 186.709C198.187 187.938 195.87 188.902 193.569 189.896C192.357 190.419 191.145 190.952 190.169 191.986C189.284 192.919 188.971 194.032 189.111 195.288C189.584 199.546 190.555 203.676 192.282 207.539C193.449 210.145 194.927 212.548 196.631 214.81C198.255 216.964 200.144 218.718 202.24 220.263C202.394 220.376 202.484 220.586 202.604 220.75L202.576 220.756C202.419 220.671 202.307 220.729 202.229 220.887C201.896 220.96 201.543 220.975 201.233 221.112C199.553 221.851 198.109 221.215 196.726 220.23C194.574 218.694 192.889 216.653 191.467 214.357C188.064 208.865 186.144 202.764 185.296 196.243C184.789 192.345 184.769 188.446 185.587 184.583C186.004 182.613 186.65 180.739 187.756 179.091C188.187 178.446 188.666 177.883 189.396 177.585C194.47 175.511 198.884 172.257 202.951 168.434C210.248 161.573 216.196 153.568 220.192 143.955C220.682 142.772 221.102 141.555 221.718 140.391C221.852 143.31 221.97 146.233 222.121 149.153C222.345 153.477 222.686 157.793 223.17 162.093C223.246 162.771 223.246 163.462 223.28 164.146L223.285 164.143Z" fill="#FCF6F5"/>
<path d="M193.391 219.125C192.342 219.508 191.267 219.514 190.226 219.678C185.367 220.438 180.491 221.068 175.641 221.895C173.402 222.275 171.638 221.606 170.096 219.903C167.969 217.552 166.583 214.724 165.587 211.655C164.277 207.623 163.547 203.502 164.238 199.207C164.7 196.336 165.926 194.107 168.439 192.772C173.639 190.011 178.801 187.17 183.981 184.366C184.063 184.32 184.166 184.323 184.354 184.284C182.722 197.301 185.636 208.921 193.391 219.128V219.125ZM173.541 195.88C176.36 195.543 178.904 194.475 181.031 192.392C181.454 191.978 181.905 191.431 181.667 190.734C181.423 190.023 180.757 190.023 180.178 189.98C179.842 189.956 179.495 189.98 179.159 190.041C176.917 190.446 174.882 191.401 173.052 192.863C172.618 193.21 172.22 193.608 171.946 194.116C171.481 194.977 171.775 195.698 172.665 195.871C172.948 195.926 173.248 195.88 173.539 195.88H173.541ZM167.706 198.252C168.711 198.183 169.413 197.86 169.995 197.252C170.373 196.857 170.563 196.361 170.351 195.819C170.155 195.315 169.699 195.254 169.242 195.245C168.422 195.229 167.723 195.558 167.124 196.133C166.709 196.531 166.362 197.009 166.656 197.65C166.905 198.195 167.42 198.231 167.706 198.252Z" fill="#FA4616"/>
<path d="M175.91 226.296C175.91 225.502 175.93 224.705 175.904 223.915C175.885 223.291 176.047 222.957 176.694 222.875C178.868 222.595 181.032 222.23 183.204 221.941C184.365 221.786 184.385 221.825 184.682 223.045C185.622 226.889 186.884 230.605 188.488 234.182C191.245 240.328 194.763 245.867 199.482 250.459C201.388 252.314 201.355 254.777 199.471 256.684C197.495 258.682 195.116 258.871 192.628 258.321C188.891 257.493 185.933 255.27 183.512 252.141C180.436 248.166 178.658 243.491 177.475 238.534C176.517 234.529 176.05 230.438 175.91 226.302V226.296Z" fill="#FA4616"/>
<path d="M200.502 257.51C201.168 256.403 201.82 255.473 201.955 254.274C202.179 252.255 201.482 250.646 200.105 249.363C197.575 247.006 195.481 244.238 193.578 241.288C192.853 240.166 192.167 239.019 191.509 237.639C193.225 236.927 194.804 236.039 196.245 234.895C196.682 234.549 196.942 234.81 197.239 235.127C198.277 236.24 199.293 237.383 200.385 238.429C201.958 239.935 203.715 241.167 205.543 242.283C208.35 243.998 209.408 247.133 208.289 250.412C207.424 252.945 205.837 254.831 203.679 256.133C202.727 256.707 201.787 257.376 200.499 257.51H200.502Z" fill="#C20000"/>
<path d="M168.81 220.308C167.189 220.287 165.863 219.724 164.628 218.885C161.966 217.072 160.399 214.402 159.755 211.114C158.918 206.835 159.711 202.939 162.322 199.536C162.476 199.335 162.593 199.104 162.879 198.931C162.367 206.881 164.239 213.97 168.807 220.308H168.81Z" fill="#FCF6F5"/>
<path d="M194.322 234.644C193.944 233.093 192.984 232.193 191.971 231.371C189.23 229.157 187.529 226.11 186.11 222.838C185.611 221.691 185.76 221.633 186.921 221.335C188.679 220.885 189.801 221.341 190.792 223.151C192.13 225.596 194.005 227.631 196.065 229.437C197.949 231.086 197.924 231.898 196.063 233.497C195.576 233.917 195.097 234.373 194.319 234.644H194.322Z" fill="#C20000"/>
<path d="M187.502 228.193C188.77 229.942 190.211 231.429 191.832 232.722C191.989 232.846 192.137 232.986 192.28 233.129C193.704 234.586 193.466 235.599 191.586 236.289C191.065 236.481 190.788 236.395 190.536 235.869C189.346 233.391 188.23 230.882 187.502 228.193Z" fill="#FA4616"/>
<path d="M310.491 280.504C310.309 280.662 310.074 280.854 309.903 280.601C309.797 280.446 310.038 280.288 310.189 280.188C310.29 280.294 310.39 280.401 310.488 280.507L310.491 280.504Z" fill="#FA4616"/>
<path d="M202.232 220.889C202.311 220.733 202.421 220.679 202.572 220.763C202.503 220.955 202.374 220.946 202.232 220.889Z" fill="#EFD6D2"/>
<path d="M130.939 134.614C130.883 147.956 129 160.948 124.502 173.418C121.815 180.863 118.283 187.772 113.256 193.691C111.064 196.27 108.652 198.566 105.883 200.394C96.8626 206.351 87.0972 205.752 78.7593 198.733C73.976 194.706 70.4102 189.588 67.5469 183.858C63.7488 176.258 61.3837 168.114 59.9087 159.647C58.582 152.031 57.9998 144.34 58.1958 136.597C58.5372 122.993 60.7344 109.788 65.8004 97.2582C68.1403 91.4676 71.0119 86.0116 74.8632 81.2247C77.8049 77.5691 81.1328 74.4061 85.1464 72.2043C92.9078 67.9495 100.538 68.3084 107.946 73.2292C112.828 76.4712 116.505 81.03 119.559 86.2093C124.001 93.7395 126.761 102.012 128.563 110.685C130.198 118.559 130.964 126.543 130.936 134.617L130.939 134.614ZM59.2957 139.191C59.2453 142.902 59.5056 146.591 59.8247 150.277C60.5468 158.582 62.1562 166.666 64.8572 174.482C66.9423 180.51 69.6461 186.167 73.3574 191.221C76.1703 195.053 79.6186 197.824 84.1024 198.937C87.5815 199.801 91.0381 199.697 94.5004 198.897C100.336 197.55 105.254 194.338 109.572 189.989C114.977 184.546 118.854 177.931 121.882 170.683C125.034 163.132 127.136 155.228 128.504 147.092C129.089 143.616 129.699 140.134 129.781 136.582C129.957 128.887 129.361 121.26 128.006 113.708C126.528 105.46 124.169 97.535 120.421 90.1508C117.401 84.2021 113.67 78.8859 108.436 75.0144C102.052 70.2944 95.2169 69.0961 87.9117 72.1739C82.9717 74.2541 79.0644 77.858 75.6637 82.1735C70.7544 88.4051 67.3426 95.5581 64.8096 103.234C60.9751 114.855 59.3517 126.88 59.2957 139.185V139.191Z" fill="#121212"/>
<path d="M74.2231 267.145C74.2763 258.645 75.5862 249.557 78.9225 240.89C80.6242 236.465 82.8634 232.392 85.8666 228.846C88.6683 225.537 91.9794 223.077 96.0322 222.028C101.221 220.684 105.974 221.997 110.318 225.23C114.676 228.475 117.83 232.873 120.369 237.83C123.962 244.849 126.02 252.422 127.106 260.333C127.724 264.84 128.052 269.377 127.923 273.933C127.668 282.884 126.339 291.606 123.022 299.878C121.119 304.626 118.667 308.984 115.188 312.582C112.042 315.833 108.429 318.074 104.029 318.634C100.197 319.123 96.6872 318.104 93.3872 316.073C89.7151 313.813 86.835 310.614 84.4028 306.913C80.3835 300.794 77.8897 293.948 76.2607 286.691C74.8809 280.548 74.2427 274.31 74.2259 267.145H74.2231ZM75.3427 268.027C75.3231 273.976 75.9137 279.851 77.162 285.636C78.6258 292.424 80.8342 298.896 84.3916 304.753C85.3264 306.292 86.2053 307.904 87.6047 309.035C89.2869 310.398 91.053 311.611 92.9926 312.505C99.6568 315.583 105.898 314.793 111.692 310.051C114.491 307.761 116.699 304.881 118.521 301.66C123.643 292.616 125.745 282.589 126.487 272.148C126.817 267.483 126.462 262.854 125.673 258.258C124.357 250.61 122.171 243.308 118.412 236.632C116.075 232.484 113.237 228.822 109.487 226.091C105.411 223.126 100.978 221.976 96.1498 223.247C93.1549 224.035 90.6051 225.766 88.3268 227.995C84.5959 231.644 82.0153 236.148 80.0617 241.112C76.6778 249.706 75.4071 258.742 75.3455 268.027H75.3427Z" fill="#121212"/>
<path d="M49.6567 90.235C49.6147 94.9976 49.1809 99.7086 47.9493 104.301C47.6639 105.365 47.3308 106.418 46.8214 107.385C46.2672 108.44 45.7354 109.669 44.4003 109.577C43.082 109.486 42.6454 108.203 42.1948 107.102C41.5399 105.502 41.1984 103.784 41.0025 102.062C40.2496 95.466 40.3475 88.8938 41.7918 82.3977C42.1472 80.8041 42.6118 79.2408 43.3172 77.7902C43.8601 76.6771 44.4171 75.3815 45.8166 75.4666C47.1265 75.5487 47.5799 76.8109 48.0277 77.9301C48.789 79.8369 49.1137 81.8685 49.332 83.9153C49.5531 86.0107 49.7406 88.1183 49.6567 90.2381V90.235Z" fill="#FCF6F5"/>
<path d="M143.458 324.581C143.413 322.896 143.45 321.16 143.802 319.451C143.951 318.73 144.105 318.009 144.435 317.361C145.056 316.139 145.941 316.108 146.671 317.279C147.111 317.985 147.363 318.791 147.556 319.609C148.524 323.687 148.74 327.811 148.138 331.974C148.057 332.543 147.914 333.109 147.732 333.65C147.483 334.392 147.223 335.265 146.363 335.293C145.602 335.317 145.227 334.575 144.933 333.897C144.706 333.373 144.508 332.835 144.354 332.282C143.66 329.791 143.388 327.236 143.458 324.581Z" fill="#FCF6F5"/>
<path d="M46.4218 119.379C46.461 120.486 46.2035 121.663 45.8592 122.819C45.6773 123.424 45.403 123.986 45.0224 124.476C44.0763 125.696 42.9987 125.693 42.0947 124.443C41.4789 123.591 41.2634 122.566 41.0843 121.514C40.7624 119.637 41.0087 117.837 41.5965 116.079C41.7588 115.592 42.0247 115.124 42.3242 114.717C43.2926 113.394 44.5969 113.439 45.4478 114.857C46.2427 116.182 46.4358 117.697 46.4246 119.376L46.4218 119.379Z" fill="#FCF6F5"/>
<path d="M341.057 175.356C340.939 188.871 340.004 202.299 337.278 215.525C335.562 223.861 333.225 231.969 329.637 239.606C327.297 244.581 324.501 249.213 320.773 253.115C317.633 256.403 314.061 258.893 309.782 260.034C304.576 261.424 299.633 260.432 294.897 257.92C289.73 255.18 285.538 251.096 281.79 246.436C275.811 238.998 271.311 230.54 267.51 221.623C262.021 208.752 258.22 195.279 255.444 181.442C253.795 173.221 252.578 164.921 251.735 156.561C251.229 151.516 250.893 146.452 250.677 141.379C250.47 136.565 250.431 131.753 250.487 126.939C250.568 119.689 251.047 112.466 251.884 105.27C252.807 97.3354 254.224 89.5132 256.32 81.8401C258.156 75.1189 260.557 68.6623 263.908 62.6528C266.578 57.8598 269.752 53.532 273.987 50.2383C277.947 47.1575 282.336 45.4848 287.245 45.716C291.163 45.9015 294.777 47.2549 298.169 49.3533C302.278 51.8928 305.777 55.2321 308.934 59.0215C314.173 65.3048 318.274 72.4183 321.806 79.9424C327.006 91.0126 330.802 102.661 333.735 114.652C336.341 125.297 338.213 136.093 339.4 147.036C340.192 154.341 340.757 161.658 340.894 169.018C340.934 171.132 341.032 173.248 341.057 175.362V175.356ZM317.339 172.056C317.417 171.217 317.549 170.377 317.563 169.538C317.703 161.746 316.536 154.171 314.344 146.768C313.507 143.946 312.455 141.218 311.069 138.657C310.277 137.194 309.39 135.801 308.186 134.694C307.59 134.147 306.958 133.645 306.129 133.599C304.875 133.526 304.008 134.186 303.367 135.299C302.395 136.99 301.903 138.867 301.62 140.807C300.573 148.012 301.091 155.138 302.608 162.206C302.6 162.412 302.549 162.628 302.589 162.823C303.397 166.691 304.411 170.493 305.86 174.143C306.711 176.284 307.702 178.343 309.037 180.179C309.765 181.18 310.577 182.089 311.691 182.6C312.833 183.126 313.751 182.962 314.621 182.004C314.96 181.633 315.276 181.207 315.497 180.745C316.793 178.023 317.361 175.11 317.342 172.05L317.339 172.056ZM306.034 186.7C306.98 186.414 307.8 185.83 308.671 185.374C309.549 184.912 310.487 184.535 311.383 183.817C309.482 182.713 308.27 181.144 307.218 179.404C306.009 177.409 305.063 175.265 304.271 173.042C301.556 165.423 300.19 157.513 300.011 149.356C299.896 144.049 300.1 138.794 302.759 133.949C302.367 133.949 302.088 133.925 301.81 133.952C299.583 134.174 297.357 134.405 295.132 134.633C290.777 135.077 286.419 135.509 282.067 135.959C276.164 136.571 270.261 137.197 264.358 137.818C260.392 138.234 256.423 138.663 252.455 139.046C251.811 139.107 251.637 139.372 251.679 140.029C251.8 141.978 251.856 143.934 251.973 145.886C252.399 152.848 253.079 159.782 254.061 166.679C254.47 169.547 254.817 172.43 255.477 175.253C255.469 175.356 255.441 175.465 255.458 175.566C257.445 186.685 260.079 197.609 263.647 208.259C263.745 208.551 263.815 208.865 264.165 209.041C264.526 208.856 264.924 208.661 265.316 208.454C276.763 202.365 288.211 196.277 299.655 190.179C301.791 189.042 303.907 187.862 306.031 186.7H306.034ZM339.926 175.417C339.845 172.245 339.856 169.076 339.719 165.901C339.473 160.247 339.07 154.618 338.51 148.991C337.958 143.471 337.208 137.985 336.29 132.526C334.74 123.314 332.685 114.239 330.063 105.313C326.752 94.0386 322.595 83.1722 316.986 72.9992C313.44 66.5699 309.331 60.6151 304.187 55.5666C301.645 53.0728 298.877 50.9196 295.768 49.332C291.222 47.0116 286.512 46.1539 281.572 47.5803C277.659 48.7116 274.387 51.026 271.498 54.0399C267.434 58.2794 264.473 63.3584 262.083 68.8418C259.536 74.6871 257.577 80.7757 256.144 87.0529C255.08 91.7121 254.123 96.3318 254.417 101.268C254.862 108.771 255.458 116.234 256.636 123.639C257.308 127.858 258.153 132.039 259.15 136.185C259.34 136.975 259.645 137.215 260.356 137.124C261.708 136.948 263.068 136.841 264.423 136.695C267.907 136.324 271.389 135.938 274.874 135.579C278.456 135.208 282.042 134.874 285.624 134.506C289.353 134.123 293.078 133.721 296.803 133.332C299.272 133.073 301.766 132.979 304.204 132.52C306.362 132.112 308.01 132.772 309.479 134.396C311.464 136.589 312.788 139.238 313.854 142.03C317.577 151.765 319.08 161.926 318.534 172.433C318.388 175.228 317.963 178.002 316.846 180.59C316.138 182.232 315.091 183.406 313.544 184.215C306.392 187.959 299.283 191.788 292.157 195.59C291.807 195.775 291.463 195.973 291.116 196.164C290.623 196.438 290.662 196.782 291.004 197.162C291.141 197.314 291.284 197.457 291.427 197.6C297.411 203.43 303.96 208.332 311.344 211.857C318.64 215.34 326.234 217.411 334.233 217.575C335.211 217.595 335.815 217.081 336.047 216.033C336.08 215.878 336.097 215.72 336.128 215.565C337.964 206.836 339.002 197.983 339.534 189.063C339.806 184.525 340.021 179.979 339.92 175.423L339.926 175.417Z" fill="#121212"/>
<path d="M231.528 92.0215C231.64 89.1992 232.192 86.4682 232.908 83.7706C236.152 71.5538 240.885 60.07 247.303 49.4256C248.319 47.7407 249.508 46.2049 250.779 44.739C251.283 44.1551 251.831 43.632 252.458 43.2244C253.883 42.2969 254.86 42.8169 255.173 44.6295C255.347 45.624 255.333 46.6215 255.238 47.6282C254.902 51.2777 254.04 54.7995 252.993 58.2635C250.043 68.0381 246.18 77.3718 241.31 86.2006C239.858 88.8313 238.276 91.3738 236.32 93.6091C235.648 94.3785 234.943 95.1115 234.025 95.5312C232.97 96.0117 232.22 95.665 231.822 94.5215C231.719 94.2265 231.637 93.9132 231.607 93.603C231.553 93.0799 231.551 92.5507 231.525 92.0246L231.528 92.0215Z" fill="#FCF6F5"/>
<path d="M337.641 245.017C337.669 245.576 337.471 246.184 337.249 246.762C335.601 251.041 333.37 254.916 330.381 258.252C329.905 258.781 329.413 259.31 328.786 259.618C327.988 260.007 327.392 259.612 327.423 258.666C327.442 258.097 327.582 257.51 327.778 256.981C329.438 252.528 331.75 248.526 334.856 245.093C335.262 244.645 335.732 244.241 336.233 243.931C337.193 243.335 337.675 243.7 337.641 245.02V245.017Z" fill="#FCF6F5"/>
<path d="M258.235 40.6139C256.978 40.62 256.309 39.735 256.743 38.4607C257.432 36.4504 258.8 35.1883 260.74 34.7534C262.1 34.4462 262.962 35.611 262.478 37.0647C261.879 38.8712 259.861 40.6108 258.232 40.6169L258.235 40.6139Z" fill="#FCF6F5"/>
<path d="M173.543 195.878C173.252 195.878 172.952 195.924 172.669 195.869C171.777 195.693 171.483 194.975 171.95 194.114C172.224 193.607 172.622 193.208 173.056 192.861C174.886 191.402 176.918 190.447 179.163 190.039C179.496 189.978 179.843 189.954 180.182 189.978C180.761 190.021 181.427 190.021 181.671 190.733C181.909 191.429 181.458 191.976 181.035 192.39C178.908 194.47 176.364 195.541 173.546 195.878H173.543Z" fill="#FCF6F5"/>
<path d="M167.713 198.252C167.425 198.231 166.913 198.194 166.664 197.65C166.37 197.011 166.717 196.531 167.131 196.132C167.733 195.557 168.43 195.229 169.25 195.244C169.709 195.253 170.162 195.314 170.358 195.819C170.571 196.36 170.38 196.859 170.003 197.251C169.423 197.86 168.718 198.182 167.713 198.252Z" fill="#FCF6F5"/>
<path d="M59.3022 139.198C59.3582 126.893 60.9816 114.868 64.8161 103.247C67.3491 95.5677 70.7609 88.4177 75.6702 82.1861C79.0709 77.8706 82.9782 74.2667 87.9182 72.1864C95.2234 69.1087 102.058 70.3069 108.443 75.027C113.677 78.8985 117.41 84.2146 120.428 90.1634C124.175 97.5476 126.535 105.473 128.013 113.721C129.364 121.272 129.963 128.9 129.787 136.594C129.706 140.147 129.096 143.629 128.511 147.105C127.142 155.24 125.043 163.145 121.889 170.696C118.863 177.943 114.984 184.558 109.579 190.002C105.26 194.354 100.343 197.566 94.5069 198.91C91.0446 199.71 87.588 199.81 84.1089 198.949C79.6251 197.836 76.1796 195.069 73.3639 191.234C69.6526 186.179 66.9488 180.522 64.8636 174.495C62.1599 166.679 60.5533 158.592 59.8312 150.289C59.5093 146.603 59.2518 142.914 59.3022 139.204V139.198ZM123.324 114.886C123.417 113.143 123.042 111.556 122.793 109.947C121.984 104.725 120.206 99.9015 117.766 95.3548C116.369 92.7515 114.74 90.3337 112.921 88.0436C111.018 85.6501 108.885 83.649 106.254 82.2682C105.271 81.7543 104.261 81.7938 103.253 81.9276C102.369 82.0432 101.798 82.7731 101.72 83.7797C101.655 84.6161 101.669 85.4494 101.93 86.2827C102.523 88.1865 103.175 90.0539 103.962 91.8756C105.014 94.3116 105.991 96.7872 106.556 99.4271C106.802 100.574 106.419 101.167 105.35 101.237C104.524 101.291 103.712 101.449 102.898 101.516C100.41 101.726 99.5869 103.186 99.696 105.473C99.9367 110.561 102.313 114.433 105.96 117.425C107.525 118.709 108.692 118.152 109.198 116.102C109.26 115.85 109.277 115.582 109.319 115.324C109.515 114.132 109.713 112.942 109.904 111.75C109.948 111.474 110.016 111.212 110.293 111.157C110.553 111.106 110.763 111.264 110.911 111.492C111.16 111.881 111.404 112.279 111.642 112.678C112.512 114.141 113.304 115.667 114.27 117.051C115.289 118.511 116.308 119.971 117.727 121.081C119.745 122.659 121.975 121.385 122.583 119.436C123.053 117.924 123.464 116.416 123.33 114.889L123.324 114.886ZM65.4122 160.861C65.3786 164.96 66.6493 169.096 68.2895 173.12C70.2431 177.913 72.9861 182.086 76.5603 185.638C77.9317 187.003 79.3648 188.241 80.9741 189.23C81.9062 189.801 82.8858 190.254 84.0082 190.212C85.4664 190.157 86.1157 189.281 85.8078 187.724C85.5615 186.48 85.1585 185.303 84.6323 184.16C83.1125 180.854 81.2652 177.731 80.0617 174.254C79.9078 173.81 79.7286 173.372 79.6167 172.916C79.3004 171.645 79.6503 171.192 80.8566 171.517C81.6151 171.721 82.4044 171.906 83.1405 171.931C85.4244 172.004 87.3808 171.055 86.1605 167.81C84.9262 164.522 83.4008 161.405 81.4304 158.567C80.7278 157.558 79.9246 156.612 78.9309 155.928C77.9849 155.28 77.2992 155.563 76.801 156.648C76.5967 157.096 76.5435 157.561 76.5715 158.035C76.6666 159.626 76.1712 161.171 76.2692 162.761C76.2888 163.081 76.2636 163.449 75.9613 163.592C75.631 163.747 75.4435 163.403 75.2476 163.19C74.0916 161.962 73.2576 160.465 72.3591 159.027C71.4551 157.576 70.4447 156.229 69.2495 155.058C68.172 154 67.489 154.069 66.5234 155.21C66.1539 155.648 65.9384 156.162 65.7397 156.712C65.2947 157.944 65.5158 159.221 65.415 160.861H65.4122ZM82.1077 136.765C82.0321 139.499 82.452 143.322 83.3056 147.087C84.0445 150.344 85.0689 153.464 87.0618 156.116C89.7375 159.681 93.2781 159.863 96.231 156.545C97.818 154.76 98.8228 152.585 99.6484 150.313C101.084 146.345 101.82 142.199 102.123 137.963C102.615 131.029 102.078 124.226 99.6792 117.699C98.9515 115.716 97.9859 113.885 96.5557 112.389C95.271 111.048 93.7623 110.221 91.9375 110.506C90.2245 110.774 88.8587 111.796 87.7727 113.219C86.4572 114.944 85.4832 116.893 84.7359 118.979C82.8242 124.329 82.1301 129.904 82.1105 136.762L82.1077 136.765Z" fill="#C20000"/>
<path d="M75.3436 268.029C75.4052 258.744 76.6787 249.708 80.0598 241.114C82.0134 236.15 84.594 231.646 88.3249 227.997C90.6032 225.767 93.153 224.04 96.1479 223.249C100.976 221.978 105.409 223.128 109.485 226.093C113.235 228.824 116.076 232.486 118.41 236.634C122.169 243.309 124.358 250.612 125.671 258.26C126.46 262.856 126.818 267.488 126.485 272.15C125.743 282.59 123.644 292.617 118.52 301.662C116.695 304.883 114.486 307.763 111.69 310.053C105.899 314.794 99.6577 315.588 92.9907 312.507C91.0539 311.613 89.2877 310.397 87.6028 309.037C86.2034 307.906 85.3245 306.294 84.3897 304.755C80.8323 298.901 78.6239 292.426 77.1601 285.638C75.9118 279.853 75.3212 273.978 75.3408 268.029H75.3436ZM122.141 257.838C122.052 256.204 121.797 254.617 121.257 253.072C120.515 250.952 120.023 248.714 119.16 246.661C117.257 242.136 114.973 237.832 112.001 234.015C110.937 232.647 109.804 231.315 108.292 230.484C107.657 230.135 106.954 229.974 106.361 230.481C105.782 230.98 105.67 231.753 105.86 232.513C106.104 233.477 106.316 234.45 106.68 235.381C107.59 237.714 108.438 240.074 109.098 242.507C109.801 245.098 109.734 245.189 107.321 244.839C105.617 244.59 104.908 245.393 105.306 247.211C105.801 249.495 106.703 251.594 107.912 253.534C108.242 254.063 108.659 254.504 109.21 254.778C110.224 255.28 110.859 255.024 111.321 253.911C111.519 253.431 111.679 252.923 111.92 252.47C112.323 251.706 112.827 251.594 113.479 252.102C113.753 252.315 113.988 252.591 114.223 252.859C115.695 254.541 117.086 256.302 118.357 258.172C118.855 258.902 119.393 259.589 120.19 259.936C121.248 260.395 122.027 259.863 122.144 258.634C122.169 258.373 122.147 258.105 122.147 257.841L122.141 257.838ZM96.6909 293.566C96.2066 290.41 94.5301 287.876 92.249 285.805C91.4765 285.106 90.5473 285.677 90.3317 286.854C90.2282 287.423 90.1526 287.995 89.9735 288.542C89.8167 289.02 89.4893 289.056 89.1674 288.813C88.8511 288.576 88.574 288.262 88.3221 287.946C87.3985 286.781 86.7491 285.416 86.0158 284.114C85.0502 282.405 84.1238 280.674 82.8866 279.172C82.52 278.725 82.1058 278.317 81.5012 278.552C80.9498 278.768 80.7399 279.26 80.6195 279.887C80.2893 281.639 80.6335 283.333 80.9386 285.017C81.7195 289.342 83.1414 293.408 85.1286 297.262C86.4217 299.768 88.0394 301.991 89.7943 304.107C91.1686 305.765 92.7304 307.185 94.6113 308.134C95.2102 308.435 95.8848 308.557 96.4054 308.073C96.9623 307.556 96.8336 306.781 96.5593 306.16C95.9883 304.88 95.5825 303.527 94.8828 302.298C93.9647 300.683 93.3126 298.922 92.8284 297.085C92.6212 296.297 92.8871 295.945 93.5645 295.954C94.1634 295.963 94.7176 295.783 95.2802 295.641C96.1311 295.428 96.6937 294.61 96.6909 293.56V293.566ZM92.8927 268.546C92.8591 272.594 93.3462 276.55 94.6392 280.364C95.2326 282.11 95.9659 283.78 97.1499 285.151C99.4114 287.773 101.905 287.639 103.948 284.823C105.146 283.168 105.843 281.255 106.319 279.251C107.506 274.266 107.556 269.218 106.845 264.157C106.515 261.806 105.972 259.498 105.04 257.327C104.337 255.693 103.54 254.115 102.163 253.008C100.324 251.533 98.359 251.706 96.7804 253.473C95.8512 254.51 95.1794 255.73 94.684 257.065C93.3126 260.748 92.8452 264.598 92.8899 268.543L92.8927 268.546Z" fill="#C20000"/>
<path d="M339.918 175.417C340.019 179.97 339.803 184.52 339.532 189.058C339 197.978 337.961 206.834 336.125 215.559C336.092 215.714 336.078 215.872 336.044 216.027C335.813 217.074 335.208 217.588 334.231 217.569C326.234 217.402 318.638 215.334 311.341 211.852C303.958 208.327 297.408 203.428 291.424 197.594C291.279 197.454 291.136 197.308 291.001 197.156C290.66 196.776 290.621 196.433 291.113 196.159C291.46 195.967 291.805 195.77 292.155 195.584C299.281 191.786 306.39 187.954 313.541 184.21C315.086 183.401 316.136 182.227 316.844 180.585C317.96 177.999 318.386 175.226 318.531 172.428C319.077 161.92 317.574 151.759 313.852 142.024C312.785 139.232 311.461 136.584 309.477 134.391C308.008 132.77 306.356 132.11 304.201 132.514C301.766 132.974 299.269 133.068 296.801 133.326C293.075 133.716 289.35 134.12 285.622 134.5C282.039 134.868 278.454 135.203 274.871 135.574C271.387 135.933 267.905 136.319 264.42 136.69C263.066 136.833 261.705 136.942 260.353 137.119C259.643 137.21 259.337 136.97 259.147 136.179C258.151 132.034 257.305 127.852 256.634 123.634C255.455 116.228 254.859 108.765 254.414 101.262C254.12 96.3263 255.077 91.7066 256.141 87.0474C257.574 80.7702 259.533 74.6816 262.08 68.8363C264.471 63.3529 267.432 58.274 271.496 54.0345C274.387 51.0175 277.659 48.7031 281.569 47.5748C286.509 46.1485 291.22 47.0061 295.765 49.3266C298.875 50.9141 301.643 53.0674 304.184 55.5612C309.326 60.6097 313.437 66.5615 316.984 72.9937C322.593 83.1637 326.749 94.0302 330.06 105.307C332.68 114.233 334.737 123.311 336.288 132.52C337.206 137.976 337.956 143.463 338.507 148.986C339.067 154.612 339.47 160.242 339.716 165.895C339.854 169.07 339.842 172.239 339.923 175.411L339.918 175.417Z" fill="#C20000"/>
<path d="M255.475 175.253C254.815 172.434 254.465 169.548 254.059 166.68C253.077 159.785 252.399 152.851 251.971 145.887C251.851 143.937 251.795 141.982 251.677 140.029C251.638 139.372 251.811 139.108 252.452 139.047C256.421 138.664 260.39 138.235 264.356 137.818C270.259 137.198 276.159 136.571 282.065 135.96C286.42 135.51 290.775 135.075 295.13 134.634C297.355 134.409 299.583 134.175 301.808 133.953C302.085 133.925 302.365 133.95 302.757 133.95C300.098 138.794 299.894 144.05 300.009 149.357C300.188 157.513 301.551 165.424 304.269 173.042C305.061 175.265 306.004 177.406 307.216 179.404C308.271 181.141 309.48 182.713 311.381 183.817C310.482 184.535 309.547 184.912 308.668 185.374C307.798 185.831 306.978 186.415 306.032 186.7C304.977 186.491 304.185 185.779 303.451 185.013C301.57 183.045 300.233 180.651 299.163 178.1C297.795 174.833 296.692 171.442 296.099 167.908C295.651 165.241 292.796 163.736 290.657 164.341C285.172 165.892 279.767 167.741 274.326 169.463C268.882 171.184 263.472 173.027 258.039 174.788C257.211 175.055 256.376 175.396 255.478 175.259L255.475 175.253Z" fill="#FCF6F5"/>
<path d="M255.467 175.256C256.366 175.393 257.203 175.052 258.028 174.784C263.461 173.024 268.871 171.178 274.315 169.459C279.756 167.741 285.161 165.889 290.647 164.338C292.788 163.733 295.64 165.241 296.088 167.905C296.681 171.439 297.784 174.83 299.153 178.096C300.222 180.648 301.56 183.042 303.44 185.009C304.174 185.776 304.963 186.49 306.021 186.697C303.897 187.859 301.781 189.039 299.645 190.176C288.2 196.274 276.753 202.363 265.305 208.451C264.914 208.658 264.516 208.853 264.155 209.038C263.805 208.862 263.735 208.552 263.637 208.257C260.069 197.606 257.435 186.682 255.448 175.563C255.431 175.463 255.459 175.353 255.467 175.25V175.256Z" fill="#EFD6D2"/>
<path d="M302.593 162.204C301.076 155.136 300.561 148.01 301.605 140.806C301.887 138.865 302.38 136.989 303.351 135.298C303.992 134.182 304.86 133.525 306.114 133.598C306.942 133.646 307.577 134.145 308.171 134.693C309.374 135.8 310.262 137.19 311.054 138.655C312.439 141.219 313.491 143.944 314.328 146.766C316.52 154.169 317.69 161.745 317.547 169.536C317.533 170.379 317.402 171.215 317.323 172.055C316.783 172.07 316.649 172.575 316.394 172.949C315.473 174.314 314.054 175.227 311.913 174.512C309.747 173.788 308.297 172.079 306.953 170.275C305.386 168.174 304.283 165.759 303.345 163.259C303.186 162.837 303.138 162.304 302.59 162.204H302.593Z" fill="#DBF505"/>
<path d="M302.593 162.207C303.141 162.307 303.189 162.84 303.348 163.262C304.289 165.762 305.392 168.177 306.956 170.279C308.3 172.082 309.749 173.794 311.916 174.515C314.06 175.23 315.476 174.317 316.397 172.952C316.649 172.578 316.783 172.073 317.326 172.058C317.346 175.114 316.78 178.028 315.482 180.753C315.263 181.215 314.944 181.641 314.606 182.012C313.735 182.97 312.817 183.131 311.675 182.608C310.561 182.097 309.749 181.191 309.022 180.187C307.687 178.35 306.696 176.288 305.845 174.15C304.392 170.501 303.382 166.699 302.573 162.83C302.531 162.636 302.584 162.42 302.593 162.213V162.207Z" fill="#A5BC00"/>
<path d="M123.319 114.881C123.454 116.411 123.042 117.916 122.572 119.428C121.965 121.377 119.734 122.648 117.716 121.073C116.297 119.963 115.278 118.506 114.259 117.043C113.294 115.659 112.501 114.133 111.631 112.67C111.393 112.272 111.152 111.873 110.9 111.484C110.755 111.256 110.542 111.098 110.282 111.149C110.005 111.204 109.938 111.466 109.893 111.742C109.705 112.935 109.504 114.124 109.308 115.316C109.266 115.574 109.249 115.842 109.188 116.094C108.681 118.144 107.514 118.701 105.949 117.417C102.302 114.428 99.9287 110.553 99.6852 105.465C99.5761 103.178 100.399 101.718 102.887 101.508C103.702 101.439 104.516 101.283 105.339 101.229C106.405 101.159 106.789 100.566 106.545 99.4191C105.983 96.7824 105.006 94.3037 103.951 91.8677C103.164 90.0459 102.512 88.1756 101.919 86.2748C101.658 85.4415 101.644 84.6082 101.709 83.7718C101.787 82.7652 102.358 82.0353 103.243 81.9197C104.25 81.7889 105.261 81.7463 106.243 82.2603C108.874 83.641 111.007 85.6422 112.91 88.0357C114.729 90.3227 116.356 92.7436 117.755 95.3469C120.198 99.8936 121.973 104.72 122.782 109.939C123.031 111.548 123.406 113.135 123.314 114.878L123.319 114.881Z" fill="#FA4616"/>
<path d="M65.3911 160.858C65.4919 159.218 65.2708 157.941 65.7158 156.709C65.9145 156.162 66.1273 155.648 66.4995 155.207C67.4623 154.063 68.1453 153.997 69.2256 155.055C70.4208 156.226 71.4312 157.573 72.3352 159.024C73.2337 160.462 74.0677 161.959 75.2237 163.187C75.4224 163.397 75.6071 163.744 75.9374 163.589C76.2397 163.446 76.2649 163.078 76.2453 162.758C76.1501 161.168 76.6455 159.623 76.5476 158.032C76.5196 157.558 76.5728 157.093 76.7771 156.646C77.2753 155.56 77.961 155.277 78.9071 155.925C79.9035 156.606 80.7039 157.552 81.4065 158.565C83.3769 161.402 84.9023 164.519 86.1366 167.807C87.3569 171.055 85.4005 172.001 83.1166 171.928C82.3805 171.904 81.5912 171.718 80.8327 171.514C79.6292 171.189 79.2793 171.645 79.5928 172.913C79.7075 173.369 79.8839 173.807 80.0378 174.251C81.2385 177.728 83.0886 180.854 84.6084 184.157C85.1346 185.3 85.5377 186.477 85.784 187.721C86.0918 189.281 85.4425 190.154 83.9843 190.209C82.8619 190.252 81.8823 189.798 80.9503 189.227C79.3381 188.238 77.9078 187 76.5364 185.635C72.9622 182.083 70.2193 177.91 68.2656 173.117C66.6255 169.093 65.3548 164.957 65.3883 160.858H65.3911Z" fill="#FA4616"/>
<path d="M82.1028 136.761C82.1196 129.906 82.8165 124.331 84.7281 118.979C85.4727 116.892 86.4495 114.943 87.765 113.218C88.8537 111.795 90.2196 110.773 91.9297 110.506C93.7546 110.22 95.2632 111.047 96.5479 112.388C97.9782 113.881 98.9438 115.715 99.6715 117.698C102.07 124.225 102.608 131.025 102.115 137.962C101.813 142.196 101.079 146.344 99.6407 150.313C98.8178 152.588 97.813 154.762 96.2233 156.544C93.2704 159.859 89.7326 159.677 87.054 156.115C85.0612 153.463 84.0368 150.343 83.2979 147.086C82.4442 143.321 82.0244 139.495 82.1 136.764L82.1028 136.761ZM86.2312 152.049C86.539 153.488 87.3675 154.607 88.2436 155.653C90.4015 158.238 92.9317 158.275 95.2296 155.824C96.7187 154.236 97.6591 152.271 98.4484 150.212C99.7331 146.873 100.419 143.363 100.802 139.787C101.135 136.691 101.309 133.583 101.007 130.468C101.015 128.768 100.769 127.096 100.511 125.429C100.01 122.181 99.2181 119.024 97.7515 116.111C97.0685 114.754 96.2372 113.516 95.0673 112.598C93.4747 111.345 91.773 111.318 90.1888 112.534C89.755 112.869 89.3435 113.252 88.9685 113.665C87.1744 115.633 86.15 118.097 85.3635 120.666C82.9313 128.629 82.6626 136.749 84.0368 144.957C84.4119 147.189 84.8905 149.409 85.9261 151.426C85.9121 151.624 85.9625 151.785 86.1388 151.876C86.1388 151.952 86.1696 152.01 86.2312 152.049Z" fill="#121212"/>
<path d="M122.15 257.841C122.15 258.106 122.173 258.374 122.148 258.635C122.03 259.864 121.252 260.396 120.194 259.937C119.399 259.593 118.859 258.906 118.361 258.173C117.09 256.303 115.702 254.542 114.227 252.86C113.992 252.592 113.757 252.315 113.482 252.103C112.833 251.595 112.329 251.707 111.923 252.471C111.683 252.927 111.526 253.432 111.324 253.912C110.862 255.025 110.227 255.281 109.214 254.779C108.663 254.505 108.245 254.064 107.915 253.535C106.706 251.595 105.805 249.496 105.309 247.212C104.915 245.397 105.62 244.594 107.325 244.84C109.737 245.19 109.807 245.098 109.102 242.507C108.441 240.074 107.593 237.714 106.684 235.382C106.32 234.451 106.104 233.478 105.864 232.514C105.673 231.753 105.785 230.981 106.365 230.482C106.955 229.974 107.66 230.135 108.296 230.485C109.807 231.315 110.941 232.651 112.004 234.016C114.977 237.833 117.261 242.136 119.164 246.662C120.029 248.718 120.521 250.953 121.26 253.073C121.801 254.621 122.055 256.208 122.145 257.838L122.15 257.841Z" fill="#FA4616"/>
<path d="M96.6863 293.568C96.6863 294.618 96.1266 295.436 95.2757 295.649C94.7131 295.788 94.1589 295.971 93.56 295.962C92.8826 295.95 92.6167 296.306 92.8239 297.093C93.3081 298.927 93.9602 300.691 94.8783 302.306C95.578 303.532 95.981 304.888 96.5548 306.168C96.8319 306.786 96.9606 307.564 96.4009 308.081C95.8775 308.565 95.2029 308.443 94.6068 308.142C92.7259 307.193 91.1641 305.77 89.7898 304.115C88.0349 301.999 86.4172 299.776 85.1241 297.27C83.1368 293.416 81.7122 289.35 80.9341 285.025C80.629 283.341 80.2848 281.647 80.615 279.895C80.7326 279.268 80.9425 278.776 81.4967 278.56C82.1013 278.323 82.5155 278.733 82.8821 279.18C84.1193 280.683 85.0457 282.416 86.0113 284.122C86.7446 285.424 87.3968 286.789 88.3176 287.954C88.5695 288.274 88.8494 288.584 89.1629 288.821C89.4848 289.064 89.815 289.028 89.969 288.55C90.1481 288.003 90.2209 287.431 90.3272 286.862C90.5427 285.685 91.472 285.114 92.2445 285.813C94.5256 287.881 96.1993 290.418 96.6863 293.574V293.568Z" fill="#FA4616"/>
<path d="M92.908 268.547C92.8604 264.602 93.3307 260.752 94.7021 257.066C95.1975 255.731 95.8693 254.514 96.7985 253.474C98.3771 251.71 100.342 251.534 102.181 253.009C103.558 254.116 104.353 255.691 105.058 257.328C105.993 259.496 106.536 261.807 106.863 264.158C107.571 269.219 107.521 274.267 106.337 279.252C105.861 281.256 105.164 283.169 103.967 284.824C101.926 287.64 99.4295 287.774 97.168 285.152C95.984 283.777 95.2479 282.111 94.6573 280.365C93.3615 276.551 92.8744 272.595 92.9108 268.547H92.908ZM106.063 270.216C106.197 267.133 105.878 264.097 105.125 261.126C104.582 258.982 103.894 256.89 102.609 255.107C100.7 252.462 98.6038 252.528 96.8265 255.281C95.9224 256.683 95.3599 258.258 94.982 259.904C93.535 266.193 93.6637 272.461 95.3179 278.68C95.7881 280.453 96.4291 282.172 97.5962 283.58C97.7389 284.255 98.2483 284.608 98.699 284.988C99.9697 286.061 101.005 286.052 102.256 284.976C102.953 284.38 103.463 283.607 103.857 282.753C105.685 278.802 106.329 274.602 106.06 270.213L106.063 270.216Z" fill="#121212"/>
<path d="M85.9252 151.428C84.8896 149.411 84.4109 147.191 84.0359 144.959C82.6616 136.751 82.9303 128.63 85.3626 120.668C86.1463 118.099 87.1707 115.635 88.9676 113.667C89.3426 113.257 89.7513 112.871 90.1879 112.536C91.7721 111.32 93.4738 111.347 95.0664 112.6C96.2363 113.518 97.0676 114.756 97.7505 116.113C99.2172 119.026 100.009 122.183 100.51 125.431C100.768 127.098 101.014 128.77 101.006 130.47C100.636 131.325 100.936 132.24 100.796 133.116C100.18 136.945 99.5474 140.771 98.1816 144.393C97.0732 147.337 95.7941 150.163 93.499 152.27C91.1479 154.429 89.3706 154.411 87.1007 152.562C86.8292 152.34 86.6081 152.045 86.2302 152.051C86.1687 152.012 86.1379 151.954 86.1379 151.878C86.1771 151.665 86.0931 151.522 85.9252 151.428Z" fill="#DBF505"/>
<path d="M86.229 152.054C86.6069 152.048 86.828 152.346 87.0995 152.565C89.3694 154.414 91.1467 154.436 93.4978 152.273C95.7929 150.166 97.072 147.34 98.1803 144.396C99.5462 140.771 100.179 136.948 100.795 133.119C100.934 132.246 100.635 131.328 101.004 130.473C101.307 133.591 101.133 136.696 100.8 139.792C100.417 143.368 99.7281 146.878 98.4462 150.217C97.6569 152.273 96.7165 154.238 95.2275 155.828C92.9296 158.277 90.3994 158.243 88.2414 155.658C87.3654 154.609 86.5369 153.493 86.229 152.054Z" fill="#A5BC00"/>
<path d="M85.9192 151.429C86.0858 151.523 86.1718 151.665 86.1302 151.876C85.9553 151.785 85.9053 151.625 85.9192 151.429Z" fill="#A5BC00"/>
<path d="M97.5825 283.579C96.4154 282.171 95.7744 280.453 95.3042 278.679C93.65 272.46 93.5213 266.192 94.9683 259.903C95.3462 258.257 95.9088 256.679 96.8128 255.28C98.5901 252.528 100.689 252.461 102.595 255.107C103.88 256.889 104.569 258.981 105.112 261.125C105.864 264.097 106.184 267.132 106.049 270.216C105.613 270.27 105.54 270.596 105.503 271C105.243 274.066 104.468 276.995 103.382 279.823C102.811 281.313 101.862 282.515 100.67 283.476C99.6677 284.285 98.6153 283.655 97.5825 283.579Z" fill="#DBF505"/>
<path d="M97.5913 283.579C98.6241 283.655 99.6765 284.284 100.678 283.475C101.871 282.511 102.82 281.313 103.391 279.823C104.477 276.994 105.249 274.066 105.512 271C105.546 270.595 105.621 270.27 106.058 270.215C106.327 274.604 105.683 278.804 103.855 282.754C103.461 283.606 102.951 284.379 102.254 284.978C101 286.051 99.9648 286.06 98.6969 284.99C98.2463 284.61 97.7397 284.257 97.5941 283.582L97.5913 283.579Z" fill="#A5BC00"/>
</svg>
