<svg width="351" height="347" viewBox="0 0 351 347" fill="none" xmlns="http://www.w3.org/2000/svg">
<path d="M216.997 174.863C216.331 179.617 214.633 186.775 209.49 192.23C199.394 202.939 186.573 195.891 180.367 203.373C170.968 214.703 185.608 248.659 203.053 270.233C212.416 281.812 224.266 296.467 243.491 299.835C265.553 303.702 283.471 290.273 298.724 278.844C311.751 269.081 327.935 257.412 337.19 234.17C349.34 203.656 341.258 174.626 338.437 165.78C335.258 159.958 332.076 154.136 328.897 148.314C325.455 143.73 322.014 139.145 318.572 134.564C311.999 126.916 301.869 116.987 287.621 108.887C279.519 104.281 271.909 101.301 265.446 99.3301C249.296 124.509 233.146 149.687 216.997 174.866V174.863Z" fill="#FCF6F5"/>
<path d="M165.492 13.6436C202.52 1.52226 220.362 8.21254 229.702 13.6436C244.45 22.2181 252.622 36.159 256.791 45.0322C250.103 59.5119 243.414 73.9885 236.726 88.4682C187.464 113.447 123.963 136.541 48.78 142.489C34.5824 143.613 20.8558 144.053 7.64551 143.949C10.032 138.413 13.2704 132.018 17.6626 125.331C21.0618 120.155 24.5061 115.787 27.705 112.16C50.9267 86.6363 103.184 34.0439 165.492 13.6467V13.6436Z" fill="#FCF6F5"/>
<path d="M312.7 292.105C313.981 292.807 315.318 293.054 316.593 293.482C323.707 295.883 330.683 298.654 337.219 302.613C340.145 304.387 342.923 306.388 345.38 308.885C346.796 310.326 348.052 311.915 348.983 313.777C350.89 317.598 350.686 321.283 348.354 324.818C347.059 326.776 345.4 328.309 343.586 329.658C339.516 332.684 335.019 334.753 330.334 336.228C322.951 338.556 315.642 341.191 308.094 342.86C302.748 344.039 297.357 344.895 291.938 345.535C279.602 346.992 267.224 347.207 254.84 346.77C244.967 346.422 235.128 345.495 225.331 344.039C214.713 342.463 204.208 340.317 193.875 337.204C186.329 334.932 178.938 332.182 171.914 328.362C169.155 326.862 166.484 325.19 164.013 323.171C163.039 322.373 162.083 321.536 161.195 320.631C158.297 317.687 156.094 314.334 156.162 309.602C152.859 310.178 149.66 310.723 146.464 311.299C140.709 312.333 134.946 313.315 129.16 314.128C122.675 315.04 116.204 316.071 109.707 316.878C100.92 317.971 92.1161 318.91 83.2922 319.599C75.1652 320.237 67.0297 320.612 58.8885 320.951C51.6275 321.253 44.3862 321.056 37.1506 320.698C30.7471 320.381 24.3578 319.713 18.1292 317.869C16.0812 317.262 14.1235 316.431 12.2758 315.27C9.55643 313.556 6.79757 311.918 4.06693 310.224C3.4012 309.812 2.7411 309.362 2.14307 308.842C-0.0967336 306.893 -0.350616 304.827 1.33065 302.269C2.50697 300.477 4.08668 299.15 5.74538 297.937C9.70311 295.036 14.0078 292.866 18.3915 290.88C29.4213 285.883 40.8403 282.176 52.3553 278.802C67.5826 274.341 82.9791 270.692 98.4716 267.524C111.067 264.95 123.719 262.718 136.413 260.794C145.998 259.341 155.612 258.115 165.237 257.019C168.986 256.591 172.743 256.283 176.597 255.911C176.585 255.024 176.033 254.491 175.663 253.894C167.984 241.57 162.343 228.238 159.079 213.743C157.22 205.489 156.213 197.108 156.216 188.598C156.216 187.687 156.216 186.776 156.204 185.867C156.204 185.735 156.154 185.603 156.106 185.366C155.158 185.359 154.492 186.083 153.75 186.539C142.689 193.355 131.349 199.547 119.645 204.944C106.218 211.135 92.4799 216.28 78.2231 219.688C67.9775 222.136 57.6304 223.648 47.114 223.229C40.0872 222.949 33.2041 221.776 26.7019 218.663C21.7258 216.283 17.4804 212.887 14.3802 207.936C13.9486 207.247 13.548 206.526 13.1841 205.791C9.99085 199.325 6.76937 192.875 3.63251 186.372C0.805958 180.516 -0.153152 174.254 0.382821 167.672C1.20935 157.505 4.58034 148.263 8.93018 139.377C14.4028 128.201 21.3055 118.118 28.9051 108.586C41.2578 93.0933 55.1734 79.4325 70.0932 66.9695C96.2177 45.1437 124.492 27.4466 155.245 14.5863C166.932 9.70024 178.89 5.80553 191.203 3.24087C200.952 1.21193 210.769 0.232862 220.679 0.971779C227.111 1.45208 233.379 2.85294 239.235 5.96563C245.201 9.13374 249.712 13.8413 252.629 20.4423C255.661 27.308 258.891 34.0753 262.141 40.8241C263.647 43.9552 264.18 47.2896 264.367 50.7194C264.753 57.8992 263.36 64.7773 261.168 71.4892C258.637 79.2386 255.103 86.443 251.06 93.3673C250.691 93.9984 250.149 94.5495 250.07 95.4239C251.469 96.0274 252.967 95.9504 254.406 96.1813C267.114 98.2349 279.047 102.782 290.15 109.753C317.439 126.886 336.218 151.677 345.846 184.497C349.056 195.44 350.548 206.723 350.252 218.223C349.784 236.397 345.16 253.087 334.985 267.715C332.102 271.859 328.757 275.514 325.242 279.027C320.996 283.269 316.909 287.7 312.703 292.099L312.7 292.105ZM300.985 298.081C301.225 298.075 301.399 297.989 301.436 297.755C304.545 296.197 306.641 293.34 308.931 290.671C307.69 290.975 306.393 291.228 305.555 292.284C304.144 294.06 302.55 295.677 301.38 297.678C301.168 297.73 301.044 297.872 301.007 298.106C300.962 298.128 300.909 298.143 300.872 298.177C300.852 298.195 300.855 298.245 300.847 298.281C300.892 298.214 300.937 298.146 300.979 298.078L300.985 298.081ZM322.841 182.145C323.642 183.959 324.446 185.769 325.247 187.582C327.07 192.462 328.864 197.351 330.195 202.459C330.816 202.173 330.878 201.742 330.957 201.36C331.112 200.606 331.16 199.821 331.002 199.066C329.736 192.933 328.184 186.896 325.755 181.166C325.149 178.974 324.133 176.979 323.253 174.916C322.723 173.614 322.187 172.318 321.411 171.16C320.683 169.294 319.687 167.588 318.728 165.864C315.546 160.138 312.037 154.67 307.933 149.676C303.628 143.906 298.711 138.801 293.433 134.122C283.021 124.891 271.518 117.875 258.544 113.906C256.575 113.303 254.581 112.776 252.575 112.339C251.247 112.05 251.176 112.176 250.908 113.561C250.722 114.519 250.564 115.479 250.395 116.44C250.225 117.403 250.556 118.018 251.388 118.287C253.656 119.029 255.949 119.691 258.186 120.532C268.07 124.236 277.224 129.497 285.743 136.092C291.772 140.76 297.343 146.006 302.536 151.736C304.201 153.574 305.783 155.504 307.402 157.391C307.496 157.573 307.563 157.776 307.685 157.93C312.779 164.365 317.18 171.335 321.081 178.688C321.544 179.913 322.167 181.043 322.833 182.145H322.841ZM23.3112 211.92C23.3309 212.118 23.173 212.49 23.5735 212.318C23.6553 212.281 23.503 211.985 23.3056 211.927C21.8415 207.743 19.8669 203.823 18.0812 199.805C17.9063 199.408 17.6017 199.14 17.2406 198.98C14.7384 197.859 12.5212 196.185 10.2052 194.704C10.1827 194.648 10.1657 194.581 10.1319 194.537C10.115 194.516 10.0219 194.528 10.0219 194.531C10.0078 194.67 10.0811 194.716 10.2334 194.673C10.067 195.209 10.335 195.615 10.5748 196.028C13.8358 201.671 17.6553 206.81 22.1659 211.323C22.4903 211.646 22.7893 212.053 23.3168 211.92H23.3112ZM323.343 172.087C324.145 173.922 324.946 175.757 325.75 177.595C325.958 178.18 326.153 178.771 326.379 179.35C328.799 185.538 330.757 191.893 332.035 198.484C334.263 209.987 334.669 221.514 332.187 233.032C327.047 256.877 310.474 272.909 287.086 274.91C278.499 275.646 270.079 274.396 261.811 271.773C257.864 270.52 254.073 268.829 250.254 267.207C248.634 266.259 246.995 265.35 245.286 264.608C244.505 264.011 243.698 263.463 242.798 263.1C238.414 260.243 234.104 257.272 230.042 253.879C226.944 251.292 224.059 248.441 221.102 245.68C220.8 245.32 220.516 244.944 220.194 244.602C212.789 236.757 206.422 228.014 201.201 218.297C195.113 206.973 190.78 194.938 188.766 181.945C188.577 180.732 188.71 179.414 188.05 178.226C187.79 178.355 187.545 178.435 187.344 178.586C181.7 182.847 175.968 186.954 169.973 190.612C169.189 191.089 169.113 191.665 169.223 192.499C169.663 195.824 170.278 199.113 171.025 202.367C175.468 221.662 183.909 238.672 195.759 253.716C198.642 257.373 201.63 260.932 205.029 264.045C205.243 264.581 205.7 264.876 206.072 265.246C211.491 270.612 217.303 275.415 223.551 279.575C224.744 280.369 225.861 281.329 227.235 281.776C228.056 282.607 229.037 283.121 230.081 283.522C231.59 284.639 233.241 285.449 234.922 286.194C235.029 286.271 235.131 286.363 235.243 286.422C247.531 292.7 260.443 296.24 274.011 296.714C281.086 296.964 288.11 296.213 294.979 294.304C318.037 287.897 334.387 272.881 343.473 248.783C348.342 235.868 349.826 222.358 348.856 208.46C348.238 199.621 346.638 191.015 344.117 182.61C342.241 176.354 340.004 170.255 337.061 164.491C336.3 162.656 335.518 160.837 334.356 159.248C334.066 158.272 333.676 157.358 332.937 156.677C332.21 154.639 330.96 152.939 329.843 151.166C326.438 145.75 322.81 140.519 318.545 135.855C318.136 135.319 317.752 134.756 317.312 134.254C309.07 124.898 299.8 116.985 289.399 110.683C280.316 105.181 270.733 101.092 260.564 98.6813C259.027 98.318 259.018 98.3057 258.29 99.6881C256.533 103.032 254.629 106.271 252.615 109.439C252.347 109.861 251.856 110.245 252.158 110.957C255.895 111.813 259.625 112.819 263.266 114.186C277.65 119.596 290.102 128.407 301.036 139.848C303.439 142.364 305.701 145.045 308.026 147.65C308.333 148.087 308.627 148.54 308.954 148.959C312.46 153.475 315.679 158.223 318.57 163.232C319.758 165.286 320.895 167.373 322.054 169.448C322.365 170.399 322.74 171.311 323.343 172.09V172.087ZM321.86 183.247C321.62 182.278 321.191 181.419 320.613 180.643C318.988 176.84 316.861 173.361 314.697 169.919C312.206 165.954 309.62 162.059 306.576 158.558C306.051 157.853 305.555 157.124 304.999 156.452C300.161 150.63 294.945 145.249 289.239 140.449C277.944 130.947 265.58 123.746 251.754 119.691C249.977 119.171 249.969 119.162 248.88 120.72C246.392 124.288 243.799 127.758 241.105 131.141C226.267 149.771 209.621 166.246 191.319 180.726C190.191 181.619 189.909 182.487 190.182 183.872C191.048 188.25 192.036 192.592 193.37 196.831C198.558 213.321 206.893 227.703 217.872 240.298C220.611 243.438 223.432 246.499 226.609 249.128C228.922 251.57 231.54 253.602 234.16 255.609C238.992 259.31 244 262.69 249.444 265.24C250.352 265.861 251.306 266.369 252.361 266.628C253.969 267.632 255.695 268.306 257.475 268.833C258.172 269.365 259.001 269.553 259.785 269.827C268.09 272.74 276.578 274.208 285.326 273.783C292.923 273.414 300.167 271.539 306.909 267.687C319.329 260.591 326.946 249.294 330.644 234.704C331.6 230.932 332.376 227.121 332.164 223.14C331.894 217.964 331.327 212.838 330.252 207.789C328.844 201.175 326.996 194.719 324.243 188.601C323.628 186.723 322.855 184.928 321.862 183.247H321.86ZM27.7062 112.16C23.5679 117.222 19.8838 122.668 16.4169 128.287C13.7398 132.625 11.1672 137.037 9.14457 141.797C5.05989 150.07 2.1882 158.777 1.45759 168.195C1.06266 173.272 1.6071 178.263 3.45762 183.004C6.3152 190.329 11.4972 194.981 18.0502 198.017C23.7851 200.674 29.8444 201.785 36.0166 202.164C45.8051 202.764 55.4724 201.56 65.0607 199.479C81.1625 195.978 96.5957 190.206 111.628 183.1C136.461 171.363 159.606 156.459 181.263 138.78C197.7 125.362 212.947 110.519 226.349 93.4997C229.232 89.8389 232.081 86.1444 234.552 82.1296C234.727 81.9264 234.928 81.7447 235.077 81.52C240.248 73.7798 244.88 65.6917 248.417 56.8986C248.953 55.5686 249.605 54.2755 249.799 52.8038C249.887 52.7083 250.019 52.6314 250.059 52.5144C252.389 45.7071 253.98 38.7336 253.639 31.4029C253.196 21.8955 249.475 14.3523 242.087 9.11219C238.499 6.566 234.55 4.91883 230.406 3.86279C223.872 2.19715 217.257 1.69838 210.549 2.01858C204.061 2.32646 197.646 3.1793 191.28 4.49087C178.323 7.16022 165.784 11.4059 153.516 16.6184C130.827 26.2612 109.507 38.7459 89.2895 53.515C71.4303 66.563 54.6797 81.1012 39.5766 97.8254C35.4355 102.413 31.3564 107.071 27.709 112.151L27.7062 112.16ZM156.004 183.429C155.761 182.878 155.53 182.305 155.265 181.748C153.166 177.339 151.062 172.93 148.952 168.524C148.537 167.656 148.091 166.806 147.674 165.938C147.35 165.264 146.918 165.021 146.272 165.436C145.995 165.615 145.711 165.775 145.431 165.947C136.416 171.594 127.208 176.837 117.721 181.483C117.321 181.68 116.858 181.797 116.618 182.419C119.149 188.069 121.702 193.795 124.28 199.51C124.906 200.898 125.09 200.941 126.365 200.406C126.664 200.279 126.946 200.113 127.239 199.965C136.458 195.356 145.454 190.273 154.261 184.79C154.864 184.414 155.527 184.119 156.004 183.426V183.429ZM84.2006 195.529C85.3938 198.389 86.4996 201.055 87.6167 203.718C88.9792 206.964 90.3727 210.19 91.6986 213.451C92.0258 214.251 92.3756 214.587 93.1429 214.177C93.3121 214.085 93.5124 214.06 93.6958 213.999C103.569 210.689 113.211 206.702 122.675 202.198C123.885 201.622 123.905 201.6 123.284 200.206C120.903 194.855 118.514 189.51 116.111 184.171C115.459 182.721 115.437 182.733 114.122 183.284C113.823 183.411 113.53 183.549 113.236 183.688C107.71 186.308 102.119 188.749 96.4574 191.006C92.4912 192.589 88.4686 193.992 84.2006 195.529ZM175.559 144.931C173.183 146.72 171.085 148.315 168.972 149.891C162.887 154.427 156.661 158.712 150.334 162.835C147.97 164.374 148.015 163.912 149.287 166.585C151.589 171.425 153.922 176.243 156.247 181.068C157.141 182.921 157.147 182.918 158.825 181.902C158.938 181.834 159.048 181.766 159.158 181.693C167.527 176.258 175.674 170.449 183.641 164.334C185.04 163.26 185.079 163.053 184.241 161.446C182.563 158.226 180.859 155.024 179.169 151.81C177.996 149.58 176.825 147.348 175.556 144.931H175.559ZM234.27 115.03C234.047 114.663 233.808 114.251 233.548 113.854C230.623 109.343 227.7 104.833 224.764 100.332C223.76 98.7922 223.731 98.7891 222.53 100.15C219.951 103.072 217.424 106.052 214.809 108.937C210.843 113.318 206.642 117.431 202.476 121.582C201.661 122.392 201.532 123.274 202.086 124.226C204.6 128.534 207.111 132.841 209.627 137.148C210.075 137.915 210.541 138.669 210.981 139.442C211.35 140.095 211.748 140.076 212.211 139.574C212.391 139.377 212.583 139.189 212.775 139.005C218.854 133.081 224.592 126.776 230.214 120.347C231.407 118.98 232.538 117.548 233.695 116.141C233.946 115.833 234.27 115.569 234.267 115.036L234.27 115.03ZM200.414 123.681C200.086 123.931 199.872 124.069 199.68 124.242C197.113 126.566 194.563 128.912 191.985 131.221C187.322 135.399 182.509 139.365 177.635 143.238C176.851 143.86 176.546 144.362 177.11 145.415C179.892 150.615 182.597 155.861 185.353 161.08C186.044 162.391 186.092 162.379 187.172 161.526C191.486 158.115 195.731 154.608 199.864 150.944C203.15 148.032 206.346 145.002 209.618 142.068C210.436 141.335 210.459 140.757 209.872 139.811C208.366 137.376 206.972 134.854 205.525 132.376C203.838 129.494 202.14 126.619 200.417 123.684L200.414 123.681ZM224.865 282.342C224.659 281.677 224.174 281.456 223.74 281.169C219.669 278.503 215.779 275.554 212.039 272.358C205.759 266.994 199.991 261.055 194.823 254.424C193.804 253.115 193.691 253.097 192.588 254.297C190.089 257.013 187.61 259.75 185.136 262.49C183.982 263.768 183.993 263.786 185.096 265.184C190.264 271.717 195.968 277.644 202.213 282.94C206.518 286.591 211.02 289.935 215.771 292.869C216.298 293.195 216.693 293.515 217.226 292.786C219.587 289.562 222.002 286.385 224.386 283.186C224.58 282.924 224.716 282.607 224.865 282.342ZM64.8689 221.049C64.993 221.018 65.1171 220.981 65.244 220.963C73.4444 219.753 81.501 217.813 89.4503 215.329C90.951 214.861 90.9849 214.781 90.305 213.158C88.1499 208.001 85.989 202.85 83.8141 197.706C83.044 195.883 83.0158 195.864 81.2668 196.416C75.8479 198.118 70.3866 199.624 64.8491 200.781C62.7137 201.228 60.5557 201.554 58.4118 201.957C56.5697 202.302 56.5415 202.373 57.2693 204.168C58.0479 206.086 58.818 208.01 59.605 209.925C60.9704 213.244 62.3413 216.56 63.7208 219.873C63.9492 220.424 64.0847 221.126 64.866 221.055L64.8689 221.049ZM173.979 218.232C173.796 218.368 173.525 218.549 173.279 218.762C170.571 221.108 167.855 223.448 165.164 225.815C163.993 226.844 163.99 226.884 164.563 228.457C168.924 240.433 174.839 251.422 182.222 261.474C183.161 262.755 183.294 262.764 184.442 261.496C186.873 258.811 189.274 256.092 191.691 253.392C192.828 252.124 193.119 252.256 191.869 250.55C186.086 242.656 181.178 234.159 177.234 225.005C176.391 223.047 175.638 221.04 174.831 219.06C174.681 218.697 174.6 218.229 173.979 218.232ZM240.586 75.0421C238.637 78.2687 236.583 81.4707 234.423 84.5895C231.562 88.7183 228.535 92.7053 225.404 96.5939C224.834 97.2989 224.541 97.8254 225.153 98.7521C228.341 103.574 231.475 108.435 234.6 113.306C235.088 114.066 235.464 113.971 235.923 113.34C236.081 113.121 236.267 112.927 236.434 112.712C241.565 106.074 246.358 99.1647 250.606 91.8156C251.52 90.233 251.54 90.2146 250.507 88.7183C247.577 84.4726 244.631 80.2392 241.684 76.0089C241.421 75.6302 241.196 75.1776 240.589 75.039L240.586 75.0421ZM252.003 307.035C252.541 306.979 253.049 307.007 253.41 306.465C255.447 303.414 257.489 300.366 259.532 297.315C259.986 296.637 259.681 296.274 259.072 296.126C257.887 295.837 256.685 295.621 255.5 295.329C245.622 292.89 236.31 288.848 227.447 283.525C226.612 283.024 225.884 283.186 225.263 284.011C224.208 285.418 223.153 286.825 222.098 288.232C220.922 289.802 219.728 291.357 218.578 292.949C217.889 293.897 217.948 294.097 218.882 294.729C219.099 294.876 219.334 294.993 219.562 295.123C227.178 299.544 235.193 302.847 243.554 305.12C246.344 305.877 249.187 306.403 252.008 307.035H252.003ZM252.685 48.5642C252.505 48.8875 252.372 49.0507 252.316 49.2385C249.907 57.4836 246.287 65.1006 242.107 72.4097C241.475 73.515 241.825 74.1862 242.392 75.0021C245.139 78.9553 247.87 82.9208 250.62 86.871C251.072 87.5175 251.585 88.1148 252.127 88.8106C253.153 87.4775 253.726 86.0705 254.395 84.7373C257.486 78.5951 260.022 72.1973 261.715 65.4208C262.008 64.2508 261.898 63.3303 261.224 62.3143C259.76 60.1098 258.434 57.7946 257.038 55.5347C255.61 53.2287 254.166 50.938 252.68 48.5642H252.685ZM167.099 186.348C163.976 188.648 160.907 190.907 157.843 193.177C157.415 193.494 157.344 194.014 157.448 194.497C157.761 195.944 157.643 197.425 157.798 198.882C158.704 207.238 160.334 215.418 162.842 223.38C163.042 224.017 163.073 224.784 163.716 225.276C164.018 225.076 164.368 224.895 164.661 224.639C167.279 222.385 169.894 220.132 172.498 217.853C173.908 216.619 173.903 216.597 173.31 214.79C170.859 207.333 169.025 199.716 167.996 191.862C167.764 190.098 167.869 188.25 167.102 186.348H167.099ZM62.9422 221.046C60.488 215.086 58.1128 209.356 55.7799 203.605C55.4611 202.823 55.0465 202.539 54.3102 202.644C53.8673 202.709 53.4131 202.684 52.9674 202.746C48.3186 203.389 43.6528 203.605 38.9729 203.515C38.0364 203.497 37.0857 203.377 36.2169 203.595C35.9997 204.183 36.2733 204.541 36.42 204.91C38.341 209.793 40.3467 214.639 42.1633 219.568C42.8263 221.366 43.8474 221.945 45.4892 221.976C49.0802 222.041 52.6797 222.207 56.2566 221.893C58.4033 221.705 60.6093 221.84 62.945 221.049L62.9422 221.046ZM285.904 297.604C285.334 297.152 284.849 297.469 284.361 297.496C281.227 297.675 278.087 298.044 274.959 297.934C270.934 297.792 266.886 297.656 262.908 296.834C261.814 296.61 261.106 297.041 260.479 298.007C258.739 300.692 256.936 303.331 255.162 305.991C254.936 306.326 254.671 306.659 254.866 307.17C255.012 307.229 255.182 307.33 255.359 307.358C261.546 308.315 267.746 308.285 273.949 307.58C275.475 307.407 276.99 307.099 278.516 306.927C279.673 306.794 280.536 306.308 281.196 305.203C282.353 303.269 283.631 301.425 284.832 299.522C285.219 298.91 285.712 298.343 285.901 297.604H285.904ZM41.2945 221.44C41.4892 220.797 41.2832 220.427 41.1337 220.046C39.0491 214.778 36.9475 209.522 34.9023 204.236C34.561 203.352 34.0222 203.174 33.2634 203.127C30.764 202.97 28.3183 202.444 25.8613 201.942C23.8669 201.536 21.9684 200.723 20.0361 200.279C19.7456 200.775 19.9205 201.086 20.0559 201.391C21.9515 205.6 23.85 209.808 25.7541 214.014C25.9544 214.454 26.1857 214.864 26.575 215.156C30.9954 218.506 35.6865 221.092 41.2973 221.44H41.2945ZM262.285 61.9017C262.502 61.172 262.668 60.7933 262.725 60.3962C263.419 55.4639 263.577 50.5501 262.601 45.6147C262.127 43.2132 261.044 41.2058 259.828 39.2323C259.131 38.0993 258.135 37.3019 257.007 36.7785C255.625 36.135 254.618 36.7015 254.496 38.2194C254.293 40.7348 253.794 43.1825 253.261 45.627C253.089 46.4152 253.199 47.1049 253.63 47.8038C256.462 52.3727 259.261 56.9663 262.285 61.8986V61.9017ZM282.243 305.714C287.309 304.956 291.992 303.337 296.505 301.142C296.793 301.003 297.086 300.809 297.292 300.557C299.253 298.164 301.194 295.757 303.146 293.346C302.802 293.06 302.559 293.143 302.322 293.232C297.896 294.935 293.36 296.142 288.714 296.865C288.169 296.951 287.738 297.164 287.422 297.656C285.696 300.341 283.969 303.026 282.24 305.711L282.243 305.714ZM157.519 191.545C158.08 191.634 158.345 191.277 158.653 191.055C161.155 189.236 163.66 187.416 166.148 185.575C167.536 184.547 167.575 184.297 166.85 182.25C166.334 182.336 165.942 182.699 165.522 183.001C163.381 184.534 161.29 186.157 159.082 187.558C157.589 188.506 156.943 189.645 157.519 191.545Z" fill="black"/>
<path d="M226.596 249.129C223.417 246.5 220.599 243.439 217.86 240.299C206.878 227.704 198.545 213.322 193.357 196.832C192.023 192.593 191.036 188.252 190.17 183.874C189.896 182.491 190.178 181.62 191.307 180.727C209.612 166.247 226.255 149.772 241.093 131.142C243.787 127.759 246.382 124.289 248.867 120.721C249.953 119.163 249.965 119.172 251.742 119.692C265.567 123.747 277.934 130.949 289.226 140.45C294.933 145.25 300.149 150.631 304.987 156.453C305.545 157.125 306.039 157.857 306.563 158.559C306.403 158.775 306.253 159.003 306.075 159.203C289.697 177.753 273.319 196.303 256.935 214.843C246.828 226.281 236.709 237.701 226.593 249.129H226.596ZM224.007 213.03C224.007 215.117 224.007 216.795 224.007 218.473C224.007 219.172 224.012 219.871 224.035 220.57C224.046 220.952 224.221 221.263 224.599 221.241C224.87 221.226 225.031 220.949 225.048 220.653C225.079 220.096 225.084 219.535 225.087 218.975C225.101 214.708 225.056 210.441 225.141 206.176C225.242 201.173 227.798 198.498 232.359 198.442C232.743 198.439 233.129 198.442 233.51 198.409C233.866 198.378 234.137 198.135 234.117 197.756C234.097 197.356 233.775 197.199 233.423 197.196C232.526 197.186 231.626 197.134 230.732 197.189C228.692 197.316 227.327 196.195 226.328 194.409C225.507 192.944 225.149 191.321 225.141 189.609C225.127 186.321 225.129 183.033 225.121 179.748C225.121 179.258 225.124 178.766 225.067 178.282C225.033 177.993 224.808 177.777 224.526 177.839C224.368 177.873 224.145 178.061 224.12 178.212C224.038 178.686 224.012 179.175 224.009 179.659C224.001 182.596 223.993 185.533 224.009 188.473C224.018 189.89 223.829 191.263 223.406 192.593C222.365 195.875 220.712 197.149 217.541 197.248C216.895 197.266 215.727 196.863 215.736 197.777C215.744 198.941 216.96 198.439 217.614 198.409C220.385 198.273 222.108 199.677 222.991 202.454C223.242 203.242 223.457 204.049 223.634 204.862C224.255 207.691 223.905 210.573 224.004 213.024L224.007 213.03Z" fill="#FA420F"/>
<path d="M234.553 82.1333C232.082 86.1481 229.23 89.8427 226.35 93.5034C212.95 110.526 197.701 125.366 181.263 138.784C159.607 156.462 136.459 171.367 111.629 183.103C96.5963 190.209 81.1603 195.982 65.0613 199.483C55.473 201.567 45.8058 202.771 36.0172 202.167C29.8479 201.789 23.7886 200.677 18.0508 198.02C11.4979 194.981 6.31302 190.329 3.45825 183.008C1.60774 178.267 1.0633 173.276 1.45823 168.199C2.18884 158.781 5.06053 150.074 9.14521 141.801C11.8166 141.385 14.3808 140.468 17.0043 139.83C21.1284 138.833 25.1793 137.503 29.3429 136.684C29.0326 137.374 28.7308 138.066 28.412 138.753C26.8718 142.066 25.515 145.459 24.6292 149.055C23.9409 151.841 23.5544 154.664 23.6814 157.558C23.9691 164.073 26.9395 168.608 32.2908 171.327C36.1978 173.31 40.3868 173.928 44.6407 174.055C51.0893 174.246 57.4251 173.236 63.7073 171.752C75.6567 168.928 87.1124 164.473 98.2917 159.147C126.915 145.511 153.153 127.62 177.367 106.142C181.895 102.124 186.219 97.8507 190.603 93.6543C191.229 93.5188 191.861 93.408 192.479 93.2417C199.923 91.262 207.365 89.2608 214.812 87.2934C221.388 85.557 227.972 83.8513 234.553 82.1333Z" fill="#FA420F"/>
<path d="M27.7051 112.158C31.3553 107.081 35.4316 102.42 39.5727 97.8326C54.6758 81.1054 71.4264 66.5702 89.2856 53.5222C109.503 38.75 130.823 26.2654 153.512 16.6256C165.78 11.4131 178.319 7.16741 191.276 4.49806C197.645 3.18649 204.057 2.33673 210.545 2.02577C217.253 1.70557 223.868 2.20434 230.402 3.86998C234.548 4.9291 238.495 6.57627 242.083 9.11938C249.471 14.3565 253.192 21.9027 253.635 31.4101C253.976 38.7407 252.385 45.7143 250.055 52.5216C250.015 52.6355 249.886 52.7155 249.795 52.811C247.189 53.5253 244.588 54.2549 241.979 54.9508C233.465 57.2137 224.952 59.4643 216.438 61.718C218.142 58.5099 220.012 55.4126 221.51 52.0751C223.524 47.5893 225.174 42.9741 225.713 37.9772C226.599 29.7691 223.688 23.0818 215.995 19.8429C212.974 18.5714 209.817 17.9802 206.607 17.7863C200.164 17.3922 193.814 18.2512 187.504 19.6089C182.091 20.7727 176.802 22.4568 171.515 24.141C171.273 21.2807 171.493 18.4113 171.411 15.548C171.394 14.926 171.721 13.8946 170.793 13.9223C170.062 13.947 170.339 14.9199 170.33 15.4925C170.28 18.5683 170.263 21.641 170.234 24.7167C168.655 25.2894 167.064 25.8312 165.495 26.4408C150.592 32.2321 136.378 39.6552 122.609 48.1096C100.222 61.8596 79.308 77.8695 60.3205 96.8074C57.2936 99.8246 54.357 102.947 51.3782 106.022C50.9409 106.108 50.498 106.17 50.0664 106.284C42.6108 108.239 35.1579 110.2 27.7051 112.161V112.158Z" fill="#FA420F"/>
<path d="M250.254 267.209C254.073 268.832 257.864 270.522 261.811 271.775C270.079 274.398 278.496 275.645 287.086 274.913C310.474 272.911 327.047 256.883 332.187 233.034C334.669 221.517 334.263 209.989 332.035 198.487C330.759 191.895 328.799 185.541 326.379 179.352C326.153 178.776 325.958 178.182 325.752 177.6C329.524 173.231 333.293 168.859 337.061 164.488C340.004 170.254 342.238 176.353 344.117 182.606C346.638 191.012 348.241 199.617 348.856 208.456C349.826 222.354 348.345 235.864 343.473 248.78C334.387 272.878 318.034 287.893 294.979 294.3C288.107 296.209 281.083 296.957 274.011 296.711C260.445 296.237 247.531 292.696 235.243 286.418C235.128 286.36 235.029 286.267 234.922 286.19C235.373 285.605 235.816 285.008 236.279 284.435C240.933 278.69 245.593 272.951 250.254 267.209Z" fill="#FA420F"/>
<path d="M324.249 188.602C326.999 194.719 328.847 201.176 330.257 207.789C331.332 212.838 331.899 217.961 332.17 223.14C332.378 227.124 331.603 230.936 330.649 234.704C326.951 249.295 319.335 260.591 306.914 267.688C300.175 271.539 292.931 273.414 285.331 273.784C276.584 274.209 268.096 272.74 259.791 269.827C259.007 269.55 258.177 269.366 257.48 268.833C271.881 251.514 286.276 234.196 300.68 216.884C308.528 207.45 316.39 198.029 324.246 188.602H324.249ZM324.432 231.989C324.455 233.057 324.376 233.91 324.748 234.686C325.137 235.492 325.665 235.631 326.294 235.067C326.536 234.849 326.762 234.575 326.917 234.276C328.291 231.653 328.869 228.824 328.661 225.819C328.613 225.117 328.415 224.35 327.699 224.156C326.94 223.95 326.548 224.652 326.209 225.237C324.982 227.367 324.519 229.738 324.432 231.989Z" fill="#FA420F"/>
<path d="M205.022 264.038C201.623 260.925 198.636 257.366 195.753 253.708C183.902 238.665 175.462 221.655 171.019 202.36C170.269 199.105 169.657 195.817 169.217 192.492C169.107 191.658 169.18 191.082 169.967 190.605C175.961 186.947 181.694 182.84 187.338 178.579C187.538 178.428 187.787 178.348 188.043 178.219C188.704 179.407 188.571 180.722 188.76 181.938C190.771 194.93 195.107 206.965 201.195 218.289C206.419 228.006 212.783 236.75 220.188 244.595C220.506 244.934 220.794 245.312 221.093 245.672C220.664 246.193 220.25 246.725 219.807 247.23C214.882 252.837 209.951 258.437 205.022 264.041V264.038Z" fill="#FA420F"/>
<path d="M308.027 147.646C305.699 145.041 303.44 142.359 301.036 139.844C290.102 128.4 277.651 119.588 263.267 114.182C259.625 112.812 255.896 111.805 252.158 110.952C251.857 110.238 252.347 109.856 252.615 109.434C254.63 106.269 256.534 103.027 258.291 99.6836C259.016 98.3043 259.027 98.3136 260.565 98.6769C270.731 101.088 280.317 105.176 289.4 110.678C299.804 116.98 309.073 124.893 317.313 134.25C317.756 134.751 318.137 135.315 318.546 135.851C315.093 139.841 311.682 143.871 308.029 147.649L308.027 147.646ZM279.973 112.806C280.526 112.806 280.782 112.824 281.036 112.802C281.473 112.766 281.992 112.824 282.148 112.224C282.283 111.706 282.066 111.26 281.691 110.934C281.239 110.546 280.793 110.139 280.3 109.819C276.133 107.113 271.634 105.379 266.881 104.413C266.201 104.274 265.467 104.286 264.782 104.4C263.97 104.536 263.755 105.222 264.249 105.94C264.799 106.737 265.58 107.236 266.365 107.713C269.848 109.838 273.561 111.309 277.425 112.356C278.362 112.609 279.293 112.827 279.967 112.802L279.973 112.806ZM288.026 116.993C288.458 117.057 289.036 116.944 289.293 116.257C289.513 115.672 289.197 115.17 288.858 114.733C288.108 113.754 287.07 113.384 285.967 113.298C285.473 113.258 284.954 113.498 284.74 114.123C284.559 114.644 284.715 115.112 285.002 115.493C285.727 116.463 286.661 117.011 288.026 116.993Z" fill="#FA420F"/>
<path d="M156.014 183.432C155.538 184.125 154.875 184.42 154.271 184.796C145.464 190.279 136.468 195.362 127.25 199.971C126.959 200.116 126.674 200.285 126.375 200.412C125.1 200.947 124.917 200.904 124.291 199.516C121.712 193.804 119.159 188.078 116.629 182.425C116.869 181.803 117.334 181.683 117.732 181.489C127.219 176.84 136.426 171.6 145.442 165.953C145.721 165.778 146.006 165.618 146.282 165.442C146.928 165.027 147.36 165.27 147.684 165.944C148.102 166.812 148.548 167.662 148.962 168.53C151.069 172.936 153.174 177.345 155.275 181.754C155.541 182.308 155.772 182.884 156.014 183.435V183.432Z" fill="#8A0000"/>
<path d="M84.2046 195.529C88.4726 193.993 92.4953 192.589 96.4615 191.006C102.123 188.75 107.714 186.308 113.24 183.688C113.534 183.549 113.827 183.411 114.126 183.285C115.441 182.734 115.463 182.721 116.115 184.171C118.515 189.51 120.907 194.855 123.288 200.206C123.909 201.601 123.889 201.622 122.679 202.198C113.215 206.702 103.573 210.689 93.6998 213.999C93.5164 214.061 93.3161 214.085 93.1469 214.178C92.3824 214.59 92.0298 214.255 91.7026 213.451C90.3767 210.19 88.9832 206.961 87.6207 203.719C86.5036 201.056 85.3978 198.389 84.2046 195.529Z" fill="#8A0000"/>
<path d="M175.565 144.929C176.834 147.346 178.002 149.578 179.178 151.808C180.868 155.019 182.572 158.224 184.25 161.444C185.088 163.051 185.046 163.258 183.649 164.332C175.686 170.447 167.539 176.256 159.167 181.691C159.057 181.761 158.944 181.832 158.834 181.9C157.155 182.916 157.15 182.919 156.255 181.066C153.931 176.241 151.598 171.42 149.296 166.583C148.024 163.907 147.979 164.372 150.343 162.833C156.67 158.71 162.896 154.425 168.981 149.889C171.093 148.316 173.192 146.718 175.567 144.929H175.565Z" fill="#8A0000"/>
<path d="M234.265 115.033C234.268 115.566 233.944 115.83 233.693 116.138C232.536 117.545 231.408 118.977 230.212 120.344C224.587 126.772 218.852 133.078 212.773 139.002C212.581 139.189 212.389 139.374 212.209 139.571C211.746 140.076 211.348 140.091 210.979 139.439C210.541 138.666 210.073 137.912 209.625 137.145C207.111 132.838 204.598 128.53 202.084 124.223C201.53 123.273 201.659 122.391 202.474 121.578C206.64 117.428 210.838 113.312 214.807 108.934C217.419 106.049 219.949 103.072 222.527 100.147C223.726 98.786 223.757 98.789 224.762 100.328C227.698 104.83 230.621 109.343 233.546 113.851C233.803 114.248 234.042 114.66 234.268 115.027L234.265 115.033Z" fill="#8A0000"/>
<path d="M200.424 123.684C202.15 126.619 203.848 129.491 205.532 132.376C206.982 134.854 208.373 137.376 209.88 139.811C210.466 140.757 210.444 141.335 209.626 142.068C206.353 144.999 203.157 148.032 199.871 150.944C195.738 154.608 191.493 158.118 187.18 161.526C186.099 162.379 186.054 162.391 185.36 161.08C182.604 155.864 179.902 150.615 177.117 145.415C176.553 144.359 176.858 143.86 177.642 143.238C182.517 139.365 187.329 135.399 191.992 131.221C194.57 128.912 197.121 126.566 199.688 124.242C199.877 124.069 200.094 123.931 200.421 123.681L200.424 123.684Z" fill="#8A0000"/>
<path d="M224.869 282.343C224.72 282.611 224.584 282.925 224.39 283.186C222.003 286.388 219.588 289.566 217.23 292.786C216.697 293.516 216.302 293.196 215.775 292.869C211.024 289.935 206.522 286.592 202.217 282.94C195.975 277.645 190.271 271.718 185.1 265.185C183.997 263.79 183.986 263.768 185.139 262.491C187.613 259.747 190.096 257.013 192.592 254.298C193.698 253.097 193.808 253.116 194.826 254.424C199.994 261.056 205.763 266.995 212.043 272.358C215.783 275.551 219.673 278.5 223.744 281.17C224.178 281.456 224.663 281.675 224.869 282.343Z" fill="#8A0000"/>
<path d="M64.8739 221.049C64.0925 221.12 63.9599 220.415 63.7286 219.867C62.3491 216.554 60.9782 213.238 59.6129 209.919C58.8258 208.004 58.0557 206.083 57.2771 204.162C56.5494 202.367 56.5776 202.299 58.4196 201.951C60.5635 201.548 62.7215 201.221 64.8569 200.775C70.3944 199.617 75.8557 198.112 81.2746 196.409C83.0236 195.861 83.0518 195.88 83.8219 197.699C85.9968 202.844 88.1577 207.998 90.3128 213.152C90.9899 214.774 90.956 214.855 89.4581 215.322C81.5088 217.807 73.4494 219.747 65.2519 220.957C65.1249 220.975 65.0008 221.015 64.8739 221.046V221.049Z" fill="#8A0000"/>
<path d="M173.972 218.235C174.592 218.235 174.677 218.7 174.824 219.063C175.63 221.043 176.381 223.05 177.227 225.009C181.171 234.159 186.079 242.659 191.862 250.554C193.112 252.259 192.821 252.124 191.684 253.395C189.267 256.095 186.866 258.814 184.434 261.499C183.286 262.767 183.157 262.758 182.214 261.477C174.832 251.425 168.914 240.44 164.555 228.46C163.983 226.884 163.986 226.847 165.156 225.818C167.85 223.451 170.564 221.111 173.272 218.765C173.517 218.552 173.791 218.371 173.972 218.235Z" fill="#8A0000"/>
<path d="M240.594 75.0427C241.201 75.1813 241.427 75.6339 241.689 76.0126C244.637 80.2429 247.582 84.4762 250.513 88.7219C251.545 90.2182 251.525 90.2367 250.611 91.8192C246.363 99.1684 241.57 106.077 236.439 112.715C236.273 112.928 236.087 113.125 235.929 113.343C235.469 113.974 235.094 114.07 234.606 113.309C231.48 108.442 228.346 103.577 225.158 98.7558C224.546 97.8291 224.842 97.3026 225.409 96.5976C228.541 92.709 231.565 88.725 234.428 84.5932C236.589 81.4744 238.642 78.2693 240.592 75.0458L240.594 75.0427Z" fill="#8A0000"/>
<path d="M251.997 307.034C249.178 306.403 246.335 305.877 243.542 305.119C235.178 302.847 227.167 299.544 219.55 295.122C219.325 294.99 219.091 294.873 218.871 294.728C217.937 294.097 217.88 293.897 218.566 292.949C219.717 291.357 220.91 289.802 222.086 288.232C223.141 286.825 224.196 285.418 225.252 284.011C225.87 283.188 226.598 283.026 227.435 283.524C236.295 288.848 245.607 292.89 255.489 295.329C256.674 295.621 257.875 295.837 259.06 296.126C259.669 296.274 259.974 296.637 259.52 297.315C257.478 300.363 255.438 303.414 253.399 306.465C253.037 307.007 252.53 306.976 251.991 307.034H251.997Z" fill="#8A0000"/>
<path d="M307.413 157.395C305.794 155.508 304.214 153.578 302.547 151.74C297.354 146.01 291.782 140.764 285.754 136.096C277.235 129.498 268.081 124.24 258.197 120.536C255.96 119.698 253.666 119.033 251.398 118.291C250.567 118.02 250.236 117.405 250.405 116.444C250.575 115.483 250.732 114.523 250.919 113.565C251.187 112.183 251.257 112.054 252.586 112.343C254.591 112.783 256.583 113.31 258.555 113.91C271.528 117.879 283.032 124.898 293.444 134.126C298.725 138.805 303.639 143.91 307.943 149.68C307.382 150.228 307.608 150.961 307.582 151.623C307.509 153.544 307.469 155.468 307.416 157.392L307.413 157.395Z" fill="#8A0000"/>
<path d="M252.694 48.5676C254.178 50.9414 255.625 53.232 257.053 55.5381C258.449 57.7979 259.775 60.1132 261.239 62.3177C261.913 63.3306 262.02 64.2542 261.73 65.4242C260.034 72.2038 257.501 78.5985 254.409 84.7407C253.738 86.0739 253.165 87.4809 252.141 88.814C251.597 88.1182 251.084 87.524 250.635 86.8744C247.885 82.9242 245.154 78.9587 242.406 75.0055C241.839 74.1896 241.487 73.5184 242.121 72.4131C246.302 65.104 249.921 57.4901 252.33 49.2419C252.387 49.051 252.519 48.8909 252.7 48.5676H252.694Z" fill="#8A0000"/>
<path d="M167.091 186.351C167.859 188.254 167.754 190.101 167.986 191.865C169.015 199.72 170.849 207.34 173.3 214.793C173.895 216.601 173.901 216.622 172.488 217.857C169.887 220.132 167.269 222.389 164.651 224.643C164.355 224.898 164.008 225.077 163.706 225.28C163.063 224.784 163.032 224.021 162.832 223.383C160.327 215.422 158.694 207.241 157.788 198.885C157.63 197.429 157.749 195.948 157.438 194.501C157.334 194.018 157.404 193.5 157.833 193.18C160.897 190.911 163.969 188.654 167.089 186.351H167.091Z" fill="#8A0000"/>
<path d="M62.9471 221.044C60.6142 221.838 58.4082 221.7 56.2587 221.888C52.6818 222.202 49.0823 222.036 45.4913 221.971C43.8495 221.94 42.8283 221.361 42.1654 219.563C40.3516 214.634 38.3431 209.788 36.4221 204.905C36.2754 204.535 36.0017 204.178 36.219 203.59C37.0906 203.372 38.0413 203.495 38.975 203.51C43.6577 203.6 48.3235 203.384 52.9695 202.741C53.4152 202.679 53.8694 202.704 54.3123 202.639C55.0485 202.531 55.4632 202.814 55.782 203.6C58.112 209.351 60.4901 215.08 62.9443 221.041L62.9471 221.044Z" fill="#8A0000"/>
<path d="M321.849 183.25C319.747 185.212 318.043 187.585 316.196 189.802C297.293 212.481 278.415 235.181 259.535 257.878C257.123 260.778 254.742 263.712 252.347 266.628C251.295 266.369 250.339 265.861 249.43 265.239C258.92 253.94 268.406 242.638 277.896 231.338C291.806 214.774 305.719 198.213 319.634 181.652C319.936 181.295 320.277 180.978 320.599 180.643C321.177 181.418 321.609 182.277 321.846 183.247L321.849 183.25Z" fill="#FA420F"/>
<path d="M285.895 297.604C285.706 298.339 285.215 298.906 284.826 299.522C283.624 301.424 282.349 303.272 281.19 305.202C280.529 306.304 279.666 306.794 278.51 306.926C276.984 307.102 275.469 307.406 273.943 307.579C267.739 308.284 261.542 308.318 255.353 307.357C255.175 307.33 255.006 307.228 254.859 307.169C254.664 306.655 254.93 306.326 255.155 305.99C256.93 303.33 258.732 300.695 260.473 298.007C261.099 297.043 261.807 296.609 262.902 296.834C266.882 297.656 270.927 297.791 274.952 297.933C278.078 298.044 281.221 297.674 284.355 297.496C284.843 297.468 285.325 297.151 285.898 297.604H285.895Z" fill="#8A0000"/>
<path d="M41.2913 221.441C35.6805 221.093 30.9894 218.503 26.569 215.157C26.1825 214.864 25.9484 214.455 25.7481 214.014C23.8468 209.809 21.9455 205.6 20.0499 201.391C19.9145 201.086 19.7396 200.775 20.0301 200.28C21.9596 200.723 23.8609 201.536 25.8553 201.942C28.3123 202.444 30.7609 202.971 33.2574 203.128C34.0162 203.177 34.555 203.352 34.8963 204.236C36.9415 209.519 39.0459 214.778 41.1277 220.046C41.2801 220.428 41.4832 220.797 41.2885 221.441H41.2913Z" fill="#8A0000"/>
<path d="M262.283 61.9004C259.259 56.9681 256.461 52.3745 253.629 47.8056C253.194 47.1067 253.087 46.417 253.259 45.6288C253.792 43.1842 254.292 40.7366 254.495 38.2212C254.616 36.7033 255.623 36.1368 257.005 36.7803C258.131 37.3037 259.127 38.1011 259.826 39.2341C261.042 41.2046 262.125 43.215 262.599 45.6165C263.575 50.5519 263.417 55.4657 262.723 60.3979C262.667 60.7951 262.501 61.1707 262.283 61.9035V61.9004Z" fill="#8A0000"/>
<path d="M307.414 157.387C307.468 155.463 307.507 153.539 307.58 151.618C307.606 150.956 307.38 150.223 307.942 149.675C312.046 154.669 315.558 160.137 318.737 165.863C319.696 167.587 320.692 169.293 321.42 171.159C321.409 172.874 321.426 174.589 321.378 176.3C321.355 177.098 321.629 177.954 321.095 178.683C317.194 171.331 312.794 164.361 307.699 157.926C307.578 157.772 307.51 157.566 307.417 157.387H307.414Z" fill="#FE5601"/>
<path d="M282.238 305.715C283.964 303.031 285.693 300.346 287.42 297.661C287.736 297.169 288.167 296.956 288.712 296.87C293.355 296.143 297.894 294.94 302.32 293.237C302.557 293.145 302.799 293.065 303.144 293.351C301.192 295.762 299.251 298.169 297.29 300.561C297.084 300.814 296.791 301.008 296.503 301.146C291.987 303.342 287.307 304.961 282.241 305.719L282.238 305.715Z" fill="#8A0000"/>
<path d="M245.286 264.607C242.519 268.369 239.472 271.866 236.569 275.499C234.423 278.187 232.245 280.844 230.081 283.517C229.037 283.12 228.056 282.602 227.235 281.771C231.054 277.193 234.874 272.618 238.693 268.036C240.064 266.392 241.43 264.739 242.798 263.092C243.698 263.458 244.504 264.006 245.286 264.603V264.607Z" fill="#FA420F"/>
<path d="M10.2043 194.704C12.5203 196.185 14.7403 197.86 17.2396 198.981C17.6007 199.144 17.9054 199.412 18.0803 199.806C19.8631 203.824 21.8405 207.743 23.3046 211.927L23.3102 211.921C22.7827 212.054 22.4837 211.647 22.1593 211.324C17.6487 206.81 13.8292 201.669 10.5682 196.028C10.3284 195.613 10.0632 195.209 10.2269 194.674L10.2015 194.704H10.2043Z" fill="#8A0000"/>
<path d="M334.355 159.241C330.685 163.524 327.015 167.804 323.345 172.086C322.742 171.307 322.364 170.396 322.053 169.445C325.351 165.507 328.646 161.566 331.949 157.634C332.245 157.28 332.603 156.991 332.933 156.671C333.675 157.351 334.062 158.265 334.352 159.241H334.355Z" fill="#FA420F"/>
<path d="M325.763 181.172C328.191 186.901 329.743 192.939 331.01 199.072C331.165 199.826 331.12 200.608 330.964 201.366C330.885 201.747 330.823 202.178 330.203 202.465C328.871 197.357 327.077 192.468 325.255 187.588C325.825 187.052 325.596 186.322 325.624 185.67C325.689 184.173 325.72 182.674 325.765 181.175L325.763 181.172Z" fill="#8A0000"/>
<path d="M157.513 191.548C156.938 189.649 157.584 188.51 159.076 187.561C161.285 186.157 163.378 184.535 165.516 183.005C165.936 182.703 166.326 182.343 166.845 182.253C167.57 184.298 167.53 184.55 166.142 185.579C163.654 187.42 161.149 189.239 158.647 191.059C158.34 191.281 158.075 191.638 157.513 191.548Z" fill="#8A0000"/>
<path d="M325.751 181.171C325.706 182.67 325.675 184.17 325.61 185.666C325.582 186.322 325.811 187.049 325.241 187.584C324.44 185.771 323.636 183.96 322.835 182.147C322.95 180.688 322.933 179.253 322.688 177.791C322.527 176.83 322.251 175.682 323.249 174.918C324.129 176.981 325.145 178.976 325.751 181.168V181.171Z" fill="#FE5601"/>
<path d="M301.429 297.756C302.546 295.678 304.137 294.062 305.547 292.285C306.385 291.229 307.683 290.98 308.924 290.672C306.633 293.341 304.537 296.199 301.429 297.756Z" fill="#8A0000"/>
<path d="M323.248 174.921C322.25 175.681 322.524 176.829 322.687 177.793C322.933 179.256 322.949 180.69 322.834 182.15C322.168 181.044 321.545 179.917 321.082 178.692C321.618 177.962 321.342 177.107 321.367 176.309C321.415 174.597 321.398 172.882 321.409 171.167C322.185 172.325 322.721 173.621 323.251 174.924L323.248 174.921Z" fill="#8A0000"/>
<path d="M23.3043 211.925C23.5002 211.98 23.6541 212.276 23.5701 212.312C23.1728 212.483 23.3295 212.114 23.3099 211.918L23.3043 211.925Z" fill="#8A0000"/>
<path d="M10.222 194.671C10.0708 194.714 9.99795 194.665 10.012 194.53C10.012 194.527 10.1044 194.515 10.1212 194.536C10.1576 194.582 10.1716 194.647 10.194 194.702L10.2192 194.671H10.222Z" fill="#8A0000"/>
<path d="M301.37 297.676C301.386 297.984 301.213 298.067 300.975 298.076L301 298.103C301.034 297.871 301.16 297.731 301.37 297.679V297.676Z" fill="#8A0000"/>
<path d="M300.977 298.079C300.932 298.146 300.887 298.214 300.845 298.282C300.853 298.245 300.848 298.195 300.87 298.177C300.907 298.143 300.96 298.128 301.005 298.106L300.98 298.079H300.977Z" fill="#8A0000"/>
<path d="M29.3374 136.683C33.4305 129.097 38.1838 122.031 43.5238 115.439C46.0992 112.262 48.7565 109.161 51.3772 106.027C54.3561 102.951 57.2954 99.8294 60.3195 96.8122C79.307 77.8774 100.221 61.8644 122.608 48.1144C136.377 39.6599 150.591 32.2338 165.494 26.4456C167.063 25.836 168.654 25.2942 170.233 24.7184C170.372 25.2018 170.349 25.6667 170.078 26.0977C167.477 26.8613 164.981 27.9604 162.465 28.9918C149.483 34.312 137.023 40.8484 124.896 48.1667C112.038 55.9254 99.6994 64.5676 87.8092 73.9796C77.1095 82.4494 66.9401 91.6151 57.3293 101.52C55.9358 102.954 54.4773 104.331 53.3151 106.012C52.9738 106.32 52.6014 106.597 52.2911 106.938C48.2939 111.372 44.449 115.959 40.8693 120.802C37.1711 125.809 33.6675 130.969 30.8325 136.628C29.58 138.906 28.5334 141.298 27.5659 143.73C26.0115 147.644 25.2668 151.729 25.6561 155.99C25.8592 158.216 26.1836 160.467 27.8451 162.08C29.1935 163.386 30.6745 162.853 30.9227 160.935C31.7323 154.676 33.9665 148.992 36.7197 143.512C37.4249 142.105 38.1161 140.688 38.8128 139.278C39.6958 138.333 40.1894 137.095 40.8636 135.996C46.7481 126.421 53.6395 117.77 61.0444 109.583C61.5776 108.992 62.2292 108.506 62.5593 107.714C62.8583 107.462 63.1883 107.237 63.4563 106.948C66.6863 103.447 70.0572 100.116 73.4564 96.8152C82.8021 87.7358 92.7007 79.4353 102.949 71.6212C111.358 65.2111 120.033 59.2567 128.938 53.7086C137.288 48.5085 145.787 43.6255 154.583 39.3736C157.855 37.7911 161.122 36.1901 164.391 34.5984C165.147 34.6138 165.926 34.4875 166.606 35.0048C165.872 35.5897 164.998 35.8453 164.174 36.2147C159.847 38.1544 155.562 40.2018 151.333 42.3847C131.274 52.7388 112.43 65.2973 94.6189 79.7154C84.7203 87.7296 75.259 96.3165 66.3675 105.636C65.8005 106.23 64.9768 106.646 64.8752 107.665L64.9063 107.662C64.548 107.477 64.4013 107.739 64.2659 108.025C63.9669 108.284 63.6425 108.515 63.3717 108.807C57.397 115.267 51.7326 122.031 46.638 129.343C44.4264 132.514 42.229 135.701 40.4377 139.189C36.951 144.95 34.1922 151.089 32.6237 157.798C31.8254 161.206 31.4813 164.663 32.0229 168.201C32.2316 169.559 32.7422 170.285 33.9101 170.744C37.1428 172.019 40.4828 172.619 43.8933 172.77C51.1317 173.093 58.2179 171.877 65.2335 170.1C78.1561 166.834 90.4919 161.729 102.532 155.735C126.69 143.706 149.127 128.576 170.115 110.855C173.308 108.158 176.535 105.501 179.469 102.462C179.731 102.265 180.014 102.092 180.256 101.868C190.361 92.5234 199.898 82.551 208.307 71.3503C208.705 70.8207 209.241 70.3712 209.359 69.6323C209.661 69.6261 209.785 69.3583 209.935 69.1458C213.819 63.7425 217.408 58.1267 220.251 51.9814C222.251 47.6587 223.732 43.1636 224.55 38.3607C225.233 34.3459 224.037 31.4087 221.216 29.0103C219.791 27.7972 218.254 26.812 216.598 26.03C212.367 24.0318 207.943 23.5392 203.416 24.1458C193.323 25.4974 183.579 28.4038 174.03 32.1538C173.565 31.8982 173.164 31.578 173.088 30.9592C173.768 30.7621 174.459 30.6082 175.122 30.365C178.764 29.0257 182.414 27.7233 186.129 26.6519C192.694 24.7584 199.309 23.1913 206.113 22.6556C209.701 22.3723 213.264 22.1999 216.841 22.7018C217.193 22.751 217.582 22.8957 218.09 22.4678C217.379 21.8028 216.573 21.4395 215.766 21.1131C212.313 19.7122 208.736 19.0688 205.055 18.9518C197.825 18.7239 190.775 20.0478 183.763 21.7597C179.636 22.7664 175.624 24.2289 171.537 25.3865C171.28 24.977 171.365 24.5583 171.508 24.1365C176.798 22.4524 182.084 20.7683 187.497 19.6045C193.808 18.2467 200.158 17.3908 206.601 17.7818C209.811 17.9789 212.967 18.5669 215.989 19.8385C223.681 23.0774 226.592 29.7646 225.707 37.9727C225.168 42.9697 223.518 47.5848 221.504 52.0707C220.006 55.4081 218.135 58.5054 216.432 61.7136C213.924 65.4143 211.484 69.1643 208.784 72.705C203.622 79.4722 198.067 85.8269 192.208 91.8768C191.653 92.4495 191.128 93.0591 190.589 93.6502C186.205 97.8497 181.884 102.123 177.353 106.138C153.139 127.616 126.899 145.507 98.2776 159.143C87.1012 164.469 75.6427 168.924 63.6933 171.748C57.4139 173.232 51.0753 174.242 44.6267 174.051C40.3728 173.924 36.1809 173.306 32.2768 171.323C26.9283 168.607 23.9579 164.069 23.6674 157.554C23.5376 154.657 23.9269 151.837 24.6152 149.051C25.5038 145.455 26.8578 142.059 28.398 138.749C28.7168 138.065 29.0186 137.37 29.3289 136.68L29.3374 136.683Z" fill="#040201"/>
<path d="M166.602 35.0051C167.838 35.3961 168.36 36.5384 168.893 37.6467C170.033 39.9989 170.264 42.5759 170.303 45.1652C170.354 48.5181 170.315 51.8709 170.317 55.2237C170.317 55.781 170.329 56.3413 170.377 56.8955C170.405 57.1942 170.614 57.4189 170.904 57.3327C171.051 57.2896 171.237 57.0679 171.254 56.9109C171.313 56.3598 171.322 55.7995 171.327 55.2422C171.361 51.0519 171.389 46.8586 171.415 42.6683C171.423 41.1843 171.632 39.7526 172.238 38.4041C173.384 35.861 175.141 34.3893 177.844 34.5002C178.543 34.5279 179.248 34.4848 179.948 34.4201C180.21 34.3955 180.399 34.1369 180.385 33.8321C180.374 33.5242 180.162 33.3148 179.889 33.3056C178.868 33.2686 177.844 33.2594 176.82 33.244C175.779 33.2255 174.769 33.1116 174.03 32.1603C183.578 28.4133 193.322 25.5038 203.412 24.1522C207.94 23.5457 212.363 24.0352 216.594 26.0365C218.25 26.8185 219.788 27.8037 221.212 29.0168C224.033 31.4152 225.229 34.3524 224.547 38.3672C223.729 43.1701 222.248 47.6652 220.248 51.9879C217.404 58.1332 213.816 63.749 209.931 69.1523C209.779 69.3648 209.658 69.6326 209.356 69.6388C208.467 69.7712 207.562 69.8204 206.696 70.0513C193.319 73.6166 179.948 77.2127 166.574 80.7903C133.73 89.5772 100.889 98.3642 68.0368 107.12C67.0072 107.394 65.9916 107.979 64.8633 107.668C64.9648 106.649 65.7885 106.234 66.3555 105.639C75.2499 96.3199 84.7112 87.733 94.607 79.7189C112.418 65.2976 131.262 52.7391 151.321 42.3881C155.55 40.2052 159.835 38.1578 164.162 36.2182C164.986 35.8487 165.858 35.5932 166.594 35.0082L166.602 35.0051ZM146.34 53.4103C146.086 53.4842 145.654 53.6043 145.225 53.7397C143.369 54.3216 141.609 55.1683 139.891 56.1074C131.107 60.9072 122.712 66.4306 114.607 72.4836C111.008 75.1714 107.442 77.9116 104.24 81.169C103.583 81.8371 102.92 82.5144 102.472 83.3734C101.927 84.4171 102.26 85.0113 103.355 84.8974C103.984 84.8328 104.621 84.6511 105.208 84.3956C106.754 83.7213 108.308 83.0563 109.8 82.2527C119.369 77.1111 128.404 70.9904 137.158 64.3586C140.108 62.1234 143.008 59.8081 145.646 57.1326C146.303 56.4645 146.941 55.7748 147.412 54.9282C147.618 54.5587 147.804 54.1708 147.564 53.7613C147.324 53.3487 146.909 53.3918 146.334 53.4072L146.34 53.4103ZM206.425 31.9478C207.607 31.76 209.04 31.7415 210.295 30.9595C211.288 30.3407 211.328 29.3524 210.335 28.9183C207.883 27.8438 205.435 28.1301 203.125 29.4293C202.216 29.9404 202.295 30.8518 203.232 31.3136C204.166 31.7723 205.184 31.954 206.428 31.9478H206.425Z" fill="#FA420F"/>
<path d="M179.472 102.465C176.535 105.507 173.308 108.161 170.117 110.858C149.13 128.58 126.692 143.706 102.534 155.738C90.4944 161.732 78.1586 166.837 65.236 170.104C58.2204 171.877 51.1314 173.096 43.8958 172.773C40.4853 172.619 37.1453 172.019 33.9126 170.747C32.7447 170.288 32.2313 169.562 32.0254 168.204C31.4838 164.663 31.8307 161.209 32.6262 157.801C34.1947 151.089 36.9535 144.953 40.4402 139.192C40.8182 139.122 41.199 139.075 41.5714 138.977C57.1202 134.854 72.6691 130.732 88.2151 126.6C113.837 119.793 139.457 112.973 165.082 106.175C169.872 104.904 174.676 103.706 179.472 102.471V102.465Z" fill="#FA420F"/>
<path d="M170.085 26.091C170.193 27.6242 169.657 28.9697 169.016 30.2659C168.057 32.2055 166.554 33.2431 164.511 33.2893C163.998 33.3016 163.484 33.28 162.974 33.3047C162.548 33.3262 161.939 33.2277 161.984 33.9327C162.026 34.5793 162.616 34.4715 163.053 34.4992C163.498 34.5269 163.944 34.5608 164.39 34.5947C161.123 36.1864 157.857 37.7874 154.584 39.3699C145.789 43.6249 137.289 48.5079 128.94 53.7049C120.034 59.2499 111.357 65.2074 102.95 71.6175C92.7021 79.4316 82.8035 87.7352 73.4578 96.8116C70.0586 100.112 66.6876 103.443 63.4577 106.944C63.1897 107.233 62.8625 107.455 62.5635 107.707C61.5056 107.55 60.4337 107.461 59.3899 107.218C57.3758 106.753 55.2855 106.75 53.3193 106.002C54.4816 104.318 55.9428 102.945 57.3335 101.51C66.9443 91.6053 77.1137 82.4396 87.8134 73.9698C99.7036 64.5578 112.042 55.9155 124.9 48.1569C137.027 40.8385 149.487 34.2991 162.469 28.982C164.985 27.9506 167.482 26.8514 170.082 26.0879L170.085 26.091Z" fill="#8A0000"/>
<path d="M53.3119 106.002C55.278 106.751 57.3683 106.754 59.3825 107.219C60.4262 107.459 61.4982 107.548 62.556 107.708C62.226 108.499 61.5743 108.989 61.0412 109.58C53.6363 117.77 46.7448 126.421 40.8604 135.993C40.1862 137.092 39.6925 138.33 38.8096 139.275C37.8928 138.755 36.8547 138.681 35.8927 138.333C34.2143 137.73 32.3666 137.724 30.832 136.624C33.667 130.962 37.1706 125.805 40.8688 120.799C44.4486 115.953 48.2935 111.369 52.2907 106.935C52.601 106.594 52.9705 106.316 53.3147 106.009L53.3119 106.002Z" fill="#FA420F"/>
<path d="M173.102 30.9632C171.666 29.4084 171.42 27.4595 171.553 25.3874C175.64 24.2298 179.652 22.7673 183.779 21.7606C190.792 20.0487 197.841 18.7218 205.071 18.9527C208.752 19.0697 212.329 19.7101 215.782 21.114C216.589 21.4404 217.396 21.8068 218.106 22.4687C217.599 22.8967 217.209 22.752 216.857 22.7027C213.28 22.2008 209.717 22.3702 206.129 22.6565C199.325 23.1953 192.71 24.7593 186.145 26.6528C182.43 27.7243 178.777 29.0266 175.138 30.3659C174.475 30.6091 173.781 30.7661 173.104 30.9601L173.102 30.9632Z" fill="#8A0000"/>
<path d="M30.8426 136.623C32.38 137.722 34.2249 137.728 35.9034 138.332C36.8653 138.676 37.9034 138.75 38.8202 139.274C38.1234 140.684 37.4351 142.1 36.7271 143.507C33.9739 148.99 31.7397 154.671 30.9301 160.93C30.6819 162.848 29.2009 163.381 27.8525 162.075C26.191 160.465 25.8666 158.212 25.6635 155.986C25.2742 151.724 26.0189 147.639 27.5732 143.726C28.5408 141.293 29.5902 138.901 30.8398 136.623H30.8426Z" fill="#8A0000"/>
<path d="M64.9168 107.659C64.8435 108.072 64.5614 108.047 64.2793 108.022C64.4119 107.736 64.5586 107.474 64.9168 107.659Z" fill="#FE5601"/>
</svg>
