<svg width="417" height="353" viewBox="0 0 417 353" fill="none" xmlns="http://www.w3.org/2000/svg">
<g clip-path="url(#clip0_432_1549)">
<path d="M208.497 64.1898C210.83 63.6188 212.949 63.0241 215.107 62.5958C230.311 59.5823 244.92 61.5649 258.791 68.3135C276.463 76.902 288.93 90.3676 295.5 108.988C299.769 121.09 300.174 133.413 296.722 145.808C296.294 147.355 296.222 148.933 296.159 150.511C295.572 164.516 296.833 178.362 299.674 192.073C300 193.628 300.007 193.636 301.515 193.802C302.951 193.961 304.229 194.54 305.3 195.436C309.562 198.997 311.633 203.445 310.474 209.044C310.307 209.845 310.466 210.21 311.061 210.591C311.545 210.892 312.014 211.225 312.458 211.574C312.91 211.931 313.331 211.931 313.847 211.661C318.148 209.377 322.583 211.336 325.202 214.532C326.012 215.515 326.718 216.57 327.218 217.736C327.519 218.442 327.924 218.902 328.702 219.013C329.075 219.068 329.448 219.179 329.789 219.346C331.654 220.25 332.931 219.996 334.383 218.204C336.629 215.42 340.39 215.333 343.271 217.53C344.604 218.545 345.707 219.806 346.334 221.344C346.81 222.51 347.516 222.962 348.723 223.065C353.087 223.422 357.443 223.81 361.824 223.874C364.998 223.921 368.172 223.771 371.338 223.89C382.733 224.334 393.375 227.236 402.635 234.12C412.15 241.186 416.776 250.829 416.697 262.637C416.649 270.234 414.491 277.363 411.253 284.207C407.166 292.851 401.366 300.258 394.708 307.039C384.074 317.879 371.727 326.325 358.158 333.026C342.898 340.56 326.797 345.532 310.117 348.736C302.705 350.163 295.222 351.107 287.731 351.948C283.2 352.455 278.622 352.558 274.059 352.543C208.33 352.273 142.602 352.487 76.8816 352.4C56.583 352.376 36.2764 352.344 15.9778 352.313C15.597 352.313 15.2081 352.336 14.8431 352.265C13.9385 352.09 13.629 351.678 13.9623 350.782C16.1286 344.953 19.6757 340.496 26.0795 339.061C27.0159 338.847 27.3809 338.561 27.4841 337.538C27.9443 332.677 29.4282 328.133 32.1263 324.017C34.3958 320.552 37.2922 317.792 41.2678 316.024C39.4982 313.153 38.9665 310.139 39.8712 306.928C40.7917 303.668 42.7914 301.384 46.0131 300.227C45.8147 299.537 45.2989 299.132 44.9339 298.625C41.3868 293.684 39.5299 288.188 39.6093 282.098C39.649 279.029 40.2997 276.063 41.7756 273.327C43.8626 269.473 46.9495 266.991 51.3774 266.34C51.6869 266.293 51.9884 266.221 52.5201 266.118C51.4329 264.921 50.449 263.827 49.4491 262.748C37.9984 250.345 27.9999 236.895 20.2709 221.86C12.1768 206.102 6.51892 189.496 3.34479 172.057C1.81327 163.628 0.972121 155.134 0.575354 146.577C0.337294 141.439 0.194458 136.308 0.408712 131.185C1.15463 113.651 4.51922 96.7515 12.8672 81.1051C14.359 78.3057 16.3905 75.7997 17.7792 72.9845C19.1361 70.2327 19.9455 67.1875 21.3025 64.4039C28.4681 49.7171 38.7126 37.7265 52.5518 28.9001C53.6152 28.2181 54.6944 27.5281 55.8371 27.0047C59.1937 25.4742 62.2171 23.4044 65.3357 21.4694C78.6432 13.1981 92.9348 7.43283 108.337 4.37174C115.931 2.86499 123.533 1.47719 131.27 1.05689C146.363 0.240069 161.163 1.6358 175.312 7.40904C181.755 10.034 187.722 13.4757 192.944 18.099C204.149 28.0119 209.687 40.4386 209.386 55.4189C209.346 57.576 209.195 59.7171 208.759 61.8424C208.608 62.572 208.592 63.3175 208.497 64.2057V64.1898ZM143.816 42.4926C143.84 42.7146 143.951 42.8494 144.181 42.8891C144.197 43.238 144.34 43.4839 144.689 43.5949C144.784 43.7138 144.88 43.8328 144.975 43.9517C144.999 44.4355 145.332 44.7448 145.594 45.1016C148.72 49.3602 151.363 53.8963 153.339 58.8051C157.528 69.2176 159.06 80.0028 158.068 91.1924C157.386 98.8927 155.537 106.268 152.775 113.469C150.585 119.178 147.427 124.381 144.507 129.71C136.611 144.103 130.326 159.139 126.43 175.126C124.629 182.525 123.494 190.027 123.018 197.625C122.629 203.85 123.248 210.035 124.192 216.174C125.874 227.086 128.652 237.736 132.492 248.101C132.945 249.33 133.357 250.591 134.143 251.654C134.952 251.519 135.397 250.924 135.96 250.543C144.586 244.707 154.838 245.658 162.147 253.057C166.043 256.999 168.352 261.796 169.519 267.189C169.963 269.259 169.995 269.251 171.947 268.672C176.668 267.268 181.073 268.712 184.128 272.605C186.572 275.722 187.437 279.378 187.937 283.184C188.087 284.326 187.365 285.865 188.46 286.531C189.397 287.102 190.793 286.896 191.992 287.031C192.055 287.031 192.119 287.038 192.182 287.046C201.276 287.411 210.29 286.896 219.202 284.913C224.161 283.811 229.105 282.986 234.255 283.525C238.993 284.025 243.46 285.278 247.729 287.276C254.506 290.464 260.053 295.222 264.719 301.043C266.782 303.613 268.647 306.341 270.877 308.775C281.161 320.013 293.588 327.919 308.014 332.741C316.434 335.548 325.043 337.126 333.955 336.944C335.986 336.904 338.002 336.785 340.025 336.595C344.787 336.151 349.421 335.159 353.865 333.407C358.951 331.4 363.673 328.664 368.362 325.881C370.918 324.366 373.528 322.931 375.79 320.972C379.742 318.53 383.329 315.603 386.812 312.55C394.676 305.667 401.77 298.101 407.087 289.021C411.293 281.836 414.332 274.231 415.078 265.857C416.078 254.596 412.665 244.976 404.206 237.324C399.961 233.485 395.009 230.797 389.629 228.933C382.876 226.586 375.957 225.198 368.751 225.396C364.95 225.5 361.141 225.523 357.34 225.19C354.563 224.944 351.77 224.833 348.992 224.603C348.072 224.524 347.699 224.722 347.889 225.722C348.088 226.784 348.104 227.863 347.564 228.878C346.405 231.067 343.35 232.098 340.359 231.281C337.256 230.44 335.28 228.164 335.415 225.587C335.431 225.27 335.526 224.96 335.526 224.643C335.526 224.136 335.47 223.636 335.447 223.128C335.423 222.605 335.113 222.335 334.637 222.216C332.63 221.701 330.622 221.201 328.424 220.638C328.527 222.105 328.622 223.414 328.606 224.722C328.567 228.021 325.583 230.17 322.258 229.512C318.156 228.703 314.981 224.699 315.41 220.71C315.569 219.266 315.529 217.799 315.577 216.34C315.6 215.658 315.378 215.151 314.728 214.786C313.125 213.89 311.569 212.898 310.101 211.796C309.792 211.566 309.443 211.296 309.101 211.685C308.276 212.637 307.054 212.882 306.046 213.398C305.959 214.032 306.253 214.469 306.435 214.936C307.919 218.648 309.633 222.248 311.688 225.682C312.022 226.229 312.815 226.982 312.045 227.498C311.093 228.14 310.792 226.982 310.442 226.419C308.411 223.12 306.752 219.631 305.292 216.047C301.341 206.316 298.77 196.197 297.008 185.872C295.23 175.412 294.365 164.873 294.603 154.262C294.611 153.786 294.754 153.286 294.524 152.803C294.111 152.874 294.096 153.247 293.977 153.501C292.77 156.157 291.382 158.719 289.771 161.161C289.493 161.581 289.192 161.994 288.858 162.367C288.692 162.549 288.43 162.636 288.168 162.509C287.827 162.351 287.676 162.026 287.803 161.732C288.057 161.161 288.398 160.622 288.731 160.091C295.921 148.727 298.674 136.308 297.182 123.017C295.508 108.068 289.136 95.221 278.661 84.4992C265.766 71.2953 250.07 63.9916 231.573 62.921C224.154 62.4927 216.909 63.4364 209.775 65.5221C208.6 65.8631 208.164 66.4341 208.037 67.576C207.418 72.9924 206.974 78.4246 206.704 83.8648C206.688 84.2058 206.569 84.6182 207.029 84.9037C207.354 84.8085 207.712 84.7134 208.069 84.5944C220.194 80.5579 232.279 80.8117 244.246 85.1178C254.062 88.6547 262.188 94.5072 267.885 103.397C272.869 111.169 274.678 119.678 272.67 128.687C270.155 139.995 263.132 147.822 252.618 152.446C243.563 156.427 234.835 155.57 226.598 149.995C220.662 145.975 216.393 140.558 213.219 134.214C209.053 125.887 207.013 116.958 205.966 107.775C204.426 94.2852 205.021 80.8196 206.585 67.3699C207.029 63.5316 207.815 59.7489 207.926 55.863C208.307 42.326 203.768 30.7716 194.126 21.2553C188.167 15.371 181.073 11.2394 173.296 8.24965C163.67 4.55414 153.656 2.82534 143.38 2.46848C136.008 2.21471 128.683 2.59536 121.367 3.57872C115.582 4.35588 109.908 5.68817 104.219 6.93322C91.5223 9.71675 79.7462 14.7683 68.5812 21.3267C68.2083 21.5408 67.7718 21.6994 67.5814 22.1514C68.1844 22.3814 68.7082 22.0325 69.2398 21.8818C79.8891 18.9397 90.6732 18.0277 101.632 19.582C112.956 21.1839 123.28 25.2601 132.516 32.0405C136.524 34.9826 140.007 38.4878 143.404 42.0961C143.467 42.3102 143.594 42.4688 143.832 42.5084L143.816 42.4926ZM309.276 207.133C309.855 201.55 305.086 195.127 300.468 195.444C300.888 197.347 301.277 199.234 301.936 201.066C301.88 201.304 301.896 201.526 302.102 201.701C302.158 201.867 302.213 202.034 302.269 202.208C302.801 205.246 303.975 208.085 304.911 211.003C305.15 211.74 305.594 211.772 306.221 211.614C307.982 211.162 309.022 209.655 309.268 207.141L309.276 207.133ZM346.389 226.562C346.191 223.509 344.953 220.924 342.668 218.933C339.851 216.475 336.502 217.125 334.518 220.384C334.653 220.622 334.875 220.718 335.121 220.789C336.19 221.09 336.759 221.749 336.827 222.764C336.851 223.144 336.891 223.517 336.923 223.898C336.804 225.214 336.637 226.53 337.486 227.72C338.986 229.814 342.581 230.71 344.826 229.457C345.929 228.846 346.755 227.998 346.382 226.562H346.389ZM327.067 222.319C327.067 222.319 327.146 222.224 327.138 222.201C327.099 222.121 327.043 222.05 326.988 221.978C326.623 219.631 325.71 217.522 324.242 215.658C323.21 214.35 321.957 213.295 320.401 212.676C318.529 211.923 316.656 211.796 314.783 212.906C315.899 213.752 316.592 214.627 316.862 215.531C316.862 215.658 316.87 215.777 316.878 215.904L316.957 218.925C316.608 219.591 316.846 220.297 316.838 220.987C316.775 224.056 318.37 226.134 320.988 227.466C324.21 229.108 327.567 227.435 327.178 223.533C327.313 223.113 327.297 222.708 327.067 222.327V222.319ZM1.84501 137.196C1.81327 137.323 1.75772 137.442 1.76565 137.569C1.94817 147.965 2.53538 158.322 4.21767 168.6C4.89218 172.724 5.70952 176.816 6.67763 180.884C6.89188 181.772 7.16169 182.208 8.18534 182.002C16.327 180.376 24.548 179.329 32.8166 178.529C39.6331 177.87 46.4575 177.418 53.2898 177.236C59.8761 177.061 66.4704 177.125 73.0647 177.093C77.937 177.347 82.8093 177.593 87.6816 177.846C94.2679 178.195 100.83 178.806 107.369 179.631C111.646 180.17 115.908 180.773 120.177 181.391C120.978 181.51 121.319 181.336 121.415 180.487C122.137 173.556 122.907 166.633 123.168 159.67C123.478 151.502 123.518 143.334 122.994 135.158C122.518 127.814 121.589 120.534 120.232 113.31C120.042 112.287 119.701 111.724 118.494 111.518C112.932 110.574 107.361 109.749 101.759 109.091C90.8636 107.814 79.9367 107.021 68.97 106.752C61.4235 106.561 53.877 106.545 46.3385 106.839C37.1573 107.196 27.992 107.838 18.8742 109.059C14.4781 109.646 10.1057 110.352 5.72539 111.05C4.02723 111.319 4.05897 111.383 3.75743 112.993C3.17815 116.109 2.76551 119.25 2.45603 122.398C1.97197 127.315 1.67043 132.247 1.83707 137.196H1.84501ZM120.986 199.131C120.875 194.135 120.875 189.139 121.05 184.143C121.089 183.104 120.645 182.898 119.756 182.771C115.876 182.208 111.995 181.637 108.107 181.161C99.6243 180.107 91.1255 179.377 82.5871 178.996C82.1189 178.735 81.6031 178.798 81.1032 178.766C77.6196 178.528 74.128 178.632 70.6444 178.584C61.8917 178.473 53.139 178.552 44.4022 179.084C35.6734 179.615 26.9683 180.448 18.3188 181.74C15.0653 182.224 11.8356 182.882 8.58211 183.421C7.68542 183.572 7.35213 183.945 7.64574 184.817C7.7489 185.119 7.84412 185.42 7.91554 185.729C10.1216 194.476 13.3433 202.874 16.8349 211.17C21.9452 223.319 28.7775 234.5 36.6018 245.087C37.1811 245.872 37.8238 246.079 38.7126 245.936C41.9026 245.412 45.1243 245.127 48.3302 244.77C58.3526 243.652 68.4225 243.255 78.5004 243.065C87.2531 242.899 95.9978 243.247 104.727 243.771C108.837 244.017 112.94 244.35 117.042 244.746C121.375 245.167 125.7 245.714 130.183 246.221C129.842 245.222 129.54 244.342 129.247 243.462C128.929 242.502 128.596 241.542 128.303 240.575C124.168 227.07 121.589 213.287 120.986 199.155V199.131ZM267.211 350.282C264.624 349.259 262.013 348.284 259.521 347.031C250.308 342.408 242.262 336.198 234.89 329.061C230.51 324.818 226.629 320.124 222.781 315.405C220.249 312.296 217.472 309.434 214.25 307.039C212.409 305.667 210.449 304.501 208.227 303.866C204.561 302.812 202.268 303.89 200.649 307.332C200.594 307.443 200.594 307.586 200.538 307.697C200.054 308.601 199.237 308.664 198.618 307.824C198.356 307.467 198.181 307.054 197.959 306.666C196.158 303.518 193.706 301.012 190.539 299.211C188.127 297.839 185.564 297.419 182.842 297.958C182.287 298.069 181.715 298.141 181.144 298.173C180.827 298.188 180.501 298.085 180.469 297.673C180.438 297.3 180.644 297.062 180.977 296.975C181.588 296.816 182.215 296.602 182.834 296.594C183.755 296.594 184.167 296.158 184.469 295.341C185.389 292.828 186.08 290.266 186.318 287.601C186.738 282.899 186.199 278.355 183.556 274.279C180.636 269.782 175.859 268.371 170.955 270.488C170.606 270.639 170.281 270.845 169.931 270.988C169.209 271.273 168.693 271.138 168.566 270.266C168.471 269.639 168.368 269.013 168.249 268.394C167.44 264.033 165.868 259.98 163.163 256.443C158.743 250.662 153.013 247.466 145.578 248.331C139.515 249.037 134.881 252.351 131.159 257.038C130.136 258.331 130.175 258.363 129.017 257.086C128.977 257.038 128.937 256.991 128.89 256.943C127.549 255.492 125.954 254.675 123.962 255.341C121.962 256.015 120.939 257.57 120.637 259.592C120.153 262.915 121.526 265.468 124.502 266.872C125.66 267.419 125.874 267.768 125.478 268.91C125.208 269.695 124.962 270.464 124.819 271.281C123.843 276.666 124.033 281.987 125.557 287.253C125.628 287.498 125.684 287.744 125.708 287.998C125.739 288.339 125.644 288.632 125.287 288.751C124.922 288.87 124.636 288.656 124.525 288.371C124.216 287.538 123.922 286.697 123.724 285.841C123.565 285.135 123.319 284.525 122.803 284.017C120.169 281.44 117.026 280.195 113.329 280.448C109.623 280.702 106.449 282.241 103.87 284.818C98.18 290.504 96.0851 297.261 98.188 305.151C98.4974 306.317 99.045 307.395 99.6719 308.426C99.8465 308.712 99.8941 309.045 99.6957 309.323C99.4338 309.703 99.0291 309.656 98.672 309.505C97.9182 309.188 97.1881 308.823 96.3549 308.712C91.8794 308.117 87.1578 311.305 86.1024 315.683C85.8961 316.547 85.8961 317.443 85.9675 318.331C86.0151 318.902 86.0786 319.608 85.293 319.616C84.563 319.624 84.4916 318.934 84.4598 318.347C84.3963 317.269 84.4043 316.206 84.7058 315.143C85.9596 310.71 89.7051 307.689 94.7281 307.11C95.5693 307.173 96.4104 307.308 97.2675 307.158C96.9104 305.849 96.4184 304.707 96.3311 303.533C96.2279 302.201 95.5217 301.527 94.5298 300.869C87.5467 296.238 80.8334 291.257 74.3185 285.992C69.7318 282.288 65.3753 278.323 60.9474 274.437C59.2016 272.708 57.3289 271.075 55.7418 269.211C54.4325 267.681 52.9645 267.459 51.179 267.831C46.1718 268.878 43.3468 272.201 41.9026 276.848C40.4584 281.479 40.8789 286.095 42.4184 290.631C43.7991 294.715 46.0131 298.276 49.211 301.202C49.584 301.543 50.1077 301.932 49.711 302.463C49.2428 303.089 48.6159 302.764 48.2747 302.296C47.505 301.242 46.5924 301.622 45.7274 301.971C44.4181 302.503 43.3151 303.327 42.6247 304.612C41.9502 305.31 41.6487 306.198 41.3709 307.086C40.5615 309.671 40.7837 312.154 42.1724 314.509C42.593 315.223 43.0691 315.579 44.0055 315.35C44.9022 315.135 45.8782 315.207 46.8146 315.151C47.1955 315.405 47.6081 315.675 47.378 316.198C47.2193 316.563 46.8225 316.658 46.4099 316.658C45.4021 316.658 44.4022 316.69 43.4024 316.944C39.6014 317.927 36.7843 320.29 34.4513 323.304C31.4438 327.197 29.7536 331.646 29.0632 336.492C28.9601 337.237 28.6506 338.054 29.0394 338.728C29.3648 339.291 30.198 339.117 30.7693 339.37C31.5073 339.695 32.2294 339.973 31.785 341.004C31.4676 340.996 31.1185 341.067 30.8487 340.956C27.246 339.458 24.1433 340.623 21.2628 342.764C18.8742 344.541 17.1681 346.888 15.962 349.6C15.7953 349.973 15.4382 350.354 15.8826 350.869C16.8428 350.869 17.8585 350.869 18.8742 350.869C85.9913 350.893 153.101 350.925 220.218 350.949C223.828 350.949 227.447 350.901 231.057 350.877C236.382 350.901 241.714 350.941 247.039 350.941C253.506 350.941 259.974 350.909 266.449 350.893C267.115 351.028 267.774 351.012 268.806 350.79C268.06 350.576 267.75 350.195 267.219 350.267L267.211 350.282ZM91.1017 20.2561C88.0466 20.2244 85.0153 20.375 81.984 20.7398C75.0326 21.5725 68.2717 23.2458 61.7648 25.8073C55.3927 28.3132 49.7745 32.1039 44.5689 36.5211C37.0541 42.897 30.8328 50.3673 25.8494 58.8686C25.2701 59.8519 24.7226 60.8591 24.4131 61.9614C24.1751 62.8337 24.5163 63.1827 25.3971 62.9368C26.8255 62.5482 28.0396 61.7314 29.214 60.8591C30.3329 60.0264 31.42 59.1462 32.5706 58.3611C41.1011 52.5164 50.5204 49.7726 60.8839 50.0025C75.5564 50.3198 88.245 55.3317 98.7355 65.649C106.75 73.5317 112.162 83.0639 116.106 93.4922C122.073 109.273 124.295 125.729 124.795 142.47C125.033 150.328 124.859 158.187 124.208 166.03C124.168 166.467 124.16 166.926 124.248 167.355C124.319 167.696 124.39 168.14 124.843 168.235C125.2 168.314 125.438 168.037 125.628 167.799C126.017 167.299 126.406 166.792 126.723 166.252C127.501 164.936 128.065 163.524 128.549 162.081C133.175 148.409 139.396 135.491 146.506 122.945C155.521 107.029 159.06 89.9711 155.624 71.8425C152.394 54.7924 143.602 41.192 129.175 31.4378C117.701 23.682 104.893 20.2402 91.1017 20.2482V20.2561ZM4.4478 109.741C42.9342 103.231 81.1587 103.92 119.494 110.162C119.002 107.497 118.328 105.078 117.63 102.667C114.701 92.5564 110.631 82.9687 104.37 74.4278C94.0616 60.3595 80.3652 52.3578 62.7567 51.5331C57.1623 51.2714 51.6155 51.6124 46.2036 53.3095C35.7924 56.5767 27.5952 62.921 20.9374 71.3905C13.6925 80.6055 9.14552 91.1369 6.09835 102.366C5.45559 104.737 4.79695 107.108 4.4478 109.733V109.741ZM335.597 338.617C333.003 338.228 330.471 338.347 327.948 338.173C317.187 337.419 306.983 334.588 297.286 329.973C284.359 323.819 273.376 315.238 264.878 303.605C261.259 298.648 256.903 294.414 251.705 291.107C242.802 285.452 233.176 283.359 222.797 285.619C213.401 287.665 203.942 288.87 194.317 288.506C192.484 288.434 190.651 288.268 188.817 288.141C188.222 288.101 187.722 288.053 187.619 288.918C187.334 291.368 186.611 293.732 185.762 296.158C187.476 296.594 189.175 296.816 190.706 297.625C193.983 299.362 196.546 301.844 198.618 304.874C198.887 305.262 198.975 305.849 199.625 305.928C199.76 305.73 199.911 305.532 200.046 305.318C201.808 302.614 204.307 301.702 207.434 302.225C209.537 302.574 211.425 303.454 213.203 304.572C217.456 307.229 220.876 310.782 224.035 314.62C226.05 317.062 228.034 319.545 230.137 321.908C238.548 331.361 248.087 339.418 259.363 345.318C267.306 349.474 275.638 351.44 284.653 350.671C294.326 349.846 303.927 348.569 313.442 346.611C318.409 345.596 323.337 344.406 328.194 342.963C330.995 342.13 333.558 340.822 335.605 338.617H335.597ZM224.114 132.541C223.844 137.212 225.78 142.398 229.169 147.117C232.367 151.574 236.683 153.81 242.214 153.413C247.15 153.056 251.824 151.724 256.022 149.052C265.663 142.914 271.464 134.468 271.837 122.731C272.139 113.175 268.441 105.253 262.116 98.3534C261.68 97.8776 261.18 97.497 260.553 97.3225C256.966 96.2995 253.3 96.0616 249.634 96.6563C242.175 97.8618 236.398 101.89 231.883 107.767C226.558 114.69 224.225 122.652 224.122 132.549L224.114 132.541ZM38.5142 247.585C41.2202 251.059 44.061 254.286 46.7749 257.625C50.3855 262.082 54.6706 265.587 59.8206 268.156C68.113 272.288 76.8102 275.056 85.9437 276.523C95.2043 278.006 104.473 278.347 113.765 276.8C116.455 276.356 119.113 275.754 121.708 274.905C122.311 274.707 122.883 274.572 122.986 273.739C123.176 272.233 123.462 270.742 123.748 269.243C123.875 268.601 123.732 268.196 123.129 267.847C119.883 265.976 118.772 263.034 119.177 259.465C119.455 256.967 120.732 255.032 123.113 254.048C125.39 253.105 127.461 253.684 129.31 255.214C129.548 255.413 129.723 255.69 130.064 255.738C131.879 254.093 132.373 252.164 131.548 249.949C131.524 249.893 131.485 249.83 131.477 249.774C131.262 248.188 130.286 247.649 128.763 247.506C122.962 246.943 117.185 246.182 111.376 245.69C102.909 244.976 94.4187 244.683 85.9279 244.532C78.2544 244.397 70.5889 244.715 62.9312 245.119C55.845 245.5 48.7746 246.087 41.736 247.022C40.6964 247.157 39.6172 247.094 38.5142 247.593V247.585Z" fill="#0D0908"/>
<path d="M29.7202 277.944C29.7837 278.896 29.5695 279.998 28.8632 280.823C28.0142 281.814 28.284 282.448 28.9981 283.352C30.3948 285.129 31.1883 287.175 31.1883 289.483C31.1883 293.535 28.4427 295.835 24.4909 295.058C19.5154 294.09 15.3652 287.627 16.6349 282.869C16.9761 281.592 17.5951 280.49 18.7457 279.839C19.5313 279.395 19.6582 278.864 19.7059 278.039C19.8725 274.938 22.2372 272.662 25.0543 272.766C27.6967 272.861 29.6885 275.002 29.7202 277.936V277.944ZM17.9283 284.011C17.6109 288.38 21.0469 292.988 25.1654 293.733C27.0619 294.074 28.2998 293.432 29.2521 291.608C30.0932 290.014 29.7679 288.412 29.2521 286.834C28.7918 285.43 27.9507 284.249 26.9905 283.13C26.1176 282.107 26.1493 281.957 27.0064 280.878C27.2841 280.537 27.5856 280.196 27.784 279.816C28.8712 277.778 28.1094 275.351 26.1414 274.502C23.6735 273.448 20.8565 275.692 21.1501 278.626C21.2612 279.697 21.0628 280.276 20.1026 280.728C18.7298 281.37 17.9998 282.496 17.9204 284.019L17.9283 284.011Z" fill="#0D0908"/>
<path d="M10.9869 326.52C10.9552 322.801 13.804 320.866 17.2638 322.254C20.2633 323.451 22.7312 327.043 22.7789 330.271C22.8344 333.84 19.9777 335.854 16.6131 334.617C13.5104 333.475 11.0028 329.875 10.979 326.52H10.9869ZM13.8913 330.493C14.542 331.722 15.5894 332.515 16.8035 333.094C17.7875 333.554 18.8191 333.832 19.8428 333.134C20.9458 332.682 21.1997 331.706 21.2791 330.683C21.5251 327.749 18.8588 324.07 16.0259 323.372C14.1055 322.904 12.6454 323.943 12.4788 325.941C12.3359 327.638 12.7962 329.169 13.8833 330.501L13.8913 330.493Z" fill="#0D0908"/>
<path d="M29.0384 251.987C29.0066 253.93 27.5624 255.453 25.7452 255.461C24.0074 255.461 22.4838 253.946 22.5076 252.146C22.5393 249.989 24.3803 248.458 25.9595 248.593C27.8163 248.752 29.0622 250.029 29.0384 251.987ZM25.6738 253.994C26.7292 254.033 27.6656 253.066 27.6656 251.94C27.6656 250.893 26.9435 250.108 25.9674 250.084C24.8644 250.06 23.9756 250.972 23.9756 252.122C23.9756 253.145 24.7216 253.962 25.6817 253.994H25.6738Z" fill="#0D0908"/>
<path d="M143.391 42.0707C140.003 38.4624 136.519 34.9651 132.504 32.0151C123.267 25.2268 112.944 21.1585 101.62 19.5566C90.6532 18.0023 79.8691 18.9143 69.2278 21.8564C68.6962 21.9991 68.1804 22.356 67.5693 22.126C67.7598 21.674 68.2042 21.5154 68.5692 21.3013C79.7421 14.7429 91.5182 9.69136 104.207 6.90783C109.896 5.66278 115.57 4.33049 121.355 3.55332C128.671 2.56997 135.996 2.18932 143.368 2.44309C153.644 2.79995 163.658 4.52875 173.284 8.22425C181.061 11.206 188.147 15.3377 194.114 21.2299C203.756 30.7462 208.295 42.3086 207.914 55.8376C207.803 59.7155 207.017 63.5062 206.573 67.3444C205.017 80.7942 204.422 94.2598 205.954 107.749C207.001 116.932 209.048 125.862 213.207 134.189C216.373 140.533 220.65 145.949 226.586 149.97C234.822 155.545 243.551 156.401 252.606 152.42C263.12 147.797 270.143 139.97 272.658 128.661C274.658 119.653 272.857 111.143 267.873 103.372C262.176 94.4818 254.05 88.6293 244.234 85.0924C232.267 80.7783 220.174 80.5325 208.057 84.569C207.699 84.688 207.334 84.7831 207.017 84.8783C206.549 84.5928 206.668 84.1804 206.692 83.8394C206.961 78.3913 207.414 72.967 208.025 67.5506C208.152 66.4007 208.588 65.8377 209.763 65.4967C216.889 63.411 224.142 62.4673 231.561 62.8956C250.066 63.9661 265.762 71.2699 278.649 84.4738C289.124 95.1956 295.496 108.043 297.17 122.991C298.662 136.274 295.909 148.701 288.719 160.065C288.386 160.597 288.045 161.136 287.791 161.707C287.664 162 287.823 162.325 288.156 162.484C288.426 162.611 288.688 162.524 288.846 162.341C289.18 161.961 289.481 161.556 289.759 161.136C291.362 158.693 292.758 156.14 293.965 153.475C294.084 153.221 294.099 152.841 294.512 152.777C294.742 153.261 294.599 153.761 294.591 154.236C294.353 164.855 295.218 175.386 296.996 185.847C298.75 196.172 301.329 206.291 305.28 216.021C306.74 219.606 308.391 223.103 310.43 226.394C310.78 226.957 311.089 228.115 312.033 227.473C312.803 226.949 312.01 226.204 311.676 225.656C309.613 222.223 307.907 218.622 306.423 214.911C306.241 214.451 305.947 214.007 306.034 213.372C307.042 212.865 308.264 212.619 309.089 211.66C309.431 211.263 309.78 211.541 310.089 211.771C311.565 212.873 313.113 213.864 314.715 214.76C315.366 215.125 315.588 215.633 315.565 216.315C315.517 217.774 315.549 219.233 315.398 220.684C314.969 224.673 318.136 228.678 322.246 229.487C325.571 230.137 328.555 227.996 328.594 224.697C328.61 223.388 328.523 222.072 328.412 220.613C330.61 221.168 332.618 221.675 334.625 222.191C335.093 222.31 335.411 222.58 335.435 223.103C335.458 223.61 335.514 224.11 335.514 224.618C335.514 224.935 335.419 225.244 335.403 225.561C335.268 228.139 337.244 230.415 340.347 231.255C343.338 232.072 346.393 231.049 347.552 228.852C348.084 227.837 348.076 226.759 347.877 225.696C347.687 224.697 348.06 224.499 348.98 224.578C351.758 224.808 354.551 224.919 357.328 225.165C361.129 225.498 364.938 225.474 368.739 225.371C375.945 225.173 382.864 226.568 389.617 228.908C394.997 230.779 399.949 233.46 404.194 237.298C412.653 244.959 416.066 254.57 415.066 265.831C414.32 274.206 411.281 281.811 407.075 288.996C401.758 298.076 394.664 305.641 386.8 312.525C383.316 315.57 379.73 318.504 375.778 320.947C375.326 320.883 374.905 321.01 374.476 321.121C367.946 322.715 361.312 323.532 354.583 323.564C351.353 323.579 348.155 323.215 344.949 322.882C339.077 322.271 333.363 320.947 327.745 319.186C320.215 316.831 313.089 313.548 306.28 309.59C299.48 305.633 293.131 301.018 287.267 295.784C283.966 292.842 280.744 289.804 277.784 286.482C273.69 281.89 269.944 277.053 266.381 272.057C262.771 266.989 259.906 261.478 256.724 256.156C251.709 247.774 246.003 239.875 239.488 232.595C235.307 227.925 230.76 223.587 225.689 219.852C220.975 216.378 216.008 213.372 210.366 211.636C205.16 210.034 199.97 209.701 194.765 211.683C192.234 212.643 190.107 214.197 188.06 215.894L188.075 215.91C187.861 213.872 188.615 211.913 188.472 209.867C188.321 207.686 187.536 205.981 185.655 204.792C183.79 203.61 181.751 203.055 179.561 202.976C176.109 202.849 176.133 201.12 176.331 198.892C176.355 198.646 176.49 198.416 176.545 198.17C177.99 191.905 180.751 186.124 183.251 180.256C186.25 173.214 189.226 166.164 190.051 158.447C190.535 153.903 190.71 149.351 189.877 144.847C189.234 141.358 187.726 138.233 184.989 135.83C182.505 133.649 179.545 132.357 176.41 131.516C173.363 130.691 170.316 129.891 167.174 129.462C164.087 129.042 163.531 128.376 163.754 125.18C163.984 121.849 164.404 118.526 164.936 115.235C165.618 110.985 165.595 106.687 165.928 102.412C166.118 100.025 165.864 97.6222 165.698 95.2194C165.491 92.3248 165.245 89.4382 164.904 86.5516C164.261 81.0083 162.952 75.6157 161.246 70.3262C159.238 64.093 156.374 58.2326 152.787 52.7527C150.954 49.9534 149.065 47.1619 146.542 44.8938C146.082 44.4815 145.748 43.8629 144.987 43.9581C144.891 43.8391 144.796 43.7202 144.701 43.6012C144.717 43.2364 144.637 42.9351 144.193 42.9033C144.201 42.6496 144.082 42.5227 143.828 42.5068C143.804 42.2451 143.653 42.1182 143.399 42.0945L143.391 42.0707ZM229.474 198.479C229.474 199.288 229.371 199.931 229.498 200.533C229.72 201.628 229.26 202.294 228.45 202.944C227.006 204.086 225.546 205.196 223.959 206.124C222.975 206.703 221.991 207.29 221.213 208.146C219.928 209.542 219.912 211.176 221.158 212.579C223.316 215.022 226.855 214.737 228.53 211.985C228.99 211.231 229.355 210.415 229.799 209.653C230.371 208.67 230.99 207.71 231.577 206.735C232.013 206.013 232.489 205.878 233.299 206.299C235.481 207.441 237.798 207.409 240.155 206.886C242.345 206.394 244.392 205.561 246.273 204.356C248.519 202.928 250.701 201.406 252.915 199.931C257.573 196.838 262.334 193.983 267.841 192.571C269.159 192.23 270.111 192.254 271.277 193.111C274.793 195.68 279.554 195.553 283.22 193.015C286.807 190.533 288.584 186.14 287.664 182.056C286.243 175.799 279.284 172.547 273.237 175.386C272.357 175.799 271.65 175.846 270.738 175.624C261.16 173.317 251.479 172.532 241.702 174.094C236.037 174.998 230.577 176.584 225.522 179.352C222.824 180.827 220.253 182.603 218.73 185.283C217.515 187.417 215.738 188.416 213.643 189.193C212.215 189.724 210.794 190.248 209.366 190.771C207.58 191.422 205.787 192.048 204.01 192.714C202.962 193.103 202.073 193.705 201.804 194.879C201.423 196.537 202.676 199.09 204.414 200.256C206.033 201.342 207.549 200.906 209.009 199.931C209.533 199.582 210.032 199.177 210.556 198.82C212.389 197.567 214.183 196.275 216.198 195.307C217.087 194.879 217.738 194.76 218.476 195.688C219.793 197.353 221.658 198.115 223.737 198.448C225.57 198.733 227.395 198.662 229.49 198.479H229.474ZM365.573 251.533C368.112 251.501 370.644 251.382 373.143 250.891C375.96 250.335 378.69 249.542 381.007 247.734C383.951 245.435 384.665 242.31 383.015 238.94C382.737 238.377 382.428 237.814 382.039 237.314C381.618 236.767 381.277 235.672 380.357 236.339C379.531 236.941 380.412 237.568 380.777 238.091C383.547 242.088 382.737 245.379 378.42 247.623C377.349 248.178 376.23 248.638 375.064 248.94C372.604 249.582 370.096 249.923 367.549 249.994C359.32 250.224 351.408 248.718 343.751 245.752C343.283 245.569 342.807 245.379 342.315 245.26C341.997 245.181 341.68 245.284 341.521 245.625C341.37 245.958 341.473 246.275 341.767 246.45C342.196 246.711 342.656 246.925 343.124 247.116C350.345 249.931 357.82 251.446 365.573 251.541V251.533Z" fill="#FA420F"/>
<path d="M188.028 215.901C190.075 214.204 192.202 212.649 194.733 211.69C199.946 209.707 205.136 210.04 210.334 211.642C215.976 213.379 220.943 216.384 225.657 219.858C230.728 223.593 235.275 227.931 239.456 232.602C245.963 239.882 251.677 247.772 256.692 256.163C259.874 261.484 262.739 266.995 266.349 272.063C269.912 277.059 273.658 281.896 277.752 286.488C280.72 289.811 283.934 292.84 287.235 295.79C293.099 301.024 299.448 305.64 306.248 309.597C313.057 313.554 320.183 316.845 327.713 319.193C333.332 320.945 339.045 322.277 344.917 322.888C348.123 323.221 351.321 323.586 354.551 323.57C361.28 323.546 367.914 322.729 374.445 321.127C374.881 321.024 375.294 320.89 375.746 320.953C373.484 322.912 370.874 324.347 368.318 325.862C363.629 328.645 358.907 331.381 353.821 333.388C349.377 335.14 344.743 336.124 339.981 336.576C337.958 336.766 335.942 336.885 333.911 336.925C325.007 337.099 316.39 335.529 307.97 332.722C293.544 327.908 281.117 319.993 270.833 308.756C268.603 306.322 266.738 303.594 264.675 301.024C260.017 295.211 254.47 290.445 247.685 287.257C243.424 285.251 238.949 284.006 234.211 283.506C229.061 282.959 224.117 283.792 219.158 284.894C210.254 286.877 201.232 287.392 192.138 287.027C192.075 287.027 192.011 287.027 191.948 287.011C190.749 286.877 189.353 287.075 188.416 286.512C187.321 285.846 188.035 284.307 187.893 283.165C187.393 279.351 186.528 275.695 184.084 272.586C181.029 268.692 176.624 267.249 171.903 268.653C169.951 269.232 169.927 269.24 169.475 267.17C168.308 261.785 165.999 256.979 162.103 253.038C154.794 245.639 144.542 244.688 135.916 250.524C135.353 250.905 134.908 251.5 134.099 251.634C133.313 250.572 132.901 249.303 132.448 248.082C128.608 237.717 125.83 227.074 124.148 216.154C123.204 210.016 122.577 203.839 122.974 197.606C123.45 190.008 124.584 182.506 126.386 175.107C130.282 159.12 136.567 144.084 144.463 129.691C147.383 124.362 150.541 119.159 152.731 113.449C155.493 106.249 157.342 98.8736 158.024 91.1733C159.024 79.9837 157.484 69.1985 153.295 58.7861C151.319 53.8772 148.676 49.3411 145.55 45.0826C145.288 44.7257 144.955 44.4085 144.931 43.9327C145.692 43.8375 146.034 44.4561 146.486 44.8684C149.009 47.1365 150.898 49.928 152.731 52.7273C156.318 58.2072 159.183 64.0676 161.19 70.3008C162.896 75.5903 164.198 80.9829 164.848 86.5262C165.182 89.4128 165.436 92.2915 165.642 95.194C165.809 97.5968 166.063 99.9997 165.872 102.387C165.539 106.661 165.563 110.959 164.88 115.21C164.348 118.501 163.928 121.832 163.698 125.155C163.476 128.35 164.031 129.017 167.118 129.437C170.268 129.865 173.315 130.666 176.355 131.491C179.489 132.339 182.457 133.632 184.933 135.805C187.663 138.208 189.17 141.332 189.821 144.822C190.654 149.326 190.48 153.878 189.995 158.422C189.17 166.146 186.194 173.188 183.195 180.23C180.695 186.107 177.934 191.88 176.49 198.145C176.434 198.391 176.291 198.621 176.275 198.866C176.077 201.103 176.061 202.832 179.505 202.951C181.695 203.03 183.735 203.585 185.599 204.767C187.48 205.956 188.258 207.669 188.416 209.842C188.559 211.888 187.805 213.855 188.02 215.885C187.972 215.901 187.924 215.901 187.885 215.924C187.861 215.94 187.861 215.988 187.853 216.02C187.901 215.972 187.956 215.917 188.004 215.869L188.028 215.901ZM160.659 178.494C160.587 177.867 161.008 176.979 160.119 176.876C159.31 176.781 159.325 177.685 159.167 178.279C159.151 178.343 159.151 178.406 159.143 178.47C158.643 181.721 158.333 184.996 158.357 188.287C158.381 191.832 158.421 195.361 158.683 198.906C159.167 205.48 160.111 211.967 161.841 218.335C162.42 220.468 163.126 222.578 164.325 224.465C164.594 224.894 164.856 225.33 165.285 225.623C165.499 225.774 165.761 225.829 165.999 225.687C166.316 225.504 166.396 225.187 166.293 224.87C166.197 224.576 166.015 224.307 165.848 224.037C164.634 222.086 163.849 219.961 163.245 217.748C160.944 209.406 160.151 200.857 159.857 192.253C159.698 187.629 160.032 183.022 160.651 178.486L160.659 178.494ZM136.305 241.396C138.59 241.412 140.447 240.056 140.987 237.764C141.225 236.757 141.606 235.948 142.272 235.147C143.502 233.649 143.121 231.396 141.614 230.278C140.17 229.216 138.273 229.501 137.13 231.095C136.614 231.825 136.043 232.15 135.194 232.38C133.075 232.943 131.552 235.417 131.861 237.511C132.187 239.684 134.131 241.389 136.305 241.404V241.396Z" fill="#C30000"/>
<path d="M266.428 350.908C259.961 350.924 253.494 350.956 247.018 350.956C241.694 350.956 236.361 350.916 231.036 350.892C229.981 350.242 228.799 350.765 227.696 350.527C224.498 349.845 221.284 349.211 218.094 348.489C209.571 346.562 201.374 343.644 193.312 340.305C190.281 339.052 187.257 337.776 184.234 336.515C184.281 335.833 183.877 335.515 183.305 335.262C182.099 334.707 180.869 334.207 179.584 333.866C171.339 331.661 163.404 332.573 155.794 336.348C154.818 336.832 154.326 336.816 153.588 335.991C151.516 333.668 148.795 332.978 145.819 333.533C144.51 333.779 143.01 333.914 142.264 335.365C140.574 335.523 139.153 336.364 137.725 337.173C134.852 338.799 132.242 340.773 129.869 343.065C129.044 343.866 128.702 343.866 128.083 342.922C127.48 342.002 126.758 341.209 125.925 340.543C122.529 337.855 118.545 336.792 114.308 336.523C110.277 336.261 106.372 336.911 102.627 338.418C101.349 338.933 100.349 338.759 99.3258 337.879C98.5243 337.189 97.7228 336.412 96.5246 336.483C96.6833 335.706 96.1834 335.325 95.62 334.984C94.5328 334.318 93.3901 333.787 92.1601 333.454C85.7801 331.741 80.0112 333.033 74.8135 337.03C73.3455 336.61 72.4726 337.791 71.441 338.386C67.5606 340.615 63.8469 343.121 59.7919 345.056C55.3719 347.165 50.7853 347.593 45.9844 346.864C41.8184 346.229 38.2475 344.286 34.7321 342.161C33.8116 341.606 32.907 341.011 31.7722 341.011C32.2166 339.98 31.4945 339.703 30.7565 339.378C30.1772 339.124 29.344 339.29 29.0266 338.735C28.6378 338.069 28.9472 337.244 29.0504 336.499C29.7408 331.653 31.431 327.197 34.4385 323.311C36.7715 320.297 39.5885 317.926 43.3896 316.951C44.3894 316.689 45.3893 316.665 46.3971 316.665C46.8018 316.665 47.1985 316.57 47.3652 316.205C47.5953 315.682 47.1827 315.404 46.8018 315.158C45.913 314.183 45.5162 313.049 45.6273 311.717C45.6987 310.844 45.7226 309.948 45.6273 309.084C45.3179 306.483 45.5004 305.539 42.6198 304.619C43.3102 303.334 44.4132 302.51 45.7226 301.978C46.5954 301.621 47.5001 301.241 48.2698 302.303C48.611 302.771 49.2379 303.097 49.7061 302.47C50.1029 301.939 49.5791 301.542 49.2062 301.209C46.0082 298.283 43.7943 294.722 42.4135 290.638C40.882 286.102 40.4614 281.487 41.8977 276.855C43.342 272.208 46.1669 268.877 51.1741 267.839C52.9596 267.466 54.4276 267.688 55.7369 269.218C57.332 271.082 59.1968 272.716 60.9425 274.444C60.8949 274.881 60.9346 275.356 60.7759 275.745C59.4983 279.012 59.4983 282.335 60.0934 285.745C60.7759 289.663 62.1566 293.215 64.8705 296.181C65.1721 296.514 65.4577 296.84 65.4339 297.323C64.9578 297.625 64.4579 297.91 63.9976 298.235C59.8713 301.122 57.4272 305.016 56.9828 310.083C56.9431 310.527 56.9034 310.963 57.078 311.392C57.1891 311.661 57.4272 311.764 57.6811 311.772C57.9509 311.78 58.189 311.637 58.2445 311.36C58.3397 310.868 58.4112 310.361 58.4746 309.861C59.3396 303.414 63.1565 299.203 69.5206 297.736C70.2269 297.569 70.5046 297.26 70.4332 296.578C72.6472 296.586 74.9008 296.34 77.0751 296.657C83.1773 297.561 88.4305 300.329 92.9616 304.484C93.7552 305.214 94.4138 306.047 94.7391 307.109C89.7161 307.696 85.9627 310.718 84.7168 315.143C84.4153 316.205 84.4153 317.268 84.4708 318.346C84.5026 318.933 84.574 319.623 85.304 319.615C86.0976 319.607 86.0261 318.902 85.9785 318.331C85.8992 317.442 85.8992 316.546 86.1134 315.682C87.1688 311.304 91.8904 308.116 96.3659 308.711C97.1991 308.822 97.9291 309.187 98.683 309.504C99.0401 309.655 99.4448 309.695 99.7067 309.322C99.8971 309.044 99.8574 308.711 99.6829 308.426C99.056 307.395 98.5164 306.316 98.1989 305.15C96.0961 297.26 98.191 290.503 103.881 284.817C106.46 282.24 109.634 280.701 113.34 280.448C117.037 280.194 120.172 281.439 122.814 284.016C123.338 284.524 123.576 285.142 123.735 285.84C123.933 286.697 124.227 287.545 124.536 288.37C124.639 288.655 124.933 288.87 125.298 288.751C125.655 288.632 125.758 288.33 125.719 287.997C125.695 287.743 125.631 287.498 125.568 287.252C124.044 281.986 123.846 276.665 124.83 271.28C124.981 270.463 125.219 269.694 125.489 268.909C125.885 267.767 125.671 267.418 124.513 266.871C121.537 265.467 120.156 262.914 120.648 259.591C120.942 257.569 121.965 256.007 123.973 255.34C125.965 254.674 127.552 255.499 128.901 256.942C128.94 256.99 128.98 257.037 129.028 257.085C130.186 258.354 130.147 258.322 131.17 257.037C134.9 252.359 139.526 249.036 145.589 248.33C153.024 247.466 158.754 250.662 163.173 256.443C165.879 259.98 167.451 264.032 168.26 268.394C168.379 269.02 168.482 269.639 168.577 270.265C168.704 271.138 169.22 271.272 169.942 270.987C170.291 270.844 170.617 270.638 170.966 270.487C175.87 268.37 180.655 269.781 183.567 274.278C186.21 278.354 186.749 282.89 186.329 287.601C186.091 290.257 185.4 292.827 184.48 295.341C184.178 296.158 183.766 296.586 182.845 296.594C182.226 296.594 181.599 296.816 180.988 296.974C180.655 297.062 180.449 297.299 180.48 297.672C180.512 298.085 180.838 298.188 181.155 298.172C181.726 298.14 182.29 298.069 182.853 297.958C185.575 297.418 188.138 297.847 190.55 299.211C193.717 301.011 196.161 303.517 197.97 306.665C198.192 307.046 198.367 307.466 198.629 307.823C199.248 308.664 200.065 308.592 200.549 307.696C200.604 307.585 200.612 307.45 200.66 307.331C202.271 303.882 204.572 302.811 208.238 303.866C210.452 304.5 212.412 305.666 214.261 307.038C217.491 309.441 220.26 312.304 222.792 315.404C226.64 320.123 230.513 324.81 234.901 329.06C242.273 336.205 250.319 342.407 259.532 347.03C262.024 348.283 264.635 349.267 267.222 350.282C266.968 350.488 266.706 350.702 266.452 350.908H266.428ZM128.234 278.568C128.195 283.604 129.171 287.434 131.178 290.963C133.876 295.69 137.701 299.147 143.002 300.773C146.017 301.701 149.064 301.693 152.175 301.193C155.841 300.614 159.134 299.211 161.936 296.871C165.443 293.937 166.586 289.924 165.808 285.571C165.205 282.216 163.229 279.647 159.65 278.822C157.682 278.37 155.738 278.267 153.659 278.552C150.009 279.052 149.326 278.79 148.239 275.206C147.803 273.762 147.573 272.264 147.279 270.781C146.866 268.655 146.232 266.625 144.922 264.841C143.494 262.89 141.351 262.192 139.241 262.486C135.662 262.993 133.075 265.356 131.186 268.322C129.028 271.708 128.187 275.523 128.226 278.568H128.234ZM141.931 307.3C142.327 307.268 142.962 307.268 143.581 307.165C143.97 307.101 144.295 306.832 144.224 306.372C144.152 305.928 143.803 305.777 143.391 305.769C143.264 305.769 143.137 305.785 143.01 305.793C139.217 306.07 135.892 304.984 133.043 302.446C132.678 302.121 132.257 301.621 131.765 302.153C131.337 302.621 131.615 303.104 132.027 303.469C132.448 303.85 132.876 304.238 133.337 304.564C135.836 306.332 138.622 307.236 141.931 307.292V307.3Z" fill="#FDF6F5"/>
<path d="M120.969 199.131C121.572 213.263 124.151 227.046 128.285 240.551C128.579 241.519 128.912 242.478 129.229 243.438C129.523 244.318 129.825 245.198 130.166 246.197C125.682 245.69 121.366 245.143 117.025 244.722C112.922 244.326 108.82 243.993 104.709 243.747C95.9725 243.224 87.2278 242.875 78.483 243.041C68.4051 243.231 58.3431 243.628 48.3129 244.746C45.099 245.103 41.8852 245.389 38.6952 245.912C37.8065 246.055 37.1637 245.848 36.5844 245.063C28.7602 234.476 21.9279 223.295 16.8175 211.146C13.3339 202.858 10.1121 194.452 7.89818 185.705C7.81883 185.396 7.7236 185.095 7.62838 184.793C7.33477 183.921 7.66806 183.54 8.56475 183.398C11.8103 182.866 15.04 182.2 18.3014 181.716C26.9509 180.432 35.656 179.591 44.3849 179.06C53.1217 178.528 61.8743 178.449 70.627 178.56C74.1106 178.608 77.6022 178.505 81.0858 178.742C81.5857 178.774 82.1015 178.711 82.5697 178.972C82.2523 179.004 81.9428 179.06 81.6254 179.052C79.4114 179.012 77.1975 178.941 74.9835 178.933C73.8091 178.933 73.579 179.195 73.8805 180.305C74.19 181.463 74.6106 182.597 75.0788 183.699C76.404 186.8 78.0228 189.702 80.6652 191.931C84.1171 194.841 88.1483 196.054 92.5762 196.094C97.5754 196.134 102.583 196.046 107.582 196.118C112.232 196.181 116.755 196.99 120.961 199.107L120.969 199.131ZM92.838 225.46C92.8777 223.271 91.1399 221.431 88.9577 221.36C86.8786 221.288 84.9582 223.192 84.9424 225.341C84.9186 227.45 86.6247 229.195 88.7593 229.266C91.0367 229.338 92.7984 227.688 92.838 225.46Z" fill="#A3B0B3"/>
<path d="M91.0934 20.2588C104.885 20.2509 117.693 23.6926 129.167 31.4484C143.594 41.2027 152.394 54.8031 155.616 71.8532C159.044 89.9818 155.512 107.04 146.498 122.956C139.388 135.502 133.167 148.42 128.54 162.092C128.056 163.527 127.493 164.947 126.715 166.263C126.398 166.802 126.009 167.31 125.62 167.81C125.43 168.047 125.199 168.325 124.834 168.246C124.382 168.151 124.311 167.706 124.239 167.365C124.152 166.937 124.16 166.485 124.2 166.041C124.858 158.198 125.025 150.339 124.787 142.48C124.287 125.739 122.065 109.284 116.098 93.5028C112.154 83.0745 106.742 73.5423 98.7272 65.6596C88.2367 55.3344 75.556 50.3304 60.8756 50.0132C50.5121 49.7911 41.0928 52.5271 32.5623 58.3717C31.4117 59.1568 30.3246 60.0371 29.2057 60.8697C28.0313 61.7421 26.8172 62.5589 25.3888 62.9475C24.5 63.1854 24.1588 62.8444 24.4048 61.972C24.7063 60.8697 25.2618 59.8626 25.8411 58.8792C30.8245 50.378 37.0458 42.9077 44.5606 36.5317C49.7661 32.1225 55.3844 28.3239 61.7564 25.8179C68.2634 23.2644 75.0243 21.5911 81.9757 20.7505C85.007 20.3857 88.0383 20.235 91.0934 20.2667V20.2588ZM147.315 88.4433C147.41 87.23 147.133 85.2157 146.879 83.2093C146.712 81.8929 146.458 80.5765 146.125 79.2918C145.363 76.3258 144.292 73.4789 142.205 71.1553C139.515 68.1656 136.103 68.0704 133.214 70.8778C131.691 72.3607 130.564 74.145 129.826 76.1117C126.461 85.0809 126.207 94.161 129.112 103.297C129.77 105.359 130.794 107.27 132.286 108.872C135.031 111.806 138.436 111.861 141.284 109.022C142.792 107.524 143.824 105.708 144.617 103.757C146.522 99.1175 147.212 94.2483 147.307 88.4433H147.315ZM69.5886 26.8964C64.0577 27.4198 58.987 29.1566 54.6385 32.7173C54.2099 33.0741 53.8608 33.5499 53.5513 34.0178C52.48 35.6515 52.98 36.9124 54.8686 37.4358C56.1779 37.8006 57.4714 37.6895 58.8045 37.4992C63.526 36.841 67.8429 35.1756 71.7232 32.4001C72.4454 31.8846 73.104 31.2819 73.5325 30.4889C74.3657 28.9583 73.8896 27.7212 72.2232 27.2692C71.3741 27.0392 70.5012 26.8171 69.5886 26.8885V26.8964ZM50.5914 38.7046C50.6311 37.9433 50.1232 37.3485 49.3853 37.293C47.7585 37.1582 45.4731 38.998 45.2747 40.6079C45.1637 41.4882 45.6239 42.1543 46.4254 42.2732C47.8617 42.4794 50.52 40.2114 50.5994 38.7126L50.5914 38.7046Z" fill="#DBF505"/>
<path d="M1.8456 137.2C1.67102 132.251 1.9805 127.318 2.46456 122.402C2.77404 119.253 3.18667 116.113 3.76595 112.996C4.0675 111.379 4.03575 111.323 5.73392 111.053C10.1142 110.356 14.4866 109.65 18.8828 109.063C27.9925 107.842 37.1658 107.199 46.347 106.842C53.8856 106.549 61.4321 106.565 68.9786 106.755C79.9452 107.025 90.8801 107.818 101.767 109.095C107.362 109.753 112.94 110.578 118.503 111.521C119.709 111.728 120.05 112.291 120.241 113.314C121.598 120.538 122.526 127.818 123.002 135.161C123.534 143.33 123.486 151.498 123.177 159.674C122.915 166.637 122.145 173.568 121.423 180.491C121.336 181.339 120.987 181.514 120.185 181.395C115.924 180.776 111.655 180.174 107.378 179.634C100.839 178.81 94.2764 178.199 87.6901 177.85C82.8178 177.596 77.9455 177.351 73.0732 177.097C71.994 173.132 71.5417 169.04 70.7878 165.011C69.8911 160.237 69.5261 155.368 68.1057 150.697C65.6378 142.592 62.4875 134.852 56.9089 128.286C53.711 124.519 50.1877 121.26 45.5217 119.372C40.4272 117.31 35.1423 116.502 29.7224 117.112C24.501 117.699 19.6684 119.563 15.2008 122.346C10.4554 125.304 6.48777 129.023 3.62312 133.893C2.98829 134.979 2.75816 136.28 1.83767 137.207L1.8456 137.2Z" fill="#D0E6EC"/>
<path d="M4.44141 109.742C4.79056 107.11 5.44919 104.746 6.09196 102.375C9.13913 91.1459 13.6861 80.6145 20.931 71.3995C27.5888 62.93 35.786 56.5858 46.1972 53.3185C51.6091 51.6214 57.1559 51.2804 62.7503 51.5421C80.3509 52.3669 94.0472 60.3685 104.363 74.4368C110.624 82.9777 114.695 92.5655 117.623 102.677C118.321 105.087 118.996 107.514 119.488 110.171C81.1444 103.922 42.9278 103.232 4.44141 109.75V109.742Z" fill="#D0E6EC"/>
<path d="M335.594 338.617C333.539 340.822 330.976 342.13 328.183 342.963C323.326 344.414 318.399 345.596 313.431 346.611C303.925 348.562 294.323 349.846 284.642 350.671C275.635 351.44 267.295 349.474 259.352 345.318C248.076 339.418 238.537 331.361 230.126 321.908C228.023 319.545 226.039 317.063 224.024 314.62C220.865 310.782 217.445 307.229 213.192 304.572C211.406 303.462 209.526 302.582 207.423 302.225C204.296 301.702 201.797 302.614 200.035 305.318C199.9 305.524 199.757 305.722 199.615 305.928C198.964 305.849 198.877 305.262 198.607 304.874C196.536 301.844 193.972 299.362 190.695 297.625C189.164 296.817 187.473 296.594 185.751 296.158C186.601 293.732 187.323 291.376 187.608 288.918C187.711 288.061 188.211 288.101 188.807 288.141C190.64 288.268 192.473 288.434 194.306 288.506C203.931 288.87 213.39 287.665 222.786 285.619C233.165 283.359 242.791 285.452 251.694 291.107C256.9 294.414 261.248 298.64 264.867 303.605C273.366 315.239 284.348 323.811 297.275 329.973C306.972 334.588 317.177 337.42 327.937 338.173C330.46 338.347 332.992 338.236 335.587 338.617H335.594Z" fill="#DBF505"/>
<path d="M1.83594 137.199C2.75644 136.271 2.97863 134.978 3.62139 133.884C6.47812 129.007 10.4537 125.295 15.1991 122.337C19.6587 119.554 24.4993 117.69 29.7207 117.103C35.1485 116.493 40.4255 117.302 45.52 119.364C50.186 121.251 53.7092 124.51 56.9072 128.277C62.4857 134.843 65.6361 142.583 68.104 150.688C69.5244 155.359 69.8894 160.228 70.7861 165.002C71.54 169.031 71.9923 173.123 73.0715 177.088C66.4772 177.128 59.8829 177.056 53.2966 177.231C46.4564 177.413 39.632 177.865 32.8234 178.523C24.5628 179.324 16.3338 180.371 8.19215 181.997C7.16056 182.203 6.89075 181.767 6.68444 180.879C5.71632 176.811 4.89898 172.711 4.22448 168.595C2.54219 158.325 1.95497 147.96 1.77246 137.564C1.77246 137.445 1.82801 137.318 1.85181 137.191L1.83594 137.199Z" fill="#A3B0B3"/>
<path d="M31.7797 341.021C32.9145 341.021 33.8191 341.616 34.7396 342.171C38.255 344.297 41.8259 346.239 45.9919 346.874C50.7928 347.603 55.3874 347.175 59.7994 345.066C63.8544 343.131 67.5681 340.625 71.4485 338.396C72.488 337.802 73.353 336.62 74.821 337.04C74.7099 337.199 74.6147 337.358 74.4957 337.5C74.1941 337.865 73.964 338.285 74.3925 338.658C74.8051 339.023 75.2098 338.777 75.559 338.46C75.7891 338.246 76.0272 338.04 76.2732 337.833C81.0741 333.844 89.3427 332.845 94.7943 336.192C95.3577 336.533 95.8814 336.85 96.54 336.485C97.7383 336.414 98.5477 337.199 99.3412 337.881C100.365 338.761 101.365 338.936 102.642 338.42C106.38 336.913 110.292 336.263 114.323 336.525C118.561 336.794 122.544 337.857 125.94 340.546C126.782 341.212 127.496 342.005 128.099 342.925C128.718 343.868 129.059 343.868 129.884 343.067C132.257 340.768 134.868 338.793 137.74 337.175C139.169 336.366 140.589 335.526 142.279 335.367C142.573 335.875 142.978 336.073 143.549 335.835C144.073 335.613 144.596 335.383 145.136 335.208C148.397 334.162 151.429 335.161 153.095 337.849C152.651 338.19 152.191 338.515 151.762 338.88C151.429 339.158 151.008 339.467 151.334 339.975C151.707 340.553 152.183 340.379 152.627 340.046C153.786 339.166 154.992 338.341 156.301 337.714C164.863 333.591 173.584 332.79 182.504 336.501C183.099 336.747 183.662 337.064 184.249 336.517C187.273 337.786 190.296 339.055 193.327 340.308C201.382 343.646 209.587 346.565 218.109 348.492C221.299 349.213 224.513 349.848 227.711 350.53C228.814 350.76 229.997 350.244 231.052 350.895C227.441 350.918 223.823 350.966 220.212 350.966C153.095 350.942 85.986 350.918 18.8689 350.887C17.8532 350.887 16.8454 350.887 15.8773 350.887C15.425 350.379 15.7821 349.998 15.9567 349.618C17.1628 346.906 18.8689 344.558 21.2575 342.782C24.138 340.641 27.2407 339.475 30.8434 340.974C31.1132 341.085 31.4623 341.005 31.7797 341.021Z" fill="#EAD6D3"/>
<path d="M224.103 132.541C224.206 122.644 226.547 114.69 231.864 107.759C236.387 101.883 242.156 97.8544 249.615 96.649C253.281 96.0542 256.94 96.2921 260.534 97.3151C261.161 97.4896 261.661 97.8702 262.098 98.346C268.422 105.245 272.12 113.168 271.818 122.724C271.453 134.46 265.645 142.906 256.003 149.044C251.805 151.717 247.132 153.057 242.196 153.406C236.665 153.802 232.348 151.558 229.15 147.109C225.762 142.391 223.825 137.212 224.095 132.533L224.103 132.541Z" fill="#C30000"/>
<path d="M38.52 247.583C39.6151 247.083 40.6943 247.155 41.7418 247.012C48.7804 246.076 55.8429 245.489 62.9371 245.109C70.6026 244.696 78.2681 244.379 85.9337 244.522C94.4245 244.672 102.915 244.966 111.382 245.68C117.183 246.171 122.968 246.933 128.769 247.496C130.292 247.646 131.268 248.178 131.483 249.764C131.49 249.827 131.53 249.883 131.554 249.938C132.379 252.153 131.885 254.083 130.07 255.727C129.729 255.688 129.554 255.402 129.316 255.204C127.467 253.673 125.396 253.094 123.119 254.038C120.738 255.021 119.468 256.956 119.183 259.454C118.778 263.023 119.889 265.965 123.135 267.837C123.738 268.186 123.88 268.59 123.753 269.233C123.468 270.723 123.182 272.222 122.992 273.729C122.889 274.562 122.317 274.696 121.714 274.895C119.119 275.743 116.461 276.338 113.771 276.79C104.479 278.336 95.218 277.988 85.9495 276.513C76.808 275.053 68.1188 272.286 59.8264 268.146C54.6764 265.577 50.3913 262.071 46.7807 257.615C44.0748 254.276 41.226 251.048 38.52 247.575V247.583ZM93.6627 259.312C93.6468 255.807 91.2107 253.467 87.7271 253.602C83.2753 253.776 79.0934 257.979 78.9982 262.381C78.9268 265.466 81.0693 267.845 84.172 268.13C88.9491 268.574 93.6865 264.181 93.6627 259.312ZM112.12 257.194C112.104 255.014 110.327 253.221 108.137 253.205C106.105 253.19 104.336 255.014 104.336 257.131C104.336 259.288 106.201 261.152 108.319 261.12C110.414 261.096 112.128 259.312 112.12 257.186V257.194Z" fill="#A3B0B3"/>
<path d="M120.992 199.133C116.786 197.016 112.263 196.215 107.613 196.144C102.614 196.072 97.6066 196.16 92.6073 196.12C88.1794 196.08 84.1483 194.867 80.6964 191.956C78.0539 189.728 76.4351 186.826 75.1099 183.725C74.6417 182.623 74.2212 181.488 73.9117 180.331C73.6181 179.228 73.8403 178.959 75.0147 178.959C77.2287 178.959 79.4426 179.038 81.6566 179.078C81.9661 179.078 82.2835 179.03 82.6009 178.998C91.1314 179.379 99.6381 180.117 108.121 181.163C112.017 181.647 115.89 182.21 119.77 182.773C120.659 182.9 121.095 183.106 121.063 184.145C120.889 189.141 120.889 194.137 121 199.133H120.992Z" fill="#D0E6EC"/>
<path d="M65.4505 297.323C65.4743 296.839 65.1966 296.514 64.8871 296.181C62.1732 293.215 60.7845 289.654 60.11 285.745C59.5228 282.343 59.5149 279.012 60.7925 275.745C60.9512 275.348 60.9036 274.88 60.9591 274.444C65.387 278.322 69.7435 282.295 74.3301 285.999C80.8451 291.256 87.5663 296.244 94.5415 300.876C95.5413 301.534 96.2475 302.208 96.3428 303.54C96.4301 304.714 96.9221 305.864 97.2791 307.164C96.4221 307.315 95.581 307.172 94.7398 307.117C94.4145 306.062 93.7559 305.221 92.9623 304.492C88.4312 300.336 83.178 297.569 77.0758 296.665C74.9094 296.348 72.6558 296.593 70.4339 296.585C69.8626 296.236 69.2595 296.308 68.6326 296.395C67.5216 296.546 66.5059 297.037 65.4426 297.323H65.4505Z" fill="#EAD6D3"/>
<path d="M316.877 215.532C316.608 214.634 315.915 213.759 314.798 212.907C316.671 211.789 318.544 211.924 320.417 212.677C321.972 213.304 323.226 214.351 324.257 215.659C325.725 217.523 326.638 219.632 327.003 221.98C326.947 222.114 326.971 222.225 327.082 222.321C327.32 222.701 327.336 223.106 327.193 223.526C325.321 224.914 323.495 224.263 321.726 223.32C319.766 222.273 318.274 220.703 316.973 218.926C316.949 217.919 316.925 216.912 316.893 215.905C316.941 215.873 317.028 215.818 317.02 215.802C316.988 215.707 316.933 215.62 316.877 215.532Z" fill="#F8F4F3"/>
<path d="M336.939 223.899C336.907 223.518 336.875 223.145 336.843 222.764C336.769 221.749 336.201 221.091 335.137 220.79C334.883 220.718 334.669 220.623 334.534 220.385C336.51 217.126 339.859 216.476 342.684 218.934C344.969 220.925 346.207 223.51 346.405 226.563C346.159 226.619 345.913 226.674 345.675 226.73C342.303 227.594 338.875 226.476 336.947 223.899H336.939Z" fill="#F8F4F3"/>
<path d="M301.927 201.064C301.268 199.24 300.872 197.353 300.459 195.442C305.077 195.116 309.846 201.548 309.267 207.131C307.95 207.329 306.879 206.877 305.784 206.139C304.696 205.402 304.062 204.371 303.363 203.348C303.062 202.904 302.974 202.254 302.26 202.206C302.205 202.04 302.149 201.873 302.094 201.699C302.189 201.445 302.141 201.239 301.927 201.072V201.064Z" fill="#F8F4F3"/>
<path d="M42.6128 304.614C45.4933 305.542 45.3187 306.478 45.6202 309.079C45.7234 309.943 45.6996 310.84 45.6202 311.712C45.5092 313.052 45.9059 314.178 46.7947 315.154C45.8583 315.209 44.8823 315.138 43.9856 315.352C43.0492 315.582 42.5731 315.225 42.1525 314.511C40.7559 312.156 40.5337 309.674 41.351 307.088C41.6288 306.2 41.9303 305.304 42.6048 304.614H42.6128Z" fill="#EAD6D3"/>
<path d="M316.953 218.928C318.246 220.704 319.746 222.274 321.706 223.321C323.475 224.265 325.301 224.907 327.173 223.527C327.562 227.429 324.206 229.102 320.984 227.461C318.365 226.129 316.77 224.051 316.834 220.982C316.849 220.3 316.603 219.586 316.953 218.92V218.928Z" fill="#EAD6D3"/>
<path d="M336.93 223.895C338.858 226.48 342.286 227.59 345.658 226.726C345.904 226.662 346.142 226.615 346.388 226.559C346.753 228.002 345.928 228.843 344.833 229.454C342.587 230.707 339.001 229.811 337.493 227.717C336.644 226.527 336.81 225.211 336.93 223.895Z" fill="#EAD6D3"/>
<path d="M302.259 202.196C302.973 202.244 303.061 202.894 303.362 203.338C304.053 204.361 304.687 205.4 305.783 206.13C306.878 206.867 307.949 207.319 309.266 207.121C309.02 209.627 307.981 211.134 306.219 211.594C305.592 211.752 305.148 211.721 304.91 210.983C303.973 208.073 302.799 205.226 302.267 202.188L302.259 202.196Z" fill="#EAD6D3"/>
<path d="M266.443 350.906C266.697 350.699 266.959 350.485 267.213 350.279C267.745 350.2 268.054 350.588 268.8 350.802C267.769 351.025 267.102 351.04 266.443 350.906Z" fill="#EAD6D3"/>
<path d="M144.164 42.8806C144.608 42.9203 144.687 43.2137 144.671 43.5785C144.322 43.4754 144.179 43.2216 144.164 42.8806Z" fill="#C30000"/>
<path d="M327.048 222.31C326.939 222.216 326.916 222.108 326.97 221.976C327.017 222.046 327.079 222.116 327.118 222.193C327.125 222.216 327.071 222.271 327.048 222.31Z" fill="#EAD6D3"/>
<path d="M316.867 215.533C316.913 215.618 316.968 215.703 317.006 215.797C317.006 215.812 316.929 215.866 316.882 215.898C316.882 215.773 316.874 215.657 316.867 215.533Z" fill="#EAD6D3"/>
<path d="M301.934 201.067C302.148 201.234 302.196 201.448 302.101 201.694C301.902 201.519 301.879 201.305 301.934 201.067Z" fill="#EAD6D3"/>
<path d="M143.812 42.4858C144.056 42.5016 144.182 42.6274 144.174 42.8791C143.954 42.8398 143.836 42.7061 143.812 42.4858Z" fill="#C30000"/>
<path d="M143.378 42.0752C143.63 42.0988 143.779 42.2247 143.803 42.4842C143.567 42.4449 143.449 42.2876 143.378 42.0752Z" fill="#C30000"/>
<path d="M17.9316 284.007C18.0189 282.484 18.749 281.358 20.1139 280.716C21.0661 280.272 21.2645 279.685 21.1613 278.614C20.8677 275.68 23.6848 273.428 26.1527 274.491C28.1206 275.339 28.8903 277.766 27.7953 279.804C27.589 280.185 27.2874 280.526 27.0176 280.867C26.1606 281.945 26.1209 282.104 27.0017 283.119C27.9619 284.237 28.8031 285.419 29.2633 286.822C29.7791 288.4 30.1045 290.01 29.2633 291.596C28.2635 288.424 26.2558 286.037 23.5737 284.126C22.6452 283.468 21.6851 283.293 20.582 283.19C19.5187 283.095 18.8363 283.833 17.9316 283.999V284.007Z" fill="#F8F4F3"/>
<path d="M17.9441 284.01C18.8487 283.844 19.5311 283.106 20.5945 283.201C21.6896 283.304 22.6577 283.471 23.5861 284.137C26.2682 286.048 28.2759 288.427 29.2757 291.607C28.3235 293.431 27.0856 294.074 25.189 293.733C21.0706 292.987 17.6346 288.38 17.952 284.01H17.9441Z" fill="#EAD6D3"/>
<path d="M13.9019 330.497C12.8068 329.173 12.3545 327.642 12.4973 325.937C12.664 323.939 14.1241 322.9 16.0444 323.368C18.8773 324.058 21.5436 327.745 21.2976 330.679C21.2103 331.702 20.9564 332.678 19.8613 333.13C19.4011 332.908 19.4169 332.416 19.2344 332.036C18.1949 329.878 16.6078 329.331 14.4494 330.386C14.2907 330.465 14.0844 330.465 13.9019 330.505V330.497Z" fill="#F8F4F3"/>
<path d="M13.8965 330.5C14.079 330.46 14.2774 330.46 14.444 330.381C16.6024 329.334 18.1974 329.881 19.229 332.03C19.4115 332.411 19.3957 332.903 19.8559 333.125C18.8323 333.823 17.8007 333.553 16.8167 333.085C15.6026 332.514 14.5472 331.713 13.9044 330.484L13.8965 330.5Z" fill="#EAD6D3"/>
<path d="M25.6582 253.995C24.6981 253.963 23.9521 253.147 23.9521 252.123C23.9521 250.974 24.8409 250.07 25.9439 250.085C26.9279 250.109 27.6421 250.886 27.6421 251.941C27.6421 253.067 26.7057 254.035 25.6503 253.995H25.6582Z" fill="#F8F4F3"/>
<path d="M229.48 198.481C227.385 198.663 225.559 198.734 223.726 198.449C221.655 198.124 219.783 197.354 218.465 195.689C217.727 194.761 217.085 194.88 216.188 195.308C214.172 196.268 212.379 197.569 210.546 198.822C210.022 199.178 209.53 199.583 208.998 199.932C207.53 200.915 206.015 201.343 204.404 200.257C202.666 199.091 201.412 196.538 201.793 194.88C202.063 193.707 202.952 193.104 203.999 192.715C205.777 192.049 207.57 191.423 209.355 190.772C210.784 190.249 212.212 189.726 213.633 189.194C215.728 188.417 217.505 187.418 218.719 185.285C220.243 182.596 222.814 180.828 225.512 179.353C230.575 176.585 236.034 174.999 241.692 174.095C251.476 172.533 261.149 173.318 270.727 175.626C271.64 175.848 272.346 175.8 273.227 175.388C279.274 172.549 286.233 175.8 287.653 182.057C288.582 186.149 286.796 190.542 283.21 193.017C279.544 195.546 274.782 195.673 271.267 193.112C270.093 192.255 269.148 192.232 267.831 192.573C262.324 193.984 257.563 196.839 252.905 199.932C250.691 201.399 248.501 202.922 246.263 204.357C244.382 205.554 242.335 206.395 240.145 206.887C237.788 207.41 235.471 207.442 233.288 206.3C232.479 205.88 232.003 206.014 231.567 206.736C230.979 207.711 230.36 208.671 229.789 209.654C229.345 210.424 228.98 211.232 228.519 211.986C226.845 214.746 223.306 215.023 221.147 212.581C219.902 211.177 219.917 209.543 221.203 208.148C221.989 207.291 222.965 206.704 223.949 206.125C225.544 205.198 227.004 204.087 228.44 202.945C229.257 202.295 229.71 201.629 229.487 200.535C229.368 199.932 229.464 199.289 229.464 198.481H229.48ZM285.939 186.672C287.241 184.103 286.011 180.011 283.646 177.902C281.694 176.157 277.568 174.801 274.552 176.537C275.893 177.069 277.179 177.561 278.448 178.068C282.622 179.741 283.892 181.748 283.606 186.228C282.011 189.749 279.218 191.256 275.425 191.129C274.195 191.09 272.965 191.129 271.473 191.129C276.679 196.07 284.979 192.081 285.932 186.68L285.939 186.672ZM282.075 183.58C281.845 181.835 280.686 180.796 279.258 180.011C277.869 179.242 276.393 178.679 274.878 178.211C264.57 175.039 254.063 173.905 243.343 175.261C237.597 175.99 232.051 177.521 226.877 180.201C223.56 181.922 220.695 184.174 218.91 187.569C218.529 188.29 217.894 188.655 217.204 189.004C214.942 190.154 212.561 191.01 210.197 191.906C208.3 192.62 206.388 193.286 204.515 194.04C203.229 194.555 202.975 195.158 203.341 196.411C204.174 199.274 206.253 200.035 208.657 198.338C208.76 198.266 208.864 198.187 208.967 198.116C211.284 196.458 213.577 194.753 216.235 193.667C216.791 193.445 217.053 193.167 216.989 192.557C216.965 192.311 217.116 192.065 217.41 192.009C217.775 191.938 217.997 192.136 218.156 192.438C218.299 192.723 218.449 193.001 218.6 193.278C219.957 195.824 222.123 196.966 224.964 196.958C226.988 197.505 228.988 197.006 230.955 196.68C236.32 195.792 241.597 194.523 246.89 193.27C253.912 191.605 260.991 190.384 268.212 189.987C271.053 189.829 273.894 189.702 276.734 189.63C280.25 189.543 282.694 186.696 282.059 183.58H282.075Z" fill="#0B0604"/>
<path d="M365.568 251.535C357.815 251.432 350.332 249.925 343.119 247.11C342.65 246.928 342.19 246.706 341.762 246.444C341.468 246.27 341.365 245.952 341.516 245.619C341.666 245.278 341.992 245.175 342.309 245.255C342.801 245.373 343.269 245.564 343.746 245.746C351.403 248.712 359.315 250.219 367.544 249.989C370.091 249.918 372.598 249.577 375.058 248.934C376.225 248.633 377.344 248.173 378.415 247.618C382.732 245.373 383.541 242.082 380.772 238.086C380.407 237.562 379.534 236.928 380.351 236.333C381.272 235.667 381.613 236.769 382.034 237.308C382.422 237.808 382.732 238.371 383.01 238.934C384.66 242.304 383.946 245.429 381.002 247.729C378.685 249.537 375.955 250.33 373.138 250.885C370.638 251.377 368.107 251.496 365.568 251.527V251.535Z" fill="#0B0604"/>
<path d="M160.651 178.498C160.024 183.042 159.699 187.641 159.858 192.265C160.151 200.869 160.945 209.418 163.246 217.761C163.857 219.965 164.643 222.091 165.849 224.049C166.015 224.319 166.198 224.589 166.293 224.882C166.396 225.199 166.317 225.516 165.999 225.699C165.753 225.834 165.5 225.778 165.285 225.635C164.857 225.342 164.595 224.906 164.325 224.478C163.119 222.582 162.421 220.473 161.841 218.347C160.111 211.987 159.159 205.5 158.683 198.918C158.421 195.373 158.382 191.844 158.358 188.3C158.334 185.001 158.643 181.733 159.143 178.482C159.151 178.418 159.143 178.355 159.167 178.292C159.326 177.705 159.31 176.801 160.119 176.888C161.008 176.991 160.595 177.879 160.659 178.506L160.651 178.498Z" fill="#0B0604"/>
<path d="M136.294 241.399C134.112 241.384 132.167 239.679 131.85 237.506C131.541 235.412 133.064 232.938 135.183 232.375C136.04 232.145 136.603 231.82 137.119 231.09C138.254 229.496 140.158 229.211 141.603 230.273C143.11 231.391 143.491 233.644 142.261 235.142C141.603 235.951 141.214 236.752 140.976 237.759C140.436 240.051 138.579 241.407 136.294 241.391V241.399ZM136.397 239.869C138.381 239.869 139.857 238.172 139.412 236.276C139.262 235.626 139.412 235.333 139.912 235.063C140.19 234.912 140.507 234.809 140.73 234.603C141.396 234.008 141.682 233.271 141.396 232.391C141.158 231.677 140.69 231.169 139.904 231.122C138.96 231.066 138.301 231.574 138.04 232.43C137.77 233.326 137.476 233.699 136.349 233.644C134.643 233.556 133.286 235.23 133.326 236.903C133.366 238.576 134.707 239.869 136.397 239.869Z" fill="#0D0908"/>
<path d="M188.009 215.904C187.963 215.95 187.909 216.003 187.863 216.049C187.871 216.018 187.871 215.972 187.894 215.957C187.932 215.934 187.978 215.927 188.024 215.919L188.009 215.904Z" fill="#FB4000"/>
<path d="M128.255 278.569C128.215 275.523 129.056 271.709 131.215 268.323C133.103 265.357 135.69 262.994 139.269 262.486C141.38 262.185 143.522 262.883 144.951 264.841C146.252 266.626 146.887 268.648 147.308 270.781C147.593 272.264 147.831 273.771 148.268 275.206C149.355 278.783 150.037 279.044 153.688 278.553C155.759 278.267 157.711 278.378 159.679 278.822C163.258 279.639 165.233 282.217 165.837 285.571C166.622 289.925 165.479 293.945 161.964 296.872C159.163 299.211 155.87 300.615 152.204 301.194C149.085 301.685 146.046 301.693 143.03 300.773C137.73 299.148 133.905 295.69 131.207 290.964C129.199 287.443 128.223 283.604 128.263 278.569H128.255Z" fill="#EAD6D3"/>
<path d="M184.25 336.514C183.663 337.061 183.1 336.744 182.505 336.498C173.577 332.779 164.856 333.58 156.302 337.712C154.993 338.346 153.787 339.163 152.628 340.043C152.184 340.384 151.7 340.551 151.334 339.972C151.009 339.464 151.43 339.155 151.763 338.877C152.192 338.513 152.652 338.187 153.096 337.846C151.438 335.15 148.398 334.151 145.137 335.206C144.597 335.38 144.074 335.61 143.55 335.832C142.979 336.07 142.574 335.872 142.28 335.364C143.026 333.913 144.526 333.77 145.835 333.532C148.819 332.977 151.533 333.667 153.604 335.991C154.342 336.823 154.834 336.831 155.81 336.348C163.42 332.573 171.355 331.661 179.6 333.865C180.886 334.206 182.116 334.714 183.322 335.261C183.893 335.523 184.298 335.832 184.25 336.514Z" fill="#0D0908"/>
<path d="M96.5302 336.485C95.8715 336.841 95.3478 336.532 94.7844 336.191C89.3328 332.845 81.0721 333.844 76.2633 337.833C76.0173 338.031 75.7872 338.245 75.5491 338.459C75.2 338.776 74.7953 339.022 74.3826 338.658C73.9621 338.277 74.1842 337.864 74.4858 337.5C74.6048 337.357 74.708 337.19 74.8111 337.04C80.0167 333.043 85.7778 331.75 92.1578 333.463C93.3878 333.796 94.5305 334.328 95.6176 334.994C96.1731 335.335 96.673 335.715 96.5222 336.493L96.5302 336.485Z" fill="#0D0908"/>
<path d="M65.4489 297.323C66.5202 297.03 67.528 296.546 68.6389 296.395C69.2658 296.308 69.8689 296.237 70.4402 296.586C70.5196 297.268 70.2339 297.577 69.5277 297.743C63.1556 299.211 59.3466 303.429 58.4817 309.869C58.4182 310.368 58.3468 310.876 58.2515 311.368C58.196 311.645 57.9579 311.788 57.6881 311.78C57.4342 311.772 57.1962 311.669 57.0851 311.399C56.9025 310.971 56.9502 310.535 56.9898 310.091C57.4342 305.023 59.8783 301.138 64.0047 298.243C64.4729 297.918 64.9648 297.632 65.441 297.331L65.4489 297.323Z" fill="#0D0908"/>
<path d="M141.949 307.301C138.648 307.246 135.863 306.334 133.355 304.573C132.895 304.248 132.466 303.86 132.046 303.479C131.633 303.114 131.347 302.623 131.784 302.163C132.284 301.631 132.696 302.131 133.061 302.456C135.91 304.994 139.235 306.08 143.028 305.803C143.155 305.795 143.282 305.779 143.409 305.779C143.822 305.787 144.171 305.937 144.242 306.381C144.314 306.841 143.996 307.111 143.6 307.175C142.981 307.278 142.338 307.278 141.949 307.309V307.301Z" fill="#0D0908"/>
<path d="M92.8637 225.462C92.824 227.69 91.0624 229.34 88.7849 229.268C86.6503 229.205 84.9442 227.452 84.968 225.343C84.9918 223.194 86.9042 221.29 88.9833 221.362C91.1576 221.433 92.8954 223.265 92.8637 225.462ZM88.8722 227.841C90.1815 227.873 91.3004 226.834 91.3718 225.525C91.4512 224.153 90.3164 222.884 88.9992 222.869C87.666 222.853 86.4361 224.074 86.4519 225.406C86.4678 226.683 87.5867 227.809 88.8643 227.841H88.8722Z" fill="#0D0908"/>
<path d="M147.32 88.4374C147.224 94.2423 146.542 99.1115 144.63 103.751C143.828 105.702 142.797 107.51 141.297 109.016C138.448 111.855 135.044 111.8 132.298 108.866C130.798 107.264 129.775 105.353 129.124 103.291C126.22 94.1551 126.474 85.0749 129.838 76.1058C130.576 74.147 131.695 72.3548 133.227 70.8718C136.115 68.0645 139.527 68.1597 142.217 71.1494C144.304 73.473 145.376 76.3199 146.137 79.2858C146.471 80.5706 146.725 81.887 146.891 83.2034C147.145 85.2098 147.423 87.2241 147.328 88.4374H147.32ZM145.812 89.1908C145.836 85.0432 145.288 80.9829 143.892 77.0654C143.209 75.1462 142.328 73.3223 140.86 71.8552C138.813 69.8092 136.623 69.7616 134.48 71.6807C133.234 72.7989 132.37 74.1867 131.671 75.6934C128.973 81.538 128.283 87.7078 128.743 94.0441C129.013 97.7158 129.687 101.324 131.306 104.679C131.973 106.058 132.742 107.359 133.909 108.382C135.758 110 137.869 110.008 139.749 108.414C141.122 107.24 142.074 105.757 142.836 104.131C145.05 99.3891 145.741 94.3454 145.812 89.1749V89.1908Z" fill="#0D0908"/>
<path d="M69.5936 26.8971C70.5061 26.8258 71.379 27.0478 72.2281 27.2778C73.8945 27.7298 74.3706 28.9669 73.5374 30.4975C73.101 31.2984 72.4503 31.8932 71.7282 32.4087C67.8478 35.1843 63.5389 36.8496 58.8094 37.5078C57.4763 37.6902 56.1828 37.8013 54.8735 37.4444C52.9849 36.921 52.485 35.6601 53.5562 34.0264C53.8657 33.5506 54.2149 33.0748 54.6434 32.7259C58.992 29.1652 64.0626 27.4285 69.5936 26.9051V26.8971Z" fill="white"/>
<path d="M50.6021 38.7017C50.5228 40.2005 47.8645 42.4765 46.4282 42.2624C45.6346 42.1514 45.1744 41.4773 45.2775 40.5971C45.4759 38.9872 47.7613 37.1395 49.388 37.2822C50.126 37.3456 50.6339 37.9404 50.5942 38.6938L50.6021 38.7017Z" fill="white"/>
<path d="M93.657 259.314C93.6808 264.183 88.9434 268.585 84.1663 268.133C81.0636 267.839 78.921 265.468 78.9925 262.383C79.0877 257.982 83.2696 253.779 87.7213 253.604C91.2049 253.47 93.6411 255.809 93.657 259.314ZM81.381 265.016C82.0476 266.301 83.2379 266.61 84.5393 266.666C87.5785 266.8 90.459 264.731 91.6811 261.543C92.4587 259.735 92.5381 257.934 91.1177 256.443C89.721 254.976 87.9276 254.81 86.047 255.444C83.4839 256.309 81.746 258.053 80.8652 260.567C80.3415 262.074 80.2066 263.652 81.3889 265.016H81.381Z" fill="#0D0908"/>
<path d="M112.101 257.193C112.117 259.318 110.395 261.095 108.3 261.127C106.182 261.15 104.317 259.295 104.317 257.138C104.317 255.02 106.079 253.188 108.118 253.212C110.308 253.236 112.094 255.02 112.101 257.201V257.193ZM108.197 254.727C106.864 254.743 105.793 255.805 105.801 257.122C105.801 258.486 106.999 259.675 108.324 259.644C109.602 259.612 110.673 258.446 110.618 257.138C110.57 255.837 109.435 254.711 108.197 254.727Z" fill="#0D0908"/>
<path d="M282.051 183.582C282.686 186.699 280.242 189.545 276.726 189.633C273.878 189.704 271.045 189.831 268.204 189.99C260.983 190.386 253.897 191.607 246.882 193.273C241.597 194.526 236.312 195.795 230.948 196.683C228.972 197.008 226.98 197.5 224.956 196.96C224.702 196.405 224.099 196.492 223.671 196.255C222.338 195.525 220.893 193.019 221.219 191.647C221.552 190.235 222.139 188.935 223.155 187.801C225.353 185.358 228.21 183.986 231.162 182.876C236.566 180.838 242.271 180.029 248.001 179.815C254.873 179.553 261.753 179.728 268.569 180.886C272.354 181.528 276.123 182.234 279.821 183.281C280.567 183.495 281.297 183.59 282.059 183.582H282.051Z" fill="#EAD6D3"/>
<path d="M282.072 183.577C281.31 183.585 280.588 183.482 279.834 183.276C276.136 182.229 272.367 181.523 268.582 180.881C261.758 179.723 254.886 179.549 248.014 179.81C242.276 180.025 236.579 180.833 231.175 182.871C228.231 183.982 225.366 185.354 223.168 187.796C222.152 188.93 221.565 190.223 221.232 191.642C220.906 193.006 222.343 195.52 223.684 196.25C224.112 196.48 224.715 196.401 224.969 196.956C222.136 196.964 219.962 195.822 218.605 193.276C218.454 192.998 218.304 192.721 218.161 192.435C218.002 192.126 217.78 191.936 217.415 192.007C217.121 192.063 216.963 192.309 216.994 192.554C217.05 193.165 216.788 193.435 216.24 193.665C213.574 194.751 211.289 196.456 208.972 198.113C208.869 198.185 208.765 198.264 208.662 198.336C206.258 200.025 204.179 199.271 203.346 196.408C202.981 195.155 203.234 194.553 204.52 194.037C206.401 193.284 208.313 192.626 210.202 191.904C212.566 191.008 214.947 190.159 217.209 189.002C217.899 188.653 218.534 188.288 218.915 187.566C220.7 184.18 223.573 181.92 226.882 180.199C232.048 177.519 237.594 175.988 243.348 175.258C254.068 173.902 264.575 175.036 274.883 178.208C276.398 178.676 277.874 179.247 279.263 180.009C280.691 180.794 281.85 181.833 282.08 183.577H282.072Z" fill="#F8F4F3"/>
<path d="M283.587 186.226C283.873 181.746 282.603 179.739 278.429 178.066C277.151 177.559 275.874 177.059 274.533 176.536C277.548 174.799 281.675 176.155 283.627 177.9C285.991 180.017 287.229 184.109 285.92 186.671C285.142 186.52 284.365 186.369 283.587 186.226Z" fill="#D0E6EC"/>
<path d="M283.598 186.231C284.376 186.382 285.154 186.532 285.931 186.675C284.979 192.076 276.679 196.065 271.473 191.124C272.957 191.124 274.195 191.092 275.425 191.124C279.218 191.251 282.011 189.744 283.606 186.223L283.598 186.231Z" fill="#A3B0B3"/>
<path d="M136.394 239.87C134.712 239.87 133.363 238.57 133.323 236.904C133.283 235.223 134.64 233.558 136.346 233.645C137.465 233.701 137.759 233.328 138.037 232.432C138.299 231.575 138.957 231.068 139.902 231.123C140.687 231.171 141.155 231.678 141.393 232.392C141.687 233.28 141.393 234.018 140.727 234.605C140.497 234.811 140.179 234.914 139.909 235.065C139.41 235.334 139.251 235.628 139.41 236.278C139.862 238.181 138.378 239.87 136.394 239.87Z" fill="#F8F4F3"/>
<path d="M88.8529 227.84C87.5753 227.809 86.4565 226.682 86.4406 225.406C86.4247 224.081 87.6468 222.86 88.9878 222.868C90.3051 222.884 91.4399 224.145 91.3605 225.525C91.2891 226.833 90.1623 227.872 88.8609 227.84H88.8529Z" fill="#F8F4F3"/>
<path d="M145.805 89.1902C145.734 94.3607 145.043 99.4044 142.83 104.147C142.076 105.764 141.123 107.255 139.743 108.429C137.87 110.031 135.751 110.015 133.902 108.397C132.736 107.382 131.966 106.074 131.299 104.694C129.681 101.331 128.998 97.7311 128.736 94.0594C128.276 87.7231 128.967 81.5534 131.665 75.7087C132.363 74.202 133.228 72.8142 134.474 71.696C136.608 69.7769 138.806 69.8245 140.854 71.8705C142.322 73.3376 143.202 75.1536 143.885 77.0807C145.282 80.9982 145.829 85.0585 145.805 89.2061V89.1902ZM138.187 75.5343C138.195 74.4161 138.251 73.5438 137.362 73.0918C136.442 72.6159 135.743 73.2107 135.204 73.7975C133.315 75.8594 132.228 78.294 132.037 81.1013C131.982 81.8785 132.085 82.6795 132.918 83.0284C133.752 83.3773 134.402 82.8618 134.918 82.3067C136.791 80.3242 137.878 77.953 138.187 75.5343ZM131.807 87.2711C132.561 87.3028 133.172 86.7477 133.196 86.0181C133.22 85.2727 132.68 84.6779 131.934 84.6303C131.165 84.5748 130.609 85.0823 130.577 85.8754C130.546 86.6446 131.077 87.2394 131.815 87.2711H131.807Z" fill="#A7B920"/>
<path d="M91.6712 261.547C90.4491 264.727 87.5765 266.797 84.5294 266.67C83.228 266.614 82.0377 266.305 81.3711 265.02C81.4981 264.885 81.7123 264.758 81.7361 264.616C82.1091 261.626 84.2754 260.341 86.7354 259.382C87.4178 259.112 88.1955 258.985 88.9335 259.001C90.5523 259.041 91.2982 260.127 91.6712 261.555V261.547Z" fill="#EAD6D3"/>
<path d="M91.6692 261.548C91.2883 260.121 90.5424 259.034 88.9315 258.995C88.2014 258.979 87.4159 259.114 86.7334 259.375C84.2735 260.335 82.0992 261.619 81.7341 264.609C81.7183 264.76 81.4961 264.879 81.3691 265.014C80.1868 263.65 80.3217 262.072 80.8454 260.565C81.7262 258.059 83.4641 256.306 86.0272 255.442C87.9078 254.807 89.7012 254.974 91.0978 256.441C92.5183 257.932 92.4389 259.732 91.6613 261.54L91.6692 261.548Z" fill="#F8F4F3"/>
<path d="M108.202 254.728C109.447 254.712 110.574 255.838 110.622 257.139C110.67 258.44 109.598 259.605 108.329 259.645C107.003 259.685 105.805 258.487 105.805 257.123C105.805 255.807 106.869 254.736 108.202 254.728Z" fill="#F8F4F3"/>
<path d="M138.199 75.5401C137.881 77.9589 136.802 80.33 134.929 82.3126C134.406 82.8598 133.763 83.3832 132.93 83.0342C132.104 82.6853 132.001 81.8843 132.049 81.1072C132.239 78.3078 133.326 75.8653 135.215 73.8034C135.755 73.2166 136.453 72.6218 137.373 73.0976C138.262 73.5496 138.207 74.422 138.199 75.5401Z" fill="#FDF6F5"/>
<path d="M131.81 87.2711C131.072 87.2394 130.54 86.6367 130.572 85.8754C130.604 85.0824 131.159 84.5748 131.929 84.6304C132.675 84.6859 133.215 85.2727 133.191 86.0182C133.167 86.7477 132.556 87.3029 131.802 87.2711H131.81Z" fill="#F8F4F3"/>
</g>
<defs>
<clipPath id="clip0_432_1549">
<rect width="416.399" height="351.716" fill="white" transform="translate(0.307129 0.834473)"/>
</clipPath>
</defs>
</svg>
