<svg width="370" height="350" viewBox="0 0 370 350" fill="none" xmlns="http://www.w3.org/2000/svg">
<path d="M279.854 294.086C279.008 295.795 278.258 297.455 277.392 299.044C268.57 315.339 257.253 328.9 242.012 338.139C236.639 341.395 230.946 343.726 224.848 344.707C217.872 345.831 211.14 345.089 204.959 341.035C198.791 336.994 195.092 330.85 192.956 323.454C191.334 317.846 190.879 312.076 191.078 306.227C191.431 295.654 193.931 285.638 197.656 275.961C199.439 271.335 201.542 266.885 203.882 262.57C203.985 262.379 204.068 262.167 204.171 261.941C203.779 261.411 203.183 261.383 202.677 261.178C185.846 254.2 175.908 240.886 172.612 221.483C171.022 212.117 171.702 202.829 173.619 193.605C173.664 193.386 173.721 193.167 173.786 192.955C174.023 192.234 173.728 191.945 173.099 191.839C167.066 190.786 161.417 188.512 156.032 185.376C155.852 185.27 155.666 185.171 155.313 185.334C155.083 186.188 154.807 187.142 154.57 188.11C152.146 198.062 147.966 207.046 142.214 215.14C137.957 221.13 132.949 226.187 126.557 229.288C116.459 234.19 107.065 232.685 98.4738 225.114C92.3058 219.682 88.2856 212.52 85.2657 204.616C81.8547 195.681 80.1171 186.308 79.4247 176.681C78.8156 168.198 79.1297 159.758 80.2582 151.339C80.3095 150.957 80.4505 150.562 80.1428 150.201C79.5401 150.117 79.0849 150.548 78.604 150.823C69.1916 156.205 60.8692 163.198 53.5791 171.674C50.104 175.721 46.2121 179.033 41.3585 180.778C33.5554 183.575 26.1435 182.36 19.2061 177.741C11.3197 172.486 6.27369 164.667 3.36919 155.167C-0.420119 142.764 -0.144416 130.488 5.02982 118.58C8.37672 110.881 13.4804 105.032 20.7833 101.776C24.8035 99.9821 28.9903 99.4383 33.3054 100.039C43.827 101.508 54.3678 101.487 64.9086 100.349C66.5308 100.173 68.1465 99.961 69.8264 99.7561C69.8648 98.9509 69.416 98.5271 69.1083 98.0539C64.9599 91.6405 61.5168 84.7892 58.7085 77.5495C54.3998 66.4461 51.6492 54.9331 51.2774 42.8127C51.0401 34.9514 51.8416 27.2384 54.573 19.8997C57.1953 12.8507 61.1962 7.06591 67.4669 3.47781C72.3462 0.680786 77.5525 -0.166797 82.9832 0.4477C91.0363 1.35179 98.1661 4.93282 104.796 9.83468C114.073 16.7001 121.511 25.5715 127.801 35.6859C128.551 36.8937 129.276 38.1298 130.032 39.38C130.699 39.38 130.962 38.7443 131.34 38.3417C137.842 31.5116 145.427 26.9205 154.275 25.0347C163.328 23.1064 172.138 24.2648 180.697 27.8952C190.841 32.1967 199.394 39.0551 206.639 47.9123C219.302 63.3878 226.842 81.5896 230.208 101.988C231.183 107.893 231.683 113.84 231.734 119.844C231.734 120.388 231.593 120.974 231.92 121.461C232.318 121.588 232.638 121.341 232.959 121.2C239.634 118.368 246.507 116.439 253.63 115.662C264.325 114.49 274.718 115.705 284.515 120.868C297.922 127.931 306.084 139.67 309.495 155.506C310.457 159.97 310.88 164.511 310.829 169.11C310.823 169.894 310.829 170.678 310.829 171.589C312.22 171.546 313.432 171.137 314.657 170.882C324.736 168.806 334.738 169.159 344.657 172.013C349.043 173.277 353.172 175.219 356.993 177.946C367.406 185.376 371.714 197.419 368.739 210.669C367.04 218.227 363.572 224.753 359.135 230.701C352.877 239.099 345.241 245.675 336.758 251.113C330.725 254.984 324.377 258.106 317.76 260.571C317.247 260.762 316.644 260.776 316.234 261.298C316.529 261.87 317.055 262.146 317.504 262.499C326.127 269.393 335.565 274.485 345.76 277.847C351.171 279.634 356.019 282.396 359.782 287.142C364.662 293.302 366.63 300.548 366.136 308.615C365.534 318.376 361.744 326.633 355.781 333.703C348.555 342.271 339.682 347.575 329.122 349.143C320.876 350.365 313.073 348.889 306.116 343.549C301.75 340.194 298.634 335.737 296.845 330.178C292.844 317.776 287.375 306.192 280.777 295.237C280.559 294.877 280.406 294.439 279.829 294.1L279.854 294.086ZM282.515 230.75C282.778 230.75 283.002 230.672 283.098 230.369C283.477 230.425 283.785 230.234 284.105 230.044C286.695 228.539 289.401 227.353 292.229 226.512C294.255 225.912 296.319 225.495 298.442 225.643C303.052 225.968 305.655 229.599 305.02 234.585C304.597 237.884 303.558 240.921 302.109 243.789C301.622 244.749 301.68 245.364 302.244 246.169C303.706 248.281 305.277 250.28 306.899 252.236C309.143 254.948 311.63 257.378 314.202 259.716C314.644 260.119 315.067 260.211 315.612 260.013C319.735 258.487 323.838 256.919 327.73 254.758C330.218 253.698 332.545 252.264 334.866 250.831C343.234 245.653 350.825 239.388 357.128 231.35C362.18 224.909 366.181 217.817 367.835 209.37C369.592 200.399 368.085 192.22 362.655 185.108C361.276 183.3 359.782 181.59 357.865 180.425C356.012 178.504 353.768 177.239 351.492 176.116C345.837 173.326 339.88 171.836 333.706 171.278C328.891 170.84 324.076 170.755 319.299 171.455C312.137 172.507 305.129 174.414 298.275 176.929C286.554 181.223 275.52 187.128 265.101 194.41C250.476 204.637 237.46 216.927 226.022 231.266C219.616 239.289 213.807 247.786 208.588 256.799C204.344 264.138 200.394 271.646 197.573 279.804C194.085 289.911 191.911 300.273 192.315 311.179C192.514 316.412 193.36 321.491 195.201 326.315C197.573 332.545 201.272 337.51 206.799 340.681C211.781 343.542 217.116 344.27 222.611 343.74C224.989 343.507 227.387 343.175 229.644 342.2C230.042 342.108 230.452 342.038 230.843 341.91C235.299 340.498 239.48 338.372 243.461 335.787C255.669 327.883 265.255 316.977 273.135 304.137C273.481 303.571 273.769 302.985 273.834 302.279C273.968 300.767 274.058 299.277 273.936 297.737C273.359 290.392 267.755 282.686 260.209 281.061C258.542 280.701 256.843 280.779 255.176 280.468C252.092 279.896 250.232 277.897 249.719 274.499C249.418 272.501 249.751 270.558 250.264 268.651C251.309 264.766 253.066 261.263 255.15 257.957C261.164 248.422 268.762 240.695 277.501 234.267C279.033 233.144 280.585 232.057 282.13 230.955C282.323 231.004 282.457 230.934 282.528 230.729L282.515 230.75ZM174.177 179.839C174.01 179.817 173.843 179.796 173.677 179.768C173.535 179.704 173.401 179.598 173.26 179.577C168.073 178.8 163.225 176.893 158.59 174.266C158.295 174.103 158.013 173.778 157.564 174.004C157.025 176.787 156.538 179.613 155.916 182.402C155.705 183.37 155.891 183.801 156.666 184.253C162.764 187.785 169.188 190.236 176.049 190.949C189.59 192.362 201.298 187.735 211.204 177.508C212.204 176.469 213.256 175.466 214.012 174.167C214.865 173.347 215.571 172.38 216.263 171.398C220.277 165.755 223.335 159.525 225.586 152.801C226.252 150.802 226.906 148.789 227.381 146.677C226.618 146.43 225.957 146.606 225.323 146.748C222.066 147.468 219.103 148.937 216.385 151.042C215.519 151.713 214.897 152.518 214.442 153.585C212.435 158.324 209.813 162.618 206.594 166.468C203.061 170.685 199.086 173.976 194.617 176.286C193.809 176.702 189.751 178.751 184.314 179.683C180.306 180.368 177.235 180.163 176.498 180.1C175.549 180.029 174.747 179.916 174.17 179.824L174.177 179.839ZM192.45 237.269C190.539 234.183 188.872 230.962 187.66 227.459C184.897 219.477 184.326 211.227 185.141 202.808C185.333 200.83 185.314 200.696 183.628 199.898C180.838 198.577 177.915 198.21 174.901 198.485C174.132 198.556 173.85 198.916 173.753 199.721C173.548 201.459 173.343 203.189 173.196 204.934C172.497 213.304 173.234 221.497 175.677 229.479C177.075 234.041 178.921 238.364 181.608 242.199C181.646 242.305 181.666 242.418 181.723 242.503C187.41 251.163 194.989 256.919 204.119 260.324C204.818 260.585 205.132 260.359 205.479 259.744C206.799 257.392 208.159 255.076 209.479 252.731C209.685 252.37 210.069 252.081 209.967 251.509C208.242 250.725 206.492 249.941 204.825 248.966C199.907 246.091 195.829 242.136 192.45 237.283V237.269ZM305.309 145.921C305.219 145.292 304.911 144.763 304.661 144.212C301.147 136.386 296.089 130.064 289.433 125.332C279.784 118.474 269.076 116.093 257.766 116.609C249.309 116.99 241.147 119.088 233.267 122.485C218.783 128.722 206.447 138.378 195.989 151.007C193.335 154.22 190.783 157.533 188.641 161.206C188.532 161.319 188.411 161.425 188.321 161.559C185.134 166.546 182.358 171.794 180.05 177.338C179.883 177.734 179.588 178.101 179.787 178.758C181.569 178.701 183.39 178.546 185.186 178.172C187.641 177.663 190.09 177.098 192.328 175.791C193.162 175.749 193.367 174.979 193.687 174.358C197.765 166.327 202.811 159.108 208.813 152.709C218.956 141.888 230.644 133.935 244.365 129.888C253.207 127.281 262.145 126.639 271.096 129.061C282.977 132.282 291.761 139.833 296.967 152.179C297.114 152.532 297.313 152.857 297.486 153.196C297.531 153.415 297.544 153.648 297.621 153.853C299.859 159.963 300.763 166.327 300.743 172.888C300.743 173.383 300.615 173.905 300.923 174.343C301.192 174.471 301.436 174.4 301.68 174.315C303.936 173.566 306.206 172.902 308.502 172.309C309.675 172.005 309.669 171.977 309.694 170.607C309.778 165.903 309.444 161.241 308.534 156.643C307.803 152.949 306.899 149.311 305.302 145.935L305.309 145.921ZM94.832 219.166H94.8256C94.8448 219.809 95.3257 220.12 95.6591 220.523C97.1209 222.274 98.7624 223.807 100.494 225.212C104.193 228.207 108.309 230.185 112.907 230.644C119.671 231.322 125.749 229.175 131.276 224.923C135.341 221.794 138.823 217.994 141.81 213.65C146.106 207.399 149.517 200.618 151.877 193.209C153.659 187.615 154.929 181.866 155.948 176.046C157.16 169.117 157.929 162.124 158.154 155.082C158.449 145.949 158.34 136.817 157.346 127.712C156.782 122.507 156.115 117.329 155.23 112.18C154.211 106.247 152.941 100.385 151.409 94.5929C148.626 84.0758 145.273 73.7848 140.958 63.8963C137.733 56.5153 134.168 49.3532 130.276 42.3748C125.557 33.9272 120.152 26.1083 113.586 19.2923C108.22 13.7194 102.327 9.00828 95.5565 5.70271C89.4205 2.70792 83.0858 0.95625 76.3214 1.93097C73.3143 2.36182 70.3906 3.12465 67.7875 4.96108C65.9281 5.84398 64.3764 7.22836 62.9017 8.71869C59.0227 12.6317 56.5221 17.5124 54.8935 22.951C52.1814 31.9848 52.0403 41.2517 53.1111 50.5822C54.0472 58.7402 56.0605 66.6015 58.8047 74.2439C61.9336 82.9528 66.0371 91.0613 70.9548 98.6825C71.378 99.3394 71.7884 99.5442 72.4936 99.3606C73.34 99.1416 74.212 99.0498 75.0711 98.8874C79.3157 98.0751 83.5089 97.0368 87.606 95.5535C88.8114 95.1156 88.8114 95.1015 88.8691 93.6606C88.9268 92.1349 89.1384 90.6234 89.4205 89.1331C89.895 86.6398 90.5426 84.21 91.8249 82.0416C94.1331 78.1357 97.2364 77.2245 100.955 79.3718C102.898 80.4948 104.443 82.1264 105.847 83.9346C108.88 87.8264 111.124 92.2621 112.971 96.9379C118.068 109.864 120.652 123.333 120.043 137.474C119.658 138.703 119.671 140.009 119.479 141.281C119.004 144.367 118.209 147.32 116.452 149.855C114.772 152.278 112.323 153.281 109.823 152.469C108.822 152.144 107.905 151.685 107.053 151.063C105.027 149.587 103.327 147.722 101.917 145.561C101.353 144.692 100.756 144.445 99.8331 144.735C95.7745 145.992 91.8698 147.645 88.2279 149.99C86.0608 151.381 84.0154 152.963 82.2266 154.941C81.2969 155.965 80.816 157.137 80.7391 158.529C80.6557 160.104 80.5211 161.679 80.457 163.247C80.1749 170.127 80.5147 176.992 81.3931 183.808C81.579 185.235 81.6111 186.725 82.2138 188.06C82.2074 188.138 82.2138 188.215 82.2394 188.293C82.1753 188.809 82.1625 189.31 82.4638 189.762C82.4959 190.094 82.5023 190.44 82.5664 190.765C84.0475 197.984 86.266 204.899 89.6065 211.347C90.9978 214.031 92.5366 216.602 94.4601 218.877C94.5434 219.046 94.646 219.18 94.8384 219.195L94.832 219.166ZM354.249 283.611C354.185 283.448 354.089 283.335 353.909 283.342C351.806 281.57 349.389 280.482 346.895 279.634C343.766 278.568 340.656 277.431 337.617 276.089C326.224 271.06 315.939 264.131 307.245 254.489C302.295 249.001 298.179 242.849 295.197 235.821C294.973 235.299 294.473 234.599 295.268 234.253C295.922 233.971 296.056 234.79 296.262 235.263C297.326 237.771 298.551 240.179 299.929 242.496C300.141 242.849 300.25 243.358 300.801 243.386C302.154 241.041 303.097 238.491 303.629 235.772C303.821 234.783 303.956 233.773 303.904 232.749C303.744 229.436 301.904 227.31 298.89 226.999C297.711 226.879 296.537 226.922 295.364 227.098C293.017 227.459 290.767 228.221 288.587 229.203C281.399 232.452 275.097 237.241 269.249 242.8C266.691 245.23 264.197 247.744 262.042 250.633C260.177 252.653 258.58 254.927 257.054 257.258C254.65 260.938 252.521 264.788 251.367 269.188C250.893 270.996 250.643 272.818 250.989 274.697C251.386 276.837 252.528 278.201 254.413 278.85C255.554 279.246 256.721 279.316 257.907 279.253C260.658 279.105 263.235 278.179 265.787 277.141C266.107 277.014 266.479 276.979 266.652 276.414C265.569 275.199 264.319 274.146 263.043 273.122C262.709 272.854 262.369 272.606 262.068 272.303C261.869 272.098 261.824 271.801 261.998 271.54C262.164 271.286 262.427 271.208 262.677 271.328C262.959 271.462 263.229 271.632 263.472 271.822C264.178 272.388 264.883 272.945 265.556 273.553C270.384 277.918 274.404 283.109 278.065 288.64C286.227 300.972 292.94 314.166 297.57 328.596C298.846 332.58 300.667 336.21 303.398 339.234C308.655 345.047 315.151 347.731 322.46 348.133C330.128 348.557 337.303 346.438 343.952 342.292C353.204 336.521 359.994 328.342 363.437 317.119C365.764 309.519 365.784 301.912 362.732 294.502C360.879 289.989 358.109 286.281 354.262 283.618L354.243 283.604L354.249 283.611ZM3.93342 125.579C3.63848 126.059 3.56154 126.624 3.43972 127.168C0.97763 138.272 1.90091 149.036 6.24804 159.398C9.2423 166.532 13.6343 172.373 19.7382 176.561C29.0031 182.911 40.1915 182.233 48.7896 174.824C50.7388 173.143 52.3481 171.087 54.0857 169.18C63.389 158.981 73.9299 150.865 86.2275 145.617C93.3701 142.573 100.737 140.822 108.406 140.701C109.278 140.687 110.15 140.716 111.015 140.765C111.393 140.786 111.727 140.998 111.675 141.507C111.631 141.909 111.329 142.05 111.009 142.065C110.65 142.086 110.291 142.058 109.932 142.043C107.675 141.98 105.424 142.128 103.18 142.375C102.744 142.425 102.263 142.375 101.769 142.849C103.61 146.041 105.77 148.831 108.861 150.562C111.663 152.13 114.189 151.282 115.888 148.351C116.888 146.613 117.536 144.713 117.933 142.721C119.543 134.627 118.978 126.568 117.606 118.523C117.6 118.297 117.613 118.071 117.574 117.852C116.125 109.496 113.83 101.444 110.316 93.8513C108.45 89.8182 106.283 85.99 103.283 82.8186C101.975 81.4342 100.532 80.2829 98.7559 79.7391C96.9222 79.174 95.3129 79.626 93.9536 81.1022C93.1008 82.0275 92.4853 83.1223 91.998 84.316C90.9978 86.7599 90.5041 89.3521 90.2476 92.0007C90.1771 92.7565 89.8437 93.5264 90.2284 94.4446C91.7672 93.9502 93.1585 93.145 94.5691 92.3751C94.9346 92.1773 95.2872 91.9372 95.6719 91.7747C95.922 91.6688 96.1848 91.7465 96.3259 92.0431C96.467 92.3327 96.3836 92.6223 96.1656 92.7918C95.7937 93.0885 95.4026 93.3569 94.9987 93.59C90.9721 95.8996 86.6827 97.4111 82.2843 98.5271C66.4154 102.546 50.3797 103.514 34.2094 101.395C29.9264 100.83 25.7011 101.006 21.6617 102.814C12.2237 107.045 6.72892 115.041 3.93983 125.579H3.93342ZM219.373 121.073C219.488 115.182 218.937 109.348 217.853 103.584C214.718 86.8658 208.261 71.9695 197.72 59.3476C191.456 51.8465 184.147 45.9488 175.369 42.4949C166.367 38.9562 157.333 38.6384 148.338 42.5796C144.292 44.3525 140.701 46.9164 137.489 50.1372C136.444 51.1826 136.45 51.1896 137.085 52.5034C137.521 53.4004 138.021 54.2621 138.38 55.1945C139.034 56.925 139.97 58.3023 141.618 59.0086C142.182 59.2487 142.67 59.7008 143.183 60.0751C149.992 65.0194 155.185 71.6376 159.385 79.2517C161.225 82.5855 162.809 86.0606 164.149 89.677C164.335 90.1855 164.463 90.687 165.117 90.8283C167.945 91.4286 169.823 93.484 171.253 96.055C174.26 101.458 175.337 107.342 174.446 113.6C174.048 116.376 173.202 119.01 171.041 120.769C170.349 121.334 170.221 121.913 170.233 122.754C170.285 125.749 170.201 128.736 169.939 131.717C168.861 144.12 165.681 155.718 159.051 165.981C158.654 166.595 158.404 167.245 158.321 167.994C158.205 169.06 158.103 170.127 157.917 171.179C157.756 172.055 158.058 172.493 158.75 172.895C164.36 176.109 170.259 178.2 176.594 178.701C178.12 178.821 178.126 178.836 178.761 177.296C181.197 171.37 184.147 165.769 187.577 160.471C195.771 147.793 205.908 137.41 218.001 129.365C219.026 128.687 219.437 127.931 219.398 126.674C219.347 124.816 219.385 122.952 219.385 121.087L219.373 121.073ZM258.984 128.948C255.438 128.828 251.284 129.471 247.174 130.467C241.756 131.781 236.582 133.878 231.574 136.513C230.856 136.894 230.478 137.382 230.401 138.286C230.305 139.345 230.061 140.398 229.856 141.443C227.945 151.134 224.771 160.259 219.693 168.488C212.275 180.502 202.401 188.703 189.276 191.634C188.443 191.818 188.212 192.277 188.026 193.047C186.391 199.919 185.615 206.876 186.154 213.996C186.692 221.088 188.443 227.741 191.841 233.808C196.098 241.43 202.125 246.734 209.691 249.927C211.121 250.527 210.787 250.576 211.634 249.27C212.499 247.935 213.326 246.579 214.224 245.279C214.654 244.657 214.827 244.022 214.833 243.259C214.865 240.942 215.141 238.647 215.538 236.372C216.93 228.391 219.892 221.123 223.887 214.335C225.618 211.397 227.535 208.607 229.612 205.951C229.978 205.485 230.356 205.082 230.151 204.327C229.394 201.593 230.08 199.05 231.305 196.705C234.466 190.652 239.146 186.669 245.244 184.769C247.398 184.098 249.629 183.914 251.694 185.108C252.515 185.581 253.066 185.426 253.784 185.016C259.997 181.463 266.511 178.836 273.385 177.303C279.296 175.982 285.272 175.445 291.267 176.3C293.723 176.646 295.992 176.66 298.275 175.53C299.506 174.915 299.564 175.029 299.57 173.503C299.596 169.371 299.294 165.267 298.442 161.234C295.909 149.276 289.997 140.059 280.091 134.203C273.731 130.446 266.864 128.906 258.991 128.977L258.984 128.948ZM135.88 49.7276C135.976 49.6852 136.085 49.6711 136.162 49.6004C136.514 49.2755 136.861 48.9365 137.207 48.6045C146.305 40.0298 156.769 36.9079 168.547 39.1187C175.748 40.4677 182.217 43.7874 188.161 48.3573C197.413 55.477 204.459 64.7792 209.845 75.6283C217.565 91.1744 221.245 107.815 220.636 125.565C220.617 126.144 220.508 126.752 220.726 127.458C221.392 127.091 221.937 126.815 222.47 126.497C224.669 125.169 226.906 123.912 229.24 122.909C230.285 122.457 230.58 121.843 230.574 120.663C230.535 113.586 229.907 106.572 228.618 99.6431C225.387 82.2041 218.982 66.3614 208.71 52.5387C201.465 42.7915 192.854 34.9231 182.243 29.9577C173.811 26.0094 165.059 24.4343 155.948 26.0376C146.42 27.7116 138.374 32.5852 131.526 39.9804C130.904 40.6514 131.007 41.1529 131.411 41.8662C132.712 44.1618 133.95 46.4997 135.219 48.8235C135.399 49.1554 135.521 49.551 135.88 49.7276ZM165.22 92.3398C165.29 92.7212 165.322 92.9896 165.393 93.2368C165.662 94.148 165.957 95.052 166.226 95.9632C166.303 96.2316 166.374 96.5636 166.117 96.7331C165.816 96.9308 165.527 96.7684 165.303 96.5C164.905 96.0268 164.809 95.3911 164.63 94.8119C162.552 88.2784 159.84 82.0982 156.262 76.3982C152.473 70.345 147.946 65.0971 142.33 61.0499C141.887 60.732 141.464 60.3506 140.74 60.2376C141.528 62.1093 142.246 63.7762 142.939 65.4643C154.659 94.1197 160.597 124.053 159.359 155.576C159.346 155.859 159.321 156.142 159.334 156.424C159.385 157.392 159.738 157.597 160.526 157.081C161.199 156.643 161.693 155.993 162.168 155.315C163.803 152.97 165.066 150.399 165.886 147.574C167.682 141.408 168.618 135.072 168.925 128.623C169.246 121.836 168.913 115.083 167.81 108.387C167.714 107.787 167.534 106.904 168.182 106.77C168.919 106.614 168.9 107.54 168.983 108.126C169.265 110.075 169.522 112.032 169.791 113.981C169.913 114.893 170.189 115.747 170.791 116.404C171.471 117.146 172.24 116.983 172.612 116.037C172.773 115.627 172.894 115.189 172.978 114.744C174.311 107.865 173.157 101.529 169.56 95.7301C169.009 94.8401 168.323 94.0703 167.528 93.4416C166.88 92.926 166.22 92.4104 165.213 92.3539L165.22 92.3398ZM216.135 241.839C216.616 241.783 216.718 241.415 216.898 241.161C220.873 235.475 225.124 230.051 229.625 224.859C240.589 212.223 252.713 201.169 266.242 192.008C269.474 189.819 272.788 187.806 276.11 185.793C278.097 184.592 279.918 183.109 281.233 181.018C282.297 179.316 281.803 178.15 279.938 177.811C278.912 177.628 277.886 177.748 276.873 177.917C271.641 178.814 266.569 180.347 261.639 182.494C255.169 185.305 249.155 189.021 243.538 193.534C242.987 193.972 242.205 194.954 241.73 194.226C241.108 193.273 242.359 192.92 242.891 192.468C245.212 190.504 247.68 188.781 250.194 187.142C250.521 186.93 250.976 186.845 251.111 186.259C249.738 185.411 248.232 185.397 246.795 185.736C240.198 187.297 235.306 191.415 232.061 197.92C231.638 198.768 231.401 199.693 231.215 200.633C231.132 201.063 231.042 201.537 231.459 201.862C231.863 202.172 232.273 201.982 232.619 201.77C233.062 201.494 233.446 201.113 233.863 200.788C234.068 200.633 234.306 200.456 234.543 200.71C234.735 200.922 234.812 201.198 234.742 201.487C234.607 202.066 234.177 202.42 233.825 202.822C231.1 205.902 228.593 209.179 226.336 212.689C220.726 221.42 217.09 230.997 216.148 241.818L216.135 241.839ZM215.019 148.549C206.934 155.739 200.317 164.278 195.284 174.287C205.068 168.686 211.153 159.645 215.019 148.549Z" fill="#15100F"/>
<path d="M357.848 180.435C359.766 181.593 361.259 183.31 362.638 185.118C368.069 192.231 369.582 200.41 367.819 209.38C366.164 217.821 362.163 224.919 357.111 231.361C350.808 239.391 343.217 245.664 334.85 250.841C332.529 252.275 330.208 253.709 327.713 254.768C326.226 254.768 324.738 254.853 323.264 254.733C319.93 254.457 316.782 252.352 315.845 248.284C315.204 245.515 315.884 242.937 317.115 240.5C318.493 237.774 320.295 235.408 322.206 233.126C323.142 232.01 324.033 230.838 324.758 229.545C325.886 227.532 325.809 225.343 324.565 223.725C323.937 222.913 323.212 222.214 322.373 221.635C319.288 219.494 315.833 218.809 312.306 218.527C308.921 218.251 305.593 218.852 302.304 219.735C295.508 221.564 289.359 224.905 283.761 229.503C283.479 229.736 283.165 229.955 283.094 230.393C282.806 230.351 282.575 230.414 282.511 230.781C282.332 230.76 282.21 230.859 282.114 231.007C280.568 232.109 279.017 233.197 277.484 234.32C268.745 240.741 261.147 248.475 255.133 258.01C253.049 261.316 251.292 264.819 250.247 268.704C249.734 270.604 249.401 272.546 249.702 274.552C250.215 277.949 252.075 279.948 255.159 280.52C256.826 280.831 258.525 280.754 260.192 281.114C267.738 282.738 273.336 290.444 273.919 297.79C274.041 299.33 273.958 300.82 273.817 302.332C273.753 303.031 273.464 303.624 273.118 304.189C265.238 317.03 255.652 327.929 243.445 335.839C239.463 338.417 235.282 340.543 230.826 341.963C230.435 342.09 230.031 342.154 229.627 342.253C228.563 342.104 227.499 342.097 226.428 341.914C220.1 340.833 215.092 337.344 211.04 331.99C209.155 329.497 207.751 326.692 206.398 323.846C206.597 323.182 206.263 322.638 206.045 322.08C205.039 319.53 204.391 316.868 204.006 314.127C203.115 307.848 203.609 301.632 204.808 295.466C206.712 285.662 210.296 276.579 214.727 267.877C221.267 255.044 229.441 243.566 238.726 233.028C251.01 219.085 264.757 207.197 280.203 197.775C290.782 191.319 301.823 186.128 313.736 183.472C321.847 181.664 329.977 181.064 338.12 183.225C338.524 183.331 338.928 183.366 339.331 183.225C339.735 183.267 340.152 183.267 340.55 183.359C344.871 184.355 349.167 184.186 353.405 182.928C355.002 182.455 356.675 181.996 357.823 180.484L357.848 180.435Z" fill="#FA420F"/>
<path d="M120.043 137.461C120.652 123.32 118.075 109.851 112.971 96.9253C111.124 92.2495 108.88 87.8209 105.847 83.922C104.437 82.1138 102.892 80.4752 100.955 79.3592C97.243 77.212 94.1333 78.1231 91.8251 82.0291C90.5428 84.1975 89.8888 86.6272 89.4207 89.1205C89.1386 90.6108 88.927 92.1153 88.8693 93.648C88.8116 95.0889 88.818 95.103 87.6062 95.5409C83.5092 97.0313 79.3159 98.0625 75.0714 98.8748C74.2122 99.0372 73.3402 99.129 72.4939 99.348C71.7886 99.5316 71.3846 99.3268 70.9551 98.6699C66.0309 91.0488 61.9274 82.9402 58.8049 74.2313C56.0607 66.5889 54.0474 58.7276 53.1113 50.5696C52.0406 41.2391 52.1816 31.9793 54.8938 22.9384C56.5287 17.4998 59.0229 12.6191 62.902 8.7061C64.3767 7.21577 65.9283 5.83138 67.7877 4.94849C69.6791 10.4295 73.757 13.6503 79.0146 13.8128C79.4121 14.392 80.002 14.3355 80.5598 14.3708C85.8943 14.7027 90.7672 16.6451 95.3708 19.5198C101.956 23.6306 107.457 29.1823 112.419 35.412C119.158 43.8596 124.557 53.296 129.18 63.2834C134.149 74.0265 138.066 85.2287 141.099 96.8052C145.151 112.274 147.62 128.025 148.12 144.129C148.485 156.016 147.857 167.826 145.356 179.445C143.202 189.425 139.932 198.847 133.815 206.807C133.514 207.203 133.225 207.613 133.488 208.178C131.013 211.667 128.135 214.704 124.916 217.331C119.498 221.76 113.625 224.818 106.623 224.26C103.712 224.027 101.019 223.137 98.4612 221.612C97.2109 220.863 96.1787 219.74 94.8386 219.154H94.845C94.8001 218.928 94.6719 218.829 94.4667 218.836C92.5432 216.569 91.0044 213.991 89.6131 211.307C86.2726 204.865 84.0541 197.943 82.573 190.724C82.5089 190.4 82.5025 190.053 82.4705 189.721C82.5602 189.199 82.6564 188.683 82.246 188.252C82.2204 188.175 82.2076 188.104 82.2204 188.019C82.2332 187.285 82.2653 186.557 82.246 185.823C82.1691 182.835 82.3615 179.868 82.8552 176.923C83.3296 174.077 84.0093 171.287 85.6442 168.963C88.0486 165.537 90.2158 164.718 93.7166 166.851C93.941 166.985 94.1526 167.148 94.377 167.282C95.6273 168.052 96.8391 168.892 98.1278 169.577C99.6025 170.361 101.173 171.061 102.821 170.955C106.29 170.722 109.246 169.118 111.535 166.258C114.099 163.051 115.798 159.272 117.1 155.26C118.305 151.545 119.286 147.759 119.684 143.832C119.896 141.72 120.267 139.594 120.037 137.447L120.043 137.461Z" fill="#FA420F"/>
<path d="M354.248 283.621C358.095 286.284 360.859 289.992 362.718 294.505C365.77 301.922 365.751 309.522 363.424 317.122C359.98 328.345 353.19 336.531 343.938 342.295C337.289 346.441 330.115 348.56 322.446 348.136C315.137 347.733 308.642 345.049 303.384 339.236C300.653 336.213 298.839 332.583 297.556 328.599C292.927 314.169 286.214 300.975 278.052 288.643C274.391 283.112 270.364 277.921 265.543 273.556C264.869 272.948 264.164 272.39 263.459 271.825C263.215 271.628 262.94 271.458 262.664 271.331C262.407 271.211 262.151 271.296 261.984 271.543C261.805 271.804 261.85 272.108 262.055 272.306C262.356 272.609 262.702 272.857 263.029 273.125C264.305 274.149 265.562 275.202 266.639 276.416C266.472 276.981 266.094 277.01 265.773 277.144C263.222 278.182 260.644 279.107 257.894 279.256C256.707 279.319 255.54 279.256 254.399 278.853C252.514 278.203 251.373 276.84 250.975 274.7C250.623 272.821 250.879 270.992 251.354 269.191C252.508 264.783 254.636 260.941 257.041 257.261C258.56 254.93 260.163 252.656 262.029 250.636C262.67 250.756 263.247 250.452 263.811 250.226C265.895 249.393 268.095 249.343 270.172 249.781C274.128 250.622 277.321 253.094 279.828 256.512C282.078 259.578 283.874 262.989 285.496 266.507C286.906 269.572 288.08 272.758 289.445 275.844C291.933 281.467 294.35 287.131 297.409 292.415C300.57 297.874 304.058 303.023 308.482 307.381C310.957 309.818 313.637 311.768 316.593 313.364C320.286 315.356 324.235 316.041 328.268 316.401C329.262 316.493 330.185 316.062 331.154 316.069C332.808 316.083 334.404 315.652 335.956 315.172C339.662 314.014 343.111 312.269 346.131 309.515C350.344 305.672 353.485 301.131 354.563 295.091C355.024 292.485 355.261 289.893 354.774 287.237C354.556 286.051 353.953 284.906 354.255 283.621H354.248Z" fill="#EAD2CD"/>
<path d="M3.92249 125.578C6.70517 115.04 12.2064 107.052 21.6444 102.814C25.6838 100.998 29.9091 100.829 34.1921 101.394C50.3688 103.513 66.398 102.545 82.267 98.5263C86.6654 97.4103 90.9548 95.8988 94.9813 93.5891C95.3853 93.356 95.7828 93.0876 96.1483 92.7909C96.3663 92.6144 96.4432 92.3318 96.3085 92.0423C96.1675 91.7527 95.9046 91.6679 95.6546 91.7738C95.2763 91.9363 94.9236 92.1694 94.5518 92.3742C93.1412 93.1512 91.7498 93.9564 90.211 94.4437C89.8263 93.5255 90.1533 92.7556 90.2303 91.9999C90.4867 89.3512 90.9868 86.766 91.9807 84.3151C92.4679 83.1214 93.0899 82.0267 93.9362 81.1014C95.2955 79.6181 96.9048 79.1731 98.7386 79.7382C100.515 80.2891 101.957 81.4333 103.265 82.8177C106.266 85.9891 108.433 89.8103 110.299 93.8504C113.812 101.443 116.114 109.495 117.557 117.851C117.595 118.07 117.576 118.296 117.589 118.522C117.108 118.557 116.64 118.437 116.281 118.12C115.544 117.456 114.652 117.194 113.812 116.785C110.466 115.132 106.901 114.397 103.291 114.15C98.8027 113.846 94.3081 114.178 89.8904 115.153C86.9924 115.789 84.1263 116.523 81.3501 117.731C78.4841 118.974 75.7911 120.599 73.0213 122.047C67.6291 124.865 62.8588 128.721 58.2872 132.882C55.0237 135.848 51.8755 138.977 48.7017 142.057C44.797 145.843 40.5717 149.085 35.6668 151.062C31.6851 152.666 27.6586 153.895 23.2794 153.139C19.2336 152.44 15.8034 150.525 12.8219 147.594C9.55837 144.38 7.37839 140.326 5.96141 135.778C5.04454 132.846 4.41619 129.844 4.38413 126.723C4.38413 126.27 4.39696 125.797 3.90967 125.592L3.92249 125.578ZM29.659 112.031C29.8706 109.82 27.9663 107.843 25.5812 107.963C23.7795 108.054 22.1573 108.598 20.6634 109.608C18.2334 111.254 16.2394 113.43 14.7647 116.114C13.4887 118.43 12.4629 120.853 12.995 123.721C13.3413 125.592 14.489 126.821 16.2201 126.963C17.5153 127.069 18.7591 126.807 19.9389 126.207C22.837 124.745 25.2157 122.598 27.0495 119.723C28.4472 117.533 29.55 115.224 29.659 112.024V112.031Z" fill="#F5E8E7"/>
<path d="M3.94608 125.582C4.43337 125.794 4.41413 126.26 4.42054 126.712C4.4526 129.834 5.08095 132.836 5.99782 135.767C7.4148 140.315 9.59478 144.37 12.8583 147.583C15.8398 150.515 19.27 152.429 23.3158 153.128C27.695 153.884 31.7215 152.662 35.7032 151.051C40.6081 149.074 44.8399 145.832 48.7382 142.046C51.9119 138.966 55.0601 135.837 58.3236 132.871C62.8952 128.711 67.6655 124.854 73.0577 122.036C75.8276 120.588 78.5205 118.97 81.3865 117.72C84.1628 116.512 87.0288 115.778 89.9269 115.142C94.3509 114.168 98.8391 113.836 103.327 114.139C106.937 114.386 110.502 115.121 113.849 116.774C114.682 117.183 115.58 117.445 116.317 118.109C116.676 118.434 117.145 118.554 117.625 118.511C118.997 126.556 119.562 134.615 117.952 142.71C117.555 144.709 116.907 146.609 115.907 148.339C114.208 151.27 111.682 152.118 108.88 150.55C105.783 148.82 103.622 146.03 101.789 142.837C102.289 142.364 102.763 142.406 103.199 142.364C105.443 142.124 107.694 141.968 109.951 142.032C110.31 142.039 110.669 142.074 111.028 142.053C111.348 142.032 111.656 141.891 111.695 141.495C111.746 140.986 111.412 140.775 111.034 140.753C110.162 140.697 109.29 140.676 108.425 140.69C100.756 140.81 93.3892 142.562 86.2466 145.606C73.9489 150.854 63.4081 158.969 54.1048 169.169C52.3608 171.076 50.7578 173.131 48.8087 174.812C40.2106 182.221 29.0286 182.899 19.7573 176.55C13.647 172.361 9.25496 166.52 6.26711 159.386C1.91998 149.017 0.9967 138.26 3.45879 127.157C3.58061 126.613 3.65114 126.048 3.95249 125.567L3.94608 125.582Z" fill="#EAD2CD"/>
<path d="M354.253 283.624C353.952 284.909 354.554 286.054 354.772 287.24C355.26 289.896 355.023 292.488 354.561 295.095C353.484 301.134 350.342 305.675 346.129 309.518C343.11 312.272 339.66 314.017 335.954 315.175C334.403 315.663 332.806 316.093 331.152 316.072C330.184 316.065 329.26 316.496 328.267 316.404C324.234 316.044 320.284 315.359 316.591 313.367C313.635 311.771 310.955 309.821 308.48 307.385C304.056 303.02 300.568 297.878 297.407 292.418C294.349 287.134 291.931 281.463 289.444 275.847C288.078 272.761 286.905 269.575 285.494 266.51C283.872 262.992 282.077 259.581 279.826 256.515C277.319 253.097 274.126 250.625 270.17 249.784C268.093 249.346 265.894 249.396 263.81 250.229C263.246 250.455 262.669 250.759 262.027 250.639C264.182 247.757 266.676 245.236 269.234 242.806C275.082 237.247 281.384 232.458 288.572 229.209C290.758 228.22 293.002 227.458 295.349 227.104C296.522 226.928 297.696 226.878 298.875 227.005C301.889 227.316 303.729 229.442 303.889 232.755C303.941 233.779 303.806 234.789 303.614 235.778C303.081 238.504 302.139 241.047 300.786 243.392C300.235 243.357 300.126 242.855 299.914 242.502C298.536 240.185 297.311 237.777 296.247 235.269C296.048 234.796 295.913 233.977 295.253 234.259C294.458 234.605 294.958 235.305 295.182 235.827C298.164 242.855 302.286 249.007 307.23 254.495C315.918 264.137 326.208 271.066 337.602 276.095C340.641 277.437 343.751 278.574 346.88 279.64C349.38 280.488 351.791 281.576 353.894 283.349C353.9 283.596 353.984 283.73 354.234 283.617L354.253 283.631V283.624ZM330.806 279.146C330.241 279.146 329.671 279.097 329.119 279.16C328.619 279.217 328.113 279.365 327.632 279.534C325.772 280.177 325.086 282.049 326.016 283.935C326.567 285.051 327.427 285.849 328.324 286.605C330.863 288.731 333.806 289.847 336.871 290.56C338.916 291.04 341 291.196 343.09 290.652C345.014 290.15 346.117 288.815 345.783 287.078C345.54 285.821 344.866 284.811 343.937 284.055C340.038 280.876 335.627 279.358 330.812 279.146H330.806ZM322.746 276.9C322.81 276.335 322.663 275.741 322.329 275.219C321.464 273.863 320.207 273.114 318.796 272.733C318.239 272.584 317.591 272.556 317.04 273.043C316.104 273.877 315.988 275.282 316.841 276.497C317.751 277.79 318.95 278.602 320.387 279.005C321.675 279.365 322.727 278.454 322.746 276.907V276.9Z" fill="#F5E8E7"/>
<path d="M94.8218 219.162C96.1618 219.741 97.1877 220.871 98.4444 221.62C101.003 223.145 103.696 224.035 106.606 224.268C113.608 224.826 119.481 221.768 124.899 217.339C128.111 214.712 130.997 211.668 133.471 208.185C134.311 208.56 134.664 207.875 135.094 207.31C139.152 201.949 141.941 195.825 144.051 189.298C147.911 177.369 149.199 164.966 149.507 152.393C149.629 147.371 149.308 142.364 149.033 137.349C148.731 131.882 148.103 126.457 147.334 121.061C146.032 111.914 144.121 102.916 141.672 94.0584C137.639 79.48 132.298 65.5302 125.143 52.4562C120.84 44.6019 115.948 37.235 110.152 30.6451C105.427 25.27 100.15 20.6295 94.0588 17.2109C89.7694 14.8094 85.2363 13.3191 80.4211 12.8882C79.7415 12.8317 79.1837 12.9659 79.0106 13.8135C73.753 13.644 69.6751 10.4302 67.7837 4.94918C70.3868 3.11982 73.3106 2.35699 76.3177 1.91908C83.0884 0.944355 89.4232 2.68896 95.5527 5.69082C102.323 9.00345 108.216 13.7075 113.582 19.2804C120.148 26.1034 125.553 33.9153 130.272 42.3629C134.17 49.3413 137.735 56.5034 140.954 63.8844C145.269 73.7729 148.622 84.0569 151.405 94.581C152.937 100.373 154.207 106.235 155.226 112.168C156.111 117.317 156.778 122.502 157.342 127.7C158.33 136.805 158.445 145.938 158.15 155.07C157.926 162.112 157.156 169.105 155.944 176.034C154.925 181.854 153.655 187.596 151.873 193.197C149.514 200.607 146.109 207.394 141.807 213.638C138.819 217.982 135.344 221.782 131.272 224.911C125.745 229.163 119.661 231.31 112.903 230.632C108.306 230.173 104.196 228.202 100.49 225.201C98.7586 223.795 97.1172 222.262 95.6553 220.511C95.3219 220.108 94.8346 219.797 94.8218 219.147V219.162Z" fill="#C30000"/>
<path d="M206.411 323.799C207.764 326.652 209.168 329.449 211.053 331.942C215.106 337.303 220.107 340.786 226.442 341.866C227.512 342.05 228.577 342.057 229.641 342.205C227.378 343.18 224.986 343.512 222.607 343.745C217.113 344.275 211.778 343.547 206.796 340.687C201.269 337.515 197.57 332.55 195.197 326.32C193.357 321.489 192.511 316.418 192.312 311.184C191.902 300.278 194.082 289.916 197.57 279.809C200.391 271.644 204.34 264.143 208.585 256.804C213.798 247.792 219.613 239.295 226.018 231.271C237.457 216.933 250.473 204.636 265.098 194.415C275.517 187.126 286.551 181.228 298.272 176.934C305.126 174.419 312.134 172.512 319.296 171.46C324.072 170.761 328.888 170.845 333.703 171.283C339.877 171.841 345.834 173.332 351.489 176.121C353.765 177.245 356.009 178.509 357.862 180.43C356.708 181.942 355.034 182.401 353.444 182.874C349.206 184.131 344.904 184.301 340.589 183.305C340.191 183.213 339.775 183.213 339.371 183.171C339.557 182.252 339.037 182.012 338.37 181.821C336.133 181.193 333.857 180.762 331.561 180.607C326.124 180.239 320.706 180.557 315.346 181.666C305.722 183.651 296.579 187.246 287.769 191.894C277.241 197.445 267.425 204.282 258.179 212.123C248.979 219.927 240.483 228.552 232.757 238.108C226.544 245.8 220.908 253.958 216.029 262.744C211.143 271.545 207.097 280.77 204.603 290.75C202.673 298.477 201.635 306.296 202.808 314.32C203.244 317.286 204.007 320.14 205.046 322.916C205.309 323.615 205.642 324.116 206.424 323.799H206.411Z" fill="#C30000"/>
<path d="M135.87 49.7238C135.504 49.5473 135.389 49.1517 135.209 48.8198C133.94 46.503 132.696 44.1651 131.401 41.8625C130.997 41.1421 130.894 40.6476 131.516 39.9766C138.37 32.5815 146.417 27.7079 155.938 26.0339C165.049 24.4306 173.801 26.0127 182.233 29.954C192.844 34.9194 201.461 42.7807 208.7 52.535C218.972 66.3577 225.37 82.1933 228.608 99.6394C229.891 106.568 230.526 113.582 230.564 120.659C230.564 121.839 230.275 122.461 229.23 122.906C226.896 123.909 224.659 125.173 222.46 126.494C221.934 126.811 221.382 127.087 220.716 127.454C220.498 126.748 220.607 126.14 220.626 125.561C221.235 107.811 217.555 91.1706 209.835 75.6246C204.449 64.7826 197.403 55.4733 188.151 48.3536C182.207 43.7766 175.738 40.464 168.537 39.1149C156.759 36.9042 146.295 40.0261 137.197 48.6008C136.844 48.9328 136.504 49.2718 136.152 49.5967C136.075 49.6673 135.966 49.6815 135.87 49.7238ZM205.828 53.2131C205.687 52.6692 205.533 52.0829 205.238 51.5391C203.782 48.8692 201.731 46.8844 199.352 45.274C198.736 44.8573 198.063 44.5607 197.371 44.3982C196.544 44.2004 196.018 44.8644 196.21 45.7826C196.338 46.39 196.576 46.948 196.89 47.4707C198.32 49.8439 200.166 51.758 202.314 53.319C202.955 53.7852 203.667 54.1242 204.411 54.322C205.148 54.5197 205.802 54.0041 205.828 53.206V53.2131ZM194.19 41.7001C194.178 40.4711 193.165 39.4963 191.94 39.5387C191.017 39.567 190.472 40.1462 190.472 41.0785C190.472 42.1945 191.607 43.3034 192.754 43.3034C193.883 43.3034 194.203 42.9502 194.19 41.693V41.7001Z" fill="#D0E6EC"/>
<path d="M297.49 153.189C297.317 152.849 297.118 152.525 296.971 152.171C291.765 139.818 282.981 132.274 271.1 129.054C262.149 126.624 253.211 127.267 244.369 129.88C230.648 133.927 218.96 141.88 208.817 152.701C202.815 159.1 197.776 166.319 193.691 174.35C193.371 174.978 193.166 175.741 192.332 175.784C192.21 175.614 192.114 175.346 191.954 175.282C190.274 174.597 189.415 173.149 188.908 171.376C188.286 169.194 187.837 167.025 188.248 164.666C188.44 163.55 188.665 162.378 188.639 161.198C190.78 157.532 193.326 154.213 195.987 150.999C206.438 138.37 218.774 128.715 233.264 122.478C241.144 119.087 249.306 116.99 257.763 116.601C269.074 116.086 279.781 118.466 289.431 125.324C296.086 130.057 301.145 136.385 304.659 144.204C304.909 144.755 305.21 145.285 305.306 145.913C304.607 146.712 303.966 147.587 303.197 148.294C301.35 149.996 299.536 151.748 297.49 153.174V153.189ZM279.14 122.202C278.986 122.202 278.832 122.202 278.678 122.202C278.165 122.216 277.608 122.146 277.332 122.767C277.037 123.431 277.345 123.954 277.768 124.413C279.749 126.553 282.218 127.507 284.891 127.938C285.449 128.029 286.033 127.74 286.328 127.154C286.622 126.567 286.225 126.087 285.956 125.614C285.872 125.473 285.763 125.353 285.648 125.24C283.763 123.488 281.608 122.435 279.146 122.202H279.14ZM289.187 128.114C288.552 128.135 287.995 128.757 288.014 129.407C288.033 130.071 288.809 130.975 289.386 130.996C290.04 131.024 290.739 130.346 290.732 129.682C290.732 128.934 289.899 128.086 289.187 128.114Z" fill="#D0E6EC"/>
<path d="M165.227 92.3363C166.234 92.3928 166.894 92.9084 167.542 93.424C168.337 94.0526 169.023 94.8225 169.574 95.7125C173.171 101.511 174.326 107.854 172.992 114.727C172.909 115.165 172.787 115.602 172.626 116.019C172.255 116.966 171.479 117.128 170.806 116.386C170.203 115.73 169.927 114.882 169.805 113.964C169.542 112.014 169.28 110.058 168.997 108.108C168.914 107.529 168.933 106.597 168.196 106.752C167.542 106.886 167.721 107.769 167.824 108.37C168.927 115.066 169.267 121.818 168.94 128.606C168.632 135.054 167.696 141.397 165.901 147.556C165.08 150.382 163.823 152.946 162.182 155.298C161.714 155.969 161.214 156.625 160.54 157.063C159.752 157.579 159.399 157.381 159.348 156.406C159.335 156.124 159.361 155.841 159.373 155.559C160.611 124.036 154.68 94.1021 142.953 65.4467C142.261 63.7586 141.543 62.0917 140.754 60.22C141.478 60.3259 141.902 60.7144 142.344 61.0322C147.961 65.0794 152.481 70.3274 156.277 76.3806C159.848 82.0876 162.566 88.2608 164.644 94.7943C164.83 95.3735 164.92 96.0091 165.317 96.4824C165.542 96.7437 165.83 96.9062 166.131 96.7155C166.388 96.5459 166.324 96.214 166.24 95.9456C165.971 95.0344 165.676 94.1303 165.407 93.2192C165.33 92.9649 165.304 92.6965 165.234 92.3222L165.227 92.3363ZM157.88 83.7969C157.187 81.1482 155.821 78.5984 153.436 76.7973C153.096 76.543 152.686 76.4017 152.295 76.7408C151.897 77.0869 151.769 77.5318 151.891 78.0828C152.5 80.8586 153.885 83.0835 155.802 84.9553C155.95 85.1036 156.142 85.2025 156.328 85.3014C157.347 85.824 157.905 85.4214 157.873 83.804L157.88 83.7969ZM150.814 74.0144C150.839 73.0962 150.096 71.8036 149.339 71.4646C148.57 71.1185 147.973 71.5352 148.057 72.4252C148.166 73.5411 148.692 74.4099 149.621 74.9114C150.301 75.2787 150.788 74.8831 150.814 74.0144Z" fill="#DBF505"/>
<path d="M216.133 241.835C217.076 231.015 220.711 221.437 226.322 212.707C228.579 209.196 231.085 205.919 233.81 202.839C234.163 202.437 234.586 202.084 234.727 201.505C234.798 201.215 234.727 200.939 234.529 200.728C234.291 200.466 234.054 200.643 233.849 200.805C233.432 201.13 233.047 201.512 232.605 201.787C232.259 201.999 231.855 202.197 231.445 201.879C231.021 201.554 231.111 201.081 231.201 200.65C231.387 199.71 231.624 198.785 232.047 197.938C235.292 191.432 240.19 187.315 246.781 185.754C248.218 185.415 249.724 185.429 251.096 186.276C250.962 186.856 250.507 186.94 250.18 187.159C247.666 188.798 245.198 190.521 242.877 192.485C242.344 192.93 241.101 193.29 241.716 194.244C242.191 194.964 242.973 193.989 243.524 193.551C249.141 189.038 255.155 185.323 261.624 182.512C266.549 180.371 271.627 178.832 276.859 177.935C277.872 177.758 278.897 177.645 279.923 177.829C281.789 178.161 282.283 179.333 281.219 181.035C279.911 183.126 278.083 184.602 276.096 185.81C272.774 187.823 269.459 189.843 266.228 192.026C252.699 201.187 240.575 212.234 229.611 224.877C225.11 230.068 220.859 235.493 216.884 241.178C216.71 241.433 216.608 241.8 216.121 241.857L216.133 241.835ZM268.216 182.893C265.664 183.048 263.285 183.825 261.195 185.485C260.663 185.902 260.009 186.403 260.368 187.272C260.669 188 261.381 187.901 261.996 187.908C262.099 187.908 262.201 187.901 262.304 187.88C264.446 187.491 266.478 186.757 268.357 185.549C268.799 185.266 269.241 184.97 269.549 184.496C270.056 183.719 269.825 183.063 268.985 182.893C268.735 182.844 268.472 182.886 268.216 182.886V182.893Z" fill="#DBF505"/>
<path d="M120.027 137.456C120.257 139.61 119.886 141.729 119.674 143.841C119.276 147.768 118.295 151.547 117.09 155.269C115.788 159.281 114.089 163.06 111.525 166.267C109.236 169.127 106.273 170.738 102.811 170.964C101.157 171.077 99.5925 170.37 98.1178 169.586C96.8291 168.901 95.6108 168.061 94.367 167.291C94.1426 167.15 93.931 166.994 93.7066 166.86C90.2122 164.727 88.045 165.546 85.6343 168.972C84.0057 171.296 83.3196 174.086 82.8452 176.932C82.3515 179.87 82.1591 182.837 82.2361 185.832C82.2553 186.559 82.2168 187.294 82.2104 188.028C81.6077 186.694 81.5692 185.203 81.3897 183.776C80.5113 176.96 80.1651 170.095 80.4536 163.215C80.5177 161.647 80.6524 160.072 80.7357 158.497C80.8127 157.099 81.2935 155.933 82.2232 154.909C84.0121 152.931 86.0574 151.349 88.2246 149.958C91.8664 147.613 95.7711 145.96 99.8297 144.703C100.753 144.413 101.349 144.668 101.914 145.529C103.324 147.698 105.023 149.562 107.049 151.031C107.902 151.653 108.825 152.112 109.819 152.437C112.313 153.249 114.763 152.253 116.449 149.824C118.206 147.295 119.001 144.336 119.475 141.249C119.668 139.985 119.648 138.678 120.039 137.442L120.027 137.456Z" fill="#C30000"/>
<path d="M283.096 230.372C283.167 229.941 283.481 229.715 283.763 229.482C289.36 224.891 295.509 221.55 302.306 219.714C305.595 218.831 308.923 218.23 312.308 218.506C315.834 218.788 319.29 219.473 322.374 221.614C323.214 222.2 323.939 222.892 324.567 223.704C325.817 225.322 325.888 227.511 324.759 229.524C324.035 230.817 323.144 231.989 322.208 233.105C320.297 235.387 318.495 237.753 317.117 240.479C315.886 242.909 315.206 245.487 315.847 248.263C316.79 252.331 319.931 254.436 323.266 254.712C324.74 254.832 326.234 254.74 327.715 254.747C323.823 256.915 319.72 258.483 315.604 260.002C315.059 260.2 314.635 260.108 314.193 259.705C311.622 257.374 309.141 254.938 306.89 252.225C305.268 250.269 303.697 248.263 302.235 246.158C301.677 245.353 301.62 244.738 302.101 243.778C303.55 240.91 304.595 237.873 305.011 234.574C305.646 229.588 303.043 225.957 298.433 225.632C296.311 225.484 294.246 225.894 292.22 226.501C289.399 227.342 286.687 228.528 284.096 230.033C283.776 230.216 283.468 230.414 283.09 230.358L283.096 230.372Z" fill="#C30000"/>
<path d="M181.601 242.19C178.914 238.348 177.068 234.032 175.67 229.469C173.227 221.488 172.49 213.295 173.189 204.925C173.336 203.18 173.541 201.45 173.747 199.712C173.843 198.907 174.125 198.547 174.894 198.476C177.908 198.201 180.825 198.568 183.621 199.889C185.313 200.694 185.326 200.821 185.134 202.799C184.313 211.218 184.89 219.468 187.654 227.449C188.865 230.953 190.532 234.173 192.443 237.26C192.219 237.903 191.68 238.122 191.186 238.411C188.16 240.191 184.929 241.343 181.601 242.183V242.19Z" fill="#D0E6EC"/>
<path d="M214.031 174.17C213.281 175.469 212.23 176.472 211.223 177.511C201.323 187.738 189.609 192.357 176.068 190.952C169.207 190.239 162.776 187.788 156.685 184.256C155.909 183.804 155.717 183.373 155.935 182.405C156.557 179.615 157.044 176.79 157.583 174.007C158.032 173.781 158.314 174.099 158.609 174.269C163.244 176.896 168.092 178.803 173.279 179.58C173.426 179.601 173.554 179.707 173.695 179.771C173.811 179.87 173.984 180.018 174.208 180.188C176.927 182.222 179.972 181.953 182.39 181.805C190.308 181.304 189.16 182.25 194.027 181.48C196.995 181.007 199.977 180.477 202.836 179.432C205.792 178.351 208.748 177.278 211.447 175.476C212.242 174.947 212.98 174.127 214.031 174.17Z" fill="#A3B0B3"/>
<path d="M214.027 174.177C212.97 174.134 212.232 174.954 211.444 175.484C208.744 177.278 205.788 178.358 202.833 179.439C199.633 180.604 197.19 181 194.023 181.487C189.605 182.165 190.554 181.53 181.347 181.989C179.731 182.066 177.045 182.222 174.493 180.491C174.025 180.173 173.666 179.863 173.435 179.644C174.204 179.813 175.256 180.004 176.513 180.124C177.308 180.202 180.18 180.392 184.329 179.707C193.189 178.238 200.557 173.718 206.609 166.492C209.834 162.643 212.45 158.355 214.457 153.609C214.906 152.542 215.534 151.737 216.4 151.066C219.118 148.954 222.081 147.492 225.338 146.772C225.972 146.63 226.633 146.454 227.396 146.701C226.921 148.82 226.274 150.826 225.601 152.825C223.35 159.542 220.292 165.772 216.278 171.422C215.586 172.397 214.88 173.372 214.027 174.191V174.177Z" fill="#D0E6EC"/>
<path d="M181.611 242.193C184.939 241.353 188.17 240.201 191.197 238.421C191.69 238.132 192.229 237.913 192.453 237.27C195.832 242.122 199.91 246.078 204.828 248.953C206.495 249.927 208.245 250.711 209.97 251.495C210.073 252.067 209.688 252.357 209.483 252.717C208.156 255.062 206.796 257.386 205.482 259.731C205.136 260.345 204.828 260.571 204.123 260.31C194.986 256.906 187.407 251.149 181.727 242.49C181.669 242.405 181.65 242.285 181.611 242.186V242.193Z" fill="#A3B0B3"/>
<path d="M297.488 153.191C299.527 151.764 301.348 150.005 303.194 148.31C303.964 147.604 304.605 146.728 305.304 145.93C306.9 149.306 307.811 152.951 308.535 156.638C309.439 161.236 309.779 165.898 309.696 170.602C309.67 171.972 309.67 172 308.503 172.304C306.208 172.897 303.938 173.561 301.681 174.31C301.437 174.395 301.187 174.465 300.924 174.338C300.617 173.9 300.745 173.37 300.745 172.883C300.764 166.328 299.86 159.957 297.622 153.848C297.545 153.643 297.533 153.41 297.488 153.191Z" fill="#A3B0B3"/>
<path d="M188.645 161.201C188.671 162.373 188.446 163.553 188.254 164.669C187.844 167.028 188.293 169.196 188.915 171.379C189.421 173.152 190.28 174.607 191.96 175.285C192.12 175.348 192.21 175.617 192.338 175.786C190.101 177.093 187.651 177.658 185.196 178.166C183.4 178.541 181.58 178.696 179.797 178.753C179.592 178.096 179.893 177.729 180.06 177.333C182.368 171.788 185.144 166.54 188.331 161.554C188.414 161.42 188.543 161.321 188.652 161.201H188.645Z" fill="#A3B0B3"/>
<path d="M82.2391 188.268C82.6507 188.691 82.5543 189.213 82.4642 189.734C82.1619 189.29 82.1747 188.783 82.2391 188.268Z" fill="#C30000"/>
<path d="M282.521 230.76C282.585 230.394 282.815 230.33 283.103 230.373C283.007 230.683 282.783 230.753 282.521 230.76Z" fill="#C30000"/>
<path d="M94.4644 218.849C94.6675 218.842 94.7945 218.94 94.8389 219.164C94.6485 219.15 94.5469 219.017 94.4644 218.849Z" fill="#C30000"/>
<path d="M282.119 230.986C282.214 230.831 282.335 230.733 282.512 230.761C282.442 230.965 282.309 231.035 282.119 230.986Z" fill="#C30000"/>
<path d="M354.234 283.605C353.995 283.715 353.907 283.584 353.9 283.343C354.07 283.343 354.165 283.453 354.234 283.605Z" fill="#EAD2CD"/>
<path d="M206.418 323.797C205.636 324.115 205.296 323.606 205.039 322.914C204.001 320.138 203.231 317.292 202.802 314.318C201.628 306.294 202.667 298.482 204.597 290.748C207.091 280.768 211.13 271.536 216.022 262.743C220.902 253.956 226.538 245.798 232.751 238.106C240.477 228.55 248.972 219.918 258.173 212.121C267.419 204.28 277.228 197.443 287.763 191.892C296.573 187.244 305.716 183.656 315.34 181.664C320.7 180.555 326.118 180.237 331.555 180.605C333.85 180.76 336.126 181.191 338.364 181.82C339.031 182.003 339.55 182.25 339.364 183.169C338.96 183.31 338.556 183.275 338.152 183.169C330.003 181.014 321.873 181.608 313.769 183.416C301.849 186.072 290.808 191.263 280.236 197.719C264.79 207.141 251.043 219.035 238.758 232.971C229.474 243.502 221.299 254.987 214.759 267.821C210.322 276.523 206.745 285.606 204.84 295.41C203.642 301.576 203.148 307.792 204.039 314.071C204.43 316.811 205.071 319.474 206.078 322.024C206.302 322.582 206.636 323.126 206.431 323.79L206.418 323.797Z" fill="#170400"/>
<path d="M78.9972 13.8149C79.1703 12.9603 79.7281 12.8261 80.4078 12.8896C85.2165 13.3134 89.7496 14.8037 94.0454 17.2123C100.143 20.6238 105.413 25.2643 110.139 30.6465C115.935 37.2364 120.827 44.6033 125.129 52.4576C132.291 65.5316 137.626 79.4814 141.659 94.0598C144.108 102.917 146.019 111.916 147.32 121.062C148.09 126.459 148.718 131.883 149.019 137.35C149.295 142.365 149.616 147.373 149.494 152.395C149.192 164.96 147.904 177.37 144.037 189.3C141.928 195.819 139.139 201.95 135.08 207.311C134.651 207.876 134.298 208.561 133.458 208.187C133.202 207.622 133.484 207.212 133.785 206.817C139.902 198.856 143.172 189.434 145.326 179.454C147.827 167.835 148.455 156.032 148.09 144.138C147.596 128.034 145.121 112.283 141.069 96.8144C138.036 85.2379 134.119 74.0356 129.149 63.2925C124.527 53.3052 119.128 43.8688 112.389 35.4212C107.427 29.1985 101.925 23.6469 95.3406 19.529C90.7434 16.6543 85.8641 14.7119 80.5296 14.38C79.9718 14.3446 79.3819 14.4011 78.9844 13.822L78.9972 13.8149Z" fill="#170400"/>
<path d="M29.6631 112.034C29.5541 115.233 28.4513 117.55 27.0535 119.733C25.2198 122.607 22.841 124.754 19.9429 126.217C18.7632 126.81 17.5193 127.078 16.2242 126.972C14.4994 126.824 13.3453 125.595 12.9991 123.73C12.4669 120.863 13.4992 118.44 14.7687 116.123C16.2434 113.439 18.2374 111.264 20.6675 109.618C22.1614 108.608 23.7836 108.064 25.5852 107.972C27.9768 107.845 29.8747 109.83 29.6631 112.041V112.034Z" fill="white"/>
<path d="M330.819 279.145C335.628 279.356 340.045 280.875 343.944 284.053C344.873 284.809 345.553 285.819 345.79 287.076C346.124 288.814 345.021 290.149 343.097 290.65C341.001 291.194 338.923 291.032 336.878 290.559C333.813 289.845 330.87 288.729 328.331 286.603C327.433 285.847 326.574 285.056 326.023 283.933C325.1 282.048 325.779 280.176 327.639 279.533C328.126 279.364 328.626 279.215 329.126 279.159C329.684 279.095 330.255 279.145 330.812 279.145H330.819Z" fill="white"/>
<path d="M322.759 276.901C322.74 278.448 321.689 279.359 320.4 278.999C318.97 278.603 317.765 277.791 316.854 276.491C316.008 275.283 316.117 273.871 317.053 273.037C317.604 272.55 318.246 272.571 318.81 272.726C320.22 273.108 321.477 273.857 322.343 275.213C322.676 275.735 322.817 276.329 322.759 276.894V276.901Z" fill="white"/>
<path d="M205.833 53.2156C205.807 54.0138 205.159 54.5294 204.416 54.3316C203.665 54.1338 202.96 53.7948 202.319 53.3286C200.171 51.7677 198.324 49.8535 196.895 47.4803C196.58 46.9576 196.343 46.3996 196.215 45.7922C196.023 44.874 196.548 44.2101 197.376 44.4078C198.068 44.5773 198.741 44.874 199.357 45.2837C201.735 46.8941 203.787 48.8788 205.243 51.5487C205.538 52.0926 205.691 52.6718 205.833 53.2227V53.2156Z" fill="#FEFEFE"/>
<path d="M194.205 41.7039C194.218 42.9612 193.904 43.3143 192.769 43.3143C191.621 43.3143 190.493 42.2054 190.486 41.0894C190.486 40.1571 191.031 39.5779 191.955 39.5497C193.179 39.5073 194.192 40.482 194.205 41.711V41.7039Z" fill="#FEFEFE"/>
<path d="M279.15 122.203C281.618 122.443 283.773 123.488 285.651 125.24C285.767 125.346 285.882 125.473 285.959 125.614C286.228 126.081 286.626 126.561 286.331 127.154C286.036 127.747 285.459 128.03 284.895 127.938C282.228 127.514 279.753 126.554 277.771 124.414C277.342 123.955 277.034 123.432 277.335 122.768C277.611 122.153 278.169 122.217 278.682 122.203C278.836 122.203 278.99 122.203 279.144 122.203H279.15Z" fill="#FEFEFE"/>
<path d="M289.187 128.118C289.898 128.089 290.732 128.93 290.732 129.686C290.732 130.35 290.033 131.028 289.385 130.999C288.808 130.978 288.032 130.074 288.013 129.41C287.994 128.76 288.558 128.146 289.187 128.118Z" fill="#FEFEFE"/>
<path d="M157.871 83.8042C157.903 85.4216 157.345 85.8242 156.326 85.3016C156.14 85.2098 155.954 85.1038 155.8 84.9555C153.883 83.0908 152.492 80.8588 151.889 78.083C151.767 77.5321 151.889 77.0871 152.293 76.741C152.684 76.402 153.094 76.5432 153.434 76.7975C155.819 78.5915 157.185 81.1484 157.877 83.7971L157.871 83.8042Z" fill="#FEFEFE"/>
<path d="M150.803 74.0135C150.777 74.8823 150.29 75.2707 149.61 74.9105C148.681 74.4161 148.155 73.5403 148.046 72.4243C147.963 71.5343 148.559 71.1246 149.328 71.4637C150.085 71.8027 150.829 73.0953 150.803 74.0135Z" fill="#FEFEFE"/>
<path d="M268.225 182.9C268.482 182.9 268.745 182.857 268.995 182.907C269.841 183.069 270.065 183.726 269.559 184.51C269.251 184.983 268.809 185.28 268.366 185.563C266.488 186.77 264.455 187.505 262.314 187.893C262.211 187.915 262.109 187.922 262.006 187.922C261.39 187.922 260.679 188.013 260.377 187.286C260.018 186.417 260.672 185.923 261.204 185.499C263.301 183.839 265.673 183.062 268.225 182.907V182.9Z" fill="#FEFEFE"/>
</svg>
