<svg width="376" height="444" viewBox="0 0 376 444" fill="none" xmlns="http://www.w3.org/2000/svg">
<path d="M232.42 357.296C234.822 356.583 237.241 355.825 239.681 355.147C248.309 352.75 257.05 351.041 265.936 350.263C267.7 350.107 267.773 350.181 268.578 351.976C273.968 363.994 279.358 376.012 284.752 388.025C285.828 390.419 285.969 390.858 283.227 391.156C253.828 394.364 226.938 405.017 202.752 423.501C195.681 428.905 189.196 435.072 183.454 442.122C183.271 442.346 183.101 442.589 182.896 442.787C182.269 443.397 181.877 443.355 181.424 442.61C181.242 442.312 181.118 441.974 180.974 441.649C175.463 429.362 169.949 417.077 164.443 404.787C163.625 402.96 163.62 402.855 164.936 401.334C166.676 399.322 168.465 397.358 170.231 395.372C170.375 395.211 170.589 395.09 170.538 394.583C168.757 394.356 166.922 394.134 165.092 393.886C142.025 390.742 119.809 384.392 98.9515 373.013C90.5252 368.416 82.4735 363.112 75.658 355.986C67.7645 347.733 63.4114 337.727 64.4285 325.519C64.7229 321.992 65.5795 318.56 66.178 315.082C67.5139 307.302 68.9276 299.54 70.3048 291.767C70.3559 291.485 70.4581 291.186 70.2075 290.748C69.2123 291.017 68.1636 291.284 67.1246 291.588C45.3981 297.953 24.1971 305.934 3.70183 316.065C3.09838 316.363 2.5217 316.722 1.91582 317.007C1.39024 317.253 1.05201 317.005 0.97415 316.405C0.935217 316.112 0.988749 315.806 0.988749 315.508C1.01308 267.182 1.04471 218.857 1.01795 170.528C1.01795 168.762 1.49487 167.957 2.99132 167.22C28.9347 154.468 55.8781 145.003 83.6026 138.065C93.0217 135.707 102.492 133.645 112.025 131.911C112.237 131.871 112.441 131.789 112.507 131.768C112.821 131.541 112.755 131.351 112.695 131.198C109.629 123.341 107.877 115.156 107.368 106.637C106.872 98.3359 107.626 90.228 110.196 82.3603C111.142 79.464 112.383 76.7209 114.013 74.2048C117.459 68.8823 122.148 66.39 128.136 67.2269C129.379 67.4012 130.233 67.0711 131.075 66.2527C132.484 64.8824 134.049 63.763 135.752 62.8733C138.331 61.5242 141.042 60.8166 143.923 60.9301C145.176 60.9803 145.208 60.9539 145.286 59.6549C145.543 55.3462 145.801 51.0348 146.013 46.7234C146.378 39.2887 146.4 31.8461 146.363 24.4035C146.349 21.4016 146.31 18.4024 146.069 15.4111C145.249 5.23066 153.683 -0.55393 161.046 0.557577C163.676 0.956241 165.744 2.5641 167.482 4.67887C169.307 6.89924 170.586 9.47868 171.616 12.2165C173.509 17.2487 174.521 22.5211 175.2 27.8806C176.168 35.5133 176.302 43.1909 176.154 50.8737C176.098 53.8096 175.847 56.7428 175.689 59.676C175.665 60.1381 175.524 60.6159 175.808 61.0912C176.492 61.0225 176.996 60.5103 177.567 60.183C183.823 56.6267 190.865 57.226 195.907 61.8357C199.396 65.0276 201.314 69.1965 202.075 74.0306C202.233 75.0339 202.304 76.053 202.382 77.0694C202.416 77.5156 202.479 77.8139 202.951 77.9987C209.414 80.5069 212.081 86.0803 213.071 92.9473C213.964 99.1438 212.901 105.124 211.205 111.017C210.051 115.027 208.652 118.932 207.056 122.757C206.905 123.119 206.584 123.454 206.796 123.932C207.141 124.165 207.533 124.054 207.903 124.064C212.543 124.212 217.188 124.252 221.823 124.51C227.946 124.848 234.068 125.242 240.18 125.801C255.933 127.238 271.583 129.469 287.12 132.653C303.469 136.006 319.572 140.383 335.379 146.033C348.769 150.82 361.813 156.514 374.459 163.294C375.559 163.883 375.941 164.541 375.938 165.869C375.895 214.133 375.885 262.401 375.9 310.665C375.9 312.97 375.705 313.372 373.62 312.234C358.682 304.094 343.119 297.65 327.14 292.382C312.277 287.482 297.179 283.662 281.883 280.726C271.272 278.691 260.61 277.072 249.893 275.86C242.09 274.978 234.27 274.347 226.434 273.862C217.049 273.281 207.657 272.996 198.262 273.014C189.145 273.03 180.03 273.313 170.92 273.856C160.875 274.456 150.858 275.345 140.864 276.541C132.959 277.489 125.077 278.661 117.218 280.005C116.274 280.166 115.936 280.544 115.773 281.539C115.262 284.668 114.704 287.791 114.026 290.88C113.789 291.952 114.05 292.33 114.899 292.757C121.921 296.303 129.177 299.17 136.579 301.61C147.743 305.288 159.109 308.012 170.63 309.995C179.529 311.526 188.468 312.603 197.457 313.266C205.903 313.889 214.353 314.095 222.809 313.768C227.775 313.575 232.744 313.279 237.676 312.543C237.839 312.519 238.007 312.511 238.173 312.498C239.754 312.371 239.961 312.593 239.679 314.28C239.053 317.995 238.409 321.707 237.759 325.416C235.953 335.723 234.138 346.028 232.33 356.335C232.279 356.623 232.201 356.924 232.425 357.293L232.42 357.296ZM178.117 431.749C178.21 432.802 178.808 433.623 179.208 434.534C180.191 436.783 181.22 439.009 182.4 441.62C182.736 441.074 182.891 440.746 183.108 440.477C185.629 437.377 188.349 434.497 191.189 431.746C191.756 431.197 192.427 430.745 192.797 429.98C195.466 427.749 198.08 425.431 200.815 423.3C225.288 404.254 252.56 393.231 282.477 389.831C282.944 389.778 283.465 389.881 283.862 389.358C283.733 389.028 283.616 388.695 283.472 388.379C278.178 376.572 272.866 364.773 267.605 352.948C267.111 351.839 266.549 351.395 265.44 351.696C264.911 351.839 264.34 351.775 263.79 351.839C253.767 352.982 243.939 355.163 234.248 358.167C232.476 358.716 231.498 359.464 231.384 361.568C231.274 363.566 230.608 365.504 230.466 367.537C231.333 367.82 232.106 367.788 232.87 367.857C235.158 368.065 237.34 368.67 239.275 370.069C241.701 371.827 242.978 374.278 242.976 377.48C242.976 378.877 242.747 380.218 242.329 381.535C241.557 383.951 240.326 386.074 238.832 388.022C235.408 392.484 231.16 395.784 226.344 398.216C220.648 401.091 214.733 402.82 208.358 401.82C207.66 401.711 206.922 401.814 206.212 401.904C203.083 402.3 199.944 402.554 196.793 402.63C195.389 402.665 193.985 402.783 192.444 402.873C192.761 403.599 193.004 404.127 193.223 404.666C194.233 407.145 194.588 409.711 194.118 412.396C193.522 415.789 191.456 418.178 188.663 418.579C186.685 418.862 184.923 418.146 183.441 416.784C179.896 413.523 178.609 409.318 179.285 404.373C179.38 403.686 179.614 403.021 179.789 402.321C176.071 401.785 172.458 401.302 168.859 400.721C167.676 400.531 166.888 400.909 166.156 401.909C165.177 403.248 165.114 403.2 165.778 404.676C168.779 411.361 171.769 418.051 174.796 424.72C175.867 427.083 176.772 429.541 178.117 431.751V431.749ZM249.188 222.062C253.139 218.505 256.291 214.215 258.95 209.476C259.602 208.312 259.588 208.291 258.641 207.245C248.626 196.141 239.146 184.513 229.936 172.622C228.975 171.381 227.982 170.175 226.887 169.074C225.223 167.397 223.257 166.344 221.03 165.945C217.371 165.288 213.903 165.892 210.652 167.915C207.443 169.911 204.163 171.764 200.773 173.377C197.9 174.745 194.994 176.033 192.104 177.359C187.493 178.993 182.911 180.741 178.195 182.003C177.397 182.216 177.37 182.858 177.217 183.468C176.582 185.979 175.633 188.331 174.193 190.417C171.72 193.994 168.508 196.217 164.335 196.632C160.367 197.025 156.809 195.742 153.507 193.466C150.965 191.713 148.811 189.485 146.96 186.913C146.587 186.398 146.269 185.884 145.507 185.963C143.787 186.14 142.103 185.707 140.414 185.435C139.91 185.353 139.385 185.126 138.879 185.387C138.903 186.121 139.183 186.649 139.385 187.201C145.02 202.628 150.68 218.046 156.284 233.486C157.206 236.028 158.646 238.066 160.586 239.74C163.036 241.855 165.81 243.312 168.762 244.379C177.421 247.508 186.332 247.78 195.286 246.76C203.102 245.871 210.723 243.864 218.169 241.126C228.179 237.449 237.542 232.427 245.864 225.275C247.025 224.277 248.251 223.345 249.188 222.064V222.062ZM233.968 338.781C234.053 338.567 234.18 338.363 234.221 338.142C235.211 332.555 236.192 326.963 237.172 321.374C237.513 319.433 237.868 317.493 238.185 315.547C238.447 313.923 238.377 313.863 236.946 314.037C236.014 314.151 235.08 314.238 234.145 314.333C225.505 315.215 216.847 315.492 208.171 315.217C205.472 315.133 202.776 314.803 200.073 315.009C193.97 314.378 187.853 313.865 181.765 313.092C171.168 311.748 160.669 309.752 150.286 307.062C137.961 303.867 125.895 299.817 114.371 294.022C114.125 293.898 113.894 293.721 113.485 293.908C112.923 296.939 112.349 300.052 111.767 303.162C111.281 305.771 111.281 305.76 109.076 304.759C102.519 301.787 95.7299 300.564 88.6516 301.67C86.7074 301.974 84.7657 302.333 82.9772 303.252C83.0234 303.484 83.0234 303.611 83.0721 303.714C85.7998 309.567 84.2474 317.245 79.685 321.868C75.894 325.712 71.5288 327.272 66.436 325.16C66.2218 325.07 66.0126 325.049 65.7984 325.186C65.4651 326.71 65.4943 328.273 65.5137 329.83C65.5308 331.272 65.6792 332.703 65.9152 334.121C67.1976 341.872 70.5749 348.444 75.6215 354.006C79.9916 358.822 85.0771 362.666 90.3597 366.199C101.575 373.702 113.643 379.13 126.167 383.423C137.674 387.367 149.424 390.15 161.367 391.98C168.703 393.104 176.078 393.801 183.48 394.092C190.61 394.372 197.732 394.205 204.849 393.564C210.75 393.031 216.597 392.157 222.39 390.852C225.15 390.232 225.118 390.192 225.639 387.217C227.902 374.256 230.201 361.301 232.44 348.335C232.99 345.157 233.725 342.009 233.97 338.773L233.968 338.781ZM112.079 125.197C112.113 125.432 112.113 125.68 112.184 125.902C114.405 132.877 117.342 139.48 122.021 144.882C124.425 147.657 126.253 150.622 127.391 154.162C127.591 154.783 127.883 155.371 128.056 156.002C128.316 156.955 128.827 157.428 129.749 157.689C132.747 158.545 135.779 159.147 138.85 159.561C139.993 159.714 140.03 159.722 140.261 158.479C140.621 156.528 141.19 154.656 141.998 152.876C145.327 145.539 151.816 142.215 158.909 144.272C163.386 145.571 166.91 148.488 169.932 152.198C170.886 153.367 171.769 154.6 172.523 155.928C172.866 156.536 173.275 156.736 173.898 156.528C175.998 155.828 178.181 155.421 180.195 154.421C181.738 154.167 183.154 153.468 184.597 152.884C191.671 150.025 198.374 146.405 204.384 141.384C204.779 141.054 205.161 140.708 205.543 140.362C205.818 140.111 205.981 139.85 205.708 139.454C204.341 137.466 202.985 135.467 201.581 133.403C201.073 134.065 200.696 134.583 200.294 135.074C199.961 135.48 199.562 135.982 199.043 135.533C198.464 135.034 198.966 134.567 199.279 134.176C200.523 132.634 201.564 130.939 202.511 129.176C205.389 123.821 207.635 118.164 209.453 112.292C211.151 106.798 212.409 101.237 212.047 95.3736C211.828 91.8543 211.098 88.5013 209.433 85.4387C207.796 82.4263 205.484 80.3247 202.387 79.2502C201.411 78.9122 200.581 79.0126 199.734 79.6436C197.973 80.961 196.576 82.6349 195.437 84.578C192.792 89.0953 191.802 94.0509 192.152 99.355C192.199 100.073 192.242 100.791 192.255 101.512C192.262 101.916 192.072 102.222 191.666 102.209C191.369 102.198 191.16 101.99 191.111 101.652C191.067 101.356 191.048 101.058 191.006 100.76C190.622 97.9399 190.838 95.1228 191.13 92.3216C191.7 86.8618 192.919 81.5894 195.384 76.7341C195.756 76.0002 196.179 75.2952 196.617 74.6035C196.839 74.2576 197.165 73.9171 197.583 74.2576C197.965 74.5692 197.834 74.9969 197.647 75.3929C197.357 76.0081 196.759 76.4648 196.8 77.3678C198.197 77.2146 199.557 77.2569 200.878 77.4232C200.966 77.2278 201.046 77.1275 201.056 77.0192C201.08 76.7816 201.087 76.5387 201.068 76.3011C200.722 72.2089 199.598 68.415 197.148 65.223C193.53 60.513 188.902 58.5619 183.286 59.544C179.682 60.175 176.616 62.002 173.954 64.6527C170.608 67.9846 168.431 72.0874 167.207 76.8239C167.039 77.4707 167.17 78.767 166.16 78.4449C165.216 78.1466 165.846 77.0536 166.012 76.3935C167.28 71.3587 169.618 66.9972 173.224 63.5122C173.942 62.8178 174.319 62.0971 174.37 61.0806C174.48 58.8655 174.689 56.6531 174.757 54.438C174.961 47.7795 175.051 41.1236 174.567 34.4678C174.141 28.5934 173.392 22.7824 171.852 17.1193C170.815 13.3069 169.467 9.63181 167.18 6.46361C164.681 2.99972 161.549 1.22026 157.364 1.94894C151.395 2.98916 147.02 8.11371 147.317 14.3947C147.451 17.2117 147.602 20.0288 147.636 22.8458C147.777 33.9503 147.485 45.0443 146.775 56.1224C146.31 63.3643 145.726 70.5931 144.682 77.7664C144.592 78.3921 144.633 79.2977 143.762 79.1208C142.989 78.965 143.305 78.1255 143.397 77.5975C143.811 75.2345 144.059 72.8557 144.154 70.4558C144.239 68.3384 144.054 66.2527 143.259 64.2937C142.626 62.7386 141.799 62.2845 140.373 62.5776C132.27 64.2462 126.094 72.2907 126.085 81.1881C126.085 81.7161 126.209 82.3973 125.51 82.4421C124.844 82.487 124.783 81.8639 124.778 81.291C124.778 81.0508 124.756 80.8105 124.749 80.5703C124.622 76.6232 125.89 73.1752 127.924 69.9885C128.182 69.5872 128.691 69.2809 128.533 68.5971C123.031 67.7496 118.654 69.7483 115.361 74.5771C112.546 78.7037 110.935 83.4058 109.879 88.3455C108.081 96.7597 108.088 105.24 109.371 113.731C109.96 117.633 110.694 121.503 112.086 125.186L112.079 125.197ZM288.641 280.488C288.83 280.753 289.118 280.747 289.385 280.811C293.923 281.864 298.471 282.859 302.992 283.987C327.249 290.041 350.745 298.481 373.145 310.362C373.568 310.586 373.958 311.019 374.586 310.776C374.586 310.314 374.586 309.836 374.586 309.361C374.586 287.63 374.588 265.899 374.586 244.168C374.586 243.632 374.517 243.096 374.483 242.56C374.52 241.662 374.59 240.765 374.59 239.867C374.603 215.675 374.612 191.486 374.615 167.294C374.615 164.464 374.987 165.177 372.739 163.973C354.343 154.128 335.116 146.727 315.324 141.001C288.976 133.376 262.155 128.877 234.983 126.752C229.087 126.29 223.179 125.981 217.273 125.688C213.852 125.519 210.421 125.545 206.995 125.432C206.168 125.405 205.713 125.691 205.333 126.512C204.591 128.117 203.771 129.69 202.871 131.195C202.421 131.95 202.518 132.444 202.971 133.096C205.732 137.075 208.47 141.07 211.2 145.072C211.589 145.642 212.039 145.938 212.696 146.041C214.772 146.366 216.85 146.701 218.908 147.139C227.858 149.045 236.418 152.14 244.314 157.185C250.585 161.193 256.064 166.17 260.045 172.876C264.972 181.179 266.401 190.145 264.123 199.744C262.563 206.326 259.463 212.024 255.456 217.172C249.329 225.04 241.774 230.927 233.406 235.632C218.955 243.759 203.484 247.898 187.32 249.018C177.305 249.712 167.326 249.144 157.464 246.924C148.531 244.915 139.991 241.773 132.139 236.641C126.248 232.789 121.084 228.047 117.24 221.782C112.412 213.917 110.726 205.339 112.514 196.04C113.605 190.375 115.914 185.29 118.977 180.585C119.422 179.904 119.98 179.296 120.247 178.486C120.8 178.153 121.08 177.546 121.481 177.058C124.055 173.921 126.632 170.792 129.881 168.43C130.873 167.709 130.886 167.698 130.426 166.444C128.467 161.098 126.494 155.759 124.54 150.41C124.333 149.845 124.116 149.317 123.695 148.892C119.549 144.713 116.461 139.699 113.974 134.229C113.556 133.31 113.147 133.086 112.198 133.263C98.752 135.755 85.4275 138.847 72.2125 142.514C71.6942 142.656 71.1078 142.656 70.6893 143.116C69.7938 143.126 68.9446 143.417 68.093 143.665C50.3741 148.837 32.9714 155.044 16.0141 162.674C11.8313 164.556 7.70939 166.595 3.54366 168.517C2.67013 168.918 2.15671 169.433 2.33434 170.523C2.37327 170.755 2.3392 171.001 2.3392 171.241C2.32217 199.269 2.30757 227.297 2.29054 255.325C2.27837 274.53 2.25891 293.737 2.25404 312.941C2.25404 313.617 2.12508 314.333 2.4487 315.082C2.91102 314.879 3.26871 314.742 3.6118 314.57C11.8046 310.518 20.136 306.827 28.5818 303.437C53.7636 293.328 79.6169 285.909 106.023 280.708C124.299 277.106 142.701 274.606 161.226 273.136C169.163 272.505 177.108 272.066 185.059 271.839C192.24 271.633 199.425 271.594 206.613 271.715C213.852 271.839 221.086 272.122 228.313 272.573C235.922 273.049 243.518 273.732 251.098 274.619C259.118 275.559 267.114 276.679 275.075 278.081C279.599 278.878 284.122 279.686 288.643 280.488H288.641ZM159.364 245.842C159.148 245.155 159.041 244.757 158.9 244.371C155.291 234.507 151.675 224.646 148.074 214.778C147.784 213.983 147.368 213.291 146.913 212.61C139.468 201.463 131.258 191.024 122.269 181.311C121.89 180.899 121.59 180.347 120.977 180.223C120.593 180.482 120.367 180.899 120.114 181.287C118.22 184.186 116.593 187.243 115.403 190.562C111.996 200.051 112.305 209.326 116.836 218.329C119.953 224.52 124.462 229.314 129.754 233.293C136.509 238.373 143.986 241.715 151.88 244.038C154.264 244.741 156.663 245.388 159.367 245.839L159.364 245.842ZM213.239 147.673C227.858 168.321 243.28 188.17 260.084 206.836C260.337 206.485 260.456 206.366 260.524 206.218C263.637 199.322 264.707 192.117 263.213 184.553C261.902 177.905 258.753 172.34 254.461 167.498C249.684 162.109 243.983 158.167 237.756 155.062C229.972 151.179 221.792 148.853 213.239 147.675V147.673ZM173.845 158.033C177.244 165.145 178.874 172.532 177.896 180.569C179.782 180.038 181.449 179.637 183.079 179.101C191.551 176.302 199.756 172.786 207.56 168.216C211.504 165.906 215.298 163.334 218.843 160.353C219.94 159.429 219.93 159.4 219.11 158.265C218.054 156.802 216.972 155.361 215.923 153.89C213.183 150.049 210.458 146.197 207.723 142.35C207.108 141.484 206.393 141.403 205.579 142.107C204.197 143.306 202.759 144.42 201.275 145.465C193.938 150.64 185.94 154.188 177.582 156.855C176.375 157.241 175.168 157.615 173.842 158.035L173.845 158.033ZM140.991 165.871C141.263 173.184 143.731 180.595 148.673 186.987C151.315 190.404 154.486 193.052 158.415 194.496C164.644 196.787 170.599 194.388 173.983 188.265C175.696 185.165 176.572 181.77 176.777 178.201C177.293 169.187 174.837 161.143 169.715 154.083C166.822 150.096 163.262 147.018 158.659 145.619C152.568 143.768 146.804 146.403 143.728 152.414C141.745 156.29 141.003 160.485 140.988 165.871H140.991ZM67.6501 314.145C67.9567 313.979 68.02 313.966 68.0492 313.923C68.2171 313.686 68.3874 313.448 68.5407 313.2C71.3682 308.659 75.1275 305.322 79.7045 303.067C86.6928 299.624 93.9609 299.149 101.412 300.731C104.127 301.306 106.755 302.201 109.315 303.342C110.232 303.751 110.315 303.685 110.519 302.629C111.266 298.761 111.984 294.885 112.733 291.017C112.879 290.262 112.66 289.916 111.957 289.787C110.215 289.462 108.478 289.146 106.709 289.048C100.261 288.697 93.9195 289.444 87.688 291.252C82.2132 292.842 77.0255 295.126 72.3342 298.658C70.7598 299.843 69.7598 301.206 69.4897 303.392C69.0517 306.94 68.3023 310.446 67.6526 314.145H67.6501ZM212.789 400.716C213.684 400.748 214.779 400.568 215.862 400.357C224.335 398.71 231.6 394.604 237.428 387.668C239.226 385.527 240.63 383.088 241.36 380.255C242.533 375.701 240.859 372.01 236.832 370.241C235.119 369.488 233.308 369.269 231.491 369.121C230.17 369.013 230.153 369.037 229.897 370.481C228.787 376.772 227.683 383.067 226.588 389.361C226.254 391.272 226.213 391.32 224.447 391.774C220.578 392.769 216.667 393.501 212.728 394.055C211.837 394.179 211.326 394.459 211.251 395.539C211.185 396.487 210.898 397.413 210.733 398.353C210.45 399.976 211.136 400.764 212.789 400.716ZM70.592 324.727C71.2538 324.716 71.9083 324.658 72.5605 324.508C77.8868 323.278 82.2472 318.1 82.9869 312.199C83.3154 309.58 83.0672 307.088 82.0696 304.67C81.7508 303.896 81.3907 303.751 80.6656 304.115C78.6071 305.153 76.6337 306.333 74.8599 307.878C70.5481 311.624 67.5991 316.342 66.3021 322.211C66.0199 323.494 66.0345 323.505 67.2049 323.998C68.2925 324.458 69.4191 324.722 70.5895 324.727H70.592ZM145.084 184.513C145.001 184.107 145.003 183.914 144.925 183.774C141.183 177.079 139.414 169.831 139.781 161.995C139.828 161.013 139.317 160.953 138.665 160.887C136.19 160.628 133.752 160.126 131.326 159.543C130.652 159.382 129.997 158.959 129.175 159.178C130.428 162.645 131.657 166.045 132.886 169.446C134.419 173.686 135.952 177.926 137.489 182.161C137.728 182.818 137.905 183.497 138.728 183.669C140.784 184.096 142.828 184.574 145.086 184.513H145.084ZM185.994 402.604C185.994 402.562 185.994 402.517 185.994 402.474C184.726 402.474 183.456 402.525 182.191 402.456C181.439 402.414 181.086 402.754 180.86 403.467C180.344 405.093 180.242 406.757 180.504 408.431C181.035 411.834 182.444 414.68 185.281 416.441C188.159 418.228 191.225 416.982 192.449 413.629C192.551 413.352 192.654 413.072 192.722 412.782C193.517 409.508 192.841 406.509 191.289 403.665C190.941 403.026 190.473 402.786 189.795 402.781C188.527 402.767 187.262 402.67 185.994 402.606V402.604Z" fill="#0F0F08"/>
<path d="M120.253 178.486C119.985 179.297 119.428 179.901 118.982 180.585C115.919 185.29 113.61 190.375 112.52 196.04C110.731 205.336 112.42 213.914 117.245 221.782C121.09 228.047 126.251 232.789 132.144 236.641C139.996 241.776 148.537 244.915 157.469 246.924C167.331 249.145 177.312 249.712 187.325 249.018C203.489 247.898 218.96 243.756 233.411 235.632C241.777 230.928 249.334 225.04 255.461 217.172C259.469 212.027 262.569 206.327 264.128 199.745C266.406 190.145 264.978 181.179 260.05 172.876C256.069 166.17 250.59 161.193 244.319 157.185C236.423 152.14 227.863 149.046 218.914 147.139C216.855 146.701 214.777 146.366 212.702 146.041C212.045 145.938 211.592 145.642 211.205 145.072C208.475 141.07 205.735 137.075 202.976 133.096C202.523 132.444 202.426 131.948 202.876 131.196C203.776 129.688 204.596 128.117 205.339 126.512C205.718 125.691 206.173 125.403 207 125.432C210.426 125.546 213.855 125.519 217.279 125.688C223.184 125.981 229.092 126.29 234.988 126.752C262.16 128.877 288.982 133.376 315.329 141.001C335.121 146.73 354.349 154.128 372.744 163.973C374.992 165.177 374.62 164.464 374.62 167.294C374.615 191.486 374.608 215.675 374.596 239.867C374.596 240.765 374.525 241.662 374.489 242.56C373.807 242.745 373.622 243.45 373.308 243.975C372.192 245.834 370.951 247.592 369.588 249.234C364.59 255.254 358.677 260.027 352.166 263.927C344.158 268.721 335.654 272.183 326.807 274.633C320.149 276.476 313.411 277.859 306.572 278.672C302.306 279.179 298.05 279.649 293.756 279.765C292.284 279.805 290.802 280.05 289.315 280.058C289.023 280.058 288.782 280.182 288.653 280.491C284.13 279.689 279.609 278.881 275.085 278.083C267.124 276.682 259.128 275.562 251.108 274.622C243.528 273.735 235.932 273.051 228.323 272.576C221.099 272.125 213.865 271.842 206.623 271.718C199.438 271.597 192.25 271.636 185.07 271.842C177.118 272.069 169.173 272.507 161.236 273.138C142.711 274.609 124.311 277.109 106.033 280.71C79.627 285.912 53.7737 293.33 28.5919 303.44C20.1485 306.829 11.8171 310.52 3.62189 314.573C3.2788 314.742 2.92112 314.882 2.4588 315.085C2.13517 314.333 2.26414 313.62 2.26414 312.944C2.27144 293.74 2.28847 274.532 2.30064 255.328C2.31767 227.3 2.3347 199.272 2.3493 171.244C2.3493 171.004 2.38093 170.758 2.34443 170.526C2.16681 169.436 2.68022 168.923 3.55376 168.519C7.71949 166.597 11.8414 164.559 16.0242 162.677C32.9815 155.047 50.3841 148.84 68.1031 143.668C68.9547 143.419 69.8039 143.129 70.6994 143.118C70.9914 143.731 71.5753 143.781 72.0912 143.953C72.9307 144.233 73.7896 144.457 74.6169 144.779C80.8704 147.213 86.6785 150.617 92.2653 154.482C96.5381 157.439 100.58 160.739 104.548 164.158C108.344 167.426 112.016 170.838 115.598 174.375C116.819 175.582 118.048 176.778 119.233 178.027C119.523 178.33 119.839 178.547 120.262 178.489L120.253 178.486ZM315.514 188.754C313.504 188.735 311.526 188.891 309.562 189.274C304.961 190.171 300.737 191.988 297.296 195.523C292.885 200.054 291.301 205.611 292.585 212.056C293.683 217.558 296.554 221.938 300.464 225.457C309.212 233.327 319.271 236.277 330.478 234.249C335.204 233.393 339.459 231.268 342.825 227.443C346.353 223.435 347.874 218.656 347.149 213.112C346.484 208.043 344.246 203.816 340.985 200.249C333.98 192.579 325.332 189.097 315.511 188.756L315.514 188.754ZM55.5718 236.868C57.1778 236.868 58.7716 236.76 60.3629 236.517C67.541 235.421 73.9624 232.475 79.4639 227.308C82.3425 224.607 84.6443 221.412 86.1432 217.584C89.3551 209.384 87.2771 201.128 80.6538 195.869C76.3591 192.46 71.4269 191.045 66.2125 190.765C59.2655 190.393 52.7274 192.141 46.6296 195.755C41.5831 198.747 37.3906 202.744 34.6556 208.333C32.7333 212.259 31.9206 216.43 32.7382 220.85C33.6993 226.043 36.5049 229.837 40.5587 232.607C45.1429 235.738 50.226 236.865 55.5718 236.865V236.868Z" fill="#DBF505"/>
<path d="M112.078 125.195C110.689 121.512 109.952 117.641 109.363 113.739C108.083 105.248 108.073 96.7706 109.871 88.3538C110.927 83.414 112.541 78.7093 115.353 74.5853C118.646 69.7565 123.023 67.7579 128.525 68.6054C128.683 69.2892 128.174 69.5928 127.916 69.9967C125.884 73.1834 124.614 76.6315 124.741 80.5785C124.748 80.8188 124.768 81.059 124.77 81.2993C124.772 81.8722 124.836 82.4926 125.502 82.4504C126.201 82.4029 126.074 81.7243 126.077 81.1963C126.084 72.299 132.262 64.2544 140.365 62.5858C141.791 62.2928 142.618 62.7495 143.251 64.3019C144.046 66.2609 144.231 68.3493 144.146 70.4641C144.049 72.864 143.803 75.2427 143.389 77.6057C143.297 78.1337 142.981 78.9733 143.754 79.1291C144.625 79.306 144.584 78.4004 144.674 77.7747C145.718 70.5987 146.302 63.3699 146.767 56.1306C147.477 45.0499 147.769 33.9586 147.628 22.854C147.592 20.037 147.441 17.2173 147.309 14.4029C147.012 8.11931 151.39 2.99476 157.356 1.95717C161.541 1.22849 164.673 3.00796 167.172 6.47185C169.459 9.64268 170.807 13.3151 171.844 17.1275C173.384 22.788 174.131 28.6017 174.559 34.476C175.043 41.1292 174.953 47.7877 174.749 54.4462C174.681 56.6639 174.472 58.8737 174.362 61.0888C174.311 62.1053 173.934 62.8287 173.216 63.5204C169.61 67.0054 167.272 71.367 166.004 76.4018C165.838 77.0592 165.208 78.1548 166.152 78.4532C167.162 78.7726 167.031 77.4763 167.199 76.8321C168.423 72.0957 170.6 67.9955 173.946 64.661C176.608 62.0103 179.674 60.1833 183.278 59.5523C188.894 58.5701 193.522 60.5212 197.14 65.2313C199.593 68.4206 200.714 72.2145 201.06 76.3094C201.079 76.547 201.07 76.7899 201.048 77.0275C201.038 77.1357 200.96 77.2361 200.87 77.4314C199.551 77.2651 198.189 77.2202 196.792 77.376C196.751 76.4704 197.349 76.0137 197.639 75.4012C197.826 75.0051 197.96 74.5774 197.575 74.2659C197.159 73.9279 196.831 74.2659 196.609 74.6117C196.171 75.3008 195.748 76.0084 195.376 76.7424C192.911 81.6003 191.694 86.87 191.122 92.3299C190.83 95.1311 190.616 97.9481 190.998 100.768C191.04 101.064 191.059 101.364 191.103 101.66C191.152 101.998 191.363 102.207 191.658 102.217C192.064 102.23 192.254 101.924 192.247 101.52C192.234 100.802 192.191 100.081 192.144 99.3633C191.794 94.0592 192.784 89.1036 195.429 84.5863C196.568 82.6431 197.965 80.9666 199.726 79.6518C200.573 79.0182 201.403 78.9178 202.379 79.2584C205.476 80.333 207.79 82.4345 209.425 85.447C211.09 88.5095 211.822 91.8625 212.039 95.3819C212.401 101.248 211.143 106.809 209.445 112.3C207.63 118.172 205.381 123.83 202.503 129.184C201.554 130.947 200.515 132.645 199.271 134.184C198.957 134.572 198.456 135.04 199.035 135.541C199.554 135.988 199.953 135.489 200.286 135.082C200.688 134.591 201.065 134.073 201.573 133.411C202.977 135.473 204.333 137.471 205.7 139.462C205.973 139.858 205.81 140.122 205.535 140.37C205.153 140.716 204.771 141.062 204.376 141.392C198.369 146.416 191.663 150.033 184.589 152.893C183.146 153.476 181.73 154.176 180.187 154.429C180.088 154.091 180.037 153.724 179.881 153.418C177.708 149.093 174.771 145.497 171.024 142.717C163.396 137.054 154.984 135.932 146.088 137.772C144.144 138.174 142.204 138.559 140.211 138.512C138.17 138.461 136.102 138.683 134.092 138.393C130.661 137.899 127.323 136.956 124.137 135.351C120.025 133.276 116.426 130.557 113.604 126.66C113.2 126.103 112.976 125.189 112.068 125.208L112.078 125.195Z" fill="#D0E6EC"/>
<path d="M233.96 338.78C233.717 342.017 232.98 345.164 232.43 348.343C230.191 361.309 227.892 374.264 225.629 387.224C225.108 390.2 225.14 390.239 222.38 390.86C216.587 392.161 210.74 393.038 204.839 393.571C197.722 394.213 190.6 394.382 183.47 394.099C176.068 393.809 168.693 393.112 161.357 391.987C149.415 390.155 137.664 387.375 126.157 383.43C113.634 379.135 101.565 373.709 90.3497 366.206C85.0671 362.674 79.9841 358.829 75.6115 354.014C70.5649 348.454 67.1876 341.88 65.9053 334.128C65.6717 332.71 65.5232 331.279 65.5038 329.838C65.4843 328.278 65.4551 326.717 65.7885 325.194C66.0026 325.059 66.2143 325.08 66.426 325.167C71.5188 327.28 75.884 325.719 79.675 321.875C84.2374 317.252 85.7898 309.575 83.0621 303.721C83.0135 303.618 83.0135 303.492 82.9672 303.259C84.7557 302.338 86.6974 301.982 88.6416 301.678C95.7199 300.569 102.506 301.794 109.066 304.767C111.271 305.765 111.271 305.775 111.757 303.17C112.339 300.059 112.913 296.947 113.475 293.916C113.884 293.728 114.115 293.905 114.361 294.029C125.887 299.824 137.951 303.875 150.276 307.069C160.656 309.759 171.158 311.755 181.755 313.099C187.843 313.87 193.96 314.385 200.063 315.016C200.15 315.953 200.939 315.821 201.45 316.003C202.754 316.468 204.109 316.774 205.418 317.226C212.28 319.591 218.896 322.535 224.694 327.293C227.838 329.87 230.649 332.797 232.673 336.531C233.084 337.291 233.247 338.228 233.958 338.785L233.96 338.78ZM138.253 367.146C139.178 367.101 140.117 367.069 141.054 367.003C146.312 366.634 151.322 365.34 155.792 362.169C162.997 357.058 165.442 348.736 162.338 340.021C160.6 335.147 157.744 331.116 154.096 327.805C143.446 318.137 131.168 313.923 117.332 315.423C112.723 315.922 108.373 317.503 104.536 320.452C101.024 323.15 98.5644 326.667 97.6349 331.29C96.7224 335.828 97.5838 340.108 99.4355 344.198C101.472 348.697 104.458 352.377 108.042 355.474C116.872 363.101 127.021 366.771 138.256 367.149L138.253 367.146ZM211.472 353.932C211.472 353.573 211.484 353.211 211.472 352.852C211.117 343.39 202.963 336.929 194.525 339.327C187.271 341.386 182.12 349.193 182.336 357.158C182.58 366.095 189.191 372.566 197.369 371.603C205.209 370.676 211.477 362.829 211.475 353.932H211.472Z" fill="#DBF505"/>
<path d="M249.195 222.059C248.258 223.34 247.032 224.272 245.871 225.27C237.549 232.422 228.184 237.444 218.176 241.121C210.728 243.859 203.109 245.866 195.293 246.755C186.339 247.775 177.428 247.503 168.769 244.374C165.817 243.307 163.046 241.85 160.593 239.735C158.653 238.061 157.213 236.026 156.291 233.481C150.687 218.041 145.027 202.622 139.392 187.196C139.19 186.644 138.91 186.116 138.886 185.382C139.392 185.121 139.917 185.348 140.421 185.43C142.112 185.702 143.794 186.135 145.514 185.958C146.276 185.879 146.594 186.393 146.967 186.908C148.821 189.48 150.972 191.708 153.514 193.461C156.814 195.737 160.374 197.02 164.342 196.627C168.513 196.212 171.727 193.989 174.2 190.412C175.64 188.326 176.589 185.974 177.224 183.463C177.377 182.853 177.404 182.211 178.202 181.998C182.918 180.736 187.497 178.988 192.111 177.354C192.13 177.982 192.456 178.484 192.702 179.012C196.13 186.391 200.092 193.408 204.768 199.94C206.693 202.628 208.718 205.22 210.888 207.678C212.11 209.064 213.47 210.279 214.774 211.562C217.48 214.223 220.436 216.518 223.621 218.411C227.843 220.919 232.315 222.609 237.158 223.253C240.622 223.712 243.934 223.295 247.26 222.44C247.9 222.276 248.509 221.948 249.192 222.059H249.195Z" fill="#A3B0B3"/>
<path d="M178.117 431.747C176.771 429.537 175.866 427.079 174.795 424.716C171.768 418.045 168.78 411.355 165.777 404.672C165.116 403.197 165.179 403.244 166.155 401.905C166.887 400.905 167.675 400.527 168.858 400.717C172.457 401.298 176.07 401.779 179.788 402.317C179.613 403.017 179.379 403.682 179.284 404.369C178.608 409.314 179.895 413.52 183.44 416.78C184.922 418.142 186.684 418.858 188.662 418.575C191.456 418.177 193.524 415.785 194.118 412.392C194.587 409.707 194.232 407.141 193.222 404.662C193.003 404.123 192.76 403.593 192.444 402.869C193.984 402.779 195.385 402.661 196.792 402.626C199.943 402.552 203.082 402.296 206.211 401.9C206.921 401.81 207.659 401.705 208.357 401.816C214.732 402.816 220.647 401.09 226.344 398.212C231.159 395.78 235.41 392.48 238.831 388.018C240.325 386.07 241.559 383.947 242.328 381.531C242.749 380.214 242.975 378.873 242.975 377.476C242.975 374.274 241.7 371.823 239.274 370.065C237.339 368.663 235.157 368.061 232.87 367.853C232.106 367.784 231.332 367.816 230.466 367.533C230.607 365.5 231.273 363.562 231.383 361.564C231.497 359.46 232.475 358.712 234.247 358.163C243.936 355.159 253.766 352.975 263.789 351.835C264.339 351.771 264.911 351.835 265.439 351.692C266.548 351.391 267.11 351.837 267.604 352.944C272.865 364.769 278.177 376.568 283.471 388.375C283.615 388.694 283.729 389.027 283.861 389.354C283.464 389.877 282.943 389.774 282.476 389.827C252.559 393.227 225.288 404.25 200.814 423.296C198.076 425.427 195.466 427.745 192.796 429.976C192.341 429.205 191.911 429.891 191.541 430.058C187.314 431.94 183.068 433.527 178.445 431.715C178.353 431.679 178.228 431.734 178.119 431.747H178.117ZM267.324 373.64C267.286 368.8 264.059 364.222 259.901 363.114C256.27 362.145 252.903 364.434 252.156 368.381C251.243 373.186 253.854 378.611 258.02 380.499C259.253 381.059 260.538 381.386 261.901 381.138C265.205 380.533 267.356 377.568 267.327 373.643L267.324 373.64Z" fill="#DBF505"/>
<path d="M249.193 222.058C248.51 221.947 247.901 222.274 247.261 222.438C243.935 223.293 240.624 223.711 237.159 223.251C232.316 222.607 227.842 220.917 223.622 218.409C220.437 216.516 217.478 214.222 214.775 211.561C213.471 210.277 212.111 209.063 210.889 207.677C208.719 205.216 206.694 202.624 204.77 199.939C200.093 193.407 196.132 186.389 192.703 179.01C192.457 178.479 192.129 177.978 192.112 177.352C195.003 176.029 197.908 174.738 200.781 173.371C204.171 171.758 207.451 169.907 210.66 167.908C213.911 165.886 217.379 165.279 221.038 165.939C223.265 166.34 225.231 167.393 226.895 169.067C227.99 170.171 228.983 171.375 229.944 172.616C239.154 184.507 248.634 196.134 258.649 207.239C259.593 208.287 259.61 208.305 258.958 209.47C256.301 214.209 253.15 218.499 249.196 222.055L249.193 222.058Z" fill="#D0E6EC"/>
<path d="M288.635 280.489C288.764 280.18 289.005 280.056 289.297 280.056C290.784 280.048 292.268 279.803 293.738 279.763C298.032 279.647 302.288 279.177 306.554 278.67C313.396 277.857 320.134 276.473 326.789 274.631C335.636 272.181 344.14 268.719 352.148 263.925C358.659 260.025 364.572 255.252 369.57 249.232C370.933 247.593 372.174 245.834 373.291 243.973C373.604 243.448 373.789 242.743 374.471 242.558C374.507 243.094 374.573 243.63 374.573 244.166C374.578 265.897 374.573 287.628 374.573 309.359C374.573 309.837 374.573 310.315 374.573 310.774C373.945 311.017 373.556 310.584 373.132 310.36C350.732 298.479 327.236 290.039 302.979 283.985C298.458 282.857 293.908 281.862 289.372 280.809C289.105 280.748 288.82 280.751 288.628 280.487L288.635 280.489Z" fill="#A5BC00"/>
<path d="M159.365 245.844C156.662 245.389 154.263 244.745 151.878 244.043C143.987 241.717 136.51 238.377 129.753 233.298C124.46 229.316 119.949 224.524 116.834 218.333C112.304 209.33 111.995 200.058 115.401 190.567C116.591 187.25 118.219 184.191 120.112 181.292C120.365 180.904 120.591 180.486 120.976 180.228C121.589 180.352 121.888 180.904 122.268 181.315C131.259 191.029 139.466 201.468 146.912 212.614C147.367 213.296 147.783 213.987 148.073 214.782C151.671 224.651 155.29 234.509 158.898 244.376C159.039 244.761 159.146 245.16 159.363 245.846L159.365 245.844Z" fill="#A5BC00"/>
<path d="M120.255 178.487C119.832 178.545 119.516 178.328 119.226 178.025C118.041 176.776 116.81 175.58 115.591 174.373C112.011 170.833 108.337 167.422 104.541 164.156C100.573 160.74 96.5311 157.437 92.2583 154.48C86.6716 150.615 80.8658 147.211 74.6099 144.777C73.7826 144.455 72.9261 144.231 72.0842 143.951C71.5684 143.779 70.9844 143.729 70.6924 143.117C71.1109 142.657 71.6998 142.66 72.2156 142.515C85.4282 138.847 98.7551 135.756 112.201 133.263C113.15 133.087 113.559 133.308 113.978 134.23C116.464 139.7 119.552 144.716 123.698 148.893C124.119 149.318 124.336 149.849 124.543 150.411C126.497 155.758 128.47 161.099 130.429 166.445C130.889 167.699 130.876 167.71 129.884 168.43C126.635 170.793 124.058 173.925 121.484 177.058C121.085 177.544 120.803 178.154 120.25 178.487H120.255Z" fill="#A5BC00"/>
<path d="M213.246 147.675C221.796 148.853 229.979 151.179 237.763 155.063C243.99 158.17 249.693 162.109 254.467 167.498C258.76 172.34 261.906 177.905 263.22 184.553C264.714 192.117 263.643 199.322 260.531 206.218C260.465 206.366 260.344 206.485 260.091 206.836C243.287 188.17 227.865 168.322 213.246 147.673V147.675Z" fill="#A5BC00"/>
<path d="M173.853 158.034C175.181 157.617 176.388 157.239 177.592 156.854C185.951 154.19 193.949 150.639 201.285 145.464C202.769 144.419 204.207 143.305 205.589 142.106C206.401 141.402 207.115 141.483 207.733 142.349C210.468 146.196 213.193 150.048 215.933 153.889C216.982 155.36 218.062 156.801 219.121 158.264C219.941 159.399 219.951 159.428 218.853 160.352C215.305 163.333 211.512 165.904 207.57 168.215C199.767 172.785 191.562 176.304 183.089 179.1C181.459 179.639 179.792 180.037 177.906 180.568C178.882 172.531 177.254 165.144 173.855 158.031L173.853 158.034ZM206.035 157.746C206.037 156.001 204.67 154.362 203.219 154.377C202.09 154.391 201.373 155.267 201.382 156.624C201.395 158.367 202.777 160.046 204.188 160.033C205.249 160.022 206.032 159.053 206.035 157.746ZM208.942 150.314C207.879 150.304 207.178 150.969 207.057 152.11C206.894 153.622 207.916 155.275 209.264 155.671C210.325 155.983 211.327 155.434 211.643 154.367C212.181 152.548 210.707 150.33 208.945 150.314H208.942Z" fill="#FA4616"/>
<path d="M112.079 125.196C112.987 125.175 113.211 126.091 113.614 126.648C116.437 130.545 120.036 133.264 124.148 135.339C127.333 136.947 130.669 137.887 134.102 138.381C136.112 138.671 138.181 138.449 140.222 138.5C142.215 138.547 144.154 138.164 146.098 137.76C154.994 135.92 163.404 137.042 171.034 142.705C174.779 145.485 177.719 149.081 179.891 153.406C180.045 153.712 180.098 154.079 180.198 154.417C178.183 155.418 176.001 155.824 173.901 156.524C173.275 156.732 172.869 156.529 172.526 155.925C171.772 154.597 170.888 153.364 169.935 152.194C166.912 148.485 163.387 145.565 158.912 144.268C151.819 142.212 145.329 145.536 142.001 152.873C141.193 154.655 140.624 156.524 140.263 158.475C140.035 159.718 139.996 159.711 138.852 159.557C135.781 159.143 132.75 158.541 129.752 157.686C128.83 157.422 128.319 156.949 128.058 155.999C127.886 155.37 127.594 154.781 127.394 154.158C126.255 150.618 124.428 147.653 122.024 144.878C117.345 139.476 114.408 132.873 112.186 125.898C112.116 125.676 112.116 125.428 112.082 125.193L112.079 125.196Z" fill="#A3B0B3"/>
<path d="M140.99 165.871C141.004 160.485 141.746 156.293 143.73 152.414C146.805 146.403 152.567 143.768 158.66 145.618C163.264 147.018 166.824 150.096 169.717 154.083C174.839 161.143 177.291 169.187 176.778 178.201C176.574 181.77 175.7 185.165 173.985 188.265C170.6 194.385 164.646 196.787 158.417 194.496C154.487 193.052 151.316 190.404 148.674 186.987C143.732 180.595 141.262 173.184 140.992 165.871H140.99ZM168.639 177.073C168.683 175.252 168.546 173.522 168.235 171.812C167.103 165.612 164.804 160.058 160.582 155.582C159.105 154.017 157.421 152.779 155.431 152.084C151.859 150.838 148.555 152.013 146.389 155.332C144.98 157.491 144.25 159.949 144.043 162.545C143.338 171.331 145.576 179.151 150.825 185.905C152.411 187.946 154.341 189.548 156.657 190.525C160.41 192.106 163.996 190.905 166.252 187.288C166.712 186.549 167.108 185.744 167.427 184.92C168.405 182.391 168.736 179.729 168.639 177.076V177.073ZM174.167 169.472C174.109 167.5 173.593 165.71 172.34 164.24C171.756 163.553 171.033 163.075 170.135 163.421C169.337 163.73 168.979 164.469 168.843 165.348C168.524 167.41 169.072 169.256 170.111 170.935C170.709 171.907 171.486 172.696 172.712 172.39C173.6 172.168 174.111 171.159 174.165 169.652C174.165 169.591 174.165 169.533 174.165 169.472H174.167ZM159.023 147.556C157.482 147.588 156.852 148.734 157.628 149.98C158.643 151.612 160.115 152.501 161.938 152.52C163.276 152.533 163.836 151.466 163.137 150.236C162.174 148.536 160.629 147.828 159.023 147.554V147.556ZM165.517 155.691C166.113 155.67 166.578 155.049 166.541 154.326C166.498 153.423 165.702 152.573 164.933 152.612C164.3 152.644 163.862 153.217 163.904 153.953C163.955 154.833 164.777 155.72 165.517 155.691Z" fill="#FA4616"/>
<path d="M67.6553 314.144C68.3049 310.445 69.0544 306.939 69.4924 303.391C69.7625 301.205 70.7625 299.84 72.3368 298.657C77.0282 295.127 82.2183 292.841 87.6907 291.251C93.9222 289.443 100.263 288.696 106.711 289.047C108.48 289.142 110.22 289.461 111.96 289.786C112.663 289.918 112.882 290.261 112.736 291.016C111.987 294.884 111.269 298.76 110.522 302.628C110.317 303.684 110.235 303.75 109.317 303.341C106.758 302.2 104.13 301.305 101.414 300.729C93.966 299.148 86.6955 299.623 79.7072 303.066C75.1278 305.321 71.3684 308.658 68.5434 313.199C68.3901 313.447 68.2198 313.685 68.0519 313.922C68.0227 313.962 67.9619 313.975 67.6528 314.144H67.6553Z" fill="#A5BC00"/>
<path d="M212.78 400.716C211.13 400.765 210.445 399.978 210.724 398.353C210.887 397.413 211.174 396.487 211.242 395.539C211.318 394.459 211.829 394.179 212.719 394.055C216.659 393.503 220.569 392.769 224.438 391.774C226.204 391.32 226.246 391.272 226.579 389.361C227.674 383.067 228.779 376.772 229.888 370.481C230.144 369.034 230.163 369.013 231.482 369.121C233.3 369.269 235.108 369.488 236.823 370.241C240.85 372.01 242.524 375.701 241.351 380.255C240.621 383.088 239.22 385.527 237.419 387.668C231.594 394.604 224.328 398.71 215.853 400.357C214.771 400.568 213.673 400.748 212.78 400.716Z" fill="#A5BC00"/>
<path d="M233.966 338.785C233.254 338.225 233.093 337.288 232.682 336.53C230.657 332.797 227.844 329.871 224.703 327.292C218.902 322.534 212.289 319.591 205.427 317.225C204.118 316.774 202.762 316.467 201.458 316.003C200.947 315.821 200.159 315.953 200.071 315.015C202.777 314.809 205.471 315.139 208.169 315.224C216.846 315.496 225.501 315.221 234.144 314.339C235.078 314.244 236.013 314.157 236.945 314.044C238.376 313.869 238.449 313.928 238.183 315.554C237.867 317.5 237.512 319.44 237.171 321.381C236.19 326.97 235.21 332.559 234.22 338.148C234.181 338.37 234.054 338.576 233.966 338.787V338.785Z" fill="#A5BC00"/>
<path d="M70.5914 324.728C69.421 324.72 68.2944 324.458 67.2067 323.999C66.0363 323.505 66.0217 323.495 66.304 322.212C67.6009 316.34 70.5476 311.625 74.8617 307.878C76.6356 306.336 78.609 305.154 80.6675 304.116C81.3926 303.752 81.7503 303.894 82.0715 304.67C83.0691 307.089 83.3173 309.581 82.9888 312.2C82.2491 318.101 77.8887 323.281 72.5623 324.509C71.9102 324.659 71.2557 324.714 70.5938 324.728H70.5914Z" fill="#A5BC00"/>
<path d="M145.081 184.511C142.825 184.571 140.779 184.094 138.723 183.666C137.9 183.494 137.723 182.816 137.484 182.158C135.944 177.921 134.414 173.683 132.881 169.443C131.652 166.043 130.423 162.642 129.17 159.176C129.992 158.957 130.649 159.379 131.321 159.54C133.747 160.124 136.185 160.625 138.66 160.884C139.312 160.953 139.823 161.011 139.776 161.993C139.409 169.826 141.178 177.076 144.92 183.771C144.998 183.911 144.996 184.104 145.079 184.511H145.081Z" fill="#FA4616"/>
<path d="M185.99 402.604C187.258 402.668 188.523 402.768 189.791 402.779C190.467 402.786 190.937 403.024 191.285 403.663C192.837 406.506 193.514 409.506 192.718 412.779C192.648 413.067 192.545 413.347 192.446 413.627C191.222 416.98 188.156 418.223 185.277 416.439C182.443 414.678 181.034 411.832 180.501 408.428C180.24 406.755 180.343 405.091 180.856 403.465C181.082 402.752 181.435 402.412 182.187 402.454C183.452 402.525 184.723 402.472 185.99 402.472C185.99 402.515 185.99 402.559 185.99 402.602V402.604Z" fill="#A5BC00"/>
<path d="M178.115 431.75C178.225 431.737 178.349 431.684 178.441 431.719C183.062 433.53 187.31 431.943 191.537 430.061C191.909 429.894 192.338 429.208 192.793 429.979C192.423 430.744 191.751 431.196 191.184 431.745C188.345 434.496 185.624 437.379 183.103 440.476C182.887 440.743 182.731 441.073 182.395 441.619C181.215 439.008 180.186 436.783 179.203 434.533C178.806 433.622 178.205 432.801 178.113 431.748L178.115 431.75Z" fill="#A5BC00"/>
<path d="M315.52 188.751C325.34 189.092 333.988 192.577 340.993 200.244C344.251 203.811 346.492 208.037 347.157 213.107C347.882 218.651 346.361 223.43 342.833 227.437C339.465 231.263 335.212 233.391 330.486 234.244C319.279 236.271 309.22 233.322 300.472 225.452C296.562 221.933 293.691 217.553 292.593 212.05C291.309 205.606 292.89 200.048 297.304 195.518C300.745 191.983 304.969 190.166 309.57 189.269C311.534 188.886 313.515 188.733 315.522 188.748L315.52 188.751ZM315.675 190.142C309.47 190.28 304.331 191.47 299.886 195.021C294.915 198.992 292.666 204.325 293.705 211.023C294.399 215.48 296.465 219.263 299.394 222.403C307.137 230.693 316.541 234.162 327.318 233.314C331.985 232.947 336.343 231.424 340.054 228.245C344.728 224.245 346.818 219.039 345.753 212.549C345.052 208.275 343.1 204.671 340.375 201.585C333.436 193.725 324.734 190.422 315.675 190.142Z" fill="#0F0F08"/>
<path d="M55.563 236.87C50.2171 236.87 45.1341 235.743 40.5498 232.612C36.496 229.842 33.6905 226.048 32.7293 220.855C31.9118 216.433 32.7245 212.264 34.6467 208.338C37.3817 202.752 41.5766 198.754 46.6208 195.76C52.7161 192.146 59.2567 190.398 66.2036 190.771C71.4181 191.05 76.3503 192.463 80.645 195.874C87.2683 201.13 89.3463 209.386 86.1344 217.589C84.6355 221.417 82.3336 224.612 79.4551 227.313C73.9511 232.477 67.5322 235.426 60.3541 236.522C58.7627 236.765 57.1689 236.876 55.563 236.873V236.87ZM55.4584 235.466C62.3153 235.445 68.6709 233.47 74.4913 229.557C78.7494 226.695 82.2606 223.007 84.5114 218.072C88.154 210.086 86.2487 201.936 79.5768 196.764C78.2628 195.745 76.8466 194.942 75.3526 194.303C70.4594 192.207 65.4079 191.747 60.2056 192.479C54.2807 193.313 48.8399 195.465 43.9637 199.216C40.107 202.181 36.9705 205.833 35.0945 210.622C33.8292 213.848 33.3523 217.188 34.0238 220.652C35.0555 225.966 38.102 229.602 42.3675 232.131C46.4383 234.544 50.8498 235.49 55.4608 235.468L55.4584 235.466Z" fill="#0F0F08"/>
<path d="M138.266 367.143C127.029 366.766 116.882 363.099 108.052 355.469C104.468 352.374 101.485 348.694 99.4456 344.192C97.5939 340.103 96.7325 335.823 97.645 331.285C98.5745 326.659 101.034 323.145 104.546 320.447C108.383 317.498 112.734 315.919 117.342 315.417C131.175 313.918 143.456 318.131 154.106 327.8C157.754 331.11 160.61 335.145 162.348 340.016C165.452 348.731 163.007 357.053 155.802 362.164C151.332 365.335 146.322 366.631 141.064 366.998C140.127 367.064 139.188 367.093 138.263 367.141L138.266 367.143ZM138.073 365.77C139.28 365.699 140.108 365.657 140.935 365.601C145.738 365.279 150.327 364.115 154.5 361.404C161.708 356.72 164.185 348.575 161 340.132C159.284 335.585 156.561 331.823 153.118 328.726C142.794 319.444 130.922 315.375 117.559 316.822C112.768 317.339 108.247 318.966 104.436 322.311C99.3993 326.733 97.5525 332.409 99.1439 339.292C100.224 343.965 102.582 347.854 105.687 351.197C114.746 360.955 125.902 365.205 138.071 365.768L138.073 365.77Z" fill="#0F0F08"/>
<path d="M211.486 353.933C211.486 362.83 205.22 370.677 197.38 371.603C189.204 372.567 182.591 366.096 182.347 357.159C182.131 349.196 187.282 341.389 194.536 339.327C202.974 336.93 211.128 343.39 211.483 352.853C211.498 353.212 211.483 353.574 211.483 353.933H211.486ZM183.656 356.536C183.618 366.576 191.995 372.926 200.548 369.335C206.787 366.716 210.824 359.564 210.152 352.314C209.352 343.673 202.008 338.358 194.343 340.872C188.097 342.921 183.686 349.386 183.656 356.536Z" fill="#0F0F08"/>
<path d="M267.332 373.643C267.364 377.568 265.21 380.533 261.906 381.138C260.543 381.386 259.259 381.059 258.025 380.499C253.859 378.611 251.248 373.188 252.161 368.381C252.91 364.434 256.275 362.145 259.906 363.114C264.064 364.225 267.293 368.803 267.33 373.64L267.332 373.643ZM266.045 373.706C266.055 369.78 263.441 365.814 260.071 364.64C256.915 363.541 254.12 365.289 253.424 368.795C252.538 373.276 255.436 378.376 259.521 379.556C260.336 379.791 261.139 379.886 261.972 379.691C264.454 379.11 266.035 376.792 266.042 373.703L266.045 373.706Z" fill="#0F0F08"/>
<path d="M206.023 157.745C206.02 159.052 205.237 160.021 204.176 160.032C202.764 160.045 201.382 158.366 201.37 156.623C201.36 155.266 202.081 154.39 203.207 154.377C204.658 154.361 206.027 156 206.023 157.745ZM204.735 157.642C204.699 156.71 203.957 155.773 203.263 155.794C202.74 155.81 202.662 156.23 202.653 156.658C202.633 157.587 203.56 158.741 204.222 158.606C204.704 158.508 204.74 158.073 204.735 157.64V157.642Z" fill="#0F0F08"/>
<path d="M208.929 150.31C210.69 150.326 212.165 152.544 211.627 154.363C211.313 155.429 210.308 155.979 209.247 155.667C207.902 155.271 206.877 153.618 207.041 152.106C207.165 150.965 207.865 150.3 208.926 150.31H208.929ZM210.423 153.637C210.498 152.75 209.778 151.773 209.016 151.733C208.517 151.709 208.34 152.029 208.325 152.512C208.301 153.331 208.948 154.218 209.654 154.321C210.128 154.389 210.377 154.141 210.42 153.634L210.423 153.637Z" fill="#0F0F08"/>
<path d="M168.637 177.076C168.732 179.729 168.401 182.39 167.426 184.92C167.107 185.743 166.713 186.549 166.25 187.288C163.995 190.905 160.408 192.106 156.656 190.525C154.337 189.548 152.408 187.945 150.824 185.905C145.578 179.151 143.337 171.331 144.042 162.544C144.251 159.952 144.979 157.491 146.388 155.331C148.553 152.013 151.858 150.835 155.43 152.084C157.42 152.778 159.104 154.019 160.581 155.582C164.803 160.057 167.102 165.612 168.234 171.811C168.545 173.525 168.681 175.254 168.637 177.073V177.076ZM148.342 155.104C146.359 157.021 145.655 159.616 145.359 162.307C144.449 170.6 146.655 177.955 151.359 184.471C152.629 186.232 154.177 187.7 156.036 188.708C157.364 189.429 158.734 190.057 160.287 189.706C162.287 189.72 163.715 188.579 164.895 186.976C165.912 185.596 166.501 183.988 166.89 182.288C167.961 177.609 167.467 173.002 166.177 168.485C164.752 163.484 162.481 159.014 158.693 155.617C157.269 154.339 155.678 153.383 153.838 153.058C151.69 152.678 149.799 153.233 148.339 155.102L148.342 155.104Z" fill="#0F0F08"/>
<path d="M174.156 169.473C174.156 169.534 174.156 169.592 174.156 169.653C174.1 171.16 173.589 172.169 172.703 172.391C171.48 172.697 170.703 171.908 170.102 170.936C169.063 169.254 168.516 167.409 168.835 165.349C168.971 164.47 169.329 163.731 170.127 163.422C171.022 163.076 171.745 163.554 172.331 164.241C173.582 165.711 174.1 167.501 174.159 169.473H174.156ZM172.908 169.413C172.91 167.905 172.28 166.044 171.501 165.225C171.226 164.935 170.942 164.602 170.499 164.787C170.136 164.938 170.09 165.331 170.044 165.677C169.84 167.227 170.202 168.647 170.961 169.946C171.28 170.49 171.643 171.237 172.324 171.036C173.049 170.825 172.847 169.97 172.908 169.413Z" fill="#0F0F08"/>
<path d="M159.018 147.554C160.624 147.826 162.169 148.537 163.132 150.237C163.828 151.467 163.271 152.534 161.933 152.521C160.11 152.502 158.638 151.61 157.624 149.981C156.847 148.732 157.478 147.586 159.018 147.557V147.554Z" fill="white"/>
<path d="M165.512 155.687C164.772 155.714 163.95 154.827 163.899 153.95C163.857 153.214 164.295 152.638 164.928 152.609C165.697 152.572 166.493 153.419 166.536 154.322C166.573 155.046 166.108 155.666 165.512 155.687Z" fill="white"/>
<path d="M315.66 190.145C324.721 190.422 333.42 193.728 340.36 201.587C343.085 204.674 345.034 208.278 345.737 212.552C346.803 219.042 344.715 224.248 340.039 228.248C336.325 231.424 331.97 232.95 327.303 233.317C316.526 234.164 307.122 230.695 299.379 222.405C296.449 219.266 294.383 215.485 293.69 211.026C292.649 204.328 294.897 198.995 299.87 195.024C304.316 191.473 309.457 190.282 315.66 190.145Z" fill="#A5BC00"/>
<path d="M55.4531 235.465C50.8421 235.486 46.4306 234.544 42.3597 232.128C38.0943 229.599 35.0478 225.963 34.0161 220.649C33.3445 217.185 33.8215 213.845 35.0868 210.619C36.9628 205.829 40.1017 202.178 43.956 199.213C48.8322 195.464 54.273 193.31 60.1979 192.475C65.3978 191.744 70.4492 192.204 75.3449 194.3C76.8389 194.939 78.2575 195.744 79.5691 196.76C86.241 201.933 88.1463 210.083 84.5037 218.069C82.2529 223.004 78.7417 226.692 74.4836 229.554C68.6632 233.467 62.3076 235.441 55.4507 235.463L55.4531 235.465Z" fill="#A5BC00"/>
<path d="M138.061 365.774C125.895 365.212 114.736 360.961 105.677 351.203C102.572 347.86 100.214 343.972 99.1337 339.298C97.5399 332.413 99.3892 326.739 104.426 322.317C108.236 318.972 112.755 317.348 117.549 316.828C130.912 315.381 142.781 319.45 153.108 328.733C156.551 331.827 159.274 335.592 160.989 340.138C164.175 348.581 161.697 356.724 154.49 361.41C150.317 364.124 145.728 365.286 140.925 365.608C140.097 365.663 139.27 365.705 138.063 365.777L138.061 365.774Z" fill="#A5BC00"/>
<path d="M183.66 356.536C183.687 349.386 188.098 342.918 194.347 340.872C202.011 338.358 209.357 343.673 210.155 352.314C210.827 359.561 206.79 366.716 200.551 369.335C191.999 372.926 183.621 366.576 183.66 356.536Z" fill="#A5BC00"/>
<path d="M266.041 373.704C266.034 376.793 264.452 379.111 261.97 379.692C261.138 379.887 260.335 379.792 259.52 379.557C255.435 378.377 252.534 373.276 253.422 368.796C254.116 365.29 256.912 363.539 260.07 364.64C263.44 365.812 266.053 369.781 266.044 373.706L266.041 373.704Z" fill="#A5BC00"/>
<path d="M204.732 157.644C204.737 158.077 204.7 158.512 204.219 158.61C203.557 158.744 202.63 157.588 202.649 156.661C202.659 156.231 202.739 155.814 203.26 155.798C203.953 155.777 204.696 156.714 204.732 157.646V157.644Z" fill="#FA4616"/>
<path d="M210.438 153.642C210.392 154.146 210.143 154.397 209.671 154.328C208.966 154.225 208.321 153.338 208.343 152.52C208.357 152.036 208.535 151.714 209.034 151.741C209.795 151.778 210.513 152.757 210.44 153.644L210.438 153.642Z" fill="#FA4616"/>
<path d="M148.352 155.104C149.81 153.234 151.703 152.68 153.852 153.06C155.691 153.385 157.282 154.341 158.706 155.619C162.494 159.016 164.765 163.486 166.191 168.487C167.48 173.004 167.974 177.611 166.903 182.289C166.514 183.99 165.925 185.598 164.908 186.978C163.728 188.578 162.3 189.722 160.3 189.708C160.171 189.418 159.927 189.278 159.677 189.151C155.38 186.978 152.564 183.229 150.474 178.77C149.022 175.671 148.056 172.394 147.62 168.922C147.201 165.585 147.184 162.277 147.644 158.948C147.824 157.649 148.391 156.442 148.352 155.104ZM163.925 167.858C163.986 167.003 163.689 166.216 163.383 165.453C162.139 162.369 160.171 159.88 157.832 157.731C156.565 156.566 155.136 155.642 153.504 155.191C152.18 154.824 151.097 155.732 150.978 157.2C150.837 158.964 151.435 160.471 152.212 161.958C153.292 164.027 154.883 165.604 156.397 167.262C157.667 168.653 159.248 169.448 160.864 170.258C162.448 171.053 164.103 169.77 163.923 167.856L163.925 167.858ZM161.906 174.791C161.852 175.737 162.056 176.592 162.677 177.278C163.336 178.007 164.11 177.894 164.589 177.022C165.173 175.966 164.947 173.994 164.149 173.149C163.434 172.394 162.368 172.671 162.027 173.73C161.923 174.06 161.942 174.438 161.906 174.791Z" fill="#D0E6EC"/>
<path d="M148.341 155.103C148.38 156.441 147.813 157.651 147.633 158.947C147.173 162.276 147.19 165.584 147.609 168.922C148.044 172.393 149.01 175.672 150.463 178.769C152.553 183.229 155.366 186.975 159.666 189.15C159.916 189.277 160.159 189.417 160.288 189.707C158.736 190.059 157.366 189.43 156.038 188.709C154.179 187.701 152.631 186.233 151.361 184.472C146.657 177.956 144.45 170.601 145.36 162.308C145.655 159.618 146.358 157.022 148.344 155.106L148.341 155.103Z" fill="#A3B0B3"/>
<path d="M172.928 169.415C172.867 169.972 173.069 170.827 172.344 171.038C171.66 171.239 171.297 170.492 170.981 169.948C170.222 168.649 169.859 167.226 170.064 165.679C170.11 165.333 170.156 164.94 170.519 164.789C170.962 164.604 171.246 164.937 171.521 165.227C172.3 166.046 172.93 167.907 172.928 169.415Z" fill="#A3B0B3"/>
<path d="M163.908 167.857C164.089 169.769 162.434 171.052 160.85 170.26C159.234 169.449 157.655 168.654 156.382 167.263C154.867 165.605 153.278 164.029 152.197 161.959C151.421 160.475 150.822 158.965 150.964 157.201C151.08 155.734 152.166 154.825 153.489 155.192C155.122 155.644 156.553 156.568 157.818 157.732C160.154 159.881 162.125 162.371 163.368 165.455C163.675 166.218 163.972 167.004 163.911 167.86L163.908 167.857Z" fill="white"/>
<path d="M161.89 174.788C161.926 174.432 161.907 174.054 162.012 173.727C162.35 172.668 163.418 172.391 164.133 173.146C164.931 173.988 165.158 175.96 164.574 177.019C164.092 177.89 163.321 178.007 162.661 177.275C162.041 176.589 161.839 175.736 161.89 174.788Z" fill="white"/>
<path d="M123.122 148.293C123.384 148.578 123.674 148.932 123.959 149.365C124.204 149.737 124.397 150.093 124.547 150.413C124.801 149.787 124.681 149.079 124.265 148.657C123.81 148.198 123.207 148.282 123.122 148.295V148.293Z" fill="black"/>
</svg>
