<svg width="355" height="351" viewBox="0 0 355 351" fill="none" xmlns="http://www.w3.org/2000/svg">
<path d="M112.638 70.3517C112.904 70.1828 112.956 69.9415 113.038 69.6921C116.728 57.7632 124.042 50.1778 135.497 47.628C136.473 47.4108 136.362 46.8155 136.377 46.1157C136.495 40.9194 137.442 35.9001 139.357 31.1462C144.401 18.6541 152.757 10.1196 165.004 6.58035C173.02 4.25569 180.822 5.2129 188.173 9.55656C188.92 9.99897 189.393 10.184 190.147 9.46808C197.002 2.98476 205.063 0.0246382 214.085 0.0648573C223.817 0.105076 232.425 3.48348 239.51 10.8516C245.182 16.7558 248.288 23.9872 248.355 32.6262C248.355 33.4708 248.429 33.9293 249.397 34.2189C253.472 35.4174 255.683 38.4741 256.09 43.0832C256.194 44.2898 256.127 45.5044 256.09 46.8799C257.214 46.8155 258.264 46.719 259.314 46.7029C268.714 46.5099 276.907 49.5424 283.105 57.5782C287.083 62.7342 288.962 68.8073 289.146 75.5078C289.235 78.6691 289.05 81.8061 288.348 84.8869C288.178 85.643 288.133 86.1337 289.013 86.4876C296.86 89.6408 301.186 96.1804 303.182 104.659C305.031 112.517 304.203 120.095 300.077 127.045C299.677 127.72 299.64 128.348 299.788 129.047C300.335 131.565 300.52 134.131 300.417 136.705C300.38 137.606 300.661 138.113 301.326 138.579C302.968 139.722 304.565 140.928 306.215 142.127C306.821 141.829 306.917 141.145 307.183 140.606C312.715 129.329 318.276 118.068 323.726 106.75C325.043 104.023 326.566 102.961 330.027 103.782C332.157 104.289 333.961 105.479 335.477 107.192C337.052 108.97 337.504 111.464 336.291 113.877C330.219 125.926 324.274 138.057 318.306 150.171C317.396 152.013 317.211 151.498 318.809 153.115C319.888 154.209 320.96 155.303 322.144 156.517C322.536 155.866 322.891 155.311 323.223 154.731C329.62 143.623 336.039 132.53 342.399 121.406C343.346 119.749 344.655 119.121 346.289 119.459C349.735 120.175 352.353 122.234 353.987 125.637C354.69 127.093 354.601 128.533 353.736 130.005C346.555 142.247 339.441 154.53 332.223 166.749C331.454 168.052 331.528 168.872 332.268 170.119C335.144 174.962 337.289 180.15 338.139 185.893C338.679 189.545 338.642 193.197 337.984 196.825C336.128 207.04 333.872 217.135 330.582 226.941C316.272 269.629 291.202 302.649 255.247 325.791C239.525 335.91 222.634 342.844 204.767 346.955C197.949 348.523 191.057 349.585 184.105 350.236C173.545 351.226 162.962 350.856 152.387 350.856C141.568 350.856 130.756 350.51 119.945 350.019C111.329 349.625 102.714 349.11 94.1577 347.847C92.2276 347.566 90.3048 347.228 88.4264 346.657C87.8052 346.464 87.184 346.214 86.6368 345.853C85.9047 345.37 85.9121 344.718 86.5998 344.155C87.221 343.648 87.9679 343.423 88.7149 343.222C92.5086 342.176 96.3836 341.718 100.259 341.316C103.964 340.93 107.676 340.664 111.388 340.334C111.677 340.31 111.965 340.214 112.35 340.133C111.877 339.466 111.204 339.409 110.642 339.176C75.1447 324.351 47.2057 299.464 26.9133 264.505C15.2733 244.452 7.65628 222.661 3.75162 199.326C1.61442 186.545 0.704809 173.683 1.03759 160.732C1.326 149.535 2.75327 138.483 4.60946 127.455C6.42868 116.628 12.1969 109.018 20.1689 102.961C21.1155 102.245 21.5518 101.546 21.6258 100.21C22.2618 88.579 24.2806 77.2775 29.0062 66.7079C32.7185 58.4067 37.7473 51.2959 44.9798 46.2525C51.2287 41.8927 58.0988 39.9381 65.5088 40.1874C74.5531 40.4931 82.7026 43.8634 90.3344 48.8989C98.4025 54.2239 105.236 61.0933 111.344 68.8636C111.751 69.3865 112.061 70.0219 112.646 70.3437L112.638 70.3517ZM166.66 209.655C166.771 209.711 166.875 209.783 166.985 209.807C173.049 211.263 179.21 212.068 185.333 213.113C185.976 213.226 186.139 212.872 186.176 212.253C186.242 211.167 186.361 210.081 186.472 208.995C187.219 201.723 188.86 194.717 191.826 188.121C197.698 175.058 206.905 166.403 220.083 163.169C222.605 162.55 224.868 161.762 226.25 159.196C226.48 158.777 226.79 158.512 227.271 158.649C227.811 158.802 227.796 159.284 227.774 159.735C227.485 164.633 229.807 167.915 233.424 170.28C237.454 172.91 241.839 173.522 246.41 172.428C249.368 171.72 251.949 170.248 253.945 167.69C254.263 167.288 254.663 166.87 255.136 167.336C255.602 167.795 255.262 168.285 254.951 168.671C254.419 169.331 253.864 169.966 253.346 170.578C253.539 171.004 253.842 171.068 254.115 171.181C257.791 172.774 261.622 173.506 265.556 173.313C273.055 172.959 279.828 170.24 285.567 165.019C295.994 155.528 300.986 143.655 298.279 128.661C298.146 127.921 298.279 127.31 298.671 126.667C303.345 118.944 303.878 110.667 301.045 102.149C298.701 95.1026 294.501 89.858 287.682 87.5494C286.551 87.1633 286.536 87.1151 286.832 85.7476C287.764 81.4603 288.2 77.1488 287.638 72.7488C286.61 64.7774 283.289 58.2458 277.181 53.6045C270.481 48.5208 262.975 47.3303 255.025 48.553C254.559 48.6254 254.093 48.746 253.627 48.7863C253.176 48.8265 252.592 48.9954 252.503 48.2634C252.429 47.6923 252.895 47.5475 253.309 47.4349C253.42 47.4027 253.539 47.3384 253.65 47.3384C254.5 47.3384 254.714 46.7914 254.781 45.987C255.136 41.7077 253.82 36.4873 248.377 35.4335C246.986 35.16 246.979 35.0796 247.031 33.5191C247.09 31.6449 246.935 29.7868 246.624 27.9528C245.478 21.1075 242.335 15.4929 237.587 10.916C226.835 0.571618 210.122 -1.4876 197.283 5.90467C194.88 7.28821 192.632 8.90501 190.598 11.0608C190.99 11.4147 191.308 11.6801 191.604 11.9697C192.055 12.4041 192.994 12.75 192.454 13.5624C191.804 14.5437 191.212 13.5141 190.717 13.1119C186.42 9.69331 181.635 7.63409 176.348 7.09515C168.324 6.27468 160.951 8.43847 154.377 13.4337C144.083 21.2442 138.588 32.0793 137.752 45.7055C137.656 47.2419 137.693 47.2579 139.165 47.3625C139.986 47.4188 140.814 47.5153 141.627 47.636C142.034 47.7004 142.433 47.8451 142.818 48.006C143.121 48.1267 143.276 48.4163 143.203 48.7702C143.129 49.1321 142.855 49.3091 142.552 49.293C142.078 49.2689 141.613 49.1885 141.147 49.0919C139.623 48.7782 138.1 48.746 136.562 48.9471C131.082 49.655 126.43 52.2934 122.4 56.2751C118.458 60.1602 115.685 64.8739 114.258 70.4804C114.021 71.3974 113.836 72.2501 114.517 73.1832C116.136 75.3872 117.615 77.7199 119.153 80.0043C124.959 89.5041 129.758 99.5669 133.493 110.225C135.763 116.708 137.693 123.312 139.113 130.085C139.335 131.139 139.601 131.983 140.836 132.104C144.327 132.442 147.299 131.26 149.962 128.903C149.629 128.066 148.934 127.849 148.505 127.334C148.29 127.077 148.216 126.763 148.424 126.465C148.608 126.2 148.882 125.999 149.185 126.16C149.555 126.353 149.903 126.602 150.221 126.876C156.721 132.353 159.953 139.625 160.086 148.514C160.182 155.093 158.466 161.199 155.641 166.95C152.225 173.916 147.492 179.683 141.827 184.566C141.369 184.96 140.696 185.25 140.562 185.869C140.148 187.727 139.446 189.537 139.601 191.508C139.845 194.605 141.221 197.106 143.077 199.342C145.658 202.463 148.889 204.531 152.402 206.18C155.523 207.644 158.851 208.215 162.149 208.89C163.643 209.196 165.114 209.743 166.675 209.63L166.66 209.655ZM21.4779 104.289C20.8863 104.12 20.6422 104.466 20.3686 104.675C17.5067 106.871 14.8962 109.38 12.6184 112.284C10.2964 115.244 8.46235 118.518 7.30871 122.226C5.09015 129.345 5.7779 136.279 8.31445 143.116C8.66942 144.065 9.07615 144.998 9.43112 145.948C9.57163 146.326 9.58642 146.76 9.23885 146.993C8.78774 147.299 8.45496 146.977 8.22571 146.559C8.04822 146.229 7.90032 145.875 7.74502 145.529C7.38266 144.725 7.02769 143.904 6.65053 143.108C6.38431 142.545 6.14027 141.805 5.44512 141.869C4.79434 141.934 4.5577 142.658 4.31366 143.245C3.87734 144.307 3.59632 145.417 3.41884 146.559C2.8642 150.114 2.63495 153.71 2.50923 157.297C2.27259 164.046 2.27259 170.787 2.66453 177.536C3.27833 188.081 4.60207 198.506 6.94634 208.754C18.4311 258.875 44.366 297.533 85.0616 324.199C108.475 339.538 134.055 347.614 161.313 349.239C173.079 349.939 184.808 349.223 196.47 347.164C211.963 344.429 226.842 339.546 241.033 332.267C270.947 316.935 294.804 294.066 312.597 263.757C322.661 246.6 329.835 228.083 334.287 208.311C334.398 207.805 334.597 207.282 334.309 206.469C333.059 208.488 331.846 210.21 330.485 211.802C330.241 212.084 330.02 212.389 329.753 212.639C329.413 212.961 329.021 213.121 328.659 212.695C328.363 212.349 328.481 211.971 328.718 211.657C328.94 211.36 329.191 211.086 329.443 210.813C330.685 209.429 331.772 207.909 332.763 206.3C335.943 201.104 337.489 195.385 337.112 189.159C336.712 182.523 334.39 176.578 331.181 171.004C331.003 170.69 330.863 170.296 330.345 170.272C330.168 170.529 329.938 170.819 329.753 171.141C325.427 178.581 320.975 185.949 316.819 193.503C314.187 198.281 310.711 201.957 306.399 204.812C301.519 208.054 296.246 210.266 290.788 212.028C278.475 216.009 265.807 217.594 253.051 218.374C242.069 219.042 231.072 218.865 220.083 218.253C209.219 217.65 198.4 216.524 187.618 214.98C178.485 213.676 169.396 212.036 160.345 210.121C143.979 206.67 127.828 202.303 111.936 196.849C96.1396 191.435 80.6911 185.041 65.9155 176.852C55.6732 171.173 45.845 164.786 37.2074 156.445C34.5008 153.83 32.0086 151.015 29.7901 147.902C26.477 143.237 24.3546 138.105 23.5559 132.177C22.5576 124.728 21.5814 117.295 21.4705 109.758C21.4409 107.924 21.4705 106.082 21.4705 104.297L21.4779 104.289ZM34.9889 98.1351C34.9741 113.137 36.7933 125.983 40.3873 138.523C43.2197 148.393 47.08 157.74 52.6116 166.202C53.2106 167.111 53.9131 167.827 54.7932 168.398C59.5113 171.463 64.3329 174.318 69.2729 176.948C89.4618 187.679 110.634 195.417 132.309 201.635C134.166 202.166 133.966 202.15 134.654 200.461C136.673 195.514 138.115 190.382 139.202 185.089C140.459 178.975 141.117 172.798 141.302 166.564C141.65 155.005 140.511 143.599 138.166 132.321C134.639 115.381 128.76 99.4865 120.27 84.7582C113.947 73.7865 106.419 63.9328 97.0566 55.8487C89.9942 49.7515 82.2589 45.0539 73.392 42.7936C69.4504 41.7881 65.4496 41.3296 61.434 42.0295C56.1243 42.9545 51.9312 46.0916 48.4037 50.3629C44.1071 55.5752 41.3265 61.7207 39.3077 68.3006C36.1499 78.5806 34.9297 89.1904 34.9815 98.1431L34.9889 98.1351ZM231.967 217.176C240.641 217.224 247.083 217.159 253.516 216.749C258.885 216.403 264.239 215.921 269.579 215.197C270.525 215.068 271.013 214.65 271.442 213.773C277.077 202.19 282.742 190.631 288.392 179.064C288.555 178.726 288.843 178.372 288.843 178.034C288.828 177.109 288.03 176.852 287.446 176.538C286.891 176.241 286.225 175.324 285.634 176.136C284.939 177.101 284.643 176.699 284.303 175.959C283.689 174.624 282.912 173.425 281.921 172.388C280.479 170.883 279.984 170.795 278.165 171.648C273.091 174.02 267.819 175.114 262.28 174.68C259.004 174.423 255.868 173.618 252.858 172.227C252.171 171.905 251.609 171.768 250.869 172.203C247.305 174.286 243.452 174.825 239.517 174.133C233.927 173.152 229.334 170.465 226.997 164.44C226.768 163.853 226.502 163.636 225.955 163.7C225.43 163.765 224.89 163.757 224.365 163.837C215.661 165.06 207.984 168.712 201.728 175.484C192.351 185.628 188.587 198.369 187.537 212.341C187.463 213.323 187.832 213.483 188.616 213.588C195.531 214.537 202.46 215.334 209.412 215.945C217.657 216.677 225.918 217.111 231.96 217.184L231.967 217.176ZM324.481 108.479C307.516 143.148 290.633 177.648 273.757 212.14C274.208 212.422 274.563 212.285 274.903 212.237C278.66 211.722 282.343 210.845 285.981 209.727C287.083 209.389 287.778 208.81 288.333 207.692C303.493 176.964 318.683 146.253 333.865 115.542C334.08 115.116 334.479 114.729 334.287 114.134C330.094 114.359 326.943 112.373 324.481 108.479ZM53.4916 43.5658C51.5689 44.145 49.757 45.0218 48.0044 46.0514C41.0899 50.1215 35.9946 56.1624 32.1343 63.4984C26.0925 74.9689 23.6742 87.5173 22.9569 100.556C22.7277 104.731 22.7424 108.898 22.9347 113.072C23.1048 116.861 23.4524 120.626 23.8961 124.39C24.2806 127.64 24.9092 130.841 25.3825 134.075C26.233 139.915 28.9174 144.612 32.652 148.715C32.8591 148.94 33.1031 149.133 33.3397 149.326C36.4309 151.747 38.9379 150.653 39.6109 146.583C39.633 146.454 39.6404 146.326 39.6626 146.205C40.0915 143.679 39.707 141.242 39.0266 138.821C34.73 123.497 32.9108 107.844 33.8722 91.8287C34.3011 84.6215 35.2921 77.5188 37.2148 70.6091C40.1951 59.8867 44.6396 50.1618 53.499 43.5739L53.4916 43.5658ZM342.599 123.916C326.854 151.224 311.184 178.404 295.506 205.592C296.009 205.89 296.305 205.544 296.593 205.399C301.526 202.89 306.259 200.002 310.541 196.318C313.942 193.39 317.034 190.156 319.371 186.126C329.813 168.14 340.277 150.171 350.719 132.185C350.985 131.726 351.436 131.316 351.355 130.672C347.428 130.109 344.662 127.752 342.591 123.916H342.599ZM141.043 183.359C142.286 182.201 143.276 181.324 144.216 180.383C150.479 174.053 155.271 166.693 157.594 157.635C159.309 150.935 159.191 144.323 156.64 137.839C156.1 136.464 155.279 135.796 153.933 135.925C153.29 135.989 152.631 136.03 152.01 136.198C149.548 136.866 147.418 138.177 145.621 140.14C145.332 140.454 145.044 140.783 144.726 141.057C144.541 141.218 144.282 141.21 144.068 141.041C143.846 140.864 143.831 140.615 143.839 140.357C143.868 139.778 144.63 139.537 144.438 138.813C144.09 138.764 143.742 138.692 143.395 138.676C141.11 138.523 140.792 138.869 141.154 141.338C142.115 147.95 142.677 154.595 142.692 161.287C142.707 167.336 142.507 173.361 141.598 179.345C141.42 180.536 141.272 181.734 141.043 183.375V183.359ZM281.315 170.127C281.626 170.385 281.855 170.578 282.084 170.771C283.134 171.631 283.8 172.935 284.798 173.771C285.848 174.648 287.327 174.72 288.496 175.533C289.723 176.385 289.76 176.345 290.433 174.978C292.925 169.878 295.41 164.77 297.895 159.67C298.679 158.062 298.408 156.729 297.081 155.673C295.802 154.651 295.795 154.651 294.878 156.179C292.733 159.751 290.211 162.944 287.179 165.671C285.36 167.304 283.378 168.679 281.322 170.135L281.315 170.127ZM313.691 171.101C314.541 170.184 315 169.049 315.592 168.044C317.381 165.011 319.119 161.955 320.872 158.898C321.153 158.415 321.508 157.957 320.938 157.386C319.6 156.043 318.402 154.546 316.767 153.324C314.689 157.531 312.663 161.657 310.615 165.784C310.393 166.226 310.334 166.58 310.659 167.006C311.672 168.342 312.656 169.701 313.691 171.117V171.101ZM300.934 185.523C299.344 188.105 288.799 209.695 288.488 211.014C290.33 210.926 291.513 209.936 292.482 208.183C295.765 202.254 299.204 196.431 302.576 190.559C303.781 188.467 303.73 188.057 302.088 186.376C301.74 186.022 301.385 185.684 300.927 185.515L300.934 185.523ZM304.491 187.261C305.652 185.266 306.725 183.432 307.79 181.59C309.298 178.984 310.8 176.385 312.286 173.763C312.552 173.297 313.011 172.814 312.611 172.195C311.68 170.771 310.859 169.234 309.491 168.084C308.773 169.508 308.122 170.803 307.486 172.098C305.675 175.766 303.87 179.442 302.036 183.102C301.666 183.834 301.644 184.421 302.339 184.904C303.146 185.467 303.678 186.328 304.484 187.269L304.491 187.261ZM300.55 139.915C300.121 140.22 300.15 140.631 300.106 141.009C299.648 144.789 298.583 148.377 297.081 151.811C296.342 153.501 296.29 153.203 297.732 154.361C299.714 155.962 299.729 155.954 300.875 153.637C302.325 150.701 303.752 147.757 305.194 144.813C305.482 144.226 305.756 143.671 305.061 143.156C303.56 142.046 302.132 140.832 300.557 139.923L300.55 139.915ZM154.48 134.381C154.451 134.131 154.48 133.906 154.399 133.777C153.829 132.957 153.267 132.128 152.631 131.372C151.352 129.836 151.33 129.844 149.792 131.002C147.292 132.892 144.556 133.89 141.479 133.705C141.021 133.681 140.533 133.528 140.089 133.898C139.882 134.928 140.363 135.885 140.452 136.898C140.503 137.493 140.94 137.51 141.383 137.477C142.737 137.389 144.097 137.268 145.414 137.759C145.872 137.928 146.212 137.646 146.545 137.389C148.912 135.563 151.552 134.558 154.473 134.372L154.48 134.381ZM328.467 105.005C327.335 105.069 326.396 104.964 325.886 106.01C325.346 107.112 325.871 108.029 326.448 108.833C328.178 111.238 330.5 112.501 333.281 112.71C334.154 112.775 335.093 112.606 335.566 111.6C336.01 110.659 335.581 109.823 335.1 109.099C333.407 106.573 331.085 105.238 328.467 105.005ZM351.081 129.064C352.863 129.152 353.595 128.195 352.841 126.482C351.458 123.336 349.092 121.422 345.919 120.923C344.211 120.65 343.523 121.76 344.13 123.521C345.01 126.103 348.574 128.943 351.088 129.064H351.081Z" fill="#110C08"/>
<path d="M21.4833 104.288C21.4833 106.074 21.4611 107.916 21.4833 109.75C21.6016 117.287 22.5704 124.72 23.5687 132.168C24.3674 138.097 26.4898 143.229 29.8029 147.894C32.014 151.007 34.5136 153.83 37.2202 156.436C45.8652 164.786 55.686 171.173 65.9283 176.844C80.7039 185.032 96.1524 191.427 111.949 196.841C127.848 202.294 143.992 206.662 160.357 210.113C169.409 212.019 178.49 213.66 187.631 214.971C198.413 216.516 209.232 217.642 220.096 218.245C231.085 218.857 242.082 219.034 253.063 218.366C265.813 217.586 278.488 216.001 290.801 212.019C296.259 210.258 301.531 208.038 306.412 204.804C310.724 201.94 314.199 198.272 316.832 193.494C320.988 185.941 325.433 178.573 329.766 171.133C329.951 170.819 330.173 170.529 330.358 170.264C330.875 170.288 331.016 170.682 331.193 170.996C334.403 176.57 336.725 182.523 337.124 189.151C337.502 195.377 335.956 201.104 332.776 206.292C331.792 207.901 330.698 209.421 329.456 210.805C329.212 211.078 328.953 211.352 328.731 211.649C328.494 211.971 328.376 212.341 328.672 212.687C329.034 213.113 329.426 212.952 329.766 212.631C330.032 212.381 330.254 212.076 330.498 211.794C331.859 210.201 333.072 208.48 334.322 206.461C334.617 207.273 334.418 207.788 334.299 208.303C329.848 228.075 322.674 246.592 312.609 263.749C294.817 294.058 270.96 316.935 241.046 332.258C226.855 339.53 211.976 344.421 196.483 347.155C184.821 349.215 173.092 349.931 161.326 349.231C134.068 347.606 108.488 339.53 85.0745 324.19C44.3788 297.525 18.4439 258.866 6.95917 208.745C4.6075 198.498 3.28376 188.073 2.67736 177.527C2.28541 170.779 2.28541 164.03 2.52206 157.289C2.64778 153.702 2.86963 150.106 3.43167 146.551C3.60915 145.408 3.89756 144.29 4.32648 143.237C4.56313 142.657 4.80717 141.925 5.45794 141.861C6.15309 141.797 6.39713 142.537 6.66336 143.1C7.04791 143.896 7.39548 144.717 7.75785 145.521C7.91315 145.867 8.05365 146.221 8.23853 146.551C8.46778 146.969 8.79317 147.291 9.25167 146.985C9.59925 146.752 9.58446 146.317 9.44395 145.939C9.08158 144.99 8.67485 144.057 8.32728 143.108C5.79073 136.271 5.10298 129.329 7.32153 122.218C8.47518 118.51 10.3092 115.236 12.6313 112.276C14.909 109.372 17.5195 106.87 20.3814 104.666C20.655 104.457 20.8917 104.111 21.4907 104.28L21.4833 104.288ZM170.378 341.67C173.794 341.46 177.204 341.718 180.635 341.38C184.444 341.01 188.245 340.648 192.038 340.149C195.366 339.715 198.664 339.104 201.948 338.412C206.858 337.382 211.71 336.071 216.502 334.47C224.74 331.711 232.897 328.767 240.506 324.271C245.875 321.101 250.712 317.128 255.193 312.647C258.632 309.205 261.59 305.287 264.326 301.169C266.737 297.541 268.15 293.584 268.15 289.023C268.15 282.025 262.477 277.906 256.776 278.871C253.818 279.37 250.845 279.805 247.879 280.215C243.686 280.794 239.456 281.148 235.234 281.397C231.647 281.606 228.046 281.454 224.451 281.791C220.857 282.129 217.263 281.534 213.669 281.445C211.318 281.389 208.966 281.333 206.607 281.156C202.088 280.818 197.577 280.4 193.074 279.941C189.154 279.547 185.264 278.912 181.352 278.413C175.747 277.697 170.186 276.675 164.647 275.557C158.634 274.351 152.652 272.975 146.713 271.399C137.388 268.921 128.114 266.219 118.974 263.025C108.754 259.454 98.652 255.52 88.7203 251.072C82.7672 248.41 76.888 245.586 71.0976 242.546C61.787 237.663 52.7279 232.282 43.9647 226.313C37.2129 221.712 30.6385 216.862 24.2639 211.673C22.9032 210.571 21.6978 209.18 20.0634 208.528C17.978 207.692 16.0626 208.987 15.9221 211.4C15.7816 213.837 15.8925 216.25 16.4472 218.655C18.2886 226.595 21.2097 234.092 24.3526 241.484C26.5786 246.728 29.1225 251.804 31.844 256.783C37.8414 267.739 44.926 277.794 52.9054 287.108C57.4535 292.425 62.3861 297.316 67.5701 301.885C72.3769 306.124 77.3539 310.098 82.5749 313.741C90.1476 319.026 98.0382 323.619 106.291 327.472C113.886 331.011 121.695 333.899 129.697 336.16C133.964 337.366 138.275 338.452 142.624 339.208C146.795 339.94 150.988 340.551 155.21 340.946C159.855 341.372 164.491 341.71 169.15 341.653C169.564 341.653 169.979 341.653 170.393 341.653L170.378 341.67ZM233.355 239.392C236.417 239.441 241.312 239.272 246.223 239.038C258.521 238.443 270.73 237.019 282.807 234.381C290.342 232.732 297.76 230.6 304.941 227.568C305.547 227.311 306.139 227.029 306.715 226.707C306.982 226.554 307.144 226.257 307.004 225.895C306.871 225.541 306.568 225.436 306.272 225.509C305.813 225.621 305.362 225.79 304.926 225.975C298.315 228.807 291.481 230.85 284.545 232.467C269.991 235.861 255.238 237.365 240.388 237.8C227.617 238.17 214.86 237.711 202.133 236.408C193.895 235.564 185.693 234.437 177.536 232.925C173.225 232.121 168.936 231.22 164.669 230.214C164.099 230.078 163.19 229.635 162.968 230.552C162.739 231.526 163.744 231.429 164.306 231.654C164.417 231.694 164.543 231.694 164.654 231.727C172.441 233.617 180.302 235.089 188.208 236.231C202.576 238.306 217.012 239.417 233.363 239.4L233.355 239.392ZM294.084 276.941C294.062 277.416 294.003 277.882 294.425 278.188C294.876 278.51 295.231 278.164 295.541 277.922C296.015 277.544 296.458 277.11 296.865 276.651C300.607 272.517 303.669 267.787 306.686 263.025C310.901 256.357 314.865 249.52 318.111 242.216C318.673 240.945 319.162 239.634 319.472 238.258C319.576 237.816 319.59 237.341 319.147 237.068C318.792 236.843 318.444 237.011 318.156 237.221C317.209 237.896 316.411 238.749 315.664 239.666C312.336 243.76 309.348 248.144 306.531 252.665C302.456 259.204 298.573 265.865 295.43 273.008C294.868 274.286 294.417 275.598 294.099 276.941H294.084ZM13.3856 129.023C13.4226 127.181 13.2747 125.275 12.6165 123.465C12.3576 122.757 12.0175 121.985 11.1744 121.969C10.3536 121.953 9.9764 122.669 9.62143 123.344C9.53269 123.513 9.46613 123.69 9.41437 123.875C8.32728 127.543 8.10542 131.251 9.052 135C9.30344 135.997 9.60664 137.164 10.7085 137.212C11.8252 137.26 12.2023 136.086 12.5203 135.136C13.1637 133.198 13.4004 131.171 13.3856 129.023ZM325.137 226.442C325.085 226.007 325.07 225.444 324.627 225.163C324.168 224.873 323.71 225.082 323.347 225.461C321.75 227.109 320.825 229.12 320.604 231.501C320.559 232.008 320.589 232.563 321.069 232.861C321.639 233.207 322.105 232.845 322.482 232.443C323.998 230.81 324.782 228.775 325.137 226.45V226.442ZM10.5015 141.805C10.5236 142.923 11.167 143.743 12.0249 143.759C12.8457 143.776 13.4226 143.019 13.43 141.95C13.43 140.848 12.6091 139.786 11.803 139.842C11.0783 139.898 10.4867 140.791 10.5089 141.805H10.5015Z" fill="#FA4616"/>
<path d="M166.655 209.656C165.094 209.769 163.623 209.222 162.129 208.916C158.831 208.24 155.503 207.669 152.382 206.205C148.877 204.564 145.638 202.489 143.057 199.368C141.208 197.132 139.825 194.622 139.581 191.533C139.426 189.554 140.136 187.753 140.542 185.895C140.675 185.275 141.348 184.986 141.807 184.591C147.472 179.701 152.197 173.933 155.621 166.975C158.446 161.224 160.162 155.119 160.066 148.539C159.933 139.651 156.708 132.379 150.2 126.901C149.875 126.628 149.527 126.378 149.165 126.185C148.862 126.024 148.588 126.217 148.403 126.491C148.189 126.789 148.27 127.11 148.485 127.36C148.914 127.874 149.609 128.084 149.942 128.928C147.279 131.285 144.307 132.467 140.816 132.13C139.581 132.009 139.315 131.172 139.093 130.111C137.673 123.338 135.743 116.742 133.473 110.25C129.738 99.5844 124.939 89.5296 119.133 80.0299C120.102 79.8851 119.999 78.8715 120.228 78.2441C122.284 72.7502 125.508 68.2457 129.849 64.7225C133.62 61.6578 137.902 59.9605 142.613 59.6066C144.75 59.4457 146.828 59.9686 148.899 60.4271C150.171 60.7086 150.437 60.6362 150.622 59.4216C151.103 56.3006 152.094 53.3485 153.181 50.4447C154.97 45.6506 157.403 41.2667 160.613 37.4298C163.386 34.1157 166.677 31.5417 170.456 29.7238C175.388 27.3589 180.528 26.8763 185.816 27.7531C187.923 28.099 189.942 28.7988 191.939 29.5951C192.856 29.9651 193.573 29.8847 194.416 29.2975C197.87 26.9326 201.678 25.6134 205.731 25.2675C210.56 24.8573 215.271 25.5893 219.767 27.5841C223.287 29.1446 226.519 31.228 229.299 34.1077C231.681 36.5771 233.655 39.3442 234.964 42.6261C235.312 43.4868 235.741 44.1464 236.65 44.3877C237.833 44.7014 238.81 45.4656 239.556 46.4791C242.596 50.6136 243.513 55.1181 241.457 60.1134C241.25 60.6121 240.791 61.0384 241.058 61.8186C243.786 61.1751 246.538 61.4647 249.244 61.9715C254.029 62.8563 258.385 64.8512 262.171 68.2537C269.536 74.8738 272.288 83.2635 270.461 93.4389C270.195 94.927 270.217 95.0959 271.548 95.4418C272.938 95.7957 274.225 96.399 275.49 97.0908C279.254 99.1339 282.034 102.303 284.149 106.188C287.448 112.237 288.246 118.688 286.375 125.429C286.094 126.435 286.065 127.239 286.346 128.172C287.093 130.666 287.063 133.2 286.693 135.774C286.08 140.053 284.46 143.85 282.219 147.373C277.945 154.089 272.317 158.819 265.085 161.2C261.439 162.399 257.8 162.519 254.199 161.023C253.585 160.766 253.201 160.878 252.809 161.361C252.572 161.65 252.306 161.908 252.054 162.181C248.971 165.503 245.132 166.388 241.087 165.544C236.576 164.595 233.515 161.506 232.198 156.623C231.769 155.038 231.333 153.389 231.688 151.716C231.88 150.824 231.917 149.939 231.962 149.046C232.59 149.046 233.041 149.52 233.596 149.73C233.995 149.882 234.446 150.051 234.713 149.585C235.038 148.998 234.668 148.619 234.202 148.378C233.241 147.871 232.339 147.252 231.614 146.399C226.977 140.97 224.626 134.623 225.143 127.151C225.188 126.451 225.38 125.743 224.833 125.164C224.7 123.032 225.091 120.957 225.424 118.873C225.942 115.648 226.711 112.495 227.724 109.406C227.99 108.585 227.842 108.199 227.162 107.709C222.777 104.539 220.603 99.9705 220.225 94.3237C220.151 93.27 220.218 92.2001 220.218 91.1223C219.205 91.1544 218.828 91.8945 218.31 92.3771C217.681 92.9563 217.097 93.6239 216.173 93.5515C215.559 92.8678 214.997 93.278 214.428 93.64C212.387 94.9431 210.242 96.0049 208.009 96.8414C200.584 99.6407 192.982 100.566 185.187 99.3511C182.125 98.8765 179.204 97.9354 176.549 96.1416C176.121 95.852 175.655 95.659 175.344 96.2864C175.093 96.8012 175.462 97.131 175.795 97.3884C176.128 97.6539 176.49 97.871 176.853 98.0882C178.258 98.9248 179.752 99.512 181.275 100.011C182.835 100.517 182.85 100.517 182.769 102.215C182.577 106.06 182.569 109.913 182.806 113.758C183.131 118.89 183.597 123.981 185.808 128.663C185.298 129.113 185.475 129.708 185.549 130.263C185.609 130.706 185.786 131.14 185.786 131.575C185.823 136.312 186.111 141.066 185.091 145.74C183.893 151.242 181.881 156.309 178.546 160.701C177.422 162.181 176.283 163.653 175.248 165.206C171.632 170.611 168.4 176.258 166.041 182.46C164.074 187.648 162.573 192.949 162.765 198.644C162.891 202.384 163.756 205.859 166.241 208.642C166.492 208.924 166.699 209.23 166.67 209.656H166.655ZM170.241 102.585C170.234 101.949 170.323 101.249 169.591 101.185C168.851 101.121 168.851 101.829 168.762 102.4C168.511 103.992 168.015 105.505 167.298 106.92C164.488 112.446 160.391 116.291 154.785 118.125C154.504 118.214 154.201 118.23 153.928 118.351C153.58 118.495 153.284 118.761 153.395 119.219C153.499 119.646 153.839 119.823 154.223 119.758C154.749 119.67 155.311 119.63 155.769 119.372C156.827 118.777 157.366 119.284 157.891 120.225C158.439 121.214 159.089 122.131 159.733 123.056C161.87 126.137 164.029 129.194 166.773 131.679C167.638 132.459 168.548 133.199 169.635 133.553C171.188 134.06 172.275 133.409 172.822 131.736C173.022 131.116 173.037 130.481 173.059 129.837C173.148 126.571 172.312 123.483 171.432 120.418C170.352 116.645 169.798 112.808 169.842 108.859C169.864 106.743 169.857 104.62 170.249 102.593L170.241 102.585Z" fill="#A5BC00"/>
<path d="M34.9879 98.1339C34.9361 89.1811 36.1563 78.5794 39.3141 68.2913C41.333 61.7195 44.1136 55.566 48.4102 50.3536C51.9377 46.0823 56.1307 42.9452 61.4405 42.0202C65.456 41.3204 69.4494 41.7789 73.3985 42.7844C82.2579 45.0447 89.9933 49.7503 97.063 55.8395C106.433 63.9235 113.954 73.7772 120.277 84.749C128.766 99.4772 134.645 115.372 138.173 132.312C140.525 143.59 141.663 154.996 141.308 166.555C141.116 172.789 140.458 178.966 139.208 185.08C138.121 190.372 136.679 195.504 134.66 200.451C133.972 202.148 134.165 202.165 132.316 201.626C110.641 195.4 89.4608 187.67 69.2794 176.939C64.3394 174.317 59.5177 171.461 54.7996 168.389C53.9196 167.817 53.2096 167.102 52.618 166.193C47.0864 157.722 43.2261 148.384 40.3938 138.514C36.7997 125.974 34.9805 113.128 34.9953 98.1258L34.9879 98.1339ZM83.944 125.99C83.9144 127.993 84.0549 130.164 84.3507 132.336C85.4378 140.284 87.93 147.628 92.2562 154.183C94.4821 157.562 97.137 160.465 100.517 162.501C102.402 163.627 104.406 164.391 106.573 164.471C110.922 164.632 114.153 162.42 116.579 158.656C118.265 156.033 119.256 153.081 119.825 149.968C121.29 142.013 120.447 134.235 118.139 126.601C116.157 120.045 113.192 114.101 108.592 109.234C106.492 107.014 104.14 105.212 101.337 104.191C96.538 102.429 91.9678 103.821 88.7287 108.044C87.5011 109.637 86.5841 111.43 85.8889 113.353C84.4395 117.359 83.8996 121.533 83.9514 126.006L83.944 125.99Z" fill="#DBF505"/>
<path d="M216.151 93.5315C217.075 93.6039 217.659 92.9443 218.288 92.3571C218.806 91.8744 219.183 91.1344 220.196 91.1022C220.196 92.1801 220.137 93.2499 220.203 94.3037C220.58 99.9424 222.755 104.511 227.14 107.689C227.82 108.179 227.968 108.565 227.702 109.386C226.696 112.467 225.927 115.628 225.402 118.853C225.069 120.937 224.677 123.012 224.811 125.144C223.953 125.079 223.908 125.843 223.812 126.423C223.539 128.072 223.583 129.745 223.709 131.41C223.871 133.59 224.197 133.115 222.37 134.185C220.033 135.552 217.682 136.888 215.374 138.303C212.394 140.137 209.473 142.068 206.855 144.497C206.049 145.245 205.25 146.033 204.747 147.071C204.045 148.519 204.466 149.669 205.864 150.321C206.589 150.659 207.351 150.691 208.12 150.723C211.329 150.868 214.472 150.337 217.608 149.693C221.313 148.937 224.988 148.004 228.634 146.95C229.137 146.806 229.699 146.484 230.135 146.983C230.741 147.666 231.592 148.093 231.954 149.026C231.91 149.919 231.873 150.803 231.681 151.696C231.326 153.369 231.762 155.026 232.191 156.603C233.507 161.478 236.569 164.574 241.08 165.524C245.118 166.368 248.963 165.483 252.047 162.161C252.298 161.888 252.565 161.63 252.801 161.341C253.193 160.858 253.578 160.746 254.192 161.003C257.793 162.491 261.431 162.379 265.077 161.18C272.31 158.799 277.938 154.069 282.212 147.353C284.453 143.829 286.072 140.025 286.686 135.753C287.056 133.179 287.085 130.654 286.338 128.152C286.057 127.219 286.087 126.407 286.368 125.409C288.239 118.668 287.448 112.217 284.142 106.168C282.027 102.283 279.246 99.1139 275.482 97.0707C274.218 96.379 272.931 95.7837 271.541 95.4218C270.21 95.0759 270.187 94.907 270.454 93.4189C272.28 83.2434 269.537 74.8537 262.164 68.2337C258.377 64.8311 254.021 62.8443 249.237 61.9514C246.53 61.4527 243.779 61.1551 241.05 61.7986C240.784 61.0183 241.243 60.584 241.45 60.0933C243.506 55.0981 242.589 50.5936 239.549 46.459C238.802 45.4455 237.826 44.6814 236.643 44.3676C235.733 44.1263 235.297 43.4667 234.957 42.606C233.64 39.3161 231.673 36.5491 229.292 34.0876C226.511 31.208 223.28 29.1246 219.76 27.5641C215.263 25.5692 210.553 24.8292 205.724 25.2475C201.671 25.5934 197.862 26.9126 194.409 29.2774C193.558 29.8566 192.849 29.937 191.932 29.5751C189.942 28.7787 187.923 28.0789 185.808 27.733C180.521 26.8643 175.389 27.3389 170.449 29.7038C166.67 31.5136 163.379 34.0957 160.606 37.4097C157.396 41.2466 154.97 45.6305 153.173 50.4246C152.086 53.3285 151.088 56.2805 150.615 59.4015C150.43 60.6162 150.164 60.6886 148.892 60.407C146.814 59.9485 144.736 59.4257 142.606 59.5866C137.902 59.9405 133.613 61.6377 129.842 64.7024C125.501 68.2337 122.276 72.7382 120.22 78.2241C119.984 78.8515 120.087 79.865 119.126 80.0098C117.588 77.7334 116.109 75.4007 114.489 73.1887C113.801 72.2556 113.994 71.4029 114.23 70.4859C115.658 64.8794 118.431 60.1737 122.372 56.2805C126.41 52.2989 131.054 49.6605 136.534 48.9526C138.072 48.7515 139.596 48.7837 141.119 49.0974C141.585 49.1939 142.051 49.2744 142.524 49.2985C142.828 49.3146 143.109 49.1376 143.175 48.7757C143.249 48.4137 143.094 48.1322 142.791 48.0115C142.406 47.8506 142.007 47.7058 141.6 47.6415C140.779 47.5128 139.958 47.4243 139.137 47.368C137.673 47.2634 137.629 47.2473 137.725 45.711C138.561 32.0847 144.063 21.2497 154.349 13.4392C160.924 8.45199 168.297 6.28821 176.32 7.10063C181.615 7.63957 186.4 9.69879 190.689 13.1174C191.185 13.5116 191.776 14.5412 192.427 13.5679C192.967 12.7554 192.028 12.4096 191.577 11.9752C191.281 11.6856 190.963 11.4202 190.571 11.0662C192.605 8.91049 194.853 7.29368 197.256 5.91015C210.094 -1.48212 226.807 0.577096 237.56 10.9214C242.308 15.4903 245.45 21.113 246.597 27.9583C246.907 29.7922 247.063 31.6504 247.003 33.5246C246.959 35.0851 246.959 35.1736 248.349 35.439C253.8 36.4927 255.109 41.7132 254.754 45.9925C254.687 46.7969 254.473 47.3519 253.622 47.3439C253.511 47.3439 253.393 47.4082 253.282 47.4404C252.868 47.553 252.402 47.6978 252.476 48.2689C252.572 49.0089 253.156 48.84 253.6 48.7917C254.066 48.7515 254.532 48.6309 254.998 48.5585C262.94 47.3278 270.454 48.5263 277.154 53.61C283.262 58.2432 286.582 64.7748 287.61 72.7543C288.172 77.1543 287.736 81.4657 286.804 85.7531C286.509 87.1205 286.523 87.1688 287.655 87.5549C294.473 89.8635 298.674 95.1081 301.018 102.154C303.85 110.673 303.318 118.95 298.644 126.672C298.259 127.307 298.119 127.919 298.252 128.667C300.959 143.653 295.967 155.533 285.54 165.025C279.801 170.245 273.027 172.964 265.528 173.318C261.587 173.503 257.763 172.779 254.088 171.187C253.822 171.074 253.511 171.01 253.319 170.583C253.837 169.972 254.399 169.336 254.924 168.677C255.234 168.283 255.582 167.8 255.109 167.342C254.635 166.875 254.236 167.285 253.918 167.695C251.921 170.253 249.34 171.725 246.382 172.433C241.812 173.527 237.427 172.916 233.396 170.286C229.78 167.921 227.451 164.639 227.746 159.74C227.776 159.29 227.791 158.807 227.244 158.654C226.763 158.517 226.445 158.783 226.223 159.201C224.84 161.767 222.577 162.555 220.055 163.175C206.877 166.417 197.663 175.064 191.798 188.127C188.84 194.723 187.199 201.729 186.444 209.001C186.333 210.086 186.215 211.172 186.149 212.258C186.112 212.878 185.941 213.232 185.305 213.119C179.182 212.073 173.022 211.269 166.958 209.813C166.847 209.789 166.744 209.708 166.633 209.66C166.662 209.234 166.455 208.928 166.204 208.647C163.719 205.855 162.854 202.388 162.728 198.648C162.536 192.953 164.037 187.652 166.004 182.464C168.363 176.262 171.595 170.615 175.211 165.21C176.246 163.657 177.393 162.185 178.509 160.705C181.837 156.313 183.849 151.238 185.054 145.744C186.075 141.062 185.794 136.317 185.749 131.579C185.749 131.144 185.572 130.71 185.513 130.268C185.439 129.713 185.261 129.117 185.771 128.667C185.882 128.82 185.993 128.964 186.097 129.117C188.345 132.327 190.881 132.769 193.906 130.469C195.274 129.423 196.406 128.12 197.448 126.712C199.571 123.849 201.279 120.703 202.847 117.454C205.65 111.638 207.935 105.589 209.909 99.3954C210.346 98.028 210.893 97.0386 212.231 96.5559C213.222 96.194 214.124 95.5183 215.056 94.9633C215.574 94.6496 216.114 94.3359 216.129 93.5556L216.151 93.5315Z" fill="#DBF505"/>
<path d="M231.963 217.178C225.921 217.105 217.661 216.663 209.415 215.939C202.464 215.32 195.535 214.531 188.62 213.582C187.836 213.478 187.467 213.309 187.541 212.335C188.598 198.371 192.355 185.622 201.732 175.479C207.988 168.714 215.664 165.054 224.369 163.831C224.894 163.759 225.433 163.759 225.958 163.694C226.506 163.63 226.772 163.847 227.001 164.435C229.331 170.459 233.93 173.146 239.521 174.127C243.455 174.819 247.308 174.28 250.873 172.197C251.612 171.762 252.174 171.899 252.862 172.221C255.872 173.613 259.008 174.417 262.284 174.674C267.823 175.109 273.095 174.015 278.168 171.642C279.988 170.789 280.483 170.886 281.925 172.382C282.916 173.411 283.7 174.61 284.306 175.953C284.647 176.693 284.942 177.104 285.638 176.13C286.222 175.318 286.895 176.235 287.449 176.532C288.034 176.846 288.832 177.104 288.847 178.029C288.847 178.374 288.566 178.72 288.396 179.058C282.739 190.625 277.074 202.184 271.446 213.767C271.017 214.644 270.529 215.062 269.583 215.191C264.243 215.915 258.897 216.406 253.52 216.743C247.087 217.154 240.645 217.218 231.971 217.17L231.963 217.178ZM238.124 184.954C236.349 184.954 234.345 185.477 233.561 186.153C233.265 186.41 233.05 186.692 233.265 187.118C233.435 187.448 233.731 187.48 234.027 187.392C234.256 187.327 234.47 187.215 234.685 187.126C237.709 185.887 240.557 186.088 243.145 188.365C243.285 188.486 243.426 188.598 243.581 188.695C243.803 188.839 244.062 188.823 244.239 188.646C244.469 188.421 244.55 188.116 244.417 187.778C244.247 187.343 243.899 187.086 243.574 186.829C241.954 185.533 240.142 184.906 238.131 184.954H238.124ZM209.312 194.462C208.491 194.551 207.663 194.591 206.849 194.736C206.428 194.808 206.036 195.122 206.162 195.661C206.25 196.063 206.591 196.248 206.997 196.183C207.345 196.135 207.7 196.079 208.055 196.039C210.754 195.749 213.209 196.425 215.346 198.291C215.576 198.492 215.775 198.733 216.012 198.926C216.256 199.128 216.537 199.24 216.818 198.991C217.158 198.693 217.166 198.299 216.929 197.969C216.641 197.567 216.3 197.197 215.931 196.891C213.993 195.258 211.76 194.559 209.327 194.454L209.312 194.462ZM257.181 201.203C255.658 201.323 253.698 201.653 252.056 203.069C251.701 203.375 251.228 203.745 251.62 204.324C252.012 204.911 252.433 204.541 252.825 204.227C254.304 203.037 256.005 202.675 257.802 202.683C258.63 202.683 259.429 202.876 260.22 203.117C260.561 203.222 260.952 203.23 261.123 202.779C261.33 202.232 260.997 201.911 260.597 201.75C259.658 201.38 258.675 201.179 257.174 201.195L257.181 201.203Z" fill="#FCF6F5"/>
<path d="M324.49 108.483C326.953 112.376 330.103 114.363 334.296 114.138C334.488 114.733 334.082 115.119 333.875 115.546C318.692 146.265 303.503 176.968 288.342 207.696C287.788 208.814 287.093 209.393 285.991 209.731C282.345 210.849 278.662 211.726 274.913 212.24C274.573 212.289 274.218 212.425 273.767 212.144C290.65 177.652 307.526 143.152 324.49 108.483Z" fill="#CFE5EB"/>
<path d="M53.485 43.5632C44.6256 50.1511 40.1811 59.8761 37.2008 70.5985C35.2781 77.5081 34.2871 84.6108 33.8582 91.8181C32.9042 107.833 34.7235 123.487 39.0127 138.81C39.693 141.239 40.0776 143.669 39.6486 146.194C39.6265 146.323 39.6191 146.452 39.5969 146.572C38.9239 150.643 36.4169 151.736 33.3258 149.315C33.0891 149.13 32.8451 148.937 32.638 148.704C28.8961 144.594 26.219 139.904 25.3685 134.064C24.8953 130.831 24.2667 127.629 23.8821 124.379C23.4384 120.623 23.0908 116.858 22.9207 113.062C22.7359 108.887 22.7211 104.712 22.9429 100.546C23.6529 87.5066 26.0785 74.9582 32.1203 63.4878C35.9806 56.1518 41.0759 50.1028 47.9904 46.0407C49.7357 45.0111 51.5475 44.1424 53.4776 43.5552L53.485 43.5632Z" fill="#A5BC00"/>
<path d="M342.605 123.92C344.668 127.757 347.442 130.113 351.368 130.676C351.45 131.32 350.999 131.722 350.732 132.189C340.29 150.175 329.826 168.145 319.384 186.131C317.047 190.161 313.956 193.402 310.554 196.322C306.265 200.006 301.54 202.894 296.607 205.404C296.319 205.548 296.023 205.894 295.52 205.597C311.198 178.409 326.868 151.228 342.613 123.92H342.605Z" fill="#CFE5EB"/>
<path d="M141.052 183.356C141.274 181.715 141.422 180.517 141.607 179.326C142.516 173.35 142.716 167.317 142.701 161.268C142.679 154.575 142.117 147.923 141.163 141.319C140.8 138.842 141.118 138.504 143.404 138.657C143.751 138.681 144.106 138.745 144.446 138.793C144.631 139.509 143.877 139.759 143.847 140.338C143.832 140.595 143.847 140.853 144.077 141.022C144.291 141.19 144.55 141.199 144.735 141.038C145.06 140.764 145.341 140.434 145.629 140.121C147.427 138.166 149.556 136.847 152.019 136.179C152.64 136.01 153.298 135.97 153.942 135.906C155.295 135.777 156.108 136.437 156.648 137.82C159.207 144.303 159.325 150.915 157.602 157.616C155.28 166.673 150.488 174.041 144.224 180.364C143.293 181.305 142.294 182.182 141.052 183.34V183.356Z" fill="#FCF6F5"/>
<path d="M281.311 170.13C283.366 168.674 285.348 167.307 287.168 165.666C290.2 162.939 292.721 159.746 294.866 156.174C295.783 154.646 295.79 154.654 297.07 155.668C298.391 156.719 298.662 158.051 297.883 159.665C295.398 164.773 292.914 169.873 290.421 174.973C289.756 176.34 289.712 176.38 288.484 175.528C287.323 174.723 285.836 174.651 284.786 173.766C283.781 172.922 283.115 171.618 282.072 170.766C281.843 170.581 281.614 170.388 281.303 170.122L281.311 170.13Z" fill="#C30000"/>
<path d="M313.688 171.101C312.645 169.686 311.662 168.326 310.656 166.991C310.33 166.565 310.397 166.211 310.611 165.768C312.66 161.65 314.686 157.523 316.764 153.308C318.399 154.531 319.604 156.035 320.935 157.37C321.505 157.942 321.15 158.4 320.869 158.883C319.116 161.931 317.378 164.996 315.588 168.029C314.989 169.042 314.538 170.168 313.688 171.085V171.101Z" fill="#FE1D00"/>
<path d="M300.931 185.524C301.39 185.693 301.745 186.022 302.092 186.384C303.734 188.066 303.786 188.476 302.581 190.567C299.208 196.431 295.77 202.263 292.486 208.191C291.517 209.945 290.334 210.934 288.493 211.023C288.803 209.703 299.349 188.114 300.939 185.532L300.931 185.524Z" fill="#FCF6F5"/>
<path d="M304.5 187.258C303.694 186.325 303.161 185.456 302.355 184.893C301.66 184.411 301.682 183.824 302.052 183.092C303.886 179.432 305.683 175.756 307.502 172.088C308.146 170.793 308.797 169.506 309.507 168.074C310.875 169.232 311.695 170.76 312.627 172.184C313.027 172.803 312.568 173.286 312.302 173.753C310.815 176.367 309.314 178.973 307.806 181.579C306.741 183.421 305.668 185.255 304.507 187.25L304.5 187.258Z" fill="#C30000"/>
<path d="M300.544 139.917C302.119 140.818 303.546 142.041 305.047 143.151C305.75 143.665 305.469 144.22 305.181 144.808C303.739 147.752 302.311 150.696 300.862 153.632C299.716 155.956 299.701 155.956 297.719 154.356C296.284 153.197 296.329 153.495 297.068 151.806C298.577 148.371 299.642 144.792 300.093 141.003C300.137 140.633 300.107 140.223 300.536 139.909L300.544 139.917Z" fill="#FE1D00"/>
<path d="M154.487 134.38C151.558 134.573 148.926 135.57 146.559 137.396C146.226 137.654 145.886 137.943 145.428 137.766C144.111 137.276 142.751 137.396 141.397 137.485C140.954 137.517 140.517 137.493 140.466 136.906C140.377 135.892 139.889 134.935 140.103 133.905C140.554 133.527 141.042 133.68 141.494 133.712C144.563 133.897 147.306 132.9 149.806 131.009C151.344 129.843 151.366 129.835 152.645 131.379C153.274 132.136 153.836 132.964 154.413 133.785C154.502 133.913 154.465 134.138 154.494 134.388L154.487 134.38Z" fill="#C30000"/>
<path d="M328.465 105.001C331.083 105.234 333.397 106.57 335.098 109.096C335.579 109.811 336.008 110.656 335.564 111.597C335.091 112.603 334.152 112.772 333.279 112.707C330.506 112.498 328.176 111.227 326.446 108.83C325.869 108.026 325.337 107.109 325.884 106.007C326.394 104.961 327.333 105.066 328.465 105.001Z" fill="#CFE5EB"/>
<path d="M351.071 129.062C348.557 128.933 344.992 126.101 344.112 123.519C343.513 121.758 344.193 120.648 345.902 120.921C349.082 121.428 351.441 123.334 352.824 126.479C353.578 128.193 352.853 129.15 351.064 129.062H351.071Z" fill="#CFE5EB"/>
<path d="M170.372 341.667C169.958 341.667 169.544 341.667 169.13 341.667C164.471 341.732 159.834 341.394 155.19 340.959C150.968 340.573 146.774 339.954 142.604 339.222C138.255 338.458 133.951 337.38 129.677 336.173C121.675 333.913 113.858 331.025 106.271 327.486C98.018 323.633 90.12 319.04 82.5547 313.755C77.3337 310.111 72.3567 306.138 67.5499 301.899C62.3659 297.33 57.4333 292.431 52.8852 287.122C44.9058 277.807 37.8286 267.753 31.8238 256.797C29.1023 251.826 26.5658 246.742 24.3324 241.498C21.1895 234.105 18.2684 226.608 16.427 218.669C15.8724 216.264 15.7614 213.851 15.9019 211.414C16.035 209.001 17.9504 207.706 20.0432 208.542C21.685 209.194 22.8904 210.585 24.2437 211.687C30.6183 216.875 37.2001 221.734 43.9445 226.327C52.7077 232.295 61.7742 237.677 71.0774 242.559C76.8678 245.6 82.747 248.423 88.7001 251.086C98.6318 255.534 108.734 259.467 118.954 263.039C128.094 266.232 137.368 268.935 146.693 271.413C152.631 272.989 158.622 274.365 164.626 275.571C170.165 276.689 175.727 277.711 181.332 278.427C185.237 278.925 189.127 279.553 193.053 279.955C197.565 280.414 202.068 280.832 206.587 281.17C208.946 281.347 211.297 281.403 213.649 281.459C217.243 281.548 220.837 282.143 224.431 281.805C228.025 281.467 231.627 281.62 235.213 281.411C239.436 281.162 243.666 280.816 247.859 280.229C250.825 279.818 253.79 279.384 256.756 278.885C262.457 277.92 268.137 282.038 268.129 289.037C268.129 293.597 266.717 297.555 264.306 301.183C261.57 305.301 258.619 309.219 255.173 312.661C250.692 317.15 245.855 321.115 240.486 324.285C232.877 328.781 224.72 331.725 216.481 334.484C211.689 336.085 206.838 337.396 201.928 338.426C198.644 339.109 195.346 339.721 192.018 340.163C188.224 340.662 184.423 341.016 180.615 341.394C177.183 341.732 173.774 341.474 170.358 341.683L170.372 341.667Z" fill="#C30000"/>
<path d="M233.348 239.39C216.997 239.406 202.562 238.296 188.193 236.221C180.288 235.079 172.427 233.599 164.639 231.717C164.521 231.692 164.403 231.692 164.292 231.644C163.73 231.419 162.724 231.515 162.953 230.542C163.168 229.633 164.077 230.076 164.654 230.204C168.929 231.21 173.218 232.119 177.522 232.915C185.679 234.435 193.88 235.561 202.118 236.398C214.845 237.701 227.602 238.16 240.373 237.79C255.223 237.355 269.976 235.851 284.53 232.457C291.467 230.84 298.3 228.797 304.911 225.965C305.348 225.78 305.799 225.611 306.257 225.499C306.553 225.426 306.849 225.531 306.989 225.885C307.13 226.247 306.967 226.544 306.701 226.697C306.124 227.019 305.532 227.3 304.926 227.558C297.745 230.59 290.328 232.73 282.792 234.371C270.716 237.009 258.506 238.433 246.208 239.028C241.305 239.27 236.402 239.439 233.341 239.382L233.348 239.39Z" fill="#110C08"/>
<path d="M294.081 276.946C294.392 275.602 294.851 274.283 295.413 273.012C298.556 265.869 302.445 259.209 306.513 252.669C309.33 248.149 312.318 243.773 315.646 239.671C316.393 238.754 317.191 237.901 318.138 237.225C318.434 237.016 318.774 236.847 319.129 237.073C319.573 237.354 319.558 237.821 319.454 238.263C319.144 239.639 318.663 240.95 318.094 242.221C314.847 249.524 310.891 256.362 306.668 263.03C303.658 267.792 300.597 272.522 296.847 276.656C296.433 277.115 295.997 277.549 295.524 277.927C295.213 278.176 294.858 278.522 294.407 278.193C293.993 277.887 294.052 277.428 294.067 276.946H294.081Z" fill="#FCF6F5"/>
<path d="M13.3867 129.024C13.4015 131.172 13.1648 133.199 12.5215 135.137C12.2035 136.087 11.8263 137.261 10.7096 137.213C9.60037 137.165 9.30456 135.998 9.05312 135.001C8.10654 131.252 8.3284 127.544 9.41549 123.876C9.46725 123.691 9.54121 123.514 9.62255 123.345C9.97752 122.67 10.3547 121.954 11.1755 121.97C12.0186 121.986 12.3588 122.758 12.6176 123.466C13.2758 125.276 13.4237 127.182 13.3867 129.024Z" fill="#FCF6F5"/>
<path d="M325.137 226.442C324.782 228.766 324.006 230.801 322.482 232.434C322.105 232.837 321.639 233.198 321.07 232.853C320.589 232.555 320.56 232.008 320.604 231.493C320.826 229.112 321.75 227.101 323.348 225.452C323.71 225.074 324.169 224.865 324.627 225.155C325.071 225.436 325.086 225.999 325.137 226.434V226.442Z" fill="#FCF6F5"/>
<path d="M10.4927 141.803C10.4706 140.797 11.0622 139.896 11.7869 139.84C12.6004 139.784 13.4212 140.837 13.4138 141.948C13.4138 143.025 12.8296 143.773 12.0088 143.757C11.1509 143.741 10.5149 142.921 10.4854 141.803H10.4927Z" fill="#FCF6F5"/>
<path d="M216.161 93.5338C216.146 94.306 215.606 94.6278 215.088 94.9415C214.157 95.5046 213.262 96.1803 212.264 96.5342C210.925 97.0168 210.378 98.0143 209.941 99.3737C207.96 105.559 205.674 111.616 202.879 117.432C201.311 120.682 199.596 123.827 197.481 126.69C196.438 128.098 195.306 129.401 193.938 130.447C190.914 132.747 188.377 132.305 186.129 129.096C186.025 128.943 185.907 128.79 185.804 128.645C183.592 123.964 183.119 118.872 182.801 113.74C182.557 109.895 182.572 106.05 182.764 102.197C182.845 100.5 182.831 100.5 181.27 99.993C179.747 99.4943 178.246 98.9071 176.848 98.0706C176.486 97.8534 176.123 97.6362 175.79 97.3707C175.458 97.1053 175.081 96.7835 175.339 96.2687C175.65 95.6413 176.116 95.8344 176.545 96.124C179.2 97.9177 182.128 98.8589 185.182 99.3334C192.977 100.548 200.579 99.623 208.004 96.8238C210.237 95.9792 212.382 94.9254 214.423 93.6223C214.992 93.2604 215.554 92.8501 216.168 93.5338H216.161ZM208.462 98.4808C207.908 98.4245 207.427 98.7141 206.924 98.883C203.012 100.17 199.026 101.071 194.937 101.272C191.749 101.425 188.562 101.497 185.389 100.95C184.236 100.749 184.199 100.822 184.14 102.109C184.073 103.46 184.117 104.811 184.014 106.155C183.94 107.144 184.347 107.506 185.168 107.683C191.076 108.962 196.955 110.345 202.798 111.954C203.485 112.147 203.907 111.962 204.181 111.23C204.898 109.332 205.697 107.466 206.377 105.551C207.19 103.283 208.159 101.071 208.625 98.6738C208.751 98.5934 208.795 98.4728 208.706 98.3762C208.61 98.2797 208.514 98.336 208.462 98.4888V98.4808ZM184.347 108.986C183.999 109.461 184.051 109.855 184.043 110.241C183.999 112.751 184.243 115.252 184.509 117.738C184.798 120.416 185.219 123.079 186.099 125.621C186.477 126.707 186.883 127.784 187.541 128.701C188.562 130.125 189.93 131.082 192.052 129.956C193.029 129.441 193.842 128.718 194.611 127.905C198.146 124.157 200.379 119.475 202.598 114.778C203.101 113.708 202.983 113.499 201.858 113.209C198.582 112.364 195.306 111.544 192.023 110.748C189.442 110.12 186.854 109.549 184.347 108.97V108.986Z" fill="#110C08"/>
<path d="M231.958 149.038C231.595 148.104 230.738 147.678 230.139 146.994C229.702 146.496 229.14 146.817 228.637 146.962C224.992 148.008 221.316 148.949 217.611 149.705C214.476 150.349 211.333 150.88 208.123 150.735C207.354 150.703 206.592 150.67 205.868 150.333C204.47 149.681 204.048 148.539 204.751 147.083C205.254 146.045 206.053 145.265 206.859 144.509C209.469 142.08 212.398 140.149 215.378 138.315C217.685 136.891 220.044 135.564 222.374 134.197C224.2 133.127 223.868 133.601 223.712 131.422C223.594 129.748 223.55 128.083 223.816 126.434C223.912 125.847 223.956 125.091 224.814 125.155C225.361 125.735 225.176 126.442 225.125 127.142C224.614 134.615 226.966 140.962 231.595 146.391C232.328 147.244 233.222 147.863 234.184 148.37C234.642 148.611 235.012 148.989 234.694 149.576C234.428 150.051 233.977 149.882 233.577 149.721C233.03 149.512 232.572 149.03 231.943 149.038H231.958ZM225.014 146.367C224.918 145.957 224.651 145.796 224.415 145.627C221.153 143.246 217.5 142.152 213.625 141.83C213.026 141.782 212.472 141.887 211.946 142.265C210.327 143.439 208.693 144.589 207.28 146.061C206.615 146.753 205.542 147.501 205.912 148.531C206.245 149.448 207.458 149.215 208.33 149.255C211.473 149.391 214.557 148.812 217.619 148.185C220.096 147.678 222.588 147.196 225.006 146.375L225.014 146.367ZM215.082 140.471C216.014 140.672 216.813 140.817 217.604 141.026C220.614 141.814 223.498 142.932 225.931 145.104C227.092 146.134 227.084 146.15 228.652 145.177C226.826 142.305 225.391 139.224 224.496 135.87C224.274 135.025 223.838 135.122 223.298 135.435C221.057 136.739 218.809 138.034 216.576 139.337C216.073 139.634 215.541 139.908 215.082 140.479V140.471Z" fill="#110C08"/>
<path d="M170.247 102.583C169.855 104.619 169.862 106.734 169.84 108.85C169.795 112.799 170.35 116.644 171.43 120.409C172.31 123.473 173.138 126.562 173.057 129.828C173.042 130.471 173.027 131.107 172.82 131.726C172.273 133.399 171.186 134.059 169.633 133.544C168.538 133.182 167.636 132.45 166.771 131.67C164.027 129.184 161.868 126.128 159.731 123.047C159.095 122.122 158.444 121.197 157.889 120.215C157.364 119.274 156.817 118.76 155.767 119.363C155.316 119.62 154.746 119.66 154.221 119.749C153.837 119.813 153.496 119.636 153.393 119.21C153.282 118.76 153.585 118.486 153.925 118.341C154.199 118.229 154.502 118.213 154.783 118.116C160.389 116.282 164.486 112.437 167.296 106.911C168.013 105.495 168.509 103.983 168.76 102.39C168.849 101.811 168.849 101.111 169.588 101.176C170.328 101.24 170.232 101.94 170.239 102.575L170.247 102.583ZM158.348 118.357C161.232 122.942 164.064 127.27 167.828 130.745C168.316 131.195 168.878 131.589 169.463 131.887C170.801 132.571 171.489 132.136 171.629 130.568C171.666 130.125 171.659 129.667 171.652 129.225C171.607 126.104 170.727 123.168 169.884 120.24C169.004 117.199 167.947 114.239 166.63 111.021C164.212 114.134 161.631 116.62 158.348 118.365V118.357Z" fill="#110C08"/>
<path d="M83.9405 125.993C83.8887 121.521 84.4285 117.346 85.878 113.34C86.5731 111.418 87.4975 109.624 88.7178 108.031C91.9568 103.816 96.5271 102.425 101.327 104.178C104.129 105.208 106.488 107.002 108.581 109.222C113.174 114.088 116.146 120.032 118.128 126.588C120.436 134.222 121.279 142 119.814 149.956C119.245 153.068 118.254 156.021 116.568 158.643C114.142 162.407 110.918 164.627 106.562 164.459C104.403 164.378 102.391 163.614 100.506 162.488C97.1187 160.461 94.4712 157.549 92.2452 154.17C87.9191 147.623 85.4269 140.271 84.3398 132.323C84.044 130.16 83.9035 127.98 83.9331 125.977L83.9405 125.993ZM119.134 141.614C119.164 140.464 119.031 138.807 118.853 137.142C117.944 128.672 115.348 120.909 110.637 114.064C108.463 110.903 105.897 108.176 102.554 106.414C96.9634 103.478 91.5649 105.28 88.4367 111.144C86.5879 114.611 85.7005 118.392 85.4269 122.325C84.9092 129.822 86.0555 137.053 88.6512 144.003C90.6997 149.481 93.4802 154.436 97.592 158.418C99.3742 160.147 101.341 161.539 103.619 162.367C107.442 163.759 110.852 162.962 113.787 159.986C115.178 158.57 116.191 156.825 116.953 154.919C118.572 150.84 119.171 146.553 119.134 141.614Z" fill="#110C08"/>
<path d="M238.135 184.95C240.146 184.902 241.958 185.529 243.577 186.824C243.91 187.089 244.25 187.339 244.42 187.773C244.554 188.111 244.472 188.425 244.243 188.642C244.066 188.811 243.814 188.835 243.585 188.69C243.437 188.594 243.289 188.481 243.149 188.36C240.56 186.084 237.713 185.891 234.688 187.122C234.467 187.21 234.252 187.323 234.03 187.387C233.734 187.476 233.439 187.443 233.269 187.114C233.054 186.687 233.269 186.398 233.564 186.148C234.348 185.473 236.352 184.942 238.127 184.95H238.135Z" fill="#110C08"/>
<path d="M209.325 194.462C211.758 194.566 213.991 195.266 215.929 196.899C216.299 197.213 216.639 197.583 216.927 197.977C217.164 198.307 217.157 198.701 216.816 198.999C216.535 199.24 216.262 199.135 216.01 198.934C215.774 198.741 215.574 198.5 215.345 198.299C213.207 196.433 210.752 195.765 208.053 196.047C207.698 196.087 207.35 196.135 206.996 196.191C206.589 196.248 206.249 196.063 206.16 195.668C206.042 195.122 206.426 194.816 206.848 194.743C207.661 194.607 208.489 194.558 209.31 194.47L209.325 194.462Z" fill="#110C08"/>
<path d="M257.182 201.198C258.683 201.182 259.659 201.383 260.606 201.753C260.998 201.906 261.338 202.236 261.131 202.783C260.961 203.233 260.569 203.225 260.229 203.12C259.437 202.879 258.639 202.686 257.81 202.686C256.013 202.686 254.313 203.048 252.833 204.23C252.442 204.544 252.02 204.906 251.628 204.327C251.236 203.748 251.709 203.37 252.064 203.072C253.706 201.656 255.666 201.327 257.189 201.206L257.182 201.198Z" fill="#110C08"/>
<path d="M184.342 108.989C186.849 109.568 189.437 110.139 192.018 110.766C195.302 111.563 198.578 112.383 201.854 113.228C202.978 113.517 203.096 113.726 202.593 114.796C200.375 119.486 198.142 124.175 194.607 127.924C193.838 128.736 193.024 129.452 192.048 129.975C189.926 131.101 188.557 130.144 187.537 128.72C186.879 127.803 186.472 126.725 186.095 125.639C185.215 123.089 184.786 120.427 184.505 117.756C184.239 115.271 183.995 112.769 184.039 110.259C184.039 109.881 183.995 109.479 184.342 109.005V108.989Z" fill="#C30000"/>
<path d="M208.625 98.6619C208.152 101.059 207.183 103.271 206.37 105.539C205.689 107.454 204.883 109.32 204.173 111.218C203.892 111.958 203.478 112.135 202.79 111.942C196.955 110.333 191.069 108.95 185.16 107.671C184.347 107.494 183.933 107.132 184.006 106.143C184.11 104.799 184.073 103.448 184.132 102.097C184.191 100.81 184.228 100.745 185.382 100.938C188.555 101.485 191.742 101.421 194.929 101.26C199.019 101.059 203.005 100.15 206.917 98.8711C207.42 98.7021 207.9 98.4206 208.455 98.4689C208.507 98.5332 208.566 98.5895 208.618 98.6539L208.625 98.6619Z" fill="#FE1D00"/>
<path d="M208.463 98.4817C208.514 98.3321 208.608 98.2691 208.702 98.3714C208.789 98.4659 208.746 98.584 208.623 98.6627C208.572 98.6076 208.514 98.5446 208.463 98.4817Z" fill="#FE1D00"/>
<path d="M225.016 146.368C222.598 147.188 220.106 147.671 217.628 148.178C214.559 148.805 211.483 149.392 208.34 149.247C207.467 149.207 206.255 149.441 205.922 148.524C205.552 147.494 206.624 146.738 207.29 146.054C208.702 144.59 210.337 143.432 211.956 142.257C212.481 141.879 213.036 141.775 213.635 141.823C217.51 142.145 221.163 143.231 224.425 145.62C224.661 145.797 224.927 145.949 225.024 146.36L225.016 146.368Z" fill="#FCF6F5"/>
<path d="M215.084 140.473C215.542 139.902 216.068 139.629 216.578 139.331C218.819 138.028 221.059 136.733 223.3 135.43C223.847 135.116 224.276 135.02 224.498 135.864C225.393 139.218 226.828 142.299 228.654 145.171C227.079 146.136 227.086 146.128 225.933 145.099C223.492 142.927 220.616 141.809 217.606 141.02C216.814 140.811 216.016 140.666 215.084 140.465V140.473Z" fill="#C30000"/>
<path d="M158.344 118.354C161.628 116.609 164.201 114.123 166.627 111.01C167.943 114.228 169.008 117.188 169.881 120.228C170.731 123.164 171.604 126.092 171.648 129.213C171.648 129.664 171.663 130.114 171.626 130.556C171.485 132.125 170.798 132.559 169.459 131.876C168.875 131.578 168.32 131.192 167.825 130.733C164.053 127.25 161.228 122.931 158.344 118.346V118.354Z" fill="#C30000"/>
<path d="M119.135 141.61C119.172 146.549 118.573 150.836 116.953 154.914C116.199 156.821 115.186 158.566 113.788 159.982C110.852 162.958 107.443 163.755 103.619 162.363C101.342 161.535 99.3746 160.143 97.5924 158.414C93.4807 154.432 90.7001 149.469 88.6516 143.999C86.0559 137.049 84.9023 129.818 85.4273 122.321C85.7009 118.379 86.5884 114.599 88.4372 111.14C91.5653 105.276 96.9638 103.474 102.555 106.41C105.89 108.164 108.463 110.899 110.637 114.06C115.341 120.905 117.937 128.668 118.854 137.138C119.031 138.803 119.172 140.46 119.135 141.61ZM93.2884 118.186C93.2736 116.972 93.3623 115.741 92.926 114.575C92.6968 113.955 92.4158 113.36 91.7576 113.256C91.0846 113.159 90.7075 113.73 90.3377 114.237C90.1898 114.438 90.0715 114.663 89.9753 114.896C88.7625 118.042 88.2966 121.291 88.9031 124.67C89.0657 125.579 89.3098 126.576 90.2859 126.64C91.129 126.697 91.5653 125.844 91.9203 125.08C92.083 124.734 92.2383 124.388 92.3566 124.026C92.9556 122.136 93.3032 120.189 93.281 118.178L93.2884 118.186Z" fill="#C30000"/>
<path d="M93.2939 118.188C93.3161 120.199 92.9685 122.145 92.3695 124.035C92.2512 124.397 92.0959 124.743 91.9332 125.089C91.5782 125.853 91.1419 126.706 90.2989 126.65C89.3227 126.577 89.0786 125.58 88.916 124.679C88.3095 121.293 88.7754 118.051 89.9883 114.906C90.077 114.672 90.2027 114.447 90.3506 114.246C90.7204 113.739 91.0975 113.16 91.7705 113.265C92.4287 113.361 92.7023 113.965 92.9389 114.584C93.3752 115.758 93.2865 116.981 93.3013 118.204L93.2939 118.188Z" fill="#FCF6F5"/>
</svg>
