<svg width="344" height="322" viewBox="0 0 344 322" fill="none" xmlns="http://www.w3.org/2000/svg">
<path d="M35.1738 196.865C30.6705 192.357 26.2106 187.952 21.8112 183.463C15.7404 177.263 9.91211 170.807 4.17907 164.238C3.26975 163.189 2.7588 162.036 2.55096 160.675C0.905525 149.844 0.169411 138.937 0.411895 127.964C0.706341 114.429 1.8668 100.989 4.04917 87.6534C4.34362 85.8387 5.08839 84.2225 5.87647 82.6252C9.60034 75.1396 14.4327 68.5331 19.6981 62.2951C31.2161 48.6661 44.3883 37.1637 58.5303 26.975C71.2002 17.8449 84.4676 9.94353 98.7309 4.14979C101.121 3.17629 103.555 2.3162 105.997 1.47503C108.993 0.444817 109.184 0.567685 110.379 3.61105C115.332 16.2665 121.152 28.4211 127.89 40.0559C128.184 40.5662 128.47 41.0861 128.773 41.587C129.769 43.2032 129.544 43.0047 130.99 42.1635C136.411 38.9878 141.954 36.0484 147.67 33.5911C159.698 28.4211 173.667 31.9276 181.834 45.2163C182.18 45.7834 182.501 46.3694 182.873 46.9082C183.609 47.9951 183.549 48.4676 182.518 49.1671C182.224 49.3655 181.895 49.4884 181.583 49.6491C172.377 54.3654 163.44 59.6204 154.814 65.5086C153.411 66.4632 151.974 67.3706 150.527 68.3063C150.605 69.2419 151.082 69.8941 151.445 70.5841C154.433 76.2644 158.209 81.2547 162.634 85.678C185.532 108.579 212.006 124.486 241.771 133.965C256.97 138.805 272.489 141.744 288.259 143.011C302.297 144.135 316.344 144.069 330.373 142.68C333.543 142.368 336.712 142.009 339.882 141.706C341.605 141.546 341.597 141.574 341.857 143.379C342.775 149.721 343.277 156.12 343.606 162.528C343.918 168.567 343.987 174.607 343.935 180.656C343.831 194.219 342.376 207.611 339.908 220.89C336.106 241.325 330.087 260.946 321.687 279.678C315.079 294.404 307.121 308.146 296.893 320.244C296.217 321.048 295.559 321.18 294.719 321.161C290.77 321.057 286.83 321.019 282.881 320.83C276.654 320.537 270.436 320.225 264.218 319.781C254.207 319.063 244.222 318.089 234.245 316.908C223.108 315.594 211.997 314.006 200.921 312.201C186.562 309.848 172.273 307.04 158.053 303.874C135.493 298.855 113.141 292.901 91.0666 285.803C61.5527 276.314 32.5844 265.171 4.7593 250.71C3.48626 250.048 2.73282 249.235 2.23053 247.733C0.16075 241.514 0.0395079 235.172 0.888205 228.745C1.39916 224.851 2.33445 221.07 3.5209 217.356C4.04917 215.702 4.89787 214.454 6.11895 213.377C10.0853 209.908 14.5366 207.318 19.0226 204.776C23.9329 201.988 29.0598 199.748 34.2039 197.536C34.5243 197.394 34.8707 197.328 35.1652 196.874L35.1738 196.865ZM187.68 108.711L187.628 108.683C187.454 108.38 187.229 108.154 186.865 108.172H186.883C186.727 107.794 186.441 107.643 186.069 107.643L186.103 107.672C183.601 105.356 180.76 103.541 178.145 101.386C175.295 99.0329 175.269 99.0613 172.282 101.358C168.87 103.22 165.761 105.602 162.626 107.946C147.912 118.947 134.341 131.489 121.498 144.976C112.111 154.834 103.182 165.165 95.2495 176.478C93.8638 178.453 92.5908 180.523 91.2225 182.527C90.7289 183.245 90.8068 183.727 91.491 184.172C91.7854 184.361 92.0539 184.606 92.331 184.833C102.533 193.169 113.089 200.92 123.975 208.14C133.016 214.142 142.266 219.737 151.722 224.936C153.385 225.853 153.403 225.843 154.329 224.028C156.719 219.34 159.3 214.785 162.089 210.362C180.422 181.336 202.012 155.505 226.252 132.255C226.815 131.716 227.499 131.31 227.889 130.497C227.412 130.289 226.971 130.09 226.52 129.911C217.713 126.291 209.131 122.104 200.886 117.151C196.591 114.571 192.399 111.773 188.164 109.08C188.078 108.834 187.931 108.692 187.68 108.721V108.711ZM108.318 102.653C108.023 102.653 107.841 102.832 107.763 103.135C107.486 103.352 107.183 103.541 106.923 103.787C100.922 109.505 95.1889 115.516 89.8369 121.962C89.5078 122.35 89.196 122.756 88.8583 123.134C88.3473 123.701 87.9489 123.654 87.5592 122.936C87.1003 122.094 86.6066 121.272 86.061 120.488C82.0947 114.732 77.271 110.271 70.7239 108.418C63.3194 106.32 56.4692 109.675 52.9618 117.114C51.4809 120.242 50.6842 123.588 50.563 127.104C50.1386 139.419 54.3301 149.683 62.5054 157.982C70.6719 166.261 79.2888 173.983 88.1481 181.355C88.6244 181.752 89.1094 182.121 89.603 182.518C91.439 179.814 93.1191 177.234 94.8944 174.73C101.476 165.458 108.751 156.857 116.346 148.577C117.783 147.008 117.697 147.424 116.735 145.629C114.622 141.697 112.925 137.576 112.275 133.039C110.95 123.862 114.397 117.189 121.542 113.607C122.668 113.04 123.854 112.605 125.04 112.218C130.444 110.469 135.97 110.535 141.503 111.102C145.089 111.471 148.613 112.246 152.104 113.21C152.805 113.399 153.385 113.513 154.035 112.974C159.257 108.617 164.773 104.713 170.281 100.819C171.58 100.025 172.871 99.2314 174.421 98.2863C169.398 94.0426 164.747 89.761 160.348 85.196C155.905 80.5931 152.303 75.2436 149.35 69.2797C148.795 69.62 148.31 69.8846 147.86 70.1965C135.277 79.0242 123.213 88.6363 111.79 99.1841C110.587 100.29 109.236 101.235 108.3 102.672H108.318V102.653ZM155.481 274.121C154.728 268.828 153.913 263.545 153.472 258.205C152.666 248.498 151.974 238.801 152.779 229.047C152.978 226.656 153.125 227.176 151.289 226.164C130.349 214.7 110.526 201.25 91.7248 186.015C91.2398 185.627 90.8414 185.07 90.114 184.984C89.9581 185.476 89.7762 185.967 89.655 186.468C87.4034 195.438 86.8751 204.606 87.1869 213.849C87.2302 215.191 87.0656 216.571 87.5679 217.875C87.5506 218.102 87.4986 218.329 87.5073 218.547C87.9749 225.947 89.2653 233.187 91.1359 240.313C91.3957 241.315 92.0279 241.769 92.7207 242.26C112.682 256.286 133.372 268.866 154.927 279.716C155.524 280.019 156.079 280.52 156.971 280.444C156.46 278.28 155.975 276.191 155.481 274.102V274.121ZM53.2303 148.398C53.4555 148.606 53.6027 149.22 53.9664 148.833C54.2349 148.549 53.8365 148.199 53.6114 147.954C53.2216 146.99 52.8406 146.026 52.4509 145.061C49.6796 138.134 48.5365 130.96 49.7229 123.427C50.3811 119.24 52.0612 115.554 54.2695 112.142C56.0622 109.373 57.9761 106.707 59.838 104.004C59.9419 103.882 60.0545 103.749 60.1584 103.626C60.3836 103.626 60.5135 103.503 60.5049 103.248C63.839 99.2125 67.0952 95.1011 70.6546 91.2922C71.2088 90.6967 71.382 90.2053 71.0789 89.3357C70.3515 87.2375 70.2995 85.0353 70.8624 82.8804C73.6077 72.4176 79.9469 65.8489 89.4472 62.9662C92.0625 62.1723 94.8598 62.314 97.2153 64.1949C98.116 64.9132 98.6702 64.8281 99.5103 64.1382C106.802 58.1365 114.397 52.6263 122.261 47.5509C123.473 46.7664 124.261 45.7078 124.564 44.2428C125.257 40.897 125.049 37.6835 123.395 34.6496C118.121 24.9808 113.479 14.9622 109.426 4.61291C109.314 4.33882 109.218 4.05527 109.097 3.78118C108.292 2.02321 108.846 2.02321 106.672 2.63755C106.542 2.67536 106.421 2.76042 106.283 2.79823C97.5271 5.68092 89.1787 9.64108 81.0641 14.1872C74.7335 17.7315 68.4895 21.4554 62.6093 25.8503C59.5522 27.6272 56.7723 29.8766 53.9404 32.0316C40.803 42.0596 28.5661 53.2217 17.9834 66.4443C13.5147 72.0301 9.5224 77.9845 6.30947 84.5533C5.53872 86.1222 5.50408 87.2281 6.50866 88.7875C16.3726 104.146 27.1026 118.73 38.8025 132.463C43.4616 137.935 48.1728 143.36 53.2216 148.426L53.2303 148.398ZM85.9051 215.182C85.9051 212.242 85.9051 209.294 85.9225 206.354C85.9225 205.806 85.8705 205.437 85.2816 205.154C82.2419 203.661 79.5399 201.543 76.7254 199.615C76.379 199.379 76.0239 199.114 75.7208 198.812C75.4523 198.538 75.3397 198.179 75.6082 197.81C75.842 197.489 76.1105 197.678 76.3357 197.81C76.6994 198.037 77.0285 198.311 77.3835 198.547C79.5486 200.041 81.705 201.543 83.8787 203.008C84.4502 203.386 84.9785 203.953 85.7319 203.812C86.0004 203.481 85.9571 203.093 85.9918 202.734C86.4681 197.101 87.0829 191.487 88.4772 186.015C89.0228 183.879 89.0141 183.869 87.3687 182.489C67.892 166.167 49.8788 148.114 33.4764 128.162C28.4882 122.094 23.7597 115.781 18.988 109.515C14.4587 103.04 9.94675 96.5377 5.6513 89.8745C5.53872 89.6949 5.33954 89.572 4.95849 89.8178C4.40424 93.3904 3.93659 97.1048 3.44296 100.819C3.23511 102.369 3.46894 103.598 4.22237 104.855C7.17549 109.789 10.2412 114.637 13.5754 119.268C16.312 123.068 19.1265 126.801 21.8978 130.572C22.3914 131.243 23.1275 131.848 22.6252 132.897C21.7939 132.926 21.5687 132.179 21.1877 131.688C15.1169 123.928 9.38384 115.885 4.24835 107.341C3.94525 106.84 3.77204 106.103 2.89737 105.932C2.70684 108.314 2.5856 110.564 2.32579 112.785C1.89279 116.613 1.91011 120.469 1.71092 124.316C1.45978 129.136 1.27791 134.003 1.75422 138.805C2.4124 145.421 3.90195 151.867 6.17091 158.067C8.84691 165.373 12.5188 171.923 17.7669 177.442C26.886 187.045 36.291 196.298 46.0683 205.088C59.5436 217.195 73.5644 228.499 88.1222 239.018C88.4859 239.283 88.8236 239.822 89.4385 239.406C89.4818 238.281 89.0315 237.242 88.7803 236.173C87.1869 229.274 86.494 222.223 85.8878 215.163L85.9051 215.182ZM263.326 316.568C266.271 317.012 269.215 317.503 272.168 317.9C279.451 318.874 286.769 319.45 294.104 319.8C295.031 319.847 295.326 319.479 295.403 318.562C295.577 316.539 295.897 314.517 296.01 312.485C296.235 308.638 296.339 304.791 296.529 300.944C296.581 299.876 296.287 299.46 295.239 299.527C293.585 299.631 291.913 299.574 290.259 299.564C289.835 299.564 289.315 299.517 289.324 298.941C289.324 298.43 289.809 298.279 290.251 298.27C291.844 298.27 293.438 298.326 295.022 298.26C296.495 298.194 296.512 298.137 296.538 296.587C296.616 292.05 296.425 287.523 296.2 282.996C296.131 281.607 296.096 281.588 294.667 281.748C289.566 282.334 284.457 282.722 279.33 282.571C274.073 282.41 268.825 282.117 263.603 281.37C256.459 280.35 249.392 278.941 242.533 276.474C242.013 276.285 241.503 276.059 241.018 275.785C240.896 275.718 240.81 275.397 240.836 275.208C240.87 274.868 241.121 274.688 241.425 274.726C241.693 274.764 241.953 274.887 242.221 274.981C250.89 278.015 259.784 279.707 268.843 280.595C276.238 281.323 283.626 281.455 291.021 280.822C292.329 280.709 293.637 280.529 294.936 280.359C295.499 280.283 296.07 280.142 295.984 279.291C295.62 275.614 295.343 271.928 294.685 268.29C294.468 267.08 293.923 266.806 292.97 266.995C290.831 267.429 288.7 267.099 286.561 267.004C278.672 266.654 270.835 265.785 263.014 264.679C250.726 262.94 238.584 260.35 226.572 257.042C202.203 250.341 178.777 240.824 156.174 228.849C155.568 228.527 155.005 228.036 154.104 228.055C153.974 229.52 153.784 231.004 153.723 232.478C153.48 238.678 153.766 244.859 154.043 251.05C154.121 252.818 154.615 253.734 156.122 254.415C161.37 256.768 166.635 259.055 172.031 260.984C172.619 261.191 173.208 261.428 173.78 261.683C174.092 261.815 174.49 261.966 174.326 262.458C174.17 262.912 173.754 262.817 173.442 262.742C172.637 262.543 171.831 262.335 171.043 262.052C165.986 260.209 161.023 258.101 156.105 255.87C155.62 255.653 155.169 255.218 154.528 255.436C154.528 255.955 154.485 256.485 154.528 256.995C154.944 261.04 155.308 265.104 155.975 269.112C156.356 271.409 156.494 273.752 157.352 275.936C157.196 276.957 157.672 277.845 157.837 278.8C158.183 280.879 159.257 282.06 161.11 282.949C183.384 293.695 206.221 302.683 229.837 309.252C233.639 310.311 237.424 311.473 241.329 312.078L242.126 312.22C242.351 312.56 242.654 312.598 242.992 312.494C243.261 312.541 243.529 312.579 243.797 312.626C244.161 313.014 244.594 313.08 245.062 312.967C245.33 313.004 245.599 313.052 245.867 313.089C246.101 313.382 246.387 313.477 246.733 313.354C247.14 313.42 247.539 313.486 247.946 313.553C248.18 313.855 248.474 313.931 248.812 313.808C249.219 313.874 249.626 313.94 250.024 314.006C250.267 314.299 250.544 314.394 250.89 314.252C251.418 314.337 251.947 314.422 252.484 314.507C252.709 314.828 253.003 314.866 253.332 314.743C253.757 314.81 254.181 314.866 254.605 314.932C254.822 315.225 255.082 315.301 255.402 315.15C255.965 315.235 256.519 315.31 257.082 315.396C257.307 315.698 257.576 315.745 257.896 315.603C258.442 315.83 259.005 315.868 259.576 315.849C259.931 316.246 260.364 316.237 260.823 316.123C261.248 316.18 261.672 316.227 262.105 316.284C262.46 316.653 262.867 316.69 263.309 316.539L263.326 316.568ZM284.344 265.511C286.068 265.615 287.8 265.719 289.523 265.823C292.823 266.012 295.455 265.133 297.837 262.137C304.999 253.148 311.321 243.555 316.647 233.177C328.641 209.823 336.6 184.975 339.648 158.341C340.185 153.691 340.263 149.003 340.454 144.324C340.497 143.341 340.203 142.935 339.276 143.086C338.254 143.256 337.215 143.37 336.184 143.474C328.399 144.277 320.605 144.816 312.776 145.005C298.348 145.354 283.998 144.409 269.743 142.046C256.528 139.854 243.581 136.413 230.963 131.593C229.829 131.158 229.11 131.319 228.192 132.17C221.948 138.039 215.894 144.135 210.031 150.458C208.282 152.349 208.299 152.33 209.659 154.57C212.872 159.834 215.409 165.382 216.12 171.79C216.951 179.332 213.963 185.741 207.806 189.266C204.324 191.26 200.566 192.196 196.669 192.517C190.615 193.018 184.64 192.385 178.751 190.873C177.504 190.551 176.75 190.759 175.945 191.903C172.49 196.818 169.051 201.742 165.787 206.808C164.384 208.982 163.327 211.354 162.556 213.868C161.647 216.836 161.223 219.898 161.725 223.008C162.626 228.527 165.691 232.194 170.281 234.406C186.935 242.421 204.039 249.037 221.61 254.207C235.847 258.403 250.275 261.551 264.902 263.583C271.354 264.481 277.832 265.114 284.327 265.501L284.344 265.511ZM181.73 47.9006C181.695 47.7115 181.695 47.5509 181.635 47.4374C175.434 35.3018 161.76 29.5458 149.809 34.2716C139.633 38.2884 130.159 43.9215 120.901 49.9893C120.277 50.3957 120.052 50.8211 120.104 51.6055C120.303 54.6016 119.429 57.3142 117.87 59.696C112.371 68.0605 104.828 72.4932 95.4487 73.3061C93.8638 73.4478 92.1405 72.6634 90.7462 73.3911C89.2913 74.1472 88.1481 75.6122 86.8751 76.7747C86.7712 76.8693 86.6586 76.9638 86.5547 77.0677C76.8466 86.1128 67.7015 95.7722 59.6821 106.641C59.3357 107.114 58.7555 107.492 58.8161 108.276C59.0499 108.276 59.1972 108.324 59.2924 108.276C64.8003 105.545 70.1956 106.159 75.5129 108.929C80.0422 111.291 83.6622 114.864 86.6932 119.183C87.2302 119.949 87.7584 120.724 88.3213 121.546C115.402 90.7156 146.847 66.7089 181.73 47.9289V47.9006ZM341.718 152.339C341.346 153.426 341.181 154.277 341.121 155.175C340.549 163.388 339.224 171.469 337.449 179.465C333.578 196.941 327.767 213.613 319.981 229.463C313.581 242.497 306.177 254.764 296.607 265.331C295.819 266.201 295.681 267.032 295.888 268.167C296.217 270.01 296.33 271.909 296.668 273.752C296.98 275.482 296.815 277.297 297.326 278.998C298.062 278.818 298.365 278.28 298.746 277.854C302.08 274.112 305.146 270.133 307.822 265.785C308.229 265.123 308.558 263.621 309.485 264.339C310.273 264.953 309.182 265.889 308.775 266.579C305.882 271.503 302.323 275.822 298.504 279.896C297.69 280.756 297.343 281.635 297.395 282.873C297.594 287.315 297.716 291.767 297.863 296.219C297.863 296.408 297.932 296.512 298.279 296.54C299.041 295.982 299.569 295.018 300.21 294.158C300.6 293.638 300.92 293.014 301.526 292.759C301.682 292.693 301.933 292.778 302.089 292.882C302.288 293.014 302.297 293.279 302.167 293.478C301.682 294.205 301.24 294.99 300.66 295.633C298.772 297.721 297.239 299.952 297.707 303.146C297.759 303.496 297.568 303.884 297.543 304.262C297.343 307.144 299.292 308.865 301.795 307.967C303.328 307.419 304.627 306.407 305.804 305.207C307.545 303.449 308.965 301.407 310.238 299.243C318.318 285.529 324.709 270.898 329.767 255.577C334.279 241.929 337.726 227.96 339.977 213.651C341.363 204.87 342.272 196.033 342.619 187.139C342.991 177.556 342.818 167.962 342.238 158.388C342.125 156.46 341.909 154.532 341.718 152.33V152.339ZM178.249 189.304C178.422 189.417 178.586 189.597 178.777 189.635C185.22 191.137 191.706 192.073 198.306 191.1C201.9 190.57 205.355 189.559 208.438 187.395C213.556 183.803 215.617 178.557 214.968 172.093C214.31 165.543 211.46 159.938 208.074 154.617C207.572 153.832 207.113 153.596 206.472 154.428C206.16 154.834 205.797 155.184 205.459 155.562C196.236 165.779 187.498 176.478 179.201 187.602C178.829 188.103 178.283 188.519 178.249 189.304ZM118.519 146.29C129.076 135.043 140.066 124.618 151.87 114.751C151.16 114.477 150.796 114.288 150.415 114.193C144.595 112.719 138.706 111.849 132.722 112.227C127.898 112.539 123.248 113.588 119.195 116.679C115.705 119.335 113.652 122.964 113.315 127.624C112.821 134.504 115.246 140.43 118.528 146.281L118.519 146.29ZM72.4472 89.383C80.3107 80.9145 88.5552 73.2966 97.224 66.0095C96.1761 64.8092 95.0156 64.3555 93.7946 64.1854C92.2184 63.968 90.6336 63.9869 89.0661 64.4501C83.1945 66.1986 78.7778 70.1115 75.2704 75.3948C73.677 77.805 72.5079 80.4514 71.9623 83.3719C71.6072 85.2811 71.5119 87.1997 72.4386 89.3735L72.4472 89.383ZM118.831 51.4354C109.565 57.7206 100.939 64.3461 92.6081 71.6804C93.63 72.2759 94.4527 72.2475 95.2841 72.1719C101.234 71.6615 106.551 69.3554 111.288 65.433C113.678 63.4577 115.739 61.142 117.246 58.2877C118.286 56.3124 119.004 54.2236 118.831 51.4354Z" fill="#070504"/>
<path d="M284.346 265.509C277.851 265.131 271.373 264.488 264.922 263.591C250.295 261.549 235.867 258.411 221.629 254.215C204.058 249.035 186.954 242.429 170.301 234.414C165.711 232.202 162.636 228.535 161.744 223.015C161.242 219.906 161.666 216.844 162.576 213.876C163.346 211.362 164.403 208.989 165.806 206.816C169.071 201.75 172.509 196.825 175.964 191.911C176.77 190.767 177.523 190.559 178.77 190.881C184.659 192.393 190.635 193.035 196.688 192.525C200.585 192.204 204.344 191.268 207.825 189.274C213.982 185.739 216.979 179.331 216.139 171.798C215.429 165.399 212.891 159.842 209.678 154.577C208.31 152.337 208.293 152.356 210.051 150.466C215.914 144.143 221.958 138.047 228.211 132.178C229.129 131.317 229.848 131.166 230.982 131.601C243.609 136.421 256.547 139.871 269.763 142.054C284.026 144.417 298.367 145.353 312.795 145.013C320.624 144.824 328.418 144.285 336.203 143.481C337.234 143.378 338.273 143.264 339.295 143.094C340.222 142.943 340.516 143.349 340.473 144.332C340.274 149.011 340.196 153.698 339.668 158.349C336.611 184.983 328.66 209.831 316.666 233.185C311.34 243.563 305.01 253.156 297.856 262.144C295.466 265.141 292.842 266.029 289.542 265.831C287.819 265.727 286.087 265.623 284.364 265.519L284.346 265.509ZM268.394 172.11C265.121 172.063 262.514 172.762 260.046 174.01C249.195 179.492 242.596 193.366 244.709 206.211C246.882 219.405 258.011 226.153 269.208 221.04C281.055 215.634 288.053 199.207 284.234 185.824C281.809 177.355 275.565 172.119 268.394 172.11Z" fill="#E0F450"/>
<path d="M188.16 109.074C192.395 111.768 196.587 114.566 200.882 117.146C209.127 122.098 217.709 126.276 226.516 129.905C226.967 130.094 227.417 130.293 227.885 130.491C227.495 131.304 226.811 131.711 226.248 132.249C202.017 155.5 180.418 181.34 162.085 210.356C159.296 214.77 156.715 219.335 154.325 224.023C153.398 225.838 153.39 225.838 151.718 224.93C142.261 219.732 133.012 214.137 123.971 208.135C113.085 200.914 102.529 193.155 92.3269 184.828C92.0497 184.601 91.7813 184.355 91.4868 184.166C90.8027 183.722 90.7247 183.24 91.2184 182.522C92.5867 180.527 93.8597 178.457 95.2453 176.473C103.178 165.159 112.098 154.829 121.494 144.971C134.337 131.493 147.899 118.951 162.621 107.94C165.756 105.596 168.865 103.214 172.278 101.353C176.408 103.205 180.565 104.991 184.523 107.269C185.017 107.553 185.519 107.78 186.099 107.666L186.065 107.638C186.186 108.082 186.489 108.214 186.879 108.176L186.861 108.167C186.991 108.555 187.268 108.687 187.623 108.677L187.675 108.706C187.753 108.961 187.918 109.074 188.16 109.065V109.074Z" fill="#FA420F"/>
<path d="M247.973 313.583C247.566 313.517 247.167 313.451 246.76 313.385C246.604 312.799 246.362 312.515 245.894 313.12C245.626 313.083 245.357 313.035 245.089 312.997C244.838 312.109 244.405 312.043 243.824 312.657C243.556 312.61 243.287 312.572 243.019 312.525C242.872 311.911 242.647 311.589 242.153 312.251C241.884 312.204 241.616 312.156 241.356 312.109C240.871 310.899 239.737 311.136 238.879 310.909C231.31 308.943 223.828 306.618 216.432 304C210.994 302.081 205.616 299.945 200.281 297.677C192.695 294.454 185.204 290.994 177.886 287.11C171.737 283.849 165.606 280.551 159.699 276.779C158.989 276.326 158.27 275.834 157.378 275.948C156.521 273.774 156.383 271.421 156.002 269.124C155.335 265.107 154.971 261.052 154.555 257.007C154.503 256.487 154.555 255.967 154.555 255.448C155.196 255.23 155.646 255.665 156.131 255.882C161.05 258.113 166.013 260.221 171.07 262.064C171.85 262.347 172.664 262.555 173.469 262.754C173.781 262.829 174.197 262.924 174.352 262.47C174.517 261.979 174.119 261.827 173.807 261.695C173.227 261.449 172.646 261.213 172.057 260.996C166.662 259.058 161.397 256.78 156.149 254.427C154.642 253.746 154.148 252.829 154.07 251.062C153.793 244.871 153.516 238.69 153.75 232.49C153.81 231.006 154.001 229.532 154.131 228.067C155.032 228.048 155.594 228.539 156.201 228.861C178.795 240.836 202.221 250.353 226.599 257.054C238.611 260.353 250.752 262.952 263.041 264.691C270.861 265.797 278.707 266.657 286.588 267.016C288.727 267.111 290.858 267.441 292.997 267.007C293.949 266.808 294.495 267.092 294.712 268.302C295.37 271.94 295.647 275.626 296.011 279.303C296.097 280.154 295.526 280.295 294.963 280.371C293.655 280.551 292.356 280.73 291.048 280.834C283.652 281.467 276.265 281.335 268.87 280.607C259.811 279.719 250.917 278.018 242.248 274.993C241.988 274.899 241.729 274.776 241.451 274.738C241.148 274.7 240.897 274.88 240.863 275.22C240.845 275.409 240.923 275.73 241.044 275.797C241.529 276.071 242.04 276.297 242.56 276.486C249.419 278.953 256.485 280.362 263.63 281.382C268.852 282.129 274.109 282.431 279.357 282.583C284.475 282.734 289.593 282.356 294.694 281.76C296.123 281.6 296.158 281.619 296.227 283.008C296.452 287.535 296.651 292.062 296.565 296.599C296.539 298.149 296.521 298.206 295.049 298.272C293.464 298.338 291.871 298.272 290.277 298.282C289.836 298.282 289.36 298.433 289.351 298.953C289.342 299.52 289.862 299.576 290.286 299.576C291.949 299.576 293.612 299.643 295.266 299.539C296.305 299.472 296.608 299.888 296.556 300.956C296.366 304.803 296.253 308.65 296.037 312.497C295.915 314.529 295.603 316.542 295.43 318.574C295.352 319.5 295.058 319.859 294.131 319.812C286.796 319.462 279.478 318.895 272.195 317.912C269.242 317.515 266.297 317.024 263.353 316.58C263.007 316.201 262.574 316.277 262.149 316.324C261.725 316.268 261.301 316.22 260.868 316.164C260.512 315.757 260.062 315.823 259.62 315.89C259.049 315.908 258.486 315.871 257.94 315.644C257.707 315.389 257.429 315.37 257.126 315.436C256.563 315.351 256.009 315.275 255.446 315.19C255.221 314.944 254.953 314.916 254.65 314.973C254.225 314.907 253.801 314.85 253.376 314.784C253.143 314.5 252.848 314.472 252.528 314.547C252 314.462 251.471 314.377 250.934 314.292C250.77 313.706 250.519 313.442 250.068 314.047C249.661 313.98 249.254 313.914 248.856 313.848C248.691 313.253 248.449 312.988 247.99 313.593L247.973 313.583ZM254.459 303.952C255.178 304 255.68 304.066 255.793 303.499C255.949 302.733 255.334 302.686 254.883 302.591C253.316 302.28 251.748 302.015 250.181 301.694C229.414 297.45 209.114 291.297 189.187 283.679C184.623 281.931 180.103 280.031 175.617 278.065C175.149 277.857 174.638 277.621 174.43 278.358C174.274 278.906 174.716 279.152 175.097 279.331C176.63 280.021 178.163 280.711 179.713 281.354C200.48 290.021 221.776 296.732 243.53 301.731C247.254 302.582 251.004 303.253 254.45 303.952H254.459Z" fill="#D3E6EB"/>
<path d="M170.285 100.817C164.777 104.72 159.26 108.623 154.038 112.971C153.397 113.51 152.808 113.396 152.107 113.207C148.617 112.253 145.092 111.478 141.507 111.1C135.973 110.533 130.448 110.467 125.044 112.215C123.857 112.603 122.671 113.037 121.545 113.604C114.401 117.186 110.945 123.859 112.279 133.037C112.937 137.573 114.634 141.694 116.739 145.626C117.7 147.422 117.787 147.006 116.349 148.575C108.754 156.854 101.48 165.455 94.8979 174.727C93.1225 177.232 91.4425 179.812 89.6065 182.515C89.1129 182.118 88.6279 181.74 88.1516 181.352C79.2836 173.98 70.6667 166.268 62.5088 157.979C54.3336 149.681 50.1421 139.416 50.5664 127.101C50.6877 123.585 51.4844 120.249 52.9653 117.111C56.4813 109.682 63.3229 106.327 70.7273 108.416C77.2744 110.268 82.0981 114.729 86.0645 120.485C86.6014 121.27 87.1037 122.092 87.5627 122.933C87.9524 123.651 88.3508 123.708 88.8617 123.131C89.1995 122.753 89.5199 122.347 89.8403 121.959C95.1923 115.514 100.925 109.493 106.927 103.784C107.187 103.539 107.49 103.35 107.767 103.132C108.061 103.123 108.252 102.972 108.321 102.65H108.304C108.979 102.83 109.464 102.433 110.019 102.074C117.96 96.9226 126.663 94.6448 135.791 94.1155C140.199 93.8603 144.581 94.2951 148.972 94.9C154.662 95.6844 160.196 97.1022 165.677 98.8696C167.245 99.3705 168.908 99.6919 170.285 100.798V100.817Z" fill="#E0F450"/>
<path d="M60.1544 103.621C60.0505 103.744 59.9379 103.876 59.834 103.999C59.4703 102.043 58.4224 100.407 57.6256 98.6589C52.9405 88.3663 50.8794 77.4026 50.6022 65.9852C50.5156 62.4504 51.0439 58.9533 51.3643 55.4374C51.7281 51.4394 52.5854 47.5738 53.7459 43.8027C55.5732 37.8482 58.076 32.2341 61.9211 27.4516C62.2848 26.998 62.5533 26.4592 62.6139 25.8354C68.4942 21.4405 74.7381 17.7166 81.0687 14.1723C89.192 9.62619 97.5404 5.66604 106.287 2.78334C106.417 2.73608 106.538 2.66047 106.677 2.62267C108.851 2.00832 108.296 2.00832 109.102 3.76629C109.223 4.03093 109.318 4.32393 109.431 4.59802C113.492 14.9379 118.126 24.9659 123.4 34.6347C125.054 37.6687 125.253 40.8822 124.569 44.228C124.266 45.6929 123.478 46.761 122.265 47.536C114.402 52.6114 106.807 58.1216 99.5149 64.1233C98.6749 64.8132 98.1206 64.8983 97.22 64.18C94.8644 62.3086 92.0672 62.1574 89.4518 62.9513C79.9516 65.834 73.6123 72.4122 70.867 82.8655C70.3041 85.011 70.3474 87.2226 71.0835 89.3209C71.3867 90.1998 71.2134 90.6913 70.6592 91.2773C67.0999 95.0863 63.8436 99.1976 60.5095 103.233C60.3016 103.262 60.189 103.385 60.1631 103.611L60.1544 103.621Z" fill="#E0F450"/>
<path d="M85.9143 215.185C86.5205 222.246 87.2134 229.296 88.8068 236.196C89.0493 237.264 89.5083 238.304 89.465 239.428C88.8415 239.835 88.5037 239.296 88.1487 239.041C73.5996 228.521 59.5701 217.227 46.0949 205.11C36.3089 196.32 26.9126 187.058 17.7934 177.465C12.554 171.945 8.87343 165.395 6.19744 158.089C3.92847 151.889 2.43892 145.443 1.78075 138.827C1.30444 134.026 1.4863 129.158 1.73745 124.338C1.93663 120.501 1.91065 116.645 2.35232 112.807C2.60346 110.577 2.72471 108.337 2.92389 105.955C3.79857 106.125 3.97177 106.862 4.27488 107.363C9.41036 115.898 15.1347 123.951 21.2142 131.71C21.5952 132.192 21.8204 132.948 22.6518 132.92C23.1454 131.871 22.4179 131.257 21.9243 130.595C19.1531 126.824 16.3385 123.09 13.6019 119.291C10.2591 114.66 7.20202 109.811 4.2489 104.878C3.49546 103.611 3.26164 102.392 3.46948 100.842C3.96311 97.1273 4.43076 93.4129 4.98501 89.8402C5.36606 89.5851 5.56524 89.7174 5.67782 89.897C9.98193 96.5602 14.4852 103.063 19.0145 109.537C18.4169 110.01 18.8499 110.473 19.0405 110.917C20.3049 113.847 21.5519 116.786 22.851 119.697C25.7867 126.266 28.9997 132.674 32.2992 139.035C34.8799 144.016 37.5906 148.902 40.3705 153.742C43.1158 158.515 46.0256 163.193 48.996 167.815C52.8325 173.779 56.7729 179.657 61.0077 185.3C63.1034 188.088 65.1039 190.961 67.2776 193.664C69.7285 196.717 72.1533 199.798 74.6734 202.785C77.9037 206.594 81.004 210.535 84.3815 214.193C84.8145 214.666 85.2129 215.233 85.923 215.204L85.9143 215.185ZM62.9476 200.139C63.0255 199.657 62.7657 199.392 62.5059 199.156C61.7524 198.494 60.9904 197.842 60.2283 197.19C47.9914 186.68 35.9538 175.924 24.8514 163.977C24.557 163.656 24.2626 163.335 23.9248 163.07C23.6217 162.834 23.2493 162.834 22.9982 163.184C22.8076 163.448 22.8942 163.77 23.0848 164.006C23.5005 164.516 23.9162 165.017 24.3578 165.49C35.8672 177.739 48.2859 188.816 60.9297 199.609C61.3108 199.931 61.7178 200.233 62.1508 200.469C62.5059 200.659 62.8176 200.517 62.9562 200.12L62.9476 200.139Z" fill="#A3B0B3"/>
<path d="M181.728 47.8995C146.844 66.6795 115.399 90.6862 88.3189 121.517C87.756 120.695 87.2277 119.92 86.6908 119.154C83.6598 114.835 80.0485 111.262 75.5105 108.899C70.2018 106.13 64.7979 105.516 59.29 108.247C59.1861 108.294 59.0475 108.247 58.8137 108.247C58.7444 107.472 59.3333 107.084 59.6797 106.612C67.6991 95.7427 76.8442 86.0834 86.5522 77.0383C86.6562 76.9438 86.7688 76.8493 86.8727 76.7453C88.1544 75.5922 89.2975 74.1178 90.7438 73.3617C92.1467 72.6339 93.8614 73.4184 95.4463 73.2766C104.817 72.4638 112.368 68.0405 117.867 59.6665C119.426 57.2942 120.301 54.5722 120.102 51.5761C120.05 50.7916 120.275 50.3663 120.898 49.9599C130.156 43.8921 139.63 38.259 149.806 34.2421C161.757 29.5164 175.432 35.2818 181.632 47.408C181.693 47.5309 181.693 47.6821 181.728 47.8711V47.8995Z" fill="#E0F450"/>
<path d="M62.6149 25.8298C62.5543 26.4536 62.2859 26.9923 61.9221 27.446C58.077 32.2284 55.5742 37.8331 53.7469 43.797C52.5865 47.5681 51.7291 51.4338 51.3654 55.4317C51.045 58.9477 50.5167 62.4447 50.6033 65.9795C50.8804 77.3969 52.9415 88.3606 57.6267 98.6532C58.4234 100.402 59.4713 102.037 59.835 103.993C57.9731 106.706 56.0505 109.371 54.2665 112.131C52.0582 115.543 50.3695 119.229 49.7199 123.416C48.5422 130.949 49.6853 138.123 52.4479 145.05C52.829 146.014 53.2187 146.979 53.6084 147.943C53.4785 148.094 53.3572 148.245 53.2273 148.396C48.1784 143.33 43.476 137.905 38.8081 132.433C27.1082 118.7 16.3696 104.116 6.51434 88.7575C5.50975 87.1981 5.5444 86.1017 6.31515 84.5233C9.52808 77.9545 13.5204 72.0001 17.9891 66.4143C28.5631 53.2012 40.8 42.0296 53.9461 32.0016C56.778 29.8466 59.5579 27.5972 62.6149 25.8203V25.8298Z" fill="#A9BB24"/>
<path d="M87.5581 217.885C87.0558 216.59 87.229 215.201 87.177 213.859C86.8653 204.615 87.3935 195.447 89.6452 186.478C89.7751 185.977 89.9483 185.485 90.1042 184.994C90.8316 185.079 91.23 185.637 91.715 186.024C110.525 201.26 130.339 214.7 151.28 226.174C153.116 227.176 152.968 226.665 152.769 229.057C151.964 238.81 152.657 248.508 153.462 258.214C153.904 263.554 154.718 268.838 155.471 274.131C151.124 271.494 146.889 268.658 142.715 265.719C130.651 257.212 119.021 248.073 108.074 237.894C102.661 232.856 97.2748 227.809 92.2086 222.355C90.7364 220.777 89.1083 219.378 87.5494 217.894L87.5581 217.885Z" fill="#FA4616"/>
<path d="M341.713 152.336C341.903 154.539 342.111 156.467 342.232 158.395C342.804 167.969 342.986 177.562 342.613 187.146C342.267 196.04 341.349 204.868 339.972 213.657C337.72 227.976 334.274 241.936 329.762 255.584C324.695 270.905 318.313 285.536 310.233 299.25C308.96 301.414 307.54 303.456 305.799 305.214C304.612 306.405 303.313 307.416 301.789 307.974C299.286 308.881 297.338 307.151 297.537 304.269C297.563 303.891 297.754 303.512 297.702 303.153C297.234 299.959 298.767 297.738 300.655 295.639C301.235 294.997 301.677 294.212 302.162 293.484C302.292 293.295 302.283 293.021 302.084 292.889C301.928 292.785 301.677 292.7 301.521 292.766C300.915 293.021 300.594 293.645 300.204 294.165C299.564 295.016 299.035 295.989 298.273 296.547C297.927 296.518 297.866 296.414 297.858 296.225C297.71 291.774 297.589 287.322 297.39 282.88C297.338 281.642 297.684 280.763 298.498 279.903C302.318 275.839 305.877 271.51 308.769 266.586C309.176 265.896 310.268 264.96 309.479 264.346C308.553 263.627 308.224 265.13 307.817 265.792C305.141 270.13 302.075 274.109 298.741 277.861C298.36 278.287 298.057 278.825 297.321 279.005C296.81 277.304 296.974 275.489 296.662 273.759C296.325 271.916 296.221 270.026 295.883 268.173C295.675 267.03 295.814 266.208 296.602 265.338C306.171 254.771 313.576 242.503 319.976 229.47C327.761 213.62 333.563 196.947 337.443 179.472C339.219 171.476 340.544 163.395 341.115 155.181C341.176 154.283 341.34 153.423 341.713 152.346V152.336Z" fill="#A3B0B3"/>
<path d="M85.8943 215.184C85.1755 215.212 84.7858 214.645 84.3528 214.173C80.9753 210.515 77.8663 206.583 74.6447 202.765C72.116 199.778 69.6998 196.697 67.2489 193.644C65.0752 190.941 63.0661 188.068 60.979 185.28C56.7441 179.637 52.8038 173.758 48.9673 167.795C45.9969 163.182 43.087 158.504 40.3418 153.721C37.5619 148.882 34.8512 143.986 32.2705 139.015C28.971 132.654 25.758 126.246 22.8222 119.677C21.5232 116.766 20.2761 113.827 19.0118 110.897C18.8212 110.453 18.3882 109.989 18.9858 109.517C23.7575 115.783 28.486 122.097 33.4743 128.165C49.8766 148.117 67.8898 166.178 87.3665 182.492C89.012 183.871 89.012 183.881 88.475 186.017C87.0807 191.489 86.4659 197.103 85.9896 202.737C85.9549 203.105 85.9982 203.493 85.7298 203.814C84.9763 203.956 84.4481 203.389 83.8765 203.011C81.6941 201.546 79.5464 200.043 77.3813 198.55C77.0349 198.304 76.6972 198.03 76.3335 197.812C76.1083 197.671 75.8398 197.482 75.606 197.812C75.3375 198.181 75.4501 198.55 75.7186 198.814C76.0217 199.117 76.3681 199.381 76.7232 199.618C79.5291 201.546 82.2397 203.663 85.2794 205.156C85.8683 205.449 85.9203 205.818 85.9203 206.356C85.9116 209.296 85.9116 212.245 85.903 215.184H85.8943Z" fill="#D3E6EB"/>
<path d="M87.5535 217.888C89.1123 219.372 90.7404 220.771 92.2126 222.35C97.2788 227.803 102.665 232.85 108.078 237.888C119.025 248.067 130.655 257.206 142.719 265.713C146.893 268.652 151.128 271.488 155.475 274.125C155.969 276.213 156.454 278.302 156.965 280.467C156.073 280.542 155.519 280.041 154.921 279.739C133.357 268.879 112.668 256.309 92.7149 242.283C92.0221 241.791 91.3899 241.337 91.1301 240.336C89.2509 233.209 87.9605 225.969 87.5015 218.569C87.4842 218.352 87.5362 218.125 87.5621 217.898L87.5535 217.888Z" fill="#8A0000"/>
<path d="M178.254 189.305C178.289 188.521 178.834 188.105 179.207 187.604C187.494 176.47 196.241 165.781 205.464 155.564C205.802 155.186 206.174 154.836 206.477 154.43C207.118 153.598 207.586 153.834 208.08 154.619C211.466 159.93 214.315 165.535 214.973 172.094C215.623 178.559 213.553 183.805 208.443 187.396C205.36 189.561 201.896 190.572 198.311 191.101C191.712 192.075 185.225 191.139 178.782 189.636C178.592 189.589 178.436 189.419 178.254 189.305Z" fill="#D3E6EB"/>
<path d="M170.285 100.819C168.908 99.7224 167.245 99.4011 165.677 98.8907C160.204 97.1233 154.662 95.7056 148.972 94.9211C144.581 94.3162 140.199 93.8814 135.791 94.1366C126.663 94.6659 117.96 96.9437 110.018 102.095C109.473 102.454 108.988 102.851 108.304 102.671C109.23 101.235 110.59 100.29 111.794 99.1837C123.225 88.6359 135.28 79.0332 147.863 70.1961C148.314 69.8747 148.799 69.6195 149.353 69.2793C152.306 75.2432 155.909 80.5927 160.351 85.1955C164.751 89.7606 169.401 94.0421 174.424 98.2858C172.874 99.231 171.575 100.025 170.285 100.819Z" fill="#A9BB24"/>
<path d="M118.52 146.288C115.246 140.428 112.813 134.512 113.306 127.631C113.644 122.971 115.697 119.342 119.187 116.686C123.248 113.605 127.899 112.546 132.714 112.235C138.698 111.856 144.587 112.726 150.407 114.2C150.788 114.295 151.151 114.484 151.862 114.758C140.058 124.625 129.068 135.05 118.511 146.298L118.52 146.288Z" fill="#D3E6EB"/>
<path d="M72.4358 89.3824C71.5092 87.2085 71.6044 85.2899 71.9595 83.3807C72.5051 80.4602 73.6655 77.8138 75.2677 75.4037C78.7664 70.1203 83.1917 66.198 89.0633 64.4589C90.6308 63.9958 92.2156 63.9769 93.7918 64.1943C95.0129 64.3644 96.1733 64.8086 97.2212 66.0184C88.5524 73.3055 80.3079 80.9139 72.4445 89.3918L72.4358 89.3824Z" fill="#D3E6EB"/>
<path d="M157.368 275.956C158.26 275.842 158.979 276.334 159.689 276.787C165.595 280.559 171.727 283.857 177.876 287.118C185.193 291.002 192.684 294.462 200.271 297.685C205.605 299.944 210.983 302.08 216.422 304.008C223.826 306.626 231.3 308.951 238.869 310.917C239.727 311.134 240.852 310.907 241.346 312.117C237.449 311.512 233.664 310.34 229.854 309.291C206.238 302.722 183.401 293.734 161.127 282.988C159.274 282.099 158.2 280.918 157.853 278.838C157.689 277.884 157.212 276.986 157.368 275.975V275.956Z" fill="#A3B0B3"/>
<path d="M118.826 51.4346C118.999 54.2227 118.289 56.3021 117.241 58.2869C115.734 61.1412 113.673 63.4568 111.283 65.4322C106.546 69.3545 101.229 71.6607 95.279 72.1711C94.4476 72.2467 93.6249 72.275 92.603 71.6796C100.934 64.3453 109.56 57.7198 118.826 51.4346Z" fill="#D3E6EB"/>
<path d="M186.11 107.663C185.53 107.776 185.028 107.55 184.534 107.266C180.576 104.988 176.419 103.202 172.289 101.349C175.276 99.0621 175.294 99.0243 178.152 101.378C180.767 103.533 183.607 105.347 186.11 107.663Z" fill="#8A0000"/>
<path d="M243.813 312.656C244.402 312.042 244.835 312.108 245.078 312.996C244.602 313.11 244.169 313.044 243.813 312.656Z" fill="#A3B0B3"/>
<path d="M242.147 312.248C242.641 311.586 242.866 311.908 243.013 312.522C242.676 312.616 242.373 312.588 242.147 312.248Z" fill="#A3B0B3"/>
<path d="M245.898 313.119C246.366 312.514 246.599 312.797 246.764 313.383C246.418 313.506 246.132 313.412 245.898 313.119Z" fill="#A3B0B3"/>
<path d="M247.982 313.579C248.441 312.964 248.684 313.238 248.848 313.834C248.511 313.957 248.216 313.881 247.982 313.579Z" fill="#A3B0B3"/>
<path d="M250.051 314.033C250.502 313.428 250.744 313.693 250.917 314.279C250.58 314.421 250.294 314.317 250.051 314.033Z" fill="#A3B0B3"/>
<path d="M259.602 315.875C260.043 315.818 260.494 315.742 260.849 316.149C260.398 316.262 259.965 316.262 259.602 315.875Z" fill="#A3B0B3"/>
<path d="M262.108 316.309C262.533 316.261 262.966 316.195 263.312 316.564C262.871 316.706 262.455 316.668 262.108 316.309Z" fill="#A3B0B3"/>
<path d="M186.881 108.184C186.491 108.222 186.188 108.09 186.067 107.646C186.439 107.646 186.725 107.797 186.881 108.184Z" fill="#8A0000"/>
<path d="M187.634 108.686C187.279 108.686 187.002 108.563 186.872 108.176C187.227 108.157 187.452 108.384 187.634 108.686Z" fill="#8A0000"/>
<path d="M53.6071 147.948C53.8323 148.203 54.2307 148.553 53.9622 148.827C53.5985 149.214 53.4512 148.6 53.2261 148.392C53.356 148.241 53.4772 148.09 53.6071 147.938V147.948Z" fill="#A9BB24"/>
<path d="M252.523 314.531C252.843 314.455 253.138 314.484 253.372 314.767C253.043 314.88 252.748 314.843 252.523 314.531Z" fill="#A3B0B3"/>
<path d="M254.627 314.954C254.921 314.897 255.199 314.926 255.424 315.171C255.112 315.313 254.843 315.247 254.627 314.954Z" fill="#A3B0B3"/>
<path d="M257.095 315.428C257.398 315.361 257.675 315.38 257.909 315.635C257.588 315.777 257.32 315.721 257.095 315.428Z" fill="#A3B0B3"/>
<path d="M60.1626 103.615C60.1798 103.39 60.3 103.258 60.5062 103.24C60.5148 103.502 60.3945 103.615 60.1626 103.615Z" fill="#A9BB24"/>
<path d="M188.159 109.071C187.918 109.071 187.755 108.968 187.678 108.715C187.927 108.687 188.073 108.827 188.159 109.071Z" fill="#8A0000"/>
<path d="M108.325 102.655C108.256 102.977 108.065 103.128 107.771 103.137C107.858 102.835 108.031 102.665 108.325 102.655Z" fill="#A9BB24"/>
<path d="M268.386 172.11C275.556 172.11 281.8 177.346 284.225 185.824C288.053 199.217 281.047 215.634 269.2 221.04C258.011 226.154 246.874 219.405 244.7 206.211C242.587 193.366 249.178 179.492 260.037 174.01C262.506 172.762 265.112 172.063 268.386 172.11ZM284.069 194.576C284.009 191.268 283.784 188.934 283.134 186.694C281.341 180.465 277.886 175.9 271.919 174.152C266.853 172.668 262.159 174.048 257.838 176.987C249.126 182.904 244.189 194.85 245.965 205.909C246.935 211.929 249.619 216.844 254.789 219.679C259.812 222.43 264.922 222.023 269.763 219.245C279.159 213.857 283.359 204.888 284.061 194.586L284.069 194.576Z" fill="#18110C"/>
<path d="M254.465 303.954C251.018 303.254 247.269 302.593 243.545 301.733C221.79 296.733 200.495 290.032 179.728 281.355C178.178 280.713 176.645 280.013 175.112 279.333C174.722 279.163 174.289 278.907 174.445 278.359C174.653 277.622 175.164 277.858 175.632 278.066C180.126 280.032 184.638 281.932 189.202 283.68C209.129 291.308 229.429 297.451 250.196 301.695C251.755 302.016 253.331 302.271 254.898 302.593C255.357 302.687 255.963 302.734 255.808 303.5C255.695 304.067 255.193 304.001 254.474 303.954H254.465Z" fill="#18110C"/>
<path d="M62.9426 200.133C62.804 200.53 62.4922 200.671 62.1372 200.482C61.7042 200.246 61.2971 199.953 60.9161 199.622C48.2722 188.829 35.8535 177.742 24.3442 165.502C23.9025 165.03 23.4868 164.52 23.0711 164.019C22.8806 163.782 22.7853 163.461 22.9845 163.196C23.2357 162.856 23.6081 162.856 23.9112 163.083C24.2489 163.338 24.5434 163.669 24.8378 163.99C35.9401 175.937 47.9778 186.693 60.2146 197.203C60.9767 197.855 61.7388 198.497 62.4922 199.169C62.7607 199.405 63.0205 199.669 62.9339 200.152L62.9426 200.133Z" fill="#18110C"/>
<path d="M284.077 194.576C283.376 204.869 279.176 213.848 269.779 219.235C264.93 222.014 259.829 222.42 254.806 219.67C249.627 216.835 246.943 211.92 245.981 205.899C244.206 194.841 249.134 182.894 257.854 176.978C262.176 174.038 266.87 172.668 271.936 174.142C277.903 175.891 281.358 180.456 283.151 186.685C283.8 188.925 284.025 191.268 284.086 194.567L284.077 194.576Z" fill="#D3E6EB"/>
</svg>
