<svg width="391" height="375" viewBox="0 0 391 375" fill="none" xmlns="http://www.w3.org/2000/svg">
<path d="M35.3195 215.1C33.5443 214.999 31.8048 215.364 30.0653 215.528C21.7476 216.289 13.437 217.136 5.12637 217.945C4.21728 218.03 3.31533 218.155 2.4134 217.797C0.387647 216.989 -0.313803 215.256 0.495068 213.095C7.553 194.278 15.8922 176.138 24.8184 158.301C25.2766 157.391 25.6989 156.599 24.9402 155.635C24.7397 155.378 24.6323 154.928 24.6538 154.578C24.7254 153.109 23.8593 152.464 22.8643 151.78C19.142 149.223 16.0067 145.99 13.6088 141.964C8.12562 132.761 8.72689 121.849 15.2122 113.439C19.6574 107.672 25.4484 104.175 32.0124 102.139C39.2278 99.9003 46.5434 99.6205 53.9092 101.284C55.9063 101.735 55.9134 101.719 57.0015 99.9158C64.2813 87.7989 71.8189 75.8686 79.6857 64.1947C91.1101 47.2357 103.057 30.7508 116.292 15.3929C120.008 11.0794 123.866 6.92122 127.853 2.91076C129.041 1.71384 130.38 1.0532 132.012 1.03766C137.788 0.991022 143.565 0.81226 149.342 0.874438C157.86 0.959932 166.378 1.23973 174.896 1.72161C184.832 2.28898 194.76 3.07398 204.66 4.09214C215.018 5.15693 225.354 6.48598 235.662 8.03265C248.797 10.0068 261.882 12.354 274.881 15.1986C286.642 17.779 298.317 20.7247 309.82 24.4476C312.197 25.217 312.755 26.3751 311.789 28.8544C308.782 36.5722 305.361 44.0802 301.667 51.4327C288.582 77.4852 273.507 102.131 257.115 125.844C256.707 126.435 256.306 127.033 255.862 127.678C256.707 128.673 257.695 129.411 258.647 130.189C261.066 132.163 263.521 134.098 265.962 136.049C269.971 139.251 271.402 143.541 270.536 148.803C269.964 152.262 268.761 155.464 267.258 158.557C264.302 164.635 260.501 170.068 256.335 175.213C247.344 186.327 237.079 195.926 226.127 204.654C212.541 215.489 198.153 224.839 182.606 231.997C175.97 235.051 169.177 237.593 162.083 239.093C157.459 240.072 152.799 240.57 148.11 239.668C145.154 239.101 142.663 237.647 140.609 235.176C133.458 226.58 127.796 216.934 123.322 206.442C123.157 206.045 122.942 205.672 122.821 205.26C122.606 204.538 122.241 204.382 121.525 204.491C118.304 204.996 115.068 205.408 111.833 205.851C106.729 206.551 101.633 207.281 96.5288 207.95C90.516 208.735 84.4959 209.481 78.4759 210.196C77.6742 210.289 77.3807 210.538 77.5024 211.439C77.8317 213.841 77.7243 216.274 77.846 218.683C77.9247 220.23 77.2662 221.131 76.2068 221.885C74.5175 223.082 72.6349 223.821 70.7165 224.458C70.5018 224.528 70.287 224.637 70.0722 224.707C68.6215 225.178 67.6743 224.624 67.2305 223.043C66.7509 223.245 66.5791 223.751 66.3929 224.17C65.7702 225.585 64.768 226.245 63.3436 226.494C59.5641 227.147 55.7918 227.87 51.9693 228.165C50.4303 228.282 50.4303 228.266 49.8791 226.704C49.7002 226.191 49.5212 225.678 49.2635 224.955C48.5263 225.748 48.2041 226.665 47.7746 227.481C47.4167 228.173 46.9872 228.585 46.1783 228.639C40.9672 228.95 35.7776 228.872 30.638 227.738C29.6287 227.512 28.6409 227.17 27.7604 226.572C26.293 225.569 26.1212 224.194 27.331 222.872C27.8893 222.258 28.5478 221.738 29.1992 221.24C31.1677 219.732 33.0002 218.054 34.6752 216.165C34.9329 215.87 35.3481 215.667 35.3195 215.085V215.1ZM49.6429 216.888C49.6644 217.432 49.3996 217.665 48.9271 217.727C48.2471 217.82 47.567 217.929 46.8942 218.046C45.4983 218.287 45.3624 218.17 45.6057 216.732C46.0424 214.129 46.5076 211.533 47.0015 208.68C46.7439 209.108 46.5864 209.302 46.4933 209.52C45.4411 212.139 44.3745 214.75 43.3652 217.385C43.0288 218.271 42.5707 218.706 41.6401 218.893C37.9894 219.631 34.3674 220.548 30.9172 222.103C29.958 222.53 29.0417 223.036 28.283 223.813C27.7461 224.365 27.8034 224.901 28.4119 225.352C28.9845 225.779 29.6431 226.02 30.3088 226.199C35.3123 227.528 40.4017 227.442 45.4912 227.302C46.1497 227.287 46.5363 226.914 46.8298 226.331C47.3809 225.243 47.9106 224.139 48.5262 223.09C49.1204 222.072 49.65 222.111 50.1082 223.175C50.4231 223.906 50.688 224.668 50.8741 225.445C51.1175 226.471 51.6043 226.805 52.5993 226.696C56.2428 226.3 59.8576 225.701 63.451 224.986C64.1739 224.846 64.6822 224.466 65.0544 223.758C65.627 222.686 66.2713 221.66 66.9012 220.618C67.0873 220.307 67.3307 219.997 67.7315 220.098C68.1109 220.191 68.2613 220.556 68.3329 220.921C68.5047 221.761 68.5547 222.639 68.9198 223.479C70.1224 223.3 71.2319 222.787 72.3486 222.352C73.4796 221.909 74.5819 221.388 75.5626 220.611C76.7866 219.639 76.7222 218.87 75.2906 218.256C74.3385 217.844 73.3292 217.595 72.3271 217.362C70.8453 217.012 70.8382 217.043 70.5375 215.434C70.3371 214.377 70.151 213.32 69.9578 212.263C69.471 212.356 69.5497 212.66 69.5354 212.877C69.4781 213.81 69.4567 214.735 69.3923 215.667C69.3565 216.227 69.2849 216.965 68.6406 216.911C67.6385 216.826 66.4861 217.509 65.6557 216.375C65.577 216.266 65.67 216.017 65.6771 215.831C66.3929 215.38 67.2376 215.807 68.0322 215.528C68.1682 213.724 68.2899 211.999 68.4188 210.274C68.519 208.976 68.6263 207.685 68.7408 206.387C68.7838 205.921 68.9628 205.525 69.4209 205.447C69.9291 205.361 70.1224 205.758 70.2226 206.209C70.3157 206.628 70.3944 207.056 70.4731 207.476C70.9098 209.908 71.3536 212.341 71.7831 214.774C71.8689 215.256 71.8547 215.753 72.456 215.908C73.7659 216.243 75.0687 216.631 76.3858 217.004C76.7222 215.87 76.3857 214.836 76.3356 213.802C75.9133 206.007 74.3313 198.483 71.7687 191.208C69.7 185.34 67.1016 179.775 63.4796 174.817C63.4939 174.615 63.408 174.498 63.2219 174.482C63.0144 174.203 62.8068 173.923 62.5992 173.643C62.2413 172.555 61.4324 171.824 60.7595 171.008C56.2355 165.443 50.9672 161.013 44.4103 158.588C43.5513 158.27 42.6708 157.974 41.7832 157.78C40.5305 157.5 39.4425 158.176 38.8556 159.467C38.2901 160.718 38.4476 161.355 39.6144 162.49C40.8957 163.733 41.998 165.14 43.0217 166.64C43.9737 168.039 44.5893 169.648 45.484 171.078C45.5413 171.319 45.5771 171.568 45.663 171.793C48.8054 180.506 48.5406 189.289 46.0495 198.079C43.7661 206.139 39.686 213.025 34.074 218.846C33.8449 218.955 33.487 219.095 33.6946 219.39C33.8592 219.624 34.1885 219.383 34.3817 219.157C36.5506 218.621 38.7125 218.061 40.8814 217.564C41.6903 217.377 42.177 216.965 42.4561 216.11C42.7783 215.123 43.222 214.175 43.6086 213.211C45.0617 209.574 46.5148 205.937 47.9679 202.299C48.1468 201.848 48.3186 201.242 48.8841 201.405C49.557 201.6 49.3996 202.214 49.2922 202.789C48.9415 204.67 48.6122 206.558 48.2829 208.447C47.8176 211.105 47.3594 213.755 46.9013 216.367C47.839 216.919 48.8555 215.932 49.5928 216.88L49.6429 216.888ZM129.127 126.613C126.328 129.73 123.944 133.212 121.618 136.748C118.991 140.743 117.23 145.15 116.257 149.93C115.455 153.878 115.226 157.865 115.29 161.923C115.376 167.27 115.727 172.586 116.579 177.84C119.32 194.698 125.133 210.204 134.224 224.217C135.534 226.238 136.75 228.344 138.44 230.038C139.449 231.787 140.773 233.248 142.047 234.764C143.615 236.637 145.591 237.64 147.81 238.207C152.198 239.326 156.564 238.79 160.916 237.958C166.965 236.8 172.777 234.74 178.482 232.316C191.804 226.65 204.252 219.181 216.127 210.577C229.878 200.613 242.713 189.436 253.872 176.122C258.153 171.008 262.111 165.622 265.268 159.599C266.972 156.35 268.41 152.985 269.126 149.285C270.178 143.844 268.811 140.106 264.574 136.888C264.108 136.531 263.657 136.15 263.192 135.785C252.526 127.429 242.755 117.994 233.915 107.424C230.143 102.908 226.499 98.2603 223.643 92.9985C221.625 89.2757 218.811 86.7808 215.168 85.2574C209.842 83.0346 204.316 82.9724 198.754 83.633C190.845 84.5735 183.328 87.1072 176.02 90.4415C162.556 96.5815 150.437 105.053 139.449 115.46C135.784 118.934 132.226 122.525 129.134 126.629L129.127 126.613ZM117.116 187.812C115.899 181.874 114.718 175.936 114.267 169.85C113.83 163.959 113.472 158.075 114.453 152.207C115.412 146.464 117.187 141.077 120.294 136.243C127.237 125.44 135.77 116.323 145.347 108.318C156.672 98.8588 168.933 91.2265 182.498 86.2212C189.792 83.532 197.244 81.721 205.018 81.8687C208.532 81.9387 211.968 82.4205 215.282 83.7496C219.341 85.374 222.612 88.0088 224.731 92.2058C225.225 93.1851 225.819 94.1022 226.413 95.0193C231.224 102.481 236.864 109.173 242.949 115.406C245.697 118.219 249.083 120.03 252.856 120.582C256.478 121.111 259.556 120.03 261.853 116.587C269.799 104.649 277.458 92.5089 284.695 80.05C292.569 66.4875 300.042 52.6763 306.492 38.2433C307.966 34.9478 309.398 31.6291 310.593 28.2016C311.123 26.686 310.958 26.4217 309.548 25.9554C304.673 24.3543 299.763 22.9242 294.824 21.5952C273.149 15.7893 251.181 11.7011 229.055 8.58448C216.349 6.79687 203.608 5.38232 190.823 4.34085C180.838 3.52476 170.845 2.93407 160.838 2.5921C151.224 2.25789 141.611 2.35116 132.005 2.54547C130.738 2.56878 129.735 3.12061 128.798 4.05328C118.955 13.8696 110.108 24.6885 101.611 35.865C89.6498 51.5882 78.5475 68.0031 67.9391 84.8222C65.6127 88.5062 63.2363 92.1669 61.1675 96.0297C60.9814 96.1307 60.8884 96.294 60.8812 96.5194C60.6521 96.667 60.5591 96.9157 60.5018 97.18C59.8504 97.6385 59.5713 98.4235 59.1704 99.0842C53.6371 108.201 48.2972 117.458 43.0789 126.8C39.2278 133.694 35.4913 140.666 31.8191 147.684C31.0103 149.231 31.6401 150.513 33.2793 150.536C36.7296 150.583 39.6931 152.122 42.5993 153.902C43.401 154.391 43.9522 155.106 44.0596 156.07C44.1598 156.909 44.5893 157.182 45.2335 157.422C47.0159 158.091 48.741 158.907 50.3945 159.917C55.7631 163.197 60.1582 167.666 63.9163 172.905C69.5497 180.762 73.2004 189.662 75.5626 199.229C75.8919 200.558 76.2784 201.841 77.0157 202.975C79.0128 206.038 81.8259 207.437 85.2046 207.647C88.8266 207.872 92.3771 207.11 95.949 206.683C100.086 206.185 104.224 205.595 108.354 205.012C112.484 204.429 116.615 203.815 120.738 203.185C121.804 203.022 121.862 202.944 121.482 201.918C119.786 197.309 118.418 192.576 117.123 187.82L117.116 187.812ZM46.5864 185.029C46.6365 182.216 46.3716 179.449 45.7489 176.721C44.8255 172.679 43.1719 169.042 40.7238 165.832C40.0796 164.985 39.4283 164.262 38.2686 164.829C37.6029 165.156 36.93 164.954 36.2858 164.612C35.0546 163.951 33.8592 163.228 32.7496 162.335C32.0195 161.744 31.2465 161.2 30.4662 160.687C28.4691 159.381 26.5508 160.189 25.2193 161.324C24.6181 161.837 24.2601 162.552 23.9165 163.267C21.7046 167.829 19.4713 172.368 17.3096 176.954C13.5802 184.851 10.044 192.856 6.73695 200.978C5.04763 205.121 3.43705 209.302 1.81931 213.476C1.09633 215.341 1.77639 216.515 3.64467 216.592C4.78282 216.639 5.93522 216.585 7.07336 216.476C10.316 216.173 13.5515 215.784 16.7942 215.496C23.0576 214.952 29.3066 214.307 35.5628 213.654C36.5936 213.546 37.2665 213.141 37.8392 212.302C43.3653 204.196 46.5864 195.219 46.5864 185.029ZM52.9285 106.639C52.6565 106.491 52.5133 106.359 52.3558 106.336C44.6608 105.069 37.0875 105.442 29.7433 108.481C25.2408 110.346 21.2393 113.059 18.2616 117.263C14.4534 122.634 13.4728 128.572 15.5987 134.976C17.5816 140.938 21.4685 145.236 26.1928 148.741C26.6152 149.052 26.9802 149.13 27.4527 148.85C27.739 148.671 28.1112 148.539 28.4333 148.57C29.593 148.679 30.1226 147.956 30.6309 146.961C34.9186 138.621 39.3996 130.398 44.0023 122.261C46.93 117.085 49.9006 111.939 52.9357 106.647L52.9285 106.639ZM11.1751 128.665C11.1536 130.733 11.4398 132.753 11.9838 134.728C13.9881 141.948 18.4262 147.031 24.1313 150.995C24.2243 151.065 24.3245 151.127 24.4247 151.189C24.7898 151.422 25.0189 151.282 25.2766 150.933C25.8349 150.187 25.3625 149.86 24.8614 149.479C21.5472 146.961 18.6839 143.969 16.5078 140.23C11.218 131.152 12.3418 121.072 19.4642 113.642C20.5379 112.522 21.7047 111.52 22.9502 110.634C28.5908 106.6 34.8756 104.758 41.547 104.315C44.9257 104.09 48.2972 104.222 51.6472 104.75C52.4346 104.874 52.8569 104.571 52.9786 103.748C53.1003 102.931 52.8426 102.426 52.0122 102.364C51.7331 102.341 51.4539 102.224 51.1747 102.185C45.1046 101.284 39.0775 101.54 33.1505 103.281C27.0876 105.061 21.626 108.069 17.2595 113.098C13.4728 117.458 11.3039 122.595 11.1751 128.657V128.665ZM42.6995 156.498C42.6852 155.744 42.3988 155.402 42.0624 155.192C39.4783 153.575 36.8298 152.106 33.759 151.951C32.3488 151.881 30.953 151.99 30.1227 153.474C29.2136 155.099 29.7934 156.575 30.6452 157.99C30.7669 158.2 30.9028 158.402 31.0532 158.588C32.5421 160.539 34.4247 161.923 36.4934 163.034C36.9873 163.298 37.5098 163.461 38.1254 163.127C36.8656 161.557 37.0446 159.964 37.8892 158.41C38.9701 156.428 40.6594 155.977 42.6995 156.498ZM28.5693 156.552C28.0682 153.941 28.8127 152.036 30.9172 150.832C29.4999 149.681 28.6338 149.604 27.4527 150.443C26.2358 151.306 25.5916 153.031 25.9352 154.461C26.2644 155.814 26.9158 156.373 28.5621 156.552H28.5693Z" fill="#121212"/>
<path d="M370.796 145.727C373.366 142.812 375.936 139.89 378.513 136.975C379.787 135.537 379.88 135.522 381.312 136.773C384.604 139.665 387.052 143.162 387.969 147.748C388.327 149.551 388.312 149.582 386.766 150.429C380.803 153.701 376.194 158.644 372.292 164.419C369.537 168.499 367.31 172.883 366.043 177.795C365.764 178.868 365.7 179.847 365.957 181.013C366.387 182.94 366.093 184.969 365.764 186.927C365.156 190.588 364.082 194.023 361.476 196.65C361.161 196.969 361.018 197.303 360.925 197.754C360.596 199.293 359.751 200.436 358.42 201.088C357.919 201.337 357.625 201.625 357.489 202.262C356.072 208.931 354.039 215.374 351.362 221.576C351.298 221.731 351.297 221.918 351.247 222.221C353.824 223.06 356.387 223.877 358.935 224.724C367.897 227.7 376.73 231.027 385.342 235.061C386.716 235.706 387.582 236.685 388.162 238.1C388.606 239.188 388.935 240.323 389.071 241.488C389.866 248.274 390.202 255.082 389.966 261.929C389.737 268.637 389.264 275.321 388.42 281.966C386.294 298.746 382.808 315.153 376.745 330.83C375.614 333.745 374.383 336.613 372.922 339.356C371.713 341.641 369.93 342.815 367.504 343.001C363.91 343.273 360.331 343.701 356.745 343.973C349.551 344.517 342.336 344.525 335.127 344.486C333.703 344.478 333.717 344.494 333.746 345.978C333.796 348.527 334.032 351.061 334.383 353.579C334.855 356.89 333.989 359.704 331.87 362.105C329.938 364.297 327.604 365.844 325.113 367.126C320.016 369.746 314.605 371.269 309.086 372.38C299.201 374.362 289.215 374.953 279.193 374.533C266.703 374.012 254.369 372.295 242.458 367.935C238.714 366.567 235.092 364.896 231.728 362.618C229.874 361.367 228.156 359.921 226.724 358.118C224.792 355.678 223.997 352.95 224.469 349.678C225.665 341.501 228.936 334.359 233.403 327.776C233.632 327.441 234.033 327.2 233.99 326.641C233.174 325.957 232.122 325.825 231.162 325.498C206.445 317.096 182.687 306.285 160.211 292.249C159.101 291.557 158.078 290.795 157.412 289.583C156.245 287.453 156.875 285.269 158.908 284.158C178.715 273.331 197.498 260.709 215.4 246.517C229.566 235.294 243.023 223.161 255.457 209.723C256.187 208.938 256.889 208.114 257.604 207.314C259.702 204.99 262.257 203.949 265.221 204.314C292.236 207.633 318.921 212.902 345.213 220.472C346.573 220.861 346.587 220.869 347.167 219.571C349.723 213.858 351.734 207.928 353.216 201.78C353.409 200.98 353.388 200.404 352.822 199.775C352.071 198.935 351.791 197.809 351.956 196.666C352.078 195.858 351.827 195.228 351.527 194.552C349.551 190.091 348.993 185.443 349.959 180.593C350.052 180.111 350.073 179.458 350.367 179.194C351.569 178.106 351.054 176.816 350.825 175.595C350.016 171.259 348.628 167.124 346.881 163.129C344.862 158.512 342.436 154.167 339.394 150.25C337.618 147.957 335.671 145.875 333.288 144.312C332.307 143.675 332.271 143.473 332.865 142.4C334.39 139.633 336.523 137.496 338.921 135.631C339.544 135.149 340.052 135.196 340.596 135.755C341.584 136.773 342.6 137.76 343.86 139.012C343.86 137.434 343.438 136.307 343.202 135.157C342.815 133.276 342.865 133.089 344.526 132.374C350.532 129.786 356.766 128.861 363.194 129.498C366.337 129.809 369.408 130.501 372.4 131.589C372.722 131.706 373.058 131.807 373.373 131.954C374.919 132.654 375.091 133.081 374.454 134.791C373.273 137.955 372.063 141.102 370.875 144.258C370.746 144.6 370.653 144.957 370.546 145.307C370.166 145.556 370.202 145.976 370.152 146.372C370.474 146.271 370.696 146.069 370.789 145.727H370.796ZM351.362 171.414V171.43C351.741 173.388 352.121 175.347 352.514 177.406C356.738 175.596 360.617 176.054 364.225 178.479C364.669 178.16 364.669 177.756 364.755 177.406C365.75 173.621 367.296 170.108 369.2 166.774C369.737 165.834 370.424 164.994 370.796 163.937C375.106 157.984 379.851 152.566 386.208 149.123C386.759 148.828 386.766 148.401 386.659 147.888C385.7 143.457 383.259 140.178 379.966 137.473C379.443 138.048 379.035 138.475 378.642 138.918C375.528 142.47 372.421 146.038 369.286 149.574C368.849 150.072 368.449 151.097 367.675 150.577C366.917 150.064 367.547 149.224 367.79 148.572C369.35 144.437 370.94 140.317 372.493 136.183C372.808 135.335 373.259 134.535 373.359 133.524C369.458 131.869 365.449 131.006 361.312 130.796C355.993 130.524 350.825 131.325 345.829 133.361C344.318 133.975 344.318 133.983 344.705 135.763C345.048 137.333 345.392 138.903 345.728 140.473C345.829 140.955 345.986 141.491 345.507 141.833C344.998 142.206 344.655 141.755 344.325 141.429C343.016 140.131 341.698 138.841 340.417 137.512C339.93 137.006 339.537 136.867 338.95 137.356C337.268 138.771 335.757 140.364 334.483 142.222C334.003 142.921 334.204 143.248 334.784 143.667C337.769 145.843 340.102 148.742 342.221 151.851C346.201 157.696 349.107 164.131 351.147 171.041C351.111 171.235 351.176 171.36 351.355 171.406L351.362 171.414ZM299.472 372.349C301.434 372.474 303.338 371.953 305.249 371.657C311.606 370.655 317.833 369.108 323.739 366.295C326.215 365.113 328.542 363.644 330.503 361.608C333.86 358.126 333.918 354.559 330.718 350.89C330.639 350.797 330.56 350.711 330.474 350.626C326.509 346.514 321.641 344.532 316.337 343.701C313.51 343.258 310.639 343.188 307.805 342.838C301.956 342.123 296.123 341.338 290.296 340.398C279.666 338.68 269.136 336.426 258.678 333.776C251.391 331.926 244.162 329.812 236.982 327.511C236.058 327.216 235.479 327.364 234.906 328.149C233.159 330.535 231.577 333.03 230.396 335.812C227.891 340.398 226.338 345.349 225.693 350.634C225.414 352.919 226.044 354.916 227.326 356.712C228.099 357.8 228.993 358.748 229.988 359.595C233.167 362.307 236.76 364.196 240.518 365.719C252.028 370.391 264.033 372.256 276.216 373.056C281.062 373.375 285.929 373.29 290.783 373.165C293.689 373.088 296.602 372.987 299.472 372.373V372.349ZM387.718 275.437C388.04 274.419 388.04 273.362 388.105 272.305C388.248 269.95 388.37 267.595 388.52 265.24C389.021 257.282 388.756 249.354 387.733 241.457C387.403 238.924 386.358 237.074 383.946 236.009C375.836 232.426 367.654 229.107 359.243 226.457C355.521 225.283 352.128 226.006 349.107 228.688C347.539 230.079 346.287 231.75 345.17 233.576C340.961 240.439 336.008 246.602 330.238 251.973C325.084 256.769 319.472 260.802 313.352 263.997C312.021 264.688 312.006 264.72 312.364 266.15C312.794 267.836 312.336 269.204 311.19 270.354C310.059 271.481 308.692 272.119 307.218 272.437C301.985 273.564 296.974 272.803 292.221 270.176C290.89 269.437 289.702 268.466 288.793 267.137C287.218 264.821 287.576 262.318 289.752 260.67C290.847 259.839 292.078 259.341 293.381 259.061C297.948 258.082 302.386 258.673 306.638 260.655C307.704 261.152 308.513 261.082 309.501 260.569C324.089 253.022 335.356 241.558 343.681 226.597C344.447 225.229 345.263 223.877 345.793 222.291C345.363 222.128 344.998 221.949 344.619 221.84C335.886 219.322 327.103 217.076 318.263 215.055C307.017 212.482 295.707 210.306 284.34 208.472C281.341 207.99 278.327 207.625 275.335 207.143C274.412 206.995 274.118 207.298 274.047 208.27C273.925 209.98 273.224 211.488 272.393 212.918C271.005 215.304 269.215 217.309 267.254 219.135C261.398 224.599 254.748 228.734 247.927 232.558C238.664 237.75 229.001 241.931 219.244 245.872C218.27 246.268 217.383 246.781 216.545 247.45C202.544 258.579 187.977 268.753 172.795 277.893C168.392 280.544 163.933 283.07 159.459 285.58C157.992 286.404 157.734 287.601 158.65 289.093C159.037 289.723 159.559 290.205 160.161 290.585C161.048 291.153 161.929 291.728 162.823 292.28C181.234 303.619 200.54 312.798 220.54 320.26C250.733 331.522 281.677 338.96 313.517 341.913C322.243 342.721 330.983 343.087 339.73 343.234C342.937 343.289 346.136 343.048 349.336 342.978C355.571 342.846 361.777 342.271 367.976 341.548C369.436 341.377 370.56 340.646 371.362 339.302C372.3 337.732 373.108 336.1 373.76 334.366C373.831 334.273 373.924 334.188 373.974 334.087C377.446 325.895 380.095 317.392 382.221 308.687C384.304 300.176 385.836 291.534 386.974 282.821C387.296 280.373 387.675 277.925 387.697 275.437H387.718ZM302.658 271.419C303.173 271.419 303.689 271.419 304.204 271.419C305.944 271.404 307.626 271.038 309.165 270.152C311.57 268.769 311.835 266.701 309.931 264.595C308.699 263.243 307.182 262.38 305.578 261.688C302.214 260.235 298.699 259.885 295.128 260.196C293.581 260.328 292.085 260.771 290.754 261.696C288.907 262.986 288.657 264.743 290.074 266.554C290.94 267.657 292.035 268.458 293.223 269.088C296.194 270.673 299.337 271.489 302.658 271.411V271.419ZM352.751 193.985C356.043 191.365 358.341 191.668 360.911 194.894C361.305 194.847 361.469 194.482 361.655 194.187C364.053 190.409 364.805 186.158 364.741 181.666C364.726 180.811 364.189 180.337 363.667 179.862C360.861 177.329 355.421 176.987 352.35 179.124C351.856 179.466 351.476 179.855 351.319 180.523C350.224 185.171 350.847 189.578 352.751 193.985ZM310.754 261.696C312.035 262.613 313.288 262.434 314.583 261.696C318.134 259.683 321.563 257.437 324.762 254.825C341.942 240.812 352.214 222.089 356.716 199.456C356.774 199.153 356.809 198.842 356.816 198.531C356.824 198.011 356.516 197.739 356.086 197.669C355.664 197.599 355.485 197.948 355.37 198.314C355.263 198.663 355.184 199.029 355.106 199.394C353.996 204.601 352.557 209.7 350.653 214.635C342.715 235.138 329.973 250.885 311.577 261.004C311.298 261.16 310.918 261.199 310.754 261.704V261.696ZM358.298 199.464C359.83 197.855 360.052 196.27 359.064 194.917C358.041 193.518 355.972 193.238 354.569 194.303C353.23 195.314 352.93 196.821 353.753 198.399C354.626 196.448 355.199 195.99 356.409 196.246C357.64 196.511 358.119 197.303 358.298 199.456V199.464Z" fill="#121212"/>
<path d="M370.81 145.721C370.717 146.063 370.488 146.265 370.173 146.366C370.223 145.97 370.187 145.55 370.567 145.301C370.646 145.441 370.731 145.581 370.81 145.721Z" fill="#A9CED9"/>
<path d="M60.4921 97.1715C60.5565 96.9072 60.6424 96.6663 60.8715 96.5108C61.0791 96.4253 61.1721 96.2544 61.1578 96.0212C63.2265 92.1506 65.603 88.4977 67.9294 84.8137C78.5378 67.9946 89.6473 51.5719 101.601 35.8565C110.098 24.6878 118.946 13.8688 128.788 4.04476C129.726 3.1121 130.728 2.56027 131.995 2.53695C141.608 2.34265 151.222 2.24938 160.828 2.58359C170.835 2.93334 180.828 3.52402 190.813 4.33233C203.591 5.37381 216.339 6.78835 229.045 8.57596C251.171 11.6926 273.139 15.7808 294.814 21.5867C299.753 22.9079 304.664 24.3458 309.538 25.9469C310.949 26.4132 311.113 26.6775 310.584 28.193C309.388 31.6206 307.956 34.9393 306.482 38.2347C300.032 52.6755 292.559 66.4868 284.685 80.0415C277.449 92.5004 269.789 104.641 261.844 116.579C259.546 120.03 256.475 121.102 252.846 120.574C249.066 120.022 245.681 118.211 242.939 115.397C236.855 109.164 231.214 102.472 226.404 95.0108C225.817 94.0937 225.215 93.1766 224.722 92.1973C222.603 88.008 219.331 85.3655 215.273 83.7411C211.959 82.412 208.523 81.9302 205.008 81.8602C197.234 81.7125 189.783 83.5235 182.488 86.2126C168.917 91.218 156.655 98.8503 145.338 108.309C135.76 116.314 127.228 125.431 120.284 136.235C117.177 141.069 115.402 146.455 114.443 152.199C113.462 158.067 113.82 163.958 114.257 169.842C114.708 175.92 115.889 181.865 117.106 187.803C114.901 188.06 112.704 188.41 110.499 188.549C107.65 188.736 104.822 188.285 102.002 187.865C97.2706 187.166 92.7826 185.635 88.4877 183.428C84.2429 181.244 80.3488 178.492 76.7555 175.166C72.9044 171.598 69.5472 167.596 66.6553 163.111C62.6897 156.971 59.8192 150.263 57.908 143.051C56.3046 137.012 55.5244 130.833 55.4456 124.592C55.4027 120.846 55.732 117.084 56.3476 113.353C56.9703 109.568 57.8364 105.884 59.0032 102.255C59.5401 100.583 60.5279 99.0446 60.4921 97.1637V97.1715ZM118.974 21.8043C119.461 21.7499 119.747 21.3535 120.055 20.996C121.444 19.3483 122.797 17.6617 124.228 16.0684C126.655 13.3637 128.967 10.4957 132.346 9.08893C132.503 9.02675 132.668 8.93349 132.789 8.80913C132.954 8.63037 133.04 8.40498 132.954 8.13295C132.868 7.85315 132.639 7.73657 132.424 7.77543C132.038 7.84538 131.651 7.9775 131.279 8.13295C129.59 8.8169 128.23 10.0605 126.891 11.3196C124.028 14.001 121.573 17.1099 119.017 20.1177C118.788 20.382 118.538 20.6851 118.445 21.0193C118.33 21.4157 118.552 21.7266 118.981 21.812L118.974 21.8043ZM276.239 21.5944C275.373 21.5944 275.036 21.8121 275.043 22.2862C275.058 22.8302 275.394 23.0167 275.838 23.0634C276.01 23.0789 276.181 23.0634 276.353 23.1022C281.3 24.0349 286.246 24.9676 291.113 26.3433C291.643 26.4909 292.323 26.9339 292.552 26.0479C292.767 25.2163 292.051 25.0842 291.493 24.9287C291.271 24.8665 291.049 24.8121 290.827 24.7655C287.871 24.0815 284.914 23.3743 281.951 22.7214C279.997 22.2939 278.021 21.9442 276.239 21.6022V21.5944Z" fill="#FA4616"/>
<path d="M129.128 126.612C132.22 122.508 135.778 118.917 139.443 115.443C150.431 105.036 162.549 96.5566 176.014 90.4244C183.322 87.0901 190.846 84.5563 198.748 83.6159C204.303 82.9553 209.836 83.0097 215.162 85.2403C218.805 86.7636 221.619 89.2585 223.637 92.9814C226.493 98.2432 230.137 102.899 233.909 107.407C242.749 117.977 252.52 127.412 263.186 135.767C263.651 136.133 264.102 136.514 264.568 136.871C268.805 140.089 270.165 143.827 269.12 149.268C268.411 152.96 266.965 156.325 265.262 159.582C262.105 165.605 258.147 170.999 253.866 176.105C242.706 189.427 229.879 200.596 216.121 210.56C204.246 219.163 191.798 226.632 178.476 232.298C172.771 234.723 166.959 236.775 160.91 237.941C156.558 238.78 152.192 239.309 147.804 238.19C145.585 237.622 143.609 236.62 142.041 234.747C140.774 233.231 139.45 231.77 138.434 230.021C138.434 229.772 138.512 229.5 138.441 229.283C137.517 226.399 137.804 223.423 137.782 220.461C138.477 220.376 138.691 219.886 138.82 219.202C139.235 216.995 140.116 214.974 141.089 213C142.306 210.536 143.681 208.173 145.205 205.927C155.191 191.292 167.066 178.787 180.917 168.489C181.29 168.209 181.676 167.929 181.991 167.579C182.191 167.362 182.184 167.004 181.977 166.732C181.812 166.514 181.554 166.46 181.354 166.569C180.846 166.841 180.345 167.144 179.872 167.486C174.067 171.714 168.698 176.517 163.552 181.647C160.352 184.834 157.317 188.199 154.296 191.588C153.91 191.331 154.06 190.997 154.117 190.616C154.525 187.904 154.318 185.269 152.836 182.953C152.027 181.686 151.132 180.473 150.087 179.401C147.389 176.626 144.883 173.649 142.657 170.424C138.806 164.843 135.649 158.835 133.273 152.346C130.703 145.32 129.092 138.099 129.164 130.498C129.178 129.192 129.128 127.894 129.107 126.589L129.128 126.612ZM154.819 233.006C157.868 233.006 160.581 232.625 163.265 231.941C170.989 229.967 178.297 226.765 185.427 223.065C202.599 214.15 218.383 202.873 233.029 189.714C240.538 182.968 247.61 175.732 253.809 167.54C257.008 163.304 259.936 158.859 261.955 153.799C262.864 151.506 263.522 149.136 263.487 146.594C263.437 142.965 261.847 140.485 258.705 139.218C257.195 138.612 255.62 138.34 254.002 138.286C250.602 138.177 247.273 138.76 243.988 139.607C234.41 142.086 225.491 146.431 216.773 151.273C205.957 157.281 195.728 164.338 185.957 172.18C177.288 179.129 169.021 186.582 161.461 194.93C156.637 200.254 152.106 205.85 148.498 212.246C146.58 215.65 144.919 219.195 144.468 223.236C143.996 227.472 145.685 230.76 149.364 232.182C151.225 232.897 153.158 233.076 154.819 233.013V233.006ZM251.812 131.765C251.69 131.096 251.189 131.143 250.745 131.127C247.309 131.042 243.931 131.501 240.609 132.464C240.287 132.558 239.979 132.736 239.686 132.915C239.471 133.047 239.407 133.311 239.471 133.56C239.535 133.809 239.722 133.957 239.958 134.019C240.316 134.112 240.624 133.918 240.946 133.817C243.15 133.156 245.391 132.744 247.667 132.558C248.805 132.464 249.936 132.402 251.074 132.332C251.439 132.309 251.754 132.239 251.812 131.757V131.765Z" fill="#FA4616"/>
<path d="M60.4952 97.1758C60.5381 99.0489 59.5503 100.596 59.0063 102.267C57.8395 105.896 56.9734 109.58 56.3507 113.365C55.7351 117.096 55.4058 120.858 55.4487 124.604C55.5275 130.845 56.3005 137.024 57.9111 143.063C59.8295 150.276 62.7 156.983 66.6584 163.123C69.5503 167.608 72.9075 171.61 76.7586 175.178C80.352 178.504 84.246 181.256 88.4908 183.44C92.7857 185.655 97.2809 187.178 102.005 187.878C104.826 188.297 107.653 188.74 110.502 188.562C112.714 188.422 114.911 188.072 117.109 187.815C118.405 192.572 119.772 197.305 121.468 201.914C121.848 202.932 121.79 203.018 120.724 203.181C116.601 203.811 112.471 204.425 108.34 205.008C104.21 205.591 100.08 206.181 95.9352 206.679C92.3633 207.106 88.8128 207.868 85.1908 207.642C81.8122 207.433 79.0062 206.034 77.0019 202.971C76.2646 201.837 75.8781 200.562 75.5488 199.225C73.1866 189.665 69.5431 180.758 63.9025 172.901C60.1444 167.662 55.7493 163.193 50.3807 159.913C48.7272 158.903 47.0021 158.087 45.2197 157.418C44.5683 157.177 44.1388 156.898 44.0458 156.066C43.9312 155.102 43.3801 154.387 42.5856 153.897C39.6794 152.118 36.7159 150.587 33.2656 150.532C31.6264 150.509 30.9965 149.219 31.8053 147.68C35.4775 140.669 39.2069 133.697 43.0651 126.796C48.2834 117.461 53.6162 108.205 59.1566 99.08C59.5575 98.4194 59.8366 97.6344 60.488 97.1758H60.4952Z" fill="#C20000"/>
<path d="M137.801 220.477C137.823 223.43 137.536 226.415 138.46 229.298C138.531 229.516 138.46 229.788 138.453 230.037C136.763 228.342 135.539 226.228 134.237 224.215C125.146 210.202 119.333 194.696 116.592 177.839C115.74 172.584 115.389 167.276 115.303 161.921C115.239 157.864 115.468 153.877 116.27 149.928C117.243 145.149 119.004 140.742 121.631 136.747C123.957 133.21 126.341 129.736 129.14 126.612C129.161 127.918 129.204 129.216 129.197 130.521C129.118 138.13 130.736 145.351 133.306 152.369C135.683 158.859 138.846 164.867 142.69 170.447C144.917 173.673 147.422 176.649 150.12 179.424C151.158 180.497 152.06 181.709 152.869 182.976C154.358 185.292 154.559 187.927 154.151 190.639C154.093 191.02 153.943 191.354 154.329 191.611C154.158 191.852 154.007 192.124 153.814 192.341C149.39 197.393 145.396 202.811 141.917 208.663C140.178 211.585 138.61 214.609 137.715 217.99C137.493 218.829 137.229 219.669 137.808 220.469L137.801 220.477Z" fill="#C20000"/>
<path d="M46.5906 185.026C46.5906 195.215 43.3766 204.192 37.8433 212.299C37.2707 213.138 36.5906 213.542 35.567 213.651C29.3108 214.296 23.0617 214.941 16.7984 215.493C13.5557 215.773 10.3202 216.169 7.07754 216.472C5.93939 216.581 4.78699 216.635 3.64884 216.589C1.78056 216.503 1.1005 215.33 1.82348 213.472C3.44122 209.298 5.0518 205.117 6.74112 200.974C10.0482 192.852 13.5843 184.855 17.3137 176.95C19.4755 172.365 21.716 167.818 23.9207 163.264C24.2643 162.549 24.6222 161.834 25.2235 161.321C26.5621 160.186 28.4733 159.378 30.4704 160.683C31.2507 161.196 32.0165 161.74 32.7538 162.331C33.8633 163.225 35.0588 163.94 36.29 164.608C36.9342 164.958 37.6071 165.152 38.2728 164.826C39.4324 164.258 40.0838 164.981 40.728 165.828C43.1761 169.038 44.8296 172.676 45.753 176.717C46.3758 179.445 46.6407 182.212 46.5906 185.026Z" fill="#C20000"/>
<path d="M34.1072 218.863C39.7192 213.041 43.7921 206.155 46.0827 198.095C48.5738 189.305 48.8315 180.522 45.6963 171.81C45.6104 171.584 45.5746 171.336 45.5173 171.095C46.5624 170.185 47.5144 169.02 48.9388 168.887C50.5136 168.74 52.1099 168.631 53.6847 169.02C56.548 169.719 59.1321 171.079 61.4514 173.022C61.8093 173.318 62.1027 173.729 62.6252 173.652C62.8328 173.932 63.0405 174.211 63.2481 174.491C63.2481 174.678 63.3411 174.787 63.5057 174.825C67.1206 179.776 69.7261 185.349 71.7949 191.217C74.3575 198.492 75.9394 206.015 76.3618 213.811C76.419 214.845 76.7483 215.878 76.4118 217.013C75.0947 216.64 73.7919 216.251 72.482 215.917C71.8807 215.762 71.8951 215.264 71.8092 214.782C71.3797 212.35 70.9358 209.917 70.4992 207.484C70.4204 207.057 70.3417 206.637 70.2487 206.217C70.1485 205.767 69.9552 205.37 69.447 205.456C68.9817 205.533 68.8099 205.922 68.767 206.396C68.6596 207.694 68.545 208.984 68.4448 210.282C68.3088 212.008 68.1872 213.733 68.0583 215.536C67.2566 215.816 66.4191 215.389 65.7033 215.839C63.8636 215.622 62.0597 216.174 60.2273 216.166C60.0411 215.863 59.9123 215.552 59.8264 215.186C59.5544 214.06 59.1894 212.964 58.8529 211.852C58.7313 211.464 58.4592 211.254 58.0798 211.262C57.679 211.269 57.4857 211.557 57.407 211.953C57.2853 212.552 57.1636 213.158 57.0491 213.756C56.7055 215.614 56.7055 215.606 55.009 215.902C54.6798 215.956 54.3576 216.104 54.0354 216.212C52.5967 216.632 51.1365 216.85 49.6476 216.889C48.9103 215.94 47.8867 216.927 46.9561 216.376C47.4071 213.772 47.8723 211.114 48.3376 208.456C48.6669 206.567 48.989 204.678 49.3469 202.798C49.4543 202.222 49.6117 201.608 48.9388 201.414C48.3662 201.251 48.2016 201.857 48.0227 202.308C46.5696 205.945 45.1164 209.583 43.6633 213.22C43.2767 214.184 42.833 215.132 42.5108 216.119C42.2317 216.974 41.7378 217.394 40.9361 217.573C38.76 218.07 36.5983 218.63 34.4365 219.166C34.3291 219.065 34.2289 218.964 34.1215 218.863H34.1072Z" fill="#DBF505"/>
<path d="M49.6381 216.889C51.127 216.851 52.5873 216.633 54.026 216.213C54.0117 216.571 53.8757 217.045 54.2981 217.154C55.3002 217.418 56.3238 217.239 57.3044 217.045C58.0203 216.905 57.8771 215.949 58.1348 215.366C58.2064 215.203 58.2565 215.156 58.4856 215.397C58.5786 215.623 58.6931 216.035 58.8935 216.392C59.3016 217.099 59.4876 217.053 60.2106 216.167C62.0431 216.167 63.8398 215.623 65.6866 215.84C65.6723 216.027 65.5864 216.275 65.6651 216.384C66.4955 217.519 67.648 216.835 68.6501 216.921C69.3015 216.975 69.366 216.237 69.4017 215.677C69.4662 214.744 69.4876 213.819 69.5449 212.887C69.5592 212.669 69.4804 212.366 69.9672 212.273C70.1604 213.33 70.3538 214.387 70.547 215.444C70.8477 217.053 70.8548 217.022 72.3366 217.371C73.3387 217.605 74.3552 217.861 75.3 218.265C76.7317 218.879 76.7961 219.649 75.5721 220.62C74.5986 221.397 73.489 221.918 72.3581 222.361C71.2414 222.804 70.139 223.309 68.9293 223.488C68.5642 222.649 68.507 221.778 68.3424 220.931C68.2708 220.566 68.1204 220.2 67.741 220.107C67.3401 220.006 67.0968 220.317 66.9107 220.628C66.2808 221.662 65.6365 222.695 65.0639 223.768C64.6845 224.475 64.1763 224.848 63.4604 224.996C59.8599 225.711 56.2522 226.317 52.6087 226.706C51.6137 226.815 51.127 226.473 50.8836 225.454C50.6975 224.677 50.4254 223.916 50.1176 223.185C49.6595 222.12 49.1298 222.081 48.5357 223.099C47.9201 224.149 47.3904 225.245 46.8392 226.341C46.5457 226.923 46.1664 227.297 45.5007 227.312C40.4041 227.452 35.3146 227.537 30.3183 226.208C29.6525 226.03 29.0011 225.789 28.4213 225.361C27.8129 224.91 27.7556 224.374 28.2924 223.822C29.0512 223.045 29.9675 222.54 30.9267 222.112C34.3769 220.558 37.9918 219.641 41.6496 218.903C42.573 218.716 43.0311 218.281 43.3747 217.395C44.384 214.76 45.4506 212.148 46.5028 209.529C46.5887 209.304 46.7462 209.117 47.011 208.69C46.5171 211.534 46.0519 214.138 45.6152 216.742C45.3718 218.18 45.5078 218.296 46.9036 218.055C47.5837 217.939 48.2565 217.83 48.9365 217.737C49.4018 217.674 49.6738 217.434 49.6523 216.897L49.6381 216.889Z" fill="#A5BC00"/>
<path d="M11.1825 128.665C11.3042 122.603 13.4731 117.473 17.267 113.105C21.6334 108.077 27.0879 105.069 33.158 103.289C39.085 101.548 45.1121 101.291 51.1822 102.193C51.4613 102.232 51.7405 102.356 52.0197 102.372C52.8429 102.434 53.1006 102.939 52.986 103.755C52.8644 104.579 52.442 104.882 51.6546 104.758C48.3046 104.222 44.9332 104.097 41.5545 104.323C34.8831 104.766 28.6054 106.608 22.9576 110.641C21.7121 111.527 20.5454 112.53 19.4716 113.649C12.3493 121.079 11.2254 131.16 16.5153 140.238C18.6914 143.969 21.5547 146.969 24.8689 149.487C25.37 149.868 25.8352 150.186 25.284 150.94C25.0264 151.282 24.7972 151.43 24.4322 151.197C24.332 151.135 24.239 151.065 24.1388 151.003C18.4337 147.039 13.9956 141.956 11.9913 134.735C11.4473 132.761 11.161 130.74 11.1825 128.673V128.665Z" fill="#DBF505"/>
<path d="M62.6251 173.648C62.1025 173.726 61.809 173.314 61.4511 173.018C59.1319 171.075 56.5549 169.715 53.6845 169.016C52.1097 168.635 50.5135 168.736 48.9387 168.884C47.5142 169.016 46.5622 170.174 45.5171 171.091C44.6151 169.661 44.0067 168.052 43.0546 166.653C42.031 165.153 40.9215 163.746 39.6473 162.503C38.4806 161.368 38.3231 160.723 38.8886 159.479C39.4756 158.181 40.5636 157.513 41.8163 157.793C42.7039 157.987 43.5844 158.282 44.4433 158.601C50.9931 161.026 56.2686 165.448 60.7925 171.021C61.4582 171.845 62.2742 172.568 62.6321 173.656L62.6251 173.648Z" fill="#A5BC00"/>
<path d="M42.6982 156.499C40.6509 155.978 38.9616 156.429 37.8879 158.411C37.0433 159.973 36.8643 161.566 38.1241 163.128C37.5085 163.463 36.986 163.299 36.4921 163.035C34.4234 161.924 32.5408 160.532 31.0519 158.589C30.9087 158.395 30.7727 158.193 30.6439 157.991C29.7921 156.576 29.2123 155.1 30.1213 153.475C30.9517 151.991 32.3475 151.874 33.7577 151.952C36.8285 152.107 39.4698 153.576 42.0611 155.193C42.3975 155.403 42.691 155.745 42.6982 156.499ZM34.4306 159.382C34.4592 159.996 34.3947 160.556 35.0103 160.665C35.4183 160.735 35.6617 160.4 35.7047 160.012C35.9266 157.999 36.6925 156.367 38.3102 155.263C38.5536 155.1 38.6681 154.766 38.4964 154.447C38.3031 154.089 38.0025 153.957 37.6302 154.12C37.4227 154.214 37.1936 154.299 37.0218 154.455C35.5186 155.753 34.7527 157.494 34.4306 159.382ZM33.1851 154.968C33.7434 154.968 34.409 154.322 34.3661 153.81C34.3088 153.118 33.8006 152.931 33.278 152.861C32.7197 152.791 32.0469 153.452 32.1471 153.957C32.2616 154.556 32.6768 154.867 33.1851 154.968Z" fill="#A9CED9"/>
<path d="M28.5578 156.552C26.9114 156.373 26.26 155.814 25.9307 154.461C25.58 153.031 26.2315 151.306 27.4483 150.443C28.6223 149.604 29.4955 149.681 30.9129 150.832C28.8012 152.029 28.0639 153.941 28.565 156.552H28.5578Z" fill="#A9CED9"/>
<path d="M34.1064 218.86C34.2138 218.961 34.314 219.062 34.4214 219.163C34.2281 219.388 33.8988 219.629 33.7342 219.396C33.5194 219.101 33.8845 218.961 34.1136 218.852L34.1064 218.86Z" fill="#A5BC00"/>
<path d="M63.5086 174.822C63.3465 174.784 63.2549 174.676 63.2549 174.493C63.4381 174.508 63.5227 174.623 63.5086 174.822Z" fill="#A5BC00"/>
<path d="M61.1622 96.023C61.1764 96.262 61.077 96.4239 60.8782 96.5087C60.8782 96.2851 60.9776 96.1232 61.1622 96.023Z" fill="#C20000"/>
<path d="M373.79 334.362C373.138 336.095 372.33 337.727 371.392 339.297C370.59 340.634 369.474 341.372 368.006 341.543C361.807 342.266 355.601 342.849 349.366 342.973C346.167 343.043 342.967 343.284 339.76 343.23C331.013 343.082 322.273 342.717 313.547 341.908C281.707 338.955 250.756 331.517 220.57 320.255C200.57 312.794 181.264 303.615 162.853 292.275C161.959 291.723 161.078 291.148 160.191 290.581C159.589 290.2 159.067 289.718 158.68 289.088C157.764 287.596 158.015 286.399 159.489 285.575C163.963 283.073 168.423 280.539 172.825 277.889C188.007 268.748 202.567 258.575 216.575 247.445C217.42 246.776 218.301 246.263 219.274 245.867C229.031 241.927 238.694 237.737 247.957 232.553C254.778 228.729 261.428 224.595 267.284 219.131C269.245 217.304 271.035 215.299 272.423 212.913C273.254 211.483 273.948 209.975 274.077 208.265C274.148 207.294 274.442 206.99 275.365 207.138C278.365 207.628 281.378 207.985 284.37 208.467C295.737 210.301 307.047 212.478 318.293 215.05C327.133 217.071 335.923 219.317 344.649 221.835C345.028 221.944 345.393 222.115 345.823 222.286C345.286 223.872 344.47 225.224 343.711 226.592C335.386 241.553 324.119 253.025 309.531 260.564C308.543 261.077 307.734 261.147 306.668 260.65C302.416 258.676 297.978 258.077 293.411 259.057C292.108 259.336 290.877 259.834 289.782 260.665C287.606 262.313 287.248 264.816 288.823 267.132C289.732 268.469 290.913 269.432 292.251 270.171C297.004 272.798 302.015 273.559 307.248 272.433C308.722 272.114 310.089 271.477 311.22 270.35C312.366 269.207 312.824 267.831 312.394 266.145C312.029 264.722 312.044 264.691 313.382 263.992C319.502 260.797 325.114 256.764 330.268 251.968C336.038 246.59 340.991 240.434 345.2 233.571C346.317 231.753 347.569 230.082 349.137 228.683C352.158 226.001 355.551 225.278 359.273 226.452C367.684 229.102 375.866 232.421 383.976 236.004C386.388 237.069 387.433 238.919 387.762 241.452C388.786 249.349 389.051 257.277 388.55 265.235C388.4 267.59 388.278 269.945 388.135 272.3C388.07 273.35 388.07 274.414 387.748 275.433C385.3 274.484 383.282 275.619 381.349 277.041C378.872 278.86 377.304 281.542 375.816 284.262C373.861 287.845 372.337 291.677 370.54 295.345C367.405 301.742 363.597 307.578 358.307 312.125C355.15 314.838 351.764 317.076 347.949 318.53C343.482 320.232 338.822 320.511 334.177 320.931C332.452 321.087 330.769 320.597 329.066 320.589C326.331 320.574 323.597 320.473 320.862 320.908C318.235 321.328 315.73 322.043 313.447 323.543C309.481 326.162 307.391 330.328 305.673 334.781C305.222 335.955 305.472 336.406 306.589 336.538C309.08 336.841 311.535 337.369 314.019 337.657C318.264 338.139 322.516 338.629 326.775 338.768C332.938 338.978 339.101 339.445 345.279 339.188C345.737 339.173 346.195 339.204 346.653 339.157C350.168 338.768 353.69 338.458 357.226 338.434C357.355 338.551 357.476 338.761 357.612 338.776C360.282 339.048 362.91 338.59 365.544 338.24C366.209 338.154 366.288 337.595 366.095 336.973C367.691 336.375 369.388 336.173 370.991 335.543C371.943 335.17 372.752 334.4 373.818 334.354L373.79 334.362ZM166.833 287.674C167.098 287.487 167.234 287.386 167.377 287.285C167.685 287.06 167.886 286.78 167.721 286.353C167.556 285.933 167.198 285.91 166.848 285.933C166.254 285.972 165.71 286.166 165.409 286.78C165.094 287.441 165.395 287.992 165.774 288.474C166.49 289.376 167.385 290.06 168.308 290.682C171.586 292.873 175.123 294.451 178.716 295.912C179.238 296.122 180.019 296.736 180.326 295.772C180.627 294.84 179.689 294.747 179.153 294.537C176.783 293.612 174.457 292.57 172.209 291.342C170.384 290.34 168.53 289.353 166.826 287.674H166.833ZM284.485 266.79C284.427 266.425 284.263 266.168 283.941 266.16C283.604 266.153 283.254 266.184 282.924 266.261C278.415 267.334 273.905 268.422 269.395 269.51C269.066 269.588 268.73 269.697 268.422 269.852C268.15 269.984 267.964 270.233 268.05 270.591C268.128 270.917 268.357 271.127 268.651 271.166C268.866 271.189 269.095 271.111 269.31 271.057C273.146 270.101 276.976 269.145 280.805 268.189C281.808 267.94 282.81 267.707 283.805 267.443C284.127 267.357 284.499 267.272 284.478 266.79H284.485ZM312.752 275.852C312.373 275.977 312.137 276.264 312.301 276.676C312.43 277.003 312.674 277.29 312.917 277.547C316.052 280.959 319.202 284.363 322.344 287.767C322.509 287.938 322.666 288.117 322.838 288.272C323.124 288.529 323.454 288.622 323.762 288.334C324.076 288.039 324.019 287.666 323.79 287.347C323.583 287.06 323.339 286.796 323.096 286.531C322.087 285.443 321.063 284.363 320.054 283.275C317.992 281.052 315.945 278.821 313.883 276.598C313.568 276.256 313.289 275.829 312.759 275.845L312.752 275.852ZM290.075 256.507C289.954 256.266 289.818 255.932 289.632 255.629C288.837 254.354 288.035 253.087 287.226 251.821C286.918 251.339 286.625 250.562 285.945 251.02C285.265 251.479 285.73 252.1 286.045 252.606C286.868 253.935 287.699 255.256 288.543 256.569C288.701 256.818 288.901 257.044 289.123 257.222C289.309 257.378 289.553 257.386 289.76 257.23C289.961 257.09 290.061 256.873 290.075 256.507Z" fill="#FA4616"/>
<path d="M357.184 338.445C353.648 338.468 350.126 338.787 346.611 339.168C346.16 339.214 345.695 339.183 345.237 339.199C339.059 339.455 332.896 338.989 326.733 338.779C322.474 338.631 318.215 338.15 313.977 337.668C311.493 337.388 309.031 336.852 306.547 336.548C305.43 336.416 305.18 335.958 305.631 334.792C307.349 330.339 309.439 326.173 313.405 323.553C315.681 322.046 318.193 321.338 320.821 320.919C323.555 320.483 326.289 320.584 329.024 320.6C330.727 320.608 332.41 321.097 334.135 320.942C338.78 320.522 343.44 320.242 347.907 318.54C351.729 317.087 355.115 314.848 358.265 312.136C363.562 307.581 367.363 301.752 370.498 295.356C372.295 291.687 373.819 287.856 375.774 284.273C377.262 281.545 378.823 278.871 381.307 277.052C383.232 275.63 385.258 274.495 387.706 275.443C387.685 277.93 387.305 280.379 386.983 282.827C385.845 291.54 384.313 300.182 382.23 308.693C380.097 317.39 377.456 325.901 373.984 334.092C373.941 334.201 373.841 334.279 373.769 334.372C372.71 334.419 371.894 335.188 370.942 335.561C369.338 336.191 367.649 336.385 366.046 336.992C363.505 337.162 360.963 337.326 358.429 337.512C357.857 337.551 357.27 337.637 357.177 338.46L357.184 338.445Z" fill="#C20000"/>
<path d="M299.47 372.343C296.6 372.957 293.687 373.058 290.78 373.136C285.927 373.268 281.067 373.346 276.213 373.027C264.03 372.226 252.026 370.369 240.516 365.69C236.758 364.167 233.164 362.278 229.986 359.565C228.991 358.718 228.096 357.77 227.323 356.682C226.049 354.887 225.412 352.881 225.691 350.604C226.336 345.319 227.889 340.368 230.394 335.782C230.652 335.907 230.902 336.101 231.182 336.148C233.365 336.552 235.548 336.956 237.738 337.314C242.856 338.153 247.917 339.303 252.949 340.586C260.215 342.435 267.423 344.503 274.431 347.348C281.94 350.394 289.32 353.721 295.49 359.449C299.012 362.721 301.539 366.941 299.463 372.335L299.47 372.343Z" fill="#FA4616"/>
<path d="M299.488 372.344C301.564 366.943 299.044 362.73 295.515 359.458C289.345 353.73 281.965 350.403 274.456 347.357C267.448 344.512 260.24 342.445 252.975 340.595C247.942 339.312 242.882 338.162 237.763 337.323C235.573 336.965 233.39 336.561 231.207 336.157C230.935 336.11 230.684 335.916 230.419 335.791C231.6 333.017 233.182 330.514 234.929 328.128C235.502 327.343 236.081 327.195 237.005 327.491C244.184 329.791 251.414 331.905 258.701 333.755C269.159 336.413 279.689 338.659 290.319 340.377C296.138 341.318 301.979 342.103 307.827 342.818C310.669 343.167 313.54 343.237 316.36 343.68C321.664 344.512 326.532 346.502 330.497 350.605C330.583 350.691 330.662 350.784 330.741 350.87C333.933 354.538 333.883 358.106 330.526 361.587C328.557 363.624 326.231 365.093 323.761 366.274C317.856 369.088 311.621 370.642 305.272 371.637C303.354 371.94 301.457 372.461 299.495 372.329L299.488 372.344Z" fill="#C20000"/>
<path d="M351.155 171.053C349.115 164.144 346.209 157.708 342.229 151.863C340.11 148.755 337.776 145.856 334.791 143.679C334.212 143.26 334.004 142.933 334.491 142.234C335.765 140.376 337.275 138.783 338.957 137.368C339.544 136.871 339.938 137.019 340.425 137.524C341.706 138.853 343.023 140.143 344.333 141.441C344.663 141.767 345.006 142.218 345.514 141.845C345.987 141.503 345.836 140.967 345.736 140.485C345.4 138.915 345.056 137.345 344.713 135.775C344.326 134.003 344.326 133.995 345.837 133.373C350.833 131.337 356.001 130.537 361.32 130.809C365.457 131.018 369.466 131.881 373.367 133.537C373.267 134.539 372.816 135.348 372.501 136.195C370.947 140.33 369.358 144.449 367.798 148.584C367.554 149.236 366.924 150.068 367.683 150.589C368.456 151.11 368.857 150.084 369.294 149.586C372.429 146.05 375.528 142.482 378.649 138.931C379.043 138.48 379.451 138.052 379.974 137.485C383.266 140.19 385.707 143.47 386.666 147.9C386.774 148.405 386.767 148.832 386.216 149.135C379.859 152.579 375.12 157.996 370.804 163.949C370.239 163.895 369.845 164.237 369.473 164.633C368.141 166.071 366.602 167.229 364.999 168.247C363.961 168.908 363.059 170.012 361.685 169.942C362.107 165.387 363.352 161.097 365.221 157.009C365.4 156.62 365.614 156.255 365.758 155.851C365.858 155.555 365.808 155.213 365.507 155.05C365.235 154.902 364.92 154.934 364.734 155.213C364.433 155.664 364.147 156.13 363.918 156.62C362.272 160.195 361.198 163.973 360.575 167.905C360.41 168.939 360.11 169.973 360.432 171.03C358.435 171.465 356.466 172.001 354.383 171.885C353.353 171.83 352.393 171.348 351.363 171.442V171.426C351.398 171.232 351.32 171.115 351.155 171.061V171.053ZM353.818 157.125C353.782 156.939 353.761 156.69 353.696 156.457C352.694 152.889 351.32 149.509 349.408 146.4C349.222 146.097 348.979 145.824 348.743 145.56C348.571 145.374 348.342 145.335 348.113 145.459C347.812 145.622 347.719 145.933 347.819 146.236C347.927 146.578 348.12 146.897 348.306 147.2C349.416 149.011 350.31 150.939 351.098 152.928C351.685 154.405 352.171 155.921 352.572 157.467C352.687 157.918 352.93 158.268 353.431 158.105C353.846 157.965 353.832 157.561 353.811 157.125H353.818Z" fill="#DBF505"/>
<path d="M302.668 271.42C299.347 271.498 296.204 270.682 293.234 269.096C292.045 268.459 290.95 267.666 290.084 266.562C288.667 264.759 288.91 262.995 290.764 261.705C292.095 260.78 293.599 260.337 295.138 260.205C298.71 259.894 302.224 260.243 305.589 261.697C307.192 262.389 308.71 263.244 309.941 264.604C311.852 266.702 311.587 268.777 309.175 270.161C307.636 271.047 305.954 271.412 304.214 271.428C303.699 271.428 303.183 271.428 302.668 271.428V271.42Z" fill="#C20000"/>
<path d="M352.754 193.986C350.85 189.579 350.22 185.172 351.323 180.524C351.48 179.856 351.859 179.475 352.353 179.125C355.424 176.988 360.864 177.338 363.67 179.864C364.193 180.338 364.73 180.812 364.744 181.667C364.809 186.159 364.05 190.411 361.659 194.188C361.473 194.475 361.315 194.849 360.915 194.895C358.345 191.67 356.047 191.367 352.754 193.986ZM354.809 183.159C354.794 182.739 354.873 182.172 354.665 181.644C354.508 181.247 354.343 180.835 353.871 180.773C353.348 180.703 352.983 180.983 352.761 181.457C352.16 182.739 352.189 184.115 352.554 185.421C352.833 186.416 353.835 186.47 354.401 185.607C354.859 184.908 354.809 184.084 354.809 183.151V183.159ZM354.73 189.221C354.73 188.631 354.458 188.297 353.942 188.227C353.413 188.157 353.069 188.398 353.062 189.019C353.062 189.571 353.277 189.975 353.807 190.03C354.336 190.084 354.623 189.75 354.723 189.221H354.73Z" fill="#A9CED9"/>
<path d="M310.764 261.696C310.922 261.19 311.301 261.152 311.587 260.996C329.984 250.877 342.725 235.13 350.664 214.627C352.575 209.699 354.007 204.593 355.116 199.386C355.195 199.02 355.274 198.663 355.381 198.305C355.495 197.94 355.674 197.59 356.097 197.66C356.533 197.73 356.834 198.002 356.827 198.523C356.827 198.834 356.791 199.145 356.727 199.448C352.224 222.088 341.952 240.804 324.773 254.817C321.566 257.429 318.144 259.675 314.594 261.688C313.291 262.426 312.045 262.605 310.764 261.688V261.696Z" fill="#DBF505"/>
<path d="M361.7 169.934C363.074 170.004 363.976 168.908 365.014 168.24C366.617 167.221 368.156 166.063 369.488 164.626C369.86 164.221 370.246 163.887 370.819 163.942C370.454 164.991 369.76 165.838 369.223 166.778C367.319 170.113 365.773 173.626 364.778 177.411C364.685 177.761 364.692 178.157 364.248 178.483C360.64 176.066 356.76 175.608 352.537 177.411C352.143 175.351 351.764 173.393 351.385 171.434C352.416 171.341 353.375 171.823 354.405 171.877C356.489 171.994 358.457 171.457 360.454 171.022C361.313 171.263 361.621 170.742 361.707 169.934H361.7Z" fill="#A5BC00"/>
<path d="M358.3 199.462C358.122 197.301 357.642 196.516 356.411 196.252C355.201 195.988 354.635 196.454 353.755 198.405C352.939 196.819 353.24 195.319 354.571 194.309C355.974 193.244 358.043 193.531 359.066 194.923C360.054 196.267 359.825 197.861 358.3 199.469V199.462Z" fill="#A9CED9"/>
<path d="M351.156 171.058C351.319 171.112 351.397 171.227 351.362 171.42C351.184 171.374 351.113 171.251 351.156 171.058Z" fill="#A5BC00"/>
<path d="M118.968 21.8063C118.539 21.7209 118.324 21.41 118.431 21.0136C118.524 20.6794 118.775 20.384 119.004 20.112C121.559 17.1119 124.014 13.9953 126.878 11.3139C128.216 10.0548 129.576 8.81897 131.266 8.12725C131.638 7.97957 132.017 7.84744 132.411 7.76972C132.626 7.73086 132.855 7.84745 132.941 8.12725C133.027 8.3915 132.941 8.62467 132.776 8.80343C132.662 8.92778 132.49 9.01328 132.332 9.08323C128.961 10.49 126.642 13.3579 124.215 16.0627C122.783 17.6638 121.43 19.3503 120.042 20.9903C119.734 21.3556 119.448 21.7442 118.961 21.7986L118.968 21.8063Z" fill="#121212"/>
<path d="M276.243 21.5962C278.025 21.946 280.001 22.2879 281.955 22.7154C284.918 23.3683 287.875 24.0756 290.831 24.7595C291.053 24.8139 291.275 24.8683 291.497 24.9227C292.055 25.0782 292.771 25.2103 292.556 26.0419C292.327 26.928 291.647 26.4849 291.117 26.3373C286.25 24.9616 281.304 24.0367 276.357 23.0963C276.193 23.0652 276.014 23.0729 275.842 23.0574C275.398 23.0185 275.062 22.8242 275.047 22.2802C275.033 21.8061 275.369 21.5807 276.243 21.5885V21.5962Z" fill="#121212"/>
<path d="M154.814 233.007C153.146 233.069 151.22 232.891 149.359 232.175C145.68 230.753 143.99 227.466 144.463 223.23C144.914 219.188 146.575 215.644 148.493 212.24C152.101 205.843 156.632 200.239 161.456 194.923C169.015 186.576 177.29 179.13 185.952 172.174C195.722 164.332 205.951 157.275 216.767 151.267C225.486 146.425 234.398 142.088 243.983 139.601C247.275 138.746 250.597 138.17 253.997 138.279C255.608 138.334 257.182 138.598 258.7 139.212C261.849 140.471 263.439 142.958 263.481 146.588C263.517 149.129 262.859 151.5 261.95 153.793C259.931 158.86 257.01 163.298 253.804 167.534C247.605 175.726 240.532 182.962 233.024 189.708C218.378 202.874 202.594 214.144 185.422 223.059C178.292 226.758 170.984 229.96 163.26 231.935C160.576 232.618 157.863 232.999 154.814 232.999V233.007ZM189.323 212.815C192.043 212.667 195.135 212.45 198.128 211.634C201.835 210.615 205.522 209.527 208.808 207.219C217.082 201.413 225.028 195.133 232.573 188.27C240.039 181.485 247.125 174.265 253.231 165.995C256.066 162.156 258.664 158.153 260.532 153.645C261.52 151.251 262.293 148.803 262.129 146.106C261.985 143.805 261.04 142.111 259.122 141.062C257.504 140.176 255.772 139.834 253.99 139.764C250.647 139.639 247.383 140.207 244.154 141.062C235.214 143.425 226.839 147.357 218.671 151.888C205.386 159.257 192.938 168.031 181.156 177.941C174.728 183.343 168.593 189.117 162.888 195.405C161.535 196.897 161.449 196.532 162.802 198.366C164.413 200.55 166.209 202.532 168.206 204.328C174.234 209.76 181.113 212.667 189.33 212.823L189.323 212.815Z" fill="#121212"/>
<path d="M137.786 220.481C137.206 219.68 137.464 218.841 137.693 218.001C138.588 214.62 140.162 211.597 141.895 208.675C145.374 202.822 149.375 197.405 153.792 192.353C153.985 192.135 154.135 191.863 154.307 191.622C157.328 188.234 160.363 184.868 163.563 181.682C168.702 176.56 174.078 171.749 179.883 167.521C180.356 167.179 180.857 166.876 181.365 166.604C181.565 166.495 181.823 166.549 181.988 166.767C182.195 167.039 182.202 167.396 182.002 167.614C181.687 167.964 181.3 168.244 180.928 168.523C167.077 178.814 155.202 191.319 145.216 205.962C143.684 208.208 142.31 210.563 141.1 213.035C140.127 215.009 139.246 217.022 138.831 219.237C138.702 219.921 138.488 220.411 137.793 220.496L137.786 220.481Z" fill="#121212"/>
<path d="M251.805 131.769C251.748 132.251 251.425 132.329 251.068 132.345C249.929 132.415 248.791 132.477 247.66 132.57C245.384 132.757 243.144 133.168 240.939 133.829C240.617 133.93 240.309 134.124 239.951 134.031C239.715 133.969 239.529 133.821 239.464 133.573C239.4 133.324 239.464 133.06 239.679 132.928C239.973 132.749 240.28 132.57 240.602 132.477C243.924 131.513 247.302 131.047 250.738 131.14C251.182 131.148 251.683 131.109 251.805 131.777V131.769Z" fill="#121212"/>
<path d="M60.2167 216.168C59.4865 217.054 59.3004 217.101 58.8996 216.394C58.6992 216.044 58.5847 215.624 58.4916 215.399C58.2625 215.158 58.2124 215.205 58.1409 215.368C57.8832 215.951 58.0263 216.907 57.3105 217.047C56.3298 217.241 55.3062 217.42 54.304 217.155C53.8817 217.039 54.0105 216.565 54.032 216.215C54.3541 216.106 54.6763 215.966 55.0056 215.904C56.6949 215.609 56.6949 215.617 57.0456 213.759C57.1602 213.153 57.2819 212.554 57.4036 211.956C57.4823 211.559 57.6755 211.272 58.0764 211.264C58.4558 211.256 58.7278 211.458 58.8495 211.855C59.1859 212.958 59.551 214.062 59.823 215.189C59.9089 215.562 60.0377 215.865 60.2238 216.168H60.2167Z" fill="#121212"/>
<path d="M34.4387 159.382C34.7608 157.494 35.5268 155.753 37.03 154.455C37.2018 154.307 37.4308 154.222 37.6384 154.121C38.0106 153.957 38.3112 154.082 38.5045 154.447C38.6763 154.766 38.5618 155.1 38.3184 155.263C36.7006 156.367 35.9347 158.007 35.7128 160.012C35.6699 160.393 35.4265 160.735 35.0185 160.665C34.4029 160.556 34.4674 159.989 34.4387 159.382Z" fill="#121212"/>
<path d="M33.181 154.969C32.6728 154.868 32.2647 154.565 32.1431 153.959C32.0428 153.454 32.7157 152.793 33.274 152.863C33.7894 152.925 34.2976 153.119 34.3621 153.811C34.405 154.324 33.7394 154.977 33.181 154.969Z" fill="#F7EEED"/>
<path d="M166.832 287.675C168.529 289.354 170.383 290.341 172.215 291.343C174.463 292.571 176.782 293.613 179.159 294.538C179.703 294.748 180.633 294.841 180.333 295.773C180.025 296.737 179.245 296.123 178.722 295.913C175.136 294.46 171.593 292.882 168.314 290.683C167.391 290.061 166.496 289.377 165.78 288.475C165.394 287.993 165.1 287.442 165.415 286.781C165.709 286.167 166.26 285.973 166.854 285.934C167.205 285.911 167.555 285.934 167.727 286.354C167.892 286.773 167.691 287.061 167.384 287.286C167.248 287.387 167.104 287.488 166.84 287.675H166.832Z" fill="#121212"/>
<path d="M284.488 266.795C284.51 267.277 284.138 267.362 283.816 267.448C282.821 267.712 281.818 267.945 280.816 268.194C276.979 269.15 273.15 270.106 269.32 271.062C269.106 271.116 268.876 271.202 268.662 271.171C268.368 271.132 268.139 270.922 268.06 270.596C267.975 270.238 268.161 269.989 268.433 269.857C268.74 269.709 269.077 269.601 269.406 269.515C273.916 268.427 278.425 267.339 282.935 266.266C283.264 266.189 283.615 266.158 283.952 266.165C284.274 266.173 284.438 266.43 284.496 266.795H284.488Z" fill="#121212"/>
<path d="M312.753 275.853C313.276 275.837 313.555 276.265 313.877 276.607C315.938 278.83 317.993 281.06 320.047 283.283C321.057 284.371 322.08 285.452 323.09 286.54C323.333 286.804 323.576 287.06 323.784 287.356C324.013 287.674 324.07 288.048 323.755 288.343C323.455 288.63 323.125 288.537 322.832 288.281C322.653 288.125 322.495 287.946 322.338 287.775C319.195 284.371 316.046 280.967 312.911 277.555C312.674 277.299 312.424 277.011 312.295 276.685C312.137 276.273 312.367 275.985 312.746 275.861L312.753 275.853Z" fill="#121212"/>
<path d="M357.184 338.444C357.277 337.628 357.864 337.542 358.437 337.495C360.978 337.317 363.512 337.146 366.053 336.975C366.247 337.589 366.175 338.156 365.502 338.242C362.868 338.591 360.234 339.05 357.571 338.778C357.435 338.762 357.313 338.552 357.184 338.436V338.444Z" fill="#121212"/>
<path d="M290.064 256.512C290.05 256.878 289.957 257.095 289.749 257.235C289.542 257.383 289.298 257.383 289.112 257.227C288.89 257.041 288.69 256.816 288.533 256.575C287.688 255.261 286.858 253.94 286.034 252.611C285.719 252.106 285.254 251.484 285.934 251.025C286.614 250.567 286.908 251.344 287.215 251.826C288.024 253.093 288.826 254.36 289.621 255.634C289.807 255.937 289.943 256.271 290.064 256.512Z" fill="#121212"/>
<path d="M361.689 169.937C361.603 170.745 361.295 171.266 360.436 171.025C360.114 169.96 360.422 168.934 360.58 167.9C361.195 163.968 362.269 160.19 363.923 156.615C364.152 156.118 364.438 155.651 364.739 155.208C364.925 154.929 365.24 154.898 365.512 155.045C365.812 155.208 365.862 155.55 365.762 155.846C365.626 156.25 365.404 156.615 365.225 157.004C363.357 161.092 362.111 165.382 361.689 169.937Z" fill="#121212"/>
<path d="M353.825 157.126C353.839 157.569 353.861 157.966 353.445 158.106C352.944 158.269 352.701 157.919 352.587 157.468C352.186 155.922 351.706 154.406 351.112 152.929C350.317 150.94 349.423 149.012 348.32 147.201C348.134 146.898 347.941 146.579 347.834 146.237C347.733 145.934 347.834 145.623 348.127 145.46C348.356 145.336 348.585 145.375 348.757 145.561C348.993 145.825 349.237 146.098 349.423 146.401C351.334 149.51 352.708 152.89 353.71 156.458C353.775 156.691 353.796 156.94 353.832 157.126H353.825Z" fill="#121212"/>
<path d="M354.811 183.157C354.811 184.097 354.861 184.914 354.403 185.613C353.837 186.476 352.828 186.421 352.556 185.426C352.191 184.113 352.169 182.745 352.764 181.463C352.985 180.989 353.351 180.717 353.873 180.779C354.346 180.841 354.517 181.245 354.668 181.649C354.875 182.178 354.797 182.745 354.811 183.165V183.157Z" fill="#F7EEED"/>
<path d="M354.727 189.22C354.627 189.749 354.341 190.083 353.811 190.029C353.274 189.974 353.059 189.57 353.067 189.018C353.074 188.396 353.417 188.163 353.947 188.225C354.462 188.288 354.734 188.63 354.734 189.22H354.727Z" fill="#F7EEED"/>
<path d="M189.324 212.819C181.114 212.663 174.228 209.756 168.201 204.324C166.211 202.528 164.407 200.538 162.796 198.362C161.443 196.528 161.529 196.893 162.882 195.401C168.587 189.106 174.729 183.339 181.15 177.937C192.932 168.027 205.38 159.252 218.666 151.884C226.833 147.353 235.208 143.42 244.149 141.058C247.377 140.203 250.648 139.635 253.984 139.76C255.766 139.83 257.499 140.172 259.116 141.058C261.027 142.107 261.98 143.801 262.123 146.102C262.287 148.799 261.514 151.247 260.526 153.641C258.665 158.149 256.06 162.152 253.225 165.991C247.112 174.268 240.025 181.481 232.567 188.266C225.022 195.129 217.076 201.417 208.802 207.215C205.516 209.523 201.83 210.611 198.122 211.629C195.122 212.453 192.037 212.671 189.317 212.811L189.324 212.819ZM256.203 151.418C256.117 151.294 256.053 151.099 255.924 151.014C255.652 150.835 255.344 150.905 255.151 151.162C254.764 151.698 254.413 152.265 254.07 152.833C247.277 164.133 239.238 174.245 229.575 182.779C229.31 183.012 229.031 183.245 228.809 183.517C228.572 183.805 228.436 184.155 228.759 184.504C228.995 184.769 229.274 184.761 229.539 184.59C229.882 184.365 230.212 184.124 230.527 183.859C232.159 182.491 233.719 181.046 235.222 179.507C240.434 174.175 245.244 168.447 249.632 162.299C251.7 159.4 253.633 156.4 255.423 153.299C255.752 152.732 256.139 152.172 256.203 151.418Z" fill="#C20000"/>
<path d="M256.206 151.413C256.141 152.167 255.755 152.727 255.426 153.294C253.636 156.395 251.703 159.403 249.635 162.294C245.247 168.434 240.444 174.17 235.225 179.502C233.729 181.033 232.162 182.487 230.53 183.854C230.215 184.119 229.885 184.36 229.542 184.585C229.277 184.756 228.998 184.764 228.761 184.5C228.439 184.15 228.575 183.808 228.812 183.512C229.041 183.24 229.313 183.007 229.578 182.774C239.248 174.24 247.28 164.136 254.073 152.828C254.416 152.26 254.767 151.693 255.154 151.157C255.34 150.892 255.647 150.83 255.927 151.009C256.055 151.095 256.127 151.289 256.206 151.413Z" fill="#121212"/>
</svg>
