<svg width="400" height="425" viewBox="0 0 400 425" fill="none" xmlns="http://www.w3.org/2000/svg">
<path d="M260.789 236.444C261.571 236.34 261.876 235.773 262.278 235.386C267.306 230.559 272.319 225.724 277.332 220.889C278.881 219.392 280.505 218.021 282.501 217.135C285.495 215.801 288.489 215.95 291.536 216.963C301.583 220.278 311.646 223.541 321.702 226.834C346.043 234.805 370.384 242.783 394.718 250.777C395.56 251.053 396.453 251.172 397.213 251.701C399.15 253.042 399.894 255.448 399.09 257.899C398.688 259.113 398.01 260.163 397.079 261.02C395.701 262.286 395.061 263.806 394.837 265.683C394.457 268.812 393.824 271.904 393.295 275.018C393.087 276.239 393.094 276.239 394.286 276.642C397.742 277.789 399.068 280.799 397.578 284.114C397.206 284.933 396.692 285.648 396.088 286.326C356.299 330.778 316.517 375.229 276.736 419.688C274.389 422.311 271.589 424.039 268.058 424.545C266.241 424.806 264.491 424.545 262.777 424.002C255.195 421.566 247.62 419.107 240.045 416.656C210.535 407.099 181.017 397.548 151.514 387.976C147.559 386.694 143.611 385.376 139.686 384.02C132.453 381.532 128.327 374.775 129.467 367.221C129.98 363.794 131.761 361.001 134.248 358.647C149.436 344.291 164.384 329.683 179.46 315.216C180.004 314.694 180.637 314.24 181.091 313.398C178.842 313.614 176.846 314.195 174.835 314.664C167.476 316.378 160.169 318.255 153.011 320.691C152.206 320.967 151.581 321.362 151.022 322.054C149.421 324.051 147.104 324.699 144.698 324.937C140.066 325.399 135.701 324.438 131.671 322.077C129.519 320.818 127.731 319.186 126.942 316.713C126.711 315.975 126.152 315.573 125.564 315.141C115.97 308.191 106.391 301.233 96.798 294.282C90.2434 289.529 83.6963 284.777 77.1343 280.031C75.1009 278.556 73.6633 276.612 72.7025 274.325C50.8564 222.282 29.0252 170.232 7.18662 118.189C5.48094 114.129 3.76037 110.084 2.06959 106.017C1.70462 105.138 1.38434 104.244 1.10875 103.335C0.401153 101.026 1.10875 99.0888 2.86656 97.5467C4.65417 95.9749 6.7993 95.6992 8.85505 96.7571C10.0096 97.353 10.7544 97.1445 11.7674 96.6528C16.0874 94.5595 20.7054 93.4569 25.4128 92.6598C26.2544 92.5183 26.9025 92.7716 27.5877 93.1887C30.5 94.9468 33.1963 96.9955 35.8703 99.0888C36.3097 99.4315 36.6375 100.027 37.4419 99.9678C37.2333 97.9937 36.5034 96.1611 36.1459 94.2466C36.0118 93.5314 35.3266 92.6971 36.198 92.1309C37.0918 91.5498 37.5909 92.5555 38.1272 92.9876C43.5645 97.4275 48.0111 102.784 52.1673 108.393C55.6085 113.034 58.7517 117.877 61.1948 123.136C61.3884 123.546 61.448 124.09 62.0811 124.119C62.6919 124.149 62.8557 123.657 63.0941 123.255C65.85 118.644 69.0528 114.36 72.5833 110.315C81.8193 99.7295 92.6194 90.9986 104.425 83.4745C117.08 75.4141 130.532 69.0447 144.87 64.575C146.851 63.9591 148.087 64.6221 148.579 66.564C150.143 72.7993 151.692 79.0271 153.257 85.2624C153.785 87.3632 153.793 87.3557 155.856 87.0354C171.192 84.6664 186.61 83.6235 202.125 84.1003C203.436 84.1375 204.74 84.212 206.051 84.2344C207.146 84.2567 207.786 84.7409 208.121 85.8137C209.134 89.0468 210.244 92.2501 211.235 95.4907C211.525 96.4442 211.89 96.8688 212.985 97.0476C217.484 97.7702 220.448 100.325 221.953 104.713C226.705 118.555 231.226 132.463 235.509 146.453C244.44 175.633 252.61 205.029 260.238 234.581C260.394 235.2 260.573 235.811 260.751 236.436L260.789 236.444ZM205.269 87.0205C205.499 86.9683 205.537 86.8194 205.485 86.6182C205.931 85.9552 205.939 85.5753 204.956 85.5604C201.328 85.5157 197.694 85.3369 194.066 85.3518C178.67 85.4188 163.416 86.9088 148.289 89.7768C131.165 93.0249 114.54 97.8745 98.5781 104.907C87.6514 109.719 77.2683 115.478 67.8164 122.823C67.3397 123.196 66.7363 123.464 66.431 124.179C68.4197 124.514 70.319 124.73 72.0843 125.483C72.7844 125.781 73.0675 125.214 73.3058 124.76C74.2592 122.92 75.8233 121.825 77.6407 120.953C89.357 115.314 101.595 111.098 114.123 107.671C125.668 104.512 137.362 102.091 149.19 100.281C158.195 98.9026 167.237 97.8447 176.332 97.2711C180.13 97.0327 183.936 96.8018 187.735 96.5708C188.919 96.5708 190.104 96.5783 191.288 96.5708C194.379 96.5634 197.463 96.5485 200.554 96.541C201.09 96.541 201.656 96.6304 201.887 95.9674C202.93 92.9429 204.434 90.0972 205.291 87.0056V87.0205H205.269ZM94.6752 92.0266C94.5932 92.0266 94.5262 92.0788 94.4815 92.1532C94.2283 92.3022 93.9676 92.4289 93.7292 92.6077C89.2677 95.9749 85.0146 99.5879 81 103.477C74.8774 109.406 69.2986 115.783 64.8445 123.084C64.7551 123.203 64.5763 123.397 64.7625 123.449C64.8966 123.486 65.1051 123.225 65.2765 123.099C67.3843 121.356 69.5742 119.732 71.8161 118.175C83.3909 110.136 95.9787 104.08 109.14 99.1558C112.35 97.9565 115.598 96.8316 118.83 95.6769L119.851 95.3938C120.037 95.4758 120.164 95.3938 120.238 95.2225C120.461 95.1703 120.692 95.1182 120.916 95.0586C121.117 95.1331 121.258 95.0586 121.363 94.8872C121.653 94.8351 121.951 94.8127 122.234 94.7308C129.913 92.414 137.697 90.4845 145.562 88.9052C147.819 88.4508 150.084 88.0411 152.46 87.5941C150.598 80.152 148.773 72.844 146.97 65.6104C146.374 65.4987 146.002 65.6998 145.607 65.819C132.93 69.6928 120.968 75.1608 109.594 81.9399C104.745 84.8303 99.971 87.8325 95.5615 91.3859C95.1742 91.4753 94.8763 91.6914 94.6901 92.049L94.6752 92.0266ZM20.7799 95.1033C17.6441 95.6918 14.6722 96.7198 11.6556 98.2842C12.3036 98.7387 12.7208 99.059 13.1602 99.3346C15.7746 100.988 18.3815 102.657 21.0108 104.281C23.6848 105.942 26.2544 107.775 29.0401 109.25C29.1146 109.436 29.2636 109.488 29.4498 109.473C29.487 109.675 29.5913 109.771 29.8073 109.727C30.001 109.958 30.2244 110.151 30.5373 110.181C30.5819 110.36 30.6788 110.457 30.8724 110.42C31.4609 110.822 32.0344 111.254 32.6303 111.634C37.3972 114.666 42.1642 117.69 46.946 120.7C48.8081 121.87 50.7521 122.92 51.8321 124.976C51.9364 125.177 52.1301 125.341 52.3014 125.512C52.5248 125.736 52.7781 125.825 53.0984 125.684C54.67 125.006 56.3757 124.812 57.992 124.35C57.9622 124.134 57.9845 123.993 57.9249 123.911C57.5227 123.322 57.1279 122.726 56.6885 122.168C49.1135 112.431 40.3989 103.857 30.3659 96.6826C25.4724 93.1813 27.2227 93.6804 21.0704 94.917C20.9587 94.9394 20.8693 95.0288 20.765 95.0884L20.7799 95.1033ZM281.95 404.581H281.912C281.391 404.677 281.167 405.124 280.855 405.475C276.967 409.818 273.026 414.124 269.19 418.519C268.006 419.867 266.859 420.173 265.131 419.599C256.603 416.783 248.037 414.086 239.486 411.33C225.558 406.845 211.637 402.346 197.708 397.854C182.536 392.959 167.356 388.08 152.184 383.185C149.13 382.202 146.054 381.263 143.015 380.228C138.881 378.813 136.14 375.14 135.835 371.087C135.44 365.791 138.755 362.111 142.114 360.613C145.13 359.265 148.11 359.488 151.156 360.479C161.279 363.779 171.416 367.042 181.546 370.32C202.088 376.973 222.631 383.632 243.173 390.277C250.421 392.617 257.66 394.963 264.923 397.243C268.855 398.479 272.371 397.407 275.343 394.762C278.501 391.954 281.086 388.579 283.894 385.428C284.862 384.377 285.838 383.342 286.791 382.284C297.234 370.618 307.676 358.952 318.119 347.286C334.036 329.496 349.953 311.707 365.878 293.91C375.918 282.683 385.966 271.464 396.006 260.238C396.64 259.53 397.265 258.807 397.638 257.914C398.688 255.366 397.772 253.302 395.15 252.416C392.498 251.522 389.839 250.658 387.188 249.794C361.357 241.323 335.526 232.853 309.687 224.398C303.133 222.252 296.556 220.159 289.986 218.043C286.798 217.015 283.886 217.731 281.145 219.496C280.184 220.114 279.387 220.919 278.575 221.701C273.123 226.938 267.678 232.19 262.204 237.397C261.467 238.098 261.131 238.761 261.578 239.729C261.697 239.99 261.712 240.31 261.779 240.593C265.943 256.781 269.883 273.029 273.674 289.313C274.121 291.221 274.635 293.12 274.583 295.117C274.434 300.629 269.898 305.025 264.394 304.928C263.5 304.913 262.614 304.853 261.72 304.823C261.049 304.794 260.751 305.069 260.856 305.784C261.049 307.14 261.102 308.518 260.967 309.882C260.692 312.742 259.143 314.307 256.297 314.597C255.292 314.702 254.271 314.709 253.266 314.672C244.812 314.344 236.366 314.351 227.927 314.992C225.081 315.208 222.229 315.35 219.413 315.856C211.287 316.586 203.258 317.912 195.295 319.641C187.035 321.436 178.886 323.626 171.006 326.748C169.196 327.463 167.669 328.461 166.276 329.824C160.541 335.449 154.746 341.021 148.974 346.616C148.676 346.906 148.356 347.174 148.058 347.465C143.425 351.92 138.702 356.293 134.189 360.859C130.725 364.36 129.831 368.711 131.165 373.412C132.513 378.164 135.664 381.308 140.349 382.858C150.121 386.083 159.901 389.287 169.688 392.46C190.446 399.195 211.22 405.914 231.986 412.626C242.51 416.031 253.035 419.442 263.574 422.787C267.477 424.024 271.03 423.063 274.017 420.381C276.981 417.714 279.506 414.608 282.069 411.561C282.858 411.01 283.424 410.227 284.057 409.52C291.841 400.833 299.617 392.132 307.393 383.439C317.992 371.594 328.599 359.757 339.198 347.912C351.026 334.696 362.854 321.466 374.674 308.25C381.341 300.793 388.014 293.344 394.673 285.887C395.224 285.268 395.798 284.657 396.193 283.913C397.682 281.074 396.215 277.841 392.908 277.901C392.774 278.452 392.558 279.026 392.513 279.599C392.446 280.553 391.999 281.238 391.359 281.923C389.608 283.793 387.94 285.73 386.234 287.637C373.013 302.41 359.8 317.182 346.579 331.955C327.839 352.888 309.091 373.814 290.366 394.762C287.67 397.779 284.847 400.684 282.367 403.888C282.084 404.037 281.912 404.253 281.92 404.588L281.95 404.581ZM80.1583 280.307C80.1509 280.568 80.3222 280.657 80.5307 280.732C87.1076 285.537 93.6548 290.386 100.291 295.102C102.332 296.554 104.716 297.426 107.293 297.501C109.743 297.568 111.188 296.525 111.978 294.193C112.447 292.815 112.454 291.384 112.417 289.954C112.261 284.412 110.719 279.175 108.857 274.012C107.442 270.094 105.758 266.279 104.15 262.443C98.958 250.039 93.7665 237.643 88.5601 225.24C84.1208 214.654 79.6667 204.068 75.2275 193.482C70.1179 181.302 65.0083 169.13 59.8987 156.95C56.6512 149.217 53.3963 141.492 50.1488 133.759C49.3965 131.889 48.5996 130.027 47.892 128.135C47.4376 126.92 46.7077 126.064 45.5755 125.356C35.7288 119.225 25.9193 113.027 16.0949 106.851C12.6686 104.698 9.24237 102.545 5.81612 100.4C4.97445 99.871 4.0881 99.5283 3.15705 100.191C2.17387 100.884 2.12173 101.882 2.40476 102.918C2.62077 103.715 2.9187 104.505 3.23898 105.264C14.2626 131.539 25.2862 157.814 36.3097 184.081C46.3502 207.994 56.3831 231.907 66.431 255.82C69.0304 262.018 71.6374 268.216 74.2815 274.392C75.4509 277.119 77.529 279.011 80.1583 280.322V280.299V280.307ZM267.619 410.451C268.252 406.666 268.893 402.882 269.563 398.919C267.202 399.232 265.124 398.807 263.075 398.137C256.305 395.932 249.542 393.719 242.764 391.536C238.593 390.188 234.407 388.884 230.221 387.566C229.952 387.447 229.684 387.305 229.409 387.208C211.652 381.457 193.895 375.714 176.138 369.977C167.312 367.124 158.485 364.308 149.659 361.455C148.274 361.008 146.866 360.956 145.428 361.053C144.676 361.097 144.43 361.373 144.497 362.17C144.974 367.579 143.604 372.421 139.812 376.563C140.944 377.695 142.218 378.462 143.723 378.939C163.133 385.182 182.529 391.44 201.939 397.69C222.191 404.216 242.443 410.741 262.71 417.245C263.865 417.617 264.99 418.169 266.338 418.28C266.777 415.606 267.202 413.028 267.626 410.458L267.619 410.451ZM103.993 257.876V257.914C103.986 258.532 104.261 259.061 104.492 259.612C112.365 278.378 120.268 297.128 128.089 315.923C129.087 318.33 130.703 319.976 132.893 321.205C136.662 323.321 140.706 323.999 144.959 323.537C147.089 323.306 149.011 322.576 150.344 320.751C150.858 320.05 151.551 319.678 152.385 319.41C160.437 316.832 168.585 314.649 176.838 312.817C189.091 310.098 201.44 307.937 213.894 306.328C222.273 305.248 230.66 304.347 239.092 303.803C241.527 303.646 243.963 303.579 246.398 303.423C251.329 303.095 256.268 303.132 261.206 303.393C262.867 303.483 264.535 303.713 266.196 303.423C270.077 302.745 274.196 298.633 273.034 292.941C272.512 290.379 271.879 287.838 271.298 285.291C271.283 285.112 271.291 284.933 271.246 284.762C266.509 264.73 261.578 244.743 256.32 224.837C247.099 189.914 237.252 155.169 225.968 120.842C224.128 115.247 222.31 109.637 220.24 104.125C219.272 101.555 217.417 99.9306 214.899 98.9622C213.648 98.4854 212.352 98.3885 211.049 98.314C197.172 97.5244 183.311 97.9639 169.487 99.2229C159.469 100.132 149.51 101.517 139.619 103.357C123.85 106.285 108.358 110.226 93.327 115.85C87.8078 117.914 82.3556 120.149 77.1268 122.883C76.1436 123.397 75.3988 124.09 74.8327 125.051C74.0134 126.444 72.9706 127.65 71.6523 128.626C65.0977 133.476 54.9009 131.83 50.1712 125.11C49.6498 124.373 49.106 123.717 48.324 123.225C35.5426 115.158 22.7686 107.067 9.98721 98.9845C9.38389 98.6046 8.76567 98.2395 8.11022 97.9639C6.92593 97.4648 5.74908 97.4797 4.38603 98.2619C5.45115 98.7387 6.31516 99.0888 7.11958 99.5879C20.2138 107.842 33.3081 116.089 46.4321 124.291C47.7132 125.088 48.54 126.071 49.1135 127.449C53.9773 139.153 58.8932 150.833 63.7942 162.522C72.993 184.476 82.1917 206.43 91.4053 228.376C95.4796 238.083 99.5911 247.775 103.688 257.467C103.799 257.601 103.911 257.742 104.023 257.876H103.993ZM268.036 417.267C268.803 417.036 269.116 416.425 269.526 415.964C279.499 404.841 289.458 393.704 299.423 382.567C329.627 348.813 359.83 315.052 390.055 281.313C390.807 280.471 391.21 279.577 391.381 278.482C391.962 274.779 392.603 271.084 393.206 267.389C393.31 266.749 393.675 266.116 393.273 265.326C392.93 265.691 392.647 265.981 392.372 266.279C366.734 294.938 341.09 323.589 315.452 352.247C302.909 366.267 290.366 380.28 277.816 394.293C276.252 396.043 274.434 397.518 272.162 398.196C271.075 398.517 270.844 399.209 270.703 400.111C269.965 404.633 269.213 409.147 268.475 413.669C268.289 414.816 267.932 415.956 268.036 417.252V417.267ZM37.6653 94.6861C38.2165 96.8092 38.7975 98.9174 39.304 101.048C39.5051 101.905 39.9222 102.523 40.5628 103.112C42.7153 105.071 44.8679 107.037 46.9237 109.101C51.1097 113.317 55.2286 117.594 58.5282 122.577C58.7219 122.868 58.9677 123.136 59.2358 123.359C59.4518 123.546 59.4593 124.045 60.0849 123.881C54.4689 112.669 47.1024 102.925 37.6728 94.6861H37.6653ZM54.0369 126.868C58.7144 130.668 67.079 131.271 71.5033 126.667C65.6638 124.969 60.003 125.103 54.0369 126.868ZM143.097 361.775C138.211 363.206 135.09 370.603 139.015 375.214C142.509 371.4 143.656 366.938 143.097 361.775ZM206.959 87.1844C205.596 90.276 204.129 93.2781 203.064 96.6453H210.155C209.276 93.4048 208.278 90.276 206.959 87.1844Z" fill="#121212"/>
<path d="M68.5901 35.6709C68.5901 34.777 68.5677 33.883 68.5975 32.9965C68.6124 32.6166 68.8284 32.3037 69.2604 32.3112C69.685 32.3112 69.9308 32.6017 69.9531 32.9891C70.0053 33.7564 70.0127 34.5311 70.0127 35.3059C70.0351 44.3646 73.3273 52.127 79.4498 58.6975C81.7588 61.1708 84.5073 63.0332 87.9707 63.5546C88.5517 63.644 89.155 63.644 89.7435 63.6589C90.2797 63.6738 90.7118 63.8228 90.6894 64.4411C90.6745 64.9254 90.3542 65.1786 89.8552 65.1712C84.403 65.0892 80.7682 68.2851 77.625 72.1589C73.2006 77.612 70.7129 83.9069 70.0425 90.8945C69.9233 92.1312 70.0053 93.3901 69.9904 94.6417C69.9904 94.9993 69.9904 95.3568 69.9382 95.707C69.901 96.0198 69.7297 96.2582 69.3796 96.288C68.9625 96.3178 68.6422 96.1316 68.6199 95.7219C68.5603 94.8354 68.5677 93.9414 68.5454 93.0475C68.3666 83.6759 64.9329 75.6751 58.2518 69.1269C55.6895 66.6164 52.6506 64.903 48.8892 64.9701C48.3678 64.9775 47.8613 64.8583 47.8538 64.2549C47.8389 63.577 48.3529 63.3907 48.9636 63.4205C52.3377 63.5695 55.0564 62.0349 57.5218 59.9714C61.8344 56.3584 64.6052 51.68 66.5269 46.4728C67.808 42.9938 68.6571 39.4181 68.5826 35.6635L68.5901 35.6709ZM53.4401 64.2251C62.5122 68.8364 66.6535 76.8596 69.2753 86.0896C69.3945 85.8139 69.5062 85.6128 69.5658 85.4042C70.266 82.8788 71.0927 80.3981 72.2696 78.0515C75.1298 72.3451 78.8316 67.421 84.8201 64.6497C84.9095 64.605 84.9542 64.4635 85.0212 64.3592C76.0757 59.8522 71.9419 51.8439 69.3126 42.7108C68.8955 43.1726 68.8657 43.7239 68.7018 44.2305C66.0576 52.7379 61.8195 60.031 53.4252 64.2251H53.4401Z" fill="#121212"/>
<path d="M286.69 116.354C287.152 125.375 290.273 133.272 296.738 139.686C298.965 141.898 301.58 143.537 304.782 143.984C305.43 144.073 306.086 144.051 306.741 144.096C307.151 144.126 307.397 144.379 307.412 144.789C307.427 145.191 307.203 145.467 306.808 145.541C306.577 145.586 306.332 145.586 306.101 145.578C303.479 145.504 301.229 146.532 299.144 147.977C296.716 149.653 294.749 151.799 293.066 154.205C289.67 159.077 287.592 164.47 286.832 170.356C286.646 171.823 286.742 173.328 286.713 174.81C286.705 175.228 286.713 175.645 286.683 176.054C286.646 176.457 286.415 176.71 285.983 176.695C285.566 176.673 285.32 176.412 285.297 176.017C285.26 175.362 285.253 174.706 285.26 174.058C285.372 165.588 282.4 158.243 277.127 151.747C275.54 149.795 273.641 148.171 271.436 146.927C269.745 145.973 267.958 145.414 266.014 145.37C265.716 145.37 265.418 145.37 265.127 145.325C264.807 145.273 264.606 145.064 264.561 144.729C264.509 144.312 264.718 144.029 265.09 143.917C265.366 143.835 265.678 143.843 265.969 143.85C268.129 143.917 270.043 143.165 271.861 142.084C274.624 140.438 276.806 138.173 278.653 135.596C282.221 130.62 284.389 125.07 285.148 118.991C285.327 117.583 285.23 116.138 285.26 114.707C285.268 114.29 285.253 113.873 285.275 113.456C285.297 113.061 285.484 112.756 285.908 112.726C286.422 112.688 286.683 113.024 286.69 113.493C286.72 114.447 286.698 115.4 286.698 116.354H286.69ZM285.953 123.393C283.137 132.37 278.989 140.259 270.006 144.692C274.579 146.651 277.834 149.951 280.493 153.907C282.661 157.14 284.24 160.649 285.335 164.388C285.499 164.962 285.461 165.67 286.124 166.132C288.791 157.08 292.984 149.251 301.803 144.804C292.843 140.267 288.731 132.363 285.953 123.386V123.393Z" fill="#121212"/>
<path d="M227.702 3.78988C228.193 12.8113 231.322 20.7078 237.787 27.1219C240.014 29.3344 242.628 30.9734 245.831 31.4203C246.479 31.5097 247.134 31.4874 247.79 31.5321C248.2 31.5619 248.445 31.8077 248.46 32.2174C248.475 32.6197 248.252 32.8953 247.857 32.9773C247.626 33.022 247.38 33.022 247.149 33.0145C244.528 32.94 242.278 33.9681 240.193 35.4133C237.764 37.0894 235.798 39.2349 234.115 41.6411C230.718 46.5131 228.64 51.9066 227.88 57.7918C227.694 59.2594 227.791 60.7642 227.754 62.2466C227.746 62.6638 227.754 63.081 227.724 63.4907C227.687 63.893 227.463 64.1463 227.024 64.1314C226.607 64.1165 226.361 63.8483 226.339 63.4609C226.301 62.7458 226.294 62.0306 226.301 61.3229C226.376 52.9198 223.397 45.6341 218.168 39.1902C216.581 37.2384 214.689 35.6144 212.477 34.3704C210.786 33.4168 208.999 32.8581 207.055 32.8134C206.757 32.8134 206.459 32.8134 206.168 32.7687C205.856 32.7166 205.647 32.508 205.602 32.1727C205.55 31.7556 205.751 31.4725 206.124 31.3607C206.399 31.2788 206.712 31.2788 207.003 31.2937C209.163 31.3607 211.077 30.6083 212.894 29.5281C215.658 27.8818 217.84 25.6171 219.687 23.0396C223.255 18.0633 225.422 12.5133 226.182 6.43448C226.368 4.96692 226.264 3.4621 226.294 1.97219C226.301 1.55501 226.301 1.13784 226.346 0.728112C226.376 0.392881 226.614 0.191743 226.935 0.169394C227.344 0.139596 227.664 0.363083 227.679 0.75791C227.724 1.7636 227.694 2.77674 227.694 3.78988H227.702ZM243.097 32.2398C238.822 30.3923 235.865 27.5987 233.392 24.2464C230.599 20.4695 228.715 16.2605 227.434 11.7609C227.337 11.4182 227.486 10.867 226.8 10.8521C225.653 15.2473 223.903 19.3893 221.318 23.1588C218.689 26.9953 215.442 30.1465 210.965 32.0908C215.829 34.1767 219.158 37.6631 221.87 41.8274C224.03 45.1424 225.534 48.748 226.622 52.5473C226.718 52.89 226.57 53.4412 227.27 53.4561C228.424 49.0684 230.175 44.9189 232.767 41.1569C235.366 37.3874 238.547 34.2586 243.12 32.2398H243.097Z" fill="#121212"/>
<path d="M103.661 257.472C99.564 247.773 95.4525 238.089 91.3782 228.382C82.1646 206.435 72.9733 184.474 63.7671 162.528C58.8661 150.839 53.9501 139.158 49.0863 127.455C48.5128 126.077 47.6861 125.094 46.4049 124.296C33.2809 116.102 20.1792 107.855 7.09244 99.5937C6.29546 99.0871 5.424 98.7444 4.35889 98.2677C5.71449 97.4855 6.89878 97.478 8.08307 97.9697C8.73853 98.2453 9.35674 98.6103 9.96006 98.9903C22.7415 107.066 35.5154 115.156 48.2968 123.231C49.0789 123.723 49.6226 124.378 50.144 125.116C54.8737 131.828 65.0706 133.482 71.6251 128.632C72.9435 127.656 73.9863 126.449 74.8056 125.056C75.3716 124.095 76.1165 123.41 77.0997 122.888C82.3284 120.147 87.7806 117.92 93.2999 115.856C108.338 110.232 123.823 106.291 139.591 103.363C149.483 101.523 159.441 100.145 169.459 99.2286C183.291 97.9697 197.145 97.5301 211.021 98.3198C212.332 98.3943 213.628 98.4911 214.872 98.9679C217.39 99.9364 219.252 101.56 220.213 104.13C222.283 109.651 224.101 115.253 225.94 120.847C237.232 155.167 247.071 189.912 256.293 224.843C261.551 244.748 266.482 264.736 271.219 284.768C271.256 284.939 271.256 285.125 271.271 285.296C268.448 286.213 265.551 286.824 262.661 287.427C257.387 288.53 252.084 289.461 246.721 290.072C243.243 290.466 239.757 290.854 236.286 290.936C230.35 291.077 224.406 291.293 218.455 290.735C215.565 290.466 212.675 290.258 209.785 290.005C206.172 289.692 202.627 289.029 199.074 288.396C194.471 287.569 189.89 286.593 185.392 285.282C179.798 283.658 174.271 281.818 168.886 279.598C164.268 277.698 159.732 275.597 155.404 273.087C151.554 270.844 147.747 268.542 144.135 265.913C141.059 263.67 138.109 261.272 135.316 258.716C133.037 256.638 130.855 254.448 128.836 252.086C127.778 250.85 127.056 249.241 125.447 248.518C125.186 247.989 124.896 247.468 124.672 246.924C121.864 239.914 119.056 232.896 116.263 225.879C105.255 198.248 94.2533 170.618 83.252 142.987C83.0733 142.548 82.887 142.108 82.671 141.684C82.4848 141.326 82.1795 141.162 81.7847 141.356C81.4793 141.505 81.4048 141.81 81.4793 142.116C81.5687 142.458 81.7102 142.786 81.8443 143.121C82.6264 145.111 83.4159 147.107 84.2054 149.096C95.0353 176.287 105.88 203.463 116.68 230.661C121.678 243.259 126.87 255.774 131.614 268.468C129.924 269.57 128.099 270.04 126.058 269.973C122.967 269.868 120.129 268.9 117.388 267.626C113.165 265.659 109.396 263.03 106.141 259.67C105.508 259.014 105.016 258.128 103.996 257.919V257.882C104.026 257.629 103.899 257.502 103.661 257.472ZM140.076 108.049C139.994 107.676 139.748 107.475 139.45 107.468C139.04 107.46 138.623 107.542 138.221 107.617C133.841 108.444 129.499 109.464 125.186 110.597C112.07 114.031 99.1394 118.061 86.5368 123.09C86.0973 123.261 85.6802 123.499 85.2705 123.73C85.0471 123.857 84.9577 124.118 85.0322 124.349C85.129 124.654 85.3823 124.878 85.71 124.796C86.2239 124.669 86.7304 124.49 87.222 124.296C103.81 117.815 120.777 112.623 138.228 109.025C138.69 108.928 139.159 108.831 139.614 108.682C139.912 108.585 140.091 108.347 140.083 108.041L140.076 108.049ZM208.802 101.635C208.385 101.635 207.968 101.613 207.558 101.635C207.171 101.665 206.873 101.881 206.85 102.29C206.828 102.722 207.156 102.924 207.536 102.946C208.124 102.991 208.727 102.939 209.316 103.006C212.265 103.363 214.589 104.674 216.012 107.386C216.295 107.93 216.28 109.129 217.3 108.593C218.135 108.153 217.487 107.289 217.189 106.715C215.438 103.326 212.459 101.896 208.809 101.627L208.802 101.635Z" fill="#FA4616"/>
<path d="M219.44 315.863C222.255 315.349 225.108 315.215 227.953 314.999C236.392 314.358 244.839 314.351 253.293 314.679C254.298 314.716 255.319 314.708 256.324 314.604C259.177 314.314 260.719 312.749 260.994 309.888C261.128 308.525 261.076 307.147 260.883 305.791C260.778 305.069 261.076 304.8 261.747 304.83C262.64 304.867 263.527 304.92 264.421 304.935C269.918 305.031 274.461 300.636 274.61 295.123C274.662 293.127 274.148 291.227 273.701 289.32C269.91 273.043 265.97 256.795 261.806 240.6C261.732 240.31 261.724 239.997 261.605 239.736C261.158 238.767 261.493 238.104 262.231 237.404C267.705 232.19 273.15 226.945 278.602 221.708C279.414 220.926 280.211 220.121 281.172 219.503C283.913 217.745 286.825 217.03 290.013 218.05C296.583 220.158 303.152 222.259 309.714 224.405C335.553 232.86 361.384 241.33 387.214 249.8C389.874 250.672 392.533 251.536 395.177 252.423C397.791 253.302 398.715 255.373 397.665 257.92C397.292 258.822 396.666 259.537 396.033 260.245C385.993 271.471 375.945 282.69 365.905 293.917C349.988 311.706 334.07 329.496 318.146 347.293C307.703 358.959 297.261 370.625 286.818 382.291C285.865 383.356 284.889 384.392 283.92 385.435C283.407 385.308 282.878 385.211 282.371 385.047C274.856 382.701 267.705 379.542 260.838 375.683C254.969 372.375 249.487 368.509 244.511 363.995C237.882 357.983 232.05 351.286 227.618 343.419C224.855 338.51 222.754 333.377 221.287 327.961C220.215 323.998 219.76 319.938 219.44 315.863Z" fill="#FA4616"/>
<path d="M219.426 315.861C219.746 319.936 220.201 323.996 221.273 327.959C222.741 333.375 224.841 338.507 227.604 343.417C232.036 351.283 237.861 357.981 244.497 363.992C249.473 368.499 254.947 372.373 260.824 375.681C267.684 379.54 274.842 382.706 282.357 385.045C282.864 385.201 283.393 385.306 283.907 385.432C281.099 388.583 278.514 391.951 275.356 394.767C272.384 397.411 268.868 398.484 264.936 397.247C257.674 394.968 250.426 392.621 243.186 390.282C222.644 383.637 202.101 376.977 181.559 370.325C171.429 367.047 161.292 363.784 151.169 360.484C148.123 359.493 145.144 359.269 142.127 360.618C138.775 362.123 135.461 365.795 135.848 371.092C136.146 375.144 138.887 378.817 143.028 380.232C146.067 381.275 149.143 382.207 152.197 383.19C167.369 388.077 182.549 392.964 197.722 397.858C211.65 402.35 225.571 406.85 239.499 411.334C248.05 414.091 256.616 416.787 265.144 419.603C266.872 420.177 268.019 419.872 269.204 418.523C273.047 414.135 276.98 409.83 280.868 405.479C281.181 405.129 281.404 404.682 281.925 404.585C282.119 405.166 282.067 405.74 281.925 406.328C281.508 408.086 281.553 409.83 282.097 411.558C279.534 414.612 277.009 417.711 274.045 420.378C271.058 423.06 267.498 424.021 263.602 422.784C253.056 419.439 242.538 416.028 232.014 412.623C211.248 405.911 190.474 399.192 169.716 392.457C159.929 389.284 150.149 386.08 140.377 382.855C135.699 381.305 132.541 378.161 131.193 373.409C129.86 368.708 130.753 364.357 134.217 360.856C138.738 356.29 143.453 351.917 148.086 347.462C148.384 347.171 148.704 346.903 149.002 346.613C154.774 341.025 160.569 335.453 166.304 329.821C167.69 328.458 169.224 327.467 171.034 326.745C178.914 323.631 187.063 321.44 195.323 319.638C203.286 317.902 211.315 316.576 219.441 315.853L219.426 315.861Z" fill="#C20000"/>
<path d="M50.1471 133.769C53.3946 141.502 56.6496 149.227 59.897 156.959C65.0141 169.132 70.1162 181.312 75.2258 193.492C79.6725 204.078 84.1191 214.664 88.5584 225.25C93.7573 237.646 98.9488 250.049 104.148 262.453C105.757 266.297 107.44 270.103 108.855 274.022C110.717 279.184 112.259 284.422 112.416 289.964C112.453 291.394 112.445 292.825 111.976 294.203C111.187 296.527 109.742 297.577 107.291 297.51C104.714 297.436 102.33 296.557 100.29 295.112C93.6456 290.396 87.1059 285.539 80.529 280.741C80.4694 280.548 80.3652 280.391 80.1566 280.317V280.339C80.246 279.848 80.0747 279.415 79.8736 278.968C79.3671 277.829 78.8829 276.681 78.4062 275.527C76.1121 270.051 73.8329 264.568 71.5388 259.093C69.1777 253.454 66.8091 247.814 64.448 242.175C62.5189 237.571 60.6121 232.967 58.683 228.364C56.3218 222.724 53.9458 217.085 51.5847 211.446C49.6555 206.842 47.7487 202.238 45.8196 197.634C43.4585 191.995 41.075 186.363 38.7213 180.716C36.5687 175.568 34.446 170.406 32.3008 165.251C30.044 159.828 27.7722 154.404 25.5079 148.981C23.5862 144.377 21.6869 139.766 19.7578 135.169C17.2626 129.202 14.8121 123.205 12.2051 117.283C11.4528 115.562 12.7638 113.417 14.7674 113.394C15.8548 113.38 16.7263 113.826 17.5977 114.341C19.1321 115.249 20.6367 116.203 22.171 117.104C29.4779 121.425 36.7475 125.813 43.9873 130.253C45.9984 131.489 47.9424 132.86 50.1471 133.769Z" fill="#C20000"/>
<path d="M103.987 257.926C105.007 258.135 105.492 259.021 106.132 259.677C109.387 263.037 113.156 265.674 117.379 267.633C120.12 268.907 122.958 269.883 126.049 269.98C128.09 270.047 129.915 269.577 131.606 268.475C131.859 269.011 132.134 269.54 132.35 270.084C137.103 282.011 141.855 293.937 146.599 305.864C146.778 306.304 146.934 306.758 147.128 307.19C147.314 307.593 147.62 307.92 148.104 307.734C148.58 307.555 148.64 307.146 148.469 306.699C148.297 306.252 148.126 305.812 147.947 305.373C141.527 289.252 135.091 273.131 128.686 257.002C127.569 254.187 126.28 251.445 125.431 248.525C127.047 249.248 127.77 250.857 128.82 252.093C130.838 254.455 133.028 256.645 135.3 258.723C138.101 261.279 141.05 263.677 144.119 265.92C147.731 268.549 151.53 270.859 155.388 273.094C159.716 275.612 164.252 277.705 168.87 279.604C174.255 281.824 179.782 283.657 185.375 285.288C189.874 286.6 194.455 287.576 199.058 288.402C202.603 289.036 206.156 289.699 209.769 290.012C212.659 290.265 215.556 290.473 218.439 290.742C224.383 291.293 230.334 291.084 236.27 290.943C239.741 290.861 243.234 290.473 246.705 290.079C252.076 289.475 257.371 288.537 262.645 287.434C265.535 286.831 268.44 286.22 271.255 285.303C271.836 287.851 272.469 290.391 272.991 292.954C274.153 298.646 270.034 302.765 266.153 303.436C264.499 303.726 262.824 303.495 261.163 303.406C256.224 303.138 251.293 303.108 246.355 303.436C243.92 303.6 241.484 303.659 239.048 303.816C230.617 304.359 222.23 305.261 213.851 306.341C201.397 307.95 189.047 310.11 176.795 312.83C168.542 314.655 160.394 316.845 152.342 319.422C151.508 319.691 150.815 320.063 150.301 320.763C148.968 322.588 147.054 323.319 144.916 323.549C140.663 324.004 136.611 323.333 132.85 321.218C130.66 319.989 129.051 318.342 128.045 315.936C120.225 297.148 112.329 278.39 104.449 259.625C104.218 259.081 103.942 258.545 103.942 257.926H103.987Z" fill="#C20000"/>
<path d="M267.62 410.453C267.195 413.023 266.771 415.601 266.331 418.275C264.983 418.164 263.858 417.612 262.704 417.24C242.444 410.744 222.192 404.211 201.933 397.685C182.53 391.435 163.127 385.17 143.716 378.934C142.219 378.45 140.945 377.683 139.806 376.558C143.597 372.416 144.967 367.574 144.491 362.165C144.424 361.368 144.669 361.1 145.422 361.048C146.859 360.958 148.267 361.003 149.652 361.45C158.479 364.296 167.305 367.119 176.131 369.972C193.888 375.709 211.645 381.46 229.402 387.203C229.685 387.293 229.946 387.442 230.214 387.561C230.318 388.857 231.033 389.9 231.704 390.943C234.199 394.802 237.625 397.729 241.424 400.203C247.39 404.091 253.944 406.699 260.715 408.777C262.972 409.47 265.229 410.237 267.605 410.453H267.62Z" fill="#EED6D2"/>
<path d="M268.034 417.27C267.93 415.973 268.288 414.834 268.474 413.686C269.211 409.165 269.963 404.65 270.701 400.128C270.85 399.227 271.073 398.534 272.161 398.214C274.44 397.536 276.25 396.061 277.814 394.31C290.365 380.298 302.908 366.285 315.451 352.265C341.088 323.606 366.733 294.955 392.37 266.297C392.646 265.991 392.929 265.701 393.271 265.343C393.673 266.125 393.308 266.766 393.204 267.407C392.601 271.102 391.96 274.797 391.379 278.499C391.208 279.594 390.813 280.488 390.054 281.33C359.828 315.069 329.625 348.823 299.422 382.585C289.456 393.722 279.497 404.851 269.524 415.981C269.114 416.443 268.794 417.054 268.034 417.285V417.27Z" fill="#FCF6F5"/>
<path d="M187.717 96.5757C183.919 96.8066 180.112 97.0375 176.314 97.2759C167.219 97.8495 158.177 98.9074 149.172 100.286C137.351 102.096 125.65 104.517 114.105 107.676C101.584 111.102 89.3466 115.319 77.6229 120.958C75.8055 121.837 74.2413 122.925 73.2879 124.765C73.0496 125.219 72.774 125.785 72.0664 125.487C70.3011 124.735 68.4018 124.519 66.4131 124.184C66.7259 123.469 67.3292 123.193 67.7985 122.828C77.2505 115.483 87.6335 109.717 98.5602 104.912C114.522 97.8793 131.154 93.0297 148.271 89.7817C163.398 86.9136 178.653 85.4237 194.048 85.3566C197.676 85.3417 201.311 85.5131 204.938 85.5652C205.921 85.5801 205.914 85.9526 205.467 86.6231C205.273 86.6901 205.199 86.8242 205.251 87.0253V87.0104C204.796 86.9508 204.484 87.2116 204.171 87.5021C201.378 90.1094 198.123 92.0314 194.778 93.8193C192.521 95.0187 190.093 95.7413 187.702 96.5831L187.717 96.5757Z" fill="#FCF6F5"/>
<path d="M95.5609 91.369C99.9704 87.823 104.745 84.8134 109.594 81.9229C120.967 75.1438 132.929 69.6758 145.607 65.8021C146.001 65.6829 146.374 65.4817 146.97 65.5935C148.78 72.8344 150.604 80.135 152.459 87.5771C150.09 88.0241 147.819 88.4338 145.562 88.8883C137.696 90.4676 129.92 92.397 122.234 94.7138C121.951 94.7958 121.653 94.8256 121.362 94.8703C121.168 94.8107 121.012 94.8554 120.915 95.0416C120.692 95.0938 120.461 95.1459 120.237 95.2055C120.066 95.1608 119.932 95.2055 119.85 95.3768C119.507 95.4737 119.172 95.5705 118.83 95.6599C118.018 94.9001 117.109 95.5258 116.357 95.6599C111.456 96.4868 106.54 97.1051 101.557 96.9934C99.7693 96.9561 98.0487 96.5464 96.3132 96.2112C95.7918 96.1143 95.33 95.8164 94.9204 95.4588C94.2724 94.8926 93.9297 94.3041 94.4437 93.4474C94.682 93.0526 94.9353 92.5982 94.4884 92.1512C94.5331 92.0767 94.5926 92.032 94.682 92.0245C95.3524 92.3002 95.4641 91.8532 95.5535 91.3615L95.5609 91.369Z" fill="#FCF6F5"/>
<path d="M50.1447 133.773C47.9474 132.864 46.0034 131.494 43.9849 130.257C36.7451 125.817 29.4829 121.422 22.1686 117.109C20.6343 116.2 19.1297 115.246 17.5953 114.345C16.7239 113.831 15.8524 113.391 14.7649 113.399C12.7613 113.421 11.4504 115.574 12.2027 117.287C14.8096 123.21 17.2527 129.199 19.7553 135.174C21.677 139.778 23.5838 144.381 25.5055 148.985C27.7698 154.409 30.0415 159.832 32.2984 165.255C34.4435 170.41 36.5663 175.565 38.7189 180.72C41.0726 186.367 43.4561 191.999 45.8172 197.638C47.7463 202.242 49.6531 206.846 51.5822 211.45C53.9434 217.089 56.3194 222.728 58.6805 228.368C60.6096 232.972 62.5164 237.575 64.4456 242.179C66.8067 247.819 69.1753 253.458 71.5364 259.097C73.8305 264.573 76.1097 270.056 78.4038 275.531C78.8879 276.678 79.3646 277.833 79.8711 278.973C80.0722 279.42 80.2435 279.852 80.1616 280.343C77.5323 279.032 75.4542 277.14 74.2848 274.414C71.6332 268.238 69.0338 262.04 66.4343 255.842C56.3939 231.929 46.3535 208.016 36.3131 184.102C25.282 157.828 14.2584 131.561 3.24231 105.286C2.92203 104.519 2.6241 103.737 2.40809 102.939C2.12506 101.911 2.17719 100.913 3.16038 100.213C4.09143 99.5573 4.97778 99.9 5.81945 100.421C9.2457 102.567 12.6719 104.72 16.0982 106.873C25.9226 113.049 35.7321 119.247 45.5788 125.378C46.711 126.085 47.4409 126.934 47.8953 128.156C48.6029 130.048 49.3924 131.903 50.1521 133.781L50.1447 133.773Z" fill="#FA4616"/>
<path d="M282.082 411.559C281.539 409.83 281.494 408.087 281.911 406.329C282.053 405.74 282.105 405.167 281.911 404.586H281.948C282.38 404.534 282.395 404.213 282.388 403.886C284.868 400.682 287.691 397.777 290.387 394.76C309.113 373.812 327.86 352.886 346.6 331.953C359.821 317.18 373.034 302.408 386.255 287.635C387.961 285.728 389.637 283.784 391.38 281.921C392.02 281.236 392.467 280.551 392.534 279.597C392.579 279.016 392.795 278.45 392.929 277.899C396.236 277.839 397.703 281.072 396.214 283.91C395.819 284.655 395.245 285.266 394.694 285.884C388.028 293.341 381.362 300.791 374.695 308.248C362.867 321.471 351.047 334.694 339.219 347.91C328.62 359.754 318.013 371.592 307.414 383.436C299.631 392.13 291.862 400.831 284.079 409.517C283.445 410.225 282.879 411 282.09 411.559H282.082Z" fill="#FA4616"/>
<path d="M267.605 410.456C265.221 410.24 262.972 409.473 260.715 408.78C253.944 406.702 247.39 404.095 241.424 400.206C237.625 397.733 234.206 394.805 231.704 390.946C231.033 389.903 230.318 388.868 230.214 387.564C234.392 388.89 238.578 390.194 242.757 391.535C249.535 393.717 256.298 395.93 263.069 398.135C265.117 398.805 267.195 399.23 269.556 398.917C268.886 402.88 268.253 406.665 267.612 410.449L267.605 410.456Z" fill="#FCF6F5"/>
<path d="M29.464 109.491C29.2778 109.506 29.1288 109.446 29.0543 109.267C28.9426 107.897 27.8179 107.152 27.0358 106.265C24.913 103.844 23.1254 101.222 21.7177 98.3315C21.2186 97.3109 20.8611 96.2531 20.7866 95.1133C20.8909 95.0537 20.9803 94.9569 21.092 94.942C27.2444 93.7053 25.5014 93.2137 30.3876 96.7075C40.4131 103.881 49.1351 112.463 56.7101 122.192C57.1496 122.751 57.5443 123.347 57.9465 123.936C58.0061 124.018 57.9838 124.159 58.0136 124.375C56.3973 124.837 54.6842 125.031 53.12 125.709C52.7997 125.85 52.5465 125.761 52.323 125.537C52.1517 125.366 51.9655 125.21 51.8538 125.001C50.7738 122.937 48.8223 121.894 46.9676 120.725C42.1858 117.715 37.4188 114.683 32.6519 111.659C32.0486 111.279 31.475 110.854 30.8941 110.444C30.8494 110.273 30.7302 110.199 30.5589 110.206C30.2386 110.176 30.0226 109.975 29.8289 109.752C29.7843 109.565 29.6576 109.484 29.4714 109.498L29.464 109.491Z" fill="#FCF6F5"/>
<path d="M94.4863 92.1537C94.9332 92.6007 94.6725 93.0625 94.4416 93.4499C93.9277 94.2992 94.2703 94.8951 94.9183 95.4613C95.328 95.8263 95.7898 96.1169 96.3112 96.2137C98.0466 96.5489 99.7672 96.9587 101.555 96.9959C106.545 97.1077 111.454 96.4819 116.355 95.6624C117.114 95.5358 118.016 94.91 118.828 95.6624C115.595 96.8171 112.355 97.942 109.137 99.1414C95.976 104.058 83.3882 110.115 71.8135 118.16C69.5715 119.717 67.3742 121.349 65.2738 123.084C65.1323 123.084 64.9833 123.084 64.8418 123.077C69.3034 115.776 74.8747 109.399 80.9973 103.47C85.012 99.5809 89.265 95.9679 93.7266 92.6007C93.9575 92.4293 94.2256 92.2952 94.4789 92.1462L94.4863 92.1537Z" fill="#EED6D2"/>
<path d="M37.6754 94.6887C47.1051 102.928 54.4715 112.672 60.0876 123.884C59.4545 124.04 59.447 123.548 59.2385 123.362C58.9703 123.139 58.7245 122.87 58.5309 122.58C55.2312 117.596 51.1123 113.32 46.9263 109.104C44.878 107.04 42.718 105.073 40.5654 103.114C39.9248 102.526 39.5077 101.907 39.3066 101.051C38.8076 98.9201 38.2191 96.8044 37.668 94.6887H37.6754Z" fill="#EED6D2"/>
<path d="M20.7755 95.1072C20.8574 96.247 21.215 97.3048 21.7065 98.3254C23.1143 101.216 24.8944 103.838 27.0247 106.259C27.7993 107.146 28.9315 107.891 29.0432 109.261C26.2575 107.779 23.6878 105.946 21.0138 104.292C18.3846 102.661 15.7776 101 13.1633 99.346C12.7238 99.0629 12.2993 98.7426 11.6587 98.2956C14.6753 96.7237 17.6472 95.6957 20.7829 95.1146L20.7755 95.1072Z" fill="#EED6D2"/>
<path d="M54.0361 126.87C59.9948 125.104 65.6556 124.97 71.5026 126.669C67.0857 131.272 58.7137 130.669 54.0361 126.87Z" fill="#DBF505"/>
<path d="M187.714 96.5715C190.105 95.7297 192.533 95.0071 194.79 93.8077C198.142 92.0273 201.389 90.0978 204.182 87.4905C204.495 87.1999 204.808 86.9392 205.27 86.9988C204.413 90.0904 202.909 92.9436 201.866 95.9606C201.635 96.6236 201.061 96.5342 200.533 96.5342C197.441 96.5417 194.358 96.5566 191.267 96.564C190.082 96.564 188.898 96.564 187.714 96.564V96.5715Z" fill="#EED6D2"/>
<path d="M143.094 361.776C143.653 366.938 142.506 371.401 139.012 375.215C135.087 370.604 138.208 363.206 143.094 361.776Z" fill="#DBF505"/>
<path d="M206.951 87.1877C208.27 90.2868 209.268 93.4081 210.147 96.6487H203.056C204.121 93.2815 205.596 90.2793 206.951 87.1877Z" fill="#EED6D2"/>
<path d="M64.8296 123.082C64.9785 123.082 65.12 123.082 65.2616 123.089C65.0828 123.216 64.8742 123.477 64.7402 123.439C64.554 123.387 64.7402 123.194 64.8221 123.074L64.8296 123.082Z" fill="#C20000"/>
<path d="M95.5477 91.3645C95.4658 91.8562 95.3466 92.3031 94.6763 92.0275C94.8625 91.6699 95.1604 91.4539 95.5477 91.3645Z" fill="#EED6D2"/>
<path d="M30.5342 110.197C30.7097 110.189 30.8193 110.263 30.8632 110.431C30.6731 110.467 30.5707 110.372 30.5342 110.197Z" fill="#EED6D2"/>
<path d="M119.841 95.3807C119.922 95.2102 120.056 95.1658 120.226 95.2102C120.152 95.3807 120.026 95.4548 119.841 95.3807Z" fill="#EED6D2"/>
<path d="M120.915 95.049C121.011 94.8642 121.158 94.8199 121.358 94.879C121.262 95.0564 121.114 95.1303 120.915 95.049Z" fill="#EED6D2"/>
<path d="M103.67 257.471C103.907 257.501 104.04 257.627 104.003 257.879C103.892 257.745 103.781 257.604 103.67 257.471Z" fill="#C20000"/>
<path d="M80.1677 280.314C80.3746 280.38 80.478 280.535 80.5371 280.735C80.3302 280.668 80.1603 280.572 80.1677 280.314Z" fill="#FA4616"/>
<path d="M205.263 87.0193C205.211 86.8192 205.285 86.6858 205.478 86.6191C205.53 86.8192 205.493 86.9674 205.263 87.0193Z" fill="#EED6D2"/>
<path d="M29.4482 109.487C29.6335 109.472 29.7595 109.554 29.8039 109.739C29.589 109.791 29.4853 109.687 29.4482 109.487Z" fill="#EED6D2"/>
<path d="M53.4478 64.2243C61.8421 60.0302 66.0802 52.7371 68.7244 44.2297C68.8808 43.7231 68.9106 43.1718 69.3351 42.71C71.9644 51.8431 76.0982 59.8514 85.0437 64.3584C84.9767 64.4627 84.932 64.6042 84.8426 64.6489C78.8541 67.4276 75.1523 72.3443 72.2921 78.0507C71.1153 80.3973 70.2885 82.878 69.5884 85.4034C69.5288 85.612 69.4171 85.8132 69.2979 86.0888C66.6761 76.8513 62.5348 68.8356 53.4627 64.2243H53.4478Z" fill="#DBF505"/>
<path d="M285.956 123.39C288.734 132.367 292.846 140.271 301.806 144.808C292.995 149.248 288.802 157.085 286.128 166.136C285.465 165.674 285.509 164.959 285.338 164.393C284.243 160.653 282.664 157.144 280.497 153.911C277.838 149.956 274.583 146.655 270.009 144.696C278.992 140.264 283.141 132.375 285.956 123.398V123.39Z" fill="#DBF505"/>
<path d="M243.098 32.2376C238.533 34.2564 235.345 37.3852 232.745 41.1547C230.153 44.9167 228.41 49.0587 227.248 53.4539C226.548 53.439 226.697 52.8878 226.6 52.5451C225.52 48.7533 224.008 45.1402 221.848 41.8252C219.137 37.6608 215.815 34.1744 210.944 32.0886C215.428 30.1442 218.668 26.9856 221.297 23.1565C223.882 19.3945 225.639 15.2525 226.779 10.8499C227.464 10.8648 227.315 11.416 227.412 11.7587C228.686 16.2582 230.578 20.4672 233.371 24.2442C235.851 27.5965 238.801 30.3901 243.076 32.2376H243.098Z" fill="#DBF505"/>
<path d="M125.442 248.511C126.291 251.431 127.579 254.173 128.697 256.989C135.102 273.117 141.538 289.238 147.958 305.359C148.137 305.798 148.308 306.245 148.479 306.685C148.651 307.132 148.591 307.542 148.114 307.72C147.623 307.907 147.325 307.579 147.139 307.177C146.938 306.744 146.781 306.297 146.61 305.85C141.858 293.924 137.113 281.997 132.361 270.07C132.145 269.519 131.862 268.997 131.616 268.461C126.864 255.767 121.68 243.252 116.682 230.655C105.89 203.456 95.0374 176.273 84.2075 149.089C83.4179 147.1 82.6284 145.111 81.8463 143.115C81.7123 142.779 81.5707 142.452 81.4814 142.109C81.4069 141.804 81.4814 141.498 81.7867 141.349C82.1741 141.155 82.4869 141.319 82.6731 141.677C82.8891 142.102 83.0753 142.541 83.2541 142.981C94.2628 170.611 105.257 198.241 116.265 225.872C119.058 232.889 121.866 239.899 124.674 246.917C124.89 247.461 125.188 247.982 125.449 248.511H125.442Z" fill="#121212"/>
<path d="M140.08 108.046C140.087 108.352 139.908 108.59 139.61 108.687C139.164 108.836 138.694 108.933 138.225 109.03C120.773 112.628 103.806 117.82 87.2186 124.301C86.727 124.495 86.2205 124.674 85.7066 124.8C85.3788 124.882 85.1256 124.659 85.0288 124.353C84.9543 124.122 85.0511 123.862 85.2671 123.735C85.6768 123.497 86.0939 123.266 86.5333 123.094C99.136 118.066 112.066 114.036 125.183 110.601C129.496 109.469 133.83 108.449 138.218 107.622C138.62 107.547 139.037 107.465 139.447 107.473C139.744 107.473 139.99 107.681 140.072 108.054L140.08 108.046Z" fill="#121212"/>
<path d="M208.793 101.635C212.451 101.903 215.422 103.333 217.173 106.723C217.471 107.304 218.126 108.161 217.285 108.6C216.264 109.137 216.286 107.93 215.996 107.393C214.566 104.682 212.242 103.371 209.3 103.013C208.711 102.939 208.116 102.998 207.52 102.954C207.14 102.924 206.82 102.73 206.834 102.298C206.849 101.888 207.147 101.672 207.542 101.642C207.952 101.613 208.369 101.642 208.786 101.642L208.793 101.635Z" fill="#121212"/>
</svg>
