<svg width="333" height="352" viewBox="0 0 333 352" fill="none" xmlns="http://www.w3.org/2000/svg">
<g clip-path="url(#clip0_432_1405)">
<path d="M-0.00729566 146.687C0.0703696 134.552 0.691692 122.417 2.012 110.36C3.33231 98.1469 5.35161 86.0118 7.8369 73.9545C8.14756 72.6321 8.61355 71.932 10.0115 71.6209C29.3502 66.3312 47.9898 59.1746 66.3189 51.0846C97.618 37.1604 127.519 20.8247 155.867 1.61081C156.877 0.910714 157.576 0.832925 158.585 1.53303C178.468 14.057 199.825 23.4695 221.649 31.7929C247.512 41.7499 273.918 49.7622 300.946 55.8297C308.868 57.6189 316.867 59.1746 324.944 60.3415C326.109 60.4971 326.808 60.9638 327.352 62.0528C328.672 64.7754 330.148 67.3425 331.546 69.9873C331.856 70.5318 332.089 70.9986 332.012 71.6987C331.002 77.844 330.148 84.0671 328.983 90.1346C325.333 110.36 320.284 130.196 313.683 149.643C301.179 186.515 284.015 220.898 260.87 252.247C245.415 273.25 227.707 292.075 207.281 308.255C188.952 322.724 168.992 334.392 147.091 342.482C135.208 346.838 123.015 350.028 110.433 351.894C108.646 352.128 107.093 351.894 105.384 351.194C86.7448 343.338 71.0564 331.514 57.6203 316.5C46.4365 304.132 37.5827 290.208 30.2045 275.272C26.0882 266.949 21.8943 258.703 18.477 249.991C12.6521 235.133 8.30289 219.887 5.27394 204.251C3.33231 194.138 1.93434 184.026 1.08002 173.758C0.614027 168.157 0.303365 162.478 0.148035 156.878C0.0703696 153.455 -0.0849609 150.032 -0.0849609 146.609L-0.00729566 146.687ZM313.217 125.606C312.052 128.951 310.964 132.374 310.032 135.797C308.867 139.219 307.703 142.564 306.46 145.987C300.169 163.567 292.791 180.681 284.015 197.25C277.025 210.552 269.258 223.387 260.637 235.678C250.929 249.524 240.289 262.515 228.484 274.65C220.174 283.207 211.398 291.141 202 298.453C183.438 313 163.4 324.746 141.188 332.836C140.645 332.992 140.101 333.07 139.713 333.614C141.188 334.703 143.285 335.325 145.537 335.637C149.188 336.103 152.838 336.026 156.488 335.637C159.983 335.17 163.4 334.47 166.662 332.758C170.468 330.736 174.351 328.791 178.079 326.613C195.865 316.345 211.941 303.899 226.698 289.663C234.309 282.351 241.454 274.572 248.211 266.404C255.977 257.147 263.123 247.424 269.802 237.389C279.432 222.765 288.053 207.44 295.509 191.571C300.79 180.292 305.528 168.857 309.799 157.189C312.052 150.888 314.304 144.509 316.09 138.053C317.255 134.708 318.265 131.363 318.964 127.94C319.974 124.984 320.75 121.95 321.449 118.917C321.449 118.761 321.605 118.605 321.682 118.45C324.245 108.182 326.498 97.758 328.284 87.3342C329.138 82.3558 329.682 77.3773 330.769 72.4765C330.924 71.8542 330.847 71.3097 330.536 70.7652C330.148 70.1429 329.915 69.5206 329.526 68.8983C328.672 67.4981 327.74 67.4203 326.808 68.7427C326.032 69.7539 325.721 70.9986 325.488 72.2432C323.935 81.889 322.071 91.4571 319.818 101.025C318.576 106.315 317.178 111.604 315.857 116.894C315.003 119.85 314.149 122.806 313.294 125.762L313.217 125.606ZM29.9715 271.072C30.9812 273.794 32.6121 276.206 34.0878 278.617C34.2431 278.851 34.3208 279.162 34.4761 279.395C37.971 285.229 41.7766 290.83 45.8929 296.198C56.766 310.277 69.4255 322.257 84.6479 331.514C90.0068 334.781 95.521 337.581 101.346 339.993C102.666 340.537 102.744 340.459 102.822 339.059C102.899 334.47 102.977 329.802 103.132 325.213C103.365 320.39 103.443 315.489 103.676 310.666C104.142 301.643 104.763 292.697 105.307 283.674C105.54 279.629 105.85 275.506 106.161 271.461C106.705 265.004 107.248 258.548 107.87 252.091C108.336 246.802 108.957 241.434 109.501 236.145C109.811 233.111 110.355 230.077 110.355 227.043C110.976 223.465 111.287 219.887 111.675 216.231C112.141 212.963 112.607 209.696 112.84 206.429C112.918 205.962 113.073 205.496 113.151 205.029C114.005 198.495 114.86 191.96 115.792 185.426C117.034 176.947 118.277 168.468 119.597 160.067C120.607 153.455 121.772 146.843 122.782 140.231C122.782 140.153 122.859 139.997 122.937 139.92C124.412 131.752 125.888 123.506 127.441 115.338C130.47 99.7027 133.732 84.2227 137.383 68.7427C141.499 51.318 146.081 33.971 151.44 16.8574C152.76 12.6568 154.158 8.37845 155.479 4.17785C155.556 4.10006 155.712 3.94448 155.556 3.78891C155.401 3.63333 155.323 3.7889 155.168 3.86669C154.236 4.25564 153.537 4.87795 152.76 5.42247C126.121 23.0806 98.1616 38.3272 68.9595 51.3957C56.1447 57.1521 43.1746 62.364 29.8938 66.9535C23.6029 69.1316 17.3121 71.1541 10.8658 72.7877C9.70086 73.0989 9.15721 73.6434 9.00188 74.8102C8.61355 77.1439 8.06989 79.4776 7.6039 81.889C5.66227 91.6904 4.18663 101.647 3.17698 111.604C2.245 120.317 1.70134 129.029 1.46834 137.819C1.08002 150.11 1.46834 162.323 2.55566 174.536C3.33231 183.481 4.49729 192.349 6.12826 201.139C6.74958 204.562 7.29324 207.985 8.30289 211.33C8.30289 211.641 8.30289 211.952 8.38056 212.186C11.2542 225.021 15.0598 237.545 19.9527 249.758C21.739 254.347 23.6029 258.859 25.9329 263.215C26.6319 265.315 27.7969 267.182 28.7289 269.049C29.1172 269.749 29.2725 270.605 30.0492 271.072H29.9715ZM113.384 215.141C112.763 218.486 112.53 221.831 112.141 225.254C112.141 225.487 112.141 225.721 112.374 225.876C111.831 226.188 111.986 226.732 111.908 227.121C111.442 231.322 110.976 235.6 110.51 239.801C109.345 251.547 108.18 263.371 107.326 275.117C106.627 283.907 106.006 292.697 105.54 301.487C105.074 310.355 104.763 319.223 104.375 328.091C104.22 331.903 104.142 335.637 104.064 339.448C104.064 340.537 104.064 340.615 105.229 340.382C107.404 340.071 109.578 339.682 111.831 339.293C129.305 336.026 146.003 330.269 161.925 322.335C184.215 311.211 204.019 296.509 221.882 279.24C243.706 258.159 261.647 234.044 276.714 207.752C287.199 189.471 295.975 170.413 303.353 150.732C305.295 145.598 307.159 140.386 308.712 135.097C309.877 131.752 310.964 128.407 311.896 124.984C312.828 122.184 313.76 119.306 314.304 116.35C315.081 114.405 315.469 112.304 316.013 110.282C319.43 97.369 322.071 84.2227 324.168 70.9986C324.634 68.1204 325.022 65.32 325.41 62.4418C325.41 61.8973 325.566 61.5083 324.789 61.4305C321.605 61.0416 318.576 60.1859 315.391 60.0303C314.848 59.8747 314.382 59.7192 313.838 59.6414C310.576 59.0191 307.392 58.3967 304.13 57.6966C283.393 53.2627 262.967 47.5063 242.852 40.7387C217.921 32.3375 193.612 22.4583 170.468 10.012C168.604 9.00077 166.74 8.14509 164.643 7.60056C159.517 6.27815 156.333 7.91172 154.391 12.8124C153.925 14.057 153.459 15.3017 153.071 16.5463C146.858 36.2269 141.732 56.2187 137.072 76.366C133.422 92.3127 130.16 108.259 127.208 124.284C126.276 129.185 125.5 134.085 124.645 138.986C123.092 146.921 121.85 154.933 120.607 162.867C119.287 171.424 118.044 179.903 116.801 188.46C116.025 194.061 115.17 199.584 114.627 205.185C114.161 208.452 113.695 211.641 113.462 214.908L113.384 215.141Z" fill="#0F0706"/>
<path d="M308.639 135.173C307.086 140.463 305.144 145.675 303.28 150.809C295.98 170.567 287.126 189.548 276.641 207.828C261.574 234.121 243.556 258.157 221.809 279.316C203.946 296.663 184.142 311.287 161.852 322.411C145.93 330.346 129.31 336.102 111.758 339.369C109.583 339.758 107.408 340.069 105.156 340.458C104.069 340.614 103.991 340.614 103.991 339.525C103.991 335.713 104.147 331.979 104.302 328.168C104.69 319.3 104.923 310.432 105.467 301.564C105.933 292.774 106.554 283.983 107.253 275.193C108.185 263.369 109.272 251.623 110.437 239.877C110.903 235.676 111.369 231.398 111.835 227.197C111.835 226.731 111.835 226.186 112.301 225.953C125.116 218.174 138.164 210.862 151.367 203.783C192.374 181.769 234.702 162.555 278.272 146.141C288.291 142.407 298.387 138.674 308.562 135.329L308.639 135.173ZM165.347 311.754C165.735 311.754 166.201 311.598 166.667 311.443C168.376 310.898 170.007 310.12 171.56 309.265C182.899 303.119 193.462 295.729 203.092 287.095C204.412 285.928 205.655 284.683 206.587 283.283C206.975 282.739 207.597 282.039 207.053 281.339C206.587 280.716 205.733 281.027 205.034 281.105C204.645 281.105 204.257 281.339 203.869 281.494C202.548 282.039 201.228 282.583 199.908 283.283C189.423 288.884 179.56 295.418 170.55 303.197C168.609 304.831 166.822 306.542 165.191 308.487C164.803 309.031 164.415 309.576 164.104 310.12C163.716 311.054 164.104 311.598 165.269 311.598L165.347 311.754ZM152.843 319.689C153.93 319.533 155.017 319.222 156.105 318.677C157.813 317.822 159.444 316.81 160.609 315.177C160.92 314.71 161.308 314.165 160.92 313.543C160.532 312.999 159.988 312.843 159.367 312.921C156.182 313.388 153.542 314.866 151.445 317.433C151.056 317.899 150.823 318.522 151.134 319.144C151.445 319.766 152.066 319.766 152.843 319.766V319.689Z" fill="#FA4616"/>
<path d="M8.31506 211.256C7.30541 207.911 6.83942 204.488 6.14043 201.066C4.50946 192.276 3.34448 183.408 2.56783 174.462C1.55818 162.249 1.09219 150.036 1.48052 137.746C1.79118 128.955 2.33483 120.243 3.18915 111.531C4.1988 101.574 5.67444 91.6167 7.61607 81.8153C8.08207 79.4816 8.62572 77.148 9.01405 74.7365C9.24704 73.5697 9.71304 73.0252 10.878 72.714C17.3242 71.0804 23.6151 68.9801 29.906 66.8798C43.1868 62.2903 56.1569 57.0784 68.9716 51.322C98.0961 38.2535 126.056 23.0068 152.772 5.34875C153.549 4.80423 154.326 4.18191 155.18 3.79297C155.258 3.87076 155.335 3.94855 155.491 4.10412C154.17 8.30473 152.772 12.5053 151.452 16.7837C146.093 33.8973 141.511 51.2442 137.395 68.669C133.745 84.149 130.405 99.7068 127.454 115.265C125.9 123.432 124.425 131.678 122.949 139.846C122.949 139.924 122.871 140.079 122.794 140.157C122.25 140.39 121.706 140.624 121.163 140.935C112.775 145.369 104.387 149.958 96.0768 154.626C70.525 169.017 45.5944 184.419 21.7512 201.455C17.2466 204.644 12.742 207.989 8.2374 211.256H8.31506Z" fill="#FA4616"/>
<path d="M114.619 205.42C115.163 199.819 116.017 194.218 116.794 188.695C118.036 180.138 119.279 171.66 120.599 163.103C121.842 155.09 123.085 147.156 124.638 139.222C125.026 139.066 125.415 138.91 125.803 138.755C152.442 124.753 179.547 111.918 207.196 100.094C239.505 86.2472 272.357 73.8788 305.909 63.3773C309.093 62.366 312.355 61.5881 315.462 60.3435C318.646 60.4991 321.752 61.3548 324.859 61.7437C325.558 61.8215 325.558 62.2882 325.48 62.755C325.092 65.6332 324.704 68.4336 324.238 71.3117C322.141 84.5359 319.422 97.6044 316.083 110.595C315.539 112.618 315.151 114.64 314.374 116.663C310.957 117.83 307.54 118.919 304.2 120.085C250.456 138.599 198.498 161.236 148.093 187.451C136.909 193.285 125.803 199.352 114.774 205.575L114.619 205.42Z" fill="#F7EEED"/>
<path d="M315.399 60.1834C312.293 61.428 309.031 62.2059 305.846 63.2171C272.295 73.7186 239.443 86.0871 207.134 99.9335C179.485 111.757 152.38 124.593 125.741 138.595C125.352 138.75 124.964 138.906 124.576 139.061C125.43 134.161 126.284 129.26 127.139 124.359C130.09 108.335 133.352 92.3102 137.002 76.4412C141.584 56.2939 146.788 36.3799 153.001 16.6215C153.39 15.3769 153.778 14.1323 154.321 12.8877C156.341 7.98697 159.447 6.3534 164.573 7.67582C166.593 8.22034 168.534 9.07602 170.398 10.0873C193.62 22.5335 217.929 32.4127 242.782 40.8139C262.898 47.6593 283.324 53.3379 304.06 57.7719C307.244 58.472 310.506 59.0943 313.768 59.7166C314.312 59.7944 314.778 59.95 315.322 60.1056L315.399 60.1834Z" fill="#FA4616"/>
<path d="M8.3125 211.255C12.8171 207.987 17.3217 204.642 21.8263 201.453C45.7472 184.495 70.6777 169.093 96.152 154.624C104.462 149.957 112.772 145.367 121.238 140.933C121.781 140.622 122.325 140.389 122.869 140.155C121.781 146.767 120.694 153.38 119.685 159.992C118.364 168.471 117.122 176.95 115.879 185.351C114.947 191.885 114.093 198.419 113.238 204.954C113.238 205.42 113.083 205.887 112.928 206.354C112.695 206.432 112.462 206.509 112.306 206.665C86.4438 221.445 61.2802 237.314 37.204 254.816C33.3984 257.539 29.6705 260.339 25.9425 263.14C23.6126 258.784 21.7486 254.272 19.9623 249.682C15.0694 237.469 11.3414 224.945 8.39017 212.11C8.39017 211.799 8.39017 211.488 8.3125 211.255Z" fill="#F7EEED"/>
<path d="M110.435 227.042C110.435 230.076 109.813 233.11 109.58 236.143C109.114 241.433 108.493 246.8 107.95 252.09C107.328 258.547 106.785 265.003 106.241 271.46C105.93 275.505 105.62 279.627 105.387 283.672C104.843 292.696 104.222 301.642 103.756 310.665C103.523 315.488 103.445 320.389 103.212 325.212C102.979 329.801 102.979 334.469 102.901 339.058C102.901 340.458 102.746 340.536 101.426 339.992C95.6784 337.658 90.0865 334.78 84.7276 331.513C69.5052 322.256 56.7681 310.276 45.9726 296.196C41.8563 290.829 38.0507 285.228 34.5558 279.394C34.4005 279.161 34.3228 278.849 34.1675 278.616C34.5558 278.383 34.9441 278.072 35.3325 277.838C55.0594 262.669 75.5631 248.667 96.6104 235.443C101.193 232.565 105.697 229.687 110.435 227.042Z" fill="#FA4616"/>
<path d="M315.936 138.053C314.15 144.509 311.897 150.888 309.645 157.189C305.451 168.857 300.636 180.37 295.355 191.572C287.899 207.441 279.356 222.765 269.647 237.389C262.968 247.424 255.823 257.148 248.057 266.405C241.3 274.495 234.154 282.273 226.543 289.663C211.787 303.899 195.71 316.345 177.925 326.613C174.197 328.791 170.314 330.736 166.508 332.759C163.324 334.392 159.906 335.17 156.334 335.637C152.684 336.103 149.033 336.181 145.383 335.637C143.208 335.326 141.111 334.703 139.558 333.614C139.946 333.07 140.568 332.992 141.034 332.836C163.246 324.824 183.284 313 201.846 298.454C211.166 291.141 220.019 283.129 228.33 274.65C240.135 262.515 250.775 249.524 260.483 235.678C269.104 223.387 276.87 210.552 283.86 197.25C292.559 180.681 300.015 163.645 306.305 145.987C307.548 142.565 308.713 139.22 309.878 135.797C310.655 136.108 311.509 136.575 312.363 136.808C313.528 137.119 314.538 138.053 315.781 138.053H315.936Z" fill="#C20000"/>
<path d="M308.625 135.171C298.451 138.516 288.354 142.172 278.336 145.984C234.765 162.397 192.438 181.611 151.43 203.625C138.227 210.704 125.18 218.094 112.365 225.795C112.132 225.64 112.132 225.406 112.132 225.173C112.52 221.828 112.753 218.405 113.374 215.06C113.84 214.827 114.306 214.593 114.772 214.282C146.46 195.691 179.002 178.966 212.475 163.875C239.969 151.429 268.006 140.227 296.432 130.192C301.48 128.403 306.606 126.536 311.732 125.058C310.8 128.481 309.79 131.826 308.547 135.171H308.625Z" fill="#F7EEED"/>
<path d="M311.823 125.063C306.62 126.619 301.572 128.408 296.523 130.197C268.02 140.232 240.061 151.433 212.567 163.879C179.171 178.97 146.552 195.773 114.864 214.287C114.398 214.52 113.932 214.831 113.466 215.065C113.699 211.797 114.165 208.53 114.631 205.341C125.66 199.118 136.688 193.05 147.95 187.216C198.354 161.001 250.313 138.287 304.057 119.851C307.474 118.684 310.891 117.595 314.231 116.428C313.61 119.384 312.755 122.185 311.823 125.063Z" fill="#FA4616"/>
<path d="M25.8608 263.141C29.5888 260.34 33.3944 257.618 37.1223 254.817C61.1985 237.315 86.3621 221.446 112.225 206.666C112.458 206.51 112.691 206.51 112.846 206.355C112.613 209.622 112.147 212.889 111.681 216.156C111.215 216.39 110.749 216.623 110.283 216.934C97.8566 224.324 85.6631 231.947 73.625 239.96C58.7133 249.839 44.1898 260.185 29.9771 270.997C29.2004 270.531 29.0451 269.675 28.6568 268.975C27.6471 267.03 26.5598 265.163 25.8608 263.141Z" fill="#FA4616"/>
<path d="M29.9785 271.074C44.1913 260.183 58.7147 249.837 73.6264 240.036C85.6645 232.101 97.9356 224.4 110.284 217.01C110.75 216.699 111.216 216.544 111.682 216.233C111.294 219.811 110.983 223.467 110.362 227.045C105.625 229.69 101.12 232.568 96.5377 235.446C75.4904 248.671 54.9091 262.673 35.2598 277.841C34.8714 278.153 34.4831 278.386 34.0948 278.619C32.5415 276.208 30.9882 273.796 29.9785 271.074Z" fill="#F7EEED"/>
<path d="M315.779 116.736C317.1 111.446 318.42 106.156 319.74 100.867C321.993 91.3765 323.856 81.8085 325.41 72.0849C325.643 70.8402 325.953 69.5956 326.73 68.5843C327.662 67.2619 328.672 67.3397 329.448 68.7399C329.837 69.3622 330.07 70.0623 330.458 70.6069C330.769 71.1514 330.846 71.6959 330.691 72.3182C329.604 77.2189 329.06 82.2752 328.206 87.1759C326.342 97.5996 324.167 108.023 321.604 118.291C321.604 118.447 321.449 118.603 321.371 118.758L315.779 116.58V116.736Z" fill="#FA4616"/>
<path d="M315.938 138.049C314.617 138.049 313.685 137.116 312.52 136.805C311.666 136.571 310.889 136.183 310.035 135.794C310.967 132.371 312.054 128.948 313.219 125.603C315.083 126.381 316.947 127.159 318.889 127.937C318.112 131.36 317.103 134.705 316.015 138.049H315.938Z" fill="#FA4616"/>
<path d="M318.89 127.938C317.026 127.16 315.162 126.382 313.221 125.604C314.075 122.648 314.929 119.692 315.784 116.736C317.648 117.436 319.512 118.214 321.376 118.914C320.677 121.948 319.9 124.982 318.89 127.938Z" fill="#C20000"/>
<path d="M155.314 3.7889C155.314 3.7889 155.546 3.55742 155.7 3.71174C155.854 3.86606 155.7 4.02037 155.623 4.09753C155.546 4.02037 155.469 3.94322 155.314 3.7889Z" fill="#FF1D00"/>
<path d="M165.344 311.756C164.256 311.756 163.79 311.212 164.179 310.278C164.412 309.656 164.8 309.111 165.266 308.645C166.819 306.7 168.683 304.988 170.625 303.355C179.712 295.576 189.498 289.042 199.982 283.441C201.225 282.741 202.623 282.274 203.943 281.652C204.332 281.496 204.72 281.341 205.108 281.263C205.807 281.107 206.662 280.796 207.128 281.496C207.671 282.196 207.05 282.819 206.662 283.441C205.652 284.919 204.409 286.086 203.167 287.253C193.536 295.887 182.974 303.199 171.635 309.422C170.081 310.278 168.45 311.056 166.742 311.601C166.276 311.756 165.81 311.912 165.421 311.912L165.344 311.756Z" fill="#FFF5F3"/>
<path d="M152.848 319.694C152.072 319.694 151.45 319.694 151.14 319.071C150.829 318.527 151.062 317.904 151.45 317.36C153.47 314.793 156.11 313.315 159.372 312.848C159.993 312.77 160.537 312.848 160.925 313.47C161.314 314.093 160.925 314.637 160.615 315.104C159.527 316.738 157.896 317.749 156.11 318.605C155.023 319.149 153.936 319.538 152.848 319.616V319.694Z" fill="#FFF5F3"/>
<path d="M290.184 134.317C287.699 128.249 284.049 122.726 279 118.37C273.952 114.014 268.593 111.291 262.535 109.657C249.022 105.846 234.265 108.102 221.45 113.391C212.985 116.892 205.141 121.715 198.073 127.471L199.859 127.705C193.802 117.203 183.317 110.669 171.512 108.646C158.386 106.39 144.795 109.035 132.679 114.247C124.99 117.592 117.923 122.026 111.476 127.393L113.263 127.627C105.574 114.947 91.5163 108.257 76.9929 107.635C60.6055 106.935 45.5385 113.78 31.8694 122.259C25.5785 126.149 19.2876 130.894 15.4043 137.35C13.5404 140.384 12.2201 143.962 12.5307 147.541C12.8414 150.808 14.317 153.764 16.181 156.486C18.045 159.209 20.3749 161.62 22.3942 164.343C25.0348 167.921 27.5201 171.577 30.2384 175.078C36.374 183.168 42.8202 191.025 48.6451 199.348C51.3634 203.238 54.3923 206.816 57.2659 210.628C60.1395 214.439 62.8578 218.251 65.6538 222.14C71.0904 229.686 76.4493 237.309 82.2742 244.544C85.2254 248.2 88.3321 251.778 91.594 255.123C93.0696 256.679 94.4676 258.312 96.2539 259.479C97.7296 260.49 99.2052 261.346 100.836 262.124C107.282 265.235 114.428 266.48 121.573 266.402C129.495 266.247 137.339 264.535 144.639 261.502C148.445 259.946 152.095 258.079 155.59 255.901C159.473 253.489 163.046 250.533 166.619 247.655C183.317 234.275 200.092 220.896 216.79 207.438C225.101 200.748 233.411 194.058 241.799 187.446C245.993 184.102 250.187 180.757 254.38 177.334C257.409 174.845 260.361 172.278 263.467 169.788C268.826 165.51 274.573 161.776 279.777 157.342C284.282 153.453 288.941 148.708 290.417 142.718C291.116 139.917 290.961 137.117 290.262 134.394C289.873 132.994 287.699 133.616 288.087 135.017C289.718 140.773 287.466 146.063 283.66 150.419C279.389 155.397 273.952 159.209 268.749 163.098C262.924 167.299 257.565 171.966 251.973 176.478C243.896 182.935 235.896 189.391 227.819 195.77C211.742 208.683 195.666 221.518 179.589 234.431C175.628 237.62 171.589 240.81 167.628 243.999C163.9 246.955 160.25 250.067 156.289 252.711C149.61 257.145 142.232 260.49 134.388 262.357C127.32 264.069 119.864 264.613 112.641 263.368C109.224 262.824 105.884 261.813 102.778 260.412C101.302 259.712 99.8265 258.934 98.4285 258.079C96.6422 256.912 95.1666 255.434 93.691 253.956C81.0315 240.965 71.2457 225.641 60.5279 211.094C57.8096 207.438 54.936 203.938 52.2177 200.359C49.2664 196.47 46.6258 192.425 43.6745 188.535C40.7232 184.646 37.7719 180.912 34.743 177.1C31.714 173.289 28.6074 169.399 25.8891 165.277C22.4719 160.143 17.113 155.786 15.3267 149.719C13.152 142.64 18.3556 135.95 23.2485 131.361C28.7628 126.227 35.442 122.493 42.1212 118.992C49.2664 115.258 56.4116 112.147 64.3335 110.669C78.5462 108.102 94.3123 110.669 105.108 120.781C107.593 123.115 109.69 125.76 111.399 128.638C111.787 129.338 112.641 129.338 113.185 128.871C123.747 120.081 136.485 113.702 150.076 111.135C161.57 108.957 174.23 109.58 184.637 115.414C190.229 118.603 194.811 123.115 197.995 128.716C198.384 129.416 199.238 129.416 199.782 128.949C211.354 119.537 225.256 112.536 240.168 110.513C252.439 108.802 265.564 110.747 275.661 118.292C281.253 122.493 285.524 128.327 288.165 134.861C288.708 136.183 290.883 135.639 290.34 134.239L290.184 134.317Z" fill="black"/>
<path d="M53.8435 144.899C56.7171 143.032 60.4451 142.332 63.7847 141.865C65.6486 141.632 67.5903 141.476 69.4542 141.554C70.9299 141.554 72.1725 141.71 73.5705 142.254C73.3375 142.176 73.7258 142.254 73.7258 142.332C73.8035 142.332 73.9588 142.487 74.0365 142.487C74.1141 142.487 74.3471 142.799 74.1141 142.565C74.1141 142.643 74.2695 142.721 74.2695 142.876C74.2695 142.643 74.2695 142.954 74.2695 142.876C74.2695 143.11 74.3471 142.643 74.2695 143.032C74.1918 143.421 73.8811 143.888 73.4928 144.277C72.8715 144.977 72.0948 145.599 71.3959 146.144C70.8522 146.532 70.3085 146.844 69.7649 147.233C68.9882 147.777 68.3669 148.555 67.6679 149.177C66.5806 150.111 65.4933 151.044 64.3283 151.822C63.6293 152.289 62.9303 152.678 62.076 152.833C61.6877 152.833 61.2994 152.833 60.911 152.6C60.5227 152.367 60.0567 151.822 59.6684 151.278C59.1247 150.5 58.6587 149.644 58.1928 148.788C57.0278 146.688 55.6298 144.666 53.9212 143.032C52.9115 142.021 51.2805 143.576 52.3679 144.588C53.9988 146.221 55.2415 148.088 56.3288 150.033C57.1831 151.511 58.0374 153.222 59.4354 154.311C60.8334 155.4 62.6197 155.245 64.173 154.545C65.338 154 66.4253 153.222 67.3573 152.444C68.7552 151.355 69.9202 149.877 71.3959 148.866C73.4928 147.466 78.6964 143.81 75.5898 140.932C74.5025 139.92 72.7938 139.609 71.3959 139.376C69.5319 139.143 67.5903 139.143 65.6486 139.376C61.2994 139.687 56.3288 140.543 52.6009 142.954C51.3582 143.732 52.5232 145.677 53.7658 144.899H53.8435Z" fill="black"/>
<path d="M85.4545 187.062C90.3474 183.873 94.852 180.061 99.2789 176.249C104.56 171.737 109.686 167.148 115.045 162.714C120.404 158.28 125.763 154.002 131.51 150.19C136.403 146.923 141.684 143.967 147.431 142.411C152.713 140.933 158.305 141.011 163.042 143.967L162.809 142.178C147.742 154.235 132.675 166.292 117.686 178.35C114.501 180.917 111.084 183.172 107.977 185.817C105.803 187.606 103.706 189.551 101.609 191.496C100.289 192.741 98.8906 194.141 97.4926 195.074C97.1819 195.23 96.9489 195.463 96.6383 195.619C96.2499 195.852 96.3276 195.852 96.017 195.93C95.8616 195.93 95.784 195.93 95.6286 196.008C95.6286 196.008 95.4733 196.008 95.3956 196.008C95.2403 196.008 95.7063 196.008 95.3956 196.008C95.2403 196.008 95.1626 196.008 95.0073 196.008C94.6966 196.008 95.0073 196.008 94.7743 196.008C94.2307 195.852 93.7647 195.619 93.3763 195.308C92.5997 194.685 91.9784 193.985 91.357 193.285C89.2601 190.796 87.5514 188.073 85.7651 185.351C84.9885 184.106 83.0469 185.273 83.8235 186.517C85.5321 189.084 87.2408 191.729 89.1047 194.141C90.1921 195.463 91.357 196.941 92.9103 197.797C95.9393 199.353 98.6576 197.019 100.832 195.152C105.492 191.029 109.919 186.751 114.967 183.095C118.851 180.216 122.656 177.183 126.384 174.149C130.112 171.115 134.151 167.926 138.034 164.814C146.81 157.813 155.509 150.812 164.285 143.811C164.906 143.345 164.595 142.411 164.052 142.022C154.111 135.877 142.15 140.933 133.141 146.378C121.103 153.69 110.696 163.336 100.056 172.438C94.9296 176.794 89.8037 181.306 84.2118 184.962C82.9692 185.74 84.1342 187.684 85.3768 186.906L85.4545 187.062Z" fill="black"/>
<path d="M238.926 150.732C222.461 163.878 205.996 177.103 189.531 190.249C185.415 193.516 181.376 196.783 177.26 200.05C173.454 203.084 169.571 206.04 165.765 209.074C158.698 214.752 152.096 220.976 144.563 226.11C142.466 227.588 140.369 228.91 138.117 230.155C135.864 231.399 133.457 231.944 131.049 232.177C126.467 232.644 121.729 231.71 118.234 228.599V230.155C135.631 216.23 153.028 202.306 170.425 188.304C179.124 181.303 187.822 174.302 196.521 167.379C200.87 163.956 205.142 160.534 209.491 157.111C211.743 155.399 213.918 153.61 216.17 151.899C218.422 150.188 220.364 148.554 222.694 147.154C227.121 144.587 231.936 142.564 236.984 141.709C241.334 140.931 246.071 141.242 249.722 143.964L249.489 142.175C245.994 144.976 242.421 147.854 238.926 150.654C237.761 151.588 239.392 153.144 240.479 152.21C243.974 149.41 247.547 146.532 251.042 143.731C251.663 143.264 251.352 142.331 250.809 141.942C243.586 136.652 233.489 139.375 226.111 142.798C224.014 143.731 221.917 144.82 219.976 146.143C217.568 147.698 215.393 149.643 213.141 151.432C208.714 154.855 204.287 158.355 199.86 161.856C181.997 176.014 164.29 190.404 146.504 204.64C136.563 212.652 126.622 220.509 116.681 228.521C116.215 228.91 116.293 229.766 116.681 230.077C119.865 232.877 123.904 234.277 128.098 234.433C130.272 234.511 132.447 234.277 134.544 233.811C135.709 233.577 136.874 233.266 137.961 232.722C139.048 232.177 139.98 231.633 140.99 231.01C148.99 226.343 155.98 220.12 163.047 214.13C166.697 211.096 170.503 208.218 174.231 205.262C178.425 201.917 182.619 198.572 186.813 195.227C195.2 188.46 203.666 181.77 212.054 175.002C221.529 167.379 231.004 159.833 240.557 152.21C241.722 151.277 240.091 149.721 239.004 150.654L238.926 150.732Z" fill="black"/>
<path d="M289.09 134.63C275.809 101.958 232.006 100.947 198.843 128.251C183.465 101.336 141.448 103.748 112.246 128.173C100.441 108.571 73.1025 102.97 47.3177 115.027C35.9785 120.861 20.2125 128.484 14.8536 140.542C9.80533 151.743 20.4455 158.511 24.8724 165.979C33.4156 177.958 42.8907 188.849 50.9679 200.828C66.4233 219.731 78.3838 241.045 95.8585 257.848C112.867 270.138 141.215 266.638 161.874 249.835C193.872 224.165 225.948 198.495 257.946 172.902C269.596 161.778 293.827 151.354 289.012 134.708L289.09 134.63Z" fill="#C20000"/>
<path d="M285.671 127.937C283.108 121.792 279.458 116.113 274.409 111.757C269.361 107.401 263.847 104.6 257.711 102.889C244.042 99.0772 229.208 101.255 216.316 106.623C207.773 110.123 199.851 115.024 192.705 120.858L195.346 121.169C189.211 110.59 178.57 103.9 166.61 101.878C153.329 99.544 139.582 102.267 127.389 107.556C119.7 110.901 112.555 115.413 106.109 120.78L108.749 121.091C100.905 108.256 86.6923 101.411 71.9359 100.789C55.4709 100.088 40.2485 107.012 26.5017 115.491C20.1332 119.458 13.7646 124.203 9.80371 130.737C7.93974 133.849 6.54177 137.505 6.85243 141.239C7.16309 144.662 8.63873 147.695 10.5804 150.418C12.522 153.141 14.7743 155.552 16.7936 158.275C19.4342 161.775 21.9195 165.509 24.6378 169.009C30.7733 177.1 37.2196 184.956 43.0445 193.28C45.7627 197.169 48.7917 200.747 51.6653 204.559C54.5389 208.371 57.2572 212.182 60.0532 216.072C65.4897 223.695 70.9263 231.318 76.7512 238.553C79.7025 242.209 82.8091 245.787 86.071 249.132C87.5467 250.688 89.0223 252.321 90.8863 253.566C92.3619 254.577 93.8375 255.433 95.4685 256.211C101.992 259.322 109.293 260.645 116.516 260.567C124.438 260.411 132.437 258.7 139.738 255.666C143.543 254.111 147.271 252.244 150.766 249.988C154.727 247.499 158.3 244.543 161.95 241.664C178.648 228.285 195.424 214.905 212.122 201.447C220.432 194.758 228.742 188.068 237.13 181.456C241.324 178.111 245.518 174.766 249.712 171.343C252.741 168.854 255.692 166.287 258.799 163.798C264.158 159.519 269.905 155.785 275.108 151.351C279.691 147.384 284.428 142.561 285.904 136.494C286.603 133.616 286.525 130.66 285.748 127.859C285.205 125.759 281.943 126.692 282.487 128.793C284.04 134.316 281.865 139.45 278.215 143.65C273.943 148.551 268.584 152.363 263.381 156.174C257.556 160.453 252.119 165.12 246.45 169.632C238.373 176.088 230.373 182.545 222.296 188.923C206.219 201.836 190.143 214.672 174.066 227.585C170.105 230.774 166.066 233.963 162.105 237.153C158.455 240.109 154.805 243.22 150.922 245.787C144.32 250.221 136.942 253.566 129.175 255.433C122.185 257.144 114.807 257.689 107.74 256.444C104.4 255.9 101.06 254.966 97.9538 253.566C96.4782 252.866 95.0025 252.088 93.6046 251.232C91.8183 250.143 90.4203 248.665 89.0223 247.187C76.4405 234.274 66.6547 218.95 55.9369 204.481C53.2186 200.825 50.2673 197.247 47.549 193.591C44.6754 189.779 42.0348 185.734 39.0835 181.845C36.1322 177.955 33.1033 174.144 30.0743 170.254C27.0454 166.365 24.0165 162.631 21.3758 158.586C19.5895 155.941 17.5702 153.529 15.5509 151.04C13.5316 148.551 11.7453 146.14 10.8134 143.184C8.71639 136.338 13.8423 129.804 18.5799 125.37C24.0941 120.314 30.6957 116.58 37.2972 113.079C40.6368 111.368 43.8988 109.579 47.4714 108.179C51.3546 106.701 55.3156 105.534 59.4318 104.756C73.4116 102.189 89.0223 104.756 99.6624 114.791C102.07 117.046 104.167 119.691 105.876 122.492C106.497 123.503 107.662 123.503 108.516 122.803C119.001 114.09 131.661 107.79 145.097 105.223C156.436 103.044 169.018 103.667 179.269 109.501C184.784 112.612 189.288 117.124 192.472 122.569C193.094 123.581 194.336 123.581 195.113 122.881C206.53 113.546 220.432 106.623 235.111 104.6C247.227 102.967 260.274 104.834 270.215 112.379C275.73 116.502 279.846 122.258 282.487 128.559C283.263 130.582 286.603 129.648 285.748 127.626L285.671 127.937Z" fill="black"/>
<path d="M49.1007 139.138C49.1007 139.138 49.722 138.749 50.0326 138.593C50.188 138.593 50.3433 138.438 50.4986 138.36C50.5763 138.36 50.7316 138.282 50.8093 138.204C50.8093 138.204 51.2753 138.049 51.0423 138.126C50.887 138.126 51.3529 137.971 51.5083 137.971C51.6636 137.971 51.8966 137.815 52.0519 137.737C52.5179 137.582 52.9839 137.426 53.4499 137.271C54.3819 137.037 55.3139 136.804 56.2459 136.571C56.7118 136.493 57.1778 136.415 57.7215 136.337C57.9545 136.337 58.1875 136.337 58.3428 136.26C58.4205 136.26 59.1971 136.104 58.8865 136.26C60.7504 136.026 62.6921 135.871 64.556 135.948C64.9444 135.948 65.3327 135.948 65.721 135.948C65.954 135.948 66.187 135.948 66.3423 135.948C66.42 135.948 66.653 135.948 66.3423 135.948C66.4977 135.948 66.5753 135.948 66.7307 135.948C67.352 136.026 67.9733 136.182 68.5946 136.415C68.051 136.182 68.8276 136.571 68.983 136.648C68.75 136.493 69.2936 136.804 68.983 136.648C69.216 136.804 69.216 136.96 68.983 136.648C68.983 136.726 69.1383 136.804 69.1383 136.96C69.1383 136.726 68.983 136.571 69.1383 136.882C69.1383 137.037 69.1383 136.415 69.1383 136.804C69.1383 136.337 69.1383 137.115 69.1383 136.804C68.9053 137.271 69.1383 137.037 69.1383 136.804C69.1383 136.882 69.0606 137.037 68.983 137.115C68.9053 137.271 68.8276 137.349 68.75 137.504C68.5946 137.737 69.0606 137.193 68.75 137.504C68.6723 137.582 68.5946 137.66 68.517 137.815C67.8956 138.515 67.119 139.138 66.4977 139.604C65.954 139.993 65.4104 140.305 64.8667 140.693C64.0901 141.238 63.3911 142.016 62.6921 142.716C61.6824 143.649 60.5951 144.583 59.4301 145.283C59.0418 145.516 58.6535 145.75 58.1875 145.983C58.4981 145.828 57.9545 145.983 57.8768 146.061C57.7215 146.061 57.4885 146.139 57.2555 146.216C57.0225 146.216 57.6438 146.216 57.2555 146.216C57.2555 146.216 57.1002 146.216 57.0225 146.216C56.7119 146.216 56.7895 146.216 56.9448 146.216C56.7895 146.216 56.6342 146.139 56.5565 146.139C56.9448 146.216 56.6342 146.139 56.4789 146.061C56.4789 146.061 56.4012 146.061 56.3235 145.983C56.0129 145.828 56.6342 146.216 56.3235 145.983C56.1682 145.828 56.0905 145.75 55.9352 145.594C55.8575 145.516 55.5469 145.05 55.7799 145.439C55.6245 145.283 55.5469 145.127 55.4692 144.972C54.9255 144.194 54.4596 143.338 53.9936 142.483C52.7509 140.382 51.4306 138.282 49.6443 136.571C48.091 135.015 45.6834 137.426 47.2367 138.982C48.79 140.538 49.955 142.249 51.1199 144.35C52.0519 145.905 52.9063 147.694 54.4596 148.784C56.0905 149.95 58.0322 149.795 59.7408 149.017C60.9834 148.472 61.9931 147.617 63.0804 146.839C63.7017 146.294 64.323 145.75 64.9444 145.205C65.6434 144.583 66.2647 143.883 67.0413 143.338C69.449 141.705 74.8079 137.737 71.3129 134.47C70.0703 133.304 68.284 132.992 66.7307 132.759C64.8667 132.526 62.9251 132.526 60.9834 132.759C56.5565 133.148 51.4306 133.926 47.625 136.415C45.761 137.582 47.4697 140.538 49.3336 139.371L49.1007 139.138Z" fill="black"/>
<path d="M80.6392 181.3C85.5321 178.033 90.1144 174.221 94.6189 170.409C99.9002 165.898 105.026 161.308 110.385 156.874C115.744 152.44 121.025 148.162 126.772 144.428C131.743 141.161 136.869 138.282 142.538 136.727C147.82 135.249 153.101 135.404 157.683 138.282L157.372 135.638C142.305 147.695 127.238 159.752 112.249 171.809C109.065 174.376 105.647 176.632 102.541 179.277C100.366 181.066 98.2692 183.011 96.1722 184.956C95.3956 185.656 94.6189 186.434 93.8423 187.134C93.5316 187.445 93.221 187.678 92.9103 187.912C92.9103 187.912 92.289 188.379 92.6773 188.145C92.522 188.223 92.3666 188.379 92.2113 188.456C91.9007 188.612 91.6677 188.845 91.357 189.001C91.2017 189.001 91.124 189.156 90.9687 189.234C90.7357 189.39 91.124 189.234 91.124 189.234C91.0463 189.234 90.9687 189.234 90.8133 189.312C90.658 189.312 90.5803 189.312 90.425 189.39C90.425 189.39 90.2697 189.39 90.192 189.39C89.959 189.39 90.658 189.39 90.3474 189.39C90.2697 189.39 90.1144 189.39 89.959 189.39C89.493 189.39 90.2697 189.468 89.959 189.39C89.8037 189.39 89.726 189.312 89.5707 189.312C89.26 189.312 89.8814 189.468 89.4154 189.312C89.26 189.312 89.1047 189.156 89.027 189.079C88.794 188.923 88.6387 188.767 88.794 188.923C88.0951 188.301 87.3961 187.601 86.7747 186.901C84.9108 184.645 83.0468 181.766 81.2605 179.044C80.0955 177.255 77.1443 178.888 78.3092 180.755C80.0179 183.4 81.7265 186.045 83.6681 188.456C84.7555 189.857 85.9981 191.334 87.6291 192.19C90.891 193.902 93.8423 191.568 96.2499 189.39C100.832 185.267 105.259 181.066 110.23 177.41C114.191 174.532 117.996 171.421 121.802 168.387C125.607 165.353 129.568 162.164 133.452 159.052C142.228 152.051 150.926 145.05 159.702 138.049C160.557 137.349 160.168 135.949 159.392 135.404C149.295 129.103 137.102 134.237 127.86 139.76C115.822 147.073 105.337 156.796 94.6189 165.898C89.493 170.254 84.5225 174.688 78.8529 178.344C77.0666 179.511 78.6976 182.467 80.5615 181.3H80.6392Z" fill="black"/>
<path d="M233.48 144.039C217.015 157.185 200.55 170.409 184.085 183.556C179.969 186.823 175.93 190.09 171.814 193.357C168.008 196.391 164.125 199.347 160.319 202.381C153.329 208.059 146.728 214.205 139.272 219.339C137.175 220.817 135.078 222.139 132.826 223.384C130.729 224.551 128.399 225.095 125.991 225.329C121.564 225.795 116.904 224.94 113.565 221.906V224.317C130.962 210.393 148.359 196.469 165.756 182.467C174.454 175.466 183.153 168.465 191.851 161.542C196.201 158.119 200.472 154.696 204.821 151.273C207.074 149.562 209.248 147.773 211.501 146.062C213.598 144.428 215.617 142.717 217.869 141.394C222.296 138.827 227.034 136.805 232.004 135.949C236.276 135.249 240.781 135.56 244.275 138.127L243.965 135.482C240.47 138.283 236.897 141.161 233.402 143.961C232.703 144.506 232.781 145.75 233.402 146.373C234.101 147.073 235.111 146.917 235.81 146.373C239.305 143.572 242.877 140.694 246.372 137.894C247.304 137.116 246.838 135.793 246.062 135.249C238.684 129.804 228.354 132.604 220.821 136.105C218.724 137.038 216.627 138.127 214.685 139.449C212.277 141.005 210.025 143.028 207.695 144.817C203.268 148.24 198.841 151.74 194.414 155.241C176.551 169.398 158.844 183.789 141.058 198.025C131.117 206.037 121.176 213.894 111.235 221.906C110.536 222.45 110.613 223.773 111.235 224.317C114.497 227.195 118.691 228.673 123.04 228.829C125.292 228.907 127.467 228.673 129.641 228.129C132.049 227.584 134.146 226.573 136.243 225.329C144.32 220.583 151.31 214.36 158.378 208.371C162.028 205.337 165.833 202.459 169.561 199.503C173.755 196.158 177.949 192.813 182.143 189.468C190.531 182.7 198.997 176.01 207.384 169.243C216.86 161.619 226.335 154.074 235.888 146.45C236.587 145.906 236.509 144.661 235.888 144.039C235.189 143.339 234.179 143.495 233.48 144.039Z" fill="black"/>
<path d="M284.036 128.4C270.756 95.7285 226.952 94.7173 193.789 122.021C178.412 95.1062 136.395 97.5177 107.193 121.943C95.3875 102.341 68.0493 96.7398 42.2644 108.797C30.9253 114.631 15.1593 122.255 9.80035 134.312C4.75211 145.513 15.3922 152.281 19.8192 159.749C28.3624 171.728 37.8375 182.619 45.9147 194.598C61.3701 213.501 73.3306 234.815 90.8052 251.618C107.814 263.908 136.162 260.408 156.821 243.605C188.819 217.935 220.895 192.265 252.893 166.672C264.542 155.548 288.774 145.125 283.959 128.478L284.036 128.4ZM48.2447 137.657C55.7782 132.756 81.2524 131.9 65.4087 142.091C53.1376 154.148 55.2345 144.424 48.2447 137.657ZM79.7768 179.818C101.135 165.816 136.55 123.032 158.529 136.801C142.919 149.325 127.23 161.849 111.62 174.373C88.6306 190.242 92.8245 199.655 79.7768 179.818ZM234.641 145.28C212.041 163.405 189.44 181.452 166.917 199.577C155.345 207.978 144.938 219.18 132.356 225.636C124.9 228.359 117.211 227.503 112.474 223.147C116.124 220.269 119.697 217.313 123.347 214.435C154.102 190.087 184.314 165.039 215.303 141.157C224.778 135.245 237.593 131.123 245.281 136.879C241.787 139.679 238.214 142.557 234.719 145.358L234.641 145.28Z" fill="white"/>
<path d="M68.1273 118.134C52.1283 118.134 39.3135 125.135 28.984 133.147C28.984 133.147 24.7901 136.337 24.8678 136.414L51.1186 171.497L94.9219 136.414C90.5726 127.235 80.3208 118.134 68.1273 118.134Z" fill="#FA4616"/>
<path d="M154.644 118.134C138.645 118.134 125.83 125.135 115.5 133.147C115.5 133.147 111.617 136.259 111.462 136.414L57.2515 179.821L83.5023 214.903L181.438 136.492C177.089 127.313 166.837 118.212 154.644 118.212V118.134Z" fill="#FA4616"/>
<path d="M241.48 118.134C225.481 118.134 212.666 125.135 202.337 133.147C202.337 133.147 198.376 136.259 198.221 136.414L89.8774 223.227L96.7897 232.406C107.43 246.641 130.652 246.641 148.437 232.406L268.275 136.414H268.352C264.003 127.235 253.751 118.134 241.558 118.134H241.48Z" fill="#FA4616"/>
<path d="M110.83 259.633C109.509 260.334 109.354 260.878 109.276 261.189C109.199 263.134 115.023 264.69 115.412 264.845C111.761 265.001 108.733 264.379 106.791 263.912C103.684 263.056 101.354 261.812 99.801 261.034C97.7041 259.867 95.9954 258.7 94.8305 257.844C93.1218 255.9 91.4909 254.033 89.7822 252.088C92.0345 253.488 94.7528 254.966 98.0147 256.289C102.908 258.233 107.335 259.244 110.83 259.711V259.633Z" fill="black"/>
<path d="M139.405 22.9935C141.014 21.9244 141.818 20.3034 141.201 19.3727C140.584 18.442 138.781 18.5541 137.172 19.6231C135.564 20.6921 134.76 22.3132 135.377 23.2439C135.994 24.1746 137.797 24.0625 139.405 22.9935Z" fill="#FFF5F3"/>
<path d="M127.491 30.3887C131.317 28.1762 133.966 25.5984 133.409 24.631C132.851 23.6637 129.297 24.6731 125.471 26.8856C121.645 29.0981 118.995 31.6759 119.553 32.6433C120.111 33.6106 123.664 32.6012 127.491 30.3887Z" fill="#FFF5F3"/>
<path d="M285.432 135.255C284.966 136.733 284.422 138.211 283.956 139.767C284.422 139.767 285.665 140.078 286.752 141.089C288.305 142.567 288.461 144.512 288.461 144.901C288.927 143.968 289.393 142.723 289.781 141.167C290.247 139.067 290.169 137.278 290.014 136.111C289.548 134.633 288.849 132.999 287.995 131.21C286.597 128.41 284.966 126.154 283.568 124.443C284.189 126.076 284.733 128.021 285.121 130.354C285.432 132.221 285.51 133.855 285.51 135.333L285.432 135.255Z" fill="black"/>
<path d="M324.957 74.6536C325.345 73.4868 326.433 72.6311 327.675 72.5533C329.384 72.4755 330.316 73.8757 330.394 73.9535C330.704 73.7202 331.248 73.1756 331.403 72.3977C331.559 71.6976 331.403 71.0753 330.782 70.1419C330.238 69.2862 328.374 66.019 326.743 66.408C325.112 66.7969 324.724 70.842 324.802 72.7867C324.802 73.5646 324.879 74.1869 324.957 74.7314V74.6536Z" fill="black"/>
<path d="M249.242 33.2722C234.253 34.7502 222.525 47.1186 222.059 62.443C221.671 47.1186 209.866 34.7502 194.799 33.2722C209.788 31.7942 221.516 19.4257 221.982 4.10132C222.37 19.4257 234.175 31.7942 249.242 33.2722Z" fill="#F7EEED"/>
<path d="M249.246 32.5694C233.791 34.3586 222.064 46.8048 221.365 62.4404H222.762C222.141 46.8048 210.258 34.2808 194.803 32.5694V33.9696C210.258 32.1805 221.986 19.7342 222.685 4.09866H221.287C221.908 19.7342 233.791 32.2583 249.246 33.9696C250.101 34.0474 250.101 32.6472 249.246 32.5694C234.568 30.9359 223.306 18.8786 222.685 4.09866C222.685 3.16519 221.287 3.16519 221.287 4.09866C220.666 18.8786 209.482 30.8581 194.803 32.5694C193.871 32.6472 193.871 33.8918 194.803 33.9696C209.482 35.6032 220.743 47.6605 221.365 62.4404C221.365 63.3738 222.762 63.3738 222.762 62.4404C223.384 47.6605 234.568 35.681 249.246 33.9696C250.101 33.8918 250.178 32.4916 249.246 32.5694Z" fill="black"/>
<path d="M87.0713 319.696C72.0819 321.174 60.3544 333.542 59.8885 348.867C59.5001 333.542 47.695 321.174 32.6279 319.696C47.6173 318.218 59.3448 305.85 59.8108 290.525C60.1991 305.85 72.0042 318.218 87.0713 319.696Z" fill="#F7EEED"/>
<path d="M87.0755 318.993C71.6201 320.782 59.8926 333.229 59.1936 348.864H60.5916C59.9703 333.229 48.0875 320.705 32.6321 318.993V320.393C48.0875 318.604 59.8149 306.158 60.5139 290.522H59.116C59.7373 306.158 71.6201 318.682 87.0755 320.393C87.9298 320.471 87.9298 319.071 87.0755 318.993C72.3967 317.36 61.1353 305.302 60.5139 290.522C60.5139 289.589 59.116 289.589 59.116 290.522C58.4946 305.302 47.3108 317.282 32.6321 318.993C31.7001 319.071 31.7001 320.316 32.6321 320.393C47.3108 322.027 58.5723 334.084 59.1936 348.864C59.1936 349.798 60.5916 349.798 60.5916 348.864C61.2129 334.084 72.3967 322.105 87.0755 320.393C87.9298 320.316 88.0074 318.915 87.0755 318.993Z" fill="black"/>
</g>
<defs>
<clipPath id="clip0_432_1405">
<rect width="332.097" height="350.984" fill="white" transform="translate(0.0166016 0.989624)"/>
</clipPath>
</defs>
</svg>
