<svg width="369" height="405" viewBox="0 0 369 405" fill="none" xmlns="http://www.w3.org/2000/svg">
<g clip-path="url(#clip0_432_2018)">
<path d="M321.865 266.351C322.272 269.581 322.889 272.7 323.597 275.794C325.172 282.665 327.317 289.361 330.112 295.841C330.525 296.794 330.997 297.727 331.463 298.66C333.208 302.178 334.166 305.871 333.989 309.826C333.904 311.725 333.523 313.546 332.657 315.249C330.991 318.518 328.091 320.104 324.424 319.784C323.971 319.745 323.519 319.517 322.961 319.732C323.591 322.597 324.102 325.462 324.312 328.366C324.575 331.988 324.404 335.564 323.197 339.023C321.104 345.059 316.335 347.219 310.358 344.896C307.229 343.676 304.612 341.692 302.197 339.427C298.386 335.858 295.302 331.72 292.652 327.25C288.309 319.915 285.18 312.11 283.677 303.705C283.481 302.595 283.317 301.479 283.133 300.324C282.444 300.383 282.031 300.82 281.545 301.094C276.192 304.09 270.806 303.378 266.456 299.071C263.885 296.52 262.172 293.427 260.854 290.105C258.932 285.269 257.928 280.225 257.41 275.069C256.629 267.343 257.023 259.655 258.223 251.831C255.553 251.955 252.942 252.079 250.554 250.689C248.192 249.318 246.742 247.204 245.522 244.75C245.043 245.324 245.03 245.925 244.899 246.447C236.449 280.858 228.006 315.275 219.569 349.693C218.703 353.216 217.437 356.558 215.246 359.501C212.733 362.875 209.578 365.328 205.373 366.255C204.139 366.529 202.88 366.581 201.627 366.581C159.404 366.549 117.188 366.51 74.9655 366.471C64.1605 366.457 53.3556 366.36 42.5506 366.464C37.4138 366.51 33.9762 363.299 32.9856 358.881C32.2246 355.487 32.5657 352.133 33.3923 348.812C35.7016 339.558 38.0436 330.317 40.3726 321.064C40.4513 320.763 40.53 320.457 40.5956 320.15C40.6744 319.804 40.5956 319.595 40.2086 319.445C35.7541 317.716 34.4158 314.042 34.1665 309.722C33.95 305.937 34.8487 302.36 36.5151 298.993C40.2611 291.423 42.7737 283.435 44.6565 275.239C45.3191 272.341 45.8636 269.424 46.2638 266.546C46.0604 266.188 45.7783 266.259 45.5356 266.253C43.1673 266.201 41.4682 265.046 40.2742 263.081C39.1852 261.293 38.8046 259.303 38.6997 257.254C38.5619 254.676 38.949 252.15 39.6378 249.677C41.1008 244.43 41.8552 239.079 42.1964 233.65C42.8196 223.789 41.9077 214.079 39.6444 204.466C38.2011 198.325 35.5901 192.648 32.8281 187.029C31.129 183.564 29.2593 180.19 27.2846 176.914C26.8713 176.744 26.6548 177.025 26.399 177.168C23.1909 178.904 19.937 178.506 17.3063 175.967C14.7477 173.501 13.6915 170.368 13.685 166.916C13.6784 162.009 12.4975 157.33 11.2183 152.664C10.5819 152.592 10.3785 153.12 10.0243 153.381C8.05615 154.83 5.98307 154.563 4.54635 152.585C3.37204 150.967 2.95873 149.087 2.81441 147.143C2.63728 144.735 2.89969 142.353 3.48357 140.016C3.66726 139.279 3.62789 138.816 2.88001 138.346C1.74506 137.641 1.28584 136.466 1.22023 135.142C1.13495 133.373 1.6073 131.729 2.35518 130.162C2.68976 129.464 2.72912 128.838 2.54543 128.074C0.531395 119.754 -0.308334 111.309 0.328023 102.773C1.10871 92.2798 4.00184 82.491 10.6409 74.053C13.4488 70.4834 16.8011 67.5076 20.7308 65.2039C21.459 64.7798 21.8723 64.2903 22.1085 63.455C22.8629 60.7664 24.608 58.8021 26.9828 57.3664C29.7251 55.7088 32.756 54.9322 35.9115 54.5929C43.2329 53.8098 50.3378 55.0105 57.318 57.0923C68.4444 60.4074 78.5474 65.6477 87.3318 73.283C89.7788 75.4104 91.9568 77.7858 93.9512 80.3505C96.2473 77.4726 97.5594 77.2572 101.023 79.2215C101.43 78.6603 101.463 77.9751 101.62 77.3486C104.369 66.3786 107.085 55.4021 109.873 44.4452C110.641 41.4433 111.986 38.6633 113.947 36.2291C117.503 31.8176 122.01 29.5336 127.822 29.5597C149.327 29.6706 170.832 29.651 192.337 29.6641C216.466 29.6771 240.589 29.6771 264.718 29.6706C271.534 29.6706 278.35 29.6119 285.167 29.6315C287.345 29.638 289.431 30.1405 291.274 31.3739C293.643 32.9596 294.942 35.185 295.243 37.9911C295.447 39.8771 295.184 41.7369 294.732 43.5707C292.934 50.8601 291.143 58.143 289.352 65.4324C289.247 65.8696 289.004 66.3003 289.28 66.8615C290.146 66.346 290.986 65.837 291.839 65.3345C300.498 60.2704 309.716 56.6812 319.648 55.0497C325.008 54.1687 330.387 53.9207 335.741 55.1867C338.056 55.7349 340.234 56.6029 342.163 58.0124C344.079 59.4155 345.45 61.2297 346.086 63.5268C346.283 64.2381 346.598 64.6949 347.241 65.0734C354.831 69.5437 360.014 76.076 363.452 84.0572C366.463 91.0464 367.781 98.3945 367.985 105.978C368.188 113.476 367.335 120.863 365.59 128.152C365.42 128.87 365.485 129.451 365.781 130.091C366.45 131.52 366.915 133.001 366.942 134.6C366.975 136.212 366.515 137.608 365.065 138.483C364.475 138.835 364.501 139.233 364.632 139.795C365.203 142.19 365.512 144.611 365.348 147.077C365.236 148.709 364.895 150.275 364.14 151.737C362.441 155.019 359.535 154.83 357.705 153.003C357.56 152.859 357.39 152.735 357.219 152.585C356.681 152.84 356.74 153.381 356.629 153.78C355.605 157.395 354.779 161.062 354.51 164.821C354.379 166.688 354.529 168.574 354.018 170.407C353.447 172.457 352.522 174.297 351 175.811C348.31 178.48 344.997 178.93 341.671 177.096C341.487 176.999 341.304 176.907 341.212 176.862C340.904 176.803 340.838 176.966 340.766 177.09C336.705 183.916 333.07 190.957 330.315 198.416C328.432 203.526 327.396 208.851 326.661 214.235C325.907 219.776 325.579 225.342 325.795 230.928C326.038 237.141 326.733 243.288 328.413 249.305C329.331 252.588 329.843 255.935 329.193 259.355C329.115 259.766 329.023 260.171 328.911 260.569C327.855 264.328 325.874 265.992 321.865 266.331V266.351ZM91.8584 115.949C92.1996 115.479 92.1865 114.925 92.2849 114.357C91.8453 114.455 91.7535 114.748 91.6551 115.042C90.3495 116.98 89.6279 119.166 89.1818 121.411C88.6438 124.119 87.8697 126.651 85.5145 128.407C86.3215 129.588 87.0366 130.645 87.9025 131.924C88.3749 130.045 88.7882 128.453 89.1818 126.86C90.0806 123.225 90.9662 119.584 91.8584 115.943V115.949ZM268.405 151.039C268.064 151.469 268.096 151.978 268.083 152.487C268.392 152.272 268.529 151.952 268.621 151.619C271.495 146.418 274.394 141.23 277.563 136.199C279.197 133.602 280.876 131.024 282.582 128.368C280.391 126.71 279.544 124.374 279.052 121.796C278.678 119.839 278.121 117.9 277.051 116.106C276.75 116.543 276.684 116.954 276.586 117.365C274.722 124.948 272.846 132.531 270.99 140.114C270.104 143.756 269.258 147.404 268.392 151.045L268.405 151.039ZM48.7567 293.087C48.6518 293.374 48.514 293.661 48.4418 293.955C47.753 296.67 47.0576 299.385 46.3884 302.099C45.1026 307.281 43.8299 312.462 42.5506 317.651C42.4391 317.996 42.3079 318.336 42.216 318.688C40.0839 327.178 37.9452 335.668 35.8394 344.172C35.0587 347.304 34.114 350.397 33.8122 353.634C33.6023 355.912 33.8516 358.124 34.6716 360.238C36.0558 363.808 39.1524 365.348 41.934 365.237C43.0886 365.191 44.2432 365.237 45.3913 365.237C58.0266 365.283 70.6618 365.342 83.2971 365.374C85.1275 365.374 86.9578 365.544 88.7816 365.27C93.2755 365.276 97.7693 365.296 102.263 365.289C107.695 365.289 113.127 365.263 118.566 365.257C118.953 365.479 119.386 365.394 119.799 365.394C124.254 365.394 128.708 365.4 133.163 365.394C133.576 365.394 134.002 365.466 134.402 365.276C137.283 365.283 140.169 365.289 143.049 365.302C156.157 365.335 169.258 365.315 182.365 365.433C187.981 365.485 192.442 363.475 195.709 358.914C195.88 358.724 196.077 358.548 196.221 358.339C197.999 355.775 199.114 352.923 199.855 349.908C203.359 335.636 206.868 321.364 210.378 307.085C214.813 289.067 219.248 271.049 223.676 253.031C229.318 230.054 234.947 207.063 240.582 184.086C245.548 163.836 250.534 143.593 255.501 123.343C261.963 97.0175 268.424 70.6987 274.867 44.3734C275.287 42.6571 275.752 40.9538 275.713 39.1396C275.621 34.813 272.813 31.6088 268.47 31.0737C267.224 30.9236 265.964 30.8909 264.705 30.8844C259.201 30.8648 253.69 30.8844 248.186 30.8844C207.964 30.8714 167.736 30.8844 127.514 30.8257C122.272 30.8192 118.225 32.9662 115.003 36.9013C112.773 39.6291 111.553 42.8202 110.706 46.1941C101.2 84.0572 91.6747 121.92 82.1556 159.783C76.5399 182.128 70.9374 204.472 65.3283 226.817C65.1905 227.365 64.9412 227.9 65.0921 228.488C64.6066 228.899 64.6394 229.512 64.5082 230.047C60.7622 244.9 57.0097 259.747 53.3031 274.606C52.6602 277.177 51.8467 279.716 51.5055 282.352C50.3772 285.87 49.5374 289.459 48.7633 293.068L48.7567 293.087ZM72.3085 193.607C72.4004 193.365 72.5184 193.124 72.5775 192.876C77.2222 174.427 81.867 155.985 86.4855 137.53C86.8266 136.179 87.6598 134.77 87.2793 133.458C86.9053 132.166 85.8294 131.07 85.0553 129.888C84.9963 129.803 84.9372 129.712 84.8913 129.621C84.6158 129.125 84.255 129.073 83.7104 129.223C81.1256 129.934 78.8623 129.223 76.8024 127.624C76.4219 127.324 76.1726 126.789 75.5559 126.789C74.9523 128.988 74.152 131.083 72.853 132.942C69.4744 137.772 64.8034 139.54 59.0434 138.633C58.2824 138.516 57.4558 138.509 56.8588 137.883C56.9113 137.393 57.154 137.099 57.6854 137.184C58.1512 137.256 58.6104 137.36 59.0762 137.445C64.6066 138.489 69.481 136.316 72.3282 131.52C73.4041 129.712 74.1126 127.761 74.5587 125.712C74.8736 124.283 75.0704 122.84 75.1885 121.385C75.2213 120.994 75.3656 120.635 75.8446 120.687C76.2972 120.739 76.4153 121.105 76.3891 121.496C76.3497 122.018 76.3694 122.566 76.1988 123.043C75.5034 125 76.6908 126.058 78.0554 127.037C78.4753 127.337 78.941 127.598 79.42 127.807C82.0244 128.955 84.7142 128.198 86.3477 125.868C87.0497 124.87 87.463 123.754 87.686 122.56C88.0665 120.556 88.5914 118.599 89.3852 116.719C90.0543 115.12 90.8547 113.58 92.1733 112.419C92.8556 111.818 93.1639 111.126 93.3673 110.304C94.5088 105.703 95.6766 101.116 96.8181 96.5151C97.6906 92.978 98.5369 89.4345 99.3963 85.8975C99.7965 84.4422 100.184 82.9804 100.597 81.5317C100.741 81.0226 100.656 80.6246 100.229 80.2852C99.6522 79.8284 99.0552 79.4238 98.3138 79.2672C96.8115 78.9474 95.7291 79.5413 95.2764 80.99C95.1714 81.3359 95.1649 81.7144 95.0599 82.0603C94.8631 82.7063 94.3776 82.8173 93.8856 82.3343C93.7347 82.1908 93.6297 82.0015 93.5117 81.8319C90.7038 77.8054 87.2202 74.4185 83.3103 71.4818C71.6459 62.7437 58.6498 57.1967 44.0661 55.6631C39.9921 55.2324 35.8918 55.3695 31.8966 56.505C29.1871 57.275 26.6876 58.4432 24.8507 60.675C24.1422 61.5364 23.5255 62.4631 23.3156 63.7226C24.6342 63.194 25.7823 62.7111 26.9566 62.2738C27.4618 62.0846 28.1768 61.6474 28.4786 62.3587C28.8263 63.1809 27.9144 63.1809 27.4486 63.3506C19.5696 66.222 13.5144 71.3187 9.08613 78.347C3.78534 86.7589 1.7057 96.0974 1.358 105.873C1.10215 113.208 1.96156 120.452 3.70006 127.578C3.97559 128.701 3.96247 129.693 3.42452 130.737C2.85377 131.853 2.49951 133.053 2.4339 134.332C2.35518 135.859 2.70288 137.139 4.26425 137.785C4.85468 138.026 5.00557 138.463 4.88749 139.051C4.77596 139.612 4.69068 140.18 4.57259 140.741C4.08712 142.947 3.85751 145.172 4.06088 147.423C4.21177 149.107 4.60539 150.725 5.67473 152.089C6.55382 153.205 7.67565 153.395 8.86308 152.709C10.3785 151.835 10.7131 151.039 10.162 149.596C10.0308 149.257 9.86025 148.924 9.76841 148.578C9.63064 148.069 9.02709 147.378 9.70936 147.064C10.5885 146.66 10.6803 147.645 10.8706 148.154C13.206 154.334 14.8658 160.664 14.9117 167.327C14.9117 167.947 14.9905 168.58 15.1086 169.187C15.535 171.38 16.401 173.37 18.0148 174.976C20.8095 177.749 24.6211 177.71 27.3502 174.878C29.01 173.155 29.7841 171.021 30.1646 168.711C30.2696 168.097 30.0137 167.751 29.5217 167.438C28.5442 166.818 27.6586 166.081 26.8648 165.245C26.4974 164.86 25.7101 164.443 26.2415 163.862C26.9172 163.125 27.324 164.058 27.711 164.423C29.6004 166.205 31.6866 167.654 34.2255 168.365C38.0633 169.448 41.3698 168.521 44.1317 165.689C45.5422 164.247 46.4869 162.505 47.1363 160.606C48.3762 157.029 48.5665 153.355 47.9892 149.642C47.5693 146.96 46.9002 144.337 45.5946 141.922C45.5946 141.478 45.2994 141.165 45.1026 140.813C44.5975 139.919 44.0595 139.044 43.5412 138.157C43.3772 137.876 43.3116 137.556 43.6003 137.328C43.9611 137.034 44.2891 137.21 44.5319 137.524C44.7549 137.804 44.932 138.117 45.142 138.411C45.5225 138.953 45.7193 139.612 46.2244 140.069C46.2769 140.604 46.5984 141.035 46.8149 141.504C48.5665 145.413 49.5243 149.499 49.4718 153.786C49.4193 157.989 48.5534 161.983 45.9423 165.402C43.2067 168.985 39.5853 170.525 35.0587 169.801C33.8319 169.605 32.7035 169.057 31.4308 168.665C30.9453 171.419 30.0465 173.899 28.0981 175.863C28.9444 177.344 29.7841 178.787 30.5976 180.235C33.8319 185.972 36.8169 191.845 39.0146 198.038C41.6781 205.543 42.918 213.38 43.3838 221.322C43.5412 223.978 43.6003 226.634 43.6987 229.29C43.456 229.943 43.5281 230.628 43.515 231.3C43.351 237.794 42.4522 244.176 40.7334 250.441C40.0774 252.829 39.7887 255.25 39.9593 257.717C40.0905 259.609 40.53 261.43 41.6978 262.996C42.695 264.341 44.0136 265.059 45.7324 265.032C46.3163 265.026 46.5787 264.824 46.6049 264.217C46.6377 263.545 46.7755 262.872 46.8674 262.2C46.9198 261.802 47.0379 261.463 47.5365 261.541C47.9957 261.613 48.1007 261.952 48.0548 262.357C48.0351 262.566 47.9695 262.768 47.9498 262.97C47.4053 268.002 46.5065 272.974 45.2929 277.888C43.4494 285.341 41.0417 292.604 37.65 299.522C36.397 302.08 35.636 304.775 35.3801 307.607C35.2161 309.441 35.3801 311.262 35.9181 313.024C36.292 314.238 37.158 314.623 38.3717 314.205C39.2901 313.885 40.0052 313.272 40.635 312.567C42.2226 310.785 43.3772 308.756 44.0333 306.465C44.4794 304.912 44.8533 303.339 45.2469 301.773C53.4146 269.274 61.5823 236.782 69.7303 204.277C70.4126 201.555 71.2392 198.86 71.6787 196.08C71.7509 195.845 71.8165 195.61 71.8886 195.375C72.0264 195.219 72.0592 195.036 72.0002 194.84C72.0395 194.684 72.0723 194.527 72.1117 194.37C72.361 194.155 72.3741 193.881 72.3216 193.587L72.3085 193.607ZM280.122 300.396C282.162 299.737 283.507 298.628 282.936 296.207C282.831 295.763 282.916 295.267 282.956 294.803C283.041 293.818 283.146 292.833 283.251 291.847C283.297 291.423 283.553 291.149 283.986 291.214C284.34 291.266 284.458 291.58 284.438 291.926C284.425 292.134 284.412 292.343 284.386 292.546C283.861 296.415 284.242 300.253 284.97 304.057C286.662 312.919 290.107 321.096 294.974 328.679C298.012 333.404 301.535 337.731 306.101 341.118C308.043 342.56 310.129 343.734 312.51 344.335C316.21 345.261 319.3 343.969 321.177 340.667C321.642 339.852 321.997 338.984 322.266 338.083C323.361 334.468 323.381 330.787 323 327.08C322.41 321.39 320.842 315.947 318.743 310.635C318.631 310.348 318.5 310.061 318.415 309.761C318.329 309.448 318.349 309.121 318.697 308.958C319.064 308.788 319.3 309.03 319.458 309.31C319.635 309.63 319.766 309.97 319.904 310.309C320.789 312.541 321.616 314.792 322.22 317.115C322.423 317.898 322.836 318.218 323.564 318.401C326.615 319.171 329.515 318.049 331.194 315.406C331.699 314.609 332.054 313.742 332.309 312.834C333.018 310.315 332.933 307.79 332.447 305.245C331.936 302.55 330.702 300.142 329.6 297.662C324.654 286.529 321.544 274.887 320.186 262.788C320.16 262.533 320.107 262.272 320.133 262.018C320.16 261.724 320.396 261.58 320.678 261.554C320.973 261.528 321.196 261.659 321.242 261.959C321.321 262.422 321.36 262.892 321.426 263.355C321.675 265.104 322.147 265.404 323.866 264.882C324.955 264.55 325.828 263.91 326.49 262.99C327.205 261.998 327.645 260.895 327.901 259.707C328.557 256.679 328.321 253.671 327.494 250.728C325.323 242.982 324.509 235.072 324.562 227.065C324.601 220.428 325.244 213.844 326.635 207.344C327.396 203.774 328.222 200.224 329.593 196.831C332.408 189.854 335.76 183.139 339.631 176.685C339.979 176.105 339.979 175.765 339.519 175.243C338.142 173.683 337.354 171.817 336.974 169.781C336.908 169.422 336.889 169.05 336.587 168.724C336.023 168.933 335.445 169.161 334.855 169.35C329.961 170.975 325.257 169.5 322.161 165.376C321.052 163.901 320.278 162.257 319.7 160.514C318.789 157.747 318.644 154.895 318.644 152.018C318.69 151.711 318.749 151.404 318.782 151.097C319.235 146.458 320.658 142.137 323.177 138.196C323.479 137.726 323.761 136.812 324.529 137.367C325.152 137.824 324.457 138.385 324.181 138.835C320.888 144.213 319.366 150.008 320.042 156.305C320.415 159.738 321.472 162.948 323.879 165.539C326.654 168.528 330.053 169.5 334.015 168.352C336.443 167.647 338.457 166.29 340.267 164.58C340.569 164.293 340.864 163.999 341.192 163.738C341.415 163.562 341.678 163.575 341.894 163.797C342.104 164.019 342.111 164.28 341.953 164.508C341.776 164.763 341.553 164.991 341.337 165.213C340.523 166.029 339.657 166.792 338.68 167.406C338.135 167.751 337.873 168.13 337.991 168.815C338.358 170.845 339.001 172.75 340.333 174.369C343.18 177.834 347.543 177.932 350.508 174.571C352.312 172.528 353.178 170.075 353.211 167.399C353.296 160.795 354.897 154.517 357.173 148.37C357.318 147.978 357.508 147.606 357.705 147.241C357.849 146.98 358.111 146.927 358.387 147.012C358.702 147.104 358.767 147.397 358.695 147.639C358.499 148.285 358.249 148.918 358.013 149.544C357.628 150.558 357.873 151.461 358.748 152.252C360.427 153.545 361.68 153.368 362.776 151.652C363.635 150.301 363.963 148.781 364.101 147.201C364.331 144.565 363.845 142.007 363.327 139.449C363.163 138.64 363.189 138.046 364.075 137.68C365.289 137.178 365.689 136.14 365.721 134.9C365.754 133.458 365.407 132.094 364.757 130.835C364.193 129.745 364.193 128.694 364.468 127.526C366.332 119.617 367.211 111.616 366.646 103.478C366.318 98.7208 365.577 94.0548 364.127 89.5128C360.191 77.1854 352.922 67.8273 340.326 63.2462C339.959 63.1157 339.408 63.0243 339.605 62.437C339.775 61.9149 340.247 61.9932 340.667 62.1172C340.969 62.2021 341.264 62.3065 341.56 62.4239C342.609 62.8416 343.659 63.2658 344.912 63.7748C344.236 61.4842 342.904 59.9506 341.166 58.7433C339.29 57.4447 337.184 56.6746 334.96 56.2048C329.639 55.0889 324.312 55.3956 319.025 56.3483C308.528 58.2343 298.852 62.2151 289.903 67.9318C283.992 71.7037 278.652 76.1282 274.591 81.9167C274.349 82.256 274.125 82.6998 273.647 82.6345C273.03 82.5497 273.115 81.982 273.017 81.5317C272.525 79.2933 270.753 78.5298 268.753 79.7109C267.736 80.3113 266.962 81.0814 266.778 82.367C266.607 83.5482 266.246 84.6967 265.971 85.8648C265.374 88.2403 264.77 90.6091 264.186 92.9846C261.982 101.945 259.778 110.898 257.58 119.858C257.285 121.052 257.659 121.483 258.892 121.411C259.424 121.379 259.916 121.209 260.388 120.967C261.28 120.511 262.061 119.897 262.783 119.212C264.009 118.057 264.974 116.693 265.899 115.296C266.771 113.985 267.742 112.758 269.054 111.844C271.403 110.213 273.843 110.389 275.916 112.34C277.078 113.437 277.871 114.774 278.527 116.21C279.439 118.214 280.03 120.321 280.43 122.481C280.679 123.839 281.165 125.092 282.024 126.182C283.586 128.172 285.96 128.825 288.355 127.95C289.254 127.624 290.021 127.095 290.776 126.521C291.819 125.725 292.37 124.785 291.983 123.434C291.858 122.99 291.845 122.508 291.806 122.038C291.766 121.496 291.504 120.733 292.37 120.706C293.105 120.687 292.934 121.45 292.987 121.933C293.282 124.746 293.826 127.493 295.04 130.078C297.815 135.99 303.017 138.607 309.46 137.341C309.866 137.263 310.286 137.217 310.7 137.184C310.923 137.171 311.106 137.308 311.172 137.524C311.251 137.804 311.159 138.039 310.89 138.176C310.7 138.268 310.509 138.359 310.306 138.405C304.887 139.592 300.098 138.607 296.319 134.3C294.705 132.466 293.662 130.313 292.934 128.002C292.803 127.591 292.77 127.121 292.344 126.678C290.592 128.544 288.427 129.301 286.052 129.738C283.763 130.162 282.004 131.389 280.692 133.445C270.655 149.153 262.245 165.683 255.606 183.081C250.613 196.165 246.559 209.517 244.997 223.502C244.427 228.599 244.256 233.695 245.122 238.779C245.568 241.415 246.29 243.973 247.733 246.264C249.944 249.768 253.152 251.152 257.259 250.643C258.105 250.539 258.551 250.264 258.689 249.344C258.905 247.85 259.273 246.382 259.627 244.907C259.752 244.404 259.725 243.53 260.532 243.732C261.339 243.928 260.913 244.711 260.795 245.2C259.201 251.818 258.341 258.526 258.223 265.326C258.112 271.767 258.617 278.143 260.257 284.395C261.385 288.708 262.966 292.833 265.728 296.422C267.014 298.099 268.516 299.548 270.419 300.52C273.286 301.988 276.205 302.165 279.17 300.788C279.361 300.722 279.544 300.657 279.735 300.592C279.925 300.631 280.043 300.546 280.122 300.383V300.396ZM224.805 276.949C227.521 276.923 229.259 275.989 230.82 274.71C235.695 270.73 238.653 265.483 240.372 259.577C241.914 254.278 243.075 248.868 244.4 243.51C244.591 242.734 244.564 241.977 244.374 241.193C243.502 237.624 243.246 233.982 243.331 230.334C243.429 226.067 243.849 221.805 244.564 217.589C246.021 208.988 248.264 200.59 251.026 192.321C254.825 180.921 259.47 169.866 264.829 159.111C265.177 158.406 265.446 157.682 265.636 156.912C266.935 151.6 268.254 146.288 269.566 140.976C271.265 134.098 272.958 127.213 274.65 120.334C275.037 118.768 274.814 118.364 273.273 117.776C272.984 117.665 272.676 117.567 272.367 117.541C271.213 117.463 270.071 117.45 268.943 117.822C266.588 118.599 264.37 119.636 262.402 121.163C261.215 122.083 259.935 122.716 258.361 122.612C256.924 122.521 256.924 122.547 256.557 123.969C256.531 124.067 256.511 124.172 256.485 124.276C254.011 134.398 251.538 144.519 249.058 154.641C245.811 167.901 242.55 181.156 239.296 194.416C235.813 208.584 232.329 222.751 228.846 236.919C226.051 248.307 223.263 259.694 220.462 271.075C220.35 271.532 220.16 271.983 220.278 272.452C220.796 274.547 222.574 277.053 224.798 276.949H224.805ZM274.171 80.3113C274.368 80.1286 274.499 80.0438 274.591 79.9198C277.93 75.567 282.037 72.03 286.485 68.865C287.181 68.369 287.535 67.8208 287.732 67.0051C289.024 61.5886 290.389 56.1917 291.701 50.7753C292.514 47.4405 293.479 44.1254 294.03 40.745C294.837 35.7331 291.812 31.3347 285.987 30.9758C281.814 30.7213 277.616 30.8975 273.43 30.8909C273.187 30.8909 272.905 30.7931 272.656 31.1324C272.886 31.5827 273.384 31.7915 273.752 32.1113C275.851 33.9385 276.828 36.2552 276.92 38.9961C276.979 40.7385 276.638 42.4156 276.231 44.0862C273.489 55.2585 270.74 66.4308 267.985 77.5966C267.9 77.9424 267.683 78.2818 267.972 78.6277C271.285 77.59 272.013 77.7793 274.171 80.3048V80.3113Z" fill="#121212"/>
<path d="M185.501 404.632C175.752 404.671 164.849 404.463 153.939 404.208C143.928 403.973 133.923 403.582 123.925 402.962C115.921 402.472 107.924 401.898 99.973 400.821C97.2242 400.449 94.482 400.025 91.7988 399.288C90.9394 399.053 90.0865 398.792 89.3058 398.348C88.0725 397.65 88.0856 396.899 89.3518 396.188C90.1784 395.724 91.0903 395.47 92.0022 395.235C95.0003 394.472 98.064 394.054 101.128 393.669C108.311 392.768 115.528 392.266 122.744 391.848C129.337 391.47 135.944 391.254 142.543 391C152.502 390.615 162.461 390.53 172.426 390.419C183.913 390.288 195.394 390.399 206.881 390.628C217.312 390.837 227.736 391.176 238.154 391.744C244.747 392.103 251.347 392.481 257.921 393.088C263.812 393.63 269.716 394.178 275.496 395.535C276.618 395.796 277.74 396.083 278.737 396.677C279.859 397.349 279.839 398.1 278.684 398.766C277.3 399.555 275.745 399.862 274.21 400.156C270.195 400.932 266.141 401.415 262.073 401.846C255.867 402.498 249.642 402.89 243.416 403.268C239.808 403.49 236.186 403.575 232.571 403.745C226.077 404.045 219.575 404.215 213.081 404.345C204.27 404.515 195.466 404.652 185.488 404.639L185.501 404.632Z" fill="#121212"/>
<path d="M208.297 0.388407C215.113 0.310096 221.929 0.440614 228.719 1.10625C235.234 1.74579 241.735 2.57457 248.027 4.51275C249.581 4.98914 251.097 5.56342 252.52 6.35305C253.301 6.79028 254.042 7.27972 254.639 7.95188C255.82 9.27664 255.82 10.6927 254.626 12.0175C253.846 12.8854 252.848 13.4728 251.818 13.9883C249.227 15.2804 246.459 16.0701 243.651 16.7161C237.668 18.0866 231.586 18.7913 225.472 19.3004C217.048 19.9921 208.605 20.1096 200.175 19.7637C190.853 19.3852 181.563 18.589 172.51 16.1157C170.995 15.7046 169.512 15.1825 168.082 14.53C167.124 14.0992 166.205 13.5968 165.392 12.9246C163.398 11.267 163.391 9.33537 165.379 7.64517C166.343 6.82291 167.465 6.25516 168.626 5.75919C170.942 4.77379 173.363 4.10162 175.816 3.54693C183.098 1.91546 190.492 1.15846 197.925 0.7147C201.382 0.505872 204.84 0.407984 208.297 0.381881V0.388407ZM208.986 18.6021C211.4 18.6021 213.808 18.6543 216.222 18.5956C224.514 18.3867 232.754 17.6493 240.909 16.0831C244.254 15.4371 247.561 14.6409 250.697 13.2574C251.707 12.8137 252.678 12.2981 253.478 11.515C254.548 10.4709 254.561 9.5964 253.518 8.55226C252.802 7.84094 251.93 7.36456 251.025 6.93385C249.024 5.9876 246.918 5.37417 244.786 4.83905C236.867 2.85518 228.765 2.15692 220.657 1.79799C208.441 1.25635 196.232 1.4978 184.096 3.25979C179.477 3.93195 174.898 4.76726 170.489 6.35957C169.204 6.82291 167.951 7.35151 166.816 8.11503C164.559 9.62903 164.578 11.0256 166.881 12.5265C168.029 13.2705 169.282 13.7925 170.575 14.2428C174.55 15.6328 178.664 16.4159 182.81 17.0228C191.489 18.2954 200.228 18.7261 208.992 18.6021H208.986Z" fill="#121212"/>
<path d="M65.098 228.5C64.9471 227.913 65.1964 227.378 65.3341 226.83C70.9433 204.485 76.5458 182.141 82.1615 159.796C91.6741 121.933 101.206 84.07 110.712 46.2069C111.559 42.8265 112.779 39.6354 115.009 36.9141C118.23 32.9725 122.278 30.832 127.52 30.8385C167.742 30.8907 207.97 30.8842 248.192 30.8972C253.696 30.8972 259.206 30.8842 264.711 30.8972C265.964 30.8972 267.23 30.9364 268.476 31.0865C272.819 31.6216 275.627 34.8258 275.719 39.1525C275.758 40.9601 275.293 42.6699 274.873 44.3862C268.424 70.7115 261.968 97.0369 255.506 123.356C250.534 143.605 245.554 163.849 240.588 184.098C234.946 207.083 229.324 230.067 223.682 253.044C219.26 271.062 214.819 289.08 210.384 307.098C206.874 321.37 203.365 335.642 199.861 349.921C199.12 352.936 198.005 355.781 196.227 358.352C196.083 358.561 195.886 358.737 195.715 358.926C194.351 357.556 192.993 356.179 191.621 354.815C187.036 350.227 182.457 345.646 177.871 341.065C172.321 335.525 166.771 329.991 161.221 324.45C156.596 319.83 151.977 315.21 147.352 310.589C142.838 306.08 138.318 301.584 133.805 297.074C129.298 292.565 124.804 288.042 120.297 283.533C115.639 278.874 110.975 274.227 106.31 269.574C100.839 264.106 95.3675 258.63 89.8962 253.162C84.2018 247.471 78.5074 241.781 72.7998 236.103C70.2479 233.558 67.6696 231.039 65.1045 228.507L65.098 228.5ZM190.965 46.5332C196.837 46.5267 202.715 46.5267 208.587 46.5267C210.214 46.5267 211.841 46.5659 213.461 46.5267C215.593 46.4614 217.318 45.5804 218.467 43.7663C219.89 41.5148 219.09 38.8458 216.682 37.6972C215.724 37.2404 214.707 37.0838 213.632 37.0838C199.842 37.1033 186.045 37.1099 172.255 37.1099C171.258 37.1099 170.261 37.0707 169.264 37.1164C167.519 37.2012 165.997 37.8408 164.835 39.1786C163.228 41.0189 163.379 43.577 165.196 45.2085C166.2 46.109 167.374 46.5593 168.778 46.5528C176.172 46.5202 183.565 46.5397 190.965 46.5397V46.5332ZM238.758 73.8179C238.758 73.8179 238.758 73.7983 238.758 73.7852C239.335 73.7852 239.912 73.8179 240.49 73.7852C242.13 73.6743 243.153 74.477 243.809 75.8931C244.695 77.8182 244.833 79.8151 244.295 81.8447C243.245 85.8254 242.143 89.7866 241.1 93.7674C240.975 94.2503 240.437 95.0073 241.244 95.2553C242.195 95.549 242.104 94.5505 242.248 94.035C243.232 90.5241 244.183 87.0066 245.121 83.4827C245.955 80.3503 247.693 77.7986 250.186 75.756C251.839 74.3987 253.689 73.4655 255.946 73.7265C256.307 73.7657 256.681 73.7265 257.048 73.7265C257.448 73.7265 257.816 73.6286 257.796 73.1392C257.783 72.6693 257.396 72.5714 257.015 72.5518C256.49 72.5323 255.966 72.5518 255.441 72.5388C252.994 72.4735 251.662 71.5338 250.816 69.2693C250.061 67.2463 250.055 65.1972 250.626 63.1285C251.327 60.5638 252.01 57.9992 252.705 55.4345C252.784 55.1343 252.895 54.8341 252.948 54.5274C253.02 54.1424 252.987 53.7574 252.521 53.666C252.161 53.5942 251.931 53.8487 251.826 54.162C251.682 54.6057 251.57 55.0625 251.446 55.5193C250.593 58.6322 249.799 61.7646 248.874 64.8578C248.126 67.3638 246.643 69.426 244.649 71.1292C242.812 72.6954 240.608 72.6563 238.397 72.6302C237.767 72.6236 237.137 72.6171 236.508 72.6432C236.121 72.6563 235.733 72.7933 235.753 73.2501C235.773 73.7069 236.173 73.8048 236.56 73.8113C237.295 73.8244 238.03 73.8113 238.764 73.8113L238.758 73.8179Z" fill="#FA4616"/>
<path d="M279.178 300.8C276.219 302.177 273.293 302.001 270.426 300.532C268.524 299.56 267.028 298.111 265.736 296.434C262.974 292.845 261.399 288.72 260.264 284.407C258.624 278.155 258.119 271.779 258.231 265.338C258.349 258.538 259.208 251.83 260.802 245.213C260.92 244.723 261.347 243.94 260.54 243.744C259.733 243.548 259.753 244.416 259.635 244.919C259.28 246.387 258.919 247.862 258.696 249.356C258.559 250.277 258.113 250.551 257.266 250.655C253.166 251.164 249.951 249.781 247.741 246.276C246.297 243.986 245.576 241.434 245.13 238.791C244.27 233.707 244.441 228.611 245.005 223.514C246.566 209.529 250.621 196.177 255.613 183.093C262.252 165.695 270.656 149.165 280.7 133.457C282.012 131.401 283.77 130.175 286.06 129.75C288.435 129.313 290.6 128.55 292.351 126.69C292.771 127.127 292.81 127.603 292.942 128.015C293.67 130.331 294.713 132.478 296.327 134.312C300.112 138.626 304.895 139.604 310.313 138.417C310.517 138.371 310.714 138.28 310.897 138.188C311.166 138.058 311.258 137.816 311.179 137.536C311.12 137.32 310.93 137.183 310.707 137.196C310.294 137.223 309.874 137.275 309.467 137.353C303.018 138.619 297.822 135.996 295.047 130.09C293.834 127.506 293.289 124.758 292.994 121.945C292.942 121.463 293.119 120.706 292.377 120.719C291.511 120.738 291.774 121.508 291.813 122.05C291.846 122.52 291.859 122.996 291.99 123.446C292.377 124.797 291.826 125.737 290.783 126.533C290.029 127.107 289.261 127.63 288.362 127.962C285.968 128.837 283.593 128.184 282.032 126.194C281.172 125.104 280.693 123.851 280.437 122.494C280.037 120.334 279.447 118.232 278.535 116.222C277.886 114.787 277.092 113.442 275.924 112.352C273.851 110.401 271.41 110.225 269.062 111.856C267.75 112.77 266.779 113.997 265.906 115.309C264.981 116.705 264.017 118.069 262.79 119.224C262.062 119.909 261.288 120.523 260.396 120.98C259.923 121.221 259.431 121.391 258.9 121.423C257.666 121.495 257.292 121.064 257.588 119.87C259.785 110.91 261.983 101.957 264.194 92.9967C264.778 90.6213 265.381 88.2459 265.978 85.877C266.477 85.9814 266.884 85.7139 267.323 85.5507C268.957 84.9308 269.79 85.3745 270.223 87.0517C270.387 87.7043 270.348 88.383 270.538 89.0486C270.787 89.9231 270.905 90.8954 271.883 91.176C272.946 91.4827 273.634 90.667 274.258 89.9622C274.809 89.3423 275.202 88.5592 275.898 88.0828C277.512 86.9929 278.745 85.4855 280.254 84.2782C284.774 80.6498 289.753 77.8045 295.126 75.6836C300.643 73.5105 306.463 72.4337 312.341 71.9117C315.87 71.5984 319.478 71.5789 322.988 72.2249C326.682 72.9036 330.29 73.9282 333.577 75.8925C338.615 78.9139 342.151 83.1035 344.073 88.6505C345.713 93.3752 345.49 98.1913 344.749 102.988C344.145 106.877 343.161 110.701 342.413 114.571C342.02 116.607 341.587 118.643 341.731 120.751C341.816 121.985 342.223 123.029 343.004 124.027C344.303 125.691 346.159 126.435 347.983 127.173C350.601 128.23 352.917 129.626 354.858 131.689C358.978 136.054 361.452 141.06 360.914 147.188C360.75 149.06 360.664 151.09 358.762 152.284C357.883 151.492 357.638 150.59 358.027 149.576C358.27 148.943 358.513 148.31 358.709 147.67C358.782 147.429 358.722 147.135 358.401 147.044C358.132 146.966 357.863 147.011 357.719 147.272C357.522 147.638 357.332 148.01 357.187 148.401C354.911 154.549 353.31 160.82 353.225 167.431C353.192 170.106 352.326 172.56 350.522 174.603C347.557 177.97 343.194 177.872 340.347 174.4C339.015 172.782 338.366 170.876 338.005 168.847C337.88 168.162 338.143 167.783 338.694 167.437C339.671 166.824 340.537 166.06 341.351 165.245C341.574 165.023 341.797 164.794 341.967 164.54C342.125 164.311 342.118 164.044 341.908 163.828C341.692 163.607 341.429 163.594 341.206 163.77C340.878 164.024 340.583 164.324 340.281 164.612C338.471 166.315 336.45 167.679 334.029 168.384C330.06 169.532 326.668 168.566 323.893 165.571C321.486 162.98 320.43 159.769 320.056 156.337C319.373 150.046 320.895 144.244 324.195 138.867C324.471 138.417 325.173 137.856 324.543 137.399C323.775 136.838 323.487 137.758 323.191 138.228C320.679 142.169 319.249 146.483 318.796 151.129C318.763 151.436 318.704 151.743 318.658 152.049C318.068 151.867 317.937 151.305 317.746 150.849C316.782 148.551 312.242 146.613 309.625 147.553C305.557 149.008 302.231 151.371 299.823 154.953C297.599 158.262 296.943 161.884 297.619 165.806C298.262 169.526 299.095 173.232 298.341 177.063C297.973 178.923 297.442 180.678 296.392 182.277C294.995 184.411 293.329 186.349 291.813 188.392C288.172 193.293 284.866 198.396 282.53 204.073C281.677 206.149 280.969 208.257 280.47 210.443C280.116 211.989 280.483 212.459 282.091 212.414C283.718 212.368 285.318 212.57 286.926 212.753C289.425 213.04 291.065 214.88 291.085 217.393C291.105 220.166 290.088 222.685 289.064 225.178C287.765 228.35 286.204 231.417 285.351 234.758C284.754 237.101 283.914 239.391 284.439 241.904C284.794 243.588 285.463 244.312 287.241 244.351C288.677 244.384 289.051 244.697 289.406 246.074C289.537 246.596 289.491 247.105 289.438 247.627C288.651 247.399 288.428 247.895 288.277 248.515C287.805 250.446 287.129 252.306 286.309 254.114C285.568 255.732 284.728 257.298 283.462 258.584C281.533 260.548 279.886 260.3 278.653 257.873C278.443 257.455 278.286 257.011 278.135 256.568C277.61 255.027 277.334 253.435 277.236 251.817C276.921 246.942 277.367 242.119 278.555 237.388C278.988 235.678 279.296 233.91 280.3 232.396C282.412 229.205 284.105 225.798 285.614 222.3C285.738 222.013 285.876 221.732 285.961 221.432C286.066 221.06 285.81 220.838 285.528 220.688C285.148 220.486 284.951 220.734 284.813 221.041C284.682 221.328 284.577 221.622 284.452 221.909C283.252 224.689 281.94 227.41 280.372 230.007C279.401 231.619 278.338 233.172 277.098 234.588C276.409 235.378 275.662 236.115 274.763 236.67C272.972 237.786 271.712 237.421 270.846 235.535C270.584 234.967 270.4 234.373 270.275 233.753C269.619 230.484 269.81 227.208 270.17 223.938C270.781 218.326 272.066 212.844 273.785 207.467C276.134 200.138 278.994 193.045 283.613 186.78C283.895 186.395 284.557 185.951 283.98 185.462C283.291 184.874 282.989 185.716 282.668 186.095C281.586 187.374 280.713 188.803 279.84 190.226C279.335 191.041 278.555 191.439 277.918 191.276C277.229 191.1 276.862 190.467 276.829 189.39C276.796 188.196 277.197 187.145 277.84 186.16C278.043 185.847 278.207 185.455 277.794 185.201C277.42 184.966 277.092 185.155 276.856 185.494C275.799 187.028 275.327 188.699 275.773 190.532C276.088 191.831 277.026 192.516 278.332 192.581C278.318 193.175 278.05 193.515 277.872 193.874C276.377 196.921 275.045 200.034 273.923 203.238C271.069 211.396 268.911 219.696 268.668 228.395C268.596 230.849 268.701 233.303 269.593 235.639C270.754 238.674 272.998 239.346 275.688 237.492C275.944 237.316 276.167 237.088 276.429 236.918C276.705 236.742 276.875 236.298 277.453 236.585C276.672 239.737 276.213 242.974 275.924 246.237C275.13 246.348 275.202 247.079 275.058 247.568C274.231 250.348 273.516 253.148 273.011 256.019C272.453 259.191 272.034 262.389 271.942 265.567C271.778 271.27 271.66 276.987 272.447 282.691C272.985 286.606 273.588 290.489 275.012 294.183C275.871 296.414 276.79 298.646 278.837 300.147C279.066 300.317 279.132 300.565 279.165 300.826L279.178 300.8ZM283.436 169.78C283.58 170.178 283.678 170.517 283.829 170.837C284.498 172.253 285.804 172.808 287.346 172.39C288.579 172.051 289.458 171.274 290.127 170.237C290.35 169.898 290.613 169.467 290.081 169.16C289.688 168.932 289.386 169.16 289.169 169.499C288.769 170.126 288.277 170.661 287.608 171C286.873 171.372 286.125 171.562 285.404 170.968C284.826 170.498 284.59 169.467 284.839 168.658C284.971 168.233 285.325 167.992 285.601 167.685C286.197 167.026 286.814 166.387 287.398 165.721C287.634 165.46 287.654 165.147 287.372 164.892C287.103 164.644 286.768 164.67 286.506 164.873C286.263 165.062 286.099 165.349 285.896 165.584C284.8 166.85 283.613 168.031 282.281 169.056C280.949 170.08 279.558 170.994 277.905 171.451C275.347 172.155 273.654 171.02 273.464 168.384C273.379 167.242 273.405 166.099 273.634 164.957C274.513 160.631 276.521 156.833 279.04 153.257C279.283 152.917 279.545 152.591 279.742 152.225C279.9 151.932 279.873 151.586 279.558 151.403C279.329 151.273 279.04 151.318 278.837 151.527C278.692 151.671 278.568 151.847 278.443 152.01C275.806 155.567 273.759 159.41 272.657 163.718C272.263 165.245 272.112 166.798 272.224 168.37C272.467 171.81 274.835 173.506 278.174 172.658C279.25 172.384 280.234 171.901 281.172 171.32C281.927 170.857 282.642 170.328 283.442 169.787L283.436 169.78Z" fill="#EED6D2"/>
<path d="M289.448 247.604C289.501 247.089 289.546 246.573 289.415 246.051C289.061 244.674 288.68 244.361 287.25 244.328C285.472 244.289 284.803 243.558 284.449 241.881C283.924 239.362 284.764 237.078 285.361 234.735C286.207 231.394 287.775 228.32 289.074 225.155C290.098 222.656 291.114 220.143 291.095 217.37C291.075 214.851 289.435 213.01 286.935 212.73C285.328 212.547 283.727 212.345 282.1 212.391C280.487 212.436 280.126 211.966 280.48 210.42C280.979 208.24 281.687 206.126 282.54 204.05C284.875 198.373 288.182 193.27 291.823 188.369C293.338 186.326 295.005 184.388 296.402 182.254C297.452 180.655 297.983 178.9 298.35 177.04C299.111 173.216 298.278 169.503 297.629 165.783C296.947 161.861 297.609 158.239 299.833 154.93C302.241 151.348 305.56 148.985 309.634 147.53C312.252 146.59 316.792 148.528 317.756 150.826C317.946 151.282 318.078 151.844 318.668 152.026C318.668 154.904 318.806 157.756 319.724 160.523C320.302 162.265 321.076 163.91 322.184 165.385C325.281 169.503 329.985 170.984 334.879 169.359C335.469 169.163 336.04 168.935 336.611 168.732C336.906 169.059 336.932 169.431 336.998 169.79C337.378 171.826 338.159 173.692 339.543 175.252C340.009 175.774 340.009 176.107 339.655 176.694C335.784 183.148 332.432 189.863 329.617 196.839C328.246 200.233 327.42 203.789 326.659 207.353C325.268 213.852 324.631 220.437 324.585 227.074C324.533 235.081 325.353 242.99 327.518 250.737C328.345 253.68 328.581 256.688 327.925 259.716C327.669 260.904 327.229 262.007 326.514 262.999C325.852 263.919 324.979 264.565 323.89 264.891C322.171 265.413 321.699 265.113 321.45 263.364C321.384 262.901 321.345 262.431 321.266 261.968C321.213 261.667 320.997 261.537 320.702 261.563C320.42 261.589 320.19 261.733 320.157 262.026C320.131 262.281 320.177 262.542 320.21 262.796C321.574 274.895 324.677 286.537 329.624 297.671C330.726 300.15 331.959 302.558 332.471 305.254C332.95 307.799 333.042 310.324 332.333 312.843C332.077 313.75 331.723 314.618 331.218 315.414C329.539 318.064 326.639 319.18 323.588 318.41C322.86 318.227 322.44 317.907 322.243 317.124C321.646 314.801 320.813 312.55 319.928 310.318C319.796 309.978 319.659 309.639 319.481 309.319C319.324 309.039 319.088 308.797 318.72 308.967C318.373 309.13 318.353 309.456 318.438 309.769C318.517 310.07 318.648 310.357 318.766 310.644C320.866 315.949 322.434 321.399 323.024 327.089C323.411 330.796 323.391 334.483 322.289 338.092C322.014 338.992 321.66 339.86 321.2 340.676C319.324 343.978 316.241 345.27 312.534 344.344C310.153 343.743 308.073 342.568 306.125 341.126C301.559 337.739 298.036 333.413 294.998 328.688C290.124 321.105 286.68 312.928 284.994 304.066C284.272 300.261 283.885 296.431 284.41 292.554C284.436 292.345 284.449 292.137 284.462 291.934C284.482 291.588 284.364 291.275 284.009 291.223C283.577 291.158 283.321 291.432 283.275 291.856C283.163 292.841 283.058 293.827 282.98 294.812C282.94 295.282 282.855 295.771 282.96 296.215C283.531 298.636 282.192 299.739 280.145 300.405C279.962 300.379 279.837 300.444 279.758 300.614C279.568 300.679 279.384 300.744 279.194 300.809C279.155 300.548 279.096 300.3 278.866 300.131C276.819 298.636 275.894 296.398 275.041 294.166C273.618 290.466 273.014 286.59 272.476 282.674C271.696 276.97 271.807 271.254 271.971 265.55C272.063 262.366 272.483 259.168 273.041 256.003C273.546 253.132 274.261 250.332 275.087 247.552C275.232 247.062 275.16 246.332 275.953 246.221C275.953 246.743 275.953 247.258 275.953 247.78C275.914 250.391 275.999 252.988 276.623 255.54C276.97 256.962 277.416 258.346 278.322 259.533C279.653 261.269 281.464 261.556 283.275 260.303C284.37 259.546 285.177 258.522 285.886 257.419C287.624 254.717 288.667 251.722 289.56 248.668C289.671 248.289 289.638 247.956 289.461 247.617L289.448 247.604ZM306.728 203.15C306.715 204.351 306.715 205.819 307.2 207.222C307.837 209.056 309.188 209.46 310.736 208.266C311.229 207.888 311.675 207.424 312.055 206.935C312.6 206.237 313.105 205.499 313.551 204.736C315.978 200.553 317.487 196.011 318.78 191.384C318.839 191.181 318.878 190.973 318.891 190.77C318.917 190.444 318.871 190.118 318.484 190.026C318.117 189.942 317.887 190.163 317.789 190.49C317.592 191.136 317.408 191.788 317.225 192.441C316.024 196.604 314.535 200.657 312.337 204.416C311.734 205.454 311.091 206.478 310.133 207.248C309.188 208.012 308.67 207.881 308.309 206.7C307.916 205.395 307.817 204.044 307.935 202.68C308.093 200.814 308.217 198.941 308.637 197.1C308.742 196.637 308.834 196.095 308.152 196.011C307.601 195.945 307.509 196.389 307.423 196.826C307.063 198.83 306.813 200.846 306.728 203.143V203.15ZM316.267 287.621C316.319 286.661 316.188 285.63 315.978 284.606C315.886 284.162 315.716 283.718 315.198 283.849C314.706 283.973 314.692 284.449 314.804 284.886C314.83 284.984 314.863 285.089 314.883 285.187C315.093 286.479 315.093 287.784 315.014 289.083C314.961 289.924 314.738 290.727 314.332 291.464C313.676 292.646 312.639 292.978 311.412 292.391C310.697 292.045 310.113 291.517 309.588 290.929C308.677 289.905 307.975 288.756 307.41 287.516C307.214 287.092 307.03 286.661 306.846 286.231C306.695 285.865 306.459 285.545 306.033 285.702C305.521 285.885 305.528 286.302 305.731 286.733C306.157 287.627 306.544 288.541 307.023 289.402C307.87 290.916 308.913 292.287 310.422 293.226C312.527 294.532 314.601 293.925 315.604 291.68C316.168 290.42 316.332 289.083 316.28 287.621H316.267Z" fill="#FCF6F5"/>
<path d="M65.1041 228.497C67.6692 231.029 70.2475 233.548 72.7995 236.093C78.507 241.771 84.2014 247.461 89.8958 253.152C95.3672 258.62 100.839 264.096 106.31 269.564C110.968 274.217 115.639 278.864 120.297 283.523C124.804 288.032 129.297 292.555 133.804 297.064C138.311 301.574 142.838 306.07 147.352 310.579C151.977 315.2 156.595 319.82 161.22 324.44C166.77 329.981 172.32 335.515 177.871 341.055C182.456 345.636 187.042 350.217 191.621 354.805C192.986 356.175 194.35 357.546 195.715 358.916C192.448 363.478 187.987 365.488 182.371 365.436C169.263 365.318 156.162 365.338 143.055 365.305C140.175 365.299 137.288 365.292 134.408 365.279C131.561 362.44 128.707 359.602 125.866 356.756C122.914 353.8 119.975 350.824 117.023 347.868C113.926 344.762 110.81 341.662 107.714 338.556C103.62 334.451 99.5264 330.333 95.4328 326.228C92.2247 323.011 89.0036 319.8 85.7956 316.577C83.0271 313.803 80.2717 311.017 77.5032 308.243C74.4002 305.137 71.2774 302.057 68.1744 298.95C64.0741 294.845 60.0264 290.688 55.8868 286.629C54.4304 285.207 53.1511 283.601 51.5176 282.361C51.8653 279.718 52.6788 277.186 53.3151 274.615C57.0283 259.756 60.7743 244.903 64.5203 230.057C64.6515 229.522 64.6187 228.908 65.1041 228.497Z" fill="#FCF6F5"/>
<path d="M46.2203 140.078C45.7151 139.621 45.5118 138.962 45.1378 138.42C44.9279 138.126 44.7508 137.813 44.5277 137.533C44.285 137.226 43.9569 137.05 43.5961 137.337C43.3075 137.565 43.3731 137.885 43.5371 138.166C44.0554 139.053 44.5933 139.928 45.0985 140.822C45.2953 141.174 45.5905 141.487 45.5905 141.931C45.1116 141.944 44.836 142.212 44.6392 142.623C43.9438 144.058 42.881 145.142 41.6083 146.134C38.5118 148.535 35.0873 149.638 31.2364 148.77C27.2083 147.863 24.3283 145.507 22.8653 141.546C21.6188 138.153 21.7435 134.694 22.3208 131.235C23.1015 126.595 24.6038 122.164 26.69 117.948C27.9627 115.384 29.4782 112.95 31.4004 110.79C32.6534 109.38 32.6337 108.949 31.6431 107.331C31.5644 107.2 31.4463 107.083 31.3676 106.952C30.495 105.471 29.6094 104.016 29.1042 102.339C28.3498 99.8262 28.6581 97.5617 30.1145 95.3755C31.6694 93.0327 33.7031 91.199 35.9795 89.5871C37.8689 88.2493 39.9223 87.2313 42.0741 86.3894C43.5043 85.8282 44.2653 84.8232 43.9635 83.5702C43.5436 81.8083 43.7077 80.0397 43.7208 78.2778C43.7405 74.7407 45.4265 71.9477 48.2081 69.9312C52.1574 67.0728 56.7759 66.616 61.4207 67.2556C66.669 67.9799 71.3465 70.388 75.8994 73.0049C80.5573 75.6805 84.5263 79.211 88.3642 82.9046C89.6434 84.138 90.903 85.3975 92.1429 86.67C92.6678 87.2117 93.2713 87.5967 93.9602 87.8773C95.0885 88.3341 95.5019 88.2297 96.1054 87.1203C96.5646 86.2915 97.2076 85.9065 98.126 85.9C98.5459 85.9 98.9657 85.9 99.3856 85.9C98.5262 89.437 97.6799 92.9805 96.8074 96.5176C95.6659 101.118 94.5047 105.712 93.3566 110.307C93.1532 111.129 92.8383 111.821 92.1626 112.421C90.844 113.583 90.0436 115.123 89.3745 116.722C88.5807 118.601 88.0558 120.565 87.6753 122.562C87.4523 123.757 87.039 124.872 86.337 125.871C84.6969 128.201 82.0137 128.958 79.4092 127.809C78.9369 127.6 78.4711 127.339 78.0447 127.039C76.6801 126.067 75.4861 125.009 76.1881 123.045C76.3587 122.569 76.339 122.014 76.3783 121.499C76.4046 121.107 76.2931 120.742 75.8338 120.689C75.3549 120.637 75.2106 120.996 75.1778 121.388C75.0532 122.843 74.8563 124.285 74.548 125.714C74.1019 127.763 73.3934 129.715 72.3175 131.522C69.4703 136.312 64.5959 138.492 59.0655 137.448C58.5997 137.363 58.1405 137.259 57.6747 137.187C57.1433 137.102 56.9071 137.396 56.8481 137.885C56.6382 137.885 56.4151 137.918 56.2249 137.859C54.6438 137.356 53.0103 137.513 51.4095 137.611C49.9007 137.702 48.4442 138.172 47.3618 139.379C47.0534 139.725 46.7385 140.091 46.2006 140.084L46.2203 140.078Z" fill="#EED6D2"/>
<path d="M99.3895 85.9005C98.9696 85.9005 98.5497 85.9005 98.1299 85.9005C97.2114 85.907 96.5685 86.2855 96.1093 87.1208C95.4992 88.2237 95.0924 88.3347 93.964 87.8778C93.2818 87.5972 92.6716 87.2122 92.1468 86.6706C90.9069 85.398 89.6473 84.1385 88.368 82.9051C84.5302 79.2115 80.5612 75.6875 75.9033 73.0054C71.3504 70.3885 66.6794 67.9805 61.4245 67.2561C56.7798 66.6166 52.1613 67.0734 48.2119 69.9317C45.4303 71.9482 43.7443 74.7347 43.7246 78.2783C43.7115 80.0403 43.5475 81.8023 43.9674 83.5708C44.2626 84.8237 43.5081 85.8287 42.078 86.3899C39.9262 87.2318 37.8728 88.2498 35.9834 89.5876C33.7069 91.1995 31.6798 93.0333 30.1184 95.3761C28.6686 97.5622 28.3537 99.8267 29.1081 102.339C29.6133 104.016 30.4924 105.472 31.3714 106.953C31.4502 107.09 31.5617 107.201 31.647 107.331C32.6376 108.956 32.6573 109.381 31.4042 110.79C29.4821 112.957 27.9666 115.384 26.6939 117.949C24.6077 122.165 23.0988 126.596 22.3247 131.236C21.7474 134.694 21.6162 138.153 22.8692 141.547C24.3256 145.508 27.2056 147.864 31.2402 148.771C35.0912 149.639 38.5157 148.529 41.6122 146.134C42.8849 145.149 43.9477 144.066 44.6431 142.623C44.8399 142.212 45.1154 141.945 45.5943 141.932C46.8999 144.353 47.5756 146.97 47.9889 149.652C48.5662 153.365 48.3759 157.032 47.136 160.615C46.48 162.508 45.5419 164.25 44.1314 165.699C41.3629 168.531 38.0565 169.458 34.2252 168.374C31.6929 167.663 29.6001 166.214 27.7108 164.433C27.3237 164.067 26.9169 163.128 26.2412 163.872C25.7098 164.452 26.4971 164.87 26.8645 165.255C27.6583 166.09 28.5505 166.828 29.5214 167.448C30.0134 167.761 30.2693 168.107 30.1643 168.72C29.7773 171.03 29.0097 173.164 27.3499 174.887C24.6208 177.719 20.8158 177.759 18.0145 174.985C16.4007 173.38 15.5347 171.396 15.1083 169.197C14.9902 168.583 14.918 167.957 14.9114 167.337C14.8655 160.674 13.2057 154.344 10.8703 148.164C10.68 147.655 10.5882 146.663 9.70907 147.074C9.02679 147.394 9.62378 148.079 9.76811 148.588C9.86652 148.94 10.0371 149.267 10.1617 149.606C10.7128 151.048 10.3848 151.844 8.86278 152.719C7.67535 153.404 6.55352 153.215 5.67443 152.099C4.60509 150.735 4.21147 149.117 4.06058 147.433C3.85721 145.181 4.08682 142.956 4.57229 140.75C4.69694 140.189 4.78222 139.621 4.88719 139.06C5.00527 138.479 4.85438 138.042 4.26395 137.794C2.69602 137.148 2.35488 135.869 2.4336 134.342C2.49921 133.063 2.84691 131.862 3.42422 130.746C3.96217 129.702 3.97529 128.71 3.69976 127.588C1.9547 120.455 1.09529 113.218 1.3577 105.883C1.69884 96.1004 3.77848 86.7619 9.08583 78.3566C13.5206 71.3282 19.5693 66.2315 27.4483 63.3602C27.9141 63.1905 28.826 63.1905 28.4783 62.3682C28.1765 61.6569 27.4615 62.0941 26.9563 62.2834C25.7886 62.7141 24.6339 63.2035 23.3153 63.7321C23.5252 62.4726 24.1419 61.546 24.8504 60.6846C26.6939 58.4527 29.1868 57.2846 31.8963 56.5145C35.8915 55.379 39.9918 55.2485 44.0658 55.6727C58.6561 57.2063 71.6522 62.7533 83.31 71.4914C87.2265 74.4215 90.7035 77.815 93.5114 81.8414C93.6294 82.0111 93.7344 82.2003 93.8853 82.3439C94.3773 82.8203 94.8628 82.7159 95.0596 82.0698C95.1646 81.7239 95.1646 81.3454 95.2761 80.9996C95.7288 79.5443 96.8112 78.957 98.3136 79.2768C99.0614 79.4334 99.6519 79.838 100.229 80.2948C100.656 80.6341 100.741 81.0322 100.597 81.5412C100.183 82.9965 99.7962 84.4518 99.396 85.907L99.3895 85.9005Z" fill="#FCF6F5"/>
<path d="M46.2325 140.083C46.7705 140.089 47.0854 139.724 47.3937 139.378C48.4762 138.171 49.926 137.701 51.4415 137.61C53.0356 137.512 54.6692 137.355 56.2568 137.858C56.447 137.916 56.6701 137.877 56.88 137.884C57.477 138.51 58.2971 138.517 59.0646 138.634C64.8312 139.535 69.4956 137.773 72.8742 132.944C74.1797 131.084 74.9801 128.989 75.5771 126.79C76.1938 126.79 76.4431 127.325 76.8236 127.625C78.8835 129.23 81.1469 129.942 83.7317 129.224C84.2762 129.074 84.637 129.126 84.9125 129.622C84.965 129.713 85.024 129.798 85.0765 129.889C85.8441 131.071 86.9266 132.16 87.3005 133.459C87.681 134.771 86.8413 136.174 86.5067 137.531C81.8882 155.986 77.2434 174.428 72.5987 192.877C72.5331 193.125 72.4216 193.367 72.3297 193.608C72.0476 193.81 72.0279 194.084 72.1198 194.391C72.0804 194.548 72.0476 194.704 72.0083 194.861C71.8246 195.011 71.7852 195.187 71.8967 195.396C71.8246 195.631 71.759 195.866 71.6868 196.101C70.9586 196.186 71.0308 196.858 70.8733 197.295C70.2173 199.103 69.6137 200.93 68.9511 202.738C66.2154 210.164 63.2633 217.493 59.3927 224.423C57.8444 227.197 56.0993 229.853 54.0525 232.293C53.0488 233.494 51.8745 234.545 50.4181 235.217C48.7911 235.967 47.3872 235.706 46.1866 234.414C45.6552 233.833 45.2222 233.194 44.9467 232.45C44.5531 231.393 44.1201 230.349 43.7068 229.298C43.6018 226.642 43.5428 223.979 43.3919 221.33C42.9261 213.388 41.6862 205.55 39.0227 198.046C36.8249 191.853 33.84 185.979 30.6057 180.243C29.7857 178.794 28.9525 177.352 28.1062 175.871C30.0546 173.906 30.9534 171.433 31.4389 168.673C32.7116 169.064 33.84 169.612 35.0668 169.808C39.5934 170.533 43.2148 168.999 45.9504 165.41C48.5615 161.99 49.4274 157.996 49.4799 153.794C49.5324 149.506 48.5811 145.421 46.823 141.512C46.613 141.042 46.285 140.611 46.2325 140.076V140.083ZM61.446 203.194C61.3739 200.969 61.1246 198.9 60.7506 196.845C60.6719 196.408 60.5866 195.957 60.0356 196.016C59.3533 196.088 59.4517 196.623 59.5304 197.093C59.6616 197.863 59.8453 198.626 59.9306 199.403C60.1865 201.68 60.4817 203.965 60.0093 206.249C59.8978 206.79 59.806 207.456 59.1696 207.658C58.5201 207.867 58.1068 207.332 57.7001 206.947C56.7095 205.994 56.0206 204.813 55.3711 203.625C53.2653 199.762 51.8089 195.638 50.6477 191.409C50.5493 191.056 50.4574 190.704 50.3196 190.365C50.2147 190.11 49.9916 189.954 49.6964 190.025C49.4012 190.097 49.2765 190.312 49.2765 190.6C49.2765 191.187 49.493 191.722 49.6505 192.27C50.8904 196.695 52.4255 201.008 54.761 204.996C55.4499 206.17 56.2174 207.299 57.2868 208.167C58.9334 209.505 60.357 209.081 61.0065 207.077C61.4264 205.766 61.4395 204.408 61.4329 203.188L61.446 203.194Z" fill="#FCF6F5"/>
<path d="M358.758 152.249C360.667 151.048 360.746 149.025 360.91 147.152C361.448 141.024 358.975 136.019 354.855 131.653C352.913 129.598 350.597 128.195 347.979 127.137C346.156 126.407 344.299 125.656 343 123.992C342.226 122.993 341.813 121.949 341.727 120.716C341.583 118.615 342.016 116.572 342.41 114.536C343.157 110.666 344.142 106.842 344.745 102.953C345.486 98.156 345.709 93.3399 344.069 88.6152C342.141 83.0682 338.611 78.8786 333.573 75.8572C330.286 73.8863 326.684 72.8618 322.984 72.1896C319.475 71.5436 315.866 71.5697 312.337 71.8764C306.459 72.3919 300.64 73.4752 295.122 75.6483C289.743 77.7627 284.77 80.608 280.25 84.2429C278.741 85.4567 277.508 86.9576 275.894 88.0475C275.199 88.5173 274.805 89.3004 274.254 89.9269C273.631 90.6317 272.942 91.4474 271.879 91.1407C270.901 90.8601 270.783 89.8878 270.534 89.0133C270.344 88.3477 270.383 87.669 270.219 87.0164C269.793 85.3392 268.96 84.8955 267.319 85.5154C266.88 85.6786 266.473 85.9461 265.975 85.8417C266.25 84.6801 266.618 83.525 266.782 82.3439C266.965 81.0583 267.739 80.2882 268.756 79.6878C270.757 78.5067 272.528 79.2637 273.02 81.5085C273.119 81.9588 273.034 82.5266 273.65 82.6114C274.129 82.6767 274.359 82.2394 274.595 81.8936C278.656 76.1051 283.996 71.6806 289.907 67.9086C298.862 62.192 308.538 58.2112 319.028 56.3252C324.323 55.3725 329.643 55.0592 334.964 56.1817C337.188 56.6515 339.293 57.4216 341.17 58.7202C342.915 59.9275 344.24 61.4611 344.916 63.7517C343.663 63.2427 342.613 62.8185 341.563 62.4008C341.275 62.2833 340.973 62.1789 340.671 62.0941C340.251 61.9766 339.779 61.8983 339.608 62.4139C339.411 63.0012 339.963 63.0926 340.33 63.2231C352.919 67.8042 360.188 77.1623 364.131 89.4897C365.581 94.0317 366.322 98.6977 366.65 103.455C367.208 111.593 366.329 119.594 364.472 127.503C364.197 128.671 364.197 129.715 364.761 130.811C365.41 132.071 365.758 133.435 365.725 134.877C365.699 136.117 365.299 137.155 364.079 137.657C363.193 138.029 363.167 138.616 363.331 139.426C363.849 141.984 364.341 144.542 364.105 147.178C363.967 148.758 363.639 150.278 362.78 151.629C361.684 153.345 360.431 153.521 358.751 152.229L358.758 152.249Z" fill="#FCF6F5"/>
<path d="M224.811 276.948C222.587 277.059 220.809 274.547 220.29 272.452C220.172 271.982 220.363 271.532 220.474 271.075C223.275 259.687 226.064 248.3 228.858 236.919C232.335 222.751 235.825 208.583 239.309 194.416C242.57 181.162 245.823 167.901 249.071 154.64C251.551 144.519 254.024 134.397 256.497 124.276C256.523 124.171 256.543 124.073 256.569 123.969C256.93 122.546 256.937 122.514 258.373 122.612C259.948 122.716 261.227 122.083 262.415 121.163C264.383 119.636 266.6 118.598 268.955 117.822C270.077 117.45 271.225 117.463 272.38 117.541C272.688 117.561 272.997 117.665 273.285 117.776C274.827 118.357 275.05 118.768 274.663 120.334C272.97 127.219 271.278 134.097 269.579 140.975C268.267 146.287 266.948 151.593 265.649 156.911C265.459 157.682 265.196 158.406 264.842 159.111C259.476 169.865 254.837 180.927 251.039 192.321C248.284 200.589 246.033 208.994 244.577 217.589C243.862 221.805 243.442 226.066 243.344 230.334C243.258 233.982 243.514 237.623 244.387 241.193C244.577 241.976 244.603 242.733 244.413 243.51C243.081 248.867 241.927 254.277 240.385 259.576C238.666 265.482 235.707 270.729 230.833 274.71C229.265 275.989 227.533 276.922 224.817 276.948H224.811Z" fill="#C10000"/>
<path d="M118.565 365.26C113.133 365.273 107.701 365.293 102.263 365.293C97.769 365.293 93.2751 365.28 88.7813 365.267C88.4467 364.94 88.099 364.621 87.771 364.281C77.4974 353.67 67.2239 343.059 56.9503 332.455C52.1547 327.508 47.3459 322.581 42.5437 317.641C43.823 312.459 45.0957 307.271 46.3815 302.09C47.0572 299.375 47.7461 296.66 48.4349 293.946C48.5136 293.645 48.6449 293.365 48.7498 293.078C49.1697 293.469 49.6027 293.848 49.9963 294.259C54.6542 299.062 59.2989 303.865 63.9502 308.668C81.8732 327.169 99.7961 345.663 117.713 364.164C118.027 364.49 118.46 364.751 118.559 365.254L118.565 365.26Z" fill="#FCF6F5"/>
<path d="M42.5569 317.65C47.3591 322.59 52.1679 327.517 56.9635 332.464C67.2436 343.068 77.5106 353.686 87.7842 364.29C88.1122 364.629 88.4534 364.949 88.7945 365.276C86.9707 365.543 85.1404 365.38 83.31 365.38C70.6747 365.347 58.0394 365.295 45.4041 365.243C44.2495 365.243 43.0949 365.197 41.9468 365.243C39.1652 365.354 36.0687 363.814 34.6845 360.244C33.8644 358.13 33.6086 355.917 33.8251 353.64C34.1268 350.403 35.0781 347.31 35.8522 344.177C37.9647 335.681 40.0968 327.191 42.2289 318.694C42.3142 318.342 42.452 318.002 42.5635 317.656L42.5569 317.65Z" fill="#FA4616"/>
<path d="M118.559 365.262C118.461 364.76 118.034 364.499 117.713 364.173C99.7963 345.672 81.8734 327.177 63.9504 308.677C59.2991 303.874 54.6478 299.064 49.9965 294.267C49.5963 293.856 49.1633 293.484 48.75 293.086C49.5241 289.478 50.3639 285.888 51.4922 282.371C53.1258 283.611 54.4051 285.216 55.8615 286.639C60.0076 290.698 64.0554 294.848 68.149 298.96C71.2521 302.066 74.3748 305.153 77.4779 308.252C80.2464 311.026 83.0018 313.812 85.7702 316.586C88.9783 319.803 92.1994 323.014 95.4074 326.238C99.5011 330.342 103.595 334.46 107.688 338.565C110.792 341.671 113.901 344.771 116.998 347.877C119.95 350.84 122.889 353.809 125.841 356.766C128.682 359.611 131.535 362.45 134.383 365.288C133.982 365.478 133.556 365.406 133.143 365.406C128.688 365.406 124.234 365.406 119.779 365.406C119.366 365.406 118.94 365.491 118.546 365.269L118.559 365.262Z" fill="#FA4616"/>
<path d="M43.6874 229.305C44.1007 230.356 44.5337 231.4 44.9273 232.457C45.2029 233.201 45.6358 233.84 46.1672 234.421C47.3678 235.72 48.7717 235.981 50.3987 235.224C51.8551 234.552 53.0294 233.501 54.0331 232.3C56.08 229.86 57.825 227.204 59.3733 224.43C63.2439 217.5 66.2026 210.171 68.9317 202.745C69.5943 200.937 70.1979 199.11 70.8539 197.302C71.0114 196.865 70.9392 196.193 71.6674 196.108C71.2213 198.888 70.4013 201.583 69.719 204.304C61.571 236.803 53.4033 269.302 45.2356 301.801C44.842 303.367 44.4681 304.94 44.022 306.493C43.3659 308.783 42.2113 310.813 40.6237 312.595C39.9939 313.299 39.2854 313.919 38.3604 314.233C37.1467 314.65 36.2807 314.265 35.9068 313.051C35.3623 311.289 35.2048 309.469 35.3688 307.635C35.6247 304.803 36.3857 302.108 37.6387 299.549C41.0239 292.632 43.4315 285.375 45.2816 277.916C46.4952 273.002 47.4006 268.029 47.9385 262.998C47.9582 262.789 48.0238 262.587 48.0435 262.385C48.0894 261.98 47.9845 261.641 47.5252 261.569C47.0266 261.491 46.9085 261.83 46.8561 262.228C46.7642 262.9 46.6264 263.566 46.5936 264.244C46.5674 264.851 46.305 265.047 45.7211 265.06C44.0089 265.086 42.6837 264.362 41.6865 263.024C40.5253 261.458 40.0792 259.637 39.948 257.745C39.7774 255.284 40.0661 252.857 40.7221 250.468C42.4409 244.204 43.3397 237.821 43.5037 231.328C43.5234 230.656 43.4447 229.971 43.6874 229.318V229.305Z" fill="#EED6D2"/>
<path d="M274.183 80.3105C272.024 77.7785 271.296 77.5892 267.983 78.6334C267.694 78.2875 267.911 77.9481 267.996 77.6023C270.745 66.43 273.5 55.2642 276.243 44.0919C276.649 42.4213 276.99 40.7442 276.931 39.0018C276.84 36.2609 275.869 33.9377 273.763 32.117C273.395 31.7972 272.897 31.5884 272.667 31.1381C272.916 30.7988 273.199 30.8966 273.441 30.8966C277.627 30.8966 281.825 30.7205 285.998 30.9815C291.823 31.3404 294.854 35.7388 294.041 40.7507C293.496 44.1311 292.525 47.4462 291.712 50.781C290.393 56.1909 289.035 61.5943 287.743 67.0108C287.546 67.8265 287.192 68.3812 286.496 68.8707C282.049 72.0357 277.942 75.5727 274.603 79.9255C274.511 80.0495 274.373 80.1408 274.183 80.317V80.3105Z" fill="#C10000"/>
<path d="M91.8612 115.949C90.969 119.59 90.0834 123.225 89.1846 126.867C88.791 128.466 88.3842 130.058 87.9053 131.931C87.0393 130.652 86.3177 129.595 85.5173 128.413C87.8725 126.658 88.6466 124.126 89.1846 121.418C89.6307 119.173 90.3523 116.987 91.6579 115.048C91.9071 115.309 91.7825 115.655 91.8612 115.949Z" fill="#FCF6F5"/>
<path d="M91.8716 115.947C91.7929 115.647 91.9175 115.308 91.6682 115.047C91.7666 114.753 91.8585 114.453 92.298 114.362C92.1996 114.929 92.2127 115.477 91.8716 115.954V115.947Z" fill="#EED6D2"/>
<path d="M72.1038 194.38C72.0119 194.073 72.0316 193.806 72.3137 193.597C72.3662 193.891 72.3531 194.165 72.1038 194.38Z" fill="#EED6D2"/>
<path d="M71.8829 195.395C71.7648 195.187 71.8108 195.01 71.9944 194.86C72.0535 195.056 72.0272 195.239 71.8829 195.395Z" fill="#EED6D2"/>
<path d="M279.741 300.602C279.813 300.44 279.943 300.369 280.125 300.394C280.047 300.556 279.93 300.64 279.741 300.602Z" fill="#EED6D2"/>
<path d="M208.995 18.6049C200.23 18.7289 191.492 18.2982 182.812 17.0257C178.66 16.4188 174.546 15.6357 170.577 14.2457C169.285 13.7954 168.032 13.2733 166.884 12.5294C164.581 11.0284 164.568 9.63187 166.818 8.11787C167.953 7.35434 169.206 6.82575 170.492 6.36241C174.901 4.7701 179.48 3.93479 184.098 3.26263C196.235 1.50064 208.444 1.25919 220.659 1.80083C228.768 2.15976 236.87 2.85802 244.788 4.84189C246.927 5.37701 249.033 5.99696 251.027 6.93669C251.933 7.36087 252.805 7.84378 253.52 8.5551C254.563 9.59924 254.557 10.4672 253.481 11.5178C252.68 12.2944 251.71 12.81 250.699 13.2603C247.563 14.6437 244.257 15.4399 240.911 16.086C232.757 17.6522 224.517 18.3896 216.224 18.5984C213.817 18.6571 211.403 18.6049 208.988 18.6049H208.995ZM207.525 12.3532C215.654 12.3532 223.749 11.9029 231.792 10.7478C234.744 10.3236 237.677 9.77544 240.524 8.86182C240.97 8.71825 241.41 8.53553 241.83 8.33322C242.131 8.18965 242.335 7.92862 242.171 7.57622C242.046 7.30214 241.764 7.23035 241.508 7.29561C241.049 7.40002 240.603 7.55012 240.163 7.70674C237.913 8.48984 235.683 8.92708 233.249 8.39848C231.162 7.9482 228.998 7.83073 226.852 7.68064C219.951 7.17815 213.049 7.04763 206.128 7.31519C199.476 7.5697 192.856 8.09829 186.296 9.29253C185.647 9.40999 185.056 9.39041 184.446 9.22727C183.029 8.85529 181.599 8.50942 180.424 7.55665C180.162 7.34782 179.86 7.2434 179.578 7.51749C179.23 7.85684 179.394 8.18965 179.67 8.47027C180.195 8.99886 180.871 9.29253 181.559 9.56009C183.619 10.3693 185.771 10.7869 187.949 11.1198C194.437 12.0986 200.972 12.3597 207.525 12.3727V12.3532Z" fill="#DBF505"/>
<path d="M190.971 46.5323C183.578 46.5323 176.184 46.5192 168.784 46.5453C167.387 46.5453 166.212 46.1016 165.202 45.201C163.385 43.5695 163.234 41.0114 164.841 39.1711C166.002 37.8333 167.524 37.2003 169.269 37.1089C170.267 37.0567 171.264 37.1024 172.261 37.1024C186.051 37.1024 199.847 37.1024 213.637 37.0763C214.713 37.0763 215.723 37.2329 216.688 37.6897C219.096 38.8383 219.896 41.5074 218.472 43.7588C217.324 45.573 215.599 46.4605 213.467 46.5192C211.84 46.5649 210.213 46.5257 208.592 46.5192C202.721 46.5192 196.843 46.5192 190.971 46.5192V46.5323ZM194.278 38.2901C193.333 38.2901 192.388 38.2901 191.444 38.2901C185.729 38.2901 180.015 38.2836 174.295 38.2901C172.93 38.2901 172.773 38.4598 172.7 39.7976C172.655 40.6525 172.832 41.4486 173.225 42.2122C174.38 44.457 176.348 45.3772 178.743 45.4686C180.888 45.5469 183.04 45.4686 185.191 45.4686C194.317 45.4686 203.442 45.4686 212.561 45.4555C214.431 45.4555 216.084 44.9269 217.278 43.3999C218.584 41.7292 218.026 39.5822 216.091 38.7208C215.205 38.3293 214.267 38.2836 213.316 38.2901C206.972 38.2966 200.628 38.2901 194.284 38.2901H194.278Z" fill="#121212"/>
<path d="M238.753 73.8155C238.018 73.8155 237.283 73.822 236.549 73.8155C236.162 73.809 235.761 73.7111 235.742 73.2543C235.722 72.791 236.109 72.6604 236.496 72.6474C237.126 72.6278 237.756 72.6278 238.386 72.6343C240.596 72.667 242.801 72.6996 244.638 71.1334C246.632 69.4301 248.121 67.368 248.862 64.862C249.787 61.7688 250.581 58.6364 251.434 55.5235C251.559 55.0732 251.664 54.6164 251.815 54.1661C251.92 53.8464 252.149 53.5984 252.51 53.6702C252.976 53.7615 253.009 54.1466 252.936 54.5316C252.877 54.8383 252.772 55.132 252.694 55.4387C251.998 58.0034 251.316 60.568 250.614 63.1327C250.043 65.2014 250.05 67.2505 250.804 69.2735C251.651 71.5445 252.982 72.4777 255.429 72.543C255.954 72.556 256.479 72.5365 257.004 72.556C257.384 72.5691 257.771 72.667 257.785 73.1434C257.798 73.6263 257.43 73.7242 257.037 73.7307C256.669 73.7307 256.295 73.7698 255.935 73.7307C253.678 73.4696 251.834 74.4028 250.175 75.7602C247.688 77.8028 245.943 80.3479 245.11 83.4869C244.172 87.0108 243.221 90.5348 242.236 94.0392C242.092 94.5547 242.177 95.5467 241.233 95.2595C240.426 95.0115 240.964 94.2545 241.088 93.7716C242.131 89.7908 243.234 85.8231 244.283 81.8489C244.821 79.8193 244.683 77.8224 243.798 75.8973C243.148 74.4812 242.118 73.6785 240.478 73.7894C239.908 73.8286 239.324 73.7894 238.746 73.7894C238.746 73.8025 238.746 73.809 238.746 73.822L238.753 73.8155Z" fill="#FCF6F5"/>
<path d="M289.453 247.599C289.624 247.938 289.663 248.264 289.551 248.65C288.659 251.704 287.61 254.692 285.878 257.401C285.169 258.504 284.362 259.528 283.267 260.285C281.456 261.538 279.645 261.257 278.314 259.515C277.408 258.327 276.962 256.944 276.614 255.521C275.991 252.97 275.906 250.372 275.945 247.762C275.952 247.24 275.945 246.724 275.945 246.202C276.234 242.939 276.693 239.709 277.474 236.551C276.896 236.27 276.726 236.707 276.45 236.883C276.188 237.053 275.965 237.281 275.709 237.458C273.019 239.311 270.776 238.639 269.614 235.604C268.722 233.268 268.617 230.814 268.689 228.361C268.932 219.668 271.091 211.361 273.944 203.203C275.066 199.999 276.398 196.886 277.894 193.839C278.071 193.473 278.34 193.14 278.353 192.547C277.047 192.481 276.109 191.796 275.794 190.498C275.348 188.664 275.821 186.987 276.877 185.46C277.113 185.12 277.441 184.931 277.815 185.166C278.228 185.427 278.064 185.812 277.861 186.125C277.218 187.111 276.818 188.168 276.851 189.356C276.883 190.426 277.251 191.065 277.94 191.241C278.576 191.405 279.363 191.013 279.862 190.191C280.734 188.768 281.607 187.339 282.689 186.06C283.011 185.681 283.313 184.84 284.001 185.427C284.579 185.916 283.916 186.36 283.634 186.745C279.015 193.01 276.155 200.104 273.807 207.432C272.081 212.803 270.802 218.285 270.192 223.903C269.838 227.173 269.647 230.455 270.297 233.718C270.421 234.338 270.605 234.932 270.867 235.5C271.74 237.386 272.993 237.751 274.784 236.635C275.683 236.074 276.424 235.337 277.12 234.554C278.366 233.131 279.422 231.584 280.393 229.972C281.961 227.375 283.273 224.654 284.474 221.874C284.598 221.587 284.703 221.293 284.835 221.006C284.972 220.699 285.176 220.451 285.55 220.654C285.832 220.804 286.088 221.026 285.983 221.398C285.897 221.698 285.753 221.978 285.635 222.265C284.126 225.77 282.433 229.176 280.321 232.361C279.317 233.875 279.002 235.643 278.576 237.353C277.382 242.091 276.942 246.907 277.257 251.782C277.362 253.4 277.631 254.993 278.156 256.533C278.307 256.977 278.464 257.42 278.674 257.838C279.908 260.266 281.554 260.514 283.483 258.549C284.749 257.264 285.589 255.697 286.33 254.079C287.157 252.271 287.833 250.412 288.298 248.48C288.449 247.866 288.672 247.37 289.46 247.592L289.453 247.599Z" fill="#121212"/>
<path d="M283.435 169.777C282.634 170.319 281.919 170.847 281.165 171.311C280.227 171.892 279.249 172.374 278.167 172.648C274.827 173.497 272.459 171.8 272.216 168.361C272.105 166.788 272.256 165.235 272.649 163.708C273.758 159.401 275.805 155.557 278.436 152.001C278.56 151.831 278.685 151.661 278.829 151.518C279.033 151.315 279.321 151.263 279.551 151.394C279.866 151.576 279.899 151.922 279.735 152.216C279.538 152.581 279.269 152.908 279.033 153.247C276.52 156.823 274.506 160.621 273.627 164.948C273.397 166.09 273.371 167.232 273.456 168.374C273.653 171.011 275.346 172.146 277.898 171.441C279.551 170.984 280.942 170.071 282.273 169.046C283.605 168.022 284.793 166.847 285.888 165.574C286.092 165.34 286.262 165.059 286.498 164.863C286.761 164.654 287.089 164.635 287.364 164.883C287.646 165.137 287.627 165.45 287.391 165.711C286.8 166.377 286.19 167.023 285.593 167.676C285.317 167.983 284.963 168.224 284.832 168.648C284.576 169.457 284.819 170.488 285.396 170.958C286.118 171.552 286.866 171.369 287.601 170.991C288.27 170.652 288.768 170.116 289.162 169.49C289.378 169.151 289.68 168.916 290.074 169.151C290.599 169.457 290.336 169.888 290.12 170.227C289.451 171.265 288.571 172.048 287.338 172.381C285.796 172.805 284.491 172.244 283.822 170.828C283.671 170.508 283.572 170.162 283.428 169.771L283.435 169.777Z" fill="#121212"/>
<path d="M306.721 203.147C306.806 200.85 307.055 198.834 307.416 196.83C307.495 196.387 307.593 195.943 308.144 196.015C308.827 196.1 308.735 196.641 308.63 197.105C308.21 198.938 308.085 200.811 307.928 202.684C307.81 204.048 307.908 205.399 308.302 206.704C308.663 207.879 309.181 208.009 310.126 207.252C311.077 206.482 311.72 205.458 312.33 204.42C314.528 200.661 316.017 196.609 317.217 192.445C317.408 191.792 317.585 191.14 317.782 190.494C317.88 190.168 318.11 189.946 318.477 190.031C318.864 190.115 318.91 190.442 318.884 190.774C318.871 190.983 318.825 191.192 318.772 191.388C317.48 196.015 315.971 200.557 313.544 204.74C313.097 205.503 312.592 206.241 312.048 206.939C311.667 207.428 311.221 207.892 310.729 208.27C309.181 209.458 307.829 209.06 307.193 207.226C306.708 205.823 306.708 204.355 306.721 203.154V203.147Z" fill="#121212"/>
<path d="M316.257 287.619C316.316 289.081 316.145 290.425 315.581 291.678C314.577 293.916 312.504 294.53 310.398 293.224C308.889 292.285 307.846 290.921 307 289.4C306.521 288.539 306.134 287.625 305.708 286.731C305.504 286.3 305.504 285.876 306.009 285.7C306.436 285.55 306.672 285.863 306.823 286.229C307 286.659 307.19 287.09 307.387 287.514C307.951 288.754 308.66 289.909 309.565 290.927C310.09 291.515 310.667 292.043 311.389 292.389C312.616 292.976 313.652 292.65 314.308 291.462C314.715 290.725 314.945 289.916 314.991 289.081C315.069 287.782 315.076 286.477 314.859 285.185C314.84 285.08 314.807 284.982 314.781 284.884C314.669 284.441 314.676 283.971 315.174 283.847C315.699 283.716 315.863 284.16 315.955 284.604C316.165 285.628 316.296 286.659 316.244 287.619H316.257Z" fill="#121212"/>
<path d="M61.4315 203.192C61.4315 204.413 61.425 205.77 61.0051 207.082C60.3622 209.085 58.932 209.503 57.2854 208.172C56.216 207.304 55.4485 206.175 54.7596 205C52.4241 201.013 50.889 196.699 49.6491 192.275C49.4916 191.727 49.2751 191.191 49.2751 190.604C49.2751 190.317 49.4064 190.095 49.695 190.03C49.9902 189.958 50.2133 190.115 50.3182 190.369C50.456 190.702 50.5479 191.061 50.6463 191.413C51.8075 195.642 53.2639 199.76 55.3697 203.63C56.0192 204.817 56.7081 205.999 57.6987 206.951C58.1054 207.343 58.5187 207.872 59.1682 207.663C59.798 207.46 59.8964 206.795 60.0079 206.253C60.4803 203.969 60.1851 201.685 59.9292 199.407C59.8439 198.631 59.6537 197.867 59.529 197.097C59.4503 196.627 59.3453 196.092 60.0342 196.021C60.5852 195.962 60.6705 196.412 60.7493 196.849C61.1166 198.905 61.3725 200.974 61.4447 203.199L61.4315 203.192Z" fill="#121212"/>
<path d="M207.527 12.3521C200.973 12.3456 194.439 12.078 187.951 11.0992C185.773 10.7729 183.621 10.3487 181.561 9.53947C180.879 9.27191 180.203 8.97825 179.672 8.44965C179.396 8.16904 179.226 7.84275 179.58 7.49688C179.862 7.22932 180.164 7.3272 180.426 7.53603C181.601 8.48881 183.031 8.83468 184.448 9.20665C185.058 9.36328 185.648 9.38938 186.298 9.27191C192.852 8.07768 199.471 7.54908 206.13 7.29458C213.051 7.02702 219.953 7.15753 226.854 7.66002C228.993 7.81665 231.164 7.92759 233.25 8.37787C235.684 8.90646 237.915 8.46923 240.165 7.68613C240.611 7.52951 241.057 7.38594 241.51 7.275C241.766 7.21627 242.054 7.28152 242.173 7.55561C242.337 7.91453 242.133 8.16904 241.831 8.31261C241.412 8.51491 240.972 8.69764 240.526 8.84121C237.679 9.75483 234.746 10.303 231.794 10.7272C223.744 11.8823 215.649 12.3325 207.527 12.3325V12.3521ZM231.459 9.45464C215.577 7.41857 196.775 8.54754 189.506 10.1007C203.512 11.7061 217.486 11.4189 231.459 9.45464Z" fill="#121212"/>
<path d="M194.279 38.2922C200.623 38.2922 206.967 38.2922 213.311 38.2922C214.262 38.2922 215.2 38.3314 216.086 38.7229C218.028 39.5844 218.579 41.7314 217.273 43.402C216.079 44.929 214.426 45.4576 212.556 45.4576C203.431 45.4576 194.305 45.4576 185.186 45.4707C183.034 45.4707 180.883 45.5555 178.737 45.4707C176.343 45.3793 174.375 44.4592 173.22 42.2143C172.827 41.4508 172.649 40.6546 172.695 39.7997C172.767 38.4554 172.931 38.2922 174.289 38.2922C180.004 38.2922 185.718 38.2922 191.438 38.2922C192.383 38.2922 193.328 38.2922 194.272 38.2922H194.279Z" fill="#C10000"/>
<path d="M118.485 141.784C109.902 141.784 103.984 145.553 99.5066 149.814C99.5066 149.814 97.6986 151.528 97.7214 151.581L116.527 170.396L135.329 151.581C131.768 146.676 125.055 141.784 118.485 141.784Z" fill="#FCF6F5"/>
<path d="M164.92 141.784C156.336 141.784 150.419 145.553 145.941 149.814C145.941 149.814 144.29 151.483 144.215 151.581L120.971 174.84L139.747 193.626L181.764 151.581C178.203 146.676 171.493 141.784 164.92 141.784Z" fill="#FCF6F5"/>
<path d="M211.482 141.784C202.898 141.784 196.981 145.553 192.503 149.814C192.503 149.814 190.783 151.496 190.718 151.581L144.22 198.11L149.142 203.034C156.756 210.652 169.22 210.652 176.835 203.034L228.267 151.581H228.326C224.765 146.676 218.055 141.784 211.482 141.784Z" fill="#FCF6F5"/>
</g>
<defs>
<clipPath id="clip0_432_2018">
<rect width="367.886" height="404.271" fill="white" transform="translate(0.124023 0.367676)"/>
</clipPath>
</defs>
</svg>
