<svg width="287" height="430" viewBox="0 0 287 430" fill="none" xmlns="http://www.w3.org/2000/svg">
<path d="M182.081 274.233C182.895 274.432 183.363 273.836 183.891 273.524C201.619 262.942 219.338 252.332 237.057 241.721C239.509 240.255 239.136 240.671 240.375 242.515C244.092 248.057 247.792 253.618 251.501 259.169C252.523 260.71 252.523 260.71 251.423 262.062C249.421 264.502 247.385 266.914 245.427 269.391C244.803 270.186 244.153 270.413 243.261 270.148C242.013 269.77 240.731 269.524 239.509 269.089C238.4 268.692 237.707 268.909 237.022 270.016C235.714 272.143 234.146 274.091 232.872 276.238C232.023 277.675 231.078 277.969 229.649 277.524C227.846 276.966 225.975 276.664 224.164 276.125C223.09 275.803 222.448 276.134 221.799 277.08C219.563 280.304 217.215 283.435 214.997 286.678C214.226 287.804 213.429 288.267 212.172 287.879C211.228 287.586 210.154 287.009 209.287 287.406C208.412 287.804 207.979 289.023 207.528 289.979C206.757 291.634 205.587 292.362 203.932 292.589C201.836 292.882 199.765 293.383 197.685 293.809C196.992 293.95 196.351 294.177 195.822 294.792C194.367 296.475 192.85 298.092 191.378 299.757C191.126 300.041 190.598 300.305 190.996 300.835C191.282 301.232 191.637 300.929 191.949 300.788C193.457 300.069 194.973 299.369 196.464 298.622C197.122 298.291 197.772 298.14 198.5 298.168C200.562 298.253 202.624 298.206 204.678 298.301C205.553 298.338 206.255 298.121 206.939 297.506C208.525 296.078 210.188 294.735 211.782 293.326C212.424 292.759 213.013 292.522 213.871 292.835C215.318 293.364 216.843 293.61 218.281 294.158C219.355 294.565 220.118 294.395 220.976 293.563C223.098 291.53 225.386 289.695 227.465 287.624C228.574 286.517 229.519 286.508 230.758 287.189C232.439 288.106 234.18 288.882 235.896 289.714C237.343 290.414 237.351 290.414 238.426 289.232C240.037 287.454 241.675 285.695 243.243 283.86C243.893 283.104 244.482 282.877 245.392 283.302C246.796 283.955 248.277 284.409 249.672 285.061C250.556 285.468 251.163 285.345 251.864 284.607C253.589 282.773 255.391 281.014 257.167 279.236C258.562 277.836 258.831 277.912 259.541 279.888C263.657 291.35 267.764 302.811 271.88 314.273C276.61 327.465 281.341 340.657 286.081 353.849C286.124 353.972 286.15 354.095 286.193 354.218C286.852 356.109 286.86 356.119 285.249 356.951C279.626 359.864 274.002 362.767 268.379 365.67C245.349 377.576 222.318 389.482 199.288 401.388C199.236 401.416 199.184 401.454 199.132 401.482C197.885 402.126 196.978 401.795 196.412 400.49C190.728 387.392 185.044 374.294 179.36 361.197C173.719 348.213 168.079 335.238 162.438 322.264C162.187 321.687 161.918 321.12 161.632 320.495C160.913 320.855 160.809 321.602 160.549 322.198C151.911 341.641 143.29 361.093 134.651 380.545C134.114 381.756 133.542 382.957 132.901 384.101C131.151 387.25 128.577 388.924 125.172 388.933C119.757 388.962 114.341 388.971 108.926 388.99C107.254 388.99 105.677 388.555 104.161 387.789C72.2232 371.562 40.2858 355.343 8.33976 339.116C2.25727 336.023 -0.411401 329.205 1.70274 322.292C1.98867 321.365 2.44789 320.552 2.84646 319.692C18.9105 284.513 34.9745 249.334 51.0471 214.155C51.5035 213.159 51.3215 212.301 50.5013 211.583C45.6925 207.346 45.7358 202.069 50.6399 197.918C53.1873 195.762 56.1072 194.419 59.1918 193.511C60.3008 193.18 60.9507 192.565 61.4619 191.43C80.3852 149.925 99.3431 108.429 118.301 66.9425C118.847 65.7415 119.367 64.5121 119.973 63.3395C122.321 58.8287 125.718 55.7647 130.414 54.5731C133.62 53.7599 136.843 53.0317 139.893 51.6321C145.135 49.2206 149.693 45.8162 153.176 40.8326C154.25 39.3006 155.056 37.5795 155.957 35.9245C159.761 28.8888 164.933 23.4228 171.605 19.7063C172.446 19.2429 172.809 18.7134 172.896 17.7015C173.104 15.3751 172.844 13.0866 172.688 10.7792C172.558 8.8122 172.758 6.92087 173.607 5.17138C175.002 2.27763 177.133 0.452482 180.209 0.584875C183.38 0.717269 185.382 2.79774 186.491 5.91845C186.933 7.17619 187.236 8.48122 187.886 9.64439C189.705 12.8975 192.114 15.1482 195.684 15.9615C206.558 18.4391 214.763 25.0777 220.794 35.2248C226.72 45.1826 234.423 53.183 243.893 59.1124C245.73 60.2661 247.706 61.0983 249.594 62.1196C251.683 63.2355 253.173 64.985 254.377 67.0938C257.02 71.7276 259.628 76.3708 262.305 80.9762C264.35 84.4847 264.454 87.9836 262.79 91.738C242.949 136.392 223.142 181.066 203.283 225.72C202.719 226.988 202.702 227.801 203.595 228.898C205.223 230.884 206.376 233.201 206.662 235.915C207.104 240.132 204.877 242.988 200.978 243.253C199.669 243.338 198.361 243.263 197.139 242.799C196.134 242.411 195.736 242.714 195.294 243.726C192.166 250.904 188.969 258.053 185.789 265.202C184.611 267.859 183.432 270.507 182.262 273.174C182.141 273.458 181.968 273.732 182.072 274.233H182.081ZM173.997 257.542L172.056 261.892C168.85 268.966 165.696 276.068 162.412 283.567C164.353 283.056 165.887 282.669 167.411 282.262C169.118 281.799 170.825 281.099 172.446 282.697C172.654 282.196 172.809 281.922 172.87 281.619C173.165 280.276 173.893 279.415 175.054 278.829C176.379 278.158 177.627 277.297 178.927 276.55C179.524 276.21 179.949 275.756 180.244 275.075C181.301 272.578 182.41 270.101 183.501 267.614C184.108 266.233 184.715 264.862 185.312 263.481C186.092 261.93 186.846 260.36 187.409 258.696C190.641 251.424 193.864 244.142 197.122 236.889C197.495 236.057 197.408 235.659 196.646 235.253C193.587 233.617 190.554 231.915 187.496 230.26C186.395 229.664 186.361 229.683 185.824 230.893C182.592 238.165 179.369 245.447 176.137 252.719C175.418 254.327 174.698 255.935 173.988 257.542H173.997ZM2.18795 326.141C2.006 328.108 2.20529 329.999 3.12373 331.749C3.09774 332.439 3.49631 332.95 3.78224 333.498C4.96928 335.796 6.89278 337.064 9.01559 338.142C36.2741 351.967 63.5327 365.831 90.7826 379.685C95.4701 382.068 100.14 384.47 104.845 386.806C108.883 388.811 112.764 387.865 115.693 384.233C116.672 383.023 117.461 381.671 118.102 380.224C129.634 354.331 141.158 328.43 152.708 302.547C153.132 301.591 153.167 300.844 152.725 299.88C151.114 296.315 149.571 292.712 148.029 289.118C147.379 287.605 147.431 287.473 148.947 287.066C152.483 286.12 156.018 285.156 159.57 284.295C160.584 284.049 161.182 283.548 161.624 282.508C163.27 278.678 164.994 274.886 166.675 271.075C166.848 270.687 167.169 270.328 167.022 269.826C168.347 267.822 169.11 265.505 170.08 263.301C171.605 259.859 173.13 256.417 174.655 252.975C177.107 247.518 179.559 242.062 182.011 236.605C183.12 234.137 184.203 231.659 185.364 229.059C182.15 227.527 179.057 226.004 175.92 224.586C171.319 222.505 166.718 220.425 161.962 218.808C161.641 218.647 161.338 218.458 161.008 218.335C155.004 216.103 148.956 214.022 142.83 212.235C132.771 209.294 122.607 206.968 112.288 205.398C105.997 204.443 99.681 203.752 93.3299 203.384C85.4452 202.93 77.5779 202.741 69.7625 204.329C64.7197 205.351 59.807 206.798 55.2927 209.587C54.331 210.183 53.6811 210.958 53.1873 212.037C45.4152 229.106 37.6171 246.147 29.8364 263.207C29.6025 263.717 29.2386 264.171 29.2645 264.795H29.2732C29.0393 264.824 28.9873 265.004 29.0046 265.221C28.7967 265.609 28.5627 265.978 28.3808 266.375C21.0506 282.404 13.7291 298.442 6.40759 314.471C6.22563 314.869 6.10431 315.294 5.95702 315.71C4.73532 317.857 3.79089 320.164 2.82047 322.443C2.33526 323.588 2.05799 324.836 2.17063 326.132L2.18795 326.141ZM173.797 345.385C173.919 345.745 174.005 346.114 174.152 346.454C177.8 354.861 181.448 363.268 185.096 371.675C189.099 380.895 193.102 390.106 197.113 399.326C197.763 400.83 197.781 400.821 199.124 400.14C199.228 400.083 199.34 400.036 199.444 399.988C222.752 387.931 246.059 375.883 269.358 363.826C274.349 361.244 279.34 358.672 284.33 356.081C285.457 355.495 285.457 355.476 285.032 354.246C284.556 352.866 284.062 351.494 283.568 350.123C281.679 344.941 279.79 339.759 277.901 334.576C277.815 334.274 277.754 333.962 277.65 333.669C272.122 318.264 266.603 302.859 261.075 287.444C260.182 284.957 259.29 282.47 258.415 280.03C257.869 279.983 257.67 280.342 257.418 280.598C255.686 282.338 253.927 284.049 252.237 285.827C251.527 286.574 250.868 286.858 249.898 286.404C248.494 285.751 247.021 285.279 245.617 284.636C244.794 284.257 244.24 284.409 243.616 285.127C241.961 287.047 240.211 288.863 238.547 290.773C237.88 291.548 237.273 291.7 236.381 291.236C234.527 290.262 232.603 289.468 230.758 288.466C229.623 287.851 228.8 287.86 227.786 288.853C225.689 290.915 223.428 292.778 221.287 294.792C220.447 295.586 219.667 295.87 218.575 295.454C217.25 294.943 215.855 294.669 214.503 294.215C213.481 293.875 212.666 293.913 211.791 294.783C210.405 296.163 208.828 297.317 207.364 298.613C206.688 299.218 205.986 299.502 205.102 299.464C203.456 299.388 201.801 299.473 200.163 299.36C198.413 299.237 196.819 299.615 195.233 300.447C192.695 301.781 190.087 302.963 187.513 304.211C187.175 304.372 186.846 304.58 186.586 304.154C186.343 303.766 186.517 303.426 186.768 303.123C186.967 302.887 187.175 302.66 187.383 302.433C189.905 299.643 192.443 296.873 194.93 294.045C195.623 293.251 196.412 292.844 197.356 292.655C199.384 292.258 201.394 291.7 203.43 291.482C205.024 291.312 205.977 290.508 206.74 289.071C207.294 288.031 207.727 286.688 208.707 286.177C209.772 285.619 210.994 286.385 212.12 286.678C213.065 286.924 213.619 286.631 214.2 285.799C216.513 282.47 218.939 279.245 221.218 275.898C221.981 274.772 222.752 274.536 223.921 274.857C225.802 275.387 227.708 275.765 229.588 276.285C230.671 276.588 231.416 276.427 232.109 275.311C233.556 272.975 235.194 270.772 236.702 268.484C237.265 267.623 237.837 267.377 238.79 267.699C240.185 268.171 241.658 268.408 243.061 268.862C243.876 269.127 244.352 268.881 244.881 268.219C246.614 266.034 248.407 263.907 250.184 261.76C251.301 260.417 251.163 260.682 250.314 259.405C246.718 254.005 243.105 248.615 239.492 243.225C238.72 242.071 238.712 242.08 237.603 242.724C237.447 242.818 237.282 242.894 237.135 242.988C216.73 255.197 196.325 267.405 175.903 279.586C174.802 280.238 174.075 281.004 173.737 282.375C173.321 284.04 173.035 284.106 171.588 283.368C170.834 282.981 170.132 282.688 169.24 282.924C162.793 284.636 156.33 286.309 149.866 287.964C149.069 288.172 148.869 288.513 149.32 289.279C149.476 289.544 149.58 289.856 149.701 290.149C157.005 306.953 164.301 323.767 171.605 340.572C172.307 342.189 172.905 343.863 173.797 345.385ZM189.064 221.427C188.925 220.585 189.437 219.961 189.731 219.29C202.381 190.835 215.049 162.389 227.708 133.934C235.826 115.701 243.928 97.4593 252.055 79.2268C252.939 77.2408 253.528 75.1698 253.779 72.9948C254.369 67.8031 251.873 63.7745 247.35 62.6113C246.726 62.4506 246.077 62.3749 245.427 62.3371C238.616 61.8737 231.806 61.4198 224.996 60.9753C216.955 60.4552 208.906 59.9445 200.865 59.4433C191.767 58.8759 182.661 58.3369 173.563 57.779C165.462 57.2778 157.361 56.7576 149.259 56.2564C144.563 55.9633 139.858 55.7079 135.171 55.377C129.738 54.9892 125.441 57.221 122.122 61.8643C121.022 63.3962 120.32 65.1646 119.531 66.8858C100.695 108.107 81.8581 149.339 63.0388 190.57C62.7875 191.109 62.3543 191.62 62.5103 192.433C62.9089 192.395 63.3074 192.338 63.706 192.329C64.2432 192.329 65.0836 191.78 65.1963 192.669C65.3002 193.464 64.3905 193.36 63.8446 193.501C63.732 193.53 63.6107 193.52 63.498 193.549C59.6163 194.39 55.8559 195.61 52.4681 197.946C51.0645 198.92 49.7994 200.064 48.907 201.625C47.9452 203.308 47.7026 205.086 48.4218 206.958C49.0803 208.67 50.2587 209.909 51.593 211.006C52.0089 211.346 52.3295 211.327 52.5721 210.788C53.2913 209.19 54.0191 207.601 54.7642 205.946C53.6465 205.653 52.7714 206.221 51.8443 206.277C51.4024 206.306 50.7872 206.656 50.6399 205.965C50.4926 205.266 51.1858 205.294 51.593 205.133C51.7056 205.086 51.8269 205.095 51.9396 205.067C59.9716 203.261 68.0902 202.296 76.2695 202.012C91.3718 201.492 106.353 202.845 121.23 205.757C140.214 209.474 158.591 215.413 176.388 223.517C179.628 224.992 182.843 226.553 186.066 228.085C190.052 230.288 194.02 232.52 198.023 234.666C198.716 235.035 199.332 235.518 199.999 235.905C200.311 236.085 200.64 236.397 200.432 236.823C200.233 237.229 199.799 237.163 199.496 236.955C198.682 236.397 198.352 236.898 198.049 237.636C197.642 238.629 197.191 239.603 196.732 240.577C196.438 241.201 196.62 241.494 197.217 241.674C198.716 242.128 200.241 242.279 201.758 241.986C204.296 241.485 205.613 239.66 205.596 236.86C205.587 235.064 205.007 233.465 204.201 231.952C203.005 229.702 201.394 227.858 199.514 226.259C198.638 225.522 198.664 225.238 199.574 224.548C200.449 223.876 201.238 223.12 201.931 222.24C204.383 219.176 206.454 215.838 208.083 212.178C214.105 198.608 220.118 185.019 226.14 171.448C233.366 155.155 240.592 138.87 247.827 122.576C252.497 112.06 257.159 101.554 261.863 91.0571C262.643 89.3265 262.981 87.577 262.808 85.6668C262.669 84.1348 261.993 82.8581 261.291 81.6004C259.55 78.4702 257.765 75.3779 255.971 72.2855C255.738 71.8883 255.616 71.3304 254.966 71.1602C254.966 75.028 253.684 78.4229 252.168 81.7895C247.498 92.154 242.923 102.575 238.305 112.968C230.195 131.21 222.076 149.462 213.949 167.704C206.497 184.442 199.028 201.18 191.568 217.919C191.135 218.902 190.702 219.886 190.294 220.879C190.035 221.512 189.662 221.777 189.055 221.427H189.064ZM243.971 60.7578C244.006 60.4079 243.711 60.3606 243.538 60.2566C233.409 53.9679 225.464 45.2299 219.078 34.6479C213.602 25.5789 205.995 19.6212 196.212 17.3516C190.901 16.1222 187.574 12.7556 185.772 7.34641C185.468 6.43856 185.217 5.52127 184.723 4.70799C182.548 1.11445 178.329 0.736181 175.677 3.92309C174.499 5.35105 173.815 7.03434 173.754 8.97296C173.719 10.0605 173.815 11.1575 173.841 12.245C173.927 15.2617 174.092 18.2783 173.477 21.2572C173.312 22.0799 173.087 22.8743 172.567 23.5174C172.333 23.8105 172.021 24.0753 171.666 23.7443C171.397 23.489 171.51 23.158 171.683 22.8838C172.09 22.2596 172.428 21.6166 172.35 20.7655C171.579 20.8127 171.077 21.2761 170.539 21.6166C164.5 25.456 159.778 30.7044 156.425 37.3998C154.597 41.0501 152.266 44.237 149.32 46.8754C146.244 49.6273 142.822 51.6983 139.105 53.2303C138.645 53.4194 138.073 53.4194 137.753 53.9774C140.37 54.611 242.429 61.1172 243.962 60.7578H243.971ZM152.431 306.187C151.971 306.717 151.781 307.398 151.503 308.022C146.313 319.682 141.123 331.342 135.942 343.002C131.662 352.648 127.373 362.284 123.119 371.94C122.044 374.37 121.221 376.914 120.935 379.619C120.718 381.699 120.935 383.723 121.767 385.624C122.408 387.08 123.361 387.827 124.955 387.808C128.231 387.78 130.553 386.191 132.156 383.165C133.429 380.772 134.46 378.257 135.561 375.77C142.813 359.429 150.048 343.069 157.326 326.737C157.863 325.526 158.089 324.373 157.898 323.049C157.118 317.611 155.558 312.457 153.358 307.53C153.132 307.029 152.994 306.433 152.431 306.178V306.187Z" fill="#211F1E"/>
<path d="M152.706 416.722C158.355 416.722 164.004 416.627 169.653 416.741C177.59 416.911 185.535 417.129 193.463 417.526C200.924 417.895 208.375 418.33 215.809 419.086C221.017 419.616 226.224 420.136 231.353 421.309C232.731 421.621 234.126 421.923 235.374 422.661C236.5 423.332 236.5 424.098 235.356 424.722C233.597 425.677 231.665 426.018 229.75 426.321C223.928 427.247 218.088 427.862 212.213 428.316C189.833 430.046 167.418 429.971 145.003 429.801C138.591 429.753 132.179 429.545 125.768 429.271C117.372 428.912 108.967 428.496 100.589 427.739C94.3241 427.172 88.0683 426.529 81.8905 425.195C80.6255 424.921 79.3605 424.599 78.1994 423.956C77.7922 423.729 77.3157 423.484 77.3243 422.859C77.3417 422.254 77.7835 421.989 78.2081 421.772C79.9843 420.873 81.9079 420.514 83.814 420.193C91.6034 418.85 99.4708 418.273 107.338 417.819C122.44 416.94 137.56 416.599 152.68 416.722H152.706Z" fill="#211F1E"/>
<path d="M186.072 228.085C182.849 226.563 179.634 225.002 176.394 223.518C158.597 215.413 140.22 209.474 121.236 205.758C106.359 202.845 91.3863 201.483 76.2754 202.013C68.0961 202.297 59.9688 203.261 51.9455 205.068C51.8329 205.096 51.7029 205.086 51.5989 205.134C51.183 205.295 50.4899 205.276 50.6458 205.966C50.7931 206.656 51.4083 206.306 51.8502 206.278C52.7773 206.221 53.6524 205.644 54.7702 205.947C54.025 207.592 53.2972 209.191 52.578 210.789C52.3354 211.328 52.0235 211.356 51.5989 211.006C50.2646 209.909 49.0862 208.671 48.4277 206.959C47.7086 205.096 47.9512 203.309 48.9129 201.625C49.8054 200.065 51.0617 198.921 52.474 197.947C55.8532 195.611 59.6136 194.391 63.504 193.549C63.6166 193.521 63.7379 193.53 63.8505 193.502C64.3877 193.36 65.3062 193.464 65.2022 192.67C65.0896 191.781 64.2404 192.329 63.7119 192.329C63.3133 192.329 62.9148 192.396 62.5162 192.433C62.3603 191.62 62.8021 191.109 63.0447 190.57C81.8641 149.339 100.701 108.108 119.537 66.8863C120.326 65.1652 121.028 63.3968 122.128 61.8648C125.447 57.2216 129.753 54.9992 135.177 55.3775C139.873 55.7085 144.569 55.9638 149.265 56.257C157.367 56.7676 165.468 57.2783 173.569 57.7795C182.667 58.3375 191.773 58.8765 200.871 59.4439C208.912 59.9451 216.961 60.4558 225.002 60.9759C231.812 61.4203 238.622 61.8743 245.433 62.3376C246.074 62.3849 246.724 62.4606 247.356 62.6119C251.879 63.7656 254.374 67.7941 253.785 72.9953C253.543 75.1798 252.953 77.2414 252.061 79.2273C243.934 97.4598 235.824 115.702 227.714 133.934C215.055 162.38 202.387 190.835 189.737 219.29C189.434 219.962 188.931 220.586 189.07 221.437C188.074 223.659 187.069 225.872 186.072 228.095V228.085ZM133.903 66.4608C133.877 66.0352 133.903 65.3732 133.773 64.7586C133.461 63.3022 132.621 62.9145 131.399 63.6238C130.299 64.2668 129.354 65.1557 128.592 66.2243C127.361 67.936 126.114 69.6477 125.022 71.4633C120.776 78.5086 117.371 86.0267 114.46 93.819C112.935 97.9137 111.531 102.065 110.752 106.425C110.448 108.099 110.067 109.801 110.544 111.531C110.908 112.855 111.679 113.281 112.822 112.647C113.879 112.061 114.737 111.21 115.517 110.217C118.281 106.69 120.542 102.803 122.613 98.7743C126.512 91.2089 129.813 83.3599 132.24 75.0947C133.045 72.3617 133.808 69.5909 133.903 66.4608ZM95.0255 192.329C93.1453 192.329 91.2564 192.329 89.3762 192.329C88.969 192.329 88.5531 192.329 88.1458 192.367C87.8252 192.386 87.5566 192.566 87.574 192.944C87.6 193.303 87.8772 193.474 88.1978 193.493C88.605 193.521 89.021 193.521 89.4282 193.53C91.2564 193.559 93.0759 193.521 94.9041 193.625C105.778 194.249 116.574 195.639 127.301 197.739C143.01 200.803 158.441 204.992 173.465 210.921C174.08 211.167 175.051 211.924 175.311 211.101C175.649 210.051 174.366 210.061 173.751 209.815C167.851 207.441 161.855 205.389 155.79 203.554C143.087 199.715 130.195 196.802 117.146 194.779C109.807 193.644 102.434 192.84 95.0168 192.339L95.0255 192.329ZM154.923 162.872C154.265 162.985 153.684 163.08 153.104 163.193C140.982 165.671 128.886 168.309 116.834 171.156C109.261 172.943 101.688 174.768 94.1677 176.811C93.7171 176.934 93.2146 176.906 92.8507 177.293C92.7467 177.407 92.6427 177.634 92.6774 177.776C92.712 177.917 92.894 178.107 93.0326 178.125C93.6305 178.229 94.185 178.002 94.7569 177.851C113.264 173.038 131.884 168.763 150.591 164.952C152.038 164.659 153.476 164.375 154.915 164.054C155.244 163.978 155.677 163.855 155.642 163.382C155.608 162.9 155.218 162.853 154.923 162.872ZM183.759 220.501C184.253 220.463 184.755 220.662 184.963 220.151C185.188 219.584 184.686 219.376 184.365 219.139C183.932 218.808 183.481 218.496 183.014 218.241C176.429 214.628 169.506 211.999 162.418 209.853C161.534 209.588 160.607 209.276 159.645 209.351C159.333 209.37 159.048 209.474 158.978 209.843C158.926 210.099 159.03 210.335 159.212 210.534C159.671 211.054 160.261 211.347 160.841 211.668C166.75 214.874 172.928 217.295 179.244 219.347C180.761 219.839 182.294 220.283 183.759 220.51V220.501ZM102.72 127.967C102.841 129.074 102.477 130.085 103.352 130.53C104.305 131.012 104.825 130.085 105.406 129.49C105.536 129.357 105.657 129.215 105.752 129.064C107.381 126.596 108.533 123.891 109.071 120.903C109.192 120.232 109.192 119.484 109.071 118.813C108.897 117.801 108.17 117.517 107.346 118.056C107.095 118.217 106.853 118.416 106.671 118.662C104.487 121.451 103.205 124.676 102.711 127.977L102.72 127.967ZM58.236 199.299C60.4021 199.006 62.6982 198.58 64.8123 197.408C65.1676 197.209 65.5315 196.954 65.8001 196.632C66.2419 196.112 66.0947 195.488 65.4881 195.289C65.0549 195.147 64.5524 195.1 64.1105 195.166C61.8491 195.497 59.6223 195.989 57.5774 197.181C57.0229 197.502 56.2258 197.795 56.4164 198.628C56.6157 199.498 57.4648 199.195 58.2446 199.299H58.236ZM118.671 179.194C117.666 179.194 116.843 179.166 116.02 179.203C115.586 179.222 114.911 179.014 114.876 179.724C114.824 180.537 115.517 180.215 115.933 180.272C116.046 180.291 116.167 180.272 116.288 180.272C120.291 180.414 124.268 180.839 128.237 181.36C128.8 181.435 129.71 182.078 129.831 181.048C129.952 180.102 128.878 180.272 128.332 180.206C125.057 179.809 121.781 179.506 118.68 179.194H118.671Z" fill="#FA4616"/>
<path d="M167.044 269.821C167.192 270.322 166.862 270.681 166.698 271.069C165.017 274.88 163.284 278.672 161.646 282.502C161.205 283.533 160.607 284.034 159.593 284.29C156.04 285.15 152.505 286.105 148.97 287.06C147.454 287.467 147.402 287.599 148.052 289.112C149.594 292.715 151.136 296.318 152.748 299.874C153.181 300.839 153.155 301.586 152.731 302.541C141.181 328.424 129.648 354.316 118.125 380.218C117.475 381.665 116.686 383.017 115.716 384.228C112.787 387.85 108.906 388.805 104.868 386.8C100.163 384.464 95.4929 382.062 90.8054 379.679C63.5469 365.825 36.297 351.971 9.03844 338.136C6.91563 337.058 4.9921 335.791 3.80507 333.493C3.51914 332.944 3.12923 332.434 3.14655 331.743C3.38916 330.996 4.08231 331.025 4.60219 330.826C11.1439 328.339 17.6943 325.89 24.236 323.421C31.2282 320.792 38.2205 318.163 45.2128 315.534C51.1479 313.293 57.0744 311.033 63.0096 308.801C73.6583 304.792 84.3243 300.801 94.973 296.791C101.402 294.37 107.831 291.931 114.269 289.51C124.701 285.585 135.133 281.661 145.565 277.736C151.5 275.504 157.427 273.235 163.371 271.022C164.584 270.568 165.762 269.934 167.07 269.821H167.044Z" fill="#D3E6EB"/>
<path d="M173.796 345.386C172.903 343.873 172.306 342.189 171.604 340.572C164.3 323.768 156.995 306.963 149.7 290.149C149.57 289.856 149.475 289.553 149.319 289.279C148.877 288.513 149.067 288.173 149.864 287.965C156.328 286.31 162.783 284.636 169.238 282.924C170.131 282.688 170.833 282.981 171.586 283.369C173.033 284.106 173.319 284.04 173.735 282.376C174.082 281.014 174.81 280.239 175.901 279.586C196.324 267.406 216.728 255.197 237.133 242.989C237.289 242.894 237.445 242.818 237.601 242.724C238.71 242.081 238.719 242.071 239.49 243.225C243.103 248.615 246.716 254.006 250.312 259.405C251.161 260.682 251.3 260.417 250.182 261.76C248.406 263.907 246.612 266.035 244.879 268.219C244.351 268.881 243.874 269.127 243.06 268.862C241.656 268.408 240.183 268.172 238.788 267.699C237.835 267.377 237.263 267.623 236.7 268.484C235.193 270.782 233.555 272.976 232.108 275.312C231.415 276.437 230.67 276.588 229.587 276.286C227.706 275.766 225.792 275.387 223.92 274.858C222.759 274.527 221.979 274.773 221.217 275.898C218.938 279.246 216.503 282.48 214.198 285.799C213.618 286.631 213.072 286.924 212.119 286.679C210.993 286.385 209.78 285.629 208.705 286.177C207.726 286.688 207.293 288.031 206.738 289.071C205.976 290.499 205.014 291.303 203.428 291.483C201.392 291.7 199.382 292.258 197.355 292.655C196.402 292.844 195.622 293.251 194.929 294.045C192.451 296.873 189.903 299.644 187.382 302.433C187.174 302.66 186.966 302.887 186.767 303.124C186.507 303.426 186.342 303.767 186.585 304.154C186.853 304.58 187.182 304.381 187.512 304.211C190.085 302.953 192.693 301.781 195.232 300.447C196.817 299.615 198.412 299.237 200.162 299.36C201.808 299.473 203.454 299.388 205.101 299.464C205.984 299.502 206.686 299.218 207.362 298.613C208.818 297.317 210.395 296.164 211.79 294.783C212.665 293.913 213.479 293.875 214.502 294.216C215.845 294.669 217.248 294.944 218.574 295.454C219.666 295.87 220.446 295.587 221.286 294.792C223.426 292.778 225.688 290.915 227.784 288.854C228.789 287.861 229.621 287.851 230.756 288.466C232.593 289.459 234.525 290.263 236.38 291.237C237.272 291.709 237.879 291.549 238.546 290.773C240.201 288.863 241.959 287.047 243.614 285.128C244.238 284.409 244.793 284.258 245.616 284.636C247.028 285.279 248.501 285.742 249.896 286.404C250.867 286.858 251.525 286.575 252.236 285.827C253.925 284.04 255.684 282.328 257.417 280.598C257.668 280.352 257.868 279.983 258.413 280.03C259.289 282.47 260.181 284.957 261.073 287.445C266.601 302.849 272.129 318.254 277.649 333.669C277.753 333.962 277.822 334.274 277.9 334.577C277.657 334.643 277.12 334.577 277.224 334.804C277.51 335.418 277.207 335.589 276.825 335.778C275.734 336.326 274.729 337.092 273.533 337.395C273.325 336.61 273.152 335.806 272.909 335.031C272.805 334.69 272.632 334.217 272.225 334.331C271.687 334.482 271.817 335.012 271.913 335.437C272.138 336.411 272.485 337.357 272.502 338.388C272.034 338.416 271.575 338.482 271.142 338.709C267.113 340.809 262.841 342.227 258.613 343.74C257.183 344.251 255.753 344.875 254.211 344.97C254.41 344.44 254.592 343.901 254.809 343.381C256.048 340.459 256.923 337.404 257.417 334.236C257.512 333.612 258.136 332.496 257.122 332.326C256.334 332.194 256.507 333.366 256.395 334C255.372 339.608 253.535 344.809 250.243 349.339C249.81 349.339 249.697 349.651 249.706 350.048C249.628 350.407 249.402 350.653 249.134 350.861C248.493 350.672 248.042 350.993 247.539 351.4C241.37 356.374 234.3 358.862 226.788 359.561C222.135 359.996 217.413 359.977 212.76 358.909C207.787 357.774 203.004 356.147 198.646 353.216C198.056 352.819 197.459 352.365 196.713 352.317C196.471 352.034 196.237 351.75 195.994 351.476C190.995 345.887 187.633 339.296 185.961 331.702C185.701 330.52 185.554 329.309 185.337 328.118C185.276 327.787 185.094 327.513 184.739 327.531C184.367 327.55 184.263 327.853 184.289 328.203C184.323 328.647 184.349 329.101 184.419 329.546C185.198 334.047 186.541 338.331 188.508 342.388C189.747 344.951 191.35 347.239 192.84 349.613C189.487 349.32 186.177 348.629 182.902 347.854C179.844 347.135 176.82 346.218 173.778 345.386H173.796ZM195.336 314.093C195.422 312.911 195.076 311.814 194.781 310.717C194.634 310.169 194.365 309.639 193.733 309.564C193.126 309.488 192.771 309.829 192.459 310.358C191.861 311.379 191.324 312.401 191.021 313.611C190.605 315.285 190.536 317.006 190.189 318.671C189.816 320.458 190.241 322.084 190.553 323.749C190.674 324.373 191.021 325.016 191.627 325.177C192.312 325.356 192.615 324.619 192.988 324.165C193.213 323.891 193.334 323.503 193.499 323.162C194.885 320.325 194.894 317.157 195.327 314.093H195.336ZM164.594 301.488C164.629 301.857 164.689 302.556 164.776 303.256C165.27 307.332 166.951 310.935 168.519 314.585C168.736 315.086 168.84 316.098 169.654 315.616C170.287 315.238 169.698 314.576 169.498 314.112C168.432 311.616 167.349 309.138 166.561 306.509C165.764 303.842 165.452 301.157 165.98 298.376C166.613 295.076 168.294 292.844 171.283 291.842C172.747 291.35 174.264 291.161 175.78 290.991C177.288 290.83 178.873 290.896 180.208 289.951C181.88 288.768 183.275 287.161 184.999 286.045C185.224 285.903 185.328 285.648 185.164 285.392C185.016 285.156 184.748 285.118 184.531 285.213C184.211 285.355 183.89 285.534 183.613 285.752C182.807 286.395 181.958 286.991 181.239 287.728C180.026 288.967 178.631 289.61 176.976 289.733C175.511 289.847 174.047 289.979 172.6 290.263C168.831 290.991 166.102 293.119 165.097 297.346C164.802 298.585 164.629 299.852 164.603 301.478L164.594 301.488ZM251.811 324.921C252.019 323.21 251.586 321.583 250.815 320.023C250.442 319.266 249.905 319.096 249.212 319.2C248.423 319.323 248.198 320.032 248.016 320.694C247.323 323.219 247.47 325.716 248.276 328.193C248.423 328.638 248.631 328.988 248.917 329.309C249.862 330.35 250.667 330.208 251.248 328.903C251.802 327.664 251.932 326.34 251.802 324.921H251.811ZM173.397 298.358C173.397 297.781 173.484 297.185 173.38 296.636C173.103 295.067 171.942 294.66 170.789 295.634C169.247 296.948 168.432 300.911 168.987 302.509C169.238 303.237 169.576 303.937 170.365 304.098C171.205 304.277 171.699 303.644 172.089 303.02C172.947 301.62 173.519 300.098 173.397 298.358ZM257.946 324.155C257.495 317.678 255.797 311.739 252.885 306.226C252.582 305.649 252.4 304.391 251.525 304.93C250.789 305.393 251.646 306.169 251.924 306.708C254.722 312.145 256.464 317.923 256.828 324.174C256.862 324.685 256.923 325.196 257.001 325.697C257.044 325.999 257.07 326.387 257.486 326.312C257.833 326.245 257.911 325.895 257.928 325.583C257.954 325.073 257.928 324.562 257.928 324.165L257.946 324.155ZM235.123 258.885C232.905 258.885 230.826 259.462 228.859 260.569C228.556 260.739 228.261 260.966 228.001 261.212C227.88 261.325 227.802 261.552 227.949 261.722C228.062 261.855 228.235 262.034 228.356 262.015C228.633 261.978 228.911 261.855 229.171 261.713C234.517 258.838 239.395 259.736 243.883 263.86C244.152 264.105 244.438 264.323 244.732 264.531C244.905 264.654 245.079 264.55 245.217 264.436C245.443 264.257 245.46 264.011 245.295 263.774C245.157 263.566 245.001 263.368 244.827 263.198C242.063 260.493 238.892 258.876 235.115 258.876L235.123 258.885ZM266.749 318.321C266.645 318.009 266.558 317.706 266.454 317.413C265.094 313.658 263.733 309.914 262.364 306.159C262.278 305.923 262.182 305.686 262.053 305.469C261.888 305.185 261.654 304.987 261.333 305.195C261.108 305.337 261.021 305.573 261.099 305.847C261.186 306.15 261.29 306.452 261.403 306.746C262.72 310.377 264.037 314.008 265.371 317.63C265.501 317.98 265.648 318.34 265.839 318.652C265.978 318.879 266.263 318.907 266.48 318.784C266.601 318.708 266.653 318.491 266.757 318.302L266.749 318.321ZM191.047 332.723C190.917 333.744 191.393 334.908 192.156 335.91C192.927 336.931 193.828 336.704 194.279 335.475C194.833 333.981 194.339 331.692 193.222 330.567C192.373 329.706 191.419 330 191.133 331.238C191.047 331.598 191.09 331.995 191.056 332.723H191.047ZM184.003 319.247C184.003 319.616 183.994 319.928 184.003 320.25C184.02 320.59 184.124 320.931 184.488 320.893C184.782 320.864 185.008 320.619 185.042 320.24C185.06 320.051 185.06 319.853 185.068 319.663C185.198 317.479 185.536 315.332 186.03 313.214C186.099 312.902 186.143 312.58 186.16 312.268C186.169 311.994 186.039 311.758 185.762 311.758C185.606 311.758 185.389 311.833 185.302 311.956C185.172 312.145 185.103 312.41 185.051 312.656C184.522 314.831 184.219 317.044 184.003 319.247Z" fill="#FA4616"/>
<path d="M161.969 218.815C166.726 220.432 171.327 222.512 175.928 224.593C179.064 226.011 182.158 227.543 185.372 229.066C184.22 231.667 183.128 234.144 182.019 236.612C179.576 242.069 177.115 247.525 174.663 252.982C174.039 252.821 173.502 253.162 172.965 253.379C165.418 256.405 157.906 259.498 150.35 262.486C141.746 265.89 133.117 269.21 124.487 272.529C117.07 275.385 109.653 278.222 102.219 281.012C92.2287 284.766 82.2472 288.511 72.231 292.18C51.9821 299.594 31.7418 307.046 11.3715 314.072C9.59526 314.687 7.83638 315.462 5.96484 315.718C6.11214 315.302 6.23343 314.876 6.41539 314.479C13.7369 298.44 21.0584 282.411 28.3886 266.382C28.5706 265.985 28.8045 265.616 29.0124 265.228C29.2117 265.162 29.3244 265.039 29.281 264.793H29.2724C30.1215 264.973 30.9013 264.68 31.6811 264.406C34.4711 263.422 37.2611 262.439 40.0597 261.455C49.452 258.174 58.8443 254.911 68.2367 251.62C74.2758 249.511 80.2977 247.365 86.3368 245.256C95.7292 241.974 105.121 238.712 114.514 235.421C121.272 233.047 128.03 230.645 134.789 228.272C142.942 225.397 151.104 222.531 159.266 219.675C160.158 219.363 161.068 219.089 161.961 218.805L161.969 218.815Z" fill="#FCF6F5"/>
<path d="M161.983 218.818C161.082 219.111 160.181 219.376 159.288 219.688C151.126 222.553 142.973 225.418 134.811 228.284C128.053 230.667 121.303 233.069 114.536 235.433C105.144 238.724 95.7515 241.986 86.3592 245.268C80.3201 247.377 74.2982 249.523 68.2591 251.632C58.8667 254.914 49.4744 258.186 40.0821 261.467C37.2834 262.441 34.4935 263.425 31.7035 264.418C30.915 264.692 30.1352 264.985 29.2948 264.805C29.2688 264.181 29.6327 263.718 29.8666 263.217C37.6474 246.157 45.4454 229.116 53.2175 212.047C53.7113 210.959 54.3525 210.193 55.323 209.597C59.8372 206.808 64.7499 205.37 69.7927 204.339C77.6081 202.751 85.4755 202.93 93.3602 203.394C99.7026 203.763 106.019 204.453 112.318 205.408C122.638 206.978 132.801 209.304 142.861 212.245C148.986 214.042 155.034 216.122 161.039 218.345C161.368 218.468 161.671 218.657 161.992 218.818H161.983Z" fill="#D3E6EB"/>
<path d="M254.219 344.975C255.762 344.88 257.191 344.256 258.621 343.745C262.849 342.232 267.112 340.814 271.15 338.714C271.592 338.487 272.042 338.421 272.51 338.393C273.238 343.045 272.58 347.452 270.483 351.575C269.53 353.457 268.213 354.989 266.488 356.086C266.012 356.389 264.903 356.427 265.405 357.363C265.804 358.1 266.575 357.353 267.095 357.032C269.625 355.5 271.193 353.051 272.311 350.232C273.949 346.109 274.174 341.807 273.541 337.409C274.737 337.107 275.733 336.341 276.834 335.792C277.215 335.603 277.51 335.442 277.232 334.818C277.12 334.582 277.666 334.648 277.908 334.591C279.797 339.773 281.695 344.956 283.575 350.138C284.077 351.509 284.563 352.88 285.039 354.261C285.464 355.49 285.464 355.509 284.337 356.096C279.347 358.687 274.356 361.259 269.365 363.841C246.058 375.898 222.75 387.946 199.451 400.003C199.347 400.06 199.235 400.107 199.131 400.154C197.788 400.835 197.77 400.845 197.12 399.341C193.109 390.13 189.106 380.91 185.103 371.69C181.455 363.283 177.799 354.876 174.159 346.469C174.012 346.128 173.917 345.759 173.804 345.4C176.845 346.232 179.869 347.14 182.928 347.868C186.212 348.644 189.513 349.334 192.866 349.627C193.75 350.63 194.634 351.641 195.526 352.644C196.081 353.268 196.436 352.937 196.73 352.332C197.467 352.379 198.065 352.833 198.663 353.23C203.021 356.162 207.804 357.779 212.777 358.923C217.43 359.982 222.161 360.001 226.805 359.576C234.317 358.876 241.387 356.389 247.557 351.415C248.059 351.008 248.518 350.686 249.151 350.875C246.456 354.8 242.973 357.703 239.022 359.926C231.302 364.285 223.166 365.146 214.718 363.122C214.172 362.99 213.288 362.337 213.124 363.415C213.011 364.172 213.982 364.124 214.493 364.247C218.357 365.146 222.239 365.609 226.207 365.165C237.913 363.86 246.907 357.845 253.128 346.932C253.5 346.289 253.864 345.636 254.228 344.984L254.219 344.975ZM210.94 383.662C212.448 383.728 214.415 383.359 216.312 382.631C216.806 382.442 217.803 382.461 217.56 381.629C217.274 380.645 216.494 381.383 215.948 381.562C209.251 383.775 203.419 382.187 198.446 376.825C196.713 374.952 195.388 372.768 194.27 370.413C194.088 370.025 194.001 369.543 193.629 369.297C193.499 369.212 193.273 369.193 193.152 369.259C193.022 369.325 192.857 369.571 192.892 369.685C192.987 370.11 193.135 370.536 193.317 370.933C194.434 373.354 195.812 375.586 197.562 377.524C201.106 381.44 205.308 383.709 210.949 383.662H210.94ZM207.76 360.937C207.76 360.654 207.622 360.455 207.396 360.332C205.395 359.254 203.463 358.063 201.609 356.701C201.34 356.502 201.019 356.512 200.82 356.805C200.517 357.24 200.837 357.514 201.123 357.732C202.856 359.056 204.685 360.209 206.591 361.202C206.799 361.306 207.033 361.382 207.258 361.391C207.509 361.391 207.682 361.212 207.76 360.937Z" fill="#E12D00"/>
<path d="M243.969 60.7583C242.435 61.1176 140.376 54.6114 137.759 53.9778C138.08 53.4199 138.652 53.4199 139.111 53.2307C142.828 51.6988 146.251 49.6277 149.326 46.8758C152.281 44.2374 154.612 41.0505 156.431 37.4002C159.784 30.7049 164.507 25.4564 170.546 21.617C171.083 21.2766 171.586 20.8132 172.357 20.7659C172.435 21.6075 172.097 22.2506 171.689 22.8842C171.516 23.1585 171.395 23.4894 171.672 23.7448C172.027 24.0758 172.339 23.811 172.573 23.5178C173.093 22.8748 173.31 22.0804 173.483 21.2577C174.098 18.2788 173.925 15.2621 173.847 12.2454C173.821 11.1579 173.726 10.0609 173.76 8.9734C173.821 7.04424 174.505 5.35149 175.684 3.92353C178.335 0.736627 182.555 1.1149 184.73 4.70844C185.223 5.52172 185.475 6.43901 185.778 7.34685C187.58 12.7655 190.899 16.1227 196.219 17.352C206.001 19.6216 213.608 25.5794 219.084 34.6483C225.47 45.2304 233.415 53.9684 243.544 60.2571C243.718 60.3611 244.012 60.4084 243.978 60.7583H243.969ZM169.168 30.2226C169.194 28.7663 168.475 28.0381 167.383 28.1516C166.837 28.2083 166.395 28.5204 165.936 28.8136C163.874 30.1375 162.722 32.3125 161.526 34.4403C161.006 35.3765 160.616 36.3884 160.408 37.457C160.235 38.3554 160.218 39.3105 161.084 39.8495C161.829 40.3129 162.514 40.0859 163.207 39.5469C165.46 37.8069 167.227 35.6224 168.371 32.8894C168.752 31.9626 168.952 30.9508 169.159 30.2226H169.168ZM180.129 7.39414C180.129 7.8386 180.077 8.11286 180.137 8.34927C180.562 9.94746 180.943 11.6118 182.468 12.444C183.612 13.0682 184.296 12.6426 184.357 11.2619C184.452 9.38004 183.958 7.72513 182.659 6.41065C182.096 5.84325 181.584 5.0867 180.701 5.53117C179.877 5.94726 180.172 6.85512 180.12 7.4036L180.129 7.39414ZM203.584 50.4221C203.731 50.3937 204.077 50.337 204.424 50.2803C208.8 49.5332 212.482 47.2825 215.723 44.0861C216.156 43.6606 217.144 43.131 216.641 42.5069C215.965 41.6652 215.454 42.8189 214.995 43.2634C211.997 46.1571 208.661 48.3133 204.684 49.136C204.112 49.2589 203.523 49.2873 202.942 49.363C202.622 49.4008 202.336 49.5805 202.362 49.9398C202.397 50.2897 202.717 50.4032 203.029 50.4316C203.142 50.441 203.263 50.4316 203.584 50.4316V50.4221ZM157.783 42.8378C157.67 42.8473 157.54 42.8378 157.445 42.8851C156.206 43.5565 155.201 44.5211 154.759 45.9775C154.482 46.8853 155.314 47.7553 156.085 47.3203C157.168 46.7056 158.13 45.8167 158.545 44.4927C158.805 43.67 158.372 42.8946 157.783 42.8378Z" fill="#E12D00"/>
<path d="M186.062 228.084C187.059 225.871 188.064 223.649 189.06 221.427C189.676 221.776 190.04 221.512 190.308 220.878C190.715 219.885 191.149 218.892 191.582 217.918C199.042 201.18 206.511 184.441 213.962 167.703C222.09 149.461 230.2 131.219 238.318 112.968C242.936 102.575 247.52 92.1535 252.181 81.789C253.698 78.4224 254.989 75.0275 254.98 71.1597C255.63 71.3299 255.751 71.8878 255.985 72.285C257.779 75.3773 259.564 78.4791 261.305 81.5999C262.007 82.8576 262.683 84.1342 262.821 85.6662C262.995 87.5765 262.657 89.326 261.877 91.0565C257.172 101.553 252.511 112.06 247.84 122.576C240.606 138.86 233.379 155.154 226.153 171.448C220.131 185.028 214.127 198.608 208.096 212.178C206.467 215.838 204.397 219.176 201.945 222.24C201.243 223.11 200.463 223.876 199.588 224.547C198.678 225.247 198.652 225.521 199.527 226.259C201.407 227.857 203.028 229.692 204.215 231.952C205.02 233.465 205.601 235.063 205.61 236.86C205.627 239.65 204.301 241.484 201.771 241.985C200.255 242.288 198.73 242.137 197.231 241.673C196.642 241.494 196.451 241.2 196.746 240.576C197.205 239.602 197.647 238.628 198.063 237.635C198.366 236.898 198.695 236.396 199.51 236.954C199.813 237.162 200.246 237.219 200.446 236.822C200.654 236.396 200.324 236.084 200.012 235.905C199.345 235.508 198.721 235.035 198.037 234.666C194.034 232.519 190.057 230.287 186.08 228.084H186.062ZM231.993 136.553C231.984 138.141 232.435 139.097 233.44 139.711C234.54 140.383 235.598 140.156 236.62 139.513C237.408 139.021 237.928 138.245 238.327 137.366C239.722 134.255 241.117 131.143 242.503 128.032C243.508 125.782 244.531 123.54 245.484 121.271C246.108 119.795 245.822 118.396 244.825 117.403C243.855 116.429 242.529 116.296 241.212 117.034C240.276 117.554 239.678 118.396 239.228 119.398C236.966 124.477 234.696 129.545 232.426 134.614C232.132 135.267 231.976 135.929 231.993 136.562V136.553Z" fill="#E12D00"/>
<path d="M5.97922 315.709C7.85076 315.444 9.60964 314.678 11.3859 314.064C31.7561 307.037 51.9964 299.595 72.2454 292.171C82.2615 288.502 92.2431 284.757 102.233 281.003C109.667 278.213 117.084 275.376 124.501 272.52C133.131 269.201 141.761 265.872 150.365 262.477C157.92 259.489 165.441 256.397 172.979 253.371C173.516 253.153 174.053 252.813 174.677 252.973C173.152 256.416 171.627 259.858 170.102 263.3C169.513 263.272 168.95 263.319 168.369 263.546C161.611 266.147 154.853 268.728 148.086 271.291C141.544 273.769 134.985 276.218 128.435 278.686C117.994 282.611 107.562 286.535 97.1212 290.46C91.238 292.673 85.3634 294.923 79.4802 297.136C69.1521 301.023 58.8327 304.9 48.496 308.768C42.5521 310.99 36.5823 313.137 30.6557 315.406C21.1854 319.047 11.7065 322.65 2.18416 326.121C2.07152 324.825 2.34879 323.577 2.834 322.433C3.80443 320.154 4.74885 317.846 5.97055 315.7L5.97922 315.709Z" fill="#D3E6EB"/>
<path d="M152.426 306.189C152.989 306.445 153.128 307.05 153.353 307.542C155.562 312.469 157.122 317.623 157.893 323.06C158.084 324.394 157.858 325.538 157.321 326.748C150.043 343.08 142.808 359.431 135.556 375.781C134.456 378.259 133.425 380.784 132.151 383.176C130.539 386.203 128.217 387.791 124.951 387.82C123.356 387.839 122.395 387.082 121.762 385.635C120.922 383.734 120.714 381.711 120.93 379.63C121.216 376.916 122.039 374.382 123.114 371.951C127.368 362.296 131.657 352.65 135.937 343.014C141.119 331.354 146.309 319.694 151.499 308.034C151.776 307.409 151.967 306.728 152.426 306.199V306.189Z" fill="#A3B0B3"/>
<path d="M2.18077 326.14C11.7031 322.669 21.1821 319.066 30.6524 315.425C36.5789 313.146 42.5487 311.009 48.4926 308.787C58.8207 304.919 69.1488 301.042 79.4769 297.155C85.3601 294.942 91.2346 292.691 97.1178 290.479C107.55 286.545 117.991 282.63 128.431 278.705C134.982 276.237 141.541 273.788 148.082 271.31C154.849 268.747 161.608 266.165 168.366 263.565C168.947 263.338 169.51 263.3 170.099 263.319C169.129 265.522 168.366 267.839 167.04 269.844C165.732 269.958 164.554 270.591 163.341 271.045C157.397 273.258 151.47 275.518 145.535 277.759C135.103 281.684 124.671 285.608 114.239 289.533C107.81 291.954 101.381 294.394 94.943 296.815C84.2857 300.824 73.6283 304.815 62.9796 308.825C57.0445 311.056 51.1179 313.316 45.1827 315.558C38.1905 318.196 31.1982 320.816 24.206 323.445C17.6556 325.903 11.1052 328.362 4.57218 330.849C4.05231 331.048 3.36782 331.019 3.11655 331.766C2.19811 330.017 1.99882 328.126 2.18077 326.159V326.14Z" fill="#FCF6F5"/>
<path d="M176.165 252.723C179.388 245.451 182.611 238.169 185.852 230.897C186.389 229.696 186.424 229.668 187.524 230.264C190.574 231.919 193.607 233.621 196.674 235.257C197.436 235.663 197.523 236.061 197.151 236.893C193.884 244.146 190.669 251.428 187.438 258.7C183.686 256.705 179.925 254.719 176.174 252.723H176.165Z" fill="#D3E6EB"/>
<path d="M183.496 267.613C182.404 270.1 181.304 272.578 180.238 275.075C179.952 275.755 179.519 276.209 178.921 276.55C177.622 277.297 176.374 278.157 175.048 278.829C173.887 279.415 173.159 280.276 172.865 281.619C172.804 281.912 172.64 282.186 172.44 282.697C170.82 281.108 169.113 281.808 167.406 282.262C165.881 282.678 164.348 283.065 162.407 283.567C165.699 276.067 168.844 268.966 172.05 261.901C175.473 263.717 178.904 265.523 182.335 267.33C182.699 267.519 183.063 267.783 183.496 267.613Z" fill="#A3B0B3"/>
<path d="M183.493 267.614C183.051 267.784 182.687 267.529 182.332 267.33C178.901 265.524 175.479 263.709 172.047 261.902C172.697 260.446 173.347 258.999 173.988 257.543C177.757 259.519 181.535 261.505 185.304 263.482C184.698 264.862 184.091 266.233 183.493 267.614Z" fill="#D3E6EB"/>
<path d="M185.322 263.48C181.553 261.504 177.775 259.518 174.006 257.541C174.725 255.934 175.444 254.326 176.155 252.718C179.906 254.714 183.667 256.7 187.419 258.695C186.855 260.359 186.102 261.929 185.322 263.48Z" fill="#A3B0B3"/>
<path d="M29.2865 264.783C29.3295 265.027 29.2178 265.149 29.0201 265.215C29.0029 264.999 29.0545 264.821 29.2865 264.783Z" fill="#D3E6EB"/>
<path d="M133.896 66.4614C133.801 69.5916 133.039 72.3624 132.233 75.0954C129.798 83.3605 126.497 91.2191 122.607 98.775C120.536 102.804 118.274 106.69 115.51 110.218C114.73 111.211 113.873 112.062 112.816 112.648C111.681 113.272 110.901 112.856 110.537 111.532C110.06 109.801 110.45 108.099 110.745 106.425C111.525 102.066 112.92 97.9144 114.453 93.8196C117.365 86.0273 120.77 78.5093 125.015 71.464C126.107 69.6483 127.355 67.9367 128.585 66.225C129.348 65.1659 130.292 64.2675 131.392 63.6244C132.623 62.9152 133.455 63.3029 133.766 64.7592C133.896 65.3739 133.87 66.0359 133.896 66.4614Z" fill="#FCF6F5"/>
<path d="M95.0139 192.332C102.422 192.824 109.804 193.628 117.143 194.772C130.192 196.796 143.085 199.699 155.787 203.548C161.843 205.382 167.848 207.434 173.748 209.808C174.363 210.054 175.646 210.044 175.308 211.094C175.039 211.926 174.069 211.16 173.462 210.914C158.438 204.994 143.007 200.805 127.298 197.732C116.571 195.632 105.775 194.242 94.9012 193.618C93.0817 193.514 91.2535 193.552 89.4253 193.524C89.0094 193.524 88.6022 193.524 88.1949 193.486C87.8743 193.467 87.5971 193.297 87.5711 192.937C87.5451 192.559 87.8137 192.379 88.1429 192.36C88.5502 192.332 88.9661 192.323 89.3733 192.323C91.2535 192.323 93.1424 192.323 95.0226 192.323L95.0139 192.332Z" fill="#211F1E"/>
<path d="M154.926 162.869C155.221 162.84 155.611 162.897 155.646 163.379C155.68 163.862 155.247 163.985 154.918 164.051C153.479 164.372 152.033 164.656 150.594 164.949C131.888 168.76 113.276 173.035 94.7601 177.848C94.1882 178 93.6337 178.226 93.0359 178.122C92.8972 178.094 92.7153 177.914 92.6806 177.773C92.646 177.631 92.7499 177.404 92.8539 177.29C93.2091 176.903 93.7204 176.931 94.1709 176.808C101.692 174.765 109.265 172.94 116.837 171.153C128.89 168.306 140.985 165.668 153.107 163.19C153.687 163.077 154.268 162.982 154.926 162.869Z" fill="#211F1E"/>
<path d="M183.757 220.498C182.284 220.262 180.759 219.827 179.243 219.335C172.935 217.283 166.749 214.862 160.839 211.656C160.259 211.344 159.678 211.042 159.211 210.522C159.037 210.323 158.925 210.087 158.977 209.831C159.055 209.463 159.341 209.368 159.644 209.34C160.606 209.273 161.524 209.576 162.416 209.841C169.504 211.987 176.427 214.616 183.012 218.229C183.48 218.484 183.93 218.806 184.364 219.127C184.684 219.364 185.187 219.572 184.961 220.139C184.754 220.65 184.26 220.442 183.757 220.489V220.498Z" fill="#FCF6F5"/>
<path d="M102.702 127.967C103.196 124.657 104.478 121.433 106.661 118.652C106.852 118.416 107.086 118.208 107.337 118.047C108.16 117.518 108.888 117.801 109.061 118.804C109.183 119.475 109.174 120.222 109.061 120.894C108.524 123.882 107.372 126.587 105.743 129.055C105.639 129.206 105.518 129.357 105.396 129.48C104.816 130.076 104.296 131.003 103.343 130.521C102.468 130.076 102.832 129.074 102.71 127.958L102.702 127.967Z" fill="#FCF6F5"/>
<path d="M58.2296 199.302C57.4585 199.198 56.6007 199.5 56.4014 198.63C56.2107 197.798 57.0079 197.505 57.5624 197.183C59.6072 195.992 61.834 195.5 64.0955 195.169C64.546 195.103 65.0399 195.16 65.4731 195.292C66.0883 195.491 66.2269 196.115 65.785 196.635C65.5164 196.956 65.1612 197.212 64.7973 197.41C62.6831 198.573 60.387 199.009 58.2209 199.302H58.2296Z" fill="#FCF6F5"/>
<path d="M118.656 179.194C121.758 179.506 125.042 179.808 128.308 180.206C128.863 180.272 129.929 180.102 129.807 181.047C129.677 182.078 128.776 181.435 128.213 181.359C124.245 180.839 120.268 180.414 116.265 180.272C116.143 180.272 116.031 180.281 115.909 180.272C115.494 180.215 114.8 180.527 114.852 179.723C114.896 179.014 115.572 179.232 115.996 179.203C116.819 179.165 117.642 179.194 118.647 179.194H118.656Z" fill="#211F1E"/>
<path d="M254.221 344.979C253.857 345.631 253.493 346.274 253.121 346.927C246.891 357.84 237.906 363.854 226.2 365.159C222.232 365.604 218.35 365.131 214.486 364.242C213.966 364.119 212.996 364.167 213.117 363.41C213.281 362.332 214.165 362.984 214.711 363.117C223.159 365.141 231.295 364.28 239.015 359.92C242.957 357.698 246.449 354.785 249.144 350.87C249.412 350.662 249.638 350.416 249.716 350.057C250.036 349.944 250.149 349.65 250.253 349.348C253.537 344.828 255.382 339.617 256.405 334.009C256.517 333.376 256.344 332.203 257.133 332.335C258.146 332.505 257.522 333.621 257.427 334.246C256.942 337.414 256.058 340.468 254.819 343.39C254.602 343.91 254.42 344.449 254.221 344.979Z" fill="#211F1E"/>
<path d="M195.339 314.094C194.897 317.158 194.897 320.326 193.511 323.163C193.346 323.503 193.225 323.881 193 324.165C192.627 324.619 192.324 325.366 191.639 325.177C191.042 325.016 190.686 324.373 190.565 323.749C190.244 322.085 189.829 320.449 190.201 318.671C190.548 317.006 190.617 315.285 191.033 313.611C191.327 312.401 191.865 311.389 192.471 310.358C192.783 309.819 193.138 309.488 193.745 309.564C194.377 309.64 194.646 310.169 194.793 310.718C195.088 311.815 195.443 312.912 195.348 314.094H195.339Z" fill="#FCF6F5"/>
<path d="M164.591 301.484C164.617 299.858 164.79 298.59 165.085 297.352C166.098 293.124 168.819 290.997 172.588 290.269C174.026 289.985 175.499 289.852 176.964 289.739C178.619 289.616 180.014 288.973 181.227 287.734C181.954 286.997 182.795 286.391 183.601 285.758C183.878 285.54 184.198 285.36 184.519 285.219C184.736 285.124 185.004 285.162 185.152 285.398C185.308 285.654 185.212 285.9 184.987 286.051C183.263 287.167 181.868 288.774 180.195 289.956C178.861 290.902 177.276 290.836 175.768 290.997C174.243 291.157 172.735 291.347 171.271 291.848C168.29 292.86 166.601 295.082 165.968 298.382C165.44 301.163 165.752 303.858 166.549 306.515C167.329 309.144 168.42 311.622 169.486 314.118C169.685 314.582 170.275 315.244 169.642 315.622C168.828 316.104 168.724 315.092 168.507 314.591C166.939 310.941 165.258 307.328 164.764 303.262C164.677 302.562 164.625 301.862 164.582 301.494L164.591 301.484Z" fill="#211F1E"/>
<path d="M251.808 324.919C251.93 326.338 251.808 327.662 251.254 328.901C250.673 330.206 249.868 330.338 248.923 329.307C248.629 328.986 248.421 328.626 248.282 328.191C247.476 325.714 247.329 323.217 248.022 320.692C248.204 320.03 248.429 319.321 249.218 319.198C249.911 319.094 250.457 319.264 250.821 320.021C251.592 321.581 252.016 323.198 251.817 324.919H251.808Z" fill="#FCF6F5"/>
<path d="M196.726 352.319C196.431 352.924 196.076 353.255 195.521 352.631C194.629 351.629 193.745 350.617 192.861 349.615C191.38 347.231 189.777 344.952 188.529 342.39C186.562 338.333 185.219 334.049 184.439 329.547C184.361 329.103 184.335 328.658 184.309 328.205C184.283 327.855 184.387 327.552 184.76 327.533C185.115 327.514 185.297 327.788 185.358 328.119C185.574 329.311 185.722 330.521 185.982 331.704C187.654 339.297 191.007 345.889 196.015 351.478C196.258 351.752 196.492 352.045 196.734 352.319H196.726Z" fill="#211F1E"/>
<path d="M273.554 337.405C274.187 341.803 273.962 346.105 272.324 350.229C271.206 353.047 269.629 355.496 267.108 357.028C266.588 357.34 265.817 358.097 265.418 357.359C264.916 356.432 266.025 356.385 266.501 356.082C268.226 354.985 269.543 353.453 270.496 351.571C272.593 347.448 273.26 343.042 272.523 338.389C272.506 337.358 272.168 336.412 271.934 335.438C271.83 335.013 271.709 334.483 272.246 334.332C272.662 334.218 272.826 334.691 272.93 335.032C273.164 335.807 273.346 336.611 273.554 337.396V337.405Z" fill="#211F1E"/>
<path d="M173.394 298.357C173.516 300.097 172.944 301.629 172.086 303.019C171.705 303.643 171.202 304.276 170.362 304.097C169.565 303.927 169.227 303.227 168.984 302.508C168.43 300.9 169.244 296.948 170.787 295.633C171.939 294.65 173.1 295.066 173.377 296.635C173.472 297.193 173.394 297.78 173.394 298.357Z" fill="#FCF6F5"/>
<path d="M257.95 324.153C257.95 324.551 257.967 325.061 257.95 325.572C257.933 325.894 257.855 326.243 257.508 326.3C257.092 326.376 257.066 325.988 257.023 325.685C256.945 325.184 256.884 324.674 256.85 324.163C256.477 317.922 254.735 312.134 251.946 306.696C251.668 306.157 250.81 305.382 251.547 304.919C252.413 304.37 252.604 305.637 252.907 306.214C255.819 311.737 257.517 317.666 257.967 324.144L257.95 324.153Z" fill="#211F1E"/>
<path d="M235.12 258.885C238.898 258.885 242.069 260.493 244.833 263.207C245.006 263.377 245.162 263.576 245.301 263.784C245.457 264.02 245.439 264.266 245.223 264.446C245.084 264.559 244.911 264.673 244.738 264.54C244.452 264.332 244.157 264.115 243.888 263.869C239.4 259.736 234.522 258.847 229.176 261.722C228.916 261.864 228.639 261.987 228.362 262.025C228.24 262.044 228.067 261.864 227.954 261.731C227.807 261.561 227.876 261.334 228.006 261.221C228.275 260.975 228.561 260.748 228.864 260.578C230.822 259.471 232.91 258.894 235.129 258.894L235.12 258.885Z" fill="#211F1E"/>
<path d="M266.747 318.318C266.643 318.498 266.591 318.725 266.47 318.801C266.253 318.924 265.976 318.895 265.828 318.668C265.638 318.356 265.491 317.997 265.361 317.647C264.035 314.016 262.718 310.384 261.392 306.762C261.288 306.469 261.176 306.167 261.089 305.864C261.011 305.59 261.106 305.353 261.323 305.211C261.643 305.003 261.877 305.193 262.042 305.486C262.163 305.703 262.267 305.94 262.354 306.176C263.723 309.921 265.083 313.675 266.444 317.43C266.548 317.723 266.634 318.025 266.738 318.337L266.747 318.318Z" fill="#211F1E"/>
<path d="M191.051 332.719C191.086 331.991 191.051 331.594 191.129 331.235C191.415 329.996 192.368 329.712 193.217 330.563C194.335 331.689 194.829 333.977 194.274 335.471C193.824 336.701 192.923 336.918 192.152 335.906C191.398 334.904 190.913 333.741 191.043 332.719H191.051Z" fill="#FCF6F5"/>
<path d="M184.002 319.246C184.21 317.052 184.513 314.83 185.05 312.654C185.111 312.409 185.172 312.153 185.302 311.955C185.388 311.832 185.605 311.756 185.761 311.756C186.038 311.756 186.168 311.993 186.159 312.267C186.142 312.588 186.099 312.91 186.029 313.212C185.535 315.331 185.206 317.477 185.068 319.662C185.059 319.851 185.05 320.05 185.042 320.239C185.016 320.608 184.79 320.853 184.487 320.891C184.123 320.929 184.011 320.589 184.002 320.248C183.985 319.927 184.002 319.605 184.002 319.246Z" fill="#211F1E"/>
<path d="M250.257 349.341C250.153 349.643 250.032 349.936 249.72 350.05C249.72 349.653 249.824 349.35 250.257 349.341Z" fill="#B7CAE6"/>
<path d="M210.948 383.665C205.308 383.703 201.097 381.433 197.562 377.528C195.811 375.598 194.434 373.357 193.316 370.936C193.134 370.539 192.995 370.114 192.891 369.688C192.865 369.565 193.03 369.329 193.151 369.262C193.281 369.196 193.507 369.215 193.628 369.3C194 369.546 194.087 370.028 194.269 370.416C195.378 372.771 196.712 374.955 198.445 376.828C203.41 382.19 209.241 383.778 215.948 381.566C216.494 381.386 217.273 380.658 217.559 381.632C217.802 382.455 216.805 382.445 216.312 382.634C214.414 383.372 212.447 383.741 210.94 383.665H210.948Z" fill="#211F1E"/>
<path d="M207.784 360.945C207.706 361.219 207.533 361.399 207.282 361.399C207.057 361.399 206.814 361.323 206.615 361.21C204.709 360.217 202.88 359.063 201.147 357.739C200.862 357.521 200.541 357.247 200.844 356.812C201.043 356.519 201.364 356.51 201.633 356.708C203.487 358.07 205.419 359.271 207.421 360.34C207.646 360.462 207.776 360.661 207.784 360.935V360.945Z" fill="#211F1E"/>
<path d="M169.164 30.2237C168.956 30.9519 168.757 31.9732 168.376 32.8905C167.232 35.633 165.464 37.8175 163.212 39.548C162.518 40.0776 161.834 40.314 161.089 39.8507C160.222 39.3022 160.24 38.347 160.413 37.4581C160.621 36.3895 161.011 35.3682 161.531 34.4414C162.718 32.3137 163.87 30.1386 165.941 28.8147C166.4 28.5215 166.842 28.2094 167.388 28.1527C168.48 28.0487 169.199 28.7674 169.173 30.2237H169.164Z" fill="#FCF6F5"/>
<path d="M180.129 7.39314C180.181 6.84465 179.887 5.93681 180.71 5.52072C181.585 5.07625 182.105 5.83278 182.668 6.40018C183.968 7.72412 184.453 9.36959 184.366 11.2515C184.297 12.6227 183.621 13.0577 182.477 12.4336C180.944 11.6014 180.571 9.94644 180.147 8.33881C180.086 8.10239 180.138 7.82815 180.138 7.38369L180.129 7.39314Z" fill="#FCF6F5"/>
<path d="M203.592 50.4217C203.272 50.4217 203.159 50.4217 203.038 50.4217C202.726 50.3933 202.405 50.2798 202.37 49.9299C202.336 49.58 202.63 49.4004 202.951 49.3531C203.532 49.2774 204.121 49.2491 204.693 49.1261C208.67 48.3034 212.005 46.1473 215.003 43.2535C215.463 42.809 215.974 41.6553 216.65 42.497C217.152 43.1211 216.164 43.6412 215.731 44.0762C212.491 47.2726 208.808 49.5327 204.433 50.2704C204.086 50.3271 203.739 50.3839 203.592 50.4122V50.4217Z" fill="#211F1E"/>
<path d="M157.778 42.845C158.367 42.9017 158.801 43.6677 158.541 44.4999C158.125 45.8238 157.163 46.7127 156.08 47.3274C155.318 47.7624 154.477 46.9019 154.754 45.9846C155.196 44.5188 156.201 43.5637 157.44 42.8923C157.536 42.8355 157.666 42.8544 157.778 42.845Z" fill="#FCF6F5"/>
<path d="M231.991 136.554C231.973 135.93 232.129 135.258 232.424 134.606C234.703 129.537 236.973 124.468 239.225 119.39C239.676 118.378 240.274 117.546 241.21 117.026C242.527 116.297 243.852 116.43 244.823 117.394C245.819 118.397 246.105 119.787 245.481 121.262C244.528 123.532 243.506 125.773 242.501 128.024C241.114 131.135 239.711 134.246 238.324 137.357C237.926 138.237 237.415 139.012 236.617 139.504C235.595 140.147 234.538 140.374 233.438 139.703C232.432 139.088 231.973 138.133 231.991 136.544V136.554ZM234.928 138.842C235.586 138.88 236.167 138.473 236.661 137.887C237.146 137.31 237.432 136.61 237.735 135.911C239.763 131.362 241.79 126.813 243.818 122.255C244.026 121.792 244.251 121.347 244.424 120.874C244.831 119.73 244.684 118.822 244.026 118.245C243.341 117.64 242.05 117.744 241.244 118.463C240.681 118.964 240.395 119.673 240.083 120.364C237.9 125.262 235.725 130.161 233.524 135.041C233.204 135.75 232.987 136.459 233.108 137.253C233.273 138.265 233.879 138.823 234.919 138.842H234.928Z" fill="#211F1E"/>
<path d="M234.936 138.844C233.896 138.825 233.281 138.267 233.125 137.255C232.995 136.461 233.212 135.761 233.541 135.042C235.742 130.153 237.917 125.255 240.1 120.366C240.412 119.675 240.698 118.966 241.261 118.465C242.067 117.746 243.349 117.652 244.042 118.247C244.701 118.824 244.848 119.732 244.441 120.876C244.268 121.349 244.042 121.803 243.834 122.257C241.807 126.806 239.78 131.354 237.752 135.912C237.44 136.603 237.154 137.312 236.678 137.889C236.184 138.485 235.603 138.882 234.945 138.844H234.936Z" fill="#E12D00"/>
</svg>
