<svg width="335" height="400" viewBox="0 0 335 400" fill="none" xmlns="http://www.w3.org/2000/svg">
<path d="M234.518 355.915C235.077 356.025 235.528 356.152 235.994 356.195C242.303 356.771 248.596 357.501 254.873 358.417C267.359 360.248 279.805 362.283 291.84 366.523C294.56 367.481 297.209 368.609 299.711 370.136C300.962 370.899 302.158 371.747 303.152 372.883C305.266 375.3 305.25 377.818 303.09 380.21C301.762 381.676 300.146 382.686 298.468 383.576C294.715 385.56 290.753 386.909 286.736 388.053C278.205 390.495 269.526 392.081 260.801 393.421C252.317 394.727 243.802 395.694 235.271 396.465C228.527 397.076 221.776 397.525 215.016 397.915C198.887 398.856 182.75 399.187 166.597 399.094C154.298 399.026 142.015 398.611 129.732 397.941C121.605 397.5 113.494 396.94 105.39 396.168C90.061 394.701 74.7786 392.81 59.7059 389.308C53.6458 387.901 47.6323 386.256 41.914 383.567C40.6087 382.957 39.3345 382.236 38.107 381.448C37.2523 380.905 36.4443 380.243 35.7218 379.514C33.1812 376.953 33.1812 374.24 35.6829 371.653C37.1902 370.093 39.0004 369.05 40.8651 368.117C46.1949 365.463 51.8355 363.869 57.5305 362.504C67.8949 360.011 78.3991 358.417 88.9422 357.119C96.8981 356.135 104.877 355.474 112.849 354.804C116.314 354.507 119.787 354.389 123.26 354.185C124.114 354.134 124.977 354.033 125.909 353.948C125.583 353.337 125.07 353.295 124.635 353.117C92.1276 339.532 60.9412 323.056 31.534 302.671C23.2519 296.93 15.2105 290.816 7.37119 284.38C6.41555 283.6 5.91054 282.743 5.72407 281.42C4.3722 271.575 3.28448 261.688 2.46092 251.775C1.89376 244.966 1.48198 238.14 1.10905 231.305C0.106794 213.082 -0.126288 194.859 0.215565 176.628C0.440878 164.637 1.01581 152.664 2.06468 140.724C2.8727 131.558 3.92157 122.425 5.6153 113.394C5.87169 112.037 6.39224 111.062 7.32457 110.172C16.3293 101.514 25.8546 93.6023 35.6907 86.1147C63.7382 64.7627 93.4407 46.5482 124.332 30.6062C142.947 20.9987 161.928 12.3917 181.569 5.56552C186.534 3.84413 191.545 2.32625 196.572 0.842295C197.753 0.494625 198.67 0.65574 199.703 1.3002C209.057 7.10883 217.837 13.8333 226.329 21.0241C246.249 37.8903 264.539 56.7069 281.903 76.6174C298.623 95.7816 314.286 115.913 328.527 137.349C329.941 139.478 330.874 141.657 331.223 144.311C332.132 151.154 332.847 158.006 333.321 164.9C334.246 178.425 334.525 191.967 334.393 205.527C334.284 216.432 333.904 227.337 333.321 238.225C332.7 249.927 331.744 261.595 330.648 273.246C330.54 274.425 329.996 275.222 329.281 276.019C319.484 287.025 309.003 297.201 298.126 306.894C278.422 324.43 257.686 340.363 235.939 354.728C235.489 355.025 234.945 355.22 234.51 355.923L234.518 355.915ZM227.284 69.2061C227.548 68.2648 227.09 67.6967 226.468 67.1455C223.198 64.2454 219.934 61.3284 216.671 58.4029C216.477 58.2248 216.283 58.0722 215.995 58.0976C215.995 58.2926 215.972 58.4961 215.995 58.6912C216.803 63.8299 217.285 69.011 217.774 74.1837C218.318 79.9669 218.823 85.7585 219.344 91.5417C219.678 97.5454 220.043 103.541 220.331 109.544C220.369 110.401 220.758 110.714 221.356 110.986C223.858 112.148 226.36 113.318 228.869 114.471C229.234 114.641 229.584 115.014 230.136 114.624C229.98 112.114 229.833 109.553 229.677 107C229.172 98.8428 228.683 90.6853 228.17 82.5278C227.89 78.0844 227.579 73.6325 227.284 69.1891V69.2061ZM216.337 303.883C216.578 303.459 216.539 302.967 216.578 302.501C216.943 297.981 217.347 293.47 217.658 288.95C217.976 284.363 218.202 279.775 218.481 275.044C213.532 277.511 208.894 276.757 204.364 273.882C204.209 280.547 203.689 287.025 203.176 293.496C202.702 299.431 202.057 305.342 201.49 311.269C201.233 313.957 200.969 316.645 200.705 319.333C200.418 321.199 200.021 323.056 199.874 324.93C199.462 330.17 204.178 334.538 208.762 333.13C211.808 332.197 213.486 329.797 213.991 326.439C214.371 323.904 214.706 321.36 214.97 318.808C215.49 313.838 216.197 308.895 216.345 303.892L216.337 303.883ZM188.383 275.425C187.987 280.14 187.583 284.846 187.186 289.561C186.751 294.742 186.308 299.923 185.889 305.113C185.555 309.285 185.252 313.465 184.918 317.646C184.863 318.358 184.84 318.943 185.617 319.257C189.944 321.046 194.264 322.861 198.708 324.718C198.864 323.777 199.027 322.988 199.128 322.191C199.47 319.511 199.85 316.84 200.115 314.152C200.534 309.921 201.101 305.706 201.303 301.45C202.026 295.556 202.376 289.629 202.803 283.701C203.036 280.471 203.16 277.231 203.277 273.984C203.347 271.948 203.292 271.948 201.56 271.346C198.561 270.295 195.562 269.227 192.555 268.183C191.452 267.802 190.341 267.454 189.09 267.047C188.709 269.93 188.492 272.669 188.391 275.425H188.383ZM218.373 95.6035C218.373 95.1287 218.419 94.6538 218.388 94.1874C217.635 84.8851 216.928 75.5659 215.879 66.2975C215.49 62.8717 215.218 59.4204 214.457 56.0624C213.703 52.7723 211.015 50.4743 207.993 50.3217C203.417 50.0927 199.85 55.1636 200.69 59.8783C201.614 65.0679 202.01 70.3339 202.578 75.5828C202.888 78.466 202.997 81.383 203.51 84.2407C203.51 84.5035 203.479 84.7749 203.494 85.0378C203.937 91.2958 204.559 97.5369 204.846 103.803C204.939 105.779 205.064 107.755 205.173 109.816C209.749 106.882 214.325 106.313 219.22 108.62C218.924 104.194 218.854 99.8773 218.38 95.5951L218.373 95.6035ZM63.746 321.555C64.1112 321.801 64.4608 322.072 64.8415 322.293C72.2846 326.617 79.8364 330.713 87.4815 334.597C122.219 352.235 158.09 366.235 195.639 374.876C197.846 375.384 197.846 375.393 198.343 373.061C200.029 365.149 201.513 357.187 202.772 349.182C203.455 344.849 204.054 340.499 204.667 336.149C204.901 334.47 204.877 334.461 203.51 333.707C201.078 332.367 199.579 330.196 198.949 327.364C198.708 326.295 198.242 325.812 197.349 325.439C193.285 323.777 189.253 322.047 185.213 320.325C183.744 319.698 183.667 319.588 183.791 317.968C184.117 313.72 184.521 309.471 184.817 305.223C185.042 301.924 185.493 298.643 185.485 295.319C185.547 295.056 185.648 294.801 185.671 294.539C186.207 288.077 186.728 281.607 187.256 275.145C187.474 272.517 187.676 269.896 187.917 267.268C188.041 265.945 188.461 265.64 189.618 265.936C189.976 266.03 190.325 266.165 190.683 266.284C193.767 267.276 196.774 268.548 199.897 269.388C200.635 269.922 201.536 269.947 202.313 270.337C203.044 270.702 203.541 270.558 204.03 269.795C204.66 268.802 205.693 268.421 206.711 268.082C207.853 267.7 209.026 267.598 210.207 267.658C210.821 267.692 211.101 267.454 211.124 266.742C211.155 265.733 211.287 264.724 211.341 263.706C211.574 259.517 211.854 255.328 212.01 251.131C212.227 245.11 212.693 239.098 212.623 233.069V232.908C212.942 232.323 212.872 231.721 212.732 231.102C212.779 230.567 212.856 230.025 212.872 229.49C213.105 220.078 213.439 210.665 213.548 201.244C213.734 184.302 213.696 167.359 213.299 150.417C213.051 139.783 212.686 129.158 212.227 118.533C212.118 116.082 212.149 116.116 209.904 115.989C207.822 115.87 205.81 115.48 204.465 113.462C204.054 112.834 203.603 113.148 203.145 113.309C200.783 114.132 198.429 114.963 196.067 115.785C194.179 116.447 192.299 117.125 190.395 117.736C189.269 118.1 188.81 117.736 188.655 116.447C188.546 115.506 188.453 114.564 188.375 113.623C187.823 106.61 187.287 99.589 186.72 92.5763C186.005 83.6725 185.26 74.7773 184.545 65.8735C184.397 64.0758 184.451 63.9995 185.99 63.3465C190.03 61.6252 194.07 59.9123 198.118 58.2163C198.903 57.8856 199.408 57.5464 199.648 56.4864C200.441 52.9589 202.399 50.4489 205.67 49.3974C206.486 49.1345 206.555 48.7444 206.454 47.9558C205.048 37.4409 203.487 26.9515 201.342 16.5807C200.441 12.2221 199.423 7.89745 198.258 3.61517C197.753 1.77507 197.737 1.77507 196.106 2.22449C195.088 2.50433 194.07 2.8096 193.052 3.11487C177.475 7.72785 162.363 13.8163 147.508 20.651C111.644 37.1526 77.4745 57.1055 45.0373 80.5774C32.1944 89.8712 19.7945 99.8095 8.20252 110.909C7.36342 111.715 6.88949 112.58 6.66417 113.784C5.26568 121.289 4.32558 128.87 3.56418 136.476C2.34438 148.67 1.66844 160.906 1.39652 173.159C1.08574 186.914 1.0702 200.668 1.52083 214.422C1.90153 226.132 2.492 237.826 3.41656 249.503C4.23235 259.831 5.32783 270.108 6.72633 280.36C6.94387 281.929 7.52658 282.904 8.62983 283.812C22.1797 294.963 36.4132 304.943 51.1596 314.084C55.0365 316.493 58.8979 318.935 62.938 321.021C63.1167 321.36 63.4275 321.445 63.746 321.521V321.555ZM332.645 173.761C332.591 171.192 332.443 168.623 332.288 166.053C331.822 158.549 331.06 151.087 329.972 143.667C329.724 141.962 329.196 140.478 328.255 139.054C313.602 116.854 297.38 96.0869 280.07 76.3121C264.267 58.2587 247.648 41.1635 229.77 25.5523C223.174 19.7945 216.399 14.3081 209.352 9.21181C208.016 8.24512 206.579 7.6261 205.025 7.5413C202.57 7.4141 200.682 8.91502 201.435 11.9169C201.498 12.1797 201.583 12.4341 201.637 12.697C203.502 21.3972 205.064 30.1653 206.276 39.0097C206.672 41.8843 207.045 44.7674 207.441 47.6505C207.55 48.4561 207.659 49.143 208.7 49.2786C211.878 49.6857 214.014 51.7208 215.257 54.8753C215.615 55.7826 216.12 56.461 216.811 57.0715C220.043 59.9292 223.19 62.9141 226.492 65.67C227.867 66.8148 228.434 68.1122 228.527 69.9099C228.892 76.7361 229.312 83.5623 229.724 90.38C230.198 98.1475 230.625 105.923 231.192 113.682C231.402 116.549 230.897 116.964 228.45 115.701C226.041 114.454 223.555 113.386 221.1 112.249C220.727 112.08 220.292 111.622 219.942 112.19C218.551 114.479 216.36 115.209 214.107 115.794C213.431 115.972 213.222 116.303 213.253 117.049C213.361 119.618 213.486 122.188 213.595 124.757C213.905 132.134 214.193 139.512 214.333 146.889C214.542 157.862 214.698 168.843 214.752 179.824C214.822 194.257 214.542 208.69 214.123 223.114C213.952 229.007 213.843 234.9 213.579 240.785C213.206 249.172 212.701 257.55 212.274 265.928C212.181 267.734 212.219 267.692 213.804 268.15C216.306 268.87 218.722 269.761 219.639 272.966C222.459 272.22 225.225 271.482 227.983 270.753C230.206 270.159 230.571 270.448 230.446 272.864C230.268 276.18 230.019 279.487 229.817 282.794C229.258 291.986 228.714 301.178 228.154 310.37C228.007 312.804 227.75 315.229 227.673 317.663C227.634 318.85 227.113 319.478 226.266 320.054C222.848 322.395 219.46 324.786 216.042 327.126C215.335 327.61 214.822 328.178 214.48 329.043C213.097 332.536 210.611 334.436 207.154 334.69C206.206 334.758 205.911 335.072 205.779 336.072C205.289 339.82 204.737 343.568 204.147 347.3C203.277 352.761 202.352 358.213 201.451 363.674C200.643 367.363 199.85 371.051 199.089 375.113C201.909 373.629 204.388 372.383 206.82 371.043C222.522 362.402 237.625 352.633 252.309 342.085C272.611 327.508 292.027 311.642 310.3 294.14C316.508 288.196 322.475 281.963 328.248 275.51C328.9 274.772 329.483 274.068 329.576 272.941C329.91 268.76 330.376 264.588 330.695 260.408C331.332 252.174 331.899 243.94 332.342 235.689C332.824 226.624 333.041 217.551 333.251 208.486C333.43 200.769 333.407 193.036 333.111 185.319C332.964 181.47 333.111 177.603 332.661 173.761H332.645ZM199.415 58.988C195.002 60.8365 190.683 62.6682 186.355 64.4574C185.57 64.7796 185.609 65.3647 185.664 66.0686C185.982 70.1134 186.27 74.1582 186.596 78.2031C187.435 88.5738 188.259 98.953 189.16 109.324C189.37 111.732 189.346 114.174 189.875 116.676C192.796 115.658 195.593 114.573 198.444 113.725C199.975 113.267 200.868 112.292 201.536 110.825C203.277 107.017 203.797 102.989 203.487 98.8004C202.694 88.3533 201.824 77.9148 200.612 67.5101C200.286 64.7033 200.052 61.8711 199.423 58.988H199.415ZM229.413 271.601C226.165 272.474 223.229 273.297 220.276 274.051C219.6 274.221 219.593 274.671 219.561 275.23C219.336 279.283 219.134 283.345 218.847 287.39C218.458 292.792 218.031 298.185 217.565 303.569C217.161 308.216 216.687 312.863 216.236 317.502C216.089 319.079 216.197 320.622 216.928 322.03C217.666 323.463 218.575 323.734 219.841 322.878C221.791 321.555 223.71 320.173 225.66 318.858C226.298 318.426 226.593 317.926 226.639 317.069C226.981 310.854 227.377 304.638 227.766 298.422C228.116 292.885 228.488 287.348 228.83 281.81C229.032 278.512 229.203 275.205 229.405 271.584L229.413 271.601ZM210.246 268.845C209.003 268.845 207.76 268.93 206.579 269.405C205.709 269.752 204.706 270.117 204.613 271.304C204.512 272.491 205.421 273.085 206.229 273.568C208.692 275.052 211.357 275.518 214.138 275.162C214.931 275.061 215.731 274.849 216.485 274.569C217.246 274.289 218.046 273.916 218.178 272.898C218.326 271.762 217.541 271.194 216.819 270.685C216.252 270.286 215.615 269.99 214.985 269.727C213.462 269.099 211.877 268.845 210.246 268.836V268.845ZM210.759 114.861C213.222 114.836 215.529 114.403 217.588 113.004C218.318 112.504 219.095 111.91 218.924 110.774C218.769 109.765 217.969 109.392 217.215 109.103C215.855 108.586 214.441 108.374 213.004 108.45C210.627 108.578 208.304 108.985 206.346 110.621C204.846 111.876 204.978 113.063 206.672 113.996C207.985 114.717 209.407 114.802 210.766 114.861H210.759Z" fill="#050404"/>
<path d="M199.883 269.407C196.752 268.568 193.753 267.296 190.669 266.303C190.311 266.185 189.962 266.049 189.604 265.956C188.447 265.659 188.027 265.956 187.903 267.287C187.662 269.907 187.452 272.536 187.242 275.165C186.714 281.626 186.193 288.096 185.657 294.558C185.634 294.821 185.533 295.075 185.471 295.338C183.917 296.212 183.132 297.899 181.982 299.196C178.105 303.58 174.104 307.812 169.629 311.484C161.65 318.03 153.018 323.245 143.539 326.773C138.551 328.63 133.486 330.114 128.296 331.046C124.03 331.81 119.734 332.429 115.399 332.361C111.374 332.301 107.357 332.505 103.325 332.055C99.8831 331.674 96.4413 331.335 93.046 330.665C83.8937 328.867 74.9899 326.052 66.3814 322.185C65.5501 321.812 64.7343 321.159 63.7398 321.566C63.6855 320.981 63.3203 321.006 62.9318 321.066C58.8917 318.98 55.0303 316.538 51.1534 314.129C36.4148 304.98 22.1735 294.999 8.62368 283.857C7.52042 282.949 6.92995 281.974 6.72017 280.405C5.32168 270.153 4.2262 259.867 3.41041 249.547C2.48585 237.871 1.89537 226.177 1.51467 214.467C1.06405 200.713 1.07959 186.958 1.39036 173.204C1.67006 160.951 2.33823 148.706 3.55803 136.521C4.31943 128.915 5.25953 121.334 6.65802 113.829C6.88333 112.625 7.3495 111.76 8.19636 110.954C19.7883 99.8544 32.1883 89.9076 45.0311 80.6223C77.4684 57.1503 111.646 37.1975 147.502 20.6959C162.357 13.8612 177.468 7.77273 193.046 3.15974C194.064 2.85447 195.082 2.55768 196.099 2.26937C197.731 1.81994 197.747 1.81994 198.252 3.66005C199.417 7.94233 200.435 12.267 201.336 16.6256C203.48 26.9963 205.042 37.4858 206.448 48.0007C206.557 48.7893 206.479 49.1794 205.664 49.4422C202.4 50.4937 200.435 53.0037 199.642 56.5313C199.409 57.5913 198.896 57.9305 198.112 58.2612C194.064 59.9487 190.016 61.67 185.984 63.3914C184.445 64.0444 184.391 64.1207 184.539 65.9184C185.253 74.8221 185.999 83.7174 186.714 92.6212C187.281 99.6339 187.809 106.655 188.369 113.668C188.447 114.609 188.532 115.559 188.649 116.492C188.804 117.772 189.255 118.137 190.389 117.781C192.292 117.17 194.173 116.492 196.061 115.83C198.422 115.008 200.777 114.177 203.139 113.354C203.597 113.193 204.04 112.888 204.459 113.507C205.803 115.533 207.816 115.915 209.898 116.034C212.143 116.161 212.112 116.127 212.221 118.578C212.679 129.203 213.045 139.828 213.293 150.462C213.689 167.404 213.728 184.347 213.542 201.289C213.441 210.702 213.107 220.123 212.866 229.535C212.85 230.078 212.773 230.612 212.726 231.146C212.392 231.723 212.516 232.342 212.617 232.953V233.114C212.229 233.343 212.236 233.758 212.151 234.157C211.125 238.744 209.945 243.298 208.624 247.792C206.58 254.754 203.993 261.487 201.173 268.11C200.901 268.754 200.582 269.297 199.883 269.424V269.407ZM171.571 169.592C171.68 157.05 171.432 144.721 171.097 132.391C170.81 121.902 170.375 111.412 169.722 100.931C169.435 96.3353 169.202 91.7393 168.837 87.1517C168.223 79.3927 167.57 71.6422 166.692 63.9087C166.28 60.2794 165.908 56.6416 165.387 53.0377C164.828 49.137 162.388 46.7796 158.822 46.4913C157.571 46.3895 156.359 46.6524 155.186 47.1527C151.954 48.5349 148.698 49.8408 145.482 51.2569C102.789 70.0735 62.9707 94.3595 26.8818 125.709C24.4111 127.855 23.1369 130.738 22.8961 134.13C22.5931 138.454 22.3444 142.779 22.1968 147.112C21.8938 156.05 21.552 164.987 21.4665 173.934C21.35 186.738 21.3189 199.551 21.583 212.355C21.8394 224.753 22.259 237.142 22.9038 249.514C23.0903 253.058 24.6287 255.738 27.6121 257.476C44.899 267.559 62.6444 276.581 80.8248 284.577C104.304 294.906 128.179 303.894 152.971 309.788C159.49 311.339 163.491 306.235 164.128 301.528C165.845 288.732 167.127 275.869 168.13 262.988C168.868 253.474 169.474 243.942 169.971 234.411C170.46 225.016 170.841 215.603 171.09 206.191C171.416 193.929 171.68 181.667 171.571 169.6V169.592ZM198.764 38.3931C198.865 34.5688 198.22 30.9988 197.7 27.3949C197.055 22.9006 195.975 18.5505 194.592 14.2767C194.157 12.9454 193.59 11.6395 192.813 10.4947C192.463 9.97747 192.059 9.31605 191.321 9.49412C190.614 9.66372 190.327 10.4099 190.28 11.0374C190.179 12.3857 189.744 13.6746 189.814 15.0484C189.993 18.6862 190.35 22.2985 190.909 25.8855C191.756 31.2956 192.953 36.5869 194.911 41.6493C195.276 42.5906 195.75 43.464 196.465 44.1509C197.218 44.8717 197.793 44.8038 198.213 43.8286C198.523 43.1079 198.764 42.3192 198.749 41.4882C198.733 40.4028 198.749 39.3174 198.749 38.3931H198.764ZM202.851 133.918C202.781 135.885 203.271 137.801 203.317 139.76C203.348 141.007 203.791 142.262 204.133 143.474C204.312 144.093 204.553 144.831 205.353 144.789C206.044 144.755 206.231 144.085 206.417 143.534C206.72 142.652 207.008 141.753 206.961 140.778C206.938 140.167 206.876 139.531 207.015 138.955C207.738 136.105 206.883 133.332 206.728 130.534C206.666 129.466 206.409 128.406 206.13 127.371C205.936 126.659 205.493 125.921 204.762 125.879C204.001 125.828 203.83 126.71 203.667 127.312C203.084 129.457 202.999 131.679 202.843 133.892L202.851 133.918ZM8.6936 270.755C8.55375 273.469 9.11315 275.945 9.80463 278.396C9.94448 278.904 10.1465 279.422 10.434 279.837C10.8923 280.499 11.6071 280.422 11.9101 279.659C12.2054 278.93 12.3996 278.158 12.4151 277.319C12.454 275.419 12.1199 273.579 11.8247 271.731C11.6304 270.543 11.242 269.399 10.9001 268.245C10.7059 267.592 10.3563 266.872 9.6337 267.05C8.99661 267.202 8.70914 267.898 8.6936 268.635C8.67806 269.373 8.6936 270.119 8.6936 270.747V270.755ZM10.1543 262.445C10.1853 262.089 10.0377 261.733 9.87455 261.368C9.64924 260.876 9.39285 260.385 8.81014 260.444C8.19636 260.512 7.81566 261.004 7.67581 261.597C7.4505 262.522 7.87005 263.285 8.42944 263.938C8.68583 264.243 9.01215 264.455 9.40062 264.192C9.97556 263.81 10.2242 263.234 10.1698 262.437L10.1543 262.445Z" fill="#A3B0B3"/>
<path d="M332.64 173.758C333.083 177.599 332.943 181.466 333.091 185.315C333.386 193.032 333.417 200.757 333.231 208.482C333.021 217.555 332.796 226.62 332.322 235.685C331.887 243.936 331.312 252.17 330.675 260.404C330.348 264.584 329.89 268.756 329.556 272.937C329.463 274.073 328.88 274.777 328.227 275.506C322.455 281.959 316.488 288.192 310.28 294.136C292.006 311.638 272.591 327.504 252.289 342.081C237.605 352.629 222.501 362.398 206.799 371.039C204.368 372.379 201.889 373.625 199.069 375.109C199.83 371.047 200.623 367.359 201.431 363.67C201.858 363.628 202.309 363.653 202.713 363.526C209.899 361.194 216.255 357.209 221.779 351.722C227.489 346.041 231.809 339.24 234.606 331.345C235.841 327.869 236.642 324.29 236.789 320.534C236.859 318.719 236.991 316.887 237.224 315.107C237.714 311.367 237.854 307.602 238.188 303.854C238.491 300.445 238.732 297.011 238.949 293.585C239.206 289.549 239.493 285.521 239.695 281.484C239.92 277.041 240.231 272.606 240.441 268.163C240.682 263.041 240.837 257.919 241.21 252.806C241.412 250.05 241.241 247.286 241.544 244.513C241.886 241.375 241.606 238.187 241.917 235.007C242.275 231.327 241.964 227.596 242.29 223.873C242.679 219.446 242.407 214.969 242.64 210.5C243.005 203.623 242.966 196.704 243.013 189.81C243.114 174.105 243.487 158.384 242.741 142.679C242.57 139.109 242.694 135.531 242.461 131.944C242.15 127.11 242.018 122.252 241.653 117.41C241.397 114.052 241 110.728 240.596 107.387C240.146 103.689 240.643 100.077 242.407 96.8123C244.24 93.4119 247.573 92.3011 250.93 93.7596C252.919 94.6245 254.504 96.1509 256.182 97.5076C261.496 101.798 266.733 106.199 271.845 110.787C275.333 113.916 278.752 117.121 282.225 120.259C285.364 123.1 288.409 126.076 291.424 129.069C295.176 132.8 298.968 136.498 302.557 140.424C309.441 147.954 316.519 155.263 323.1 163.124C325.935 166.516 328.927 169.764 331.654 173.266C331.918 173.605 332.26 173.724 332.64 173.749V173.758Z" fill="#B20000"/>
<path d="M332.641 173.759C332.26 173.725 331.919 173.606 331.654 173.275C328.927 169.765 325.944 166.526 323.1 163.134C316.52 155.273 309.442 147.963 302.558 140.433C298.976 136.516 295.185 132.81 291.424 129.079C288.41 126.077 285.364 123.109 282.225 120.268C278.753 117.131 275.334 113.917 271.846 110.797C266.733 106.209 261.497 101.808 256.182 97.5173C254.504 96.1605 252.919 94.6342 250.93 93.7692C247.574 92.3107 244.241 93.4216 242.407 96.8219C240.644 100.087 240.154 103.699 240.597 107.396C241.001 110.729 241.397 114.061 241.654 117.419C242.027 122.261 242.151 127.12 242.462 131.954C242.695 135.54 242.57 139.119 242.741 142.689C243.495 158.393 243.114 174.115 243.013 189.819C242.967 196.713 243.006 203.633 242.64 210.51C242.407 214.979 242.679 219.448 242.291 223.883C241.964 227.605 242.275 231.336 241.918 235.016C241.607 238.196 241.887 241.385 241.545 244.522C241.242 247.295 241.413 250.06 241.211 252.815C240.838 257.929 240.682 263.051 240.442 268.172C240.232 272.616 239.921 277.051 239.696 281.494C239.494 285.53 239.206 289.558 238.95 293.595C238.732 297.02 238.491 300.446 238.188 303.864C237.854 307.612 237.715 311.377 237.225 315.116C236.992 316.897 236.86 318.737 236.79 320.543C236.642 324.3 235.834 327.878 234.607 331.355C231.81 339.25 227.49 346.05 221.779 351.732C216.263 357.218 209.9 361.204 202.713 363.536C202.309 363.671 201.859 363.637 201.431 363.68C202.333 358.219 203.257 352.766 204.127 347.305C204.718 343.574 205.277 339.826 205.759 336.078C205.891 335.078 206.186 334.764 207.134 334.696C210.592 334.442 213.078 332.542 214.461 329.048C214.803 328.184 215.315 327.624 216.022 327.132C219.441 324.792 222.828 322.4 226.247 320.06C227.094 319.483 227.614 318.856 227.653 317.669C227.731 315.235 227.987 312.81 228.135 310.376C228.694 301.184 229.238 291.992 229.798 282.8C230 279.493 230.248 276.186 230.427 272.87C230.559 270.453 230.194 270.165 227.964 270.759C225.198 271.496 222.432 272.226 219.62 272.972C218.695 269.767 216.287 268.876 213.785 268.155C212.2 267.697 212.161 267.74 212.254 265.934C212.689 257.556 213.187 249.178 213.559 240.791C213.824 234.906 213.932 229.013 214.103 223.119C214.523 208.695 214.803 194.263 214.733 179.83C214.678 168.849 214.531 157.876 214.313 146.895C214.173 139.517 213.886 132.14 213.575 124.763C213.466 122.193 213.334 119.624 213.233 117.055C213.202 116.308 213.42 115.969 214.088 115.8C216.341 115.215 218.532 114.485 219.923 112.196C220.272 111.628 220.707 112.077 221.08 112.255C223.535 113.391 226.022 114.46 228.43 115.706C230.885 116.978 231.382 116.563 231.173 113.688C230.613 105.929 230.178 98.1533 229.704 90.3858C229.293 83.5596 228.873 76.7419 228.508 69.9157C228.415 68.118 227.847 66.8206 226.472 65.6758C223.17 62.9199 220.024 59.935 216.792 57.0773C216.1 56.4668 215.595 55.7884 215.238 54.8811C213.995 51.7351 211.866 49.6999 208.68 49.2844C207.631 49.1488 207.53 48.4619 207.422 47.6563C207.025 44.7817 206.652 41.8986 206.256 39.0155C205.044 30.1711 203.483 21.403 201.618 12.7028C201.564 12.4399 201.486 12.1855 201.416 11.9226C200.662 8.92081 202.55 7.42838 205.005 7.54709C206.559 7.62341 207.997 8.25091 209.333 9.2176C216.38 14.3055 223.162 19.8003 229.751 25.5581C247.628 41.1693 264.247 58.256 280.05 76.3179C297.353 96.0927 313.575 116.86 328.236 139.06C329.176 140.484 329.704 141.968 329.953 143.673C331.041 151.101 331.802 158.555 332.268 166.059C332.424 168.628 332.579 171.189 332.626 173.767L332.641 173.759Z" fill="#FE5600"/>
<path d="M63.7485 321.558C64.7507 321.151 65.5588 321.804 66.3901 322.186C75.0064 326.044 83.9023 328.859 93.0547 330.665C96.4499 331.335 99.8995 331.666 103.334 332.056C107.366 332.505 111.383 332.302 115.407 332.361C119.743 332.429 124.047 331.81 128.304 331.047C133.494 330.114 138.56 328.63 143.548 326.773C153.027 323.245 161.651 318.03 169.638 311.484C174.113 307.812 178.114 303.581 181.991 299.197C183.141 297.899 183.926 296.212 185.48 295.339C185.487 298.654 185.044 301.936 184.811 305.243C184.516 309.5 184.12 313.74 183.786 317.988C183.661 319.608 183.739 319.726 185.208 320.345C189.248 322.067 193.288 323.788 197.343 325.459C198.237 325.823 198.703 326.307 198.944 327.384C199.581 330.207 201.08 332.387 203.505 333.726C204.872 334.481 204.895 334.49 204.662 336.169C204.048 340.519 203.442 344.869 202.766 349.202C201.508 357.207 200.016 365.169 198.338 373.081C197.841 375.413 197.841 375.404 195.634 374.896C158.085 366.263 122.213 352.255 87.4763 334.617C79.8312 330.733 72.2793 326.637 64.8362 322.313C64.4555 322.092 64.1059 321.821 63.7407 321.575L63.7485 321.558Z" fill="#70797B"/>
<path d="M199.423 58.9902C200.052 61.8818 200.285 64.7056 200.611 67.5124C201.823 77.917 202.694 88.3556 203.486 98.8027C203.805 102.992 203.276 107.02 201.536 110.827C200.86 112.302 199.974 113.269 198.444 113.727C195.592 114.575 192.803 115.66 189.874 116.678C189.346 114.176 189.369 111.726 189.159 109.326C188.258 98.9553 187.434 88.5846 186.595 78.2054C186.269 74.1605 185.982 70.1157 185.663 66.0708C185.609 65.367 185.57 64.7819 186.354 64.4597C190.69 62.6705 195.002 60.8388 199.415 58.9902H199.423Z" fill="#FCF6F5"/>
<path d="M203.512 84.2385C202.992 81.3808 202.891 78.4638 202.58 75.5806C202.013 70.3401 201.609 65.0657 200.692 59.8761C199.853 55.1614 203.419 50.099 207.995 50.3195C211.017 50.4721 213.706 52.7616 214.459 56.0602C215.228 59.4182 215.493 62.8695 215.881 66.2953C216.938 75.5722 217.637 84.8829 218.391 94.1852C218.429 94.6516 218.391 95.1265 218.375 95.6013C216.215 95.8557 214.211 95.2961 212.284 94.2615C208.904 92.4384 206.387 89.657 204.615 86.0447C204.305 85.4087 204.196 84.6031 203.504 84.2469L203.512 84.2385Z" fill="#FCF6F5"/>
<path d="M201.296 301.449C201.094 305.706 200.527 309.921 200.107 314.152C199.843 316.84 199.462 319.511 199.12 322.191C199.019 322.988 198.864 323.777 198.701 324.718C194.257 322.861 189.945 321.046 185.609 319.257C184.84 318.943 184.856 318.35 184.91 317.646C185.244 313.465 185.539 309.293 185.881 305.113C186.301 299.932 186.744 294.742 187.179 289.561C187.575 284.846 187.979 280.14 188.375 275.425C189.222 275.535 189.859 276.044 190.426 276.697C191.491 277.918 192.563 279.105 193.55 280.42C196.673 284.566 198.584 289.315 199.936 294.411C200.55 296.726 200.775 299.117 201.288 301.458L201.296 301.449Z" fill="#FCF6F5"/>
<path d="M200.699 319.337C200.963 316.649 201.228 313.961 201.484 311.273C202.051 305.345 202.696 299.435 203.17 293.499C203.69 287.029 204.203 280.551 204.359 273.885C208.888 276.76 213.526 277.515 218.476 275.047C218.196 279.779 217.971 284.366 217.652 288.954C217.341 293.474 216.937 297.993 216.572 302.505C216.533 302.971 216.572 303.463 216.331 303.887C216.238 303.972 216.098 304.048 216.067 304.158C214.808 308.483 212.703 312.214 209.704 315.394C207.171 318.082 204.25 319.515 200.699 319.337Z" fill="#FCF6F5"/>
<path d="M229.405 271.604C229.203 275.224 229.04 278.531 228.83 281.83C228.488 287.367 228.115 292.905 227.765 298.442C227.377 304.658 226.981 310.865 226.639 317.089C226.592 317.945 226.297 318.446 225.66 318.878C223.71 320.193 221.791 321.575 219.841 322.898C218.574 323.754 217.665 323.483 216.927 322.05C216.197 320.642 216.08 319.099 216.236 317.521C216.678 312.874 217.16 308.236 217.564 303.589C218.03 298.196 218.458 292.803 218.846 287.41C219.134 283.365 219.336 279.303 219.561 275.25C219.592 274.69 219.592 274.241 220.276 274.071C223.228 273.316 226.165 272.502 229.412 271.62L229.405 271.604Z" fill="#FCF6F5"/>
<path d="M227.282 69.2075C227.577 73.6509 227.888 78.0943 228.167 82.5462C228.68 90.7037 229.177 98.8612 229.675 107.019C229.83 109.571 229.985 112.132 230.133 114.642C229.581 115.032 229.232 114.659 228.867 114.489C226.365 113.328 223.863 112.157 221.354 111.004C220.755 110.733 220.367 110.419 220.328 109.563C220.033 103.559 219.675 97.5553 219.341 91.5601C219.971 90.4408 219.481 89.1943 219.683 88.0156C220.608 82.4868 222.356 77.2718 224.92 72.4129C225.534 71.2511 225.969 69.8011 227.282 69.2075Z" fill="#FCF6F5"/>
<path d="M200.703 319.332C204.253 319.502 207.175 318.069 209.707 315.389C212.706 312.209 214.812 308.487 216.071 304.153C216.102 304.043 216.249 303.975 216.335 303.882C216.187 308.885 215.48 313.837 214.959 318.798C214.688 321.35 214.361 323.894 213.981 326.43C213.476 329.788 211.797 332.188 208.752 333.12C204.168 334.528 199.452 330.169 199.864 324.92C200.011 323.046 200.407 321.189 200.695 319.324L200.703 319.332Z" fill="#ECDEDB"/>
<path d="M201.298 301.45C200.793 299.118 200.568 296.727 199.946 294.404C198.586 289.307 196.683 284.559 193.56 280.412C192.573 279.106 191.501 277.911 190.436 276.69C189.869 276.037 189.232 275.528 188.385 275.418C188.486 272.662 188.704 269.923 189.084 267.04C190.335 267.447 191.446 267.794 192.55 268.176C195.556 269.219 198.548 270.287 201.554 271.339C203.287 271.941 203.341 271.941 203.271 273.976C203.163 277.215 203.031 280.455 202.797 283.694C202.37 289.613 202.028 295.548 201.298 301.442V301.45Z" fill="#ECDEDB"/>
<path d="M203.499 84.2415C204.191 84.5976 204.3 85.4032 204.61 86.0392C206.382 89.66 208.899 92.4329 212.279 94.256C214.198 95.2906 216.21 95.8502 218.37 95.5958C218.844 99.8781 218.922 104.194 219.209 108.621C214.322 106.314 209.738 106.882 205.162 109.816C205.045 107.756 204.921 105.78 204.836 103.804C204.548 97.5292 203.934 91.2881 203.484 85.0386C203.468 84.7757 203.492 84.5043 203.499 84.2415Z" fill="#ECDEDB"/>
<path d="M199.894 269.406C200.593 269.278 200.911 268.736 201.183 268.091C204.004 261.468 206.591 254.736 208.634 247.774C209.955 243.271 211.128 238.726 212.161 234.138C212.247 233.74 212.239 233.324 212.628 233.095C212.698 239.124 212.231 245.136 212.014 251.157C211.858 255.355 211.579 259.544 211.346 263.733C211.291 264.742 211.151 265.751 211.128 266.768C211.105 267.481 210.825 267.71 210.211 267.684C209.023 267.625 207.857 267.727 206.715 268.108C205.697 268.447 204.664 268.829 204.035 269.821C203.553 270.584 203.048 270.728 202.318 270.364C201.533 269.974 200.632 269.948 199.901 269.414L199.894 269.406Z" fill="#A3B0B3"/>
<path d="M227.28 69.2081C225.967 69.8101 225.532 71.2517 224.918 72.4134C222.354 77.2723 220.606 82.4789 219.682 88.0162C219.488 89.1949 219.969 90.4414 219.34 91.5607C218.819 85.7775 218.322 79.9858 217.771 74.2026C217.281 69.0215 216.799 63.8404 215.991 58.7101C215.96 58.5151 215.991 58.3116 215.991 58.1166C216.279 58.0911 216.473 58.2438 216.667 58.4218C219.93 61.3389 223.186 64.2644 226.464 67.1644C227.086 67.7156 227.544 68.2838 227.28 69.225V69.2081Z" fill="#ECDEDB"/>
<path d="M210.252 268.848C211.876 268.848 213.468 269.102 214.991 269.738C215.628 270.001 216.258 270.298 216.825 270.696C217.555 271.205 218.34 271.773 218.184 272.91C218.052 273.936 217.252 274.3 216.491 274.58C215.729 274.86 214.937 275.072 214.144 275.174C211.363 275.521 208.698 275.055 206.235 273.58C205.427 273.096 204.518 272.503 204.619 271.316C204.72 270.128 205.715 269.764 206.585 269.416C207.758 268.95 209.001 268.856 210.252 268.856V268.848ZM210.827 270.052C210.275 270.103 209.708 270.094 209.172 270.222C208.62 270.357 208.115 270.654 208.038 271.375C207.96 272.104 208.395 272.503 208.908 272.774C210.415 273.58 212.008 273.614 213.608 273.223C214.09 273.105 214.525 272.757 214.579 272.13C214.634 271.519 214.3 271.129 213.857 270.832C212.925 270.205 211.891 270.077 210.827 270.044V270.052Z" fill="#D3E6EB"/>
<path d="M210.752 114.86C209.392 114.801 207.97 114.716 206.657 113.995C204.964 113.062 204.831 111.875 206.331 110.62C208.289 108.984 210.612 108.577 212.989 108.449C214.427 108.373 215.841 108.585 217.2 109.102C217.962 109.391 218.762 109.755 218.91 110.773C219.081 111.909 218.304 112.511 217.573 113.003C215.514 114.411 213.199 114.835 210.744 114.86H210.752ZM211.956 113.529C213.145 113.503 214.318 113.317 215.281 112.503C216.089 111.824 216.004 110.959 215.149 110.366C213.922 109.509 210.791 109.806 209.656 110.883C208.856 111.646 208.973 112.613 209.959 113.122C210.581 113.444 211.257 113.571 211.948 113.537L211.956 113.529Z" fill="#D3E6EB"/>
<path d="M212.628 232.927C212.527 232.317 212.403 231.706 212.737 231.121C212.869 231.732 212.947 232.342 212.628 232.927Z" fill="#D3E6EB"/>
<path d="M62.939 321.053C63.3274 320.994 63.7004 320.968 63.747 321.554C63.4284 321.477 63.1177 321.392 62.939 321.053Z" fill="#D3E6EB"/>
<path d="M171.574 169.59C171.683 181.657 171.419 193.919 171.092 206.18C170.844 215.593 170.463 224.997 169.974 234.401C169.476 243.932 168.87 253.463 168.132 262.978C167.13 275.867 165.848 288.722 164.131 301.518C163.502 306.233 159.493 311.329 152.974 309.777C128.182 303.884 104.307 294.895 80.8274 284.567C62.647 276.571 44.9017 267.548 27.6147 257.466C24.6313 255.727 23.0929 253.048 22.9065 249.503C22.2694 237.123 21.8421 224.742 21.5857 212.345C21.3215 199.532 21.3526 186.728 21.4691 173.923C21.5546 164.986 21.9042 156.04 22.1995 147.102C22.3471 142.769 22.5957 138.444 22.8987 134.119C23.1396 130.736 24.4137 127.853 26.8844 125.699C62.9733 94.3493 102.792 70.0633 145.484 51.2468C148.701 49.8306 151.956 48.5163 155.188 47.1426C156.362 46.6422 157.574 46.3794 158.824 46.4811C162.391 46.761 164.83 49.1183 165.39 53.0275C165.91 56.6399 166.283 60.2777 166.695 63.8985C167.573 71.6236 168.225 79.3826 168.839 87.1415C169.204 91.7291 169.437 96.3251 169.725 100.921C170.378 111.394 170.813 121.883 171.1 132.381C171.434 144.711 171.675 157.04 171.574 169.582V169.59ZM133.823 303.24C134.172 303.562 134.592 303.579 135.019 303.579C141.413 305.75 147.901 307.513 154.489 308.802C157.993 309.489 161.272 307.081 162.608 303.214C163.051 301.934 163.144 300.577 163.307 299.237C164.364 290.851 165.281 282.456 166.066 274.027C167.06 263.317 167.845 252.581 168.466 241.838C168.847 235.215 169.057 228.575 169.414 221.953C169.919 212.616 170.152 203.272 170.292 193.927C170.58 175.636 170.657 157.337 170.152 139.038C169.942 131.525 169.717 124.011 169.414 116.498C169.018 106.687 168.443 96.8848 167.736 87.0991C167.076 77.924 166.182 68.7659 165.133 59.6247C164.877 57.4115 164.628 55.1898 164.263 52.9936C163.704 49.6695 161.458 47.7361 158.351 47.6853C157.069 47.6683 155.919 48.1516 154.761 48.6265C122.293 62.0245 91.456 78.9586 62.2585 99.4457C50.7676 107.51 39.6651 116.168 28.9666 125.453C27.9177 126.369 27.405 127.327 27.3506 128.836C27.0709 136.553 26.5659 144.253 26.3639 151.969C26.0142 165.181 25.7812 178.392 25.8899 191.612C25.8899 192.426 25.9599 193.232 25.9909 194.046C25.9599 194.512 25.8977 194.987 25.9055 195.453C25.9676 205.612 26.1696 215.771 26.4959 225.93C26.799 235.274 27.2962 244.594 28.0421 253.913C28.1974 255.838 28.8423 256.847 30.404 257.746C59.6558 274.544 90.0341 288.391 121.516 299.356C125.587 300.772 129.643 302.239 133.823 303.248H133.846L133.823 303.24ZM26.0997 128.641C24.7944 130.303 24.1185 132.152 23.9942 134.238C23.7689 138.02 23.4814 141.794 23.3416 145.576C23.0463 153.419 22.7356 161.272 22.6112 169.115C22.4636 178.46 22.4792 187.805 22.4714 197.149C22.4714 201.822 22.5491 206.494 22.5879 211.166C22.6112 213.269 23.225 215.05 25.1441 216.619C24.3827 187.008 24.7867 157.82 26.1075 128.633L26.0997 128.641Z" fill="#050404"/>
<path d="M198.773 38.3879C198.773 39.3122 198.757 40.3976 198.773 41.483C198.788 42.3225 198.548 43.1026 198.237 43.8234C197.81 44.807 197.242 44.8664 196.489 44.1456C195.766 43.4588 195.3 42.5938 194.935 41.6441C192.977 36.5732 191.773 31.2818 190.934 25.8802C190.374 22.2848 190.017 18.6809 189.838 15.0431C189.768 13.6694 190.203 12.3805 190.304 11.0322C190.351 10.4047 190.631 9.65845 191.345 9.48886C192.083 9.31078 192.488 9.9722 192.837 10.4895C193.614 11.6342 194.181 12.9401 194.616 14.2714C195.999 18.5452 197.071 22.8953 197.724 27.3896C198.245 30.9935 198.882 34.5635 198.788 38.3879H198.773Z" fill="#FCF6F5"/>
<path d="M202.854 133.916C203.01 131.702 203.095 129.481 203.678 127.335C203.841 126.733 204.012 125.851 204.774 125.902C205.496 125.953 205.947 126.682 206.141 127.395C206.421 128.421 206.685 129.489 206.739 130.558C206.902 133.356 207.749 136.129 207.027 138.978C206.879 139.546 206.941 140.191 206.972 140.801C207.019 141.776 206.731 142.675 206.428 143.557C206.242 144.108 206.048 144.778 205.364 144.812C204.572 144.846 204.323 144.117 204.144 143.498C203.802 142.277 203.359 141.03 203.328 139.784C203.282 137.816 202.792 135.908 202.862 133.941L202.854 133.916Z" fill="#FCF6F5"/>
<path d="M8.70762 270.756C8.70762 270.129 8.69985 269.391 8.70762 268.645C8.72316 267.907 9.01062 267.212 9.64772 267.059C10.378 266.881 10.7199 267.602 10.9141 268.255C11.256 269.4 11.6445 270.553 11.8387 271.74C12.1339 273.589 12.4758 275.429 12.4292 277.328C12.4136 278.159 12.2194 278.939 11.9242 279.669C11.6134 280.432 10.9064 280.508 10.448 279.847C10.1605 279.431 9.95849 278.905 9.81864 278.405C9.12717 275.954 8.56777 273.478 8.70762 270.765V270.756Z" fill="#FCF6F5"/>
<path d="M10.157 262.444C10.2191 263.241 9.96276 263.818 9.38782 264.2C8.99935 264.462 8.67304 264.25 8.41665 263.945C7.86502 263.284 7.44547 262.529 7.66301 261.605C7.80286 261.011 8.18356 260.519 8.79735 260.451C9.38005 260.392 9.64421 260.876 9.86176 261.376C10.0249 261.74 10.1803 262.097 10.1415 262.453L10.157 262.444Z" fill="#FCF6F5"/>
<path d="M210.832 270.048C211.897 270.074 212.93 270.201 213.862 270.837C214.305 271.133 214.639 271.524 214.585 272.134C214.531 272.762 214.096 273.109 213.614 273.228C212.013 273.618 210.421 273.576 208.913 272.779C208.401 272.507 207.966 272.109 208.043 271.379C208.121 270.659 208.626 270.353 209.178 270.226C209.714 270.099 210.281 270.107 210.832 270.057V270.048ZM213.342 272.041C211.998 271.125 210.77 271.167 209.247 271.481C210.63 272.397 211.85 272.363 213.342 272.041Z" fill="#050404"/>
<path d="M211.975 113.533C211.283 113.567 210.607 113.44 209.986 113.118C208.999 112.609 208.875 111.642 209.683 110.879C210.809 109.802 213.948 109.505 215.176 110.362C216.031 110.955 216.116 111.82 215.308 112.499C214.337 113.321 213.171 113.499 211.983 113.525L211.975 113.533ZM210.522 111.998C211.889 112.439 213.234 112.583 214.873 111.405C213.07 110.947 211.734 110.845 210.522 111.998Z" fill="#050404"/>
<path d="M25.9929 194.037C25.9541 193.223 25.8997 192.417 25.8919 191.603C25.7909 178.383 26.0162 165.172 26.3659 151.96C26.5679 144.244 27.0807 136.536 27.3526 128.827C27.407 127.31 27.9197 126.351 28.9686 125.444C39.6671 116.159 50.7696 107.501 62.2605 99.4367C91.458 78.9496 122.295 62.0155 154.763 48.6175C155.921 48.1426 157.071 47.6508 158.353 47.6762C161.46 47.7271 163.706 49.669 164.265 52.9846C164.63 55.1808 164.879 57.4025 165.135 59.6157C166.184 68.7484 167.07 77.9066 167.738 87.0901C168.445 96.8758 169.02 106.678 169.416 116.489C169.719 124.003 169.952 131.516 170.154 139.029C170.659 157.328 170.574 175.619 170.294 193.918C170.146 203.263 169.921 212.607 169.416 221.944C169.059 228.566 168.849 235.206 168.468 241.829C167.847 252.573 167.062 263.299 166.068 274.018C165.291 282.438 164.374 290.842 163.309 299.228C163.139 300.559 163.053 301.916 162.61 303.205C161.274 307.072 157.995 309.48 154.491 308.793C147.903 307.504 141.415 305.749 135.021 303.57C134.741 302.951 134.298 303.044 133.825 303.231H133.801C133.545 302.23 132.667 302.298 132.014 302.052C125.908 299.779 120.042 296.879 114.207 293.92C111.79 292.69 109.46 291.274 107.113 289.892C103.407 287.704 99.7634 285.406 96.2206 282.922C89.6632 278.317 83.2768 273.467 77.2788 267.997C73.0988 264.19 68.9888 260.298 65.0731 256.176C61.4137 252.327 57.9796 248.248 54.6465 244.059C52.4555 241.303 50.2879 238.53 48.2756 235.63C43.8626 229.279 39.7603 222.69 36.1165 215.77C32.7756 209.428 29.7456 202.932 27.2749 196.131C26.9952 195.36 26.902 194.376 25.9774 194.045L25.9929 194.037ZM148.47 99.5978C148.672 103.015 148.447 107.263 148.734 111.529C149.076 116.498 149.185 121.493 149.526 126.47C149.876 131.507 150.436 136.51 151.018 141.513C151.547 145.999 152.254 150.434 153.357 154.784C153.862 156.777 154.305 158.871 155.796 160.381C156.55 161.144 157.179 161.135 157.848 160.321C158.088 160.024 158.267 159.651 158.399 159.27C159.487 156.09 160.054 152.774 160.357 149.425C160.544 147.347 160.637 145.244 160.854 143.184C161.289 139.012 161.266 134.831 161.429 130.659C161.693 123.774 161.468 116.871 161.188 109.969C161.056 106.594 160.714 103.244 160.668 99.8522C160.645 98.1308 160.559 96.3416 160.326 94.6202C159.759 90.4312 159.526 86.1998 158.943 82.0023C158.298 77.3384 157.599 72.6915 156.519 68.1294C156.13 66.4928 155.587 64.8986 154.771 63.4401C153.846 61.7866 152.72 61.8289 151.803 63.4995C151.321 64.3814 150.979 65.3396 150.77 66.3147C150.436 67.8835 150.171 69.4777 149.962 71.0804C149.604 73.8108 149.324 76.5498 149.138 79.3057C148.827 83.7406 148.555 88.184 148.47 92.6274C148.431 94.6626 148.47 96.6892 148.47 99.5639V99.5978ZM105.73 185.014C105.769 179.502 105.614 174.372 104.868 169.267C103.827 162.187 101.962 155.428 98.5203 149.255C96.6324 145.872 94.3249 142.878 91.3181 140.589C85.8484 136.417 79.4698 136.298 73.8602 140.233C71.374 141.98 69.3151 144.21 67.536 146.762C64.7623 150.731 62.7034 155.115 61.2738 159.838C57.762 171.438 57.0006 183.284 58.8575 195.317C59.9608 202.457 62.0119 209.224 65.6558 215.355C68.6237 220.341 72.5938 223.962 77.6906 226.099C80.7362 227.379 83.8595 228.134 87.1459 227.651C91.7998 226.964 95.2883 224.199 98.0386 220.214C100.61 216.491 102.211 212.234 103.337 207.774C105.249 200.21 105.878 192.477 105.73 185.014ZM152.922 188.432C152.852 191.815 153.295 195.156 153.776 198.472C154.103 200.71 154.499 203 155.835 204.891C156.783 206.239 157.972 206.265 158.795 204.806C159.277 203.95 159.697 203.017 159.969 202.059C161.095 198.107 161.181 193.977 161.491 189.899C161.678 187.465 161.142 185.074 161.049 182.64C160.971 180.52 160.606 178.358 159.961 176.314C159.588 175.118 159.308 173.855 158.384 172.931C157.21 171.744 156.371 171.803 155.556 173.295C154.895 174.516 154.351 175.814 154.064 177.213C153.302 180.902 153.054 184.658 152.906 188.423L152.922 188.432Z" fill="#D3E6EB"/>
<path d="M25.977 194.035C26.8938 194.366 26.987 195.35 27.2745 196.121C29.7452 202.922 32.7753 209.426 36.1161 215.76C39.7599 222.68 43.8622 229.269 48.2752 235.62C50.2875 238.52 52.4552 241.301 54.6461 244.049C57.9792 248.238 61.4133 252.317 65.0727 256.166C68.9962 260.288 73.0985 264.18 77.2784 267.987C83.2764 273.457 89.6628 278.307 96.2202 282.912C99.7631 285.396 103.407 287.694 107.113 289.882C109.459 291.264 111.79 292.68 114.206 293.91C120.041 296.869 125.907 299.769 132.014 302.042C132.666 302.288 133.544 302.22 133.801 303.221C129.621 302.211 125.557 300.744 121.494 299.328C90.0125 288.364 59.6341 274.517 30.3823 257.718C28.8206 256.819 28.1758 255.81 28.0204 253.885C27.2745 244.575 26.7773 235.247 26.4743 225.902C26.1479 215.743 25.9459 205.585 25.8838 195.426C25.8838 194.96 25.9382 194.485 25.9693 194.018L25.977 194.035Z" fill="#A3B0B3"/>
<path d="M26.1015 128.64C24.7807 157.827 24.3767 187.015 25.1381 216.626C23.219 215.057 22.6052 213.277 22.5819 211.174C22.5353 206.501 22.4576 201.829 22.4654 197.157C22.4809 187.812 22.4654 178.467 22.6052 169.122C22.7295 161.27 23.0481 153.426 23.3356 145.583C23.4754 141.801 23.7629 138.019 23.9882 134.245C24.1125 132.168 24.7962 130.311 26.0937 128.649L26.1015 128.64Z" fill="#FE5600"/>
<path d="M133.821 303.24C134.287 303.054 134.738 302.96 135.017 303.579C134.59 303.579 134.17 303.562 133.821 303.24Z" fill="#ECDEDB"/>
<path d="M213.337 272.042C211.845 272.364 210.618 272.398 209.243 271.482C210.773 271.169 211.993 271.126 213.337 272.042Z" fill="#D3E6EB"/>
<path d="M210.506 111.995C211.718 110.842 213.054 110.944 214.857 111.401C213.217 112.58 211.873 112.436 210.506 111.995Z" fill="#D3E6EB"/>
<path d="M148.454 99.5952C148.454 96.7291 148.423 94.6939 148.454 92.6588C148.539 88.2069 148.811 83.772 149.122 79.3371C149.316 76.5812 149.596 73.8422 149.945 71.1117C150.155 69.5176 150.419 67.9234 150.754 66.3461C150.963 65.3625 151.297 64.4043 151.787 63.5308C152.711 61.8519 153.838 61.8179 154.755 63.4715C155.563 64.93 156.114 66.5242 156.503 68.1608C157.575 72.7314 158.274 77.3698 158.927 82.0337C159.51 86.2311 159.743 90.4625 160.31 94.6515C160.543 96.3729 160.628 98.1622 160.652 99.8836C160.691 103.267 161.032 106.625 161.172 110C161.452 116.894 161.677 123.805 161.413 130.69C161.25 134.854 161.273 139.043 160.838 143.215C160.621 145.276 160.527 147.379 160.341 149.456C160.038 152.814 159.471 156.13 158.383 159.301C158.259 159.674 158.072 160.056 157.831 160.353C157.163 161.167 156.534 161.167 155.78 160.412C154.289 158.903 153.846 156.808 153.341 154.815C152.237 150.465 151.53 146.03 151.002 141.545C150.412 136.542 149.86 131.538 149.51 126.501C149.161 121.524 149.052 116.529 148.718 111.56C148.43 107.295 148.656 103.046 148.454 99.6292V99.5952Z" fill="#FCF6F5"/>
<path d="M105.725 185.016C105.872 192.478 105.251 200.212 103.332 207.776C102.205 212.236 100.605 216.493 98.0331 220.216C95.2827 224.201 91.7943 226.957 87.1404 227.652C83.8539 228.136 80.7306 227.381 77.685 226.1C72.5883 223.964 68.6181 220.343 65.6502 215.357C62.0064 209.234 59.9552 202.467 58.852 195.319C56.9951 183.278 57.7565 171.44 61.2683 159.84C62.6978 155.116 64.7567 150.732 67.5304 146.764C69.3096 144.211 71.3685 141.981 73.8547 140.234C79.4642 136.3 85.8351 136.427 91.3126 140.591C94.3193 142.88 96.6191 145.874 98.5148 149.257C101.957 155.422 103.829 162.18 104.862 169.269C105.608 174.374 105.764 179.504 105.725 185.016ZM103.433 168.421C102.959 163.596 101.646 159.017 99.8278 154.616C98.0331 150.258 95.7023 146.281 92.3692 143.084C86.2935 137.258 78.796 137.156 72.5728 142.812C70.4129 144.78 68.587 147.078 67.0565 149.647C64.5936 153.768 62.8765 158.254 61.5946 162.943C59.0074 172.424 58.3858 182.099 59.4813 191.893C60.1961 198.312 61.6412 204.536 64.2983 210.362C66.1319 214.381 68.3151 218.146 71.6715 220.919C71.7337 221.123 71.8502 221.25 72.06 221.225C72.1221 221.326 72.2076 221.386 72.3164 221.386C74.554 223.624 77.2422 224.735 80.2179 224.973C84.7163 225.329 88.4379 223.362 91.6933 220.156C96.285 215.628 99.0975 209.862 101.125 203.595C104.513 193.114 105.134 182.311 104 171.347C103.899 170.372 103.992 169.303 103.433 168.413V168.421Z" fill="#050404"/>
<path d="M152.925 188.429C153.072 184.664 153.313 180.915 154.082 177.218C154.37 175.819 154.914 174.522 155.574 173.301C156.382 171.808 157.221 171.749 158.402 172.936C159.319 173.86 159.606 175.124 159.979 176.319C160.624 178.363 160.982 180.525 161.067 182.645C161.16 185.071 161.696 187.47 161.51 189.904C161.199 193.983 161.114 198.112 159.987 202.064C159.715 203.022 159.296 203.955 158.814 204.811C157.99 206.27 156.81 206.244 155.854 204.896C154.518 202.997 154.121 200.716 153.795 198.477C153.313 195.161 152.87 191.82 152.94 188.437L152.925 188.429Z" fill="#FCF6F5"/>
<path d="M72.3203 221.386C72.2115 221.386 72.1261 221.326 72.0639 221.224C71.994 221.038 71.8619 220.936 71.6754 220.919C68.3191 218.146 66.1436 214.381 64.3023 210.362C61.6451 204.545 60.2 198.312 59.4852 191.893C58.3898 182.099 59.0035 172.424 61.5985 162.943C62.8805 158.254 64.5975 153.76 67.0604 149.647C68.5988 147.078 70.4168 144.78 72.5767 142.812C78.8 137.156 86.2975 137.266 92.3731 143.084C95.7062 146.28 98.0293 150.257 99.8318 154.616C101.65 159.017 102.955 163.596 103.437 168.421C103.149 168.608 103.002 168.904 103.002 169.261C103.025 171.287 102.722 173.305 102.675 175.315C102.582 179.843 102.155 184.312 101.533 188.781C100.585 195.641 98.9461 202.238 95.8849 208.361C93.1967 213.737 89.514 217.951 84.1609 220.207C81.5892 221.292 78.8932 221.75 76.1817 221.589C74.8997 221.513 73.61 221.326 72.3125 221.394L72.3203 221.386ZM90.2676 178.487C90.2676 173.924 90.019 170.27 89.4751 166.657C88.7681 161.959 87.6726 157.38 85.3962 153.242C84.4017 151.428 83.2285 149.766 81.5737 148.595C79.0952 146.84 76.5779 146.781 74.0296 148.417C72.7321 149.257 71.6677 150.385 70.712 151.648C68.3035 154.845 66.8196 158.559 65.7008 162.451C62.7173 172.847 62.1424 183.439 63.6574 194.183C64.2323 198.278 65.2346 202.264 66.9672 205.978C67.9617 208.106 69.1659 210.074 70.9063 211.575C73.5945 213.881 76.5235 214.017 79.3671 212.015C80.315 211.346 81.1308 210.523 81.8767 209.607C83.5937 207.513 84.8524 205.113 85.8701 202.552C89.0401 194.59 90.0734 186.169 90.2599 178.478L90.2676 178.487ZM91.3709 201.501C91.3864 200.678 91.3787 200.254 90.9669 200.059C90.4774 199.83 90.1433 200.152 89.8403 200.5C88.131 202.467 87.2531 204.892 86.6549 207.462C86.5772 207.784 86.5694 208.132 86.5772 208.462C86.5772 208.869 86.6393 209.302 87.0666 209.455C87.3852 209.565 87.6726 209.412 87.898 209.158C89.9025 206.902 90.8581 204.104 91.3787 201.492L91.3709 201.501ZM83.4306 140.845C83.2441 140.845 83.0576 140.819 82.8789 140.845C82.3351 140.938 81.698 140.972 81.5037 141.65C81.294 142.363 81.8534 142.761 82.2962 143.092C83.7569 144.203 85.4273 144.627 87.1754 144.712C87.7037 144.737 88.3486 144.627 88.5428 143.923C88.7371 143.211 88.2243 142.804 87.7736 142.465C86.4762 141.489 84.9767 141.108 83.4461 140.845H83.4306ZM92.5052 196.362C92.5285 195.675 92.2799 195.141 91.6428 195.014C91.0523 194.886 90.3764 195.853 90.3919 196.718C90.4075 197.405 90.6716 197.905 91.3476 197.948C91.9225 197.981 92.4741 197.184 92.5052 196.362Z" fill="#FE5600"/>
<path d="M72.3037 221.385C73.6012 221.317 74.8909 221.504 76.1729 221.58C78.8844 221.749 81.5726 221.283 84.1521 220.198C89.5052 217.942 93.1879 213.728 95.8761 208.351C98.9372 202.229 100.584 195.632 101.524 188.772C102.138 184.303 102.573 179.834 102.667 175.306C102.705 173.296 103.016 171.286 102.993 169.251C102.993 168.895 103.133 168.598 103.428 168.412C103.98 169.302 103.894 170.371 103.995 171.346C105.122 182.31 104.508 193.113 101.12 203.594C99.0926 209.861 96.2801 215.619 91.6884 220.155C88.4408 223.361 84.7115 225.328 80.213 224.972C77.2295 224.734 74.5491 223.624 72.3115 221.385H72.3037Z" fill="#B20000"/>
<path d="M71.6641 220.92C71.849 220.936 71.98 221.029 72.0494 221.222C71.8413 221.248 71.7257 221.122 71.6641 220.92Z" fill="#B20000"/>
<path d="M90.2558 178.488C90.0771 186.179 89.036 194.591 85.8661 202.562C84.8483 205.123 83.5897 207.523 81.8726 209.617C81.1268 210.525 80.311 211.356 79.3631 212.026C76.5195 214.018 73.5904 213.883 70.9022 211.585C69.1541 210.092 67.9576 208.116 66.9631 205.988C65.2228 202.274 64.2283 198.288 63.6534 194.193C62.1383 183.457 62.7133 172.858 65.6967 162.461C66.8155 158.569 68.2995 154.847 70.708 151.658C71.6636 150.395 72.728 149.267 74.0255 148.427C76.5739 146.791 79.0912 146.85 81.5696 148.605C83.2245 149.776 84.3977 151.438 85.3922 153.252C87.6608 157.391 88.7641 161.97 89.4711 166.667C90.015 170.28 90.2636 173.926 90.2636 178.497L90.2558 178.488ZM64.9275 177.013C65.1062 177.064 65.2772 177.123 65.4636 177.165C65.8366 177.242 66.2716 177.318 66.2017 177.852C66.1396 178.386 65.6812 178.386 65.3238 178.302C64.2516 178.047 64.0418 178.734 64.003 179.65C63.9952 179.921 63.9486 180.193 63.9408 180.464C63.7621 186.383 64.2205 192.242 65.5025 198.009C65.6423 198.619 65.5724 199.382 66.3105 199.908C66.901 198.958 67.4759 198.009 68.0742 197.076C68.2839 196.745 68.5714 196.363 68.9754 196.694C69.3406 196.999 69.1774 197.449 68.9754 197.788C68.3694 198.814 67.7556 199.832 67.1185 200.832C66.7922 201.35 66.5358 201.816 66.7844 202.503C67.8178 205.36 69.0609 208.082 71.1741 210.194C71.7491 210.762 72.324 211.39 73.2175 211.457C73.2175 210.16 73.2175 208.947 73.2175 207.735C73.2175 207.336 73.3962 207.048 73.7381 207.014C74.0877 206.98 74.2974 207.26 74.313 207.642C74.3518 208.523 74.3674 209.405 74.3984 210.279C74.4606 212.17 74.6471 212.331 76.3797 212.026C77.3197 211.856 78.1433 211.415 78.928 210.847C80.0313 210.05 80.8781 208.973 81.7561 207.921C82.3932 207.15 82.4009 206.463 81.9892 205.555C80.7616 202.893 79.604 200.205 78.423 197.517C78.2132 197.033 78.0268 196.525 77.8869 196.007C77.8481 195.863 77.9724 195.583 78.1045 195.482C78.3142 195.32 78.5939 195.354 78.7415 195.617C78.9979 196.075 79.2388 196.55 79.4486 197.042C80.6528 199.755 81.8415 202.477 83.0147 205.132C83.2556 205.115 83.3488 205.132 83.3799 205.098C83.4964 204.945 83.6207 204.784 83.7062 204.614C87.4899 196.762 88.8107 188.274 89.1215 179.523C89.1526 178.759 88.8029 178.607 88.2202 178.624C87.2257 178.658 86.2313 178.675 85.2445 178.658C84.8405 178.658 84.2112 178.819 84.1801 178.208C84.1413 177.462 84.8328 177.547 85.2912 177.504C86.0914 177.437 86.9072 177.437 87.7074 177.411C89.1292 177.36 89.1603 177.36 89.1292 175.842C89.0282 169.983 88.3135 164.234 86.5343 158.679C86.3866 158.213 86.3633 157.619 85.7418 157.238C84.2345 159.019 82.7428 160.816 81.2122 162.572C80.8781 162.962 80.513 163.827 79.9303 163.25C79.3476 162.673 80.0779 162.182 80.412 161.775C81.8648 160.011 83.3255 158.247 84.8328 156.543C85.3611 155.949 85.3844 155.457 85.027 154.779C84.0247 152.888 82.937 151.082 81.3132 149.759C80.2566 148.902 79.1067 148.377 77.7004 148.478C77.6694 149.021 77.6461 149.428 77.6305 149.827C77.5839 150.836 77.6305 151.862 77.3819 152.854C77.3197 153.108 77.2421 153.397 76.908 153.337C76.6127 153.286 76.535 153.032 76.4884 152.761C76.4573 152.557 76.4418 152.362 76.4185 152.158C76.605 150.988 76.636 149.818 76.4807 148.605C75.626 148.665 75.0433 149.046 74.4684 149.428C72.6348 150.649 71.2907 152.404 70.234 154.406C68.6646 157.374 68.2295 156.526 70.5681 159.909C71.1741 161.546 71.1508 161.596 69.9 161.452C69.4493 160.469 69.0686 159.426 68.1208 158.73C66.6057 162.495 65.6656 166.311 65.013 170.22C64.6945 172.137 64.5002 174.07 64.2594 176.004C64.1894 176.572 64.1584 177.131 64.9508 177.013H64.9275Z" fill="#050404"/>
<path d="M91.3611 201.498C90.8405 204.109 89.8926 206.908 87.8804 209.163C87.6551 209.418 87.3676 209.57 87.049 209.46C86.6295 209.307 86.5673 208.875 86.5596 208.468C86.5596 208.137 86.5596 207.79 86.6373 207.467C87.2355 204.898 88.1134 202.473 89.8227 200.505C90.1257 200.158 90.4676 199.836 90.9493 200.064C91.3611 200.26 91.3688 200.684 91.3533 201.506L91.3611 201.498Z" fill="#FCF6F5"/>
<path d="M83.4204 140.846C84.951 141.109 86.4504 141.491 87.7479 142.466C88.1986 142.805 88.7113 143.212 88.5171 143.925C88.3306 144.628 87.678 144.739 87.1497 144.713C85.4093 144.628 83.7312 144.204 82.2705 143.094C81.8276 142.754 81.276 142.364 81.478 141.652C81.6723 140.974 82.3094 140.94 82.8532 140.846C83.0319 140.812 83.2184 140.846 83.4048 140.846H83.4204Z" fill="#FCF6F5"/>
<path d="M92.4949 196.357C92.4716 197.171 91.9122 197.977 91.3373 197.943C90.6613 197.9 90.3971 197.4 90.3816 196.713C90.3661 195.848 91.042 194.881 91.6325 195.009C92.2696 195.144 92.5104 195.679 92.4949 196.357Z" fill="#FCF6F5"/>
<path d="M69.8896 161.443C71.1405 161.587 71.1638 161.536 70.5578 159.9C71.3037 158.687 71.9952 157.424 72.8032 156.271C73.8676 154.761 74.6445 152.938 76.4082 152.158C76.4315 152.361 76.447 152.565 76.4781 152.76C76.5247 153.031 76.5946 153.286 76.8977 153.337C77.2395 153.396 77.3094 153.108 77.3716 152.853C77.6202 151.861 77.5658 150.835 77.6202 149.826C77.6435 149.427 77.6668 149.02 77.6901 148.478C79.0964 148.384 80.254 148.902 81.3029 149.758C82.9345 151.089 84.0144 152.896 85.0167 154.778C85.3818 155.456 85.3508 155.948 84.8224 156.542C83.3152 158.246 81.8545 160.01 80.4017 161.774C80.0676 162.181 79.3295 162.673 79.92 163.249C80.5027 163.826 80.8678 162.953 81.2019 162.571C82.7325 160.816 84.2242 159.018 85.7315 157.237C86.353 157.619 86.3763 158.204 86.5239 158.679C88.2954 164.233 89.0179 169.982 89.1189 175.842C89.1422 177.36 89.1189 177.36 87.6971 177.411C86.8891 177.436 86.0811 177.436 85.2808 177.504C84.8224 177.538 84.131 177.453 84.1698 178.208C84.2009 178.827 84.8302 178.657 85.2342 178.657C86.2287 178.666 87.2232 178.657 88.2099 178.623C88.7926 178.606 89.1345 178.759 89.1112 179.522C88.7926 188.273 87.4718 196.761 83.6959 204.614C83.6104 204.792 83.4861 204.953 83.3696 205.097C83.3385 205.131 83.253 205.114 83.0044 205.131C81.839 202.477 80.6425 199.763 79.4383 197.041C79.2207 196.558 78.9876 196.083 78.7312 195.617C78.5836 195.354 78.3039 195.311 78.0941 195.481C77.9698 195.583 77.8378 195.862 77.8766 196.007C78.0164 196.524 78.1951 197.024 78.4127 197.516C79.5859 200.204 80.7513 202.901 81.9788 205.555C82.3906 206.454 82.3829 207.149 81.7458 207.921C80.8678 208.981 80.021 210.058 78.9177 210.846C78.133 211.414 77.3017 211.855 76.3693 212.025C74.6368 212.33 74.4503 212.169 74.3881 210.278C74.3571 209.396 74.3415 208.514 74.3027 207.641C74.2871 207.259 74.0774 206.971 73.7277 207.013C73.3937 207.047 73.2072 207.336 73.2072 207.734C73.2072 208.947 73.2072 210.159 73.2072 211.457C72.3137 211.389 71.7388 210.761 71.1638 210.193C69.0428 208.082 67.8074 205.36 66.7741 202.502C66.5255 201.815 66.7741 201.349 67.1082 200.832C67.7453 199.831 68.3591 198.813 68.9651 197.787C69.1671 197.44 69.338 196.99 68.9651 196.693C68.5688 196.363 68.2814 196.753 68.0638 197.075C67.4656 198.008 66.8907 198.958 66.3002 199.907C65.5699 199.382 65.632 198.618 65.4922 198.008C64.2024 192.242 63.7441 186.391 63.9305 180.463C63.9383 180.192 63.9849 179.921 63.9927 179.649C64.0315 178.733 64.2413 178.047 65.3135 178.301C65.6709 178.386 66.1293 178.386 66.1914 177.851C66.2536 177.317 65.8185 177.241 65.4533 177.165C65.2746 177.122 65.0959 177.063 64.9172 177.012C64.9638 176.546 64.9638 176.062 65.0726 175.613C66.2303 170.712 67.7997 165.98 69.8663 161.452L69.8896 161.443ZM76.6568 177.232C76.6024 175.944 76.6024 174.655 76.4781 173.374C76.2994 171.415 75.9576 169.482 75.1107 167.71C73.7744 164.894 71.7543 164.742 70.0917 167.311C69.5556 168.142 69.1127 169.049 68.8252 170.016C67.2403 175.333 66.8596 180.76 67.722 186.272C67.9628 187.807 68.3435 189.325 69.1671 190.639C70.449 192.7 72.1739 192.776 73.5801 190.851C74.2483 189.944 74.6989 188.901 75.0641 187.815C76.2295 184.398 76.6568 180.862 76.649 177.232H76.6568Z" fill="#E0F450"/>
<path d="M76.4036 152.155C74.6399 152.935 73.8552 154.758 72.7986 156.267C71.9828 157.42 71.2991 158.684 70.5532 159.897C68.2146 156.522 68.6497 157.361 70.2191 154.393C71.2758 152.392 72.6199 150.637 74.4534 149.416C75.0284 149.034 75.6111 148.652 76.4657 148.593C76.6289 149.806 76.5978 150.976 76.4036 152.146V152.155Z" fill="#A9BB24"/>
<path d="M69.8918 161.438C67.8251 165.974 66.2557 170.697 65.098 175.599C64.9893 176.048 64.997 176.532 64.9426 176.998C64.1502 177.117 64.1812 176.557 64.2512 175.989C64.492 174.055 64.6863 172.122 65.0048 170.206C65.6574 166.296 66.6053 162.481 68.1126 158.716C69.0604 159.411 69.4334 160.454 69.8918 161.438Z" fill="#A9BB24"/>
<path d="M76.6532 177.229C76.6687 180.858 76.2336 184.394 75.0682 187.812C74.6953 188.897 74.2447 189.94 73.5843 190.847C72.1702 192.772 70.4454 192.696 69.1712 190.635C68.3555 189.321 67.967 187.803 67.7261 186.268C66.8637 180.757 67.2367 175.33 68.8294 170.013C69.1169 169.038 69.5597 168.139 70.0958 167.308C71.7584 164.738 73.7707 164.891 75.1148 167.706C75.9539 169.478 76.3036 171.412 76.4822 173.371C76.5988 174.651 76.6066 175.94 76.6609 177.229H76.6532ZM75.5888 175.94C75.48 174.312 75.4023 172.692 75.0371 171.115C74.8351 170.267 74.6176 169.419 74.3068 168.614C73.9727 167.749 73.6076 166.765 72.5587 166.756C71.5409 166.74 71.1447 167.715 70.6785 168.503C70.5153 168.783 70.3833 169.097 70.2667 169.411C68.0835 175.38 67.8271 181.486 69.179 187.701C69.3655 188.549 69.6685 189.38 70.1502 190.101C70.9504 191.288 71.6419 191.348 72.5665 190.296C73.2191 189.55 73.6076 188.626 73.9572 187.685C75.3324 183.911 75.581 179.951 75.5888 175.949V175.94Z" fill="#050404"/>
<path d="M75.5913 175.938C75.5835 179.932 75.3349 183.892 73.9597 187.674C73.6179 188.624 73.2294 189.548 72.569 190.286C71.6444 191.337 70.953 191.278 70.1527 190.091C69.671 189.37 69.368 188.539 69.1815 187.691C67.8297 181.475 68.0861 175.37 70.2693 169.4C70.3858 169.086 70.5179 168.773 70.681 168.493C71.1472 167.704 71.5435 166.729 72.5612 166.746C73.6101 166.763 73.9675 167.747 74.3094 168.603C74.6201 169.409 74.8454 170.257 75.0397 171.105C75.4126 172.682 75.4825 174.31 75.5913 175.93V175.938ZM73.8898 173.292C73.8743 172.232 74.0607 171.147 73.6334 170.121C73.4314 169.646 73.4159 168.942 72.771 169.027C72.0485 169.12 72.0718 169.833 72.064 170.443C72.0562 171.249 71.963 172.08 72.1028 172.851C72.2815 173.818 72.3204 174.853 72.8332 175.726C72.9808 175.972 73.1906 176.116 73.447 176.065C73.7033 176.014 73.882 175.802 73.8898 175.506C73.9054 174.768 73.8898 174.03 73.8898 173.292Z" fill="#D3E6EB"/>
<path d="M73.8751 173.292C73.8751 174.03 73.8829 174.768 73.8751 175.505C73.8751 175.802 73.6887 176.014 73.4323 176.065C73.1759 176.116 72.9661 175.972 72.8185 175.726C72.3057 174.852 72.2669 173.818 72.0882 172.851C71.9483 172.079 72.0416 171.248 72.0493 170.443C72.0493 169.841 72.026 169.12 72.7564 169.027C73.4012 168.942 73.4168 169.646 73.6188 170.121C74.0461 171.147 73.8674 172.232 73.8751 173.292Z" fill="#FCF6F5"/>
</svg>
