<svg width="401" height="393" viewBox="0 0 401 393" fill="none" xmlns="http://www.w3.org/2000/svg">
<path d="M135.113 165.824C140.308 224.316 145.507 282.805 150.702 341.297C232.63 307.463 314.558 273.629 396.489 239.794C394.293 215.079 392.096 190.363 389.9 165.647C339.906 150.698 296.178 140.56 260.898 133.529C211.525 123.69 181.434 120.481 156.664 139.669C145.91 148.002 139.189 158.205 135.11 165.82L135.113 165.824Z" fill="#D3E6EB"/>
<path d="M368.205 160.357C369.962 161.456 371.722 162.556 373.479 163.656C375.121 181.867 376.762 200.075 378.401 218.286C376.852 218.813 375.299 219.343 373.75 219.869C371.901 200.032 370.051 180.194 368.202 160.357H368.205Z" fill="#A3B0B3"/>
<path d="M275.104 281.402C277.667 280.519 280.227 279.639 282.79 278.756C283.011 281.218 283.233 283.685 283.454 286.147C280.841 287.279 278.229 288.408 275.613 289.54C275.445 286.829 275.273 284.114 275.104 281.402Z" fill="#A3B0B3"/>
<path d="M326.886 156.938C329.198 182.605 331.51 208.269 333.825 233.937C347.132 229.25 360.439 224.559 373.746 219.872C371.896 200.034 370.046 180.197 368.197 160.359L365.776 157.709C363.732 159.591 357.575 164.758 348.417 165.324C336.527 166.06 328.475 158.492 326.89 156.938H326.886Z" fill="#E0F450"/>
<path d="M188.23 61.9806C243.277 76.5794 298.324 91.1817 353.37 105.78C357.509 123.091 361.647 140.397 365.785 157.707C363.642 159.669 357.486 164.763 348.426 165.322C335.285 166.133 326.588 156.748 325.224 155.227C322.628 157.567 314.5 164.276 302.541 164.662C286.658 165.178 276.354 154.149 274.603 152.212C272.447 154.224 261.465 164.042 245.354 162.787C230.783 161.652 221.69 152.212 219.441 149.732C209.037 120.48 198.634 91.2286 188.23 61.9734V61.9806Z" fill="#FCF6F5"/>
<path d="M236.968 265.975C233.676 229.429 230.383 192.884 227.09 156.342C225.815 155.484 224.425 154.445 222.988 153.194C221.627 152.015 220.448 150.84 219.438 149.737C218.06 150.851 216.686 151.961 215.309 153.075C218.797 191.936 222.288 230.796 225.775 269.656C229.508 268.43 233.24 267.201 236.968 265.975Z" fill="#A3B0B3"/>
<path d="M152.86 153.681C156.943 198.992 161.025 244.306 165.107 289.616C185.33 282.964 205.549 276.312 225.772 269.663C222.284 230.803 218.793 191.943 215.305 153.083C212.25 155.177 197.114 165.074 178.301 160.056C166.791 156.984 159.347 149.78 156.044 146.12C155.734 147.195 155.341 148.37 154.839 149.61C154.205 151.172 153.518 152.531 152.86 153.688V153.681Z" fill="#E0F450"/>
<path d="M280.647 182.426C282.134 181.821 287.682 179.78 293.987 182.376C302.211 185.765 304.949 194.263 305.306 195.435C303.578 195.551 301.851 195.67 300.124 195.785C299.509 193.953 297.832 189.72 293.786 186.403C288.237 181.86 282.187 182.271 280.651 182.423L280.647 182.426Z" fill="#E16834"/>
<path d="M300.113 195.793C299.496 193.965 297.811 189.743 293.776 186.411C292.425 185.297 288.184 181.908 282.123 182.308C280.617 182.409 275.386 182.846 271.347 187.605C267.852 191.722 267.41 196.532 267.327 198.01C278.256 197.271 289.185 196.532 300.117 195.789L300.113 195.793Z" fill="#E0F450"/>
<path d="M197.17 168.725C196.513 167.351 192.133 168.015 188.087 169.673C180.121 172.936 171.148 181.002 172.637 185.898C174.051 190.546 183.645 188.238 185.372 193.257C187.423 199.224 175.398 206.882 177.509 212.68C179.107 217.075 186.736 214.634 189.121 219.018C193.639 227.329 172.148 246.943 176.201 253.57C178.939 258.052 190.855 252.499 194.366 258.477C196.384 261.917 193.639 265.789 195.3 267.267C198.996 270.552 217.719 256.047 215.711 249.889C214.073 244.874 199.891 249.164 197.173 242.732C194.211 235.726 208.445 224.517 205.225 218.2C203.052 213.938 195.733 217.381 193.051 212.885C188.896 205.916 202.877 191.555 197.92 182.833C196.559 180.439 194.171 179.167 194.174 176.087C194.181 172.287 197.827 170.099 197.17 168.729V168.725Z" fill="#FCF6F5"/>
<path d="M353.234 143.315C352.745 142.294 349.492 142.788 346.483 144.018C340.565 146.444 333.893 152.437 335.003 156.074C336.053 159.529 343.184 157.812 344.468 161.544C345.994 165.979 337.057 171.672 338.623 175.977C339.812 179.244 345.479 177.426 347.253 180.686C350.608 186.862 334.64 201.439 337.648 206.364C339.683 209.692 348.541 205.567 351.15 210.009C352.649 212.566 350.608 215.443 351.847 216.543C354.595 218.984 368.509 208.203 367.016 203.628C365.801 199.9 355.259 203.09 353.237 198.31C351.034 193.103 361.613 184.774 359.222 180.076C357.607 176.907 352.167 179.467 350.176 176.125C347.088 170.944 357.478 160.275 353.795 153.789C352.785 152.011 351.008 151.063 351.011 148.773C351.015 145.947 353.726 144.324 353.237 143.304L353.234 143.315Z" fill="#FCF6F5"/>
<path d="M300.118 195.788C301.845 195.672 303.573 195.553 305.3 195.438C307.46 219.224 309.62 243.009 311.777 266.795C310.082 267.419 308.391 268.039 306.697 268.663C304.504 244.372 302.308 220.078 300.115 195.788H300.118Z" fill="#A3B0B3"/>
<path d="M267.327 198.007C278.256 197.267 289.185 196.528 300.117 195.786C302.31 220.076 304.506 244.37 306.699 268.66C296.167 272.908 285.638 277.151 275.105 281.399C272.512 253.6 269.923 225.801 267.33 198.003L267.327 198.007Z" fill="#FA4616"/>
<path d="M293.182 202.472C294.074 202.342 294.962 202.213 295.854 202.086C296.633 211.71 297.413 221.336 298.192 230.959C297.301 231.089 296.412 231.219 295.52 231.345C294.741 221.722 293.962 212.095 293.182 202.472Z" fill="#A3B0B3"/>
<path d="M283.686 246.31C283.359 245.149 282.362 243.544 280.925 243.548C279.28 243.548 278.385 245.661 278.273 245.931C278.213 246.075 277.332 248.332 278.62 250.171C279.188 250.982 280.324 251.916 281.496 251.675C283.267 251.307 284.277 248.423 283.686 246.31Z" fill="#A3B0B3"/>
<path d="M274.078 203.994C275.076 214.522 276.076 225.05 277.074 235.579C283.22 234.165 289.37 232.752 295.516 231.338C294.737 221.715 293.957 212.089 293.178 202.465C286.81 202.974 280.443 203.482 274.078 203.991V203.994Z" fill="#E0F450"/>
<path d="M120.475 1.05652C121.776 15.6841 123.074 30.3153 124.376 44.9429C211.363 68.0543 298.351 91.1657 385.338 114.277C384.668 106.724 383.998 99.1699 383.324 91.6128C295.709 61.431 208.094 31.2455 120.475 1.05652Z" fill="#D3E6EB"/>
<path d="M6.79346 108.364C7.67529 118.297 8.55712 128.23 9.44226 138.164C47.7508 107.091 86.0593 76.0153 124.368 44.9429C123.066 30.3153 121.768 15.6841 120.467 1.05652C82.5782 36.8233 44.6858 72.5937 6.79346 108.364Z" fill="#A3B0B3"/>
<path d="M14.9541 200.196C17.375 227.432 19.7926 254.668 22.2135 281.908C65.0435 301.706 107.87 321.504 150.7 341.301C145.505 282.809 140.306 224.32 135.111 165.828C132.694 166.026 128.592 166.019 123.915 164.22C120.272 162.817 117.593 160.834 115.886 159.338C115.06 161.094 109.403 172.668 96.5021 176.205C84.1366 179.594 74.4926 173.032 72.9073 171.91C71.8438 173.966 65.747 185.291 52.6582 189.004C41.0821 192.289 31.7651 187.429 29.4928 186.156C28.4821 188.265 26.7053 191.359 23.7361 194.322C20.4367 197.614 17.091 199.323 14.9574 200.203L14.9541 200.196Z" fill="#A3B0B3"/>
<path d="M22.7197 281.906C22.2342 276.444 21.7487 270.978 21.2632 265.515C20.094 252.344 18.9215 239.173 17.7524 226.003C16.3157 209.825 14.879 193.65 13.4423 177.472C12.1509 162.949 10.8629 148.43 9.57149 133.907C8.85479 125.856 8.1414 117.804 7.4247 109.753C7.38507 109.295 7.31902 108.834 7.3025 108.372C7.31902 108.783 7.00526 108.762 7.3025 108.603C7.49406 108.499 7.68232 108.243 7.84415 108.091L13.7528 102.513C22.1285 94.6065 30.5076 86.696 38.8833 78.7891C49.9937 68.3007 61.1009 57.8158 72.2113 47.3273C82.496 37.6177 92.7841 27.908 103.069 18.1984C108.726 12.8586 114.381 7.5188 120.038 2.17903C120.303 1.93024 120.567 1.68146 120.831 1.42908L119.985 1.04689C120.256 4.08995 120.527 7.13301 120.798 10.1761C121.531 18.4219 122.264 26.6641 122.994 34.9099C124.081 47.1399 125.167 59.3734 126.254 71.6033C127.575 86.4761 128.896 101.345 130.217 116.218C131.664 132.504 133.111 148.79 134.557 165.08C136.024 181.575 137.487 198.071 138.953 214.569C140.314 229.9 141.678 245.227 143.039 260.558C144.195 273.556 145.347 286.55 146.503 299.548C147.329 308.861 148.158 318.17 148.984 327.483L149.756 336.176C149.885 337.644 149.852 339.288 150.159 340.727C150.199 340.907 150.192 341.112 150.209 341.3L150.955 340.831C146.708 338.866 142.461 336.905 138.21 334.94C127.958 330.202 117.707 325.461 107.455 320.723C95.096 315.012 82.7404 309.297 70.3816 303.586C59.6939 298.647 49.0095 293.707 38.3219 288.767C34.7945 287.138 31.2672 285.508 27.7399 283.875C26.0753 283.107 24.4008 282.151 22.6834 281.538C22.6107 281.513 22.5381 281.473 22.4687 281.437C21.8874 281.171 21.3821 282.101 21.97 282.371C26.2173 284.336 30.4646 286.298 34.7153 288.263C44.967 293 55.2187 297.742 65.4704 302.479C77.8293 308.19 90.1848 313.905 102.544 319.616C113.231 324.556 123.916 329.495 134.603 334.435C138.131 336.065 141.658 337.694 145.185 339.328C146.85 340.096 148.524 341.051 150.242 341.664C150.315 341.689 150.387 341.729 150.457 341.765C150.76 341.906 151.243 341.754 151.203 341.296C150.932 338.253 150.661 335.21 150.39 332.167C149.657 323.921 148.924 315.679 148.194 307.433C147.108 295.203 146.021 282.97 144.934 270.74C143.613 255.867 142.292 240.998 140.971 226.125C139.524 209.839 138.078 193.553 136.631 177.263C135.165 160.768 133.702 144.273 132.235 127.774C130.875 112.443 129.511 97.116 128.15 81.7853C126.994 68.7874 125.841 55.7931 124.685 42.7952C123.86 33.4822 123.031 24.1727 122.205 14.8596C121.812 10.4465 121.435 6.02972 121.029 1.61656C121.013 1.42547 120.996 1.23438 120.98 1.04329C120.937 0.567358 120.474 0.340211 120.134 0.661102C116.134 4.43969 112.132 8.21467 108.132 11.9933C98.6134 20.9782 89.0949 29.9632 79.5797 38.9481C68.2744 49.6205 56.9691 60.2928 45.6638 70.9651C36.3006 79.8059 26.934 88.6466 17.5707 97.4837L9.20488 105.383L7.03498 107.431C6.72783 107.723 6.41737 107.918 6.32159 108.358C6.24232 108.729 6.40746 109.339 6.44049 109.71L6.74104 113.099C7.10434 117.188 7.46764 121.28 7.83094 125.369C9.01993 138.756 10.2089 152.143 11.3979 165.531C12.8412 181.777 14.2845 198.027 15.7278 214.274C17.006 228.667 18.2841 243.06 19.5656 257.453C20.2559 265.241 20.9494 273.029 21.6397 280.817C21.6727 281.174 21.7025 281.535 21.7355 281.892C21.7949 282.577 22.7891 282.584 22.7263 281.892L22.7197 281.906Z" fill="black"/>
<path d="M95.0809 68.6915C104.841 60.7737 114.6 52.8596 124.36 44.9419C134.919 78.6643 145.477 112.387 156.036 146.113C155.742 147.267 152.271 160.005 140.312 164.548C127.114 169.56 116.314 159.749 115.872 159.334C108.939 129.12 102.01 98.9057 95.0776 68.6915H95.0809Z" fill="#FCF6F5"/>
<path d="M60.624 96.6501C72.1143 87.3298 83.6012 78.0131 95.0914 68.6929C102.024 98.9071 108.953 129.121 115.885 159.336C115.06 161.092 109.402 172.665 96.5017 176.202C84.1362 179.591 74.4922 173.029 72.9069 171.908C68.8115 146.821 64.7194 121.737 60.624 96.6501Z" fill="#FA4616"/>
<path d="M30.7565 120.885C23.6556 126.647 16.5547 132.405 9.45381 138.166C6.73235 156.673 4.00759 175.177 1.28613 193.684C3.52869 198.231 6.24355 199.673 7.45896 200.174C13.9356 202.846 23.507 197.646 29.5015 186.159C29.9209 164.404 30.3404 142.644 30.7598 120.888L30.7565 120.885Z" fill="#FA4616"/>
<path d="M251.263 78.6575L274.6 152.221C276.364 154.056 289.591 167.386 307.439 164.278C316.109 162.771 322.182 158.026 325.221 155.232C318.695 134.521 312.169 113.815 305.642 93.1048C287.517 88.2878 269.388 83.4744 251.263 78.6575Z" fill="#FA4616"/>
<path d="M124.372 44.9455C147.025 50.9631 169.675 56.9807 192.329 63.0019C201.365 91.9146 210.401 120.827 219.434 149.74C216.109 152.751 206.217 160.895 191.665 161.602C171.505 162.583 158.248 148.529 156.048 146.113C145.489 112.39 134.93 78.6679 124.372 44.9419V44.9455Z" fill="#FA4616"/>
<path d="M120.343 1.57624C122.684 2.38388 125.023 3.18791 127.364 3.99555L146.474 10.5792C155.936 13.8386 165.399 17.098 174.864 20.361C186.321 24.309 197.775 28.2535 209.233 32.2015C221.875 36.557 234.522 40.9125 247.165 45.2715C259.807 49.6306 272.497 54.0005 285.163 58.3632C297.066 62.4627 308.965 66.5657 320.869 70.6652C330.886 74.1157 340.903 77.5662 350.917 81.0167C358.12 83.4973 365.32 85.9779 372.523 88.4621C374.756 89.23 376.992 90.0016 379.225 90.7696C380.361 91.1626 381.58 91.7719 382.755 91.9847C382.901 92.0099 383.049 92.0856 383.191 92.1361L382.828 91.6133C383.267 96.542 383.703 101.471 384.142 106.403C385.189 118.182 386.236 129.962 387.283 141.737C388.555 156.037 389.823 170.336 391.095 184.632C392.188 196.941 393.281 209.254 394.374 221.563L395.458 233.743L395.795 237.543C395.841 238.051 395.745 239.086 395.973 239.541C396.003 239.598 395.989 239.728 395.996 239.8L396.359 239.277C394.17 240.182 391.98 241.087 389.79 241.992C383.829 244.455 377.867 246.914 371.909 249.376C363.094 253.018 354.276 256.66 345.461 260.298C334.704 264.74 323.947 269.182 313.19 273.624C301.405 278.491 289.625 283.355 277.84 288.222C265.947 293.133 254.051 298.047 242.158 302.958C231.067 307.537 219.976 312.12 208.886 316.699C199.513 320.567 190.143 324.44 180.77 328.309C174.032 331.092 167.291 333.875 160.553 336.655C157.366 337.971 154.149 339.226 150.982 340.607C150.847 340.665 150.711 340.719 150.573 340.776C149.981 341.022 150.239 342.067 150.837 341.818C153.027 340.913 155.216 340.008 157.406 339.103C163.367 336.641 169.329 334.182 175.287 331.719C184.102 328.078 192.92 324.436 201.735 320.798C212.492 316.356 223.249 311.914 234.006 307.472C245.791 302.605 257.572 297.741 269.356 292.873C281.249 287.963 293.145 283.048 305.039 278.138C316.129 273.559 327.22 268.976 338.31 264.397L366.427 252.787C373.164 250.004 379.905 247.22 386.643 244.44C389.83 243.124 393.06 241.899 396.214 240.489C396.349 240.428 396.485 240.377 396.624 240.319C396.812 240.24 397.01 240.045 396.987 239.797C396.548 234.868 396.112 229.939 395.672 225.007C394.625 213.227 393.578 201.448 392.531 189.673C391.26 175.373 389.992 161.074 388.72 146.778C387.627 134.469 386.534 122.156 385.44 109.846C385.08 105.787 384.72 101.727 384.357 97.667C384.189 95.7633 384.169 93.7514 383.842 91.8693C383.829 91.7864 383.825 91.6962 383.819 91.6097C383.796 91.3609 383.68 91.1662 383.456 91.0869C381.114 90.2793 378.776 89.4752 376.434 88.6676C370.063 86.4718 363.695 84.2797 357.324 82.0839C347.862 78.8245 338.4 75.5651 328.934 72.3021C317.477 68.3541 306.023 64.4096 294.566 60.4616C281.923 56.1061 269.276 51.7507 256.634 47.3916C243.968 43.0289 231.301 38.6626 218.635 34.2999C206.732 30.2005 194.833 26.0974 182.93 21.9979C172.912 18.5474 162.895 15.0969 152.881 11.6465C145.678 9.16586 138.478 6.68526 131.275 4.20106C127.873 3.02927 124.484 1.70604 121.043 0.674861C120.894 0.631595 120.752 0.573907 120.607 0.52343C119.996 0.314309 119.735 1.3563 120.343 1.56543V1.57624Z" fill="black"/>
<path d="M348.221 104.414C354.073 122.178 359.926 139.943 365.778 157.704C366.845 158.908 374.52 167.283 385.895 166.205C393.455 165.488 398.475 160.992 400.209 159.279C395.248 144.277 390.288 129.274 385.33 114.271C372.962 110.987 360.593 107.699 348.221 104.414Z" fill="#FA4616"/>
<path d="M156.532 145.969C154.477 139.403 152.42 132.838 150.366 126.272C148.311 119.706 146.234 113.076 144.17 106.478C142.105 99.8797 140.058 93.3465 138.003 86.7808C135.949 80.2152 133.872 73.5846 131.807 66.9865C129.743 60.3884 127.696 53.8552 125.641 47.2896C125.38 46.4603 125.123 45.631 124.862 44.8017C124.657 44.1455 123.699 44.4268 123.907 45.0902C125.962 51.6558 128.019 58.2215 130.074 64.7871C132.138 71.3853 134.205 77.9834 136.269 84.5815C138.334 91.1796 140.381 97.7128 142.436 104.278C144.49 110.844 146.567 117.475 148.632 124.073C150.686 130.638 152.744 137.204 154.798 143.77C155.059 144.599 155.316 145.428 155.577 146.257C155.782 146.914 156.74 146.632 156.532 145.969Z" fill="black"/>
<path d="M219.907 149.593C216.373 138.29 212.843 126.987 209.309 115.68C205.795 104.434 202.28 93.185 198.763 81.9394C196.775 75.5757 194.787 69.2155 192.798 62.8518C192.594 62.1956 191.636 62.4768 191.844 63.1402C195.378 74.4435 198.908 85.7469 202.442 97.0538C205.956 108.299 209.471 119.549 212.988 130.794C214.976 137.158 216.964 143.518 218.953 149.882C219.157 150.538 220.115 150.257 219.907 149.593Z" fill="black"/>
<path d="M275.091 152.078C272.05 142.484 269.005 132.893 265.963 123.299C262.937 113.762 259.912 104.226 256.887 94.6927C255.176 89.2989 253.465 83.9086 251.754 78.5147C251.546 77.8621 250.588 78.1434 250.8 78.8032C253.842 88.3975 256.887 97.9882 259.929 107.582C262.954 117.119 265.979 126.656 269.005 136.189C270.715 141.583 272.426 146.973 274.137 152.367C274.345 153.019 275.303 152.738 275.091 152.078Z" fill="black"/>
<path d="M325.688 155.084C323.142 147.001 320.592 138.913 318.046 130.83C315.499 122.746 312.949 114.659 310.403 106.575C308.973 102.036 307.543 97.4968 306.113 92.9574C305.908 92.3048 304.95 92.5824 305.158 93.2459C307.705 101.329 310.254 109.417 312.801 117.5C315.347 125.584 317.897 133.671 320.443 141.755C321.873 146.294 323.304 150.833 324.734 155.373C324.938 156.025 325.896 155.748 325.688 155.084Z" fill="black"/>
<path d="M366.271 157.567C363.986 150.63 361.7 143.693 359.415 136.76C357.129 129.823 354.844 122.886 352.558 115.952C351.277 112.062 349.996 108.172 348.714 104.278C348.499 103.629 347.542 103.906 347.76 104.566C350.045 111.503 352.331 118.44 354.616 125.373C356.902 132.311 359.187 139.248 361.473 146.181C362.754 150.071 364.035 153.962 365.317 157.856C365.532 158.505 366.489 158.227 366.271 157.567Z" fill="black"/>
<path d="M116.362 159.188C115.012 153.304 113.664 147.42 112.313 141.535C110.962 135.651 109.598 129.706 108.244 123.793C106.893 117.908 105.546 112.024 104.195 106.14C102.844 100.256 101.497 94.3715 100.146 88.4873C98.7951 82.6031 97.431 76.6576 96.0769 70.7445C95.9085 70.0126 95.74 69.2807 95.5716 68.5488C95.4164 67.8745 94.4619 68.1594 94.6171 68.8372C95.9679 74.7214 97.3154 80.6056 98.6663 86.4899C100.017 92.3741 101.381 98.3196 102.735 104.233C104.086 110.117 105.434 116.001 106.784 121.885C108.135 127.769 109.483 133.654 110.834 139.538C112.184 145.422 113.548 151.368 114.903 157.281C115.071 158.013 115.239 158.744 115.408 159.476C115.563 160.151 116.518 159.866 116.362 159.188Z" fill="black"/>
<path d="M73.3802 171.764C71.7817 161.964 70.1832 152.168 68.5813 142.368C66.9828 132.568 65.3843 122.772 63.7825 112.972C62.8874 107.485 61.9891 101.994 61.094 96.506C60.9817 95.821 60.0272 96.113 60.1395 96.7945C61.7381 106.594 63.3366 116.39 64.9384 126.19C66.5402 135.99 68.1355 145.786 69.7373 155.586C70.6323 161.074 71.5307 166.565 72.4257 172.053C72.538 172.738 73.4925 172.446 73.3802 171.764Z" fill="black"/>
<path d="M29.9797 186.152C30.1449 177.639 30.3067 169.13 30.4718 160.618C30.6337 152.166 30.7988 143.715 30.9606 135.264C31.0531 130.468 31.1456 125.673 31.2381 120.878C31.2513 120.182 30.2605 120.182 30.2472 120.878C30.0821 129.39 29.9203 137.899 29.7551 146.412C29.5933 154.863 29.4282 163.315 29.2663 171.766C29.1739 176.561 29.0814 181.357 28.9889 186.152C28.9757 186.848 29.9665 186.848 29.9797 186.152Z" fill="black"/>
<path d="M9.69311 138.633C36.6171 116.794 63.5377 94.9553 90.4617 73.1203C97.1662 67.6831 103.871 62.246 110.575 56.8053C113.98 54.0434 117.386 51.2816 120.791 48.5198C122.558 47.0884 123.872 45.3686 126.174 45.9815C128.476 46.5944 130.564 47.1461 132.757 47.7302C149.019 52.0496 165.279 56.3726 181.541 60.692C214.196 69.3669 246.846 78.0418 279.501 86.7167C312.155 95.3916 344.806 104.066 377.46 112.741C379.395 113.257 381.331 113.769 383.266 114.284C384.515 114.616 384.881 114.843 385.396 116.058C385.948 117.356 386.305 118.806 386.751 120.151C388.148 124.38 389.545 128.606 390.945 132.835C392.345 137.064 393.739 141.29 395.14 145.519C395.86 147.7 396.583 149.885 397.303 152.067C397.62 153.022 397.934 153.978 398.251 154.93C398.611 156.015 399.377 157.468 399.469 158.611C399.529 159.335 399.684 159.101 399.093 159.635C398.683 160.006 398.261 160.363 397.831 160.706C396.86 161.474 395.836 162.169 394.773 162.782C391.642 164.589 388.151 165.631 384.607 165.753C378.946 165.944 373.444 163.723 368.955 160.024C367.958 159.202 367.007 158.304 366.135 157.327C365.937 157.104 365.639 157.143 365.435 157.327C358.836 163.316 349.988 166.092 341.513 164.271C335.538 162.988 329.844 159.591 325.574 154.847C325.372 154.623 325.079 154.659 324.874 154.847C316.481 162.476 305.269 165.934 294.505 163.431C287.219 161.737 280.25 157.565 274.953 151.836C274.751 151.62 274.457 151.645 274.253 151.836C265.339 160.121 253.343 164.08 241.744 161.791C233.576 160.179 225.729 155.694 219.787 149.359C219.582 149.139 219.295 149.172 219.087 149.359C211.752 155.972 202.57 160.194 193.061 160.972C182.41 161.845 171.904 158.373 163.138 151.807C160.734 150.008 158.459 147.985 156.398 145.732C156.133 145.443 155.671 145.58 155.569 145.97C153.518 153.902 147.81 160.897 140.756 163.806C132.7 167.123 122.809 165.061 116.236 158.953C116.008 158.741 115.615 158.73 115.457 159.061C112.154 166.063 106.325 171.796 99.5838 174.58C90.9472 178.145 80.9134 176.887 73.1553 171.439C72.9307 171.281 72.607 171.389 72.4782 171.634C69.2151 177.738 64.2049 182.887 58.4251 186.049C49.4317 190.967 38.6582 190.599 29.7408 185.685C29.503 185.555 29.2057 185.613 29.0637 185.879C25.1499 193.227 16.107 203.655 7.2689 199.508C5.33019 198.6 3.79111 196.912 2.60873 195.037C1.51222 193.3 2.09681 191.493 2.38084 189.55C2.66488 187.606 2.9258 185.847 3.19662 183.997C4.24359 176.88 5.29056 169.763 6.33753 162.645C7.52982 154.533 8.72541 146.417 9.9177 138.304C10.0168 137.623 9.06229 137.331 8.96321 138.016C6.53239 154.529 4.10487 171.043 1.67406 187.552C1.52874 188.547 1.38011 189.546 1.23479 190.541C1.10268 191.432 0.670023 192.658 0.795527 193.53C0.947453 194.59 1.74341 195.632 2.34451 196.48C3.52029 198.138 4.99661 199.577 6.76358 200.438C10.0861 202.054 13.9008 201.426 17.1408 199.883C22.6927 197.237 26.9202 192.041 29.9158 186.42L29.2387 186.615C38.1528 191.526 48.7943 192.063 57.9263 187.498C64.2874 184.318 69.8063 178.773 73.3303 172.175L72.6533 172.369C80.6162 177.965 90.9769 179.274 99.8447 175.618C106.823 172.741 112.887 166.86 116.309 159.602L115.529 159.71C120.127 163.983 126.58 166.482 132.578 166.503C141.288 166.536 149.135 161.236 153.627 153.228C154.839 151.064 155.886 148.699 156.52 146.251L155.691 146.489C169.46 161.542 190.677 166.46 208.597 157.709C212.62 155.744 216.382 153.177 219.781 150.113H219.08C231.082 162.912 249.333 167.221 264.794 159.635C268.466 157.832 271.878 155.442 274.943 152.593H274.243C279.923 158.737 287.493 163.165 295.367 164.708C306.174 166.824 317.192 163.215 325.567 155.604H324.867C329.521 160.774 335.829 164.416 342.391 165.526C350.903 166.965 359.549 164.055 366.128 158.081H365.428C369.401 162.541 374.857 165.678 380.499 166.565C387.784 167.711 395.123 164.982 400.563 159.66C400.685 159.541 400.748 159.303 400.691 159.134C398.122 151.36 395.552 143.587 392.98 135.809C391.718 131.991 390.453 128.173 389.191 124.351C388.607 122.577 388.019 120.803 387.434 119.033C387.117 118.078 386.803 117.122 386.486 116.17C386.292 115.582 386.143 114.411 385.72 113.942C385.063 113.206 382.857 113.055 381.978 112.821C380.172 112.341 378.365 111.862 376.558 111.382C372.816 110.387 369.074 109.392 365.329 108.4C358.103 106.479 350.873 104.56 343.647 102.639C314.48 94.8904 285.31 87.1385 256.144 79.3903C226.977 71.642 197.807 63.8901 168.641 56.1419C161.414 54.2201 154.185 52.302 146.958 50.3802C143.216 49.3851 139.474 48.39 135.729 47.3985C134.051 46.9514 132.373 46.5079 130.696 46.0608C128.902 45.5849 126.726 44.597 124.889 44.5177C123.743 44.4708 123.165 45.2424 122.204 46.0248C120.609 47.3191 119.011 48.6135 117.415 49.9079C114.331 52.4101 111.243 54.916 108.158 57.4182C102.2 62.2532 96.2382 67.0846 90.28 71.9196C66.2294 91.4255 42.1822 110.935 18.1316 130.441C15.1525 132.857 12.1735 135.276 9.1944 137.692C8.68908 138.103 9.18119 139.04 9.69311 138.625V138.633Z" fill="black"/>
<g style="mix-blend-mode:multiply">
<path d="M142.72 103.571C135.041 106.474 120.155 113.367 106.756 129.088C90.9261 147.663 86.1834 167.98 84.6245 176.742C82.7617 176.41 80.4597 175.815 77.9364 174.712C75.9383 173.836 74.2572 172.841 72.8965 171.91C71.473 174.676 66.6378 183.239 56.6602 187.62C43.3072 193.482 31.3645 187.194 29.4819 186.156C23.4908 197.643 13.9161 202.842 7.43943 200.17C6.22402 199.669 3.50916 198.227 1.2666 193.68C3.98806 175.173 6.71282 156.67 9.43428 138.163C47.7428 107.09 86.0513 76.0143 124.36 44.9419L142.716 103.568L142.72 103.571Z" fill="#A3B0B3"/>
</g>
<path d="M15.9515 210.533C17.4212 207.443 19.9445 203.156 24.139 199.273C32.9673 191.099 43.0802 190.385 46.5944 190.313C43.7342 190.331 39.9955 190.018 35.801 188.738C33.3669 187.995 31.2564 187.072 29.4895 186.152C28.4788 188.262 26.702 191.355 23.7328 194.319C20.4334 197.611 17.0877 199.32 14.9541 200.2C15.2844 203.643 15.618 207.09 15.9482 210.533H15.9515Z" fill="black"/>
<path d="M137.448 191.47C137.795 186.444 138.905 178.829 142.564 170.522C144.972 165.056 147.799 160.841 150.2 157.798C148.701 159.428 146.22 161.735 142.66 163.506C139.707 164.973 137.029 165.572 135.11 165.828C135.889 174.376 136.665 182.925 137.445 191.474L137.448 191.47Z" fill="black"/>
<path d="M384.232 101.879C383.852 103.084 382.835 105.773 380.335 107.911C376.546 111.153 372.233 110.673 371.328 110.551L385.335 114.272" fill="black"/>
<path d="M111.655 55.248C113.726 53.3263 116.814 49.966 119.245 44.8822C122.307 38.4824 122.799 32.5549 122.852 29.3712C123.357 34.5632 123.859 39.7515 124.364 44.9435C120.13 48.3795 115.893 51.8156 111.659 55.2516L111.655 55.248Z" fill="black"/>
<g style="mix-blend-mode:multiply">
<path d="M89.002 312.794C93.9065 313.861 107.038 315.93 119.853 308.171C136.317 298.202 145.499 276.104 142.817 252.423C145.446 282.049 148.075 311.676 150.704 341.303C130.138 331.798 109.571 322.298 89.0053 312.794H89.002Z" fill="#A3B0B3"/>
</g>
<g style="mix-blend-mode:multiply">
<path d="M219.427 149.74C238.46 152.808 265.89 154.831 298.095 148.976C337.381 141.833 367.125 125.994 385.327 114.276C390.287 129.279 395.248 144.281 400.206 159.284C399.145 160.391 392.081 167.537 381.558 166.513C372.393 165.622 366.934 159.15 365.775 157.704C363.905 159.424 356.927 165.413 346.586 165.37C334.299 165.316 326.581 156.789 325.214 155.224C322.618 157.564 314.49 164.274 302.53 164.66C286.647 165.175 276.343 154.146 274.592 152.21C272.508 154.099 259.852 165.2 242.374 162.446C229.979 160.492 222.105 152.66 219.427 149.733V149.74Z" fill="#A3B0B3"/>
</g>
<path d="M312.278 266.795C311.432 257.497 310.59 248.195 309.744 238.896C308.902 229.608 308.057 220.32 307.215 211.029C306.742 205.83 306.27 200.634 305.798 195.435C305.771 195.157 305.59 194.876 305.302 194.894C295.44 195.561 285.575 196.228 275.713 196.899C272.919 197.086 270.125 197.277 267.331 197.465C267.083 197.483 266.809 197.699 266.835 198.006C267.905 209.857 268.979 221.708 270.049 233.56C271.119 245.411 272.192 257.262 273.262 269.114C273.864 275.752 274.461 282.393 275.062 289.031C275.125 289.716 276.116 289.723 276.053 289.031C274.983 277.179 273.91 265.328 272.84 253.477C271.77 241.625 270.696 229.774 269.626 217.923C269.025 211.285 268.427 204.643 267.826 198.006L267.331 198.547C277.193 197.88 287.058 197.212 296.92 196.542C299.714 196.354 302.508 196.163 305.302 195.976L304.807 195.435C305.649 204.716 306.491 214 307.333 223.28C308.179 232.575 309.021 241.874 309.867 251.169C310.339 256.375 310.811 261.585 311.284 266.792C311.346 267.477 312.337 267.484 312.274 266.792L312.278 266.795Z" fill="black"/>
<path d="M193.484 392.708C257.605 392.708 309.585 387.512 309.585 381.102C309.585 374.692 257.605 369.496 193.484 369.496C129.363 369.496 77.3828 374.692 77.3828 381.102C77.3828 387.512 129.363 392.708 193.484 392.708Z" fill="black"/>
<path d="M275.228 281.925C280.912 279.668 286.596 277.411 292.28 275.158C297.964 272.904 303.648 270.643 309.332 268.39C312.536 267.117 315.74 265.848 318.943 264.575L318.316 264.053C318.537 266.515 318.758 268.981 318.98 271.444C319.042 272.129 320.033 272.136 319.97 271.444C319.749 268.981 319.528 266.515 319.307 264.053C319.277 263.732 319.009 263.4 318.679 263.53C312.995 265.787 307.311 268.044 301.627 270.297C295.943 272.554 290.259 274.811 284.575 277.065C281.371 278.338 278.168 279.607 274.964 280.879C274.369 281.114 274.627 282.159 275.228 281.921V281.925Z" fill="black"/>
<path d="M282.297 278.759C282.518 281.222 282.739 283.688 282.961 286.15C283.023 286.835 284.014 286.843 283.951 286.15C283.73 283.688 283.509 281.222 283.288 278.759C283.225 278.074 282.234 278.067 282.297 278.759Z" fill="black"/>
<path d="M307.198 268.663C306.332 259.174 305.467 249.68 304.608 240.191C303.75 230.705 302.894 221.215 302.042 211.729C301.566 206.414 301.091 201.103 300.615 195.789C300.553 195.104 299.562 195.096 299.624 195.789C300.467 205.232 301.315 214.671 302.164 224.114C303.013 233.557 303.882 243.129 304.744 252.637C305.229 257.98 305.715 263.324 306.203 268.663C306.266 269.349 307.257 269.356 307.194 268.663H307.198Z" fill="black"/>
<path d="M305.779 195.29C304.541 191.194 302.364 187.513 299.213 184.874C296.449 182.559 293.107 181.178 289.672 180.67C286.237 180.161 282.938 180.435 279.714 181.438C277.092 182.252 274.549 183.569 272.498 185.555C269.75 188.212 267.88 191.904 267.141 195.813C267.005 196.538 266.906 197.27 266.837 198.005C266.771 198.697 267.761 198.69 267.827 198.005C268.23 193.808 269.895 189.806 272.673 186.853C274.443 184.971 276.659 183.666 278.991 182.815C281.976 181.722 285.164 181.315 288.301 181.589C291.439 181.863 294.794 182.956 297.552 184.91C300.617 187.084 302.932 190.314 304.3 193.999C304.491 194.518 304.666 195.048 304.828 195.579C305.026 196.235 305.984 195.953 305.783 195.29H305.779Z" fill="black"/>
<path d="M275.765 184.336C279.507 182.642 283.821 182.353 287.714 183.575C292.124 184.96 295.819 188.23 298.148 192.517C298.765 193.656 299.254 194.753 299.631 195.935C299.839 196.588 300.797 196.307 300.585 195.647C299.608 192.578 297.907 189.741 295.78 187.48C291.82 183.273 286.251 181.221 280.762 181.874C278.962 182.086 277.175 182.537 275.504 183.294C274.923 183.557 275.177 184.603 275.768 184.336H275.765Z" fill="black"/>
<path d="M273.575 203.999C273.674 205.041 273.773 206.082 273.873 207.124L274.589 214.678C274.877 217.714 275.164 220.746 275.451 223.782L276.201 231.693C276.323 232.969 276.432 234.249 276.564 235.525C276.564 235.543 276.568 235.561 276.571 235.583C276.604 235.947 276.858 236.178 277.198 236.106C279.576 235.583 281.958 235.064 284.336 234.541C288.127 233.712 291.919 232.879 295.707 232.049C296.576 231.858 297.441 231.671 298.31 231.48C298.504 231.437 298.693 231.181 298.673 230.957C298.352 227.002 298.032 223.046 297.712 219.095C297.444 215.789 297.177 212.482 296.909 209.172C296.718 206.811 296.526 204.446 296.334 202.084C296.311 201.81 296.126 201.518 295.839 201.543C293.385 201.759 290.928 201.976 288.474 202.192C284.564 202.535 280.656 202.881 276.746 203.223C275.854 203.303 274.959 203.382 274.067 203.458C273.437 203.512 273.43 204.597 274.067 204.539C276.521 204.323 278.979 204.107 281.433 203.89C285.343 203.548 289.25 203.202 293.161 202.859C294.052 202.78 294.947 202.701 295.839 202.625L295.344 202.084C295.601 205.271 295.859 208.455 296.117 211.642C296.51 216.513 296.906 221.384 297.299 226.255C297.424 227.824 297.553 229.389 297.679 230.957L298.042 230.434C295.664 230.957 293.283 231.476 290.905 231.999C287.113 232.828 283.322 233.661 279.533 234.49C278.665 234.681 277.8 234.869 276.931 235.06L277.558 235.583C277.459 234.541 277.36 233.499 277.261 232.457C277.023 229.94 276.782 227.42 276.544 224.903C276.257 221.867 275.97 218.835 275.682 215.799L274.933 207.889C274.811 206.613 274.702 205.333 274.569 204.056C274.569 204.038 274.566 204.02 274.563 203.999C274.497 203.313 273.506 203.306 273.572 203.999H273.575Z" fill="black"/>
<path d="M296.02 231.344C295.7 227.389 295.38 223.434 295.059 219.482C294.792 216.176 294.524 212.87 294.257 209.56C294.065 207.198 293.874 204.833 293.682 202.471C293.626 201.783 292.635 201.775 292.691 202.471C292.949 205.659 293.206 208.842 293.464 212.03L294.646 226.643C294.772 228.211 294.901 229.776 295.026 231.344C295.082 232.033 296.073 232.04 296.017 231.344H296.02Z" fill="black"/>
<path d="M283.347 247.651C283.334 248.942 282.852 250.435 281.709 251.023C280.679 251.549 279.612 250.907 279.057 249.927C278.38 248.73 278.301 247.1 278.839 245.82C279.282 244.767 280.24 243.833 281.366 244.151C282.736 244.536 283.331 246.256 283.347 247.651C283.354 248.347 284.345 248.347 284.338 247.651C284.318 245.95 283.625 244.057 282.125 243.307C280.626 242.557 279.133 243.31 278.281 244.695C277.33 246.238 277.27 248.365 277.984 250.031C278.621 251.52 280.045 252.609 281.587 252.209C283.42 251.733 284.318 249.537 284.338 247.651C284.345 246.956 283.354 246.956 283.347 247.651Z" fill="black"/>
<path d="M152.367 153.676C153.965 171.422 155.564 189.168 157.162 206.915C158.754 224.571 160.343 242.227 161.935 259.883C162.826 269.791 163.722 279.703 164.613 289.611C164.643 289.946 164.907 290.242 165.241 290.134C167.632 289.348 170.02 288.562 172.411 287.776C178.128 285.894 183.848 284.015 189.565 282.133C196.481 279.858 203.394 277.583 210.31 275.311C216.301 273.339 222.292 271.371 228.287 269.398C231.18 268.447 234.106 267.574 236.976 266.539C237.019 266.525 237.059 266.51 237.102 266.5C237.293 266.435 237.488 266.215 237.465 265.977C236.18 251.71 234.896 237.443 233.608 223.176C232.323 208.909 231.038 194.642 229.75 180.374C229.027 172.363 228.307 164.352 227.583 156.34C227.521 155.655 226.53 155.648 226.593 156.34C227.877 170.607 229.162 184.874 230.45 199.141C231.735 213.408 233.02 227.675 234.308 241.942C235.031 249.954 235.751 257.965 236.474 265.977L236.838 265.454C234.446 266.24 232.059 267.026 229.667 267.812C223.95 269.694 218.23 271.573 212.513 273.455C205.597 275.73 198.684 278.005 191.768 280.276C185.777 282.248 179.786 284.217 173.792 286.189C171.83 286.835 169.868 287.48 167.906 288.125L166.07 288.728C165.763 288.829 165.396 288.893 165.105 289.045C165.069 289.063 165.02 289.074 164.98 289.085L165.607 289.607C164.009 271.861 162.41 254.115 160.812 236.368C159.22 218.712 157.631 201.056 156.039 183.4C155.148 173.492 154.253 163.58 153.361 153.672C153.298 152.987 152.307 152.98 152.37 153.672L152.367 153.676Z" fill="black"/>
<path d="M326.395 156.941C327.3 166.968 328.202 176.998 329.107 187.025C330.012 197.052 330.914 207.083 331.819 217.11C332.324 222.72 332.829 228.33 333.334 233.944C333.364 234.276 333.628 234.582 333.962 234.467C335.438 233.948 336.911 233.432 338.388 232.913C341.945 231.665 345.502 230.414 349.056 229.167C353.346 227.66 357.633 226.156 361.923 224.649C365.632 223.347 369.338 222.046 373.047 220.744C374.847 220.113 376.666 219.525 378.453 218.844C378.48 218.833 378.503 218.826 378.529 218.819C378.721 218.75 378.916 218.538 378.893 218.296C378.252 211.186 377.611 204.072 376.97 196.962C376.33 189.852 375.695 182.8 375.055 175.718C374.691 171.702 374.331 167.685 373.968 163.669C373.905 162.984 372.915 162.976 372.977 163.669C373.618 170.779 374.259 177.892 374.9 185.003C375.537 192.084 376.174 199.165 376.815 206.246C377.178 210.263 377.538 214.279 377.902 218.296L378.265 217.773C376.789 218.292 375.316 218.808 373.839 219.327C370.282 220.575 366.725 221.826 363.171 223.073C358.881 224.58 354.594 226.084 350.304 227.591C346.595 228.893 342.889 230.194 339.18 231.496C337.958 231.925 336.736 232.354 335.514 232.783C334.95 232.981 334.312 233.118 333.774 233.396C333.751 233.407 333.721 233.414 333.698 233.421L334.325 233.944C333.42 223.917 332.519 213.886 331.614 203.859C330.709 193.833 329.807 183.802 328.902 173.775C328.397 168.165 327.892 162.555 327.386 156.941C327.324 156.256 326.333 156.249 326.395 156.941Z" fill="black"/>
<path d="M374.019 219.371C373.326 211.674 372.632 203.976 371.938 196.278C371.248 188.62 370.558 180.958 369.868 173.3C369.478 168.988 369.091 164.672 368.702 160.36C368.639 159.675 367.648 159.667 367.711 160.36C368.401 168.036 369.095 175.712 369.785 183.392C370.475 191.061 371.166 198.726 371.859 206.395C372.249 210.722 372.639 215.048 373.028 219.375C373.091 220.06 374.082 220.067 374.019 219.375V219.371Z" fill="black"/>
<path d="M214.799 153.08C214.891 154.122 214.987 155.164 215.08 156.209C215.334 159.032 215.588 161.859 215.839 164.682C216.216 168.872 216.592 173.065 216.969 177.255C217.428 182.349 217.884 187.448 218.343 192.542C218.845 198.123 219.343 203.705 219.845 209.283C220.347 214.86 220.859 220.586 221.368 226.239C221.84 231.493 222.312 236.742 222.781 241.995C223.181 246.448 223.581 250.901 223.98 255.354L224.839 264.927C224.975 266.437 225.103 267.952 225.245 269.466C225.252 269.531 225.259 269.596 225.262 269.661C225.325 270.346 226.315 270.353 226.253 269.661C226.16 268.619 226.064 267.577 225.972 266.531L225.212 258.058C224.836 253.868 224.459 249.675 224.083 245.486C223.624 240.391 223.168 235.293 222.709 230.198C222.207 224.617 221.708 219.036 221.206 213.458C220.704 207.88 220.192 202.154 219.684 196.501C219.211 191.248 218.739 185.998 218.27 180.745C217.87 176.292 217.471 171.839 217.071 167.386L216.212 157.814C216.077 156.303 215.948 154.789 215.806 153.274C215.799 153.21 215.793 153.145 215.79 153.08C215.727 152.395 214.736 152.387 214.799 153.08Z" fill="black"/>
<path d="M306.691 268.668C303.524 269.958 300.357 271.249 297.189 272.54C298.302 271.386 299.452 269.987 300.519 268.3C304.796 261.532 305.139 254.264 305.043 250.575C305.592 256.607 306.14 262.636 306.691 268.668Z" fill="black"/>
<path d="M301.172 203.601C301.082 203.165 300.561 200.461 302.159 198.081C303.16 196.588 304.484 195.986 305.052 195.77C303.408 195.773 301.76 195.781 300.115 195.784C300.468 198.387 300.818 200.994 301.172 203.597V203.601Z" fill="black"/>
<path d="M225.226 263.648C226.828 264.495 227.99 264.466 228.76 264.268C232.575 263.301 235.257 256.177 234.897 246.446C235.583 252.954 236.27 259.462 236.957 265.97C233.225 267.195 229.493 268.425 225.764 269.651C225.586 267.65 225.404 265.645 225.226 263.644V263.648Z" fill="black"/>
<path d="M373.215 215.892C373.902 216.015 374.401 215.899 374.751 215.748C376.528 214.98 377.499 211.926 377.063 208.158C377.512 211.533 377.961 214.912 378.411 218.286C376.862 218.813 375.309 219.343 373.76 219.869C373.579 218.542 373.397 217.216 373.215 215.892Z" fill="black"/>
<path d="M203.849 189.161H168.431V204.74H203.849V189.161Z" fill="#A3B0B3"/>
<path d="M203.855 204.201H169.886C169.44 204.201 168.942 204.132 168.496 204.201C168.476 204.201 168.456 204.201 168.436 204.201L168.932 204.741V189.162L168.436 189.703H171.973C174.791 189.703 177.608 189.703 180.422 189.703C183.827 189.703 187.232 189.703 190.637 189.703H202.402C202.847 189.703 203.346 189.771 203.792 189.703C203.812 189.703 203.832 189.703 203.852 189.703L203.356 189.162C203.356 190.918 203.356 192.674 203.356 194.43C203.356 197.217 203.356 200.004 203.356 202.791V204.741C203.356 205.437 204.347 205.437 204.347 204.741C204.347 202.986 204.347 201.23 204.347 199.474C204.347 196.687 204.347 193.9 204.347 191.113V189.162C204.347 188.87 204.119 188.621 203.852 188.621H191.866C188.461 188.621 185.056 188.621 181.65 188.621H172.783C171.356 188.621 169.916 188.556 168.492 188.621C168.473 188.621 168.453 188.621 168.433 188.621C168.165 188.621 167.938 188.87 167.938 189.162V204.741C167.938 205.033 168.165 205.282 168.433 205.282H199.502C200.929 205.282 202.369 205.347 203.792 205.282C203.812 205.282 203.832 205.282 203.852 205.282C204.489 205.282 204.489 204.201 203.852 204.201H203.855Z" fill="black"/>
<path d="M208.274 218.434L180.819 233.923L186.536 245.998L213.99 230.509L208.274 218.434Z" fill="#FA4616"/>
<path d="M213.737 230.051C212.829 230.563 211.924 231.075 211.016 231.587C208.826 232.823 206.633 234.06 204.444 235.293C201.805 236.782 199.166 238.271 196.527 239.76C194.245 241.047 191.959 242.335 189.677 243.625L187.408 244.905C187.061 245.1 186.648 245.266 186.331 245.515C186.318 245.525 186.298 245.533 186.285 245.54L186.962 245.735C185.294 242.208 183.626 238.686 181.955 235.16C181.717 234.658 181.483 234.161 181.245 233.66L181.067 234.399C181.975 233.887 182.88 233.375 183.788 232.863C185.978 231.626 188.171 230.389 190.361 229.156L198.277 224.689C200.56 223.402 202.845 222.115 205.127 220.824L207.396 219.544C207.743 219.349 208.156 219.184 208.473 218.935C208.486 218.924 208.506 218.917 208.519 218.909L207.842 218.715C209.51 222.241 211.178 225.764 212.849 229.29C213.087 229.791 213.321 230.289 213.559 230.79C213.853 231.41 214.708 230.862 214.415 230.245C212.747 226.719 211.079 223.196 209.408 219.67C209.17 219.169 208.935 218.672 208.698 218.17C208.569 217.9 208.248 217.849 208.02 217.976C207.112 218.488 206.207 219 205.299 219.512C203.109 220.748 200.916 221.985 198.727 223.218C196.088 224.707 193.449 226.196 190.81 227.685L183.96 231.55C182.85 232.174 181.684 232.74 180.611 233.44C180.594 233.451 180.581 233.458 180.565 233.465C180.317 233.606 180.271 233.955 180.386 234.204C182.054 237.73 183.722 241.253 185.393 244.779C185.631 245.28 185.866 245.778 186.103 246.279C186.232 246.549 186.553 246.6 186.781 246.474C187.689 245.962 188.594 245.45 189.502 244.938C191.692 243.701 193.885 242.464 196.074 241.231C198.713 239.742 201.352 238.253 203.991 236.764C206.273 235.477 208.559 234.19 210.841 232.899C211.951 232.275 213.117 231.709 214.19 231.01C214.206 230.999 214.22 230.992 214.236 230.984C214.804 230.663 214.302 229.73 213.737 230.051Z" fill="black"/>
<path d="M342.653 177.379L339.713 187.455L362.622 195.423L365.563 185.346L342.653 177.379Z" fill="#FA4616"/>
<path d="M362.762 194.911C360.169 194.01 357.577 193.108 354.984 192.207C350.885 190.779 346.783 189.355 342.685 187.927C341.74 187.599 340.799 187.271 339.854 186.943L340.201 187.61C341.06 184.671 341.915 181.736 342.774 178.798C342.896 178.376 343.022 177.954 343.144 177.532L342.533 177.911C345.125 178.812 347.718 179.714 350.311 180.615C354.409 182.043 358.511 183.467 362.61 184.895C363.555 185.223 364.496 185.551 365.441 185.879L365.094 185.212C364.235 188.151 363.38 191.085 362.521 194.024C362.399 194.446 362.273 194.868 362.151 195.29C361.956 195.953 362.914 196.238 363.106 195.578C363.964 192.639 364.82 189.705 365.678 186.766C365.801 186.344 365.926 185.922 366.048 185.501C366.131 185.216 365.949 184.92 365.701 184.833C363.109 183.932 360.516 183.031 357.924 182.129C353.825 180.702 349.723 179.277 345.624 177.85C344.68 177.522 343.738 177.193 342.794 176.865C342.533 176.775 342.262 176.973 342.183 177.244C341.324 180.182 340.469 183.117 339.61 186.056C339.488 186.478 339.362 186.899 339.24 187.321C339.157 187.606 339.339 187.902 339.587 187.988C342.179 188.89 344.772 189.791 347.365 190.692C351.463 192.12 355.565 193.544 359.664 194.972C360.609 195.3 361.55 195.628 362.494 195.957C363.102 196.169 363.363 195.124 362.759 194.915L362.762 194.911Z" fill="black"/>
<path d="M168.678 189.629C170.683 188.489 172.684 187.346 174.689 186.207C177.856 184.404 181.02 182.602 184.188 180.799C184.921 180.381 185.654 179.962 186.391 179.544H185.892C187.897 180.683 189.898 181.826 191.903 182.966C195.07 184.768 198.234 186.571 201.402 188.374C202.135 188.792 202.868 189.21 203.604 189.629C204.169 189.95 204.671 189.016 204.103 188.695C202.075 187.541 200.051 186.387 198.023 185.234L188.494 179.807C187.807 179.414 187.124 178.956 186.414 178.621C186.103 178.477 185.912 178.599 185.654 178.747L184.584 179.357C181.549 181.087 178.51 182.814 175.475 184.545C173.087 185.904 170.656 187.195 168.305 188.626C168.265 188.652 168.225 188.673 168.186 188.695C167.621 189.016 168.12 189.95 168.685 189.629H168.678Z" fill="black"/>
<g style="mix-blend-mode:multiply">
<path d="M270.488 232.961C271.508 229.215 274.828 218.805 284.369 210.646C293.112 203.172 302.197 201.755 305.84 201.402C305.659 199.415 305.48 197.425 305.299 195.438C292.643 196.296 279.983 197.151 267.327 198.009C268.381 209.658 269.434 221.311 270.485 232.961H270.488Z" fill="#A3B0B3"/>
</g>
</svg>
