<svg width="356" height="402" viewBox="0 0 356 402" fill="none" xmlns="http://www.w3.org/2000/svg">
<g clip-path="url(#clip0_432_2708)">
<path d="M148.007 323.83C147.4 320.105 147.049 316.317 147.017 312.498C146.955 305.821 147.675 299.276 150.162 293.013C151.033 290.809 152.142 288.736 153.595 286.858C155.35 284.596 157.448 282.781 160.211 281.858C160.769 281.669 161.138 281.336 161.439 280.84C163.293 277.794 165.994 275.846 169.32 274.684C192.011 266.745 214.702 258.799 237.393 250.853C252.348 245.614 267.302 240.376 282.256 235.143C283.114 234.842 283.884 234.427 284.617 233.874C289.805 229.992 295.625 228.234 302.09 228.855C306.651 229.295 310.823 230.935 314.726 233.29C320.602 236.839 325.383 241.588 329.58 246.971C336.045 255.262 340.813 264.509 344.603 274.282C348.794 285.074 351.638 296.223 353.392 307.668C354.539 315.174 355.197 322.718 355.291 330.3C355.454 343.365 354.182 356.254 350.354 368.811C348.312 375.513 345.561 381.895 341.564 387.68C339.647 390.457 337.48 393.019 334.911 395.218C326.216 402.642 316.649 403.911 306.25 399.269C304.696 398.572 303.199 397.755 301.789 396.801C300.944 396.229 300.048 395.846 299.064 395.601C282.243 391.348 265.428 387.09 248.614 382.831C230.734 378.302 212.854 373.761 194.968 369.225C189.399 367.812 183.823 366.411 178.247 365.004C175.635 364.345 173.518 362.875 171.694 360.947C171.087 360.306 170.41 359.898 169.583 359.621C167.127 358.792 165.016 357.36 163.105 355.633C158.827 351.763 155.851 346.977 153.451 341.788C151.19 336.895 149.599 331.788 148.521 326.512C148.27 325.287 148.258 325.25 147.042 325.136C144.054 324.866 141.053 324.678 138.065 324.402C123.907 323.076 109.836 321.223 96.1473 317.178C91.5865 315.827 87.1322 314.182 82.9912 311.789C81.732 311.06 80.5229 310.256 79.4077 309.32C78.3615 308.453 77.4093 307.492 76.6387 306.361C74.7843 303.629 74.565 300.784 76.0749 297.825C77.1963 295.639 78.8752 293.924 80.7421 292.379C84.2066 289.521 88.1158 287.398 92.1503 285.488C98.6281 282.417 105.413 280.174 112.21 277.963C157.26 263.284 202.304 248.579 247.336 233.855C255.693 231.123 264.107 228.541 272.376 225.526C276.705 223.943 280.89 222.04 284.774 219.528C287.186 217.97 289.435 216.217 291.158 213.881C292.336 212.279 293.156 210.545 293.25 208.497C293.351 206.217 292.542 204.27 291.271 202.474C289.78 200.357 287.838 198.692 285.751 197.197C283.465 195.564 281.028 194.182 278.503 192.957C277.519 192.48 277.507 192.48 276.937 193.485C273.341 199.829 269.181 205.784 264.413 211.305C259.665 216.801 254.321 221.613 248.219 225.57C246.108 226.94 243.915 228.133 241.591 229.063C239.699 229.816 237.663 229.766 235.664 229.785C233.609 229.81 231.561 229.685 229.55 229.232C228.848 229.075 228.278 229.301 227.683 229.559C224.952 230.74 222.139 231.544 219.144 231.682C217.371 231.764 215.655 231.381 213.925 231.173C206.921 230.332 199.93 229.414 192.938 228.516C184.65 227.455 176.368 226.381 168.08 225.325C161.332 224.465 154.579 223.642 147.832 222.788C141.135 221.94 134.438 221.054 127.741 220.206C121.839 219.452 115.925 218.73 110.024 217.982C104.116 217.235 98.2146 216.462 92.3132 215.709C87.3014 215.068 82.2895 214.446 77.2777 213.812C71.9714 213.139 66.6651 212.455 61.3526 211.776C58.8216 211.456 56.2906 211.136 53.7596 210.822C52.7134 210.69 51.6923 210.765 50.646 211.029C46.1604 212.16 41.6059 212.769 36.97 212.549C25.7372 212.021 16.8161 207.216 10.3446 197.964C6.3727 192.285 4.03593 185.91 2.60756 179.182C0.859681 170.922 0.508853 162.574 1.04763 154.17C1.98735 139.597 5.23878 125.514 10.0564 111.777C19.7794 84.0131 34.4077 59.1577 54.1355 37.355C62.7496 27.8324 72.2846 19.3463 83.129 12.4242C90.4212 7.76971 98.1144 3.96947 106.534 1.81496C112.655 0.244612 118.838 -0.40237 125.128 0.634057C134.933 2.24837 142.432 7.38654 147.869 15.6403C148.596 16.7395 149.417 17.6943 150.413 18.5548C173.793 38.806 197.155 59.0697 220.522 79.3335C238.396 94.8296 256.269 110.338 274.161 125.816C275.483 126.959 276.461 128.316 277.256 129.836C277.889 131.036 278.49 132.292 278.71 133.611C278.973 135.244 279.862 136.324 281.09 137.26C281.61 137.656 282.055 138.146 282.594 138.51C285.67 140.589 287.029 143.699 287.812 147.166C288.859 151.777 288.859 156.425 288.282 161.092C287.036 171.23 283.578 180.646 278.992 189.697C278.81 190.055 278.66 190.432 278.434 190.759C278.096 191.255 278.184 191.531 278.729 191.795C279.9 192.361 281.059 192.957 282.193 193.592C285.043 195.181 287.75 196.99 290.087 199.295C291.452 200.646 292.643 202.122 293.457 203.874C294.785 206.732 294.792 209.597 293.42 212.442C292.649 214.044 291.565 215.413 290.312 216.663C287.687 219.276 284.592 221.205 281.335 222.894C277.375 224.955 273.241 226.594 269.006 227.976C219.608 244.138 170.203 260.287 120.812 276.456C114.165 278.629 107.449 280.608 100.902 283.095C95.8027 285.036 90.8097 287.216 86.1299 290.049C84.1564 291.242 82.2707 292.567 80.5542 294.119C79.32 295.237 78.2237 296.468 77.3842 297.913C75.7428 300.733 75.8994 303.453 77.8415 306.066C79.0256 307.655 80.5479 308.88 82.1956 309.954C85.873 312.348 89.9138 313.956 94.0486 315.325C101.14 317.674 108.433 319.207 115.781 320.457C123.631 321.795 131.537 322.68 139.462 323.422C142.056 323.667 144.649 323.836 147.249 324.037C147.5 324.056 147.75 324.081 148.007 323.855V323.83ZM152.487 335.884H152.474C152.462 336.613 152.775 337.253 153.038 337.894C153.564 339.194 154.097 340.494 154.698 341.757C156.884 346.361 159.535 350.645 163.231 354.213C163.701 354.665 164.164 355.136 164.778 355.375C165.48 355.651 165.962 355.375 166.081 354.634C166.188 353.968 166.019 353.334 165.712 352.743C163.976 349.408 162.542 345.934 161.213 342.417C161.145 342.178 161.094 341.933 161.013 341.694C158.25 333.478 156.634 325.017 155.926 316.393C155.538 311.644 155.431 306.876 155.801 302.109C156.17 297.291 156.822 292.536 158.282 287.919C158.758 286.418 159.347 284.954 159.96 283.277C157.962 284.062 156.521 285.262 155.268 286.694C152.524 289.816 150.945 293.547 149.893 297.511C148.277 303.579 147.882 309.753 148.295 316.01C148.734 322.699 149.968 329.207 152.211 335.52C152.305 335.639 152.399 335.758 152.493 335.871L152.487 335.884ZM264.545 191.707C259.74 199.785 254.333 207.411 247.899 214.283C243.113 219.389 237.913 223.975 231.855 227.524C231.586 227.681 231.166 227.731 231.172 228.202C231.711 228.535 232.319 228.548 232.914 228.554C234.468 228.573 236.015 228.541 237.569 228.567C239.467 228.598 241.209 228.083 242.9 227.247C248.426 224.515 253.281 220.834 257.729 216.607C265.197 209.509 271.242 201.299 276.235 192.304C277.15 190.652 278.227 189.063 278.747 187.21C278.923 187.078 279.004 186.902 279.023 186.689C279.079 186.582 279.136 186.481 279.186 186.374C281.717 181.619 283.527 176.576 284.987 171.412C286.647 165.552 287.693 159.584 287.443 153.46C287.33 150.646 286.948 147.863 285.983 145.2C285.15 142.914 283.308 142.6 281.773 144.471C280.639 145.853 279.944 147.455 279.668 149.226C279.418 150.86 279.242 152.505 278.948 154.132C277.407 162.713 274.613 170.897 271.086 178.849C269.131 183.253 266.857 187.486 264.539 191.701L264.545 191.707ZM164.791 347.655V347.693C165.21 349.64 166.332 351.273 167.265 352.976C168.819 355.796 170.629 358.453 172.998 360.664C174.426 361.996 175.923 363.252 177.897 363.748C184.732 365.469 191.566 367.209 198.401 368.943C216.482 373.528 234.555 378.107 252.636 382.686C265.09 385.846 277.544 388.999 290.005 392.159C290.394 392.259 290.782 392.379 291.177 392.423C292.586 392.592 293.263 391.82 292.893 390.425C292.661 389.539 292.154 388.798 291.534 388.114C286.434 382.46 282.262 376.166 278.735 369.426C273.241 358.924 269.407 347.819 266.625 336.324C266.512 335.783 266.399 335.243 266.28 334.703C264.075 324.942 262.741 315.061 262.321 305.067C262.002 297.341 262.196 289.622 263.098 281.921C264 274.226 265.485 266.663 267.997 259.326C270.766 251.23 274.519 243.686 280.539 237.461C280.627 237.367 280.671 237.229 280.74 237.097C280.614 237.078 280.501 237.034 280.42 237.065C276.122 238.56 271.825 240.061 267.527 241.563C267.089 241.713 266.744 241.99 266.437 242.329C262.678 246.45 258.249 249.716 253.387 252.367C238.747 260.357 223.16 264.421 206.408 263.485C205.65 263.441 204.935 263.485 204.196 263.742C192.4 267.894 180.597 272.021 168.794 276.154C167.748 276.519 166.789 277.027 165.887 277.693C163.813 279.226 162.398 281.255 161.257 283.522C159.347 287.329 158.325 291.405 157.68 295.583C156.678 302.052 156.54 308.56 157.004 315.093C157.549 322.831 158.852 330.419 161.026 337.856C161.965 341.079 162.986 344.276 164.496 347.291C164.534 347.454 164.596 347.592 164.784 347.636L164.791 347.655ZM265.353 187.574C265.547 187.285 265.76 187.003 265.923 186.695C272.42 174.408 277.319 161.588 278.641 147.618C279.048 143.353 278.917 139.088 277.864 134.905C276.974 131.368 275.377 128.316 272.489 125.916C267.634 121.884 262.916 117.681 258.149 113.548C241.453 99.0696 224.757 84.591 208.062 70.1124C189.512 54.0258 170.955 37.9392 152.399 21.8588C152.01 21.5196 151.66 21.0988 151.108 20.9543C151.077 21.1302 151.027 21.237 151.052 21.3124C151.127 21.5511 151.221 21.7835 151.321 22.0096C154.272 28.6364 155.744 35.6339 156.415 42.8135C157.079 49.9806 156.891 57.1602 156.108 64.3084C155.093 73.5546 153.201 82.6249 150.588 91.5508C144.292 113.058 134.657 132.976 122.19 151.55C120.405 154.214 118.531 156.821 116.696 159.452C116.17 160.118 115.631 160.778 115.117 161.456C107.706 171.236 99.5303 180.3 90.2959 188.391C82.9536 194.823 75.1226 200.526 66.4271 204.986C65.4247 205.501 64.4223 206.054 64.4286 207.373C64.4286 208.611 65.3934 209.188 66.3018 209.716C68.2188 210.84 70.305 211.619 72.4789 211.952C76.9206 212.637 81.3874 213.19 85.8542 213.755C93.3406 214.71 100.833 215.614 108.326 216.563C115.812 217.518 123.299 218.51 130.785 219.465C137.526 220.319 144.28 221.129 151.021 221.99C158.507 222.945 165.987 223.937 173.48 224.892C180.227 225.746 186.974 226.556 193.721 227.411C201.208 228.365 208.688 229.364 216.181 230.294C217.114 230.413 218.041 230.658 219.006 230.589C222.872 230.313 226.424 229.05 229.826 227.26C234.831 224.622 239.216 221.136 243.289 217.247C250.549 210.319 256.57 202.386 261.826 193.856C263.085 191.808 264.401 189.792 265.353 187.568V187.574ZM1.97482 161.62C1.89337 164.892 2.25673 170.596 3.24657 176.249C4.43062 183.02 6.46041 189.496 10.0877 195.388C14.6924 202.882 21.0699 208.064 29.659 210.281C35.9488 211.902 42.2575 211.638 48.5473 210.281C56.8043 208.497 64.3785 205.043 71.5705 200.702C81.4563 194.735 90.2396 187.379 98.2836 179.126C117.009 159.898 131.23 137.662 141.692 112.989C148.96 95.8598 154.009 78.1212 155.331 59.4466C155.926 50.9982 155.713 42.5874 153.996 34.2708C152.731 28.1402 150.72 22.2734 147.349 16.9531C141.06 7.04106 132.063 1.77727 120.329 1.31873C114.873 1.10516 109.566 2.03481 104.36 3.61143C96.3477 6.04861 89.0117 9.88025 82.0577 14.5033C71.2572 21.6767 61.8036 30.3952 53.2209 40.0748C40.3091 54.6414 29.7153 70.7657 21.1451 88.253C14.1035 102.625 8.59671 117.537 5.18239 133.203C3.31548 141.752 2.16276 150.395 1.96855 161.62H1.97482ZM354.157 333.214C354.144 327.762 353.919 323.252 353.555 318.748C352.904 310.582 351.582 302.523 349.684 294.559C346.915 282.957 342.999 271.77 337.367 261.23C333.427 253.849 328.772 246.977 322.776 241.085C318.955 237.335 314.732 234.157 309.771 232.059C303.819 229.54 297.767 229.069 291.647 231.337C287.136 233.007 283.44 235.884 280.251 239.446C276.053 244.132 273.046 249.553 270.703 255.357C266.255 266.362 264.282 277.888 263.58 289.672C263.161 296.694 263.261 303.723 263.825 310.74C264.426 318.189 265.485 325.57 267.095 332.875C269.795 345.118 273.685 356.945 279.436 368.101C283.527 376.034 288.414 383.415 294.823 389.69C298.431 393.22 302.397 396.26 307.033 398.308C316.956 402.699 326.04 401.298 334.247 394.207C336.997 391.832 339.272 389.031 341.258 385.997C345.129 380.067 347.76 373.585 349.696 366.801C352.923 355.52 354.088 343.974 354.15 333.214H354.157Z" fill="#121212"/>
<path d="M116.704 159.458C118.54 156.826 120.413 154.22 122.199 151.556C134.659 132.982 144.295 113.064 150.597 91.5565C153.209 82.637 155.101 73.5604 156.116 64.3142C156.899 57.166 157.094 49.9863 156.423 42.8193C155.759 35.6397 154.287 28.6422 151.33 22.0154C151.23 21.7892 151.136 21.5568 151.061 21.3181C151.036 21.2365 151.086 21.136 151.117 20.9601C151.675 21.1046 152.019 21.5317 152.408 21.8646C170.964 37.9449 189.514 54.0316 208.07 70.1182C224.766 84.5967 241.462 99.0753 258.157 113.554C262.925 117.687 267.642 121.889 272.497 125.922C275.386 128.321 276.983 131.38 277.873 134.911C278.925 139.1 279.05 143.359 278.649 147.624C277.321 161.594 272.422 174.414 265.932 186.701C265.769 187.008 265.55 187.285 265.362 187.58C264.773 187.536 264.328 187.907 263.833 188.139C261.434 189.27 258.984 190.25 256.397 190.859C253.734 191.493 251.047 191.902 248.309 192.184C244.813 192.542 241.468 192.197 238.154 191.173C239.614 188.258 241.211 185.419 242.558 182.448C245.502 175.941 247.877 169.238 249.412 162.253C249.474 161.958 249.562 161.669 249.6 161.374C249.65 160.997 249.549 160.639 249.123 160.576C248.779 160.52 248.585 160.802 248.491 161.104C248.39 161.437 248.315 161.782 248.24 162.128C246.141 171.606 242.589 180.526 237.941 189.012C236.569 191.518 235.147 194 233.424 196.292C228.725 196.198 224.033 196.5 219.328 196.066C216.108 195.771 212.882 195.482 209.661 195.155C205.896 194.772 202.156 194.201 198.416 193.642C191.656 192.643 184.978 191.261 178.338 189.665C170.024 187.668 161.824 185.306 154.024 181.713C153.266 181.368 152.508 180.915 151.624 180.897C151.718 180.488 151.994 180.193 152.232 179.873C161.855 166.676 169.529 152.392 175.681 137.272C181.564 122.819 185.893 107.92 188.217 92.461C188.988 87.348 189.501 82.2035 189.633 77.0277C189.645 76.4624 190.028 75.4699 189.069 75.4573C188.292 75.4511 188.555 76.3933 188.512 76.946C188.311 79.6973 188.217 82.4611 187.948 85.206C187.14 93.3593 185.661 101.399 183.644 109.333C178.682 128.862 171.064 147.297 160.846 164.647C158.835 168.057 156.793 171.449 154.419 174.628C153.779 174.527 153.147 174.389 152.501 174.333C148.761 174.018 145.147 173.108 141.576 171.99C134.484 169.772 127.824 166.6 121.478 162.762C119.824 161.764 118.089 160.846 116.692 159.458H116.704ZM241.073 109.496C242.17 109.496 242.558 108.981 242.276 108.114C242.025 107.342 241.543 106.688 241.042 106.06C239.501 104.138 237.753 102.423 235.961 100.74C230.517 95.6143 224.753 90.8781 218.695 86.5C214.473 83.4535 210.181 80.5013 205.596 78.0201C204.274 77.3041 202.933 76.6194 201.492 76.1985C200.841 76.0101 200.045 75.7086 199.556 76.3995C199.137 76.99 199.494 77.6621 199.832 78.2274C200.114 78.6985 200.415 79.1696 200.765 79.5905C201.398 80.3694 202.025 81.1608 202.733 81.8643C212.631 91.6947 223.588 100.149 235.635 107.172C236.888 107.901 238.185 108.554 239.557 109.038C240.121 109.239 240.704 109.377 241.092 109.49L241.073 109.496ZM256.096 121.387C256.954 121.387 257.337 120.947 257.236 120.049C257.161 119.377 256.835 118.805 256.447 118.284C254.58 115.752 252.306 113.667 249.537 112.159C248.917 111.82 248.265 111.556 247.564 111.5C246.405 111.406 245.872 112.072 246.242 113.183C246.398 113.654 246.618 114.119 246.899 114.528C248.867 117.329 251.398 119.484 254.492 120.953C254.994 121.192 255.526 121.324 256.102 121.399L256.096 121.387ZM169.542 47.2665C170.337 47.3482 170.751 46.9022 170.5 45.9977C170.369 45.5266 170.137 45.0617 169.874 44.6472C168.013 41.7263 165.526 39.4587 162.525 37.7628C161.823 37.367 160.909 36.7075 160.226 37.5304C159.599 38.2841 160.22 39.151 160.677 39.8608C162.531 42.7188 164.968 44.9675 167.888 46.6886C168.358 46.965 168.871 47.1786 169.535 47.2728L169.542 47.2665Z" fill="#FA420F"/>
<path d="M164.508 347.315C162.998 344.3 161.977 341.096 161.037 337.88C158.864 330.443 157.554 322.855 157.015 315.117C156.558 308.578 156.69 302.076 157.692 295.607C158.337 291.429 159.359 287.353 161.269 283.546C162.403 281.279 163.825 279.244 165.899 277.717C166.801 277.051 167.76 276.549 168.806 276.178C180.609 272.045 192.412 267.918 204.208 263.766C204.941 263.509 205.662 263.465 206.42 263.509C223.172 264.445 238.759 260.374 253.399 252.391C258.261 249.74 262.69 246.474 266.449 242.353C266.762 242.014 267.101 241.737 267.539 241.587C271.837 240.085 276.134 238.584 280.432 237.089C280.513 237.058 280.62 237.108 280.752 237.121C280.683 237.246 280.639 237.391 280.551 237.485C274.531 243.716 270.778 251.254 268.009 259.35C265.497 266.687 264.012 274.25 263.11 281.945C262.208 289.639 262.014 297.365 262.333 305.091C262.746 315.085 264.081 324.966 266.292 334.727C266.411 335.267 266.524 335.807 266.637 336.348C266.336 336.863 266.086 337.422 265.722 337.887C263.812 340.33 261.656 342.547 259.188 344.432C256.926 346.159 254.521 347.679 251.984 348.954C248.582 350.663 244.961 351.724 241.171 352.145C241.133 352.108 241.077 352.083 241.064 352.039C237.907 342.635 235.902 332.993 234.862 323.132C233.653 311.649 233.715 300.192 235.163 288.735C236.228 280.299 238.038 272.039 240.914 264.024C241.045 263.647 241.139 263.257 241.233 262.868C241.283 262.667 241.258 262.422 241.064 262.347C240.901 262.284 240.663 262.322 240.488 262.384C240.124 262.523 240.018 262.868 239.911 263.214C239.717 263.835 239.517 264.457 239.304 265.073C236.134 274.275 234.354 283.779 233.452 293.446C232.826 300.198 232.644 306.97 232.97 313.754C233.333 321.335 234.192 328.848 235.651 336.297C236.453 340.387 237.543 344.4 238.608 348.42C238.445 348.621 238.232 348.728 237.988 348.822C234.411 350.242 230.758 351.467 227.012 352.353C222.558 353.408 218.053 354.231 213.468 354.576C210.886 354.771 208.305 355.016 205.718 355.098C201.871 355.217 198.044 354.89 194.216 354.576C191.428 354.35 188.659 354.023 185.921 353.534C179.18 352.327 172.596 350.506 166.212 347.993C165.767 347.817 165.316 347.503 164.778 347.711V347.673C164.796 347.459 164.684 347.359 164.489 347.327L164.508 347.315ZM199.259 270.971C198.426 271.034 197.868 271.034 197.329 271.115C189.336 272.378 181.724 274.865 174.375 278.239C173.511 278.634 172.677 279.093 171.926 279.683C171.462 280.048 170.786 280.399 171.024 281.09C171.255 281.762 172.032 281.7 172.602 281.693C173.598 281.681 174.601 281.599 175.584 281.436C182.213 280.33 188.584 278.339 194.805 275.833C196.565 275.123 198.294 274.338 199.904 273.314C200.368 273.019 200.85 272.736 201.17 272.271C201.521 271.762 201.364 271.247 200.763 271.115C200.186 270.99 199.572 271.002 199.259 270.971ZM173.78 317.541C173.78 323.439 174.369 328.766 175.509 334.03C176.317 337.761 177.389 341.417 179.049 344.871C179.249 345.286 179.431 345.99 180.07 345.675C180.715 345.368 180.27 344.79 180.082 344.369C178.165 340.192 176.956 335.801 176.167 331.297C174.864 323.841 174.413 316.36 175.641 308.835C175.728 308.295 176.248 307.353 175.277 307.221C174.538 307.12 174.601 308.05 174.507 308.609C173.968 311.731 173.761 314.884 173.786 317.541H173.78Z" fill="#FA420F"/>
<path d="M151.64 180.894C152.523 180.913 153.281 181.359 154.039 181.711C161.839 185.304 170.04 187.666 178.353 189.663C184.994 191.259 191.672 192.641 198.432 193.639C202.172 194.192 205.912 194.77 209.677 195.153C212.897 195.48 216.117 195.769 219.343 196.064C224.048 196.497 228.741 196.196 233.439 196.29C232.65 197.628 231.691 198.847 230.764 200.084C229.317 202.006 227.726 203.803 226.109 205.58C225.846 205.869 225.464 206.189 225.859 206.604C226.304 207.069 226.667 206.692 226.999 206.378C227.106 206.277 227.218 206.171 227.319 206.058C228.703 204.475 230.106 202.911 231.397 201.252C233.89 198.049 236.033 194.613 238.169 191.171C241.49 192.195 244.829 192.54 248.324 192.182C251.062 191.899 253.744 191.491 256.412 190.857C258.993 190.241 261.449 189.267 263.849 188.137C264.337 187.904 264.782 187.534 265.377 187.578C264.425 189.795 263.109 191.818 261.85 193.865C256.6 202.396 250.58 210.329 243.313 217.257C239.241 221.145 234.849 224.625 229.85 227.27C226.454 229.06 222.896 230.323 219.03 230.599C218.065 230.668 217.138 230.423 216.205 230.304C208.712 229.368 201.232 228.369 193.746 227.421C186.998 226.56 180.251 225.756 173.504 224.902C166.018 223.947 158.537 222.954 151.045 222C144.304 221.145 137.55 220.335 130.809 219.475C123.323 218.52 115.837 217.527 108.35 216.573C100.864 215.618 93.3709 214.713 85.8782 213.765C81.4177 213.2 76.9509 212.647 72.5029 211.962C70.3228 211.629 68.2428 210.85 66.3258 209.726C65.4174 209.192 64.4589 208.614 64.4526 207.383C64.4526 206.064 65.4487 205.511 66.4511 204.996C75.1466 200.536 82.9839 194.826 90.32 188.401C99.5543 180.31 107.73 171.246 115.141 161.466C115.655 160.788 116.194 160.128 116.72 159.462C118.117 160.85 119.852 161.768 121.506 162.766C127.852 166.604 134.512 169.776 141.604 171.994C145.175 173.112 148.783 174.023 152.529 174.337C153.175 174.393 153.807 174.531 154.446 174.632C154.177 175.053 153.92 175.486 153.638 175.894C149.973 181.177 146.02 186.221 141.698 190.976C136.141 197.088 130.114 202.641 123.122 207.075C122.872 207.232 122.602 207.383 122.396 207.597C122.176 207.829 122.139 208.143 122.364 208.413C122.552 208.639 122.809 208.633 123.047 208.507C123.398 208.319 123.743 208.105 124.075 207.892C132.764 202.301 139.994 195.109 146.565 187.207C148.294 185.128 149.961 182.999 151.652 180.894H151.64Z" fill="#C30000"/>
<path d="M1.97305 161.624C2.16725 150.399 3.31998 141.762 5.18689 133.207C8.6012 117.548 14.1017 102.636 21.1496 88.2576C29.7198 70.7702 40.3136 54.6459 53.2254 40.0794C61.8081 30.3935 71.2617 21.6812 82.0622 14.5079C89.0162 9.89105 96.3522 6.05312 104.365 3.61595C109.571 2.03304 114.871 1.1034 120.334 1.32324C132.068 1.78178 141.064 7.04558 147.354 16.9576C150.724 22.2716 152.735 28.1385 154.001 34.2754C155.717 42.5982 155.937 51.0027 155.335 59.4511C154.013 78.1257 148.97 95.8643 141.697 112.994C131.228 137.661 117.014 159.897 98.2881 179.13C90.2503 187.39 81.4608 194.74 71.575 200.707C64.383 205.054 56.8088 208.508 48.5518 210.286C42.262 211.643 35.947 211.913 29.6635 210.286C21.0744 208.069 14.6969 202.886 10.0922 195.393C6.47117 189.501 4.44138 183.025 3.25106 176.253C2.26123 170.6 1.89787 164.897 1.97931 161.624H1.97305ZM144.923 50.4185C144.911 46.9072 144.579 41.9072 143.539 36.9764C142.449 31.7879 140.738 26.8319 137.794 22.3721C134.148 16.8383 129.224 13.0129 122.758 11.3797C117.759 10.1109 112.741 10.3433 107.735 11.4363C100.813 12.9501 94.4916 15.9086 88.4836 19.5832C79.0113 25.3809 70.6854 32.5857 63.1488 40.7012C41.4475 64.068 26.0048 91.103 16.4259 121.517C13.3311 131.348 11.1886 141.392 10.3428 151.687C9.75393 158.86 9.71634 166.027 10.9818 173.144C11.9717 178.716 13.6318 184.049 16.6389 188.892C20.1911 194.614 25.0839 198.628 31.6243 200.437C36.4984 201.787 41.4162 201.674 46.3404 200.694C52.2794 199.513 57.7987 197.221 63.0799 194.306C72.2766 189.231 80.3394 182.667 87.7883 175.318C98.7266 164.52 108.024 152.422 116.068 139.331C126.787 121.894 135.169 103.433 140.406 83.5968C143.144 73.2325 144.886 62.7112 144.917 50.4311L144.923 50.4185Z" fill="#FDF6F5"/>
<path d="M164.785 347.698C165.317 347.491 165.774 347.805 166.219 347.981C172.603 350.487 179.187 352.309 185.928 353.521C188.666 354.011 191.435 354.338 194.223 354.564C198.057 354.878 201.885 355.205 205.725 355.085C208.312 355.004 210.893 354.759 213.475 354.564C218.06 354.219 222.565 353.396 227.019 352.34C230.759 351.455 234.412 350.236 237.995 348.81C238.233 348.716 238.446 348.609 238.615 348.408C239.38 350.632 240.1 352.874 240.914 355.079C243.276 361.448 246.202 367.535 250.061 373.144C250.318 373.515 250.6 373.867 250.901 374.193C251.032 374.338 251.251 374.388 251.458 374.275C251.715 374.137 251.79 373.898 251.727 373.641C251.615 373.132 251.245 372.767 250.963 372.359C246.728 366.084 243.546 359.294 241.152 352.121C244.943 351.7 248.564 350.638 251.966 348.93C254.503 347.654 256.908 346.134 259.17 344.407C261.638 342.523 263.793 340.312 265.704 337.862C266.068 337.397 266.318 336.838 266.619 336.323C269.407 347.818 273.235 358.93 278.729 369.426C282.256 376.166 286.422 382.46 291.528 388.113C292.142 388.798 292.649 389.539 292.887 390.424C293.257 391.819 292.574 392.591 291.171 392.422C290.776 392.372 290.388 392.252 289.999 392.158C277.545 389.005 265.09 385.845 252.63 382.686C234.549 378.107 216.475 373.521 198.395 368.942C191.56 367.208 184.732 365.469 177.891 363.747C175.911 363.251 174.42 361.995 172.991 360.663C170.623 358.452 168.813 355.801 167.259 352.975C166.319 351.273 165.204 349.639 164.778 347.692L164.785 347.698Z" fill="#C30000"/>
<path d="M354.157 333.215C354.095 343.975 352.929 355.52 349.703 366.802C347.761 373.586 345.136 380.068 341.264 385.998C339.278 389.038 337.004 391.833 334.254 394.207C326.047 401.299 316.957 402.7 307.04 398.309C302.404 396.261 298.438 393.221 294.83 389.691C288.421 383.416 283.534 376.035 279.443 368.102C273.686 356.94 269.802 345.118 267.102 332.876C265.491 325.571 264.433 318.19 263.831 310.74C263.261 303.724 263.167 296.695 263.587 289.673C264.289 277.889 266.262 266.362 270.71 255.357C273.053 249.553 276.06 244.139 280.258 239.447C283.446 235.885 287.143 233.008 291.653 231.337C297.78 229.07 303.826 229.547 309.777 232.06C314.739 234.158 318.962 237.336 322.783 241.086C328.778 246.972 333.433 253.844 337.374 261.231C343.006 271.771 346.921 282.958 349.69 294.56C351.589 302.524 352.91 310.583 353.562 318.749C353.925 323.253 354.151 327.763 354.163 333.215H354.157ZM271.775 300.131C271.675 303.699 271.882 307.914 272.232 312.116C272.878 319.974 274.043 327.757 275.785 335.458C278.203 346.161 281.605 356.519 286.573 366.318C289.761 372.606 293.52 378.523 298.382 383.667C301.326 386.789 304.578 389.528 308.455 391.425C316.393 395.307 323.836 394.572 330.708 388.893C332.374 387.511 333.834 385.929 335.156 384.214C339.159 379.025 341.772 373.127 343.733 366.927C346.314 358.755 347.635 350.345 348.256 341.808C348.782 334.528 348.688 327.254 348.174 319.987C347.704 313.328 346.815 306.714 345.524 300.156C343.188 288.297 339.711 276.815 334.398 265.935C331.147 259.277 327.287 253.021 322.232 247.562C319.106 244.189 315.641 241.249 311.456 239.271C303.801 235.653 296.609 236.4 289.962 241.727C287.237 243.913 285.038 246.576 283.164 249.516C279.099 255.885 276.58 262.883 274.876 270.207C272.633 279.836 271.706 289.604 271.781 300.137L271.775 300.131Z" fill="#FDF6F5"/>
<path d="M279.029 186.697C279.004 186.904 278.922 187.086 278.753 187.218C278.302 187.218 278.051 187.551 277.751 187.815C275 190.277 271.843 191.891 268.153 192.325C266.919 192.469 265.66 192.444 264.551 191.709C266.862 187.494 269.143 183.261 271.098 178.857C274.625 170.905 277.419 162.721 278.96 154.14C279.254 152.513 279.43 150.868 279.68 149.234C279.956 147.463 280.651 145.861 281.785 144.479C283.32 142.608 285.162 142.922 285.995 145.208C286.966 147.865 287.342 150.654 287.455 153.468C287.705 159.592 286.659 165.56 284.999 171.42C283.539 176.584 281.729 181.627 279.198 186.382C278.966 186.395 278.847 186.464 279.035 186.697H279.029Z" fill="#FA420F"/>
<path d="M264.551 191.708C265.66 192.443 266.919 192.468 268.154 192.323C271.844 191.89 275.001 190.275 277.751 187.813C278.046 187.549 278.296 187.216 278.754 187.216C278.234 189.069 277.156 190.659 276.241 192.311C271.248 201.306 265.203 209.515 257.735 216.613C253.287 220.841 248.432 224.522 242.906 227.254C241.215 228.089 239.473 228.604 237.575 228.573C236.028 228.548 234.474 228.573 232.92 228.56C232.325 228.554 231.718 228.542 231.179 228.209C231.173 227.738 231.586 227.687 231.862 227.53C237.92 223.981 243.126 219.396 247.906 214.289C254.34 207.417 259.746 199.792 264.551 191.714V191.708Z" fill="#C30000"/>
<path d="M152.213 335.536C149.976 329.223 148.742 322.71 148.297 316.026C147.884 309.764 148.284 303.589 149.895 297.528C150.947 293.564 152.526 289.839 155.27 286.711C156.529 285.279 157.964 284.079 159.962 283.294C159.354 284.971 158.759 286.435 158.283 287.936C156.823 292.553 156.178 297.314 155.802 302.126C155.433 306.893 155.539 311.661 155.928 316.409C156.635 325.034 158.252 333.495 161.015 341.711C161.096 341.949 161.152 342.188 161.215 342.433C159.912 342.64 158.778 342.264 157.713 341.497C156.078 340.316 154.718 338.884 153.572 337.238C153.24 336.761 153.027 336.183 152.463 335.894H152.476C152.488 335.687 152.388 335.574 152.194 335.542L152.213 335.536Z" fill="#FA420F"/>
<path d="M152.48 335.896C153.038 336.185 153.251 336.763 153.589 337.241C154.736 338.893 156.095 340.325 157.73 341.499C158.789 342.266 159.929 342.636 161.232 342.435C162.561 345.953 163.989 349.42 165.731 352.762C166.037 353.352 166.207 353.981 166.1 354.653C165.981 355.394 165.499 355.67 164.797 355.394C164.183 355.149 163.72 354.684 163.25 354.232C159.553 350.664 156.903 346.38 154.717 341.776C154.116 340.507 153.583 339.207 153.057 337.913C152.794 337.266 152.474 336.631 152.493 335.903L152.48 335.896Z" fill="#C30000"/>
<path d="M279.025 186.695C278.841 186.467 278.957 186.4 279.184 186.387C279.129 186.492 279.074 186.59 279.025 186.695Z" fill="#C30000"/>
<path d="M152.208 335.533C152.404 335.564 152.502 335.675 152.484 335.878C152.392 335.761 152.3 335.644 152.208 335.533Z" fill="#C30000"/>
<path d="M164.502 347.314C164.692 347.345 164.802 347.443 164.784 347.652C164.6 347.615 164.539 347.474 164.502 347.314Z" fill="#C30000"/>
<path d="M241.069 109.492C240.68 109.379 240.098 109.241 239.534 109.04C238.162 108.557 236.865 107.903 235.612 107.175C223.565 100.152 212.608 91.6973 202.709 81.867C202.001 81.1634 201.375 80.372 200.742 79.5931C200.398 79.166 200.097 78.7011 199.809 78.23C199.471 77.6647 199.113 76.9926 199.533 76.4022C200.028 75.7112 200.824 76.0127 201.469 76.2011C202.916 76.622 204.257 77.3067 205.572 78.0227C210.165 80.5039 214.45 83.4561 218.672 86.5026C224.73 90.8745 230.494 95.6106 235.938 100.743C237.73 102.432 239.478 104.141 241.019 106.063C241.52 106.691 242.002 107.344 242.253 108.117C242.535 108.984 242.146 109.492 241.05 109.499L241.069 109.492Z" fill="#FDF6F5"/>
<path d="M151.64 180.891C149.948 182.995 148.282 185.124 146.553 187.203C139.981 195.105 132.751 202.298 124.062 207.888C123.724 208.102 123.386 208.315 123.035 208.504C122.803 208.629 122.54 208.635 122.352 208.409C122.126 208.139 122.164 207.825 122.383 207.593C122.584 207.379 122.853 207.228 123.11 207.071C130.101 202.631 136.134 197.078 141.685 190.972C146.008 186.217 149.967 181.167 153.626 175.891C153.908 175.482 154.164 175.049 154.434 174.628C156.808 171.45 158.851 168.058 160.862 164.647C171.079 147.298 178.697 128.862 183.659 109.333C185.676 101.393 187.155 93.3596 187.963 85.2064C188.232 82.4614 188.333 79.6976 188.527 76.9464C188.564 76.3936 188.308 75.4514 189.084 75.4577C190.043 75.4702 189.661 76.4627 189.648 77.028C189.517 82.2039 189.003 87.3483 188.232 92.4614C185.914 107.92 181.579 122.819 175.697 137.273C169.545 152.392 161.87 166.676 152.247 179.873C152.016 180.193 151.734 180.489 151.64 180.897V180.891Z" fill="#121212"/>
<path d="M238.15 191.17C236.008 194.612 233.871 198.048 231.378 201.252C230.087 202.91 228.684 204.474 227.3 206.057C227.199 206.17 227.093 206.277 226.98 206.378C226.648 206.692 226.285 207.062 225.84 206.604C225.445 206.195 225.834 205.869 226.091 205.58C227.707 203.802 229.298 202.006 230.745 200.084C231.679 198.846 232.631 197.628 233.42 196.29C235.143 193.997 236.565 191.516 237.937 189.01C242.586 180.517 246.138 171.598 248.237 162.125C248.312 161.78 248.387 161.434 248.487 161.101C248.581 160.8 248.769 160.523 249.12 160.574C249.546 160.637 249.646 160.995 249.596 161.371C249.558 161.667 249.471 161.962 249.408 162.251C247.873 169.236 245.505 175.938 242.554 182.445C241.207 185.417 239.61 188.262 238.15 191.17Z" fill="#121212"/>
<path d="M256.087 121.386C255.511 121.311 254.978 121.179 254.477 120.94C251.382 119.47 248.851 117.322 246.884 114.514C246.602 114.112 246.383 113.641 246.226 113.17C245.857 112.064 246.389 111.399 247.548 111.487C248.25 111.543 248.901 111.807 249.522 112.146C252.297 113.654 254.565 115.739 256.432 118.27C256.814 118.792 257.146 119.363 257.221 120.035C257.321 120.934 256.939 121.373 256.081 121.373L256.087 121.386Z" fill="#FDF6F5"/>
<path d="M169.545 47.2646C168.881 47.1704 168.373 46.9568 167.897 46.6804C164.978 44.953 162.541 42.7043 160.686 39.8526C160.223 39.1428 159.602 38.2759 160.235 37.5222C160.918 36.7056 161.839 37.3588 162.534 37.7546C165.529 39.4505 168.022 41.7181 169.883 44.639C170.146 45.0535 170.378 45.5184 170.509 45.9895C170.76 46.894 170.34 47.34 169.551 47.2583L169.545 47.2646Z" fill="#FDF6F5"/>
<path d="M241.16 352.127C243.553 359.3 246.729 366.09 250.97 372.365C251.246 372.78 251.622 373.144 251.735 373.647C251.791 373.904 251.722 374.143 251.465 374.281C251.259 374.388 251.039 374.338 250.908 374.199C250.607 373.873 250.319 373.515 250.068 373.15C246.209 367.541 243.277 361.454 240.922 355.085C240.107 352.88 239.387 350.638 238.623 348.414C237.551 344.394 236.467 340.38 235.666 336.291C234.206 328.842 233.348 321.329 232.984 313.747C232.658 306.963 232.84 300.192 233.467 293.44C234.362 283.773 236.148 274.269 239.318 265.067C239.531 264.451 239.731 263.829 239.926 263.207C240.032 262.862 240.132 262.516 240.502 262.378C240.677 262.309 240.909 262.278 241.078 262.341C241.273 262.416 241.298 262.661 241.247 262.862C241.153 263.251 241.06 263.641 240.928 264.018C238.052 272.033 236.242 280.286 235.177 288.729C233.73 300.186 233.667 311.643 234.876 323.125C235.916 332.987 237.921 342.635 241.078 352.032C241.091 352.076 241.147 352.101 241.185 352.139L241.16 352.127Z" fill="#121212"/>
<path d="M199.265 270.968C199.578 270.994 200.192 270.981 200.769 271.113C201.37 271.245 201.521 271.76 201.176 272.269C200.856 272.733 200.374 273.016 199.911 273.311C198.3 274.335 196.571 275.12 194.811 275.83C188.59 278.336 182.212 280.328 175.591 281.433C174.607 281.596 173.605 281.678 172.609 281.691C172.038 281.697 171.262 281.766 171.03 281.088C170.792 280.397 171.468 280.045 171.932 279.681C172.684 279.096 173.517 278.632 174.381 278.236C181.724 274.869 189.342 272.375 197.336 271.113C197.874 271.025 198.432 271.025 199.265 270.968Z" fill="#FDF6F5"/>
<path d="M173.786 317.539C173.761 314.881 173.968 311.728 174.507 308.606C174.607 308.047 174.538 307.118 175.277 307.218C176.248 307.35 175.728 308.292 175.64 308.833C174.413 316.358 174.864 323.839 176.167 331.295C176.956 335.805 178.159 340.195 180.082 344.366C180.276 344.781 180.715 345.359 180.07 345.673C179.424 345.981 179.249 345.277 179.049 344.869C177.388 341.414 176.317 337.758 175.509 334.027C174.369 328.763 173.774 323.437 173.78 317.539H173.786Z" fill="#121212"/>
<path d="M144.932 50.4179C144.894 62.6917 143.159 73.2193 140.421 83.5836C135.177 103.42 126.801 121.881 116.082 139.318C108.038 152.409 98.7413 164.507 87.8029 175.304C80.3541 182.66 72.2913 189.224 63.0946 194.293C57.8133 197.207 52.2941 199.5 46.355 200.681C41.4309 201.661 36.513 201.774 31.639 200.424C25.0986 198.608 20.212 194.601 16.6536 188.878C13.6465 184.035 11.9801 178.703 10.9965 173.131C9.73101 166.008 9.7686 158.847 10.3575 151.674C11.2032 141.379 13.3458 131.335 16.4406 121.504C26.0195 91.0899 41.4685 64.0548 63.1635 40.688C70.7 32.5725 79.026 25.3678 88.4983 19.57C94.5063 15.8954 100.827 12.9369 107.75 11.4231C112.756 10.3301 117.774 10.0977 122.773 11.3666C129.238 13.006 134.162 16.8314 137.809 22.359C140.747 26.8188 142.457 31.7748 143.553 36.9632C144.593 41.8941 144.925 46.8941 144.938 50.4053L144.932 50.4179ZM130.598 108.295C131.231 107.434 131.537 106.416 131.92 105.443C138.166 89.6954 142.72 73.5397 143.641 56.5108C144.004 49.8149 143.691 43.1692 142.263 36.6052C141.166 31.5675 139.419 26.7811 136.462 22.5097C131.237 14.9595 123.932 11.5424 114.879 11.7372C109.717 11.8502 104.793 13.1505 100.026 15.0663C91.7184 18.3954 84.351 23.2761 77.4535 28.923C66.44 37.9368 57.0804 48.4895 48.7294 59.9782C37.1332 75.9266 27.924 93.1627 20.9951 111.63C20.7007 112.415 20.2058 113.144 20.2496 114.036C19.9927 114.237 19.9552 114.557 19.8612 114.833C15.6324 127.007 12.5063 139.431 11.4726 152.327C10.9213 159.255 10.9777 166.171 12.1993 173.037C13.1453 178.363 14.7115 183.476 17.5808 188.112C22.5175 196.089 29.6781 200.128 39.044 200.229C42.4207 200.267 45.7223 199.726 48.9737 198.853C56.6105 196.799 63.4705 193.112 69.9483 188.671C79.7339 181.969 88.2164 173.828 95.9472 164.877C109.147 149.588 119.741 132.629 128.136 114.268C129.025 112.321 130.078 110.43 130.598 108.32V108.295Z" fill="#121212"/>
<path d="M271.775 300.132C271.7 289.598 272.627 279.831 274.87 270.201C276.574 262.877 279.093 255.88 283.158 249.511C285.032 246.577 287.231 243.908 289.956 241.722C296.603 236.395 303.788 235.648 311.45 239.266C315.635 241.244 319.106 244.184 322.226 247.557C327.281 253.016 331.14 259.272 334.392 265.93C339.704 276.809 343.188 288.292 345.518 300.151C346.809 306.709 347.698 313.323 348.168 319.981C348.682 327.249 348.776 334.523 348.25 341.803C347.629 350.339 346.314 358.744 343.726 366.922C341.766 373.128 339.159 379.02 335.15 384.209C333.828 385.923 332.368 387.506 330.702 388.888C323.836 394.567 316.393 395.301 308.449 391.42C304.571 389.523 301.326 386.784 298.376 383.662C293.514 378.511 289.755 372.601 286.566 366.313C281.592 356.514 278.19 346.156 275.778 335.452C274.043 327.758 272.878 319.969 272.226 312.111C271.882 307.909 271.669 303.694 271.769 300.126L271.775 300.132ZM283.19 355.496L283.202 355.521C283.422 356.721 284.004 357.783 284.468 358.888C287.794 366.734 291.823 374.171 297.354 380.704C300.819 384.793 304.716 388.392 309.64 390.66C316.65 393.888 323.272 393.216 329.368 388.404C333.678 385.006 336.61 380.534 338.978 375.66C343.113 367.167 345.18 358.091 346.37 348.788C347.611 339.096 347.686 329.353 346.965 319.623C346.151 308.631 344.246 297.821 341.208 287.224C340.895 286.137 340.751 284.969 340.087 284.002C340.036 283.757 340.011 283.505 339.943 283.267C337.161 274.102 333.358 265.396 328.209 257.306C325.508 253.053 322.414 249.121 318.686 245.71C316.08 243.323 313.242 241.288 309.978 239.9C306.839 238.568 303.594 237.909 300.167 238.38C295.713 238.989 292.067 241.144 288.909 244.234C285.608 247.463 283.165 251.307 281.198 255.465C277.326 263.663 275.208 272.362 274.018 281.307C272.627 291.753 272.546 302.23 273.435 312.714C274.275 322.638 275.96 332.419 278.623 342.017C279.857 346.457 281.172 350.88 282.983 355.132C282.97 355.295 283.014 355.44 283.177 355.515L283.19 355.496Z" fill="#121212"/>
<path d="M20.2503 114.012C20.2064 113.121 20.7014 112.392 20.9958 111.607C27.9247 93.1394 37.1339 75.9033 48.7301 59.9549C57.081 48.4725 66.4407 37.9135 77.4542 28.8998C84.3454 23.2591 91.7191 18.3784 100.026 15.043C104.8 13.1272 109.718 11.827 114.88 11.7139C123.933 11.5192 131.237 14.9425 136.462 22.4865C139.419 26.7578 141.167 31.5505 142.264 36.5819C143.692 43.1459 144.005 49.7916 143.642 56.4876C142.721 73.5164 138.173 89.6721 131.92 105.42C131.532 106.393 131.231 107.411 130.598 108.271C130.01 108.303 129.596 108.673 129.158 109.006C126.84 110.746 124.559 112.536 122.185 114.195C117.142 117.718 111.961 121.022 106.573 124C100.252 127.486 93.7239 130.501 86.9203 132.888C82.3031 134.509 77.6171 135.903 72.8057 136.801C68.8839 137.53 64.9559 138.183 60.9464 138.133C59.0419 138.108 57.1374 138.076 55.2392 138.139C53.7294 138.189 52.2384 137.951 50.7724 137.731C47.0699 137.172 43.4426 136.267 39.9719 134.798C36.3571 133.265 32.9866 131.318 30.0484 128.698C25.9826 125.061 23.0632 120.62 21.0647 115.551C20.8517 115.017 20.7953 114.364 20.2503 114V114.012ZM115.488 26.1548C112.806 26.1548 109.549 26.9839 105.959 28.5857C100.064 31.2176 94.7638 34.8043 89.7394 38.8118C74.8417 50.6962 62.4813 64.8983 51.7748 80.6144C51.5116 81.0038 51.0042 81.5189 51.6119 81.902C52.2885 82.3229 52.5453 81.5943 52.8272 81.1608C57.6198 73.9749 62.9073 67.1722 68.6145 60.6961C76.1636 52.1409 84.2765 44.1949 93.4795 37.4236C98.0466 34.0631 102.808 31.0229 108.12 28.9563C110.651 27.9701 113.245 27.2352 115.995 27.298C119.309 27.3797 121.464 28.9437 122.573 32.0279C122.661 32.2666 122.711 32.5178 122.818 32.7377C122.962 33.0266 123.219 33.2025 123.551 33.0769C123.87 32.9575 124.008 32.6937 123.933 32.3545C123.876 32.1095 123.782 31.8771 123.701 31.6384C122.417 27.9701 119.679 26.1422 115.481 26.1548H115.488Z" fill="#DBF505"/>
<path d="M20.267 114.017C20.812 114.388 20.8684 115.035 21.0814 115.569C23.0799 120.638 25.9993 125.079 30.0651 128.716C33.0033 131.341 36.3738 133.282 39.9886 134.815C43.453 136.285 47.0866 137.189 50.7891 137.748C52.255 137.968 53.7398 138.207 55.2559 138.157C57.1541 138.094 59.0586 138.125 60.9631 138.15C64.9726 138.201 68.9069 137.547 72.8224 136.819C77.64 135.921 82.3261 134.526 86.9369 132.906C93.7405 130.512 100.268 127.504 106.59 124.017C111.984 121.04 117.165 117.736 122.202 114.212C124.576 112.554 126.856 110.764 129.174 109.024C129.613 108.691 130.026 108.32 130.615 108.289C130.101 110.399 129.049 112.29 128.153 114.237C119.758 132.598 109.164 149.564 95.9645 164.846C88.2338 173.797 79.745 181.938 69.9656 188.64C63.4815 193.081 56.6279 196.768 48.9911 198.822C45.7396 199.695 42.4381 200.236 39.0614 200.198C29.6955 200.097 22.5286 196.059 17.5982 188.081C14.7289 183.446 13.169 178.332 12.2167 173.006C10.9951 166.14 10.9387 159.225 11.49 152.296C12.5174 139.407 15.6435 126.976 19.8786 114.803C19.9725 114.526 20.0101 114.212 20.267 114.005V114.017Z" fill="#A7B920"/>
<path d="M282.991 355.112C281.174 350.859 279.859 346.444 278.631 341.996C275.968 332.398 274.283 322.618 273.443 312.694C272.554 302.21 272.635 291.733 274.026 281.287C275.216 272.342 277.334 263.642 281.206 255.445C283.166 251.287 285.61 247.449 288.917 244.214C292.075 241.124 295.721 238.969 300.175 238.36C303.602 237.889 306.847 238.548 309.986 239.88C313.25 241.268 316.094 243.303 318.694 245.69C322.415 249.101 325.516 253.033 328.217 257.286C333.36 265.376 337.169 274.082 339.951 283.247C340.026 283.485 340.051 283.737 340.095 283.982C339.8 284.176 339.788 284.478 339.806 284.786C339.894 286.281 339.681 287.782 340.045 289.277C340.32 290.414 339.819 291.557 339.832 292.706C339.857 295.759 339.625 298.787 339.261 301.827C338.854 305.2 338.278 308.535 337.501 311.839C336.085 317.857 334.012 323.636 331.142 329.12C327.935 335.244 324 340.784 318.769 345.357C315.086 348.579 311.076 351.243 306.547 353.089C301.98 354.955 297.256 356.098 292.294 356.01C290.352 355.979 288.416 356.048 286.468 355.771C285.415 355.621 284.338 355.131 283.223 355.514L283.21 355.489C283.279 355.294 283.179 355.187 283.016 355.106L282.991 355.112ZM301.71 250.684C300.269 250.734 298.816 251.061 297.488 251.84C296.128 252.631 294.994 253.68 294.042 254.93C293.848 255.188 293.754 255.477 294.017 255.74C294.343 256.073 294.65 255.941 294.919 255.659C295.439 255.119 295.909 254.522 296.467 254.026C298.785 251.965 301.416 251.344 304.404 252.305C306.045 252.838 307.511 253.674 308.883 254.691C311.032 256.281 312.874 258.19 314.578 260.238C318.663 265.169 321.852 270.665 324.752 276.35C324.959 276.752 325.147 277.16 325.36 277.562C325.573 277.958 325.811 278.492 326.35 278.19C326.857 277.901 326.55 277.399 326.368 276.99C326.224 276.67 326.074 276.35 325.911 276.042C325.235 274.754 324.577 273.46 323.875 272.185C321.162 267.254 318.18 262.506 314.434 258.284C312.498 256.105 310.381 254.126 307.862 252.606C305.989 251.475 303.984 250.759 301.698 250.684H301.71Z" fill="#DBF505"/>
<path d="M283.19 355.521C284.305 355.138 285.383 355.634 286.435 355.779C288.384 356.055 290.32 355.98 292.262 356.017C297.23 356.105 301.947 354.962 306.514 353.097C311.044 351.25 315.059 348.586 318.737 345.364C323.968 340.785 327.908 335.245 331.11 329.127C333.979 323.643 336.053 317.864 337.468 311.847C338.245 308.543 338.828 305.214 339.229 301.834C339.592 298.8 339.83 295.773 339.799 292.714C339.786 291.57 340.288 290.427 340.012 289.284C339.649 287.789 339.862 286.288 339.774 284.793C339.755 284.491 339.774 284.183 340.062 283.989C340.726 284.962 340.87 286.124 341.184 287.211C344.222 297.808 346.126 308.624 346.941 319.61C347.661 329.347 347.586 339.083 346.346 348.775C345.155 358.078 343.088 367.154 338.953 375.647C336.579 380.521 333.647 384.993 329.343 388.392C323.247 393.203 316.625 393.875 309.615 390.647C304.685 388.379 300.794 384.78 297.33 380.691C291.798 374.158 287.77 366.727 284.443 358.875C283.973 357.77 283.397 356.708 283.178 355.509L283.19 355.521Z" fill="#A7B920"/>
<path d="M282.998 355.115C283.16 355.19 283.259 355.296 283.191 355.495C283.029 355.42 282.986 355.283 282.998 355.115Z" fill="#A7B920"/>
<path d="M115.491 26.1556C119.689 26.143 122.426 27.9709 123.711 31.6392C123.792 31.8779 123.886 32.1103 123.942 32.3553C124.018 32.6945 123.88 32.9583 123.56 33.0777C123.222 33.2033 122.971 33.0337 122.827 32.7385C122.714 32.5186 122.664 32.2674 122.583 32.0287C121.474 28.9445 119.319 27.3742 116.005 27.2988C113.255 27.236 110.661 27.9709 108.13 28.9571C102.817 31.0237 98.0562 34.0638 93.4892 37.4244C84.2862 44.202 76.1733 52.1479 68.6242 60.6969C62.917 67.1667 57.6295 73.9695 52.8369 81.1616C52.5488 81.5888 52.2919 82.3237 51.6216 81.9028C51.0139 81.5197 51.5151 81.0046 51.7844 80.6152C62.491 64.9054 74.8514 50.6969 89.7491 38.8126C94.7735 34.805 100.074 31.2184 105.969 28.5865C109.558 26.9847 112.816 26.1619 115.497 26.1556H115.491Z" fill="#121212"/>
<path d="M301.707 250.684C303.994 250.759 305.992 251.475 307.872 252.606C310.384 254.12 312.508 256.098 314.444 258.284C318.19 262.505 321.178 267.254 323.885 272.185C324.586 273.46 325.244 274.754 325.921 276.042C326.084 276.35 326.234 276.67 326.378 276.99C326.56 277.399 326.867 277.901 326.359 278.19C325.82 278.498 325.582 277.958 325.369 277.562C325.156 277.166 324.968 276.752 324.762 276.35C321.867 270.665 318.672 265.169 314.588 260.238C312.89 258.184 311.042 256.281 308.893 254.691C307.515 253.674 306.055 252.832 304.414 252.304C301.425 251.337 298.794 251.965 296.476 254.026C295.919 254.522 295.442 255.118 294.929 255.659C294.659 255.941 294.346 256.073 294.027 255.74C293.763 255.47 293.857 255.181 294.052 254.93C295.004 253.68 296.138 252.631 297.497 251.84C298.825 251.067 300.279 250.74 301.72 250.684H301.707Z" fill="#121212"/>
</g>
<defs>
<clipPath id="clip0_432_2708">
<rect width="354.494" height="401.876" fill="white" transform="translate(0.81543 0.114502)"/>
</clipPath>
</defs>
</svg>
