<svg width="355" height="341" viewBox="0 0 355 341" fill="none" xmlns="http://www.w3.org/2000/svg">
<path d="M101.375 263.673C102.108 263.939 102.789 264.166 103.45 264.432C105.247 265.139 106.926 266.054 108.301 267.442C111.025 270.172 111.369 273.577 108.865 276.502C107.698 277.864 107.821 278.766 108.554 280.206C112.335 287.632 114.313 295.493 113.801 303.885C113.613 306.953 113.087 309.995 111.855 312.803C110.214 316.558 107.542 319.548 103.904 321.461C97.0882 325.042 89.7987 326.76 82.0748 326.631C73.2419 326.481 66.5686 318.588 66.5491 310.507C66.5491 309.041 66.8215 307.621 67.3144 306.246C69.2729 300.804 69.8501 295.168 69.6945 289.422C69.5712 284.986 68.9422 280.653 67.4181 276.476C66.8669 274.965 66.1276 273.545 65.1548 272.248C64.6295 271.541 64.0912 271.288 63.1897 271.606C61.1923 272.306 59.1365 272.851 57.1325 273.558C56.0949 273.921 55.1545 273.901 54.1234 273.558C52.0935 272.883 50.1998 271.949 48.3969 270.814C47.8586 270.471 47.3398 270.282 46.6653 270.334C37.0931 271.126 29.1487 267.578 22.3197 261.118C21.1588 260.022 20.1082 258.809 18.9538 257.596C18.2145 258.07 17.4687 258.537 16.6256 258.79C14.4077 259.458 12.3259 259.043 10.3285 257.992C8.55798 257.058 7.05988 255.78 5.84714 254.204C1.11291 248.056 -0.709449 241.142 0.574631 233.469C0.918349 231.4 1.70955 229.487 3.03254 227.833C4.38147 226.147 6.06115 224.992 8.2856 224.889C9.08328 224.85 9.30378 224.545 9.39457 223.793C9.99122 219.077 11.3012 214.576 13.5711 210.374C16.0809 205.723 19.4467 201.858 23.954 199.043C24.609 198.634 24.9916 198.148 25.238 197.396C26.2692 194.282 27.6895 191.351 29.6545 188.711C30.0955 188.114 30.5884 187.693 31.3472 187.466C54.078 180.669 74.3314 169.196 92.8663 154.564C108.431 142.28 122.069 128.154 133.295 111.764C139.995 101.977 145.585 91.613 149.424 80.3538C150.916 75.9889 151.934 71.4878 153.328 67.1034C157.219 54.9037 162.44 43.3331 169.736 32.7613C175.592 24.278 182.57 16.8972 191.189 11.1508C199.16 5.839 207.876 2.45992 217.403 1.29897C226.592 0.176939 235.594 1.18223 244.427 3.87382C254.797 7.03238 264.148 12.1691 272.839 18.5705C283.429 26.3729 292.56 35.6734 300.725 45.9469C313.676 62.2391 323.761 80.2111 331.867 99.3311C339.779 117.984 345.558 137.292 349.403 157.184C351.323 167.114 352.73 177.108 353.625 187.174C354.52 197.201 354.851 207.254 354.572 217.313C354.209 230.33 352.912 243.263 350.272 256.033C347.03 271.742 342.069 286.834 334.072 300.824C328.754 310.124 322.289 318.491 314.052 325.418C305.777 332.377 296.445 337.196 285.79 339.31C276.431 341.165 267.138 340.705 257.922 338.37C246.255 335.412 235.847 329.886 226.21 322.798C214.588 314.256 204.763 303.911 196.001 292.509C195.152 291.4 194.27 290.304 193.491 289.143C188.919 282.294 182.668 277.352 175.586 273.363C167.803 268.972 159.411 266.248 150.695 264.465C139.975 262.273 129.125 261.702 118.224 262.046C112.996 262.208 107.782 262.675 102.581 263.278C102.192 263.323 101.79 263.349 101.375 263.699V263.673ZM92.1205 268.434C90.4667 267.656 88.6962 267.305 86.7961 267.163L88.8908 269.109C91.1282 271.755 93.3656 274.407 95.1166 277.417C95.9468 278.837 96.725 280.29 97.5227 281.723C100.201 280.446 102.056 276.982 99.6758 273.623C99.0402 272.728 98.2944 271.943 97.4254 271.275C95.8106 270.042 94.066 269.044 92.1205 268.434ZM9.33621 235.169C9.23244 233.152 9.18056 231.128 8.99249 229.124C8.88873 228.028 8.48664 226.886 7.3582 226.497C6.37245 226.153 5.66555 227.042 4.91975 227.574C4.79653 227.665 4.69277 227.788 4.58252 227.898C3.11036 229.383 2.33213 231.232 1.83926 233.216C1.01563 236.563 1.17776 239.91 1.94302 243.23C2.68234 246.421 3.7978 249.476 5.85363 252.103C7.35172 254.47 9.31675 256.299 11.9433 257.363C13.6489 258.057 15.3545 258.109 17.0407 257.285C18.2405 256.701 18.2664 256.63 17.4817 255.521C13.8175 250.352 11.3791 244.651 10.0366 238.463C9.79666 237.361 9.7772 236.219 9.32972 235.162L9.33621 235.169ZM22.9293 222.093C23.1109 220.381 22.7088 218.695 22.6893 216.989C22.6439 213.312 22.7088 209.641 23.2536 205.996C23.3508 205.328 23.4027 204.653 23.2017 203.992C22.8644 202.857 22.1575 202.526 21.068 202.993C20.3352 203.304 19.7904 203.862 19.2586 204.426C16.1263 207.76 13.9148 211.645 12.4232 215.951C10.2831 222.132 9.75775 228.475 10.6397 234.929C11.2753 239.566 12.5205 244.035 14.6347 248.237C16.0549 251.428 17.9292 254.334 20.1601 257.006C25.3742 263.245 31.7622 267.604 39.9271 268.959C41.7819 269.271 43.6756 269.446 45.5758 269.141C45.5109 268.655 45.2061 268.525 44.9856 268.337C42.3007 266.106 39.9207 263.589 37.8194 260.807C30.4457 251.059 26.1719 239.994 23.9086 228.067C23.5324 226.082 23.4481 224.059 22.9358 222.1L22.9293 222.093ZM87.6586 269.751C86.822 268.758 85.7973 267.967 84.8635 267.072C84.2863 266.514 83.7221 266.391 82.9179 266.56C77.5481 267.682 72.2432 269.063 66.9706 270.555C66.5945 270.665 66.1211 270.607 65.8617 271.132C68.2158 274.226 69.3118 277.864 70.0641 281.658C70.5505 284.104 70.6802 286.581 70.985 289.046C70.9656 289.668 70.9266 290.285 70.9266 290.907C70.9266 296.485 70.2003 301.946 68.2742 307.212C68.0277 307.887 67.9045 308.62 67.8267 309.333C67.1068 316.13 72.2432 323.492 78.9295 324.99C85.6611 326.494 92.1918 324.38 96.4721 318.491C99.4618 314.379 100.739 309.67 101.064 304.689C101.453 298.774 100.519 293.028 98.5344 287.45C96.1543 280.783 92.6782 274.784 87.6521 269.744L87.6586 269.751ZM69.0848 215.601C69.0394 215.244 69.0265 214.875 68.9551 214.524C67.7943 209.025 67.2884 203.466 67.3533 197.85C67.4635 188.452 69.2924 179.437 73.1835 170.856C73.3456 170.499 73.6505 170.175 73.5337 169.65C73.0603 169.928 72.6258 170.181 72.1913 170.441C60.0703 177.724 47.4046 183.795 33.8634 187.972C30.7051 188.945 30.7051 188.958 29.0319 191.844C28.9022 192.071 28.766 192.291 28.6493 192.518C25.0629 199.458 23.7594 206.878 24.0188 214.622C23.6816 217.216 24.0253 219.804 24.3171 222.366C25.4975 232.762 28.4482 242.634 33.4613 251.856C36.5548 257.544 40.3163 262.714 45.2386 266.981C47.9235 269.31 50.9002 271.145 54.2725 272.338C55.1999 272.663 56.056 272.682 56.9898 272.358C58.5982 271.787 60.226 271.262 61.8603 270.775C73.4818 267.331 85.2461 264.504 97.2633 262.791C98.3982 262.629 99.5915 262.668 100.85 262.104C100.201 261.663 99.7082 261.313 99.2023 260.982C96.5499 259.25 94.0466 257.324 91.7054 255.19C81.4133 245.799 74.5778 234.261 70.57 220.984C70.0317 219.207 69.5777 217.398 69.0848 215.608V215.601ZM176.001 257.927C175.975 258.375 176.254 258.712 176.442 259.069C179.114 264.283 181.98 269.387 185.054 274.368C194.101 289.052 204.588 302.556 217.474 314.107C225.697 321.481 234.66 327.779 244.738 332.39C253.344 336.327 262.326 338.798 271.833 339.161C279.376 339.446 286.704 338.376 293.812 335.814C305.375 331.638 314.74 324.393 322.639 315.105C329.889 306.577 335.343 296.965 339.695 286.698C344.261 275.925 347.412 264.724 349.604 253.251C349.981 251.279 350.525 249.321 350.519 247.284C350.655 246.681 350.824 246.078 350.921 245.468C352.263 236.907 353.022 228.294 353.308 219.642C353.71 207.351 353.327 195.08 352.043 182.842C350.96 172.529 349.352 162.301 347.192 152.164C342.283 129.107 334.818 106.932 324.364 85.7953C316.238 69.3734 306.497 54.0022 294.389 40.194C286.386 31.0686 277.54 22.89 267.384 16.1967C256.924 9.30239 245.698 4.30836 233.175 2.60909C225.444 1.5584 217.779 1.90215 210.204 3.87382C199.147 6.75349 189.769 12.5453 181.63 20.4514C174.503 27.3782 168.867 35.4205 164.217 44.1698C158.666 54.6053 154.736 65.6571 151.804 77.085C148.14 91.3471 146.279 105.875 145.708 120.559C145.287 131.338 145.52 142.111 146.447 152.871C147.31 162.84 148.633 172.743 150.488 182.576C154.619 204.504 161.13 225.693 170.203 246.084C171.993 250.099 173.75 254.139 176.014 257.927H176.001ZM170.112 269.206C170.333 269.342 170.54 269.504 170.774 269.608C176.124 272.034 181.085 275.095 185.664 278.785C186.014 279.311 186.507 279.648 187.058 279.927C186.714 279.414 186.591 278.779 186.072 278.416C183.588 274.349 181.098 270.282 178.796 266.112C171.014 252.019 164.639 237.302 159.522 222.041C152.265 200.398 147.537 178.224 145.475 155.478C144.781 147.838 144.34 140.191 144.333 132.519C144.333 128.27 144.307 124.022 144.547 119.774C144.722 116.674 144.891 113.567 145.144 110.474C145.397 107.373 145.715 104.286 146.097 101.205C146.305 99.5321 145.008 98.5658 143.438 99.156C142.465 99.5191 141.83 100.22 141.331 101.115C134.112 113.989 125.137 125.54 114.949 136.177C103.502 148.136 90.791 158.565 76.8736 167.535C76.2446 167.937 75.7517 168.404 75.408 169.079C71.4714 176.745 69.3832 184.917 68.7022 193.478C68.4169 197.104 68.4039 200.723 68.7022 204.342C69.0135 208.058 69.4286 211.762 70.4078 215.374C70.5051 215.88 70.5829 216.392 70.7061 216.898C73.3002 227.509 77.8594 237.179 84.5716 245.812C89.228 251.805 94.7535 256.825 101.167 260.885C102.497 261.728 103.826 262.13 105.409 261.877C108.476 261.384 111.583 261.183 114.683 261.079C119.281 260.936 123.879 260.651 128.496 260.891C133.049 261.125 137.589 261.358 142.115 261.903C148.711 262.701 155.17 264.095 161.513 266.067C164.431 266.975 167.252 268.149 170.112 269.212V269.206ZM91.8805 324.263C95.9338 323.634 99.7017 322.395 103.204 320.45C107.705 317.946 110.558 314.178 111.764 309.171C113.606 301.511 112.75 294.014 110.033 286.743C108.444 282.495 102.769 280.673 98.7419 282.806C98.2555 283.066 98.1906 283.306 98.3852 283.779C98.8392 284.875 99.2996 285.978 99.6823 287.106C102.147 294.28 103.152 301.609 101.673 309.126C100.454 315.287 97.6978 320.54 92.2566 324.075C92.1399 324.153 92.0037 324.205 91.874 324.27L91.8805 324.263ZM101.103 280.381C103.042 279.434 104.702 278.493 106.252 277.378C107.225 276.677 108.042 275.828 108.625 274.751C110.428 271.417 108.366 267.344 104.611 266.936C102.237 266.683 99.8574 266.741 97.4967 267.098C96.4267 267.26 95.3112 267.26 94.1049 267.837C95.9208 268.732 97.4708 269.653 98.8197 270.873C101.933 273.681 102.601 276.282 101.096 280.374L101.103 280.381Z" fill="#121212"/>
<path d="M70.4079 215.366C69.4286 211.754 69.0136 208.05 68.7023 204.334C68.3975 200.715 68.4104 197.089 68.7023 193.47C69.3832 184.909 71.4715 176.737 75.408 169.071C75.7582 168.396 76.2446 167.936 76.8737 167.527C90.7846 158.558 103.496 148.128 114.949 136.169C125.13 125.532 134.113 113.981 141.331 101.107C141.83 100.212 142.466 99.5113 143.438 99.1481C145.008 98.5644 146.298 99.5307 146.097 101.198C145.721 104.285 145.403 107.372 145.144 110.466C144.891 113.566 144.722 116.666 144.547 119.766C144.301 124.014 144.327 128.263 144.333 132.511C144.333 140.183 144.781 147.83 145.475 155.47C147.537 178.209 152.258 200.391 159.522 222.034C164.639 237.295 171.014 252.004 178.796 266.104C181.098 270.281 183.589 274.341 186.072 278.408C185.936 278.531 185.8 278.654 185.664 278.784C181.092 275.093 176.13 272.032 170.774 269.607C170.54 269.503 170.333 269.341 170.112 269.204C170.021 268.731 169.749 268.355 169.49 267.966C164.029 259.735 159.716 250.902 155.929 241.809C153.011 234.791 150.403 227.65 148.114 220.393C146.733 216.002 145.358 211.617 144.158 207.175C143.484 204.684 142.874 202.174 142.154 199.69C141.59 197.744 139.988 196.668 138.004 196.558C136.395 196.467 134.956 197.063 133.477 197.485C128.756 198.815 124.041 200.196 119.32 201.532C113.01 203.316 106.686 205.067 100.37 206.837C95.1491 208.303 89.922 209.763 84.7079 211.248C79.9347 212.603 75.1746 213.991 70.4079 215.36V215.366ZM115.993 146.39C115.928 147.804 116.557 148.297 117.912 147.856C119.268 147.415 120.403 146.585 121.486 145.696C126.933 141.189 131.382 135.838 134.897 129.702C135.513 128.626 136.039 127.491 136.259 126.246C136.564 124.527 135.825 123.859 134.177 124.481C132.906 124.961 131.791 125.727 130.747 126.589C126.116 130.422 122.264 134.943 118.963 139.943C118.023 141.37 117.154 142.849 116.525 144.445C116.278 145.074 116.025 145.696 115.993 146.384V146.39ZM105.357 157.215C105.688 157.137 106.148 157.072 106.583 156.917C109.021 156.028 111.006 154.51 112.601 152.474C112.789 152.234 112.964 151.968 113.081 151.683C113.301 151.151 113.476 150.554 113.087 150.055C112.705 149.555 112.108 149.542 111.524 149.711C108.483 150.6 106.07 152.338 104.332 154.99C104.222 155.159 104.151 155.36 104.086 155.555C103.755 156.534 104.203 157.176 105.35 157.208L105.357 157.215Z" fill="#FA4616"/>
<path d="M175.999 257.923C173.736 254.135 171.978 250.094 170.188 246.08C161.109 225.689 154.604 204.5 150.473 182.571C148.618 172.739 147.295 162.842 146.433 152.867C145.505 142.107 145.272 131.334 145.693 120.555C146.264 105.871 148.125 91.3428 151.79 77.0806C154.721 65.6527 158.651 54.601 164.202 44.1655C168.859 35.4162 174.488 27.3739 181.615 20.4471C189.748 12.5409 199.125 6.74918 210.189 3.8695C217.764 1.89784 225.43 1.55409 233.16 2.60478C245.677 4.30405 256.909 9.29807 267.37 16.1924C277.526 22.8857 286.372 31.0707 294.374 40.1897C306.482 53.9979 316.23 69.3691 324.349 85.791C334.81 106.928 342.268 129.109 347.177 152.16C349.337 162.303 350.945 172.531 352.028 182.837C353.312 195.076 353.695 207.34 353.293 219.637C353.007 228.289 352.255 236.909 350.906 245.464C350.809 246.073 350.64 246.676 350.504 247.28C350.011 247.286 349.823 247.656 349.59 248.006C347.644 250.983 345.582 253.889 343.37 256.671C342.287 258.033 341.438 259.603 340.011 260.679C340.037 260.42 340.03 260.16 340.089 259.907C343.403 245.827 344.914 231.526 345.199 217.088C345.387 207.755 344.953 198.435 344.149 189.135C343.254 178.803 341.769 168.556 339.745 158.386C335.361 136.296 328.59 114.964 319.109 94.5273C312.06 79.3377 303.635 64.9717 293.22 51.8186C285.36 41.8954 276.572 32.9192 266.235 25.5384C258.245 19.8309 249.658 15.3363 240.106 12.8523C231.539 10.6277 222.926 10.2709 214.262 12.275C204.346 14.571 195.974 19.6299 188.645 26.5502C183.366 31.5377 179.079 37.31 175.357 43.5169C168.826 54.4129 164.494 66.1846 161.407 78.4556C157.464 94.1187 155.862 110.067 155.583 126.178C155.486 131.931 155.726 137.683 156.018 143.43C156.452 151.874 157.334 160.267 158.56 168.627C160.843 184.238 164.39 199.564 169.17 214.598C174.17 230.339 180.48 245.522 188.314 260.07C191.291 265.595 194.56 270.94 197.913 276.238C197.413 276.336 197.011 276.167 196.635 275.836C196.006 275.298 195.37 274.773 194.702 274.28C189.423 270.349 184.598 265.9 179.916 261.289C179.028 260.413 178.165 259.518 177.277 258.649C176.92 258.299 176.628 257.8 175.993 257.929L175.999 257.923Z" fill="#DBF505"/>
<path d="M70.4009 215.366C75.1675 213.991 79.9277 212.61 84.7009 211.254C89.915 209.769 95.1421 208.31 100.363 206.844C106.679 205.073 113.003 203.316 119.313 201.538C124.034 200.202 128.749 198.827 133.47 197.491C134.955 197.076 136.388 196.473 137.997 196.564C139.981 196.674 141.583 197.751 142.147 199.696C142.867 202.174 143.477 204.684 144.151 207.181C145.351 211.624 146.726 216.015 148.107 220.399C150.396 227.657 152.997 234.797 155.922 241.815C159.709 250.908 164.022 259.742 169.483 267.972C169.742 268.361 170.021 268.737 170.105 269.211C167.245 268.147 164.424 266.973 161.506 266.065C155.163 264.093 148.704 262.706 142.108 261.901C137.582 261.35 133.042 261.123 128.489 260.89C123.872 260.65 119.274 260.935 114.676 261.078C111.582 261.175 108.469 261.376 105.402 261.875C103.819 262.128 102.49 261.726 101.16 260.883C94.753 256.816 89.2211 251.797 84.5647 245.81C77.8524 237.171 73.2933 227.507 70.6992 216.897C70.576 216.397 70.4982 215.878 70.4009 215.373V215.366Z" fill="#C20000"/>
<path d="M69.0917 215.599C69.5846 217.389 70.0386 219.198 70.5769 220.975C74.5847 234.252 81.4137 245.79 91.7123 255.181C94.0535 257.315 96.5568 259.241 99.2093 260.973C99.7151 261.304 100.214 261.654 100.856 262.095C99.5984 262.659 98.3986 262.62 97.2702 262.782C85.253 264.495 73.4887 267.322 61.8672 270.766C60.2329 271.253 58.6051 271.778 56.9967 272.349C56.0693 272.68 55.2068 272.66 54.2794 272.329C50.9136 271.143 47.9368 269.301 45.2455 266.972C40.3232 262.705 36.5617 257.542 33.4682 251.847C28.4616 242.625 25.5108 232.753 24.324 222.357C24.0322 219.795 23.6885 217.214 24.0257 214.613C24.2397 214.658 24.4537 214.749 24.4862 214.97C24.6418 216.027 25.1995 216.909 25.6795 217.823C27.9039 222.058 31.4967 224.076 36.2115 224.303C38.1182 224.393 39.8951 223.894 41.6851 223.388C46.9511 221.903 52.2236 220.437 57.4896 218.945C61.3613 217.843 65.2265 216.708 69.0982 215.592L69.0917 215.599Z" fill="#A4BB00"/>
<path d="M175.995 257.924C176.63 257.794 176.922 258.294 177.279 258.644C178.167 259.513 179.03 260.408 179.918 261.284C184.601 265.895 189.426 270.344 194.705 274.275C195.366 274.768 196.008 275.293 196.637 275.831C197.02 276.156 197.416 276.331 197.915 276.233C199.66 278.737 201.365 281.266 203.162 283.731C211.385 295.01 220.672 305.29 231.807 313.799C239.226 319.467 247.203 324.124 256.081 327.134C264.181 329.883 272.476 331.057 281.017 330.059C289.085 329.112 296.484 326.316 303.268 321.874C311.109 316.737 317.367 310.024 322.594 302.313C329.585 292.007 334.332 280.67 337.815 268.768C338.6 266.09 339.287 263.385 340.02 260.694C341.447 259.617 342.296 258.047 343.379 256.685C345.591 253.903 347.647 250.997 349.599 248.02C349.832 247.67 350.02 247.3 350.513 247.294C350.513 249.33 349.975 251.283 349.599 253.261C347.407 264.734 344.255 275.935 339.689 286.708C335.338 296.975 329.883 306.593 322.633 315.115C314.74 324.397 305.376 331.648 293.806 335.824C286.705 338.386 279.37 339.456 271.827 339.171C262.32 338.808 253.338 336.33 244.732 332.4C234.654 327.795 225.691 321.491 217.468 314.117C204.588 302.565 194.095 289.062 185.048 274.378C181.974 269.391 179.108 264.287 176.436 259.079C176.248 258.715 175.969 258.378 175.995 257.937V257.924Z" fill="#A4BB00"/>
<path d="M69.084 215.597C65.2188 216.719 61.3536 217.854 57.4754 218.95C52.2094 220.442 46.9369 221.908 41.6709 223.393C39.8809 223.899 38.104 224.405 36.1973 224.307C31.4825 224.074 27.8897 222.057 25.6653 217.828C25.1854 216.92 24.6276 216.032 24.472 214.974C24.4395 214.754 24.2255 214.663 24.0115 214.618C23.7586 206.874 25.0556 199.454 28.642 192.514C28.7587 192.287 28.8949 192.06 29.0246 191.84C30.7043 188.954 30.6978 188.941 33.8561 187.968C47.3973 183.791 60.063 177.72 72.184 170.437C72.612 170.177 73.053 169.924 73.5264 169.646C73.6432 170.171 73.3384 170.495 73.1762 170.852C69.2851 179.433 67.4562 188.448 67.346 197.846C67.2811 203.469 67.787 209.027 68.9478 214.52C69.0192 214.871 69.0386 215.24 69.0775 215.597H69.084ZM41.4698 191.626C41.6449 191.619 41.8525 191.626 42.06 191.593C42.3129 191.548 42.5658 191.477 42.8123 191.405C47.9551 189.907 52.7542 187.663 57.242 184.731C57.7154 184.427 58.111 184.005 58.5325 183.622C58.7336 183.441 58.8244 183.194 58.7336 182.922C58.6298 182.617 58.3574 182.617 58.098 182.598C57.6246 182.565 57.1771 182.669 56.7231 182.792C51.5414 184.193 46.7683 186.502 42.261 189.382C41.7876 189.686 41.3531 190.069 40.9445 190.458C40.6981 190.692 40.3608 190.971 40.6008 191.386C40.7889 191.71 41.1456 191.6 41.4763 191.626H41.4698ZM63.6948 180.555C63.604 179.984 63.2408 179.802 62.7998 179.828C61.9373 179.88 61.2304 180.289 60.6597 180.918C60.4651 181.132 60.2835 181.424 60.4976 181.754C60.6856 182.04 60.9775 182.163 61.2888 182.131C62.1318 182.04 62.8776 181.715 63.4289 181.041C63.5521 180.885 63.617 180.684 63.6883 180.548L63.6948 180.555Z" fill="#DBF505"/>
<path d="M87.6576 269.753C92.6836 274.792 96.1597 280.791 98.5398 287.459C100.531 293.03 101.458 298.783 101.069 304.698C100.745 309.685 99.4672 314.388 96.4775 318.5C92.1972 324.389 85.6666 326.51 78.9349 324.998C72.2486 323.5 67.1058 316.139 67.8322 309.342C67.91 308.628 68.0332 307.895 68.2796 307.221C70.2122 301.954 70.9321 296.493 70.9321 290.916C70.9321 290.293 70.971 289.677 70.9905 289.054C71.3731 289.002 71.4379 288.717 71.5287 288.406C71.7817 287.511 72.054 286.622 72.3653 285.747C74.8622 278.755 79.4083 273.566 86.0557 270.239C86.5616 269.986 87.0544 269.681 87.664 269.753H87.6576ZM72.6896 309.147C72.7415 308.583 72.7934 308.012 72.8453 307.448C72.8777 307.072 72.8906 306.663 72.4107 306.598C71.9503 306.533 71.8271 306.903 71.7363 307.279C71.4315 308.505 71.4444 309.75 71.5482 310.989C71.9049 315.179 74.5055 319.641 80.1412 320.335C81.4512 320.497 82.7158 320.277 83.9675 319.92C84.2723 319.829 84.5382 319.622 84.4603 319.245C84.3825 318.869 84.0647 318.798 83.734 318.837C83.3773 318.876 83.0206 318.947 82.6639 319.012C78.9479 319.699 75.4458 317.968 73.7597 314.589C72.9036 312.883 72.5988 311.06 72.6961 309.167L72.6896 309.147Z" fill="#D0E6EC"/>
<path d="M22.9233 222.097C23.4357 224.056 23.52 226.086 23.8961 228.064C26.153 239.991 30.4333 251.056 37.807 260.804C39.9082 263.586 42.2883 266.103 44.9732 268.334C45.2002 268.522 45.4985 268.652 45.5634 269.138C43.6632 269.443 41.776 269.261 39.9147 268.956C31.7498 267.601 25.3618 263.242 20.1477 257.003C17.9167 254.337 16.0425 251.425 14.6222 248.234C14.9724 247.93 14.7843 247.599 14.7 247.242C13.9477 243.837 13.6754 240.406 14.298 236.956C15.1281 232.338 16.9634 228.161 20.0504 224.607C20.874 223.66 21.6198 222.538 22.9169 222.09L22.9233 222.097Z" fill="#A3B0B3"/>
<path d="M91.8818 324.261C92.0115 324.196 92.1477 324.144 92.2645 324.066C97.7056 320.532 100.462 315.278 101.681 309.117C103.166 301.6 102.161 294.271 99.6901 287.098C99.301 285.976 98.847 284.873 98.393 283.771C98.1985 283.297 98.2633 283.057 98.7497 282.798C102.771 280.664 108.452 282.486 110.041 286.734C112.758 294.011 113.614 301.503 111.772 309.162C110.566 314.169 107.712 317.944 103.212 320.441C99.7031 322.387 95.9416 323.625 91.8883 324.255L91.8818 324.261Z" fill="#A3B0B3"/>
<path d="M22.9362 222.095C21.6392 222.543 20.8934 223.658 20.0698 224.611C16.9828 228.166 15.141 232.342 14.3173 236.96C13.7012 240.411 13.9671 243.842 14.7194 247.247C14.7972 247.603 14.9918 247.934 14.6416 248.239C12.5339 244.036 11.2822 239.568 10.6467 234.93C9.76469 228.477 10.29 222.127 12.4301 215.953C13.9217 211.646 16.1397 207.768 19.2656 204.428C19.7974 203.864 20.3421 203.306 21.075 202.994C22.1645 202.534 22.8649 202.858 23.2086 203.993C23.4032 204.655 23.3578 205.329 23.2605 205.997C22.7157 209.642 22.6509 213.313 22.6963 216.991C22.7157 218.696 23.1178 220.383 22.9362 222.095ZM21.1398 207.502C21.0815 207.204 21.2047 206.789 20.7442 206.627C20.3681 206.497 20.0308 206.607 19.7455 206.866C19.5185 207.074 19.285 207.282 19.0775 207.509C17.8388 208.903 16.879 210.479 16.1073 212.172C15.7635 212.918 15.4977 213.702 15.2512 214.481C15.141 214.831 15.2512 215.207 15.6079 215.428C15.9776 215.661 16.3018 215.525 16.5872 215.272C16.7817 215.103 16.9568 214.909 17.1514 214.74C18.4809 213.54 19.2332 211.938 20.1087 210.434C20.621 209.545 21.0555 208.605 21.1333 207.502H21.1398Z" fill="#D0E6EC"/>
<path d="M87.6578 269.752C87.0482 269.674 86.5618 269.979 86.0494 270.238C79.402 273.565 74.8494 278.747 72.3591 285.745C72.0478 286.621 71.7819 287.509 71.5225 288.405C71.4317 288.722 71.3733 289.008 70.9842 289.053C70.6794 286.589 70.5497 284.111 70.0633 281.666C69.311 277.878 68.215 274.24 65.8608 271.139C66.1202 270.614 66.5937 270.673 66.9698 270.562C72.2423 269.071 77.5473 267.689 82.9171 266.567C83.7212 266.398 84.279 266.522 84.8626 267.079C85.7965 267.968 86.8147 268.766 87.6578 269.758V269.752Z" fill="#A3B0B3"/>
<path d="M9.32393 235.166C9.77141 236.223 9.79087 237.365 10.0308 238.467C11.3733 244.655 13.8117 250.356 17.4759 255.525C18.2606 256.634 18.2347 256.699 17.0349 257.289C15.3487 258.113 13.6431 258.054 11.9375 257.367C9.31745 256.303 7.34593 254.474 5.84784 252.107C5.41332 249.422 5.02421 246.763 5.49115 244.006C5.91269 241.535 6.56121 239.187 7.76747 237.014C8.1501 236.32 8.46139 235.49 9.32393 235.172V235.166Z" fill="#A3B0B3"/>
<path d="M9.33317 235.165C8.47063 235.483 8.15934 236.313 7.77671 237.007C6.57045 239.18 5.91544 241.528 5.50039 243.999C5.03345 246.762 5.42256 249.415 5.85707 252.1C3.80125 249.473 2.68579 246.418 1.94647 243.227C1.18121 239.913 1.01259 236.56 1.8427 233.213C2.33558 231.222 3.11381 229.38 4.58597 227.895C4.69621 227.785 4.79349 227.661 4.9232 227.571C5.669 227.039 6.37589 226.15 7.36165 226.494C8.49009 226.883 8.89217 228.025 8.99594 229.121C9.18401 231.131 9.22941 233.148 9.33965 235.165H9.33317ZM3.32783 233.408C3.42511 234.017 3.20461 234.523 3.67154 234.744C4.21631 235.003 4.53408 234.523 4.82592 234.193C5.85707 233.012 6.6353 231.696 6.79744 230.1C6.83635 229.717 6.9466 229.231 6.43426 229.03C5.99326 228.855 5.61712 229.043 5.32528 229.374C4.24225 230.593 3.54832 231.994 3.33431 233.414L3.32783 233.408Z" fill="#D0E6EC"/>
<path d="M101.103 280.383C102.608 276.284 101.94 273.683 98.8271 270.881C97.4782 269.662 95.9282 268.741 94.1123 267.846C95.3186 267.268 96.434 267.268 97.5041 267.106C99.8647 266.75 102.245 266.691 104.618 266.944C108.373 267.346 110.436 271.426 108.633 274.759C108.049 275.836 107.232 276.686 106.259 277.386C104.709 278.508 103.043 279.442 101.11 280.389L101.103 280.383Z" fill="#A3B0B3"/>
<path d="M92.1271 268.431C94.0727 269.041 95.8172 270.04 97.4321 271.272C98.3011 271.933 99.0469 272.718 99.6824 273.62C102.069 276.973 100.208 280.443 97.5293 281.72C96.7317 280.287 95.9534 278.834 95.1233 277.414C93.3723 274.405 91.1349 271.752 88.8975 269.106C89.9156 268.613 90.9987 268.405 92.1271 268.438V268.431Z" fill="#D0E6EC"/>
<path d="M92.1174 268.438C90.9889 268.405 89.9124 268.613 88.8877 269.106C88.1873 268.457 87.4934 267.809 86.793 267.16C88.6931 267.303 90.4636 267.653 92.1174 268.431V268.438Z" fill="#A3B0B3"/>
<path d="M185.654 278.788C185.79 278.665 185.926 278.541 186.062 278.412C186.581 278.775 186.704 279.41 187.048 279.923C186.49 279.65 186.004 279.307 185.654 278.781V278.788Z" fill="#C20000"/>
<path d="M115.986 146.392C116.018 145.704 116.271 145.082 116.518 144.453C117.147 142.851 118.009 141.378 118.956 139.951C122.257 134.951 126.109 130.424 130.74 126.597C131.784 125.735 132.899 124.969 134.171 124.489C135.818 123.867 136.557 124.528 136.252 126.254C136.032 127.499 135.506 128.634 134.89 129.71C131.382 135.839 126.933 141.197 121.479 145.704C120.402 146.593 119.261 147.423 117.905 147.864C116.55 148.305 115.915 147.806 115.986 146.398V146.392Z" fill="#FCF6F5"/>
<path d="M105.349 157.216C104.194 157.184 103.747 156.542 104.084 155.563C104.149 155.368 104.22 155.167 104.331 154.998C106.069 152.339 108.488 150.601 111.523 149.719C112.106 149.55 112.697 149.563 113.086 150.063C113.468 150.556 113.3 151.152 113.079 151.691C112.962 151.976 112.787 152.242 112.599 152.482C111.004 154.518 109.019 156.036 106.581 156.925C106.153 157.08 105.686 157.145 105.355 157.223L105.349 157.216Z" fill="#FCF6F5"/>
<path d="M340.013 260.694C339.28 263.385 338.586 266.09 337.808 268.768C334.332 280.67 329.578 292.007 322.587 302.313C317.36 310.024 311.102 316.737 303.261 321.874C296.477 326.316 289.078 329.118 281.01 330.059C272.469 331.058 264.174 329.884 256.074 327.134C247.196 324.118 239.219 319.461 231.8 313.799C220.665 305.296 211.378 295.016 203.155 283.731C201.358 281.266 199.653 278.737 197.908 276.234C194.555 270.935 191.287 265.59 188.31 260.065C180.476 245.517 174.166 230.327 169.165 214.593C164.386 199.553 160.838 184.233 158.556 168.622C157.336 160.262 156.448 151.869 156.013 143.425C155.722 137.678 155.475 131.932 155.579 126.173C155.858 110.062 157.46 94.1137 161.403 78.4506C164.49 66.1796 168.822 54.4079 175.352 43.5119C179.075 37.305 183.368 31.5327 188.641 26.5452C195.969 19.6249 204.341 14.566 214.257 12.27C222.922 10.2659 231.534 10.6226 240.101 12.8473C249.654 15.3313 258.24 19.8259 266.23 25.5334C276.568 32.9142 285.355 41.8904 293.215 51.8136C303.631 64.9667 312.055 79.3327 319.104 94.5223C328.586 114.965 335.357 136.29 339.741 158.381C341.758 168.551 343.243 178.798 344.144 189.13C344.948 198.43 345.383 207.751 345.195 217.083C344.903 231.521 343.398 245.822 340.084 259.902C340.026 260.149 340.032 260.415 340.006 260.674L340.013 260.694ZM222.396 210.299C226.742 209.541 229.478 206.914 231.041 202.906C232.144 200.084 232.663 197.14 232.89 194.13C233.207 189.863 232.825 185.641 232.04 181.451C230.568 173.635 227.851 166.3 223.369 159.678C221.437 156.831 219.206 154.256 216.372 152.258C213.375 150.151 210.23 149.431 206.553 150.442C198.103 152.758 189.49 154.256 180.703 154.567C174.989 154.768 169.321 154.392 163.744 153.037C161.74 152.55 159.807 151.817 157.803 151.117C157.803 151.636 157.771 152.044 157.803 152.453C158.361 158.329 159.029 164.192 159.95 170.029C160.482 173.402 160.91 176.794 161.811 180.102C161.688 180.575 161.844 181.023 161.934 181.477C163.608 189.915 165.586 198.275 167.972 206.544C170.469 215.209 173.342 223.744 176.675 232.124C177.895 235.185 180.729 236.203 183.654 234.692C184.399 234.31 185.035 233.797 185.625 233.194C187.078 231.709 188.582 230.288 190.158 228.939C197.746 222.467 206.229 217.427 215.315 213.374C217.669 212.323 220.049 211.331 222.409 210.312L222.396 210.299ZM168.283 152.706C168.737 152.803 169.191 152.933 169.652 152.985C175.644 153.692 181.643 153.582 187.635 152.926C194.231 152.2 200.716 150.883 207.124 149.145C208.635 148.737 210.159 148.607 211.728 148.938C214.394 149.502 216.631 150.851 218.667 152.583C222.357 155.722 225.049 159.639 227.273 163.887C230.827 170.652 232.948 177.871 233.856 185.446C234.297 189.11 234.355 192.781 233.888 196.452C233.473 199.767 232.539 202.925 231.035 205.909C229.277 208.717 226.709 210.299 223.596 211.408C211.592 215.702 200.535 221.74 190.794 230.042C187.279 233.038 184.082 236.366 181.319 240.101C180.67 240.977 180.567 241.703 181.046 242.65C181.721 243.993 182.285 245.387 182.927 246.749C188.342 258.203 194.477 269.242 201.702 279.664C209.569 291.008 218.518 301.379 229.135 310.245C236.502 316.4 244.557 321.452 253.526 324.954C262.3 328.385 271.347 329.942 280.777 328.885C285.868 328.314 290.732 326.959 295.388 324.851C304.824 320.577 312.301 313.903 318.579 305.796C325.473 296.891 330.343 286.909 334.105 276.357C338.366 264.397 340.908 252.042 342.458 239.466C343.346 232.26 343.748 225.016 343.975 217.764C344.118 213.049 344.014 208.334 343.846 203.613C343.69 199.105 343.437 194.604 343.048 190.109C342.652 185.517 342.095 180.938 341.537 176.366C341.329 174.68 341.219 172.974 340.7 171.339C340.538 168.226 339.844 165.185 339.274 162.136C335.376 141.343 329.41 121.166 321.018 101.721C314.176 85.8703 305.933 70.8039 295.615 56.9244C287.502 46.0089 278.358 36.0857 267.436 27.9072C259.492 21.9597 250.925 17.2122 241.34 14.4427C233.609 12.2116 225.762 11.5242 217.811 12.8018C208.81 14.2482 200.82 18.0358 193.751 23.7433C186.358 29.7102 180.521 37.0067 175.774 45.1982C168.309 58.0724 163.789 72.0167 160.819 86.5124C159.438 93.2705 158.452 100.087 157.816 106.955C157.414 111.288 157.019 115.627 157.032 119.985C156.973 120.232 156.863 120.478 156.856 120.725C156.714 128.482 156.688 136.245 157.187 143.989C157.284 145.481 157.356 146.979 157.473 148.477C157.524 149.165 157.654 149.735 158.445 150.053C161.63 151.318 164.872 152.31 168.29 152.693L168.283 152.706Z" fill="#121212"/>
<path d="M41.4621 191.629C41.1313 191.603 40.7746 191.713 40.5866 191.389C40.3466 190.974 40.6773 190.695 40.9303 190.461C41.3453 190.072 41.7734 189.69 42.2468 189.385C46.754 186.505 51.5272 184.196 56.7089 182.795C57.1629 182.672 57.6103 182.568 58.0838 182.601C58.3367 182.62 58.6156 182.62 58.7193 182.925C58.8101 183.197 58.7193 183.444 58.5183 183.625C58.1032 184.008 57.7011 184.43 57.2277 184.735C52.7464 187.66 47.9473 189.91 42.798 191.408C42.5516 191.48 42.2987 191.551 42.0457 191.596C41.8447 191.629 41.6307 191.622 41.4556 191.629H41.4621Z" fill="#FCF6F5"/>
<path d="M63.6959 180.562C63.6246 180.698 63.5597 180.899 63.4365 181.055C62.8852 181.729 62.1394 182.053 61.2964 182.144C60.9851 182.177 60.6932 182.053 60.5052 181.768C60.2911 181.437 60.4727 181.145 60.6673 180.931C61.2315 180.302 61.9449 179.894 62.8074 179.842C63.2484 179.816 63.6116 179.997 63.7024 180.568L63.6959 180.562Z" fill="#FCF6F5"/>
<path d="M72.6934 309.143C72.5961 311.043 72.9009 312.859 73.757 314.565C75.4432 317.944 78.9452 319.676 82.6612 318.988C83.0179 318.923 83.3746 318.852 83.7313 318.813C84.0556 318.781 84.3734 318.846 84.4577 319.222C84.5355 319.598 84.2761 319.812 83.9648 319.896C82.7196 320.259 81.455 320.473 80.1385 320.311C74.5028 319.624 71.9022 315.155 71.5455 310.965C71.4418 309.733 71.4288 308.481 71.7336 307.255C71.8244 306.886 71.9476 306.516 72.4081 306.574C72.888 306.639 72.875 307.048 72.8426 307.424C72.7972 307.988 72.7388 308.559 72.6869 309.123L72.6934 309.143Z" fill="#121212"/>
<path d="M21.1394 207.5C21.0616 208.602 20.627 209.543 20.1147 210.431C19.2392 211.943 18.4869 213.545 17.1574 214.738C16.9629 214.913 16.7878 215.101 16.5932 215.27C16.3014 215.523 15.9771 215.659 15.6139 215.425C15.2573 215.205 15.147 214.829 15.2573 214.479C15.4972 213.694 15.7696 212.909 16.1133 212.17C16.8851 210.483 17.8449 208.907 19.0836 207.506C19.2911 207.273 19.5246 207.072 19.7515 206.864C20.0369 206.605 20.3741 206.488 20.7503 206.624C21.2042 206.786 21.0875 207.202 21.1459 207.5H21.1394Z" fill="#FCF6F5"/>
<path d="M3.32777 233.41C3.54179 231.996 4.23571 230.588 5.31875 229.369C5.61058 229.045 5.98673 228.85 6.42773 229.025C6.94006 229.226 6.82981 229.719 6.7909 230.095C6.62877 231.691 5.85054 233.008 4.81938 234.188C4.53403 234.519 4.21625 234.999 3.66501 234.739C3.19807 234.519 3.41857 234.013 3.32129 233.403L3.32777 233.41Z" fill="#FCF6F5"/>
<path d="M231.036 205.908C232.54 202.924 233.474 199.766 233.889 196.452C234.349 192.781 234.298 189.11 233.857 185.445C232.942 177.87 230.822 170.651 227.274 163.887C225.043 159.639 222.358 155.721 218.668 152.582C216.632 150.85 214.394 149.508 211.729 148.937C210.16 148.6 208.635 148.736 207.124 149.145C200.723 150.876 194.232 152.199 187.636 152.926C181.65 153.587 175.651 153.691 169.653 152.984C169.192 152.932 168.738 152.803 168.284 152.705C166.773 149.929 165.534 147.024 164.328 144.112C161.092 136.322 158.706 128.261 157.019 119.991C157.006 115.633 157.402 111.294 157.804 106.961C158.44 100.093 159.425 93.2764 160.807 86.5183C163.777 72.0162 168.297 58.0783 175.762 45.2041C180.509 37.0126 186.346 29.7226 193.739 23.7492C200.808 18.0418 208.798 14.2541 217.799 12.8078C225.757 11.5301 233.597 12.2176 241.328 14.4487C250.919 17.2181 259.486 21.9656 267.424 27.9131C278.352 36.0916 287.496 46.0148 295.603 56.9303C305.921 70.8098 314.163 85.8762 321.005 101.727C329.391 121.165 335.364 141.342 339.261 162.142C339.832 165.19 340.526 168.232 340.688 171.345C340.442 171.527 340.163 171.676 339.949 171.897C336.285 175.684 332.394 179.232 328.334 182.592C327.932 182.929 327.575 183.305 326.985 183.214C326.453 179.485 325.921 175.756 325.376 172.026C325.299 171.495 325.364 170.664 324.579 170.794C323.801 170.93 324.138 171.715 324.222 172.234C324.877 176.262 325.467 180.296 325.895 184.356C324.17 186.094 322.101 187.391 320.117 188.773C313.126 193.624 305.733 197.762 297.86 201.018C293.268 202.918 288.599 204.585 283.793 205.843C279.403 206.991 274.967 207.912 270.453 208.489C266.711 208.969 262.975 209.41 259.201 209.358C255.945 209.313 252.696 209.456 249.434 209.112C247.08 208.865 244.706 208.69 242.365 208.34C238.545 207.769 234.765 206.933 231.029 205.914L231.036 205.908ZM262.891 104.841C262.852 104.108 262.949 103.394 263.151 102.687C263.546 101.306 264.221 100.93 265.569 101.345C266.374 101.591 267.094 102.006 267.755 102.499C268.832 103.31 269.908 104.127 270.913 105.016C275.07 108.687 278.994 112.61 282.976 116.469C287.373 120.724 291.822 124.914 296.725 128.591C298.216 129.713 299.76 130.764 301.491 131.497C302.931 132.107 304.416 132.541 306.012 132.463C308.113 132.366 309.773 131.114 310.428 129.123C310.843 127.865 310.875 126.581 310.59 125.29C309.565 120.627 308.171 116.074 306.472 111.612C299.591 93.5424 289.5 77.4188 276.984 62.7415C270.408 55.03 262.956 48.3562 254.311 43.0378C251.043 41.0273 247.69 39.1788 243.974 38.1087C242.333 37.6352 240.679 37.2526 238.935 37.525C236.846 37.8557 235.854 39.1334 236.198 41.2348C236.373 42.3114 236.768 43.3232 237.216 44.322C238.396 46.9812 239.868 49.4782 241.341 51.9817C244.194 56.8525 247.035 61.7362 249.382 66.8794C250.582 69.5191 251.827 72.1524 252.515 74.9866C253.215 77.8728 252.333 78.8003 249.434 78.2619C247.91 77.9766 246.406 77.5744 244.888 77.2696C242.404 76.7637 239.92 76.3227 237.352 76.7832C234.135 77.3604 232.644 79.0597 232.722 82.3155C232.728 82.6787 232.787 83.0354 232.825 83.3987C233.052 85.7724 233.649 88.0878 234.084 90.4227C234.388 92.0506 234.836 93.6526 234.849 95.326C234.862 97.2976 234.174 98.1602 232.261 98.6077C231.308 98.8282 230.329 98.9709 229.382 99.2369C227.637 99.7298 226.729 100.956 226.548 102.733C226.489 103.297 226.515 103.861 226.593 104.432C227.261 109.27 228.98 113.752 231.263 118.026C236.126 127.132 242.605 134.967 250.362 141.751C252.742 143.833 255.193 145.843 258.111 147.154C261.879 148.846 264.577 147.614 265.835 143.677C265.9 143.483 265.939 143.275 265.991 143.074C266.555 140.999 266.607 138.878 266.49 136.75C266.108 129.817 264.843 122.988 263.942 116.113C263.449 112.37 263.092 108.609 262.898 104.841H262.891ZM175.716 80.279C175.677 80.947 175.82 81.2843 176.118 81.3362C176.572 81.4075 176.76 81.0832 176.89 80.733C176.962 80.5384 176.962 80.3244 177.007 80.1233C178.868 71.8281 181.858 63.9609 186.138 56.606C189.686 50.5159 193.953 45.003 199.375 40.4435C203.96 36.591 209.031 33.6659 214.985 32.4661C215.237 32.4142 215.49 32.3558 215.73 32.265C215.99 32.1677 216.165 31.9667 216.106 31.6683C216.048 31.3829 215.821 31.2143 215.555 31.2078C215.25 31.2013 214.939 31.2662 214.634 31.3246C212.436 31.7397 210.322 32.4336 208.285 33.3546C201.32 36.4937 195.775 41.4164 191.054 47.3184C184.141 55.9445 179.582 65.7509 176.696 76.3746C176.332 77.7236 176.021 79.0856 175.723 80.292L175.716 80.279Z" fill="#FA4616"/>
<path d="M231.029 205.912C234.765 206.924 238.545 207.761 242.365 208.338C244.706 208.688 247.08 208.863 249.434 209.11C252.696 209.454 255.945 209.311 259.201 209.356C262.975 209.408 266.711 208.967 270.453 208.487C274.967 207.91 279.403 206.989 283.793 205.841C288.599 204.583 293.268 202.916 297.86 201.016C305.733 197.76 313.126 193.628 320.117 188.77C322.108 187.389 324.177 186.092 325.895 184.354C326.032 185.534 326.181 186.714 326.297 187.901C326.894 193.985 327.283 200.082 327.497 206.191C327.724 212.722 327.614 219.253 327.199 225.772C326.79 232.231 326.155 238.672 325.104 245.067C323.878 252.538 322.244 259.906 319.916 267.112C317.276 275.284 313.924 283.119 309.196 290.318C304.851 296.933 299.669 302.725 292.795 306.824C288.145 309.6 283.151 311.351 277.723 311.766C271.296 312.253 265.135 311.157 259.227 308.588C258.896 308.445 258.572 308.27 258.196 308.29C257.975 308.303 257.781 308.374 257.677 308.569C257.534 308.828 257.586 309.094 257.807 309.269C258.047 309.457 258.325 309.613 258.611 309.723C259.772 310.171 260.926 310.625 262.106 311.014C268.566 313.141 275.129 313.842 281.854 312.441C290.278 310.69 297.146 306.253 303.022 300.15C307.51 295.487 311.083 290.162 314.079 284.435C318.502 275.984 321.57 267.04 323.814 257.792C325.571 250.541 326.784 243.192 327.588 235.766C328.126 230.766 328.502 225.759 328.671 220.745C328.879 214.376 328.853 208.001 328.528 201.625C328.217 195.47 327.724 189.335 326.998 183.212C327.588 183.296 327.938 182.92 328.347 182.59C332.407 179.23 336.298 175.682 339.962 171.895C340.169 171.674 340.455 171.525 340.701 171.343C341.22 172.978 341.337 174.69 341.538 176.37C342.095 180.942 342.647 185.521 343.049 190.113C343.438 194.601 343.684 199.102 343.846 203.616C344.015 208.331 344.119 213.053 343.976 217.768C343.756 225.019 343.347 232.264 342.459 239.47C340.915 252.045 338.373 264.401 334.106 276.36C330.344 286.919 325.474 296.901 318.58 305.799C312.302 313.913 304.825 320.58 295.389 324.854C290.732 326.962 285.875 328.324 280.777 328.889C271.341 329.939 262.301 328.383 253.526 324.958C244.557 321.456 236.509 316.397 229.135 310.249C218.519 301.382 209.569 291.012 201.703 279.668C194.478 269.246 188.343 258.2 182.928 246.753C182.286 245.398 181.722 243.997 181.047 242.654C180.567 241.707 180.678 240.981 181.32 240.105C184.082 236.369 187.273 233.042 190.795 230.046C200.529 221.744 211.586 215.706 223.597 211.412C226.71 210.303 229.272 208.721 231.036 205.912H231.029Z" fill="#C20000"/>
<path d="M161.814 180.094C160.913 176.786 160.485 173.394 159.953 170.021C159.032 164.191 158.364 158.327 157.806 152.445C157.767 152.043 157.806 151.634 157.806 151.109C159.81 151.816 161.743 152.542 163.747 153.029C169.324 154.384 174.992 154.76 180.706 154.559C189.487 154.248 198.099 152.756 206.556 150.434C210.233 149.429 213.385 150.142 216.375 152.25C219.209 154.248 221.446 156.823 223.372 159.67C227.854 166.292 230.571 173.627 232.043 181.443C232.834 185.632 233.21 189.855 232.893 194.122C232.672 197.132 232.147 200.076 231.044 202.898C229.481 206.906 226.738 209.532 222.399 210.291C222.237 210.051 221.997 209.986 221.731 209.98C219.851 209.954 218.191 209.215 216.634 208.281C213.171 206.199 210.382 203.377 207.989 200.141C205.544 196.833 203.586 193.26 202.023 189.459C201.277 187.65 198.741 186.177 196.802 186.865C193.047 188.188 189.201 189.239 185.434 190.523C181.75 191.787 178.047 191.911 174.311 190.983C170.647 190.075 167.586 188.181 165.141 185.263C164.129 184.056 163.358 182.727 162.657 181.339C162.43 180.891 162.333 180.334 161.808 180.081L161.814 180.094ZM201.64 166.941C202.12 177.298 205.129 186.917 210.713 195.718C212.276 198.176 214.118 200.414 216.388 202.275C217.6 203.267 218.904 204.091 220.409 204.571C223.145 205.433 225.558 204.649 227.263 202.333C228.074 201.237 228.593 200.005 228.976 198.701C229.845 195.731 230.046 192.676 229.832 189.621C229.177 180.489 226.518 171.954 221.9 164.048C220.091 160.948 217.964 158.081 215.155 155.785C213.943 154.793 212.639 153.963 211.135 153.496C208.326 152.62 205.895 153.444 204.189 155.85C203.398 156.959 202.885 158.204 202.516 159.501C201.822 161.914 201.718 164.398 201.64 166.947V166.941ZM189.214 157.394C185.758 157.283 182.593 157.964 179.454 158.814C178.151 159.164 176.892 159.651 175.764 160.396C175.161 160.799 174.506 161.369 174.642 162.135C174.772 162.874 175.492 163.25 176.25 163.412C177.301 163.646 178.345 163.899 179.441 163.944C182.612 164.067 185.725 163.626 188.786 162.919C190.576 162.504 192.392 162.031 193.955 160.941C194.623 160.474 195.33 159.988 195.22 159.151C195.097 158.198 194.13 158.016 193.352 157.744C193.255 157.711 193.145 157.737 193.047 157.711C191.731 157.361 190.395 157.368 189.221 157.407L189.214 157.394ZM169.292 162.375C169.389 162.375 169.597 162.381 169.804 162.375C170.874 162.323 171.516 161.96 171.678 161.33C171.879 160.539 171.523 160.02 170.485 159.417C169.078 158.6 167.547 158.522 165.997 158.671C165.388 158.73 164.765 158.95 164.59 159.677C164.428 160.338 164.856 160.773 165.316 161.103C166.464 161.934 167.735 162.452 169.298 162.388L169.292 162.375Z" fill="#D0E6EC"/>
<path d="M161.813 180.092C162.338 180.345 162.435 180.896 162.662 181.35C163.363 182.738 164.128 184.068 165.146 185.274C167.591 188.193 170.659 190.086 174.316 190.994C178.058 191.922 181.755 191.799 185.438 190.534C189.206 189.243 193.052 188.192 196.807 186.876C198.746 186.195 201.282 187.661 202.028 189.47C203.591 193.271 205.549 196.844 207.994 200.152C210.387 203.389 213.169 206.21 216.639 208.292C218.195 209.226 219.856 209.965 221.736 209.991C222.002 209.991 222.249 210.062 222.404 210.302C220.037 211.321 217.657 212.313 215.303 213.364C206.217 217.424 197.741 222.457 190.147 228.929C188.564 230.279 187.06 231.699 185.614 233.184C185.03 233.781 184.388 234.293 183.642 234.682C180.717 236.194 177.883 235.182 176.664 232.114C173.33 223.734 170.457 215.199 167.961 206.534C165.574 198.265 163.596 189.905 161.923 181.467C161.832 181.013 161.683 180.565 161.8 180.092H161.813Z" fill="#A3B0B3"/>
<path d="M157.024 120.004C158.704 128.273 161.09 136.329 164.333 144.124C165.539 147.037 166.784 149.936 168.289 152.718C164.871 152.335 161.628 151.343 158.444 150.078C157.653 149.761 157.523 149.19 157.471 148.502C157.355 147.011 157.283 145.512 157.186 144.014C156.687 136.264 156.706 128.507 156.855 120.75C156.855 120.503 156.966 120.257 157.03 120.01L157.024 120.004Z" fill="#C20000"/>
<path d="M262.893 104.846C263.087 108.614 263.444 112.376 263.937 116.118C264.838 122.993 266.103 129.816 266.486 136.756C266.602 138.883 266.551 141.004 265.986 143.079C265.934 143.28 265.889 143.481 265.831 143.682C264.579 147.626 261.875 148.851 258.107 147.159C255.188 145.849 252.737 143.838 250.357 141.756C242.601 134.972 236.128 127.137 231.258 118.031C228.975 113.764 227.256 109.275 226.588 104.437C226.511 103.866 226.485 103.296 226.543 102.738C226.725 100.967 227.626 99.7349 229.377 99.242C230.324 98.976 231.297 98.8398 232.257 98.6128C234.17 98.1653 234.864 97.3027 234.844 95.331C234.831 93.6642 234.384 92.0557 234.079 90.4278C233.644 88.0865 233.048 85.7775 232.821 83.4037C232.788 83.0405 232.73 82.6838 232.717 82.3206C232.639 79.0713 234.131 77.3655 237.347 76.7883C239.916 76.3278 242.399 76.7753 244.883 77.2747C246.401 77.5796 247.905 77.9882 249.429 78.267C252.328 78.8054 253.21 77.8779 252.51 74.9917C251.823 72.1575 250.584 69.5243 249.378 66.8845C247.03 61.7414 244.189 56.8576 241.336 51.9868C239.87 49.4833 238.392 46.9863 237.211 44.3271C236.77 43.3283 236.368 42.3165 236.193 41.2399C235.856 39.1385 236.842 37.8608 238.93 37.53C240.674 37.2512 242.328 37.6403 243.969 38.1138C247.685 39.1774 251.038 41.0324 254.306 43.0429C262.951 48.3612 270.403 55.0286 276.979 62.7466C289.495 77.4239 299.58 93.5475 306.467 111.617C308.166 116.072 309.561 120.632 310.585 125.295C310.871 126.586 310.832 127.87 310.423 129.128C309.768 131.119 308.108 132.365 306.007 132.468C304.418 132.546 302.933 132.112 301.487 131.502C299.755 130.769 298.212 129.718 296.72 128.596C291.817 124.919 287.368 120.729 282.971 116.475C278.989 112.616 275.066 108.698 270.909 105.021C269.903 104.132 268.827 103.315 267.75 102.504C267.089 102.005 266.369 101.596 265.565 101.35C264.216 100.935 263.541 101.311 263.146 102.692C262.945 103.393 262.847 104.113 262.886 104.846H262.893Z" fill="#FCF6F5"/>
<path d="M326.995 183.226C327.728 189.342 328.215 195.477 328.526 201.639C328.85 208.014 328.883 214.383 328.669 220.759C328.507 225.779 328.13 230.786 327.586 235.78C326.781 243.199 325.569 250.548 323.811 257.805C321.574 267.047 318.5 275.998 314.077 284.449C311.081 290.169 307.507 295.5 303.019 300.164C297.144 306.267 290.269 310.703 281.852 312.454C275.133 313.849 268.57 313.155 262.104 311.027C260.924 310.638 259.769 310.184 258.608 309.737C258.323 309.626 258.044 309.471 257.804 309.283C257.584 309.114 257.538 308.842 257.675 308.582C257.778 308.388 257.973 308.316 258.193 308.303C258.576 308.284 258.894 308.459 259.225 308.602C265.126 311.176 271.287 312.266 277.721 311.78C283.149 311.371 288.142 309.613 292.792 306.837C299.66 302.738 304.848 296.947 309.193 290.331C313.921 283.132 317.274 275.297 319.914 267.125C322.242 259.913 323.87 252.545 325.102 245.08C326.152 238.685 326.788 232.245 327.197 225.785C327.612 219.267 327.715 212.736 327.495 206.205C327.287 200.095 326.892 193.998 326.295 187.915C326.178 186.728 326.029 185.548 325.893 184.367C325.465 180.307 324.881 176.273 324.22 172.245C324.135 171.733 323.798 170.942 324.576 170.805C325.361 170.669 325.296 171.499 325.374 172.038C325.919 175.767 326.444 179.496 326.983 183.226H326.995Z" fill="#121212"/>
<path d="M175.714 80.2844C176.012 79.0846 176.324 77.7161 176.687 76.367C179.573 65.7434 184.132 55.9369 191.045 47.3109C195.773 41.4153 201.311 36.4926 208.276 33.3471C210.313 32.4261 212.427 31.7321 214.625 31.317C214.93 31.2586 215.242 31.1873 215.546 31.2003C215.812 31.2068 216.039 31.3754 216.098 31.6608C216.156 31.9591 215.981 32.1602 215.721 32.2575C215.482 32.3483 215.229 32.4066 214.976 32.4585C209.029 33.6584 203.957 36.5834 199.366 40.436C193.944 44.9955 189.677 50.5083 186.129 56.5985C181.849 63.9533 178.866 71.8205 176.998 80.1158C176.953 80.3169 176.953 80.5309 176.881 80.7255C176.758 81.0822 176.564 81.4 176.11 81.3286C175.811 81.2832 175.669 80.946 175.707 80.2715L175.714 80.2844Z" fill="#121212"/>
<path d="M201.627 166.935C201.705 164.386 201.803 161.902 202.503 159.489C202.879 158.192 203.391 156.947 204.176 155.838C205.882 153.432 208.314 152.608 211.122 153.483C212.626 153.957 213.936 154.781 215.143 155.773C217.951 158.075 220.078 160.936 221.887 164.036C226.498 171.942 229.164 180.477 229.819 189.609C230.039 192.664 229.832 195.719 228.963 198.689C228.58 199.993 228.061 201.225 227.251 202.321C225.545 204.63 223.133 205.421 220.396 204.559C218.891 204.085 217.588 203.255 216.375 202.263C214.105 200.408 212.263 198.164 210.7 195.706C205.117 186.905 202.107 177.28 201.627 166.928V166.935ZM228.347 194.746C228.911 192.495 228.69 190.212 228.476 187.955C227.88 181.664 226.187 175.652 223.58 169.905C221.686 165.735 219.41 161.798 216.239 158.452C215.091 157.245 213.839 156.156 212.38 155.345C208.904 153.412 206.024 154.353 204.351 157.952C203.67 159.424 203.32 160.981 203.1 162.583C202.438 167.486 203.074 172.299 204.176 177.066C205.123 181.145 206.349 185.14 208.385 188.831C208.385 188.935 208.359 189.051 208.405 189.136C210.486 193.578 213.022 197.703 216.712 201.011C217.756 201.945 218.904 202.736 220.234 203.242C222.957 204.273 225.143 203.592 226.615 201.102C227.763 199.163 228.405 197.048 228.34 194.759L228.347 194.746Z" fill="#121212"/>
<path d="M189.201 157.392C190.374 157.353 191.717 157.346 193.027 157.697C193.124 157.723 193.241 157.697 193.332 157.729C194.11 158.008 195.076 158.19 195.199 159.137C195.31 159.967 194.603 160.46 193.935 160.927C192.365 162.023 190.549 162.49 188.766 162.905C185.705 163.618 182.592 164.059 179.421 163.93C178.325 163.884 177.287 163.631 176.23 163.398C175.478 163.229 174.751 162.859 174.622 162.12C174.485 161.361 175.141 160.784 175.744 160.382C176.872 159.629 178.13 159.15 179.434 158.799C182.573 157.95 185.744 157.269 189.194 157.379L189.201 157.392Z" fill="white"/>
<path d="M169.283 162.376C167.72 162.441 166.449 161.928 165.301 161.092C164.847 160.761 164.413 160.326 164.575 159.665C164.75 158.945 165.379 158.718 165.982 158.66C167.532 158.51 169.056 158.595 170.47 159.405C171.507 160.009 171.864 160.527 171.663 161.319C171.501 161.948 170.859 162.311 169.789 162.363C169.581 162.376 169.38 162.363 169.276 162.363L169.283 162.376Z" fill="#FCF6F5"/>
<path d="M208.394 188.828C206.357 185.131 205.132 181.136 204.185 177.063C203.076 172.303 202.44 167.484 203.108 162.58C203.322 160.985 203.679 159.422 204.36 157.95C206.027 154.35 208.912 153.41 212.389 155.342C213.848 156.153 215.099 157.236 216.247 158.449C219.425 161.802 221.701 165.739 223.589 169.903C226.196 175.649 227.888 181.661 228.485 187.953C228.699 190.21 228.919 192.493 228.355 194.743C227.882 194.691 227.59 195.003 227.305 195.294C226.669 195.937 225.871 196.274 225.054 196.605C222.454 197.642 219.918 197.331 217.408 196.28C214.282 194.97 211.876 192.772 209.794 190.151C209.405 189.658 209.198 188.913 208.4 188.822L208.394 188.828Z" fill="#DBF505"/>
<path d="M208.4 188.831C209.198 188.922 209.406 189.674 209.795 190.161C211.877 192.781 214.283 194.98 217.409 196.29C219.918 197.341 222.454 197.658 225.055 196.614C225.872 196.29 226.669 195.946 227.305 195.304C227.597 195.012 227.882 194.701 228.356 194.753C228.42 197.042 227.778 199.163 226.631 201.096C225.158 203.586 222.973 204.267 220.249 203.236C218.92 202.73 217.772 201.939 216.728 201.005C213.037 197.697 210.502 193.572 208.42 189.13C208.381 189.045 208.407 188.928 208.4 188.825V188.831Z" fill="#A4BB00"/>
</svg>
