<svg width="361" height="353" viewBox="0 0 361 353" fill="none" xmlns="http://www.w3.org/2000/svg">
<g clip-path="url(#clip0_432_562)">
<path d="M60.532 232.994C60.3131 232.569 59.9262 232.54 59.6166 232.404C42.2964 224.787 28.1626 213.141 16.8303 197.992C11.0723 190.295 6.50847 181.935 3.54548 172.737C1.67261 166.926 0.487421 160.966 0.478576 154.848C0.46752 148.199 1.97112 141.881 5.44489 136.154C6.46203 134.478 7.74894 132.966 8.91423 131.381C10.2011 129.631 11.5433 127.919 12.775 126.131C17.6528 119.048 24.4809 115.047 32.722 113.291C39.475 111.852 46.2235 112.173 52.961 113.453C53.2971 113.518 53.6265 113.685 53.9847 113.536C54.2103 113.317 54.0643 113.059 54.0511 112.823C53.9317 110.465 54.9267 108.996 57.1954 108.279C59.1589 107.658 61.1711 107.736 63.1788 107.974C64.5785 108.139 65.9516 108.455 67.3159 108.811C67.6233 108.891 67.997 109.181 68.2468 108.746C68.4282 108.428 68.1407 108.181 67.9903 107.934C66.7012 105.837 66.1904 103.568 66.427 101.108C66.6614 98.6963 67.5968 96.5989 69.2507 94.8757C69.8588 94.2411 69.8477 93.7936 69.5271 93.0366C66.7167 86.4151 70.6239 79.1947 77.6311 78.0526C78.4094 77.9256 78.6991 77.654 78.8716 76.877C80.3906 70.1063 87.106 66.5863 93.4521 69.2336C94.1973 69.5453 94.6218 69.5809 95.2542 68.9374C100.59 63.4871 109.213 64.9677 112.561 71.8586C112.711 72.1702 112.749 72.5488 113.185 72.8738C113.328 72.4063 113.481 71.981 113.592 71.5468C114.445 68.1982 115.584 64.961 117.216 61.9107C117.886 60.6595 118.646 59.4683 119.535 58.3618C120.203 57.5313 120.941 56.7743 121.822 56.1665C123.484 55.0198 125.207 54.6302 127.047 55.8036C127.619 55.287 127.747 54.5612 128.017 53.9267C133.368 41.3628 140.648 30.0858 150.22 20.3584C156.464 14.013 163.447 8.67169 171.533 4.89562C178.3 1.73627 185.36 -0.0448929 192.88 0.511721C197.468 0.850143 201.818 2.07915 205.731 4.52602C210.654 7.60521 215.235 11.1186 219.337 15.2954C224.372 20.4274 227.383 26.5947 229.221 33.4477C231.66 42.5339 231.89 51.7225 230.574 61.009C229.316 69.8948 226.817 78.4066 223.321 86.64C223.202 86.9205 223.069 87.1944 222.979 87.4838C222.861 87.8601 223.027 88.0516 223.419 88.0583C223.923 88.0672 224.425 88.0916 224.927 88.1028C233.376 88.3121 241.825 88.5147 250.271 88.7329C257.714 88.9243 265.157 89.1247 272.598 89.334C282.756 89.619 292.912 89.9262 303.068 90.2023C311.667 90.4361 320.266 90.6276 328.865 90.8547C335.652 91.0328 342.44 91.2065 349.226 91.4558C350.619 91.507 352.021 91.7653 353.365 92.2217C357.107 93.4908 359.194 96.187 359.983 99.9987C360.507 102.524 360.229 105.035 359.879 107.549C358.588 116.824 357.319 126.099 356.034 135.375C354.977 142.994 353.903 150.613 352.85 158.232C351.789 165.902 350.754 173.576 349.693 181.249C348.536 189.62 347.362 197.987 346.203 206.359C345.149 213.98 344.112 221.603 343.059 229.222C342.007 236.843 340.934 244.462 339.886 252.084C339.265 256.597 338.652 261.11 338.079 265.627C337.909 266.97 337.513 268.121 336.176 268.646C335.621 268.864 335.512 269.267 335.552 269.715C335.72 271.643 334.705 272.894 333.39 274.139C316.523 290.1 299.645 306.048 282.877 322.117C277.955 326.835 272.235 328.146 265.785 327.213C261.738 326.628 257.906 325.174 254.008 324.014C223.416 314.919 192.834 305.799 162.246 296.686C126.169 285.939 90.0911 275.194 54.0135 264.452C45.4407 261.898 36.8636 259.353 28.2908 256.797C27.7137 256.626 27.1189 256.467 26.5882 256.191C25.1178 255.43 24.3129 254.245 24.4765 252.509C24.6844 250.291 24.8701 248.072 25.0846 245.854C25.3367 243.26 26.5749 241.857 29.1112 241.207C39.2384 238.611 49.3634 236.011 59.4884 233.413C59.8289 233.326 60.1849 233.29 60.5254 232.989L60.532 232.994ZM215.675 13.5454C215.591 13.1825 215.328 13.0355 214.928 12.8641C215.14 13.3406 215.304 13.6923 215.666 13.8905C215.673 14.2423 215.775 14.5295 216.153 14.6364C217.811 17.5374 219.186 20.5654 220.221 23.747C223.182 32.8466 223.83 42.1643 222.76 51.6356C222.594 53.094 222.388 54.5478 222.143 55.9928C222.037 56.6095 222.178 56.9057 222.791 57.1038C224.606 57.6938 226.402 58.3484 228.204 58.9785C228.619 59.1232 229.017 59.3548 229.491 59.2412C229.791 58.7314 229.769 58.1636 229.822 57.6159C230.309 52.5641 230.408 47.5078 229.855 42.4537C229.13 35.7966 227.465 29.4312 224.078 23.5979C222.032 20.0756 219.531 16.9341 216.476 14.2467C216.208 14.0107 215.943 13.777 215.675 13.5409V13.5454ZM355.148 94.4816C355.09 94.3435 355.002 94.2456 354.84 94.2745C354.818 94.279 354.783 94.3792 354.794 94.3881C354.902 94.4838 355.022 94.5417 355.165 94.4593C355.037 94.7866 355.201 95.0493 355.362 95.3054C356.81 97.6053 357.281 100.15 357.35 102.833C357.418 105.587 356.928 108.279 356.583 110.984C355.948 115.949 355.234 120.903 354.553 125.861C353.987 129.967 353.414 134.072 352.855 138.18C352.218 142.84 351.592 147.5 350.96 152.16C350.402 156.268 349.847 160.376 349.29 164.484C349.051 166.238 348.801 167.988 348.569 169.743C348.538 169.976 348.461 170.27 348.746 170.406C349.005 170.528 349.233 170.368 349.436 170.217C349.96 169.834 350.19 169.284 350.279 168.663C351.086 162.854 351.897 157.045 352.693 151.234C353.345 146.476 353.969 141.711 354.626 136.953C355.276 132.247 355.959 127.542 356.618 122.836C357.403 117.227 358.223 111.625 358.935 106.008C359.247 103.545 359.34 101.043 358.438 98.6495C357.785 96.9195 356.897 95.3477 355.148 94.4794V94.4816ZM113.91 223.696C113.726 223.772 113.527 223.823 113.362 223.928C107.918 227.417 101.899 229.002 95.5218 229.383C87.5217 229.861 79.8003 228.423 72.2535 225.865C61.505 222.22 51.8731 216.547 43.0062 209.489C42.5795 209.149 42.2168 208.699 41.5225 208.534C39.6784 210.865 37.8122 213.243 35.9172 215.596C35.5346 216.071 35.7734 216.304 36.1162 216.574C37.3058 217.507 38.4755 218.469 39.685 219.375C49.5491 226.76 60.2468 232.437 72.2601 235.383C79.4155 237.137 86.6417 237.747 93.943 236.427C99.639 235.396 104.831 233.212 109.258 229.383C111.133 227.762 112.661 225.838 113.892 223.678C113.919 223.658 113.943 223.641 113.97 223.621C113.95 223.647 113.932 223.672 113.912 223.698L113.91 223.696ZM170.77 27.6522C171.582 27.1491 172.391 26.6392 173.207 26.1449C178.969 22.6472 185.048 20.1224 191.903 19.9487C193.289 19.9131 193.851 18.6818 192.98 17.504C192.159 16.3908 191.071 15.498 189.756 15.0928C187.483 14.3915 185.141 14.0931 182.757 14.4649C181.795 14.3358 180.856 14.5139 179.914 14.6698C174.664 15.5314 169.91 17.6688 165.437 20.4808C158.403 24.9048 152.484 30.5889 147.418 37.1548C136.437 51.3907 129.377 67.2631 127.938 85.4132C127.456 91.4848 128.055 97.4517 129.95 103.252C131.316 107.433 133.671 110.973 136.973 113.863C137.415 114.25 137.819 114.738 138.514 114.822C138.75 114.301 138.589 113.876 138.324 113.42C137.583 112.149 137.057 110.775 136.652 109.363C135.411 105.059 134.79 100.66 134.781 96.1759C134.761 87.6196 136.426 79.3662 139.261 71.3398C144.402 56.7787 152.358 44.0367 163.628 33.4655C165.875 31.3571 168.349 29.5358 170.77 27.65V27.6522ZM314.975 285.358C312.021 287.883 309.308 290.668 306.488 293.335C298.278 301.108 290.066 308.876 281.975 316.773C278.837 319.835 275.143 321.068 270.948 321.266C267.897 321.411 264.934 320.788 262.044 319.939C251.576 316.869 241.132 313.712 230.682 310.586C220.327 307.487 209.975 304.376 199.62 301.282C185.265 296.993 170.908 292.721 156.553 288.431C145.185 285.033 133.824 281.615 122.456 278.218C108.439 274.03 94.4162 269.86 80.3973 265.678C68.2093 262.043 56.0257 258.389 43.8332 254.771C40.4877 253.778 37.0626 253.288 33.5623 253.506C32.3992 253.578 31.2648 253.791 30.2344 254.357C29.7966 254.597 29.3301 254.929 29.4163 255.519C29.4981 256.08 30.0664 256.064 30.4732 256.216C30.6612 256.285 30.8558 256.343 31.0482 256.401C45.6972 260.758 60.3463 265.111 74.9932 269.474C88.2426 273.422 101.488 277.389 114.737 281.337C131.117 286.217 147.502 291.082 163.885 295.96C178.773 300.393 193.658 304.84 208.546 309.275C224.493 314.026 240.44 318.784 256.394 323.508C260.051 324.59 263.651 325.931 267.492 326.269C272.677 326.728 277.385 325.639 281.287 321.95C283.965 319.421 286.652 316.9 289.321 314.362C297.871 306.224 306.418 298.078 314.964 289.936C321.155 284.073 327.351 278.213 333.535 272.344C333.785 272.106 334.099 271.81 334.146 271.503C334.387 269.949 334.703 268.39 334.599 266.76C334.088 266.881 333.894 267.195 333.646 267.431C329.626 271.258 325.597 275.078 321.6 278.93C319.386 281.065 317.051 283.074 314.975 285.354V285.358ZM214.455 186.595C214.746 187.116 215.299 187.289 215.768 187.559C220.557 190.315 225.692 191.557 231.22 191.206C237.243 190.82 242.501 188.601 247.178 184.804C249.223 183.144 249.783 181.071 249.351 178.59C249.082 177.043 248.619 175.551 248.08 174.082C248.06 172.92 247.863 171.867 247.195 170.818C245.687 168.442 246.422 165.405 248.728 163.731C249.088 163.468 249.511 163.288 249.723 162.843C250.802 160.57 252.48 158.786 254.333 157.147C254.676 156.952 255.012 156.742 255.364 156.56C255.801 156.333 255.883 155.979 255.728 155.551C255.238 154.197 254.915 152.772 254.039 151.586C253.935 150.971 253.595 150.461 253.298 149.936C244.918 135.072 224.902 131.463 211.909 142.466C201.983 150.873 199.195 164.864 205.205 176.451C207.379 180.643 210.344 184.165 214.459 186.595H214.455ZM74.6526 244.572C73.3856 244.295 72.1142 244.035 70.8494 243.743C64.7465 242.336 58.8604 240.31 53.3435 237.304C52.3794 236.779 51.5436 236.677 50.4933 236.955C46.2677 238.079 42.0178 239.11 37.7834 240.192C34.8602 240.938 31.9415 241.695 29.0293 242.476C27.6673 242.842 26.6479 243.674 26.4246 245.124C26.2145 246.5 26.9376 247.542 27.9702 248.388C28.6512 248.944 29.4495 249.232 30.2742 249.479C44.3904 253.684 58.511 257.886 72.6228 262.105C86.2547 266.179 99.8778 270.285 113.51 274.359C129.647 279.182 145.791 283.98 161.928 288.798C174.983 292.696 188.031 296.619 201.086 300.518C220.982 306.46 240.88 312.389 260.777 318.325C264.204 319.347 267.64 320.278 271.275 320.082C274.968 319.884 278.245 318.753 280.962 316.116C284.876 312.323 288.843 308.584 292.783 304.817C300.184 297.737 307.583 290.655 314.984 283.572C321.305 277.554 327.629 271.538 333.947 265.516C334.201 265.273 334.449 265.01 334.634 264.714C335.231 263.77 335.004 263.078 333.964 262.697C333.493 262.526 332.996 262.43 332.507 262.31C328.114 261.232 323.72 260.157 319.326 259.079C302.095 254.851 284.863 250.623 267.633 246.388C242.789 240.281 217.948 234.165 193.103 228.06C175.091 223.634 157.077 219.221 139.069 214.782C138.257 214.581 137.517 214.586 136.707 214.797C131.164 216.251 125.616 217.683 120.059 219.074C119.27 219.272 118.713 219.64 118.228 220.272C116.634 222.36 114.94 224.373 113.401 226.502C111.502 229.127 109.154 231.224 106.423 232.9C105.746 233.315 105.596 233.662 105.868 234.454C106.819 237.211 106.058 239.66 103.8 241.486C102.533 242.51 101.101 243.233 99.5704 243.777C95.7805 245.124 91.8512 245.542 87.8622 245.636C83.42 245.74 79.033 245.222 74.6526 244.569V244.572ZM297.785 186.92C297.544 186.846 297.307 186.75 297.062 186.704C288.715 185.138 280.363 183.598 272.023 181.995C270.992 181.797 270.282 181.966 269.451 182.636C264.248 186.848 257.619 186.659 252.631 182.244C252.414 182.053 252.27 181.748 251.905 181.732C251.474 181.915 251.268 182.346 250.977 182.68C242.417 192.443 228.445 195.247 216.854 189.484C211.467 186.806 207.323 182.79 204.42 177.486C204.102 176.905 203.918 176.375 202.981 176.689C197.723 178.448 191.881 176.542 188.458 171.45C187.965 170.718 187.405 170.508 186.605 170.451C183.996 170.261 181.393 170.016 178.786 169.787C166.211 168.689 153.634 167.587 141.059 166.494C139.062 166.32 139.062 166.334 139.025 168.36C138.925 173.728 138.971 179.096 138.801 184.464C138.688 188.004 138.755 191.551 138.741 195.093C138.715 195.547 138.671 195.999 138.666 196.453C138.598 201.67 138.536 206.886 138.467 212.103C138.45 213.394 138.439 213.403 139.639 213.699C144.274 214.846 148.908 215.99 153.543 217.128C177.7 223.066 201.857 229 226.015 234.938C251.39 241.176 276.766 247.417 302.143 253.653C313.022 256.327 323.901 258.997 334.778 261.669C335.048 261.301 335.019 260.883 335.072 260.495C335.93 254.279 336.781 248.063 337.626 241.844C338.573 234.875 339.506 227.902 340.454 220.933C341.518 213.112 342.599 205.292 343.656 197.469C343.926 195.478 343.895 195.496 341.964 195.135C330.844 193.058 319.729 190.963 308.609 188.886C305.005 188.213 301.396 187.572 297.787 186.917L297.785 186.92ZM331.287 169.188C334.024 169.484 336.762 169.787 339.499 170.07C341.69 170.297 343.884 170.508 346.079 170.707C347.218 170.809 347.247 170.791 347.419 169.691C347.66 168.146 347.888 166.599 348.061 165.047C348.39 162.092 349.005 159.174 349.157 156.199C349.222 156.01 349.317 155.825 349.343 155.629C349.863 151.868 350.378 148.11 350.887 144.348C351.833 137.325 352.773 130.303 353.719 123.283C354.57 116.964 355.596 110.668 356.196 104.32C356.445 101.664 356.063 99.0458 354.8 96.6546C353.447 94.0919 351.382 92.6292 348.39 92.6203C346.279 92.6136 344.169 92.4778 342.057 92.4154C335.521 92.2217 328.987 92.0303 322.451 91.8521C314.154 91.625 305.858 91.4157 297.562 91.1953C290.473 91.0083 283.384 90.8213 276.295 90.6276C273.177 90.543 270.061 90.4272 266.944 90.3493C263.525 90.2624 260.104 90.1734 256.684 90.14C254.402 90.1177 253.893 90.6053 253.458 92.7984C253.177 94.2122 252.365 95.1161 250.91 95.4612C249.749 95.7373 248.613 95.557 247.463 95.5169C240.075 95.2608 232.686 95.0182 225.298 94.7688C222.97 94.6909 221.891 93.6511 221.736 91.3445C221.648 90.0264 221.274 89.521 220.016 89.2739C219.231 89.1203 218.419 89.0713 217.617 89.049C210.227 88.8375 202.835 88.6438 195.445 88.4412C189.01 88.2653 182.574 88.0761 176.139 87.9024C171.363 87.7733 166.587 87.653 161.809 87.5373C156.429 87.4059 151.047 87.2834 145.667 87.1632C144.964 87.1476 144.258 87.1231 143.568 87.3168C141.424 87.9158 140.075 89.8416 140.044 92.3954C139.969 98.8788 139.918 105.362 139.829 111.846C139.692 121.876 139.526 131.904 139.383 141.932C139.363 143.379 139.385 143.383 140.822 143.635C144.685 144.316 148.548 144.989 152.409 145.672C164.144 147.75 175.88 149.822 187.611 151.917C188.438 152.064 188.984 151.9 189.546 151.203C192.922 147.022 199.113 144.537 205.028 147.344C205.555 147.594 205.864 147.498 206.147 147.042C206.28 146.828 206.435 146.625 206.587 146.425C211.766 139.636 218.565 135.591 227.047 135.001C238.238 134.224 247.111 138.639 253.48 147.997C254.764 149.883 255.726 151.944 256.465 154.108C256.982 155.627 256.991 155.627 258.453 155.148C259.22 154.896 259.994 154.692 260.803 154.625C266.278 154.164 270.302 156.528 273.261 161.039C273.834 161.912 273.871 163.264 274.875 163.658C275.868 164.049 277.051 163.947 278.15 164.058C278.351 164.078 278.552 164.087 278.751 164.105C283.205 164.535 287.658 164.96 292.111 165.396C297.964 165.973 303.817 166.559 309.67 167.14C314.323 167.603 318.973 168.075 323.627 168.52C326.177 168.765 328.731 168.968 331.282 169.188H331.287ZM91.6058 212.074C96.0922 212.132 101.021 211.299 105.569 208.632C108.022 207.194 109.532 205.157 110.328 202.454C111.566 198.25 111.338 194.053 110.43 189.845C109.266 184.464 107.261 179.392 104.65 174.572C96.5522 159.63 85.085 147.945 70.6349 139.209C63.5525 134.927 56.0035 131.788 47.7779 130.532C42.2279 129.684 36.7397 129.827 31.4462 131.962C28.7618 133.044 26.3295 134.551 24.2908 136.646C23.3953 137.566 22.8115 138.601 22.6457 139.955C22.188 143.673 22.4688 147.338 23.1653 150.982C24.4743 157.82 27.1454 164.134 30.628 170.112C36.0543 179.423 42.9907 187.429 51.2185 194.345C57.1202 199.305 63.484 203.516 70.4735 206.742C76.9744 209.741 83.734 211.76 91.6058 212.076V212.074ZM112.121 82.1915C111.776 82.4877 111.652 82.5656 111.564 82.6747C107.984 87.0808 103.65 88.2519 98.3919 86.1457C97.6976 85.8674 97.4035 86.1012 96.9966 86.5309C95.3449 88.272 93.3415 89.3875 90.9623 89.6925C90.0933 89.8038 89.8103 90.1867 89.6599 91.0105C89.326 92.8385 88.519 94.4905 87.2188 95.8085C86.5068 96.5322 86.4183 97.062 86.8252 98.0217C89.5339 104.4 85.6975 111.487 78.9092 112.774C78.5709 112.839 78.206 112.821 77.9119 113.088C78.1176 113.618 78.6593 113.727 79.0684 113.981C81.5206 115.493 83.8489 117.169 85.9385 119.164C87.3293 120.493 88.6207 121.914 89.5538 123.617C90.8274 125.941 91.4068 128.257 89.1823 130.439C89.6754 130.84 90.0955 131.194 90.5267 131.53C95.3471 135.295 99.8291 139.434 103.953 143.958C112.192 153 118.874 163.045 123.221 174.565C125.868 181.581 127.464 188.814 127.354 196.366C127.281 201.329 126.414 206.116 124.362 210.671C123.283 213.067 122.1 215.396 120.535 217.484C120.8 217.689 121.003 217.649 121.196 217.6C126.255 216.293 131.308 214.969 136.373 213.688C137.026 213.524 137.348 213.265 137.315 212.582C137.298 212.23 137.351 211.874 137.355 211.52C137.461 202.705 137.563 193.893 137.671 185.078C137.771 177.025 137.879 168.972 137.985 160.917C138.118 150.786 138.242 140.656 138.408 130.526C138.423 129.595 138.127 129.076 137.335 128.613C134.217 126.779 131.604 124.352 129.346 121.517C124.311 115.201 121.943 107.802 120.736 99.9431C120.457 98.1241 120.338 96.2783 120.141 94.4126C119.858 94.4593 119.712 94.4682 119.573 94.5083C119.429 94.5506 119.296 94.6308 119.153 94.6753C117.432 95.2074 115.991 94.8089 114.819 93.4062C113.863 92.264 113.185 91.015 112.866 89.5299C112.367 87.1988 112.061 84.8566 112.121 82.1871V82.1915ZM138.655 110.69C138.739 104.614 138.861 98.5382 138.894 92.4622C138.916 88.488 141.448 85.8941 145.421 85.9676C147.936 86.0144 150.447 86.1056 152.962 86.1702C159.447 86.3327 165.932 86.4819 172.418 86.6556C178.651 86.8226 184.884 86.9918 191.118 87.2144C192.111 87.25 192.643 86.9205 193.15 86.07C198.196 77.585 202.039 68.6191 204.279 58.9607C205.999 51.5399 206.673 44.0701 205.698 36.498C205.13 32.094 203.89 27.9016 201.51 24.1033C201.002 23.2906 200.349 22.7518 199.467 22.4089C196.042 21.0775 192.502 20.9016 188.918 21.3803C182.804 22.1974 177.369 24.7623 172.29 28.1554C165.081 32.9712 159.078 39.0717 153.979 46.0606C144.013 59.7132 137.53 74.7774 136.11 91.8232C135.73 96.3874 135.902 100.936 136.875 105.427C137.264 107.228 137.667 109.04 138.657 110.695L138.655 110.69ZM44.0388 208.608C44.0123 208.861 44.229 208.946 44.3749 209.06C54.7387 217.168 66.0467 223.398 78.8782 226.559C86.0358 228.323 93.2664 228.924 100.572 227.608C105.956 226.637 110.927 224.654 115.192 221.14C121.883 215.63 125.136 208.318 125.992 199.802C126.649 193.256 125.76 186.866 123.971 180.581C121.079 170.417 116.141 161.293 109.833 152.908C100.594 140.629 89.3305 130.677 75.8732 123.283C66.8162 118.307 57.2838 114.816 46.9598 113.789C41.2572 113.222 35.601 113.507 30.0686 115.163C21.1509 117.835 14.7075 123.388 11.0259 132.024C8.75945 137.339 8.15358 142.96 8.45209 148.696C8.80146 155.442 10.4377 161.899 12.9541 168.133C19.0105 183.144 28.6601 195.496 40.7221 206.054C41.2306 206.499 41.7967 206.795 42.4402 206.958C45.527 207.739 48.0964 206.875 50.1638 204.464C52.532 201.706 52.1937 196.509 49.3567 194.225C43.2052 189.269 38.0244 183.311 33.4959 176.805C28.607 169.785 24.7153 162.275 22.6169 153.91C21.2482 148.451 20.6821 142.929 21.8762 137.361C23.5545 129.548 27.9901 124.031 35.5368 121.281C41.025 119.282 46.6834 119.28 52.3661 120.195C58.4756 121.181 64.2402 123.256 69.7593 126.035C81.8788 132.138 92.0414 140.687 100.548 151.254C106.421 158.55 111.153 166.519 114.045 175.505C115.991 181.549 116.995 187.717 116.011 194.069C114.947 200.949 111.705 206.439 105.589 209.97C101.607 212.27 97.2376 213.141 92.7003 213.223C86.8429 213.33 81.2066 212.116 75.7118 210.162C67.9107 207.387 60.8372 203.273 54.2257 198.308C53.8454 198.023 53.5292 197.591 52.9654 197.538C53.5867 204.201 49.9582 208.116 44.0366 208.612L44.0388 208.608ZM221.084 53.7285C221.367 53.6328 221.36 53.419 221.384 53.2253C222.351 45.7934 222.428 38.3682 221.035 30.9808C219.85 24.6933 217.72 18.7664 213.891 13.5788C208.613 6.42742 201.577 2.40198 192.716 1.68952C186.62 1.1997 180.792 2.40198 175.155 4.61731C166.98 7.83009 159.816 12.6927 153.541 18.7976C135.246 36.6004 124.382 58.1859 121.611 83.7256C120.703 92.1059 121.317 100.428 123.891 108.522C125.713 114.253 128.532 119.396 132.835 123.641C133.105 123.909 133.313 124.301 133.895 124.301C135.252 121.655 136.137 118.848 136.294 115.815C136.331 115.087 136.026 114.595 135.507 114.119C133.32 112.12 131.65 109.726 130.348 107.063C128.734 103.764 127.748 100.27 127.195 96.6457C126.065 89.2271 126.666 81.8821 128.269 74.6082C131.385 60.4702 137.585 47.795 146.459 36.4423C151.757 29.665 157.868 23.7559 165.209 19.2229C169.795 16.3908 174.673 14.3091 180.02 13.4296C190.302 11.7375 199.107 16.2995 203.671 25.6996C205.849 30.1837 206.866 34.9617 207.206 39.9044C207.525 44.5243 207.233 49.1197 206.545 53.6929C206.499 54.0001 206.333 54.343 206.676 54.7326C207.082 54.3408 207.432 53.9935 207.792 53.6617C209.225 52.3436 210.835 51.3128 212.741 50.872C215.918 50.1395 218.749 50.5937 220.787 53.4836C220.865 53.5927 221 53.6595 221.086 53.7285H221.084ZM271.695 180.683C272.215 180.819 272.593 180.944 272.98 181.017C276.929 181.761 280.883 182.496 284.832 183.237C294.857 185.118 304.885 186.998 314.911 188.883C324.195 190.629 333.48 192.386 342.765 194.131C344.047 194.372 344.098 194.303 344.273 193.016C344.936 188.102 345.613 183.193 346.281 178.281C346.513 176.576 346.761 174.874 346.964 173.167C347.099 172.027 347.07 172.025 345.92 171.84C345.821 171.824 345.721 171.811 345.622 171.8C341.321 171.381 337.02 170.96 332.717 170.548C327.015 170.001 321.31 169.473 315.609 168.914C308.91 168.255 302.212 167.567 295.512 166.899C289.462 166.296 283.412 165.695 277.36 165.114C276.626 165.042 275.872 164.844 275.065 165.147C275.134 165.61 275.222 166.055 275.258 166.503C275.324 167.327 275.636 167.83 276.569 167.748C277.323 167.681 277.672 168.175 277.761 168.845C278.092 171.357 277.913 173.804 276.677 176.075C276.109 177.117 276.045 177.134 274.784 176.952C274.369 176.892 273.999 176.838 273.739 177.288C273.106 178.372 272.447 179.443 271.698 180.686L271.695 180.683ZM111.851 202.289C112.882 200.851 113.443 199.512 113.917 198.132C115.644 193.102 115.522 187.975 114.651 182.823C113.611 176.671 111.42 170.916 108.504 165.437C102.27 153.728 93.7108 144.016 83.274 135.963C75.2961 129.807 66.6216 124.98 56.8394 122.368C50.9333 120.792 44.9653 120.206 38.9266 121.526C34.3716 122.522 30.4379 124.648 27.424 128.301C26.8314 129.021 25.9801 129.867 26.6169 130.851C27.2073 131.768 28.2731 131.516 29.2416 131.338C30.5484 131.098 31.6695 130.365 32.9343 130.04C37.7215 128.805 42.5618 128.582 47.4529 129.279C53.2794 130.109 58.825 131.891 64.1274 134.413C78.6836 141.342 90.4736 151.619 99.9021 164.686C104.634 171.245 108.36 178.339 110.695 186.138C112.015 190.547 112.729 195.006 112.114 199.622C112.008 200.414 111.661 201.182 111.851 202.289ZM187.854 153.289C187.525 153.02 187.124 152.957 186.729 152.89C182.967 152.24 179.202 151.606 175.443 150.938C163.874 148.883 152.307 146.812 140.738 144.753C139.389 144.512 139.339 144.552 139.323 146.031C139.281 149.929 139.266 153.826 139.215 157.724C139.188 159.748 139.091 161.77 139.062 163.793C139.042 165.178 139.071 165.178 140.486 165.283C141.088 165.327 141.691 165.356 142.29 165.41C147.697 165.882 153.101 166.363 158.505 166.835C162.359 167.171 166.213 167.494 170.067 167.834C175.272 168.293 180.475 168.77 185.68 169.222C186.096 169.257 186.56 169.417 186.983 169.048C186.671 167.977 186.308 166.928 186.072 165.851C185.915 165.132 185.581 164.751 184.86 164.804C183.938 164.873 183.602 164.292 183.458 163.544C182.967 160.981 183.255 158.508 184.367 156.141C184.635 155.573 185.015 155.242 185.68 155.464C186.567 155.76 187.111 155.44 187.383 154.549C187.514 154.122 187.874 153.779 187.854 153.291V153.289ZM34.6015 215.316C36.4368 212.998 38.1637 210.823 39.884 208.643C40.8216 207.456 40.711 207.61 39.7315 206.757C34.6214 202.304 29.9204 197.451 25.7104 192.125C19.2073 183.901 13.9579 174.968 10.5284 164.993C8.67321 159.599 7.58531 154.042 7.15192 148.375C6.80919 143.9 7.41505 139.48 8.66437 135.161C8.77935 134.763 8.99162 134.364 8.78819 133.872C8.37691 134.001 8.22213 134.271 8.04081 134.502C6.81582 136.056 5.78099 137.726 4.94958 139.527C1.88489 146.164 1.28787 153.158 2.0463 160.327C2.87107 168.124 5.31885 175.442 8.7307 182.444C14.4798 194.24 22.4666 204.322 32.1117 213.112C32.8923 213.822 33.6905 214.51 34.6015 215.316ZM194.023 87.2389C198.939 87.3881 203.766 87.4905 208.586 87.7087C209.8 87.7644 210.362 87.3057 210.879 86.266C213.338 81.321 215.507 76.2602 217.247 71.0125C218.636 66.8268 219.79 62.5787 220.568 58.2349C221.194 54.7505 218.846 51.8605 215.346 51.7247C214.118 51.6779 212.944 51.9184 211.825 52.4238C208.223 54.0491 206.052 56.8389 205.097 60.6728C202.875 69.5809 199.304 77.9256 194.66 85.8184C194.434 86.1992 194.114 86.5376 194.023 87.2389ZM113.355 82.6702C113.355 83.4807 113.317 84.2911 113.362 85.0993C113.454 86.7736 113.713 88.4234 114.242 90.0175C114.626 91.182 115.133 92.2885 116.099 93.09C117.059 93.8849 118.1 93.847 119.215 93.3884C120.283 92.9475 120.117 92.0792 120.112 91.2265C120.084 86.9651 120.393 82.7303 121.017 78.5134C122.049 71.5268 123.9 64.7584 126.335 58.1436C126.752 57.0081 126.607 56.7431 125.494 56.3802C124.997 56.2177 124.519 56.2399 124.015 56.3802C123.113 56.6296 122.377 57.1372 121.702 57.7584C120.194 59.1455 119.093 60.8376 118.166 62.6432C114.943 68.9218 113.483 75.6413 113.353 82.6725L113.355 82.6702ZM215.063 85.7249C216.416 85.7628 217.652 85.3264 218.793 84.6629C222.138 82.7214 224.518 79.9205 225.864 76.2736C226.302 75.0891 226.627 73.8624 226.963 72.6445C227.958 69.0309 228.745 65.3729 229.309 61.6658C229.422 60.9222 229.252 60.5548 228.504 60.3411C227.394 60.0249 226.318 59.5908 225.225 59.21C224.323 58.8961 223.419 58.5889 222.519 58.2705C222.03 58.0968 221.749 58.2393 221.69 58.7759C221.667 58.9763 221.617 59.1744 221.577 59.3726C219.859 67.8999 217.066 76.0643 213.34 83.9081C212.677 85.3041 212.796 85.5156 214.309 85.6782C214.558 85.7049 214.811 85.7093 215.06 85.7249H215.063ZM60.9345 108.991C59.7714 108.956 58.6216 109.031 57.5094 109.412C56.8836 109.626 56.3109 109.929 55.8576 110.432C55.1014 111.274 55.1124 112.246 55.3203 113.284C55.5104 114.235 56.3043 114.175 56.9521 114.346C66.175 116.771 74.6924 120.778 82.6969 125.939C83.0352 126.157 83.3625 126.398 83.7096 126.598C84.9479 127.311 86.2901 127.743 87.703 127.838C89.2752 127.943 89.7373 127.302 89.2685 125.815C88.9612 124.842 88.4659 123.964 87.8755 123.138C86.6947 121.482 85.2641 120.068 83.7207 118.761C79.7162 115.366 75.1701 112.917 70.3055 111.053C67.2916 109.9 64.1893 109.058 60.93 108.994L60.9345 108.991ZM261.469 179.018C263.547 178.991 265.363 178.043 266.91 176.469C267.448 175.923 267.602 175.427 267.421 174.601C266.884 172.149 267.01 169.76 268.918 167.828C269.199 167.543 269.307 167.302 269.195 166.904C267.93 162.373 263.426 159.723 258.791 162.048C258.136 162.377 258.013 162.865 258.033 163.524C258.154 167.474 257.356 171.254 255.812 174.87C255.529 175.534 255.583 175.979 256.04 176.493C257.453 178.078 259.171 178.978 261.466 179.016L261.469 179.018ZM199.507 152.757C196.716 152.833 194.684 154.235 193.163 156.515C192.924 156.874 192.86 157.199 193.103 157.628C194.423 159.944 193.988 162.244 192.805 164.421C192.343 165.27 192.387 165.891 192.84 166.648C193.499 167.748 194.282 168.729 195.35 169.442C196.922 170.491 198.629 170.949 200.513 170.54C201.249 170.379 201.555 169.906 201.433 169.119C201.417 169.019 201.402 168.919 201.382 168.819C200.48 164.25 200.845 159.75 202.127 155.306C202.691 153.354 202.592 153.167 200.577 152.85C200.23 152.797 199.876 152.788 199.505 152.757H199.507ZM222.501 89.1915C222.771 90.042 222.945 90.701 222.95 91.4269C222.957 92.8852 223.602 93.4841 225.106 93.5576C226.961 93.6467 228.816 93.6979 230.671 93.7691C235.786 93.9628 240.902 94.1766 246.017 94.3435C247.467 94.3903 248.927 94.5617 250.377 94.3547C251.567 94.1855 252.221 93.6088 252.356 92.4243C252.447 91.6206 252.653 90.868 253.106 89.9975C242.815 89.7259 232.71 89.4587 222.501 89.1893V89.1915ZM272.666 176.66C270.594 175.91 268.635 175.298 267.286 177.713C267.24 177.798 267.143 177.851 267.067 177.918C263.47 181.115 258.448 180.908 255.326 177.43C254.404 176.402 253.756 175.215 253.34 173.895C253.241 173.581 253.201 173.064 252.741 173.171C251.56 173.445 250.406 173.149 249.221 173C250.223 179.192 254.433 183.754 259.653 184.404C264.991 185.069 270.307 181.932 272.666 176.656V176.66ZM102.671 70.1063C101.304 70.0729 99.8667 70.6941 98.6108 71.8162C98.0513 72.315 97.8944 72.7402 98.3499 73.4727C99.7915 75.7905 100.324 78.3286 99.7584 81.0315C99.5992 81.7974 99.8888 82.1181 100.546 82.3897C102.854 83.3493 105.598 82.8439 107.405 81.0761C109.32 79.2036 109.875 76.4005 108.815 73.9447C107.787 71.5624 105.512 70.0596 102.671 70.1063ZM274.152 167.325C273.708 161.471 268.929 156.33 263.49 155.849C258.302 155.391 252.374 158.788 251.317 162.843C252.381 162.934 253.42 163.125 254.267 163.838C254.618 164.134 254.857 164.094 255.131 163.74C255.439 163.341 255.773 162.956 256.131 162.604C260.586 158.223 267.443 159.51 269.783 165.319C270.435 166.937 271.264 167.503 272.825 167.407C273.268 167.38 273.723 167.567 274.152 167.325ZM83.4576 102.412C83.4951 101.539 83.3382 100.705 83.0419 99.8852C82.8031 99.2262 82.4868 98.93 81.6975 99.1193C78.8848 99.7961 76.1982 99.382 73.7394 97.8458C73.0318 97.4049 72.6935 97.6209 72.2469 98.153C70.4934 100.253 70.2723 103.301 71.7383 105.656C73.2507 108.09 76.2093 109.212 78.9578 108.399C81.5648 107.627 83.4266 105.151 83.4576 102.412ZM74.6858 93.0099C75.6897 94.2033 76.8284 94.6218 78.1883 94.8066C82.4316 95.3811 85.2995 99.4065 84.5499 103.588C83.7959 107.789 79.787 110.496 75.5614 109.659C71.5083 108.856 68.9036 104.737 69.8102 100.587C70.0069 99.6826 70.3563 98.8499 70.8627 98.0884C71.1678 97.6276 71.0772 97.3916 70.573 97.1867C69.4541 96.7325 68.9854 96.8928 68.4392 98.0484C65.9583 103.283 68.7023 109.156 73.4542 111.042C78.4758 113.035 84.1364 110.59 86.007 105.409C87.8114 100.415 84.9811 94.6352 79.9396 93.09C78.2591 92.5757 76.5454 92.4132 74.6858 93.0077V93.0099ZM93.5096 77.1531C93.6666 81.793 97.6467 85.7338 102.244 85.9698C107.449 86.237 111.884 82.4743 112.362 77.3846C112.853 72.1435 109.258 67.6082 104.01 66.9358C100.913 66.5395 98.2813 67.6127 96.048 69.7568C95.8755 69.9238 95.5969 70.1286 95.7163 70.3668C95.9706 70.8722 96.4549 71.1973 96.906 71.4979C97.3195 71.7695 97.5008 71.2641 97.7307 71.0526C99.9198 69.0443 102.429 68.4098 105.273 69.2825C109.021 70.4336 111.219 74.4078 110.29 78.3041C109.404 82.0223 105.718 84.5271 101.963 83.9482C99.0884 83.5051 97.0762 81.9199 95.9994 79.2081C95.5483 78.0704 94.8341 77.3713 93.5096 77.1531ZM336.744 257.111C337.429 256.508 337.644 255.94 337.823 255.383C338.099 254.519 338.362 253.644 338.537 252.754C339.243 249.185 339.623 245.565 340.116 241.962C341.058 235.107 342.048 228.26 343.006 221.407C344.012 214.205 345.023 207.002 345.98 199.795C346.183 198.27 346.531 196.749 346.508 195.175C345.062 195.42 345.067 195.42 344.914 196.585C344.589 199.089 344.275 201.594 343.93 204.097C342.864 211.851 341.781 219.604 340.715 227.359C339.506 236.164 338.307 244.972 337.113 253.78C336.974 254.8 336.883 255.824 336.739 257.111H336.744ZM92.4659 74.0984C92.6096 73.5662 92.1785 73.3993 91.7473 73.2167C88.3 71.7428 84.017 73.9559 83.1944 77.6273C83.0595 78.2329 83.0817 78.647 83.7583 78.9587C86.394 80.1766 88.2293 82.1849 89.2464 84.9212C89.4786 85.5468 89.839 85.598 90.4139 85.4889C91.6323 85.2574 92.7113 84.7653 93.6312 83.9304C94.467 83.1734 94.4869 83.1534 93.8833 82.1915C92.8374 80.5239 92.3178 78.696 92.1917 76.7434C92.1364 75.8773 92.32 75.029 92.4681 74.0961L92.4659 74.0984ZM76.8417 91.4291C78.8097 91.3913 80.53 91.9033 82.1507 92.7717C83.7494 93.6266 83.8534 93.6155 84.7754 92.097C85.1447 91.4914 85.4211 90.8458 85.5847 90.1467C85.7174 89.5834 85.6533 89.2227 85.0408 88.9533C82.3365 87.7621 80.4349 85.7561 79.3448 82.9931C79.1347 82.4609 78.8318 82.3541 78.3055 82.4253C74.4492 82.9441 71.9174 87.4616 73.4387 91.0862C73.6775 91.654 73.9561 91.89 74.5686 91.7185C75.3469 91.5004 76.143 91.3935 76.8395 91.4291H76.8417ZM88.0789 85.3375C86.9048 81.4435 82.0048 77.6162 76.0368 79.7113C71.0484 81.4613 68.521 86.9406 70.3143 91.9145C72.0059 96.6078 77.253 99.3865 81.5758 97.8035C80.7688 96.7615 79.7317 96.3897 78.4802 96.2383C74.0888 95.7039 71.1568 91.6161 71.9793 87.3035C72.7908 83.0487 77.1203 80.2389 81.3083 81.4412C82.7478 81.8553 83.9661 82.6101 84.9899 83.7033C85.7926 84.5605 86.7235 85.1861 88.0789 85.3375ZM187.206 165.065C187.584 169.291 190.737 173.543 194.722 175.255C197.267 176.348 199.872 176.442 202.521 175.64C203.124 175.458 203.352 175.235 203.051 174.581C202.715 173.85 202.459 173.08 202.236 172.305C202.054 171.673 201.851 171.464 201.095 171.604C197.106 172.352 193.652 170.84 191.927 167.204C191.096 165.452 190.017 164.998 188.365 165.065C188.018 165.078 187.673 165.065 187.206 165.065ZM204.949 148.749C197.568 144.693 189.793 150.377 188.27 155.823C189.103 156.212 190.043 156.143 190.903 156.415C191.533 156.613 191.885 156.328 192.263 155.807C195.058 151.949 197.988 150.904 202.474 152.147C202.932 152.274 203.22 152.294 203.445 151.813C203.916 150.809 204.418 149.82 204.946 148.749H204.949ZM98.4228 80.8045C98.7081 80.6753 98.739 80.4816 98.7634 80.2768C99.2321 76.0955 96.9922 72.1101 93.2044 70.3869C89.5096 68.7059 85.0496 69.6232 82.2657 72.6445C81.0739 73.9381 80.3309 75.4676 79.9484 77.182C79.8799 77.487 79.8268 77.7765 80.1939 77.9501C81.1292 78.3887 81.881 78.0526 82.1795 77.0529C83.4111 72.9428 87.493 70.7119 91.5859 71.961C94.3742 72.8137 96.0502 74.7663 96.7578 77.5739C97.0674 78.8006 97.388 79.9962 98.4228 80.8022V80.8045ZM188.394 163.9C188.394 163.914 188.394 163.925 188.391 163.938C189.243 163.994 190.094 164.045 190.945 164.107C191.365 164.136 191.748 164.116 191.956 163.658C192.663 162.097 193.022 160.503 192.418 158.815C192.181 158.154 191.77 157.711 191.034 157.586C189.402 157.308 187.774 156.998 186.147 156.682C185.694 156.593 185.366 156.655 185.185 157.134C184.471 159.004 184.084 160.908 184.489 162.918C184.597 163.453 184.853 163.702 185.391 163.724C186.392 163.769 187.394 163.842 188.396 163.903L188.394 163.9ZM276.728 171.005C276.728 170.751 276.741 170.497 276.728 170.246C276.651 168.883 276.648 168.879 275.262 168.75C273.86 168.62 272.454 168.531 271.056 168.367C270.183 168.264 269.599 168.627 269.164 169.322C268.286 170.722 268.129 172.245 268.396 173.85C268.485 174.385 268.779 174.61 269.287 174.705C271.065 175.037 272.85 175.353 274.607 175.77C275.304 175.934 275.627 175.741 275.894 175.139C276.483 173.821 276.739 172.443 276.726 171.007L276.728 171.005ZM247.618 168.111C247.613 170.359 249.358 172.223 251.432 172.187C253.491 172.152 255.251 170.223 255.22 168.033C255.189 165.875 253.495 164.103 251.439 164.078C249.307 164.054 247.62 165.833 247.618 168.108V168.111ZM349.858 171.57C348.572 171.526 348.098 172.12 348.105 173.227C348.107 173.625 347.99 174.026 347.935 174.427C347.26 179.334 346.568 184.239 345.929 189.151C345.719 190.769 345.383 192.379 345.367 194.107C346.482 193.786 346.915 193.149 347.037 192.109C347.324 189.651 347.725 187.205 348.063 184.753C348.662 180.401 349.253 176.046 349.861 171.573L349.858 171.57ZM96.5765 85.2396C95.7716 84.4143 94.9926 84.3178 94.2393 84.9501C91.3758 87.3614 87.2608 87.3213 84.4261 84.8455C84.0104 84.4826 83.6632 84.0328 83.2276 83.6966C82.4537 83.0977 81.6621 82.4877 80.4614 82.6702C81.9849 86.1546 84.5587 88.1518 88.1563 88.606C91.5085 89.0312 94.3476 87.8445 96.5765 85.2373V85.2396ZM85.6245 95.7173C86.5996 94.9469 87.2343 94.063 87.7119 93.0633C87.9905 92.48 87.6743 91.8299 87.0109 91.507C86.3542 91.1864 86.2857 91.7519 86.0911 92.1304C85.7682 92.7538 85.4078 93.3594 84.9037 93.8493C84.4813 94.2612 84.5123 94.5951 84.9169 94.9714C85.1336 95.1718 85.3238 95.4011 85.6245 95.7195V95.7173ZM256.564 167.89C256.666 166.561 257.164 165.25 256.739 163.508C256.266 164.352 255.383 164.637 255.72 165.465C256.042 166.258 256.142 167.111 256.564 167.89ZM256.137 170.188C255.6 170.867 255.255 171.339 254.873 171.777C254.024 172.755 254.017 172.793 254.857 174.031C255.456 172.888 255.786 171.688 256.137 170.188ZM256.268 169.115C256.266 169.09 256.275 169.15 256.277 169.21C256.281 169.311 256.283 169.411 256.288 169.511C256.281 169.451 256.27 169.391 256.27 169.331C256.268 169.23 256.27 169.13 256.27 169.115H256.268ZM8.9474 133.469C8.93192 133.5 8.89654 133.538 8.90317 133.563C8.9474 133.696 9.01152 133.698 9.0668 133.571C9.07565 133.549 9.05132 133.5 9.02921 133.478C9.01373 133.462 8.97614 133.474 8.9474 133.471V133.469ZM68.4746 108.767C68.4414 108.8 68.3751 108.84 68.3795 108.864C68.395 108.936 68.4392 109 68.4702 109.067C68.5033 109.034 68.5675 108.994 68.563 108.967C68.5476 108.896 68.5033 108.831 68.4724 108.767H68.4746Z" fill="#110F0F"/>
<path d="M202.836 352.104C194.787 352.166 186.737 352.097 178.692 351.906C170.146 351.703 161.6 351.429 153.062 351.011C143.924 350.563 134.794 349.931 125.697 348.898C120.704 348.332 115.713 347.704 110.82 346.504C109.648 346.217 108.492 345.877 107.384 345.385C106.875 345.157 106.382 344.904 105.98 344.512C105.243 343.797 105.235 342.973 105.969 342.263C106.601 341.651 107.419 341.359 108.224 341.074C110.794 340.163 113.469 339.689 116.145 339.242C122.497 338.18 128.894 337.514 135.311 337.002C142.177 336.454 149.051 336.078 155.933 335.764C168.145 335.207 180.362 334.925 192.583 334.922C200.881 334.922 209.182 334.9 217.481 335.043C225.322 335.178 233.162 335.426 240.997 335.813C247.927 336.156 254.856 336.51 261.766 337.124C269.026 337.768 276.285 338.438 283.454 339.827C285.379 340.201 287.288 340.642 289.141 341.308C289.853 341.564 290.558 341.842 291.146 342.334C292.115 343.142 292.121 344.084 291.155 344.881C290.403 345.5 289.497 345.83 288.588 346.124C285.755 347.043 282.834 347.558 279.902 348.012C272.842 349.103 265.735 349.746 258.613 350.256C250.637 350.826 242.655 351.2 234.666 351.503C224.059 351.906 213.45 352.044 202.836 352.106V352.104Z" fill="#020202"/>
<path d="M331.294 169.19C328.742 168.97 326.188 168.767 323.639 168.522C318.987 168.074 314.334 167.602 309.682 167.142C303.829 166.56 297.976 165.973 292.123 165.398C287.67 164.96 283.216 164.537 278.763 164.107C278.562 164.087 278.361 164.08 278.162 164.06C277.063 163.949 275.877 164.049 274.887 163.659C273.883 163.263 273.845 161.912 273.273 161.041C270.314 156.53 266.29 154.166 260.815 154.627C260.005 154.696 259.232 154.898 258.464 155.15C257.003 155.629 256.994 155.629 256.476 154.11C255.738 151.944 254.774 149.884 253.491 147.999C247.123 138.641 238.247 134.226 227.059 135.003C218.577 135.593 211.777 139.636 206.599 146.427C206.446 146.627 206.292 146.83 206.159 147.043C205.876 147.5 205.568 147.596 205.04 147.346C199.123 144.539 192.932 147.026 189.557 151.205C188.993 151.901 188.45 152.066 187.623 151.919C175.89 149.824 164.155 147.751 152.421 145.674C148.56 144.991 144.697 144.318 140.834 143.637C139.397 143.383 139.375 143.379 139.394 141.934C139.538 131.906 139.704 121.875 139.841 111.848C139.93 105.364 139.98 98.8806 140.056 92.3972C140.084 89.8435 141.435 87.9176 143.58 87.3187C144.27 87.1272 144.975 87.1494 145.679 87.165C151.058 87.2853 156.44 87.4099 161.82 87.5391C166.596 87.6548 171.375 87.7751 176.151 87.9042C182.585 88.0779 189.022 88.2649 195.457 88.443C202.846 88.6456 210.238 88.8393 217.628 89.0508C218.431 89.0731 219.242 89.1221 220.027 89.2757C221.283 89.5229 221.659 90.0305 221.748 91.3463C221.902 93.6529 222.982 94.6927 225.31 94.7706C232.697 95.02 240.087 95.2627 247.475 95.5187C248.625 95.5588 249.761 95.7391 250.922 95.463C252.377 95.1179 253.188 94.214 253.469 92.8002C253.905 90.6071 254.413 90.1195 256.695 90.1418C260.116 90.1752 263.535 90.2643 266.955 90.3511C270.073 90.429 273.189 90.5448 276.306 90.6294C283.395 90.8231 290.484 91.0101 297.573 91.1971C305.87 91.4176 314.166 91.6268 322.462 91.8539C328.999 92.0321 335.533 92.2258 342.069 92.4172C344.181 92.4796 346.29 92.6154 348.402 92.6221C351.394 92.631 353.459 94.0938 354.812 96.6564C356.075 99.0476 356.457 101.666 356.207 104.322C355.608 110.672 354.582 116.968 353.731 123.285C352.784 130.307 351.845 137.329 350.898 144.349C350.392 148.11 349.874 151.87 349.355 155.631C349.328 155.825 349.233 156.009 349.169 156.201C348.028 156.544 347.287 157.459 346.381 158.142C341.868 161.553 337.333 164.935 332.594 168.025C332.112 168.342 331.471 168.511 331.296 169.19H331.294Z" fill="#FEF6F5"/>
<path d="M297.791 186.92C301.398 187.575 305.009 188.216 308.613 188.888C319.733 190.966 330.848 193.058 341.968 195.138C343.899 195.499 343.928 195.483 343.66 197.471C342.603 205.293 341.522 213.114 340.458 220.936C339.51 227.905 338.576 234.878 337.63 241.847C336.785 248.065 335.934 254.282 335.076 260.498C335.023 260.885 335.052 261.304 334.782 261.671C323.905 258.999 313.026 256.33 302.147 253.656C276.772 247.417 251.396 241.177 226.019 234.94C201.861 229.002 177.704 223.069 153.547 217.131C148.912 215.991 144.278 214.849 139.643 213.702C138.443 213.406 138.454 213.395 138.471 212.106C138.54 206.889 138.602 201.673 138.67 196.456C138.677 196.002 138.721 195.55 138.745 195.096C139.373 195.011 139.946 195.245 140.499 195.465C144.749 197.168 149.147 198.409 153.549 199.597C161.521 201.753 169.594 203.44 177.782 204.596C181.592 205.135 185.415 205.535 189.231 206.012C191.858 206.339 194.518 206.419 197.16 206.609C200.159 206.822 203.177 206.631 206.182 206.936C208.636 207.185 211.089 206.738 213.543 206.671C215.201 206.626 216.889 206.816 218.518 206.584C220.758 206.264 223.014 206.373 225.254 206.099C226.735 205.918 228.252 205.836 229.733 205.66C232.506 205.333 235.286 205.006 238.052 204.583C240.918 204.144 243.788 203.721 246.631 203.178C251.739 202.2 256.814 201.058 261.857 199.76C266.423 198.584 270.936 197.251 275.436 195.861C279.419 194.632 283.337 193.199 287.224 191.7C290.596 190.4 293.95 189.046 297.241 187.541C297.548 187.401 297.76 187.265 297.793 186.92H297.791Z" fill="#EFD7D3"/>
<path d="M74.6567 244.569C79.0371 245.222 83.4241 245.743 87.8663 245.636C91.8553 245.54 95.7846 245.121 99.5745 243.777C101.105 243.233 102.538 242.51 103.805 241.486C106.062 239.66 106.823 237.211 105.872 234.454C105.598 233.662 105.75 233.315 106.427 232.9C109.158 231.224 111.508 229.129 113.405 226.502C114.944 224.373 116.638 222.36 118.232 220.272C118.717 219.637 119.274 219.27 120.063 219.074C125.622 217.683 131.17 216.251 136.711 214.797C137.521 214.586 138.261 214.581 139.073 214.782C157.081 219.221 175.095 223.634 193.107 228.06C217.952 234.167 242.793 240.283 267.637 246.388C284.867 250.623 302.099 254.849 319.33 259.079C323.724 260.157 328.118 261.232 332.511 262.31C333 262.43 333.497 262.523 333.968 262.697C335.008 263.078 335.236 263.768 334.638 264.714C334.453 265.008 334.203 265.273 333.951 265.516C327.633 271.536 321.309 277.554 314.988 283.572C310.817 283.808 306.667 283.145 302.499 283.258C302.399 283.261 302.296 283.258 302.198 283.238C299.58 282.684 296.907 282.985 294.26 282.746C291.777 282.524 289.272 282.185 286.758 282.346C286.658 282.352 286.554 282.346 286.457 282.321C284.394 281.831 282.269 281.983 280.182 281.827C278.039 281.669 275.887 281.475 273.736 281.37C272.396 281.304 271.007 281.359 269.703 281.081C267.918 280.7 266.112 280.832 264.321 280.625C262.596 280.424 260.831 280.293 259.089 280.164C257.745 280.063 256.391 280.014 255.047 279.881C252.363 279.616 249.685 279.289 247.001 279.03C244.462 278.785 241.915 278.625 239.379 278.365C237.044 278.124 234.726 277.723 232.389 277.528C229.499 277.287 226.62 276.964 223.75 276.566C225.112 275.143 226.706 273.987 228.192 272.707C229.82 271.307 229.884 269.677 228.329 268.176C227.505 267.379 226.487 266.959 225.411 266.667C213.676 263.485 201.939 260.315 190.206 257.129C174.253 252.796 158.297 248.463 142.35 244.106C139.544 243.34 136.899 243.697 134.288 244.885C127.606 247.931 120.912 250.948 114.215 253.961C112.842 254.577 112.037 255.541 112.077 257.111C110.577 257.238 109.244 256.561 107.849 256.2C103.053 254.965 98.3031 253.571 93.5866 252.061C88.386 250.396 83.2361 248.579 78.23 246.391C77.0161 245.861 75.6672 245.531 74.6612 244.565L74.6567 244.569ZM326.747 266.876C326.764 266.404 326.607 265.974 326.417 265.563C325.785 264.189 324.564 263.632 323.209 263.294C319.799 262.448 316.39 261.597 312.971 260.789C312.465 260.669 311.642 260.112 311.468 261.032C311.308 261.86 312.27 261.789 312.788 261.925C315.751 262.697 318.729 263.407 321.699 264.149C322.428 264.331 323.156 264.532 323.874 264.754C325.318 265.202 326.285 267.043 324.739 268.421C322.864 270.091 321.225 272.03 319.499 273.865C319.171 274.21 318.59 274.611 319.105 275.121C319.638 275.648 319.998 275.007 320.319 274.678C322.223 272.734 324.113 270.775 325.993 268.807C326.497 268.279 326.731 267.613 326.751 266.878L326.747 266.876ZM125.956 221.414C126.053 221.39 126.151 221.367 126.248 221.343C129.735 220.399 133.224 219.455 136.711 218.509C137.112 218.4 137.556 218.237 137.439 217.725C137.317 217.199 136.84 217.295 136.439 217.364C136.291 217.391 136.152 217.456 136.008 217.496C132.811 218.359 129.613 219.221 126.416 220.085C126.175 220.15 125.932 220.225 125.7 220.319C125.401 220.439 125.162 220.653 125.246 221C125.33 221.345 125.627 221.439 125.956 221.412V221.414Z" fill="#FA420F"/>
<path d="M223.746 276.568C226.619 276.966 229.495 277.289 232.385 277.53C234.723 277.723 237.042 278.126 239.375 278.367C241.911 278.627 244.458 278.788 246.997 279.033C249.681 279.293 252.359 279.618 255.043 279.883C256.388 280.017 257.741 280.066 259.085 280.166C260.83 280.295 262.595 280.426 264.317 280.627C266.106 280.834 267.913 280.702 269.699 281.083C271.004 281.361 272.392 281.306 273.732 281.373C275.884 281.477 278.035 281.671 280.178 281.829C282.268 281.983 284.39 281.833 286.453 282.323C286.551 282.346 286.654 282.354 286.754 282.348C289.268 282.187 291.776 282.526 294.257 282.749C296.903 282.987 299.577 282.686 302.195 283.241C302.292 283.261 302.396 283.263 302.495 283.261C306.663 283.147 310.812 283.811 314.984 283.575C307.585 290.657 300.187 297.739 292.784 304.819C288.846 308.587 284.879 312.325 280.963 316.119C278.245 318.753 274.968 319.886 271.276 320.084C267.641 320.278 264.204 319.349 260.777 318.327C240.881 312.392 220.98 306.463 201.086 300.52C188.031 296.622 174.983 292.699 161.928 288.8C145.791 283.98 129.647 279.184 113.51 274.361C99.8783 270.287 86.2552 266.181 72.6233 262.107C58.5093 257.888 44.3909 253.687 30.2747 249.481C29.45 249.236 28.6517 248.949 27.9707 248.39C26.9381 247.544 26.215 246.502 26.4251 245.126C26.6484 243.676 27.6678 242.846 29.0299 242.479C31.942 241.697 34.8629 240.94 37.7839 240.194C42.0205 239.112 46.2704 238.081 50.4938 236.957C51.5441 236.679 52.3799 236.781 53.344 237.307C58.8609 240.312 64.747 242.341 70.8499 243.745C72.1147 244.037 73.3861 244.298 74.6531 244.571C75.6592 245.538 77.008 245.867 78.222 246.397C83.2281 248.586 88.3779 250.403 93.5786 252.068C98.2951 253.577 103.047 254.971 107.841 256.207C109.236 256.565 110.569 257.242 112.069 257.118C112.438 258.507 113.493 259.161 114.742 259.533C121.53 261.555 128.323 263.556 135.118 265.56C149.042 269.668 162.968 273.765 176.889 277.879C186.621 280.756 196.354 283.624 206.07 286.556C209.181 287.495 211.746 286.707 214.139 284.625C217.29 281.882 220.538 279.253 223.744 276.572L223.746 276.568Z" fill="#C20000"/>
<path d="M297.791 186.923C297.76 187.269 297.548 187.404 297.239 187.545C293.948 189.05 290.594 190.403 287.222 191.704C283.335 193.202 279.416 194.636 275.434 195.865C270.934 197.254 266.419 198.588 261.855 199.763C256.812 201.061 251.737 202.204 246.629 203.181C243.788 203.724 240.915 204.147 238.05 204.586C235.284 205.009 232.504 205.338 229.731 205.664C228.25 205.837 226.733 205.92 225.251 206.102C223.011 206.376 220.756 206.267 218.516 206.588C216.886 206.821 215.202 206.63 213.541 206.674C211.087 206.741 208.634 207.189 206.18 206.939C203.173 206.634 200.154 206.828 197.158 206.612C194.516 206.423 191.856 206.343 189.229 206.015C185.415 205.539 181.589 205.138 177.78 204.599C169.594 203.444 161.521 201.756 153.547 199.601C149.147 198.412 144.747 197.17 140.497 195.469C139.944 195.248 139.371 195.014 138.743 195.099C138.757 191.554 138.69 188.01 138.803 184.468C138.973 179.1 138.927 173.732 139.026 168.364C139.064 166.34 139.064 166.324 141.061 166.498C153.638 167.591 166.213 168.693 178.788 169.791C181.393 170.018 183.997 170.265 186.607 170.454C187.407 170.512 187.966 170.722 188.46 171.454C191.882 176.546 197.724 178.452 202.983 176.693C203.92 176.379 204.104 176.909 204.422 177.49C207.325 182.793 211.469 186.81 216.856 189.488C228.447 195.25 242.419 192.445 250.978 182.684C251.27 182.35 251.476 181.918 251.907 181.736C252.272 181.749 252.418 182.056 252.632 182.248C257.621 186.663 264.252 186.852 269.453 182.64C270.282 181.967 270.992 181.798 272.024 181.999C280.365 183.604 288.717 185.145 297.064 186.707C297.309 186.754 297.546 186.85 297.787 186.923H297.791Z" fill="#FEF6F5"/>
<path d="M44.0416 208.609C49.9653 208.113 53.5917 204.198 52.9703 197.535C53.532 197.588 53.8482 198.02 54.2307 198.305C60.8421 203.27 67.9157 207.384 75.7167 210.159C81.2115 212.113 86.8478 213.327 92.7052 213.22C97.2426 213.138 101.612 212.267 105.594 209.967C111.71 206.438 114.95 200.948 116.015 194.066C116.997 187.714 115.993 181.546 114.05 175.502C111.158 166.516 106.428 158.547 100.553 151.251C92.0463 140.684 81.8837 132.137 69.7642 126.032C64.2473 123.253 58.4828 121.176 52.3711 120.192C46.6884 119.275 41.0299 119.277 35.5418 121.278C27.9928 124.028 23.5572 129.545 21.8811 137.358C20.6849 142.926 21.2509 148.448 22.6219 153.907C24.7181 162.272 28.6119 169.782 33.5009 176.802C38.0294 183.305 43.2102 189.266 49.3617 194.222C52.1986 196.506 52.5369 201.703 50.1688 204.461C48.1013 206.87 45.5319 207.734 42.4451 206.955C41.8016 206.792 41.2356 206.494 40.727 206.051C28.665 195.493 19.0154 183.141 12.959 168.13C10.4449 161.896 8.80862 155.439 8.45704 148.693C8.15853 142.957 8.76439 137.338 11.0309 132.021C14.7125 123.385 21.1558 117.832 30.0735 115.16C35.6059 113.504 41.2599 113.219 46.9647 113.786C57.2888 114.813 66.8234 118.304 75.8781 123.28C89.3354 130.676 100.599 140.626 109.837 152.905C116.146 161.29 121.084 170.414 123.976 180.578C125.765 186.863 126.653 193.253 125.997 199.799C125.141 208.315 121.888 215.627 115.197 221.137C110.932 224.651 105.961 226.634 100.577 227.605C93.2713 228.923 86.0385 228.322 78.8831 226.557C66.0517 223.395 54.7437 217.165 44.3799 209.057C44.2339 208.943 44.0172 208.858 44.0438 208.605L44.0416 208.609ZM76.0617 217.314C75.458 217.314 74.8566 217.31 74.2529 217.314C73.3441 217.323 72.4486 217.513 71.6128 217.815C70.1269 218.356 69.9588 219.628 71.2126 220.565C71.7322 220.955 72.3115 221.273 72.8886 221.574C74.7703 222.556 76.7892 223.175 78.8345 223.664C81.3132 224.259 83.8141 224.713 86.3636 224.976C88.0197 225.147 89.6626 225.216 91.31 225.169C92.4487 225.136 93.6162 225.04 94.682 224.557C96.0817 223.923 96.1945 222.881 94.9717 221.912C94.1381 221.251 93.1895 220.766 92.2033 220.391C87.0026 218.421 81.6029 217.47 76.0617 217.31V217.314ZM101.966 224.021C103.726 224.123 105.329 223.62 106.801 222.689C107.598 222.186 108.042 221.293 107.83 220.668C107.553 219.85 106.85 219.514 106.085 219.445C104.066 219.265 102.089 219.416 100.283 220.492C99.8451 220.752 99.4405 221.028 99.1641 221.469C98.5649 222.429 98.7705 223.163 99.7655 223.716C100.469 224.105 101.225 223.992 101.966 224.021Z" fill="#D3E6EB"/>
<path d="M254.341 157.149C252.488 158.787 250.809 160.571 249.73 162.844C249.52 163.287 249.098 163.469 248.735 163.732C246.429 165.406 245.695 168.446 247.203 170.819C247.871 171.87 248.067 172.921 248.087 174.083C247.718 174.172 247.497 174.457 247.28 174.733C244.757 177.919 241.834 180.689 238.418 182.862C233.228 186.162 227.66 188.243 221.37 187.856C219.654 187.749 217.987 187.56 216.359 186.992C215.751 186.78 215.145 186.478 214.462 186.598C210.347 184.171 207.384 180.649 205.208 176.454C199.2 164.868 201.989 150.877 211.912 142.47C224.905 131.464 244.921 135.075 253.301 149.939C253.598 150.465 253.938 150.975 254.042 151.589C253.878 153.457 254.482 155.283 254.338 157.149H254.341ZM213.849 157.117C214.385 157.057 214.886 157.026 215.38 156.944C220.633 156.051 224.757 153.23 228.187 149.26C229.246 148.033 230.166 146.695 230.637 145.115C231.576 141.962 229.962 139.635 226.705 139.439C225.348 139.359 223.983 139.399 222.663 139.767C217.462 141.216 213.356 144.204 210.382 148.744C209.799 149.634 209.385 150.618 209.148 151.665C208.551 154.308 209.776 156.289 212.39 156.904C212.876 157.017 213.378 157.053 213.847 157.12L213.849 157.117ZM210.862 163.354C210.882 162.648 210.778 161.855 210.362 161.132C209.498 159.624 207.908 159.426 206.734 160.677C205.473 162.02 205.133 164.721 206.02 166.362C206.909 168.007 208.671 168.185 209.821 166.716C210.557 165.774 210.886 164.672 210.862 163.354Z" fill="#E0F450"/>
<path d="M221.088 53.7268C221 53.6578 220.865 53.591 220.79 53.4819C218.753 50.592 215.923 50.1378 212.743 50.8703C210.837 51.3111 209.228 52.342 207.795 53.66C207.432 53.9918 207.085 54.3391 206.678 54.731C206.335 54.3436 206.501 53.9985 206.548 53.6912C207.235 49.1181 207.527 44.5227 207.209 39.9028C206.868 34.96 205.851 30.182 203.673 25.698C199.109 16.3001 190.304 11.7358 180.022 13.428C174.676 14.3074 169.798 16.3914 165.212 19.2212C157.871 23.752 151.759 29.6633 146.461 36.4406C137.585 47.7955 131.387 60.4708 128.272 74.6066C126.669 81.8804 126.067 89.2255 127.197 96.644C127.75 100.269 128.736 103.762 130.35 107.062C131.653 109.724 133.322 112.118 135.509 114.117C136.031 114.594 136.334 115.086 136.296 115.814C136.139 118.846 135.255 121.654 133.897 124.299C133.318 124.299 133.11 123.907 132.838 123.64C128.535 119.394 125.716 114.251 123.894 108.52C121.322 100.427 120.705 92.1043 121.614 83.7239C124.385 58.1842 135.248 36.5987 153.544 18.7959C159.819 12.691 166.985 7.82842 175.158 4.61564C180.796 2.39809 186.625 1.19803 192.719 1.68785C201.579 2.39809 208.613 6.42575 213.893 13.5771C217.723 18.7648 219.852 24.6916 221.038 30.9791C222.431 38.3665 222.353 45.7917 221.387 53.2237C221.363 53.4174 221.367 53.6311 221.086 53.7268H221.088ZM198.203 9.34686C199.213 9.37135 200.213 9.35577 201.19 9.05297C202.004 8.79915 203.03 8.65221 203.156 7.65698C203.288 6.60609 202.369 6.12518 201.546 5.69992C198.24 3.99446 194.665 3.61596 191.034 3.61373C190.103 3.61373 189.137 3.82525 188.25 4.19261C186.879 4.76258 186.709 5.78898 187.859 6.69515C188.447 7.15825 189.086 7.55901 189.813 7.81728C192.531 8.78357 195.337 9.23554 198.203 9.34463V9.34686ZM181.159 7.58128C182.136 7.59909 183.065 7.43656 183.87 6.85545C184.228 6.59719 184.617 6.29661 184.542 5.75781C184.467 5.21233 184.014 5.01417 183.589 4.9073C182.032 4.51322 180.595 4.8984 179.33 5.82238C178.636 6.33001 178.831 7.17829 179.673 7.43433C180.14 7.57683 180.661 7.53675 181.157 7.57905L181.159 7.58128Z" fill="#D3E6EB"/>
<path d="M314.963 289.939C306.414 298.082 297.87 306.228 289.32 314.366C286.651 316.906 283.964 319.424 281.286 321.954C277.381 325.643 272.676 326.732 267.491 326.273C263.648 325.935 260.05 324.594 256.393 323.512C240.437 318.788 224.492 314.03 208.545 309.278C193.657 304.843 178.772 300.397 163.884 295.964C147.503 291.086 131.116 286.221 114.736 281.341C101.486 277.393 88.2414 273.426 74.992 269.478C60.3452 265.114 45.6961 260.762 31.047 256.405C30.8546 256.347 30.6601 256.291 30.4721 256.22C30.063 256.068 29.4948 256.086 29.4152 255.523C29.3289 254.933 29.7955 254.599 30.2333 254.361C31.2659 253.795 32.3981 253.581 33.5611 253.51C37.0636 253.292 40.4865 253.782 43.8321 254.775C56.0245 258.393 68.2081 262.046 80.3961 265.682C94.415 269.864 108.436 274.036 122.455 278.222C133.823 281.617 145.184 285.037 156.551 288.434C170.906 292.725 185.264 296.997 199.619 301.286C209.976 304.38 220.326 307.491 230.681 310.59C241.133 313.718 251.575 316.875 262.042 319.943C264.932 320.792 267.895 321.417 270.947 321.27C275.139 321.07 278.836 319.839 281.974 316.777C290.065 308.882 298.277 301.112 306.487 293.339C309.306 290.67 312.022 287.887 314.974 285.362C314.996 286.219 314.958 287.058 314.777 287.913C314.64 288.561 314.461 289.312 314.96 289.944L314.963 289.939Z" fill="#C20000"/>
<path d="M271.701 180.685C272.451 179.441 273.108 178.372 273.742 177.288C274.005 176.838 274.375 176.891 274.788 176.951C276.049 177.134 276.113 177.116 276.681 176.074C277.919 173.801 278.096 171.356 277.764 168.845C277.676 168.177 277.327 167.683 276.573 167.747C275.64 167.83 275.33 167.326 275.261 166.503C275.226 166.053 275.135 165.608 275.069 165.147C275.876 164.846 276.63 165.044 277.364 165.113C283.416 165.694 289.466 166.296 295.516 166.899C302.216 167.567 308.913 168.255 315.613 168.914C321.314 169.475 327.019 170 332.721 170.548C337.022 170.96 341.323 171.381 345.626 171.799C345.725 171.808 345.825 171.824 345.924 171.839C347.074 172.024 347.103 172.026 346.968 173.166C346.764 174.874 346.517 176.577 346.285 178.281C345.615 183.192 344.938 188.104 344.277 193.015C344.102 194.302 344.051 194.371 342.769 194.131C333.484 192.385 324.199 190.631 314.915 188.883C304.889 186.997 294.861 185.118 284.836 183.237C280.884 182.495 276.933 181.763 272.984 181.017C272.597 180.943 272.219 180.821 271.699 180.683L271.701 180.685ZM279.905 173.583C279.874 176.212 281.842 178.22 284.447 178.22C286.921 178.22 288.98 176.181 289.008 173.703C289.037 171.2 286.945 169.07 284.402 169.014C282.017 168.961 279.934 171.08 279.905 173.585V173.583ZM296.529 180.296C299.091 180.275 301.143 178.185 301.079 175.656C301.015 173.126 298.921 171.105 296.378 171.116C293.86 171.127 291.936 173.206 291.982 175.869C292.027 178.419 293.977 180.318 296.529 180.298V180.296Z" fill="#FA420F"/>
<path d="M170.776 27.6551C168.352 29.5409 165.88 31.3644 163.634 33.4706C152.363 44.0418 144.41 56.7839 139.267 71.3449C136.432 79.369 134.767 87.6247 134.787 96.181C134.798 100.665 135.417 105.062 136.657 109.368C137.064 110.778 137.588 112.151 138.329 113.425C138.594 113.881 138.756 114.307 138.519 114.828C137.823 114.743 137.418 114.253 136.978 113.868C133.677 110.98 131.322 107.438 129.955 103.257C128.06 97.4568 127.461 91.4899 127.943 85.4183C129.385 67.2682 136.443 51.3958 147.424 37.1599C152.487 30.5941 158.409 24.9121 165.442 20.4859C169.913 17.6739 174.668 15.5365 179.919 14.6749C180.859 14.5213 181.801 14.3409 182.763 14.4701C182.8 15.0578 182.385 15.3851 182.017 15.7169C181.314 16.3559 180.547 16.9281 179.875 17.596C177.025 20.4347 174.197 23.298 171.364 26.1567C171.081 26.4417 170.794 26.7267 170.555 27.0473C170.351 27.3189 170.561 27.5037 170.778 27.6574L170.776 27.6551Z" fill="#A3B0B3"/>
<path d="M111.848 202.292C111.66 201.185 112.007 200.417 112.111 199.625C112.726 195.009 112.014 190.55 110.692 186.141C108.357 178.344 104.633 171.248 99.8988 164.689C90.4703 151.622 78.6803 141.345 64.1241 134.416C58.8217 131.894 53.276 130.112 47.4496 129.282C42.5584 128.585 37.7182 128.808 32.931 130.043C31.6662 130.371 30.5451 131.103 29.2383 131.341C28.2698 131.52 27.204 131.769 26.6136 130.854C25.979 129.868 26.8281 129.021 27.4207 128.305C30.4345 124.651 34.3682 122.525 38.9233 121.529C44.962 120.209 50.9322 120.795 56.836 122.371C66.6161 124.983 75.2928 129.81 83.2707 135.966C93.7075 144.021 102.267 153.731 108.5 165.44C111.417 170.919 113.608 176.672 114.647 182.826C115.519 187.978 115.64 193.106 113.913 198.135C113.438 199.516 112.876 200.854 111.848 202.292Z" fill="#A3B0B3"/>
<path d="M187.85 153.294C187.87 153.782 187.51 154.127 187.379 154.552C187.107 155.443 186.563 155.763 185.677 155.467C185.011 155.245 184.631 155.576 184.363 156.144C183.251 158.511 182.964 160.984 183.454 163.547C183.598 164.295 183.934 164.876 184.856 164.807C185.577 164.754 185.911 165.134 186.068 165.854C186.305 166.929 186.667 167.978 186.979 169.051C186.557 169.42 186.095 169.26 185.677 169.224C180.472 168.772 175.269 168.298 170.064 167.837C166.209 167.497 162.355 167.174 158.501 166.838C153.095 166.366 147.691 165.887 142.287 165.413C141.685 165.359 141.084 165.33 140.482 165.286C139.069 165.183 139.041 165.181 139.058 163.796C139.087 161.772 139.184 159.751 139.211 157.727C139.262 153.828 139.277 149.932 139.319 146.034C139.335 144.558 139.386 144.515 140.734 144.756C152.303 146.817 163.87 148.886 175.439 150.941C179.198 151.609 182.961 152.243 186.725 152.893C187.121 152.962 187.519 153.023 187.85 153.292V153.294ZM164.454 162.36C166.957 162.36 168.971 160.383 169.015 157.885C169.062 155.296 167.081 153.225 164.52 153.185C162.03 153.145 159.908 155.236 159.872 157.765C159.835 160.314 161.876 162.36 164.456 162.36H164.454ZM172.104 159.063C172.113 161.597 174.09 163.616 176.582 163.638C179.107 163.663 181.21 161.545 181.188 159.005C181.166 156.442 179.067 154.383 176.529 154.432C174.057 154.479 172.096 156.534 172.104 159.061V159.063Z" fill="#FA420F"/>
<path d="M34.606 215.319C33.695 214.513 32.8945 213.825 32.1162 213.115C22.471 204.325 14.4842 194.243 8.73517 182.448C5.32111 175.445 2.87333 168.127 2.05078 160.33C1.29234 153.161 1.88936 146.17 4.95406 139.53C5.78546 137.729 6.8225 136.059 8.04529 134.505C8.2266 134.276 8.38139 134.007 8.79267 133.875C8.99609 134.37 8.78382 134.768 8.66884 135.164C7.41952 139.484 6.81587 143.903 7.15639 148.378C7.58978 154.045 8.67768 159.602 10.5329 164.997C13.9624 174.971 19.2117 183.904 25.7148 192.128C29.9271 197.454 34.6259 202.308 39.7359 206.761C40.7133 207.613 40.826 207.457 39.8885 208.646C38.1682 210.824 36.4413 212.999 34.606 215.319Z" fill="#A3B0B3"/>
<path d="M113.902 223.675C112.67 225.835 111.142 227.757 109.27 229.38C104.843 233.211 99.6509 235.393 93.9549 236.424C86.6536 237.747 79.4274 237.137 72.2721 235.38C60.2587 232.434 49.561 226.757 39.697 219.372C38.4874 218.466 37.3155 217.506 36.1281 216.571C35.7854 216.301 35.5466 216.068 35.9291 215.593C37.8241 213.24 39.6903 210.862 41.5344 208.531C42.231 208.696 42.5914 209.146 43.0181 209.486C51.885 216.544 61.5191 222.217 72.2654 225.862C79.8122 228.42 87.5336 229.861 95.5337 229.38C101.911 228.997 107.93 227.411 113.373 223.925C113.539 223.82 113.738 223.769 113.922 223.693L113.902 223.673V223.675Z" fill="#A3B0B3"/>
<path d="M194.023 87.2382C194.114 86.5369 194.434 86.1984 194.66 85.8177C199.305 77.9272 202.874 69.5802 205.097 60.6721C206.054 56.8382 208.225 54.0484 211.825 52.4231C212.944 51.9177 214.118 51.6772 215.345 51.724C218.846 51.8598 221.194 54.752 220.568 58.2341C219.79 62.578 218.633 66.826 217.247 71.0118C215.507 76.2595 213.338 81.3203 210.879 86.2652C210.361 87.305 209.8 87.7614 208.586 87.708C203.765 87.492 198.938 87.3874 194.023 87.2382Z" fill="#D3E6EB"/>
<path d="M216.486 14.2522C219.542 16.9395 222.043 20.0811 224.088 23.6033C227.473 29.4366 229.138 35.8021 229.866 42.4592C230.416 47.5132 230.319 52.5673 229.833 57.6214C229.78 58.1691 229.804 58.7368 229.501 59.2467C229.028 59.3602 228.63 59.1287 228.214 58.9839C226.412 58.3539 224.616 57.6993 222.801 57.1093C222.186 56.9089 222.047 56.615 222.153 55.9983C222.401 54.5533 222.606 53.0972 222.77 51.6411C223.84 42.1697 223.192 32.8542 220.232 23.7525C219.197 20.5709 217.821 17.5407 216.163 14.6418C216.271 14.5127 216.378 14.3836 216.486 14.2567V14.2522Z" fill="#A3B0B3"/>
<path d="M113.359 82.6714C113.488 75.6403 114.949 68.9208 118.173 62.6422C119.1 60.8366 120.201 59.1445 121.709 57.7574C122.383 57.1362 123.12 56.6286 124.022 56.3792C124.526 56.2389 125.003 56.2189 125.501 56.3792C126.613 56.7399 126.759 57.0048 126.341 58.1425C123.907 64.7573 122.054 71.5258 121.023 78.5124C120.402 82.7271 120.09 86.964 120.119 91.2255C120.126 92.0782 120.291 92.9487 119.221 93.3874C118.105 93.846 117.063 93.8839 116.106 93.089C115.139 92.2875 114.633 91.1787 114.248 90.0165C113.72 88.4224 113.461 86.7726 113.368 85.0983C113.324 84.2901 113.362 83.4796 113.362 82.6692L113.359 82.6714ZM124.218 59.5096C124.214 58.6591 123.544 58.2338 122.806 58.7459C121.499 59.6499 120.546 60.8722 120.265 62.493C120.126 63.299 120.681 63.6864 121.477 63.4193C122.602 63.0408 124.223 60.7275 124.218 59.5096Z" fill="#D3E6EB"/>
<path d="M215.07 85.7253C214.82 85.7097 214.568 85.7052 214.318 85.6785C212.805 85.516 212.686 85.3045 213.349 83.9085C217.073 76.0624 219.866 67.9002 221.586 59.3729C221.626 59.1748 221.677 58.9766 221.699 58.7762C221.761 58.2396 222.039 58.0971 222.528 58.2708C223.428 58.5892 224.332 58.8964 225.234 59.2104C226.327 59.5911 227.404 60.0253 228.514 60.3414C229.261 60.5529 229.431 60.9203 229.318 61.6662C228.755 65.3754 227.967 69.0335 226.972 72.6448C226.636 73.8627 226.311 75.0917 225.873 76.2739C224.525 79.9209 222.145 82.7218 218.802 84.6632C217.661 85.3245 216.427 85.7609 215.072 85.7253H215.07Z" fill="#A3B0B3"/>
<path d="M60.9285 108.99C64.1878 109.056 67.2901 109.896 70.3039 111.049C75.1685 112.91 79.7147 115.362 83.7191 118.757C85.2603 120.064 86.6932 121.478 87.8739 123.134C88.4643 123.96 88.9596 124.838 89.267 125.81C89.7358 127.298 89.2714 127.939 87.7015 127.834C86.2863 127.741 84.9463 127.309 83.7081 126.594C83.3587 126.394 83.0337 126.153 82.6954 125.935C74.6909 120.772 66.1712 116.767 56.9506 114.342C56.3027 114.173 55.5111 114.233 55.3187 113.28C55.1109 112.242 55.0998 111.269 55.856 110.428C56.3071 109.925 56.882 109.624 57.5078 109.408C58.62 109.027 59.7676 108.952 60.9329 108.987L60.9285 108.99ZM61.3221 110.285C60.7118 110.254 60.1303 110.321 59.5487 110.524C59.0534 110.695 58.5404 110.875 58.4741 111.436C58.4077 112.006 58.9362 112.285 59.3298 112.579C59.8671 112.982 60.5349 113.068 61.1607 113.204C62.6665 113.532 64.1834 113.917 65.7245 113.349C66.1889 113.178 66.7351 113.095 66.7948 112.461C66.8545 111.839 66.3901 111.592 65.939 111.354C64.4929 110.586 62.9208 110.372 61.3221 110.285Z" fill="#D3E6EB"/>
<path d="M214.454 186.596C215.137 186.476 215.743 186.779 216.351 186.99C217.978 187.558 219.645 187.75 221.361 187.854C227.652 188.242 233.22 186.162 238.41 182.86C241.826 180.687 244.747 177.917 247.272 174.731C247.491 174.455 247.71 174.17 248.079 174.081C248.619 175.551 249.081 177.045 249.35 178.59C249.784 181.07 249.222 183.145 247.177 184.804C242.5 188.6 237.242 190.82 231.219 191.205C225.693 191.557 220.559 190.314 215.767 187.558C215.298 187.289 214.745 187.115 214.454 186.594V186.596Z" fill="#A3BA00"/>
<path d="M261.467 179.022C259.171 178.984 257.451 178.085 256.04 176.5C255.583 175.985 255.53 175.538 255.813 174.877C257.356 171.261 258.154 167.48 258.033 163.531C258.013 162.872 258.137 162.382 258.791 162.054C263.426 159.73 267.93 162.379 269.195 166.91C269.305 167.309 269.199 167.549 268.918 167.834C267.01 169.767 266.884 172.154 267.421 174.607C267.603 175.435 267.446 175.93 266.911 176.475C265.363 178.049 263.547 178.998 261.469 179.024L261.467 179.022Z" fill="#FEF6F5"/>
<path d="M199.506 152.762C199.877 152.793 200.231 152.802 200.578 152.856C202.592 153.17 202.692 153.359 202.128 155.312C200.846 159.756 200.481 164.255 201.383 168.824C201.403 168.924 201.418 169.024 201.434 169.125C201.556 169.914 201.249 170.388 200.514 170.545C198.63 170.955 196.921 170.496 195.351 169.447C194.283 168.735 193.502 167.753 192.841 166.653C192.388 165.894 192.344 165.275 192.806 164.427C193.991 162.249 194.424 159.952 193.104 157.634C192.859 157.204 192.925 156.879 193.164 156.521C194.685 154.241 196.717 152.838 199.508 152.762H199.506Z" fill="#FEF6F5"/>
<path d="M222.511 89.1924C232.72 89.4618 242.825 89.729 253.116 90.0006C252.661 90.8711 252.457 91.6214 252.367 92.4274C252.232 93.6119 251.577 94.1885 250.388 94.3578C248.937 94.5648 247.478 94.3934 246.027 94.3466C240.91 94.1819 235.796 93.9681 230.682 93.7722C228.826 93.701 226.969 93.6497 225.116 93.5607C223.612 93.4872 222.967 92.8883 222.96 91.43C222.958 90.7041 222.783 90.0451 222.511 89.1946V89.1924Z" fill="#CADFE5"/>
<path d="M355.154 94.4789C356.903 95.3472 357.789 96.9169 358.444 98.6491C359.346 101.042 359.253 103.545 358.941 106.007C358.229 111.625 357.409 117.227 356.624 122.835C355.965 127.542 355.284 132.244 354.632 136.953C353.975 141.711 353.351 146.473 352.699 151.234C351.903 157.045 351.089 162.853 350.285 168.662C350.198 169.286 349.966 169.836 349.442 170.216C349.236 170.365 349.009 170.528 348.752 170.406C348.467 170.27 348.544 169.976 348.575 169.742C348.807 167.988 349.057 166.235 349.296 164.483C349.856 160.375 350.408 156.268 350.966 152.16C351.596 147.5 352.224 142.84 352.861 138.18C353.422 134.072 353.995 129.966 354.559 125.861C355.242 120.902 355.954 115.949 356.589 110.984C356.934 108.278 357.427 105.589 357.356 102.833C357.287 100.15 356.816 97.6049 355.368 95.3049C355.207 95.0489 355.043 94.7862 355.171 94.4589L355.154 94.4834V94.4789Z" fill="#C20000"/>
<path d="M331.29 169.186C331.464 168.509 332.103 168.338 332.588 168.022C337.326 164.929 341.861 161.549 346.374 158.138C347.281 157.453 348.022 156.538 349.163 156.197C349.01 159.174 348.395 162.09 348.066 165.045C347.893 166.599 347.666 168.146 347.425 169.689C347.252 170.789 347.221 170.807 346.085 170.705C343.889 170.506 341.695 170.295 339.504 170.068C336.764 169.785 334.029 169.48 331.292 169.186H331.29Z" fill="#EFD7D3"/>
<path d="M272.668 176.663C270.309 181.938 264.993 185.077 259.655 184.411C254.435 183.759 250.223 179.199 249.223 173.007C250.408 173.159 251.563 173.455 252.743 173.179C253.203 173.072 253.243 173.589 253.343 173.902C253.758 175.223 254.404 176.409 255.328 177.438C258.45 180.916 263.472 181.121 267.07 177.926C267.145 177.859 267.242 177.803 267.288 177.721C268.637 175.305 270.596 175.917 272.668 176.668V176.663Z" fill="#CADFE5"/>
<path d="M274.151 167.327C273.722 167.57 273.266 167.383 272.824 167.409C271.263 167.505 270.434 166.94 269.781 165.321C267.442 159.512 260.587 158.225 256.13 162.607C255.771 162.959 255.438 163.344 255.13 163.742C254.856 164.099 254.617 164.136 254.266 163.84C253.419 163.128 252.379 162.936 251.316 162.845C252.373 158.789 258.301 155.393 263.488 155.852C268.928 156.333 273.709 161.474 274.151 167.327Z" fill="#CADFE5"/>
<path d="M170.78 27.6558C170.563 27.5044 170.353 27.3173 170.556 27.0457C170.797 26.7273 171.085 26.4401 171.366 26.1551C174.198 23.2986 177.026 20.4331 179.876 17.5944C180.549 16.9242 181.316 16.3543 182.019 15.7153C182.386 15.3813 182.802 15.0562 182.764 14.4685C185.148 14.0966 187.489 14.395 189.763 15.0963C191.078 15.5015 192.166 16.3943 192.986 17.5076C193.858 18.6854 193.296 19.9188 191.91 19.9522C185.057 20.1259 178.979 22.6485 173.214 26.1484C172.398 26.6449 171.589 27.1526 170.777 27.6558H170.78Z" fill="#A3B0B3"/>
<path d="M74.6855 93.0152C76.5451 92.4208 78.2588 92.5811 79.9393 93.0976C84.9808 94.6428 87.8111 100.423 86.0068 105.417C84.1339 110.595 78.4755 113.04 73.4539 111.05C68.7021 109.164 65.958 103.29 68.4389 98.0559C68.9851 96.9026 69.4539 96.7423 70.5727 97.1943C71.0769 97.3991 71.1675 97.6351 70.8624 98.096C70.356 98.8575 70.0067 99.6902 69.8099 100.594C68.9055 104.744 71.5103 108.863 75.5612 109.667C79.7867 110.504 83.7934 107.797 84.5496 103.595C85.3014 99.4141 82.4313 95.3886 78.188 94.8142C76.8282 94.6294 75.6894 94.2108 74.6855 93.0175V93.0152Z" fill="#D3E6EB"/>
<path d="M93.5161 77.1531C94.8406 77.3713 95.5548 78.0682 96.0059 79.2081C97.0827 81.92 99.0949 83.5052 101.969 83.9483C105.724 84.5271 109.41 82.0224 110.297 78.3042C111.225 74.4057 109.028 70.4314 105.28 69.2826C102.436 68.4098 99.9285 69.0444 97.7373 71.0526C97.5051 71.2641 97.326 71.7718 96.9125 71.4979C96.4592 71.1996 95.9749 70.8723 95.7229 70.3669C95.6035 70.1286 95.8821 69.9238 96.0545 69.7568C98.2878 67.6127 100.921 66.5396 104.017 66.9359C109.264 67.6083 112.86 72.1436 112.369 77.3847C111.891 82.4744 107.455 86.2371 102.25 85.9699C97.6532 85.7339 93.6731 81.7931 93.5161 77.1531Z" fill="#D3E6EB"/>
<path d="M336.75 257.115C336.893 255.828 336.984 254.804 337.123 253.784C338.319 244.976 339.516 236.168 340.725 227.363C341.789 219.608 342.874 211.855 343.94 204.101C344.285 201.598 344.599 199.093 344.924 196.589C345.075 195.424 345.072 195.424 346.519 195.179C346.541 196.753 346.191 198.274 345.99 199.799C345.033 207.008 344.022 214.209 343.016 221.411C342.059 228.264 341.066 235.111 340.126 241.966C339.631 245.568 339.25 249.186 338.547 252.758C338.373 253.648 338.109 254.523 337.833 255.387C337.654 255.944 337.439 256.511 336.754 257.115H336.75Z" fill="#C20000"/>
<path d="M314.972 289.939C314.472 289.306 314.651 288.556 314.788 287.908C314.969 287.053 315.007 286.214 314.985 285.357C317.061 283.079 319.394 281.069 321.61 278.933C325.605 275.079 329.634 271.261 333.656 267.434C333.904 267.2 334.098 266.884 334.609 266.764C334.713 268.393 334.399 269.952 334.156 271.506C334.107 271.813 333.795 272.109 333.546 272.348C327.361 278.216 321.165 284.076 314.974 289.939H314.972ZM332.473 271.475C332.522 271.119 332.122 270.8 331.774 270.954C331.551 271.054 331.35 271.223 331.166 271.392C329.607 272.824 328.053 274.262 326.499 275.703C326.35 275.839 326.213 275.988 326.081 276.139C325.897 276.353 325.848 276.611 326.028 276.829C326.251 277.101 326.545 277.108 326.83 276.901C326.952 276.812 327.069 276.716 327.18 276.616C328.774 275.146 330.366 273.677 331.956 272.201C332.175 271.998 332.418 271.804 332.469 271.477L332.473 271.475Z" fill="#FA420F"/>
<path d="M88.09 85.3371C86.7367 85.1857 85.8036 84.5601 85.0009 83.7029C83.9772 82.6097 82.7588 81.8549 81.3193 81.4408C77.1313 80.2385 72.8041 83.0483 71.9903 87.3031C71.1678 91.6157 74.0998 95.7057 78.4912 96.2379C79.7405 96.3892 80.7798 96.7611 81.5869 97.803C77.264 99.3861 72.0169 96.6074 70.3253 91.9141C68.5321 86.9402 71.0572 81.4609 76.0479 79.7109C82.0158 77.6158 86.9136 81.4408 88.09 85.3371Z" fill="#D3E6EB"/>
<path d="M187.205 165.07C187.672 165.07 188.017 165.082 188.364 165.07C190.016 165.004 191.095 165.458 191.926 167.21C193.651 170.846 197.105 172.358 201.094 171.61C201.85 171.467 202.053 171.679 202.234 172.311C202.456 173.086 202.714 173.858 203.05 174.586C203.351 175.241 203.123 175.464 202.52 175.646C199.869 176.45 197.266 176.354 194.721 175.261C190.736 173.551 187.585 169.298 187.205 165.07Z" fill="#CADFE5"/>
<path d="M204.956 148.753C204.429 149.824 203.925 150.812 203.454 151.817C203.229 152.298 202.941 152.278 202.483 152.151C197.997 150.908 195.065 151.952 192.272 155.811C191.894 156.332 191.543 156.617 190.912 156.419C190.052 156.147 189.112 156.216 188.279 155.826C189.8 150.381 197.577 144.696 204.958 148.753H204.956Z" fill="#CADFE5"/>
<path d="M98.4231 80.8037C97.386 79.9978 97.0654 78.8021 96.7581 77.5754C96.0505 74.7678 94.3744 72.813 91.5861 71.9625C87.4954 70.7112 83.4114 72.9443 82.1797 77.0544C81.8812 78.0541 81.1272 78.3903 80.1941 77.9516C79.827 77.7802 79.8801 77.4908 79.9487 77.1835C80.3312 75.4691 81.0764 73.9373 82.266 72.646C85.0499 69.6247 89.5098 68.7074 93.2047 70.3884C96.9924 72.1116 99.2324 76.097 98.7636 80.2783C98.7415 80.4831 98.7083 80.6768 98.4231 80.806V80.8037Z" fill="#D3E6EB"/>
<path d="M188.394 163.901C187.392 163.838 186.39 163.767 185.389 163.722C184.852 163.698 184.595 163.451 184.487 162.916C184.082 160.906 184.469 159.002 185.183 157.132C185.365 156.656 185.694 156.593 186.145 156.68C187.77 156.996 189.398 157.306 191.032 157.584C191.77 157.709 192.179 158.152 192.416 158.813C193.02 160.499 192.661 162.093 191.954 163.656C191.746 164.114 191.363 164.134 190.943 164.105C190.092 164.045 189.241 163.992 188.389 163.936C188.389 163.923 188.389 163.912 188.392 163.898L188.394 163.901Z" fill="#CADFE5"/>
<path d="M276.733 171.007C276.744 172.44 276.489 173.821 275.901 175.139C275.631 175.74 275.309 175.934 274.614 175.769C272.854 175.353 271.072 175.036 269.294 174.705C268.786 174.609 268.491 174.384 268.403 173.85C268.135 172.247 268.29 170.722 269.17 169.321C269.606 168.626 270.19 168.264 271.063 168.366C272.461 168.531 273.867 168.62 275.269 168.749C276.655 168.878 276.657 168.883 276.735 170.245C276.75 170.497 276.735 170.751 276.735 171.004L276.733 171.007Z" fill="#CADFE5"/>
<path d="M247.617 168.115C247.621 165.84 249.308 164.061 251.438 164.085C253.494 164.11 255.188 165.88 255.219 168.04C255.25 170.228 253.49 172.158 251.431 172.194C249.357 172.23 247.612 170.366 247.617 168.117V168.115ZM250.109 168.278C250.715 168.267 251.55 167.514 251.561 166.973C251.573 166.341 250.971 165.648 250.401 165.635C249.762 165.622 248.974 166.425 248.959 167.111C248.946 167.643 249.582 168.289 250.109 168.278Z" fill="#CADFE5"/>
<path d="M349.869 171.575C349.259 176.05 348.671 180.403 348.071 184.756C347.733 187.209 347.335 189.654 347.045 192.112C346.924 193.152 346.49 193.788 345.376 194.109C345.391 192.381 345.728 190.772 345.938 189.153C346.579 184.241 347.271 179.336 347.943 174.429C347.998 174.029 348.118 173.63 348.113 173.229C348.105 172.123 348.58 171.528 349.867 171.573L349.869 171.575Z" fill="#FA420F"/>
<path d="M96.5829 85.2387C94.354 87.8458 91.517 89.0303 88.1627 88.6073C84.5651 88.1509 81.9913 86.156 80.4678 82.6716C81.6684 82.489 82.4623 83.099 83.234 83.698C83.6696 84.0342 84.0145 84.4839 84.4324 84.8468C87.2672 87.3226 91.3822 87.3605 94.2456 84.9515C94.9974 84.3177 95.7765 84.4141 96.5829 85.2409V85.2387Z" fill="#D3E6EB"/>
<path d="M85.6317 95.7183C85.3332 95.3999 85.1408 95.1706 84.9241 94.9702C84.5172 94.5939 84.4863 94.26 84.9108 93.8481C85.415 93.3605 85.7754 92.7549 86.0982 92.1293C86.295 91.7508 86.3614 91.1852 87.0181 91.5058C87.6814 91.8309 87.9976 92.481 87.719 93.0621C87.2414 94.0596 86.6068 94.9435 85.6317 95.7161V95.7183Z" fill="#D3E6EB"/>
<path d="M254.337 157.145C254.481 155.28 253.877 153.454 254.041 151.586C254.918 152.773 255.241 154.197 255.73 155.551C255.885 155.979 255.805 156.33 255.365 156.56C255.016 156.742 254.677 156.949 254.335 157.148L254.337 157.145Z" fill="#A3BA00"/>
<path d="M256.558 167.89C256.136 167.113 256.036 166.261 255.713 165.466C255.377 164.637 256.259 164.352 256.733 163.509C257.155 165.25 256.66 166.561 256.558 167.89Z" fill="#A3BA00"/>
<path d="M256.139 170.189C255.787 171.691 255.46 172.889 254.858 174.031C254.018 172.794 254.027 172.756 254.874 171.778C255.254 171.34 255.599 170.868 256.139 170.189Z" fill="#A3BA00"/>
<path d="M215.678 13.8968C215.313 13.6986 215.152 13.3468 214.939 12.8704C215.34 13.0418 215.603 13.1887 215.687 13.5517C215.685 13.6674 215.682 13.781 215.678 13.8968Z" fill="#7CB4C4"/>
<path d="M215.678 13.8945C215.68 13.7788 215.682 13.6652 215.687 13.5494C215.954 13.7854 216.219 14.0192 216.487 14.253C216.379 14.3821 216.273 14.509 216.164 14.6382C215.786 14.5313 215.684 14.2441 215.678 13.8923V13.8945Z" fill="#A1C5D1"/>
<path d="M256.277 169.112C256.277 169.128 256.275 169.227 256.277 169.327C256.277 169.386 256.29 169.446 256.295 169.506C256.29 169.406 256.29 169.307 256.284 169.207C256.281 169.148 256.273 169.088 256.275 169.112H256.277Z" fill="#A3BA00"/>
<path d="M355.158 94.4578C355.016 94.5395 354.897 94.4821 354.79 94.3871C354.779 94.3783 354.812 94.2789 354.836 94.2745C354.998 94.2457 355.086 94.3429 355.141 94.4798L355.158 94.4555V94.4578Z" fill="#C20000"/>
<path d="M8.94907 133.467C8.97827 133.467 9.01869 133.458 9.03217 133.474C9.05463 133.496 9.07933 133.546 9.07035 133.568C9.0142 133.698 8.94907 133.693 8.90415 133.559C8.89741 133.534 8.93335 133.496 8.94907 133.465V133.467Z" fill="#7CB4C4"/>
<path d="M113.919 223.697C113.939 223.671 113.956 223.647 113.976 223.62C113.949 223.64 113.926 223.658 113.899 223.677L113.919 223.697Z" fill="#7CB4C4"/>
<path d="M68.4726 108.766C68.5036 108.832 68.5479 108.896 68.5634 108.967C68.5678 108.991 68.5036 109.033 68.4704 109.066C68.4372 109 68.3929 108.936 68.3796 108.866C68.3752 108.841 68.4394 108.802 68.4726 108.769V108.766Z" fill="white"/>
<path d="M223.752 276.572C220.546 279.251 217.298 281.883 214.147 284.626C211.754 286.707 209.189 287.493 206.078 286.556C196.362 283.626 186.629 280.756 176.897 277.879C162.976 273.765 149.05 269.668 135.126 265.56C128.333 263.557 121.538 261.557 114.75 259.533C113.501 259.162 112.446 258.507 112.077 257.118C112.037 255.55 112.842 254.586 114.215 253.967C120.91 250.953 127.606 247.936 134.288 244.892C136.899 243.703 139.544 243.345 142.35 244.113C158.297 248.47 174.253 252.805 190.206 257.135C201.939 260.322 213.678 263.492 225.411 266.674C226.488 266.965 227.505 267.386 228.329 268.183C229.884 269.686 229.822 271.314 228.192 272.714C226.706 273.994 225.112 275.148 223.75 276.572H223.752ZM221.813 276.345C223.805 274.883 225.632 273.215 227.5 271.605C228.356 270.868 228.356 270.091 227.6 269.245C227.085 268.666 226.434 268.292 225.689 268.083C225.01 267.891 224.336 267.689 223.657 267.504C206.967 262.949 190.275 258.391 173.583 253.845C162.861 250.926 152.128 248.045 141.412 245.099C139.133 244.471 137.019 244.874 134.962 245.798C128.216 248.829 121.485 251.901 114.75 254.958C114.432 255.103 114.089 255.227 113.819 255.441C112.904 256.167 112.937 257.133 113.872 257.846C114.454 258.289 115.144 258.427 115.84 258.538C115.986 258.672 116.152 258.718 116.344 258.658C116.481 258.707 116.616 258.756 116.753 258.808C116.897 258.946 117.063 258.988 117.253 258.928C117.613 259.166 118.014 259.271 118.443 259.275C118.872 259.678 119.451 259.694 119.968 259.847C141.076 266.072 162.186 272.287 183.297 278.498C191.25 280.838 199.215 283.14 207.16 285.516C209.039 286.077 210.7 285.676 212.126 284.541C215.432 281.907 218.675 279.189 221.813 276.348V276.345Z" fill="#110F0F"/>
<path d="M326.745 266.876C326.725 267.611 326.49 268.277 325.986 268.804C324.107 270.772 322.216 272.729 320.312 274.675C319.992 275.003 319.631 275.644 319.098 275.118C318.583 274.609 319.167 274.21 319.492 273.863C321.221 272.028 322.857 270.089 324.732 268.419C326.278 267.043 325.312 265.2 323.868 264.752C323.149 264.529 322.422 264.329 321.692 264.147C318.722 263.405 315.744 262.695 312.781 261.922C312.264 261.789 311.302 261.86 311.461 261.029C311.638 260.11 312.458 260.667 312.965 260.787C316.383 261.597 319.793 262.445 323.202 263.292C324.558 263.628 325.776 264.187 326.411 265.56C326.601 265.972 326.758 266.402 326.74 266.874L326.745 266.876Z" fill="#110F0F"/>
<path d="M125.965 221.414C125.633 221.441 125.337 221.347 125.255 221.002C125.171 220.652 125.41 220.441 125.708 220.321C125.94 220.227 126.181 220.151 126.425 220.087C129.622 219.223 132.819 218.361 136.017 217.498C136.163 217.457 136.302 217.391 136.448 217.366C136.848 217.297 137.326 217.201 137.447 217.727C137.567 218.239 137.12 218.401 136.72 218.511C133.233 219.459 129.746 220.401 126.256 221.345C126.159 221.372 126.062 221.394 125.965 221.416V221.414Z" fill="#110F0F"/>
<path d="M76.0566 217.311C81.6 217.472 86.9975 218.422 92.1982 220.393C93.1844 220.767 94.1329 221.252 94.9666 221.913C96.1893 222.882 96.0766 223.924 94.6769 224.559C93.6111 225.042 92.4436 225.14 91.3048 225.171C89.6575 225.218 88.0124 225.149 86.3584 224.977C83.8089 224.714 81.3081 224.258 78.8294 223.666C76.784 223.176 74.7652 222.555 72.8835 221.575C72.3064 221.274 71.7271 220.954 71.2074 220.566C69.9537 219.627 70.1217 218.358 71.6077 217.817C72.4435 217.512 73.339 217.323 74.2478 217.316C74.8515 217.309 75.4529 217.316 76.0566 217.316V217.311Z" fill="#FEFEFE"/>
<path d="M101.963 224.021C101.22 223.995 100.463 224.106 99.7625 223.716C98.7675 223.164 98.5619 222.429 99.1611 221.47C99.4375 221.029 99.8421 220.753 100.28 220.492C102.089 219.415 104.063 219.263 106.082 219.446C106.849 219.515 107.55 219.851 107.827 220.668C108.039 221.296 107.595 222.187 106.798 222.69C105.326 223.62 103.723 224.124 101.963 224.021Z" fill="#FEFEFE"/>
<path d="M213.842 157.117C213.373 157.051 212.869 157.015 212.385 156.901C209.771 156.289 208.544 154.305 209.143 151.663C209.38 150.618 209.793 149.632 210.377 148.741C213.351 144.202 217.457 141.216 222.658 139.764C223.978 139.397 225.342 139.357 226.7 139.437C229.957 139.631 231.571 141.96 230.631 145.112C230.16 146.693 229.241 148.033 228.181 149.258C224.752 153.225 220.63 156.049 215.374 156.941C214.881 157.026 214.379 157.057 213.844 157.115L213.842 157.117Z" fill="#FEFEFE"/>
<path d="M210.866 163.351C210.89 164.669 210.561 165.769 209.824 166.713C208.677 168.182 206.912 168.004 206.023 166.359C205.137 164.718 205.477 162.019 206.738 160.675C207.912 159.423 209.502 159.622 210.366 161.129C210.782 161.853 210.886 162.645 210.866 163.351Z" fill="#FEFEFE"/>
<path d="M198.192 9.34737C195.324 9.23828 192.52 8.78631 189.802 7.82002C189.077 7.56176 188.436 7.16099 187.848 6.69789C186.698 5.79172 186.868 4.76532 188.239 4.19535C189.126 3.82799 190.092 3.61425 191.023 3.61647C194.652 3.6187 198.229 3.99942 201.535 5.70266C202.357 6.12792 203.277 6.60883 203.145 7.65972C203.019 8.65272 201.995 8.80189 201.179 9.05571C200.204 9.35851 199.202 9.37409 198.192 9.3496V9.34737Z" fill="#FEFEFE"/>
<path d="M181.161 7.58705C180.664 7.54475 180.144 7.5826 179.678 7.44233C178.837 7.18629 178.643 6.33801 179.335 5.83037C180.6 4.90417 182.037 4.52122 183.594 4.9153C184.018 5.02217 184.471 5.22032 184.547 5.76581C184.62 6.30684 184.23 6.60518 183.874 6.86345C183.07 7.44455 182.141 7.60709 181.163 7.58927L181.161 7.58705Z" fill="#FEFEFE"/>
<path d="M279.907 173.584C279.936 171.079 282.021 168.962 284.405 169.013C286.947 169.069 289.039 171.199 289.011 173.702C288.982 176.18 286.923 178.219 284.449 178.219C281.842 178.219 279.876 176.211 279.907 173.582V173.584ZM282.967 170.705C282.583 170.785 282.26 170.959 282.061 171.317C280.708 172.811 280.637 174.49 281.864 175.899C283.047 177.258 285.046 177.462 286.474 176.369C287.865 175.305 288.232 173.417 287.341 171.903C286.415 170.327 284.71 169.859 282.965 170.703L282.967 170.705Z" fill="#110F0F"/>
<path d="M296.531 180.294C293.977 180.314 292.027 178.415 291.985 175.866C291.938 173.203 293.862 171.124 296.381 171.112C298.926 171.101 301.02 173.125 301.082 175.652C301.146 178.181 299.096 180.272 296.531 180.292V180.294ZM299.914 175.686C299.89 173.853 298.357 172.299 296.564 172.292C294.667 172.284 293.07 173.84 293.062 175.706C293.05 177.56 294.667 179.203 296.504 179.203C298.34 179.203 299.938 177.556 299.914 175.686Z" fill="#110F0F"/>
<path d="M164.457 162.357C161.877 162.357 159.836 160.31 159.874 157.761C159.911 155.232 162.032 153.141 164.521 153.181C167.082 153.221 169.063 155.294 169.017 157.881C168.973 160.38 166.958 162.357 164.455 162.357H164.457ZM164.457 154.355C162.56 154.366 161.003 155.947 161.039 157.821C161.076 159.683 162.565 161.217 164.36 161.243C166.235 161.27 167.845 159.716 167.88 157.841C167.916 156.005 166.286 154.344 164.457 154.355Z" fill="#110F0F"/>
<path d="M172.116 159.058C172.107 156.529 174.068 154.476 176.54 154.429C179.079 154.38 181.175 156.44 181.199 159.002C181.221 161.543 179.119 163.66 176.593 163.636C174.099 163.611 172.125 161.594 172.116 159.06V159.058ZM174.583 156.464C173.011 157.773 172.79 159.735 174.042 161.233C175.242 162.667 177.33 162.87 178.778 161.692C180.226 160.514 180.474 158.339 179.322 156.943C178.026 155.373 176.18 155.191 174.575 156.473L174.583 156.466V156.464Z" fill="#110F0F"/>
<path d="M124.223 59.5085C124.23 60.7263 122.607 63.0396 121.481 63.4181C120.685 63.6853 120.128 63.2979 120.27 62.4919C120.55 60.871 121.506 59.6487 122.81 58.7448C123.549 58.2349 124.219 58.6602 124.223 59.5085Z" fill="#FEFEFE"/>
<path d="M61.3317 110.29C62.9304 110.374 64.5025 110.59 65.9487 111.358C66.3997 111.596 66.8641 111.846 66.8044 112.465C66.7447 113.102 66.1985 113.182 65.7342 113.353C64.193 113.921 62.6761 113.536 61.1703 113.208C60.5445 113.073 59.8768 112.986 59.3394 112.583C58.9458 112.289 58.4174 112.011 58.4837 111.441C58.5478 110.882 59.063 110.699 59.5583 110.528C60.1399 110.327 60.7236 110.258 61.3317 110.29Z" fill="#FEFEFE"/>
<path d="M332.467 271.481C332.416 271.808 332.172 272.002 331.954 272.204C330.364 273.678 328.772 275.15 327.177 276.619C327.067 276.722 326.95 276.817 326.828 276.904C326.543 277.111 326.249 277.105 326.025 276.833C325.846 276.615 325.893 276.357 326.078 276.143C326.209 275.991 326.348 275.842 326.496 275.706C328.051 274.268 329.603 272.83 331.164 271.396C331.348 271.227 331.549 271.058 331.772 270.957C332.119 270.801 332.52 271.12 332.471 271.478L332.467 271.481Z" fill="#110F0F"/>
<path d="M250.105 168.276C249.579 168.287 248.942 167.639 248.955 167.109C248.971 166.425 249.758 165.619 250.397 165.633C250.967 165.646 251.569 166.339 251.558 166.971C251.549 167.514 250.713 168.265 250.105 168.276Z" fill="#FEFEFE"/>
<path d="M118.437 259.276C118.008 259.272 117.608 259.167 117.248 258.929C117.115 258.748 116.949 258.699 116.748 258.809C116.611 258.76 116.476 258.711 116.339 258.659C116.206 258.468 116.04 258.419 115.835 258.539C115.136 258.428 114.446 258.288 113.867 257.847C112.929 257.132 112.898 256.166 113.814 255.442C114.083 255.228 114.426 255.104 114.745 254.959C121.48 251.9 128.208 248.83 134.957 245.799C137.013 244.875 139.127 244.472 141.407 245.1C152.122 248.046 162.855 250.927 173.577 253.846C190.272 258.392 206.962 262.95 223.652 267.505C224.331 267.69 225.005 267.892 225.684 268.084C226.429 268.293 227.079 268.667 227.594 269.246C228.348 270.094 228.348 270.869 227.495 271.606C225.624 273.216 223.8 274.886 221.808 276.346C220.213 276.19 218.617 276.064 217.025 275.874C215.042 275.636 213.067 275.329 211.084 275.082C209.098 274.837 207.103 274.668 205.122 274.4C202.548 274.053 199.986 273.619 197.412 273.265C194.144 272.813 190.862 272.452 187.601 271.965C183.351 271.328 179.116 270.598 174.873 269.921C170.875 269.282 166.867 268.705 162.878 268.019C158.541 267.276 154.221 266.454 149.898 265.635C144.098 264.537 138.314 263.379 132.545 262.122C128.142 261.162 123.735 260.227 119.368 259.114C119.012 259.022 118.689 258.886 118.435 259.276H118.437Z" fill="#D0E6EC"/>
<path d="M118.439 259.272C118.694 258.882 119.017 259.018 119.373 259.109C123.74 260.224 128.147 261.157 132.549 262.117C138.316 263.373 144.102 264.533 149.902 265.63C154.225 266.447 158.548 267.269 162.882 268.015C166.871 268.701 170.88 269.277 174.878 269.916C179.121 270.593 183.355 271.326 187.605 271.96C190.867 272.448 194.148 272.811 197.416 273.26C199.99 273.617 202.551 274.049 205.127 274.396C207.108 274.663 209.102 274.832 211.088 275.077C213.071 275.322 215.046 275.632 217.029 275.87C218.619 276.061 220.218 276.188 221.812 276.342C218.677 279.183 215.433 281.901 212.125 284.535C210.699 285.671 209.038 286.074 207.159 285.51C199.214 283.135 191.249 280.833 183.296 278.493C162.183 272.281 141.073 266.067 119.967 259.841C119.45 259.69 118.871 259.672 118.442 259.269L118.439 259.272Z" fill="#A1C5D1"/>
<path d="M115.842 258.537C116.047 258.419 116.213 258.468 116.346 258.657C116.154 258.717 115.988 258.67 115.842 258.537Z" fill="#A1C5D1"/>
<path d="M116.746 258.807C116.947 258.698 117.113 258.747 117.245 258.927C117.055 258.987 116.889 258.947 116.746 258.807Z" fill="#A1C5D1"/>
<path d="M282.97 170.706C284.714 169.862 286.419 170.329 287.346 171.906C288.237 173.42 287.87 175.308 286.479 176.372C285.05 177.465 283.051 177.26 281.868 175.902C280.641 174.49 280.712 172.814 282.065 171.32C282.074 171.719 282.056 172.119 282.096 172.516C282.18 173.371 282.634 173.816 283.405 173.84C284.117 173.863 284.67 173.44 284.803 172.769C284.953 172.015 284.632 171.427 283.861 171.133C283.551 171.015 283.151 171.106 282.972 170.71L282.97 170.706Z" fill="#CADFE5"/>
<path d="M282.957 170.704C283.136 171.1 283.534 171.009 283.846 171.127C284.618 171.421 284.939 172.009 284.788 172.764C284.656 173.432 284.101 173.857 283.391 173.835C282.621 173.81 282.166 173.365 282.082 172.51C282.044 172.113 282.06 171.713 282.051 171.314C282.252 170.956 282.573 170.784 282.957 170.702V170.704Z" fill="#FEFEFE"/>
<path d="M299.906 175.69C299.931 177.56 298.332 179.208 296.497 179.208C294.659 179.208 293.043 177.565 293.054 175.71C293.065 173.844 294.661 172.29 296.556 172.297C298.35 172.304 299.884 173.858 299.906 175.69ZM296.09 173.205C295.112 173.152 294.502 173.642 294.46 174.514C294.422 175.356 294.924 175.906 295.791 175.973C296.724 176.044 297.39 175.516 297.443 174.664C297.489 173.918 296.868 173.248 296.088 173.205H296.09Z" fill="#CADFE5"/>
<path d="M164.465 154.357C166.294 154.346 167.923 156.007 167.888 157.844C167.853 159.719 166.243 161.273 164.368 161.246C162.574 161.219 161.084 159.685 161.047 157.824C161.009 155.949 162.568 154.371 164.465 154.357ZM165.261 156.786C165.259 155.796 164.768 155.29 163.791 155.272C162.933 155.257 162.303 155.805 162.267 156.599C162.232 157.361 163.147 158.305 163.908 158.292C164.682 158.278 165.263 157.63 165.261 156.786Z" fill="#CADFE5"/>
<path d="M174.562 156.469C176.168 155.187 178.014 155.369 179.31 156.939C180.464 158.337 180.214 160.51 178.766 161.688C177.317 162.866 175.23 162.663 174.029 161.229C172.776 159.731 172.999 157.769 174.571 156.46C174.706 156.986 174.337 157.422 174.31 157.916C174.262 158.807 174.841 159.491 175.675 159.548C176.619 159.613 177.55 158.903 177.603 158.077C177.66 157.202 177.006 156.518 176.05 156.48C175.555 156.46 175.058 156.471 174.562 156.469Z" fill="#CADFE5"/>
<path d="M296.088 173.201C296.869 173.243 297.49 173.916 297.444 174.659C297.389 175.512 296.723 176.037 295.792 175.968C294.925 175.902 294.423 175.352 294.461 174.51C294.501 173.637 295.111 173.148 296.091 173.201H296.088Z" fill="#FEFEFE"/>
<path d="M165.261 156.788C165.263 157.629 164.679 158.279 163.907 158.293C163.147 158.306 162.231 157.362 162.267 156.601C162.304 155.806 162.934 155.256 163.79 155.274C164.767 155.291 165.258 155.799 165.261 156.788Z" fill="#FEFEFE"/>
<path d="M174.581 156.474C175.077 156.477 175.574 156.463 176.069 156.486C177.025 156.526 177.679 157.209 177.622 158.082C177.566 158.908 176.636 159.618 175.694 159.554C174.862 159.498 174.283 158.812 174.329 157.922C174.356 157.427 174.725 156.991 174.59 156.466L174.581 156.472V156.474Z" fill="#FEFEFE"/>
</g>
<defs>
<clipPath id="clip0_432_562">
<rect width="359.801" height="351.716" fill="white" transform="translate(0.482422 0.4104)"/>
</clipPath>
</defs>
</svg>
