<svg width="413" height="324" viewBox="0 0 413 324" fill="none" xmlns="http://www.w3.org/2000/svg">
<g clip-path="url(#clip0_432_995)">
<path d="M155.526 244.499C151.201 245.757 146.984 246.982 142.765 248.213C139.024 249.305 135.273 250.374 131.546 251.508C130.658 251.778 129.865 251.771 128.977 251.522C125.953 250.673 122.922 249.841 119.967 248.763C119.323 248.53 118.884 248.443 118.353 249.089C115.341 252.73 111.31 254.627 106.774 255.239C94.4255 256.91 83.8008 253.359 75.1504 244.176C75.0217 244.04 74.8698 243.927 74.7278 243.8C74.1665 243.913 73.9486 244.413 73.6218 244.765C67.1439 251.785 59.144 254.527 49.7607 253.479C42.9527 252.717 36.7357 250.227 30.7663 246.992C24.4833 243.587 19.0158 239.154 14.5751 233.519C7.11994 224.057 5.08282 213.443 8.22269 201.814C10.4249 193.653 14.7038 186.593 19.8511 180.02C22.6245 176.479 25.6686 173.187 28.8547 170.022C30.0862 168.797 30.0928 168.787 29.4457 167.306C25.071 157.271 22.0896 146.83 20.5676 135.977C20.1548 133.028 19.8016 130.066 19.7421 127.084C19.7256 126.162 19.4945 125.769 18.4809 125.722C13.228 125.483 9.15045 123.01 6.0436 118.82C2.98297 114.696 1.40148 109.953 0.873214 104.917C-0.744594 89.4673 3.4452 75.6849 13.0629 63.5965C16.2061 59.6458 20.0492 56.484 24.7342 54.4803C28.5575 52.8461 32.4799 52.3635 36.5244 53.4985C39.1261 54.2274 41.3052 55.7085 43.2994 57.5557C43.6065 57.2794 43.9036 57.0464 44.1578 56.7735C55.2745 44.7484 68.6924 36.3012 83.9823 30.7962C85.1973 30.3602 85.7388 29.811 85.9633 28.483C86.8548 23.1678 88.1622 17.9523 90.2588 12.9666C91.1172 10.9197 92.1143 8.94598 93.3491 7.09878C94.2307 5.77745 95.2179 4.54598 96.3833 3.47094C100.141 -0.000465259 104.502 -0.702734 109.124 1.43403C111.677 2.61224 113.826 4.35627 115.794 6.34326C118.518 9.09575 120.796 12.2044 122.863 15.4761C124.348 17.8292 125.752 20.2322 126.976 22.7351C127.369 23.5405 127.818 23.9632 128.809 23.9832C133.778 24.0897 138.737 24.4525 143.65 25.2413C144.587 25.3911 145.145 25.1281 145.69 24.356C148.071 20.9977 150.646 17.7959 153.555 14.8803C154.895 13.5357 156.298 12.2676 157.807 11.116C159.012 10.1941 160.287 9.37533 161.647 8.70967C167.101 6.04371 171.76 7.41164 174.923 12.6237C176.924 15.9187 177.914 19.5899 178.631 23.3342C179.275 26.6958 179.733 30.0939 179.806 33.5221C179.833 34.7302 180.311 35.2328 181.394 35.6921C192.22 40.2519 202.403 45.9932 211.974 52.8395C213.182 53.7048 214.127 54.7266 214.886 56.008C218.917 62.8077 222.992 69.5874 227.043 76.3738C228.093 78.1312 228.083 78.1345 226.515 79.4358C221.75 83.3832 216.989 87.3306 212.228 91.2846C210.934 92.3596 210.927 92.0567 211.819 93.7142C215.352 100.288 218.878 106.871 222.401 113.451C223.391 115.305 223.388 115.311 221.83 116.773C214.681 123.462 207.527 130.146 200.379 136.839C198.662 138.446 198.933 137.924 199.702 139.821C202.601 146.977 205.523 154.123 208.431 161.275C209.303 163.415 209.181 163.761 207.187 164.903C201.775 168.002 196.377 171.127 190.936 174.169C189.936 174.728 189.685 175.304 189.83 176.419C190.467 181.321 191.035 186.234 191.553 191.15C191.669 192.242 192.085 192.994 192.881 193.733C195.69 196.352 197.985 199.334 198.863 203.208C199.207 204.719 199.217 206.224 198.748 207.711C198.134 209.659 197.232 211.509 196.057 213.127C194.35 215.48 191.775 216.342 188.955 216.475C184.346 216.688 180.1 215.357 176.217 212.997C174.566 211.992 173.246 211.938 171.555 212.751C169.462 213.752 167.237 214.471 165.058 215.287C164.354 215.55 163.965 215.882 163.935 216.764C163.76 222.279 163.499 227.788 163.288 233.303C163.232 234.777 163.262 234.78 164.747 235.083C173.497 236.881 182.243 238.678 190.992 240.479C191.484 240.578 191.973 240.705 192.468 240.795C193.412 240.961 193.709 241.477 193.495 242.422C193.158 243.903 192.864 245.394 192.613 246.892C191.375 254.308 191.785 261.666 193.313 269.002C193.531 270.054 193.964 270.446 194.971 270.659C204.199 272.607 213.414 274.607 222.635 276.594C222.942 276.66 223.253 276.71 223.563 276.77C224.243 276.907 224.56 277.279 224.319 277.988C223.071 281.656 221.697 285.254 219.182 288.286C215.949 292.18 212.037 293.724 206.952 292.596C196.46 290.266 185.941 288.023 175.379 286.036C171.086 285.231 167.772 283.234 165.081 279.939C161.241 275.236 159.049 269.738 157.556 263.916C156.113 258.295 155.522 252.57 155.688 246.762C155.704 246.13 155.694 245.501 155.691 244.869C155.691 244.809 155.645 244.752 155.539 244.496L155.526 244.499ZM218.97 66.0594C219.02 65.8431 218.904 65.7333 218.716 65.6767C217.003 62.7478 215.292 59.8156 213.579 56.8867C213.354 56.5006 213.149 56.1112 212.568 56.3442C210.904 57.0065 209.105 57.306 207.405 58.1381C209.739 61.8591 211.74 65.6401 214.153 69.1681C214.705 70.3596 215.13 71.7808 216.306 72.3765C219.119 73.8077 222.047 75.0092 224.93 76.3039C223.936 74.0407 222.754 72.0038 221.509 70.0068C220.753 68.7953 220.215 67.434 219.162 66.4189C219.099 66.2991 219.036 66.1793 218.974 66.0594H218.97ZM213.803 100.71C213.232 99.5886 212.542 98.5103 212.113 97.3354C210.842 93.834 208.474 91.6141 204.948 90.4891C203.377 89.9899 201.911 89.1478 200.032 88.2958C200.494 89.2809 200.752 89.8967 201.062 90.4825C202.568 93.3281 204.063 96.1805 205.612 99.0029C206.427 100.487 207.094 102.062 208.134 103.42C208.263 104.255 208.894 104.861 209.158 105.623C210.158 108.518 212.189 110.203 215.041 111.148C216.89 111.764 218.634 112.712 220.423 113.511C220.502 113.418 220.581 113.325 220.661 113.231C218.376 109.058 216.091 104.884 213.807 100.71H213.803ZM188.655 179.478C188.572 178.413 188.466 177.347 188.417 176.279C188.374 175.354 187.974 174.828 187.093 174.462C184.494 173.38 181.936 172.195 179.364 171.044C178.934 170.851 178.535 170.541 177.891 170.731C178.462 175.321 179.03 179.884 179.598 184.447C179.686 185.82 180.366 186.706 181.639 187.103C183.375 187.645 185.046 188.347 186.637 189.236C187.717 189.842 188.777 190.488 190.087 191.256C189.671 187.156 189.318 183.302 188.658 179.481L188.655 179.478ZM200.963 147.15C200.224 144.6 198.979 142.247 198.104 139.754C197.78 138.833 197.216 138.337 196.341 137.977C193.964 136.995 191.629 135.92 189.269 134.898C188.905 134.742 188.549 134.329 188.007 134.795C190.111 140.084 192.161 145.419 194.462 150.655C195.225 152.588 195.994 154.519 196.744 156.456C196.932 156.945 197.176 157.325 197.681 157.564C200.719 158.999 203.743 160.463 206.992 162.024C206.642 160.416 206.008 159.195 205.483 157.944C203.974 154.349 202.696 150.655 200.966 147.153L200.963 147.15ZM151.432 229.725C150.95 231.589 151.293 233.506 151.085 235.39C151.039 235.806 151.224 236.092 151.64 236.258C153.248 236.901 154.757 237.809 156.421 238.252C156.774 237.779 156.747 237.317 156.846 236.891C157.57 233.822 157.573 233.799 160.673 234.278C161.482 234.404 161.829 234.211 161.842 233.359C161.895 230.134 162.235 226.916 162.07 223.684C162.552 222.08 162.268 220.422 162.41 218.791C162.509 217.666 162.885 216.345 162.327 215.443C161.766 214.538 160.379 214.435 159.346 213.999C157.005 213.01 154.651 212.055 152.36 211.113C151.943 211.569 152.039 211.965 152.019 212.328C151.874 215.29 151.712 218.256 151.61 221.221C151.514 224.053 151.485 226.892 151.425 229.725H151.432ZM188.542 63.4467C186.664 63.6098 184.95 64.4452 183.128 64.8147C182.045 65.0343 181.744 65.5702 181.721 66.6253C181.629 70.7157 181.44 74.8062 181.318 78.8967C181.295 79.6355 181.143 80.4044 181.549 81.2797C182.702 80.9369 183.973 81.1799 185.118 80.5741C194.294 78.4074 199.078 68.0564 196.588 60.9871C193.901 61.7826 191.144 62.3584 188.539 63.4501L188.542 63.4467ZM196.063 200.04C192.742 194.202 187.624 190.664 181.437 188.544C178.555 187.555 175.597 187.113 172.562 187.832C168.548 188.783 166.649 191.739 167.646 195.746C168.716 200.056 171.4 203.235 174.92 205.768C178.551 209.01 182.837 210.807 187.598 211.479C189.734 211.782 191.867 211.699 193.901 210.833C196.407 209.765 197.592 207.948 197.602 205.232C197.609 203.338 197.031 201.634 196.063 200.043V200.04ZM143.947 141.422C142.89 140.521 141.791 140.399 140.649 141.056C139.457 141.745 138.281 142.467 137.073 143.119C136.389 143.489 136.214 143.931 136.535 144.647C137 145.679 137.492 146.707 137.826 147.782C138.205 148.997 138.918 149.553 140.167 149.413C140.447 149.54 140.715 149.726 141.008 149.786C148.853 151.36 154.902 155.414 158.61 162.71C158.752 162.986 158.821 163.319 159.286 163.362C159.475 162.796 159.679 162.214 159.864 161.625C162.641 152.815 165.371 143.985 168.234 135.201C168.769 133.557 168.666 132.149 168.003 130.655C165.526 125.063 161.165 121.545 155.691 119.256C155.143 119.026 154.595 118.72 154.004 118.746C153.806 119.156 153.905 119.469 153.944 119.778C154.397 123.486 154.852 127.193 155.291 130.905C155.364 131.517 155.631 132.302 154.984 132.659C153.984 133.208 154.119 134.043 154.099 134.925C153.977 140.124 148.83 144.148 143.947 141.419V141.422ZM211.793 55.0894C211.826 54.9296 211.855 54.7699 211.888 54.6101C186.944 36.8071 159.362 26.6392 128.631 25.411C128.525 26.2231 128.924 26.6758 129.159 27.175C130.621 30.3369 131.975 33.542 133.243 36.7871C133.451 37.3163 133.626 37.8622 133.755 38.4113C133.827 38.7242 133.732 39.0504 133.392 39.2035C133.035 39.3666 132.758 39.1802 132.606 38.8973C132.338 38.398 132.104 37.8755 131.899 37.3463C130.608 33.9747 129.208 30.6498 127.657 27.3914C124.659 21.0843 121.314 14.9902 116.774 9.64492C114.509 6.97896 112.013 4.56928 108.85 2.995C104.509 0.831608 100.576 1.48728 97.0866 4.88547C94.9702 6.94901 93.4944 9.44522 92.2563 12.0979C89.7437 17.4764 88.3339 23.1911 87.317 29.0089C86.211 35.3194 85.5242 41.683 85.3723 48.0933C85.3393 49.4846 85.0455 50.8625 85.1973 52.267C85.2469 52.7396 85.029 53.1823 84.4743 53.1889C83.9097 53.1956 83.771 52.7496 83.738 52.2737C83.7281 52.1472 83.7479 52.0207 83.7545 51.8942C83.9295 47.6507 84.0418 43.4038 84.537 39.1802C84.8078 36.8703 85.0224 34.5538 85.2634 32.244C84.4149 32.0077 83.814 32.457 83.1932 32.6867C77.9304 34.6404 72.8459 36.9835 67.9759 39.7892C51.6427 49.1983 38.9643 62.1554 30.5749 79.1962C22.6905 95.2186 19.894 112.236 21.3434 129.989C22.1788 140.214 24.4569 150.135 27.9831 159.757C28.9537 162.407 29.9178 165.063 31.1857 167.589C31.945 167.333 32.3346 166.807 32.7936 166.391C36.399 163.122 40.1661 160.057 44.0456 157.125C45.1021 156.326 46.1652 155.537 47.2416 154.765C47.5883 154.515 48.0109 154.163 48.3773 154.692C48.6778 155.128 48.4566 155.564 48.0901 155.863C47.4562 156.383 46.7926 156.865 46.1355 157.354C37.5446 163.728 29.5117 170.728 22.6212 178.972C17.4805 185.122 13.1058 191.759 10.4843 199.427C6.07001 212.338 8.07081 224.083 17.1305 234.351C24.9356 243.201 34.758 248.736 46.1454 251.462C50.6027 252.527 55.1127 252.673 59.6129 251.622C66.1964 250.081 71.1488 246.17 75.0349 240.748C78.013 236.594 80.0699 231.975 81.625 227.125C84.5898 217.879 85.7322 208.334 86.211 198.679C86.244 198.003 85.8841 196.868 87.0298 196.944C87.9443 197.008 87.6538 198.059 87.6208 198.695C87.3467 204.207 86.8878 209.698 85.96 215.147C85.2568 219.277 84.3686 223.361 83.0546 227.338C82.7607 228.23 82.8499 228.786 83.672 229.212C83.8932 229.329 84.0946 229.485 84.3059 229.625C97.1493 238.169 110.94 244.672 125.692 249.089C126.64 249.372 127.577 249.751 128.621 249.798C128.545 249.089 128.099 248.626 127.785 248.107C124.877 243.288 121.951 238.472 119.036 233.656C118.25 232.357 117.478 231.049 116.675 229.761C116.23 229.049 116.305 228.453 116.946 227.924C117.286 227.641 117.626 227.362 117.966 227.079C122.569 223.235 127.181 219.4 131.764 215.533C133.005 214.485 133.207 214.794 132.289 213.11C129.984 208.89 127.699 204.656 125.408 200.429C124.111 198.036 122.81 195.646 121.525 193.247C120.581 191.486 120.591 191.479 122.08 190.052C122.582 189.569 123.087 189.096 123.592 188.617C130.255 182.333 136.918 176.049 143.574 169.759C145.066 168.348 144.901 168.727 144.145 166.883C141.216 159.738 138.248 152.608 135.31 145.466C134.432 143.332 134.57 142.953 136.538 141.815C141.827 138.753 147.1 135.654 152.432 132.665C153.617 132 154.083 131.247 153.776 129.956C153.716 129.713 153.723 129.453 153.693 129.2C152.653 120.71 151.63 112.216 150.547 103.732C150.405 102.621 150.785 102.088 151.759 101.729C153.294 101.166 154.803 100.527 156.325 99.9281C163.585 97.0658 170.842 94.1968 178.106 91.3478C178.898 91.0349 179.489 90.7787 179.519 89.677C179.704 83.2135 179.984 76.7533 180.229 70.2897C180.282 68.8951 180.262 67.4973 180.344 66.106C180.46 64.1823 180.483 64.1656 182.292 63.6464C189.242 61.6428 196.196 59.6591 203.145 57.6522C206.038 56.8168 208.92 55.9448 211.809 55.0927L211.793 55.0894ZM166.491 145.636C166.606 146.747 167.243 147.489 167.715 148.298C171.318 154.456 176.069 159.525 181.866 163.635C182.972 164.42 183.804 164.607 185.039 163.835C187.816 162.097 190.702 160.54 193.551 158.925C195.809 157.647 195.69 158.047 194.73 155.471C194.664 155.294 194.581 155.121 194.508 154.945C191.669 147.969 188.856 140.983 185.96 134.03C185.488 132.895 185.643 132.196 186.518 131.387C191.293 126.977 196.03 122.524 200.775 118.081C203.403 115.621 206.005 113.138 208.653 110.702C209.369 110.043 209.597 109.407 209.036 108.558C208.861 108.295 208.735 108.003 208.583 107.723C205.09 101.196 201.594 94.6728 198.101 88.146C197.331 86.7082 197.361 86.5251 198.652 85.4567C200.204 84.1687 201.779 82.9039 203.33 81.6159C206.682 78.8368 210.02 76.0443 213.377 73.2785C213.912 72.8392 214.285 72.4864 213.82 71.7275C211.261 67.5838 208.729 63.4268 206.216 59.2564C205.81 58.5841 205.381 58.4976 204.664 58.7272C202.99 59.2664 201.283 59.7024 199.596 60.2017C198.259 60.6011 198.309 60.611 198.49 62.0189C199.355 68.7687 197.236 74.3669 192.052 78.7569C189.368 81.0301 186.211 82.1617 182.784 82.6676C181.094 82.9172 181.094 82.9472 181.041 84.6779C181.005 85.8827 180.998 87.0876 180.958 88.2924C180.823 92.1433 181.622 91.5242 177.607 93.1085C172.107 95.2818 166.613 97.4718 161.096 99.5953C159.986 100.021 159.412 100.527 159.273 101.842C159.078 103.669 158.973 105.506 158.837 107.334C158.58 110.808 158.593 114.293 158.884 117.778C158.979 118.936 159.494 119.532 160.435 120.104C165.015 122.883 168.293 126.754 169.98 131.933C170.274 132.828 170.261 133.62 169.974 134.502C168.911 137.751 167.9 141.016 166.874 144.278C166.722 144.76 166.6 145.249 166.494 145.632L166.491 145.636ZM1.89012 98.7166C1.8439 100.957 2.00238 103.17 2.35235 105.367C3.14145 110.316 4.65691 114.972 7.89913 118.903C9.49382 120.836 11.4022 122.357 13.7397 123.283C15.6448 124.038 17.0018 123.609 18.1474 121.911C18.7913 120.956 19.1677 119.895 19.3889 118.756C19.828 116.506 19.7818 114.216 19.9898 111.947C20.9208 101.765 23.3574 91.9802 27.3987 82.6077C30.9578 74.3535 35.6462 66.8017 41.4307 59.9421C42.4179 58.7705 42.4311 58.7439 41.2293 57.7487C38.063 55.1227 34.4576 54.001 30.3536 54.5103C27.0949 54.913 24.1796 56.1744 21.4623 57.9617C18.2663 60.0619 15.5557 62.7012 13.2346 65.7299C5.78937 75.4452 2.22689 86.5251 1.89342 98.72L1.89012 98.7166ZM191.791 269.847C192.049 269.318 191.798 268.842 191.702 268.36C190.068 260.115 189.909 251.875 191.758 243.64C192.072 242.243 192.065 242.229 190.619 241.93C180.463 239.823 170.311 237.719 160.155 235.619C158.718 235.323 158.715 235.33 158.365 236.721C158.319 236.904 158.293 237.094 158.253 237.28C156.444 246.063 156.797 254.79 158.93 263.467C160.211 268.676 162.136 273.605 165.322 277.962C166.867 280.072 168.663 281.919 170.974 283.194C173.777 284.741 176.637 284.838 178.934 283.473C178.849 283.101 178.495 283.064 178.238 282.911C173.272 279.902 170.809 275.489 171.034 269.641C171.278 263.284 176.993 259.826 182.692 262.558C185.029 263.68 186.924 265.387 188.116 267.674C188.958 269.292 190.064 269.977 191.791 269.854V269.847ZM117.263 248.09C116.738 247.554 116.22 247.485 115.761 247.311C112.046 245.924 108.391 244.386 104.783 242.735C100.137 240.612 95.6537 238.189 91.2031 235.686C88.9678 234.431 86.584 233.682 83.9823 233.925C81.7735 234.131 80.0005 235.087 78.9869 237.157C78.2309 238.698 77.2899 240.119 76.2565 241.47C75.6787 242.226 75.7943 242.768 76.3753 243.444C78.3761 245.767 80.7335 247.648 83.3385 249.222C88.5089 252.347 94.1382 254.055 100.134 254.354C104.783 254.587 109.296 253.845 113.41 251.455C114.879 250.603 116.269 249.635 117.263 248.09ZM179.737 285.001C180.064 285.284 180.146 285.41 180.249 285.434C184.059 286.252 187.869 287.058 191.679 287.88C192.227 287.997 192.392 287.71 192.663 287.291C194.561 284.369 197.942 282.981 201.336 283.67C204.849 284.382 206.45 286.532 206.067 290.157C206.005 290.742 206.127 290.935 206.655 291.069C209.98 291.907 213.14 291.841 215.939 289.508C219.475 286.559 221.295 282.598 222.638 278.354C221.975 277.865 221.338 277.832 220.73 277.699C212.133 275.835 203.535 273.968 194.934 272.107C193.521 271.801 192.095 271.565 190.692 271.222C189.807 271.006 189.213 271.139 189.028 272.137C188.981 272.384 188.902 272.63 188.816 272.866C187.588 276.291 185.99 279.499 183.468 282.172C182.428 283.27 181.17 284.092 179.737 285.001ZM146.585 25.5741C147.169 25.7372 147.466 25.8504 147.774 25.9036C154.482 27.0119 161.063 28.6594 167.574 30.6331C169.135 31.1057 170.76 31.4153 172.407 31.3321C176.125 31.1457 178.056 28.8125 177.482 25.1281C177.029 22.2458 176.339 19.4135 175.276 16.6876C174.583 14.9069 173.728 13.2128 172.48 11.7584C170.347 9.27215 167.729 8.35022 164.526 9.25884C162.806 9.74477 161.251 10.5569 159.792 11.5653C154.469 15.2498 150.54 20.2622 146.585 25.5774V25.5741ZM187.456 132.542C190.735 133.983 193.746 135.248 196.697 136.639C197.675 137.098 198.338 137.005 198.995 136.206C199.193 135.967 199.461 135.784 199.692 135.567C206.467 129.234 213.245 122.903 220.01 116.563C220.311 116.28 220.756 116.077 220.783 115.544C220.426 115.052 219.842 114.949 219.343 114.719C216.999 113.644 214.609 112.666 212.314 111.491C211.096 110.868 210.327 111.065 209.359 111.983C203.363 117.671 197.305 123.293 191.269 128.938C190.078 130.052 188.896 131.177 187.456 132.539V132.542ZM172.348 270.679C172.757 275.449 174.718 279.286 179.017 281.646C180.846 282.651 181.196 282.565 182.589 281.054C185.122 278.305 186.674 275.003 187.776 271.462C187.958 270.882 187.928 270.333 187.671 269.801C186.241 266.842 184.174 264.535 181.001 263.464C177.264 262.199 173.784 264.056 172.744 267.85C172.496 268.759 172.288 269.698 172.348 270.679ZM225.435 78.5006C225.092 77.9048 224.563 77.8083 224.118 77.6053C221.717 76.5103 219.277 75.5018 216.913 74.3402C215.764 73.7778 214.965 73.7844 213.929 74.6831C210.505 77.6552 206.972 80.4942 203.479 83.3865C202.28 84.3784 201.089 85.3768 199.91 86.3554C200.224 86.9245 200.686 87.0177 201.072 87.1974C203.631 88.3956 206.223 89.5306 208.755 90.782C209.706 91.2513 210.32 91.0749 211.093 90.4192C214.209 87.7666 217.385 85.1871 220.539 82.5778C222.179 81.2165 223.814 79.8519 225.435 78.5006ZM178.611 169.153C181.86 170.601 184.739 171.839 187.572 173.174C188.526 173.623 189.265 173.577 190.177 173.044C195.07 170.188 200.002 167.406 204.912 164.584C205.381 164.314 205.965 164.171 206.256 163.578C206.133 163.445 206.034 163.262 205.883 163.192C203.109 161.851 200.323 160.54 197.559 159.178C196.902 158.856 196.384 158.965 195.799 159.311C194.063 160.333 192.309 161.325 190.563 162.324C186.69 164.54 182.814 166.754 178.611 169.153ZM156.113 240.998C156.16 240.013 156.173 239.986 155.301 239.573C153.994 238.954 152.653 238.412 151.356 237.776C150.57 237.39 149.847 237.373 149.005 237.633C146.308 238.472 143.584 239.227 140.873 240.019C136.713 241.234 132.553 242.439 128.399 243.67C127.085 244.06 127.082 244.103 127.792 245.301C128.502 246.496 129.218 247.688 129.984 248.846C130.912 250.25 130.938 250.237 132.523 249.771C139.754 247.654 146.984 245.538 154.215 243.424C155.421 243.071 156.054 242.261 156.113 240.994V240.998ZM172.645 210.847C170.588 209.119 168.841 207.565 167.507 205.635C166.943 204.819 166.392 204.846 165.612 205.155C162.109 206.543 158.59 207.891 155.087 209.286C154.664 209.456 154.063 209.456 153.868 210.188C156.929 211.459 159.99 212.727 163.05 214.002C163.539 214.205 164.021 214.205 164.516 214.012C167.134 212.987 169.756 211.968 172.642 210.843L172.645 210.847ZM165.976 195.527C165.48 198.705 166.071 201.062 168.079 203.931C171.654 209.036 176.521 212.341 182.405 214.188C184.838 214.951 187.321 215.267 189.85 214.901C191.702 214.631 193.435 214.055 194.739 212.295C183.573 215.813 168.571 205.924 165.976 195.53V195.527ZM193.921 288.313C196.826 288.938 199.685 289.581 202.561 290.157C203.192 290.283 204.001 290.706 204.493 290.03C205.001 289.331 204.836 288.456 204.549 287.66C204.331 287.051 203.935 286.562 203.436 286.153C200.686 283.896 195.707 284.964 193.921 288.313ZM152.508 134.206C149.586 135.894 146.743 137.538 143.861 139.202C145.545 140.993 147.216 141.332 149.216 140.413C151.468 139.382 152.762 137.049 152.508 134.206Z" fill="#0A0604"/>
<path d="M327.555 303.938C338.507 303.832 349.455 303.995 360.38 304.797C370.724 305.556 381.078 306.321 391.303 308.189C394.209 308.718 397.091 309.357 399.874 310.379C400.941 310.771 401.991 311.201 402.879 311.93C404.167 312.991 404.19 314.186 402.955 315.288C402.093 316.057 401.043 316.499 399.983 316.895C396.434 318.227 392.74 318.962 389.019 319.591C380.827 320.976 372.57 321.728 364.286 322.311C344.75 323.685 325.198 323.995 305.629 323.242C295.133 322.84 284.653 322.127 274.24 320.673C269.449 320.004 264.675 319.195 260.063 317.664C258.808 317.248 257.563 316.789 256.5 315.973C254.975 314.805 254.935 313.397 256.424 312.199C257.464 311.36 258.696 310.861 259.951 310.429C264.431 308.884 269.073 308.065 273.738 307.393C291.587 304.824 309.558 304.125 327.555 303.932V303.938Z" fill="#020202"/>
<path d="M311.073 236.234C305.955 237.725 300.825 238.947 295.625 239.855C295.129 239.942 294.608 239.948 294.139 240.111C293.072 240.484 292.554 240.008 292.079 239.086C289.649 234.36 287.143 229.674 284.736 224.934C284.34 224.152 283.976 223.949 283.168 224.136C270.407 227.085 258.963 232.553 249.672 242.065C244.416 247.447 240.563 253.678 238.958 261.166C238.826 261.782 238.77 262.418 238.691 263.043C238.499 264.581 237.905 265.387 236.819 265.56C235.733 265.733 234.812 265.174 234.138 263.905C232.002 259.885 229.869 255.861 227.733 251.84C226.663 249.83 225.735 247.723 224.481 245.839C222.493 242.851 222.503 239.646 223.015 236.331C224.355 227.66 228.634 220.544 234.63 214.394C241.917 206.922 250.712 201.899 260.492 198.544C266.593 196.451 272.876 195.273 279.295 194.74C280.592 194.634 281.312 194.987 281.946 196.218C284.574 201.337 287.341 206.386 290.058 211.458C290.355 212.014 290.666 212.563 291.105 213.355C294.254 208.436 297.308 203.67 300.353 198.911C299.9 198.272 299.286 198.079 298.755 197.782C292.66 194.357 286.558 190.949 280.46 187.531C278.71 186.553 278.697 186.543 279.133 184.579C281.276 174.934 283.428 165.288 285.571 155.643C285.914 154.095 285.905 154.085 284.455 153.489C277.188 150.487 269.921 147.492 262.651 144.493C262.535 144.446 262.417 144.406 262.298 144.357C260.376 143.551 260.33 143.465 261.132 141.604C263.008 137.244 264.896 132.891 266.775 128.534C267.878 125.978 268.98 123.422 270.083 120.865C270.209 120.576 270.317 120.276 270.456 119.993C270.796 119.301 270.294 118.962 269.901 118.552C269.469 118.103 269.109 118.383 268.746 118.629C266.639 120.043 264.375 121.142 261.968 121.901C256.101 123.748 250.234 123.977 244.393 121.757C242.131 120.899 240.137 119.617 238.295 118.04C237.334 117.214 236.806 116.279 236.561 115.031C234.782 105.955 232.946 96.8885 231.133 87.8189C230.846 86.3911 230.589 84.9566 230.278 83.5321C230.133 82.8697 230.037 82.2473 230.76 81.8945C231.348 81.605 231.675 82.0942 232.041 82.4237C238.46 88.1917 245.879 88.7275 253.803 86.6607C254.344 86.5209 254.687 86.2413 254.909 85.742C256.246 82.7366 257.57 79.7212 258.947 76.7357C259.356 75.847 258.762 75.6307 258.227 75.3079C254.404 72.988 250.58 70.6649 246.754 68.3451C243.521 66.3847 240.286 64.431 237.063 62.454C235.677 61.6053 235.67 61.582 235.98 60.0343C237.001 54.942 238.037 49.8531 239.057 44.7641C239.272 43.6991 239.979 43.2098 240.923 42.8404C246.727 40.5705 252.637 38.6467 258.679 37.1423C271.582 33.9339 284.673 32.5027 297.952 33.1151C315.302 33.9139 331.88 37.8646 347.484 45.6827C347.764 45.8225 348.048 45.9623 348.319 46.1221C348.837 46.4283 349.263 46.3983 349.58 45.8292C349.673 45.6661 349.795 45.5163 349.907 45.3632C355.985 36.9426 365.877 34.047 375.577 36.9793C384.343 39.6286 390.63 45.4398 395.176 53.2646C399.095 60.0077 400.812 67.32 400.307 75.1315C400.168 77.2849 399.805 79.4183 399.138 81.4718C398.804 82.5036 398.801 83.3557 399.263 84.3708C401.499 89.2933 400.049 95.424 396.622 98.3862C395.925 98.9886 396.038 99.5178 396.272 100.21C398.151 105.745 399.438 111.416 400.165 117.221C401.116 124.81 401.102 132.398 400.168 139.983C398.871 150.511 395.859 160.529 391.366 170.108C390.798 171.319 390.801 171.356 392.082 172.068C396.067 174.278 399.785 176.861 403.06 180.062C406.91 183.827 409.977 188.127 411.615 193.319C414.028 200.977 412.932 208.22 408.742 215C405.233 220.678 400.297 224.838 394.654 228.223C394.331 228.416 394.017 228.656 393.667 228.775C391.973 229.361 391.455 230.543 391.224 232.327C390.181 240.398 386.149 246.805 379.909 251.844C374.316 256.357 367.878 259.116 361.02 261.007C355.969 262.398 350.841 263.39 345.608 263.509C336.823 263.712 328.595 261.895 321.737 255.904C316.243 251.108 313.229 244.868 311.601 237.852C311.486 237.359 311.449 236.85 311.057 236.247L311.073 236.234ZM256.474 107.549C255.16 109.776 253.301 110.947 250.673 110.441C246.463 109.629 243.307 105.039 243.987 100.786C244.353 98.5094 246.021 96.579 248.21 96.6156C250.029 96.6455 250.56 95.7003 251.102 94.3623C251.719 92.838 252.436 91.3569 253.086 89.8458C253.278 89.4032 253.661 88.9971 253.416 88.3181C245.902 90.1387 238.757 89.3998 232.068 84.5505C232.2 85.4758 232.256 86.0882 232.378 86.6906C234.201 95.7535 236.083 104.803 237.809 113.883C238.136 115.603 238.922 116.762 240.226 117.744C241.187 118.466 242.164 119.165 243.254 119.661C250.551 122.992 257.755 122.556 264.87 119.058C265.91 118.759 266.781 118.133 267.686 117.57C268.287 117.198 268.237 116.842 267.782 116.379C266.676 115.261 265.613 114.099 264.497 112.987C262.004 110.511 259.488 108.055 256.979 105.589C256.738 106.198 256.513 106.847 256.474 107.549ZM288.566 211.878C285.987 207.015 283.399 202.162 280.843 197.286C280.444 196.524 279.998 196.105 279.083 196.265C278.159 196.428 277.211 196.474 276.274 196.571C267.098 197.543 258.438 200.229 250.296 204.585C242.465 208.779 235.686 214.244 230.562 221.626C226.921 226.872 224.662 232.646 224.16 239.07C224.032 240.737 224.22 242.268 225.068 243.813C228.42 249.91 231.649 256.077 234.927 262.218C235.165 262.664 235.416 263.103 235.667 263.543C235.871 263.902 236.182 264.118 236.598 264.029C237.053 263.929 237.106 263.516 237.146 263.137C237.321 261.492 237.697 259.888 238.169 258.311C240.527 250.423 245.159 244.042 251.142 238.587C257.864 232.46 265.636 228.126 274.187 225.194C276.802 224.299 279.476 223.587 282.124 222.791C282.765 222.904 283.329 222.521 283.953 222.508C285.066 222.482 285.749 221.866 286.288 220.921C286.971 219.729 287.645 218.488 288.543 217.469C290.243 215.542 290.18 213.745 288.562 211.874L288.566 211.878ZM375.181 68.2153C374.861 67.4131 374.144 66.9605 373.603 66.3647C372.49 65.1499 371.087 64.6906 369.496 64.9635C367.766 65.2597 366.28 66.0419 365.27 67.5563C365.022 67.9257 364.824 68.3284 364.424 68.5548C363.827 68.8942 363.262 68.5581 363.292 67.8591C363.305 67.5496 363.407 67.2401 363.51 66.9439C365.012 62.5206 369.572 59.3886 374.151 59.6249C379.057 59.8779 383.382 63.5224 384.733 68.5414C386.113 73.677 384.198 79.0455 380.005 81.7547C378.777 82.5469 377.459 83.146 375.99 83.3157C375.548 83.3656 375.039 83.3623 374.901 82.8165C374.762 82.264 375.181 82.0377 375.637 81.9145C376 81.8147 376.376 81.7514 376.74 81.6516C381.593 80.2903 384.822 74.4625 383.475 69.5965C383.264 68.8343 382.891 68.5381 382.177 68.5348C381.801 68.5348 381.421 68.5148 381.045 68.5348C371.497 69.1106 364.497 78.7094 366.782 88.0918C368.413 94.7917 374.858 98.8821 381.474 97.3678C388.332 95.8001 393.116 91.5965 396.16 85.3194C398.993 79.4749 399.561 73.2676 398.478 66.9372C396.592 55.9272 391.112 47.2171 381.616 41.2894C376.594 38.1541 371.067 36.7729 365.177 37.6449C357.781 38.7433 352.532 42.9469 349.131 49.5702C346.978 53.7705 346.14 58.2836 346.123 62.9832C346.123 63.6655 346.46 64.8237 345.39 64.7905C344.383 64.7605 344.71 63.6156 344.7 62.9166C344.631 58.1505 345.546 53.5774 347.622 49.2873C348.454 47.5699 348.293 47.7829 346.899 47.0806C335.835 41.519 324.157 37.9012 311.948 36.024C299.937 34.1802 287.899 34.0537 275.831 35.5248C264.219 36.9426 252.987 39.8349 242.062 44.0086C241.052 44.3947 240.596 44.9805 240.388 46.0256C239.513 50.4389 238.556 54.8322 237.644 59.2389C237.304 60.8897 237.314 60.9163 238.777 61.8116C242.326 63.985 245.889 66.1351 249.444 68.2918C252.895 70.3853 256.355 72.4622 259.789 74.5756C261.096 75.3811 261.103 75.4942 260.515 76.8555C260.013 78.0171 259.485 79.1687 258.966 80.3236C256.612 85.5823 254.285 90.8543 251.888 96.093C251.416 97.1215 251.478 97.8104 252.337 98.5759C253.463 99.5844 254.473 100.726 255.533 101.811C260.706 107.093 265.88 112.372 271.054 117.654C272.002 118.623 272.214 119.714 271.688 120.925C270.433 123.834 269.178 126.74 267.927 129.649C266.223 133.603 264.516 137.557 262.826 141.518C262.301 142.752 262.324 142.766 263.542 143.318C263.886 143.475 264.242 143.601 264.592 143.747C271.638 146.646 278.684 149.539 285.726 152.451C287.621 153.233 287.618 153.273 287.176 155.267C285.043 164.852 282.907 174.438 280.774 184.023C280.374 185.82 280.374 185.83 281.926 186.702C288.08 190.161 294.235 193.622 300.399 197.06C302.466 198.212 302.674 198.082 301.175 200.415C296.387 207.867 291.643 215.349 286.832 222.788C286.172 223.81 286.076 224.608 286.684 225.72C288.813 229.604 290.854 233.541 292.864 237.489C293.35 238.441 293.924 238.754 294.958 238.531C297.662 237.945 300.369 237.366 303.096 236.9C305.11 236.557 306.537 235.405 307.699 233.851C308.732 232.473 309.426 230.925 309.762 229.208C310.267 226.645 310.225 224.036 310.396 221.453C310.845 214.653 312.031 207.997 313.797 201.437C313.978 200.758 313.929 199.636 314.989 199.936C315.897 200.192 315.382 201.114 315.213 201.746C313.454 208.376 312.199 215.089 311.872 221.962C311.588 227.953 311.902 233.894 313.586 239.672C317.092 251.714 324.755 259.239 337.199 261.486C343.112 262.554 348.983 262.141 354.827 260.983C361.776 259.605 368.476 257.528 374.61 253.834C386.942 246.409 392.152 234.76 389.487 220.551C388.282 214.121 385.809 208.187 382.663 202.508C378.027 194.151 372.157 186.726 365.719 179.733C365.253 179.227 364.276 178.628 365.154 177.899C365.867 177.307 366.353 178.288 366.782 178.748C369.889 182.076 372.847 185.531 375.624 189.149C375.997 189.635 376.244 190.25 376.872 190.503C377.423 190.334 377.624 189.824 377.918 189.438C385.77 179.127 391.746 167.831 395.467 155.357C398.557 144.999 399.897 134.435 399.29 123.618C398.983 118.153 398.263 112.754 396.853 107.479C395.902 103.918 393.707 101.322 390.029 100.25C388.8 99.8906 387.688 99.2649 386.849 98.2864C386.245 97.5808 385.68 97.5541 384.865 97.8803C383.349 98.4927 381.781 99.0119 380.15 99.1784C374.174 99.7841 368.281 96.123 366.012 90.4516C362.978 82.8664 366.24 73.6604 373.474 69.3502C374.055 69.0041 374.778 68.8576 375.181 68.202V68.2153ZM391.716 227.893C392.066 228.06 392.297 227.927 392.508 227.807C397.688 224.938 402.344 221.413 405.923 216.61C411.364 209.305 413.107 201.29 409.769 192.617C406.26 183.487 399.171 177.729 390.937 173.17C390.247 172.787 389.946 173.126 389.626 173.709C387.5 177.593 385.294 181.434 383.217 185.341C380.5 190.457 380.863 195.626 383.439 200.641C384.508 202.721 385.542 204.818 386.549 206.925C388.378 210.763 389.758 214.763 390.666 218.93C391.31 221.899 391.62 224.905 391.716 227.887V227.893ZM255.351 104.677C255.364 104.174 255.298 103.535 254.73 102.983C253.291 101.578 251.891 100.134 250.504 98.6758C250.029 98.1765 249.494 97.9935 248.83 98.0035C247.219 98.0268 246.021 98.952 245.535 100.586C244.683 103.459 246.684 107.259 249.758 108.607C252.815 109.949 255.387 108.235 255.348 104.677H255.351ZM397.913 85.1097C395.582 90.192 392.175 94.0395 387.476 96.7787C388.275 97.8271 389.154 98.4029 390.181 98.739C392.234 99.4113 394.014 98.7989 395.579 97.4343C398.729 94.6852 399.769 89.5363 397.913 85.1097ZM371.18 61.5088C372.982 63.4325 374.742 65.303 376.489 67.1902C376.773 67.4964 377.083 67.6827 377.476 67.5596C379.061 67.057 380.748 67.1369 382.399 66.8007C380.18 62.2476 375.462 60.0809 371.176 61.5088H371.18Z" fill="#150C08"/>
<path d="M82.1218 286.199C91.6603 286.272 100.971 286.435 110.252 287.277C117.01 287.889 123.782 288.419 130.432 289.896C132.152 290.279 133.849 290.729 135.467 291.441C136.044 291.697 136.606 291.997 137.038 292.469C137.662 293.148 137.662 293.804 137.045 294.493C136.437 295.172 135.615 295.528 134.796 295.847C132.205 296.849 129.494 297.408 126.77 297.874C119.137 299.176 111.431 299.778 103.708 300.227C92.2083 300.9 80.7021 301.136 69.1892 300.823C61.2653 300.607 53.3479 300.201 45.4669 299.332C40.597 298.796 35.7303 298.167 31.0123 296.743C29.926 296.417 28.8431 296.07 27.8856 295.448C26.3569 294.456 26.3404 293.178 27.8856 292.176C29.8237 290.922 32.0556 290.419 34.2611 289.95C41.4719 288.412 48.795 287.74 56.1345 287.177C64.8608 286.508 73.6035 286.362 82.1218 286.202V286.199Z" fill="#020202"/>
<path d="M231.174 173.5C230.484 173.46 229.784 173.49 229.107 173.37C227.591 173.097 226.409 172.361 225.927 170.774C225.835 170.471 225.743 170.165 225.597 169.885C224.148 167.139 224.953 164.756 226.75 162.529C227.624 161.444 228.592 160.443 229.665 159.561C235.539 154.721 242.096 151.247 249.538 149.602C251.38 149.196 253.255 149 255.15 149.366C256.788 149.686 257.891 150.524 258.28 152.225C258.449 152.964 258.627 153.716 258.941 154.398C259.627 155.886 259.301 157.234 258.551 158.559C257.699 160.063 256.577 161.348 255.292 162.476C249.108 167.901 242.039 171.562 233.993 173.257C233.066 173.453 232.121 173.476 231.177 173.5H231.174ZM232.343 159.348C230.553 160.552 229.014 162.03 227.681 163.731C227.169 164.383 226.733 165.082 226.462 165.864C226.03 167.123 226.446 167.975 227.7 168.374C228.674 168.684 229.698 168.693 230.698 168.587C236.106 168.028 241.029 166.087 245.609 163.188C249.055 161.558 252.04 159.291 254.629 156.489C255.484 155.56 256.253 154.555 256.62 153.31C256.983 152.072 256.639 151.396 255.434 150.95C254.223 150.501 252.955 150.491 251.72 150.704C244.545 151.939 238.117 154.898 232.346 159.344L232.343 159.348ZM257.759 155.264C249.495 164.274 239.722 169.725 227.413 170.234C227.611 171.369 228.437 171.809 229.503 171.942C231.141 172.148 232.765 172.052 234.37 171.682C241.419 170.071 247.682 166.836 253.295 162.29C254.767 161.098 256.124 159.764 257.105 158.113C257.61 157.264 258.145 156.379 257.759 155.261V155.264Z" fill="#150C08"/>
<path d="M211.798 55.0953C208.909 55.9507 206.026 56.8194 203.134 57.6548C196.184 59.6617 189.231 61.6454 182.281 63.649C180.472 64.1716 180.449 64.1849 180.333 66.1086C180.25 67.4998 180.27 68.8977 180.217 70.2923C179.976 76.7558 179.692 83.216 179.508 89.6796C179.478 90.7812 178.887 91.0409 178.094 91.3504C170.831 94.1994 163.571 97.0684 156.313 99.9307C154.791 100.53 153.283 101.169 151.747 101.731C150.773 102.087 150.394 102.623 150.536 103.735C151.619 112.219 152.639 120.713 153.682 129.203C153.712 129.456 153.708 129.716 153.765 129.959C154.072 131.25 153.609 132.002 152.421 132.668C147.089 135.657 141.819 138.755 136.527 141.817C134.559 142.956 134.42 143.335 135.298 145.468C138.237 152.611 141.205 159.74 144.134 166.886C144.89 168.727 145.055 168.35 143.563 169.762C136.906 176.052 130.24 182.333 123.581 188.62C123.076 189.096 122.571 189.572 122.069 190.054C120.58 191.482 120.573 191.489 121.514 193.249C122.798 195.649 124.099 198.039 125.397 200.432C127.688 204.659 129.973 208.892 132.277 213.113C133.199 214.797 132.997 214.487 131.753 215.536C127.17 219.403 122.557 223.237 117.955 227.081C117.615 227.364 117.275 227.647 116.935 227.927C116.294 228.456 116.218 229.052 116.664 229.764C117.47 231.052 118.239 232.36 119.025 233.658C121.943 238.474 124.865 243.287 127.774 248.11C128.088 248.629 128.533 249.091 128.609 249.8C127.566 249.754 126.628 249.378 125.681 249.091C110.929 244.675 97.138 238.171 84.2946 229.628C84.0833 229.488 83.8852 229.328 83.6607 229.215C82.8386 228.789 82.7494 228.23 83.0433 227.341C84.3606 223.367 85.2488 219.28 85.9487 215.149C86.8765 209.704 87.3354 204.209 87.6095 198.698C87.6425 198.062 87.933 197.01 87.0185 196.947C85.8695 196.867 86.2327 198.005 86.1997 198.681C85.7209 208.336 84.5785 217.885 81.6137 227.128C80.0586 231.981 78.0017 236.6 75.0236 240.751C71.1375 246.173 66.1818 250.083 59.6016 251.624C55.1047 252.676 50.5914 252.533 46.1341 251.464C34.7468 248.739 24.9243 243.204 17.1192 234.354C8.06282 224.086 6.05872 212.344 10.473 199.43C13.0945 191.762 17.4692 185.125 22.6099 178.974C29.5004 170.727 37.5333 163.727 46.1242 157.357C46.7813 156.868 47.4449 156.385 48.0788 155.866C48.442 155.566 48.6665 155.134 48.3661 154.694C47.9996 154.165 47.577 154.521 47.2303 154.768C46.1539 155.54 45.0908 156.329 44.0343 157.127C40.1549 160.06 36.3877 163.125 32.7823 166.393C32.3233 166.809 31.9337 167.335 31.1744 167.592C29.9065 165.065 28.9425 162.409 27.9718 159.76C24.4423 150.135 22.1675 140.213 21.3322 129.992C19.8827 112.239 22.6792 95.2212 30.5636 79.1988C38.9498 62.1546 51.6314 49.1976 67.9646 39.7918C72.8346 36.9861 77.9224 34.643 83.1819 32.6893C83.8027 32.4596 84.4069 32.0103 85.2521 32.2466C85.0111 34.5564 84.7965 36.8729 84.5257 39.1827C84.0272 43.4063 83.9182 47.6533 83.7432 51.8968C83.7366 52.0233 83.7201 52.1498 83.7267 52.2762C83.7597 52.7522 83.9017 53.1982 84.463 53.1915C85.0177 53.1849 85.2356 52.7389 85.186 52.2696C85.0342 50.8651 85.328 49.4871 85.361 48.0959C85.5129 41.6823 86.1997 35.3219 87.3057 29.0115C88.3259 23.1936 89.7324 17.479 92.245 12.1004C93.4864 9.4478 94.9589 6.95158 97.0753 4.88804C100.565 1.48985 104.497 0.834179 108.839 2.99757C112.002 4.57185 114.498 6.98153 116.763 9.64749C121.303 14.9927 124.647 21.0868 127.645 27.3939C129.194 30.6523 130.594 33.9773 131.888 37.3489C132.093 37.8781 132.327 38.4006 132.594 38.8998C132.75 39.1861 133.027 39.3691 133.38 39.206C133.72 39.0496 133.816 38.7234 133.743 38.4139C133.615 37.8614 133.44 37.3156 133.232 36.7897C131.961 33.548 130.607 30.3395 129.148 27.1776C128.916 26.675 128.514 26.2257 128.619 25.4136C159.348 26.6451 186.93 36.813 211.877 54.6127C211.844 54.7725 211.814 54.9322 211.781 55.092L211.798 55.0953ZM48.0722 167.562C48.0755 166.284 47.4515 165.751 46.2332 165.997C44.7309 166.297 43.4235 167.069 42.1656 167.908C39.2733 169.835 36.6848 172.141 34.2449 174.614C30.4744 178.435 26.9053 182.429 24.1914 187.115C23.6202 188.104 23.0952 189.116 22.8608 190.241C22.524 191.865 23.3891 192.657 24.9937 192.221C26.5356 191.802 27.8463 190.92 29.1273 190.011C32.5313 187.595 35.5524 184.742 38.4083 181.703C41.5647 178.342 44.5031 174.801 46.8539 170.803C47.4647 169.765 48.0062 168.697 48.0755 167.565L48.0722 167.562ZM64.7687 100.636C64.7687 100.636 64.7786 100.636 64.7852 100.636C64.7852 104.251 64.772 107.869 64.7984 111.483C64.8017 112.126 64.5375 113.164 65.462 113.194C66.6605 113.231 66.195 112.072 66.2016 111.43C66.261 105.659 66.2577 99.8841 66.2907 94.1129C66.2973 92.7816 66.3105 91.4469 66.4261 90.1223C66.6308 87.7192 68.1297 86.328 70.5069 86.2714C71.8276 86.2415 73.1515 86.2681 74.4722 86.2614C74.8486 86.2614 75.2316 86.2747 75.6014 86.2248C76.0009 86.1716 76.3277 85.9519 76.3508 85.5126C76.3773 85.03 76.0042 84.8735 75.6146 84.8269C75.2415 84.7837 74.8618 84.8003 74.4854 84.797C73.1647 84.7837 71.8408 84.7371 70.5201 84.777C69.1004 84.8203 68.1561 84.108 67.3902 83.0064C66.4327 81.6318 66.2874 80.0741 66.2907 78.4666C66.2973 72.2493 66.3006 66.0321 66.2907 59.8148C66.2907 59.1758 66.6308 58.1507 65.6667 58.1041C64.4616 58.0475 64.9172 59.1791 64.9106 59.8381C64.8776 65.6759 64.8941 71.5104 64.8677 77.3483C64.8611 78.5498 64.805 79.7613 64.6696 80.9561C64.3725 83.5622 63.0221 84.7504 60.4303 84.7704C59.2351 84.7803 58.0399 84.7704 56.8447 84.7704C56.4683 84.7704 56.0886 84.7604 55.7122 84.7803C55.2137 84.807 54.8505 85.0166 54.8835 85.5858C54.9132 86.0418 55.2269 86.2315 55.6495 86.2481C56.0259 86.2648 56.4056 86.2581 56.782 86.2614C58.4196 86.2681 60.0572 86.3446 61.6882 86.2614C63.5669 86.1682 64.4121 87.4862 64.6399 88.8409C64.7455 89.4632 64.7654 90.1023 64.7687 90.738C64.7819 94.0363 64.7753 97.3347 64.7753 100.633L64.7687 100.636ZM54.9066 246.252C58.8026 246.212 60.1331 244.039 58.4922 240.594C57.888 239.33 57.0857 238.195 56.2042 237.113C53.9557 234.35 51.3276 231.984 48.541 229.804C41.9873 224.678 34.9382 220.438 27.0407 217.746C25.3668 217.173 23.6499 216.78 21.8934 216.597C20.6883 216.471 19.5063 216.537 18.397 217.117C17.4131 217.629 16.8881 218.435 16.8584 219.543C16.8485 219.876 17.04 220.159 17.3801 220.252C17.7168 220.342 18.0536 220.225 18.1494 219.886C18.7767 217.676 20.4935 217.922 22.1378 218.098C23.8315 218.281 25.4691 218.734 27.0803 219.297C32.954 221.347 38.3125 224.395 43.4268 227.904C47.7553 230.872 51.8658 234.111 55.2269 238.215C56.1513 239.343 57.023 240.514 57.4819 241.922C58.0696 243.736 57.5281 244.548 55.6264 244.731C55.0057 244.791 54.3685 244.708 53.7444 244.745C53.3449 244.768 53.0016 244.978 52.995 245.44C52.9917 245.896 53.3119 246.099 53.7246 246.149C54.1605 246.202 54.6029 246.226 54.9132 246.249L54.9066 246.252ZM103.553 11.5346C103.5 11.102 103.487 10.5894 103.368 10.1035C102.936 8.33615 101.849 7.91345 100.268 8.8487C99.3171 9.41118 98.6403 10.2433 98.0394 11.1386C96.1409 13.9776 95.025 17.1062 94.6354 20.5077C94.5396 21.3531 94.6981 22.1652 94.9589 22.9374C95.3518 24.1122 96.2202 24.4251 97.3559 23.9225C98.0031 23.6363 98.5544 23.2036 99.0002 22.6711C101.668 19.4726 103.19 15.7882 103.556 11.538L103.553 11.5346ZM21.9264 196.894C21.8934 195.403 20.7775 194.471 19.4601 194.834C18.0338 195.226 16.8683 197.06 17.1225 198.518C17.3702 199.939 18.6182 200.628 19.9256 200.062C21.101 199.556 21.9529 198.205 21.9264 196.894ZM97.1578 30.1731C97.171 28.7552 96.2565 27.6502 95.1042 27.6902C93.7472 27.7368 92.585 29.1613 92.5949 30.7622C92.6049 32.2066 93.4732 33.2584 94.6453 33.2484C95.9494 33.2384 97.1413 31.7773 97.1578 30.1731Z" fill="#FE3800"/>
<path d="M166.493 145.642C166.599 145.259 166.724 144.767 166.873 144.287C167.9 141.026 168.91 137.761 169.973 134.512C170.264 133.63 170.274 132.838 169.98 131.943C168.289 126.764 165.011 122.893 160.435 120.114C159.494 119.542 158.979 118.946 158.883 117.788C158.593 114.303 158.579 110.818 158.837 107.343C158.972 105.516 159.078 103.679 159.273 101.852C159.411 100.54 159.989 100.031 161.095 99.6051C166.616 97.4817 172.106 95.2884 177.607 93.1183C181.622 91.534 180.826 92.1531 180.958 88.3023C181.001 87.0974 181.004 85.8926 181.04 84.6877C181.093 82.9604 181.097 82.9271 182.784 82.6775C186.211 82.1716 189.367 81.0366 192.051 78.7667C197.235 74.3767 199.355 68.7785 198.49 62.0287C198.308 60.6209 198.259 60.6109 199.596 60.2115C201.283 59.7089 202.99 59.2762 204.664 58.7371C205.377 58.5074 205.809 58.5939 206.216 59.2663C208.728 63.4366 211.26 67.597 213.819 71.7374C214.288 72.4962 213.912 72.8457 213.377 73.2883C210.019 76.0575 206.681 78.8499 203.33 81.6257C201.775 82.9138 200.203 84.1785 198.651 85.4666C197.36 86.5383 197.331 86.7213 198.1 88.1558C201.593 94.6826 205.09 101.206 208.583 107.733C208.731 108.012 208.86 108.305 209.035 108.568C209.596 109.414 209.369 110.049 208.652 110.712C206.004 113.148 203.399 115.631 200.774 118.09C196.03 122.534 191.292 126.987 186.518 131.397C185.646 132.202 185.488 132.905 185.96 134.04C188.855 140.992 191.668 147.979 194.508 154.955C194.58 155.131 194.663 155.301 194.729 155.48C195.69 158.053 195.809 157.657 193.55 158.935C190.701 160.549 187.815 162.11 185.039 163.844C183.807 164.617 182.975 164.43 181.866 163.645C176.071 159.531 171.317 154.462 167.715 148.308C167.24 147.499 166.606 146.757 166.49 145.645L166.493 145.642Z" fill="#B20000"/>
<path d="M1.89152 98.7196C2.22168 86.5247 5.78747 75.4448 13.2327 65.7295C15.5537 62.7008 18.2644 60.0615 21.4604 57.9613C24.181 56.174 27.093 54.9159 30.3517 54.5099C34.4557 54.0006 38.0611 55.1223 41.2274 57.7483C42.4259 58.7435 42.416 58.7701 41.4288 59.9416C35.6443 66.8013 30.9559 74.3531 27.3968 82.6073C23.3555 91.9798 20.9222 101.765 19.9879 111.946C19.7799 114.213 19.8261 116.506 19.387 118.756C19.1658 119.894 18.7894 120.956 18.1455 121.911C17.0032 123.609 15.6429 124.038 13.7378 123.282C11.4036 122.357 9.49192 120.833 7.89722 118.902C4.655 114.972 3.14285 110.319 2.35045 105.366C2.00047 103.169 1.842 100.959 1.88822 98.7162L1.89152 98.7196ZM21.1864 67.8763C21.2623 66.6615 21.084 66.1489 20.5359 65.8793C19.8657 65.5498 19.3209 65.9326 18.7828 66.2421C18.4592 66.4285 18.1654 66.6781 17.8913 66.9344C14.6227 69.9465 12.3974 73.6409 10.9347 77.8212C10.7069 78.4702 10.5782 79.1659 10.4923 79.8515C10.4032 80.5504 10.423 81.2893 11.146 81.682C11.8592 82.0681 12.503 81.7053 13.0544 81.276C13.5992 80.8533 14.1076 80.374 14.5765 79.8648C17.0791 77.1489 18.9313 74.0037 20.4006 70.6255C20.8001 69.7035 21.0807 68.7283 21.1831 67.8763H21.1864ZM23.8145 63.909C25.2177 63.8724 26.8223 62.2548 26.8652 60.8303C26.8949 59.8984 26.3534 59.2826 25.4422 59.2094C23.9564 59.0896 22.1637 60.6439 22.0646 62.135C22.0019 63.1069 22.8174 63.9323 23.8145 63.909Z" fill="#FE3800"/>
<path d="M191.798 269.85C190.071 269.973 188.965 269.291 188.123 267.67C186.931 265.384 185.036 263.676 182.699 262.555C177 259.822 171.285 263.28 171.04 269.637C170.816 275.485 173.279 279.898 178.245 282.907C178.502 283.064 178.855 283.097 178.941 283.47C176.643 284.834 173.784 284.738 170.981 283.19C168.67 281.915 166.874 280.068 165.329 277.958C162.142 273.601 160.218 268.672 158.937 263.463C156.804 254.786 156.45 246.06 158.26 237.276C158.299 237.09 158.326 236.9 158.372 236.717C158.722 235.326 158.725 235.319 160.162 235.615C170.317 237.716 180.473 239.819 190.626 241.926C192.072 242.225 192.079 242.239 191.765 243.637C189.916 251.874 190.078 260.112 191.709 268.356C191.805 268.838 192.055 269.318 191.798 269.844V269.85ZM175.745 256.727C176.316 256.74 176.868 256.657 177.423 256.514C179.895 255.885 181.533 254.287 181.85 252.154C182.18 249.914 181.068 247.78 178.849 246.499C176.832 245.337 174.672 245.121 172.483 245.83C168.518 247.115 167.478 251.684 170.456 254.637C171.915 256.084 173.728 256.694 175.749 256.727H175.745Z" fill="#E0F450"/>
<path d="M143.95 141.424C148.833 144.153 153.981 140.129 154.103 134.93C154.123 134.045 153.991 133.213 154.988 132.664C155.635 132.308 155.367 131.522 155.295 130.91C154.856 127.199 154.4 123.491 153.948 119.783C153.911 119.474 153.812 119.161 154.007 118.752C154.598 118.725 155.146 119.031 155.694 119.261C161.172 121.554 165.53 125.072 168.006 130.66C168.666 132.155 168.772 133.563 168.237 135.207C165.375 143.99 162.648 152.817 159.868 161.63C159.683 162.216 159.478 162.798 159.29 163.367C158.821 163.321 158.752 162.991 158.613 162.715C154.905 155.419 148.857 151.366 141.012 149.791C140.718 149.731 140.451 149.545 140.17 149.418C139.955 147.601 140.553 145.924 141.398 144.426C142.032 143.308 142.441 141.847 143.95 141.424Z" fill="#E0F450"/>
<path d="M117.263 248.091C116.269 249.635 114.879 250.604 113.41 251.456C109.296 253.846 104.783 254.588 100.134 254.355C94.1383 254.055 88.5089 252.348 83.3386 249.223C80.7336 247.648 78.3762 245.768 76.3754 243.445C75.7943 242.769 75.6787 242.227 76.2565 241.471C77.2899 240.12 78.2309 238.699 78.987 237.158C80.0006 235.088 81.7736 234.132 83.9824 233.926C86.5841 233.683 88.9679 234.432 91.2031 235.687C95.6537 238.186 100.141 240.612 104.783 242.736C108.391 244.387 112.043 245.924 115.761 247.312C116.22 247.485 116.738 247.555 117.263 248.091Z" fill="#FE3800"/>
<path d="M179.74 285.001C181.176 284.093 182.434 283.271 183.471 282.172C185.994 279.5 187.592 276.294 188.82 272.866C188.906 272.63 188.985 272.384 189.031 272.137C189.216 271.139 189.81 271.006 190.695 271.222C192.098 271.562 193.525 271.801 194.938 272.107C203.539 273.968 212.136 275.835 220.734 277.699C221.341 277.832 221.978 277.865 222.642 278.355C221.298 282.598 219.479 286.562 215.943 289.508C213.143 291.841 209.983 291.907 206.659 291.069C206.13 290.936 206.008 290.739 206.071 290.157C206.451 286.536 204.853 284.382 201.34 283.67C197.949 282.984 194.565 284.369 192.666 287.291C192.392 287.71 192.227 287.997 191.682 287.88C187.872 287.058 184.062 286.253 180.252 285.434C180.15 285.411 180.07 285.284 179.74 285.001Z" fill="#E0F450"/>
<path d="M146.585 25.5776C150.54 20.2623 154.469 15.2499 159.792 11.5655C161.248 10.557 162.806 9.74826 164.526 9.259C167.729 8.3537 170.347 9.27231 172.48 11.7585C173.728 13.2163 174.583 14.9071 175.276 16.6877C176.339 19.4136 177.029 22.246 177.482 25.1283C178.06 28.8127 176.125 31.1458 172.407 31.3322C170.76 31.4154 169.135 31.1059 167.574 30.6333C161.066 28.6629 154.486 27.0121 147.774 25.9038C147.467 25.8539 147.169 25.7407 146.585 25.5743V25.5776ZM160.987 15.849C162.865 15.4463 164.506 14.6175 165.698 13.0399C165.999 12.6405 166.197 12.1413 165.929 11.6254C165.626 11.043 165.061 10.8666 164.49 10.9664C162.565 11.3026 160.954 12.2012 159.844 13.872C159.567 14.2914 159.343 14.754 159.653 15.2799C159.96 15.8024 160.449 15.829 160.987 15.8457V15.849Z" fill="#FE3800"/>
<path d="M174.921 205.768C171.398 203.236 168.717 200.057 167.647 195.747C166.653 191.74 168.549 188.787 172.563 187.832C175.601 187.11 178.556 187.556 181.438 188.544C187.622 190.665 192.74 194.203 196.064 200.04C195.975 200.969 195.269 201.412 194.632 201.921C191.772 204.211 188.441 205.422 184.911 206.085C182.587 206.521 180.246 206.727 177.859 206.221C176.908 206.018 175.944 205.595 174.921 205.768Z" fill="#D0E6EC"/>
<path d="M187.462 132.544C188.902 131.183 190.084 130.058 191.276 128.943C197.311 123.298 203.366 117.673 209.366 111.989C210.333 111.073 211.102 110.877 212.321 111.496C214.615 112.668 217.006 113.646 219.35 114.725C219.848 114.954 220.433 115.057 220.789 115.55C220.763 116.079 220.32 116.286 220.017 116.568C213.248 122.909 206.473 129.243 199.698 135.573C199.467 135.789 199.2 135.972 199.002 136.212C198.345 137.007 197.681 137.104 196.704 136.645C193.752 135.253 190.741 133.989 187.462 132.548V132.544Z" fill="#FE3800"/>
<path d="M172.348 270.682C172.288 269.7 172.496 268.761 172.744 267.853C173.784 264.058 177.267 262.201 181.001 263.466C184.174 264.541 186.238 266.844 187.671 269.803C187.928 270.336 187.958 270.885 187.776 271.464C186.673 275.005 185.122 278.307 182.589 281.056C181.196 282.567 180.846 282.654 179.017 281.648C174.718 279.289 172.757 275.451 172.348 270.682Z" fill="#A5BC00"/>
<path d="M225.439 78.5013C223.818 79.8526 222.184 81.2172 220.543 82.5785C217.393 85.1879 214.214 87.7706 211.097 90.4199C210.324 91.0756 209.71 91.252 208.759 90.7827C206.227 89.5313 203.635 88.3963 201.076 87.1981C200.69 87.0184 200.228 86.9252 199.914 86.3561C201.093 85.3742 202.285 84.3791 203.483 83.3873C206.973 80.495 210.509 77.6559 213.933 74.6838C214.966 73.7851 215.769 73.7785 216.918 74.341C219.285 75.5025 221.725 76.5143 224.122 77.606C224.567 77.809 225.096 77.9056 225.439 78.5013Z" fill="#FE3800"/>
<path d="M178.611 169.155C182.811 166.755 186.687 164.542 190.563 162.325C192.309 161.326 194.066 160.335 195.799 159.313C196.384 158.967 196.902 158.857 197.559 159.18C200.322 160.541 203.109 161.852 205.882 163.194C206.034 163.267 206.133 163.45 206.256 163.58C205.962 164.172 205.381 164.315 204.912 164.585C200.002 167.407 195.07 170.19 190.177 173.045C189.265 173.578 188.526 173.625 187.572 173.175C184.739 171.841 181.86 170.602 178.611 169.155Z" fill="#FE3800"/>
<path d="M156.123 241.002C156.063 242.274 155.431 243.083 154.224 243.432C146.994 245.545 139.763 247.662 132.533 249.779C130.944 250.241 130.921 250.258 129.994 248.854C129.228 247.695 128.511 246.504 127.801 245.309C127.088 244.111 127.095 244.067 128.409 243.678C132.562 242.447 136.722 241.238 140.882 240.027C143.596 239.235 146.317 238.479 149.014 237.641C149.856 237.378 150.576 237.398 151.365 237.784C152.663 238.419 154.006 238.962 155.311 239.581C156.182 239.994 156.169 240.02 156.123 241.005V241.002Z" fill="#FE3800"/>
<path d="M188.546 63.4463C191.154 62.358 193.908 61.7789 196.595 60.9834C199.085 68.0527 194.297 78.4037 185.125 80.5704C184.416 80.4606 184.105 80.0445 183.943 79.3223C183.002 75.0388 183.831 71.0848 185.905 67.2972C186.661 65.9159 187.955 64.9274 188.546 63.443V63.4463Z" fill="#D0E6EC"/>
<path d="M151.433 229.728C151.493 226.892 151.522 224.057 151.618 221.224C151.72 218.259 151.882 215.297 152.027 212.331C152.044 211.968 151.951 211.572 152.367 211.116C154.659 212.061 157.013 213.017 159.354 214.002C160.387 214.438 161.774 214.541 162.335 215.446C162.893 216.348 162.517 217.666 162.418 218.795C162.276 220.425 162.556 222.083 162.078 223.687C161.82 223.687 161.599 223.757 161.411 223.953C158.647 226.866 155.352 228.843 151.436 229.728H151.433Z" fill="#FCF6F5"/>
<path d="M174.927 205.774C175.951 205.601 176.915 206.024 177.866 206.227C180.253 206.733 182.597 206.527 184.918 206.091C188.448 205.428 191.779 204.217 194.638 201.927C195.272 201.418 195.982 200.975 196.071 200.046C197.038 201.641 197.616 203.345 197.61 205.235C197.6 207.954 196.414 209.772 193.908 210.837C191.875 211.702 189.742 211.785 187.606 211.482C182.845 210.81 178.559 209.013 174.927 205.771V205.774Z" fill="#A3B0B3"/>
<path d="M194.462 150.656C192.16 145.423 190.107 140.088 188.007 134.796C188.548 134.33 188.905 134.743 189.268 134.899C191.629 135.918 193.966 136.993 196.34 137.978C197.215 138.341 197.78 138.833 198.103 139.755C198.978 142.252 200.223 144.601 200.963 147.151C198.975 148.662 196.974 150.14 194.458 150.656H194.462Z" fill="#FCF6F5"/>
<path d="M179.603 184.447C179.036 179.884 178.468 175.321 177.896 170.731C178.54 170.545 178.94 170.854 179.369 171.044C181.941 172.192 184.5 173.377 187.098 174.462C187.98 174.828 188.379 175.357 188.422 176.279C188.472 177.348 188.577 178.413 188.66 179.478C187.759 180.41 186.88 181.375 185.764 182.064C183.859 183.242 181.977 184.5 179.603 184.443V184.447Z" fill="#FCF6F5"/>
<path d="M151.436 229.727C155.355 228.842 158.65 226.865 161.411 223.953C161.596 223.756 161.82 223.687 162.078 223.687C162.239 226.918 161.903 230.137 161.85 233.362C161.837 234.217 161.49 234.407 160.681 234.28C157.581 233.801 157.577 233.824 156.854 236.893C156.755 237.319 156.778 237.782 156.428 238.254C154.761 237.812 153.256 236.906 151.648 236.261C151.228 236.094 151.047 235.805 151.093 235.392C151.301 233.508 150.958 231.591 151.44 229.727H151.436Z" fill="#D0E6EC"/>
<path d="M172.646 210.853C169.761 211.978 167.139 212.997 164.521 214.022C164.029 214.215 163.544 214.215 163.055 214.012C159.994 212.74 156.93 211.469 153.873 210.198C154.068 209.462 154.665 209.462 155.091 209.296C158.591 207.901 162.111 206.553 165.617 205.165C166.4 204.856 166.951 204.829 167.512 205.645C168.843 207.575 170.589 209.129 172.65 210.857L172.646 210.853Z" fill="#FE3800"/>
<path d="M208.131 103.419C207.091 102.065 206.424 100.49 205.608 99.0025C204.063 96.1801 202.564 93.3278 201.058 90.4821C200.748 89.893 200.491 89.2773 200.028 88.2954C201.904 89.1475 203.37 89.9862 204.944 90.4888C208.471 91.6104 210.838 93.8304 212.109 97.335C212.535 98.5099 213.228 99.5883 213.8 100.71C213.78 101.559 213.103 101.782 212.515 102.118C211.152 102.903 209.567 102.903 208.131 103.422V103.419Z" fill="#FCF6F5"/>
<path d="M194.466 150.656C196.982 150.144 198.982 148.662 200.97 147.151C202.697 150.653 203.978 154.347 205.487 157.942C206.012 159.193 206.646 160.415 206.996 162.022C203.743 160.461 200.719 159 197.685 157.562C197.18 157.323 196.939 156.943 196.747 156.454C195.998 154.517 195.229 152.586 194.466 150.653V150.656Z" fill="#D0E6EC"/>
<path d="M214.148 69.1711C211.734 65.6398 209.734 61.8589 207.399 58.1412C209.103 57.3091 210.899 57.0129 212.563 56.3472C213.144 56.1143 213.349 56.507 213.574 56.8897C215.287 59.8186 217.001 62.7509 218.711 65.6798C218.691 65.8795 218.767 66.0126 218.965 66.0625C219.028 66.1823 219.091 66.3021 219.153 66.422C218.724 66.6616 218.239 66.838 217.872 67.1575C216.773 68.1127 215.498 68.7085 214.145 69.1711H214.148Z" fill="#FCF6F5"/>
<path d="M165.977 195.533C168.572 205.931 183.575 215.816 194.741 212.298C193.437 214.062 191.704 214.637 189.851 214.904C187.322 215.27 184.839 214.954 182.406 214.192C176.523 212.344 171.656 209.043 168.08 203.934C166.073 201.065 165.482 198.708 165.977 195.53V195.533Z" fill="#A3B0B3"/>
<path d="M208.133 103.42C209.569 102.901 211.154 102.901 212.518 102.115C213.105 101.779 213.779 101.556 213.802 100.708C216.087 104.881 218.372 109.055 220.656 113.229C220.577 113.322 220.498 113.415 220.419 113.508C218.629 112.709 216.889 111.761 215.037 111.145C212.184 110.196 210.157 108.516 209.153 105.62C208.889 104.858 208.262 104.252 208.13 103.417L208.133 103.42Z" fill="#D0E6EC"/>
<path d="M179.593 184.443C181.97 184.5 183.849 183.242 185.754 182.064C186.867 181.375 187.745 180.409 188.65 179.478C189.31 183.298 189.663 187.156 190.079 191.253C188.768 190.484 187.709 189.839 186.629 189.233C185.041 188.344 183.37 187.642 181.63 187.099C180.358 186.702 179.678 185.817 179.59 184.443H179.593Z" fill="#D0E6EC"/>
<path d="M188.536 63.4468C187.945 64.9312 186.654 65.9164 185.894 67.3009C183.821 71.0885 182.992 75.0425 183.933 79.326C184.092 80.0483 184.402 80.4643 185.115 80.5742C183.969 81.1799 182.698 80.9369 181.546 81.2798C181.14 80.4044 181.292 79.6356 181.315 78.8967C181.437 74.8062 181.625 70.7158 181.718 66.6253C181.741 65.5702 182.041 65.0344 183.124 64.8147C184.947 64.4453 186.66 63.6132 188.539 63.4468H188.536Z" fill="#A3B0B3"/>
<path d="M214.158 69.173C215.512 68.7104 216.786 68.1146 217.886 67.1594C218.252 66.8432 218.738 66.6668 219.167 66.4238C220.217 67.439 220.758 68.8002 221.514 70.0117C222.759 72.0087 223.944 74.0456 224.935 76.3089C222.052 75.0142 219.124 73.8126 216.311 72.3815C215.135 71.7824 214.71 70.3645 214.158 69.173Z" fill="#D0E6EC"/>
<path d="M193.921 288.312C195.707 284.964 200.686 283.896 203.436 286.152C203.935 286.561 204.328 287.051 204.549 287.66C204.836 288.455 205.001 289.331 204.493 290.03C204.001 290.705 203.192 290.283 202.561 290.156C199.686 289.58 196.826 288.938 193.921 288.312Z" fill="#A5BC00"/>
<path d="M143.945 141.425C142.436 141.848 142.026 143.309 141.393 144.427C140.547 145.925 139.95 147.603 140.164 149.42C138.916 149.556 138.203 149.004 137.823 147.789C137.487 146.714 136.998 145.682 136.533 144.654C136.209 143.938 136.384 143.496 137.071 143.126C138.282 142.474 139.454 141.751 140.646 141.063C141.787 140.404 142.886 140.526 143.945 141.429V141.425Z" fill="#A5BC00"/>
<path d="M152.512 134.21C152.763 137.052 151.468 139.385 149.22 140.417C147.219 141.336 145.552 140.993 143.865 139.206C146.747 137.538 149.59 135.897 152.512 134.21Z" fill="#A5BC00"/>
<path d="M218.964 66.0613C218.766 66.0118 218.69 65.8797 218.71 65.6816C218.898 65.7378 219.014 65.8467 218.964 66.0613Z" fill="#D0E6EC"/>
<path d="M375.189 68.2164C374.786 68.8721 374.059 69.0186 373.482 69.3647C366.248 73.6782 362.986 82.8809 366.02 90.4661C368.288 96.1375 374.182 99.7986 380.158 99.1928C381.789 99.0264 383.357 98.5072 384.872 97.8948C385.688 97.5653 386.252 97.5953 386.857 98.3009C387.695 99.2794 388.808 99.9084 390.036 100.265C393.714 101.336 395.913 103.936 396.861 107.494C398.267 112.766 398.99 118.167 399.297 123.632C399.905 134.453 398.564 145.017 395.474 155.371C391.753 167.842 385.777 179.138 377.926 189.453C377.632 189.839 377.43 190.348 376.879 190.518C376.252 190.265 376.001 189.646 375.631 189.163C372.854 185.549 369.896 182.091 366.789 178.762C366.36 178.303 365.875 177.321 365.161 177.914C364.283 178.642 365.261 179.242 365.726 179.747C372.168 186.74 378.038 194.166 382.67 202.523C385.817 208.198 388.29 214.135 389.495 220.566C392.159 234.774 386.949 246.426 374.617 253.849C368.483 257.543 361.781 259.62 354.834 260.998C348.99 262.156 343.12 262.569 337.206 261.5C324.763 259.257 317.099 251.728 313.593 239.687C311.909 233.909 311.596 227.968 311.879 221.977C312.206 215.104 313.461 208.391 315.221 201.761C315.389 201.128 315.904 200.206 314.996 199.95C313.933 199.651 313.986 200.772 313.804 201.451C312.038 208.015 310.856 214.668 310.404 221.468C310.232 224.05 310.275 226.66 309.77 229.223C309.433 230.94 308.74 232.488 307.706 233.865C306.544 235.42 305.118 236.571 303.104 236.914C300.377 237.38 297.669 237.956 294.965 238.545C293.932 238.768 293.357 238.455 292.872 237.503C290.858 233.556 288.821 229.619 286.691 225.734C286.084 224.623 286.179 223.824 286.84 222.802C291.647 215.364 296.395 207.882 301.182 200.429C302.681 198.096 302.47 198.226 300.406 197.075C294.242 193.636 288.088 190.175 281.934 186.717C280.385 185.845 280.382 185.835 280.781 184.038C282.914 174.452 285.05 164.867 287.183 155.281C287.626 153.288 287.629 153.251 285.734 152.465C278.695 149.553 271.646 146.661 264.6 143.762C264.25 143.619 263.893 143.489 263.55 143.333C262.332 142.78 262.308 142.764 262.833 141.532C264.524 137.571 266.231 133.617 267.935 129.663C269.186 126.754 270.44 123.849 271.695 120.94C272.217 119.731 272.005 118.64 271.061 117.668C265.891 112.386 260.714 107.108 255.54 101.826C254.48 100.744 253.47 99.5989 252.344 98.5904C251.486 97.8216 251.426 97.136 251.895 96.1075C254.295 90.8688 256.623 85.5968 258.974 80.3381C259.492 79.1832 260.02 78.0316 260.522 76.87C261.11 75.5054 261.103 75.3956 259.796 74.5901C256.359 72.4733 252.902 70.3965 249.452 68.3063C245.896 66.1462 242.334 63.9962 238.784 61.8261C237.318 60.9308 237.308 60.9042 237.652 59.2534C238.563 54.8467 239.521 50.4534 240.395 46.04C240.603 44.995 241.056 44.4092 242.069 44.0231C252.995 39.8494 264.227 36.9538 275.839 35.5393C287.906 34.0648 299.944 34.1913 311.955 36.0385C324.162 37.9157 335.84 41.5302 346.907 47.0951C348.3 47.794 348.458 47.5844 347.63 49.3018C345.553 53.5919 344.638 58.165 344.708 62.9311C344.718 63.6267 344.391 64.775 345.398 64.8049C346.468 64.8382 346.131 63.6767 346.131 62.9977C346.147 58.2981 346.986 53.7816 349.139 49.5847C352.536 42.9614 357.786 38.7577 365.185 37.6594C371.075 36.7841 376.602 38.1653 381.624 41.3039C391.119 47.2316 396.6 55.9417 398.485 66.9517C399.568 73.2821 399 79.4894 396.167 85.3338C393.126 91.6077 388.339 95.8146 381.482 97.3823C374.865 98.8966 368.42 94.8028 366.789 88.1063C364.504 78.7239 371.501 69.1251 381.052 68.5493C381.429 68.526 381.808 68.5426 382.185 68.5493C382.898 68.5559 383.271 68.8488 383.482 69.611C384.829 74.477 381.6 80.3048 376.747 81.6661C376.384 81.7692 376.011 81.8325 375.644 81.929C375.189 82.0521 374.769 82.2785 374.908 82.831C375.043 83.3735 375.552 83.3801 375.998 83.3302C377.467 83.1605 378.784 82.5647 380.012 81.7692C384.205 79.06 386.124 73.6915 384.74 68.5559C383.39 63.5369 379.065 59.8924 374.158 59.6394C369.579 59.4031 365.02 62.535 363.517 66.9583C363.415 67.2546 363.313 67.5674 363.299 67.8736C363.27 68.5726 363.834 68.9087 364.432 68.5692C364.831 68.3429 365.033 67.9402 365.277 67.5708C366.287 66.0564 367.773 65.2776 369.503 64.978C371.095 64.7051 372.498 65.1644 373.61 66.3792C374.155 66.975 374.868 67.4276 375.189 68.2298V68.2164ZM290.283 40.788C282.254 40.8679 275.201 41.6434 268.209 42.9381C265.372 43.4639 262.546 44.0897 259.819 45.0815C258.878 45.4243 257.944 45.8071 257.052 46.2664C256.224 46.6957 255.21 47.165 255.368 48.3066C255.524 49.4183 256.63 49.5947 257.508 49.9108C257.802 50.0173 258.119 50.0506 258.426 50.1105C260.839 50.5865 263.282 50.7928 265.732 50.8195C273.296 50.906 280.791 50.1471 288.226 48.8025C291.498 48.2101 294.757 47.5145 297.884 46.313C298.769 45.9735 299.634 45.604 300.423 45.0815C301.053 44.6655 301.743 44.1762 301.618 43.3108C301.492 42.4655 300.736 42.1093 300.01 41.8664C299.297 41.6301 298.561 41.4537 297.821 41.3205C295.025 40.8146 292.188 40.8479 290.277 40.788H290.283ZM373.429 236.888C375.364 236.931 377.071 236.814 378.721 237.354C380.059 237.79 380.184 238.016 379.847 239.38C379.818 239.5 379.728 239.61 379.702 239.73C379.629 240.066 379.709 240.359 380.002 240.559C380.402 240.832 380.719 240.629 380.993 240.342C382.007 239.284 381.865 237.56 380.669 236.665C379.623 235.879 378.381 235.609 377.123 235.5C374.862 235.3 372.587 235.307 370.335 235.563C360.711 236.658 351.456 239.197 342.548 243.018C339.825 244.187 337.193 245.548 334.819 247.362C333.915 248.054 333.043 248.793 332.459 249.795C331.564 251.326 331.924 252.634 333.459 253.459C334.714 254.135 336.107 254.231 337.484 254.351C337.939 254.391 338.402 254.235 338.402 253.646C338.402 253.176 338.022 253.046 337.629 252.983C336.761 252.84 335.873 252.773 335.027 252.537C333.281 252.048 333.027 251.179 334.212 249.821C335.308 248.567 336.728 247.721 338.151 246.909C342.938 244.173 348.062 242.256 353.312 240.665C359.951 238.648 366.687 237.121 373.419 236.891L373.429 236.888ZM345.959 154.526H345.979C345.979 156.363 345.979 158.2 345.979 160.037C345.979 160.417 345.979 160.8 345.999 161.176C346.022 161.568 346.111 161.978 346.577 162.024C347.115 162.078 347.372 161.721 347.412 161.219C347.442 160.839 347.428 160.46 347.432 160.081C347.458 156.596 347.475 153.111 347.514 149.63C347.557 146.122 348.944 144.764 352.463 144.75C353.028 144.75 353.596 144.774 354.16 144.734C354.461 144.711 354.778 144.617 355.045 144.478C355.346 144.321 355.445 144.018 355.379 143.672C355.313 143.336 355.025 143.333 354.794 143.323C353.853 143.293 352.909 143.283 351.968 143.286C350.116 143.296 348.917 142.341 348.122 140.73C347.663 139.801 347.468 138.829 347.471 137.798C347.481 135.009 347.471 132.223 347.465 129.434C347.465 128.931 347.544 128.412 347.309 127.939C347.168 127.653 346.973 127.364 346.61 127.42C346.273 127.473 346.075 127.743 346.052 128.082C346.019 128.525 346.019 128.968 346.019 129.41C346.012 131.88 346.025 134.353 346.002 136.823C345.992 138.024 345.982 139.232 345.609 140.397C344.982 142.344 343.899 143.196 341.888 143.266C341.01 143.296 340.128 143.266 339.25 143.276C338.742 143.279 338.128 143.269 338.085 143.935C338.029 144.784 338.771 144.704 339.296 144.727C340.551 144.78 341.809 144.744 343.067 144.79C344.592 144.847 345.18 145.32 345.665 146.767C345.91 147.496 345.976 148.249 345.972 149.014C345.966 150.851 345.972 152.688 345.972 154.526H345.959ZM316.442 215.726C316.442 216.858 316.423 217.617 316.449 218.379C316.475 219.198 316.403 220.036 316.753 220.815C317.106 221.601 317.661 221.704 318.153 221.002C318.509 220.492 318.796 219.907 318.985 219.311C320.781 213.59 321.623 207.728 321.487 201.728C321.477 201.292 321.385 200.846 321.263 200.426C321.144 200.01 321.009 199.528 320.447 199.528C320.028 199.528 319.78 199.837 319.595 200.187C319.087 201.138 318.687 202.137 318.407 203.182C317.261 207.412 316.578 211.712 316.446 215.733L316.442 215.726ZM376.806 45.7272C377.09 45.7272 377.216 45.7372 377.341 45.7272C378.348 45.6473 379.471 45.6273 379.884 44.499C380.303 43.3475 379.468 42.5653 378.665 41.9629C376.427 40.2788 373.858 39.5931 371.088 39.6996C370.134 39.7363 369.097 39.9393 368.816 41.0276C368.539 42.1127 369.404 42.7717 370.15 43.3208C372.171 44.8119 374.492 45.5108 376.81 45.7305L376.806 45.7272ZM375.931 94.9127C377.288 94.9426 378.041 93.9841 377.539 92.6594C376.697 90.4328 374.997 89.1048 372.722 88.6189C371.312 88.316 370.477 89.3378 370.814 90.7723C371.26 92.6694 373.977 94.8694 375.931 94.916V94.9127ZM309.932 41.4104C308.769 41.3704 307.558 41.69 306.98 42.106C305.943 42.8549 305.831 43.88 306.683 44.8419C307.977 46.303 311.249 46.6225 312.754 45.4343C313.765 44.6388 313.844 43.5771 312.903 42.7018C311.998 41.8597 310.869 41.5102 309.932 41.4104ZM318.479 227.974C318.496 227.335 318.453 226.706 318.215 226.107C318.024 225.625 317.799 225.149 317.208 225.095C316.627 225.046 316.274 225.428 316.046 225.901C315.267 227.525 315.191 229.209 315.861 230.863C316.297 231.938 317.218 231.932 317.839 230.9C318.377 230.005 318.519 229.003 318.483 227.971L318.479 227.974ZM384.46 46.932C384.44 46.0434 383.644 45.1714 382.822 45.1381C382.119 45.1114 381.541 45.7006 381.524 46.4661C381.501 47.4379 382.363 48.3665 383.268 48.3432C383.991 48.3232 384.479 47.7441 384.46 46.932Z" fill="#FE3800"/>
<path d="M282.135 222.793C279.487 223.588 276.813 224.3 274.198 225.196C265.647 228.128 257.878 232.461 251.153 238.589C245.167 244.04 240.538 250.424 238.18 258.312C237.708 259.89 237.332 261.494 237.157 263.138C237.117 263.518 237.064 263.93 236.609 264.03C236.193 264.12 235.882 263.904 235.678 263.544C235.427 263.105 235.176 262.666 234.938 262.22C231.663 256.079 228.434 249.912 225.079 243.814C224.231 242.27 224.043 240.739 224.172 239.071C224.673 232.648 226.932 226.873 230.573 221.628C235.698 214.246 242.476 208.78 250.307 204.587C258.449 200.227 267.109 197.541 276.285 196.572C277.222 196.472 278.167 196.426 279.094 196.266C280.009 196.106 280.455 196.526 280.854 197.288C283.41 202.161 285.998 207.017 288.577 211.879C287.296 213.873 285.942 215.823 284.76 217.877C283.836 219.484 282.581 220.922 282.135 222.793ZM247.194 229.825C253.797 229.845 261.909 224.69 264.739 218.662C265.336 217.387 265.706 216.056 265.686 214.628C265.657 212.219 264.547 210.528 262.378 209.553C260.599 208.751 258.727 208.654 256.828 208.947C251.565 209.762 247.309 212.415 243.724 216.272C242.644 217.437 241.759 218.752 241.096 220.2C238.629 225.602 241.297 229.805 247.191 229.822L247.194 229.825ZM240.019 239.84C240.033 237.138 238.795 234.442 236.896 233.03C234.407 231.183 231.511 232.188 230.735 235.2C230.058 237.823 230.699 240.22 232.208 242.38C233.624 244.407 235.622 245.232 237.342 244.623C239.019 244.027 240.01 242.26 240.023 239.84H240.019ZM271.147 209.38C271.349 211.803 272.537 214.066 275.189 215.304C277.718 216.489 280.3 215.014 280.607 212.222C280.914 209.41 279.844 207.13 277.599 205.462C276.252 204.464 274.7 204.151 273.158 204.94C271.577 205.748 271.144 207.263 271.147 209.38Z" fill="#E0F450"/>
<path d="M391.722 227.89C391.623 224.908 391.316 221.903 390.672 218.934C389.767 214.764 388.384 210.766 386.555 206.929C385.551 204.819 384.515 202.725 383.445 200.645C380.866 195.626 380.506 190.46 383.224 185.345C385.3 181.434 387.506 177.593 389.632 173.712C389.949 173.13 390.25 172.79 390.943 173.173C399.18 177.73 406.266 183.491 409.775 192.62C413.11 201.297 411.367 209.308 405.929 216.614C402.353 221.417 397.698 224.941 392.514 227.81C392.303 227.927 392.072 228.06 391.722 227.897V227.89Z" fill="#FE3800"/>
<path d="M264.872 119.053C257.757 122.551 250.553 122.987 243.256 119.655C242.167 119.159 241.189 118.46 240.229 117.738C238.925 116.756 238.139 115.595 237.812 113.877C236.085 104.798 234.203 95.748 232.381 86.685C232.259 86.0826 232.202 85.4669 232.07 84.5449C238.756 89.3942 245.904 90.1331 253.419 88.3125C253.66 88.9915 253.277 89.3976 253.089 89.8402C252.438 91.3513 251.722 92.8324 251.104 94.3567C250.563 95.6947 250.031 96.6399 248.212 96.61C246.023 96.5734 244.352 98.5071 243.989 100.78C243.306 105.034 246.462 109.624 250.675 110.436C253.303 110.942 255.162 109.773 256.476 107.543C257.209 108.475 257.975 109.381 258.672 110.339C260.772 113.221 262.994 116.011 264.872 119.053Z" fill="#E0F450"/>
<path d="M255.345 104.673C255.385 108.231 252.813 109.945 249.755 108.604C246.682 107.256 244.681 103.455 245.533 100.583C246.018 98.9485 247.216 98.0232 248.828 97.9999C249.491 97.9899 250.026 98.173 250.502 98.6722C251.888 100.13 253.288 101.574 254.728 102.979C255.296 103.532 255.358 104.171 255.348 104.673H255.345Z" fill="#A5BC00"/>
<path d="M397.922 85.1055C399.781 89.5321 398.737 94.681 395.588 97.4301C394.023 98.7947 392.243 99.4071 390.189 98.7348C389.163 98.3987 388.284 97.8229 387.485 96.7745C392.18 94.0353 395.591 90.1878 397.922 85.1055Z" fill="#FE3800"/>
<path d="M264.873 119.057C262.994 116.015 260.772 113.226 258.672 110.344C257.976 109.385 257.21 108.48 256.477 107.548C256.516 106.845 256.741 106.196 256.982 105.587C259.491 108.054 262.007 110.51 264.5 112.986C265.616 114.095 266.679 115.256 267.785 116.378C268.244 116.84 268.293 117.196 267.689 117.569C266.784 118.132 265.913 118.757 264.873 119.057Z" fill="#A5BC00"/>
<path d="M371.181 61.5057C375.466 60.0778 380.181 62.2445 382.403 66.7976C380.752 67.1305 379.065 67.0539 377.48 67.5565C377.087 67.6796 376.774 67.4933 376.493 67.1871C374.746 65.3032 372.987 63.4327 371.184 61.5057H371.181Z" fill="#FCF6F5"/>
<path d="M282.126 222.796C282.569 220.925 283.827 219.484 284.751 217.88C285.93 215.826 287.287 213.876 288.568 211.882C290.186 213.753 290.249 215.553 288.548 217.477C287.647 218.496 286.977 219.734 286.293 220.929C285.752 221.874 285.072 222.49 283.959 222.516C283.335 222.53 282.77 222.916 282.13 222.799L282.126 222.796Z" fill="#A5BC00"/>
<path d="M232.347 159.345C238.118 154.899 244.547 151.943 251.721 150.705C252.959 150.492 254.224 150.502 255.435 150.951C256.641 151.397 256.981 152.073 256.621 153.311C256.258 154.556 255.488 155.561 254.63 156.49C252.041 159.292 249.057 161.559 245.61 163.189C245.171 163.076 244.718 163.076 244.309 163.233C241.757 164.185 239.106 163.978 236.481 163.878C233.859 163.782 232.238 161.915 232.344 159.345H232.347Z" fill="#D0E6EC"/>
<path d="M232.34 159.351C232.231 161.917 233.856 163.784 236.477 163.884C239.102 163.98 241.753 164.187 244.305 163.238C244.718 163.085 245.17 163.082 245.606 163.195C241.027 166.094 236.104 168.031 230.696 168.593C229.696 168.696 228.672 168.686 227.698 168.38C226.443 167.981 226.027 167.129 226.46 165.871C226.731 165.089 227.167 164.386 227.678 163.737C229.012 162.04 230.551 160.559 232.34 159.354V159.351Z" fill="#A3B0B3"/>
<path d="M257.753 155.261C258.139 156.379 257.605 157.261 257.099 158.113C256.119 159.767 254.762 161.099 253.289 162.29C247.677 166.837 241.417 170.072 234.364 171.683C232.756 172.049 231.132 172.148 229.498 171.942C228.428 171.809 227.606 171.37 227.408 170.235C239.713 169.726 249.489 164.274 257.753 155.264V155.261Z" fill="#A3B0B3"/>
<path d="M48.0679 167.561C47.9952 168.693 47.4571 169.761 46.8463 170.8C44.4922 174.797 41.557 178.335 38.4006 181.7C35.548 184.738 32.5237 187.594 29.1197 190.007C27.8387 190.916 26.5279 191.798 24.986 192.217C23.3847 192.653 22.5164 191.861 22.8532 190.237C23.0876 189.112 23.6126 188.1 24.1837 187.111C26.8977 182.422 30.4668 178.431 34.2373 174.61C36.6772 172.137 39.2624 169.834 42.1579 167.904C43.4159 167.065 44.7233 166.293 46.2256 165.993C47.4439 165.75 48.0712 166.28 48.0646 167.558L48.0679 167.561Z" fill="#FCF6F5"/>
<path d="M64.7683 100.632C64.7683 97.3339 64.7749 94.0356 64.7616 90.7373C64.7616 90.1049 64.7385 89.4625 64.6329 88.8402C64.4051 87.4855 63.5598 86.1675 61.6812 86.2607C60.0502 86.3439 58.4093 86.2641 56.775 86.2607C56.3986 86.2607 56.0189 86.2641 55.6425 86.2474C55.2199 86.2308 54.9062 86.0411 54.8765 85.5851C54.8402 85.0159 55.2067 84.8063 55.7052 84.7796C56.0816 84.7597 56.4613 84.7696 56.8377 84.7696C58.0329 84.7696 59.2281 84.783 60.4233 84.7696C63.0151 84.7497 64.3654 83.5581 64.6626 80.9554C64.798 79.7606 64.8574 78.5524 64.8607 77.3476C64.8871 71.5097 64.8706 65.6752 64.9036 59.8374C64.9069 59.1784 64.4546 58.0501 65.6597 58.1034C66.6205 58.1466 66.2804 59.1718 66.2837 59.8141C66.2969 66.0314 66.2903 72.2486 66.2837 78.4659C66.2837 80.0701 66.4257 81.6311 67.3832 83.0057C68.1491 84.1073 69.0934 84.8196 70.5131 84.7763C71.8338 84.7364 73.1544 84.7863 74.4784 84.7963C74.8548 84.7996 75.2345 84.783 75.6076 84.8262C76.0005 84.8695 76.3702 85.0293 76.3438 85.5119C76.3207 85.9512 75.9939 86.1709 75.5944 86.2241C75.2213 86.274 74.8416 86.2607 74.4652 86.2607C73.1445 86.2641 71.8206 86.2374 70.4999 86.2707C68.1227 86.3273 66.6271 87.7185 66.4191 90.1215C66.3068 91.4462 66.2903 92.7808 66.2837 94.1122C66.2507 99.8834 66.254 105.658 66.1946 111.429C66.188 112.072 66.6535 113.23 65.455 113.193C64.5338 113.163 64.798 112.125 64.7914 111.483C64.7649 107.868 64.7782 104.25 64.7782 100.636C64.7716 100.636 64.7682 100.636 64.7616 100.636L64.7683 100.632Z" fill="#FCF6F5"/>
<path d="M54.9102 246.253C54.5998 246.226 54.1574 246.206 53.7216 246.153C53.3122 246.103 52.9886 245.9 52.9919 245.444C52.9952 244.985 53.3419 244.772 53.7414 244.749C54.3654 244.712 55.0026 244.795 55.6233 244.735C57.5284 244.552 58.0698 243.74 57.4788 241.926C57.0199 240.518 56.1483 239.347 55.2238 238.219C51.8627 234.115 47.7522 230.876 43.4237 227.908C38.3095 224.403 32.9509 221.354 27.0773 219.301C25.466 218.738 23.8284 218.289 22.1347 218.102C20.4905 217.923 18.7736 217.68 18.1463 219.89C18.0505 220.226 17.7138 220.346 17.377 220.256C17.0369 220.166 16.8454 219.88 16.8553 219.547C16.8884 218.439 17.41 217.633 18.3939 217.121C19.5033 216.541 20.6853 216.478 21.8904 216.601C23.6501 216.784 25.3637 217.177 27.0376 217.75C34.9352 220.442 41.9842 224.686 48.538 229.808C51.3279 231.988 53.9527 234.354 56.2011 237.117C57.0826 238.199 57.8849 239.334 58.4892 240.598C60.1301 244.043 58.7962 246.216 54.9036 246.256L54.9102 246.253Z" fill="#150C08"/>
<path d="M103.551 11.5298C103.182 15.7801 101.663 19.4612 98.9952 22.663C98.5494 23.1955 97.9981 23.6282 97.3509 23.9144C96.2152 24.417 95.3468 24.1041 94.9539 22.9292C94.6964 22.1571 94.5346 21.345 94.6304 20.4996C95.02 17.0981 96.1392 13.9695 98.0344 11.1304C98.632 10.2351 99.3121 9.40306 100.263 8.84058C101.848 7.90533 102.931 8.32802 103.363 10.0953C103.482 10.5813 103.495 11.0972 103.548 11.5265L103.551 11.5298Z" fill="#FCF6F5"/>
<path d="M21.9268 196.894C21.9565 198.206 21.1047 199.557 19.926 200.063C18.6153 200.625 17.3705 199.94 17.1229 198.518C16.8687 197.061 18.0342 195.227 19.4605 194.834C20.7778 194.471 21.8938 195.407 21.9268 196.894Z" fill="#FCF6F5"/>
<path d="M97.1597 30.1705C97.1432 31.778 95.9513 33.2358 94.6471 33.2458C93.475 33.2558 92.61 32.2041 92.5968 30.7596C92.5836 29.1587 93.7491 27.7342 95.106 27.6876C96.2583 27.6476 97.1729 28.7526 97.1597 30.1705Z" fill="#FCF6F5"/>
<path d="M21.1931 67.876C21.0908 68.7247 20.8101 69.7032 20.4106 70.6252C18.9414 74.0034 17.0892 77.1486 14.5865 79.8645C14.1177 80.3737 13.6092 80.853 13.0645 81.2757C12.5131 81.7051 11.8693 82.0678 11.1561 81.6818C10.4297 81.289 10.4099 80.5501 10.5024 79.8512C10.5915 79.1656 10.717 78.47 10.9448 77.8209C12.4074 73.6406 14.6327 69.9462 17.9014 66.9341C18.1787 66.6778 18.4726 66.4282 18.7928 66.2418C19.3277 65.9323 19.8725 65.5495 20.546 65.879C21.0941 66.1486 21.2724 66.6612 21.1964 67.876H21.1931Z" fill="#FCF6F5"/>
<path d="M23.8197 63.9131C22.8226 63.9364 22.0071 63.111 22.0698 62.1391C22.1688 60.648 23.9616 59.0937 25.4474 59.2135C26.3586 59.2868 26.9001 59.9025 26.8704 60.8344C26.8242 62.2589 25.2229 63.8798 23.8197 63.9131Z" fill="#FCF6F5"/>
<path d="M175.741 256.728C173.721 256.695 171.908 256.085 170.449 254.638C167.471 251.685 168.511 247.119 172.476 245.831C174.668 245.122 176.827 245.335 178.841 246.5C181.06 247.781 182.176 249.915 181.843 252.155C181.526 254.288 179.888 255.889 177.415 256.515C176.86 256.655 176.309 256.741 175.738 256.728H175.741ZM175.626 255.243C176.534 255.33 177.385 255.09 178.181 254.711C180.747 253.493 181.219 250.644 179.208 248.623C177.385 246.793 174.232 246.393 172.076 247.718C169.934 249.033 169.574 251.496 171.258 253.37C172.426 254.668 173.939 255.167 175.622 255.243H175.626Z" fill="#150C08"/>
<path d="M160.988 15.8446C160.449 15.8279 159.961 15.798 159.654 15.2788C159.343 14.7529 159.565 14.2869 159.845 13.8709C160.955 12.2001 162.566 11.2981 164.491 10.9653C165.062 10.8655 165.626 11.0419 165.93 11.6243C166.201 12.1402 166.003 12.6394 165.699 13.0388C164.507 14.6164 162.866 15.4452 160.988 15.8479V15.8446Z" fill="#FCF6F5"/>
<path d="M290.288 40.7856C292.2 40.8489 295.036 40.8123 297.832 41.3182C298.572 41.4513 299.308 41.6277 300.021 41.864C300.748 42.107 301.504 42.4631 301.629 43.3085C301.755 44.1738 301.068 44.6631 300.434 45.0791C299.645 45.6017 298.777 45.9711 297.895 46.3106C294.768 47.5088 291.51 48.2077 288.238 48.8002C280.803 50.1448 273.304 50.9036 265.744 50.8171C263.294 50.7872 260.851 50.5808 258.437 50.1082C258.13 50.0483 257.81 50.015 257.519 49.9085C256.641 49.5923 255.532 49.4192 255.38 48.3043C255.221 47.1626 256.235 46.6934 257.064 46.264C257.952 45.8047 258.889 45.4186 259.83 45.0791C262.554 44.0906 265.381 43.4616 268.22 42.9357C275.213 41.641 282.262 40.8689 290.295 40.7856H290.288Z" fill="#FCF6F5"/>
<path d="M373.427 236.887C366.695 237.117 359.96 238.645 353.32 240.661C348.074 242.256 342.947 244.173 338.159 246.905C336.736 247.717 335.316 248.563 334.22 249.818C333.035 251.176 333.289 252.048 335.036 252.534C335.878 252.77 336.769 252.836 337.637 252.98C338.03 253.043 338.41 253.173 338.41 253.642C338.41 254.231 337.948 254.387 337.492 254.347C336.115 254.231 334.722 254.131 333.467 253.455C331.932 252.63 331.572 251.322 332.467 249.791C333.051 248.786 333.923 248.047 334.828 247.358C337.202 245.547 339.833 244.183 342.557 243.015C351.465 239.194 360.716 236.654 370.344 235.559C372.595 235.303 374.87 235.3 377.132 235.496C378.39 235.606 379.631 235.875 380.678 236.661C381.873 237.56 382.015 239.28 381.001 240.339C380.727 240.625 380.41 240.828 380.011 240.555C379.717 240.355 379.638 240.059 379.71 239.726C379.737 239.606 379.826 239.497 379.856 239.377C380.192 238.012 380.067 237.786 378.73 237.35C377.079 236.811 375.372 236.927 373.437 236.884L373.427 236.887Z" fill="#150C08"/>
<path d="M345.952 154.525C345.952 152.688 345.948 150.851 345.952 149.013C345.952 148.248 345.889 147.496 345.645 146.767C345.159 145.322 344.572 144.846 343.046 144.79C341.792 144.743 340.534 144.78 339.276 144.727C338.751 144.703 338.008 144.783 338.064 143.934C338.11 143.265 338.721 143.279 339.23 143.275C340.108 143.269 340.989 143.295 341.868 143.265C343.882 143.196 344.964 142.344 345.588 140.396C345.962 139.232 345.972 138.023 345.981 136.822C346.005 134.352 345.991 131.879 345.998 129.41C345.998 128.967 345.998 128.524 346.031 128.082C346.057 127.739 346.255 127.473 346.589 127.419C346.952 127.36 347.147 127.652 347.289 127.939C347.523 128.415 347.444 128.931 347.444 129.433C347.451 132.222 347.461 135.008 347.451 137.797C347.447 138.829 347.642 139.801 348.101 140.729C348.897 142.34 350.099 143.295 351.947 143.285C352.888 143.282 353.833 143.292 354.774 143.322C355.005 143.329 355.292 143.335 355.358 143.672C355.424 144.018 355.325 144.324 355.025 144.477C354.754 144.617 354.44 144.71 354.14 144.733C353.578 144.773 353.011 144.75 352.443 144.75C348.923 144.763 347.533 146.121 347.494 149.629C347.451 153.114 347.437 156.595 347.411 160.08C347.411 160.459 347.421 160.842 347.391 161.218C347.352 161.724 347.097 162.08 346.556 162.024C346.09 161.977 346.001 161.568 345.978 161.175C345.955 160.796 345.958 160.416 345.958 160.037C345.958 158.2 345.958 156.362 345.958 154.525H345.938H345.952Z" fill="#FCF6F5"/>
<path d="M316.437 215.723C316.569 211.705 317.256 207.405 318.398 203.172C318.682 202.126 319.081 201.131 319.586 200.176C319.771 199.827 320.019 199.517 320.438 199.517C321 199.517 321.135 200 321.254 200.416C321.376 200.838 321.468 201.281 321.478 201.717C321.614 207.718 320.772 213.582 318.976 219.3C318.787 219.896 318.5 220.482 318.144 220.991C317.652 221.693 317.097 221.594 316.744 220.805C316.394 220.026 316.47 219.187 316.44 218.369C316.414 217.61 316.433 216.847 316.433 215.716L316.437 215.723Z" fill="#FCF6F5"/>
<path d="M376.802 45.7217C374.485 45.502 372.164 44.8031 370.143 43.312C369.4 42.7629 368.532 42.1039 368.809 41.0188C369.09 39.9305 370.127 39.7275 371.081 39.6909C373.851 39.5843 376.423 40.27 378.658 41.9541C379.457 42.5565 380.296 43.3387 379.876 44.4902C379.464 45.6219 378.344 45.6418 377.334 45.7184C377.209 45.7284 377.083 45.7184 376.799 45.7184L376.802 45.7217Z" fill="#FCF6F5"/>
<path d="M375.926 94.9067C373.972 94.8634 371.255 92.6634 370.809 90.7629C370.472 89.3285 371.307 88.3067 372.717 88.6095C374.992 89.0988 376.692 90.4268 377.534 92.6501C378.036 93.9714 377.283 94.9333 375.926 94.9033V94.9067Z" fill="#FCF6F5"/>
<path d="M309.935 41.4047C310.873 41.5046 312.002 41.8574 312.906 42.6961C313.847 43.5715 313.768 44.6332 312.758 45.4286C311.252 46.6168 307.98 46.2973 306.686 44.8362C305.834 43.8777 305.947 42.8492 306.983 42.1004C307.561 41.6843 308.769 41.3648 309.935 41.4047Z" fill="#FCF6F5"/>
<path d="M318.477 227.964C318.51 228.996 318.368 229.998 317.833 230.893C317.216 231.925 316.295 231.931 315.855 230.856C315.185 229.202 315.261 227.515 316.04 225.894C316.268 225.418 316.625 225.038 317.202 225.088C317.793 225.138 318.018 225.618 318.209 226.1C318.45 226.699 318.493 227.332 318.477 227.967V227.964Z" fill="#FCF6F5"/>
<path d="M384.46 46.9313C384.479 47.7434 383.991 48.3225 383.268 48.3425C382.366 48.3691 381.501 47.4405 381.524 46.4653C381.541 45.6965 382.119 45.1074 382.822 45.1373C383.641 45.1706 384.436 46.0426 384.46 46.9313Z" fill="#FCF6F5"/>
<path d="M247.183 229.821C241.29 229.805 238.622 225.598 241.088 220.199C241.752 218.748 242.637 217.433 243.716 216.272C247.302 212.414 251.558 209.758 256.821 208.946C258.719 208.653 260.591 208.75 262.371 209.552C264.54 210.531 265.649 212.218 265.679 214.628C265.696 216.056 265.329 217.387 264.731 218.662C261.899 224.689 253.787 229.845 247.187 229.825L247.183 229.821ZM247.398 228.394C248.207 228.294 249.032 228.27 249.821 228.084C254.833 226.899 258.95 224.29 262.087 220.149C262.856 219.134 263.457 218.019 263.857 216.811C265.019 213.3 263.381 210.737 259.733 210.351C258.604 210.231 257.478 210.281 256.359 210.514C254.876 210.823 253.44 211.289 252.076 211.928C247.989 213.846 244.522 216.518 242.525 220.705C240.355 225.248 242.396 228.364 247.401 228.39L247.398 228.394Z" fill="#150C08"/>
<path d="M240.016 239.841C240.003 242.261 239.012 244.028 237.335 244.624C235.618 245.233 233.617 244.408 232.201 242.381C230.692 240.221 230.052 237.824 230.728 235.202C231.504 232.19 234.403 231.185 236.889 233.032C238.788 234.443 240.026 237.139 240.013 239.841H240.016ZM231.943 237.535C232.105 239.332 232.733 241.223 234.393 242.577C236.123 243.985 237.784 243.419 238.372 241.256C238.943 239.162 238.372 237.265 237.213 235.528C236.414 234.33 235.387 233.375 233.815 233.664C232.696 233.87 231.92 235.488 231.943 237.535Z" fill="#150C08"/>
<path d="M271.135 209.377C271.132 207.256 271.564 205.745 273.146 204.937C274.688 204.148 276.236 204.461 277.587 205.459C279.832 207.123 280.905 209.407 280.594 212.219C280.287 215.011 277.706 216.486 275.176 215.301C272.529 214.063 271.337 211.8 271.135 209.377ZM279.168 211.25C279.036 209.154 278.161 207.459 276.316 206.421C274.536 205.419 272.819 206.374 272.651 208.401C272.479 210.455 273.271 212.116 274.843 213.397C275.725 214.116 276.758 214.489 277.828 213.983C278.927 213.467 279.204 212.412 279.168 211.247V211.25Z" fill="#150C08"/>
<path d="M175.62 255.246C173.936 255.169 172.42 254.67 171.255 253.372C169.568 251.498 169.931 249.039 172.074 247.721C174.23 246.396 177.383 246.795 179.205 248.626C181.216 250.646 180.744 253.495 178.178 254.714C177.379 255.093 176.531 255.333 175.623 255.246H175.62Z" fill="#A5BC00"/>
<path d="M247.403 228.398C242.401 228.371 240.361 225.256 242.526 220.713C244.524 216.526 247.991 213.853 252.078 211.936C253.442 211.297 254.881 210.831 256.36 210.522C257.48 210.285 258.606 210.239 259.735 210.359C263.383 210.748 265.021 213.307 263.858 216.819C263.459 218.027 262.858 219.142 262.089 220.157C258.952 224.294 254.835 226.907 249.823 228.092C249.034 228.278 248.209 228.301 247.4 228.401L247.403 228.398Z" fill="#A5BC00"/>
<path d="M231.941 237.535C231.914 235.485 232.693 233.867 233.813 233.664C235.388 233.374 236.411 234.33 237.21 235.528C238.369 237.265 238.937 239.162 238.369 241.256C237.781 243.419 236.12 243.985 234.39 242.577C232.73 241.226 232.106 239.335 231.941 237.535Z" fill="#A5BC00"/>
<path d="M279.172 211.25C279.208 212.412 278.931 213.47 277.831 213.986C276.758 214.489 275.728 214.116 274.847 213.4C273.275 212.119 272.483 210.458 272.654 208.405C272.823 206.378 274.54 205.423 276.319 206.424C278.165 207.463 279.04 209.157 279.172 211.254V211.25Z" fill="#A5BC00"/>
</g>
<defs>
<clipPath id="clip0_432_995">
<rect width="412.356" height="323.417" fill="white" transform="translate(0.54248 0.231445)"/>
</clipPath>
</defs>
</svg>
