<svg width="389" height="322" viewBox="0 0 389 322" fill="none" xmlns="http://www.w3.org/2000/svg">
<path d="M363.44 266.918C364.623 266.685 365.651 266.427 366.694 266.275C368.01 266.09 369.393 266.065 370.236 267.393C371.006 268.615 370.399 269.862 369.859 271.02C369.127 272.581 368.114 273.916 367.034 275.195C362.664 280.335 357.517 284.405 352.096 288.106C345.618 292.53 338.563 295.667 331.537 298.82C316.222 305.697 300.374 310.677 284.105 314.079C273.544 316.291 262.932 318.021 252.232 319.131C245.524 319.83 238.817 320.305 232.087 320.659C222.569 321.158 213.059 321.125 203.549 320.844C196.76 320.643 189.986 320.16 183.212 319.533C176.209 318.881 169.228 318.061 162.269 316.999C151.509 315.366 140.831 313.234 130.248 310.54C113.039 306.156 96.2228 300.453 79.9682 292.867C64.6084 285.7 50.0473 277.029 36.7729 265.905C32.7721 262.55 29.5626 258.488 27.3219 253.573C19.483 236.432 13.7517 218.446 9.38856 199.921C6.43789 187.397 4.23412 174.72 2.71811 161.906C1.33521 150.315 0.595694 138.643 0.63267 126.94C0.669646 114.97 1.46093 103.066 3.59814 91.2894C4.95885 83.8006 8.01306 77.2369 12.5907 71.4855C18.0927 64.5679 24.9184 59.5646 32.3876 55.5105C34.2364 54.5131 36.1221 53.6041 38.1706 52.5665C34.9019 50.8692 33.0236 48.2711 33.0236 44.2974C33.0236 40.5088 34.5987 37.6774 37.4015 35.6021C37.3276 35.4331 37.3128 35.2642 37.2388 35.224C34.0737 33.3498 32.7647 30.3816 33.0605 26.5769C33.3563 22.8285 35.0942 20.0614 38.2372 18.4366C39.3021 17.8896 40.4113 17.4472 41.528 17.045C43.3472 16.3854 45.1369 16.5623 46.8747 17.4311C47.2963 17.6402 47.703 17.8976 48.2207 18.1872C49.5814 15.6132 51.726 14.2779 54.1738 13.2724C57.2945 11.9854 60.1565 12.09 62.8483 14.6157C64.7045 11.535 67.5738 10.3445 70.5985 9.56422C74.5549 8.54266 78.4448 11.3178 79.2582 15.6614C80.0125 19.6753 78.8737 23.0054 76.0487 25.676C75.7455 25.9575 75.4053 26.1988 74.9099 26.601C77.6535 28.1776 79.1917 30.5264 79.4505 33.752C79.7019 36.8649 78.7184 39.5274 76.596 42.0049C78.674 42.1015 80.4415 41.6832 82.2089 41.4901C93.9894 40.179 105.792 39.8251 117.617 40.1709C125.175 40.3881 132.725 40.8788 140.261 41.6349C147.789 42.3991 155.288 43.4046 162.772 44.6031C174.871 46.5417 186.858 49.0835 198.772 52.0838C205.383 53.7489 211.95 55.6151 218.48 57.5939C219.042 57.7628 219.582 57.988 220.307 57.988C220.351 57.2721 220.403 56.5964 220.425 55.9127C220.521 52.7032 220.558 49.4857 220.721 46.2762C220.772 45.2868 220.491 44.9248 219.648 44.6996C215.004 43.4609 210.367 42.2141 205.679 41.2086C204.244 40.9029 204.163 40.8225 204.17 39.1896C204.266 26.971 204.363 14.7605 204.466 2.54197C204.466 2.34891 204.466 2.15586 204.466 1.96281C204.54 0.732107 204.762 0.506881 205.915 0.764283C208.282 1.29517 210.648 1.87433 213 2.47762C234.002 7.85893 254.391 15.3075 274.417 23.9868C283.846 28.073 293.127 32.5213 302.282 37.2832C303.554 37.9428 303.946 38.6989 303.939 40.2031C303.894 52.2286 303.939 64.2541 303.953 76.2716C303.953 78.6767 303.85 78.7411 301.779 77.6632C297.046 75.1857 292.291 72.7726 287.47 70.5203C287.152 70.3674 286.856 70.1181 286.464 70.1664C286.005 70.3514 286.175 70.8099 286.161 71.1477C285.991 75.0007 285.894 78.8537 285.65 82.6986C285.569 83.9937 285.931 84.613 287.011 85.152C295.116 89.19 303.036 93.6302 310.801 98.3841C326.021 107.707 340.53 118.148 353.738 130.64C362.02 138.466 369.637 146.969 376.012 156.718C380.767 163.989 384.672 171.728 386.935 180.351C389.138 188.748 389.464 197.186 387.179 205.624C386.092 209.63 384.502 213.435 383.082 217.312C377.232 233.303 370.895 249.061 364.32 264.706C364.039 265.382 363.766 266.065 363.425 266.894L363.44 266.918ZM237.759 48.6572C237.944 48.9709 238.225 48.9709 238.521 48.9226C239.253 49.5259 240.163 49.5903 240.991 49.8798C260.277 56.6286 279.15 64.5357 297.527 73.8263C297.919 74.0274 298.296 74.4215 298.806 74.1963C298.829 74.0515 298.858 73.9228 298.858 73.7941C298.821 61.9617 298.762 50.1292 298.755 38.2967C298.755 37.3556 298.451 36.881 297.697 36.5754C297.202 36.3743 296.736 36.0847 296.255 35.8434C275.497 25.3945 254.154 16.6267 232.228 9.55618C228.722 8.43004 225.239 7.19934 221.645 6.43517C218.066 5.12403 214.361 4.34378 210.7 3.40266C209.132 3.00046 207.55 2.66262 205.938 2.28456C205.879 2.6948 205.827 2.87981 205.827 3.06481C205.731 14.8249 205.642 26.5849 205.553 38.337C205.546 39.6481 205.568 39.6722 206.951 39.9859C216.321 42.0854 225.535 44.8042 234.698 47.7643C235.711 48.0941 236.679 48.617 237.767 48.6411L237.759 48.6572ZM277.331 251.056C283.173 251.064 288.135 251.08 293.097 250.847C298.414 250.597 303.709 250.227 309.004 249.664C317.243 248.787 325.407 247.404 333.468 245.345C343.103 242.883 352.451 239.529 361.214 234.421C368.21 230.343 374.54 225.332 379.466 218.462C386.099 209.204 388.606 198.771 386.935 187.14C385.951 180.326 383.755 173.988 380.804 167.931C375.945 157.949 369.453 149.301 362.198 141.306C352.436 130.559 341.536 121.317 330.007 112.951C310.912 99.1 290.546 87.8628 269.374 78.3067C246.027 67.7773 222.007 59.5244 197.396 53.2985C186.348 50.4992 175.218 48.1665 164 46.3245C155.65 44.949 147.264 43.847 138.841 43.0506C132.186 42.4232 125.53 41.9486 118.852 41.7314C109.098 41.4097 99.3509 41.5143 89.6189 42.3267C85.1966 42.6967 80.789 43.123 76.3963 43.7665C70.2509 44.6674 64.1499 45.8338 58.108 47.3782C48.3464 49.8798 38.9101 53.3146 30.0803 58.535C23.5873 62.3719 17.7007 67.0695 12.9752 73.3276C5.89064 82.7067 3.20619 93.421 4.89969 105.398C5.94241 112.783 8.4198 119.644 11.755 126.151C17.2275 136.809 24.4452 145.955 32.4911 154.377C44.2199 166.652 57.3389 176.94 71.1753 186.182C86.2541 196.261 102.043 204.868 118.312 212.421C145.171 224.889 172.918 234.349 201.456 241.033C218.85 245.103 236.398 248.088 254.147 249.688C262.163 250.412 270.18 250.798 277.331 251.048V251.056ZM357.598 276.345C358.286 275.782 358.404 275.123 358.648 274.56C362.545 265.623 366.317 256.614 369.978 247.557C371.9 242.795 373.749 237.993 375.627 233.206C376.263 231.598 376.663 229.933 376.596 228.163C376.515 226.072 375.783 225.645 374.119 226.771C373.72 227.045 373.35 227.367 372.987 227.696C369.356 230.922 365.437 233.665 361.296 236.038C352.932 240.824 344.05 244.082 334.895 246.495C321.406 250.034 307.695 251.683 293.852 252.278C285.399 252.64 276.946 252.592 268.508 252.19C260.248 251.796 252.01 251.064 243.786 250.058C234.335 248.908 224.928 247.412 215.574 245.57C200.805 242.666 186.2 238.982 171.772 234.485C140.313 224.696 110.015 211.794 81.4102 194.395C64.8598 184.332 49.1598 172.918 35.0868 159.002C23.4394 147.484 13.345 134.67 6.85202 118.856C6.61537 118.276 6.31956 117.697 5.9646 117.191C5.43214 116.426 4.94406 116.45 4.41161 117.231C3.87176 118.019 3.60553 118.944 3.37628 119.877C2.45188 123.682 2.17087 127.583 2.01557 131.5C1.92683 133.745 2.17087 135.997 2.23003 138.241C2.41491 145.376 3.02131 152.479 3.79781 159.557C5.12894 171.687 7.11085 183.689 9.77311 195.561C10.2242 197.588 10.5718 199.648 11.2965 201.715C11.8068 201.313 11.9621 200.814 12.1839 200.38C13.4041 198.023 14.7205 195.73 16.2069 193.575C18.7435 189.899 21.598 186.568 25.3104 184.252C30.5536 180.978 35.8485 180.881 41.1657 184.067C43.68 185.571 45.8172 187.59 47.7326 189.891C50.7276 193.486 53.1163 197.532 55.1795 201.828C59.3726 210.539 62.1902 219.789 64.3643 229.289C68.232 246.197 70.0512 263.395 70.5023 280.786C70.5097 281.196 70.3618 281.638 70.6207 282.016C70.7242 281.992 70.8129 282 70.8203 281.968C71.0348 281.445 71.264 280.93 71.4489 280.4C73.4012 274.793 75.7381 269.396 78.6075 264.28C83.3699 255.794 89.1752 248.337 96.7848 242.682C103.485 237.703 110.843 234.791 119 234.679C125.567 234.59 131.734 236.408 137.495 239.867C145.009 244.379 150.895 250.798 155.673 258.448C164.436 272.501 168.718 288.266 170.411 304.981C170.663 307.435 170.796 309.912 170.988 312.406C171.217 312.317 171.38 312.309 171.41 312.237C171.617 311.779 171.794 311.296 171.979 310.829C176.527 299.23 182.983 289.111 191.842 280.939C204.444 269.315 218.894 263.355 235.578 264.545C245.849 265.277 255.197 268.945 263.664 275.235C273.996 282.909 281.413 293.213 286.493 305.585C286.848 306.445 287.063 307.387 287.743 308.239C287.891 307.676 288.032 307.258 288.113 306.832C291.145 291.959 298.37 280.005 309.603 270.988C317.065 264.996 325.392 261.464 334.843 261.842C343.584 262.188 350.661 266.106 355.956 273.723C356.526 274.536 357.021 275.404 357.613 276.337L357.598 276.345ZM169.679 314.336C169.361 308.424 168.917 302.673 167.993 296.97C166.048 284.896 162.506 273.458 156.686 262.928C152.189 254.788 146.547 247.782 139.1 242.642C133.176 238.556 126.713 236.263 119.71 236.175C112.707 236.094 106.191 238.242 100.164 242.119C93.5531 246.374 88.1694 252.077 83.651 258.786C81.5951 261.834 81.3067 260.917 83.8137 264.376C89.4932 272.195 96.2302 278.823 103.514 284.8C113.417 292.916 124.073 299.648 135.373 305.175C143.352 309.076 151.539 312.374 160.058 314.634C162.639 315.318 165.227 315.977 167.867 316.323C169.635 316.557 169.694 316.444 169.679 314.578C169.679 314.449 169.679 314.32 169.679 314.328V314.336ZM256.055 314.763C264.397 315.044 272.701 314.57 280.954 313.226C282.759 312.929 284.541 312.462 286.338 312.076C286.996 311.931 287.248 311.553 286.952 310.837C286.834 310.548 286.767 310.226 286.656 309.928C282.811 299.158 277.235 289.642 269.248 281.928C257.024 270.12 242.817 264.585 226.415 266.122C219.567 266.765 213.081 268.808 206.892 271.994C197.921 276.611 190.452 283.311 184.166 291.605C182.473 293.841 180.912 296.182 179.478 298.619C178.605 300.107 178.62 300.131 180.04 300.799C180.254 300.903 180.476 301 180.691 301.096C188.544 304.547 196.664 307.025 204.925 308.995C212.187 310.733 219.523 312.028 226.91 313.009C232.945 313.814 239.002 314.353 245.066 314.723C248.719 314.94 252.394 314.763 256.055 314.763ZM69.2673 285.572C69.1416 281.341 69.1194 277.488 68.8976 273.643C68.3725 264.537 67.5591 255.472 66.1909 246.463C64.527 235.547 62.2493 224.801 58.7366 214.392C56.4737 207.675 53.7375 201.208 49.9437 195.32C47.6882 191.821 45.1295 188.644 41.8238 186.263C36.6694 182.547 31.367 182.177 25.9612 185.563C23.6908 186.987 21.6941 188.797 19.9489 190.92C17.1387 194.339 14.8684 198.16 12.8273 202.165C12.1248 203.549 12.11 204.731 12.6572 206.147C15.4896 213.443 18.7583 220.489 22.4263 227.326C27.8321 237.389 33.9406 246.921 40.7367 255.93C48.3316 266.001 56.592 275.34 66.0948 283.311C67.0118 284.084 67.9288 284.872 69.2599 285.556L69.2673 285.572ZM289.695 306.188C290.442 306.55 291.152 306.341 291.833 306.252C293.585 306.019 295.338 305.754 297.083 305.44C305.58 303.904 314.003 301.981 322.279 299.367C331.478 296.463 340.426 292.843 348.997 288.162C352.488 286.255 354.788 283.191 356.474 279.466C356.822 278.702 356.822 278.035 356.415 277.295C355.017 274.737 353.383 272.396 351.342 270.409C344.937 264.175 337.313 262.494 329.053 263.604C323.662 264.336 318.662 266.508 314.018 269.565C303.983 276.177 296.869 285.54 292.262 297.203C291.123 300.075 290.147 303.035 289.688 306.188H289.695ZM227.635 47.0323C227.103 51.2795 227.339 55.4059 226.955 59.4922C226.91 59.9909 227.073 60.3609 227.576 60.4977C228.034 60.6183 228.486 60.7792 228.937 60.932C244.622 66.1766 260.033 72.2175 275.097 79.3041C276.332 79.8833 277.575 80.4464 278.765 80.9853C279.106 80.6474 279.032 80.3096 279.046 80.0039C279.165 76.2797 279.276 72.5554 279.387 68.8311C279.426 67.4475 278.834 66.485 277.612 65.9433C265.21 60.4333 252.646 55.4381 239.867 51.0623C235.822 49.6787 231.754 48.3837 227.643 47.0243L227.635 47.0323ZM78.1637 35.1194C78.1711 31.9663 76.9583 29.537 74.969 28.4028C72.7727 27.1641 70.6207 27.4778 68.6092 28.9016C65.9691 30.7597 64.6749 34.484 65.4144 37.8222C66.3832 42.1819 70.5097 44.217 74.126 42.0452C76.7808 40.4525 77.9863 37.8543 78.1711 35.1194H78.1637ZM44.0128 35.0229C39.5757 34.9988 36.0852 39.7285 36.9356 44.6353C37.8526 49.9361 42.9627 52.0275 46.8008 48.6089C49.2856 46.3969 50.2174 43.5252 49.5 40.0342C48.9084 37.1465 46.6899 35.047 44.0128 35.0309V35.0229ZM63.7579 37.6532C63.7283 33.1809 60.6446 30.1403 56.7843 30.8723C54.0333 31.3871 52.2806 33.3096 51.3414 36.0606C50.4244 38.7472 50.6685 41.3936 52.3176 43.6941C53.6043 45.4799 55.3644 46.236 57.472 45.9062C61.1326 45.319 63.7875 41.8441 63.7579 37.6613V37.6532ZM63.7579 20.8417C63.7357 17.9459 62.2715 15.3155 60.0382 14.4066C57.4498 13.3529 55.1425 14.0688 53.2272 16.1119C50.8459 18.6537 50.2913 21.7506 51.3488 25.1371C52.2658 28.0811 55.2313 29.7542 58.0341 29.0624C61.3841 28.2259 63.7949 24.767 63.7653 20.8497L63.7579 20.8417ZM36.8025 26.3838C36.7581 31.2986 40.6036 34.5885 44.7006 33.0924C48.3316 31.7732 51.1491 26.8263 49.0267 21.7345C48.058 19.4099 45.9873 18.3239 43.7835 18.2515C40.1895 18.1309 36.8469 22 36.8025 26.3838ZM78.1637 18.2837C78.1785 15.211 76.9435 12.7254 74.9838 11.6154C72.7874 10.3686 70.6354 10.6823 68.6166 12.1061C66.0283 13.932 64.7193 17.5678 65.3775 20.8417C66.3315 25.5875 70.8203 27.6306 74.5697 24.9923C76.9287 23.3352 78.0084 20.8658 78.1637 18.2918V18.2837ZM299.997 38.1117C300.093 47.9895 300.182 57.7547 300.278 67.7613C301.432 67.1901 301.764 66.3134 302.016 65.4044C302.408 63.9887 302.6 62.5086 302.615 61.0447C302.659 54.1109 302.63 47.1852 302.644 40.2514C302.644 39.5435 302.519 38.9885 301.831 38.7472C301.284 38.5461 300.84 38.0393 299.997 38.1198V38.1117ZM222.037 46.9438C221.941 50.6199 221.859 54.2074 221.749 57.795C221.734 58.3259 221.859 58.7039 222.34 58.8085C223.42 59.0417 224.418 59.6933 225.624 59.6531C225.757 57.0308 225.912 54.4729 226.008 51.9069C226.149 48.2228 225.949 47.9493 222.614 46.9519C222.51 46.9197 222.385 46.9519 222.037 46.9519V46.9438ZM284.245 83.503C284.511 80.197 284.645 76.8829 284.689 73.5608C284.689 73.1184 284.748 72.6841 284.371 72.3382C283.299 71.3729 282.234 70.4157 280.681 69.9331C280.681 71.4292 280.703 72.7726 280.681 74.1159C280.659 75.4592 280.562 76.8025 280.548 78.1378C280.533 79.3926 279.949 80.9048 280.74 81.8299C281.479 82.6986 282.803 82.9721 283.868 83.503C283.964 83.5513 284.097 83.503 284.253 83.503H284.245ZM63.6174 26.4884C62.7522 27.8156 61.7612 28.797 60.5114 29.6416C61.4137 30.2771 62.1236 30.7677 62.8705 31.2986C63.7431 30.0357 64.6897 29.0142 65.9839 28.1937C65.1039 27.5582 64.4383 27.0756 63.6174 26.4884ZM51.6816 31.2423C50.9495 30.7597 50.5058 30.3655 49.892 30.2127C49.0045 31.6767 47.9322 32.9074 46.3867 33.9289C47.104 34.3633 47.5995 34.6609 48.1985 35.0229C49.0415 33.5026 50.136 32.288 51.6816 31.2423ZM51.0308 47.5954C50.2716 47.1557 49.6923 47.3621 49.293 48.2148C49.9142 48.2872 50.454 48.1343 51.0308 47.5954ZM64.6453 44.217C63.9699 43.477 63.3487 43.603 62.7818 44.595C63.4547 44.7237 64.0242 44.41 64.6453 44.217Z" fill="#0B0504"/>
<path d="M277.324 251.058C270.173 250.808 262.149 250.422 254.14 249.698C236.392 248.098 218.843 245.113 201.45 241.043C172.911 234.359 145.165 224.899 118.305 212.431C102.036 204.878 86.2474 196.271 71.1686 186.192C57.3322 176.942 44.2132 166.662 32.4844 154.387C24.4385 145.965 17.2208 136.819 11.7483 126.161C8.41311 119.662 5.93573 112.801 4.89301 105.408C3.19951 93.4392 5.88396 82.7168 12.9685 73.3377C17.6941 67.0796 23.5806 62.382 30.0736 58.5451C38.9108 53.3247 48.3397 49.8819 58.1013 47.3883C64.1506 45.8439 70.2442 44.6776 76.3896 43.7766C80.7823 43.1331 85.1899 42.7068 89.6122 42.3368C99.3516 41.5163 109.098 41.4198 118.845 41.7416C125.516 41.9587 132.179 42.4253 138.835 43.0607C147.258 43.8571 155.636 44.9671 163.993 46.3346C175.211 48.1766 186.341 50.5174 197.39 53.3086C222.001 59.5345 246.02 67.7874 269.367 78.3168C290.539 87.8648 310.906 99.1101 330 112.962C341.536 121.327 352.437 130.569 362.191 141.316C369.446 149.312 375.939 157.959 380.797 167.941C383.748 173.998 385.952 180.337 386.928 187.15C388.599 198.781 386.092 209.214 379.459 218.472C374.534 225.342 368.203 230.353 361.208 234.431C352.452 239.539 343.104 242.893 333.461 245.355C325.4 247.414 317.243 248.806 308.998 249.674C303.703 250.237 298.408 250.607 293.091 250.857C288.128 251.09 283.166 251.074 277.324 251.066V251.058ZM73.964 92.1522C72.8917 86.1676 71.8046 80.191 70.7471 74.1984C69.6452 67.9564 68.5803 61.7144 67.4784 55.4724C67.3749 54.8852 67.3823 53.9682 66.5836 54.0808C65.7332 54.2014 66.0733 55.038 66.1251 55.6413C66.1399 55.8343 66.1621 56.0274 66.1991 56.2124C67.6707 64.5297 69.1645 72.847 70.5992 81.1724C71.25 84.9529 72.056 88.7014 72.4997 92.5302C69.4529 93.1094 66.3913 93.6242 63.3593 94.2918C61.0742 94.7905 58.7521 95.1847 56.5409 96.0373C55.7645 95.9489 55.0249 96.1178 54.2854 96.3913C51.49 97.445 48.776 98.7159 46.1729 100.236C42.8229 102.199 39.7243 104.54 37.2173 107.709C34.2593 111.449 32.6249 115.696 32.6693 120.732C32.7063 125.454 34.1114 129.677 36.1376 133.723C38.6224 138.678 41.9281 142.949 45.5591 146.939C51.6971 153.687 58.6042 159.407 65.8515 164.651C77.1513 172.816 89.0871 179.725 101.378 185.919C121.19 195.901 141.645 204.018 162.566 210.766C190.246 219.703 218.377 226.307 247.07 229.991C257.697 231.358 268.346 232.316 279.04 232.629C292.469 233.024 305.862 232.678 319.159 230.289C325.933 229.074 332.596 227.369 338.963 224.513C343.918 222.293 348.554 219.51 352.267 215.182C356.342 210.42 358.079 204.838 357.111 198.363C357.014 197.727 357.162 196.633 356.26 196.754C355.144 196.907 355.735 197.944 355.824 198.62C356.726 205.297 354.648 210.605 349.678 214.595C348.769 215.327 347.763 215.858 346.661 216.164C344.051 216.888 342.328 215.794 341.914 212.938C341.056 207.066 338.97 201.717 336.212 196.649C332.389 189.619 327.463 183.57 322.102 177.899C319.181 174.802 316.067 171.947 312.976 169.059C313.109 168.19 312.525 167.724 312.015 167.362C310.58 166.324 309.419 164.941 308.132 163.734C304.738 160.557 301.225 157.556 297.653 154.629C292.151 150.116 286.428 145.933 280.585 141.959C274.536 137.849 268.339 134.004 262.016 130.433C257.675 127.979 253.282 125.623 248.823 123.41C244.482 121.263 240.089 119.244 235.704 117.176C234.151 116.445 232.443 116.066 231.06 114.916C231.178 114.627 231.319 114.337 231.422 114.039C235.49 102.199 239.549 90.3584 243.609 78.5179C243.735 78.164 243.846 77.794 243.898 77.4159C243.942 77.0861 243.839 76.7724 243.484 76.6839C243.166 76.6035 242.877 76.708 242.737 77.0298C242.508 77.5446 242.315 78.0916 242.13 78.6305C238.07 90.471 234.01 102.312 229.951 114.152C229.448 114.635 228.989 114.329 228.479 114.12C226.061 113.106 223.65 112.077 221.202 111.16C208.401 106.358 195.474 102.03 182.244 98.8366C177.031 97.5817 171.81 96.351 166.552 95.3053C161.249 94.2516 155.903 93.4472 150.571 92.5383C150.408 89.5781 150.763 86.6341 150.881 83.682C151.184 76.2335 151.532 68.7929 151.857 61.3443C151.961 58.9714 152.042 56.5904 152.124 54.2175C152.138 53.7108 152.19 53.0431 151.569 52.9868C150.822 52.9225 150.837 53.6625 150.8 54.2175C150.711 55.4965 150.652 56.7835 150.593 58.0705C150.097 69.4364 149.602 80.7943 149.099 92.1602C148.33 92.1522 147.546 92.2487 146.799 92.1119C142.917 91.388 138.99 91.0904 135.078 90.7043C131.743 90.3745 128.393 89.9964 125.057 89.9401C120.931 89.8677 116.812 89.4173 112.685 89.4977C108.973 89.5701 105.268 89.4977 101.548 89.7551C97.0887 90.0688 92.6146 90.1493 88.1553 90.5836C84.8793 90.9054 81.6106 91.2834 78.3493 91.6937C76.8999 91.8787 75.4578 92.3291 73.964 92.1602V92.1522ZM15.7565 107.725C15.6234 106.197 15.5347 104.668 15.3572 103.148C15.0022 100.091 14.3958 97.0991 13.2496 94.2677C12.8206 93.214 12.3326 92.1763 11.4821 91.4282C10.5873 90.648 9.71467 90.7928 9.08608 91.8304C8.65716 92.5302 8.4353 93.3266 8.29479 94.1551C7.70318 97.6059 7.93243 101.041 8.45009 104.459C8.84203 107.049 9.41886 109.599 10.469 111.988C10.8757 112.913 11.3046 113.83 12.0294 114.53C13.0277 115.503 13.9669 115.359 14.6473 114.096C14.8839 113.661 15.0392 113.163 15.1501 112.672C15.5347 111.055 15.7269 109.406 15.7565 107.733V107.725ZM373.979 210.799C373.964 211.909 373.957 212.866 374.852 213.34C375.717 213.799 376.456 213.284 377.144 212.761C377.477 212.504 377.78 212.19 378.069 211.868C380.272 209.415 381.707 206.519 382.358 203.165C382.587 201.991 382.728 200.72 381.729 199.988C380.65 199.199 379.688 200.068 378.897 200.84C376.368 203.326 374.829 206.447 374.06 210.042C373.994 210.356 373.994 210.678 373.979 210.807V210.799ZM336.611 184.278C336.811 184.165 337.121 183.996 337.432 183.82C348.155 177.578 358.871 171.344 369.586 165.077C370.141 164.756 371.221 164.539 370.718 163.533C370.281 162.656 369.557 163.428 369.039 163.734C358.368 169.944 347.711 176.162 337.048 182.388C336.685 182.597 336.315 182.814 335.997 183.088C335.746 183.305 335.709 183.643 335.886 183.956C336.012 184.182 336.212 184.318 336.611 184.278ZM323.344 117.201C323.233 116.63 322.915 116.388 322.464 116.702C322.072 116.975 321.754 117.37 321.436 117.748C313.597 127.006 305.759 136.264 297.92 145.531C297.683 145.812 297.432 146.094 297.239 146.416C297.062 146.705 297.069 147.027 297.321 147.285C297.565 147.542 297.89 147.558 298.127 147.341C298.489 147.027 298.814 146.641 299.132 146.271C304.938 139.426 310.735 132.58 316.541 125.727C318.537 123.362 320.541 120.997 322.531 118.632C322.878 118.214 323.352 117.868 323.352 117.209L323.344 117.201ZM18.9586 124.81C18.7442 122.872 18.0934 121.054 16.7549 119.59C16.3407 119.139 15.8453 118.745 15.1871 119.075C14.5807 119.372 14.6103 119.984 14.6103 120.555C14.5955 122.727 15.4755 124.488 16.7771 126.041C17.1764 126.523 17.7015 126.893 18.3448 126.564C18.9956 126.226 18.9365 125.534 18.9586 124.81Z" fill="#FA420F"/>
<path d="M357.602 276.348C357.018 275.415 356.515 274.546 355.945 273.734C350.65 266.116 343.566 262.207 334.832 261.853C325.381 261.475 317.054 265.006 309.592 270.999C298.366 280.016 291.141 291.969 288.102 306.842C288.013 307.268 287.88 307.687 287.732 308.25C287.052 307.405 286.83 306.456 286.482 305.595C281.402 293.224 273.984 282.928 263.653 275.246C255.186 268.948 245.831 265.288 235.567 264.556C218.883 263.365 204.44 269.334 191.831 280.949C182.965 289.122 176.509 299.241 171.968 310.84C171.783 311.314 171.606 311.789 171.399 312.247C171.369 312.32 171.206 312.328 170.977 312.416C170.785 309.915 170.652 307.445 170.4 304.992C168.707 288.277 164.432 272.511 155.662 258.458C150.884 250.801 144.998 244.39 137.484 239.877C131.723 236.418 125.556 234.601 118.989 234.689C110.832 234.794 103.474 237.713 96.7738 242.693C89.1642 248.347 83.3589 255.804 78.5964 264.29C75.7271 269.406 73.3902 274.812 71.4379 280.41C71.253 280.941 71.0238 281.456 70.8093 281.979C70.7945 282.011 70.7132 282.003 70.6097 282.027C70.3508 281.649 70.4987 281.206 70.4913 280.796C70.0402 263.405 68.2284 246.2 64.3533 229.3C62.1791 219.8 59.3616 210.541 55.1685 201.838C53.1053 197.551 50.724 193.497 47.7216 189.901C45.8062 187.601 43.669 185.59 41.1547 184.077C35.8375 180.892 30.55 180.988 25.2994 184.262C21.587 186.579 18.7325 189.909 16.1959 193.585C14.7021 195.749 13.3931 198.033 12.1729 200.39C11.9511 200.825 11.7958 201.323 11.2855 201.725C10.5608 199.658 10.2206 197.591 9.76212 195.572C7.10725 183.699 5.11794 171.698 3.78681 159.568C3.01032 152.489 2.40391 145.387 2.21903 138.252C2.15987 136.007 1.91583 133.755 2.00457 131.511C2.15987 127.602 2.44089 123.7 3.36528 119.888C3.59453 118.955 3.86076 118.03 4.40061 117.241C4.93306 116.461 5.42114 116.445 5.9536 117.201C6.30857 117.708 6.60437 118.279 6.84102 118.866C13.3266 134.68 23.4284 147.494 35.0758 159.013C49.1488 172.929 64.8488 184.335 81.3992 194.406C110.004 211.796 140.302 224.699 171.761 234.496C186.189 238.984 200.794 242.668 215.563 245.58C224.917 247.422 234.324 248.919 243.775 250.069C251.999 251.066 260.237 251.806 268.497 252.2C276.943 252.603 285.395 252.651 293.841 252.289C307.684 251.694 321.395 250.053 334.884 246.505C344.046 244.1 352.921 240.834 361.285 236.048C365.426 233.675 369.345 230.933 372.976 227.707C373.339 227.385 373.708 227.055 374.108 226.782C375.772 225.656 376.496 226.074 376.585 228.174C376.659 229.951 376.252 231.608 375.616 233.217C373.731 238.003 371.889 242.797 369.967 247.567C366.306 256.624 362.542 265.634 358.637 274.57C358.393 275.133 358.275 275.793 357.587 276.356L357.602 276.348Z" fill="#FA420F"/>
<path d="M169.68 314.337C169.68 314.337 169.68 314.458 169.68 314.587C169.694 316.453 169.635 316.558 167.868 316.332C165.228 315.986 162.639 315.327 160.058 314.643C151.539 312.391 143.353 309.085 135.373 305.184C124.073 299.657 113.417 292.925 103.515 284.809C96.2232 278.832 89.4862 272.204 83.8141 264.385C81.2997 260.926 81.5955 261.843 83.6514 258.795C88.1699 252.094 93.5535 246.383 100.165 242.128C106.192 238.251 112.7 236.095 119.71 236.184C126.714 236.264 133.177 238.557 139.1 242.651C146.547 247.791 152.19 254.797 156.686 262.937C162.506 273.467 166.048 284.905 167.993 296.979C168.91 302.682 169.362 308.433 169.68 314.345V314.337Z" fill="#C20000"/>
<path d="M256.051 314.762C252.391 314.762 248.715 314.939 245.062 314.722C238.998 314.36 232.941 313.813 226.907 313.008C219.519 312.027 212.183 310.732 204.921 308.995C196.668 307.024 188.541 304.546 180.687 301.096C180.465 300.999 180.251 300.903 180.036 300.798C178.616 300.13 178.602 300.106 179.474 298.618C180.909 296.181 182.469 293.84 184.163 291.604C190.449 283.303 197.918 276.61 206.888 271.993C213.078 268.808 219.564 266.765 226.411 266.121C242.814 264.585 257.02 270.119 269.244 281.927C277.224 289.641 282.8 299.157 286.653 309.928C286.756 310.225 286.83 310.547 286.948 310.837C287.244 311.553 286.993 311.931 286.335 312.075C284.545 312.461 282.755 312.928 280.951 313.226C272.698 314.577 264.393 315.044 256.051 314.762Z" fill="#C20000"/>
<path d="M69.2771 285.571C67.946 284.887 67.029 284.099 66.112 283.327C56.6092 275.347 48.3561 266.008 40.7539 255.946C33.9577 246.937 27.8419 237.405 22.4434 227.342C18.7754 220.505 15.4994 213.458 12.6744 206.162C12.1272 204.739 12.1345 203.564 12.8445 202.181C14.8782 198.167 17.1559 194.354 19.966 190.935C21.7113 188.812 23.708 186.994 25.9783 185.578C31.3916 182.192 36.6865 182.554 41.841 186.278C45.1392 188.659 47.7054 191.836 49.9609 195.335C53.7546 201.224 56.4908 207.691 58.7538 214.407C62.2591 224.816 64.5442 235.555 66.2081 246.478C67.5836 255.487 68.3897 264.561 68.9147 273.658C69.1366 277.503 69.1588 281.356 69.2845 285.587L69.2771 285.571Z" fill="#C20000"/>
<path d="M221.638 6.44153C225.232 7.20569 228.715 8.42835 232.221 9.56253C254.147 16.633 275.49 25.4008 296.248 35.8497C296.729 36.091 297.195 36.3806 297.69 36.5817C298.444 36.8874 298.748 37.362 298.748 38.3031C298.755 50.1356 298.807 61.968 298.851 73.8005C298.851 73.9292 298.822 74.0579 298.799 74.2027C298.289 74.4279 297.919 74.0257 297.52 73.8326C279.143 64.534 260.27 56.635 240.984 49.8862C240.156 49.5966 239.239 49.5403 238.514 48.929C238.336 48.5911 238.07 48.5348 237.752 48.6635C237.663 47.8592 236.976 47.7707 236.488 47.465C235.171 46.6204 233.818 45.8241 232.516 44.9553C227.865 41.8665 223.738 38.102 220.063 33.7181C217.238 30.3558 214.997 26.6074 213.858 22.2074C212.601 17.3489 213.215 12.9168 216.898 9.4097C218.295 8.08247 219.996 7.3183 221.645 6.44957L221.638 6.44153ZM288.417 38.9144C288.72 38.9144 288.956 38.9144 289.193 38.9144C289.622 38.8983 290.036 38.8099 290.184 38.2951C290.31 37.8526 289.984 37.5872 289.74 37.3218C289.334 36.8552 288.89 36.453 288.38 36.1071C282.774 32.2059 276.673 29.5756 270.232 27.8542C269.514 27.6611 268.575 27.3796 268.154 28.2966C267.68 29.3262 268.605 29.7284 269.226 30.1628C274.61 33.9433 280.422 36.6622 286.583 38.5525C287.204 38.7455 287.81 39.019 288.409 38.9225L288.417 38.9144ZM293.268 38.2629C292.343 38.2387 291.818 39.1075 292.247 39.9521C292.78 40.9817 293.719 41.4161 294.717 41.5448C295.605 41.6574 296.093 40.5554 295.627 39.6786C295.094 38.6651 294.096 38.6168 293.268 38.2629Z" fill="#D0E6EC"/>
<path d="M289.693 306.185C290.144 303.032 291.128 300.072 292.266 297.2C296.874 285.537 303.988 276.174 314.023 269.562C318.667 266.505 323.666 264.325 329.057 263.601C337.31 262.483 344.942 264.172 351.346 270.406C353.388 272.393 355.029 274.734 356.42 277.292C356.826 278.04 356.826 278.707 356.479 279.464C354.793 283.188 352.493 286.253 349.002 288.159C340.431 292.84 331.483 296.46 322.283 299.364C314.008 301.978 305.585 303.901 297.088 305.437C295.343 305.751 293.59 306.016 291.837 306.25C291.157 306.338 290.447 306.547 289.7 306.185H289.693Z" fill="#C20000"/>
<path d="M221.649 6.44675C220.008 7.31549 218.299 8.07965 216.902 9.40688C213.219 12.914 212.605 17.3542 213.862 22.2046C215.001 26.6046 217.242 30.3449 220.067 33.7153C223.742 38.0911 227.876 41.8637 232.52 44.9525C233.829 45.8212 235.175 46.6095 236.492 47.4622C236.98 47.7759 237.66 47.8563 237.756 48.6607C236.669 48.6366 235.7 48.1057 234.687 47.7759C225.524 44.8077 216.31 42.0889 206.94 39.9975C205.558 39.6919 205.535 39.6677 205.543 38.3485C205.624 26.5885 205.72 14.8284 205.816 3.07639C205.816 2.89139 205.868 2.70638 205.927 2.29614C207.532 2.6742 209.115 3.01204 210.69 3.41423C214.358 4.35536 218.055 5.13561 221.635 6.44675H221.649Z" fill="#AACFDB"/>
<path d="M78.1668 35.1229C77.9819 37.8578 76.7765 40.4559 74.1217 42.0486C70.5054 44.2204 66.3789 42.1853 65.4101 37.8256C64.6706 34.4874 65.9648 30.7631 68.6048 28.905C70.6163 27.4812 72.7757 27.1675 74.9647 28.4063C76.9614 29.5324 78.1742 31.9697 78.1594 35.1229H78.1668ZM75.3492 32.4282C75.4084 31.2216 73.8702 29.9507 72.4651 30.0392C71.2523 30.1196 70.6459 31.1894 71.2893 32.2512C71.8957 33.2567 72.8867 33.7313 73.9664 33.852C74.6763 33.9324 75.3123 33.1924 75.3419 32.4282H75.3492Z" fill="#D0E6EC"/>
<path d="M44.0122 35.025C46.6892 35.0411 48.9078 37.1405 49.4994 40.0282C50.2167 43.5273 49.2775 46.3909 46.8002 48.603C42.9621 52.0296 37.852 49.9302 36.935 44.6293C36.0845 39.7306 39.5751 34.9928 44.0122 35.0169V35.025ZM44.2858 36.6257C43.7459 36.5774 43.1322 36.7464 42.8437 37.3416C42.5627 37.9208 42.6663 38.5643 43.0878 39.1273C43.7164 39.9558 44.5594 40.4063 45.4468 40.7281C46.1272 40.9694 46.741 40.5591 47.1329 39.98C47.5249 39.3928 47.3104 38.7975 46.8963 38.2425C46.2307 37.3496 45.3729 36.8831 44.2858 36.6337V36.6257Z" fill="#D0E6EC"/>
<path d="M63.7493 37.6507C63.7789 41.8335 61.124 45.3084 57.4634 45.8956C55.3558 46.2334 53.5957 45.4773 52.3089 43.6835C50.6524 41.383 50.4158 38.7366 51.3328 36.05C52.272 33.307 54.032 31.3845 56.7756 30.8617C60.6359 30.1297 63.7197 33.1703 63.7493 37.6426V37.6507ZM58.972 36.983C60.17 37.0072 60.8504 36.7819 61.2867 35.9373C61.6417 35.2536 61.3902 34.6825 61.0722 34.1436C60.4067 33.0416 58.4026 32.3578 57.2711 32.8083C56.5612 33.0898 56.1692 34.0631 56.4576 34.8434C56.9013 36.066 58.1363 36.975 58.972 36.9911V36.983Z" fill="#D0E6EC"/>
<path d="M63.7636 20.845C63.8005 24.7704 61.3823 28.2292 58.0323 29.0578C55.2369 29.7495 52.2641 28.0764 51.3471 25.1324C50.2969 21.7459 50.8442 18.6491 53.2254 16.1072C55.1482 14.0641 57.4555 13.3482 60.0364 14.4019C62.2697 15.3109 63.734 17.9412 63.7562 20.837L63.7636 20.845ZM59.9107 20.7807C60.9386 20.7807 61.6338 19.9843 61.4932 18.9628C61.3158 17.6194 59.5187 15.8418 58.2689 15.7855C57.2336 15.7372 56.5015 16.4853 56.5828 17.5068C56.7012 18.9065 58.6017 20.7807 59.9107 20.7887V20.7807Z" fill="#D0E6EC"/>
<path d="M36.807 26.3809C36.8514 22.0051 40.194 18.1279 43.7881 18.2486C45.9918 18.321 48.0699 19.4069 49.0313 21.7316C51.1537 26.8233 48.3361 31.7703 44.7051 33.0894C40.6081 34.5775 36.7626 31.2957 36.807 26.3809ZM47.6927 23.2358C47.6853 21.8683 46.5465 20.5491 44.9639 20.1067C44.3131 19.9217 43.6771 19.9217 43.1595 20.5089C42.5827 21.1605 42.664 21.8844 42.8785 22.6566C43.226 23.8873 45.2301 24.933 46.1397 24.9491C47.0198 24.9652 47.7001 24.1608 47.6927 23.2358Z" fill="#D0E6EC"/>
<path d="M78.1584 18.2866C78.0031 20.8606 76.9234 23.33 74.5643 24.9871C70.8075 27.6254 66.3261 25.5903 65.3721 20.8364C64.7139 17.5626 66.0303 13.9268 68.6112 12.1009C70.6301 10.6771 72.7821 10.3634 74.9784 11.6102C76.9382 12.7283 78.1731 15.2138 78.1584 18.2785V18.2866ZM74.3424 18.0935C76.1099 18.1418 76.7459 17.0237 76.0211 15.2379C75.4591 13.8544 74.483 13.0179 73.2332 12.5031C71.7172 11.8917 70.5191 12.9857 70.7558 14.7231C70.985 16.3802 72.7599 18.0452 74.3424 18.0855V18.0935Z" fill="#D0E6EC"/>
<path d="M299.993 38.1122C300.836 38.0398 301.28 38.5465 301.827 38.7396C302.515 38.9889 302.641 39.5359 302.641 40.2438C302.626 47.1776 302.655 54.1033 302.611 61.0371C302.604 62.501 302.411 63.9811 302.012 65.3968C301.761 66.3058 301.428 67.1825 300.274 67.7536C300.178 57.7471 300.089 47.9819 299.993 38.1041V38.1122Z" fill="#DBF505"/>
<path d="M222.026 46.9425C222.374 46.9425 222.5 46.9184 222.603 46.9425C225.931 47.9399 226.138 48.2134 225.998 51.8975C225.901 54.4554 225.746 57.0214 225.613 59.6437C224.408 59.6919 223.409 59.0404 222.33 58.7991C221.849 58.6945 221.723 58.3164 221.738 57.7856C221.849 54.198 221.93 50.6105 222.026 46.9344V46.9425Z" fill="#DBF505"/>
<path d="M284.251 83.5024C284.088 83.5024 283.962 83.5426 283.866 83.5024C282.794 82.9796 281.478 82.698 280.738 81.8293C279.947 80.9043 280.531 79.392 280.546 78.1372C280.561 76.7939 280.657 75.4506 280.679 74.1153C280.701 72.772 280.679 71.4367 280.679 69.9325C282.232 70.4151 283.304 71.3723 284.369 72.3376C284.754 72.6835 284.694 73.1178 284.687 73.5603C284.65 76.8824 284.51 80.1964 284.243 83.5024H284.251Z" fill="#DBF505"/>
<path d="M237.766 48.6534C238.084 48.5247 238.35 48.581 238.527 48.9188C238.232 48.9752 237.951 48.9671 237.766 48.6534Z" fill="#AACFDB"/>
<path d="M150.593 92.5328C155.918 93.4417 161.265 94.2461 166.574 95.2999C171.825 96.3375 177.053 97.5682 182.267 98.8311C195.497 102.024 208.424 106.344 221.225 111.154C223.673 112.071 226.083 113.109 228.502 114.114C229.004 114.323 229.47 114.629 229.973 114.147C230.062 114.879 230.469 115.088 231.082 114.919C232.465 116.069 234.174 116.447 235.727 117.179C240.105 119.238 244.497 121.257 248.846 123.413C253.305 125.617 257.698 127.974 262.039 130.435C268.369 134.015 274.559 137.852 280.608 141.962C286.458 145.936 292.174 150.118 297.676 154.631C301.248 157.559 304.761 160.559 308.155 163.737C309.442 164.943 310.603 166.327 312.038 167.364C312.548 167.734 313.132 168.201 312.999 169.062C312.097 168.804 311.549 167.976 310.854 167.405C299.88 158.267 288.04 150.649 275.727 143.893C256.256 133.21 235.897 124.99 214.946 118.506C194.299 112.119 173.311 107.559 151.939 105.178C144.3 104.325 136.646 103.746 128.977 103.472C123.253 103.271 117.522 103.312 111.783 103.617C104.226 104.011 96.7195 104.711 89.243 105.982C81.4632 107.309 73.8314 109.24 66.4436 112.224C60.0912 114.782 54.0863 118.04 48.7765 122.689C47.1126 124.145 45.6853 125.866 44.1397 127.451C41.618 130.033 38.5416 129.671 36.5079 126.647C36.0198 125.915 35.6057 125.126 35.3395 124.274C33.9344 119.713 34.0157 115.313 36.5301 111.17C37.2179 110.036 38.0017 108.998 38.8522 108.009C41.9877 104.381 45.8185 101.888 49.9524 99.8848C51.7864 98.992 53.6795 98.26 55.5653 97.52C56.1865 97.2786 56.8447 97.0212 56.5563 96.0399C58.7674 95.1872 61.0895 94.8011 63.3746 94.2944C66.4066 93.6348 69.4682 93.1119 72.5151 92.5328C72.8922 94.5357 73.262 96.5386 73.6391 98.5335C73.7427 99.0965 73.8536 99.6596 73.9941 100.215C74.0902 100.601 74.3047 100.955 74.7262 100.882C75.2291 100.794 75.3474 100.351 75.303 99.8688C75.2735 99.555 75.1773 99.2494 75.1256 98.9357C74.7484 96.6754 74.3712 94.415 73.9941 92.1547C75.4805 92.3237 76.9226 91.8652 78.3794 91.6882C81.6481 91.278 84.9094 90.8999 88.1854 90.5781C92.6447 90.1438 97.1188 90.0633 101.578 89.7496C105.298 89.4842 109.003 89.5646 112.715 89.4922C116.842 89.4118 120.961 89.8703 125.087 89.9346C128.423 89.9909 131.78 90.369 135.108 90.6988C139.02 91.0849 142.947 91.3825 146.829 92.1065C147.576 92.2432 148.36 92.1467 149.129 92.1547C149.092 92.8545 149.048 93.5624 149.018 94.2622C148.989 94.8977 148.952 95.5412 148.966 96.1847C148.981 96.6512 149.122 97.1258 149.654 97.1258C150.172 97.1258 150.305 96.6432 150.372 96.1927C150.431 95.8147 150.423 95.4286 150.445 95.0425C150.497 94.2139 150.549 93.3774 150.601 92.5489L150.593 92.5328Z" fill="#C20000"/>
<path d="M56.5338 96.0243C56.8222 97.0056 56.1641 97.263 55.5429 97.5043C53.6571 98.2444 51.7639 98.9764 49.9299 99.8692C45.7886 101.872 41.9579 104.366 38.8297 107.993C37.9793 108.983 37.1954 110.021 36.5077 111.155C33.9933 115.297 33.912 119.697 35.317 124.258C35.5833 125.111 35.99 125.899 36.4855 126.631C38.5118 129.664 41.5881 130.017 44.1173 127.435C45.6629 125.851 47.0902 124.129 48.7541 122.673C54.0638 118.032 60.0761 114.774 66.4212 112.208C73.809 109.224 81.4408 107.294 89.2205 105.966C96.697 104.687 104.211 103.996 111.761 103.602C117.492 103.304 123.224 103.256 128.955 103.457C136.624 103.73 144.278 104.309 151.917 105.162C173.296 107.543 194.276 112.104 214.924 118.491C235.874 124.974 256.233 133.195 275.705 143.877C288.018 150.634 299.857 158.243 310.832 167.389C311.527 167.968 312.074 168.789 312.976 169.046C316.068 171.934 319.181 174.789 322.102 177.886C327.456 183.557 332.389 189.606 336.212 196.636C338.971 201.704 341.056 207.053 341.914 212.925C342.328 215.781 344.051 216.875 346.662 216.151C347.763 215.845 348.769 215.314 349.679 214.582C354.648 210.584 356.726 205.283 355.824 198.607C355.735 197.931 355.144 196.894 356.26 196.741C357.163 196.62 357.015 197.722 357.111 198.35C358.08 204.833 356.342 210.407 352.267 215.169C348.562 219.497 343.918 222.28 338.963 224.5C332.596 227.356 325.933 229.061 319.159 230.276C305.862 232.665 292.47 233.002 279.04 232.616C268.347 232.303 257.69 231.345 247.071 229.978C218.377 226.294 190.246 219.69 162.566 210.753C141.645 203.996 121.19 195.888 101.378 185.906C89.0874 179.712 77.1516 172.803 65.8517 164.638C58.5971 159.402 51.6974 153.674 45.5594 146.926C41.9283 142.936 38.6227 138.657 36.1379 133.71C34.1042 129.664 32.7065 125.441 32.6696 120.719C32.6326 115.691 34.2595 111.436 37.2176 107.696C39.7246 104.535 42.8157 102.194 46.1732 100.223C48.7763 98.6948 51.4903 97.4239 54.2857 96.3782C55.0252 96.0967 55.7573 95.9277 56.5412 96.0243H56.5338ZM264.671 211.276C261.965 217.044 259.258 222.803 256.551 228.57C256.426 228.844 256.226 229.117 256.514 229.503C260.552 230.107 264.679 230.356 268.79 230.621C275.801 231.08 282.819 231.281 289.844 231.241C291.286 231.233 292.026 230.782 292.625 229.318C297.158 218.242 301.78 207.206 306.373 196.154C306.491 195.88 306.683 195.599 306.387 195.124C304.295 194.537 302.18 193.564 299.88 193.266C298.667 192.639 297.373 192.269 296.086 191.874C289.977 189.984 283.862 188.11 277.761 186.171C276.881 185.89 276.407 185.93 275.956 186.919C272.222 195.052 268.435 203.16 264.664 211.268L264.671 211.276ZM104.107 167.807C104.351 167.445 104.61 167.107 104.832 166.729C110.223 157.584 115.607 148.446 120.983 139.292C121.256 138.825 121.685 138.431 121.648 137.691C119.06 136.887 116.45 136.074 113.846 135.262C107.945 133.42 102.044 131.586 96.1424 129.744C95.2772 129.47 94.5598 129.237 93.8203 130.267C90.0709 135.479 86.2402 140.619 82.4391 145.791C80.2501 148.727 78.0686 151.679 75.8648 154.599C74.5337 156.361 74.334 158.275 75.0661 160.375C75.7909 162.45 76.9297 164.244 78.2756 165.877C83.2304 171.869 89.3092 176.294 95.5878 180.436C96.2459 180.87 96.6305 180.685 97.015 180.018C99.3667 175.94 101.741 171.877 104.1 167.807H104.107ZM105.29 168.925C102.828 172.618 100.727 176.575 98.4349 180.388C98.1909 180.79 97.7841 181.152 97.8951 181.804C98.3166 182.085 98.7603 182.407 99.2188 182.68C108.352 188.142 118.054 192.196 127.727 196.339C128.518 196.677 128.881 196.427 129.265 195.695C131.425 191.569 133.629 187.458 135.81 183.34C136.032 182.962 136.261 182.592 136.468 182.206C142.266 171.387 148.064 160.56 153.862 149.741C154.808 147.971 154.808 147.963 153.026 147.416C143.664 144.512 134.302 141.617 124.939 138.721C123.805 138.372 122.92 138.737 122.284 139.815C116.938 148.904 111.591 157.994 106.244 167.091C105.897 167.687 105.608 168.314 105.29 168.933V168.925ZM220.344 207.037C218.444 211.099 216.543 215.153 214.65 219.215C214.251 220.076 213.851 220.937 213.452 221.797C213.156 222.425 213.386 222.763 213.977 222.891C214.732 223.052 215.486 223.197 216.24 223.35C224.952 225.103 233.693 226.632 242.478 227.871C246.05 228.377 249.637 228.715 253.209 229.222C254.355 229.383 254.924 228.956 255.375 227.862C256.152 225.988 257.076 224.186 257.912 222.352C259.517 218.845 261.299 215.443 262.726 211.839C262.859 211.63 263.015 211.437 263.118 211.212C267.001 202.911 270.876 194.609 274.751 186.308C274.884 186.027 275.076 185.761 274.921 185.407C274.825 185.343 274.736 185.254 274.625 185.222C262.09 181.329 249.541 177.452 237.021 173.518C236.096 173.229 235.778 173.518 235.408 174.323C233.042 179.495 230.631 184.651 228.25 189.815C225.602 195.55 222.977 201.302 220.337 207.045L220.344 207.037ZM137.4 183.557C135.426 187.193 133.458 190.837 131.484 194.473C131.218 194.971 130.937 195.462 130.685 195.969C130.057 197.224 130.064 197.256 131.21 197.762C131.595 197.931 131.987 198.076 132.371 198.229C137.962 200.457 143.582 202.589 149.232 204.616C154.831 206.619 160.458 208.509 166.116 210.295C166.729 210.488 167.291 210.858 167.757 209.925C169.954 205.533 172.202 201.173 174.428 196.797C174.627 196.484 174.849 196.178 175.019 195.848C181.039 184.217 187.051 172.585 193.056 160.946C193.189 160.697 193.433 160.439 193.241 160.013C193.078 159.932 192.879 159.804 192.657 159.731C180.869 156.071 169.066 152.436 157.293 148.735C156.31 148.43 155.932 148.751 155.496 149.58C152.997 154.31 150.453 159.015 147.938 163.729C144.418 170.333 140.905 176.945 137.393 183.549L137.4 183.557ZM176.062 197.063C173.962 201.068 171.854 205.082 169.754 209.088C168.689 211.115 168.682 211.147 170.73 211.775C179.582 214.502 188.516 216.899 197.486 219.103C201.686 220.132 205.902 221.082 210.117 222.047C210.834 222.208 211.574 222.586 212.069 221.468C214.177 216.73 216.514 212.121 218.503 207.319C218.718 206.932 218.954 206.562 219.139 206.168C224.064 195.567 228.982 184.965 233.892 174.363C234.099 173.913 234.27 173.438 234.44 173.004C234.07 172.513 233.582 172.489 233.131 172.352C220.884 168.539 208.638 164.718 196.391 160.906C194.898 160.439 194.89 160.447 194.121 161.943C189.898 170.116 185.668 178.28 181.453 186.461C179.634 189.984 177.859 193.531 176.062 197.071V197.063ZM65.7334 114.034C60.224 116.263 55.0622 119.182 50.3958 123.084C46.1732 126.615 42.6974 130.838 40.4641 136.171C40.0795 137.088 40.013 137.804 40.6711 138.6C41.5734 139.702 42.3646 140.909 43.2595 142.019C49.9595 150.36 57.9537 157.029 66.3398 163.198C67.035 163.713 67.4269 163.657 67.9446 162.949C69.8747 160.27 71.864 157.64 73.8163 154.985C77.3882 150.127 80.9527 145.26 84.5246 140.394C87.3939 136.557 90.3076 132.76 93.1178 128.867C93.8647 127.83 94.5155 127.669 95.6543 128.023C116.967 134.691 138.302 141.311 159.63 147.939C189.691 157.278 219.76 166.609 249.822 175.956C268.768 181.844 287.707 187.74 306.654 193.636C308.591 194.239 308.569 194.239 307.844 196.218C307.016 198.486 305.848 200.586 305.145 202.911C305.071 202.999 304.96 203.079 304.916 203.192C301.248 212.032 297.58 220.872 293.926 229.721C293.764 230.107 293.438 230.477 293.616 230.975C293.875 231.193 294.171 231.12 294.452 231.12C304.154 230.887 313.797 229.946 323.322 227.895C328.773 226.72 334.112 225.103 339.244 222.747C340.235 222.296 340.731 221.773 340.812 220.559C340.93 218.821 340.967 217.1 340.834 215.362C340.376 209.555 338.564 204.23 336.02 199.162C332.648 192.446 328.218 186.614 323.293 181.192C321.718 179.463 320.172 177.685 318.353 176.237C317.939 175.513 317.288 175.047 316.711 174.508C309.279 167.502 301.255 161.38 292.854 155.838C275.224 144.199 256.492 135.125 237.08 127.661C218.969 120.695 200.466 115.281 181.594 111.364C172.771 109.538 163.912 108.034 154.993 106.924C148.367 106.103 141.711 105.508 135.041 105.17C126.174 104.728 117.322 104.687 108.463 105.178C100.779 105.604 93.1547 106.505 85.6043 108.034C78.8229 109.401 72.145 111.219 65.726 114.042L65.7334 114.034Z" fill="#0B0504"/>
<path d="M15.7661 107.724C15.7365 109.405 15.5442 111.046 15.1597 112.663C15.0413 113.154 14.886 113.652 14.6568 114.087C13.9764 115.35 13.0372 115.495 12.0389 114.521C11.3216 113.821 10.8852 112.904 10.4785 111.979C9.4284 109.59 8.85157 107.04 8.45963 104.45C7.94197 101.032 7.70532 97.589 8.30433 94.1462C8.44484 93.3177 8.67409 92.5214 9.09562 91.8215C9.72421 90.7839 10.5968 90.6311 11.4917 91.4193C12.3421 92.1594 12.8302 93.197 13.2591 94.2588C14.4054 97.0902 15.0118 100.083 15.3667 103.139C15.5442 104.659 15.633 106.196 15.7661 107.716V107.724Z" fill="white"/>
<path d="M73.9641 92.1504C74.3413 94.4108 74.7184 96.6711 75.0956 98.9314C75.1474 99.2451 75.2435 99.5508 75.2731 99.8645C75.3174 100.347 75.1991 100.79 74.6962 100.878C74.2747 100.95 74.0603 100.596 73.9641 100.21C73.8236 99.6553 73.7127 99.0923 73.6092 98.5292C73.232 96.5263 72.8548 94.5314 72.4851 92.5285C72.0414 88.7077 71.2353 84.9512 70.5845 81.1706C69.1499 72.8453 67.656 64.536 66.1844 56.2107C66.1474 56.0257 66.1252 55.8326 66.1104 55.6396C66.0661 55.0363 65.7259 54.1997 66.5689 54.0791C67.3676 53.9664 67.3602 54.8834 67.4638 55.4706C68.5656 61.7126 69.6306 67.9546 70.7324 74.1966C71.7899 80.1812 72.877 86.1658 73.9493 92.1504H73.9641Z" fill="#0B0504"/>
<path d="M373.989 210.792C374.004 210.664 374.004 210.342 374.071 210.028C374.84 206.432 376.378 203.311 378.907 200.826C379.698 200.054 380.66 199.185 381.739 199.973C382.738 200.705 382.597 201.976 382.368 203.151C381.717 206.505 380.283 209.409 378.079 211.854C377.79 212.176 377.487 212.489 377.154 212.747C376.467 213.27 375.727 213.785 374.862 213.326C373.967 212.851 373.975 211.902 373.989 210.784V210.792Z" fill="white"/>
<path d="M150.586 92.5367C150.534 93.3652 150.482 94.2017 150.431 95.0303C150.408 95.4164 150.416 95.8025 150.357 96.1805C150.29 96.631 150.157 97.1136 149.639 97.1136C149.114 97.1136 148.966 96.6471 148.952 96.1725C148.937 95.537 148.974 94.8935 149.003 94.25C149.033 93.5502 149.077 92.8423 149.114 92.1425C149.61 80.7766 150.105 69.4187 150.608 58.0528C150.667 56.7658 150.726 55.4868 150.815 54.1998C150.852 53.6448 150.837 52.8967 151.584 52.9691C152.198 53.0254 152.154 53.685 152.139 54.1998C152.058 56.5727 151.976 58.9537 151.873 61.3266C151.547 68.7752 151.2 76.2158 150.897 83.6643C150.778 86.6164 150.423 89.5604 150.586 92.5206V92.5367Z" fill="#0B0504"/>
<path d="M336.616 184.279C336.217 184.319 336.017 184.182 335.891 183.957C335.714 183.651 335.751 183.305 336.002 183.088C336.32 182.815 336.69 182.597 337.052 182.388C347.716 176.162 358.373 169.937 369.044 163.735C369.562 163.429 370.294 162.657 370.723 163.534C371.226 164.539 370.146 164.748 369.591 165.078C358.883 171.336 348.16 177.578 337.437 183.82C337.126 183.997 336.816 184.174 336.616 184.279Z" fill="#0B0504"/>
<path d="M323.351 117.195C323.351 117.855 322.878 118.201 322.53 118.619C320.541 120.992 318.544 123.357 316.54 125.714C310.742 132.567 304.937 139.412 299.132 146.258C298.814 146.636 298.488 147.014 298.126 147.328C297.882 147.537 297.564 147.521 297.32 147.271C297.076 147.014 297.061 146.692 297.239 146.402C297.438 146.089 297.682 145.807 297.919 145.518C305.758 136.259 313.597 126.993 321.436 117.734C321.754 117.356 322.072 116.962 322.464 116.689C322.922 116.375 323.24 116.616 323.344 117.187L323.351 117.195Z" fill="#0B0504"/>
<path d="M231.078 114.917C230.456 115.086 230.057 114.877 229.968 114.145C234.028 102.305 238.088 90.4641 242.148 78.6236C242.333 78.0847 242.525 77.5458 242.755 77.0229C242.895 76.7092 243.183 76.5966 243.501 76.677C243.856 76.7736 243.96 77.0792 243.916 77.409C243.864 77.7871 243.753 78.1571 243.627 78.511C239.567 90.3515 235.507 102.192 231.44 114.033C231.336 114.33 231.196 114.62 231.078 114.909V114.917Z" fill="#0B0504"/>
<path d="M18.9594 124.808C18.9373 125.532 18.9964 126.223 18.3456 126.561C17.7023 126.891 17.1846 126.521 16.7779 126.038C15.4763 124.486 14.5963 122.724 14.6111 120.553C14.6111 119.981 14.5815 119.37 15.1879 119.072C15.8461 118.743 16.3415 119.137 16.7557 119.587C18.0942 121.051 18.7376 122.869 18.9594 124.808Z" fill="white"/>
<path d="M288.433 38.9155C287.834 39.012 287.22 38.7385 286.606 38.5455C280.453 36.6632 274.633 33.9364 269.249 30.1558C268.621 29.7134 267.704 29.3192 268.177 28.2896C268.599 27.3726 269.538 27.6542 270.255 27.8472C276.696 29.5686 282.797 32.1989 288.403 36.1002C288.906 36.4541 289.35 36.8563 289.764 37.3148C290 37.5883 290.326 37.8457 290.207 38.2881C290.067 38.8029 289.653 38.8994 289.216 38.9075C288.98 38.9155 288.743 38.9075 288.44 38.9075L288.433 38.9155Z" fill="white"/>
<path d="M293.28 38.2622C294.109 38.6081 295.107 38.6644 295.639 39.6779C296.098 40.5466 295.617 41.6486 294.73 41.5441C293.731 41.4234 292.792 40.989 292.26 39.9514C291.823 39.1068 292.356 38.2461 293.28 38.2622Z" fill="white"/>
<path d="M75.3523 32.4278C75.3153 33.192 74.6867 33.932 73.9768 33.8516C72.9045 33.7309 71.9135 33.2563 71.2997 32.2508C70.6563 31.1891 71.2627 30.1192 72.4755 30.0388C73.8806 29.9503 75.4114 31.2212 75.3597 32.4278H75.3523Z" fill="white"/>
<path d="M44.2963 36.6199C45.3834 36.8693 46.2486 37.3358 46.9068 38.2287C47.3209 38.7837 47.5354 39.379 47.1434 39.9662C46.7515 40.5453 46.1377 40.9556 45.4573 40.7143C44.5699 40.4005 43.7268 39.942 43.0982 39.1135C42.6767 38.5585 42.5732 37.907 42.8542 37.3278C43.1426 36.7245 43.7564 36.5636 44.2963 36.6119V36.6199Z" fill="white"/>
<path d="M58.9746 36.987C58.1463 36.979 56.9113 36.062 56.4602 34.8393C56.1718 34.059 56.5638 33.0857 57.2737 32.8042C58.4052 32.3538 60.4092 33.0375 61.0748 34.1395C61.4002 34.6784 61.6442 35.2495 61.2893 35.9333C60.853 36.7779 60.1726 37.0031 58.9746 36.979V36.987Z" fill="white"/>
<path d="M59.9 20.7799C58.5984 20.7799 56.6905 18.9057 56.5721 17.498C56.4908 16.4764 57.2155 15.7284 58.2582 15.7766C59.508 15.8329 61.3051 17.6106 61.4825 18.9539C61.6157 19.9835 60.9279 20.7799 59.9 20.7718V20.7799Z" fill="white"/>
<path d="M47.6921 23.2369C47.6921 24.17 47.0192 24.9664 46.1392 24.9503C45.2296 24.9342 43.2255 23.8885 42.8779 22.6578C42.6634 21.8856 42.5821 21.1616 43.1589 20.5101C43.6766 19.9229 44.3125 19.9229 44.9633 20.1079C46.5533 20.5503 47.6848 21.8614 47.6921 23.2369Z" fill="white"/>
<path d="M74.3441 18.0883C72.7616 18.0481 70.9867 16.383 70.7575 14.726C70.5208 12.9885 71.7188 11.8865 73.2349 12.5059C74.4846 13.0126 75.4608 13.8492 76.0228 15.2408C76.7476 17.0265 76.1116 18.1446 74.3441 18.0963V18.0883Z" fill="white"/>
<path d="M305.138 202.917C305.84 200.592 307.009 198.493 307.837 196.225C308.562 194.246 308.584 194.246 306.646 193.643C287.7 187.747 268.761 181.85 249.814 175.962C219.753 166.623 189.684 157.293 159.623 147.946C138.295 141.318 116.967 134.698 95.6469 128.029C94.508 127.675 93.8573 127.836 93.1104 128.874C90.3002 132.767 87.3939 136.564 84.5172 140.401C81.6256 138.985 79.3479 136.628 77.1146 134.319C73.5649 130.651 70.6142 126.412 68.233 121.747C67.0128 119.35 65.7926 116.905 65.7334 114.041C72.1524 111.226 78.8303 109.408 85.6116 108.032C93.1695 106.504 100.794 105.603 108.47 105.177C117.33 104.678 126.189 104.718 135.048 105.169C141.719 105.507 148.367 106.102 155.001 106.922C163.919 108.032 172.779 109.536 181.601 111.362C200.474 115.28 218.976 120.693 237.087 127.659C256.499 135.124 275.231 144.197 292.862 155.837C301.262 161.379 309.286 167.5 316.718 174.506C317.295 175.045 317.946 175.512 318.36 176.236C318.205 177.603 318.604 178.914 318.819 180.209C319.425 183.877 318.804 187.336 317.561 190.691C315.883 195.195 312.806 198.429 309.094 200.938C307.874 201.759 306.75 202.941 305.145 202.909L305.138 202.917Z" fill="#D0E6EC"/>
<path d="M176.074 197.062C177.871 193.523 179.646 189.976 181.465 186.452C185.681 178.272 189.911 170.107 194.133 161.935C194.902 160.439 194.917 160.431 196.404 160.897C208.65 164.71 220.896 168.531 233.143 172.343C233.594 172.48 234.082 172.512 234.452 172.995C234.274 173.429 234.112 173.904 233.905 174.354C228.994 184.956 224.076 195.566 219.151 206.16C218.966 206.562 218.73 206.932 218.515 207.31C214.906 206.393 211.231 205.862 207.607 205.082C199.192 203.264 190.783 201.374 182.479 199.009C180.334 198.397 178.093 198.124 176.067 197.046L176.074 197.062Z" fill="#DBF505"/>
<path d="M137.404 183.558C140.917 176.946 144.43 170.342 147.95 163.738C150.464 159.017 153.008 154.319 155.508 149.589C155.944 148.761 156.321 148.439 157.305 148.745C169.085 152.453 180.881 156.081 192.668 159.74C192.89 159.805 193.09 159.942 193.253 160.022C193.445 160.448 193.201 160.706 193.068 160.955C187.063 172.595 181.043 184.226 175.031 195.857C174.861 196.187 174.639 196.493 174.439 196.806C167.991 195.013 161.609 192.978 155.278 190.757C149.784 188.827 144.274 186.913 138.869 184.7C138.314 184.475 137.508 184.515 137.404 183.558Z" fill="#DBF505"/>
<path d="M220.347 207.037C222.987 201.294 225.613 195.55 228.26 189.807C230.641 184.643 233.052 179.487 235.419 174.315C235.788 173.51 236.106 173.221 237.031 173.51C249.558 177.452 262.1 181.321 274.635 185.214C274.746 185.246 274.835 185.335 274.931 185.399C275.086 185.753 274.894 186.018 274.761 186.3C270.886 194.601 267.011 202.902 263.128 211.204C263.025 211.429 262.869 211.622 262.736 211.831C258.551 211.936 254.387 211.525 250.216 211.34C247.879 211.236 245.55 210.866 243.213 210.624C240.469 210.335 237.718 210.11 234.982 209.748C231.669 209.313 228.356 208.847 225.058 208.252C223.475 207.962 221.767 208.131 220.347 207.029V207.037Z" fill="#DBF505"/>
<path d="M305.15 202.916C306.755 202.957 307.887 201.774 309.099 200.946C312.819 198.428 315.888 195.194 317.567 190.698C318.817 187.344 319.431 183.885 318.824 180.217C318.61 178.914 318.203 177.603 318.366 176.243C320.185 177.691 321.73 179.461 323.306 181.198C328.231 186.612 332.66 192.451 336.033 199.168C338.577 204.236 340.388 209.561 340.847 215.368C340.987 217.106 340.943 218.827 340.825 220.565C340.743 221.779 340.241 222.302 339.257 222.753C334.117 225.109 328.778 226.726 323.335 227.901C313.81 229.952 304.167 230.893 294.464 231.126C294.183 231.126 293.88 231.199 293.621 230.981C293.444 230.483 293.769 230.113 293.932 229.727C297.585 220.878 301.253 212.038 304.921 203.198C304.966 203.093 305.069 203.013 305.15 202.916Z" fill="#AACFDB"/>
<path d="M105.292 168.928C105.609 168.317 105.898 167.681 106.245 167.086C111.585 157.988 116.939 148.899 122.286 139.809C122.922 138.731 123.807 138.367 124.941 138.715C134.303 141.611 143.665 144.515 153.027 147.411C154.81 147.966 154.81 147.966 153.863 149.735C148.065 160.562 142.267 171.381 136.47 182.2C136.263 182.586 136.033 182.956 135.811 183.334C135.309 183.173 134.791 183.045 134.295 182.844C131.108 181.533 127.943 180.165 124.8 178.709C118.632 175.838 112.465 172.982 106.623 169.37C106.216 169.121 105.794 168.872 105.292 168.92V168.928Z" fill="#DBF505"/>
<path d="M65.7359 114.039C65.8025 116.903 67.0153 119.348 68.2355 121.745C70.6167 126.41 73.56 130.658 77.1171 134.318C79.3578 136.626 81.6356 138.983 84.5197 140.399C80.9552 145.265 77.3907 150.132 73.8115 154.99C71.8591 157.645 69.8698 160.275 67.9397 162.954C67.4294 163.661 67.0375 163.718 66.3349 163.203C57.9488 157.033 49.9546 150.365 43.2546 142.024C42.3598 140.913 41.5685 139.707 40.6663 138.605C40.0081 137.809 40.0747 137.093 40.4592 136.176C42.6925 130.843 46.1683 126.62 50.3909 123.088C55.0573 119.187 60.2191 116.267 65.7285 114.039H65.7359Z" fill="#AACFDB"/>
<path d="M82.4371 145.785C86.2382 140.621 90.069 135.473 93.8183 130.26C94.5578 129.231 95.2752 129.472 96.1404 129.737C102.042 131.579 107.943 133.421 113.844 135.255C116.455 136.068 119.058 136.88 121.646 137.685C121.683 138.425 121.254 138.827 120.981 139.285C115.605 148.439 110.221 157.577 104.83 166.723C104.608 167.093 104.349 167.439 104.105 167.801C102.567 167.157 101.184 166.184 99.801 165.235C94.543 161.607 89.2925 157.963 85.336 152.582C83.8644 150.587 82.4223 148.544 82.4371 145.785Z" fill="#DBF505"/>
<path d="M299.886 193.275C302.178 193.564 304.293 194.546 306.393 195.133C306.689 195.607 306.49 195.881 306.379 196.162C301.786 207.215 297.164 218.251 292.631 229.327C292.032 230.791 291.292 231.241 289.85 231.25C282.825 231.29 275.8 231.089 268.796 230.63C264.685 230.357 260.558 230.115 256.52 229.512C256.232 229.126 256.432 228.852 256.557 228.579C259.264 222.812 261.971 217.052 264.677 211.285C265.143 212.009 265.846 211.767 266.467 211.783C270.941 211.848 275.393 211.639 279.852 211.076C282.891 210.69 285.901 210.207 288.867 209.403C292.246 208.486 295.522 207.295 298.362 204.946C301.342 202.485 302.104 198.929 300.714 195.406C300.44 194.706 299.974 194.087 299.9 193.291L299.886 193.275Z" fill="#A4BB00"/>
<path d="M220.346 207.037C221.758 208.131 223.467 207.97 225.057 208.26C228.348 208.855 231.661 209.322 234.981 209.756C237.717 210.11 240.468 210.343 243.212 210.633C245.549 210.882 247.871 211.244 250.215 211.349C254.386 211.534 258.557 211.944 262.735 211.839C261.308 215.443 259.526 218.846 257.921 222.353C257.078 224.195 256.161 225.997 255.384 227.863C254.926 228.965 254.364 229.391 253.218 229.222C249.646 228.707 246.059 228.378 242.487 227.871C233.702 226.624 224.961 225.104 216.249 223.35C215.495 223.197 214.74 223.052 213.986 222.892C213.395 222.771 213.173 222.433 213.461 221.798C213.86 220.937 214.252 220.076 214.659 219.216C216.56 215.153 218.46 211.099 220.353 207.037H220.346Z" fill="#A4BB00"/>
<path d="M176.068 197.065C178.094 198.135 180.335 198.416 182.48 199.027C190.784 201.392 199.193 203.283 207.608 205.1C211.239 205.881 214.915 206.404 218.516 207.329C216.527 212.131 214.19 216.74 212.082 221.478C211.587 222.596 210.84 222.218 210.13 222.057C205.915 221.092 201.7 220.15 197.499 219.113C188.529 216.909 179.595 214.52 170.743 211.785C168.695 211.157 168.702 211.125 169.767 209.098C171.867 205.084 173.975 201.079 176.075 197.073L176.068 197.065Z" fill="#A4BB00"/>
<path d="M299.902 193.276C299.969 194.073 300.434 194.692 300.715 195.392C302.106 198.923 301.344 202.478 298.364 204.932C295.524 207.281 292.248 208.471 288.868 209.388C285.91 210.192 282.9 210.675 279.854 211.061C275.402 211.624 270.942 211.833 266.468 211.769C265.847 211.761 265.145 211.994 264.679 211.27C268.45 203.154 272.237 195.054 275.971 186.922C276.422 185.932 276.896 185.9 277.776 186.174C283.877 188.112 289.992 189.986 296.101 191.877C297.388 192.271 298.682 192.649 299.895 193.268L299.902 193.276Z" fill="#DBF505"/>
<path d="M137.41 183.563C137.506 184.528 138.312 184.48 138.874 184.705C144.28 186.917 149.789 188.839 155.284 190.762C161.614 192.982 168.003 195.017 174.445 196.811C172.219 201.187 169.97 205.546 167.774 209.938C167.308 210.871 166.746 210.501 166.132 210.308C160.475 208.523 154.847 206.632 149.249 204.629C143.592 202.602 137.972 200.479 132.388 198.243C132.004 198.09 131.612 197.945 131.227 197.776C130.088 197.269 130.073 197.237 130.702 195.982C130.954 195.476 131.235 194.985 131.501 194.486C133.475 190.842 135.442 187.206 137.417 183.571L137.41 183.563Z" fill="#A4BB00"/>
<path d="M105.295 168.93C105.798 168.881 106.219 169.131 106.626 169.38C112.476 172.984 118.636 175.847 124.804 178.719C127.939 180.175 131.104 181.542 134.299 182.853C134.787 183.055 135.305 183.183 135.815 183.344C133.626 187.463 131.43 191.573 129.27 195.699C128.886 196.431 128.523 196.681 127.732 196.343C118.059 192.2 108.357 188.138 99.2236 182.685C98.7651 182.411 98.3214 182.089 97.8999 181.808C97.7889 181.148 98.2031 180.794 98.4397 180.392C100.74 176.579 102.832 172.63 105.295 168.93Z" fill="#A4BB00"/>
<path d="M82.4566 145.789C82.4418 148.548 83.8839 150.591 85.3555 152.586C89.3119 157.967 94.5625 161.611 99.8205 165.239C101.203 166.188 102.586 167.161 104.124 167.805C101.758 171.875 99.3842 175.937 97.0325 180.015C96.6479 180.683 96.2634 180.868 95.6052 180.433C89.3267 176.291 83.2479 171.867 78.2931 165.874C76.9472 164.249 75.8083 162.447 75.0836 160.372C74.3515 158.273 74.5511 156.366 75.8823 154.597C78.086 151.669 80.2676 148.725 82.4566 145.789Z" fill="#A4BB00"/>
</svg>
