<svg width="385" height="369" viewBox="0 0 385 369" fill="none" xmlns="http://www.w3.org/2000/svg">
<g clip-path="url(#clip0_432_2599)">
<path d="M113.366 345.185C102.046 337.901 95.322 327.414 90.6633 315.363C89.3096 311.855 88.2228 308.251 87.5872 304.546C86.7546 299.684 86.2335 294.777 86.3542 289.845C86.5513 281.703 86.1763 273.606 85.2102 265.521C83.5705 251.824 80.7613 238.388 76.3378 225.308C75.7213 223.484 75.0603 221.672 74.3612 219.874C73.7256 218.253 73.249 216.601 73.2108 214.853C73.1981 214.096 72.982 213.823 72.1939 213.721C65.3044 212.787 58.4404 211.694 51.6144 210.391C40.4985 208.262 29.4651 205.796 18.8194 201.868C14.2879 200.196 9.87708 198.264 5.91753 195.442C4.67183 194.552 3.51511 193.561 2.51092 192.41C-0.463508 188.978 -0.501641 185.298 2.40288 181.809C3.51511 180.468 4.84979 179.381 6.27345 178.389C8.15471 177.08 10.1313 175.923 12.2287 175.034C13.1947 174.627 13.5888 174.023 13.7667 173.057C14.9806 166.466 16.5886 159.964 18.6351 153.583C32.6048 110.135 59.1713 76.506 97.8071 52.3921C116.537 40.6974 136.862 32.8925 158.478 28.4434C159.654 28.2019 160.829 27.9858 162.031 27.7506C161.935 27.1786 161.503 27.0261 161.23 26.7655C160.308 25.882 159.457 24.9477 158.77 23.8673C156.552 20.397 156.527 16.8949 158.681 13.3992C160.01 11.2446 161.872 9.59848 163.95 8.18749C168.03 5.41636 172.575 3.69394 177.316 2.47363C185.101 0.465195 193.014 -0.164029 201.029 0.280877C207.295 0.62409 213.435 1.63466 219.365 3.71936C222.975 4.99052 226.388 6.64303 229.343 9.13451C230.557 10.1578 231.625 11.3018 232.464 12.6556C234.497 15.9289 234.574 19.2529 232.673 22.6024C231.809 24.1215 230.633 25.3799 229.337 26.5367C228.968 26.8608 228.498 27.096 228.231 27.6553C230.837 28.2019 233.398 28.7104 235.946 29.2887C283.054 39.8902 324.048 68.8345 349.076 110.071C359.9 127.905 367.292 147.074 371.207 167.572C371.607 169.663 372.001 171.76 372.306 173.87C372.414 174.627 372.719 175.021 373.38 175.345C375.529 176.387 377.581 177.601 379.475 179.07C380.766 180.074 381.948 181.186 382.869 182.546C384.808 185.4 384.795 188.368 382.825 191.203C381.255 193.465 379.081 195.048 376.781 196.472C371.779 199.554 366.319 201.594 360.758 203.393C351.333 206.444 341.685 208.599 331.961 210.423C324.931 211.745 317.87 212.889 310.771 213.823C310.136 213.906 309.665 214.045 309.405 214.77C307.727 219.461 304.562 223.039 300.825 226.204C293.427 232.477 285.838 238.534 278.796 245.227C266.968 256.477 256.609 268.96 247.355 282.389C245.524 285.052 244.609 288.014 244.005 291.129C243.618 293.137 243.649 295.171 243.503 297.192C242.544 310.393 239.391 323.022 233.684 334.984C231.275 340.043 229.464 342.49 225.345 346.602C226.089 346.945 226.807 347.276 227.519 347.606C229.184 348.382 230.779 349.272 232.108 350.562C234.453 352.837 234.44 355.316 232.063 357.572C230.722 358.843 229.108 359.708 227.436 360.458C223.197 362.358 218.723 363.477 214.198 364.386C207.073 365.822 199.866 366.604 192.633 367.227C183.557 368.002 174.469 368.142 165.38 367.958C154.41 367.741 143.472 366.966 132.623 365.244C125.905 364.182 119.238 362.854 112.851 360.432C111.097 359.765 109.387 358.99 107.792 357.992C106.927 357.451 106.108 356.848 105.408 356.104C103.489 354.051 103.476 351.782 105.383 349.735C106.044 349.024 106.813 348.445 107.639 347.93C109.018 347.066 110.487 346.373 111.999 345.782C112.412 345.617 112.819 345.439 113.385 345.197L113.366 345.185ZM227.227 9.16629C227.188 8.98832 227.074 8.9057 226.896 8.89934C224.576 7.01167 221.856 5.89305 219.085 4.90154C213.117 2.766 206.939 1.7872 200.622 1.45034C193.129 1.05628 185.724 1.64737 178.434 3.41429C173.636 4.5774 169.022 6.24897 164.865 9.00103C163.035 10.215 161.382 11.6323 160.092 13.4247C159.075 14.8484 158.376 16.3992 158.3 18.1915C158.179 20.9754 159.361 23.1872 161.281 25.0812C161.884 25.774 162.571 26.3651 163.295 26.9244C163.766 27.2867 164.211 27.4201 164.833 27.3121C167.585 26.8481 170.35 26.4858 173.115 26.1236C179.718 25.2655 186.354 24.9096 192.995 24.7571C199.236 24.6172 205.471 24.9732 211.7 25.5134C215.697 25.8566 219.676 26.3269 223.636 26.9307C226.629 27.3884 226.667 27.4456 228.879 25.3609C229.394 24.8715 229.902 24.3694 230.373 23.8355C231.879 22.094 233.004 20.0728 232.883 17.7784C232.686 14.0793 230.652 11.3717 227.557 9.42687C227.532 9.24256 227.411 9.15993 227.227 9.14722V9.16629ZM70.802 74.3895L70.8148 74.3768C70.6177 74.3959 70.497 74.5039 70.4334 74.6882L70.1983 74.9107C69.6263 75.0759 69.2894 75.5399 68.889 75.9213C63.7409 80.8343 58.8026 85.9444 54.2012 91.3849C45.4685 101.707 38.0007 112.861 31.7595 124.842C25.0861 137.642 20.1033 151.085 16.6776 165.099C16.0865 167.515 15.5908 169.949 15.0887 172.383C14.8535 173.527 15.0696 173.68 16.131 173.279C17.364 172.815 18.5906 172.326 19.8363 171.881C30.0879 168.207 40.6701 165.792 51.3411 163.746C56.9722 162.665 62.6287 161.769 68.2979 160.911C73.1155 160.18 77.9331 159.468 82.7633 158.922C88.7122 158.248 94.642 157.466 100.61 156.983C106.025 156.545 111.427 155.992 116.836 155.559C121.336 155.197 125.842 154.911 130.354 154.644C135.674 154.326 140.993 154.034 146.32 153.799C150.781 153.602 155.249 153.513 159.717 153.373C165.196 153.201 170.674 152.934 176.153 152.871C188.082 152.737 200.018 152.757 211.948 153.011C219.511 153.17 227.074 153.322 234.637 153.646C238.997 153.831 243.357 154.047 247.717 154.244C254.257 154.542 260.784 155.038 267.318 155.483C273.292 155.89 279.254 156.456 285.222 156.996C291.183 157.536 297.132 158.235 303.074 158.947C308.566 159.608 314.038 160.403 319.504 161.248C328.23 162.602 336.912 164.184 345.511 166.186C354.021 168.169 362.43 170.496 370.482 173.959C370.66 174.036 370.857 174.125 371.022 173.928C369.535 162.004 364.514 142.619 355.972 125.299C354.339 121.632 352.413 118.111 350.411 114.641C334.274 86.6562 312.099 64.735 283.95 48.9409C257.206 33.9412 228.396 26.4541 197.762 25.9583C189.372 25.8185 181.021 26.3397 172.689 27.3693C160.562 28.8629 148.703 31.5323 137.11 35.3903C117.478 41.9177 99.4087 51.4387 82.9667 64.0041C78.8546 67.1503 74.7934 70.3663 71.1008 74.0082C70.9419 74.0781 70.8211 74.1861 70.8084 74.3768L70.802 74.3895ZM66.2578 201.728C69.4356 202.681 72.7341 202.885 75.9882 203.374C76.6047 203.469 77.0115 203.171 77.4691 202.789C81.5812 199.294 86.297 197.743 91.7057 198.436C94.3242 198.773 96.7012 199.739 98.9574 201.042C99.396 201.296 99.8027 201.563 100.356 201.544C103.432 201.429 105.98 202.732 108.211 204.69C109.088 205.459 110.01 205.719 111.109 205.758C116.639 205.948 122.168 206.177 127.691 206.349C132.057 206.488 136.417 206.584 140.784 206.666C144.438 206.736 148.099 206.692 151.754 206.838C158.096 207.092 164.446 207.01 170.789 207.086C170.979 207.092 171.17 207.105 171.361 207.111C173.414 207.467 175.473 207.334 177.532 207.232C178.555 207.232 179.578 207.232 180.595 207.238C181.301 207.372 182.006 207.359 182.712 207.264C184.39 207.283 186.068 207.277 187.739 207.334C188.54 207.366 189.207 207.156 189.862 206.698C192.321 204.982 194.876 203.412 197.514 201.995C203.634 198.696 209.971 196.046 217.032 195.595C220.807 195.353 224.424 195.931 227.799 197.698C228.523 198.08 229.241 198.391 230.055 198.563C231.504 198.874 232.934 199.376 234.033 200.374C234.828 201.099 235.451 201.01 236.315 200.622C240.548 198.715 244.921 197.298 249.573 196.821C253.183 196.459 256.666 196.796 259.945 198.455C260.416 198.696 260.873 198.798 261.401 198.747C263.816 198.525 266.059 199.154 268.08 200.419C268.907 200.933 269.434 200.787 270.089 200.279C271.093 199.497 272.18 198.842 273.292 198.226C280.436 194.273 287.999 192.455 296.153 193.923C300.411 194.692 304.199 196.446 307.053 199.815C307.898 200.813 308.661 201.709 310.116 201.62C310.441 201.601 310.803 201.798 311.121 201.95C313.205 202.942 314.877 204.347 315.748 206.558C315.938 207.035 315.97 207.626 316.847 207.461C322.084 206.476 327.315 205.44 332.329 203.571C333.613 203.094 334.865 202.516 335.977 201.696C337.719 200.412 337.719 199.268 335.977 197.953C335.494 197.59 334.967 197.266 334.42 197.006C333.461 196.554 332.482 196.109 331.484 195.754C325.478 193.624 319.23 192.506 312.97 191.482C307.409 190.574 301.822 189.881 296.223 189.252C290.166 188.578 284.103 188.012 278.033 187.542C273.025 187.154 268.004 186.9 262.996 186.531C256.208 186.035 249.414 185.781 242.62 185.483C236.124 185.197 229.629 185.012 223.127 184.872C215.608 184.713 208.096 184.605 200.577 184.561C189.099 184.491 177.621 184.637 166.143 184.917C157.41 185.127 148.677 185.305 139.951 185.699C133.004 186.01 126.058 186.321 119.124 186.849C114.217 187.224 109.298 187.485 104.391 187.91C97.1143 188.546 89.8435 189.252 82.5917 190.211C75.3463 191.165 68.12 192.251 61.008 193.961C57.8493 194.717 54.716 195.588 51.7733 197.012C50.9026 197.431 50.0573 197.908 49.3709 198.601C48.3858 199.599 48.3858 200.349 49.3963 201.34C49.9429 201.88 50.5912 202.281 51.2712 202.63C52.3072 203.171 53.3876 203.609 54.4935 203.997C58.2815 205.332 62.1902 206.228 66.1243 207.003C68.3615 207.448 70.6114 207.836 72.8676 208.205C73.3189 208.281 73.8972 208.56 74.2086 207.906C74.7235 206.838 75.2255 205.758 75.7404 204.677C75.0095 204.353 74.3421 204.359 73.6875 204.277C70.8656 203.921 68.0501 203.546 65.3044 202.783C64.5227 202.567 63.7282 202.338 63.0863 201.823C62.3427 201.232 62.2982 200.304 63.0609 199.745C64.4528 198.734 66.1052 198.404 67.7704 198.162C68.0373 198.124 68.2852 198.27 68.3233 198.563C68.3615 198.849 68.1835 199.052 67.9229 199.135C67.2937 199.338 66.6518 199.491 66.0353 199.72C65.3171 199.993 64.5036 200.12 63.938 200.787C64.6689 201.378 65.457 201.563 66.2578 201.709V201.728ZM231.154 204.569C228.021 206.044 225.155 207.976 222.352 209.984C206.564 221.259 193.707 235.287 183.309 251.615C183.093 251.958 182.89 252.314 182.661 252.644C182.375 253.064 181.994 253.343 181.523 252.981C181.123 252.67 181.498 252.346 181.644 252.047C181.758 251.824 181.911 251.615 182.051 251.405C189.131 240.047 197.635 229.865 207.372 220.694C212.704 215.666 218.437 211.141 224.5 207.029C226.947 205.535 229.368 204.01 231.841 202.719C231.822 202.205 231.555 202.014 231.351 201.804C229.464 199.821 227.214 198.41 224.602 197.584C221.348 196.554 218.036 196.459 214.693 196.967C210.416 197.622 206.329 198.881 202.49 200.895C201.321 201.347 200.183 201.868 199.077 202.459C191.819 206.31 185.229 211.135 179.006 216.467C164.808 228.638 152.745 242.736 141.769 257.818C141.273 258.504 141.349 258.917 141.896 259.47C142.462 260.049 142.951 260.703 143.434 261.358C143.714 261.739 144.286 262.184 143.726 262.655C143.129 263.163 142.868 262.464 142.551 262.121C142.347 261.898 142.182 261.638 141.991 261.396C138.712 257.335 134.74 254.17 129.941 252.079C128.263 251.348 126.528 250.782 124.704 250.534C123.903 250.426 123.21 250.185 123.153 249.193C123.141 248.945 123.039 248.697 122.982 248.449C120.986 239.831 118.444 231.384 114.77 223.312C112.152 217.554 109.044 212.101 104.766 207.385C102.599 204.995 100.171 202.929 97.2986 201.429C93.0404 199.205 88.6296 198.715 84.0472 200.304C80.9011 201.397 78.1237 202.999 76.4331 206.018C73.9735 210.41 73.6303 214.948 75.5052 219.645C76.9924 223.369 78.2572 227.17 79.3948 231.015C82.7824 242.481 85.0958 254.163 86.4686 266.042C87.4029 274.127 87.7715 282.231 87.5427 290.372C87.4156 294.948 87.8351 299.525 88.6868 304.012C90.3201 312.63 93.5424 320.664 98.271 328.056C102.911 335.301 108.51 341.575 116.48 345.325C116.569 345.369 116.664 345.407 116.753 345.464C117.026 345.636 117.255 345.865 117.103 346.208C116.925 346.602 116.562 346.697 116.213 346.462C115.215 345.801 114.287 346.208 113.327 346.57C111.853 347.123 110.398 347.708 109.018 348.477C108.173 348.947 107.36 349.469 106.641 350.117C104.684 351.903 104.633 353.619 106.508 355.468C107.302 356.257 108.186 356.937 109.228 357.388C109.387 357.502 109.54 357.629 109.711 357.725C112.794 359.32 116.06 360.407 119.397 361.297C127.011 363.331 134.784 364.475 142.608 365.333C150.228 366.165 157.88 366.61 165.539 366.763C177.062 366.991 188.572 366.61 200.044 365.333C205.745 364.697 211.407 363.845 216.994 362.536C220.254 361.773 223.47 360.852 226.553 359.517C227.767 358.99 228.943 358.405 230.036 357.655C233.512 355.265 233.512 352.85 230.048 350.39C229.012 349.653 227.894 349.055 226.737 348.528C225.905 348.153 225.053 347.822 224.22 347.447C223.133 346.958 223.064 346.539 224.036 345.909C225.771 344.784 227.106 343.272 228.339 341.645C229.661 339.903 230.798 338.034 231.809 336.102C235.47 329.085 237.936 321.63 239.728 313.952C240.567 310.355 241.355 306.738 241.66 303.039C242.175 300.548 242.327 298.012 242.436 295.482C242.518 293.55 242.715 291.637 243.116 289.749C243.656 287.207 244.374 284.703 245.848 282.536C249.522 277.114 253.412 271.845 257.511 266.735C266.078 256.051 275.472 246.168 285.863 237.238C290.331 233.399 294.882 229.662 299.369 225.848C300.907 224.539 302.56 223.338 303.761 221.666C306.093 219.245 307.746 216.429 308.686 213.207C310.593 206.635 308.108 200.616 302.153 197.253C299.217 195.601 296.032 194.813 292.708 194.609C286.086 194.209 279.934 195.874 274.169 199.071C271.366 200.628 268.786 202.529 266.193 204.397C264.636 205.522 263.002 206.552 261.604 207.893C261.096 208.224 260.562 208.529 260.085 208.891C247.647 218.355 236.004 228.689 225.549 240.327C219.841 246.683 214.553 253.369 210.282 260.805C209.424 262.299 208.592 263.805 207.931 265.451C208.363 265.642 208.732 265.807 209.1 265.966C214.325 268.146 219.212 270.924 223.642 274.47C223.998 274.756 224.347 275.055 224.665 275.379C224.85 275.57 224.875 275.843 224.697 276.072C224.519 276.301 224.252 276.345 224.017 276.205C223.712 276.027 223.432 275.805 223.159 275.582C217.807 271.267 211.846 268.082 205.363 265.82C199.465 263.761 193.402 262.693 187.161 262.623C186.735 262.623 186.125 262.782 186.068 262.14C186.017 261.485 186.633 261.561 187.065 261.498C187.262 261.466 187.472 261.466 187.676 261.479C189.449 261.581 191.228 261.631 192.995 261.809C197.406 262.254 201.69 263.29 205.872 264.758C206.539 264.994 206.819 264.936 207.136 264.269C209.723 258.835 213.073 253.877 216.727 249.117C224.83 238.56 234.173 229.179 244.164 220.427C247.329 217.649 250.583 214.973 253.799 212.253C256.996 209.838 260.187 207.423 263.377 204.995C264.292 204.302 264.305 204.277 263.67 203.317C261.801 200.489 259.119 198.887 255.852 198.22C252.662 197.565 249.49 197.806 246.338 198.499C240.942 199.675 235.908 201.76 231.173 204.582L231.154 204.569ZM310.225 212.762C318.322 211.656 326.234 210.391 334.103 208.859C342.822 207.162 351.485 205.198 359.957 202.491C365.576 200.692 371.099 198.652 376.158 195.563C378.115 194.368 379.965 193.027 381.407 191.203C383.695 188.317 383.689 185.463 381.407 182.597C380.028 180.862 378.274 179.559 376.418 178.396C373.438 176.527 370.26 175.059 366.987 173.794C355.858 169.491 344.278 166.892 332.603 164.674C322.326 162.722 311.979 161.235 301.594 159.983C291.507 158.769 281.408 157.79 271.284 156.989C258.928 156.017 246.56 155.331 234.18 154.829C223.318 154.39 212.45 154.18 201.582 154.047C192.086 153.926 182.585 154.066 173.089 154.237C167.147 154.345 161.204 154.46 155.268 154.67C149.281 154.879 143.294 155.216 137.307 155.49C129.998 155.82 122.708 156.322 115.412 156.894C110.353 157.288 105.3 157.79 100.241 158.229C94.2225 158.75 88.2164 159.436 82.2231 160.174C74.1642 161.172 66.1243 162.322 58.1226 163.72C48.068 165.474 38.0833 167.515 28.2766 170.388C22.029 172.218 15.8831 174.303 10.144 177.43C7.90684 178.65 5.77771 180.029 3.98543 181.866C0.547036 185.406 0.566102 188.857 4.04263 192.385C6.28616 194.667 9.00636 196.243 11.8346 197.648C16.989 200.203 22.4104 202.071 27.927 203.673C42.2399 207.83 56.8832 210.385 71.6092 212.514C73.0837 212.73 73.0837 212.685 73.357 211.16C73.4015 210.912 73.465 210.664 73.5286 210.416C73.6938 209.8 73.5095 209.514 72.8295 209.406C70.6749 209.063 68.5267 208.675 66.3849 208.255C61.8025 207.353 57.2391 206.361 52.8792 204.626C51.5064 204.08 50.1844 203.438 49.0213 202.51C48.0743 201.76 47.4833 200.825 47.3053 199.573C46.9939 197.393 47.0829 195.239 47.2735 193.052C47.4388 191.228 48.3413 190.04 49.7904 189.131C51.0869 188.324 52.4851 187.72 53.9279 187.211C58.7264 185.508 63.6965 184.472 68.692 183.563C79.738 181.548 90.8922 180.334 102.065 179.356C110.556 178.612 119.067 178.046 127.577 177.525C134.11 177.118 140.657 176.839 147.203 176.61C154.817 176.337 162.431 176.07 170.045 175.993C191.228 175.777 212.412 175.669 233.589 176.445C240.999 176.718 248.403 176.985 255.808 177.366C262.348 177.703 268.881 178.11 275.415 178.599C281.186 179.031 286.944 179.54 292.702 180.125C301.187 180.983 309.646 182.038 318.036 183.582C322.879 184.472 327.696 185.483 332.336 187.192C333.867 187.758 335.348 188.406 336.689 189.353C337.77 190.122 338.463 191.082 338.653 192.461C338.952 194.59 338.946 196.713 338.768 198.842C338.602 200.781 337.617 202.141 335.933 203.069C334.643 203.781 333.308 204.397 331.916 204.893C327.652 206.419 323.247 207.423 318.805 208.255C316.364 208.713 313.904 209.094 311.451 209.52C311.07 209.584 310.536 209.539 310.485 210.067C310.409 210.912 310.053 211.732 310.218 212.755L310.225 212.762ZM337.496 197.514C337.96 196.815 337.846 196.141 337.814 195.493C337.782 194.889 337.624 194.285 337.63 193.675C337.643 191.902 336.766 190.707 335.291 189.874C334.052 189.175 332.762 188.591 331.408 188.127C323.444 185.4 315.163 184.167 306.875 182.978C303.214 182.451 299.528 182.044 295.848 181.644C291.158 181.135 286.467 180.665 281.77 180.245C278.586 179.959 275.389 179.826 272.212 179.546C266.65 179.05 261.077 178.828 255.503 178.472C251.251 178.199 246.986 178.021 242.728 177.868C236.131 177.633 229.534 177.43 222.936 177.252C216.384 177.074 209.831 177.106 203.285 176.991C195.925 176.864 188.559 176.794 181.193 177.08C176.019 177.277 170.839 177.182 165.66 177.347C158.046 177.589 150.432 177.69 142.824 178.008C137.498 178.231 132.178 178.485 126.852 178.745C121.889 178.993 116.925 179.349 111.967 179.686C109.438 179.858 106.908 180.086 104.385 180.29C104.029 180.315 103.616 180.322 103.457 180.684C103.273 181.122 103.591 181.453 103.889 181.739C104.684 182.495 105.688 182.877 106.699 183.214C111.167 184.701 115.787 185.279 120.465 185.413C124.628 185.533 128.778 185.082 132.935 184.853C137.498 184.605 142.061 184.377 146.625 184.249C152.357 184.091 158.09 183.754 163.823 183.697C183.176 183.5 202.529 183.271 221.881 183.779C228.733 183.964 235.584 184.103 242.429 184.396C246.891 184.586 251.352 184.796 255.814 185.006C260.988 185.247 266.148 185.603 271.309 185.94C276.375 186.277 281.427 186.696 286.48 187.16C292.136 187.675 297.787 188.279 303.418 188.991C310.771 189.919 318.086 191.025 325.3 192.747C329.546 193.758 333.785 194.857 337.509 197.52L337.496 197.514ZM140.46 257.621C149.866 244.598 160.213 232.287 171.875 221.031C152.453 220.586 133.138 219.645 113.899 218.215C113.741 218.692 113.925 218.889 114.033 219.111C117.338 225.651 119.848 232.49 121.863 239.532C122.702 242.462 123.446 245.405 124.138 248.367C124.259 248.888 124.329 249.301 125.003 249.416C130.71 250.369 135.394 253.286 139.608 257.087C139.824 257.284 139.97 257.583 140.46 257.621ZM186.817 208.77C186.798 208.668 186.773 208.567 186.754 208.459C161.459 208.249 136.17 207.88 110.938 206.863C110.817 207.238 110.989 207.378 111.116 207.531C112.33 208.967 113.55 210.397 114.465 212.05C114.783 212.622 115.234 212.755 115.838 212.793C120.802 213.073 125.759 213.397 130.723 213.671C134.879 213.899 139.03 214.109 143.193 214.262C149.987 214.503 156.787 214.713 163.588 214.884C167.649 214.986 171.717 214.884 175.771 215.069C177.926 215.17 179.648 214.719 181.256 213.194C182.966 211.567 184.962 210.238 186.83 208.777L186.817 208.77ZM119.175 214.154C119.13 214.249 119.092 214.344 119.048 214.446C119.842 215.355 120.656 216.251 121.431 217.185C121.8 217.63 122.257 217.7 122.778 217.732C127.081 217.999 131.384 218.298 135.693 218.539C139.9 218.774 144.108 218.997 148.315 219.143C155.522 219.391 162.73 219.569 169.931 219.772C171.094 219.804 172.384 220.084 173.401 219.689C174.469 219.27 175.295 218.202 176.191 217.382C176.521 217.077 177.074 216.887 177.043 216.245C157.69 216.003 138.419 215.393 119.175 214.16V214.154Z" fill="#100905"/>
<path d="M70.1929 74.9095C70.2691 74.8332 70.3518 74.7633 70.4344 74.687C70.6441 74.687 70.7712 74.579 70.8157 74.3756L70.803 74.3883C71.0064 74.3438 71.0954 74.223 71.0954 74.0196C74.788 70.3714 78.8492 67.1554 82.9613 64.0156C99.4033 51.4438 117.472 41.9292 137.105 35.4018C148.691 31.5502 160.551 28.8744 172.684 27.3808C181.009 26.3575 189.367 25.8363 197.756 25.9698C228.391 26.4719 257.201 33.9527 283.945 48.9524C312.094 64.7402 334.269 86.6677 350.406 114.652C352.408 118.123 354.333 121.644 355.967 125.311C355.859 125.902 355.363 125.896 354.918 126.004C351.283 126.887 347.66 127.834 344.012 128.667C339.035 129.805 334.034 130.809 329.013 131.73C325.93 132.296 322.848 132.83 319.753 133.3C316.956 133.726 314.16 134.139 311.363 134.571C307.969 135.093 304.563 135.544 301.156 135.951C298.048 136.326 294.928 136.624 291.82 136.98C288.006 137.419 284.18 137.711 280.36 138.067C277.748 138.315 275.123 138.525 272.499 138.684C268.965 138.893 265.425 139.046 261.891 139.313C259.47 139.497 257.035 139.427 254.601 139.58C250.61 139.834 246.593 139.821 242.589 139.878C235.846 139.974 229.09 140.19 222.346 139.7C218.914 139.453 215.457 139.796 212.006 139.402C210.004 139.173 207.964 139.249 205.936 139.135C202.447 138.944 198.964 138.69 195.481 138.506C192.094 138.328 188.731 137.876 185.338 137.775C184.244 137.743 183.126 137.565 182.02 137.444C179.509 137.177 176.999 136.904 174.495 136.612C172.34 136.364 170.186 136.097 168.031 135.83C166.029 135.582 164.021 135.334 162.019 135.086C161.911 130.466 161.866 125.838 162.019 121.218C162.114 118.51 162.896 115.923 164.269 113.553C164.936 112.396 165.807 111.424 166.906 110.642C167.764 110.032 168.667 109.707 169.741 109.733C171.775 109.771 173.809 109.733 175.836 109.727C176.192 109.727 176.554 109.746 176.897 109.676C177.202 109.612 177.476 109.402 177.425 109.04C177.387 108.786 177.171 108.602 176.891 108.582C176.586 108.563 176.281 108.57 175.976 108.57C174.044 108.57 172.112 108.557 170.186 108.589C168.908 108.608 167.815 108.188 166.792 107.451C164.981 106.148 163.938 104.318 163.176 102.297C162.19 99.6971 161.866 96.9895 161.847 94.2311C161.809 88.8986 161.796 83.5597 161.771 78.2272C161.771 77.8204 161.771 77.4136 161.733 77.0069C161.707 76.7336 161.529 76.5302 161.243 76.5238C160.957 76.5175 160.76 76.7018 160.729 76.9814C160.691 77.331 160.684 77.6933 160.691 78.0429C160.703 83.2228 160.716 88.4092 160.741 93.5892C160.748 95.2162 160.722 96.837 160.462 98.445C160.093 100.714 159.489 102.913 158.269 104.883C156.763 107.311 154.786 108.894 151.678 108.684C149.454 108.532 147.21 108.652 144.973 108.665C144.49 108.665 143.785 108.57 143.791 109.263C143.797 110 144.515 109.784 144.986 109.784C147.477 109.79 149.969 109.809 152.454 109.771C153.674 109.752 154.735 110.114 155.727 110.807C156.966 111.671 157.881 112.803 158.58 114.118C159.616 116.063 160.233 118.154 160.5 120.334C161.078 125.139 160.773 129.97 160.754 134.787C160.347 134.762 159.941 134.768 159.54 134.705C156.706 134.235 153.871 133.732 151.036 133.268C145.952 132.442 140.893 131.489 135.865 130.37C130.387 129.156 124.947 127.809 119.538 126.29C111.288 123.97 103.179 121.237 95.3738 117.709C88.5733 114.64 82.0143 111.118 76.2561 106.269C72.4428 103.059 69.1696 99.4301 67.2057 94.8095C65.7503 91.39 65.299 87.8435 66.1888 84.1444C66.8498 81.3924 67.9938 78.8882 69.5128 76.5302C69.837 76.0217 70.2946 75.5832 70.2056 74.8967L70.1929 74.9095ZM205.339 33.8256C202.949 33.8192 200.566 33.8001 198.195 34.1561C196.129 34.4675 194.096 34.887 192.278 35.9865C189.761 37.5056 189.075 39.6793 190.257 42.3614C190.797 43.5817 191.572 44.6431 192.462 45.6283C194.375 47.7511 196.549 49.5816 198.869 51.2341C204.303 55.1048 210.144 58.2573 216.213 60.9903C233.863 68.9414 252.173 74.7442 271.348 77.6488C277.081 78.5196 282.852 78.9645 288.655 78.6467C291.14 78.5132 293.599 78.1382 295.932 77.1785C300.037 75.4815 300.991 72.5451 298.614 68.8015C297.489 67.0283 296.021 65.5474 294.432 64.1872C289.106 59.6428 283.081 56.198 276.801 53.1726C260.925 45.5266 244.318 40.0225 227.069 36.4569C219.906 34.976 212.679 33.9145 205.345 33.8129L205.339 33.8256ZM328.79 99.2395C328.79 98.0636 328.466 96.7925 327.608 95.1908C324.71 89.7757 320.56 85.5554 315.215 82.5491C313.492 81.583 311.636 80.8394 309.609 80.814C307.01 80.7822 305.694 82.3712 306.094 84.9262C306.406 86.9283 307.27 88.6952 308.376 90.3477C311.128 94.4535 314.649 97.7649 318.844 100.377C320.096 101.153 321.405 101.807 322.822 102.233C323.801 102.525 324.793 102.722 325.816 102.602C327.786 102.373 328.79 101.229 328.784 99.2458L328.79 99.2395ZM116.481 103.517H116.506C116.506 106.313 116.506 109.104 116.506 111.9C116.506 112.256 116.506 112.612 116.576 112.955C116.627 113.216 116.824 113.394 117.129 113.356C117.358 113.324 117.523 113.165 117.549 112.974C117.599 112.574 117.606 112.167 117.606 111.76C117.599 105.869 117.568 99.9767 117.58 94.0849C117.587 91.3138 118.133 88.6443 119.29 86.1147C120.04 84.4749 121.051 83.0449 122.557 81.9898C123.421 81.386 124.317 81.0555 125.385 81.0746C127.419 81.1127 129.446 81.0746 131.48 81.0682C131.836 81.0682 132.192 81.0746 132.541 81.0174C132.866 80.9602 133.088 80.7314 133.05 80.3754C133.018 80.0894 132.796 79.9496 132.516 79.9305C132.211 79.9115 131.906 79.9178 131.601 79.9178C129.77 79.9178 127.94 79.8733 126.116 79.9433C124.368 80.0132 122.964 79.3331 121.712 78.2145C120.669 77.2865 119.932 76.1361 119.347 74.884C118 71.9794 117.504 68.8905 117.491 65.7126C117.466 60.3293 117.466 54.9459 117.453 49.5562C117.453 49.1494 117.453 48.7426 117.402 48.3422C117.371 48.0689 117.186 47.8909 116.894 47.8782C116.595 47.8655 116.398 48.0498 116.366 48.3168C116.309 48.7172 116.309 49.124 116.309 49.5307C116.316 54.7616 116.328 59.9924 116.347 65.2296C116.347 67.06 116.341 68.8842 115.96 70.6828C115.496 72.882 114.835 75.0048 113.513 76.8543C112.045 78.9009 110.208 80.1975 107.5 80.0259C105.327 79.8924 103.134 79.9941 100.948 80.0068C100.547 80.0068 100.134 79.9242 99.7528 80.1276C99.5685 80.2293 99.416 80.3627 99.4224 80.5915C99.4224 80.8839 99.5876 81.0746 99.8673 81.1127C100.166 81.1509 100.477 81.1318 100.776 81.1318C103.217 81.1318 105.651 81.1572 108.091 81.1191C109.369 81.1 110.462 81.4941 111.485 82.2377C113.29 83.547 114.32 85.3775 115.095 87.3986C116.087 89.9918 116.398 92.7121 116.474 95.4514C116.551 98.1399 116.494 100.835 116.494 103.53L116.481 103.517Z" fill="#FA4616"/>
<path d="M303.755 221.658C302.554 223.33 300.901 224.531 299.363 225.841C294.876 229.654 290.325 233.391 285.857 237.23C275.466 246.16 266.072 256.043 257.505 266.727C253.406 271.838 249.516 277.106 245.842 282.528C244.368 284.702 243.65 287.199 243.109 289.742C242.709 291.629 242.512 293.543 242.429 295.475C242.321 298.004 242.175 300.54 241.654 303.032C241.4 303.14 241.298 303.375 241.177 303.604C239.671 306.547 237.275 308.644 234.555 310.366C230.824 312.718 226.61 313.633 222.295 314.015C218.45 314.351 214.598 313.887 210.753 313.69C208.293 313.563 205.859 313.265 203.374 313.392C199.974 313.57 196.637 314.091 193.339 314.854C188.121 316.061 183.195 318.019 178.555 320.707C175.384 322.544 172.41 324.667 169.797 327.216C167.668 329.3 165.717 331.582 164.141 334.143C162.94 336.095 161.446 337.83 159.851 339.451C156.298 343.061 152.18 345.902 147.534 347.935C144.07 349.455 140.39 350.154 136.672 350.592C133.685 350.942 130.723 350.313 127.774 349.855C125.581 349.512 123.408 349.099 121.158 349.06C117.847 349.003 114.955 349.969 112.419 351.997C110.874 353.23 109.381 354.603 109.508 356.884C109.521 357.101 109.368 357.259 109.209 357.387C108.167 356.942 107.284 356.255 106.489 355.467C104.621 353.624 104.665 351.902 106.623 350.116C107.341 349.461 108.154 348.946 109 348.476C110.379 347.707 111.834 347.122 113.309 346.569C114.268 346.207 115.196 345.8 116.194 346.461C116.544 346.69 116.9 346.601 117.084 346.207C117.236 345.864 117.008 345.641 116.734 345.463C116.652 345.406 116.556 345.368 116.461 345.323C108.485 341.573 102.892 335.3 98.2522 328.055C93.5236 320.663 90.3013 312.629 88.6679 304.011C87.8163 299.523 87.3968 294.947 87.5239 290.371C87.7527 282.229 87.3841 274.132 86.4498 266.041C85.077 254.168 82.7636 242.48 79.376 231.014C78.2384 227.169 76.9736 223.368 75.4864 219.644C73.6115 214.953 73.961 210.409 76.4143 206.017C78.1049 202.998 80.8887 201.396 84.0284 200.303C88.6108 198.708 93.0215 199.197 97.2798 201.428C100.153 202.928 102.58 204.994 104.748 207.383C109.025 212.099 112.133 217.553 114.751 223.311C118.425 231.383 120.967 239.823 122.963 248.448C123.02 248.696 123.115 248.938 123.134 249.192C123.192 250.183 123.884 250.425 124.685 250.533C126.509 250.781 128.244 251.34 129.922 252.077C134.721 254.175 138.699 257.334 141.973 261.395C142.163 261.63 142.328 261.891 142.532 262.119C142.85 262.463 143.11 263.162 143.708 262.653C144.267 262.177 143.689 261.732 143.415 261.357C142.932 260.702 142.449 260.041 141.877 259.469C141.331 258.91 141.254 258.497 141.75 257.817C152.726 242.734 164.789 228.637 178.988 216.466C185.21 211.133 191.801 206.309 199.059 202.458C200.165 201.867 201.302 201.345 202.472 200.894C202.923 200.894 203.387 200.97 203.832 200.9C206.647 200.462 209.444 200.513 212.266 200.9C216.638 201.504 220.458 203.303 223.884 206.023C224.208 206.277 224.481 206.576 224.488 207.027C218.424 211.133 212.691 215.665 207.359 220.692C197.622 229.864 189.118 240.046 182.038 251.404C181.905 251.62 181.746 251.823 181.632 252.046C181.479 252.338 181.104 252.668 181.511 252.98C181.981 253.342 182.369 253.056 182.648 252.643C182.877 252.306 183.074 251.95 183.297 251.613C193.695 235.285 206.552 221.258 222.339 209.983C225.142 207.981 228.009 206.049 231.142 204.568C231.396 204.568 231.657 204.612 231.898 204.568C234.974 203.996 238.019 204.244 241.057 204.873C242.944 205.261 244.743 205.909 246.497 206.703C249.357 207.987 251.868 209.703 253.761 212.239C250.546 214.959 247.298 217.635 244.126 220.413C234.142 229.171 224.799 238.546 216.689 249.103C213.035 253.863 209.685 258.821 207.099 264.255C206.781 264.922 206.501 264.98 205.834 264.744C201.658 263.276 197.368 262.24 192.957 261.795C191.19 261.617 189.411 261.567 187.638 261.465C187.434 261.452 187.231 261.452 187.027 261.484C186.595 261.547 185.979 261.478 186.03 262.126C186.081 262.768 186.697 262.609 187.123 262.609C193.364 262.679 199.427 263.747 205.325 265.806C211.802 268.069 217.77 271.253 223.121 275.568C223.394 275.791 223.68 276.013 223.979 276.191C224.214 276.331 224.481 276.287 224.659 276.058C224.837 275.829 224.812 275.556 224.627 275.365C224.31 275.041 223.96 274.742 223.604 274.456C219.174 270.91 214.293 268.138 209.062 265.952C208.694 265.799 208.325 265.628 207.893 265.437C208.554 263.791 209.387 262.285 210.245 260.791C214.516 253.355 219.803 246.675 225.511 240.313C235.966 228.675 247.609 218.341 260.047 208.877C260.53 208.508 261.058 208.21 261.566 207.879C261.922 207.968 262.259 207.866 262.608 207.803C264.096 207.523 265.583 207.129 267.083 207.072C272.25 206.862 277.385 207.021 282.457 208.241C288.164 209.614 293.605 211.591 298.429 215.004C300.818 216.695 302.833 218.741 303.723 221.652L303.755 221.658ZM202.828 309.025C194.47 309.222 187.034 311.059 180.005 314.51C176.102 316.423 172.511 318.794 169.524 321.997C169.251 322.29 168.984 322.608 168.774 322.944C168.622 323.186 168.742 323.434 168.971 323.606C169.149 323.739 169.359 323.764 169.53 323.631C169.766 323.447 169.988 323.237 170.191 323.014C171.844 321.197 173.712 319.639 175.765 318.311C183.081 313.582 191.114 311.021 199.783 310.347C201.925 310.182 204.041 310.233 206.171 310.392C206.552 310.417 206.965 310.354 207.029 309.953C207.111 309.445 206.692 309.254 206.26 309.222C204.944 309.14 203.622 309.076 202.828 309.032V309.025Z" fill="#DBF505"/>
<path d="M70.186 74.9116C70.2814 75.5917 69.8174 76.0366 69.4933 76.5451C67.9743 78.9031 66.8303 81.4009 66.1693 84.1593C65.2795 87.8584 65.7308 91.4049 67.1862 94.8243C69.1564 99.445 72.4232 103.074 76.2366 106.284C82.0011 111.133 88.5538 114.654 95.3543 117.724C103.159 121.252 111.269 123.985 119.518 126.305C124.927 127.824 130.367 129.171 135.846 130.385C140.873 131.504 145.932 132.451 151.017 133.283C153.851 133.747 156.686 134.243 159.521 134.72C159.921 134.783 160.328 134.777 160.735 134.802C160.76 136.817 160.792 138.826 160.817 140.84C160.817 141.342 160.735 142.01 161.415 142.003C162.133 142.003 161.955 141.298 161.961 140.828C161.987 138.915 161.999 137.001 162.012 135.095C164.014 135.343 166.022 135.59 168.024 135.838C170.179 136.099 172.334 136.372 174.488 136.62C176.999 136.906 179.503 137.186 182.013 137.453C183.119 137.567 184.231 137.751 185.331 137.783C188.725 137.885 192.087 138.336 195.474 138.514C198.957 138.698 202.44 138.953 205.929 139.143C207.95 139.258 209.991 139.181 211.999 139.41C215.444 139.804 218.901 139.461 222.34 139.709C229.089 140.198 235.839 139.982 242.582 139.887C246.586 139.83 250.603 139.842 254.594 139.588C257.029 139.436 259.463 139.506 261.884 139.321C265.418 139.054 268.952 138.902 272.492 138.692C275.11 138.54 277.741 138.323 280.354 138.076C284.173 137.713 287.999 137.421 291.813 136.989C294.921 136.633 298.041 136.334 301.149 135.959C304.556 135.546 307.956 135.101 311.356 134.58C314.153 134.148 316.949 133.728 319.746 133.309C322.841 132.838 325.93 132.305 329.006 131.739C334.027 130.811 339.029 129.813 344.005 128.675C347.653 127.843 351.276 126.896 354.911 126.012C355.35 125.904 355.846 125.917 355.96 125.319C364.502 142.639 369.523 162.018 371.01 173.948C370.839 174.145 370.648 174.056 370.47 173.979C362.417 170.509 354.015 168.183 345.499 166.206C336.9 164.204 328.218 162.615 319.492 161.268C314.026 160.423 308.553 159.628 303.062 158.967C297.12 158.255 291.171 157.556 285.209 157.016C279.248 156.476 273.286 155.91 267.306 155.503C260.772 155.058 254.245 154.563 247.705 154.264C243.345 154.067 238.985 153.851 234.625 153.666C227.062 153.349 219.505 153.196 211.935 153.031C200.006 152.777 188.07 152.757 176.141 152.891C170.662 152.954 165.183 153.221 159.705 153.393C155.237 153.533 150.769 153.628 146.307 153.819C140.981 154.054 135.662 154.353 130.342 154.664C125.836 154.931 121.323 155.217 116.824 155.579C111.409 156.012 106.006 156.565 100.598 157.003C94.6297 157.486 88.6936 158.268 82.7511 158.942C77.9145 159.488 73.0969 160.206 68.2857 160.931C62.6165 161.789 56.96 162.685 51.3289 163.766C40.6578 165.812 30.0757 168.221 19.8241 171.901C18.5848 172.346 17.3581 172.835 16.1188 173.299C15.0511 173.7 14.8413 173.547 15.0765 172.403C15.5722 169.969 16.0743 167.535 16.6654 165.119C20.0911 151.099 25.0802 137.662 31.7473 124.862C37.9885 112.881 45.4627 101.72 54.1889 91.4049C58.7904 85.9644 63.7287 80.8543 68.8768 75.9413C69.2772 75.5599 69.614 75.0896 70.186 74.9307V74.9116Z" fill="#C30000"/>
<path d="M310.229 212.759C310.064 211.742 310.42 210.916 310.496 210.071C310.541 209.543 311.081 209.587 311.462 209.524C313.909 209.098 316.369 208.717 318.816 208.259C323.258 207.427 327.663 206.429 331.927 204.897C333.313 204.401 334.648 203.785 335.944 203.073C337.622 202.145 338.614 200.778 338.779 198.846C338.957 196.717 338.963 194.594 338.664 192.465C338.467 191.086 337.775 190.126 336.701 189.357C335.366 188.41 333.879 187.755 332.347 187.196C327.707 185.486 322.89 184.476 318.047 183.586C309.657 182.048 301.198 180.986 292.713 180.128C286.955 179.544 281.197 179.035 275.426 178.603C268.899 178.114 262.359 177.707 255.819 177.37C248.415 176.989 241.01 176.715 233.6 176.448C212.423 175.673 191.24 175.781 170.056 175.997C162.442 176.073 154.822 176.34 147.214 176.614C140.668 176.849 134.122 177.128 127.588 177.529C119.078 178.056 110.568 178.616 102.077 179.359C90.9034 180.338 79.7493 181.552 68.7032 183.567C63.7077 184.476 58.744 185.512 53.9391 187.215C52.5028 187.724 51.0982 188.327 49.8016 189.135C48.3526 190.037 47.4437 191.232 47.2848 193.056C47.0878 195.242 47.0052 197.397 47.3166 199.577C47.4945 200.829 48.0793 201.763 49.0326 202.513C50.1957 203.435 51.5177 204.083 52.8905 204.63C57.2504 206.365 61.8138 207.357 66.3962 208.259C68.538 208.679 70.6862 209.066 72.8408 209.41C73.5208 209.518 73.7051 209.804 73.5399 210.42C73.4763 210.668 73.4128 210.909 73.3683 211.164C73.095 212.689 73.0886 212.734 71.6205 212.518C56.8945 210.388 42.2512 207.833 27.9383 203.677C22.4216 202.075 17.0003 200.206 11.8459 197.651C9.01764 196.247 6.29743 194.664 4.0539 192.389C0.577377 188.861 0.55831 185.41 3.9967 181.87C5.78898 180.027 7.91812 178.647 10.1553 177.433C15.8944 174.306 22.0467 172.228 28.2879 170.391C38.0882 167.518 48.0793 165.478 58.1339 163.724C66.1356 162.326 74.1754 161.182 82.2344 160.177C88.2277 159.434 94.2338 158.754 100.253 158.233C105.312 157.794 110.364 157.298 115.423 156.898C122.713 156.326 130.01 155.824 137.318 155.493C143.305 155.22 149.286 154.883 155.279 154.673C161.216 154.464 167.164 154.349 173.101 154.241C182.596 154.07 192.098 153.93 201.593 154.05C212.461 154.184 223.329 154.394 234.191 154.832C246.572 155.334 258.94 156.014 271.295 156.993C281.419 157.788 291.525 158.773 301.605 159.987C311.99 161.239 322.337 162.726 332.614 164.677C344.289 166.896 355.875 169.495 366.998 173.798C370.271 175.063 373.449 176.531 376.43 178.4C378.285 179.563 380.033 180.866 381.419 182.601C383.7 185.467 383.707 188.321 381.419 191.207C379.976 193.031 378.126 194.372 376.169 195.567C371.104 198.662 365.587 200.702 359.968 202.494C351.496 205.208 342.84 207.166 334.114 208.863C326.246 210.395 318.326 211.659 310.236 212.765L310.229 212.759ZM353.136 191.582C353.276 192.592 352.971 193.622 352.66 194.639C351.763 197.55 349.863 199.641 347.27 201.153C346.876 201.382 346.355 201.566 346.533 202.138C346.685 202.634 347.2 202.698 347.658 202.749C347.81 202.768 347.969 202.768 348.115 202.742C348.954 202.583 349.806 202.437 350.638 202.24C355.119 201.153 359.53 199.838 363.833 198.16C366.998 196.927 370.125 195.598 372.947 193.66C374.339 192.706 375.597 191.664 376.391 190.101C377.199 188.512 377.173 186.91 376.029 185.563C375.114 184.476 374.11 183.446 372.845 182.76C369.718 181.05 366.451 179.703 363.013 178.762C360.178 177.986 357.572 178.45 355.272 180.255C353.2 181.883 352.157 183.98 352.494 186.726C352.691 188.327 353.333 189.865 353.155 191.594L353.136 191.582ZM11.5599 185.397C11.9476 185.359 12.2526 185.334 12.5514 185.302C16.2058 184.959 19.7332 184.037 23.2224 182.963C27.9256 181.52 32.5144 179.766 36.8616 177.44C38.0247 176.817 39.1496 176.124 40.1157 175.209C40.5479 174.796 41.0563 174.338 40.8656 173.645C40.6686 172.921 39.9695 172.895 39.3784 172.806C37.9548 172.59 36.5438 172.806 35.1456 173.042C30.5314 173.804 26.0825 175.184 21.6971 176.804C18.5574 177.967 15.4749 179.264 12.5641 180.936C11.509 181.539 10.4477 182.169 9.62142 183.077C8.65537 184.145 8.89688 184.902 10.2761 185.219C10.7209 185.321 11.1785 185.353 11.5472 185.404L11.5599 185.397ZM275.674 161.01C274.098 161.01 272.528 160.978 270.958 161.023C270.303 161.042 269.649 161.188 269.013 161.366C268.651 161.468 268.174 161.601 268.193 162.122C268.206 162.529 268.549 162.707 268.867 162.872C270.005 163.463 271.238 163.769 272.471 164.035C278.083 165.243 283.765 165.91 289.485 166.336C292.268 166.546 295.059 166.718 297.849 166.635C299.419 166.591 300.995 166.571 302.533 166.171C302.927 166.069 303.391 165.955 303.442 165.485C303.492 165.014 303.054 164.817 302.692 164.639C301.452 164.035 300.118 163.724 298.783 163.432C291.175 161.766 283.453 161.105 275.68 161.01H275.674ZM18.6337 194.829C26.5909 198.49 34.8151 201.102 43.6049 202.513C43.0202 200.925 42.5245 199.545 41.9969 198.185C41.7745 197.607 41.4313 197.016 40.7385 197.009C39.8678 197.003 39.0416 196.692 38.1836 196.698C35.6985 196.723 33.2516 196.348 30.7856 196.12C26.7244 195.745 22.714 194.918 18.6337 194.829ZM47.1005 173.512C49.4711 173.461 51.6956 172.864 53.7231 171.631C54.4031 171.218 55.2357 170.715 54.956 169.756C54.6828 168.815 53.7167 168.815 52.9222 168.777C50.38 168.656 48.0221 169.343 45.8167 170.576C45.3781 170.817 44.965 171.122 44.6663 171.548C44.196 172.228 44.3104 172.775 45.0222 173.181C45.6705 173.556 46.3823 173.512 47.1005 173.512Z" fill="#FA4616"/>
<path d="M109.215 357.403C109.374 357.27 109.527 357.111 109.514 356.901C109.387 354.619 110.874 353.253 112.425 352.013C114.961 349.992 117.853 349.02 121.164 349.077C123.414 349.115 125.581 349.535 127.78 349.872C130.729 350.329 133.691 350.958 136.678 350.609C140.396 350.177 144.076 349.471 147.54 347.952C152.186 345.918 156.304 343.071 159.857 339.467C161.452 337.846 162.946 336.111 164.147 334.16C165.723 331.599 167.674 329.311 169.803 327.232C172.416 324.683 175.39 322.561 178.561 320.724C183.201 318.035 188.127 316.071 193.345 314.87C196.643 314.107 199.98 313.586 203.38 313.408C205.865 313.281 208.299 313.58 210.759 313.707C214.604 313.904 218.456 314.368 222.301 314.031C226.616 313.65 230.836 312.735 234.561 310.383C237.281 308.667 239.677 306.563 241.183 303.62C241.298 303.392 241.406 303.163 241.66 303.048C241.355 306.747 240.567 310.364 239.728 313.961C237.936 321.645 235.47 329.094 231.809 336.111C230.798 338.05 229.667 339.912 228.339 341.653C227.106 343.281 225.771 344.787 224.036 345.918C223.063 346.547 223.133 346.967 224.22 347.456C225.053 347.831 225.904 348.155 226.737 348.537C227.894 349.064 229.012 349.662 230.048 350.399C233.512 352.859 233.506 355.274 230.036 357.664C228.942 358.414 227.767 359.005 226.553 359.526C223.47 360.861 220.254 361.782 216.994 362.545C211.407 363.854 205.744 364.7 200.043 365.342C188.572 366.625 177.068 367 165.539 366.772C157.88 366.619 150.234 366.174 142.608 365.342C134.784 364.49 127.017 363.339 119.397 361.306C116.06 360.416 112.794 359.323 109.711 357.734C109.539 357.645 109.387 357.511 109.228 357.397L109.215 357.403Z" fill="#A1B700"/>
<path d="M171.37 207.116C171.179 207.109 170.989 207.097 170.798 207.09C171.173 206.556 171.828 206.467 172.336 206.15C173.531 205.412 173.575 204.726 172.387 204.027C171.694 203.614 170.95 203.283 170.175 203.016C166.622 201.79 162.961 201.008 159.275 200.372C153.905 199.444 148.483 198.796 143.062 198.23C139.344 197.843 135.613 197.512 131.883 197.322C127.942 197.124 124.002 196.896 120.061 196.718C114.843 196.489 109.619 196.769 104.394 196.406C100.143 196.114 95.8843 196.8 91.626 196.673C89.2935 196.603 86.9674 196.889 84.6539 197.048C81.1837 197.283 77.7072 197.62 74.2752 198.211C72.1842 198.574 70.0995 199.018 68.1039 199.768C67.2014 200.105 66.2925 200.518 66.2608 201.72C65.4599 201.574 64.6718 201.389 63.941 200.798C64.5066 200.131 65.3201 199.997 66.0383 199.73C66.6548 199.495 67.3031 199.349 67.9259 199.146C68.1865 199.063 68.3645 198.86 68.3263 198.574C68.2882 198.275 68.034 198.135 67.7734 198.173C66.1082 198.415 64.4558 198.752 63.0639 199.756C62.3012 200.309 62.3457 201.237 63.0893 201.834C63.7376 202.355 64.5257 202.578 65.3074 202.794C68.053 203.557 70.8749 203.925 73.6905 204.287C74.3451 204.37 75.0061 204.364 75.7433 204.688C75.2285 205.775 74.7264 206.849 74.2116 207.917C73.9002 208.571 73.3155 208.285 72.8706 208.215C70.6207 207.847 68.3645 207.453 66.1273 207.014C62.1932 206.239 58.2908 205.343 54.4965 204.008C53.3906 203.62 52.3165 203.175 51.2742 202.641C50.5942 202.292 49.9459 201.885 49.3993 201.351C48.3888 200.36 48.3888 199.61 49.3739 198.612C50.0603 197.919 50.9056 197.449 51.7763 197.023C54.719 195.593 57.8523 194.728 61.011 193.972C68.1229 192.269 75.3493 191.182 82.5947 190.222C89.8401 189.269 97.1109 188.557 104.394 187.921C109.301 187.489 114.214 187.228 119.127 186.86C126.061 186.332 133.007 186.021 139.954 185.709C148.68 185.315 157.413 185.144 166.146 184.928C177.624 184.648 189.096 184.502 200.58 184.572C208.099 184.616 215.618 184.724 223.13 184.883C229.626 185.023 236.127 185.201 242.623 185.493C249.417 185.798 256.217 186.046 262.999 186.542C268.007 186.911 273.028 187.165 278.036 187.553C284.106 188.023 290.169 188.589 296.226 189.262C301.825 189.885 307.412 190.584 312.973 191.493C319.233 192.517 325.481 193.635 331.487 195.764C332.491 196.12 333.464 196.559 334.423 197.016C334.97 197.277 335.497 197.595 335.98 197.963C337.716 199.279 337.716 200.423 335.98 201.707C334.868 202.527 333.616 203.105 332.332 203.582C327.318 205.451 322.093 206.487 316.85 207.472C315.973 207.637 315.941 207.046 315.751 206.569C314.88 204.357 313.208 202.953 311.124 201.961C310.806 201.809 310.45 201.612 310.119 201.631C308.664 201.72 307.901 200.824 307.056 199.826C304.202 196.463 300.414 194.703 296.156 193.934C288.002 192.466 280.439 194.283 273.295 198.237C272.183 198.853 271.096 199.508 270.092 200.29C269.437 200.798 268.91 200.944 268.083 200.429C266.062 199.171 263.819 198.535 261.404 198.758C260.876 198.809 260.419 198.701 259.948 198.466C256.669 196.807 253.186 196.47 249.576 196.832C244.924 197.302 240.551 198.726 236.318 200.633C235.454 201.021 234.831 201.11 234.036 200.385C232.937 199.387 231.507 198.885 230.058 198.574C229.244 198.402 228.526 198.084 227.802 197.709C224.427 195.942 220.81 195.364 217.035 195.605C209.98 196.057 203.644 198.713 197.517 202.006C194.879 203.429 192.324 204.999 189.865 206.709C189.21 207.167 188.543 207.376 187.742 207.345C186.071 207.281 184.393 207.294 182.715 207.275C182.016 206.944 181.31 206.963 180.598 207.249C179.575 207.249 178.552 207.249 177.535 207.243C175.482 206.868 173.423 207.052 171.364 207.122L171.37 207.116Z" fill="#FA4616"/>
<path d="M337.491 197.517C333.76 194.848 329.527 193.754 325.282 192.744C318.074 191.028 310.753 189.922 303.399 188.988C297.762 188.276 292.118 187.672 286.462 187.157C281.409 186.7 276.356 186.274 271.291 185.937C266.13 185.594 260.963 185.244 255.796 185.002C251.334 184.793 246.872 184.583 242.411 184.392C235.559 184.1 228.714 183.96 221.863 183.776C202.51 183.261 183.157 183.49 163.804 183.693C158.072 183.75 152.339 184.087 146.606 184.246C142.043 184.373 137.48 184.596 132.916 184.85C128.76 185.079 124.616 185.53 120.446 185.409C115.775 185.269 111.148 184.697 106.68 183.21C105.67 182.873 104.665 182.492 103.871 181.736C103.572 181.45 103.255 181.125 103.439 180.681C103.591 180.318 104.011 180.312 104.367 180.287C106.896 180.083 109.419 179.854 111.949 179.683C116.913 179.346 121.87 178.99 126.834 178.742C132.153 178.481 137.48 178.227 142.806 178.005C150.42 177.687 158.034 177.585 165.641 177.344C170.821 177.179 176.001 177.274 181.174 177.077C188.541 176.797 195.907 176.861 203.267 176.988C209.819 177.102 216.372 177.07 222.918 177.248C229.515 177.426 236.112 177.623 242.709 177.865C246.968 178.017 251.232 178.202 255.484 178.469C261.052 178.825 266.632 179.047 272.193 179.543C275.377 179.829 278.574 179.956 281.752 180.242C286.449 180.668 291.146 181.138 295.83 181.64C299.51 182.034 303.19 182.447 306.857 182.975C315.144 184.164 323.426 185.397 331.389 188.123C332.737 188.587 334.033 189.172 335.273 189.871C336.754 190.71 337.631 191.899 337.612 193.672C337.612 194.276 337.764 194.879 337.796 195.49C337.828 196.138 337.942 196.812 337.478 197.511L337.491 197.517Z" fill="#C30000"/>
<path d="M161.286 25.0931C159.366 23.199 158.184 20.9936 158.305 18.2034C158.381 16.411 159.074 14.8602 160.097 13.4365C161.381 11.6378 163.033 10.2268 164.87 9.01288C169.027 6.26082 173.641 4.58925 178.439 3.42614C185.729 1.65922 193.134 1.06813 200.627 1.46219C206.938 1.7927 213.122 2.77785 219.09 4.91339C221.861 5.9049 224.581 7.02352 226.901 8.91119C226.958 9.06373 227.066 9.15907 227.232 9.17814C227.276 9.34974 227.378 9.45144 227.562 9.46415V9.45779C227.46 9.95354 227.778 10.3031 227.962 10.7226C229.456 14.0213 228.827 16.4428 226.285 18.661C222.91 21.6037 218.759 22.43 214.323 21.788C212.378 21.5084 210.421 21.2414 208.463 21.0762C206.951 20.9491 205.425 20.8601 203.938 20.6631C201.269 20.3071 198.587 20.466 195.911 20.2245C193.356 19.9957 190.757 20.2563 188.176 20.3643C183.467 20.555 178.795 20.9173 174.149 21.6546C170.342 22.2584 166.593 23.0656 163.014 24.5338C162.455 24.7626 161.921 25.074 161.292 25.0994L161.286 25.0931ZM165.785 16.7606C166.084 16.7352 166.338 16.7225 166.586 16.6843C171.245 16.0233 175.414 14.1865 179.145 11.3391C179.831 10.8179 180.441 10.2014 180.88 9.44508C181.7 8.02774 181.179 6.92818 179.552 6.74386C178.7 6.64853 177.836 6.68031 176.978 6.84556C173.139 7.57647 169.669 9.15271 166.453 11.3391C165.658 11.8794 164.883 12.4641 164.273 13.2204C163.675 13.9577 162.887 14.7204 163.415 15.7755C163.891 16.7352 164.934 16.6335 165.773 16.7543L165.785 16.7606ZM188.634 4.17612C187.388 4.22061 186.289 4.55747 185.392 5.39008C184.426 6.2926 184.611 7.36038 185.812 7.94511C187.108 8.58069 189.969 7.9896 190.916 6.89005C191.621 6.07015 191.449 5.10407 190.502 4.61467C189.905 4.30959 189.25 4.21426 188.634 4.17612Z" fill="#FA4616"/>
<path d="M66.2656 201.73C66.2974 200.529 67.2063 200.116 68.1088 199.779C70.1044 199.029 72.1891 198.584 74.2801 198.222C77.7184 197.624 81.195 197.294 84.6588 197.059C86.9786 196.9 89.2984 196.62 91.6309 196.684C95.8955 196.804 100.147 196.124 104.399 196.417C109.624 196.779 114.848 196.493 120.066 196.728C124.006 196.906 127.947 197.129 131.887 197.332C135.618 197.523 139.349 197.853 143.067 198.241C148.488 198.807 153.903 199.455 159.28 200.383C162.966 201.018 166.627 201.794 170.18 203.027C170.955 203.294 171.693 203.631 172.392 204.037C173.574 204.736 173.536 205.417 172.341 206.16C171.832 206.478 171.178 206.567 170.803 207.101C164.46 207.025 158.111 207.107 151.768 206.853C148.113 206.707 144.452 206.751 140.798 206.681C136.432 206.592 132.065 206.503 127.705 206.364C122.176 206.186 116.647 205.957 111.124 205.772C110.024 205.734 109.102 205.474 108.225 204.705C105.995 202.753 103.446 201.444 100.37 201.559C99.8169 201.578 99.4102 201.311 98.9716 201.056C96.709 199.754 94.3384 198.781 91.7199 198.451C86.3112 197.758 81.5954 199.309 77.4833 202.804C77.032 203.192 76.6189 203.484 76.0024 203.389C72.7484 202.9 69.4434 202.696 66.272 201.743L66.2656 201.73Z" fill="#C30000"/>
<path d="M303.752 221.66C302.862 218.749 300.853 216.702 298.457 215.011C293.633 211.598 288.193 209.622 282.486 208.249C277.414 207.029 272.272 206.87 267.111 207.079C265.611 207.143 264.124 207.537 262.637 207.81C262.287 207.874 261.951 207.976 261.595 207.887C262.993 206.546 264.626 205.516 266.183 204.391C268.777 202.522 271.357 200.616 274.16 199.065C279.924 195.868 286.07 194.196 292.699 194.603C296.023 194.806 299.214 195.588 302.144 197.247C308.099 200.609 310.584 206.634 308.677 213.2C307.743 216.422 306.084 219.244 303.752 221.66Z" fill="#A1B700"/>
<path d="M186.808 208.773C184.94 210.235 182.95 211.564 181.234 213.191C179.626 214.722 177.904 215.167 175.75 215.066C171.695 214.881 167.627 214.983 163.566 214.881C156.765 214.71 149.971 214.5 143.171 214.258C139.014 214.112 134.858 213.896 130.701 213.667C125.737 213.394 120.78 213.07 115.816 212.79C115.212 212.759 114.761 212.625 114.443 212.047C113.528 210.394 112.308 208.964 111.094 207.528C110.967 207.382 110.801 207.242 110.916 206.86C136.148 207.877 161.443 208.246 186.732 208.456C186.751 208.557 186.777 208.659 186.796 208.767L186.808 208.773Z" fill="#FA4616"/>
<path d="M161.295 25.0962C161.925 25.0644 162.452 24.7594 163.018 24.5306C166.596 23.056 170.346 22.2552 174.153 21.6514C178.799 20.9077 183.477 20.5518 188.18 20.3611C190.76 20.2595 193.36 19.9925 195.914 20.2213C198.59 20.4628 201.266 20.3039 203.942 20.6599C205.429 20.8569 206.961 20.9459 208.467 21.073C210.424 21.2382 212.382 21.5052 214.327 21.7848C218.763 22.4204 222.913 21.6005 226.288 18.6578C228.83 16.4396 229.459 14.0181 227.966 10.7194C227.775 10.3063 227.457 9.9567 227.565 9.45459C230.661 11.3995 232.694 14.1134 232.891 17.8061C233.012 20.1006 231.887 22.1217 230.381 23.8632C229.917 24.3971 229.409 24.8992 228.887 25.3886C226.676 27.4733 226.638 27.4161 223.644 26.9585C219.684 26.3547 215.706 25.8843 211.708 25.5411C205.486 25.0009 199.251 24.645 193.004 24.7848C186.362 24.9373 179.727 25.2932 173.123 26.1513C170.359 26.5072 167.594 26.8695 164.842 27.3398C164.219 27.4479 163.774 27.3144 163.304 26.9521C162.579 26.3928 161.893 25.7954 161.289 25.1089L161.295 25.0962Z" fill="#C30000"/>
<path d="M253.776 212.24C251.882 209.704 249.365 207.988 246.511 206.704C244.751 205.916 242.959 205.268 241.071 204.874C238.033 204.251 234.989 203.997 231.913 204.569C231.671 204.613 231.41 204.569 231.156 204.569C235.891 201.747 240.925 199.662 246.321 198.486C249.473 197.8 252.645 197.558 255.835 198.207C259.102 198.874 261.784 200.476 263.653 203.304C264.288 204.27 264.275 204.289 263.36 204.982C260.17 207.404 256.973 209.819 253.782 212.24H253.776Z" fill="#A1B700"/>
<path d="M119.181 214.155C138.426 215.388 157.696 215.998 177.049 216.239C177.081 216.881 176.528 217.072 176.197 217.377C175.301 218.197 174.475 219.271 173.407 219.684C172.396 220.078 171.106 219.798 169.937 219.767C162.73 219.57 155.522 219.385 148.321 219.137C144.114 218.991 139.906 218.769 135.699 218.534C131.396 218.292 127.094 217.993 122.784 217.726C122.263 217.695 121.806 217.618 121.437 217.18C120.662 216.252 119.855 215.356 119.054 214.441C119.098 214.345 119.136 214.25 119.181 214.148V214.155Z" fill="#FA4616"/>
<path d="M224.494 207.039C224.494 206.587 224.214 206.295 223.89 206.034C220.464 203.314 216.645 201.515 212.272 200.912C209.45 200.524 206.654 200.473 203.838 200.912C203.393 200.981 202.936 200.912 202.478 200.905C206.323 198.897 210.403 197.632 214.681 196.977C218.024 196.462 221.335 196.564 224.589 197.594C227.201 198.42 229.451 199.831 231.339 201.814C231.542 202.03 231.809 202.214 231.828 202.729C229.356 204.02 226.934 205.545 224.488 207.039H224.494Z" fill="#A1B700"/>
<path d="M171.372 207.118C173.431 207.048 175.491 206.863 177.543 207.238C175.484 207.34 173.425 207.473 171.372 207.118Z" fill="#C30000"/>
<path d="M180.595 207.245C181.307 206.959 182.012 206.94 182.711 207.27C182.006 207.365 181.3 207.378 180.595 207.245Z" fill="#C30000"/>
<path d="M70.8128 74.3748C70.7687 74.5828 70.6426 74.6837 70.4346 74.6837C70.4913 74.5008 70.6111 74.3874 70.8128 74.3748Z" fill="#C30000"/>
<path d="M71.0917 74.0195C71.0917 74.2213 70.9972 74.3474 70.8018 74.3852C70.8144 74.196 70.9341 74.0889 71.0917 74.0195Z" fill="#C30000"/>
<path d="M227.548 9.45411C227.365 9.4415 227.264 9.34063 227.22 9.17041C227.403 9.18302 227.522 9.25867 227.548 9.45411Z" fill="#C30000"/>
<path d="M227.212 9.16664C227.042 9.15403 226.941 9.05316 226.884 8.90186C227.061 8.90186 227.174 8.99012 227.212 9.16664Z" fill="#C30000"/>
<path d="M205.333 33.8293C212.667 33.931 219.887 34.9925 227.056 36.4734C244.306 40.039 260.913 45.5367 276.789 53.1891C283.069 56.2145 289.094 59.6593 294.42 64.2037C296.009 65.5575 297.47 67.0384 298.602 68.818C300.979 72.5616 300.032 75.5043 295.92 77.195C293.587 78.1547 291.127 78.5297 288.642 78.6632C282.84 78.9809 277.069 78.536 271.336 77.6653C252.161 74.7607 233.851 68.9579 216.201 61.0067C210.131 58.2738 204.291 55.1213 198.857 51.2506C196.537 49.5981 194.363 47.7676 192.45 45.6448C191.56 44.6596 190.785 43.5982 190.245 42.3779C189.063 39.6957 189.749 37.5221 192.266 36.003C194.084 34.9035 196.117 34.484 198.183 34.1726C200.554 33.8166 202.937 33.8293 205.327 33.8421L205.333 33.8293Z" fill="white"/>
<path d="M328.785 99.2421C328.785 101.225 327.787 102.369 325.817 102.598C324.794 102.719 323.802 102.522 322.824 102.229C321.406 101.803 320.091 101.149 318.845 100.373C314.65 97.7676 311.129 94.4562 308.377 90.344C307.271 88.6915 306.407 86.9246 306.096 84.9225C305.695 82.3611 307.011 80.7785 309.61 80.8103C311.638 80.8357 313.494 81.5793 315.216 82.5454C320.561 85.5517 324.705 89.772 327.609 95.1871C328.467 96.7888 328.785 98.0536 328.792 99.2357L328.785 99.2421Z" fill="white"/>
<path d="M116.484 103.52C116.484 100.825 116.541 98.1305 116.465 95.442C116.388 92.7026 116.077 89.9823 115.086 87.3891C114.317 85.368 113.287 83.5375 111.476 82.2282C110.452 81.491 109.359 81.0906 108.082 81.1096C105.641 81.1478 103.207 81.1223 100.766 81.1223C100.461 81.1223 100.156 81.1414 99.8575 81.1033C99.5778 81.0715 99.419 80.8745 99.4126 80.5821C99.4126 80.3469 99.5588 80.2135 99.7431 80.1181C100.124 79.9147 100.538 79.9974 100.938 79.9974C103.124 79.9846 105.311 79.8829 107.491 80.0164C110.198 80.188 112.041 78.8914 113.503 76.8449C114.825 74.9953 115.492 72.8725 115.95 70.6734C116.331 68.8683 116.344 67.0442 116.338 65.2201C116.319 59.9893 116.312 54.7585 116.299 49.5213C116.299 49.1145 116.299 48.7078 116.357 48.3073C116.395 48.0404 116.585 47.8561 116.884 47.8688C117.177 47.8815 117.361 48.0595 117.393 48.3328C117.437 48.7332 117.443 49.1399 117.443 49.5467C117.456 54.9301 117.456 60.3134 117.482 65.7032C117.494 68.8811 117.99 71.9636 119.337 74.8746C119.922 76.1267 120.659 77.2771 121.702 78.205C122.954 79.3236 124.365 79.9974 126.106 79.9338C127.93 79.8639 129.761 79.9147 131.591 79.9084C131.896 79.9084 132.201 79.9084 132.506 79.9211C132.786 79.9338 133.008 80.08 133.04 80.366C133.078 80.7219 132.856 80.9507 132.532 81.0079C132.189 81.0651 131.826 81.0588 131.47 81.0588C129.437 81.0715 127.409 81.1033 125.375 81.0651C124.308 81.0461 123.405 81.3766 122.547 81.9804C121.041 83.0354 120.03 84.4655 119.28 86.1053C118.124 88.6349 117.583 91.3107 117.571 94.0755C117.558 99.9673 117.583 105.859 117.596 111.751C117.596 112.158 117.596 112.564 117.539 112.965C117.513 113.162 117.348 113.321 117.119 113.346C116.814 113.384 116.617 113.206 116.566 112.946C116.503 112.603 116.496 112.24 116.496 111.891C116.496 109.094 116.496 106.304 116.496 103.507H116.471L116.484 103.52Z" fill="white"/>
<path d="M162.017 135.079C161.997 136.992 161.991 138.905 161.966 140.812C161.966 141.282 162.137 141.981 161.419 141.987C160.739 141.987 160.828 141.32 160.822 140.824C160.796 138.809 160.771 136.801 160.739 134.786C160.758 129.969 161.063 125.138 160.485 120.333C160.224 118.153 159.601 116.062 158.565 114.117C157.866 112.802 156.945 111.67 155.712 110.806C154.727 110.113 153.665 109.751 152.439 109.77C149.947 109.808 147.462 109.789 144.971 109.783C144.5 109.783 143.789 109.999 143.776 109.261C143.77 108.569 144.469 108.664 144.958 108.664C147.195 108.651 149.439 108.53 151.663 108.683C154.777 108.893 156.748 107.316 158.254 104.882C159.474 102.912 160.078 100.713 160.447 98.4438C160.707 96.8358 160.733 95.215 160.726 93.5879C160.701 88.408 160.688 83.2216 160.676 78.0417C160.676 77.6857 160.676 77.3298 160.714 76.9802C160.745 76.7006 160.942 76.5163 161.228 76.5226C161.514 76.529 161.699 76.7324 161.718 77.0057C161.756 77.4124 161.75 77.8192 161.756 78.226C161.781 83.5585 161.794 88.8974 161.832 94.2299C161.851 96.9819 162.175 99.6959 163.161 102.295C163.93 104.317 164.966 106.153 166.777 107.45C167.8 108.187 168.9 108.607 170.171 108.588C172.103 108.556 174.035 108.575 175.961 108.569C176.266 108.569 176.571 108.562 176.876 108.581C177.156 108.6 177.372 108.778 177.41 109.039C177.461 109.395 177.187 109.611 176.882 109.674C176.539 109.744 176.177 109.725 175.821 109.725C173.787 109.738 171.753 109.77 169.726 109.732C168.658 109.713 167.749 110.037 166.891 110.641C165.792 111.422 164.921 112.395 164.254 113.552C162.881 115.922 162.099 118.509 162.004 121.217C161.845 125.837 161.889 130.458 162.004 135.085L162.017 135.079Z" fill="white"/>
<path d="M202.834 309.024C203.628 309.068 204.95 309.126 206.266 309.215C206.704 309.24 207.124 309.431 207.035 309.946C206.965 310.346 206.558 310.416 206.177 310.384C204.048 310.225 201.925 310.174 199.79 310.34C191.121 311.013 183.087 313.575 175.772 318.303C173.719 319.632 171.844 321.189 170.198 323.007C169.994 323.229 169.772 323.439 169.537 323.623C169.365 323.757 169.155 323.731 168.978 323.598C168.749 323.426 168.634 323.178 168.781 322.937C168.99 322.594 169.257 322.282 169.53 321.99C172.518 318.786 176.109 316.416 180.011 314.503C187.04 311.051 194.476 309.215 202.834 309.018V309.024Z" fill="#100905"/>
<path d="M353.14 191.589C353.318 189.866 352.676 188.328 352.479 186.72C352.143 183.974 353.185 181.877 355.257 180.25C357.558 178.445 360.17 177.981 362.998 178.756C366.436 179.697 369.71 181.051 372.83 182.754C374.095 183.447 375.093 184.477 376.014 185.557C377.158 186.904 377.184 188.506 376.377 190.095C375.588 191.652 374.324 192.695 372.932 193.654C370.11 195.593 366.983 196.921 363.818 198.154C359.521 199.826 355.104 201.141 350.624 202.235C349.791 202.438 348.946 202.578 348.1 202.737C347.954 202.762 347.795 202.762 347.643 202.743C347.185 202.692 346.67 202.629 346.518 202.133C346.346 201.561 346.861 201.377 347.255 201.148C349.848 199.641 351.749 197.55 352.645 194.633C352.956 193.616 353.261 192.593 353.121 191.576L353.14 191.589Z" fill="#C30000"/>
<path d="M11.5566 185.403C11.1816 185.353 10.724 185.321 10.2855 185.219C8.90633 184.901 8.65846 184.145 9.63087 183.077C10.4571 182.168 11.5185 181.545 12.5735 180.935C15.4844 179.264 18.5605 177.967 21.7065 176.804C26.0856 175.183 30.5345 173.81 35.155 173.041C36.5533 172.813 37.9642 172.59 39.3879 172.806C39.9789 172.895 40.6781 172.921 40.8751 173.645C41.0658 174.338 40.5573 174.796 40.1251 175.209C39.1654 176.124 38.0341 176.817 36.871 177.44C32.5238 179.772 27.935 181.52 23.2319 182.963C19.7427 184.037 16.2089 184.952 12.5608 185.302C12.2557 185.327 11.957 185.359 11.5693 185.397L11.5566 185.403Z" fill="white"/>
<path d="M275.679 161.014C283.452 161.11 291.168 161.771 298.782 163.436C300.116 163.728 301.451 164.04 302.69 164.644C303.053 164.822 303.491 165.019 303.44 165.489C303.39 165.953 302.926 166.067 302.532 166.175C300.993 166.582 299.417 166.595 297.847 166.639C295.057 166.722 292.267 166.55 289.483 166.341C283.77 165.915 278.081 165.247 272.469 164.04C271.236 163.773 270.003 163.468 268.866 162.877C268.548 162.711 268.198 162.534 268.192 162.127C268.179 161.599 268.656 161.472 269.012 161.37C269.641 161.192 270.302 161.046 270.957 161.027C272.527 160.976 274.103 161.014 275.673 161.014H275.679Z" fill="white"/>
<path d="M18.6294 194.835C22.7097 194.924 26.7201 195.75 30.7813 196.125C33.2473 196.354 35.6942 196.729 38.1793 196.704C39.0373 196.697 39.8635 197.009 40.7342 197.015C41.427 197.021 41.7638 197.612 41.9926 198.191C42.5202 199.557 43.0159 200.93 43.6006 202.519C34.8108 201.108 26.5803 198.496 18.6294 194.835Z" fill="#C30000"/>
<path d="M47.0994 173.519C46.3876 173.519 45.6694 173.564 45.0211 173.189C44.3093 172.776 44.1949 172.235 44.6652 171.555C44.9639 171.129 45.3771 170.824 45.8156 170.583C48.021 169.35 50.3789 168.663 52.9212 168.784C53.7156 168.822 54.6817 168.822 54.955 169.763C55.2283 170.723 54.402 171.225 53.722 171.638C51.6945 172.871 49.4701 173.468 47.0994 173.519Z" fill="white"/>
<path d="M165.776 16.7627C164.931 16.6419 163.895 16.7436 163.418 15.7839C162.897 14.7288 163.679 13.9661 164.276 13.2288C164.886 12.4725 165.662 11.8878 166.456 11.3475C169.666 9.16112 173.142 7.58488 176.981 6.85396C177.839 6.68871 178.703 6.65693 179.555 6.75227C181.182 6.93659 181.703 8.03614 180.883 9.45349C180.445 10.2098 179.828 10.82 179.148 11.3475C175.417 14.1949 171.248 16.0254 166.589 16.6927C166.342 16.7309 166.087 16.7436 165.789 16.769L165.776 16.7627Z" fill="white"/>
<path d="M188.641 4.18018C189.258 4.21831 189.912 4.31365 190.51 4.61873C191.457 5.10177 191.622 6.0742 190.923 6.8941C189.982 7.99366 187.116 8.58475 185.819 7.94917C184.625 7.36443 184.434 6.29666 185.4 5.39413C186.29 4.56152 187.396 4.22467 188.641 4.18018Z" fill="white"/>
</g>
<defs>
<clipPath id="clip0_432_2599">
<rect width="384.057" height="367.886" fill="white" transform="translate(0.248047 0.130127)"/>
</clipPath>
</defs>
</svg>
