<svg width="333" height="466" viewBox="0 0 333 466" fill="none" xmlns="http://www.w3.org/2000/svg">
<g clip-path="url(#clip0_432_2740)">
<path d="M216.23 215.428C215.814 219.95 215.107 224.318 213.637 228.52C213.422 229.138 213.429 229.692 213.609 230.296C215.495 236.62 216.889 243.055 217.694 249.608C218.935 259.704 218.873 269.724 215.877 279.564C215.412 281.103 214.892 282.622 214.178 284.064C213.789 284.855 213.886 285.278 214.649 285.784C217.603 287.746 220.502 289.785 223.422 291.796C228.033 294.965 232.666 298.106 237.236 301.324C238.123 301.948 238.81 302.038 239.795 301.601C246.466 298.633 253.158 295.714 259.85 292.795C260.523 292.503 261.05 292.17 261.396 291.442C262.922 288.239 267.832 285.035 272.693 286.706C273.317 286.921 273.754 286.699 274.253 286.491C275.682 285.916 277.02 285.111 278.602 284.91C280.765 284.633 282.575 285.222 283.879 286.984C285.197 288.766 286.417 290.617 287.644 292.455C293.352 300.97 299.038 309.485 304.753 318.001C305.689 319.395 306.063 320.83 305.758 322.543C305.078 326.357 304.482 330.191 303.983 334.033C303.671 336.425 302.54 338.013 300.293 338.887C298.657 339.525 297.069 340.281 295.377 341.023C295.723 341.647 296.285 341.903 296.771 342.229C307.54 349.642 318.303 357.055 329.08 364.454C329.912 365.022 330.661 365.66 331.264 366.465C331.944 367.373 332.367 368.372 332.367 369.537C332.339 375.244 332.353 380.957 332.27 386.664C332.242 388.571 331.021 389.937 329.634 391.089C324.003 395.755 318.352 400.408 312.714 405.061C289.621 424.103 266.528 443.131 243.456 462.193C241.986 463.407 240.53 464.565 238.602 464.925C236.078 465.39 233.768 464.863 231.667 463.372C229.635 461.93 227.583 460.515 225.537 459.086C156.98 411.177 88.4298 363.247 19.845 315.387C16.8354 313.285 15.5316 310.692 15.5732 307.149C15.6356 302.329 15.5732 297.503 15.5871 292.684C15.5871 289.917 16.6412 287.705 18.8603 285.937C36.3706 271.985 53.8461 257.991 71.3356 244.012C79.2551 237.681 87.1746 231.343 95.0941 225.012C95.524 224.665 95.954 224.311 96.4255 223.923C96.0372 223.139 95.3368 222.675 94.7473 222.113C91.9595 219.492 89.9554 216.427 89.6225 212.523C89.0816 206.24 92.9096 200.631 99.5462 199.472C103.971 198.703 108.145 199.653 112.188 201.324C117.757 203.626 122.472 207.156 126.633 211.476C126.925 211.781 127.126 212.197 127.694 212.377C127.916 211.614 127.875 210.852 127.889 210.11C127.993 204.451 127.778 198.807 127.597 193.155C127.382 186.29 126.952 179.432 126.342 172.595C125.482 162.998 124.49 153.408 122.313 143.998C121.696 141.342 121.196 138.707 121.307 135.961C121.654 127.508 130.017 124.194 135.753 126.184C138.485 127.134 140.766 128.749 142.805 130.746C146.051 133.922 148.485 137.681 150.593 141.661C153.977 148.055 156.314 154.85 158.221 161.798C158.332 162.207 158.29 162.679 158.72 162.97C159.268 162.54 159.497 161.895 159.816 161.334C165.829 150.738 171.39 139.907 176.522 128.86C178.082 125.497 179.76 122.183 181.806 119.076C183.034 117.218 184.407 115.484 186.154 114.083C192.285 109.16 199.212 111.733 202.423 117.349C203.651 119.499 204.108 121.898 204.511 124.311C205.988 133.16 204.753 141.744 202.042 150.19C201.078 153.193 199.982 156.147 198.81 159.018C198.984 159.337 199.206 159.274 199.407 159.205C202.264 158.206 205.086 158.511 207.874 159.461C211.751 160.779 214.934 163.13 217.666 166.111C221.771 170.591 224.469 175.792 225.294 181.859C225.703 184.862 225.565 187.851 224.295 190.659C223.9 191.533 224.157 191.879 224.809 192.393C228.9 195.603 231.223 199.791 231.605 205.006C231.757 207.079 231.445 209.097 230.585 211.004C228.415 215.831 223.311 217.828 218.006 215.962C217.444 215.768 216.945 215.352 216.196 215.428H216.23ZM164.206 414.485C164.317 414.748 164.518 414.866 164.802 414.852L164.83 414.887C164.948 415.379 165.392 415.546 165.745 415.795C176.238 423.132 186.73 430.462 197.215 437.798C207.208 444.781 217.194 451.771 227.187 458.754C228.914 459.96 230.655 461.146 232.374 462.359C235.599 464.627 239.073 464.273 241.709 462.027C244.531 459.62 247.43 457.297 250.294 454.933C257.686 448.831 265.079 442.728 272.478 436.633C279.614 430.746 286.764 424.866 293.9 418.978C301.25 412.918 308.601 406.843 315.952 400.783C320.272 397.225 324.607 393.689 328.906 390.104C330.265 388.967 331.188 387.58 331.028 385.645C330.938 384.549 331.014 383.426 331.091 382.324C331.25 379.931 329.946 378.718 327.547 379.037C324.794 379.404 322.589 380.874 320.474 382.504C318.851 383.752 317.291 385.083 315.702 386.387C309.073 391.844 302.443 397.302 295.821 402.773C287.832 409.367 279.85 415.976 271.854 422.57C263.303 429.623 254.746 436.661 246.195 443.706C244.788 444.871 243.463 446.147 241.979 447.208C239.233 449.177 235.62 449.69 232.166 447.451C230.495 446.369 228.879 445.19 227.243 444.046C217.34 437.125 207.451 430.184 197.534 423.291C194.948 421.489 192.444 419.568 189.712 417.973C189.386 417.501 188.887 417.245 188.436 416.926C181.078 411.781 173.727 406.628 166.369 401.483C121.12 369.863 75.8709 338.249 30.6286 306.615C26.0655 303.425 21.4262 300.346 16.9949 296.962C16.7799 297.343 16.9047 297.787 16.8978 298.21C16.8839 301.206 16.9602 304.201 16.87 307.19C16.766 310.352 17.9727 312.606 20.6287 314.443C34.7686 324.207 48.8254 334.088 62.9029 343.928C94.8375 366.25 126.772 388.571 158.714 410.886C160.295 411.989 161.917 413.036 163.519 414.11C163.686 414.346 163.908 414.492 164.206 414.485L164.275 414.409L164.213 414.492L164.206 414.485ZM193.907 169.294C193.713 169.308 193.637 169.405 193.685 169.593C192.125 171.943 190.593 174.308 188.991 176.624C188.519 177.303 188.346 177.914 188.457 178.767C189.49 186.665 189.421 194.563 188.2 202.44C187.888 204.465 187.444 206.469 186.827 208.425C186.709 208.799 186.501 209.215 186.03 209.118C185.44 209 185.502 208.494 185.6 208.05C185.655 207.78 185.78 207.523 185.849 207.26C186.459 205.068 186.896 202.843 187.188 200.589C188.117 193.412 188.186 186.228 187.188 179.058C187 177.699 187 176.562 188.214 175.681C188.471 175.494 188.609 175.154 188.796 174.876C194.386 166.534 198.602 157.548 201.432 147.916C203.255 141.71 204.289 135.399 203.776 128.902C203.72 128.174 203.602 127.494 203.255 126.836C201.05 122.619 198.859 118.39 196.695 114.153C196.418 113.612 196.05 113.265 195.489 113.119C194.192 112.787 192.895 112.627 191.55 112.904C189.233 113.383 187.361 114.596 185.738 116.247C183.894 118.119 182.493 120.31 181.217 122.585C179.296 126.017 177.625 129.575 175.939 133.125C173.852 137.521 171.73 141.904 169.622 146.293C169.234 146.48 169.136 146.883 168.963 147.215C165.967 152.943 162.951 158.664 159.643 164.218C159.164 165.016 159.185 165.772 159.386 166.597C160.232 170.085 160.787 173.635 161.397 177.172C161.571 178.184 161.411 179.28 161.98 180.216C162.139 182.206 162.264 184.196 162.458 186.179C163.152 193.252 163.173 200.339 162.902 207.433C162.881 207.995 163.006 208.875 162.153 208.827C161.238 208.771 161.619 207.891 161.633 207.357C161.772 202.926 161.869 198.502 161.689 194.064C161.314 184.564 160.094 175.195 157.944 165.945C156.057 157.832 153.499 149.941 149.629 142.528C147.542 138.534 145.114 134.768 141.855 131.599C140.094 129.887 138.152 128.437 135.808 127.584C133.069 126.586 130.385 126.69 127.757 128C126.952 128.403 126.571 128.867 126.564 129.914C126.55 135.087 125.919 140.191 124.317 145.135C124.178 145.565 124.061 145.953 124.158 146.418C125.052 150.648 125.656 154.926 126.203 159.212C126.98 165.259 127.576 171.319 127.999 177.394C128.298 181.644 128.589 185.902 128.887 190.153C128.679 190.86 128.735 191.588 128.811 192.295C128.977 193.786 128.977 195.277 128.998 196.768C129.095 202.246 129.165 207.717 129.04 213.196C129.026 213.82 129.109 214.34 129.546 214.867C133.804 220.047 136.599 225.955 137.999 232.487C138.381 234.269 138.949 235.281 140.898 235.496C142.708 235.697 144.248 236.869 145.981 237.417C146.744 237.965 147.5 238.52 148.263 239.061C150.718 240.822 152.812 242.937 154.539 245.419C154.761 245.738 154.976 246.064 155.163 246.404C155.336 246.716 155.35 247.07 155.038 247.305C154.719 247.541 154.407 247.409 154.171 247.125C154.067 247 153.977 246.855 153.88 246.723C150.094 241.175 145.066 237.452 138.36 236.217C137.646 236.086 137.341 235.781 137.23 235.052C136.758 232.029 135.877 229.124 134.712 226.294C130.253 215.518 122.708 207.683 112.167 202.752C108.721 201.137 105.059 200.228 101.211 200.568C96.7168 200.963 93.3049 203.002 91.6267 207.371C90.4339 210.47 90.5379 213.549 92.0636 216.545C92.8264 218.043 93.7141 219.457 94.9554 220.574C100.94 225.941 104.976 232.646 108.249 239.865C110.808 245.502 112.584 251.369 113.007 257.582C113.326 262.18 114.047 266.715 115.253 271.166C116.342 275.195 117.653 279.127 120.302 282.455C120.635 282.878 120.69 283.35 120.69 283.863C120.69 287.129 120.877 290.395 120.773 293.668C120.669 296.99 120.683 300.318 120.649 303.64C120.274 304.132 120.448 304.708 120.406 305.249C120.239 307.627 120.163 310.006 119.955 312.377C119.213 320.879 118.131 329.338 116.349 337.694C114.796 344.968 112.854 352.118 109.692 358.886C109.192 359.953 109.213 359.967 110.413 360.806C126.536 372.075 142.66 383.336 158.783 394.604C180.357 409.679 201.924 424.762 223.498 439.844C226.542 441.973 229.559 444.129 232.645 446.196C235.696 448.241 238.838 448.019 241.695 445.689C242.125 445.336 242.562 444.996 242.985 444.635C244.323 443.491 244.101 443.762 243.519 442.493C243.262 441.938 243.026 441.376 242.784 440.821C238.103 429.796 234.261 418.472 230.759 407.03C229.58 403.175 228.415 399.306 227.243 395.443C227.146 394.958 227.069 394.466 226.938 393.987C225.932 390.249 224.906 386.512 223.907 382.774C223.47 381.138 223.068 379.501 222.638 377.837C221.556 378.052 220.766 378.586 219.913 378.94C215.523 380.749 210.301 379.002 208.242 375.077C207.805 374.245 207.25 373.475 206.744 372.685C203.124 367.054 199.469 361.437 195.884 355.786C194.317 353.317 193.665 351.868 196.875 349.691C197.576 349.212 197.5 348.845 197.077 348.234C195.662 346.189 194.323 344.081 192.902 342.042C191.896 340.607 191.48 339.053 191.758 337.334C192.423 333.125 193.138 328.922 193.776 324.713C194.115 322.473 195.336 321.01 197.402 320.15C199.344 319.346 201.258 318.472 203.179 317.633C205.156 316.766 207.118 315.872 209.108 315.047C209.857 314.742 210.079 314.36 209.947 313.542C209.524 310.921 209.372 308.258 208.782 305.665C209.032 304.215 208.574 302.808 208.477 301.379C208.311 298.98 208.027 296.595 207.763 293.862C205.045 296.636 202.035 298.439 198.845 299.965C198.679 299.992 198.519 300.013 198.353 300.062C197.798 300.214 197.07 300.755 196.771 299.944C196.466 299.112 197.382 299.098 197.902 298.869C197.95 298.848 197.999 298.814 198.054 298.8C202.451 297.087 206.036 294.299 208.921 290.583C211.681 287.032 213.54 283.038 214.802 278.746C217.409 269.877 217.59 260.841 216.64 251.73C215.898 244.657 214.434 237.736 212.444 230.913C212.167 229.963 212.194 229.117 212.513 228.174C213.873 224.11 214.608 219.922 214.878 215.643C214.934 214.783 214.705 214.243 213.984 213.695C212.16 212.322 210.565 210.699 209.337 208.758C209.06 208.328 208.512 207.759 209.15 207.308C209.83 206.83 210.072 207.572 210.377 208.002C210.475 208.14 210.544 208.293 210.641 208.425C212.832 211.282 215.329 213.757 218.859 214.894C224.289 216.642 229.219 213.743 230.141 208.127C231.112 202.225 228.775 197.531 224.406 193.696C224.046 193.384 223.671 193.058 223.158 192.913C221.958 194.397 220.606 195.589 218.866 196.303C217.354 196.928 215.766 197.108 214.164 197.212C212.097 196.935 210.058 196.512 207.923 195.575V203.543C207.784 204.417 207.617 205.29 207.506 206.164C207.139 209.077 206.723 211.975 205.877 214.797C205.717 215.324 205.502 215.837 205.273 216.337C205.128 216.656 204.864 216.905 204.483 216.787C203.991 216.642 204.018 216.219 204.136 215.837C204.351 215.151 204.656 214.492 204.83 213.799C206.182 208.459 206.653 203.016 206.792 197.524C206.841 195.728 206.307 194.605 204.705 193.655C202.111 192.129 200.059 189.917 198.214 187.532C197.916 187.143 197.479 186.686 197.992 186.235C198.533 185.756 198.866 186.29 199.185 186.679C199.712 187.317 200.218 187.982 200.78 188.593C204.06 192.108 207.818 194.82 212.68 195.693C217.652 196.588 221.861 194.105 223.484 189.321C224.365 186.734 224.4 184.078 223.956 181.443C222.86 174.987 219.705 169.627 214.92 165.217C213.124 163.56 211.147 162.138 208.831 161.264C207.728 160.599 206.487 160.328 205.253 160.099C203.096 159.704 200.967 159.829 198.956 160.793C198.464 161.029 197.923 161.237 197.659 161.764C196.404 164.267 195.163 166.77 193.914 169.274L193.894 169.308L193.907 169.294ZM226.3 386.637C226.993 389.39 227.673 392.143 228.588 394.833C229.275 397.912 230.252 400.908 231.168 403.924C235.01 416.641 239.184 429.234 244.469 441.439C244.656 441.869 244.684 442.43 245.259 442.687C245.641 442.389 246.036 442.09 246.417 441.778C259.621 430.892 272.832 420.005 286.036 409.104C289.919 405.9 293.775 402.662 297.637 399.437C300.814 397.01 303.879 394.452 306.888 391.824C308.99 390.243 311.022 388.585 312.956 386.803C314.655 385.659 316.146 384.258 317.727 382.968C321.41 379.959 325.092 376.949 328.733 373.891C332.062 371.097 331.937 368.087 328.449 365.584C328.178 365.39 327.901 365.21 327.63 365.015C324.537 362.887 321.451 360.737 318.338 358.636C314.815 356.257 311.403 353.719 307.783 351.48C307.714 351.396 307.658 351.292 307.575 351.23C303.248 348.248 298.906 345.28 294.6 342.271C293.955 341.82 293.449 341.848 292.776 342.16C290.564 343.172 288.324 344.115 286.105 345.107C282.832 346.57 279.489 347.874 276.285 349.496C275.973 349.607 275.654 349.691 275.356 349.822C261.23 356.008 247.111 362.193 232.992 368.379C229.906 369.731 226.82 371.09 223.727 372.435C223.214 372.657 222.659 372.81 222.895 373.586C223.609 375.965 223.976 378.44 224.836 380.784C225.142 382.781 225.759 384.695 226.307 386.637H226.3ZM74.0332 335.233C74.1927 335.385 74.3314 335.552 74.5117 335.676C85.3507 343.256 96.1898 350.835 107.036 358.414C107.216 358.539 107.403 358.664 107.584 358.788C107.937 359.038 108.201 358.927 108.374 358.567C108.596 358.123 108.818 357.672 109.012 357.221C111.737 351.015 113.596 344.552 114.914 337.916C115.704 334.858 116.197 331.745 116.689 328.624C117.909 320.851 118.7 313.036 119.109 305.172C119.477 298.196 119.588 291.22 119.393 284.238C119.38 283.662 119.262 283.17 118.901 282.705C117.493 280.895 116.536 278.843 115.711 276.721C113.43 270.834 112.258 264.683 111.8 258.435C111.363 252.499 109.886 246.882 107.57 241.446C105.143 235.767 102.105 230.448 98.1731 225.656C97.653 225.025 97.23 224.769 96.6058 225.462C96.4602 225.622 96.2591 225.74 96.0857 225.878C77.5214 240.725 58.9571 255.564 40.3927 270.411C33.3817 276.014 26.3706 281.623 19.3735 287.247C17.0503 289.112 16.3291 291.893 17.404 294.542C17.9449 295.873 18.888 296.823 20.06 297.642C37.8199 310.033 55.566 322.446 73.3189 334.851C73.5408 335.004 73.7974 335.108 74.0401 335.233H74.0332ZM220.294 359.544C221.404 359.634 222.361 359.156 223.318 358.733C248.567 347.673 273.824 336.606 299.073 325.531C300.342 324.977 301.625 324.45 302.852 323.819C304.6 322.924 305.072 321.399 304.191 319.637C303.872 318.999 303.456 318.403 303.053 317.8C299.336 312.225 295.619 306.649 291.882 301.081C288.976 296.761 286.077 292.434 283.116 288.155C281.778 286.221 279.954 285.701 277.721 286.47C276.882 286.755 276.077 287.136 275.266 287.49C253.102 297.191 230.939 306.885 208.775 316.586C205.072 318.209 201.362 319.811 197.68 321.475C195.024 322.675 194.365 324.991 195.884 327.494C196.057 327.778 196.237 328.056 196.425 328.333C199.92 333.589 203.408 338.852 206.917 344.102C209.746 348.338 212.59 352.568 215.44 356.784C216.598 358.497 218.207 359.447 220.287 359.53L220.294 359.544ZM194.712 328.014C194.497 328.77 194.358 329.123 194.303 329.498C193.921 331.849 193.679 334.22 193.158 336.536C192.673 338.686 193.297 340.406 194.476 342.139C198.172 347.596 201.792 353.102 205.454 358.587C208.033 362.457 210.613 366.333 213.228 370.175C215.093 372.907 217.777 373.663 220.745 372.366C225.821 370.147 230.897 367.935 235.967 365.709C244.08 362.152 252.194 358.587 260.301 355.023C265.738 352.631 270.634 349.476 274.683 345.072C275.744 343.921 276.674 342.68 277.194 341.196C277.513 340.288 277.658 339.31 276.854 338.561C276.077 337.833 275.106 337.646 274.066 337.909C273.851 337.965 273.657 338.076 273.456 338.166C265.238 341.765 257.021 345.364 248.81 348.969C240.342 352.686 231.882 356.424 223.408 360.113C219.899 361.638 216.529 360.675 214.386 357.492C209.407 350.093 204.476 342.659 199.531 335.246C197.999 332.951 196.473 330.649 194.712 328.014ZM213.186 286.304C212.028 288.308 210.939 290.173 209.524 291.817C209.074 292.344 209.074 292.885 209.108 293.509C209.469 299.59 210.232 305.623 210.974 311.663C211.064 312.405 211.217 313.133 211.362 314.007C219.961 310.241 228.394 306.552 237.083 302.752C229.053 297.219 221.182 291.803 213.186 286.304ZM263.338 291.255C265.925 290.125 268.518 288.995 271.105 287.864C267.769 287.261 265.259 288.606 263.338 291.255Z" fill="#0F0C07"/>
<path d="M85.6082 46.1416C85.1782 43.0767 84.7552 40.0117 84.5888 36.9121C84.1658 29.0901 84.7899 21.4069 87.8065 14.0773C89.5402 9.86821 92.0298 6.19995 95.837 3.50944C98.5346 1.6025 101.496 0.499944 104.762 0.243374C110.324 -0.200423 115.386 1.42221 120.157 4.10579C126.738 7.79485 132.106 12.8916 136.759 18.7511C147.126 31.8084 153.61 46.634 156.655 62.992C157.709 68.6782 158.187 74.4198 157.868 80.1961C157.549 86.0417 156.537 91.7417 153.999 97.095C152.972 99.2585 151.724 101.283 150.129 103.072C145.205 108.606 139.054 110.541 131.835 109.237C126.371 108.252 121.634 105.673 117.231 102.4C115.136 100.846 113.181 99.1268 111.315 97.303C110.934 96.9286 110.525 96.5819 110.136 96.2352C109.602 96.6235 109.915 96.9979 109.984 97.3308C111.842 105.867 112.82 114.493 112.356 123.244C111.919 131.51 110.344 139.505 106.392 146.89C104.436 150.545 101.946 153.783 98.7357 156.418C93.5901 160.641 87.647 162.52 81.0174 162.312C74.7276 162.111 68.9579 160.121 63.4863 157.181C55.4212 152.847 48.6876 146.876 42.7306 140.005C32.3631 128.036 24.9707 114.382 19.9153 99.4249C17.0443 90.9443 15.1164 82.2486 14.3744 73.3242C13.5561 63.526 14.0485 53.8457 17.2107 44.4358C18.9097 39.3945 21.3508 34.7624 24.9915 30.8376C30.9276 24.4372 38.3132 21.7606 46.9747 22.4471C55.0051 23.085 62.0092 26.3927 68.5487 30.8376C74.3115 34.7555 79.3322 39.5194 83.8953 44.7617C84.353 45.2887 84.8315 45.8019 85.2961 46.315C85.4002 46.2595 85.5042 46.204 85.6082 46.1486V46.1416ZM54.4157 149.38C54.4642 149.567 54.589 149.664 54.7832 149.664C54.8803 149.948 55.0883 150.073 55.3796 150.066V150.094C55.4559 150.531 55.8096 150.718 56.1216 150.947C58.2506 152.535 60.442 154.047 62.7582 155.35C69.2283 158.984 76.0174 161.432 83.6041 161.016C86.8079 160.842 89.8453 160.114 92.7302 158.762C98.2503 156.168 102.168 151.897 105.081 146.634C108.826 139.866 110.469 132.488 110.976 124.86C111.489 117.156 111.003 109.487 109.554 101.894C108.902 98.468 108.07 95.091 107.175 91.7278C106.364 88.6767 105.393 85.6881 104.283 82.734C104.138 82.2556 104.013 81.7771 103.84 81.3125C99.1864 69.0457 92.8966 57.7081 84.5402 47.5632C79.0826 40.9409 72.9384 35.0537 65.6084 30.4978C59.9496 26.9821 53.9441 24.4233 47.2105 23.7785C40.9414 23.1752 35.2133 24.5482 30.0677 28.1817C25.1649 31.6489 21.8986 36.392 19.5893 41.8562C16.6837 48.742 15.5464 55.9884 15.3106 63.4012C15.1233 69.4617 15.6088 75.4807 16.6767 81.4373C20.5602 103.045 29.3604 122.391 43.6391 139.152C46.6973 142.737 49.9636 146.135 53.7638 148.964C53.9025 149.22 54.1105 149.373 54.4087 149.387L54.4157 149.38ZM100.677 70.495C101.94 73.3519 103.209 76.2158 104.464 79.0658C104.686 78.9895 104.804 78.9756 104.894 78.9132C109.29 75.8413 113.687 72.7694 118.077 69.6975C118.687 69.2676 119.117 68.699 119.367 68.0125C120.289 65.4884 120.337 62.9574 119.325 60.4402C119.325 60.3847 119.346 60.3293 119.339 60.2738C118.666 57.2435 117.168 54.7194 114.658 52.8749C113.514 52.0289 112.231 51.5504 110.774 52.2369C105.768 54.5946 100.761 56.9453 95.7399 59.2752C95.0741 59.5873 94.7829 59.83 95.2683 60.6066C97.2655 63.7895 98.9229 67.1596 100.657 70.495H100.677ZM119.616 102.421C123.645 105.388 128.07 107.413 133.049 108.148C137.938 108.869 142.39 107.85 146.364 104.868C149.366 102.615 151.398 99.6122 152.959 96.2629C155.309 91.2216 156.266 85.8406 156.558 80.3417C156.946 73.0052 156.058 65.7727 154.415 58.6165C152.799 51.5781 150.386 44.8172 147.334 38.285C145.809 35.0259 144.158 31.8361 142.147 28.8405C142.085 28.688 142.043 28.5215 141.96 28.3828C137.48 21.1781 132.21 14.639 125.532 9.34813C120.83 5.62441 115.712 2.67732 109.672 1.76199C103.854 0.881331 98.6802 2.289 94.3876 6.44959C92.2101 8.55762 90.6082 11.0678 89.3668 13.8208C87.0021 19.0562 86.0798 24.6036 85.8232 30.2828C85.5666 36.0661 86.163 41.7938 87.1893 47.48C87.328 48.2289 87.3696 49.0263 87.8689 49.6851C89.9216 52.3756 91.8633 55.1424 93.6664 57.9993C93.8467 58.2836 94.0339 58.6165 94.4292 58.457C94.9493 58.249 94.7274 57.826 94.6303 57.4654C94.2766 56.1825 93.8744 54.9135 93.5554 53.6238C91.6068 45.7186 90.4487 37.7442 91.7663 29.6033C92.3557 25.9558 93.4306 22.4679 95.7884 19.5277C98.1393 16.6014 101.17 15.2076 104.963 15.485C107.571 15.6722 109.928 16.5737 112.154 17.8635C116.794 20.554 120.441 24.3332 123.666 28.5354C130.511 37.4529 135.088 47.4869 137.973 58.2975C140.115 66.3344 141.232 74.4753 139.984 82.7964C139.47 86.2289 138.486 89.5019 136.488 92.3935C133.742 96.3738 129.581 97.9826 124.887 96.9217C123.312 96.568 121.815 95.9855 120.386 95.2366C116.863 93.3713 113.916 90.7917 111.218 87.8932C110.663 87.2968 110.206 86.5895 109.353 86.007C108.826 87.8862 108.652 89.6614 108.736 91.499C108.784 92.4421 109.082 93.191 109.741 93.8706C111.516 95.7012 113.278 97.5457 115.247 99.1753C116.648 100.333 118.007 101.54 119.616 102.414V102.421ZM110.657 82.3388C110.275 83.157 109.568 83.9337 110.365 84.8906C113.659 88.8224 117.314 92.3311 122.016 94.5432C124.29 95.6111 126.71 96.2282 129.256 95.722C131.912 95.195 134.054 93.8983 135.323 91.395C135.934 90.8888 136.308 90.2231 136.648 89.5227C137.66 87.4078 138.285 85.1819 138.666 82.8727C139.498 77.7899 139.304 72.707 138.555 67.645C136.849 56.1063 132.896 45.365 126.835 35.4004C123.742 30.3106 120.129 25.6299 115.518 21.7952C113.028 19.7288 110.344 17.9952 107.175 17.1215C102.668 15.8803 98.7912 17.3018 96.1768 21.1712C95.4278 22.2737 94.8522 23.4664 94.3807 24.7146C93.1393 28.0223 92.6539 31.4617 92.5707 34.9704C92.4043 42.2931 93.604 49.4146 95.7052 56.4114C96.0936 57.6942 96.1074 57.7081 97.3626 57.1256C101.53 55.184 105.712 53.284 109.831 51.2592C111.558 50.4132 113.132 50.5657 114.734 51.4048C115.629 51.8694 116.392 52.5143 117.057 53.2701C120.129 56.7719 121.551 60.8701 121.274 65.4953C121.142 67.7004 120.233 69.5172 118.541 71.1537C115.227 74.3574 112.453 78.0326 110.65 82.3388H110.657Z" fill="#121212"/>
<path d="M204.095 83.7814C204.047 83.0187 204.227 82.2975 204.574 81.6803C207.237 76.9581 211.099 73.7683 216.488 72.6726C218.547 72.2497 219.518 72.8599 220.537 74.7183C238.457 107.462 256.376 140.206 274.296 172.95C282.777 188.448 291.251 203.946 299.739 219.444C300.038 219.985 300.246 220.533 300.377 221.136C301.75 227.412 303.151 233.681 304.531 239.956C304.649 240.497 304.739 241.052 304.746 241.6C304.753 242.238 304.275 242.439 303.741 242.05C303.519 241.891 303.338 241.669 303.151 241.468C298.429 236.475 293.699 231.482 288.99 226.483C288.692 226.164 288.463 225.775 288.242 225.394C260.523 179.108 232.819 132.821 205.101 86.5344C204.581 85.6676 204.081 84.8146 204.102 83.7814H204.095ZM281.328 211.172C282.943 214.258 284.864 217.17 286.619 220.173C287.423 221.552 288.269 222.912 289.157 224.382C290.156 222.953 290.689 221.442 291.438 220.041C292.16 218.689 292.243 218.647 293.775 218.89C295.183 219.112 296.577 219.451 298.013 219.424C298.096 218.917 297.805 218.619 297.624 218.293C292.666 209.216 287.701 200.139 282.735 191.062C282.555 190.729 282.451 190.334 282.049 190.175C281.161 188.455 280.315 186.714 279.386 185.016C262.784 154.643 246.175 124.271 229.56 93.9055C229.331 93.4825 229.213 92.9625 228.616 92.6643C225.933 97.865 221.786 101.041 215.642 101.603C216.065 102.324 216.391 102.885 216.723 103.447C236.238 136.045 255.752 168.651 275.28 201.249C277.271 204.57 279.157 207.954 281.321 211.165L281.328 211.172ZM210.635 93.2606C211.869 95.3271 213.055 97.1785 214.109 99.1063C214.587 99.98 215.177 100.237 216.099 100.181C219.476 99.9869 222.237 98.5099 224.574 96.1592C225.052 95.6738 225.295 95.0566 225.461 94.4048C226.404 90.8267 225.399 87.6092 223.672 84.35C220.586 89.1971 216.557 92.3869 210.635 93.2537V93.2606ZM220.212 76.8402C219.296 78.6778 218.311 80.0577 217.112 81.2851C215.149 83.296 212.791 84.7314 210.295 85.9657C208.929 86.6384 208.416 87.5884 208.686 89.0376C208.783 89.5785 208.943 90.1194 209.158 90.6256C209.74 92.0055 209.969 92.1234 211.425 91.8946C214.428 91.4161 216.952 89.9946 219.164 87.9698C220.69 86.576 221.959 84.9811 222.819 83.0741C223.069 82.5194 223.083 82.0548 222.777 81.5139C221.959 80.0716 221.175 78.6084 220.212 76.8471V76.8402ZM301.653 232.966C300.821 229.139 300.01 225.422 299.212 221.705C299.087 221.136 298.775 220.894 298.193 220.824C296.709 220.644 295.232 220.436 293.762 220.186C293.096 220.075 292.749 220.311 292.472 220.901C291.834 222.253 291.168 223.584 290.475 224.909C290.19 225.457 290.149 225.873 290.627 226.365C293.158 229 295.655 231.663 298.186 234.339C299.275 233.701 300.336 233.119 301.66 232.966H301.653ZM207.521 85.2515C207.986 85.1475 208.658 85.0712 209.269 84.8493C212.958 83.511 215.94 81.2365 218.138 77.9705C218.568 77.3256 218.936 76.6391 219.074 75.8694C219.289 74.6836 218.686 73.9278 217.486 73.8723C216.765 73.8445 216.058 74.0179 215.378 74.2467C211.869 75.4256 209.047 77.5613 206.807 80.4807C206.266 81.1811 205.822 81.9508 205.552 82.8037C205.038 84.4263 205.662 85.2862 207.521 85.2654V85.2515Z" fill="#121212"/>
<path d="M259.973 87.7036C259.37 87.6758 259.266 87.2598 259.252 86.7883C259.196 85.3528 259.21 83.9036 259.078 82.4751C258.371 74.5076 256.048 67.074 251.443 60.4586C248.316 55.9583 244.384 52.3871 239.189 50.3692C237.789 49.8283 236.339 49.4885 234.869 49.225C234.467 49.1557 234.085 49.1349 234.051 48.6079C234.016 48.0323 234.349 47.8798 234.855 47.7896C243.225 46.375 248.801 41.1604 252.962 34.1984C257.178 27.1531 259.071 19.4213 259.245 11.2388C259.252 10.795 259.231 10.3512 259.279 9.91437C259.321 9.56072 259.55 9.29029 259.945 9.32496C260.25 9.34576 260.458 9.58153 260.493 9.86583C260.542 10.3582 260.528 10.8574 260.542 11.3567C260.798 20.4129 263.087 28.852 268.232 36.3896C271.325 40.9177 275.236 44.5097 280.41 46.5692C281.859 47.1447 283.35 47.5331 284.883 47.7758C285.34 47.8451 285.791 47.859 285.777 48.49C285.763 49.0794 285.361 49.1418 284.883 49.2181C277.65 50.4385 272.421 54.6546 268.322 60.4725C264.328 66.1517 262.116 72.5382 261.062 79.3616C260.694 81.7193 260.514 84.0908 260.542 86.4762C260.542 86.9755 260.604 87.5025 259.959 87.6897L259.973 87.7036ZM259.931 19.0815C259.772 19.5878 259.716 19.7403 259.682 19.8998C259.585 20.3297 259.494 20.7666 259.397 21.1965C258.094 27.0352 255.944 32.5272 252.456 37.4298C248.94 42.3739 244.592 46.271 238.725 48.2404C238.503 48.3166 238.343 48.4415 238.267 48.705C244.647 50.813 249.342 55.0429 253.017 60.528C256.2 65.2849 258.218 70.5273 259.418 76.1025C259.543 76.6919 259.682 77.2744 259.813 77.8638C260.68 74.57 261.506 71.3594 262.761 68.2667C265.216 62.2061 268.683 56.8805 273.877 52.7893C276.193 50.9656 278.78 49.6342 281.561 48.6911C281.422 48.3236 281.145 48.2612 280.888 48.171C276.478 46.6524 272.879 43.9688 269.806 40.5086C266.034 36.2509 263.475 31.3206 261.714 25.9465C261.006 23.7899 260.555 21.571 259.938 19.0746L259.931 19.0815Z" fill="#121212"/>
<path d="M26.8166 242.505C26.1925 242.505 26.0815 242.11 26.0676 241.625C26.0191 240.182 26.026 238.74 25.8943 237.311C25.18 229.337 22.8638 221.903 18.2522 215.295C15.0136 210.656 10.9499 206.995 5.51995 205.046C4.32024 204.616 3.09973 204.262 1.82373 204.131C1.36604 204.082 0.922212 204.027 0.873669 203.423C0.825125 202.799 1.28282 202.702 1.71971 202.626C11.3798 200.899 17.1426 194.471 21.3035 186.233C24.5212 179.854 25.9775 173.009 26.0676 165.867C26.0676 165.59 26.0607 165.312 26.0676 165.035C26.0815 164.619 26.1786 164.238 26.6848 164.21C27.1911 164.182 27.3506 164.536 27.3644 164.959C27.3852 165.402 27.3575 165.846 27.3644 166.29C27.628 175.291 29.9095 183.688 35.0065 191.184C38.2243 195.907 42.3158 199.63 47.7804 201.634C49.0286 202.092 50.3115 202.432 51.6361 202.598C52.073 202.654 52.5931 202.702 52.6069 203.299C52.6208 203.943 52.1354 204.054 51.5945 204.138C45.9565 204.984 41.4975 207.924 37.7527 212.057C32.9538 217.368 30.1661 223.699 28.5641 230.606C27.7597 234.073 27.3506 237.589 27.3506 241.146C27.3506 241.666 27.5517 242.297 26.8027 242.512L26.8166 242.505ZM26.6918 173.848C26.4976 174.736 26.3589 175.381 26.2133 176.026C24.9165 181.871 22.7528 187.357 19.2785 192.266C15.8111 197.176 11.47 201.01 5.71413 203.063C5.54076 203.125 5.27724 203.139 5.25643 203.416C5.36739 203.735 5.65865 203.77 5.91524 203.86C10.298 205.434 13.8971 208.125 16.9415 211.606C21.8028 217.174 24.6252 223.72 26.2202 230.856C26.352 231.445 26.3728 232.069 26.8166 232.721C26.983 231.979 27.1079 231.389 27.2396 230.8C28.5433 224.954 30.7001 219.476 34.1744 214.56C37.614 209.706 41.8927 205.878 47.5862 203.846C47.8497 203.756 48.1202 203.687 48.2172 203.305C47.9953 203.195 47.7665 203.056 47.5168 202.973C43.7305 201.634 40.5197 199.415 37.7319 196.565C33.0925 191.822 30.1106 186.129 28.2243 179.826C27.6626 177.94 27.2327 176.012 26.6779 173.855L26.6918 173.848Z" fill="#121212"/>
<path d="M128.887 190.143C128.588 185.892 128.297 181.634 127.999 177.383C127.569 171.302 126.98 165.241 126.203 159.202C125.655 154.916 125.052 150.638 124.157 146.408C124.06 145.943 124.178 145.555 124.317 145.125C125.919 140.181 126.55 135.077 126.563 129.904C126.563 128.864 126.952 128.392 127.756 127.99C130.385 126.68 133.061 126.576 135.808 127.574C138.145 128.427 140.093 129.876 141.855 131.589C145.107 134.758 147.541 138.517 149.628 142.518C153.498 149.93 156.057 157.815 157.943 165.935C160.093 175.185 161.314 184.554 161.688 194.054C161.861 198.492 161.764 202.916 161.633 207.347C161.619 207.881 161.23 208.761 162.153 208.817C163.013 208.872 162.881 207.985 162.902 207.423C163.172 200.329 163.151 193.242 162.458 186.169C162.264 184.186 162.139 182.196 161.979 180.206C162.486 179.443 162.506 178.535 162.576 177.689C162.874 173.951 163.526 170.262 164.275 166.601C165.648 159.895 167.305 153.259 169.788 146.859C169.878 146.637 169.843 146.429 169.628 146.283C171.736 141.894 173.859 137.511 175.946 133.115C177.631 129.564 179.302 126.007 181.223 122.575C182.499 120.3 183.893 118.102 185.745 116.237C187.374 114.586 189.247 113.38 191.556 112.894C192.901 112.617 194.198 112.769 195.495 113.109C196.057 113.255 196.424 113.602 196.702 114.142C198.865 118.379 201.057 122.609 203.262 126.825C203.609 127.484 203.727 128.164 203.782 128.892C204.295 135.389 203.255 141.699 201.438 147.906C198.616 157.537 194.392 166.524 188.803 174.866C188.616 175.144 188.477 175.483 188.22 175.671C187.014 176.551 187.007 177.689 187.194 179.048C188.193 186.218 188.123 193.402 187.194 200.579C186.903 202.832 186.466 205.058 185.856 207.25C185.779 207.513 185.661 207.77 185.606 208.04C185.509 208.484 185.44 208.99 186.036 209.108C186.501 209.205 186.709 208.789 186.833 208.415C187.451 206.459 187.888 204.455 188.207 202.43C189.427 194.553 189.496 186.655 188.463 178.756C188.352 177.91 188.526 177.293 188.997 176.614C190.599 174.298 192.132 171.926 193.692 169.582C193.851 169.548 193.928 169.451 193.914 169.284L193.935 169.249C194.58 169.249 194.885 168.729 195.259 168.348C196.813 166.76 198.532 165.387 200.405 164.208C202.991 162.579 205.689 161.226 208.858 161.233C211.174 162.107 213.151 163.529 214.947 165.186C219.732 169.596 222.887 174.956 223.983 181.412C224.427 184.047 224.392 186.703 223.511 189.29C221.882 194.081 217.679 196.557 212.707 195.662C207.853 194.789 204.087 192.077 200.807 188.562C200.238 187.958 199.739 187.293 199.212 186.648C198.893 186.266 198.56 185.732 198.019 186.204C197.506 186.655 197.943 187.105 198.241 187.501C200.079 189.886 202.138 192.091 204.732 193.624C206.341 194.574 206.868 195.697 206.819 197.493C206.674 202.985 206.202 208.428 204.857 213.768C204.684 214.461 204.378 215.12 204.163 215.807C204.039 216.195 204.011 216.611 204.51 216.757C204.885 216.867 205.155 216.625 205.301 216.306C205.53 215.807 205.745 215.293 205.904 214.766C206.75 211.944 207.166 209.046 207.534 206.133C207.645 205.252 207.811 204.386 207.95 203.512C208.248 203.45 208.414 203.276 208.518 202.992C209.552 200.218 211.41 198.256 214.191 197.181C215.8 197.077 217.381 196.897 218.893 196.273C220.633 195.551 221.993 194.366 223.185 192.882C223.706 193.02 224.08 193.346 224.434 193.665C228.803 197.5 231.14 202.194 230.169 208.096C229.246 213.712 224.316 216.611 218.886 214.863C215.349 213.726 212.853 211.251 210.668 208.394C210.564 208.262 210.495 208.109 210.405 207.971C210.1 207.541 209.857 206.799 209.177 207.277C208.539 207.728 209.094 208.297 209.364 208.727C210.592 210.668 212.187 212.298 214.011 213.664C214.732 214.205 214.961 214.746 214.905 215.612C214.635 219.891 213.893 224.079 212.541 228.143C212.229 229.086 212.194 229.932 212.471 230.882C214.462 237.698 215.925 244.626 216.667 251.699C217.617 260.81 217.437 269.846 214.829 278.715C213.567 283 211.701 287.001 208.948 290.552C206.064 294.261 202.478 297.056 198.082 298.769C198.033 298.79 197.985 298.817 197.929 298.838C197.409 299.067 196.494 299.081 196.799 299.913C197.097 300.724 197.825 300.183 198.38 300.031C198.539 299.989 198.706 299.968 198.865 299.934C199.85 300.065 200.842 299.871 201.833 300.079C204.496 300.634 206.396 302.173 207.783 304.455C208.054 304.899 208.102 305.557 208.81 305.634C209.392 308.234 209.552 310.89 209.975 313.511C210.106 314.336 209.885 314.711 209.136 315.016C207.138 315.841 205.176 316.736 203.206 317.602C201.279 318.448 199.365 319.315 197.43 320.119C195.363 320.979 194.15 322.442 193.803 324.682C193.158 328.891 192.451 333.094 191.785 337.303C191.514 339.022 191.931 340.569 192.929 342.011C194.358 344.05 195.689 346.158 197.104 348.203C197.527 348.814 197.61 349.181 196.903 349.66C193.692 351.837 194.344 353.286 195.911 355.755C199.496 361.406 203.151 367.023 206.771 372.654C207.277 373.444 207.832 374.214 208.269 375.046C210.328 378.971 215.55 380.718 219.94 378.909C220.8 378.555 221.583 378.014 222.665 377.806C223.095 379.47 223.498 381.114 223.934 382.743C224.94 386.481 225.959 390.219 226.965 393.956C227.097 394.435 227.166 394.927 227.27 395.412C225.911 395.197 224.559 394.962 223.192 394.767C217.88 394.032 212.7 392.75 207.589 391.148C203.102 389.74 198.727 388.069 194.392 386.238C189.08 383.991 184.018 381.287 179.039 378.409C174.684 375.892 170.509 373.091 166.438 370.137C161.778 366.76 157.368 363.091 153.193 359.146C149.414 355.575 145.787 351.865 142.451 347.857C139.795 344.667 137.243 341.415 134.92 337.989C131.563 333.038 128.616 327.858 126.244 322.352C123.963 317.055 122.257 311.604 121.328 305.904C121.203 305.141 121.342 304.233 120.669 303.595C120.704 300.273 120.69 296.945 120.794 293.623C120.898 290.35 120.718 287.084 120.711 283.818C120.711 283.312 120.662 282.834 120.322 282.411C117.673 279.082 116.362 275.143 115.274 271.122C114.067 266.67 113.346 262.142 113.027 257.537C112.604 251.324 110.829 245.458 108.27 239.82C104.989 232.601 100.953 225.896 94.9757 220.529C93.7344 219.412 92.8398 217.991 92.0839 216.5C90.5583 213.504 90.4542 210.425 91.647 207.326C93.3252 202.964 96.7441 200.925 101.231 200.523C105.08 200.183 108.741 201.092 112.188 202.708C122.722 207.645 130.267 215.474 134.733 226.25C135.905 229.079 136.778 231.984 137.25 235.008C137.361 235.736 137.666 236.041 138.38 236.173C145.086 237.407 150.114 241.131 153.9 246.678C153.99 246.817 154.081 246.955 154.192 247.08C154.434 247.365 154.739 247.496 155.058 247.261C155.37 247.032 155.35 246.678 155.183 246.359C154.996 246.019 154.781 245.693 154.559 245.374C152.832 242.892 150.745 240.777 148.283 239.016C147.52 238.468 146.764 237.92 146.002 237.372C146.085 236.824 145.794 236.443 145.468 236.041C143.831 234.078 142.507 231.908 141.314 229.661C138.172 223.732 135.724 217.519 133.817 211.084C132.035 205.051 130.579 198.942 129.615 192.715C129.483 191.869 129.76 190.801 128.907 190.115L128.887 190.143ZM205.384 226.728C205.987 226.201 205.966 225.695 205.294 225.258C204.413 224.682 203.539 224.1 202.638 223.559C194.795 218.899 186.313 216.015 177.354 214.482C173.921 213.893 170.46 213.484 166.965 213.449C166.369 213.449 165.703 213.282 165.481 214.115C163.463 214.461 162.09 215.73 161.168 217.422C160.128 219.336 160.093 221.278 161.411 223.178C162.222 224.35 163.234 225.244 164.406 225.993C167.909 228.219 171.702 229.925 175.169 232.206C178.657 234.501 181.875 237.046 184.08 240.694C185.682 243.336 187.035 246.13 188.831 248.668C190.793 251.442 193.186 253.647 196.279 255.076C199.33 256.49 202.291 256.497 204.996 254.285C206.75 252.843 207.769 250.894 208.525 248.772C209.344 246.47 209.156 244.085 209.205 241.713C209.302 237.338 208.38 233.163 206.729 229.134C206.376 228.274 206.209 227.317 205.391 226.714L205.384 226.728Z" fill="#DBF505"/>
<path d="M74.0307 335.23C73.788 335.105 73.5314 335.001 73.3095 334.849C55.5565 322.443 37.8104 310.031 20.0505 297.639C18.8786 296.821 17.9354 295.871 17.3945 294.54C16.3196 291.891 17.0409 289.11 19.364 287.245C26.3612 281.621 33.3722 276.018 40.3832 270.408C58.9476 255.562 77.5119 240.722 96.0762 225.876C96.2496 225.737 96.4438 225.619 96.5964 225.46C97.2205 224.766 97.6504 225.023 98.1636 225.654C102.089 230.446 105.133 235.764 107.56 241.443C109.876 246.873 111.36 252.497 111.79 258.433C112.248 264.687 113.42 270.831 115.702 276.718C116.527 278.84 117.484 280.9 118.892 282.703C119.252 283.167 119.37 283.653 119.384 284.235C119.578 291.218 119.46 298.194 119.1 305.17C118.69 313.033 117.893 320.848 116.679 328.622C116.194 331.735 115.702 334.856 114.904 337.914C113.143 337.789 111.388 337.775 109.62 337.623C106.444 337.345 103.254 337.116 100.071 336.929C96.8807 336.742 93.6976 336.444 90.5146 336.284C88.0389 336.159 85.577 335.702 83.0805 335.875C82.8031 335.896 82.5257 335.875 82.2553 335.84C79.523 335.487 76.7838 335.286 74.0237 335.237L74.0307 335.23ZM65.6951 267.343C67.512 267.309 68.9406 266.671 70.2374 265.637C77.6853 259.688 85.1402 253.745 92.595 247.809C93.2122 247.317 93.7531 246.776 94.1831 246.124C95.9168 243.517 94.7378 240.66 91.6657 240.057C89.197 239.571 87.0888 240.383 85.1818 241.901C77.9349 247.664 70.6881 253.419 63.4552 259.188C63.0252 259.528 62.6369 259.944 62.3109 260.388C61.2569 261.823 60.8546 263.398 61.6868 265.062C62.5259 266.733 64.0585 267.281 65.6882 267.35L65.6951 267.343Z" fill="#D0E6EC"/>
<path d="M120.643 303.603C121.316 304.234 121.177 305.149 121.302 305.912C122.232 311.612 123.938 317.062 126.219 322.36C128.591 327.866 131.538 333.046 134.894 337.997C137.218 341.422 139.776 344.675 142.426 347.864C145.761 351.872 149.395 355.589 153.167 359.153C157.342 363.099 161.753 366.767 166.413 370.144C170.491 373.098 174.658 375.9 179.013 378.417C183.992 381.295 189.055 383.999 194.367 386.246C198.701 388.077 203.077 389.748 207.564 391.155C212.675 392.757 217.855 394.047 223.167 394.775C224.526 394.962 225.885 395.198 227.245 395.42C228.417 399.282 229.582 403.145 230.76 407.007C234.263 418.449 238.104 429.773 242.785 440.798C243.021 441.36 243.264 441.922 243.52 442.469C244.103 443.738 244.325 443.468 242.986 444.612C242.563 444.973 242.127 445.312 241.697 445.666C238.846 447.996 235.698 448.218 232.647 446.172C229.561 444.106 226.544 441.942 223.5 439.82C201.926 424.738 180.359 409.656 158.785 394.581C142.661 383.313 126.538 372.044 110.415 360.783C109.208 359.944 109.194 359.923 109.694 358.862C112.856 352.094 114.804 344.945 116.351 337.671C118.133 329.315 119.215 320.862 119.957 312.354C120.165 309.982 120.241 307.597 120.408 305.225C120.442 304.691 120.276 304.109 120.65 303.617L120.643 303.603Z" fill="#A5BB00"/>
<path d="M220.29 359.538C218.209 359.455 216.601 358.505 215.443 356.792C212.592 352.569 209.749 348.346 206.92 344.109C203.411 338.86 199.923 333.597 196.427 328.341C196.24 328.063 196.06 327.786 195.886 327.502C194.368 324.998 195.034 322.682 197.683 321.483C201.365 319.818 205.075 318.217 208.778 316.594C230.942 306.893 253.105 297.192 275.269 287.498C276.08 287.144 276.884 286.763 277.724 286.478C279.957 285.709 281.78 286.229 283.119 288.163C286.08 292.442 288.979 296.769 291.884 301.089C295.622 306.65 299.339 312.232 303.056 317.807C303.458 318.404 303.868 319 304.194 319.645C305.074 321.413 304.603 322.932 302.855 323.826C301.628 324.457 300.338 324.984 299.076 325.539C273.826 336.606 248.577 347.674 223.32 358.741C222.363 359.164 221.406 359.642 220.297 359.552L220.29 359.538ZM244.915 335.532C245.782 335.601 246.989 335.428 248.188 335.24C255.033 334.152 260.921 331.232 265.65 326.115C267.599 324.007 269.041 321.58 269.617 318.744C270.172 316.032 270.588 313.286 270.726 310.526C270.969 305.763 268.889 302.663 264.437 300.881C262.086 299.938 259.61 299.605 257.107 299.73C250.297 300.069 244.284 302.524 239.069 306.886C235.845 309.583 233.41 312.863 232.634 317.072C232.121 319.839 231.788 322.648 231.684 325.477C231.545 329.429 233.459 332.106 236.829 333.867C239.236 335.122 241.85 335.539 244.901 335.539L244.915 335.532ZM204.708 331.544C204.86 331.489 205.172 331.385 205.477 331.253C206.344 330.893 207.211 330.518 208.071 330.151C211.677 328.597 215.29 327.065 218.889 325.491C220.006 324.998 220.137 324.679 219.555 323.75C218.32 321.781 217.01 319.86 215.755 317.905C215.276 317.163 214.707 317.045 213.917 317.391C209.416 319.382 204.895 321.33 200.394 323.327C199.291 323.82 199.201 324.097 199.825 325.095C201.053 327.065 202.35 328.999 203.626 330.941C203.841 331.267 204.083 331.572 204.714 331.544H204.708ZM284.527 296.699C283.958 293.718 282.654 290.992 280.178 288.912C279.776 288.572 279.298 288.434 278.791 288.649C278.216 288.898 278.258 289.439 278.264 289.932C278.264 290.486 278.368 291.02 278.556 291.554C279.277 293.551 280.345 295.34 281.787 296.894C282.086 297.213 282.432 297.504 282.786 297.753C283.147 298.01 283.542 298.232 284.013 298.01C284.513 297.774 284.416 297.275 284.527 296.699ZM218.265 316.136C218.223 317.454 219.416 318.764 220.692 318.813C221.746 318.855 222.696 317.96 222.745 316.857C222.807 315.54 221.621 314.257 220.311 314.222C219.173 314.195 218.286 315.013 218.258 316.129L218.265 316.136ZM285.74 299.626C285.199 299.626 284.859 299.924 284.762 300.416C284.589 301.283 285.407 302.781 286.253 303.155C286.739 303.37 287.12 303.259 287.37 302.815C287.786 302.094 287.446 301.436 287.12 300.805C286.808 300.208 286.399 299.702 285.74 299.626Z" fill="#FA4616"/>
<path d="M307.79 351.477C311.403 353.717 314.822 356.255 318.344 358.633C321.458 360.734 324.544 362.884 327.637 365.013C327.908 365.2 328.185 365.387 328.455 365.581C331.944 368.092 332.068 371.101 328.74 373.889C325.099 376.947 321.417 379.956 317.734 382.966C316.153 384.256 314.662 385.656 312.963 386.8C309.94 386.662 306.923 386.391 303.906 386.162C300.723 385.92 297.54 385.719 294.357 385.483C291.063 385.233 287.769 385.074 284.475 384.817C281.348 384.581 278.22 384.353 275.092 384.158C272.013 383.964 268.948 383.68 265.876 383.5C262.742 383.312 259.621 383.035 256.493 382.834C253.31 382.626 250.127 382.3 246.944 382.182C242.756 382.023 238.602 381.419 234.406 381.44C234.184 381.44 233.962 381.447 233.74 381.419C230.786 381.045 227.832 380.781 224.85 380.781C223.99 378.438 223.63 375.969 222.908 373.584C222.673 372.8 223.22 372.654 223.741 372.433C226.833 371.087 229.913 369.728 233.005 368.376C247.125 362.191 261.251 355.998 275.37 349.82C275.668 349.688 275.987 349.605 276.299 349.494C278.171 349.584 280.037 349.626 281.916 349.771C285.155 350.028 288.4 350.277 291.639 350.444C294.059 350.569 296.472 351.012 298.906 350.853C299.128 350.839 299.35 350.86 299.565 350.888C302.297 351.269 305.051 351.345 307.797 351.477H307.79Z" fill="#FCF6F5"/>
<path d="M163.511 414.103C161.909 413.028 160.286 411.988 158.705 410.878C126.764 388.564 94.8291 366.242 62.8946 343.92C48.8101 334.081 34.7533 324.199 20.6203 314.436C17.9643 312.598 16.7576 310.345 16.8617 307.182C16.9587 304.194 16.8755 301.198 16.8894 298.203C16.8894 297.78 16.7715 297.336 16.9865 296.954C21.4178 300.338 26.0641 303.417 30.6202 306.607C75.8626 338.234 121.112 369.855 166.361 401.475C173.719 406.621 181.077 411.773 188.428 416.918C188.878 417.237 189.378 417.494 189.704 417.965C188.49 419.04 187.131 419.907 185.487 420.004C183.018 420.149 180.557 420.066 178.116 419.505C174.017 418.562 170.147 417.022 166.347 415.268C165.869 415.046 165.432 414.588 164.822 414.886C164.822 414.886 164.794 414.852 164.801 414.852C164.815 414.387 164.53 414.401 164.204 414.484L164.267 414.401L164.197 414.477C164.121 414.068 163.837 414.054 163.511 414.103ZM82.2703 349.759C82.2287 349.551 82.194 349.218 82.09 348.906C81.771 347.915 81.0983 347.2 80.2661 346.611C75.4395 343.199 70.606 339.788 65.7794 336.376C65.4119 336.119 65.0374 335.925 64.5936 335.814C62.742 335.336 61.4799 336.459 61.8682 338.325C62.1179 339.517 62.8391 340.391 63.8308 341.091C68.6296 344.454 73.4146 347.825 78.1926 351.208C78.8029 351.638 79.4409 351.916 80.1829 351.923C81.4728 351.943 82.2703 351.153 82.2564 349.759H82.2703ZM56.8197 335.322C58.0402 335.287 58.8169 334.511 58.81 333.304C58.81 331.841 57.9986 330.815 56.8683 330.017C52.0417 326.599 47.2012 323.194 42.3746 319.775C41.91 319.449 41.4246 319.234 40.8698 319.13C39.3025 318.825 38.2346 319.734 38.3802 321.315C38.4981 322.604 39.1777 323.596 40.2179 324.331C45.093 327.777 49.9751 331.21 54.8502 334.656C55.4605 335.086 56.1262 335.301 56.8128 335.329L56.8197 335.322Z" fill="#FA4616"/>
<path d="M164.821 414.885C165.431 414.586 165.868 415.044 166.346 415.266C170.147 417.02 174.016 418.56 178.115 419.503C180.556 420.065 183.018 420.155 185.486 420.002C187.13 419.905 188.489 419.038 189.703 417.963C192.435 419.558 194.938 421.486 197.525 423.282C207.442 430.175 217.331 437.116 227.234 444.037C228.87 445.181 230.479 446.36 232.157 447.441C235.618 449.681 239.224 449.175 241.97 447.199C243.454 446.138 244.779 444.855 246.186 443.697C254.737 436.651 263.301 429.613 271.845 422.561C279.841 415.966 287.823 409.358 295.811 402.763C302.434 397.299 309.064 391.842 315.693 386.378C317.274 385.074 318.835 383.743 320.464 382.494C322.58 380.865 324.792 379.395 327.538 379.027C329.93 378.708 331.241 379.922 331.082 382.314C331.005 383.417 330.929 384.54 331.019 385.636C331.186 387.57 330.263 388.957 328.897 390.094C324.598 393.68 320.263 397.216 315.943 400.773C308.592 406.834 301.241 412.901 293.89 418.969C286.748 424.856 279.605 430.737 272.469 436.624C265.077 442.726 257.684 448.828 250.285 454.923C247.421 457.288 244.522 459.604 241.699 462.017C239.064 464.264 235.59 464.625 232.365 462.35C230.646 461.137 228.905 459.951 227.178 458.744C217.185 451.761 207.199 444.772 197.206 437.789C186.714 430.452 176.222 423.123 165.736 415.786C165.383 415.536 164.939 415.37 164.821 414.878V414.885ZM298.35 409.06C298.35 407.312 297.094 406.432 295.458 407.035C294.875 407.25 294.397 407.611 293.932 408.013C291.241 410.315 288.53 412.596 285.825 414.892C284.133 416.32 282.434 417.742 280.756 419.191C279.709 420.092 278.981 421.188 279.064 422.637C279.154 424.135 280.264 424.877 281.727 424.482C282.337 424.315 282.823 423.996 283.294 423.594C285.867 421.403 288.467 419.246 291.04 417.055C293.024 415.37 294.993 413.664 296.949 411.951C297.809 411.196 298.398 410.273 298.356 409.067L298.35 409.06Z" fill="#C30000"/>
<path d="M297.634 399.434C293.764 402.659 289.909 405.897 286.032 409.101C272.835 420.001 259.624 430.888 246.414 441.775C246.032 442.087 245.637 442.385 245.256 442.684C244.673 442.427 244.652 441.865 244.465 441.435C239.188 429.231 235.006 416.631 231.164 403.921C230.256 400.904 229.278 397.909 228.584 394.83C230.186 394.663 231.768 394.934 233.363 395.031C236.608 395.225 239.847 395.454 243.085 395.717C246.157 395.974 249.236 396.14 252.308 396.369C255.436 396.598 258.57 396.841 261.698 397.035C264.777 397.229 267.849 397.5 270.921 397.701C274.056 397.909 277.183 398.172 280.311 398.366C283.39 398.554 286.462 398.872 289.534 399.011C292.232 399.136 294.915 399.587 297.634 399.434Z" fill="#D0E6EC"/>
<path d="M194.712 328.009C196.473 330.651 197.999 332.946 199.531 335.241C204.476 342.661 209.407 350.095 214.386 357.487C216.529 360.67 219.899 361.64 223.408 360.108C231.889 356.412 240.342 352.674 248.81 348.964C257.028 345.359 265.245 341.767 273.456 338.161C273.657 338.071 273.858 337.96 274.066 337.904C275.106 337.641 276.077 337.828 276.854 338.556C277.658 339.305 277.513 340.29 277.194 341.191C276.667 342.675 275.744 343.916 274.683 345.067C270.633 349.464 265.738 352.626 260.301 355.018C252.187 358.582 244.08 362.147 235.967 365.704C230.897 367.93 225.821 370.142 220.745 372.361C217.777 373.658 215.086 372.902 213.228 370.17C210.606 366.321 208.033 362.452 205.454 358.582C201.792 353.097 198.172 347.592 194.476 342.134C193.304 340.401 192.673 338.681 193.158 336.531C193.679 334.215 193.921 331.837 194.303 329.493C194.365 329.125 194.504 328.765 194.712 328.009Z" fill="#C30000"/>
<path d="M297.628 399.432C294.917 399.585 292.233 399.127 289.529 399.009C286.456 398.871 283.384 398.552 280.305 398.365C277.178 398.17 274.05 397.9 270.916 397.699C267.844 397.498 264.771 397.227 261.692 397.033C258.565 396.839 255.43 396.596 252.303 396.367C249.231 396.139 246.152 395.972 243.08 395.716C239.841 395.452 236.603 395.216 233.357 395.029C231.762 394.932 230.188 394.662 228.579 394.828C227.664 392.138 226.984 389.385 226.291 386.632C226.693 386.001 227.331 386.07 227.934 386.105C230.68 386.257 233.426 386.493 236.173 386.708C239.356 386.958 242.546 387.145 245.736 387.388C248.808 387.616 251.887 387.845 254.966 388.046C258.1 388.247 261.228 388.518 264.362 388.712C267.552 388.913 270.735 389.163 273.925 389.378C277.06 389.586 280.187 389.884 283.322 390.023C285.749 390.133 288.155 390.598 290.597 390.432C290.818 390.418 291.047 390.432 291.255 390.473C293.474 390.959 295.756 390.806 297.996 391.049C300.95 391.368 303.939 391.312 306.886 391.812C303.877 394.44 300.811 396.998 297.635 399.425L297.628 399.432Z" fill="#FCF6F5"/>
<path d="M74.0298 335.233C76.7829 335.281 79.529 335.482 82.2613 335.836C82.5318 335.871 82.8161 335.892 83.0866 335.871C85.5762 335.697 88.0449 336.162 90.5206 336.28C93.7037 336.439 96.8867 336.737 100.077 336.925C103.26 337.112 106.45 337.334 109.626 337.618C111.387 337.771 113.149 337.785 114.91 337.909C113.593 344.546 111.734 351.008 109.009 357.215C108.808 357.672 108.586 358.116 108.371 358.56C108.19 358.92 107.934 359.031 107.58 358.782C107.4 358.657 107.22 358.532 107.032 358.407C96.1933 350.828 85.3473 343.249 74.5083 335.67C74.3349 335.545 74.1893 335.371 74.0298 335.226V335.233Z" fill="#FCF6F5"/>
<path d="M306.892 391.818C303.951 391.318 300.955 391.374 298.001 391.055C295.754 390.812 293.48 390.965 291.261 390.479C291.046 390.431 290.817 390.424 290.602 390.438C288.161 390.597 285.754 390.14 283.327 390.029C280.193 389.883 277.065 389.592 273.931 389.384C270.741 389.169 267.558 388.919 264.368 388.718C261.233 388.524 258.106 388.247 254.971 388.052C251.892 387.858 248.82 387.629 245.741 387.394C242.551 387.151 239.361 386.964 236.178 386.714C233.432 386.499 230.693 386.263 227.939 386.111C227.336 386.076 226.698 386.007 226.296 386.638C225.748 384.703 225.131 382.782 224.826 380.785C227.801 380.785 230.762 381.042 233.716 381.423C233.931 381.451 234.16 381.444 234.382 381.444C238.577 381.416 242.731 382.027 246.92 382.186C250.103 382.304 253.286 382.63 256.469 382.838C259.597 383.039 262.724 383.316 265.852 383.504C268.924 383.691 271.996 383.968 275.068 384.162C278.196 384.363 281.33 384.585 284.451 384.821C287.745 385.071 291.046 385.237 294.333 385.487C297.516 385.729 300.699 385.924 303.882 386.166C306.899 386.395 309.915 386.666 312.939 386.804C311.004 388.586 308.972 390.244 306.871 391.825L306.892 391.818Z" fill="#D0E6EC"/>
<path d="M213.185 286.303C221.181 291.809 229.052 297.224 237.082 302.751C228.4 306.551 219.96 310.247 211.361 314.005C211.216 313.132 211.063 312.397 210.973 311.662C210.238 305.622 209.475 299.582 209.107 293.508C209.073 292.883 209.066 292.343 209.524 291.816C210.931 290.179 212.02 288.314 213.185 286.303Z" fill="#D0E6EC"/>
<path d="M128.886 190.145C129.739 190.832 129.461 191.9 129.593 192.746C130.564 198.973 132.013 205.075 133.795 211.115C135.696 217.55 138.15 223.763 141.292 229.692C142.485 231.939 143.809 234.116 145.446 236.071C145.779 236.467 146.07 236.848 145.98 237.403C144.246 236.862 142.707 235.683 140.897 235.482C138.948 235.267 138.379 234.255 137.998 232.472C136.597 225.94 133.802 220.032 129.544 214.852C129.108 214.325 129.024 213.798 129.038 213.181C129.163 207.703 129.094 202.232 128.997 196.754C128.969 195.263 128.969 193.772 128.809 192.281C128.733 191.574 128.678 190.846 128.886 190.138V190.145Z" fill="#A5BB00"/>
<path d="M307.781 351.478C305.035 351.346 302.282 351.277 299.55 350.889C299.335 350.861 299.106 350.833 298.891 350.854C296.45 351.014 294.044 350.563 291.623 350.445C288.385 350.279 285.139 350.029 281.901 349.772C280.028 349.62 278.156 349.578 276.284 349.495C279.488 347.872 282.83 346.569 286.103 345.106C288.322 344.114 290.569 343.178 292.775 342.158C293.447 341.846 293.96 341.826 294.598 342.269C298.912 345.279 303.246 348.247 307.573 351.229C307.657 351.291 307.712 351.395 307.781 351.478Z" fill="#D0E6EC"/>
<path d="M169.615 146.284C169.83 146.43 169.865 146.631 169.775 146.86C167.299 153.26 165.635 159.89 164.262 166.602C163.513 170.27 162.861 173.952 162.563 177.69C162.493 178.536 162.473 179.444 161.966 180.207C161.398 179.264 161.564 178.175 161.384 177.163C160.774 173.627 160.226 170.083 159.373 166.588C159.172 165.763 159.151 165.014 159.629 164.21C162.937 158.655 165.954 152.934 168.95 147.207C169.123 146.874 169.22 146.472 169.608 146.284H169.615Z" fill="#A5BB00"/>
<path d="M208.789 305.638C208.081 305.561 208.033 304.903 207.762 304.459C206.382 302.184 204.475 300.638 201.812 300.083C200.821 299.875 199.829 300.069 198.844 299.938C202.034 298.412 205.051 296.609 207.762 293.835C208.026 296.568 208.31 298.953 208.477 301.352C208.574 302.781 209.031 304.188 208.782 305.638H208.789Z" fill="#A5BB00"/>
<path d="M208.845 161.242C205.676 161.235 202.978 162.587 200.392 164.216C198.519 165.395 196.792 166.768 195.246 168.356C194.871 168.738 194.559 169.251 193.921 169.258C195.17 166.754 196.411 164.244 197.666 161.748C197.93 161.221 198.471 161.013 198.963 160.777C200.981 159.813 203.11 159.688 205.26 160.084C206.494 160.312 207.735 160.583 208.838 161.249L208.845 161.242Z" fill="#A5BB00"/>
<path d="M214.174 197.191C211.393 198.259 209.535 200.229 208.501 203.002C208.397 203.287 208.231 203.467 207.933 203.523V195.555C210.062 196.491 212.1 196.914 214.174 197.191Z" fill="#A5BB00"/>
<path d="M263.334 291.25C265.255 288.594 267.773 287.256 271.101 287.859C268.515 288.989 265.921 290.12 263.334 291.25Z" fill="#D0E6EC"/>
<path d="M163.522 414.106C163.848 414.05 164.132 414.064 164.209 414.48C163.91 414.48 163.688 414.342 163.522 414.106Z" fill="#C30000"/>
<path d="M164.197 414.483C164.523 414.4 164.801 414.386 164.794 414.85C164.509 414.864 164.308 414.746 164.197 414.483Z" fill="#C30000"/>
<path d="M193.9 169.293C193.913 169.456 193.838 169.551 193.682 169.585C193.635 169.402 193.709 169.3 193.9 169.293Z" fill="#A5BB00"/>
<path d="M53.7672 148.952C49.9669 146.123 46.6937 142.725 43.6424 139.14C29.3638 122.38 20.5636 103.04 16.6801 81.4257C15.6122 75.4761 15.1198 69.4502 15.314 63.3896C15.5498 55.9768 16.6871 48.7304 19.5927 41.8446C21.902 36.3804 25.1683 31.6373 30.0711 28.1702C35.2167 24.5296 40.9448 23.1636 47.2138 23.7669C53.9475 24.4118 59.953 26.9705 65.6117 30.4862C72.9348 35.0421 79.086 40.9293 84.5436 47.5516C92.9 57.6965 99.1898 69.0341 103.843 81.3009C104.016 81.7655 104.141 82.2509 104.287 82.7225C101.589 83.5199 99.4256 85.1356 97.8029 87.3684C95.5352 90.4889 94.9111 93.9838 95.9236 97.7422C96.1108 98.4356 96.2703 99.136 96.409 99.8363C97.1094 103.401 97.7127 106.972 98.1912 110.585C98.5726 113.483 98.8431 116.389 99.0095 119.287C99.2453 123.302 99.0303 127.324 98.4686 131.339C97.7821 136.248 96.6448 140.985 94.2176 145.346C89.5228 153.806 82.0332 157.183 72.8932 156.157C67.1235 155.512 61.7907 153.342 56.7699 150.45C56.3539 150.214 55.9516 149.833 55.3969 150.082L55.3899 150.055C55.3899 149.625 55.1056 149.611 54.7935 149.659C54.7658 149.444 54.641 149.347 54.426 149.375C54.3705 148.987 54.0931 148.945 53.7811 148.952H53.7672ZM23.4415 66.718C23.4276 71.8425 24.0102 76.9046 25.0018 81.9111C28.2404 98.2068 34.5302 113.24 43.906 126.956C48.2055 133.253 53.1292 139.015 59.1555 143.758C62.3108 146.241 65.6811 148.349 69.4744 149.715C72.9903 150.977 76.5825 151.476 80.2441 150.492C84.8349 149.257 87.8654 146.151 90.036 142.08C91.9638 138.461 92.9416 134.543 93.4201 130.507C94.3494 122.733 93.7461 115.023 92.2273 107.367C89.3078 92.6385 83.7669 78.9502 75.792 66.2465C71.111 58.7921 65.6603 51.9618 58.8018 46.3589C54.6826 42.9957 50.2097 40.2844 44.9531 39.064C38.3928 37.5454 32.6925 39.6742 28.7535 45.1246C27.7757 46.4768 26.9713 47.933 26.3402 49.4793C24.1003 55.0129 23.4415 60.8169 23.4346 66.725L23.4415 66.718ZM50.6951 26.9983C50.2097 26.9983 49.9877 26.9844 49.7658 26.9983C49.3151 27.0399 48.8643 27.13 48.6563 27.5877C48.4205 28.0939 48.8227 28.4267 49.0932 28.7388C49.3844 29.0647 49.7381 29.349 50.1056 29.5848C54.3081 32.2406 58.8573 34.0019 63.774 34.7855C64.3219 34.8756 64.8767 34.8756 65.4037 34.6468C66.0764 34.3556 66.222 33.9464 65.7712 33.3501C65.161 32.5457 64.3427 31.9771 63.4758 31.4778C60.3483 29.668 57.0265 28.3574 53.5245 27.4837C52.5051 27.2271 51.4718 27.0468 50.6882 26.9913L50.6951 26.9983ZM72.817 38.6687C72.7129 37.4552 69.6686 35.4789 68.5451 35.9019C68.1915 36.0337 68.0458 36.3041 68.1152 36.6786C68.3024 37.7534 70.9931 39.6048 72.1304 39.4384C72.5534 39.376 72.8378 39.1541 72.81 38.6757L72.817 38.6687Z" fill="#FA4616"/>
<path d="M110.652 82.3428C112.462 78.0366 115.229 74.3614 118.544 71.1578C120.229 69.5213 121.144 67.7045 121.276 65.4994C121.553 60.8672 120.125 56.7691 117.06 53.2742C116.401 52.5183 115.631 51.8734 114.736 51.4088C113.134 50.5698 111.56 50.4172 109.834 51.2632C105.707 53.288 101.526 55.188 97.3648 57.1296C96.1096 57.7121 96.0888 57.6983 95.7074 56.4154C93.6062 49.4256 92.4065 42.2971 92.5729 34.9745C92.6492 31.4657 93.1346 28.0263 94.3829 24.7186C94.8545 23.4705 95.43 22.2778 96.179 21.1752C98.7934 17.3058 102.67 15.8843 107.178 17.1256C110.34 17.9993 113.03 19.7259 115.52 21.7993C120.132 25.634 123.745 30.3216 126.838 35.4044C132.899 45.3621 136.851 56.1103 138.557 67.649C139.306 72.7041 139.5 77.7939 138.668 82.8768C138.287 85.1859 137.663 87.4118 136.65 89.5268C136.317 90.2272 135.936 90.8928 135.326 91.3991C135.118 91.4684 134.903 91.51 134.708 91.6071C131.331 93.2505 127.871 93.8815 124.188 92.6542C119.036 90.9414 114.695 88.0775 111.276 83.8337C110.908 83.376 110.687 82.9184 110.666 82.3498L110.652 82.3428Z" fill="#DBF505"/>
<path d="M119.616 102.426C118.007 101.552 116.648 100.346 115.247 99.1877C113.277 97.5581 111.516 95.7205 109.741 93.8829C109.082 93.2034 108.784 92.4545 108.735 91.5114C108.645 89.6807 108.825 87.9055 109.352 86.0194C110.205 86.6019 110.663 87.3092 111.218 87.9055C113.915 90.7972 116.863 93.3837 120.385 95.249C121.814 96.0048 123.305 96.5804 124.886 96.934C129.581 97.995 133.749 96.3862 136.488 92.4059C138.485 89.5143 139.463 86.2413 139.983 82.8088C141.231 74.4876 140.115 66.3398 137.972 58.3099C135.087 47.4923 130.51 37.4653 123.666 28.5478C120.441 24.3456 116.793 20.5664 112.154 17.8759C109.928 16.5861 107.57 15.6846 104.963 15.4974C101.169 15.22 98.1318 16.6138 95.7878 19.5401C93.43 22.4802 92.3551 25.9682 91.7657 29.6157C90.4481 37.7566 91.6062 45.731 93.5548 53.6361C93.8738 54.9259 94.2761 56.1949 94.6297 57.4778C94.7268 57.8383 94.9557 58.2613 94.4286 58.4694C94.0334 58.6289 93.8392 58.296 93.6658 58.0117C91.8628 55.1478 89.921 52.381 87.8683 49.6975C87.369 49.0456 87.3274 48.2412 87.1887 47.4923C86.1624 41.8062 85.566 36.0784 85.8226 30.2952C86.0722 24.616 87.0015 19.0616 89.3663 13.8332C90.6145 11.0802 92.2095 8.57001 94.387 6.46197C98.6796 2.30138 103.86 0.88678 109.671 1.77437C115.711 2.6897 120.829 5.63679 125.531 9.36052C132.216 14.6583 137.48 21.1905 141.959 28.3952C142.043 28.5339 142.084 28.7003 142.147 28.8529C138.118 29.7058 136.37 33.6237 136.391 36.7719C136.405 38.3529 136.966 39.9062 137.604 41.3901C139.373 45.4467 140.732 49.6558 141.98 53.8927C143.339 58.4971 144.387 63.1639 145.108 67.9208C145.489 70.4311 145.767 72.9482 145.905 75.4654C146.113 79.1544 145.954 82.8504 145.344 86.5256C144.768 89.9928 143.839 93.3143 142.133 96.3932C140.122 100.027 137.258 102.613 133.194 103.806C130.462 104.603 127.757 104.388 125.011 103.91C123.152 103.584 121.46 102.703 119.602 102.426H119.616ZM111.349 7.76562C112.348 7.73095 113.465 7.68241 114.491 7.21781C115.594 6.71854 115.698 5.9835 114.831 5.17219C114.38 4.7492 113.825 4.48569 113.263 4.25686C111.017 3.34846 108.666 3.03642 106.273 3.1127C105.517 3.14043 104.734 3.20284 103.992 3.50102C103.458 3.71598 102.917 3.90321 102.806 4.5273C102.674 5.2554 103.208 5.64372 103.728 5.9627C104.241 6.27475 104.796 6.54518 105.372 6.74628C107.265 7.40504 109.241 7.67548 111.349 7.76562ZM121.037 10.581C121.53 10.6434 121.946 10.5116 122.182 10.0748C122.41 9.65869 122.119 9.31891 121.869 9.04154C120.899 8.00139 119.72 7.34263 118.27 7.24555C117.875 7.21781 117.501 7.27329 117.272 7.66854C117.022 8.09154 117.258 8.43132 117.494 8.72256C118.402 9.85979 119.643 10.3868 121.044 10.581H121.037Z" fill="#FA4616"/>
<path d="M55.3994 150.09C55.9542 149.841 56.3564 150.222 56.7725 150.458C61.8002 153.349 67.1261 155.52 72.8958 156.165C82.0358 157.191 89.5253 153.814 94.2202 145.354C96.6404 140.992 97.7846 136.256 98.4712 131.347C99.0329 127.332 99.2479 123.31 99.0121 119.295C98.8387 116.396 98.5752 113.484 98.1938 110.592C97.7153 106.987 97.112 103.408 96.4116 99.8442C96.2729 99.1438 96.1134 98.4435 95.9261 97.75C94.9067 93.9916 95.5378 90.5037 97.8054 87.3763C99.4282 85.1434 101.592 83.5277 104.289 82.7303C105.406 85.6774 106.377 88.6661 107.181 91.7241C108.076 95.0942 108.908 98.4712 109.56 101.89C111.009 109.49 111.495 117.159 110.981 124.856C110.475 132.484 108.832 139.855 105.087 146.63C102.174 151.893 98.2631 156.165 92.7361 158.758C89.8582 160.11 86.8139 160.838 83.61 161.012C76.0234 161.428 69.2342 158.98 62.7641 155.346C60.4479 154.043 58.2565 152.531 56.1276 150.943C55.8224 150.714 55.4618 150.527 55.3994 150.09Z" fill="#C30000"/>
<path d="M119.617 102.422C121.475 102.699 123.167 103.58 125.026 103.906C127.772 104.384 130.477 104.599 133.209 103.802C137.273 102.609 140.137 100.029 142.148 96.3888C143.854 93.3031 144.776 89.9815 145.359 86.5213C145.969 82.8461 146.128 79.1501 145.92 75.4611C145.782 72.9439 145.497 70.4268 145.123 67.9165C144.402 63.1596 143.354 58.4928 141.995 53.8884C140.747 49.6515 139.381 45.4424 137.619 41.3858C136.974 39.9019 136.413 38.3555 136.406 36.7676C136.378 33.6194 138.132 29.7015 142.162 28.8486C144.166 31.8442 145.823 35.034 147.349 38.2931C150.407 44.8252 152.813 51.5862 154.429 58.6245C156.073 65.7738 156.96 73.0063 156.572 80.3498C156.281 85.8417 155.317 91.2228 152.973 96.271C151.413 99.6202 149.381 102.623 146.378 104.876C142.404 107.858 137.952 108.871 133.063 108.156C128.084 107.421 123.653 105.397 119.631 102.429L119.617 102.422Z" fill="#C30000"/>
<path d="M100.683 70.4968C98.949 67.1683 97.2916 63.7913 95.2943 60.6084C94.8089 59.8318 95.1002 59.5822 95.7659 59.2771C100.78 56.9402 105.794 54.5964 110.8 52.2387C112.257 51.5522 113.533 52.0376 114.684 52.8767C117.194 54.7212 118.692 57.2522 119.365 60.2756C119.379 60.3241 119.358 60.3865 119.351 60.442C118.879 60.3865 118.526 60.6223 118.13 60.8442C113.588 63.4238 109.06 66.0172 104.483 68.5205C103.235 69.2001 102.097 70.1154 100.697 70.4968H100.683Z" fill="#D0E6EC"/>
<path d="M100.683 70.4952C102.083 70.1138 103.228 69.1984 104.469 68.5189C109.046 66.0156 113.581 63.4222 118.117 60.8426C118.505 60.6207 118.866 60.3849 119.337 60.4404C120.35 62.9576 120.301 65.4886 119.379 68.0127C119.129 68.6992 118.699 69.2678 118.089 69.6977C113.692 72.7696 109.303 75.8415 104.906 78.9134C104.823 78.9758 104.705 78.9897 104.476 79.066C103.214 76.216 101.952 73.359 100.69 70.4952H100.683Z" fill="#93B2BB"/>
<path d="M110.654 82.3424C110.674 82.9111 110.896 83.3687 111.264 83.8264C114.69 88.0633 119.024 90.9341 124.176 92.6468C127.866 93.8742 131.319 93.2432 134.696 91.5998C134.891 91.5027 135.106 91.4611 135.314 91.3917C134.045 93.895 131.902 95.1917 129.246 95.7187C126.701 96.2249 124.28 95.6078 122.006 94.5399C117.304 92.3279 113.649 88.8191 110.355 84.8873C109.558 83.9304 110.265 83.1538 110.647 82.3355L110.654 82.3424Z" fill="#A5BB00"/>
<path d="M54.7915 149.665C55.1105 149.623 55.3879 149.63 55.3879 150.06C55.0897 150.074 54.8886 149.949 54.7915 149.665Z" fill="#C30000"/>
<path d="M53.7607 148.953C54.0728 148.953 54.3502 148.988 54.4057 149.376C54.1075 149.362 53.8994 149.21 53.7607 148.953Z" fill="#C30000"/>
<path d="M54.4204 149.384C54.6336 149.357 54.7575 149.453 54.785 149.666C54.5924 149.666 54.4686 149.57 54.4204 149.384Z" fill="#C30000"/>
<path d="M281.314 211.172C279.144 207.961 277.257 204.577 275.274 201.256C255.746 168.664 236.231 136.059 216.717 103.454C216.384 102.899 216.058 102.331 215.635 101.61C221.779 101.048 225.926 97.872 228.61 92.6713C229.2 92.9694 229.318 93.4895 229.553 93.9125C246.169 124.278 262.778 154.643 279.38 185.023C280.309 186.721 281.155 188.462 282.042 190.182C281.737 190.355 281.779 190.591 281.883 190.875C282.583 192.831 283.353 194.772 283.95 196.769C284.816 199.654 285.655 202.559 285.323 205.631C285.017 205.174 284.692 204.73 284.414 204.258C279.726 196.235 275.045 188.205 270.357 180.182C270.08 179.704 269.782 179.239 269.449 178.802C269.269 178.567 268.977 178.511 268.707 178.685C268.45 178.851 268.332 179.128 268.443 179.406C268.61 179.815 268.825 180.203 269.047 180.585C271.807 185.314 274.574 190.043 277.327 194.772C279.907 199.217 282.472 203.676 285.045 208.128C284.518 210.021 283.353 211.13 281.321 211.186L281.314 211.172ZM250.781 147.778C250.815 147.3 250.524 146.939 250.309 146.558C245.115 137.418 239.921 128.279 234.713 119.146C234.526 118.814 234.304 118.488 234.047 118.203C233.908 118.051 233.659 117.995 233.437 118.127C233.236 118.252 233.118 118.432 233.125 118.668C233.132 119.14 233.43 119.493 233.645 119.868C238.811 128.959 243.978 138.049 249.151 147.133C249.366 147.515 249.518 147.952 249.921 148.194C250.295 148.416 250.746 148.194 250.781 147.771V147.778Z" fill="#DBF505"/>
<path d="M285.327 205.628C285.659 202.549 284.82 199.643 283.953 196.765C283.357 194.775 282.587 192.834 281.887 190.871C281.783 190.587 281.741 190.351 282.046 190.178C282.456 190.337 282.553 190.74 282.733 191.065C287.698 200.142 292.664 209.213 297.622 218.297C297.802 218.622 298.1 218.928 298.01 219.427C296.582 219.455 295.181 219.122 293.773 218.893C292.247 218.65 292.164 218.692 291.436 220.044C290.687 221.445 290.146 222.956 289.155 224.385C288.267 222.915 287.428 221.556 286.616 220.176C284.862 217.166 282.941 214.261 281.325 211.175C283.357 211.119 284.522 210.01 285.049 208.117C286.318 210.253 287.587 212.388 288.863 214.517C289.092 214.892 289.335 215.266 289.612 215.599C289.799 215.828 290.098 215.87 290.368 215.71C290.639 215.551 290.729 215.273 290.618 214.996C290.444 214.594 290.229 214.205 290.008 213.817C288.447 211.085 286.887 208.353 285.327 205.621V205.628Z" fill="#A5BB00"/>
<path d="M210.629 93.2605C216.551 92.3937 220.58 89.2039 223.666 84.3568C225.393 87.6159 226.399 90.8335 225.455 94.4116C225.282 95.0634 225.046 95.6805 224.568 96.166C222.224 98.5236 219.471 99.9937 216.093 100.188C215.171 100.243 214.575 99.9798 214.103 99.113C213.049 97.1853 211.87 95.3269 210.629 93.2674V93.2605Z" fill="#D0E6EC"/>
<path d="M220.203 76.8468C221.167 78.6082 221.951 80.0782 222.769 81.5136C223.074 82.0476 223.06 82.5191 222.811 83.0739C221.951 84.9739 220.682 86.5688 219.156 87.9695C216.944 89.9943 214.413 91.4158 211.417 91.8943C209.96 92.1231 209.732 92.0122 209.149 90.6253C208.934 90.1191 208.782 89.5782 208.678 89.0374C208.407 87.5881 208.92 86.645 210.286 85.9655C212.783 84.7381 215.141 83.3027 217.103 81.2848C218.303 80.0574 219.288 78.6706 220.203 76.8399V76.8468Z" fill="#FA4616"/>
<path d="M301.641 232.973C300.316 233.125 299.255 233.708 298.166 234.346C295.635 231.669 293.139 228.999 290.608 226.371C290.129 225.872 290.171 225.463 290.455 224.915C291.148 223.591 291.814 222.252 292.452 220.907C292.73 220.324 293.076 220.082 293.742 220.193C295.212 220.442 296.696 220.657 298.173 220.831C298.756 220.9 299.075 221.143 299.193 221.711C299.99 225.428 300.802 229.145 301.634 232.973H301.641Z" fill="#FCF6F5"/>
<path d="M207.513 85.2513C205.654 85.279 205.03 84.4122 205.543 82.7896C205.814 81.9367 206.257 81.1739 206.798 80.4666C209.045 77.5473 211.861 75.4115 215.37 74.2327C216.049 74.0038 216.757 73.8305 217.478 73.8582C218.678 73.9067 219.281 74.6695 219.066 75.8553C218.927 76.625 218.56 77.3184 218.13 77.9564C215.931 81.2294 212.956 83.4969 209.26 84.8352C208.643 85.0571 207.977 85.1334 207.513 85.2374V85.2513Z" fill="#FA4616"/>
<path d="M259.936 19.0813C260.553 21.5707 261.004 23.7966 261.711 25.9532C263.472 31.3273 266.031 36.2576 269.804 40.5153C272.869 43.9755 276.468 46.666 280.886 48.1777C281.149 48.2678 281.42 48.3303 281.558 48.6978C278.777 49.6478 276.191 50.9722 273.875 52.796C268.68 56.8872 265.213 62.2128 262.758 68.2734C261.51 71.3591 260.685 74.5767 259.811 77.8705C259.679 77.281 259.547 76.6986 259.416 76.1091C258.216 70.5339 256.198 65.2916 253.015 60.5347C249.339 55.0496 244.645 50.8197 238.265 48.7116C238.341 48.4481 238.5 48.3164 238.722 48.247C244.589 46.2777 248.937 42.3806 252.453 37.4364C255.941 32.5339 258.084 27.0419 259.395 21.2032C259.492 20.7733 259.582 20.3364 259.679 19.9065C259.714 19.747 259.776 19.5944 259.929 19.0882L259.936 19.0813Z" fill="#FCF6F5"/>
<path d="M26.6934 173.848C27.2482 176.005 27.6712 177.932 28.2399 179.819C30.1261 186.122 33.1081 191.815 37.7474 196.558C40.5352 199.408 43.746 201.634 47.5324 202.965C47.782 203.056 48.0039 203.194 48.2328 203.298C48.1357 203.673 47.8583 203.742 47.6017 203.839C41.9013 205.871 37.6295 209.699 34.1899 214.553C30.7086 219.462 28.5589 224.947 27.2551 230.793C27.1234 231.382 26.9916 231.979 26.8321 232.714C26.3952 232.062 26.3675 231.438 26.2357 230.848C24.6407 223.713 21.8183 217.167 16.957 211.599C13.9127 208.111 10.3135 205.427 5.93077 203.853C5.67419 203.763 5.38293 203.735 5.27197 203.409C5.29971 203.132 5.5563 203.118 5.72967 203.056C11.4855 201.003 15.8197 197.168 19.294 192.259C22.7684 187.349 24.932 181.864 26.2288 176.019C26.3744 175.374 26.5131 174.729 26.7073 173.841L26.6934 173.848Z" fill="#FCF6F5"/>
<path d="M205.394 226.726C206.212 227.329 206.378 228.286 206.732 229.146C208.382 233.175 209.305 237.342 209.208 241.725C209.159 244.096 209.346 246.482 208.528 248.784C207.772 250.899 206.76 252.854 204.998 254.297C202.294 256.509 199.333 256.502 196.281 255.087C193.195 253.659 190.796 251.447 188.833 248.68C187.037 246.142 185.692 243.354 184.083 240.705C181.871 237.058 178.653 234.513 175.172 232.218C171.704 229.936 167.904 228.224 164.409 226.005C163.237 225.256 162.225 224.361 161.413 223.189C160.096 221.289 160.123 219.348 161.171 217.434C162.093 215.742 163.466 214.473 165.484 214.126C165.879 214.723 166.503 214.743 167.114 214.743C169.832 214.743 172.523 215.069 175.2 215.458C183.75 216.706 191.905 219.202 199.52 223.328C201.51 224.403 203.438 225.596 205.387 226.733L205.394 226.726Z" fill="#A5BB00"/>
<path d="M205.379 226.728C203.423 225.591 201.495 224.398 199.512 223.323C191.898 219.197 183.742 216.701 175.192 215.453C172.508 215.065 169.824 214.739 167.106 214.739C166.495 214.739 165.871 214.718 165.476 214.122C165.698 213.289 166.364 213.449 166.96 213.456C170.455 213.491 173.916 213.9 177.348 214.489C186.308 216.022 194.796 218.906 202.633 223.566C203.534 224.1 204.408 224.689 205.289 225.265C205.961 225.709 205.989 226.208 205.379 226.735V226.728Z" fill="#0F0C07"/>
<path d="M65.6937 267.347C64.064 267.278 62.5315 266.737 61.6923 265.059C60.8602 263.395 61.2624 261.821 62.3165 260.385C62.6424 259.942 63.0308 259.533 63.4607 259.186C70.6937 253.416 77.9405 247.661 85.1873 241.899C87.0944 240.387 89.2025 239.569 91.6713 240.054C94.7434 240.657 95.9223 243.514 94.1886 246.122C93.7587 246.773 93.2177 247.314 92.6006 247.807C85.1388 253.742 77.6908 259.685 70.2429 265.635C68.9461 266.668 67.5175 267.313 65.7006 267.341L65.6937 267.347ZM65.8532 266.044C67.15 265.995 68.2873 265.517 69.3206 264.692C74.2443 260.753 79.1887 256.835 84.1263 252.903C86.8516 250.733 89.5909 248.576 92.2816 246.357C93.5784 245.289 93.9944 243.923 93.5437 242.855C93.0444 241.691 91.4632 240.969 89.8683 241.184C89.7573 241.198 89.6533 241.24 89.5423 241.254C87.9335 241.462 86.6713 242.349 85.4508 243.327C78.7935 248.646 72.1292 253.95 65.4718 259.269C64.8269 259.789 64.1334 260.281 63.5925 260.892C62.7118 261.89 62.1778 263.048 62.8158 264.387C63.4122 265.642 64.5495 266.009 65.8601 266.037L65.8532 266.044Z" fill="#121212"/>
<path d="M244.928 335.536C241.877 335.536 239.255 335.12 236.856 333.865C233.485 332.104 231.571 329.427 231.71 325.474C231.814 322.645 232.147 319.837 232.66 317.07C233.437 312.861 235.871 309.574 239.096 306.884C244.311 302.522 250.323 300.067 257.133 299.727C259.63 299.602 262.105 299.935 264.463 300.878C268.908 302.661 270.996 305.767 270.753 310.524C270.614 313.284 270.198 316.03 269.643 318.741C269.068 321.577 267.625 324.004 265.677 326.112C260.947 331.23 255.053 334.149 248.215 335.238C247.008 335.432 245.802 335.605 244.942 335.529L244.928 335.536ZM245.809 326.896C247.501 326.951 249.359 326.674 251.19 326.223C257.265 324.726 262.521 321.862 266.516 316.931C267.75 315.413 268.679 313.728 269.193 311.821C270.254 307.896 268.804 304.526 265.212 302.584C263.326 301.565 261.287 301.052 259.165 300.996C250.919 300.781 243.908 303.694 238.104 309.512C236.447 311.169 235.191 313.124 234.436 315.378C232.965 319.795 234.574 323.574 238.811 325.544C240.954 326.535 243.236 326.917 245.795 326.896H245.809ZM233.326 322.5C233.222 323.942 232.716 325.301 232.945 326.73C233.479 330.016 235.517 332.048 238.506 333.192C242.66 334.773 246.863 334.441 251.072 333.393C255.177 332.374 258.638 330.342 261.245 326.951C261.62 326.466 261.973 325.967 262.112 325.363C262.334 324.386 261.904 323.907 260.885 323.928C260.288 323.942 259.851 324.296 259.366 324.545C254.727 326.958 249.838 328.422 244.56 328.207C241.35 328.075 238.333 327.291 235.76 325.218C234.81 324.455 234.193 323.422 233.333 322.507L233.326 322.5Z" fill="#0F0C07"/>
<path d="M204.709 331.547C204.078 331.581 203.835 331.276 203.62 330.944C202.344 329.002 201.054 327.067 199.82 325.098C199.196 324.099 199.286 323.822 200.388 323.33C204.889 321.333 209.403 319.384 213.911 317.394C214.702 317.047 215.27 317.165 215.749 317.907C217.004 319.863 218.315 321.783 219.549 323.753C220.132 324.682 220.007 325.001 218.883 325.493C215.284 327.067 211.671 328.607 208.065 330.153C207.198 330.527 206.338 330.895 205.471 331.256C205.166 331.38 204.854 331.491 204.702 331.547H204.709ZM218.252 324.03C217.351 322.643 216.435 321.201 215.485 319.786C214.431 318.219 214.799 318.379 213.197 319.065C209.799 320.528 206.415 322.033 203.03 323.538C202.386 323.822 201.692 324.002 201.019 324.55C202.018 326.09 203.003 327.622 204.001 329.134C204.66 330.125 204.681 330.132 205.839 329.64C209.702 327.983 213.55 326.318 217.413 324.661C217.718 324.529 218.058 324.474 218.259 324.037L218.252 324.03Z" fill="#121212"/>
<path d="M284.537 296.702C284.426 297.284 284.523 297.777 284.023 298.012C283.559 298.234 283.157 298.012 282.796 297.756C282.442 297.499 282.095 297.215 281.797 296.896C280.355 295.343 279.287 293.554 278.566 291.556C278.378 291.029 278.281 290.489 278.274 289.934C278.274 289.442 278.226 288.901 278.801 288.651C279.308 288.429 279.786 288.575 280.188 288.915C282.664 291.002 283.968 293.727 284.537 296.702Z" fill="#FCF6F5"/>
<path d="M218.269 316.138C218.303 315.022 219.184 314.204 220.321 314.231C221.625 314.266 222.818 315.549 222.755 316.866C222.7 317.962 221.75 318.863 220.703 318.822C219.42 318.766 218.234 317.456 218.275 316.145L218.269 316.138ZM220.28 315.445C219.829 315.5 219.593 315.771 219.572 316.208C219.545 316.762 220.127 317.456 220.668 317.477C221.202 317.497 221.472 317.171 221.452 316.651C221.431 316.069 220.814 315.452 220.28 315.452V315.445Z" fill="#0F0C07"/>
<path d="M285.749 299.631C286.408 299.707 286.817 300.214 287.129 300.81C287.455 301.441 287.795 302.1 287.379 302.821C287.122 303.265 286.741 303.376 286.262 303.161C285.423 302.786 284.598 301.288 284.771 300.422C284.868 299.922 285.208 299.624 285.749 299.631Z" fill="#FCF6F5"/>
<path d="M82.2816 349.755C82.2954 351.149 81.4979 351.932 80.2081 351.918C79.4661 351.911 78.8281 351.634 78.2178 351.204C73.4398 347.82 68.6478 344.443 63.8559 341.087C62.8643 340.393 62.1361 339.513 61.8934 338.32C61.505 336.455 62.7602 335.331 64.6188 335.81C65.0556 335.921 65.4371 336.115 65.8046 336.372C70.6312 339.783 75.4647 343.195 80.2913 346.607C81.1235 347.196 81.7961 347.91 82.1151 348.902C82.2122 349.214 82.2538 349.547 82.2954 349.755H82.2816ZM81.0402 349.762C80.8253 348.902 80.3398 348.215 79.577 347.681C74.8267 344.346 70.0972 340.99 65.3538 337.647C64.9932 337.398 64.5979 337.169 64.1888 337.023C63.5231 336.794 63.0931 337.127 63.1278 337.828C63.1763 338.722 63.6618 339.36 64.376 339.866C69.1263 343.202 73.8697 346.537 78.6131 349.873C79.0638 350.192 79.5007 350.552 80.0694 350.635C80.6866 350.726 80.9848 350.393 81.0402 349.755V349.762Z" fill="#0F0C07"/>
<path d="M56.8135 335.32C56.127 335.292 55.4543 335.077 54.851 334.647C49.9759 331.201 45.0938 327.769 40.2187 324.322C39.1784 323.587 38.4988 322.596 38.3809 321.306C38.2353 319.725 39.3033 318.816 40.8705 319.122C41.4253 319.232 41.9107 319.44 42.3754 319.766C47.202 323.185 52.0424 326.59 56.869 330.008C57.9994 330.806 58.8038 331.839 58.8107 333.295C58.8107 334.502 58.0479 335.278 56.8205 335.313L56.8135 335.32ZM57.5139 333.053C57.4238 332.137 56.7442 331.513 55.9536 330.951C51.3004 327.672 46.6472 324.378 41.987 321.098C41.5848 320.813 41.1479 320.536 40.6902 320.377C39.969 320.134 39.4628 320.599 39.6292 321.347C39.8026 322.117 40.2048 322.755 40.8844 323.234C45.6416 326.562 50.3919 329.911 55.1422 333.247C55.5445 333.531 55.9328 333.857 56.4321 333.982C57.1325 334.155 57.5139 333.878 57.507 333.053H57.5139Z" fill="#0F0C07"/>
<path d="M298.346 409.064C298.381 410.27 297.798 411.193 296.939 411.948C294.983 413.668 293.014 415.367 291.03 417.052C288.457 419.243 285.857 421.4 283.284 423.591C282.812 423.993 282.32 424.319 281.717 424.479C280.26 424.867 279.144 424.132 279.054 422.634C278.971 421.185 279.699 420.089 280.746 419.188C282.424 417.746 284.123 416.324 285.815 414.889C288.52 412.6 291.231 410.312 293.922 408.01C294.394 407.608 294.865 407.247 295.448 407.032C297.084 406.429 298.346 407.302 298.339 409.057L298.346 409.064ZM281.044 423.293C281.495 423.3 281.8 423.057 282.105 422.821C283.007 422.093 283.922 421.372 284.789 420.609C286.398 419.181 288.159 417.912 289.629 416.331C290.579 415.312 291.356 414.181 291.8 412.843C291.869 412.635 291.973 412.42 291.779 412.233C291.529 411.99 291.266 412.122 291.03 412.267C290.891 412.358 290.767 412.469 290.642 412.573C287.514 415.208 284.387 417.829 281.28 420.485C280.683 420.998 280.288 421.677 280.371 422.53C280.413 422.967 280.621 423.251 281.051 423.3L281.044 423.293Z" fill="#0F0C07"/>
<path d="M23.4487 66.7224C23.4557 60.8144 24.1075 55.0104 26.3544 49.4768C26.9785 47.9373 27.783 46.4811 28.7677 45.122C32.7066 39.6716 38.407 37.5428 44.9673 39.0614C50.2238 40.2819 54.6967 42.9932 58.816 46.3563C65.6745 51.9593 71.1182 58.7896 75.8061 66.244C83.7811 78.9476 89.322 92.636 92.2415 107.364C93.7602 115.02 94.3635 122.731 93.4343 130.504C92.9558 134.54 91.971 138.458 90.0501 142.078C87.8865 146.148 84.8491 149.255 80.2583 150.489C76.5967 151.474 73.0045 150.974 69.4886 149.712C65.6883 148.346 62.325 146.238 59.1697 143.756C53.1434 139.013 48.2197 133.25 43.9201 126.954C34.5443 113.238 28.2545 98.2042 25.016 81.9086C24.0243 76.902 23.4418 71.8399 23.4557 66.7155L23.4487 66.7224ZM43.4486 123.716L43.4624 123.736C43.504 123.896 43.5179 124.076 43.6011 124.201C47.9076 130.615 52.6787 136.62 58.6287 141.613C62.0406 144.477 65.7022 146.946 69.9324 148.457C73.7951 149.844 77.7132 150.274 81.5897 148.589C84.6688 147.251 87.0543 145.108 88.3858 141.939C89.634 140.358 90.2582 138.486 90.8338 136.593C90.9447 136.225 91.0487 135.851 91.1458 135.476C92.7477 129.277 92.8171 122.974 92.2692 116.65C91.6035 108.946 89.8976 101.443 87.4773 94.1061C83.0668 80.7228 76.7493 68.352 67.8797 57.3542C64.2459 52.8468 60.2029 48.7556 55.4734 45.3855C52.2904 43.118 48.8993 41.2943 45.0782 40.3304C38.5665 38.6939 32.9008 40.9267 29.2809 46.5852C27.6512 49.137 26.604 51.9315 25.9452 54.8717C24.378 61.8823 24.4959 68.9553 25.3905 76.0352C26.3683 83.76 28.3031 91.2561 30.9313 98.5856C33.8786 106.803 37.5679 114.652 42.339 121.982C42.2835 122.176 42.3529 122.273 42.5609 122.273C42.6441 122.419 42.7343 122.558 42.8175 122.703C42.8383 123.168 43.0394 123.508 43.4624 123.716H43.4486Z" fill="#121212"/>
<path d="M50.7089 27.0032C51.4925 27.0587 52.5188 27.239 53.5452 27.4956C57.0472 28.3693 60.369 29.6729 63.4966 31.4897C64.3634 31.989 65.1817 32.5576 65.792 33.362C66.2427 33.9514 66.0971 34.3675 65.4244 34.6587C64.8974 34.8876 64.3426 34.8875 63.7948 34.7974C58.878 34.0138 54.3288 32.2594 50.1264 29.5967C49.7588 29.3609 49.3982 29.0766 49.1139 28.7507C48.8365 28.4386 48.4412 28.1058 48.677 27.5996C48.892 27.1419 49.3358 27.0448 49.7866 27.0102C50.0085 26.9894 50.2304 27.0102 50.7158 27.0102L50.7089 27.0032Z" fill="#FCF6F5"/>
<path d="M72.8104 38.6685C72.8381 39.1469 72.5468 39.3688 72.1238 39.4312C70.9796 39.6046 68.2958 37.7462 68.1086 36.6714C68.0393 36.2969 68.1849 36.0265 68.5386 35.8947C69.662 35.4717 72.7063 37.448 72.8104 38.6615V38.6685Z" fill="#FCF6F5"/>
<path d="M111.354 7.76395C109.239 7.6738 107.27 7.4103 105.377 6.74461C104.808 6.54351 104.253 6.27307 103.733 5.96103C103.213 5.64205 102.679 5.25373 102.811 4.52562C102.922 3.90154 103.463 3.71431 103.997 3.49935C104.739 3.20117 105.515 3.13183 106.278 3.11102C108.678 3.03475 111.028 3.34679 113.268 4.25519C113.837 4.48402 114.385 4.74752 114.836 5.17052C115.703 5.98877 115.598 6.71687 114.496 7.21614C113.47 7.68074 112.353 7.72928 111.354 7.76395Z" fill="#FCF6F5"/>
<path d="M121.035 10.5789C119.641 10.3847 118.393 9.85772 117.485 8.72049C117.256 8.42925 117.013 8.08947 117.263 7.66648C117.498 7.27122 117.866 7.21574 118.261 7.24348C119.704 7.3475 120.89 7.99932 121.86 9.03947C122.11 9.30991 122.401 9.64969 122.172 10.0727C121.937 10.5095 121.521 10.6413 121.028 10.5789H121.035Z" fill="#FCF6F5"/>
<path d="M285.313 205.627C286.873 208.359 288.44 211.091 289.993 213.823C290.215 214.205 290.43 214.593 290.604 215.002C290.722 215.279 290.625 215.557 290.354 215.716C290.091 215.876 289.792 215.834 289.598 215.605C289.321 215.266 289.071 214.898 288.849 214.524C287.573 212.395 286.304 210.252 285.035 208.123C282.462 203.671 279.903 199.213 277.317 194.768C274.564 190.032 271.797 185.309 269.037 180.58C268.815 180.199 268.593 179.81 268.433 179.401C268.322 179.131 268.44 178.847 268.697 178.68C268.967 178.507 269.259 178.562 269.439 178.798C269.772 179.235 270.07 179.706 270.347 180.178C275.035 188.201 279.716 196.231 284.404 204.254C284.681 204.725 285.007 205.169 285.313 205.627Z" fill="#121212"/>
<path d="M250.792 147.783C250.757 148.199 250.307 148.428 249.932 148.206C249.523 147.963 249.377 147.526 249.162 147.145C243.989 138.061 238.823 128.97 233.656 119.879C233.441 119.498 233.143 119.151 233.136 118.679C233.136 118.444 233.247 118.263 233.448 118.139C233.67 118.007 233.92 118.062 234.059 118.215C234.315 118.499 234.537 118.825 234.724 119.158C239.925 128.29 245.126 137.43 250.321 146.569C250.536 146.951 250.827 147.304 250.792 147.79V147.783Z" fill="#121212"/>
<path d="M65.8551 266.036C64.5444 266.002 63.4071 265.641 62.8108 264.386C62.1728 263.048 62.6998 261.883 63.5875 260.891C64.1353 260.274 64.8218 259.782 65.4668 259.269C72.1241 253.95 78.7884 248.638 85.4458 243.327C86.6663 242.349 87.9284 241.468 89.5373 241.253C89.6483 241.239 89.7523 241.198 89.8632 241.184C91.4582 240.969 93.0463 241.69 93.5387 242.855C93.9964 243.923 93.5733 245.289 92.2765 246.357C89.5858 248.576 86.8466 250.732 84.1213 252.903C79.1907 256.835 74.2462 260.746 69.3156 264.691C68.2823 265.516 67.145 265.995 65.8482 266.043L65.8551 266.036Z" fill="#93B2BB"/>
<path d="M245.806 326.892C243.247 326.913 240.966 326.531 238.823 325.54C234.586 323.577 232.977 319.798 234.447 315.374C235.196 313.12 236.458 311.172 238.115 309.508C243.92 303.69 250.931 300.777 259.176 300.992C261.298 301.048 263.337 301.561 265.223 302.58C268.815 304.522 270.265 307.885 269.204 311.817C268.691 313.717 267.754 315.402 266.527 316.927C262.533 321.858 257.276 324.722 251.201 326.219C249.37 326.67 247.505 326.948 245.82 326.892H245.806ZM246.09 324.548C246.617 324.611 247.602 324.416 248.58 324.264C254.613 323.328 259.863 320.818 264.114 316.373C265.584 314.833 266.714 313.065 267.241 310.971C268.004 307.954 266.867 305.305 264.162 303.78C263.49 303.399 262.775 303.107 262.019 302.899C259.058 302.081 256.097 302.268 253.15 302.927C248.067 304.064 243.594 306.366 239.904 310.069C238.323 311.65 237.04 313.446 236.444 315.652C235.543 318.98 236.763 321.712 239.821 323.272C241.638 324.202 243.608 324.444 246.09 324.548Z" fill="#D0E6EC"/>
<path d="M233.317 322.497C234.177 323.412 234.801 324.445 235.744 325.208C238.317 327.281 241.334 328.065 244.545 328.197C249.822 328.419 254.711 326.949 259.35 324.535C259.836 324.286 260.273 323.932 260.869 323.918C261.889 323.89 262.325 324.369 262.097 325.354C261.958 325.964 261.604 326.456 261.23 326.942C258.622 330.326 255.169 332.364 251.056 333.384C246.847 334.431 242.638 334.77 238.491 333.182C235.502 332.038 233.463 330.013 232.929 326.72C232.693 325.284 233.206 323.932 233.31 322.49L233.317 322.497Z" fill="#C30000"/>
<path d="M218.259 324.03C218.058 324.46 217.718 324.523 217.413 324.654C213.558 326.312 209.702 327.983 205.839 329.633C204.681 330.133 204.66 330.119 204.001 329.127C203.003 327.615 202.025 326.083 201.02 324.543C201.685 323.996 202.386 323.815 203.031 323.531C206.415 322.033 209.799 320.528 213.197 319.058C214.799 318.365 214.431 318.212 215.485 319.78C216.436 321.194 217.351 322.637 218.252 324.023L218.259 324.03Z" fill="#D0E6EC"/>
<path d="M220.272 315.446C220.806 315.446 221.423 316.07 221.444 316.645C221.465 317.172 221.195 317.491 220.661 317.47C220.12 317.45 219.53 316.763 219.565 316.201C219.586 315.765 219.822 315.494 220.279 315.439L220.272 315.446Z" fill="#DBF505"/>
<path d="M81.036 349.766C80.9805 350.404 80.6823 350.737 80.0651 350.647C79.5034 350.563 79.0665 350.196 78.6088 349.884C73.8655 346.548 69.1221 343.206 64.3718 339.878C63.6575 339.371 63.1651 338.734 63.1235 337.839C63.0889 337.139 63.5188 336.806 64.1846 337.035C64.5937 337.173 64.989 337.402 65.3496 337.659C70.093 341.001 74.8225 344.357 79.5728 347.693C80.3425 348.234 80.821 348.92 81.036 349.773V349.766Z" fill="#FA4616"/>
<path d="M57.5248 333.051C57.5248 333.876 57.1434 334.154 56.45 333.98C55.9507 333.856 55.5692 333.53 55.1601 333.245C50.4029 329.91 45.6595 326.561 40.9022 323.232C40.2226 322.754 39.8204 322.123 39.647 321.346C39.4806 320.597 39.9868 320.133 40.7081 320.375C41.1727 320.535 41.6026 320.812 42.0049 321.096C46.665 324.376 51.3113 327.663 55.9715 330.95C56.762 331.505 57.4347 332.129 57.5318 333.051H57.5248Z" fill="#FA4616"/>
<path d="M281.052 423.286C280.622 423.238 280.414 422.954 280.373 422.517C280.29 421.664 280.685 420.984 281.281 420.471C284.388 417.815 287.523 415.187 290.643 412.559C290.768 412.455 290.893 412.337 291.032 412.254C291.267 412.108 291.531 411.977 291.781 412.219C291.975 412.407 291.871 412.621 291.801 412.83C291.364 414.168 290.581 415.298 289.631 416.317C288.161 417.905 286.406 419.167 284.79 420.596C283.923 421.366 283.008 422.08 282.107 422.808C281.808 423.051 281.496 423.293 281.046 423.28L281.052 423.286Z" fill="#C30000"/>
<path d="M42.3269 121.979C37.5558 114.649 33.8665 106.799 30.9192 98.5823C28.2909 91.2596 26.3561 83.7567 25.3783 76.0319C24.4838 68.9589 24.3728 61.8859 25.9331 54.8683C26.5919 51.9282 27.6391 49.1406 29.2687 46.5818C32.8818 40.9165 38.5544 38.6836 45.0661 40.3271C48.8872 41.2909 52.2852 43.1147 55.4613 45.3822C60.1908 48.7523 64.2338 52.8435 67.8676 57.3508C76.7441 68.3486 83.0547 80.7195 87.4652 94.1027C89.8855 101.439 91.5914 108.942 92.2571 116.646C92.805 122.97 92.7356 129.267 91.1337 135.473C91.0366 135.847 90.9326 136.222 90.8216 136.589C90.2461 138.482 89.6289 140.355 88.3737 141.936C87.8813 141.956 87.6108 142.331 87.271 142.608C85.7246 143.877 84.0603 144.952 82.1601 145.639C78.2628 147.046 74.3516 146.852 70.4612 145.645C64.0188 143.648 58.7761 139.717 53.9426 135.195C50.4683 131.943 47.4239 128.289 44.5876 124.468C44.2894 124.066 44.0953 123.567 43.4503 123.726L43.4364 123.705C43.5751 123.144 43.5405 122.693 42.7915 122.693C42.7083 122.547 42.6181 122.409 42.5349 122.263C42.5488 122.103 42.4725 122.006 42.313 121.972L42.3269 121.979ZM36.6889 94.1928C36.9663 100.683 39.6362 106.494 44.8927 111.064C46.5363 112.493 48.4156 113.553 50.5446 114.115C53.5959 114.913 56.4322 114.594 59.0535 112.68C62.0077 110.53 65.0105 108.45 68.0271 106.397C69.1089 105.662 69.7816 104.712 70.059 103.485C70.4335 101.862 70.6762 100.226 70.5583 98.5476C70.0728 91.6479 67.3614 85.733 62.6665 80.7056C61.869 79.8527 60.9536 79.1384 59.9897 78.4797C57.7082 76.9125 55.4197 76.5935 52.84 77.9249C49.6014 79.603 46.2866 81.1494 42.9233 82.564C40.3297 83.6596 38.7555 85.5596 37.7153 88.049C36.9594 89.8658 36.7583 91.7866 36.682 94.1859L36.6889 94.1928Z" fill="#DBF505"/>
<path d="M43.4604 123.733C44.1054 123.573 44.2996 124.072 44.5977 124.475C47.4341 128.295 50.4784 131.957 53.9527 135.202C58.7863 139.723 64.0289 143.655 70.4713 145.652C74.3617 146.859 78.266 147.053 82.1703 145.645C84.0704 144.959 85.7278 143.891 87.2812 142.615C87.621 142.337 87.8914 141.963 88.3838 141.942C87.0523 145.111 84.6668 147.254 81.5877 148.592C77.7112 150.277 73.7931 149.84 69.9304 148.46C65.7002 146.949 62.0456 144.48 58.6268 141.616C52.6767 136.624 47.8987 130.618 43.5991 124.204C43.5159 124.072 43.5021 123.892 43.4604 123.74V123.733Z" fill="#A5BB00"/>
<path d="M42.8013 122.699C43.5502 122.699 43.5849 123.15 43.4462 123.712C43.0232 123.504 42.8221 123.164 42.8013 122.699Z" fill="#A5BB00"/>
<path d="M42.3339 121.981C42.49 122.015 42.5578 122.11 42.5511 122.266C42.3474 122.266 42.2796 122.171 42.3339 121.981Z" fill="#A5BB00"/>
<path d="M246.09 324.555C243.608 324.451 241.638 324.208 239.821 323.279C236.763 321.719 235.549 318.987 236.444 315.658C237.04 313.46 238.323 311.657 239.904 310.076C243.601 306.373 248.067 304.064 253.15 302.934C256.097 302.275 259.058 302.088 262.019 302.906C262.768 303.114 263.483 303.405 264.162 303.787C266.867 305.312 267.997 307.961 267.241 310.978C266.714 313.072 265.584 314.84 264.114 316.379C259.863 320.824 254.613 323.334 248.58 324.271C247.602 324.423 246.61 324.617 246.09 324.555ZM245.681 323.272C252.408 322.884 258.247 320.471 263.039 315.658C263.822 314.875 264.488 313.98 265.036 313.016C267.526 308.661 265.847 304.979 260.917 303.96C258.822 303.53 256.735 303.572 254.648 303.96C249.343 304.938 244.655 307.164 240.813 311.005C239.433 312.385 238.303 313.952 237.734 315.866C236.902 318.675 237.866 320.942 240.494 322.197C242.124 322.974 243.864 323.251 245.674 323.279L245.681 323.272Z" fill="#121212"/>
<path d="M36.6821 94.1898C36.7584 91.7906 36.9595 89.8698 37.7154 88.053C38.7487 85.5635 40.3229 83.6566 42.9234 82.5679C46.2868 81.1533 49.6016 79.607 52.8401 77.9289C55.4198 76.5975 57.7083 76.9095 59.9898 78.4836C60.9538 79.1424 61.8692 79.8566 62.6667 80.7095C67.3684 85.7369 70.0799 91.6519 70.5584 98.5515C70.6763 100.23 70.4266 101.866 70.0591 103.489C69.7748 104.716 69.109 105.666 68.0272 106.401C65.0037 108.454 62.0009 110.534 59.0536 112.684C56.4323 114.598 53.5891 114.917 50.5447 114.119C48.4157 113.564 46.5364 112.496 44.8929 111.068C39.6363 106.498 36.9665 100.687 36.6891 94.1968L36.6821 94.1898ZM60.184 110.083C60.6694 110.069 60.9676 109.702 61.3282 109.459C63.1035 108.225 64.8095 106.894 66.6541 105.77C68.1867 104.834 68.8525 103.468 69.0952 101.831C69.6846 97.8304 68.9495 94.0234 67.2713 90.376C65.6971 86.0628 63.1937 82.4292 59.4628 79.704C58.6584 79.1146 57.7569 78.6986 56.7999 78.3865C56.0093 78.123 55.3158 78.1924 54.5669 78.546C50.6765 80.4044 46.7861 82.2559 42.861 84.0449C41.481 84.676 40.5032 85.6537 39.7265 86.8949C38.8596 88.2749 38.3118 89.7935 38.1731 91.4092C37.4519 99.6541 40.5795 106.179 47.1189 111.13C47.8679 111.699 48.7278 112.101 49.6016 112.455C52.8193 113.738 55.8637 113.62 58.6514 111.352C59.1646 110.936 59.6708 110.513 60.184 110.097V110.083Z" fill="#121212"/>
<path d="M245.67 323.266C243.86 323.245 242.119 322.968 240.489 322.184C237.861 320.929 236.89 318.661 237.729 315.853C238.298 313.939 239.421 312.372 240.808 310.992C244.65 307.15 249.338 304.924 254.643 303.947C256.73 303.565 258.818 303.517 260.912 303.947C265.836 304.966 267.521 308.655 265.031 313.003C264.477 313.967 263.818 314.861 263.034 315.645C258.242 320.457 252.403 322.87 245.676 323.259L245.67 323.266ZM254.019 308.225C251.127 308.378 248.693 309.508 246.744 311.658C246.418 312.018 246.155 312.462 245.954 312.913C245.247 314.515 245.878 315.895 247.549 316.449C248.083 316.63 248.631 316.664 249.185 316.637C252.029 316.491 254.421 315.361 256.342 313.287C257.244 312.31 257.84 311.138 257.251 309.813C256.647 308.468 255.371 308.232 254.019 308.225ZM264.768 309.335C264.768 308.087 264.019 307.483 262.861 307.781C260.919 308.288 258.721 311.165 258.762 313.128C258.79 314.424 259.622 315.028 260.85 314.646C262.708 314.078 264.768 311.276 264.761 309.328L264.768 309.335ZM240.302 316.137C240.406 316.116 240.517 316.103 240.621 316.075C241.744 315.791 243.478 313.509 243.485 312.31C243.485 311.512 243.048 311.2 242.313 311.477C241.231 311.88 239.636 314.064 239.588 315.201C239.567 315.721 239.796 316.026 240.302 316.137ZM259.269 316.186C259.227 315.784 258.943 315.596 258.499 315.589C257.604 315.562 256.238 316.671 256.092 317.538C256.016 317.996 256.21 318.301 256.647 318.384C257.549 318.557 259.234 317.164 259.262 316.186H259.269Z" fill="#DBF505"/>
<path d="M60.1961 110.084C59.683 110.507 59.1767 110.923 58.6636 111.339C55.8758 113.6 52.8314 113.725 49.6137 112.442C48.7399 112.095 47.88 111.686 47.1311 111.117C40.5916 106.159 37.464 99.641 38.1852 91.3961C38.3239 89.7804 38.8718 88.2687 39.7386 86.8818C40.5153 85.6406 41.4931 84.6628 42.8731 84.0318C46.7982 82.2428 50.6886 80.3913 54.579 78.5329C55.3279 78.1793 56.0214 78.1099 56.812 78.3734C57.769 78.6924 58.6636 79.1015 59.4749 79.6909C63.2058 82.4231 65.7093 86.0566 67.2835 90.3629C65.314 91.3545 63.3931 92.4293 61.5692 93.6636C60.5845 94.3293 60.0436 95.2238 60.4319 96.4859C60.5567 96.9019 60.5637 97.3596 60.6816 97.7756C61.1739 99.537 61.3542 101.375 61.382 103.15C61.4097 104.98 61.2641 106.894 60.4943 108.642C60.2932 109.099 60.0505 109.536 60.1961 110.063V110.084ZM58.5803 102.227C58.2821 97.0683 56.07 92.1034 51.6872 88.1716C50.4389 87.0552 48.9965 86.2508 47.3252 85.8972C44.5444 85.3008 42.2837 86.3479 40.9591 88.872C40.5708 89.607 40.2726 90.3767 40.1755 91.2158C39.267 98.7534 42.0895 104.71 47.9285 109.356C48.837 110.077 49.9188 110.521 51.0769 110.784C53.8716 111.422 56.2711 110.313 57.5679 107.754C58.3446 106.236 58.5387 104.599 58.5803 102.227Z" fill="#D0E6EC"/>
<path d="M60.1972 110.09C60.0516 109.563 60.2943 109.126 60.4954 108.668C61.2721 106.914 61.4177 105 61.383 103.176C61.3553 101.394 61.1681 99.5565 60.6826 97.8021C60.5647 97.3791 60.5578 96.9284 60.433 96.5123C60.0516 95.2503 60.5925 94.3558 61.5703 93.6901C63.3941 92.4558 65.315 91.381 67.2845 90.3893C68.9558 94.0368 69.6978 97.8437 69.1083 101.845C68.8656 103.481 68.2068 104.847 66.6673 105.784C64.8296 106.907 63.1167 108.238 61.3414 109.473C60.9878 109.722 60.6826 110.083 60.1972 110.097V110.09Z" fill="#93B2BB"/>
<path d="M254.033 308.23C255.379 308.23 256.661 308.472 257.265 309.818C257.854 311.142 257.258 312.321 256.356 313.292C254.435 315.372 252.043 316.502 249.2 316.641C248.645 316.669 248.097 316.627 247.563 316.454C245.899 315.899 245.261 314.519 245.968 312.917C246.169 312.467 246.433 312.023 246.759 311.662C248.707 309.513 251.141 308.382 254.033 308.23ZM253.929 309.533C251.592 309.707 249.463 310.622 247.764 312.453C247.459 312.779 247.23 313.16 247.105 313.59C246.877 314.38 247.126 314.887 247.861 315.185C250.15 316.107 255.295 313.722 256.044 311.392C256.329 310.504 255.996 309.88 255.067 309.644C254.748 309.568 254.408 309.575 253.936 309.533H253.929Z" fill="#0F0C07"/>
<path d="M264.782 309.34C264.782 311.289 262.729 314.09 260.87 314.659C259.643 315.033 258.811 314.437 258.783 313.14C258.734 311.178 260.94 308.3 262.881 307.794C264.04 307.489 264.789 308.099 264.789 309.347L264.782 309.34Z" fill="#FCF6F5"/>
<path d="M240.311 316.139C239.805 316.028 239.576 315.723 239.597 315.203C239.652 314.066 241.24 311.882 242.322 311.479C243.057 311.202 243.494 311.514 243.494 312.312C243.494 313.511 241.76 315.793 240.63 316.077C240.526 316.105 240.415 316.119 240.311 316.139Z" fill="#FCF6F5"/>
<path d="M259.274 316.186C259.246 317.163 257.561 318.557 256.66 318.384C256.216 318.301 256.022 317.995 256.105 317.538C256.25 316.664 257.617 315.562 258.511 315.589C258.955 315.603 259.239 315.783 259.281 316.186H259.274Z" fill="#FCF6F5"/>
<path d="M58.5784 102.233C58.5368 104.604 58.3426 106.234 57.5659 107.759C56.2622 110.318 53.8697 111.428 51.075 110.79C49.9238 110.526 48.8351 110.082 47.9266 109.361C42.0876 104.715 39.2651 98.7657 40.1736 91.2211C40.2706 90.3821 40.5758 89.6124 40.9572 88.8773C42.2817 86.3463 44.5425 85.3062 47.3233 85.9025C48.9946 86.2562 50.4439 87.0606 51.6853 88.177C56.068 92.1087 58.2802 97.0737 58.5784 102.233ZM57.3024 102.427C57.0042 97.469 55.0139 92.9825 51.1305 89.3836C50.1527 88.4752 49.0223 87.7748 47.7394 87.3449C45.1388 86.4711 43.0029 87.4003 41.8864 89.9106C41.3594 91.0963 41.1514 92.3584 41.186 93.6343C41.3317 99.1124 43.4468 103.717 47.462 107.427C48.4814 108.37 49.6811 109.07 51.0403 109.451C53.4814 110.138 55.4162 109.25 56.498 106.948C57.129 105.61 57.24 104.181 57.2955 102.434L57.3024 102.427Z" fill="#121212"/>
<path d="M253.926 309.533C254.398 309.574 254.738 309.567 255.057 309.643C255.986 309.879 256.319 310.496 256.035 311.391C255.286 313.721 250.147 316.099 247.852 315.184C247.116 314.886 246.867 314.38 247.096 313.589C247.22 313.159 247.449 312.778 247.754 312.452C249.46 310.621 251.582 309.699 253.919 309.533H253.926Z" fill="#A5BB00"/>
<path d="M57.2957 102.428C57.2403 104.182 57.1293 105.61 56.4982 106.942C55.4164 109.244 53.4816 110.132 51.0406 109.445C49.6814 109.064 48.4817 108.363 47.4623 107.42C43.447 103.71 41.325 99.1061 41.1863 93.628C41.1516 92.3521 41.3597 91.09 41.8867 89.9043C43.0032 87.394 45.1391 86.4648 47.7396 87.3386C49.0226 87.7685 50.146 88.4689 51.1307 89.3772C55.0142 92.9762 56.9975 97.4627 57.3027 102.421L57.2957 102.428Z" fill="#93B2BB"/>
</g>
<defs>
<clipPath id="clip0_432_2740">
<rect width="331.502" height="464.911" fill="white" transform="translate(0.866699 0.178101)"/>
</clipPath>
</defs>
</svg>
