<svg width="457" height="406" viewBox="0 0 457 406" fill="none" xmlns="http://www.w3.org/2000/svg">
<path d="M279.867 292.668C273.96 291.667 268.174 290.69 262.391 289.701C254.568 288.367 246.772 286.869 239.003 285.212C238.015 285.002 237.148 285.024 236.214 285.517C218.386 294.942 200.3 303.745 182.05 312.163C181.708 312.32 181.286 312.36 180.977 312.933C181.41 313.574 181.903 314.271 182.362 314.992C184.384 318.19 185.276 321.66 184.543 325.542C184.231 327.187 184.118 328.882 183.71 330.493C182.54 335.094 179.518 337.762 175.539 339.275C172.067 340.594 168.49 340.788 164.86 340.184C160.382 339.438 156.287 337.697 152.648 334.755C150.665 333.152 148.977 331.248 147.706 328.916C146.989 327.6 146.949 327.619 145.607 328.155C139.75 330.49 133.899 332.847 128.037 335.168C122.053 337.537 115.998 339.691 109.909 341.712C108.872 342.057 108.099 342.603 107.414 343.508C103.588 348.549 99.4159 353.214 94.6268 357.195C92.6784 358.816 90.6421 360.286 88.4019 361.392C87.1671 362.002 85.8955 362.477 84.522 362.575C81.4831 362.797 79.7556 361.158 79.5828 357.87C79.4894 356.098 79.7556 354.385 80.1719 352.681C81.0385 349.132 82.4064 345.807 84.1991 342.723C85.3234 340.791 85.2838 339.355 84.032 337.346C73.3806 320.267 64.3462 302.198 56.6826 283.32C56.4079 282.642 56.2465 281.881 55.7509 281.348C55.2722 281.317 55.2043 281.727 55.0683 282.007C50.4945 291.393 46.8213 301.142 44.9946 311.63C44.516 314.385 44.1988 317.164 44.1167 319.971C44.0402 322.519 43.8958 322.618 41.6584 321.598C35.9037 318.976 30.1517 316.338 24.3969 313.713C17.2771 310.465 10.1572 307.224 3.03738 303.979C2.79949 303.872 2.56159 303.764 2.32653 303.65C0.737733 302.873 0.564976 302.581 0.788711 300.784C1.30981 296.621 1.87906 292.465 2.66071 288.348C5.71936 272.234 10.9134 257.022 18.8744 242.977C23.5303 234.763 28.9764 227.235 35.4307 220.608C36.4956 219.514 36.7958 218.583 36.4587 216.987C33.907 204.896 32.0096 192.686 30.7663 180.348C29.3927 166.739 28.8631 153.095 29.3814 139.423C29.8685 126.525 31.2534 113.729 34.009 101.155C34.3573 99.5617 34.0826 98.3785 33.3859 97.0258C30.7691 91.948 28.5516 86.6729 27.2177 81.0004C26.6711 78.674 26.4077 76.3231 26.4955 73.9259C26.5408 72.6533 26.7475 71.4208 27.2517 70.2623C28.1806 68.1239 29.7184 66.9099 31.8764 66.6295C34.111 66.3368 36.2322 66.873 38.3024 67.711C41.4007 68.9651 44.23 70.7645 46.9459 72.792C50.3019 75.2939 53.4597 78.064 56.4051 81.1082C57.2009 81.9309 57.8721 82.1528 58.9228 81.6967C68.1837 77.6727 77.5607 73.9906 87.0085 70.5242C87.9686 70.173 88.215 69.5136 88.5124 68.6077C91.3954 59.8693 96.6688 53.6576 104.828 50.5455C106.808 49.7906 108.852 49.5934 110.923 49.7567C113.746 49.9817 116.122 51.2419 118.02 53.5436C119.054 54.7946 120.158 55.9901 121.073 57.3366C121.775 58.3719 122.489 58.4458 123.534 58.1192C128.606 56.5478 133.69 55.0164 138.785 53.5251C153.698 49.1528 168.717 45.2551 183.826 41.7795C184.078 41.7209 184.324 41.5761 184.574 41.5761C185.723 41.5699 186.055 40.7965 186.228 39.7212C186.992 34.9607 187.794 30.2095 188.587 25.4551C189.207 21.7361 189.836 18.017 190.467 14.298C190.813 12.2675 190.824 12.3075 192.767 11.9563C197.428 11.1089 202.127 10.9056 206.828 11.149C225.8 12.1196 243.832 16.991 260.646 26.7708C261.38 27.196 262.054 27.2946 262.852 27.1929C267.967 26.5428 273.087 25.9358 278.205 25.3134C284.858 24.503 291.527 23.8806 298.199 23.2736C308.149 22.3708 318.112 21.7515 328.084 21.354C335.356 21.0644 342.64 21.0212 349.919 20.9442C351.174 20.9319 352.04 20.6022 352.878 19.5084C356.268 15.093 359.879 10.8994 363.861 7.09718C365.753 5.29158 367.73 3.60615 369.928 2.25658C371.219 1.46162 372.559 0.80532 374.04 0.500279C376.923 -0.0974787 379.098 1.01484 380.423 3.87114C381.494 6.17281 381.811 8.67477 381.919 11.2014C382.094 15.2717 381.87 19.3296 381.293 23.3537C381.086 24.7957 381.301 26.0344 381.924 27.3624C388.345 41.0708 393.068 55.4971 397.053 70.2253C397.798 72.9769 398.523 75.7315 399.265 78.483C399.279 78.5385 399.359 78.5754 399.514 78.7264C399.908 78.5539 400.367 78.3567 400.82 78.1502C411.874 73.1371 423.343 69.8463 435.233 68.2503C440.16 67.5909 445.105 67.2704 450.064 67.1441C452.174 67.0917 452.148 67.1441 452.344 69.4427C453.202 79.4844 454.083 89.5261 454.947 99.5678C455.456 105.496 455.955 111.424 456.436 117.356C456.541 118.647 456.275 118.955 454.958 118.819C453.035 118.625 451.118 118.419 449.183 118.354C439.645 118.046 430.313 119.593 421.078 122.008C421.024 122.024 420.981 122.098 420.84 122.239C421.024 123.001 421.721 123.315 422.185 123.811C424.683 126.479 426.566 129.499 426.954 133.4C426.997 133.816 427.031 134.238 427.025 134.657C426.988 137.661 424.369 144.754 422.46 146.942C420.104 149.641 417.113 151.015 413.813 151.681C411.222 152.201 411.219 152.177 411.457 154.971C412.499 167.114 413.131 179.282 413.281 191.481C413.309 193.884 412.893 193.326 415.062 194.279C425.385 198.802 435.085 204.524 443.933 211.915C445.264 213.028 445.553 214.051 445.128 215.822C441.472 231.059 437.912 246.327 434.323 261.582C434.227 261.988 434.179 262.414 434.046 262.805C433.675 263.92 433.208 264.093 432.321 263.304C431.021 262.152 429.721 261.006 428.328 259.992C423.437 256.43 418.155 253.7 412.695 251.355C411.803 250.973 410.936 250.486 409.863 250.301C409.24 252.449 409.061 254.674 408.656 256.846C406.926 266.127 404.756 275.262 401.327 284.001C400.214 286.839 398.993 289.618 397.501 292.24C397.07 292.998 397.082 293.549 397.54 294.311C398.99 296.714 400.242 299.237 401.066 301.992C401.511 303.474 401.786 304.975 401.647 306.534C401.468 308.549 400.392 309.855 398.588 310.364C397.025 310.801 395.507 310.484 394.014 310.04C390.052 308.863 386.407 306.839 383.196 304.149C380.426 301.832 377.605 301.135 374.145 301.169C361.389 301.29 348.65 300.556 335.937 299.388C334.334 299.241 332.725 299.145 331.128 298.935C330.242 298.818 329.902 299.173 329.636 300.076C324.181 318.532 305.634 339.521 286.823 347.511C284.24 348.608 281.595 349.483 278.845 349.967C278.174 350.084 277.63 349.985 277.01 349.655C262.614 341.992 248.202 334.357 233.795 326.719C233.334 326.472 232.872 326.223 232.41 325.976C232.096 325.807 231.892 325.533 231.92 325.151C231.957 324.645 232.306 324.47 232.716 324.405C232.971 324.365 233.226 324.316 233.484 324.291C239.802 323.668 245.667 321.416 251.292 318.363C261.991 312.554 271.133 304.599 278.74 294.563C279.14 294.039 279.647 293.58 279.859 292.659L279.867 292.668ZM382.765 254.199C385.266 255.016 387.767 255.832 390.395 256.692C390.978 254.325 391.426 252.067 392.114 249.895C392.525 248.597 392.08 247.994 391.202 247.325C387.543 244.552 383.471 242.977 379.109 242.136C377.716 241.868 376.608 242.038 375.864 243.504C375.651 243.92 375.277 244.238 374.977 244.598C374.55 244.897 374.153 245.273 373.689 245.476C372.813 245.864 372.587 246.438 372.856 247.427C373.199 248.69 373.394 249.999 373.68 251.281C374.164 253.472 373.774 253.49 376.116 253.497C376.815 253.497 377.515 253.608 378.214 253.685C379.732 253.851 381.25 254.027 382.765 254.196V254.199ZM372.604 182.764C372.38 175.283 372.142 167.802 371.953 160.32C371.927 159.331 371.488 159.171 370.755 159.171C368.438 159.165 366.13 159.211 363.83 159.606C363.034 159.741 362.686 160.031 362.771 160.937C363.054 163.996 363.309 167.059 363.572 170.122C363.666 174.654 364.187 179.15 364.558 183.658C364.623 184.44 365.093 184.496 365.64 184.483C367.566 184.446 369.491 184.412 371.414 184.369C372.584 184.345 372.584 184.339 372.604 182.764ZM387.257 141.802C386.492 142.002 385.838 142.452 385.167 142.871C382.199 144.72 379.37 146.788 376.679 149.086C376.138 149.548 375.561 150.359 374.841 149.943C374.037 149.474 374.331 148.451 374.414 147.638C374.499 146.815 374.584 146.011 374.377 145.041C373.405 145.475 372.873 146.292 372.193 146.886C371.842 147.194 371.528 147.604 371.015 147.422C370.401 147.204 370.403 146.609 370.358 146.045C370.188 143.953 370.015 141.861 369.828 139.772C369.361 134.617 368.934 129.459 368.395 124.316C368.135 121.836 368.166 119.303 367.557 116.721C365.753 117.63 364.212 118.807 362.442 119.439C361.372 119.821 360.998 120.492 361.026 121.771C361.111 125.764 361.222 129.752 361.428 133.739C361.666 138.283 361.681 142.844 361.989 147.382C362.154 149.829 362.151 152.285 362.386 154.722C362.728 158.262 362.762 158.311 366.022 157.837C367.823 157.575 369.619 157.489 371.414 157.671C373.125 157.843 373.383 158.222 373.431 160.034C373.587 165.777 373.74 171.518 373.898 177.261C373.935 178.589 373.972 179.92 374.048 181.248C374.105 182.222 373.946 183.402 374.394 184.104C374.969 185.004 376.195 184.431 377.13 184.563C380.636 185.06 384.179 185.241 387.651 186.012C388.177 186.129 388.54 185.975 388.631 185.346C388.701 184.862 388.806 184.379 388.815 183.895C388.897 179.338 388.574 174.802 388.279 170.26C388.033 166.489 387.758 162.73 387.062 159.014C386.855 157.92 387.404 157.439 388.43 157.704C388.585 158.74 388.775 159.769 388.894 160.807C389.806 168.738 390.33 176.694 390.069 184.693C390.016 186.384 390.03 186.425 391.703 186.779C396.255 187.749 400.738 189.003 405.167 190.486C407.308 191.203 409.427 192.005 411.551 192.766C411.944 192.005 411.757 191.299 411.76 190.624C411.808 182.564 411.318 174.528 410.888 166.489C410.766 164.23 410.769 164.261 408.764 163.882C404.012 162.983 399.579 161.195 395.634 158.111C393.946 156.789 392.431 155.27 391.417 153.267C390.256 150.972 389.928 148.492 392.086 146.162C392.259 145.977 392.468 145.78 392.346 145.281C391.449 144.403 390.539 143.318 389.707 142.163C388.772 140.869 388.767 140.875 387.263 141.808L387.257 141.802ZM305.416 333.051C305.792 332.786 306.203 332.564 306.543 332.25C314.266 325.086 320.7 316.782 325.396 306.947C325.563 306.595 325.809 306.213 325.472 305.693C323.142 305.227 320.717 304.839 318.344 304.226C317.203 303.93 316.605 304.26 315.94 305.227C313.561 308.688 310.632 311.513 307.189 313.682C303.849 315.787 300.309 317.145 296.381 317.041C290.27 316.88 286.135 312.413 285.945 305.76C285.88 303.499 286.126 301.283 286.8 299.142C287.103 298.174 286.871 297.771 285.922 297.592C284.277 297.284 282.64 296.88 281.026 296.415C279.952 296.104 279.29 296.418 278.553 297.349C271.32 306.469 262.762 313.784 252.943 319.352C252.49 319.607 252.071 319.934 251.637 320.227C251.45 320.276 251.252 320.295 251.082 320.378C246.511 322.679 241.818 324.581 236.831 325.52C236.573 325.57 236.355 325.696 236.248 325.979C236.401 326.321 236.698 326.46 236.987 326.614C250.241 333.633 263.498 340.643 276.741 347.687C277.726 348.21 278.675 348.364 279.72 348.099C281.538 347.64 283.351 347.16 285.11 346.46C292.394 343.573 298.828 339.112 304.829 333.849C305.076 333.63 305.345 333.424 305.418 333.051H305.416ZM399.005 244.521C400.964 245.211 402.924 245.901 404.881 246.595C414.657 250.058 424.119 254.23 432.369 261.117C432.457 261.19 432.61 261.172 432.825 261.218C432.987 260.654 433.176 260.084 433.315 259.499C436.725 244.98 440.104 230.452 443.576 215.952C443.93 214.467 443.635 213.684 442.565 212.806C436.583 207.882 430.223 203.642 423.474 200.099C406.903 191.395 389.469 186.409 371.021 185.922C368.984 185.867 366.943 186.073 364.793 186.166C365.272 191.24 365.563 196.063 366.353 200.823C366.206 201.162 366.186 201.476 366.498 201.726C366.526 201.994 366.552 202.265 366.58 202.533C366.399 203.159 366.518 203.784 366.591 204.403C367.891 215.631 369.316 226.841 371.165 237.983C371.477 239.865 371.477 239.878 373.21 239.97C378.868 240.269 384.456 241.141 389.993 242.404C393 243.091 396.003 243.815 399.005 244.524V244.521ZM381.953 136.906C383.468 136.293 384.81 135.316 386.232 134.503C386.662 134.256 386.954 133.954 386.974 133.387C387.067 130.651 388.288 128.297 389.146 125.82C390.46 122.03 392.95 119.503 396.337 118.086C403.335 115.156 410.146 116.179 416.694 119.734C418.234 120.573 419.546 120.797 421.225 120.348C428.993 118.277 436.869 116.927 444.884 116.733C447.847 116.662 450.809 116.647 453.754 117.1C454.513 117.217 454.983 117.125 454.884 116.049C454.465 111.52 454.103 106.987 453.712 102.455C453.126 95.6239 452.539 88.7928 451.95 81.9617C451.613 78.0578 451.248 74.157 450.951 70.25C450.866 69.1315 450.492 68.7248 449.416 68.7587C445.487 68.885 441.571 69.1223 437.662 69.5783C423.595 71.2175 410.103 75.1399 397.28 81.6752C389.067 85.8595 381.463 91.0544 374.799 97.8085C373.895 98.7236 373.343 99.6449 373.47 101.065C373.595 102.455 373.397 103.878 373.527 105.265C373.875 109.021 372.508 111.97 370.018 114.382C369.305 115.073 369.084 115.787 369.194 116.767C369.525 119.685 369.82 122.609 370.126 125.533C370.117 125.949 370.069 126.368 370.103 126.778C370.463 130.873 370.783 134.974 371.233 139.06C371.434 140.899 371.346 142.794 371.834 144.575C372.536 144.569 372.845 144.073 373.235 143.734C375.546 141.731 377.957 139.883 380.449 138.154C380.975 137.787 381.621 137.575 381.944 136.912L381.953 136.906ZM55.6716 277.068C58.7472 272.061 61.6303 266.915 65.0061 262.13C72.1514 251.999 80.1719 242.863 90.0813 235.863C90.3079 235.703 90.475 235.515 90.5175 235.139C90.206 234.763 89.8746 234.338 89.5206 233.937C80.8544 224.139 72.1826 214.34 63.5136 204.545C62.0749 202.921 62.3779 202.992 60.4181 203.954C50.9788 208.591 42.6525 214.994 35.3146 222.915C23.8248 235.317 15.6543 250.027 9.97598 266.435C7.31665 274.113 5.18976 281.961 3.92949 290.068C3.12518 293.466 2.84197 296.963 2.30104 300.411C2.12828 301.521 2.51628 302.017 3.44803 302.433C9.22547 305.015 14.9746 307.665 20.735 310.296C27.4442 313.359 34.1506 316.428 40.8598 319.49C42.6497 320.307 42.6695 320.301 42.746 318.295C42.8592 315.414 43.2869 312.585 43.825 309.769C45.8697 299.105 49.7554 289.217 54.5104 279.693C54.9352 278.843 55.5555 278.085 55.6744 277.071L55.6716 277.068ZM66.8385 302.245V302.251C66.7818 302.781 67.0622 303.197 67.2746 303.619C69.0531 307.193 70.8175 310.777 72.6471 314.32C76.9405 322.633 81.5568 330.731 86.5129 338.594C87.1218 339.561 87.2379 340.239 86.5611 341.364C84.4767 344.833 82.8709 348.583 81.772 352.57C81.2877 354.327 80.979 356.111 81.1178 357.953C81.2962 360.323 82.6726 361.466 84.8222 360.991C85.9607 360.742 87.0482 360.304 88.096 359.747C89.8972 358.791 91.5738 357.617 93.1768 356.314C98.317 352.13 102.701 347.101 106.796 341.758C107.312 341.084 107.85 340.606 108.64 340.356C118.408 337.247 127.98 333.51 137.524 329.686C140 328.694 142.478 327.702 144.936 326.657C146.29 326.084 146.324 326.026 146.004 324.482C145.757 323.299 145.641 322.116 145.803 320.935C146.08 318.93 146.451 316.939 146.777 314.939C147.187 312.422 148.323 310.358 150.068 308.675C152.996 305.853 156.519 304.614 160.331 304.392C167.159 303.992 173.322 306.062 178.683 310.721C179.408 311.35 179.949 311.381 180.75 311.008C191.113 306.189 201.45 301.308 211.711 296.239C224.965 289.689 238.114 282.901 251.079 275.697C251.482 275.475 251.878 275.235 252.297 275.056C252.776 274.853 253.218 274.957 253.413 275.521C253.58 276.011 253.246 276.304 252.909 276.523C252.521 276.772 252.113 276.985 251.711 277.204C248.369 279.025 245.022 280.83 241.691 282.673C241.21 282.938 240.587 283.018 240.315 283.659C240.745 284.072 241.272 284.087 241.776 284.186C245.067 284.83 248.352 285.517 251.651 286.124C258.12 287.313 264.586 288.533 271.074 289.596C277.942 290.721 284.829 291.725 291.72 292.699C298.672 293.682 305.631 294.631 312.598 295.466C319.182 296.252 325.781 296.96 332.383 297.534C340.08 298.199 347.786 298.754 355.495 299.213C360.315 299.499 365.15 299.558 369.979 299.66C372.748 299.718 375.521 299.703 378.291 299.638C379.384 299.613 380.239 299.962 381.12 300.664C384.711 303.526 388.441 306.155 392.638 307.877C394.145 308.496 395.674 309.082 397.322 308.983C399.359 308.86 400.078 307.967 400.092 305.619C400.316 303.631 399.523 301.906 398.823 300.193C397.348 296.588 395.306 293.349 393.114 290.222C392.805 289.781 392.403 289.399 392.309 288.811C392.261 288.509 392.346 288.237 392.562 288.065C392.78 287.889 393.08 287.868 393.278 288.056C393.612 288.373 393.898 288.752 394.196 289.116C394.824 289.883 395.215 290.884 396.093 291.485C397.099 290.108 397.747 288.579 398.421 287.073C402.341 278.325 404.819 269.057 406.645 259.576C407.498 255.145 405.014 249.522 401.457 247.297C401.018 247.023 400.511 246.866 400.021 246.709C398.849 246.336 397.671 245.978 396.487 245.646C394.725 245.15 394.722 245.162 394.252 247.035C393.626 249.534 393.012 252.036 392.377 254.535C392.154 255.413 391.93 256.294 391.633 257.142C391.165 258.482 390.862 258.615 389.602 258.211C388.863 257.974 388.121 257.746 387.382 257.515C383.652 255.906 379.772 255.13 375.767 255.096C374.643 255.087 374.555 255.225 374.853 256.452C375.866 260.633 376.979 264.78 378.599 268.746C379.095 269.96 379.661 271.14 380.446 272.166C381.655 273.75 382.593 273.666 383.578 271.91C384.456 270.345 384.923 268.598 385.362 266.848C385.532 266.17 385.589 265.458 386.257 265.097C386.787 265.362 387.098 265.812 386.957 266.438C386.393 268.958 385.818 271.494 384.298 273.583C383.003 275.358 381.514 275.444 379.981 273.919C378.917 272.859 378.22 271.519 377.6 270.123C375.739 265.939 374.535 261.505 373.473 257.028C369.797 241.541 367.659 225.753 365.747 209.922C364.348 198.327 363.241 186.693 362.346 175.039C361.562 164.853 360.922 154.648 360.386 144.443C359.964 136.401 359.783 128.343 359.514 120.295C359.415 117.356 359.27 114.41 359.341 111.471C359.384 109.748 358.647 108.956 357.336 108.377C353.595 106.719 349.681 106.005 345.676 105.77C341.491 105.527 337.313 105.598 333.147 106.171C332.258 106.294 331.343 106.322 330.448 106.257C329.301 106.174 328.704 105.484 328.591 104.257C328.551 103.845 328.622 103.419 328.622 103C328.625 100.07 328.622 97.1398 328.622 94.0432C327.562 94.2866 326.687 94.49 325.815 94.6903C324.201 95.06 323.909 94.872 323.909 93.1681C323.898 83.3575 323.932 73.55 323.748 63.7393C323.683 60.1775 323.83 56.594 323.855 53.0228C323.869 51.0108 323.864 50.9892 325.676 50.5209C330.332 49.3254 335.068 48.7646 339.837 48.6537C346.959 48.4904 353.98 49.3069 360.78 51.7503C361.717 52.0862 362.054 51.8397 362.21 50.8352C362.553 48.6229 363.071 46.4537 363.79 44.3461C364.218 43.0951 364.717 41.875 365.595 40.9013C366.798 39.5641 368.016 39.4655 369.367 40.6209C369.718 40.9198 370.041 41.2772 370.321 41.6593C371.703 43.5481 372.482 45.782 373.32 47.9789C373.476 48.3825 373.179 48.6198 372.981 48.8848C372.023 48.9649 371.834 48.1268 371.582 47.4335C370.987 45.8005 370.29 44.2198 369.33 42.8117C368.078 40.9753 367.005 41.0584 365.965 43.015C365.645 43.6189 365.351 44.2506 365.136 44.9038C364.484 46.8789 363.997 48.9063 363.623 50.9677C363.312 52.6901 363.281 52.7178 364.779 53.4943C367.121 54.7114 369.285 56.1873 371.032 58.3133C372.499 60.0973 373.383 62.1433 373.394 64.5651C373.434 74.7085 373.456 84.855 373.496 94.9984C373.496 95.4513 373.332 95.969 373.89 96.5236C376.167 94.1079 378.764 92.102 381.188 89.862C386.297 86.2076 391.488 82.7074 397.09 79.9897C397.931 79.5799 397.801 78.9976 397.608 78.2766C396.359 73.6455 395.187 68.9867 393.87 64.3802C390.576 52.8719 386.679 41.6161 381.859 30.7517C381.57 30.1016 381.406 29.3282 380.661 28.7736C380.432 29.7966 380.268 30.6593 380.041 31.5067C379.778 32.4957 379.268 32.5111 378.645 31.8394C379.07 28.8722 379.506 25.9081 379.922 22.9378C380.514 18.7042 380.537 14.4397 380.381 10.1722C380.324 8.63163 380.049 7.10026 379.528 5.67058C379.089 4.45965 378.67 3.15013 377.353 2.65097C376.365 1.70196 375.232 1.8098 374.071 2.121C371.706 2.75882 369.71 4.16694 367.792 5.71987C363.745 9.00138 360.214 12.893 356.863 16.9725C354.677 19.6378 352.595 22.4047 350.44 25.1008C350.029 25.6153 349.653 26.7646 348.846 25.9882C348.123 25.2949 349.004 24.6509 349.367 24.0378C349.624 23.6002 350.199 23.3075 349.947 22.5896C349.692 22.5742 349.437 22.5403 349.183 22.5403C335.589 22.5403 322.017 23.1072 308.454 24.0809C299.14 24.7495 289.848 25.6277 280.561 26.6414C270.505 27.7383 260.479 29.0817 250.47 30.5854C235.489 32.8377 220.567 35.5092 205.707 38.5811C180.917 43.7052 156.349 49.8677 132.016 57.1394C129.286 57.9559 126.564 58.8001 123.84 59.6444C123.256 59.8231 122.727 60.0265 123.075 60.9354C123.97 63.2772 123.823 65.7421 123.704 68.1917C123.67 68.8973 123.704 69.5721 123.84 70.2716C124.273 72.5362 124.519 74.7948 124.148 77.1365C122.571 87.1012 117.476 93.9538 108.83 97.562C105.236 99.0625 101.503 99.1365 97.912 97.3863C92.786 94.8905 90.5345 90.2595 90.0898 84.402C90.0247 83.5455 89.9369 82.7813 89.4838 82.0357C88.0507 79.6755 87.558 77.0318 87.6174 74.2309C87.6316 73.5654 87.8978 72.8629 87.4022 72.0556C77.8892 75.562 68.4301 79.2841 59.0984 83.3267C59.2598 84.2357 59.8574 84.5068 60.1802 85.006C60.4125 85.3634 60.6079 85.7362 60.268 86.1368C59.8631 86.6175 59.4581 86.4326 59.0927 86.0721C58.6651 85.6469 58.2601 85.1939 57.8438 84.7564C52.7857 79.4228 47.4274 74.5113 41.1742 70.8785C38.832 69.5166 36.3964 68.3982 33.723 68.1455C32.0096 67.9822 30.3669 68.2287 29.3162 70.0189C28.4751 70.518 28.4128 71.4855 28.1806 72.3267C27.5264 74.6869 27.9399 77.0348 28.41 79.3427C29.8232 86.2939 32.6383 92.6043 36.0028 98.6527C35.9688 98.93 35.9575 99.2135 35.8952 99.4846C33.0234 111.819 31.5564 124.375 30.9645 137.054C30.6388 144.048 30.534 151.049 30.7748 158.065C31.0212 165.281 31.4403 172.476 32.1455 179.646C33.3576 191.977 35.2438 204.194 37.7955 216.285C37.8889 216.725 37.7785 217.301 38.4497 217.505C38.8037 217.181 39.1974 216.827 39.5854 216.47C45.8697 210.689 52.7319 205.901 60.2539 202.256C62.3694 201.23 62.7376 201.313 64.3038 203.082C71.8116 211.561 79.3138 220.047 86.8188 228.533C88.4727 230.4 90.138 232.255 91.7636 234.15C92.6897 235.231 92.6161 235.872 91.5682 236.738C91.2623 236.99 90.914 237.185 90.5968 237.425C88.8607 238.756 87.0963 240.05 85.4027 241.446C83.8621 242.715 84.0122 242.583 85.1818 243.896C86.6149 245.507 88.0422 247.128 89.43 248.782C90.4297 249.978 90.3844 250.277 89.2317 251.3C79.9 259.576 72.7575 269.766 67.2293 281.332C65.4762 284.999 64.0375 288.82 63.253 292.906C63.069 293.861 63.0803 294.665 63.4994 295.515C64.4708 297.481 65.4054 299.469 66.3513 301.447C66.4306 301.767 66.4929 302.103 66.8356 302.229L66.8385 302.245ZM325.538 92.7984C325.994 93.0572 326.432 92.8384 326.849 92.746C330.261 91.9849 333.705 91.5413 337.18 91.2886C345.161 90.7124 353.006 91.495 360.65 94.1017C364.742 95.4975 368.537 97.5435 371.522 101.047C371.573 101.108 371.74 101.056 372.006 101.056C372.006 97.2939 372.018 93.5317 372.001 89.7695C371.995 88.1704 371.972 88.1796 370.531 88.2197C364.787 88.3799 359.984 86.069 356.025 81.6105C354.762 80.1869 353.799 78.5262 353.176 76.6528C351.377 71.2483 353.708 66.1951 358.766 64.5774C361.23 63.7886 363.722 63.8872 366.223 64.3772C368.132 64.75 369.857 65.7021 371.698 66.4693C372.326 62.8643 371.004 60.236 368.662 58.0699C366.167 55.7621 363.25 54.2892 360.16 53.2355C349.469 49.5904 338.616 49.4579 327.696 51.7133C324.909 52.2895 325.218 51.7133 325.235 55.0256C325.274 63.1508 325.365 71.276 325.404 79.4012C325.421 83.185 325.359 86.9718 325.353 90.7555C325.353 91.4396 325.192 92.1544 325.535 92.8046L325.538 92.7984ZM187.539 40.6764C188.017 40.6764 188.213 40.7103 188.4 40.6702C194.715 39.333 201.028 37.9834 207.344 36.6492C208.088 36.4921 208.581 36.0114 209.082 35.4352C214.404 29.2912 220.85 28.0896 227.842 31.9627C228.579 32.3694 229.221 32.4618 230.037 32.3201C234.738 31.4943 239.454 30.7795 244.158 29.9691C246.823 29.51 249.53 29.2758 252.113 28.3638C253.124 28.0064 254.495 27.7568 254.585 26.398C254.662 25.2487 253.402 24.8604 252.578 24.3767C248.825 22.1613 244.775 20.747 240.728 19.3543C228.816 15.2593 216.644 12.7851 204.118 12.6711C200.575 12.6403 197.04 12.8529 193.523 13.3921C192.39 13.5647 191.909 14.1039 191.719 15.3425C191.045 19.761 190.258 24.161 189.527 28.5702C188.867 32.5481 188.221 36.529 187.539 40.6825V40.6764ZM411.126 145.5C414.405 145.54 417.532 144.927 420.438 143.198C424.405 140.835 427.204 135.849 424.488 129.792C423.918 128.522 423.227 127.342 422.33 126.328C416.623 119.867 409.585 117.399 401.497 118.249C398.772 118.536 396.223 119.5 394 121.315C390.44 124.221 389.336 128.611 391.049 133.07C391.752 134.9 392.757 136.518 394.054 137.911C398.789 142.988 404.589 145.232 411.126 145.497V145.5ZM163.364 305.991C158.677 305.976 155.483 306.617 152.614 308.583C148.13 311.655 146.893 317.047 149.453 322.1C150.75 324.661 152.506 326.771 154.701 328.435C160.037 332.484 165.953 334.145 172.418 333.365C174.945 333.06 177.304 332.163 179.408 330.567C182.753 328.025 184.047 323.909 182.857 319.666C182.226 317.407 181.104 315.46 179.586 313.802C174.744 308.521 168.773 306.207 163.367 305.991H163.364ZM119.048 62.1864C119.048 61.7735 119.054 61.4931 119.048 61.2158C118.943 55.8976 115.853 52.1324 111.008 51.3682C109.379 51.1125 107.779 51.2943 106.238 51.7965C98.1216 54.4464 92.8851 60.387 89.9879 68.9035C89.1043 71.4979 88.8607 74.2032 89.243 76.9609C89.801 80.9973 92.3215 84.1093 95.9183 85.0152C97.7534 85.4774 99.6481 85.4928 101.466 84.9443C109.946 82.3869 115.349 76.2861 118.269 67.4122C118.835 65.6928 119.144 63.9027 119.051 62.1864H119.048ZM314.94 303.65C314.283 303.483 313.682 303.295 313.068 303.175C307.948 302.171 302.824 301.194 297.707 300.174C295.118 299.66 292.544 299.049 289.955 298.523C288.65 298.258 288.57 298.335 288.171 299.697C287.698 301.302 287.37 302.966 287.361 304.636C287.333 309.966 289.491 313.913 294.209 315.133C296.107 315.623 298.058 315.571 299.953 315.09C306.109 313.531 310.842 309.621 314.711 304.325C314.818 304.177 314.841 303.952 314.94 303.644V303.65ZM371.984 77.5925C371.941 77.5925 371.896 77.5925 371.853 77.5925C371.853 75.0752 371.794 72.5547 371.879 70.0405C371.919 68.8727 371.519 68.2472 370.596 67.7634C369.2 67.0301 367.781 66.3861 366.271 66.0071C363.38 65.2769 360.525 65.2923 357.801 66.7497C354.779 68.3643 353.451 71.6458 354.326 75.1769C354.699 76.6805 355.325 78.0547 356.181 79.2965C358.596 82.7906 361.831 84.9443 365.674 86.0598C367.353 86.5466 369.052 86.8085 370.814 86.5805C371.709 86.4634 372.018 86.1245 371.998 85.1477C371.947 82.6303 371.981 80.113 371.981 77.5956L371.984 77.5925ZM360.899 96.197C360.607 96.6684 360.703 97.1706 360.703 97.6451C360.72 102.335 360.752 107.021 360.78 111.711C360.791 113.461 360.769 115.211 360.834 116.958C360.876 118.089 361.108 118.268 362.015 117.849C365.054 116.441 367.928 114.715 370.089 111.914C372.825 108.374 372.661 104.729 369.684 101.42C367.379 98.8592 364.496 97.3432 361.44 96.1631C361.278 96.1015 361.069 96.1847 360.899 96.197ZM147.462 322.026C147.445 325.788 148.929 328.783 151.283 331.208C157.454 337.568 164.803 339.882 173.16 338.28C175.27 337.876 177.224 336.927 178.943 335.5C180.275 334.394 181.303 333.048 181.6 331.153C175.808 335.694 169.476 336.11 162.897 334.308C156.278 332.493 150.883 328.728 147.459 322.026H147.462ZM120.744 59.9032C121.005 67.5601 118.19 73.8396 113.432 79.1455C108.68 84.4483 103.03 87.6774 95.9183 86.8578C96.0344 87.5634 96.4365 87.699 96.7481 87.8869C98.9089 89.2088 101.228 89.5508 103.658 89.1256C112.296 87.6188 120.682 78.3659 122.101 68.8141C122.565 65.6928 122.404 62.6979 120.744 59.9032ZM388.832 132.133C388.26 134.481 388.636 136.675 389.588 138.795C390.684 141.241 392.312 143.207 394.283 144.825C399.605 149.191 405.629 150.96 412.233 150.276C415.289 149.958 418.135 148.871 420.525 146.674C421.123 146.122 421.834 145.604 421.973 144.597C421.236 144.36 420.783 144.865 420.293 145.118C419.421 145.571 418.529 145.953 417.606 146.261C408.452 149.293 393.236 144.874 388.835 132.133H388.832ZM226.149 32.9826C220.785 30.0431 214.56 31.2879 210.929 35.8851C215.973 34.9237 220.875 33.9901 226.149 32.9826ZM375.342 241.769C374.516 241.692 373.952 241.643 373.391 241.588C371.811 241.437 371.706 241.541 372.08 243.156C372.173 243.563 372.1 244.176 372.771 244.262C373.774 243.825 374.501 243.002 375.342 241.766V241.769ZM181.906 330.734L181.832 330.654L181.81 330.777L181.909 330.734H181.906Z" fill="#0E0A06"/>
<path d="M245.945 381.832C255.418 381.682 264.883 382.156 274.35 382.31C280.269 382.406 286.189 382.735 292.099 383.139C302.17 383.823 312.238 384.621 322.247 386.072C326.959 386.756 331.663 387.533 336.257 388.925C337.868 389.415 339.477 389.942 340.899 390.941C342.751 392.241 342.754 393.692 340.901 394.986C339.202 396.176 337.274 396.767 335.348 397.325C330.621 398.699 325.801 399.553 320.958 400.261C312.736 401.463 304.487 402.313 296.208 402.93C289.403 403.435 282.595 403.814 275.783 404.187C257.307 405.204 238.819 405.071 220.334 404.96C213.444 404.917 206.553 404.698 199.666 404.393C192.852 404.091 186.038 403.709 179.241 403.13C169.759 402.323 160.28 401.42 150.92 399.454C148.459 398.936 146.012 398.339 143.642 397.423C142.67 397.048 141.707 396.641 140.858 395.997C139.204 394.743 139.212 393.517 140.872 392.21C141.767 391.504 142.789 391.067 143.82 390.673C146.983 389.468 150.254 388.713 153.545 388.078C160.764 386.685 168.04 385.77 175.341 385.046C182.517 384.334 189.702 383.826 196.893 383.348C213.229 382.261 229.584 382.061 245.939 381.836L245.945 381.832Z" fill="#020202"/>
<path d="M29.3168 70.0265C30.3675 68.2394 32.0102 67.9929 33.7236 68.1531C36.397 68.4058 38.8326 69.5274 41.1748 70.8862C47.428 74.5189 52.7834 79.4304 57.8444 84.764C58.2607 85.2015 58.6657 85.6545 59.0933 86.0797C59.4587 86.4433 59.8608 86.6251 60.2686 86.1444C60.6056 85.7438 60.4102 85.3679 60.1808 85.0136C59.858 84.5144 59.2604 84.2433 59.099 83.3343C68.4278 79.2917 77.887 75.5696 87.4028 72.0632C87.8984 72.8705 87.6322 73.573 87.618 74.2385C87.5614 77.0394 88.0513 79.6831 89.4844 82.0433C89.9375 82.7889 90.0253 83.5562 90.0904 84.4097C90.5322 90.2671 92.7837 94.8951 97.9126 97.394C101.504 99.1441 105.236 99.0671 108.83 97.5696C117.477 93.9615 122.572 87.1088 124.149 77.1441C124.52 74.8024 124.274 72.5439 123.84 70.2792C123.707 69.5797 123.67 68.9049 123.704 68.1993C123.823 65.7467 123.971 63.2848 123.076 60.9431C122.727 60.0341 123.26 59.8338 123.84 59.652C126.565 58.8078 129.286 57.9635 132.017 57.147C156.35 49.8722 180.918 43.7098 205.707 38.5888C220.564 35.5168 235.487 32.8454 250.471 30.593C260.48 29.0863 270.508 27.7459 280.562 26.649C289.848 25.6353 299.143 24.7571 308.455 24.0885C322.018 23.1149 335.592 22.5479 349.183 22.5479C349.438 22.5479 349.693 22.5787 349.948 22.5972C350.2 23.3151 349.622 23.6079 349.367 24.0454C349.005 24.6585 348.124 25.3025 348.846 25.9958C349.653 26.7723 350.03 25.6199 350.441 25.1084C352.596 22.4123 354.677 19.6454 356.864 16.9801C360.214 12.8975 363.743 9.00901 367.793 5.7275C369.71 4.17148 371.707 2.76336 374.071 2.12863C375.233 1.81743 376.365 1.70958 377.354 2.6586C377.133 3.93115 377.923 5.10201 377.66 6.38688C377.017 9.51741 376.354 12.6325 375.289 15.6398C374.176 18.7765 373.403 21.9964 373.431 25.4134C373.454 28.2667 375.128 31.4064 378.648 31.8409C379.271 32.5126 379.781 32.4972 380.044 31.5081C380.271 30.6639 380.435 29.798 380.665 28.7751C381.412 29.3297 381.576 30.1062 381.862 30.7532C386.686 41.6145 390.58 52.8733 393.873 64.3817C395.193 68.9881 396.363 73.6469 397.612 78.278C397.807 78.999 397.937 79.5814 397.093 79.9912C391.494 82.7057 386.303 86.2091 381.191 89.8634C380.942 88.4985 380.645 87.1458 380.449 85.7716C379.282 77.5848 377.626 69.5058 375.881 61.4484C374.972 57.2456 373.952 53.0674 372.981 48.8801C373.177 48.6151 373.474 48.3809 373.321 47.9742C372.483 45.7773 371.701 43.5434 370.322 41.6546C370.044 41.2725 369.721 40.9151 369.367 40.6162C368.016 39.4638 366.799 39.5594 365.595 40.8966C364.717 41.8703 364.219 43.0874 363.791 44.3414C363.072 46.4459 362.553 48.6182 362.211 50.8305C362.055 51.835 361.715 52.0815 360.781 51.7456C353.981 49.3022 346.957 48.4857 339.837 48.649C335.068 48.7599 330.333 49.3176 325.677 50.5162C323.864 50.9815 323.87 51.003 323.856 53.0181C323.83 56.5924 323.68 60.1727 323.748 63.7346C323.932 73.5453 323.898 83.3559 323.91 93.1634C323.91 94.8643 324.204 95.0553 325.816 94.6856C326.688 94.4853 327.56 94.285 328.622 94.0385C328.622 97.1351 328.622 100.065 328.622 102.996C328.622 103.415 328.551 103.84 328.591 104.253C328.704 105.479 329.302 106.169 330.449 106.252C331.344 106.317 332.259 106.289 333.148 106.166C337.314 105.59 341.491 105.522 345.677 105.766C349.682 105.997 353.596 106.715 357.337 108.372C358.645 108.952 359.384 109.744 359.342 111.466C359.268 114.402 359.415 117.348 359.515 120.291C359.784 128.342 359.962 136.399 360.387 144.438C360.925 154.646 361.565 164.848 362.347 175.035C363.242 186.688 364.349 198.319 365.748 209.917C367.657 225.749 369.798 241.537 373.474 257.023C374.536 261.5 375.742 265.934 377.6 270.118C378.22 271.514 378.914 272.854 379.982 273.914C381.514 275.439 383.004 275.35 384.298 273.578C385.819 271.489 386.394 268.957 386.957 266.433C387.096 265.808 386.787 265.358 386.258 265.093C386.298 264.751 386.323 264.402 386.374 264.064C386.714 261.882 387.411 259.762 387.385 257.513C388.127 257.744 388.866 257.972 389.605 258.209C390.863 258.613 391.169 258.48 391.636 257.14C391.931 256.29 392.157 255.408 392.381 254.533C393.015 252.038 393.63 249.533 394.256 247.034C394.723 245.16 394.729 245.151 396.49 245.644C397.674 245.977 398.852 246.334 400.025 246.707C400.515 246.864 401.024 247.021 401.46 247.296C405.018 249.52 407.501 255.143 406.649 259.574C404.822 269.055 402.347 278.327 398.424 287.071C397.75 288.575 397.102 290.106 396.097 291.483C395.219 290.883 394.828 289.881 394.199 289.114C393.902 288.75 393.616 288.371 393.281 288.054C393.083 287.866 392.783 287.888 392.565 288.063C392.35 288.236 392.265 288.507 392.313 288.809C392.406 289.397 392.808 289.779 393.117 290.22C395.309 293.348 397.351 296.586 398.827 300.191C399.529 301.904 400.319 303.63 400.095 305.617C398.161 306.437 396.281 306.212 394.545 305.072C393.117 304.135 391.789 303.05 390.557 301.787C385.241 296.342 381.361 289.767 377.906 282.874C374.947 276.971 372.429 270.842 370.387 264.486C368.883 259.802 367.677 255.045 366.818 250.164C366.552 248.651 366.697 247.095 366.21 245.622C365.703 244.091 365.295 243.768 363.814 243.78C363.21 243.786 362.669 243.952 362.157 244.264C361.146 244.877 360.155 245.527 359.132 246.112C352.468 249.942 345.635 253.307 338.345 255.522C331.454 257.618 324.431 258.65 317.302 258.918C315.125 259.001 312.947 258.745 310.772 258.619C307.942 258.453 305.127 258.117 302.38 257.553C294.465 255.929 286.838 253.267 279.602 249.338C275.399 247.055 271.428 244.313 267.18 242.116C262.306 239.599 257.265 238.036 251.83 237.812C250.227 237.747 248.659 237.981 247.078 237.882C245.322 237.771 243.609 238.113 241.918 238.452C235.521 239.728 229.381 241.98 223.323 244.51C214.441 248.22 205.775 252.487 197.16 256.863C190.513 260.237 183.903 263.694 177.333 267.234C170.7 270.808 164.073 274.392 157.517 278.132C148.511 283.272 139.411 288.22 130.32 293.178C122.385 297.504 114.509 301.963 106.293 305.66C101.206 307.949 95.9273 309.308 90.4699 309.807C86.9383 310.128 83.4124 309.727 79.9431 308.926C75.4854 307.897 71.3534 306.082 67.8728 302.77C67.5726 302.486 67.2695 302.246 66.8504 302.258L66.8475 302.252C66.8645 301.861 66.7598 301.559 66.3633 301.47C65.4145 299.492 64.4799 297.504 63.5114 295.538C63.0894 294.688 63.0809 293.881 63.265 292.928C64.0495 288.843 65.4881 285.025 67.2412 281.355C72.7694 269.789 79.9091 259.602 89.2436 251.323C90.3963 250.3 90.4444 250.001 89.4419 248.805C88.0542 247.148 86.6268 245.53 85.1938 243.919C84.0241 242.603 83.874 242.738 85.4147 241.469C87.1082 240.073 88.8698 238.782 90.6087 237.448C90.923 237.205 91.2714 237.014 91.5801 236.761C92.628 235.895 92.7016 235.254 91.7755 234.173C90.1499 232.275 88.4818 230.423 86.8307 228.556C79.3257 220.07 71.8235 211.587 64.3157 203.105C62.7495 201.336 62.3814 201.253 60.2658 202.279C52.7438 205.924 45.8817 210.715 39.5973 216.493C39.2093 216.85 38.8156 217.204 38.4616 217.528C37.7904 217.321 37.9009 216.748 37.8074 216.308C35.2557 204.217 33.3695 192 32.1574 179.669C31.4522 172.499 31.0331 165.301 30.7867 158.088C30.546 151.072 30.6508 144.071 30.9764 137.077C31.5655 124.398 33.0354 111.839 35.9071 99.5077C35.9694 99.2365 35.9807 98.953 36.0147 98.6757C36.2696 97.8931 36.4905 97.0982 36.7879 96.3371C37.544 94.399 37.3458 92.5718 36.3461 90.8032C35.4086 89.1455 34.4259 87.5125 33.5735 85.8024C31.1209 80.8878 28.8042 75.9116 29.3282 70.0419L29.3168 70.0265ZM73.6247 155.01C73.6757 155.678 73.7125 156.307 73.7748 156.932C73.8428 157.607 73.7748 158.556 74.6754 158.452C75.593 158.344 75.3155 157.379 75.2475 156.745C75.0153 154.554 75.1597 152.385 75.7686 150.311C77.6944 143.754 80.9428 138.587 87.7568 137.357C87.8191 137.345 87.8842 137.333 87.9465 137.32C88.4025 137.216 88.6007 136.877 88.5441 136.408C88.4875 135.919 88.1504 135.7 87.7228 135.712C87.3405 135.724 86.9581 135.801 86.5786 135.872C84.3724 136.294 82.4268 137.345 80.7219 138.898C76.1084 143.104 73.9221 148.585 73.6191 155.007L73.6247 155.01ZM232.105 124.161C229.007 124.114 226.693 124.598 224.521 125.778C224.005 126.059 223.354 126.373 223.671 127.146C224.005 127.963 224.62 127.605 225.144 127.294C226.342 126.579 227.628 126.176 228.976 125.96C232.405 125.408 235.639 126.096 238.687 127.821C241.575 129.457 243.807 131.78 244.883 135.238C245.033 135.721 245.328 136.171 245.877 135.974C246.421 135.78 246.407 135.244 246.285 134.745C246.005 133.58 245.504 132.523 244.858 131.555C241.547 126.589 236.894 124.493 232.105 124.167V124.161ZM319.897 229.32C319.814 228.525 319.758 227.828 319.662 227.135C319.588 226.599 319.319 226.168 318.772 226.275C318.353 226.359 318.197 226.781 318.209 227.243C318.231 228.152 318.379 229.076 318.257 229.964C317.251 237.411 314.524 243.607 307.736 246.787C307.3 246.991 306.897 247.286 307.115 247.884C307.322 248.451 307.818 248.46 308.271 248.322C309.46 247.961 310.562 247.373 311.528 246.541C316.674 242.122 319.316 236.268 319.897 229.317V229.32Z" fill="#FA420F"/>
<path d="M66.8495 302.248C67.2686 302.233 67.5717 302.473 67.8719 302.76C71.3497 306.072 75.4845 307.887 79.9422 308.916C83.4115 309.717 86.9374 310.118 90.469 309.797C95.9264 309.301 101.205 307.942 106.292 305.65C114.508 301.952 122.387 297.494 130.319 293.168C139.41 288.21 148.51 283.262 157.516 278.122C164.072 274.381 170.702 270.798 177.332 267.224C183.902 263.68 190.515 260.223 197.159 256.852C205.777 252.48 214.44 248.213 223.322 244.5C229.38 241.97 235.52 239.718 241.917 238.442C243.608 238.106 245.321 237.761 247.077 237.872C248.655 237.974 250.227 237.736 251.83 237.801C257.264 238.026 262.305 239.588 267.179 242.106C271.428 244.299 275.398 247.045 279.601 249.328C286.837 253.26 294.464 255.919 302.379 257.543C305.126 258.106 307.942 258.442 310.771 258.609C312.946 258.738 315.124 258.991 317.302 258.908C324.43 258.639 331.453 257.604 338.344 255.512C345.634 253.297 352.467 249.932 359.131 246.102C360.154 245.513 361.145 244.863 362.156 244.253C362.669 243.942 363.207 243.776 363.813 243.769C365.294 243.757 365.705 244.081 366.209 245.612C366.696 247.085 366.551 248.641 366.818 250.154C367.673 255.034 368.882 259.792 370.386 264.475C372.428 270.832 374.946 276.96 377.905 282.864C381.36 289.757 385.24 296.335 390.556 301.777C391.788 303.037 393.116 304.125 394.544 305.061C396.28 306.201 398.163 306.426 400.095 305.607C400.078 307.954 399.361 308.848 397.325 308.971C395.677 309.073 394.15 308.484 392.641 307.865C388.443 306.143 384.714 303.514 381.122 300.652C380.239 299.949 379.386 299.601 378.293 299.626C375.523 299.691 372.751 299.706 369.981 299.648C365.152 299.546 360.321 299.487 355.498 299.201C347.789 298.739 340.083 298.187 332.385 297.521C325.781 296.948 319.185 296.243 312.6 295.454C305.631 294.622 298.675 293.67 291.722 292.687C284.835 291.713 277.947 290.712 271.076 289.584C264.588 288.521 258.125 287.301 251.654 286.112C248.357 285.505 245.072 284.818 241.779 284.174C241.274 284.075 240.748 284.06 240.317 283.647C240.589 283.006 241.212 282.926 241.694 282.661C245.024 280.818 248.372 279.013 251.713 277.192C252.116 276.973 252.526 276.76 252.911 276.511C253.248 276.292 253.585 275.999 253.416 275.509C253.223 274.945 252.778 274.841 252.3 275.044C251.881 275.223 251.484 275.463 251.082 275.685C238.117 282.889 224.967 289.68 211.713 296.227C201.453 301.299 191.115 306.18 180.753 310.996C179.951 311.368 179.41 311.341 178.685 310.709C173.324 306.05 167.162 303.98 160.334 304.38C156.519 304.605 152.996 305.844 150.07 308.663C148.326 310.346 147.19 312.413 146.779 314.927C146.454 316.927 146.083 318.914 145.805 320.923C145.644 322.103 145.76 323.287 146.006 324.47C146.326 326.014 146.292 326.072 144.938 326.645C142.48 327.687 140.002 328.679 137.527 329.674C127.983 333.501 118.41 337.238 108.642 340.344C107.852 340.597 107.317 341.075 106.799 341.746C102.706 347.089 98.3195 352.115 93.1793 356.302C91.5764 357.605 89.8998 358.779 88.0986 359.735C87.0507 360.289 85.9604 360.73 84.8247 360.979C82.6751 361.454 81.2988 360.311 81.1203 357.941C80.9816 356.099 81.2903 354.315 81.7745 352.558C82.8762 348.571 84.4792 344.818 86.5636 341.352C87.2405 340.227 87.1243 339.549 86.5154 338.582C81.5593 330.719 76.9402 322.621 72.6496 314.308C70.8201 310.765 69.0557 307.181 67.2771 303.607C67.0676 303.185 66.7843 302.772 66.8467 302.239L66.8495 302.248Z" fill="#C20000"/>
<path d="M3.93398 290.061C5.19709 281.954 7.32398 274.106 9.98047 266.428C15.6616 250.02 23.8322 235.31 35.3191 222.908C42.657 214.987 50.9833 208.584 60.4226 203.947C62.3853 202.982 62.0822 202.911 63.5181 204.538C72.1871 214.333 80.8589 224.132 89.5251 233.93C89.8791 234.331 90.2104 234.756 90.522 235.132C90.4795 235.508 90.3124 235.696 90.0858 235.856C80.1764 242.856 72.1559 251.995 65.0106 262.123C61.6348 266.908 58.7517 272.054 55.6761 277.061C55.1663 276.929 54.8236 277.23 54.4951 277.582C53.3169 278.857 52.0652 280.041 50.8247 281.245C47.1175 284.838 42.9855 287.719 38.5307 290.033C37.007 290.825 35.4805 291.845 33.6567 291.715C33.617 291.37 33.5943 291.019 33.5349 290.677C32.8354 286.681 29.9211 283.732 26.3272 283.371C22.7758 283.014 19.5359 285.208 18.0547 288.881C17.3467 290.637 17.6101 292.439 17.6299 294.239C16.5056 294.045 15.3756 293.863 14.2541 293.65C10.663 292.966 7.26451 291.623 3.93115 290.058L3.93398 290.061ZM22.9429 259.763C23.0279 261.11 23.0505 262.089 23.1553 263.06C23.8605 269.62 27.7206 274.781 33.1355 276.371C36.4264 277.338 39.6408 276.925 42.7675 275.564C51.3543 271.826 57.3187 261.036 56.3161 250.941C55.9111 246.859 54.5064 243.226 51.6857 240.373C47.2903 235.927 40.9379 235.381 35.4805 238.466C27.5082 242.97 23.5518 250.445 22.9401 259.76L22.9429 259.763ZM62.238 236.66C66.5597 236.694 70.0121 233.012 70.0404 228.341C70.0687 223.734 66.5286 219.855 62.3145 219.87C58.1428 219.886 54.682 223.608 54.6169 228.15C54.5489 232.833 57.9502 236.629 62.2408 236.66H62.238Z" fill="#DAF305"/>
<path d="M370.139 125.531C369.83 122.61 369.538 119.685 369.207 116.764C369.097 115.788 369.318 115.073 370.031 114.38C372.521 111.967 373.888 109.018 373.54 105.262C373.413 103.876 373.608 102.452 373.484 101.062C373.356 99.6421 373.908 98.7208 374.812 97.8056C381.476 91.0516 389.08 85.8567 397.293 81.6723C410.116 75.1371 423.606 71.2147 437.675 69.5755C441.584 69.1194 445.5 68.8822 449.429 68.7558C450.505 68.722 450.879 69.1287 450.964 70.2472C451.261 74.1542 451.626 78.055 451.963 81.9589C452.552 88.79 453.139 95.6211 453.725 102.452C454.113 106.985 454.478 111.517 454.897 116.047C454.996 117.122 454.526 117.211 453.767 117.097C450.822 116.644 447.86 116.66 444.897 116.731C436.882 116.925 429.004 118.271 421.238 120.345C419.556 120.795 418.247 120.57 416.707 119.732C410.159 116.173 403.348 115.153 396.35 118.083C392.96 119.501 390.473 122.03 389.159 125.817C388.298 128.297 387.08 130.648 386.987 133.385C386.967 133.951 386.678 134.253 386.245 134.5C384.823 135.313 383.481 136.293 381.966 136.903C381.66 136.407 381.181 136.552 380.748 136.497C379.012 136.275 377.42 135.723 376.004 134.506C373.727 132.546 372.271 129.998 371.164 127.154C370.923 126.535 370.903 125.759 370.144 125.527L370.139 125.531ZM406.627 112.66C412.079 112.438 417.333 110.017 421.581 105.164C423.294 103.207 424.523 100.93 425.076 98.2617C425.925 94.1606 424.489 90.3583 421.227 88.1029C420.077 87.3079 418.831 86.7625 417.5 86.439C409.805 84.5656 400.334 88.9286 396.219 96.2465C395.749 97.0846 395.356 97.9597 395.053 98.8872C393.271 104.35 395.344 109.382 400.283 111.56C402.099 112.361 404.002 112.645 406.625 112.663L406.627 112.66ZM378.366 112.614C378.349 115.606 379.111 117.883 380.479 119.365C382.271 121.309 384.659 121.383 386.503 119.556C389.539 116.549 389.547 109.872 386.517 106.855C384.56 104.908 381.96 105.053 380.224 107.243C378.907 108.904 378.389 110.885 378.363 112.614H378.366ZM444.099 92.1947C443.988 89.7852 443.41 87.6099 441.731 85.9429C439.601 83.8292 436.814 83.9586 434.863 86.2418C432.156 89.4093 432.467 95.39 435.486 98.197C437.52 100.089 440.204 99.9717 442.088 97.9012C443.532 96.3143 443.999 94.3115 444.099 92.1947Z" fill="#DAF305"/>
<path d="M366.577 202.533C366.549 202.265 366.523 201.994 366.495 201.726C367.025 201.316 366.795 201.048 366.351 200.823C365.56 196.059 365.269 191.24 364.79 186.165C366.94 186.076 368.982 185.87 371.018 185.922C389.466 186.412 406.897 191.394 423.471 200.099C430.217 203.642 436.58 207.882 442.562 212.806C443.629 213.684 443.927 214.47 443.573 215.952C440.104 230.452 436.725 244.98 433.312 259.499C433.173 260.084 432.984 260.654 432.822 261.218C432.607 261.175 432.457 261.19 432.366 261.116C424.116 254.23 414.654 250.061 404.878 246.594C402.921 245.901 400.961 245.211 399.002 244.521C398.936 243.824 398.364 243.704 397.937 243.433C392.927 240.241 388.367 236.423 384.326 231.878C383.844 231.336 383.204 230.902 383.128 230.042C386.26 231.222 389.477 231.798 392.794 231.564C396.6 231.296 400.12 230.125 403.136 227.488C407.676 223.516 408.888 217.286 406.235 211.644C405.496 210.076 404.535 208.683 403.403 207.423C397.308 200.65 386.824 198.515 378.928 202.502C374.983 204.493 372.238 207.638 371.352 212.424C370.746 212.06 370.556 211.373 370.253 210.769C369.058 208.39 368.254 205.83 367.311 203.334C367.155 202.924 367.036 202.561 366.571 202.524L366.577 202.533ZM421.661 218.149C421.041 218.084 420.358 218.238 419.676 218.469C414.317 220.284 412.032 227.802 415.379 232.707C416.713 234.661 418.492 235.789 420.78 235.856C425.609 236.001 429.517 231.127 428.939 225.67C428.467 221.208 425.581 218.185 421.664 218.145L421.661 218.149Z" fill="#DAF305"/>
<path d="M325.53 92.7998C325.188 92.1497 325.349 91.4348 325.349 90.7508C325.355 86.9671 325.42 83.1802 325.4 79.3965C325.36 71.2713 325.27 63.1461 325.23 55.0209C325.213 51.7055 324.904 52.2817 327.691 51.7086C338.612 49.4562 349.464 49.5856 360.155 53.2307C363.245 54.2845 366.165 55.7573 368.657 58.0652C370.999 60.2313 372.322 62.8596 371.693 66.4646C369.852 65.6974 368.128 64.7453 366.219 64.3724C363.715 63.8825 361.223 63.787 358.762 64.5727C353.704 66.1904 351.373 71.2436 353.171 76.648C353.794 78.5214 354.754 80.1791 356.02 81.6057C359.98 86.0643 364.783 88.3752 370.526 88.215C371.968 88.1749 371.99 88.1657 371.996 89.7648C372.01 93.527 372.002 97.2892 372.002 101.051C371.736 101.051 371.568 101.104 371.518 101.042C368.532 97.5387 364.738 95.4928 360.645 94.097C353.001 91.4903 345.157 90.7077 337.176 91.2839C333.701 91.5365 330.257 91.9802 326.844 92.7413C326.425 92.8337 325.986 93.0525 325.533 92.7937L325.53 92.7998ZM346.847 70.501C346.878 66.6217 343.964 63.4357 340.342 63.3957C336.782 63.3556 333.709 66.5724 333.67 70.3777C333.63 74.1985 336.615 77.4276 340.223 77.4615C343.857 77.4954 346.819 74.3833 346.85 70.501H346.847Z" fill="#DAF305"/>
<path d="M251.625 320.226C252.061 319.934 252.48 319.61 252.933 319.351C262.755 313.783 271.311 306.469 278.544 297.348C279.28 296.418 279.943 296.103 281.016 296.415C282.63 296.883 284.267 297.284 285.913 297.592C286.862 297.77 287.097 298.171 286.791 299.141C286.117 301.283 285.873 303.498 285.936 305.76C286.122 312.412 290.26 316.88 296.372 317.04C300.3 317.145 303.84 315.786 307.179 313.682C310.623 311.513 313.548 308.687 315.93 305.227C316.596 304.259 317.193 303.93 318.335 304.226C320.708 304.839 323.132 305.227 325.463 305.692C325.8 306.213 325.553 306.592 325.386 306.946C320.691 316.782 314.256 325.085 306.533 332.249C306.193 332.564 305.786 332.785 305.406 333.05C305.228 332.665 304.956 332.678 304.605 332.748C300.821 333.509 297.012 333.833 293.157 333.855C290.645 333.867 288.187 333.337 285.681 333.328C284.749 333.325 283.8 332.958 282.834 332.924C282.361 332.909 282.206 332.52 282.146 332.074C282.495 331.664 282.866 331.273 283.186 330.838C284.89 328.509 285.077 325.338 283.681 322.768C281.685 319.099 277.034 317.475 273.146 319.092C269.456 320.627 267.983 323.856 268.807 328.607C268.45 329.31 267.96 328.992 267.479 328.823C265.171 328.009 262.933 326.999 260.722 325.92C257.513 324.355 254.548 322.331 251.622 320.226H251.625Z" fill="#DAF305"/>
<path d="M187.542 40.6757C188.222 36.5222 188.868 32.5413 189.531 28.5634C190.264 24.1542 191.049 19.7573 191.723 15.3357C191.912 14.0971 192.394 13.5578 193.527 13.3853C197.044 12.8461 200.579 12.6335 204.121 12.6643C216.648 12.7783 228.82 15.2525 240.732 19.3475C244.776 20.7371 248.829 22.1545 252.581 24.3699C253.405 24.8567 254.666 25.2418 254.589 26.3911C254.498 27.753 253.131 27.9995 252.117 28.357C249.534 29.269 246.824 29.5032 244.161 29.9623C239.46 30.7757 234.742 31.4875 230.041 32.3133C229.225 32.455 228.582 32.3656 227.846 31.9558C220.853 28.0827 214.408 29.2844 209.086 35.4284C208.585 36.0046 208.092 36.4852 207.347 36.6424C201.032 37.9735 194.719 39.3261 188.403 40.6634C188.219 40.7034 188.021 40.6695 187.542 40.6695V40.6757Z" fill="#DAF305"/>
<path d="M388.425 157.697C387.402 157.432 386.853 157.913 387.057 159.007C387.753 162.722 388.028 166.482 388.275 170.253C388.572 174.792 388.892 179.33 388.81 183.887C388.801 184.371 388.694 184.855 388.626 185.339C388.535 185.964 388.173 186.118 387.646 186.004C384.171 185.234 380.631 185.052 377.125 184.556C376.19 184.424 374.964 185 374.389 184.097C373.941 183.394 374.1 182.211 374.043 181.241C373.967 179.913 373.93 178.585 373.893 177.254C373.735 171.51 373.582 165.77 373.426 160.026C373.378 158.215 373.12 157.836 371.41 157.663C369.614 157.481 367.818 157.568 366.017 157.829C362.758 158.304 362.721 158.255 362.381 154.714C362.146 152.277 362.149 149.821 361.984 147.375C361.679 142.836 361.662 138.276 361.424 133.731C361.214 129.744 361.106 125.754 361.021 121.764C360.993 120.485 361.37 119.813 362.438 119.431C364.208 118.803 365.745 117.626 367.552 116.714C368.161 119.299 368.13 121.828 368.391 124.309C368.929 129.454 369.359 134.612 369.824 139.764C370.013 141.853 370.183 143.945 370.353 146.038C370.398 146.602 370.393 147.196 371.01 147.415C371.526 147.597 371.837 147.187 372.188 146.879C372.868 146.284 373.401 145.471 374.372 145.033C374.579 146.004 374.494 146.808 374.409 147.631C374.327 148.444 374.032 149.467 374.836 149.935C375.556 150.354 376.136 149.541 376.674 149.079C379.365 146.783 382.194 144.713 385.162 142.864C385.833 142.445 386.488 141.998 387.252 141.798C387.541 144.682 388.023 147.563 388.057 150.45C388.085 152.878 388.691 155.26 388.422 157.691L388.425 157.697Z" fill="#C20000"/>
<path d="M33.6591 291.72C35.4829 291.852 37.0094 290.829 38.5331 290.038C42.9879 287.724 47.1199 284.843 50.8271 281.25C52.0676 280.048 53.3193 278.865 54.4975 277.586C54.8232 277.232 55.1687 276.93 55.6785 277.066C55.5595 278.079 54.9393 278.837 54.5145 279.688C49.7623 289.212 45.8766 299.103 43.8291 309.764C43.2881 312.577 42.8633 315.408 42.75 318.289C42.6707 320.295 42.6509 320.301 40.8639 319.485C34.1547 316.422 27.4483 313.356 20.7391 310.29C14.9815 307.659 9.22955 305.009 3.45211 302.427C2.52035 302.011 2.13236 301.512 2.30512 300.406C2.84604 296.958 3.13208 293.461 3.93356 290.062C7.26692 291.627 10.6654 292.971 14.2565 293.655C15.378 293.868 16.508 294.049 17.6323 294.243C17.9184 294.946 18.1648 295.67 18.4961 296.345C20.4757 300.35 24.9221 302.045 28.7454 300.203C32.1014 298.585 33.6279 295.652 33.6591 291.72Z" fill="#A3BA00"/>
<path d="M282.159 332.075C282.216 332.522 282.375 332.91 282.848 332.926C283.813 332.96 284.759 333.326 285.694 333.329C288.197 333.338 290.656 333.868 293.17 333.856C297.025 333.838 300.834 333.511 304.618 332.75C304.969 332.679 305.241 332.667 305.419 333.052C305.346 333.425 305.077 333.631 304.83 333.85C298.829 339.113 292.394 343.574 285.11 346.461C283.352 347.158 281.542 347.642 279.721 348.101C278.676 348.363 277.727 348.212 276.742 347.688C263.499 340.644 250.242 333.634 236.988 326.615C236.699 326.461 236.401 326.323 236.249 325.984C236.356 325.7 236.574 325.574 236.832 325.525C241.819 324.585 246.512 322.684 251.083 320.382C251.253 320.296 251.451 320.28 251.638 320.231C254.561 322.335 257.529 324.36 260.738 325.925C262.949 327.004 265.187 328.014 267.495 328.828C267.976 328.997 268.466 329.314 268.823 328.612C269.783 330.75 271.196 332.405 273.258 333.28C276.413 334.62 279.39 334.207 282.162 332.078L282.159 332.075Z" fill="#A3BA00"/>
<path d="M388.427 157.7C388.697 155.266 388.09 152.887 388.062 150.459C388.028 147.572 387.547 144.691 387.258 141.807C388.762 140.874 388.77 140.867 389.702 142.161C390.535 143.317 391.444 144.402 392.341 145.28C392.46 145.779 392.251 145.976 392.081 146.161C389.926 148.49 390.251 150.971 391.412 153.266C392.426 155.269 393.941 156.788 395.629 158.11C399.575 161.194 404.004 162.981 408.759 163.881C410.767 164.26 410.764 164.229 410.883 166.488C411.313 174.527 411.801 182.566 411.755 190.623C411.752 191.298 411.939 192.006 411.546 192.764C409.422 192.003 407.303 191.199 405.162 190.484C400.733 189.002 396.25 187.748 391.698 186.778C390.028 186.42 390.011 186.383 390.064 184.692C390.325 176.69 389.801 168.737 388.889 160.806C388.77 159.768 388.58 158.738 388.425 157.703L388.427 157.7Z" fill="#FA420F"/>
<path d="M411.126 145.497C404.587 145.235 398.79 142.989 394.054 137.911C392.757 136.518 391.752 134.901 391.05 133.07C389.336 128.609 390.444 124.221 394.001 121.316C396.224 119.501 398.773 118.536 401.497 118.25C409.586 117.399 416.623 119.867 422.33 126.329C423.228 127.345 423.919 128.523 424.488 129.792C427.204 135.85 424.403 140.835 420.438 143.198C417.532 144.93 414.406 145.54 411.126 145.5V145.497ZM404.42 121.374C401.123 121.476 397.855 122.052 395.048 124.347C393.95 125.247 393.083 126.353 392.616 127.792C392.468 128.242 392.502 128.633 392.907 128.865C393.327 129.102 393.641 128.877 393.87 128.482C393.938 128.365 393.986 128.233 394.043 128.11C395.08 125.916 396.802 124.643 398.897 123.931C403.924 122.231 408.835 122.828 413.559 125.139C416.802 126.723 419.603 128.911 420.464 133.033C420.492 133.166 420.56 133.292 420.622 133.412C420.761 133.693 421.019 133.804 421.268 133.745C421.514 133.69 421.73 133.502 421.78 133.187C421.885 132.544 421.738 131.94 421.545 131.339C420.82 129.071 419.421 127.364 417.697 125.95C413.797 122.751 409.319 121.497 404.414 121.368L404.42 121.374ZM417.456 136.478C416.031 136.241 414.743 137.082 413.482 137.917C412.763 138.392 412.058 139.143 412.33 140.117C412.607 141.109 413.434 141.575 414.462 141.55C415.978 141.516 417.354 141.014 418.645 140.194C419.506 139.649 420.282 138.98 420.163 137.757C420.078 136.866 419.209 136.475 417.456 136.475V136.478ZM408.249 142.003C409.413 142.003 410.231 141.248 410.189 140.213C410.149 139.248 409.379 138.586 408.3 138.595C407.141 138.601 406.309 139.372 406.354 140.398C406.397 141.353 407.167 142.006 408.249 142.006V142.003Z" fill="#A8CCD8"/>
<path d="M163.36 305.995C168.767 306.211 174.737 308.528 179.579 313.806C181.097 315.46 182.219 317.411 182.85 319.669C184.037 323.912 182.746 328.029 179.401 330.571C177.3 332.167 174.94 333.067 172.411 333.368C165.946 334.148 160.03 332.487 154.694 328.439C152.499 326.775 150.743 324.664 149.446 322.104C146.886 317.05 148.126 311.658 152.607 308.586C155.476 306.62 158.67 305.979 163.357 305.995H163.36ZM180.809 323.764C180.803 321.919 180.001 319.592 178.696 317.793C175.3 313.109 170.729 310.611 165.459 309.471C162.641 308.86 159.828 308.904 157.076 309.936C155.844 310.398 154.722 311.073 153.816 312.108C153.437 312.543 152.813 313.026 153.332 313.695C153.904 314.437 154.374 313.726 154.751 313.322C155.943 312.037 157.407 311.412 159.007 311.033C161.191 310.515 163.366 310.632 165.518 311.134C170.239 312.231 174.368 314.493 177.458 318.662C178.619 320.227 179.285 322.011 179.322 324.06C179.333 324.726 178.863 325.844 179.973 325.819C180.888 325.798 180.707 324.704 180.806 323.98C180.814 323.912 180.806 323.841 180.806 323.771L180.809 323.764ZM155.756 317.368C154.02 317.072 152.496 318.856 153.343 320.871C154.606 323.885 156.657 325.792 159.551 326.559C161.392 327.046 162.737 325.129 162.055 323.157C161.667 322.036 161.092 321.01 160.341 320.159C159.084 318.733 157.602 317.67 155.756 317.365V317.368Z" fill="#A8CCD8"/>
<path d="M119.051 62.19C119.145 63.9062 118.836 65.6964 118.27 67.4158C115.35 76.2928 109.949 82.3905 101.467 84.9479C99.6487 85.4964 97.754 85.481 95.9188 85.0188C92.3221 84.1129 89.8015 81.0009 89.2436 76.9645C88.8613 74.2068 89.1048 71.5015 89.9884 68.9071C92.8857 60.3906 98.125 54.45 106.239 51.8001C107.777 51.2979 109.38 51.1161 111.008 51.3718C115.854 52.136 118.944 55.9012 119.048 61.2194C119.054 61.4998 119.048 61.7802 119.048 62.19H119.051ZM108.465 54.7581C108.119 54.7981 107.536 54.8105 106.972 54.9399C106.284 55.097 105.573 55.2603 104.939 55.5777C97.383 59.3861 93.0159 65.7858 92.0332 74.7891C91.7868 77.0538 92.3561 79.2477 93.7013 81.1026C94.0185 81.5401 94.4065 82.0701 94.9786 81.6387C95.5648 81.195 95.2391 80.6712 94.9106 80.1998C93.3926 78.0213 93.2368 75.5502 93.6843 72.9928C94.5084 68.2908 96.6523 64.3407 99.8328 61.1085C102.866 58.0242 106.205 55.5838 110.719 56.6284C111.093 56.7147 111.529 56.7147 111.662 56.1847C111.818 55.5715 111.427 55.2942 110.983 55.1124C110.246 54.8135 109.47 54.7951 108.465 54.7581ZM109.349 69.3045C109.349 69.7236 109.332 70.1457 109.351 70.5617C109.4 71.5045 109.589 72.4474 110.442 72.8572C111.388 73.3101 111.999 72.5152 112.574 71.8527C114.319 69.8468 115.047 67.3264 115.562 64.7104C115.845 63.2807 116.163 61.8572 115.619 60.3936C115.112 59.0256 114.146 58.6343 113.076 59.4939C112.668 59.8205 112.277 60.2303 112.005 60.6925C110.45 63.3146 109.414 66.137 109.346 69.3045H109.349ZM107.635 74.2129C106.448 74.1452 104.993 75.276 104.758 76.5331C104.63 77.211 104.534 77.9597 105.086 78.5082C105.627 79.0443 106.281 78.9611 106.907 78.7269C107.726 78.4157 108.391 77.8365 108.802 77.0138C109.484 75.6426 108.893 74.2838 107.638 74.2129H107.635Z" fill="#A8CCD8"/>
<path d="M366.584 202.527C367.048 202.567 367.167 202.927 367.323 203.337C368.266 205.833 369.07 208.393 370.265 210.772C370.568 211.376 370.761 212.063 371.364 212.427C370.73 216.888 372.166 220.635 374.78 223.941C377.045 226.804 379.934 228.683 383.137 230.039C383.214 230.899 383.854 231.333 384.335 231.875C388.374 236.417 392.936 240.238 397.946 243.43C398.371 243.701 398.946 243.821 399.011 244.518C396.006 243.809 393.007 243.082 389.999 242.398C384.46 241.134 378.872 240.262 373.216 239.963C371.483 239.871 371.483 239.859 371.172 237.976C369.322 226.834 367.898 215.625 366.598 204.397C366.527 203.778 366.405 203.149 366.587 202.527H366.584Z" fill="#A3BA00"/>
<path d="M314.934 303.649C314.832 303.957 314.812 304.182 314.705 304.33C310.839 309.624 306.104 313.534 299.947 315.096C298.052 315.577 296.101 315.629 294.203 315.139C289.485 313.919 287.327 309.972 287.355 304.641C287.364 302.968 287.692 301.307 288.165 299.702C288.565 298.34 288.647 298.263 289.949 298.528C292.538 299.055 295.112 299.662 297.701 300.18C302.818 301.2 307.942 302.176 313.062 303.181C313.674 303.301 314.277 303.486 314.934 303.655V303.649Z" fill="#A3BA00"/>
<path d="M371.987 77.5942C371.987 80.1116 371.953 82.6289 372.004 85.1463C372.024 86.1261 371.715 86.4651 370.821 86.5791C369.059 86.8071 367.36 86.5452 365.68 86.0583C361.84 84.9399 358.603 82.7861 356.187 79.2951C355.329 78.0533 354.706 76.6822 354.332 75.1755C353.457 71.6444 354.785 68.366 357.807 66.7483C360.532 65.294 363.386 65.2755 366.278 66.0057C367.785 66.3878 369.206 67.0318 370.602 67.762C371.523 68.2458 371.925 68.8713 371.885 70.0391C371.798 72.5533 371.86 75.0738 371.86 77.5911C371.902 77.5911 371.948 77.5911 371.99 77.5911L371.987 77.5942Z" fill="#A3BA00"/>
<path d="M372.978 48.8723C373.947 53.0597 374.966 57.2378 375.878 61.4406C377.623 69.498 379.279 77.577 380.446 85.7638C380.642 87.135 380.939 88.4907 381.188 89.8557C378.764 92.0988 376.167 94.1047 373.89 96.5173C373.329 95.9627 373.496 95.445 373.496 94.9921C373.457 84.8487 373.431 74.7022 373.394 64.5588C373.386 62.137 372.499 60.091 371.032 58.307C369.285 56.181 367.121 54.7051 364.779 53.488C363.281 52.7084 363.312 52.6838 363.624 50.9614C363.995 48.9 364.482 46.8726 365.136 44.8975C365.351 44.2443 365.646 43.6096 365.966 43.0087C367.008 41.0521 368.079 40.9659 369.33 42.8054C370.29 44.2135 370.987 45.7942 371.582 47.4272C371.834 48.1174 372.024 48.9586 372.981 48.8785L372.978 48.8723Z" fill="#C20000"/>
<path d="M360.903 96.1952C361.072 96.1798 361.282 96.0966 361.443 96.1613C364.499 97.3414 367.382 98.8573 369.688 101.418C372.664 104.727 372.828 108.369 370.093 111.912C367.932 114.713 365.057 116.439 362.018 117.847C361.115 118.266 360.88 118.087 360.837 116.956C360.772 115.209 360.795 113.459 360.784 111.709C360.755 107.02 360.724 102.333 360.707 97.6433C360.707 97.1688 360.611 96.6666 360.903 96.1952Z" fill="#A3BA00"/>
<path d="M363.571 170.121C363.305 167.059 363.053 163.996 362.769 160.936C362.684 160.033 363.033 159.744 363.829 159.605C366.128 159.211 368.436 159.164 370.753 159.171C371.484 159.171 371.925 159.334 371.951 160.32C372.141 167.801 372.379 175.282 372.602 182.764C371.784 182.939 371.322 182.323 370.801 181.815C367.796 178.891 365.698 175.307 364.279 171.227C364.126 170.79 364.146 170.232 363.571 170.115V170.121Z" fill="#DAF305"/>
<path d="M374.98 244.605C375.28 244.242 375.657 243.927 375.866 243.511C376.611 242.045 377.719 241.875 379.112 242.143C383.473 242.984 387.546 244.559 391.205 247.332C392.083 247.998 392.528 248.601 392.117 249.902C391.429 252.074 390.981 254.333 390.398 256.699C387.772 255.842 385.272 255.023 382.768 254.206C382.233 252.57 380.701 252.059 379.664 250.989C377.821 249.091 375.9 247.292 374.98 244.605Z" fill="#DAF305"/>
<path d="M387.386 257.512C387.411 259.761 386.714 261.878 386.375 264.063C386.321 264.405 386.295 264.75 386.258 265.092C385.59 265.452 385.533 266.167 385.363 266.842C384.925 268.592 384.457 270.339 383.579 271.904C382.594 273.664 381.656 273.747 380.447 272.16C379.665 271.134 379.099 269.954 378.601 268.74C376.981 264.777 375.868 260.63 374.854 256.446C374.556 255.222 374.644 255.081 375.768 255.09C379.773 255.124 383.653 255.9 387.383 257.509L387.386 257.512Z" fill="#C20000"/>
<path d="M378.642 31.8395C375.121 31.4051 373.451 28.2653 373.425 25.4121C373.397 21.995 374.173 18.7751 375.283 15.6384C376.348 12.6312 377.01 9.51295 377.653 6.38551C377.917 5.10064 377.127 3.93285 377.348 2.65723C378.664 3.1533 379.084 4.46591 379.523 5.67683C380.044 7.10652 380.318 8.63789 380.375 10.1785C380.528 14.4429 380.508 18.7073 379.916 22.944C379.5 25.9112 379.067 28.8785 378.639 31.8457L378.642 31.8395Z" fill="#C20000"/>
<path d="M147.471 322.023C150.895 328.725 156.29 332.493 162.908 334.305C169.484 336.108 175.82 335.692 181.611 331.15C181.314 333.045 180.286 334.391 178.955 335.498C177.236 336.924 175.282 337.873 173.172 338.277C164.814 339.879 157.465 337.565 151.294 331.205C148.941 328.781 147.457 325.789 147.474 322.023H147.471Z" fill="#A8CCD8"/>
<path d="M120.756 59.9026C122.416 62.7003 122.577 65.6922 122.113 68.8135C120.694 78.3622 112.308 87.6182 103.67 89.1249C101.24 89.5471 98.9237 89.205 96.76 87.8863C96.4484 87.6952 96.0463 87.5597 95.9302 86.8572C103.042 87.6768 108.692 84.4476 113.444 79.1448C118.199 73.839 121.017 67.5594 120.756 59.9026Z" fill="#A8CCD8"/>
<path d="M388.829 132.135C393.23 144.875 408.447 149.294 417.6 146.262C418.523 145.957 419.415 145.572 420.288 145.119C420.778 144.863 421.231 144.361 421.967 144.598C421.828 145.606 421.12 146.123 420.52 146.675C418.13 148.872 415.283 149.959 412.228 150.277C405.623 150.961 399.596 149.192 394.278 144.826C392.307 143.208 390.678 141.243 389.582 138.796C388.633 136.676 388.254 134.482 388.826 132.135H388.829Z" fill="#A8CCD8"/>
<path d="M370.13 125.529C370.889 125.763 370.908 126.536 371.149 127.156C372.254 130 373.712 132.551 375.989 134.507C377.405 135.728 378.997 136.276 380.733 136.498C381.166 136.553 381.645 136.412 381.951 136.905C381.628 137.567 380.982 137.783 380.455 138.146C377.963 139.875 375.553 141.724 373.242 143.726C372.851 144.065 372.543 144.561 371.84 144.568C371.353 142.784 371.441 140.892 371.24 139.052C370.792 134.967 370.47 130.865 370.11 126.77C370.073 126.361 370.121 125.942 370.132 125.526L370.13 125.529Z" fill="#A3BA00"/>
<path d="M29.3183 70.0251C28.7944 75.898 31.111 80.8711 33.5636 85.7856C34.416 87.4957 35.3988 89.1287 36.3362 90.7864C37.3359 92.5551 37.5342 94.3822 36.778 96.3203C36.4806 97.0814 36.2597 97.8794 36.0048 98.659C32.6375 92.6105 29.8252 86.3002 28.412 79.3489C27.9419 77.0411 27.5284 74.6932 28.1826 72.333C28.4177 71.4918 28.4772 70.5212 29.3183 70.0251Z" fill="#C20000"/>
<path d="M363.582 170.122C364.154 170.239 364.137 170.796 364.29 171.234C365.709 175.313 367.81 178.894 370.812 181.821C371.333 182.329 371.795 182.946 372.614 182.77C372.594 184.345 372.594 184.351 371.424 184.375C369.498 184.415 367.572 184.449 365.649 184.489C365.103 184.502 364.633 184.446 364.568 183.664C364.197 179.156 363.675 174.66 363.582 170.128V170.122Z" fill="#A3BA00"/>
<path d="M374.977 244.604C375.9 247.291 377.817 249.09 379.661 250.988C380.698 252.054 382.23 252.569 382.765 254.205C381.247 254.032 379.732 253.857 378.214 253.693C377.514 253.616 376.815 253.509 376.115 253.505C373.773 253.499 374.167 253.481 373.68 251.29C373.397 250.008 373.201 248.699 372.856 247.435C372.587 246.443 372.813 245.87 373.688 245.485C374.15 245.282 374.549 244.906 374.977 244.607V244.604Z" fill="#A3BA00"/>
<path d="M226.146 32.9853C220.873 33.9898 215.97 34.9264 210.926 35.8878C214.557 31.2906 220.782 30.0458 226.146 32.9853Z" fill="#A3BA00"/>
<path d="M375.351 241.769C374.513 243.004 373.785 243.827 372.78 244.265C372.108 244.175 372.182 243.565 372.089 243.159C371.715 241.544 371.819 241.439 373.4 241.59C373.963 241.646 374.524 241.695 375.351 241.772V241.769Z" fill="#A3BA00"/>
<path d="M366.355 200.821C366.8 201.046 367.029 201.314 366.5 201.724C366.188 201.474 366.205 201.16 366.355 200.821Z" fill="#A3BA00"/>
<path d="M66.3599 301.462C66.7564 301.552 66.8611 301.854 66.8441 302.245C66.5015 302.119 66.4392 301.783 66.3599 301.462Z" fill="#C20000"/>
<path d="M181.91 330.732L181.814 330.774L181.836 330.654L181.91 330.732Z" fill="#A8CCD8"/>
<path d="M73.6245 155.015C73.9275 148.593 76.1139 143.112 80.7274 138.906C82.4294 137.353 84.3751 136.302 86.5841 135.88C86.9636 135.809 87.3459 135.732 87.7283 135.72C88.1531 135.705 88.4901 135.923 88.5496 136.416C88.6034 136.885 88.4051 137.224 87.952 137.328C87.8897 137.344 87.8246 137.356 87.7623 137.365C80.9483 138.592 77.6999 143.759 75.7741 150.319C75.1652 152.393 75.0207 154.562 75.253 156.752C75.3209 157.39 75.5985 158.352 74.6809 158.459C73.7831 158.564 73.8482 157.615 73.7803 156.94C73.718 156.315 73.6812 155.686 73.6302 155.018L73.6245 155.015Z" fill="#0E0A06"/>
<path d="M232.105 124.161C236.891 124.487 241.544 126.583 244.858 131.55C245.503 132.517 246.005 133.574 246.285 134.739C246.407 135.241 246.418 135.774 245.877 135.968C245.328 136.165 245.033 135.715 244.883 135.232C243.807 131.778 241.575 129.451 238.687 127.815C235.642 126.093 232.405 125.406 228.975 125.954C227.627 126.17 226.342 126.576 225.144 127.288C224.62 127.599 224.005 127.96 223.671 127.14C223.354 126.367 224.005 126.05 224.521 125.772C226.693 124.592 229.009 124.108 232.105 124.155V124.161Z" fill="#0E0A06"/>
<path d="M319.901 229.32C319.321 236.271 316.679 242.125 311.533 246.544C310.564 247.372 309.465 247.964 308.276 248.325C307.823 248.46 307.327 248.451 307.12 247.887C306.902 247.289 307.304 246.997 307.74 246.79C314.529 243.613 317.259 237.417 318.262 229.967C318.381 229.082 318.233 228.155 318.213 227.246C318.202 226.784 318.361 226.362 318.777 226.278C319.324 226.171 319.593 226.602 319.666 227.138C319.763 227.828 319.816 228.528 319.901 229.323V229.32Z" fill="#0E0A06"/>
<path d="M22.9404 259.766C23.5522 250.448 27.5086 242.976 35.4809 238.472C40.9383 235.387 47.2906 235.933 51.686 240.379C54.5068 243.232 55.9115 246.865 56.3165 250.948C57.3162 261.042 51.3547 271.832 42.7678 275.57C39.6384 276.932 36.4268 277.344 33.1359 276.377C27.721 274.787 23.858 269.626 23.1557 263.066C23.0509 262.095 23.0282 261.113 22.9433 259.769L22.9404 259.766ZM54.9259 253.246C54.8665 252.269 54.8721 251.28 54.7277 250.316C54.5719 249.284 54.3369 248.255 54.0338 247.262C52.0145 240.647 46.0587 237.014 39.8026 238.558C29.9385 240.986 22.6997 253.228 24.8068 264.006C25.8291 269.235 28.4233 273.102 33.2945 274.735C36.5939 275.841 39.8366 275.363 42.8754 273.736C50.6608 269.567 54.3227 262.465 54.9288 253.249L54.9259 253.246Z" fill="#0E0A06"/>
<path d="M33.6504 291.723C33.6221 295.655 32.0956 298.588 28.7368 300.206C24.9106 302.048 20.4671 300.354 18.4875 296.348C18.1533 295.673 17.9097 294.949 17.6237 294.247C17.6039 292.447 17.3405 290.645 18.0485 288.888C19.5325 285.216 22.7696 283.022 26.321 283.379C29.9121 283.74 32.8263 286.692 33.5287 290.685C33.5881 291.027 33.6108 291.375 33.6504 291.723ZM32.1098 292.225C32.1523 288.251 29.3598 285.089 25.7376 285.003C21.9596 284.914 18.9746 288.121 18.9746 292.275C18.9746 296.08 22.0304 299.34 25.5818 299.331C29.1673 299.321 32.0673 296.163 32.107 292.225H32.1098Z" fill="#0E0A06"/>
<path d="M62.2397 236.663C57.9491 236.63 54.5478 232.833 54.6157 228.153C54.6809 223.611 58.1417 219.889 62.3133 219.874C66.5303 219.858 70.0704 223.738 70.0392 228.344C70.0109 233.018 66.5586 236.697 62.2369 236.663H62.2397ZM62.4295 235.027C65.8251 234.993 68.5043 232.06 68.5354 228.347C68.5637 224.625 65.7373 221.516 62.319 221.513C58.9545 221.51 56.0261 224.73 56.0913 228.36C56.1621 232.156 58.9233 235.064 62.4295 235.027Z" fill="#0E0A06"/>
<path d="M406.614 112.656C403.988 112.637 402.088 112.354 400.273 111.552C395.334 109.374 393.26 104.339 395.042 98.8794C395.345 97.9519 395.739 97.0768 396.209 96.2388C400.324 88.9239 409.794 84.5609 417.489 86.4312C418.82 86.7547 420.066 87.3001 421.216 88.0951C424.478 90.3505 425.914 94.1528 425.065 98.2539C424.512 100.925 423.28 103.202 421.57 105.156C417.322 110.009 412.068 112.431 406.617 112.652L406.614 112.656ZM406.373 110.998C411.253 110.838 415.688 108.838 419.466 105.14C421.414 103.233 422.878 100.947 423.53 98.1306C424.382 94.4393 423.043 91.0715 419.984 89.2074C419.137 88.6898 418.242 88.2923 417.288 88.0858C410.865 86.6962 405.342 88.8284 400.457 93.2931C398.709 94.8923 397.378 96.8642 396.546 99.2091C394.892 103.874 396.591 108.132 400.85 110.015C402.553 110.767 404.331 110.998 406.373 111.001V110.998Z" fill="#0E0A06"/>
<path d="M378.367 112.608C378.393 110.879 378.911 108.898 380.228 107.237C381.964 105.049 384.564 104.902 386.521 106.849C389.548 109.862 389.54 116.539 386.507 119.55C384.663 121.377 382.275 121.3 380.483 119.359C379.115 117.877 378.353 115.6 378.37 112.608H378.367ZM379.829 113.085C379.874 114.872 380.188 116.573 381.307 117.969C382.68 119.682 384.377 119.688 385.801 118.021C387.849 115.618 387.835 110.703 385.767 108.316C384.329 106.649 382.661 106.667 381.276 108.402C380.208 109.739 379.891 111.372 379.829 113.088V113.085Z" fill="#0E0A06"/>
<path d="M444.088 92.1916C443.989 94.3115 443.525 96.3112 442.078 97.8981C440.194 99.9686 437.51 100.086 435.476 98.1939C432.457 95.3869 432.146 89.4062 434.853 86.2387C436.804 83.9555 439.594 83.823 441.721 85.9398C443.397 87.6068 443.978 89.7821 444.088 92.1916ZM442.627 92.1855C442.537 90.46 442.151 88.7807 440.996 87.4281C439.393 85.5547 437.107 85.6902 435.672 87.7115C433.93 90.1611 434.154 94.4625 436.136 96.6471C437.776 98.4527 440.109 98.2647 441.466 96.2034C442.239 95.0264 442.531 93.6737 442.627 92.1885V92.1855Z" fill="#0E0A06"/>
<path d="M383.133 230.041C379.93 228.685 377.038 226.806 374.775 223.943C372.158 220.634 370.723 216.89 371.36 212.429C372.246 207.64 374.991 204.498 378.936 202.507C386.831 198.52 397.316 200.655 403.41 207.428C404.543 208.685 405.503 210.078 406.242 211.649C408.896 217.291 407.687 223.521 403.144 227.493C400.128 230.13 396.605 231.301 392.801 231.569C389.485 231.803 386.268 231.224 383.136 230.047L383.133 230.041ZM391.289 229.97C395.07 230.022 398.57 229.046 401.663 226.648C406.197 223.13 407.392 217.288 404.705 211.979C403.892 210.37 402.847 208.95 401.564 207.758C397.14 203.647 391.929 201.959 386.206 202.199C382.951 202.335 379.876 203.364 377.185 205.49C372.549 209.156 371.408 215.183 374.348 220.529C375.01 221.737 375.812 222.828 376.749 223.798C380.825 228.01 385.741 229.865 391.286 229.97H391.289Z" fill="#0E0A06"/>
<path d="M421.66 218.148C425.576 218.189 428.462 221.208 428.935 225.673C429.513 231.127 425.607 236.001 420.776 235.859C418.488 235.792 416.709 234.664 415.375 232.71C412.028 227.805 414.313 220.287 419.671 218.472C420.357 218.241 421.036 218.087 421.657 218.152L421.66 218.148ZM422.79 219.791C417.08 219.828 413.951 225.571 415.936 230.492C417.372 234.048 421.121 235.32 424.163 233.283C427.295 231.185 428.442 226.449 426.621 222.971C425.559 220.94 423.956 219.815 422.787 219.794L422.79 219.791Z" fill="#0E0A06"/>
<path d="M346.845 70.4983C346.814 74.3806 343.852 77.4926 340.218 77.4587C336.613 77.4248 333.625 74.1957 333.665 70.375C333.705 66.5666 336.78 63.3529 340.337 63.3929C343.96 63.433 346.874 66.619 346.843 70.4983H346.845ZM345.364 70.4767C345.39 67.5033 343.09 65.0106 340.323 65.0168C337.553 65.0229 335.197 67.4848 335.166 70.4027C335.135 73.3114 337.505 75.8627 340.241 75.8688C343.045 75.875 345.336 73.4593 345.364 70.4767Z" fill="#0E0A06"/>
<path d="M282.159 332.077C279.39 334.206 276.41 334.619 273.255 333.279C271.191 332.403 269.78 330.749 268.82 328.61C267.996 323.859 269.469 320.63 273.159 319.096C277.045 317.478 281.698 319.102 283.694 322.772C285.094 325.341 284.904 328.512 283.199 330.841C282.879 331.279 282.508 331.667 282.159 332.077ZM276.815 332.453C277.886 332.376 278.956 332.148 279.95 331.621C283.794 329.584 284.23 324.482 280.809 321.675C278.418 319.712 274.932 319.546 272.465 321.274C269.594 323.286 269.123 327.233 271.437 329.963C272.876 331.661 274.722 332.33 276.815 332.456V332.453Z" fill="#0E0A06"/>
<path d="M404.423 121.372C409.331 121.502 413.806 122.756 417.706 125.954C419.428 127.368 420.827 129.075 421.555 131.343C421.747 131.944 421.895 132.548 421.79 133.192C421.739 133.506 421.521 133.694 421.277 133.75C421.025 133.805 420.77 133.694 420.631 133.417C420.569 133.294 420.501 133.17 420.473 133.038C419.612 128.915 416.811 126.727 413.568 125.144C408.844 122.836 403.934 122.235 398.907 123.936C396.808 124.645 395.089 125.92 394.052 128.114C393.993 128.237 393.948 128.37 393.88 128.487C393.65 128.881 393.336 129.106 392.917 128.869C392.509 128.638 392.478 128.247 392.625 127.797C393.092 126.358 393.959 125.252 395.058 124.352C397.864 122.053 401.133 121.48 404.429 121.378L404.423 121.372Z" fill="#0E0A06"/>
<path d="M417.454 136.483C419.204 136.483 420.076 136.871 420.161 137.765C420.28 138.988 419.504 139.654 418.643 140.202C417.352 141.022 415.978 141.524 414.46 141.558C413.435 141.583 412.608 141.117 412.328 140.125C412.056 139.152 412.761 138.4 413.48 137.925C414.741 137.09 416.029 136.249 417.454 136.486V136.483Z" fill="white"/>
<path d="M408.239 142.004C407.154 142.004 406.387 141.351 406.344 140.396C406.299 139.373 407.129 138.603 408.29 138.593C409.369 138.587 410.139 139.247 410.179 140.211C410.221 141.246 409.403 142.001 408.239 142.001V142.004Z" fill="white"/>
<path d="M180.814 323.763C180.814 323.834 180.823 323.905 180.814 323.973C180.718 324.697 180.896 325.791 179.982 325.812C178.869 325.837 179.342 324.718 179.33 324.053C179.293 322.004 178.628 320.22 177.467 318.655C174.377 314.486 170.248 312.224 165.527 311.127C163.371 310.625 161.199 310.511 159.016 311.026C157.413 311.405 155.949 312.03 154.759 313.315C154.382 313.719 153.915 314.43 153.34 313.688C152.825 313.019 153.445 312.538 153.825 312.101C154.731 311.066 155.852 310.388 157.084 309.929C159.837 308.899 162.649 308.853 165.467 309.463C170.735 310.603 175.309 313.105 178.704 317.786C180.01 319.588 180.811 321.912 180.817 323.757L180.814 323.763Z" fill="#0E0A06"/>
<path d="M155.762 317.363C157.612 317.665 159.093 318.728 160.347 320.157C161.098 321.011 161.673 322.034 162.061 323.155C162.741 325.127 161.398 327.044 159.557 326.557C156.663 325.79 154.615 323.883 153.349 320.869C152.503 318.854 154.026 317.067 155.762 317.366V317.363Z" fill="white"/>
<path d="M108.463 54.7544C109.471 54.7914 110.247 54.8099 110.981 55.1087C111.428 55.2905 111.816 55.5648 111.661 56.181C111.528 56.711 111.091 56.711 110.718 56.6247C106.206 55.5832 102.867 58.0205 99.831 61.1048C96.6506 64.337 94.5067 68.2871 93.6826 72.9891C93.2351 75.5465 93.3909 78.0176 94.9089 80.1961C95.2374 80.6675 95.5631 81.1913 94.9769 81.635C94.4048 82.0664 94.0168 81.5364 93.6996 81.0989C92.3544 79.2471 91.7823 77.0501 92.0315 74.7854C93.0142 65.7821 97.3785 59.3824 104.937 55.574C105.572 55.2535 106.28 55.0933 106.971 54.9362C107.534 54.8068 108.121 54.7914 108.463 54.7544Z" fill="#0E0A06"/>
<path d="M109.345 69.2989C109.413 66.1314 110.45 63.309 112.005 60.6869C112.276 60.2278 112.667 59.818 113.075 59.4883C114.143 58.6286 115.111 59.023 115.618 60.388C116.162 61.8516 115.842 63.2751 115.562 64.7048C115.046 67.3208 114.318 69.8412 112.574 71.8471C111.996 72.5095 111.387 73.3045 110.441 72.8516C109.589 72.4418 109.399 71.4989 109.351 70.5561C109.331 70.137 109.348 69.718 109.348 69.2989H109.345Z" fill="white"/>
<path d="M107.633 74.2129C108.887 74.2837 109.479 75.6425 108.797 77.0137C108.389 77.8364 107.723 78.4157 106.902 78.7269C106.276 78.9641 105.622 79.0473 105.081 78.5081C104.529 77.9596 104.628 77.2109 104.753 76.533C104.988 75.2759 106.443 74.1451 107.63 74.2129H107.633Z" fill="white"/>
<path d="M54.929 253.251C54.3229 262.467 50.661 269.57 42.8756 273.738C39.8397 275.365 36.5941 275.843 33.2947 274.737C28.4207 273.104 25.8294 269.237 24.807 264.008C22.6999 253.23 29.9387 240.988 39.8028 238.56C46.0617 237.02 52.0176 240.649 54.034 247.265C54.3371 248.257 54.575 249.286 54.7279 250.318C54.8723 251.279 54.8667 252.269 54.9261 253.248L54.929 253.251Z" fill="#A3BA00"/>
<path d="M32.1011 292.223C32.0614 296.161 29.1586 299.32 25.576 299.329C22.0217 299.338 18.9688 296.078 18.9688 292.273C18.9688 288.119 21.9538 284.912 25.7318 285.001C29.354 285.087 32.1436 288.249 32.1039 292.223H32.1011Z" fill="#A3BA00"/>
<path d="M62.415 235.03C58.9089 235.064 56.1448 232.159 56.0768 228.363C56.0089 224.733 58.9372 221.513 62.3046 221.516C65.7229 221.519 68.5493 224.628 68.521 228.35C68.4927 232.063 65.8107 235 62.415 235.03Z" fill="#A3BA00"/>
<path d="M406.383 111C404.341 111 402.566 110.769 400.861 110.014C396.601 108.132 394.902 103.874 396.556 99.2086C397.386 96.8669 398.72 94.8918 400.467 93.2927C405.35 88.828 410.872 86.6958 417.298 88.0854C418.252 88.2919 419.147 88.6893 419.994 89.207C423.053 91.0711 424.395 94.4358 423.54 98.1302C422.889 100.946 421.424 103.236 419.476 105.14C415.698 108.837 411.263 110.837 406.383 110.997V111Z" fill="#A3BA00"/>
<path d="M379.812 113.085C379.871 111.369 380.189 109.736 381.256 108.399C382.641 106.664 384.309 106.649 385.748 108.312C387.813 110.703 387.83 115.615 385.782 118.018C384.36 119.688 382.661 119.679 381.288 117.966C380.169 116.57 379.857 114.869 379.812 113.082V113.085Z" fill="#A3BA00"/>
<path d="M442.635 92.1836C442.541 93.6687 442.25 95.0214 441.474 96.1984C440.117 98.2598 437.783 98.4508 436.144 96.6421C434.161 94.4575 433.937 90.1561 435.679 87.7066C437.115 85.6853 439.401 85.5528 441.003 87.4231C442.159 88.7727 442.544 90.455 442.635 92.1805V92.1836Z" fill="#A3BA00"/>
<path d="M391.285 229.973C385.742 229.865 380.823 228.013 376.748 223.801C375.81 222.83 375.009 221.74 374.346 220.532C371.406 215.186 372.548 209.156 377.184 205.492C379.874 203.366 382.95 202.337 386.204 202.202C391.928 201.961 397.136 203.65 401.562 207.76C402.845 208.952 403.888 210.373 404.703 211.981C407.391 217.29 406.196 223.132 401.662 226.651C398.569 229.051 395.069 230.028 391.288 229.973H391.285Z" fill="#A3BA00"/>
<path d="M422.793 219.79C423.962 219.812 425.565 220.936 426.627 222.967C428.448 226.446 427.301 231.181 424.169 233.28C421.127 235.316 417.378 234.044 415.942 230.488C413.956 225.567 417.086 219.824 422.795 219.787L422.793 219.79Z" fill="#A3BA00"/>
<path d="M345.363 70.4792C345.338 73.4649 343.044 75.8775 340.24 75.8714C337.504 75.8652 335.134 73.314 335.165 70.4053C335.196 67.4874 337.552 65.0255 340.322 65.0193C343.086 65.0131 345.389 67.5058 345.363 70.4792Z" fill="#A3BA00"/>
<path d="M276.801 332.454C274.708 332.328 272.862 331.662 271.423 329.961C269.109 327.231 269.579 323.284 272.451 321.272C274.918 319.544 278.407 319.713 280.794 321.673C284.216 324.48 283.779 329.585 279.936 331.619C278.942 332.146 277.872 332.374 276.801 332.451V332.454Z" fill="#A3BA00"/>
</svg>
