<svg width="381" height="381" viewBox="0 0 381 381" fill="none" xmlns="http://www.w3.org/2000/svg">
<g clip-path="url(#clip0_432_322)">
<path d="M209.474 356.063C217.846 356.063 226.219 355.95 234.584 356.09C245.163 356.263 255.735 356.603 266.301 357.123C276.55 357.63 286.793 358.27 297.003 359.27C305.85 360.136 314.696 361.096 323.385 363.083C325.183 363.496 326.955 363.983 328.667 364.683C329.346 364.963 330.031 365.263 330.65 365.656C332.738 366.963 332.751 368.489 330.703 369.816C329.86 370.363 328.931 370.736 327.989 371.083C325.216 372.109 322.337 372.742 319.445 373.316C312.621 374.662 305.731 375.509 298.828 376.249C289.303 377.276 279.752 377.949 270.187 378.522C260.208 379.122 250.215 379.529 240.223 379.842C222.115 380.422 204.007 380.522 185.899 380.342C174.266 380.229 162.64 379.922 151.014 379.422C140.817 378.989 130.627 378.402 120.45 377.582C112.42 376.936 104.417 376.102 96.4534 374.902C92.343 374.282 88.2591 373.516 84.2607 372.349C82.996 371.982 81.7576 371.536 80.5785 370.943C79.9659 370.636 79.3665 370.289 78.8988 369.769C78.2072 368.996 78.1874 368.109 78.8791 367.329C79.5971 366.516 80.5522 366.049 81.5271 365.643C84.4122 364.443 87.4357 363.73 90.4789 363.123C97.2965 361.763 104.187 360.903 111.09 360.15C119.409 359.243 127.755 358.623 136.094 358.037C140.975 357.697 145.87 357.537 150.751 357.27C161 356.71 171.263 356.423 181.519 356.203C189.048 356.043 196.577 356.023 204.106 355.943C205.891 355.923 207.683 355.997 209.468 356.063H209.474Z" fill="#121212"/>
<path d="M56.8551 347.381C54.9778 347.308 52.9358 347.714 50.8872 347.514C47.6925 347.194 45.2224 345.621 43.4702 342.941C41.7576 340.315 40.3874 337.488 38.9778 334.688C23.5904 304.13 11.8984 272.205 4.36936 238.746C2.72259 231.42 1.47764 224.014 0.594969 216.547C0.186571 213.061 1.16804 210.134 3.51304 207.628C6.15446 204.801 9.033 202.222 11.8062 199.528C36.7514 175.27 61.7098 151.017 86.6616 126.759C87.7287 125.725 87.6497 125.992 87.07 124.619C79.7584 107.346 72.5653 90.0204 65.0824 72.8212C61.8284 65.335 63.35 55.3088 70.3257 49.1357C83.322 37.6363 97.8991 28.7168 113.392 21.2171C130.301 13.0375 147.888 6.81784 166.214 2.79137C170.324 1.88475 174.467 1.11145 178.643 0.564813C181.127 0.238162 183.577 0.451485 185.962 1.27811C189.585 2.53138 191.969 5.07126 193.451 8.57775C199.986 24.0437 206.527 39.5096 213.067 54.9755C216.526 63.1484 220.004 71.3147 223.436 79.4942C223.785 80.3209 224.186 80.6875 225.128 80.7542C232.954 81.2875 240.779 81.9008 248.605 82.4741C253.96 82.8674 259.315 83.2141 264.671 83.6007C271.126 84.0674 277.581 84.554 284.043 85.0273C290.136 85.4806 296.223 85.9406 302.316 86.3872C307.46 86.7672 312.605 87.1139 317.749 87.5072C320.503 87.7205 323.137 88.4205 325.634 89.6271C327.083 90.327 328.269 91.3203 329.237 92.6469C335.738 101.546 341.041 111.166 345.836 121.086C354.545 139.111 361.448 157.85 367.251 177.016C371.816 192.095 375.597 207.381 378.462 222.894C379.18 226.767 379.918 230.647 380.399 234.553C380.939 238.94 379.753 242.746 376.104 245.573C367.053 252.579 357.41 258.659 347.49 264.292C331.832 273.191 315.602 280.891 299.048 287.911C265.435 302.17 230.892 313.643 195.697 323.142C179.941 327.395 164.079 331.195 148.119 334.542C133.897 337.521 119.604 340.095 105.237 342.228C93.6241 343.955 81.965 345.354 70.273 346.388C65.8662 346.774 61.4529 347.041 56.8683 347.381H56.8551ZM117.476 155.697C118.793 158.99 120.137 162.27 121.639 165.483C121.744 165.783 121.837 166.09 121.962 166.377C125.776 175.41 129.596 184.442 133.403 193.475C133.575 193.875 133.851 194.175 134.069 194.529C133.944 194.995 134.24 195.349 134.405 195.728C137.356 202.728 140.307 209.734 143.271 216.727C144.121 218.734 143.877 218.327 145.675 218.274C157.98 217.914 170.271 217.174 182.543 216.201C184.032 216.081 185.58 216.234 187.022 215.634C194.802 215.261 202.508 214.214 210.222 213.174C214.187 212.641 217.547 210.974 220.425 208.255C224.654 204.255 228.606 199.982 232.631 195.775C235.226 193.069 237.861 190.395 240.305 187.549C242.722 185.182 244.988 182.682 247.215 180.136C248.75 178.616 250.219 177.029 251.589 175.35C254.144 172.823 256.437 170.05 258.9 167.43C259.282 167.023 259.124 166.75 258.94 166.33C256.061 159.597 253.229 152.851 250.35 146.124C248.993 142.964 247.801 139.725 246.227 136.658C246.187 135.945 245.792 135.351 245.529 134.725C236.023 112.259 226.505 89.8004 216.993 67.3415C208.68 47.7225 200.368 28.0968 192.055 8.47775C190.75 5.40457 188.471 3.40467 185.369 2.34472C183.077 1.56476 180.712 1.48477 178.347 1.82475C173.242 2.57138 168.177 3.55133 163.157 4.74461C142.092 9.75103 122.067 17.5373 103.037 27.9301C95.1523 32.2299 87.5443 36.983 80.4039 42.4827C79.1062 43.4827 78.1643 44.716 77.5122 46.2092C76.7151 48.0291 76.3133 49.9424 76.2013 51.9289C75.951 56.4621 77.1499 60.6552 78.9152 64.7683C83.9609 76.5411 88.921 88.3538 93.9271 100.14C95.2577 103.26 96.4698 106.44 97.965 109.486C97.965 110.326 98.4986 110.959 98.8016 111.679C103.083 121.845 107.371 132.012 111.706 142.164C112.891 144.938 113.939 147.778 115.335 150.457C115.902 152.271 116.699 153.984 117.502 155.704L117.476 155.697ZM126.744 181.089C125.953 178.716 124.88 176.463 123.905 174.17C108.438 137.611 92.9588 101.053 77.4595 64.5083C75.9708 61.0018 74.9564 57.402 74.8708 53.5622C74.851 52.6089 74.6929 51.6556 74.2186 50.7957C73.4875 49.4624 72.5982 49.2224 71.3796 50.0957C70.6089 50.649 69.8382 51.2223 69.2256 51.9623C64.5225 57.602 63.1919 63.9617 65.7345 70.8947C67.5064 75.7278 69.6801 80.4142 71.6892 85.1606C82.4986 110.706 93.3014 136.251 104.131 161.79C105.646 165.357 107.016 168.99 108.781 172.45C108.748 172.656 108.807 172.816 108.998 172.916C108.992 172.99 109.018 173.05 109.084 173.083C108.998 173.543 109.275 173.903 109.44 174.283C112.74 182.109 116.053 189.935 119.36 197.755C122.153 204.355 124.965 210.948 127.732 217.561C128.107 218.461 128.555 218.887 129.583 218.814C131.678 218.667 133.785 218.654 135.887 218.587C137.968 218.521 138.805 217.887 139.391 215.861C139.984 213.788 139.813 211.774 138.97 209.788C136.183 203.241 133.423 196.682 130.643 190.135C129.359 187.109 128.042 184.096 126.737 181.076L126.744 181.089ZM313.487 102.74C315.654 99.8532 317.822 96.9734 319.989 94.0869C320.213 93.7935 320.417 93.4736 320.674 93.2069C320.904 92.9669 321.194 92.8336 321.51 93.1002C321.8 93.3536 321.794 93.6669 321.609 93.9602C321.293 94.4468 320.95 94.9268 320.608 95.3935C307.888 112.606 294.154 128.972 280.209 145.164C272.529 154.084 264.71 162.877 256.806 171.59C245.417 184.156 233.856 196.562 221.934 208.621C218.937 211.654 215.38 213.721 211.065 214.348C198.918 216.121 186.706 217.247 174.474 218.114C164.336 218.834 154.186 219.321 144.035 219.667C131.671 220.087 119.301 220.314 106.923 220.341C91.6546 220.367 76.3924 220.127 61.1367 219.534C55.0898 219.301 49.0363 219.081 42.9959 218.754C37.0083 218.434 31.0206 218.034 25.033 217.587C19.625 217.187 14.2302 216.681 8.83539 216.194C8.30843 216.147 7.41258 216.254 7.44552 215.521C7.48504 214.541 8.42041 214.974 8.95396 215.008C10.9498 215.128 12.9325 215.441 14.9416 215.401C16.371 215.788 17.8531 215.781 19.3022 215.901C25.2701 216.407 31.2512 216.847 37.2322 217.181C41.1713 217.401 45.1038 217.661 49.0429 217.814C54.0359 218.014 59.0223 218.214 64.0153 218.447C67.8489 218.627 71.6958 218.641 75.536 218.747C83.9477 218.987 92.366 219.007 100.784 219.107C102.49 219.127 102.484 219.107 103.129 217.421C104.506 213.801 105.033 210.008 105.244 206.181C105.474 201.922 105.204 197.675 104.769 193.429C104.163 187.436 103.116 181.529 101.687 175.689C98.683 163.403 94.5266 151.531 89.0725 140.138C88.7563 139.478 88.6377 138.698 88.0251 138.198C87.1556 135.611 85.6933 133.345 84.4747 130.985C83.9477 131.065 83.7435 131.398 83.4801 131.645C71.3994 143.371 59.3253 155.097 47.2512 166.83C35.8226 177.929 24.394 189.035 12.9721 200.142C10.166 202.875 7.34013 205.588 4.58015 208.368C2.72259 210.241 1.53033 212.474 1.76088 215.221C2.2088 220.527 3.07829 225.78 4.05977 231.013C7.30719 248.259 12.175 265.058 17.8663 281.618C18.4854 283.417 18.9531 285.291 19.928 286.957C19.9017 287.624 20.2113 288.204 20.422 288.797C23.2874 296.644 26.3702 304.396 29.6769 312.063C31.6991 316.749 33.8399 321.382 36.0268 325.995C38.6221 331.475 41.336 336.888 44.3924 342.115C45.6044 344.188 47.4356 345.454 49.7082 346.108C51.3747 346.588 53.0412 346.308 54.7209 346.228C60.7613 345.941 66.7884 345.441 72.8156 344.921C78.3158 344.448 83.8028 343.861 89.2833 343.181C96.1667 342.328 103.044 341.368 109.894 340.308C118.26 339.015 126.592 337.542 134.905 335.942C148.126 333.395 161.287 330.548 174.368 327.369C183.88 325.055 193.346 322.582 202.778 319.962C219.622 315.283 236.313 310.09 252.847 304.383C266.943 299.517 280.875 294.217 294.648 288.471C296.387 287.744 298.245 287.257 299.793 286.097H299.872L299.938 286.057C300.247 286.091 300.511 286.011 300.708 285.751C301.828 285.317 302.968 284.924 304.068 284.444C318.823 278.011 333.295 270.998 347.305 263.032C356.909 257.572 366.21 251.639 375.024 244.933C376.611 243.726 377.902 242.3 378.6 240.373C379.305 238.426 379.496 236.433 379.187 234.393C378.798 231.867 378.403 229.34 377.955 226.827C374.78 208.928 370.446 191.322 365.038 173.983C359.248 155.417 352.423 137.258 343.834 119.819C339.342 110.699 334.368 101.866 328.4 93.6335C327.261 92.0536 325.845 90.9803 324.073 90.3137C322.94 89.8871 321.78 89.5471 320.601 89.2604C317.92 88.6071 315.167 88.6338 312.447 88.4005C307.045 87.9472 301.631 87.6472 296.223 87.2472C285.881 86.4806 275.546 85.6739 265.204 84.894C259.118 84.4407 253.031 84.0207 246.938 83.574C239.956 83.0674 232.974 82.5474 225.991 82.0408C225.596 82.0141 225.161 81.8741 224.634 82.3141C225.695 84.734 226.775 87.2005 227.855 89.6671C227.941 89.9204 228.007 90.1737 228.112 90.4137C230.741 96.6267 233.382 102.833 236.01 109.046C239.943 118.339 243.862 127.639 247.788 136.931C251.404 145.491 255.014 154.057 258.637 162.617C259.085 163.677 259.579 164.71 260.046 165.75C260.784 165.537 261.087 164.997 261.463 164.577C264.038 161.697 266.607 158.81 269.156 155.904C273.524 150.931 277.917 145.984 282.218 140.951C289.062 132.938 295.88 124.905 302.48 116.686C306.189 112.066 309.831 107.386 313.507 102.733L313.487 102.74Z" fill="#121212"/>
<path d="M299.925 286.057L299.859 286.103H299.78C299.174 285.883 298.64 286.21 298.1 286.37C296.539 286.843 294.998 287.377 293.436 287.83C281.527 291.256 269.558 294.456 257.478 297.236C250.627 298.809 243.77 300.343 236.867 301.663C233.264 302.356 229.654 303.009 226.044 303.662C222.592 304.289 219.134 304.916 215.676 305.489C212.837 305.962 209.985 306.422 207.133 306.782C203.648 307.222 200.19 307.829 196.692 308.169C193.774 308.456 190.882 308.996 187.971 309.322C184.374 309.722 180.765 309.949 177.175 310.375C175.811 310.542 174.441 310.502 173.097 310.709C169.929 311.209 166.728 311.275 163.546 311.535C160.206 311.815 156.847 311.949 153.494 312.169C150.563 312.362 147.618 312.402 144.681 312.482C138.686 312.649 132.679 312.569 126.678 312.575C123.154 312.575 119.623 312.615 116.099 312.502C112.588 312.389 109.084 312.042 105.573 311.935C103.472 311.875 101.39 311.589 99.2891 311.489C98.0442 311.429 96.7795 311.342 95.5279 311.202C92.8733 310.902 90.2122 310.655 87.5707 310.282C86.0886 310.075 84.5209 310.215 83.1574 309.382C83.5395 309.016 83.9215 308.649 84.3101 308.289C97.3196 296.403 110.322 284.51 123.332 272.624C135.399 261.591 147.474 250.565 159.541 239.526C159.93 239.172 160.305 238.792 160.648 238.392C160.832 238.179 160.826 237.899 160.615 237.672C160.404 237.452 160.14 237.406 159.903 237.566C159.561 237.806 159.231 238.079 158.922 238.366C153.066 243.719 147.21 249.085 141.354 254.438C124.169 270.144 106.983 285.857 89.7906 301.556C86.8989 304.196 83.9808 306.796 81.0693 309.416C77.2554 308.749 73.4283 308.129 69.621 307.402C63.383 306.209 57.2307 304.656 51.1706 302.729C46.9088 301.376 42.693 299.889 38.5959 298.083C33.3789 295.783 28.3727 293.116 23.7486 289.723C22.4839 288.79 21.4102 287.57 19.9281 286.943C18.9532 285.277 18.4856 283.403 17.8664 281.604C12.1751 265.044 7.30729 248.245 4.05987 230.999C3.0784 225.766 2.2089 220.52 1.76098 215.207C1.53043 212.46 2.71611 210.22 4.58025 208.354C7.34023 205.574 10.1661 202.854 12.9722 200.128C24.3942 189.021 35.8227 177.915 47.2513 166.816C59.3254 155.09 71.4061 143.357 83.4802 131.631C83.7371 131.384 83.9413 131.051 84.4748 130.971C85.6934 133.324 87.1558 135.597 88.0252 138.184C87.8079 138.324 87.5773 138.457 87.3731 138.611C85.0545 140.371 83.1179 142.564 81.01 144.557C77.1368 148.223 73.2439 151.87 69.3904 155.563C66.4526 158.376 63.4357 161.103 60.5374 163.949C56.9211 167.503 53.2192 170.976 49.5172 174.436C47.6663 176.169 45.9141 178.002 44.0302 179.709C40.5127 182.902 37.1072 186.222 33.6687 189.508C30.9219 192.141 28.1949 194.795 25.4547 197.441C25.3032 197.588 25.1451 197.728 24.987 197.874C22.2599 200.448 19.355 202.854 16.8585 205.641C14.0788 208.754 13.1039 211.927 14.9417 215.387C12.9327 215.427 10.9499 215.114 8.95406 214.994C8.42051 214.96 7.48515 214.527 7.44562 215.507C7.41269 216.24 8.30853 216.133 8.83549 216.18C14.2369 216.667 19.6317 217.167 25.0331 217.573C31.0142 218.02 37.0018 218.42 42.996 218.74C49.043 219.067 55.0899 219.287 61.1368 219.52C76.3925 220.113 91.6547 220.353 106.924 220.327C119.294 220.3 131.665 220.08 144.035 219.653C154.192 219.307 164.336 218.82 174.474 218.1C186.706 217.233 198.919 216.107 211.065 214.334C215.38 213.707 218.943 211.634 221.934 208.607C233.85 196.548 245.41 184.142 256.806 171.576C264.71 162.856 272.529 154.063 280.21 145.15C294.154 128.958 307.888 112.592 320.608 95.3794C320.957 94.9128 321.293 94.4328 321.609 93.9462C321.8 93.6528 321.807 93.3395 321.51 93.0862C321.201 92.8129 320.905 92.9529 320.674 93.1929C320.417 93.4595 320.213 93.7728 319.989 94.0728C317.822 96.9527 315.655 99.8392 313.487 102.726C313.211 102.679 313.033 102.559 312.908 102.272C312.256 100.752 311.123 99.6726 309.772 98.7859C307.289 97.166 304.476 96.5527 301.637 95.9861C300.017 95.6661 298.383 95.8327 296.776 95.6061C294.958 95.3461 293.127 95.1861 291.302 95.0994C289.412 95.0128 287.528 94.8128 285.651 94.6461C282.153 94.3328 278.642 94.1595 275.157 93.7462C273.484 93.5462 271.811 93.5128 270.138 93.3529C267.424 93.0929 264.723 92.6862 262.01 92.5596C260.119 92.4662 258.242 92.2462 256.364 92.0929C254.902 91.9729 253.433 91.9463 251.971 91.7996C248.895 91.4929 245.818 91.1396 242.742 90.933C240.964 90.813 239.179 90.6397 237.407 90.493C236.103 90.3797 234.792 90.3263 233.488 90.1797C231.617 89.973 229.733 89.8264 227.856 89.6597C226.775 87.1932 225.695 84.7266 224.634 82.3067C225.168 81.8668 225.596 82.0068 225.991 82.0334C232.974 82.5334 239.956 83.0534 246.938 83.5667C253.025 84.0067 259.118 84.4266 265.204 84.8866C275.546 85.6599 285.881 86.4665 296.223 87.2398C301.631 87.6398 307.045 87.9398 312.447 88.3931C315.167 88.6198 317.914 88.5931 320.602 89.2531C321.781 89.5397 322.94 89.8797 324.073 90.3063C325.845 90.973 327.254 92.0463 328.401 93.6262C334.368 101.866 339.342 110.692 343.834 119.812C352.424 137.257 359.248 155.41 365.038 173.976C370.439 191.315 374.774 208.927 377.955 226.82C378.403 229.333 378.798 231.859 379.187 234.386C379.496 236.426 379.312 238.412 378.601 240.366C377.902 242.292 376.618 243.719 375.024 244.925C366.21 251.632 356.909 257.558 347.305 263.024C333.295 270.997 318.823 278.01 304.068 284.437C302.968 284.917 301.828 285.31 300.702 285.743C300.379 285.67 300.096 285.703 299.931 286.05L299.925 286.057ZM314.39 188.235C314.311 188.235 314.232 188.235 314.153 188.235C314.153 184.768 314.113 181.309 314.166 177.842C314.212 174.696 315.464 172.056 317.769 169.962C319.192 168.669 320.872 167.996 322.808 168.029C324.178 168.056 325.548 168.029 326.912 168.022C327.281 168.022 327.65 168.003 328.012 167.949C328.229 167.916 328.387 167.736 328.42 167.516C328.466 167.223 328.328 166.963 328.058 166.896C327.709 166.809 327.333 166.783 326.971 166.776C325.601 166.749 324.231 166.663 322.867 166.743C320.259 166.903 318.296 165.729 316.695 163.809C314.772 161.509 314.041 158.776 314.014 155.81C313.955 149.897 313.902 143.977 313.843 138.064C313.843 137.744 313.856 137.424 313.817 137.104C313.777 136.751 313.573 136.511 313.191 136.537C312.908 136.557 312.704 136.757 312.664 137.044C312.618 137.357 312.618 137.677 312.618 137.997C312.618 140.611 312.618 143.217 312.638 145.83C312.664 149.457 312.75 153.077 312.743 156.703C312.743 159.91 311.511 162.616 309.153 164.749C307.776 165.996 306.189 166.663 304.252 166.536C302.257 166.403 300.254 166.489 298.252 166.496C297.771 166.496 297.191 166.516 297.217 167.169C297.244 167.709 297.777 167.683 298.199 167.709C299.984 167.823 301.762 168.029 303.554 167.916C307.282 167.689 309.713 169.629 311.445 172.729C312.539 174.682 312.842 176.829 312.868 179.049C312.954 185.602 313.066 192.155 313.191 198.708C313.204 199.268 312.875 200.248 313.81 200.201C314.653 200.161 314.37 199.214 314.37 198.628C314.39 195.168 314.377 191.701 314.377 188.242L314.39 188.235ZM67.8029 281.757H67.6778C67.6778 279.097 67.6646 276.43 67.6778 273.771C67.6975 270.804 68.8042 268.284 70.8264 266.171C72.6444 264.278 74.8972 263.651 77.4464 263.858C78.1183 263.911 78.8099 263.844 79.4884 263.778C79.8112 263.744 80.0878 263.538 80.0549 263.144C80.0154 262.738 79.6926 262.651 79.3698 262.645C78.5267 262.631 77.6835 262.598 76.847 262.638C73.4283 262.791 71.0306 261.105 69.2982 258.298C68.0401 256.265 67.5263 253.985 67.4933 251.605C67.4275 247.399 67.4077 243.192 67.3682 238.986C67.3682 238.612 67.3682 238.239 67.3353 237.872C67.3089 237.579 67.1179 237.379 66.8346 237.359C66.4724 237.326 66.222 237.532 66.1825 237.899C66.143 238.266 66.1496 238.639 66.1562 239.012C66.2155 243.432 66.3011 247.852 66.3208 252.272C66.334 255.345 65.2406 257.998 63.0866 260.171C61.6111 261.651 59.8523 262.505 57.7115 262.431C56.4468 262.385 55.1887 262.398 53.924 262.391C53.5617 262.391 53.1862 262.345 52.8635 262.591C52.5078 262.858 52.5012 263.318 52.903 263.471C53.2389 263.598 53.6144 263.644 53.9767 263.651C55.0306 263.678 56.0845 263.704 57.1319 263.651C60.5572 263.504 62.9549 265.184 64.6741 267.998C65.9256 270.037 66.4394 272.304 66.4658 274.697C66.5185 279.97 66.5843 285.243 66.6502 290.516C66.6502 290.99 66.5975 291.63 67.2233 291.65C67.882 291.67 67.7832 291.016 67.8095 290.556C67.8227 290.343 67.8095 290.13 67.8095 289.916C67.8095 287.203 67.8095 284.483 67.8095 281.77L67.8029 281.757ZM360.631 229.553C361.026 229.659 361.408 229.599 361.54 229.173C361.678 228.726 361.369 228.493 360.98 228.373C360.73 228.293 360.48 228.213 360.223 228.16C350.974 226.14 341.726 224.12 332.478 222.113C313.04 217.887 293.601 213.66 274.163 209.434C266.858 207.841 259.553 206.241 252.241 204.654C251.747 204.547 251.068 204.274 250.877 204.967C250.68 205.701 251.411 205.734 251.898 205.874C252.05 205.921 252.208 205.954 252.359 205.987C271.08 210.067 289.8 214.14 308.521 218.22C323.473 221.48 338.433 224.74 353.385 228C355.803 228.526 358.22 229.039 360.638 229.559L360.631 229.553Z" fill="#FA4616"/>
<path d="M97.9481 109.483C96.4462 106.437 95.2342 103.264 93.9102 100.137C88.8974 88.3511 83.944 76.5384 78.8983 64.7656C77.1329 60.6525 75.9341 56.4593 76.1844 51.9262C76.2964 49.9397 76.7048 48.0264 77.4952 46.2065C78.1407 44.7199 79.0893 43.48 80.3869 42.48C87.5273 36.9803 95.1354 32.2339 103.02 27.9274C122.057 17.5346 142.081 9.74832 163.14 4.7419C168.16 3.54862 173.225 2.56867 178.33 1.82204C180.695 1.47539 183.06 1.55539 185.352 2.34201C188.454 3.40196 190.74 5.3952 192.038 8.47505C200.351 28.0941 208.664 47.7198 216.976 67.3388C226.488 89.7977 236.006 112.257 245.512 134.722C245.775 135.349 246.17 135.942 246.21 136.655C244.886 136.749 243.588 136.442 242.317 136.189C239.135 135.555 235.947 134.982 232.759 134.402C229.617 133.836 226.462 133.369 223.346 132.682C219.717 131.882 216.041 131.342 212.405 130.602C207.998 129.709 203.559 128.976 199.139 128.162C196.056 127.596 192.973 126.989 189.89 126.423C186.294 125.763 182.684 125.129 179.088 124.463C177.546 124.176 176.011 123.829 174.47 123.549C171.078 122.929 167.672 122.349 164.28 121.723C161.915 121.289 159.557 120.796 157.192 120.356C153.181 119.61 149.169 118.896 145.158 118.156C141.66 117.51 138.169 116.836 134.671 116.19C130.765 115.47 126.846 114.79 122.939 114.07C119.389 113.41 115.852 112.69 112.301 112.043C107.519 111.17 102.73 110.33 97.9415 109.477L97.9481 109.483ZM151.422 24.1743C151.382 21.7477 149.531 19.7545 147.456 19.5878C146.554 19.5145 145.685 19.6545 144.822 19.9478C141.33 21.1278 137.872 22.401 134.454 23.7743C129.467 25.7742 124.566 27.9807 119.705 30.274C118.941 30.634 118.256 31.1406 117.703 31.8072C115.951 33.9205 116.583 37.027 118.941 38.3802C120.752 39.4202 122.379 38.8802 124.033 38.0802C131.766 34.3271 139.703 31.0739 147.839 28.3207C148.234 28.1874 148.636 28.0474 149.011 27.8608C150.645 27.0408 151.303 25.6142 151.415 24.1743H151.422ZM178.929 56.5127H178.916C178.916 54.0128 178.956 51.5063 178.91 49.0064C178.85 45.8532 179.937 43.2467 182.177 41.0268C183.745 39.4735 185.484 38.6536 187.671 38.7669C188.612 38.8135 189.568 38.7802 190.51 38.7269C190.911 38.7069 191.201 38.4202 191.168 37.9803C191.135 37.5736 190.793 37.5136 190.463 37.5136C189.251 37.5069 188.039 37.4869 186.834 37.5136C185.912 37.5336 185.055 37.2803 184.272 36.8403C182.875 36.0537 181.742 34.9604 180.8 33.6538C179.219 31.4606 178.712 28.9007 178.64 26.2875C178.521 22.2944 178.607 18.3012 178.6 14.3081C178.6 13.9348 178.6 13.5615 178.587 13.1881C178.567 12.8015 178.462 12.4015 178.007 12.3815C177.546 12.3549 177.395 12.7282 177.368 13.1281C177.342 13.5015 177.368 13.8748 177.349 14.2481C177.158 18.2412 177.592 22.2144 177.665 26.1942C177.711 28.714 177.171 31.0739 175.827 33.1672C173.818 36.2937 170.887 38.0403 166.849 37.3203C166.111 37.187 165.386 37.1403 164.662 37.2803C164.333 37.347 163.858 37.4536 163.924 37.9403C163.983 38.3869 164.405 38.4602 164.78 38.4669C165.94 38.4802 167.099 38.5136 168.252 38.4669C171.954 38.3269 174.365 40.3201 176.117 43.3467C177.256 45.3132 177.77 47.4531 177.678 49.753C177.467 54.9661 178.179 60.1592 177.988 65.3722C177.974 65.7989 177.81 66.5122 178.488 66.4789C179.147 66.4455 178.923 65.7389 178.929 65.3056C178.949 62.3791 178.943 59.4459 178.943 56.5193L178.929 56.5127Z" fill="#CFE5EB"/>
<path d="M97.9348 109.484C102.724 110.337 107.512 111.17 112.295 112.05C115.845 112.697 119.382 113.417 122.933 114.077C126.839 114.803 130.752 115.483 134.664 116.197C138.162 116.837 141.653 117.517 145.151 118.163C149.162 118.903 153.174 119.616 157.185 120.363C159.55 120.803 161.908 121.296 164.273 121.73C167.666 122.356 171.064 122.936 174.463 123.556C176.005 123.836 177.54 124.19 179.081 124.47C182.677 125.129 186.287 125.763 189.884 126.429C192.966 126.996 196.049 127.603 199.132 128.169C203.552 128.983 207.992 129.709 212.398 130.609C216.034 131.349 219.71 131.889 223.339 132.689C226.455 133.376 229.61 133.842 232.752 134.409C235.94 134.989 239.135 135.562 242.31 136.196C243.575 136.449 244.879 136.756 246.203 136.662C247.771 139.729 248.97 142.962 250.327 146.128C253.212 152.855 256.038 159.608 258.916 166.334C259.094 166.754 259.252 167.034 258.877 167.434C256.42 170.054 254.121 172.827 251.565 175.354C247.652 174.647 243.74 173.954 239.833 173.234C237.416 172.787 235.005 172.287 232.588 171.841C228.682 171.121 224.762 170.434 220.856 169.707C218.439 169.261 216.028 168.767 213.61 168.321C209.704 167.601 205.791 166.907 201.879 166.187C199.461 165.741 197.05 165.248 194.633 164.808C190.773 164.101 186.913 163.428 183.053 162.721C179.964 162.154 176.887 161.541 173.805 160.968C169.899 160.248 165.986 159.554 162.073 158.834C159.656 158.388 157.245 157.895 154.827 157.448C150.967 156.741 147.101 156.075 143.247 155.361C139.644 154.695 136.061 153.968 132.458 153.295C128.499 152.555 124.547 151.802 120.575 151.142C118.829 150.848 117.11 150.242 115.298 150.448C113.902 147.768 112.855 144.929 111.669 142.155C107.341 132.009 103.046 121.843 98.7648 111.67C98.4618 110.95 97.9282 110.317 97.9282 109.477L97.9348 109.484Z" fill="#FCF6F5"/>
<path d="M83.1403 309.391C84.5039 310.224 86.0716 310.084 87.5537 310.291C90.1951 310.658 92.8563 310.904 95.5108 311.211C96.7624 311.351 98.0271 311.444 99.2721 311.498C101.373 311.598 103.455 311.884 105.556 311.944C109.067 312.044 112.571 312.398 116.082 312.511C119.606 312.624 123.137 312.584 126.661 312.584C132.662 312.584 138.669 312.658 144.664 312.491C147.601 312.411 150.546 312.371 153.477 312.178C156.83 311.958 160.183 311.818 163.529 311.544C166.71 311.278 169.912 311.211 173.08 310.718C174.424 310.504 175.794 310.544 177.158 310.384C180.748 309.951 184.357 309.731 187.954 309.331C190.865 309.011 193.757 308.464 196.675 308.178C200.173 307.838 203.631 307.224 207.116 306.791C209.974 306.431 212.82 305.971 215.659 305.498C219.124 304.918 222.575 304.291 226.027 303.671C229.637 303.018 233.246 302.365 236.85 301.671C243.753 300.351 250.61 298.818 257.461 297.245C269.541 294.472 281.503 291.272 293.419 287.839C294.987 287.385 296.528 286.852 298.083 286.379C298.623 286.212 299.157 285.892 299.763 286.112C298.221 287.272 296.357 287.765 294.625 288.485C280.858 294.225 266.92 299.531 252.823 304.398C236.29 310.104 219.605 315.297 202.755 319.977C193.322 322.597 183.857 325.07 174.345 327.383C161.256 330.57 148.102 333.416 134.882 335.956C126.569 337.556 118.236 339.03 109.871 340.323C103.014 341.383 96.1432 342.343 89.2597 343.196C83.7859 343.876 78.2923 344.463 72.792 344.936C66.7649 345.456 60.7443 345.956 54.6974 346.243C53.0177 346.323 51.3511 346.603 49.6846 346.123C47.4121 345.469 45.5809 344.203 44.3689 342.129C41.3125 336.896 38.5986 331.483 36.0033 326.01C33.8164 321.397 31.6756 316.771 29.6533 312.078C26.3466 304.411 23.2639 296.658 20.3985 288.812C20.1811 288.219 19.8781 287.639 19.8979 286.972C21.38 287.599 22.4471 288.825 23.7118 289.752C28.3359 293.145 33.3421 295.818 38.5591 298.112C42.6562 299.918 46.8719 301.405 51.1338 302.758C57.1939 304.678 63.3462 306.238 69.5841 307.431C73.3915 308.158 77.2186 308.778 81.0325 309.444C80.4265 310.031 79.8336 310.631 79.2144 311.198C75.4401 314.644 71.6591 318.084 67.8781 321.53C67.6871 321.71 67.5026 321.897 67.3314 322.104C67.1403 322.33 67.1272 322.59 67.3182 322.83C67.5487 323.117 67.8452 323.17 68.1548 322.997C68.3326 322.897 68.4973 322.75 68.6488 322.61C70.7105 320.73 72.7789 318.844 74.8406 316.964C77.6006 314.444 80.3672 311.924 83.1272 309.404L83.1403 309.391Z" fill="#C20000"/>
<path d="M14.9261 215.405C13.0883 211.945 14.0632 208.772 16.8429 205.659C19.3328 202.872 22.2443 200.466 24.9713 197.893C25.1229 197.746 25.2875 197.606 25.439 197.459C28.1793 194.813 30.8997 192.16 33.6531 189.526C37.0916 186.24 40.4905 182.913 44.0146 179.727C45.8985 178.02 47.644 176.187 49.5016 174.454C53.2101 170.994 56.9055 167.527 60.5218 163.968C63.4201 161.114 66.4435 158.395 69.3748 155.581C73.2282 151.888 77.1212 148.242 80.9944 144.575C83.1022 142.582 85.0388 140.395 87.3575 138.629C87.5617 138.469 87.7922 138.342 88.0096 138.202C88.6156 138.702 88.7408 139.482 89.057 140.142C94.511 151.542 98.6675 163.414 101.671 175.694C103.094 181.533 104.148 187.44 104.754 193.433C105.182 197.679 105.459 201.926 105.228 206.186C105.017 210.019 104.49 213.812 103.114 217.425C102.468 219.112 102.475 219.138 100.769 219.112C92.3505 219.012 83.9322 218.992 75.5205 218.752C71.6803 218.645 67.84 218.632 63.9997 218.452C59.0067 218.218 54.0203 218.018 49.0273 217.818C45.0883 217.658 41.1558 217.405 37.2167 217.185C31.2357 216.852 25.2546 216.412 19.2867 215.905C17.8376 215.785 16.3555 215.792 14.9261 215.405Z" fill="#C20000"/>
<path d="M240.286 187.562C237.842 190.415 235.208 193.081 232.612 195.788C228.588 199.988 224.635 204.267 220.406 208.267C217.528 210.987 214.168 212.654 210.203 213.187C202.49 214.22 194.783 215.274 187.003 215.647C186.714 215.36 186.338 215.354 185.969 215.34C184.289 215.307 182.616 215.167 180.943 215.067C175.845 214.78 170.839 213.987 165.892 212.76C159.114 211.08 152.698 208.541 146.723 204.841C142.521 202.241 138.793 199.094 135.4 195.501C135.018 195.101 134.748 194.488 134.05 194.528C133.839 194.175 133.556 193.875 133.385 193.475C129.577 184.435 125.757 175.409 121.943 166.376C121.818 166.083 121.726 165.783 121.62 165.483C122.147 165.483 122.687 165.389 123.194 165.489C125.5 165.969 127.812 166.429 130.131 166.843C133.786 167.496 137.429 168.249 141.078 168.936C145.294 169.729 149.523 170.469 153.732 171.276C157.23 171.949 160.701 172.716 164.199 173.376C169.133 174.309 174.086 175.142 179.026 176.076C183.038 176.835 187.023 177.722 191.035 178.482C195.968 179.415 200.922 180.255 205.862 181.182C210.131 181.975 214.392 182.835 218.654 183.655C223.021 184.495 227.382 185.375 231.762 186.148C234.595 186.648 237.381 187.468 240.28 187.542L240.286 187.562Z" fill="#CFE5EB"/>
<path d="M227.836 89.6661C229.713 89.8395 231.591 89.9795 233.468 90.1861C234.772 90.3328 236.083 90.3861 237.387 90.4994C239.159 90.6528 240.944 90.8194 242.723 90.9394C245.806 91.1461 248.882 91.4994 251.951 91.806C253.414 91.9527 254.883 91.9794 256.345 92.0993C258.222 92.2527 260.1 92.4793 261.99 92.566C264.704 92.6993 267.411 93.0993 270.119 93.3593C271.792 93.5193 273.465 93.5526 275.138 93.7526C278.622 94.1659 282.133 94.3392 285.631 94.6526C287.508 94.8192 289.392 95.0192 291.283 95.1059C293.107 95.1925 294.939 95.3525 296.757 95.6125C298.364 95.8392 300.004 95.6725 301.618 95.9925C304.464 96.5591 307.27 97.1724 309.753 98.7924C311.103 99.6723 312.236 100.759 312.888 102.279C313.014 102.566 313.191 102.685 313.468 102.732C309.792 107.385 306.156 112.065 302.441 116.685C295.841 124.904 289.023 132.937 282.179 140.95C277.878 145.983 273.485 150.93 269.117 155.903C266.568 158.809 264.006 161.696 261.424 164.576C261.048 164.996 260.752 165.529 260.007 165.749C259.54 164.709 259.046 163.676 258.598 162.616C254.975 154.056 251.365 145.497 247.749 136.93C243.823 127.638 239.897 118.338 235.971 109.045C233.343 102.832 230.708 96.6258 228.073 90.4128C227.968 90.1728 227.902 89.9128 227.816 89.6661H227.836Z" fill="#C20000"/>
<path d="M108.79 172.449C107.025 168.99 105.655 165.356 104.14 161.79C93.3106 136.251 82.5013 110.706 71.6985 85.1603C69.6894 80.4139 67.5157 75.7274 65.7438 70.8943C63.2012 63.9613 64.5317 57.6017 69.2349 51.9619C69.8475 51.222 70.6182 50.6487 71.3889 50.0954C72.6009 49.2221 73.4967 49.4554 74.2279 50.7953C74.7022 51.6553 74.8603 52.6086 74.88 53.5619C74.9657 57.4017 75.9801 60.9948 77.4688 64.508C92.9681 101.053 108.441 137.611 123.914 174.169C124.882 176.462 125.963 178.716 126.753 181.089C123.558 182.196 120.469 181.949 117.459 180.389C114.699 178.956 112.44 176.942 110.523 174.489C110.121 173.976 109.884 173.236 109.106 173.089C109.041 173.056 109.014 172.996 109.021 172.923C109.08 172.703 108.994 172.556 108.803 172.456L108.79 172.449ZM81.4803 88.9601C80.6437 88.9534 79.8467 89.4201 79.2604 90.2334C78.4766 91.3333 78.5293 92.4933 79.0431 93.6999C81.0587 98.433 83.0414 103.173 85.0439 107.913C85.169 108.206 85.3074 108.492 85.4852 108.752C86.2032 109.819 87.211 110.306 88.4692 110.086C89.7141 109.866 90.5112 109.092 90.88 107.853C91.1764 106.866 90.9459 105.973 90.5573 105.073C89.3979 102.399 88.2452 99.7196 87.099 97.0397C86.2164 94.9931 85.3403 92.9466 84.4642 90.9C83.9307 89.6601 83.048 88.9535 81.4803 88.9535V88.9601ZM92.4873 113.726C91.0645 113.699 89.7207 114.826 89.477 116.265C89.3387 117.072 89.4902 117.825 89.8195 118.585C91.822 123.265 93.7915 127.958 95.7808 132.645C95.9257 132.985 96.0838 133.331 96.2946 133.625C96.9994 134.611 97.9545 135.098 99.1534 134.898C100.398 134.691 101.222 133.951 101.617 132.711C101.887 131.851 101.801 131.031 101.465 130.225C101.064 129.245 100.629 128.278 100.214 127.305C98.554 123.458 96.8874 119.619 95.2472 115.765C94.7137 114.519 93.8376 113.826 92.4939 113.726H92.4873ZM66.3893 62.8614C66.4091 63.548 66.3564 64.2547 66.5935 64.9146C66.8109 65.5079 66.9953 66.1812 67.766 66.2612C68.4576 66.3346 68.7541 65.7546 69.0966 65.2946C69.1888 65.168 69.2547 65.0213 69.3205 64.8746C70.111 63.0081 70.2625 61.0748 69.8409 59.1083C69.7026 58.4683 69.3732 57.8616 68.6618 57.755C67.99 57.6617 67.6343 58.2216 67.3378 58.7216C66.5869 59.9949 66.3959 61.4081 66.3893 62.8614ZM67.7331 69.5277C67.766 70.3144 68.4049 71.2543 69.0636 71.5276C69.5906 71.7476 69.9727 71.501 70.3218 71.1677C70.9739 70.5477 70.9541 69.7744 70.7565 68.9744C70.7434 68.9211 70.717 68.8811 70.6972 68.8278C70.3679 68.0078 69.7026 67.5145 69.0636 67.6212C68.3391 67.7345 67.7001 68.6544 67.7331 69.5277Z" fill="#DBF505"/>
<path d="M240.289 187.564C237.391 187.491 234.605 186.671 231.772 186.171C227.392 185.391 223.031 184.518 218.664 183.678C214.402 182.858 210.14 181.998 205.872 181.205C200.932 180.285 195.978 179.445 191.044 178.505C187.033 177.745 183.048 176.858 179.036 176.098C174.102 175.165 169.149 174.325 164.209 173.398C160.711 172.738 157.233 171.965 153.742 171.299C149.526 170.492 145.304 169.752 141.088 168.959C137.439 168.272 133.796 167.512 130.14 166.865C127.822 166.452 125.51 165.992 123.204 165.512C122.704 165.406 122.157 165.499 121.63 165.506C120.128 162.292 118.784 159.012 117.467 155.719C117.724 155.306 118.093 155.186 118.554 155.279C122.559 156.059 126.564 156.846 130.568 157.619C134.679 158.419 138.783 159.219 142.893 159.999C147.207 160.819 151.529 161.599 155.85 162.419C158.781 162.979 161.699 163.599 164.624 164.146C170.071 165.166 175.532 166.132 180.979 167.165C185.603 168.039 190.214 169.012 194.839 169.885C199.772 170.812 204.732 171.592 209.653 172.598C214.422 173.572 219.204 174.445 223.98 175.365C228.136 176.165 232.312 176.885 236.475 177.685C239.762 178.312 243.03 179.052 246.343 179.545C246.751 179.605 247.008 179.825 247.199 180.171C244.973 182.718 242.7 185.218 240.289 187.584V187.564Z" fill="#FCF6F5"/>
<path d="M247.191 180.148C247 179.801 246.743 179.588 246.335 179.521C243.021 179.028 239.754 178.288 236.467 177.661C232.304 176.861 228.135 176.148 223.972 175.341C219.196 174.421 214.414 173.548 209.645 172.575C204.724 171.568 199.764 170.795 194.83 169.861C190.206 168.988 185.595 168.021 180.971 167.141C175.524 166.108 170.063 165.142 164.615 164.122C161.684 163.575 158.766 162.948 155.841 162.395C151.527 161.575 147.206 160.795 142.885 159.975C138.774 159.195 134.664 158.389 130.56 157.595C126.555 156.815 122.55 156.035 118.546 155.255C118.084 155.162 117.716 155.282 117.459 155.695C116.655 153.982 115.858 152.262 115.292 150.449C117.103 150.249 118.822 150.856 120.568 151.142C124.54 151.802 128.492 152.556 132.451 153.295C136.047 153.969 139.637 154.695 143.24 155.362C147.094 156.075 150.96 156.742 154.821 157.449C157.238 157.889 159.649 158.389 162.066 158.835C165.972 159.555 169.892 160.248 173.798 160.968C176.887 161.542 179.963 162.148 183.046 162.722C186.906 163.428 190.766 164.102 194.626 164.808C197.044 165.255 199.454 165.742 201.872 166.188C205.778 166.908 209.691 167.601 213.604 168.321C216.021 168.768 218.432 169.261 220.849 169.708C224.755 170.428 228.675 171.115 232.581 171.841C234.998 172.288 237.409 172.788 239.827 173.235C243.733 173.954 247.645 174.648 251.558 175.354C250.195 177.034 248.719 178.621 247.184 180.141L247.191 180.148Z" fill="#CFE5EB"/>
<path d="M109.1 173.086C109.878 173.233 110.115 173.973 110.517 174.486C112.433 176.94 114.693 178.953 117.453 180.386C120.463 181.946 123.552 182.193 126.747 181.086C128.051 184.106 129.369 187.119 130.653 190.146C133.433 196.692 136.193 203.252 138.979 209.798C139.822 211.778 139.994 213.798 139.401 215.871C138.821 217.898 137.978 218.538 135.896 218.598C133.795 218.664 131.687 218.678 129.593 218.824C128.565 218.898 128.117 218.471 127.742 217.571C124.975 210.958 122.162 204.365 119.37 197.765C116.056 189.946 112.75 182.119 109.449 174.293C109.285 173.913 109.008 173.553 109.094 173.093L109.1 173.086Z" fill="#A5BC00"/>
<path d="M134.06 194.534C134.764 194.494 135.034 195.1 135.41 195.507C138.802 199.1 142.537 202.247 146.733 204.846C152.708 208.546 159.123 211.086 165.901 212.766C170.848 213.993 175.854 214.786 180.953 215.073C182.626 215.166 184.299 215.313 185.979 215.346C186.348 215.353 186.717 215.366 187.013 215.653C185.57 216.253 184.022 216.099 182.534 216.219C170.262 217.186 157.971 217.932 145.666 218.292C143.868 218.346 144.111 218.746 143.262 216.746C140.291 209.753 137.34 202.753 134.395 195.747C134.237 195.367 133.941 195.014 134.06 194.547V194.534Z" fill="#A3B0B3"/>
<path d="M299.934 286.06C300.098 285.714 300.382 285.68 300.704 285.754C300.507 286.014 300.243 286.094 299.934 286.06Z" fill="#C20000"/>
<path d="M108.798 172.447C108.989 172.547 109.068 172.7 109.015 172.914C108.824 172.814 108.765 172.647 108.798 172.447Z" fill="#A5BC00"/>
<path d="M314.377 188.235C314.377 191.695 314.384 195.162 314.371 198.622C314.371 199.208 314.654 200.155 313.811 200.195C312.876 200.242 313.198 199.262 313.192 198.702C313.06 192.149 312.955 185.596 312.869 179.043C312.843 176.823 312.54 174.683 311.446 172.723C309.714 169.623 307.283 167.683 303.555 167.91C301.763 168.016 299.985 167.816 298.2 167.703C297.771 167.676 297.238 167.703 297.218 167.163C297.192 166.51 297.771 166.49 298.252 166.49C300.255 166.49 302.264 166.403 304.253 166.53C306.19 166.657 307.777 165.99 309.154 164.743C311.519 162.61 312.744 159.904 312.744 156.697C312.744 153.071 312.665 149.451 312.638 145.824C312.619 143.211 312.619 140.604 312.619 137.991C312.619 137.671 312.619 137.351 312.665 137.038C312.704 136.751 312.909 136.558 313.192 136.531C313.567 136.498 313.771 136.745 313.818 137.098C313.857 137.411 313.837 137.738 313.844 138.058C313.903 143.971 313.956 149.891 314.015 155.804C314.042 158.77 314.773 161.503 316.696 163.803C318.303 165.723 320.26 166.903 322.868 166.737C324.232 166.65 325.608 166.737 326.972 166.77C327.334 166.777 327.71 166.803 328.059 166.89C328.335 166.956 328.474 167.216 328.421 167.51C328.388 167.73 328.23 167.91 328.013 167.943C327.65 167.996 327.282 168.01 326.913 168.016C325.543 168.03 324.172 168.05 322.809 168.023C320.866 167.99 319.186 168.67 317.77 169.956C315.464 172.05 314.213 174.689 314.167 177.836C314.121 181.296 314.154 184.762 314.154 188.229C314.233 188.229 314.312 188.229 314.391 188.229L314.377 188.235Z" fill="#FCF6F5"/>
<path d="M67.7964 281.757C67.7964 284.47 67.7964 287.19 67.7964 289.903C67.7964 290.116 67.803 290.33 67.7964 290.543C67.7701 291.01 67.8689 291.656 67.2102 291.636C66.591 291.616 66.6437 290.976 66.6371 290.503C66.5712 285.23 66.5054 279.957 66.4527 274.684C66.4263 272.291 65.9125 270.024 64.661 267.984C62.9352 265.171 60.5375 263.491 57.1188 263.638C56.0715 263.684 55.0109 263.658 53.9636 263.638C53.6013 263.631 53.2258 263.584 52.8899 263.458C52.4881 263.304 52.4947 262.838 52.8504 262.578C53.1797 262.331 53.5486 262.378 53.9109 262.378C55.1756 262.384 56.4403 262.378 57.6985 262.418C59.8393 262.491 61.598 261.638 63.0735 260.158C65.2275 257.991 66.3209 255.331 66.3078 252.258C66.288 247.838 66.1958 243.419 66.1431 238.999C66.1431 238.626 66.1299 238.252 66.1694 237.886C66.209 237.526 66.4527 237.319 66.8216 237.346C67.1114 237.372 67.3024 237.566 67.3222 237.859C67.3551 238.232 67.3485 238.606 67.3551 238.972C67.3946 243.179 67.421 247.385 67.4803 251.592C67.5132 253.972 68.027 256.251 69.2851 258.285C71.0175 261.091 73.4152 262.771 76.8339 262.624C77.677 262.584 78.5202 262.624 79.3567 262.631C79.6795 262.631 80.0023 262.718 80.0418 263.131C80.0747 263.524 79.7981 263.738 79.4753 263.764C78.7968 263.831 78.1118 263.898 77.4333 263.844C74.8841 263.638 72.6313 264.258 70.8133 266.158C68.7845 268.271 67.6779 270.791 67.6647 273.757C67.6515 276.417 67.6647 279.084 67.6647 281.743H67.7899L67.7964 281.757Z" fill="#FCF6F5"/>
<path d="M83.1464 309.385C80.3865 311.905 77.6199 314.425 74.8599 316.945C72.7982 318.825 70.7364 320.711 68.6681 322.591C68.51 322.731 68.3519 322.878 68.174 322.978C67.8645 323.151 67.5614 323.104 67.3375 322.811C67.153 322.571 67.1662 322.318 67.3507 322.085C67.5153 321.885 67.6998 321.691 67.8974 321.511C71.6718 318.065 75.4593 314.625 79.2337 311.178C79.8529 310.612 80.4458 310.012 81.0518 309.425C83.9567 306.805 86.8813 304.205 89.773 301.566C106.965 285.866 124.151 270.154 141.337 254.448C147.193 249.095 153.048 243.728 158.904 238.375C159.214 238.089 159.537 237.815 159.886 237.575C160.123 237.409 160.386 237.462 160.597 237.682C160.815 237.909 160.815 238.189 160.63 238.402C160.288 238.802 159.912 239.182 159.524 239.535C147.456 250.568 135.388 261.601 123.314 272.634C110.305 284.52 97.3021 296.412 84.2926 308.299C83.904 308.659 83.5219 309.025 83.1399 309.392L83.1464 309.385Z" fill="#121212"/>
<path d="M360.63 229.561C358.213 229.041 355.795 228.528 353.378 228.001C338.425 224.741 323.466 221.475 308.513 218.222C289.793 214.142 271.073 210.069 252.352 205.989C252.201 205.956 252.043 205.922 251.891 205.876C251.404 205.736 250.672 205.702 250.87 204.969C251.061 204.276 251.74 204.549 252.234 204.656C259.545 206.242 266.85 207.849 274.155 209.435C293.594 213.662 313.032 217.888 332.471 222.115C341.719 224.128 350.967 226.148 360.215 228.161C360.472 228.215 360.723 228.301 360.973 228.375C361.362 228.495 361.671 228.728 361.533 229.175C361.401 229.601 361.019 229.661 360.624 229.554L360.63 229.561Z" fill="#121212"/>
<path d="M151.43 24.1798C151.318 25.6197 150.66 27.0463 149.026 27.8662C148.651 28.0529 148.249 28.1929 147.854 28.3262C139.719 31.0794 131.781 34.3326 124.048 38.0857C122.395 38.8857 120.768 39.4323 118.956 38.3857C116.598 37.0258 115.966 33.9259 117.718 31.8127C118.271 31.1461 118.956 30.6394 119.72 30.2795C124.582 27.9862 129.476 25.7797 134.469 23.7798C137.887 22.4065 141.346 21.1332 144.837 19.9533C145.7 19.66 146.569 19.52 147.472 19.5933C149.553 19.76 151.398 21.7532 151.437 24.1798H151.43Z" fill="#121212"/>
<path d="M178.935 56.5195C178.935 59.446 178.942 62.3792 178.922 65.3057C178.922 65.739 179.14 66.4456 178.481 66.479C177.796 66.5123 177.96 65.799 177.98 65.3724C178.171 60.1593 177.466 54.9595 177.671 49.7531C177.763 47.4532 177.249 45.3134 176.109 43.3468C174.357 40.3136 171.946 38.327 168.245 38.467C167.092 38.507 165.932 38.4737 164.773 38.467C164.391 38.467 163.976 38.387 163.917 37.9404C163.851 37.4537 164.325 37.3404 164.655 37.2804C165.379 37.1404 166.104 37.1871 166.841 37.3204C170.879 38.0404 173.811 36.2938 175.82 33.1673C177.163 31.0741 177.71 28.7142 177.657 26.1943C177.585 22.2078 177.15 18.2347 177.341 14.2482C177.361 13.8749 177.341 13.5016 177.361 13.1283C177.387 12.7283 177.539 12.3616 178 12.3816C178.461 12.4083 178.56 12.8016 178.58 13.1883C178.599 13.5616 178.593 13.9349 178.593 14.3082C178.593 18.3014 178.52 22.3012 178.632 26.2876C178.705 28.9008 179.212 31.454 180.793 33.6539C181.735 34.9605 182.874 36.0538 184.264 36.8404C185.048 37.2804 185.904 37.5337 186.827 37.5137C188.039 37.4871 189.244 37.5137 190.456 37.5137C190.785 37.5137 191.128 37.5737 191.161 37.9804C191.194 38.4204 190.897 38.707 190.502 38.727C189.56 38.7803 188.605 38.8137 187.663 38.767C185.47 38.6537 183.731 39.4736 182.17 41.0269C179.93 43.2468 178.843 45.8533 178.902 49.0065C178.949 51.5064 178.909 54.0129 178.909 56.5128H178.922L178.935 56.5195Z" fill="#FCF6F5"/>
<path d="M81.4753 88.9634C83.043 88.9634 83.9323 89.6767 84.4593 90.9099C85.3353 92.9565 86.218 95.0031 87.0941 97.0497C88.2468 99.7295 89.393 102.409 90.5523 105.083C90.9409 105.983 91.1715 106.876 90.8751 107.862C90.5062 109.102 89.7092 109.876 88.4642 110.096C87.2061 110.316 86.1983 109.822 85.4803 108.762C85.3024 108.502 85.1641 108.209 85.0389 107.922C83.0365 103.189 81.0472 98.4429 79.0381 93.7098C78.5243 92.4965 78.4716 91.3366 79.2555 90.2433C79.8417 89.4234 80.6388 88.9567 81.4753 88.97V88.9634ZM84.6635 103.469V103.483C84.9599 104.956 85.6845 106.249 86.2971 107.589C86.8372 108.776 87.733 109.169 88.675 108.749C89.5708 108.349 89.999 107.282 89.6367 106.189C89.4589 105.643 89.3337 105.063 88.9648 104.596C87.1336 100.303 85.309 96.0097 83.4778 91.7166C83.3526 91.4233 83.2077 91.1299 83.0167 90.8833C82.3646 90.0233 81.1394 89.9833 80.4016 90.7833C79.8878 91.3366 79.7298 91.9899 79.9866 92.7032C80.3094 93.6032 80.6454 94.4964 81.0406 95.3631C82.1933 97.9229 83.1089 100.589 84.4461 103.069C84.4197 103.256 84.4593 103.409 84.6569 103.483L84.6635 103.469Z" fill="#121212"/>
<path d="M92.4835 113.725C93.8207 113.819 94.7034 114.519 95.2303 115.765C96.8705 119.618 98.5371 123.458 100.197 127.305C100.619 128.278 101.047 129.245 101.449 130.225C101.778 131.031 101.87 131.858 101.6 132.711C101.205 133.944 100.381 134.691 99.1365 134.898C97.9376 135.098 96.9759 134.604 96.2777 133.624C96.0669 133.324 95.9088 132.984 95.7639 132.645C93.7746 127.958 91.8051 123.265 89.8026 118.585C89.4798 117.825 89.3283 117.072 89.4601 116.265C89.7038 114.825 91.0541 113.699 92.4704 113.725H92.4835ZM95.4675 128.365C95.6848 129.851 96.4753 131.111 97.0681 132.445C97.5688 133.578 98.4119 133.944 99.3012 133.591C100.25 133.218 100.763 132.191 100.447 131.118C100.256 130.471 99.9269 129.871 99.6634 129.251C97.8388 124.965 96.0208 120.678 94.1896 116.399C94.1039 116.205 94.0051 116.019 93.8866 115.839C93.3991 115.099 92.7536 114.819 92.0224 115.019C91.1991 115.245 90.5799 116.059 90.6326 116.912C90.6523 117.279 90.7511 117.652 90.896 117.985C92.2859 121.238 93.6956 124.485 95.0986 127.731C95.1579 127.978 95.1776 128.251 95.4741 128.345L95.4675 128.365Z" fill="#121212"/>
<path d="M66.3882 62.8609C66.4014 61.4077 66.5858 59.9944 67.3367 58.7211C67.6331 58.2211 67.9823 57.6545 68.6607 57.7545C69.3721 57.8545 69.7081 58.4678 69.8398 59.1078C70.2548 61.0743 70.1033 63.0076 69.3194 64.8741C69.2601 65.0208 69.1877 65.1675 69.0955 65.2941C68.7529 65.7608 68.4565 66.3341 67.7649 66.2607C66.9942 66.1808 66.8098 65.5075 66.5924 64.9142C66.3552 64.2542 66.4079 63.5475 66.3882 62.8609Z" fill="#FCF6F5"/>
<path d="M67.7317 69.5242C67.6988 68.6509 68.3377 67.731 69.0623 67.6177C69.7012 67.5177 70.3665 68.011 70.6959 68.8243C70.7156 68.8709 70.742 68.9176 70.7552 68.9709C70.9528 69.7709 70.9725 70.5442 70.3204 71.1642C69.9713 71.4975 69.5892 71.7441 69.0623 71.5241C68.4036 71.2508 67.7646 70.3109 67.7317 69.5242Z" fill="#FCF6F5"/>
<path d="M84.455 103.052C83.1179 100.579 82.2023 97.9059 81.0495 95.346C80.6609 94.4794 80.3184 93.5795 79.9956 92.6862C79.7387 91.9729 79.8968 91.3196 80.4106 90.7663C81.1549 89.9663 82.3735 90.013 83.0257 90.8663C83.2167 91.1129 83.3616 91.4062 83.4868 91.6995C85.318 95.9927 87.1492 100.286 88.9738 104.579C87.9198 105.159 87.1228 104.339 86.2401 104.039C85.7132 103.859 85.318 103.312 84.6724 103.472V103.459C84.7449 103.246 84.6395 103.126 84.4616 103.046L84.455 103.052Z" fill="#DBF505"/>
<path d="M84.667 103.481C85.3191 103.321 85.7143 103.874 86.2347 104.048C87.1174 104.348 87.9144 105.168 88.9683 104.588C89.3372 105.054 89.4624 105.641 89.6402 106.181C90.0025 107.281 89.5678 108.341 88.6785 108.741C87.7366 109.161 86.8407 108.767 86.3006 107.581C85.688 106.241 84.9634 104.941 84.667 103.474V103.481Z" fill="#A5BC00"/>
<path d="M84.4496 103.05C84.626 103.129 84.7306 103.248 84.6587 103.46C84.4627 103.394 84.4235 103.241 84.4496 103.05Z" fill="#A5BC00"/>
<path d="M95.0937 127.751C93.6906 124.505 92.281 121.258 90.8911 118.005C90.7462 117.672 90.654 117.292 90.6276 116.932C90.5749 116.072 91.1941 115.265 92.0175 115.039C92.7487 114.832 93.4008 115.112 93.8817 115.859C94.0002 116.032 94.099 116.225 94.1847 116.418C96.0093 120.705 97.8339 124.991 99.6585 129.271C98.6639 129.991 97.8471 129.178 96.9973 128.898C96.4901 128.731 96.1015 128.191 95.4691 128.371C95.5416 128.038 95.4494 127.818 95.0937 127.758V127.751Z" fill="#DBF505"/>
<path d="M95.4714 128.361C96.1104 128.181 96.4924 128.714 96.9996 128.888C97.856 129.168 98.6662 129.981 99.6608 129.261C99.9309 129.881 100.26 130.481 100.445 131.128C100.761 132.201 100.247 133.221 99.2985 133.601C98.4093 133.954 97.5661 133.581 97.0655 132.454C96.4727 131.121 95.6822 129.861 95.4648 128.368L95.4714 128.361Z" fill="#A5BC00"/>
<path d="M95.0977 127.748C95.4534 127.808 95.5522 128.035 95.4731 128.361C95.1767 128.268 95.1569 127.995 95.0977 127.748Z" fill="#A5BC00"/>
</g>
<defs>
<clipPath id="clip0_432_322">
<rect width="380.015" height="380.015" fill="white" transform="translate(0.504395 0.4104)"/>
</clipPath>
</defs>
</svg>
