<svg width="352" height="366" viewBox="0 0 352 366" fill="none" xmlns="http://www.w3.org/2000/svg">
<path d="M172.196 341.995C178.251 341.995 184.313 341.847 190.361 342.033C197.447 342.255 204.526 342.508 211.605 342.953C219.333 343.443 227.053 343.993 234.753 344.876C243.423 345.871 252.079 346.955 260.523 349.473C262.257 349.992 263.963 350.616 265.527 351.611C268.005 353.193 268.012 354.915 265.493 356.415C262.782 358.026 259.793 358.747 256.809 359.422C249.546 361.078 242.18 361.976 234.794 362.689C228.111 363.335 221.428 363.818 214.725 364.159C207.857 364.508 200.997 364.716 194.123 364.887C187.685 365.043 181.248 365.08 174.811 365.021C168.21 364.961 161.609 364.843 155.014 364.598C148.639 364.36 142.27 363.996 135.907 363.58C126.712 362.979 117.538 362.14 108.411 360.774C102.69 359.92 96.9765 358.962 91.4062 357.239C89.7815 356.734 88.1773 356.163 86.7096 355.227C84.218 353.638 84.2316 351.975 86.7506 350.43C88.6688 349.257 90.7781 348.619 92.8943 348.062C99.0995 346.436 105.421 345.537 111.756 344.78C117.879 344.052 124.016 343.525 130.166 343.117C137.081 342.664 144.003 342.411 150.925 342.159C158.018 341.899 165.104 341.921 172.196 341.988V341.995Z" fill="#020101"/>
<path d="M133.874 150.607C131.143 148.944 128.515 147.385 125.934 145.744C125.143 145.239 124.856 145.841 124.467 146.279C120.467 150.83 116.275 155.159 111.852 159.228C100.629 169.556 88.4576 178.229 74.8117 184.332C67.9307 187.406 60.8449 189.701 53.4724 190.837C44.1612 192.27 34.9593 191.899 26.1054 188.09C14.9716 183.3 7.66737 174.464 3.71489 162.302C1.08673 154.179 0.315352 145.774 0.765894 137.22C1.69428 119.608 6.88916 103.361 14.2207 87.8131C15.0945 85.9642 16.0365 84.1674 16.9513 82.3482C17.2107 81.8285 17.4291 81.3978 17.0946 80.7221C13.8657 74.2548 14.1866 67.6613 17.0195 61.2386C20.6102 53.1006 26.5082 47.9402 34.7545 46.1804C36.6454 45.7794 38.5772 45.7497 40.4545 46.0913C41.4921 46.2769 42.0519 45.8982 42.7004 45.1706C48.1615 39.0003 53.998 33.2904 60.2237 28.0482C70.5384 19.3682 81.6108 12.1139 93.8232 7.01282C100.561 4.19869 107.496 2.16421 114.678 1.24349C123.245 0.144572 131.689 0.664331 139.813 4.05019C151.226 8.8097 158.687 17.7644 162.708 30.2089C164.94 37.1143 165.739 44.2647 165.685 51.5562C165.603 62.6419 163.527 73.3267 160.305 83.7887C158.38 90.0332 156.012 96.0847 153.329 101.98C153.568 102.559 154.1 102.619 154.517 102.827C156.933 104.052 159.363 105.262 161.807 106.428C163.179 107.081 162.927 107.356 164.128 105.945C171.207 97.6737 178.866 90.0852 187.037 83.1204C201.858 70.4903 217.954 60.3178 235.696 53.3382C245.157 49.6108 254.871 46.9897 264.886 45.7869C278.333 44.1756 291.59 45.074 304.424 50.0266C323.101 57.229 336.385 70.8393 344.447 90.4936C348.051 99.2775 350.099 108.529 351.096 118.078C351.772 124.582 351.929 131.109 351.601 137.628C351.034 149.041 349.191 160.23 346.27 171.205C339.921 195.069 329.49 216.699 315.892 236.553C300.137 259.549 281.201 278.825 258.687 293.838C244.857 303.068 230.173 310.144 214.37 314.354C205.544 316.708 196.581 318.037 187.502 317.992C175.829 317.933 164.504 315.772 153.82 310.441C137.84 302.466 126.535 289.502 119.531 272.038C116.193 263.722 114.227 254.997 113.203 245.998C112.35 238.491 112.248 230.955 112.712 223.433C113.606 209.028 116.528 195.077 120.979 181.489C124.296 171.368 128.29 161.574 133.102 152.174C133.341 151.714 133.56 151.239 133.88 150.578L133.874 150.607ZM52.9809 97.6069C52.7693 97.6514 52.6942 97.7999 52.7215 98.0227C52.4007 98.1266 52.3256 98.3791 52.3461 98.6983C51.6975 99.1067 51.4655 99.8715 51.0968 100.51C49.1103 103.911 47.2536 107.393 45.5265 110.965C40.8709 120.595 37.0208 130.56 35.1845 141.326C34.222 146.962 33.8807 152.612 35.0412 158.263C36.2426 164.106 38.9254 168.829 44.1339 171.346C48.7212 173.566 53.5065 173.662 58.3533 172.526C59.0086 172.519 59.6503 172.4 60.292 172.244C65.7531 170.915 70.8933 168.643 75.8425 165.851C86.8261 159.659 96.4991 151.491 105.496 142.336C105.619 142.217 105.722 142.076 105.851 141.965C106.281 141.578 106.261 141.192 105.892 140.762C105.667 140.502 105.483 140.212 105.271 139.938C100.479 133.559 94.9837 127.991 88.7716 123.276C87.0173 121.946 85.6247 120.313 84.8533 118.16C83.8293 115.308 83.4129 112.331 83.6041 109.264C83.9727 103.302 85.8909 97.941 89.0583 93.1072C92.492 87.8577 96.8131 83.7961 102.561 81.8062C105.421 80.8112 108.343 80.5513 111.244 81.5983C112.425 82.0289 113.551 82.6526 114.691 83.2095C122.48 87.0483 130.269 90.902 138.065 94.7408C139.28 95.3422 139.307 95.3348 139.833 94.2804C144.796 84.2639 148.864 73.8761 150.769 62.6122C151.704 57.0953 152.032 51.5413 150.912 45.9948C149.267 37.8717 144.625 32.533 137.027 31.2633C132.638 30.5282 128.324 31.0925 124.071 32.3028C115.476 34.7531 107.729 39.1785 100.39 44.5023C88.048 53.4422 77.2146 64.2383 67.5279 76.4155C62.7426 82.4299 58.2236 88.6818 54.2916 95.4016C54.0936 95.4758 54.0049 95.6244 54.0185 95.8545C53.725 95.9659 53.6294 96.2109 53.6294 96.5228C53.4246 96.5673 53.3495 96.7158 53.37 96.9312C53.0696 97.0351 52.9741 97.2802 52.9809 97.592H52.9877L52.9809 97.6069ZM20.9242 57.0285C15.9136 63.4141 14.4664 73.8761 18.296 79.8162C20.7399 75.1458 23.5251 70.7799 26.2215 66.3693C28.638 63.0132 31.0204 59.6199 33.4848 56.3083C35.0616 54.1921 36.7682 52.1799 38.4134 50.1231C38.9527 49.4474 39.2394 48.6381 38.8844 47.8288C38.5431 47.0417 37.7376 47.257 37.1232 47.309C30.3651 47.8585 25.0132 51.2072 20.9242 57.0359V57.0285ZM152.223 103.369C151.923 102.998 151.492 102.864 151.103 102.671C138.031 96.2184 124.951 89.7808 111.886 83.3283C110.521 82.6526 109.114 82.3259 107.626 82.3037C105.182 82.2665 102.868 82.8754 100.684 84.004C94.5195 87.1894 90.2188 92.3424 87.3859 99.0251C86.8125 99.9086 86.5531 100.948 86.2459 101.943C85.0308 105.871 84.3959 109.881 85.1127 114.024C85.768 117.803 87.222 120.914 90.6216 122.726C93.5569 124.293 96.3489 126.164 99.2024 127.901C110.48 134.762 121.75 141.63 133.034 148.484C134.734 149.516 134.317 149.65 135.403 147.719C137.027 144.838 138.604 141.92 140.277 139.069C145.929 129.453 152.284 120.409 159.186 111.811C160.817 109.777 160.551 107.898 158.428 106.48C156.476 105.18 154.38 104.186 152.223 103.354V103.369ZM27.7779 187.102C27.8939 187.414 28.167 187.444 28.4128 187.51C34.3039 189.79 40.3999 190.473 46.5982 190.176C53.8342 189.827 60.8586 188.216 67.7259 185.736C80.3274 181.177 91.7275 174.175 102.383 165.658C105.769 162.948 109.032 160.074 112.227 157.104C112.889 156.488 113.176 155.85 112.958 154.944C112.862 154.543 112.787 154.134 112.684 153.733C111.79 150.184 110.002 147.14 108.138 144.133C106.957 142.224 107.019 142.737 105.913 143.851C100.431 149.39 94.6765 154.58 88.5054 159.191C80.9145 164.856 72.9617 169.742 64.0806 172.63C58.9062 174.316 53.6499 175.237 48.257 174.212C42.0519 173.031 37.5874 169.341 35.0753 163C33.7169 159.577 33.1776 155.954 33.0683 152.248C32.9113 146.806 33.6827 141.489 34.9046 136.232C37.2802 126.038 41.1917 116.526 45.8951 107.386C53.1243 93.3226 61.9713 80.5513 72.163 68.8864C80.9486 58.8254 90.4441 49.6702 101.284 42.2599C107.449 38.0499 113.838 34.3522 120.815 31.9761C126.167 30.1495 131.607 29.0209 137.246 29.9936C143.396 31.0554 147.95 34.5155 150.578 40.7303C152.592 45.4824 153.035 50.5389 152.776 55.692C152.489 61.4687 151.376 67.0821 149.8 72.599C147.608 80.2766 144.591 87.5681 141.123 94.6517C140.481 95.9659 140.488 95.9956 141.676 96.5822C144.803 98.134 147.95 99.6339 151.056 101.23C151.861 101.646 152.189 101.431 152.537 100.629C153.984 97.3024 155.404 93.9685 156.646 90.5456C161.507 77.1952 164.681 63.4735 164.36 48.9797C164.217 42.5866 163.357 36.3272 161.329 30.3129C156.728 16.6358 148.031 7.73306 135.027 3.96851C127.518 1.79295 119.927 1.82265 112.302 3.09977C105.094 4.31007 98.1716 6.58959 91.4544 9.64874C84.9011 12.6336 78.614 16.168 72.6614 20.4078C72.559 20.4523 72.4566 20.482 72.3678 20.5488C58.8516 30.0456 46.8918 41.4729 36.4815 54.8232C29.8736 63.3027 23.8732 72.2352 18.7671 81.8879C14.1593 90.605 10.1863 99.6265 7.26461 109.168C3.48279 121.531 1.22326 134.131 2.19261 147.251C2.58171 152.545 3.48962 157.706 5.19622 162.673C8.90977 173.455 15.388 181.481 25.1497 186.196C25.9894 186.604 26.8017 187.124 27.7642 187.124L27.7779 187.102ZM231.648 56.6647C231.436 56.7018 231.204 56.687 231.013 56.7835C228.214 58.1126 225.395 59.3971 222.637 60.8079C214.131 65.159 206.056 70.3195 198.287 76.074C189.884 82.2962 181.972 89.1942 174.572 96.753C166.893 104.601 159.705 112.947 153.172 121.969C143.792 134.933 135.71 148.759 129.197 163.668C123.231 177.331 118.739 191.52 116.064 206.392C114.534 214.917 113.811 223.515 113.722 232.18C113.688 235.655 113.879 239.145 114.173 242.627C114.794 250.037 116.091 257.284 118.207 264.36C121.217 274.407 125.757 283.54 132.201 291.477C139.833 300.885 149.158 307.59 160.032 311.748C165.35 313.782 170.811 315.148 176.388 315.921C178.812 316.255 181.255 316.626 183.72 316.388L183.815 316.411L183.911 316.396C184.566 316.849 185.283 316.693 185.993 316.641C187.085 316.656 188.177 316.708 189.263 316.678C199.625 316.433 209.762 314.599 219.702 311.443C235.546 306.424 250.175 298.598 263.875 288.685C283.508 274.481 300.273 256.965 314.418 236.472C325.92 219.81 335.19 201.804 341.689 182.172C347.731 163.921 351.137 145.172 350.366 125.681C349.908 114.15 347.942 102.953 343.758 92.3053C335.894 72.302 322.616 58.4764 303.666 51.2815C291.119 46.5145 278.19 45.6829 265.077 47.2199C257.738 48.0812 250.55 49.7519 243.485 52.0685C239.471 53.3828 235.471 54.7416 231.648 56.6572V56.6647Z" fill="#110A08"/>
<path d="M183.901 316.398L183.805 316.413L183.709 316.391C183.109 315.797 182.31 315.826 181.586 315.633C170.282 312.604 160.315 307.035 152.233 297.709C147.523 292.281 144.021 286.081 141.468 279.206C138.341 270.785 136.805 261.957 136.266 252.958C135.856 246.164 136.068 239.325 136.915 232.561C137.693 226.353 138.867 220.228 140.355 214.161C142.874 203.885 146.308 193.98 150.41 184.349C154.861 173.895 160.131 163.93 166.002 154.345C170.35 147.246 175.013 140.4 180.01 133.814C183.232 129.567 186.501 125.349 189.983 121.37C194.304 116.432 198.7 111.568 203.356 106.98C206.748 103.638 210.189 100.371 213.705 97.1933C218.777 92.612 224.074 88.3648 229.501 84.2958C233.446 81.3332 237.481 78.5117 241.659 75.95C245.884 73.3586 246.847 68.1165 245.345 64.1069C243.966 60.4389 241.365 58.1297 237.836 57.053C235.795 56.4293 233.719 56.7709 231.658 56.6669C235.481 54.7512 239.481 53.3924 243.495 52.0782C250.553 49.7615 257.748 48.0909 265.087 47.2296C278.207 45.6926 291.129 46.5316 303.676 51.2911C322.626 58.4861 335.897 72.3117 343.768 92.315C347.952 102.963 349.925 114.16 350.376 125.691C351.14 145.182 347.741 163.93 341.699 182.181C335.201 201.813 325.93 219.819 314.428 236.481C300.284 256.975 283.525 274.498 263.885 288.695C250.178 298.607 235.549 306.433 219.712 311.453C209.766 314.609 199.635 316.435 189.273 316.688C188.181 316.717 187.095 316.665 186.003 316.65C185.348 316.168 184.631 316.346 183.921 316.405L183.901 316.398ZM281.265 247.961C281.456 247.938 281.572 247.82 281.6 247.604C281.791 247.574 281.907 247.456 281.934 247.248C282.125 247.225 282.241 247.107 282.269 246.899C282.46 246.869 282.576 246.758 282.596 246.542C282.794 246.513 282.91 246.386 282.938 246.171C283.279 245.622 283.695 245.146 284.187 244.76C284.965 244.939 285.382 244.33 285.846 243.84C292.283 237.008 298.591 230.066 304.284 222.47C307.622 218.015 310.864 213.493 313.875 208.778C316.981 203.915 319.875 198.903 322.592 193.765C325.91 187.483 328.797 180.986 331.289 174.281C333.835 167.413 335.747 160.329 337.16 153.075C338.163 147.929 338.907 142.732 339.167 137.489C339.399 132.886 339.29 128.275 338.627 123.686C337.672 117.13 335.89 110.915 332.716 105.205C330.757 101.678 328.401 98.4853 325.514 95.8345C320.694 91.4091 315.165 88.4391 308.96 87.0877C305.444 86.3229 301.901 85.6472 298.283 85.9145C289.457 85.5507 280.91 87.1768 272.534 90.0949C261.018 94.1118 250.417 100.134 240.362 107.351C224.074 119.045 209.916 133.324 197.355 149.518C185.368 164.977 175.361 181.825 167.811 200.336C161.961 214.689 157.796 229.546 157.086 245.362C156.725 253.366 157.339 261.259 159.783 268.877C164.09 282.339 172.514 290.989 185.327 294.382C192.604 296.306 199.936 296.083 207.26 294.769C216.913 293.031 225.999 289.4 234.757 284.737C247.174 278.121 258.458 269.649 268.998 259.96C273.074 256.21 277.053 252.334 280.897 248.295C281.101 248.295 281.231 248.183 281.279 247.968L281.265 247.961ZM270.643 51.009C268.418 51.1575 266.193 51.3208 263.988 51.7143C260.226 52.3826 256.513 53.2588 252.984 54.8775C251.878 55.3824 250.785 55.9318 249.919 56.8674C248.929 57.9366 249.058 58.8202 250.28 59.5107C250.615 59.6964 250.983 59.8152 251.352 59.9265C252.622 60.3052 253.919 60.4092 255.229 60.4463C259.277 60.5577 263.264 60.0008 267.21 59.1098C269.974 58.4861 272.705 57.6767 275.285 56.3773C276.227 55.9021 277.156 55.3898 277.866 54.5507C278.664 53.6152 278.528 52.7093 277.524 52.0708C276.903 51.6772 276.214 51.4916 275.517 51.3654C273.906 51.0832 272.282 50.905 270.643 51.009ZM328.231 84.1028C328.101 83.4271 327.562 83.1672 327.139 82.8257C322.23 78.8532 316.79 76.0242 310.933 74.1457C300.045 70.6484 288.986 70.4331 277.886 72.5493C259.83 75.9945 244 84.5705 230.088 97.4606C229.842 97.6908 229.603 97.9432 229.385 98.2031C229.18 98.4481 229.159 98.7674 229.344 99.0199C229.576 99.3317 229.89 99.406 230.211 99.1461C230.518 98.9011 230.811 98.6412 231.105 98.3664C239.146 90.8299 248.062 84.823 257.851 80.3902C271.101 74.3907 284.842 71.4726 299.225 73.069C309.172 74.1754 318.38 77.5241 326.497 84.0582C326.804 84.3033 327.111 84.578 327.459 84.7116C327.917 84.8898 328.169 84.5928 328.224 84.1028H328.231ZM192.154 305.104C195.266 304.978 198.325 304.882 201.356 304.496C210.66 303.322 219.712 300.976 228.49 297.442C235.16 294.754 241.556 291.457 247.447 287.076C247.85 286.779 248.239 286.445 248.601 286.089C248.819 285.873 248.84 285.547 248.662 285.279C248.485 285.019 248.205 284.915 247.939 285.057C247.598 285.242 247.284 285.48 246.976 285.717C244.737 287.418 242.423 288.992 239.993 290.343C225.712 298.31 210.578 302.803 194.529 303.582C188.829 303.857 183.191 303.463 177.695 301.6C177.538 301.548 177.388 301.474 177.224 301.444C176.869 301.384 176.549 301.473 176.446 301.889C176.351 302.29 176.555 302.587 176.89 302.728C177.45 302.959 178.016 303.166 178.596 303.345C183.047 304.718 187.614 305 192.147 305.09L192.154 305.104ZM287.081 55.7462C287.675 55.62 288.331 55.6497 288.952 55.3452C289.648 55.0037 290.215 54.521 290.29 53.6969C290.372 52.8504 289.819 52.249 289.198 51.8554C287.648 50.8827 286.01 50.712 284.351 51.5287C283.736 51.8332 283.224 52.2638 283.177 53.088C283.129 53.979 283.6 54.4988 284.235 54.9369C285.095 55.5309 286.064 55.6571 287.088 55.7313L287.081 55.7462Z" fill="#FA4616"/>
<path d="M72.684 20.3972C78.6298 16.1574 84.9237 12.6231 91.477 9.63816C98.1942 6.57901 105.116 4.29207 112.325 3.0892C119.95 1.81207 127.541 1.78237 135.05 3.95794C148.054 7.72248 156.751 16.6326 161.352 30.3023C163.373 36.3167 164.239 42.5761 164.383 48.9691C164.704 63.463 161.529 77.1846 156.669 90.535C155.427 93.958 154.007 97.2919 152.56 100.618C152.211 101.42 151.884 101.636 151.078 101.22C147.972 99.6234 144.825 98.1235 141.699 96.5716C140.511 95.9776 140.504 95.9553 141.146 94.6411C144.614 87.5575 147.631 80.266 149.822 72.5884C151.399 67.0716 152.512 61.4582 152.798 55.6814C153.058 50.5284 152.607 45.4719 150.6 40.7198C147.972 34.5049 143.412 31.0448 137.268 29.983C131.63 29.0103 126.189 30.1315 120.837 31.9655C113.861 34.349 107.471 38.0393 101.307 42.2494C90.4667 49.6596 80.9712 58.8148 72.1856 68.8759C61.9939 80.5482 53.1469 93.3194 45.9177 107.375C41.2143 116.523 37.3028 126.027 34.9272 136.222C33.7053 141.479 32.9339 146.795 33.0909 152.238C33.1933 155.943 33.7394 159.559 35.0979 162.989C37.61 169.331 42.0745 173.021 48.2796 174.201C53.6725 175.226 58.9288 174.305 64.1032 172.62C72.9843 169.731 80.9439 164.846 88.528 159.18C94.7059 154.569 100.454 149.387 105.935 143.84C107.041 142.726 106.98 142.214 108.161 144.122C110.024 147.129 111.813 150.181 112.707 153.723C112.809 154.124 112.885 154.532 112.98 154.933C113.199 155.839 112.912 156.478 112.25 157.094C109.055 160.064 105.792 162.937 102.406 165.648C91.7501 174.172 80.35 181.166 67.7485 185.725C60.8811 188.213 53.8568 189.816 46.6208 190.165C40.4225 190.462 34.3265 189.779 28.4353 187.5C28.3602 187.106 28.1213 187.032 27.8005 187.091C27.7527 186.772 27.5479 186.579 27.3226 186.408C24.3122 184.159 21.9707 181.211 19.9911 177.921C15.042 169.739 12.8166 160.621 12.4889 150.931C12.3865 147.924 12.3933 144.909 12.7005 141.887C12.9872 139.014 13.2739 136.148 13.7313 133.289C15.3765 123.005 18.5849 113.286 22.6875 103.9C26.2714 95.6955 30.572 87.951 35.3641 80.5036C41.3099 71.2668 47.8837 62.6091 55.1402 54.5602C57.9253 51.4714 60.7105 48.3677 63.6254 45.4199C66.2535 42.7543 69.0728 40.3188 71.544 37.4676C73.2506 35.5073 74.609 33.3021 75.4145 30.7478C76.1996 28.2456 76.2132 25.7953 74.9708 23.3747C74.3701 22.2015 73.3666 21.4441 72.7045 20.3675L72.684 20.3972ZM81.6334 23.9612C82.0088 23.9315 82.3433 23.9464 82.6573 23.8647C87.3744 22.7138 91.5521 20.4195 95.1087 16.8405C95.4227 16.5213 95.6957 16.1352 95.921 15.7342C96.7129 14.2937 96.1941 13.1206 94.6786 12.9572C94.1461 12.8978 93.5795 12.8978 93.0539 13.024C88.4256 14.1007 84.3707 16.4025 80.8347 19.8032C80.3022 20.3155 79.838 20.9095 79.5718 21.6446C79.1622 22.7807 79.5991 23.642 80.705 23.8944C81.019 23.9687 81.3535 23.9538 81.6334 23.9687V23.9612ZM132.988 21.2511C129.418 21.2362 125.93 21.9268 122.51 22.9514C110.646 26.5081 99.8803 32.4705 90.1117 40.5935C88.4188 41.9969 86.8282 43.5339 85.2923 45.1377C84.9783 45.4644 84.637 45.8728 85.0602 46.3555C85.4766 46.8381 85.8726 46.4965 86.1934 46.1847C86.9238 45.4719 87.6065 44.6996 88.3505 44.0017C94.153 38.5219 100.652 34.1931 107.553 30.577C114.257 27.065 121.172 24.2063 128.578 23.0257C131.719 22.5282 134.872 22.2906 137.958 23.4489C138.163 23.5232 138.381 23.5751 138.593 23.5751C138.811 23.5751 139.016 23.4712 139.105 23.2113C139.187 22.9663 139.139 22.7287 138.989 22.5505C138.681 22.1866 138.245 22.0604 137.835 21.9119C136.258 21.3625 134.633 21.2288 132.988 21.2437V21.2511ZM51.4061 179.815C57.5294 179.666 63.2363 178.241 68.7451 175.82C69.0933 175.664 69.4824 175.575 69.7418 175.241C69.8852 175.055 69.9807 174.847 69.8783 174.595C69.7828 174.357 69.6053 174.239 69.3732 174.209C69.0319 174.172 68.7383 174.335 68.4311 174.461C67.3594 174.899 66.2876 175.337 65.2091 175.738C60.7924 177.372 56.2529 178.3 51.5904 178.411C49.522 178.456 47.4536 178.256 45.4535 177.55C44.9688 177.379 44.2999 176.956 44.0131 177.699C43.706 178.501 44.4978 178.612 44.9552 178.827C45.3511 179.013 45.788 179.109 46.2112 179.221C47.9725 179.689 49.7678 179.755 51.3993 179.8L51.4061 179.815ZM100.672 13.5809C101.915 13.4398 103.068 12.9795 103.908 11.8806C104.911 10.5737 104.433 9.20751 102.904 8.90308C101.519 8.62835 100.351 9.17038 99.3274 10.1208C98.5628 10.8336 98.2761 11.7395 98.5901 12.4523C98.9929 13.3879 99.7984 13.5289 100.679 13.5735L100.672 13.5809Z" fill="#FA4616"/>
<path d="M231.637 56.6648C233.699 56.7613 235.774 56.4272 237.815 57.0509C241.344 58.1276 243.945 60.4368 245.324 64.1048C246.833 68.1144 245.863 73.3565 241.638 75.9479C237.46 78.5096 233.426 81.3311 229.48 84.2937C224.06 88.3627 218.756 92.6099 213.684 97.1912C210.168 100.369 206.728 103.636 203.335 106.978C198.679 111.566 194.283 116.422 189.962 121.367C186.481 125.355 183.211 129.565 179.989 133.812C174.992 140.398 170.329 147.244 165.981 154.342C160.11 163.928 154.84 173.893 150.39 184.347C146.287 193.978 142.86 203.883 140.334 214.159C138.846 220.226 137.665 226.351 136.894 232.559C136.047 239.323 135.843 246.162 136.245 252.956C136.785 261.955 138.321 270.783 141.447 279.203C144 286.079 147.502 292.279 152.212 297.707C160.295 307.025 170.261 312.602 181.566 315.631C182.282 315.824 183.081 315.795 183.689 316.389C181.224 316.619 178.781 316.255 176.357 315.921C170.78 315.149 165.312 313.782 160.001 311.748C149.127 307.59 139.795 300.877 132.17 291.477C125.733 283.54 121.186 274.407 118.176 264.361C116.06 257.285 114.763 250.038 114.141 242.627C113.848 239.145 113.657 235.655 113.691 232.18C113.787 223.522 114.503 214.917 116.032 206.393C118.702 191.52 123.193 177.338 129.166 163.668C135.679 148.759 143.761 134.933 153.141 121.969C159.667 112.947 166.855 104.594 174.541 96.7531C181.948 89.1943 189.86 82.2964 198.256 76.0741C206.025 70.3196 214.1 65.1517 222.606 60.808C225.371 59.3973 228.183 58.1127 230.982 56.7836C231.173 56.6945 231.405 56.7019 231.617 56.6648H231.637Z" fill="#C30000"/>
<path d="M54.2868 95.419C58.2188 88.6918 62.7311 82.4473 67.5232 76.4329C77.2098 64.2557 88.0433 53.4595 100.385 44.5197C107.724 39.2033 115.472 34.7705 124.066 32.3202C128.319 31.1025 132.633 30.5456 137.023 31.2807C144.62 32.5504 149.262 37.889 150.908 46.0121C152.027 51.5587 151.706 57.1127 150.764 62.6296C148.853 73.8861 144.791 84.2813 139.828 94.2978C139.309 95.3521 139.275 95.3521 138.06 94.7581C130.271 90.9193 122.482 87.0657 114.687 83.2269C113.547 82.6626 112.42 82.0389 111.239 81.6156C108.338 80.5613 105.416 80.8286 102.556 81.8235C96.8084 83.8135 92.4941 87.875 89.0536 93.1246C85.8862 97.9584 83.968 103.319 83.5993 109.282C83.4082 112.348 83.8246 115.326 84.8486 118.177C85.6268 120.33 87.0194 121.964 88.7669 123.293C94.9789 128.008 100.474 133.569 105.266 139.955C105.471 140.23 105.662 140.527 105.887 140.779C106.256 141.202 106.277 141.596 105.847 141.982C105.724 142.093 105.614 142.227 105.492 142.353C96.4876 151.508 86.8214 159.676 75.8377 165.869C70.8886 168.66 65.7483 170.933 60.2872 172.262C59.6456 172.418 59.0039 172.536 58.3485 172.544C57.4406 172.373 56.5191 172.269 55.6248 172.032C49.3309 170.339 44.8733 166.24 42.3202 159.773C40.7365 155.778 39.8832 151.583 39.9036 147.202C39.9036 146.734 39.8627 146.251 39.7603 145.799C39.6033 145.093 39.5487 144.388 39.7466 143.697C39.931 143.059 39.9446 142.405 39.9036 141.759C39.7808 139.792 40.0743 137.854 40.3269 135.938C41.1051 130.087 42.4635 124.377 44.2794 118.793C46.3 112.586 48.7097 106.579 51.6928 100.847C52.0273 100.201 52.5256 99.5622 52.3413 98.7083C52.6895 98.6341 52.7646 98.3742 52.7168 98.04V98.0326C52.9216 97.9806 53.0103 97.8396 52.9762 97.6168L52.9694 97.6242C53.3243 97.5648 53.3926 97.305 53.3585 96.9708V96.9634C53.5564 96.904 53.6452 96.7629 53.6179 96.5476V96.555C53.966 96.4808 54.0343 96.2283 54.007 95.8942C54.2118 95.8273 54.3005 95.6714 54.28 95.4412L54.2868 95.419ZM134.19 55.145C134.087 57.5805 134.313 60.1125 134.947 62.585C135.377 64.2557 135.999 65.8372 137.002 67.196C138.729 69.535 141.105 69.6686 143.084 67.5599C144.081 66.5055 144.757 65.2284 145.303 63.8547C146.122 61.7683 146.627 59.5778 146.853 57.3355C147.262 53.2442 147.276 49.1678 146.129 45.1805C145.672 43.5841 145.064 42.0545 144.006 40.8071C142.238 38.7206 139.931 38.6538 138.135 40.6957C137.152 41.8095 136.367 43.0866 135.855 44.5642C134.681 47.9352 134.087 51.4028 134.197 55.1376L134.19 55.145ZM134.258 79.1208C134.251 79.6628 134.326 80.1826 134.47 80.6949C135.186 83.2715 137.412 83.9397 139.125 81.9795C140.668 80.2197 141.275 78.0516 140.859 75.6087C140.654 74.4281 140.183 73.4257 139.057 73.1064C137.849 72.7649 136.791 73.203 135.985 74.2351C134.893 75.6384 134.381 77.3016 134.265 79.1134L134.258 79.1208Z" fill="#DBF505"/>
<path d="M72.6638 20.3938C73.326 21.4779 74.3295 22.2278 74.9302 23.401C76.1726 25.8141 76.159 28.2719 75.3739 30.7741C74.5684 33.3284 73.21 35.5336 71.5034 37.4939C69.0322 40.3451 66.2129 42.7806 63.5848 45.4462C60.6699 48.394 57.8847 51.4977 55.0996 54.5865C47.8431 62.6354 41.2693 71.2931 35.3235 80.53C30.5314 87.9699 26.2308 95.7218 22.6469 103.927C18.5443 113.312 15.3359 123.031 13.6907 133.315C13.2334 136.166 12.9467 139.033 12.6599 141.914C12.3596 144.936 12.3459 147.95 12.4483 150.957C12.776 160.655 15.0014 169.765 19.9505 177.948C21.937 181.23 24.2716 184.185 27.2821 186.435C27.5142 186.605 27.7121 186.798 27.7599 187.118C26.7974 187.118 25.985 186.591 25.1454 186.19C15.3837 181.475 8.90543 173.448 5.19188 162.667C3.47846 157.699 2.57737 152.539 2.18827 147.245C1.21892 134.125 3.47846 121.524 7.26027 109.161C10.182 99.62 14.1549 90.5984 18.7627 81.8813C23.8689 72.2361 29.8624 63.2962 36.4772 54.8167C46.8874 41.4663 58.8473 30.039 72.3635 20.5423C72.4522 20.4829 72.5615 20.4458 72.657 20.4012L72.6638 20.3938Z" fill="#C30000"/>
<path d="M152.223 103.366C154.38 104.198 156.476 105.185 158.428 106.492C160.551 107.91 160.818 109.789 159.186 111.823C152.285 120.421 145.929 129.458 140.277 139.081C138.604 141.932 137.028 144.843 135.403 147.731C134.317 149.662 134.734 149.528 133.034 148.496C121.75 141.65 110.48 134.782 99.2026 127.913C96.3491 126.176 93.5572 124.305 90.6218 122.738C87.2223 120.926 85.7614 117.815 85.1129 114.036C84.3961 109.893 85.031 105.883 86.2461 101.955C86.5533 100.96 86.8127 99.9207 87.3861 99.0371C87.4066 99.7425 87.8708 100.017 88.3623 100.329C91.6936 102.453 95.0726 104.457 98.5609 106.262C103.578 108.861 108.712 111.073 114.064 112.722C117.723 113.85 121.436 114.771 125.218 115.031C129.218 115.298 133.266 115.447 137.226 114.377C140.461 113.501 143.506 112.165 146.284 110.093C148.708 108.289 150.557 105.935 152.23 103.373L152.223 103.366Z" fill="#A3B0B3"/>
<path d="M152.217 103.373C150.545 105.934 148.695 108.288 146.272 110.093C143.493 112.164 140.449 113.501 137.213 114.377C133.254 115.446 129.206 115.305 125.205 115.03C121.43 114.778 117.71 113.85 114.051 112.721C108.699 111.073 103.566 108.86 98.5483 106.261C95.06 104.457 91.681 102.452 88.3497 100.328C87.8582 100.017 87.4008 99.7419 87.3735 99.0365C90.2065 92.3539 94.5071 87.2008 100.671 84.0154C102.863 82.8868 105.17 82.278 107.614 82.3151C109.102 82.3374 110.508 82.6641 111.873 83.3397C124.939 89.7996 138.018 96.2372 151.091 102.682C151.48 102.875 151.91 103.001 152.211 103.38L152.217 103.373ZM122.536 96.2521C123.26 96.2149 123.942 96.3931 124.284 95.6803C124.659 94.8933 124.175 94.3438 123.704 93.824C123.512 93.6161 123.328 93.3934 123.123 93.1929C119.062 89.2205 114.283 86.837 108.972 85.6118C108.583 85.5227 108.228 85.6415 107.866 85.8049C107.163 86.1167 106.972 86.5845 107.354 87.3345C107.668 87.9582 108.003 88.5448 108.522 89.0125C111.532 91.7153 114.959 93.6236 118.577 95.1309C119.894 95.6803 121.239 96.1481 122.529 96.2521H122.536ZM131.137 100.885C131.759 100.9 132.4 100.856 132.762 100.254C133.131 99.6453 132.926 98.9993 132.598 98.4128C131.97 97.2841 129.629 96.0664 128.475 96.2669C127.219 96.4897 126.755 97.6257 127.533 98.7172C128.434 99.9795 129.608 100.789 131.124 100.878L131.137 100.885Z" fill="#CFE5EB"/>
<path d="M52.3525 98.6897C52.5369 99.5436 52.0454 100.175 51.704 100.828C48.7209 106.56 46.3112 112.567 44.2906 118.775C42.4748 124.358 41.1163 130.061 40.3381 135.919C40.0855 137.835 39.792 139.773 39.9149 141.741C39.9558 142.387 39.9422 143.04 39.7579 143.679C39.5599 144.369 39.6145 145.074 39.7715 145.78C39.8739 146.233 39.9149 146.715 39.9149 147.183C39.8944 151.564 40.7477 155.759 42.3314 159.754C44.8845 166.221 49.3421 170.32 55.636 172.013C56.5303 172.25 57.4519 172.362 58.3598 172.525C53.513 173.661 48.7209 173.565 44.1404 171.345C38.9319 168.82 36.2491 164.105 35.0477 158.262C33.8872 152.611 34.2285 146.96 35.191 141.325C37.0273 130.558 40.8842 120.601 45.533 110.963C47.2532 107.399 49.1168 103.91 51.1033 100.509C51.4719 99.8777 51.704 99.1055 52.3525 98.6971V98.6897Z" fill="#A8BA20"/>
<path d="M20.9142 57.0251C25.0032 51.1963 30.3551 47.8476 37.1132 47.2981C37.7276 47.2462 38.5331 47.0308 38.8744 47.8179C39.2294 48.6347 38.9427 49.444 38.4034 50.1123C36.7583 52.169 35.0517 54.1812 33.4748 56.2974C31.0104 59.609 28.628 63.0023 26.2115 66.3585C22.8461 64.3165 20.4773 61.6138 20.9142 57.0251ZM29.0717 54.8792C29.4882 54.9386 29.9455 54.6862 30.3824 54.4931C31.7955 53.8842 33.1949 53.1937 34.2052 51.9017C34.5055 51.523 34.8605 51.0107 34.4919 50.4613C34.1847 50.0009 33.6727 49.8227 33.1744 49.9638C31.2562 50.5058 29.5155 51.4265 28.1092 52.9932C27.7747 53.3645 27.6928 53.8397 27.8703 54.3075C28.0683 54.8272 28.512 54.8866 29.0649 54.8718L29.0717 54.8792Z" fill="#CFE5EB"/>
<path d="M20.9277 57.0226C20.4908 61.6113 22.8664 64.3215 26.225 66.3559C23.5218 70.7739 20.7434 75.1325 18.2996 79.8029C14.47 73.8628 15.9172 63.4008 20.9277 57.0151V57.0226Z" fill="#A3B0B3"/>
<path d="M183.909 316.396C184.62 316.336 185.337 316.166 185.993 316.641C185.283 316.693 184.565 316.842 183.909 316.396Z" fill="#C30000"/>
<path d="M54.0046 95.8708C54.0388 96.2056 53.9636 96.466 53.6147 96.533C53.6147 96.2205 53.7037 95.975 54.0046 95.8708Z" fill="#A8BA20"/>
<path d="M52.7148 98.0264C52.7558 98.3611 52.6874 98.6215 52.3386 98.6959C52.3181 98.376 52.3933 98.1156 52.7148 98.0264Z" fill="#A8BA20"/>
<path d="M27.7793 187.102C28.1003 187.043 28.3394 187.124 28.4145 187.511C28.1686 187.436 27.8954 187.414 27.7793 187.102Z" fill="#C30000"/>
<path d="M53.365 96.9526C53.3992 97.2874 53.3308 97.5478 52.9751 97.6073C52.9751 97.2949 53.064 97.0493 53.365 96.9526Z" fill="#A8BA20"/>
<path d="M54.2745 95.4209C54.2949 95.65 54.2066 95.7977 54.0028 95.8716C53.9892 95.65 54.0775 95.4948 54.2745 95.4209Z" fill="#A8BA20"/>
<path d="M52.9622 97.6079C52.9961 97.8293 52.9079 97.9695 52.7044 98.0211C52.6773 97.7998 52.7451 97.6522 52.9622 97.6079Z" fill="#A8BA20"/>
<path d="M53.6189 96.5342C53.6461 96.7556 53.5579 96.8958 53.3611 96.9474C53.3408 96.7334 53.4154 96.5858 53.6189 96.5342Z" fill="#A8BA20"/>
<path d="M280.879 248.29C277.043 252.329 273.063 256.205 268.981 259.955C258.448 269.644 247.157 278.116 234.739 284.732C225.981 289.395 216.895 293.026 207.243 294.764C199.918 296.085 192.587 296.308 185.31 294.378C172.497 290.984 164.073 282.334 159.765 268.872C157.328 261.254 156.714 253.361 157.069 245.357C157.779 229.549 161.943 214.691 167.793 200.331C175.336 181.82 185.351 164.972 197.338 149.513C209.891 133.326 224.056 119.04 240.344 107.346C250.399 100.129 261.001 94.1068 272.517 90.0899C280.893 87.1644 289.439 85.5457 298.266 85.9095C298.648 86.1991 299.099 86.1694 299.529 86.1842C301.993 86.2511 304.41 86.6817 306.792 87.3351C315.905 89.8448 323.189 95.1835 328.193 103.953C332.227 111.014 334.091 118.84 334.582 127.045C334.903 132.428 334.862 137.841 334.22 143.217C333.306 150.872 331.695 158.364 329.51 165.707C326.336 176.348 322.11 186.49 317.141 196.269C308.84 212.605 298.737 227.507 287.064 241.162C286.067 242.327 284.982 243.411 284.162 244.748C283.664 245.134 283.248 245.602 282.913 246.159C282.702 246.181 282.586 246.3 282.572 246.53C282.36 246.537 282.251 246.664 282.244 246.886C282.039 246.901 281.93 247.02 281.91 247.243C281.705 247.258 281.596 247.384 281.575 247.607C281.37 247.629 281.261 247.748 281.241 247.97C281.043 247.985 280.927 248.112 280.859 248.297L280.879 248.29ZM222.37 124.038L222.329 124.075C222.131 124.075 222.029 124.171 222.015 124.387L221.995 124.409C221.79 124.409 221.681 124.513 221.667 124.736H221.66C221.455 124.743 221.339 124.847 221.319 125.077C221.114 125.077 220.991 125.188 220.977 125.419C220.773 125.419 220.643 125.523 220.629 125.753C220.425 125.753 220.302 125.857 220.281 126.087H220.274C218.472 127.253 217.114 128.975 215.612 130.505C202.56 143.796 191.31 158.735 181.692 175.115C174.148 187.968 167.923 201.534 163.581 216.057C160.209 227.351 158.018 238.867 158.277 250.814C158.42 257.326 159.287 263.697 161.431 269.808C165.008 279.973 171.261 287.398 180.675 291.341C188.989 294.823 197.583 295.053 206.28 293.405C210.697 292.885 214.943 291.586 219.148 290.115C230.07 286.292 240.166 280.604 249.751 273.817C265.178 262.895 278.729 249.634 290.798 234.561C304.321 217.676 315.584 199.195 323.687 178.545C328.964 165.106 332.698 151.221 333.422 136.512C333.763 129.525 333.299 122.627 331.579 115.885C329.558 107.984 325.974 101.101 320.035 95.8592C313.973 90.5131 306.901 88.0331 299.228 87.4094C290.456 86.6966 281.951 88.3078 273.609 91.1368C263.506 94.5672 254.085 99.6089 245.116 105.66C237.17 111.014 229.627 116.961 222.67 123.763C222.479 123.748 222.384 123.845 222.377 124.052L222.37 124.038Z" fill="#120B03"/>
<path d="M284.16 244.773C284.972 243.429 286.064 242.345 287.061 241.186C298.741 227.524 308.844 212.629 317.138 196.294C322.108 186.508 326.333 176.372 329.507 165.732C331.699 158.389 333.31 150.897 334.218 143.241C334.859 137.873 334.9 132.46 334.579 127.07C334.088 118.865 332.224 111.046 328.19 103.977C323.179 95.2157 315.902 89.8696 306.789 87.3599C304.407 86.7065 301.99 86.2758 299.526 86.209C299.096 86.1942 298.645 86.2313 298.263 85.9343C301.881 85.667 305.424 86.3427 308.939 87.1075C315.145 88.4588 320.674 91.4289 325.493 95.8543C328.381 98.505 330.736 101.698 332.695 105.225C335.87 110.927 337.651 117.142 338.607 123.706C339.276 128.302 339.378 132.913 339.146 137.509C338.887 142.751 338.143 147.942 337.139 153.095C335.726 160.342 333.815 167.433 331.269 174.301C328.777 181.006 325.896 187.51 322.572 193.784C319.855 198.923 316.96 203.935 313.854 208.798C310.844 213.513 307.601 218.035 304.263 222.49C298.57 230.086 292.256 237.028 285.825 243.859C285.361 244.35 284.952 244.958 284.167 244.78L284.16 244.773Z" fill="#C30000"/>
<path d="M270.656 51.0011C272.295 50.9046 273.919 51.0828 275.53 51.3575C276.227 51.4763 276.923 51.6694 277.537 52.0629C278.541 52.694 278.677 53.6073 277.879 54.5429C277.162 55.3819 276.24 55.8943 275.298 56.3695C272.718 57.6689 269.994 58.4782 267.223 59.1019C263.277 59.9929 259.29 60.5498 255.242 60.4385C253.932 60.4013 252.635 60.2974 251.365 59.9187C251.003 59.8073 250.628 59.6959 250.293 59.5029C249.064 58.8049 248.935 57.9288 249.931 56.8595C250.798 55.924 251.891 55.3745 252.996 54.8696C256.526 53.2509 260.239 52.3748 264.001 51.7065C266.205 51.313 268.431 51.157 270.656 51.0011Z" fill="white"/>
<path d="M328.238 84.0961C328.184 84.5861 327.931 84.8831 327.474 84.7049C327.126 84.5713 326.819 84.2966 326.511 84.0515C318.402 77.5174 309.193 74.1613 299.24 73.0623C284.85 71.4659 271.115 74.384 257.865 80.3835C248.069 84.8163 239.154 90.8232 231.119 98.3598C230.833 98.6271 230.532 98.8869 230.225 99.1394C229.904 99.3993 229.59 99.325 229.358 99.0132C229.174 98.7607 229.194 98.4489 229.399 98.1964C229.618 97.9291 229.85 97.6841 230.102 97.4539C244.015 84.5564 259.852 75.9804 277.901 72.5426C289 70.4264 300.052 70.6417 310.947 74.139C316.804 76.0175 322.238 78.8465 327.153 82.819C327.576 83.1605 328.109 83.4204 328.245 84.0961H328.238Z" fill="#120B03"/>
<path d="M192.152 305.098C187.626 305.001 183.052 304.727 178.602 303.353C178.028 303.175 177.455 302.967 176.895 302.737C176.561 302.603 176.356 302.299 176.451 301.898C176.547 301.482 176.875 301.393 177.229 301.452C177.387 301.482 177.544 301.556 177.701 301.608C183.189 303.472 188.834 303.873 194.534 303.591C210.583 302.811 225.717 298.319 239.998 290.352C242.428 288.993 244.742 287.419 246.981 285.726C247.296 285.488 247.61 285.251 247.944 285.065C248.21 284.924 248.49 285.028 248.668 285.288C248.845 285.555 248.831 285.882 248.606 286.097C248.244 286.453 247.855 286.78 247.453 287.085C241.561 291.465 235.165 294.762 228.496 297.45C219.71 300.984 210.658 303.331 201.361 304.504C198.323 304.89 195.272 304.987 192.159 305.113L192.152 305.098Z" fill="#120B03"/>
<path d="M287.088 55.7452C286.064 55.6709 285.101 55.5447 284.234 54.9507C283.599 54.5126 283.128 53.9929 283.176 53.1018C283.224 52.2777 283.736 51.8396 284.35 51.5426C286.009 50.7258 287.647 50.8966 289.197 51.8693C289.818 52.2554 290.378 52.8568 290.289 53.7107C290.207 54.5275 289.641 55.0175 288.951 55.3591C288.33 55.6635 287.675 55.6264 287.081 55.76L287.088 55.7452Z" fill="white"/>
<path d="M282.569 246.555C282.583 246.321 282.701 246.2 282.916 246.177C282.888 246.396 282.777 246.524 282.569 246.555Z" fill="#C30000"/>
<path d="M282.241 246.911C282.255 246.684 282.366 246.556 282.574 246.549C282.546 246.767 282.435 246.88 282.241 246.911Z" fill="#C30000"/>
<path d="M281.909 247.258C281.93 247.032 282.041 246.911 282.249 246.896C282.221 247.107 282.103 247.228 281.909 247.258Z" fill="#C30000"/>
<path d="M281.582 247.613C281.602 247.387 281.713 247.266 281.921 247.243C281.894 247.455 281.776 247.575 281.582 247.613Z" fill="#C30000"/>
<path d="M281.254 247.968C281.275 247.742 281.386 247.621 281.594 247.599C281.566 247.81 281.448 247.93 281.254 247.968Z" fill="#C30000"/>
<path d="M280.867 248.287C280.935 248.095 281.05 247.977 281.247 247.962C281.2 248.176 281.071 248.287 280.867 248.287Z" fill="#C30000"/>
<path d="M81.6274 23.9563C81.3475 23.934 81.013 23.9563 80.699 23.882C79.5931 23.6296 79.1562 22.7683 79.5658 21.6322C79.832 20.9046 80.2962 20.3031 80.8287 19.7908C84.3648 16.3901 88.4265 14.0883 93.0479 13.0116C93.5735 12.8928 94.1401 12.8854 94.6726 12.9448C96.1881 13.1082 96.7069 14.2813 95.915 15.7218C95.6965 16.1228 95.4167 16.5089 95.1027 16.8282C91.5461 20.4071 87.3684 22.7014 82.6513 23.8523C82.3373 23.9266 82.0028 23.9117 81.6274 23.9489V23.9563Z" fill="white"/>
<path d="M132.989 21.2477C134.635 21.2328 136.259 21.3665 137.836 21.9159C138.246 22.057 138.683 22.1832 138.99 22.5545C139.14 22.7327 139.188 22.9629 139.106 23.2153C139.017 23.4752 138.812 23.5717 138.594 23.5792C138.382 23.5792 138.157 23.5272 137.959 23.4529C134.874 22.2872 131.713 22.5248 128.58 23.0297C121.173 24.2103 114.258 27.069 107.554 30.5811C100.653 34.1971 94.1541 38.5259 88.3517 44.0057C87.6144 44.7037 86.925 45.4759 86.1946 46.1887C85.8669 46.5005 85.4778 46.8495 85.0614 46.3595C84.645 45.8768 84.9795 45.4685 85.2935 45.1417C86.8294 43.5453 88.42 42.0083 90.1129 40.5976C99.8815 32.4745 110.647 26.5195 122.511 22.9554C125.931 21.9308 129.419 21.2402 132.989 21.2551V21.2477Z" fill="#120B03"/>
<path d="M51.394 179.811C49.7625 179.766 47.9672 179.699 46.206 179.231C45.7827 179.12 45.3527 179.024 44.9499 178.838C44.4857 178.623 43.7007 178.511 44.0079 177.709C44.2946 176.959 44.9636 177.39 45.4482 177.561C47.4484 178.266 49.5099 178.467 51.5852 178.422C56.2476 178.318 60.7871 177.383 65.2038 175.749C66.2892 175.348 67.3541 174.903 68.4258 174.472C68.733 174.346 69.0266 174.182 69.3679 174.219C69.6 174.242 69.7775 174.361 69.873 174.606C69.9754 174.858 69.873 175.066 69.7365 175.252C69.4771 175.586 69.088 175.675 68.7399 175.831C63.231 178.244 57.5309 179.67 51.4008 179.825L51.394 179.811Z" fill="#120B03"/>
<path d="M100.657 13.576C99.7764 13.5315 98.9778 13.3904 98.5682 12.4548C98.2542 11.742 98.5477 10.8287 99.3054 10.1233C100.329 9.17292 101.497 8.63088 102.882 8.90561C104.412 9.21004 104.889 10.5763 103.886 11.8831C103.039 12.982 101.886 13.4349 100.65 13.5834L100.657 13.576Z" fill="white"/>
<path d="M134.172 55.1448C134.062 51.4099 134.656 47.9424 135.83 44.5714C136.342 43.0938 137.134 41.8167 138.11 40.7029C139.913 38.661 142.22 38.7278 143.981 40.8143C145.039 42.0617 145.647 43.5913 146.104 45.1877C147.251 49.175 147.237 53.2514 146.828 57.3426C146.602 59.585 146.097 61.7754 145.278 63.8619C144.739 65.2355 144.056 66.5127 143.06 67.567C141.08 69.6683 138.704 69.5421 136.977 67.2032C135.974 65.8444 135.353 64.2628 134.923 62.5922C134.288 60.1122 134.062 57.5876 134.165 55.1522L134.172 55.1448Z" fill="white"/>
<path d="M134.239 79.1214C134.362 77.3097 134.867 75.6465 135.959 74.2431C136.765 73.2036 137.823 72.7655 139.031 73.1145C140.158 73.4338 140.629 74.4362 140.833 75.6168C141.257 78.0596 140.649 80.2278 139.1 81.9875C137.386 83.9403 135.168 83.2721 134.444 80.703C134.301 80.1832 134.226 79.6709 134.232 79.1289L134.239 79.1214Z" fill="white"/>
<path d="M122.541 96.2532C121.251 96.1419 119.906 95.6741 118.589 95.132C114.964 93.6247 111.544 91.7239 108.534 89.0137C108.008 88.5459 107.68 87.9594 107.366 87.3356C106.984 86.5857 107.175 86.1179 107.878 85.8061C108.24 85.6427 108.595 85.5239 108.984 85.613C114.288 86.8382 119.074 89.2216 123.135 93.1941C123.34 93.3946 123.524 93.6099 123.716 93.8252C124.187 94.345 124.671 94.8944 124.296 95.6815C123.954 96.3943 123.272 96.2161 122.548 96.2532H122.541Z" fill="white"/>
<path d="M131.14 100.883C129.625 100.794 128.451 99.9845 127.55 98.7222C126.771 97.6233 127.236 96.4947 128.492 96.2719C129.645 96.0715 131.987 97.2817 132.615 98.4178C132.936 99.0044 133.147 99.6504 132.779 100.259C132.41 100.861 131.775 100.905 131.154 100.89L131.14 100.883Z" fill="white"/>
<path d="M29.0832 54.8797C28.5303 54.8946 28.0866 54.8352 27.8886 54.3154C27.7111 53.8476 27.7999 53.3724 28.1275 53.0012C29.5269 51.427 31.2677 50.5063 33.1927 49.9717C33.691 49.8306 34.203 50.0089 34.5102 50.4692C34.872 51.0112 34.517 51.5236 34.2235 51.9097C33.2064 53.2017 31.8138 53.8922 30.4007 54.5011C29.957 54.6941 29.4996 54.9466 29.0901 54.8872L29.0832 54.8797Z" fill="white"/>
<path d="M222.67 123.739C229.627 116.93 237.17 110.99 245.116 105.636C254.092 99.5847 263.506 94.5431 273.609 91.1127C281.951 88.2837 290.456 86.6724 299.228 87.3852C306.901 88.0089 313.98 90.4889 320.035 95.835C325.974 101.077 329.558 107.96 331.579 115.861C333.306 122.603 333.77 129.501 333.422 136.488C332.705 151.197 328.964 165.082 323.687 178.521C315.584 199.163 304.321 217.652 290.798 234.537C278.729 249.61 265.178 262.871 249.751 273.793C240.167 280.58 230.07 286.267 219.148 290.091C214.943 291.562 210.697 292.868 206.28 293.381C206.157 292.98 205.864 292.824 205.523 292.854C204.69 292.92 203.905 292.631 203.113 292.453C197.802 291.235 192.969 288.874 188.818 285.042C183.357 280.008 179.801 273.57 177.357 266.324C174.688 258.401 173.91 250.137 173.555 241.798C173.473 239.912 173.718 238.019 173.773 236.14C173.903 231.284 174.442 226.495 175.118 221.706C176.155 214.325 177.821 207.108 179.883 200.01C182.839 189.83 186.627 180.021 191.208 170.562C193.774 165.26 196.505 160.077 199.488 155.05C205.386 145.138 211.987 135.819 219.626 127.407C219.96 127.043 220.431 126.731 220.268 126.078H220.274C220.5 126.107 220.616 125.989 220.623 125.743C220.841 125.751 220.95 125.632 220.971 125.409C221.176 125.409 221.285 125.291 221.312 125.068C221.517 125.068 221.626 124.949 221.653 124.734L221.66 124.726C221.851 124.719 221.961 124.607 221.988 124.4L222.008 124.377C222.193 124.377 222.295 124.266 222.322 124.065L222.363 124.028C222.541 124.028 222.63 123.924 222.657 123.739H222.67ZM326.827 132.537C326.971 125.513 325.933 119.588 324.541 115.43C323.81 113.24 322.909 111.146 321.394 109.46C319.25 107.077 316.718 106.995 314.424 109.193C313.386 110.188 312.622 111.406 311.966 112.72C308.765 119.143 307.877 126.159 307.516 133.295C307.386 135.894 307.481 138.5 307.707 141.106C307.98 144.306 308.424 147.455 309.229 150.536C309.912 153.172 310.854 155.696 312.424 157.894C314.731 161.124 317.742 161.34 320.383 158.466C320.731 158.087 321.032 157.672 321.332 157.248C322.636 155.385 323.503 153.283 324.206 151.093C326.152 145.041 326.923 138.797 326.827 132.552V132.537ZM222.213 201.398C222.145 203.076 222.391 205.72 222.964 208.326C223.606 211.236 224.589 213.984 226.336 216.338C229.183 220.169 233.135 220.845 236.944 218.164C237.818 217.548 238.637 216.85 239.306 215.989C239.818 215.328 240.248 215.283 240.952 215.714C245.116 218.298 249.348 220.755 253.485 223.399C257.075 225.693 260.844 227.505 264.769 228.968C272.783 231.953 280.388 230.831 287.494 226.042C295.945 220.347 301.133 212.046 303.188 201.487C304.539 194.56 304.034 187.78 301.133 181.365C298.771 176.138 295.201 172.225 290.259 169.804C279.978 164.77 269.725 159.676 259.465 154.59C258.912 154.315 258.352 154.085 257.744 154.1C256.222 154.145 254.693 154.159 253.184 154.486C249.928 155.199 246.986 156.729 244.242 158.696C236.453 164.295 230.691 171.839 226.555 180.883C223.749 187.016 222.227 193.513 222.213 201.398ZM306.382 176.569C306.417 177.326 306.382 177.987 306.478 178.625C306.751 180.333 307.42 181.811 308.99 182.509C310.553 183.207 311.844 182.405 313.065 181.439C313.195 181.335 313.304 181.202 313.427 181.076C315.318 179.138 316.356 176.702 316.943 173.992C317.352 172.113 317.4 170.227 316.84 168.386C316.014 165.654 313.823 164.027 310.942 166.121C310.628 166.352 310.335 166.626 310.069 166.916C307.57 169.596 306.417 172.878 306.382 176.561V176.569Z" fill="#DBF505"/>
<path d="M220.286 126.072C220.443 126.726 219.972 127.038 219.644 127.401C211.999 135.814 205.405 145.133 199.507 155.045C196.517 160.065 193.786 165.255 191.226 170.556C186.652 180.016 182.857 189.825 179.901 200.004C177.84 207.103 176.174 214.32 175.136 221.701C174.461 226.49 173.921 231.279 173.792 236.135C173.744 238.014 173.491 239.907 173.573 241.793C173.928 250.132 174.706 258.396 177.375 266.318C179.819 273.565 183.376 280.003 188.837 285.037C192.987 288.868 197.82 291.23 203.131 292.447C203.923 292.626 204.708 292.915 205.541 292.848C205.882 292.819 206.183 292.975 206.299 293.375C197.602 295.024 189.008 294.794 180.693 291.311C171.279 287.369 165.026 279.951 161.449 269.778C159.299 263.668 158.439 257.297 158.296 250.785C158.036 238.83 160.228 227.314 163.6 216.028C167.941 201.497 174.16 187.931 181.71 175.086C191.329 158.706 202.572 143.766 215.63 130.475C217.132 128.946 218.491 127.223 220.293 126.065L220.286 126.072Z" fill="#A8BA20"/>
<path d="M220.629 125.741C220.622 125.983 220.514 126.1 220.286 126.071C220.306 125.844 220.427 125.741 220.629 125.741Z" fill="#A8BA20"/>
<path d="M220.976 125.402C220.956 125.628 220.849 125.746 220.633 125.731C220.647 125.504 220.775 125.402 220.976 125.402Z" fill="#A8BA20"/>
<path d="M221.303 125.062C221.282 125.285 221.166 125.397 220.961 125.404C220.975 125.174 221.098 125.069 221.303 125.062Z" fill="#A8BA20"/>
<path d="M222.004 124.399C221.976 124.607 221.867 124.719 221.675 124.726C221.689 124.503 221.805 124.399 222.004 124.399Z" fill="#A8BA20"/>
<path d="M222.338 124.068C222.31 124.268 222.208 124.373 222.023 124.38C222.037 124.164 222.139 124.06 222.338 124.068Z" fill="#A8BA20"/>
<path d="M222.686 123.753C222.659 123.94 222.562 124.038 222.39 124.045C222.39 123.835 222.493 123.738 222.686 123.753Z" fill="#A8BA20"/>
<path d="M221.654 124.73C221.627 124.946 221.517 125.058 221.312 125.065C221.326 124.835 221.449 124.73 221.654 124.73Z" fill="#A8BA20"/>
<path d="M326.822 132.545C326.917 138.79 326.146 145.034 324.2 151.086C323.497 153.276 322.63 155.385 321.326 157.241C321.033 157.664 320.726 158.088 320.378 158.459C317.729 161.332 314.725 161.117 312.418 157.887C310.855 155.697 309.913 153.165 309.223 150.529C308.425 147.447 307.974 144.299 307.701 141.099C307.483 138.493 307.38 135.886 307.51 133.288C307.872 126.152 308.759 119.135 311.961 112.713C312.616 111.398 313.381 110.181 314.418 109.186C316.712 106.988 319.251 107.062 321.388 109.453C322.903 111.139 323.804 113.232 324.535 115.423C325.921 119.581 326.965 125.506 326.822 132.53V132.545Z" fill="white"/>
<path d="M222.22 201.402C222.233 193.517 223.756 187.02 226.561 180.886C230.698 171.843 236.459 164.299 244.248 158.7C246.993 156.725 249.935 155.203 253.191 154.49C254.7 154.163 256.222 154.149 257.751 154.104C258.358 154.089 258.918 154.319 259.471 154.594C269.731 159.673 279.984 164.774 290.265 169.808C295.207 172.229 298.784 176.142 301.139 181.369C304.041 187.784 304.546 194.563 303.194 201.491C301.133 212.05 295.945 220.351 287.5 226.046C280.394 230.835 272.783 231.956 264.775 228.972C260.85 227.509 257.082 225.697 253.491 223.403C249.355 220.767 245.122 218.309 240.958 215.718C240.255 215.28 239.825 215.332 239.313 215.992C238.644 216.854 237.825 217.559 236.951 218.168C233.142 220.841 229.189 220.165 226.343 216.341C224.588 213.988 223.612 211.24 222.971 208.33C222.397 205.723 222.151 203.08 222.22 201.402ZM264.57 227.256C269.697 229.632 274.947 229.877 280.23 228.081C289.323 224.999 295.59 218.383 299.583 209.154C302.757 201.825 303.611 194.148 301.535 186.277C299.808 179.706 296.34 174.449 290.572 171.501C280.264 166.244 269.847 161.225 259.478 156.124C258.215 155.5 256.87 155.307 255.485 155.47C253.02 155.767 250.679 156.51 248.46 157.698C242.726 160.772 238.064 165.256 234.118 170.669C232.425 172.771 230.998 175.08 229.695 177.471C226.868 182.661 224.732 188.141 224.076 194.207C223.749 197.251 223.913 200.244 225.039 203.11C225.524 204.35 226.268 205.248 227.387 205.924C234.343 210.104 241.252 214.396 248.214 218.569C251.792 220.707 255.225 223.135 258.952 224.977C260.775 225.875 262.564 226.9 264.57 227.264V227.256Z" fill="#110A08"/>
<path d="M306.391 176.576C306.425 172.893 307.578 169.611 310.077 166.93C310.35 166.641 310.637 166.366 310.951 166.136C313.831 164.042 316.023 165.661 316.849 168.4C317.408 170.242 317.354 172.128 316.951 174.006C316.364 176.717 315.326 179.152 313.435 181.09C313.319 181.209 313.21 181.35 313.074 181.454C311.852 182.419 310.562 183.221 308.998 182.523C307.428 181.825 306.759 180.347 306.486 178.64C306.384 178.001 306.418 177.34 306.391 176.583V176.576Z" fill="white"/>
<path d="M234.106 170.669C238.052 165.256 242.714 160.771 248.449 157.697C250.667 156.509 253.009 155.759 255.473 155.469C256.859 155.306 258.204 155.499 259.466 156.123C269.843 161.224 280.253 166.243 290.561 171.5C296.336 174.441 299.797 179.705 301.524 186.276C303.592 194.147 302.739 201.824 299.571 209.153C295.578 218.383 289.305 224.998 280.219 228.08C274.935 229.877 269.686 229.632 264.559 227.256C264.573 226.736 264.163 226.602 263.883 226.335C262.177 224.731 260.702 222.912 259.746 220.677C258.047 216.69 257.931 212.435 258.415 208.195C258.791 204.913 259.78 201.772 261.084 198.743C261.985 196.657 263.009 194.637 263.835 192.513C264.211 191.541 264.532 190.575 264.368 189.454C264.095 187.516 262.921 186.492 261.453 185.719C256.893 183.314 252.408 180.752 247.807 178.435C243.554 176.289 239.404 173.921 235.212 171.641C234.782 171.411 234.284 171.248 234.1 170.669H234.106ZM265.74 210.623C265.692 212.962 266.054 215.398 267.112 217.67C268.935 221.583 272.573 223.654 276.56 223.187C279.509 222.838 282.171 221.702 284.567 219.89C291.803 214.417 296.247 206.926 297.817 197.496C298.343 194.318 298.233 191.11 297.107 188.043C295.387 183.373 291.564 180.908 286.97 181.509C284.779 181.799 282.731 182.556 280.806 183.729C274.375 187.635 270.232 193.642 267.508 200.933C266.375 203.97 265.706 207.141 265.733 210.638L265.74 210.623ZM272.375 166.34C271.631 166.377 271.242 166.355 270.873 166.429C269.31 166.748 268.825 167.847 269.515 169.399C269.829 170.104 270.266 170.706 270.805 171.203C273.304 173.505 276.184 174.923 279.386 175.584C280.225 175.755 281.004 175.428 281.727 175.012C282.451 174.597 282.656 173.906 282.348 173.074C282.164 172.584 281.966 172.072 281.652 171.686C279.092 168.53 275.775 166.971 272.382 166.34H272.375ZM261.262 160.667C260.668 160.667 260.449 160.667 260.231 160.667C259.617 160.689 258.989 160.786 258.729 161.476C258.449 162.226 258.797 162.82 259.289 163.362C260.77 164.996 262.634 165.723 264.661 165.976C265.378 166.065 266.129 165.842 266.443 165.033C266.75 164.238 266.423 163.555 265.849 162.984C264.436 161.58 262.77 160.838 261.255 160.66L261.262 160.667Z" fill="#CFE5EB"/>
<path d="M234.109 170.668C234.293 171.247 234.792 171.403 235.222 171.641C239.413 173.921 243.57 176.289 247.816 178.435C252.417 180.752 256.902 183.313 261.462 185.719C262.937 186.499 264.111 187.523 264.377 189.454C264.534 190.575 264.22 191.54 263.845 192.513C263.019 194.637 261.995 196.656 261.094 198.743C259.79 201.772 258.8 204.913 258.424 208.195C257.94 212.435 258.056 216.682 259.756 220.677C260.711 222.912 262.179 224.738 263.892 226.335C264.172 226.594 264.582 226.735 264.568 227.255C262.561 226.884 260.766 225.867 258.95 224.968C255.23 223.127 251.789 220.699 248.212 218.56C241.249 214.395 234.348 210.096 227.385 205.915C226.259 205.24 225.521 204.341 225.037 203.101C223.917 200.235 223.746 197.25 224.074 194.199C224.729 188.14 226.866 182.66 229.692 177.462C230.996 175.071 232.423 172.762 234.116 170.661L234.109 170.668Z" fill="#A3B0B3"/>
<path d="M265.755 210.618C265.734 207.12 266.397 203.95 267.53 200.913C270.253 193.629 274.397 187.622 280.828 183.709C282.753 182.543 284.8 181.778 286.992 181.489C291.586 180.887 295.409 183.352 297.129 188.023C298.255 191.089 298.371 194.304 297.839 197.475C296.269 206.905 291.825 214.397 284.589 219.869C282.186 221.688 279.53 222.824 276.581 223.166C272.595 223.634 268.956 221.562 267.134 217.649C266.076 215.377 265.707 212.942 265.762 210.603L265.755 210.618ZM267.141 210.254C267.113 211.865 267.168 213.461 267.618 215.006C269.079 220.033 272.069 221.815 275.776 221.755C278.582 221.711 281.237 220.716 283.599 218.978C290.617 213.795 294.951 206.66 296.562 197.616C297.108 194.557 296.999 191.468 295.934 188.513C294.583 184.763 291.77 182.721 288.07 182.796C286.077 182.833 284.2 183.434 282.425 184.385C277.353 187.087 273.708 191.409 270.916 196.629C268.67 200.831 267.202 205.316 267.154 210.246L267.141 210.254Z" fill="#110A08"/>
<path d="M272.382 166.342C275.775 166.973 279.092 168.532 281.652 171.688C281.966 172.074 282.171 172.594 282.348 173.076C282.656 173.908 282.451 174.606 281.727 175.014C281.004 175.43 280.225 175.757 279.386 175.586C276.184 174.925 273.303 173.5 270.805 171.205C270.266 170.708 269.829 170.114 269.515 169.401C268.832 167.849 269.317 166.743 270.873 166.431C271.242 166.357 271.631 166.379 272.375 166.342H272.382Z" fill="white"/>
<path d="M261.265 160.665C262.78 160.843 264.446 161.586 265.859 162.989C266.432 163.553 266.76 164.244 266.453 165.038C266.139 165.848 265.388 166.07 264.671 165.981C262.644 165.721 260.78 165.001 259.299 163.368C258.807 162.826 258.452 162.232 258.739 161.482C258.998 160.791 259.633 160.694 260.241 160.672C260.459 160.665 260.678 160.672 261.271 160.672L261.265 160.665Z" fill="white"/>
<path d="M267.147 210.265C267.195 205.335 268.663 200.85 270.909 196.648C273.701 191.42 277.346 187.106 282.418 184.404C284.193 183.453 286.07 182.852 288.063 182.815C291.763 182.74 294.576 184.782 295.927 188.532C296.992 191.487 297.102 194.576 296.555 197.635C294.944 206.679 290.61 213.815 283.592 218.997C281.237 220.742 278.582 221.73 275.769 221.774C272.062 221.834 269.072 220.052 267.612 215.025C267.161 213.48 267.106 211.877 267.134 210.273L267.147 210.265Z" fill="#A3B0B3"/>
</svg>
